<svg width="100" height="71" viewBox="0 0 100 71" fill="none" xmlns="http://www.w3.org/2000/svg">
<g clip-path="url(#clip0_6561_3710)">
<path d="M99.1686 51.7766C99.5979 51.7766 99.9297 53.4759 99.9297 55.5659C99.9297 57.6558 99.5784 59.3551 99.1686 59.3551H93.6453V59.6871H94.1118V60.1754H93.6453V60.7028H93.1769V60.1754H89.1936V59.3551H87.3804C86.9901 59.3551 86.6817 57.9488 86.6291 56.1225L88.61 56.3257L81.4083 55.5874V55.6245H81.1448L80.7818 55.7026L80.7233 55.8393C80.6062 56.1518 80.3329 56.3862 80.0012 56.4448L76.2539 57.2671L76.1778 57.3042H72.9576V57.2847H72.9556V55.7221H72.8951L70.1491 64.6678H71.7085V64.6288H71.6109V64.2577H71.7085V63.7889H72.0988V64.2577H72.1769V64.6288H72.0988V64.6678H72.4482V64.9218H72.0988V65.1952H73.3479C73.426 65.1952 73.4845 65.2343 73.5431 65.2929C73.7968 65.664 73.9334 66.1132 73.9334 66.6211C73.9334 67.1289 73.7773 67.5781 73.5431 67.9492C73.504 68.0078 73.426 68.0469 73.3479 68.0469H72.0988V68.3399H72.4482V68.5938H72.0988V68.6329H72.1769V69.004H72.0988V69.4727H71.7085V69.004H71.6109V68.6329H71.7085V68.5938H70.0086C69.6378 68.5938 69.3255 68.2813 69.3255 67.9102V67.3516L68.8961 68.7501L59.6842 70.7423C54.1336 71.9533 48.8251 68.545 47.3477 63.3787L47.1779 63.6131C47.1779 63.6131 46.1923 64.0741 44.5939 64.6464C44.6114 64.9843 44.6212 65.3378 44.6212 65.703C44.6212 68.2227 44.1528 70.2736 43.5673 70.2736H21.3767C20.7912 70.2736 20.3228 68.2227 20.3228 65.703C20.3228 65.0819 20.3521 64.4901 20.4028 63.9491L15.5802 61.0759V68.3008L11.7354 69.9806L9.33487 70.0978L8.86647 68.3008V57.4663C7.64472 56.4272 6.73719 55.0287 6.30977 53.433L0.00390625 49.7648V35.2329L6.30587 31.5648C6.73329 29.969 7.64081 28.5686 8.86452 27.5294V16.7165H8.87037L9.33292 14.9195L11.7335 15.0367L15.5334 16.7165H15.5783V24L20.4009 21.121C20.3501 20.5819 20.3209 19.992 20.3209 19.3748C20.3209 16.8356 20.7893 14.8043 21.3748 14.8043H43.5653C44.1508 14.8238 44.6192 16.8747 44.6192 19.3748C44.6192 19.7322 44.6095 20.0779 44.5919 20.4119C45.316 20.6717 45.9151 20.9081 46.3543 21.0897V13.8081C46.3543 13.6323 46.4909 13.4761 46.6665 13.4761H48.8719V13.0268H48.4835L43.6629 3.92487L44.4436 2.77248C44.4436 2.77248 48.3079 -0.0206146 55.0021 -0.0206146C61.6964 -0.0206146 66.0681 2.77248 66.0681 2.77248L66.9191 10.3119H67.647V10.3509H67.7837H67.7856V13.4761H69.345C69.5597 13.4761 69.7158 13.6128 69.7158 13.8081V15.2828C69.8056 15.2398 69.9032 15.2144 70.0086 15.2144H71.7085V15.1754H71.6109V14.8238H71.7085V14.316H72.0988V14.8238H72.1769V15.1754H72.0988V15.2144H72.4482V15.4684H72.0988V15.7418H73.3479C73.426 15.7418 73.4845 15.7809 73.5431 15.8395C73.7968 16.2106 73.9334 16.6598 73.9334 17.1677C73.9334 17.6755 73.7773 18.1247 73.5431 18.4958C73.504 18.5544 73.426 18.5935 73.3479 18.5935H72.0988V18.8865H72.4482V19.1404H72.0988V19.2185H72.1769V19.5701H72.0988V19.9998H71.7085V19.5701H71.6109V19.2185H71.7085V19.1404H70.0086C69.6378 19.1404 69.3255 18.8279 69.3255 18.4568V17.4606H68.8376L71.5387 26.1329H78.1881V26.1134H80.0031V27.9299H79.4566V28.0666H79.9641V28.6272L80.128 28.6643C80.128 28.6643 80.13 28.6643 80.1319 28.6643C80.9067 28.2932 81.6445 27.7697 82.2456 27.129L86.8672 22.2323C86.7325 21.5487 86.6525 20.6112 86.6525 19.5779C86.6525 17.488 87.0038 15.7887 87.4136 15.7887H89.1955V14.982H93.1789V14.4546H93.6473V14.982H94.1137V15.4703H93.6473V15.8121H99.1705C99.5999 15.8121 99.9317 17.5114 99.9317 19.6014C99.9317 21.6913 99.5804 23.3906 99.1705 23.3906H93.6473V23.7129H94.1137V24.2012H93.6473V24.7481H93.1789V24.2012H89.1955V23.3535H87.8957L84.529 26.9142L82.9521 32.1215V32.1254L90.954 38.069C91.1882 38.2448 91.3248 38.4987 91.3248 38.7917V40.8562C91.4497 40.9246 91.5395 41.0554 91.5395 41.2137V41.2996C91.8634 41.5984 92.0664 42.0262 92.0664 42.5028C92.0664 42.9794 91.8634 43.4052 91.5395 43.706V43.7919C91.5395 43.9403 91.4536 44.079 91.3248 44.1493V46.2334C91.3248 46.5264 91.1882 46.7803 90.954 46.9561L83.7074 52.3196L84.209 54.3529L86.6486 54.5971C86.7364 52.9779 87.0389 51.7786 87.3824 51.7786H89.1955V50.9387H93.1789V50.4113H93.6473V50.9387H94.1137V51.4465H93.6473V51.7786H99.1705L99.1686 51.7766ZM69.5792 18.4529C69.5792 18.6873 69.7744 18.8826 70.0086 18.8826H71.7085V18.5896H70.4594C70.3813 18.5896 70.3228 18.5505 70.2643 18.4919C70.0105 18.1208 69.8739 17.6716 69.8739 17.1637C69.8739 16.6559 70.03 16.2067 70.2643 15.8356C70.3033 15.777 70.3813 15.7379 70.4594 15.7379H71.7085V15.4645H70.0086C69.8954 15.4645 69.7939 15.5113 69.7158 15.5836V17.1247C69.7158 17.2341 69.6631 17.3376 69.5792 17.3981V18.4529ZM93.1769 15.4645H91.9454V15.8063H93.1769V15.4645ZM93.1769 23.707V23.3847H91.9454V23.707H93.1769ZM69.5792 67.9082C69.5792 68.1426 69.7744 68.3379 70.0086 68.3379H71.7085V68.0449H70.4594C70.3813 68.0449 70.3228 68.0059 70.2643 67.9473C70.0105 67.5762 69.8739 67.1269 69.8739 66.6191C69.8739 66.1113 70.03 65.662 70.2643 65.2909C70.3033 65.2323 70.3813 65.1933 70.4594 65.1933H71.7085V64.9198H70.071L69.5792 66.5234V67.9082ZM78.754 27.9279H78.1881H78.1861V27.6349H72.0071L72.5067 29.2366H72.7624V27.7716H72.78H76.2539L78.2466 28.2307V28.0646H78.754V27.9279ZM93.1769 51.4426H91.9454V59.6852H93.1769V59.3531H91.9474V55.5639V51.7747H93.1769V51.4426Z" fill="black"/>
<path d="M92.0197 59.7006H94.1861V60.1889H89.2679V58.2161L88.6843 56.3391L81.4807 55.6008V55.6379H81.2231L80.8561 55.716L80.7976 55.8527C80.6805 56.1652 80.4073 56.3996 80.0755 56.4582L76.2502 57.2981H73.0299V55.7355H72.9694L70.2234 64.6813H72.5225V64.9352H70.1453L69.6535 66.5388V67.9236C69.6535 68.158 69.8487 68.3533 70.0829 68.3533H72.5225V68.6072H70.0829C69.7121 68.6072 69.3998 68.2947 69.3998 67.9236V67.365L68.9704 68.7635L59.7585 70.7557C53.2204 72.1816 47.0141 67.2009 47.0141 60.4818V59.4466H13.9722V59.3841C9.6141 59.3002 6.10693 55.7414 6.10693 51.3603V33.6642C6.10693 29.2304 9.69802 25.6365 14.1283 25.6365H15.6701V25.6561H31.7969L33.567 20.9293C33.567 20.9293 35.304 20.6949 37.9583 20.6949C40.6126 20.6949 42.5838 21.4762 42.5838 21.4762C42.5838 21.4762 43.8816 23.6579 44.4496 25.6561H46.4286V13.8196C46.4286 13.6438 46.5652 13.4875 46.7408 13.4875H48.9462V10.3624H49.0048V10.3233H67.7214V10.3624H67.858V13.4875H69.4193C69.634 13.4875 69.7901 13.6243 69.7901 13.8196V15.2943C69.8799 15.2513 69.9775 15.2259 70.0829 15.2259H72.5225V15.4798H70.0829C69.9697 15.4798 69.8682 15.5267 69.7901 15.599V17.1401C69.7901 17.2494 69.7374 17.353 69.6535 17.4135V18.4682C69.6535 18.7026 69.8487 18.8979 70.0829 18.8979H72.5225V19.1519H70.0829C69.7121 19.1519 69.3998 18.8393 69.3998 18.4682V17.4721H68.9119L71.613 26.1444H80.056V27.9413H78.2604V27.6483H72.0814L72.581 29.25H72.8543V27.7851H76.3282L80.2043 28.6777C80.2043 28.6777 80.2062 28.6777 80.2082 28.6777C80.983 28.3066 81.7207 27.7831 82.3218 27.1425L88.698 20.3843L88.4501 19.5835L89.2698 16.9467V14.9935H94.188V15.4818H92.0217V23.7243H94.188V24.2126H89.2698V22.2204L89.2152 22.0465L84.6034 26.9257L83.0245 32.1427V50.9326L83.61 51.6357L84.2833 54.3663L88.6882 54.8058L89.2698 52.9249V50.9521H94.188V51.46H92.0217V59.7025L92.0197 59.7006Z" fill="#ED2939"/>
<path d="M90.9481 38.0787C91.1824 38.2545 91.319 38.5084 91.319 38.8014V46.2431C91.319 46.5361 91.1824 46.79 90.9481 46.9658L82.9268 52.9036V32.1214L90.9481 38.0787Z" fill="#333333"/>
<path d="M44.6153 19.3864C44.6153 21.9256 44.1469 23.9569 43.5614 23.9569H21.3708C20.7853 23.9569 20.3169 21.906 20.3169 19.3864C20.3169 16.8667 20.7853 14.8159 21.3708 14.8159H43.5614C44.1469 14.8354 44.6153 16.8863 44.6153 19.3864Z" fill="#333333"/>
<path d="M44.6153 65.7167C44.6153 63.1775 44.1469 61.1462 43.5614 61.1462H21.3708C20.7853 61.1462 20.3169 63.1971 20.3169 65.7167C20.3169 68.2364 20.7853 70.2872 21.3708 70.2872H43.5614C44.1469 70.2872 44.6153 68.2364 44.6153 65.7167Z" fill="#333333"/>
<path d="M72.0949 69.4865H71.7046V63.8026H72.0949V69.4865Z" fill="#666666"/>
<path d="M72.1729 69.0177H71.6069V68.6466H72.1729V69.0177Z" fill="#AAAAAA"/>
<path d="M72.1729 64.6425H71.6069V64.2713H72.1729V64.6425Z" fill="#AAAAAA"/>
<path d="M70.4556 68.0605C70.3776 68.0605 70.319 68.0215 70.2605 67.9629C70.0067 67.5918 69.8701 67.1425 69.8701 66.6347C69.8701 66.1269 70.0263 65.6776 70.2605 65.3065C70.2995 65.2479 70.3776 65.2089 70.4556 65.2089H73.3441C73.4222 65.2089 73.4807 65.2479 73.5393 65.3065C73.793 65.6776 73.9296 66.1269 73.9296 66.6347C73.9296 67.1425 73.7735 67.5918 73.5393 67.9629C73.5002 68.0215 73.4222 68.0605 73.3441 68.0605H70.4556Z" fill="#333333"/>
<path d="M72.0949 20.0115H71.7046V14.3276H72.0949V20.0115Z" fill="#666666"/>
<path d="M72.1729 19.5818H71.6069V19.2302H72.1729V19.5818Z" fill="#AAAAAA"/>
<path d="M72.1729 15.187H71.6069V14.8354H72.1729V15.187Z" fill="#AAAAAA"/>
<path d="M70.4556 18.6052C70.3776 18.6052 70.319 18.5662 70.2605 18.5076C70.0067 18.1365 69.8701 17.6872 69.8701 17.1794C69.8701 16.6715 70.0263 16.2223 70.2605 15.8512C70.2995 15.7926 70.3776 15.7535 70.4556 15.7535H73.3441C73.4222 15.7535 73.4807 15.7926 73.5393 15.8512C73.793 16.2223 73.9296 16.6715 73.9296 17.1794C73.9296 17.6872 73.7735 18.1365 73.5393 18.5076C73.5002 18.5662 73.4222 18.6052 73.3441 18.6052H70.4556Z" fill="#333333"/>
<path d="M49.0846 61.2634H45.2593V23.4883H49.0846V61.2634Z" fill="black"/>
<path opacity="0.3" d="M49.9435 42.5516H13.896V25.6563H49.9435V42.5516Z" fill="black"/>
<path opacity="0.3" d="M49.9435 59.4469H13.896V42.5516H49.9435V59.4469Z" fill="black"/>
<path d="M67.313 13.859L66.0639 2.78429C66.0639 2.78429 61.6922 -0.00880337 54.9979 -0.00880337C48.3037 -0.00880337 44.4394 2.78429 44.4394 2.78429L43.6587 3.93668L48.4793 13.0387L65.4589 12.9996L66.103 13.8395L67.313 13.859Z" fill="#333333"/>
<path d="M35.3839 33.1176H32.9638H30.9536V26.1641H32.9638H35.3839H37.9016V33.1176H35.3839Z" fill="black"/>
<path d="M65.0102 3.85847L65.6737 9.7767C65.7128 10.1478 65.42 10.4799 65.0492 10.4799H59.1356C58.8624 10.4799 58.6282 10.3041 58.5501 10.0502C57.828 7.84302 56.6765 4.36631 55.8958 2.04198C55.7592 1.61228 56.091 1.18257 56.5399 1.22163C57.4767 1.28023 58.394 1.39742 59.2917 1.57321C60.4237 1.78806 61.5362 2.10058 62.5901 2.47169C63.4878 2.80373 64.21 3.11625 64.6979 3.37016C64.8735 3.46783 64.9906 3.62408 65.0102 3.85847Z" fill="black"/>
<path d="M50.8219 1.55368C51.8172 1.35836 52.8516 1.22163 53.9055 1.18257C54.1788 1.16303 54.452 1.33883 54.5301 1.61228C55.4083 4.24911 56.4622 7.43285 57.2039 9.63998C57.3405 10.0502 57.0282 10.4603 56.6184 10.4603H50.7633C50.5291 10.4603 50.334 10.3431 50.2169 10.1283C49.3386 8.52665 47.5236 5.24525 46.6453 3.64362C46.4696 3.31157 46.6063 2.92093 46.938 2.76467C47.1918 2.64748 47.4455 2.54982 47.7578 2.43263C48.6946 2.06152 49.7485 1.76853 50.8219 1.55368Z" fill="black"/>
<path d="M93.6413 60.7164H93.1729V50.423H93.6413V60.7164Z" fill="#666666"/>
<path d="M93.6413 24.7578H93.1729V14.4644H93.6413V24.7578Z" fill="#666666"/>
<path d="M66.2985 12.5502V11.515H50.6851V12.5502C50.6851 12.9604 51.0168 13.312 51.4462 13.312H65.5373C65.9472 13.3315 66.2985 12.9799 66.2985 12.5502Z" fill="black"/>
<path d="M81.4044 35.6567H79.5893L76.8765 37.5904V42.5125H82.1655V37.5122L81.4044 35.6567Z" fill="black"/>
<path opacity="0.1" d="M70.2212 40.8913V44.1727C70.2212 44.5829 70.553 44.8954 70.9433 44.8954C71.3532 44.8954 71.6654 44.5633 71.6654 44.1727V40.8913C71.6654 40.4811 71.3336 40.1686 70.9433 40.1686C70.5335 40.1491 70.2212 40.5007 70.2212 40.8913Z" fill="black"/>
<path d="M71.5483 40.8913C71.5483 40.5593 71.2751 40.2858 70.9433 40.2858C70.6115 40.2858 70.3383 40.5593 70.3383 40.8913V44.1727C70.3383 44.5047 70.6115 44.7782 70.9433 44.7782C71.2751 44.7782 71.5483 44.5047 71.5483 44.1727V40.8913ZM71.6654 40.8913V44.1727C71.6654 44.5829 71.3336 44.8954 70.9433 44.8954C70.553 44.8954 70.2212 44.5633 70.2212 44.1727V40.8913C70.2212 40.4811 70.553 40.1686 70.9433 40.1686C71.3336 40.1686 71.6654 40.5007 71.6654 40.8913Z" fill="black"/>
<path opacity="0.3" d="M49.5337 18.3123V25.4024C49.5337 25.715 49.7874 25.9493 50.0802 25.9493H50.6852V17.7654H50.0802C49.7874 17.7654 49.5337 18.0193 49.5337 18.3123Z" fill="url(#paint0_linear_6561_3710)"/>
<path d="M50.2364 18.5075V18.8396L49.9436 18.9958L49.6509 18.8396V18.5075L49.9436 18.3122L50.2364 18.5075Z" fill="#999999"/>
<path d="M50.2364 25.0899V25.4025L49.9436 25.5782L49.6509 25.4025V25.0899L49.9436 24.8946L50.2364 25.0899Z" fill="#999999"/>
<path d="M81.4826 42.5125V37.8052C81.4826 37.5904 81.3069 37.4146 81.0923 37.4146H78.1647C77.9501 37.4146 77.7744 37.5904 77.7744 37.8052V38.9381C77.7744 39.0357 77.7939 39.1139 77.8525 39.192L78.2428 39.8366C78.3014 39.9147 78.3209 40.0123 78.3209 40.0905V42.4929L81.4826 42.5125Z" fill="#111111"/>
<path d="M49.0847 28.7618V27.1211L45.8645 26.3203V24.4843H48.8701V23.8007L47.1721 21.4568C47.1721 21.4568 43.581 19.7771 38.9751 18.8395C34.3691 17.902 28.1628 16.4957 28.1628 16.4957L15.2427 24.2109L15.2622 28.7618H49.0847Z" fill="#111111"/>
<path d="M42.8391 27.3458V25.2364H31.9194L33.6896 20.5096L36.0492 20.3416C36.4493 20.3123 36.7733 20.3104 37.2534 20.3143L38.8967 20.3572C39.5993 20.408 39.9408 20.4471 40.6571 20.5818L42.7083 21.0565L43.3563 22.3143C43.649 22.8827 43.9086 23.4687 44.135 24.0664L44.5761 25.2364V27.3458H42.843H42.8391Z" fill="#727272"/>
<path d="M21.1953 21.7303L23.2251 24.8554H27.0503L30.3487 20.3631L32.6712 19.7771L36.7307 20.1287L31.3245 20.4998L27.3626 25.4414H22.8738L21.1953 21.7303Z" fill="black"/>
<path d="M42.4295 23.1366V22.4139C42.4295 22.2967 42.3319 22.199 42.2148 22.199H40.4583C40.3412 22.199 40.2437 22.2967 40.2437 22.4139V23.1366C40.2437 23.2538 40.3412 23.3514 40.4583 23.3514H42.2148C42.3319 23.3319 42.4295 23.2342 42.4295 23.1366Z" fill="#222222"/>
<path d="M38.8385 22.9023H37.043V21.8867H38.8385V22.9023Z" fill="#111111"/>
<path d="M38.5846 22.16H37.2965V22.6483H38.5846V22.16ZM39.092 21.867V22.9803C39.092 23.0975 38.9944 23.1952 38.8773 23.1952H36.9842C36.8671 23.1952 36.7695 23.0975 36.7695 22.9803V21.867C36.7695 21.7498 36.8671 21.6522 36.9842 21.6522H38.8773C39.014 21.6326 39.092 21.7303 39.092 21.867Z" fill="#444444"/>
<path d="M41.4925 21.4764C42.0099 21.4764 42.4293 21.8961 42.4293 22.4139C42.4293 22.9317 42.0099 23.3514 41.4925 23.3514C40.9751 23.3514 40.5557 22.9317 40.5557 22.4139C40.5557 21.8961 40.9751 21.4764 41.4925 21.4764Z" fill="#111111"/>
<path d="M34.5839 21.4179C35.0473 21.4179 35.4231 21.7939 35.4231 22.2578C35.4231 22.7216 35.0473 23.0977 34.5839 23.0977C34.1204 23.0977 33.7446 22.7216 33.7446 22.2578C33.7446 21.7939 34.1204 21.4179 34.5839 21.4179Z" fill="#0A0A0A"/>
<path d="M35.5596 22.2577C35.5596 22.1405 35.462 22.0428 35.3449 22.0428H33.8226C33.7055 22.0428 33.6079 22.1405 33.6079 22.2577C33.6079 22.3749 33.7055 22.4725 33.8226 22.4725H35.3449C35.462 22.4725 35.5596 22.3749 35.5596 22.2577Z" fill="#111111"/>
<path d="M87.8447 41.2234V43.8016C87.8447 44.036 88.0399 44.2118 88.2546 44.2118H91.1235C91.3577 44.2118 91.5334 44.0165 91.5334 43.8016V41.2234C91.5334 40.989 91.3382 40.8132 91.1235 40.8132H88.2546C88.0204 40.8132 87.8447 41.0085 87.8447 41.2234Z" fill="#222222"/>
<path d="M90.4211 40.8718C91.3266 40.8718 92.0606 41.6064 92.0606 42.5125C92.0606 43.4186 91.3266 44.1532 90.4211 44.1532C89.5157 44.1532 88.7817 43.4186 88.7817 42.5125C88.7817 41.6064 89.5157 40.8718 90.4211 40.8718Z" fill="#0A0A0A"/>
<path opacity="0.2" d="M75.4906 30.8713H46.3716V29.3478H75.4906V30.8713Z" fill="black"/>
<path opacity="0.2" d="M72.485 32.9223V52.1029C72.485 52.7474 71.958 53.2943 71.2945 53.2943H54.2954C54.1392 53.2943 54.0026 53.1576 54.0026 53.0013V52.22C54.0026 52.0638 53.866 51.9271 53.7099 51.9271H50.958V33.0981H53.7099C53.866 33.0981 54.0026 32.9614 54.0026 32.8051V32.0238C54.0026 31.8676 54.1392 31.7308 54.2954 31.7308H71.2945C71.958 31.7504 72.485 32.2777 72.485 32.9223Z" fill="black"/>
<path d="M68.2501 15.9098V16.3199L68.0745 16.4567H67.7622V15.773H68.0745L68.2501 15.9098Z" fill="#666666"/>
<path d="M68.6208 16.3005H68.25V15.9099H68.6208V16.3005Z" fill="#999999"/>
<path d="M67.2548 16.4567H67.0986V15.7535H67.2548V16.4567Z" fill="#999999"/>
<path d="M67.5673 16.4567H67.4111V15.7535H67.5673V16.4567Z" fill="#999999"/>
<path d="M67.7815 16.7496H67.5278V10.3626H67.7815V16.7496Z" fill="black"/>
<path d="M67.45 16.7496H67.1963V13.5073H67.45V16.7496Z" fill="black"/>
<path d="M48.4209 15.9098V16.3199L48.5965 16.4567H48.8893V15.773H48.5965L48.4209 15.9098Z" fill="#666666"/>
<path d="M48.4211 16.3005H48.0503V15.9099H48.4211V16.3005Z" fill="#999999"/>
<path d="M49.5531 16.4567H49.397V15.7535H49.5531V16.4567Z" fill="#999999"/>
<path d="M49.2601 16.4567H49.104V15.7535H49.2601V16.4567Z" fill="#999999"/>
<path d="M49.1238 16.7496H48.8701V10.3626H49.1238V16.7496Z" fill="black"/>
<path d="M49.4554 16.7496H49.2017V13.5073H49.4554V16.7496Z" fill="black"/>
<path d="M65.8496 30.7542L58.8841 30.7346C58.7533 30.7346 58.6479 30.6291 58.6479 30.4983V25.8926C58.6479 25.7715 58.7455 25.6758 58.8646 25.6758H67.1377V30.7542H65.8496Z" fill="#C12D3F"/>
<path opacity="0.2" d="M60.7947 28.215L64.1126 23.1171L60.2288 17.4723H50.6851V25.9688H52.2464L52.7929 27.6876C52.8905 28.0001 53.1832 28.215 53.4955 28.215H60.7947Z" fill="url(#paint1_linear_6561_3710)"/>
<path opacity="0.3" d="M50.1387 66.7715V59.6813C50.1387 59.3688 50.3924 59.1344 50.6851 59.1344H51.2902V67.3184H50.6851C50.3924 67.3184 50.1387 67.0644 50.1387 66.7715Z" fill="url(#paint2_linear_6561_3710)"/>
<path d="M50.8609 66.5957V66.2441L50.5486 66.0879L50.2559 66.2441V66.5957L50.5486 66.7715L50.8609 66.5957Z" fill="#999999"/>
<path d="M50.8609 60.0328V59.6813L50.5486 59.5055L50.2559 59.6813V60.0328L50.5486 60.1891L50.8609 60.0328Z" fill="#999999"/>
<path opacity="0.2" d="M60.7947 56.9077L64.9908 59.1539L62.3756 67.6504H51.29V59.1539H52.8514L53.3979 57.4351C53.4954 57.1226 53.7882 56.9077 54.1005 56.9077H60.7947Z" fill="url(#paint3_linear_6561_3710)"/>
<path opacity="0.95" d="M65.8496 25.6758V30.7542H67.1377V25.6758H65.8496Z" fill="#D10D41"/>
<path opacity="0.95" d="M58.6479 25.8907V30.5002C58.6479 30.637 58.7455 30.7346 58.8822 30.7346H65.5959C65.7325 30.7346 65.8301 30.637 65.8301 30.5002V25.8907C65.8301 25.7539 65.7325 25.6563 65.5959 25.6563H58.8822C58.7651 25.6758 58.6479 25.7735 58.6479 25.8907Z" fill="#D10D41"/>
<path d="M62.5511 16.5934H62.2583V15.8902H62.5511V16.5934Z" fill="#666666"/>
<path d="M62.2388 16.4567H60.9702V16.066H62.2388V16.4567Z" fill="#999999"/>
<path d="M60.3652 16.0269V16.4567L60.5409 16.5934H60.8336V15.9098H60.5409L60.3652 16.0269Z" fill="#666666"/>
<path d="M62.3758 16.7496H62.1221V14.5425H62.3758V16.7496Z" fill="black"/>
<path d="M61.0877 16.7496H60.834V14.5425H61.0877V16.7496Z" fill="black"/>
<path d="M61.7512 16.7496H61.439V15.1089H61.7512V16.7496Z" fill="black"/>
<path d="M51.0557 10.8899V11.2219L50.763 11.3782L50.4702 11.2219V10.8899L50.763 10.6945L51.0557 10.8899Z" fill="#999999"/>
<path d="M58.6089 10.8899V11.2219L58.2967 11.3782L58.0039 11.2219V10.8899L58.2967 10.6945L58.6089 10.8899Z" fill="#999999"/>
<path d="M66.1421 10.8899V11.2219L65.8494 11.3782L65.5371 11.2219V10.8899L65.8494 10.6945L66.1421 10.8899Z" fill="#999999"/>
<path d="M27.07 28.9962H24.6304V27.0235H27.07V28.9962Z" fill="#0A0A0A"/>
<path d="M31.6759 35.559H40.9658C42.898 35.559 44.7521 34.7973 46.1183 33.43L48.5579 30.9885C48.4408 30.9299 48.3432 30.8713 48.2261 30.8127H48.2456C50.5095 31.926 52.0514 34.2504 52.0514 36.9263V42.5125H31.1294V36.4184C31.3246 36.2036 31.5002 35.9106 31.6759 35.559Z" fill="#999999"/>
<path d="M46.1182 33.4105C44.752 34.7778 42.8979 35.5396 40.9658 35.5396H31.6758C32.2613 34.4262 32.7687 32.9027 32.7492 31.9066C32.7492 31.6917 32.7297 31.4964 32.7102 31.3011C33.8031 30.5393 35.1498 30.0901 36.594 30.0901H45.2204C46.2938 30.0901 47.3087 30.344 48.226 30.7737C48.3431 30.8323 48.4602 30.8909 48.5578 30.9495L46.1182 33.4105Z" fill="#444444"/>
<path d="M19.1457 29.1134C18.6578 29.2111 18.287 29.3087 18.0723 29.4064C18.287 29.2892 18.6578 29.1915 19.1457 29.1134Z" fill="#777777"/>
<path d="M17.9749 29.4845C17.2138 30.1095 20.0242 28.547 22.2491 29.6017C24.474 30.676 23.5958 33.6449 25.8597 34.8949C28.0456 36.0864 29.4313 36.4966 30.3095 36.9263C30.5242 37.0435 30.8365 36.8286 31.1292 36.438V42.532H16.4331V34.9535C16.4331 30.6564 17.5651 29.7384 17.9749 29.4845Z" fill="#777777"/>
<path d="M31.6757 35.5591C31.5 35.8911 31.3048 36.2036 31.1292 36.4185C30.8169 36.8091 30.5242 37.024 30.3095 36.9068C29.4312 36.4771 28.0455 36.0669 25.8597 34.8754C23.5957 33.6254 24.474 30.637 22.2491 29.5822C20.0241 28.5275 17.2137 30.0705 17.9749 29.465H17.9944C18.0139 29.4455 18.0529 29.426 18.0725 29.4064C18.2871 29.2893 18.658 29.1916 19.1459 29.1135C21.2147 28.7424 25.1961 28.5666 26.0353 28.5666C27.1282 28.5666 29.6264 28.8791 30.973 29.2697C32.105 29.6018 32.5929 30.2659 32.7296 31.3206C32.7491 31.5159 32.7686 31.7112 32.7686 31.9261C32.7686 32.9222 32.2807 34.4653 31.6757 35.5591Z" fill="#333333"/>
<path d="M22.8735 25.8321V27.4142C22.8735 27.4923 22.9516 27.5704 23.0297 27.5704H29.7825C29.8605 27.5704 29.9386 27.4923 29.9386 27.4142V25.8321C29.9386 25.7344 29.8605 25.6758 29.7825 25.6758H23.0297C22.9321 25.6368 22.8735 25.7344 22.8735 25.8321Z" fill="#222222"/>
<path d="M42.8393 27.9806V24.3671C42.8393 24.1718 42.7222 23.996 42.527 23.9374C41.883 23.7226 40.224 23.2929 36.9843 23.2929C33.3541 23.2929 30.1534 24.582 29.2166 24.9922C29.0605 25.0703 28.9434 25.2265 28.9434 25.4023V28.0001C28.9434 28.254 29.1385 28.4493 29.3922 28.4493H42.3904C42.6441 28.4298 42.8393 28.215 42.8393 27.9806Z" fill="#555555"/>
<path d="M46.1182 33.4105C44.752 34.7778 42.8979 35.5396 40.9658 35.5396H31.6758C32.2613 34.4262 32.7687 32.9027 32.7492 31.9066C32.7492 31.6917 32.7297 31.4964 32.7102 31.3011C33.8031 30.5393 35.1498 30.0901 36.594 30.0901H45.2204C46.2938 30.0901 47.3087 30.344 48.226 30.7737C48.3431 30.8323 48.4602 30.8909 48.5578 30.9495L46.1182 33.4105Z" fill="#444444"/>
<path d="M19.1457 29.1134C18.6578 29.2111 18.287 29.3087 18.0723 29.4064C18.287 29.2892 18.6578 29.1915 19.1457 29.1134Z" fill="#777777"/>
<path d="M31.6757 35.5591C31.5 35.8911 31.3048 36.2036 31.1292 36.4185C30.8169 36.8091 30.5242 37.024 30.3095 36.9068C29.4312 36.4771 28.0455 36.0669 25.8597 34.8754C23.5957 33.6254 24.474 30.637 22.2491 29.5822C20.0241 28.5275 17.2137 30.0705 17.9749 29.465H17.9944C18.0139 29.4455 18.0529 29.426 18.0725 29.4064C18.2871 29.2893 18.658 29.1916 19.1459 29.1135C21.2147 28.7424 25.1961 28.5666 26.0353 28.5666C27.1282 28.5666 29.6264 28.8791 30.973 29.2697C32.105 29.6018 32.5929 30.2659 32.7296 31.3206C32.7491 31.5159 32.7686 31.7112 32.7686 31.9261C32.7686 32.9222 32.2807 34.4653 31.6757 35.5591Z" fill="#333333"/>
<path d="M49.0847 56.3217V57.9624L45.8645 58.7632V60.5992H48.8701V61.2829L47.1721 63.6267C47.1721 63.6267 43.581 65.3065 38.9751 66.244C34.3691 67.1816 28.1628 68.5879 28.1628 68.5879L15.2427 60.8922L15.2622 56.3412L49.0847 56.3217Z" fill="#111111"/>
<path d="M21.1953 63.3533L23.2251 60.2282H27.0503L30.3487 64.701L32.6712 65.3065L36.7307 64.9354L31.3245 64.5838L27.3626 59.6422H22.8738L21.1953 63.3533Z" fill="black"/>
<path d="M44.635 57.8258H31.1294L33.4909 64.1346C33.4909 64.1346 35.2279 64.369 37.8822 64.369C40.5365 64.369 42.5077 63.5877 42.5077 63.5877C42.5077 63.5877 44.635 60.0329 44.635 57.8258Z" fill="#0A0A0A"/>
<path d="M27.07 58.021H24.6304V56.0482H27.07V58.021Z" fill="#0A0A0A"/>
<path d="M31.6759 49.4855H40.9658C42.898 49.4855 44.7521 50.2473 46.1183 51.6145L48.5579 54.056C48.4408 54.1146 48.3432 54.1732 48.2261 54.2318H48.2456C50.5095 53.1185 52.0514 50.7942 52.0514 48.1183V42.5321H31.1294V48.6261C31.3246 48.8409 31.5002 49.1339 31.6759 49.4855Z" fill="#999999"/>
<path d="M46.1182 51.634C44.752 50.2668 42.8979 49.505 40.9658 49.505H31.6758C32.2613 50.6183 32.7687 52.1418 32.7492 53.138C32.7492 53.3528 32.7297 53.5482 32.7102 53.7435C33.8031 54.5052 35.1498 54.9545 36.594 54.9545H45.2204C46.2938 54.9545 47.3087 54.7006 48.226 54.2708C48.3431 54.2122 48.4602 54.1537 48.5578 54.0951L46.1182 51.634Z" fill="#444444"/>
<path d="M19.1457 55.9312C18.6578 55.8335 18.287 55.7358 18.0723 55.6382C18.287 55.7554 18.6578 55.853 19.1457 55.9312Z" fill="#777777"/>
<path d="M17.9749 55.56C17.2138 54.935 20.0242 56.4975 22.2491 55.4428C24.474 54.3881 23.5958 51.3996 25.8597 50.1496C28.0456 48.9581 29.4313 48.5479 30.3095 48.1182C30.5242 48.001 30.8365 48.2159 31.1292 48.6065V42.5125H16.4331V50.091C16.4331 54.3881 17.5651 55.3061 17.9749 55.56Z" fill="#777777"/>
<path d="M31.6757 49.4855C31.5 49.1535 31.3048 48.841 31.1292 48.6261C30.8169 48.2355 30.5242 48.0206 30.3095 48.1378C29.4312 48.5675 28.0455 48.9777 25.8597 50.1691C23.5957 51.4192 24.474 54.4076 22.2491 55.4624C20.0241 56.5171 17.2137 54.9741 17.9749 55.5795H17.9944C18.0139 55.5991 18.0529 55.6186 18.0725 55.6381C18.2871 55.7553 18.658 55.853 19.1459 55.9311C21.2147 56.3022 25.1961 56.478 26.0353 56.478C27.1282 56.478 29.6264 56.1655 30.973 55.7749C32.105 55.4428 32.5929 54.7787 32.7296 53.724C32.7491 53.5287 32.7686 53.3334 32.7686 53.1185C32.7686 52.1224 32.2807 50.5793 31.6757 49.4855Z" fill="#333333"/>
<path d="M22.8735 59.2516V57.6695C22.8735 57.5913 22.9516 57.5132 23.0297 57.5132H29.7825C29.8605 57.5132 29.9386 57.5913 29.9386 57.6695V59.2516C29.9386 59.3297 29.8605 59.4078 29.7825 59.4078H23.0297C22.9321 59.3883 22.8735 59.3102 22.8735 59.2516Z" fill="#222222"/>
<path d="M42.8393 57.064V60.6774C42.8393 60.8728 42.7222 61.0486 42.527 61.1071C41.883 61.322 40.224 61.7517 36.9843 61.7517C33.3541 61.7517 30.1534 60.4626 29.2166 60.0524C29.0605 59.9743 28.9434 59.818 28.9434 59.6422V57.0445C28.9434 56.7905 29.1385 56.5952 29.3922 56.5952H42.3904C42.6441 56.6148 42.8393 56.8101 42.8393 57.064Z" fill="#555555"/>
<path d="M46.1182 51.634C44.752 50.2668 42.8979 49.505 40.9658 49.505H31.6758C32.2613 50.6183 32.7687 52.1418 32.7492 53.138C32.7492 53.3528 32.7297 53.5482 32.7102 53.7435C33.8031 54.5052 35.1498 54.9545 36.594 54.9545H45.2204C46.2938 54.9545 47.3087 54.7006 48.226 54.2708C48.3431 54.2122 48.4602 54.1537 48.5578 54.0951L46.1182 51.634Z" fill="#444444"/>
<path d="M19.1457 55.9312C18.6578 55.8335 18.287 55.7358 18.0723 55.6382C18.287 55.7554 18.6578 55.853 19.1457 55.9312Z" fill="#777777"/>
<path d="M31.6757 49.4855C31.5 49.1535 31.3048 48.841 31.1292 48.6261C30.8169 48.2355 30.5242 48.0206 30.3095 48.1378C29.4312 48.5675 28.0455 48.9777 25.8597 50.1691C23.5957 51.4192 24.474 54.4076 22.2491 55.4624C20.0241 56.5171 17.2137 54.9741 17.9749 55.5795H17.9944C18.0139 55.5991 18.0529 55.6186 18.0725 55.6381C18.2871 55.7553 18.658 55.853 19.1459 55.9311C21.2147 56.3022 25.1961 56.478 26.0353 56.478C27.1282 56.478 29.6264 56.1655 30.973 55.7749C32.105 55.4428 32.5929 54.7787 32.7296 53.724C32.7491 53.5287 32.7686 53.3334 32.7686 53.1185C32.7686 52.1224 32.2807 50.5793 31.6757 49.4855Z" fill="#333333"/>
<path opacity="0.4" d="M42.8393 57.064V60.6774C42.8393 60.8728 42.7222 61.0486 42.527 61.1071C41.883 61.322 40.224 61.7517 36.9843 61.7517C33.3541 61.7517 30.1534 60.4626 29.2166 60.0524C29.0605 59.9743 28.9434 59.818 28.9434 59.6422V57.0445C28.9434 56.7905 29.1385 56.5952 29.3922 56.5952H42.3904C42.6441 56.6148 42.8393 56.8101 42.8393 57.064Z" fill="url(#paint4_linear_6561_3710)"/>
<path opacity="0.3" d="M83.356 28.1759L84.4879 26.9844L82.9461 32.1214V42.5125H82.1654V37.5122L81.4043 35.6567V29.7189C82.1264 29.3087 82.7705 28.8009 83.356 28.1759Z" fill="url(#paint5_linear_6561_3710)"/>
<path opacity="0.3" d="M79.5894 28.9572V35.6567H81.4044V28.9572H79.5894Z" fill="url(#paint6_linear_6561_3710)"/>
<path opacity="0.3" d="M80.1359 28.7033L81.4045 28.9572H79.5895V30.5198V35.6567L76.8766 37.5904V41.8875V42.5125V47.4541L79.5895 49.3878V54.5638V55.6381L76.174 57.3179H72.9538V55.7358H72.4854V42.5125V41.8875V30.8714V29.3479V29.2502H72.7586V27.7853H76.2326L80.1359 28.7033Z" fill="url(#paint7_linear_6561_3710)"/>
<path d="M81.4826 42.5125V47.2197C81.4826 47.4346 81.3069 47.6104 81.0923 47.6104H78.1647C77.9501 47.6104 77.7744 47.4346 77.7744 47.2197V46.0868C77.7744 45.9892 77.7939 45.9111 77.8525 45.8329L78.2428 45.1884C78.3014 45.1102 78.3209 45.0126 78.3209 44.9345V42.532L81.4826 42.5125Z" fill="#111111"/>
<path d="M79.1793 31.3597V34.9146C79.1793 35.0708 79.1013 35.2271 78.9646 35.3247L76.486 37.0045C76.3494 37.1022 76.2713 37.2584 76.2713 37.4147V47.669C76.2713 47.8253 76.3494 47.9815 76.486 48.0792L78.9646 49.759C79.1013 49.8566 79.1793 50.0129 79.1793 50.1691V53.7045C79.1793 54.017 78.8866 54.2514 78.5743 54.1928L73.1682 53.0208C72.934 52.9622 72.7778 52.7669 72.7778 52.5325V32.5707C72.7778 32.3363 72.934 32.141 73.1682 32.0824L78.5743 30.9105C78.8866 30.8128 79.1793 31.0472 79.1793 31.3597ZM74.5343 48.0401V49.9543C74.5343 50.3645 74.7881 50.7356 75.1784 50.8723L77.7156 51.8294C77.7741 51.8489 77.8522 51.8294 77.8912 51.7512C77.9107 51.6927 77.8912 51.6145 77.8132 51.595L75.276 50.6379C74.9832 50.5403 74.8076 50.2473 74.8076 49.9543V48.0206C74.8076 47.9425 74.749 47.8839 74.671 47.8839C74.5929 47.923 74.5343 47.962 74.5343 48.0401ZM77.7351 33.1957L75.1979 34.1528C74.8076 34.2895 74.5539 34.6606 74.5539 35.0708V37.0045C74.5539 37.0826 74.6124 37.1412 74.6905 37.1412C74.7685 37.1412 74.8271 37.0826 74.8271 37.0045V35.0708C74.8271 34.7778 75.0223 34.4848 75.2955 34.3872L77.8327 33.4301C77.8912 33.4106 77.9303 33.3325 77.9107 33.2739C77.8717 33.2153 77.7936 33.1957 77.7351 33.1957Z" fill="#111111"/>
<path opacity="0.3" d="M78.1841 26.125V27.9415H79.9991V26.125H78.1841Z" fill="url(#paint8_linear_6561_3710)"/>
<path d="M78.2427 32.5316V28.0783H78.7501V27.3751H79.4527V28.0783H79.9602V32.5316H78.2427Z" fill="#BBBBBB"/>
<path opacity="0.3" d="M67.1377 26.6134V27.6486H78.1842V26.6134H67.1377Z" fill="url(#paint9_linear_6561_3710)"/>
<path opacity="0.3" d="M78.2427 28.0783V32.5316H79.9406V28.0783H78.2427Z" fill="url(#paint10_linear_6561_3710)"/>
<path opacity="0.3" d="M78.1841 27.629V27.9415H79.9991V27.629H78.1841Z" fill="url(#paint11_linear_6561_3710)"/>
<path d="M90.421 18.3512C91.1 18.3512 91.6505 18.9021 91.6505 19.5817C91.6505 20.2613 91.1 20.8123 90.421 20.8123C89.7419 20.8123 89.1914 20.2613 89.1914 19.5817C89.1914 18.9021 89.7419 18.3512 90.421 18.3512Z" fill="#F5F5F5"/>
<path d="M91.2958 54.6879C91.776 55.1684 91.776 55.9475 91.2958 56.4281C90.8156 56.9086 90.0371 56.9086 89.5569 56.4281C89.0768 55.9475 89.0768 55.1684 89.5569 54.6879C90.0371 54.2073 90.8156 54.2073 91.2958 54.6879Z" fill="#F5F5F5"/>
<path d="M0.468262 49.505L9.62162 54.8177V30.2268L0.468262 35.52V49.505Z" fill="#333333"/>
<path d="M9.15336 31.008L0.936805 35.813V49.2511L9.15336 54.0169V31.008ZM10.0707 29.3869V55.6381L0 49.7784V35.2465L10.0707 29.3869Z" fill="#111111"/>
<path d="M6.57725 42.5126V45.6377L3.04471 43.997C2.57631 43.7821 2.24452 43.372 2.14694 42.8641C2.08839 42.6297 2.08839 42.3954 2.14694 42.161C2.26404 41.6727 2.59583 41.243 3.04471 41.0281L6.57725 39.3874V42.5126Z" fill="black"/>
<path d="M12.8031 53.6263C8.48994 51.7903 5.46484 47.5323 5.46484 42.5126C5.46484 37.4928 8.48994 33.2348 12.8227 31.3988L12.8031 53.6263Z" fill="#111111"/>
<path d="M15.5741 68.3145H8.86035V16.7301H15.5741V68.3145Z" fill="#333333"/>
<path opacity="0.4" d="M14.6377 68.3145V16.7496H15.5745V68.3145H14.6377Z" fill="url(#paint12_linear_6561_3710)"/>
<path opacity="0.4" d="M8.86035 68.3145V16.7496H9.81667V68.3145H8.86035Z" fill="url(#paint13_linear_6561_3710)"/>
<path d="M10.0708 17.4919V26.9063C10.0708 27.2384 10.344 27.4923 10.6563 27.4923H13.8961C14.2279 27.4923 14.5011 27.2189 14.5011 26.9063V17.5114C14.5011 17.1793 14.2279 16.9254 13.8961 16.9254H10.6758C10.344 16.9059 10.0708 17.1793 10.0708 17.4919Z" fill="#222222"/>
<path d="M13.9349 36.3989H11.0659V29.0548H13.9349V36.3989Z" fill="#222222"/>
<path d="M10.7925 30.8128V34.6606C10.7925 34.7583 10.8705 34.8364 10.9681 34.8364H14.0518C14.1494 34.8364 14.2274 34.7583 14.2274 34.6606V30.8128C14.2274 30.7151 14.1494 30.637 14.0518 30.637H10.9681C10.8705 30.6175 10.7925 30.7151 10.7925 30.8128Z" fill="#0A0A0A"/>
<path d="M15.5741 16.7496L11.7293 15.0503L9.32875 14.9331L8.86035 16.7496H15.5741Z" fill="#111111"/>
<path d="M12.3541 16.4957C14.1326 16.4957 15.5743 17.9386 15.5743 19.7185C15.5743 21.4984 14.1326 22.9413 12.3541 22.9413C10.5756 22.9413 9.13379 21.4984 9.13379 19.7185C9.13379 17.9386 10.5756 16.4957 12.3541 16.4957Z" fill="url(#paint14_radial_6561_3710)"/>
<path d="M10.0708 67.5332V58.1382C10.0708 57.8062 10.344 57.5522 10.6563 57.5522H13.8961C14.2279 57.5522 14.5011 57.8257 14.5011 58.1382V67.5332C14.5011 67.8652 14.2279 68.1191 13.8961 68.1191H10.6758C10.344 68.1387 10.0708 67.8652 10.0708 67.5332Z" fill="#222222"/>
<path d="M15.5741 68.3144L11.7293 69.9941L9.32875 70.1113L8.86035 68.3144H15.5741Z" fill="#111111"/>
<path d="M12.3541 62.1032C14.1326 62.1032 15.5743 63.5461 15.5743 65.326C15.5743 67.1059 14.1326 68.5488 12.3541 68.5488C10.5756 68.5488 9.13379 67.1059 9.13379 65.326C9.13379 63.5461 10.5756 62.1032 12.3541 62.1032Z" fill="url(#paint15_radial_6561_3710)"/>
<path d="M10.0708 37.8249V47.2198C10.0708 47.5519 10.344 47.8058 10.6563 47.8058H13.8961C14.2279 47.8058 14.5011 47.5323 14.5011 47.2198V37.8249C14.5011 37.4928 14.2279 37.2389 13.8961 37.2389H10.6758C10.344 37.2194 10.0708 37.4928 10.0708 37.8249Z" fill="#222222"/>
<path d="M11.6712 40.3249C12.8785 40.3249 13.8571 41.3043 13.8571 42.5125C13.8571 43.7206 12.8785 44.7001 11.6712 44.7001C10.464 44.7001 9.48535 43.7206 9.48535 42.5125C9.48535 41.3043 10.464 40.3249 11.6712 40.3249Z" fill="#FF8000"/>
<path d="M25.2937 60.6969C26.5656 60.6969 27.5967 61.7288 27.5967 63.0017C27.5967 64.2746 26.5656 65.3065 25.2937 65.3065C24.0218 65.3065 22.9907 64.2746 22.9907 63.0017C22.9907 61.7288 24.0218 60.6969 25.2937 60.6969Z" fill="#333333"/>
<path opacity="0.3" d="M79.5894 55.6381V49.3878H81.4044V55.6381H79.5894Z" fill="url(#paint16_linear_6561_3710)"/>
<path opacity="0.2" d="M75.4906 55.7358H46.3716V54.2123H75.4906V55.7358Z" fill="black"/>
<path opacity="0.4" d="M62.7661 66.3613L64.991 59.1344L69.675 60.6384C70.1239 60.7751 70.3581 61.2634 70.2215 61.6931L68.8749 65.6972C68.7578 66.0293 68.4455 66.2637 68.0942 66.2637L62.7661 66.3613Z" fill="url(#paint17_linear_6561_3710)"/>
<path opacity="0.3" d="M81.4043 49.3878L82.1654 47.5323V42.5125H82.9266V50.9504L83.5316 51.6731L84.1952 54.3685L81.4043 54.0755V49.3878Z" fill="url(#paint18_linear_6561_3710)"/>
<path d="M46.8208 24.8946V27.1017H48.226V24.875C48.226 24.7383 48.1284 24.6406 47.9918 24.6406H47.055C46.9379 24.6602 46.8208 24.7578 46.8208 24.8946Z" fill="black"/>
<path d="M46.3716 25.6757V39.6998C46.3716 39.8561 46.5082 39.9928 46.6643 39.9928H48.3623C48.5184 39.9928 48.655 39.8561 48.655 39.6998V25.6757H46.3716Z" fill="#333333"/>
<path opacity="0.3" d="M46.3716 25.6757V39.6998C46.3716 39.8561 46.5082 39.9928 46.6643 39.9928H48.3623C48.5184 39.9928 48.655 39.8561 48.655 39.6998V25.6757H46.3716Z" fill="url(#paint19_linear_6561_3710)"/>
<path d="M46.5083 60.111V57.8843H47.9135V60.111C47.9135 60.2477 47.8159 60.3453 47.6793 60.3453H46.7425C46.6059 60.3453 46.5083 60.2477 46.5083 60.111Z" fill="black"/>
<path d="M46.0596 59.3492V45.3252C46.0596 45.1689 46.1962 45.0322 46.3523 45.0322H48.0503C48.2064 45.0322 48.343 45.1689 48.343 45.3252V59.3492H46.0596Z" fill="#333333"/>
<path opacity="0.3" d="M46.0596 59.3492V45.3252C46.0596 45.1689 46.1962 45.0322 46.3523 45.0322H48.0503C48.2064 45.0322 48.343 45.1689 48.343 45.3252V59.3492H46.0596Z" fill="url(#paint20_linear_6561_3710)"/>
<path d="M88.6821 56.3393L89.2657 58.2164V59.3688H87.4506C87.0603 59.3688 86.7519 57.9625 86.6992 56.1362L88.6821 56.3393Z" fill="#333333"/>
<path d="M99.2388 59.3688H92.0176V51.7903H99.2388C99.6681 51.7903 99.9999 53.4896 99.9999 55.5795C99.9999 57.6695 99.6486 59.3688 99.2388 59.3688Z" fill="#333333"/>
<path d="M88.6743 54.8042L87.0134 54.6382L86.7051 54.6069C86.7929 52.9877 87.0954 51.7884 87.4389 51.7884H89.254V52.9213L88.6724 54.8022L88.6743 54.8042Z" fill="#333333"/>
<path d="M89.3027 22.2011V23.3633H87.9854L89.2481 22.0273L89.3027 22.2011Z" fill="#333333"/>
<path d="M89.3028 15.8062V16.9391L88.4831 19.5759L88.731 20.3767L86.9627 22.2518C86.8281 21.5663 86.7461 20.6248 86.7461 19.5857C86.7461 17.4958 87.0974 15.7965 87.5072 15.7965H89.3028V15.8062Z" fill="#333333"/>
<path d="M99.1899 23.4004H91.9492V15.8317H91.9453V15.8219H99.1899C99.6193 15.8219 99.9511 17.5212 99.9511 19.6112C99.9511 21.7011 99.5998 23.4004 99.1899 23.4004Z" fill="#333333"/>
</g>
<defs>
<linearGradient id="paint0_linear_6561_3710" x1="49.5298" y1="21.8574" x2="50.6852" y2="21.8574" gradientUnits="userSpaceOnUse">
<stop stop-opacity="0.2"/>
<stop offset="1"/>
</linearGradient>
<linearGradient id="paint1_linear_6561_3710" x1="50.4684" y1="24.9062" x2="62.3839" y2="20.2503" gradientUnits="userSpaceOnUse">
<stop stop-opacity="0.5"/>
<stop offset="1"/>
</linearGradient>
<linearGradient id="paint2_linear_6561_3710" x1="50.1406" y1="63.2264" x2="51.296" y2="63.2264" gradientUnits="userSpaceOnUse">
<stop stop-opacity="0.2"/>
<stop offset="1"/>
</linearGradient>
<linearGradient id="paint3_linear_6561_3710" x1="51.0285" y1="60.318" x2="62.8328" y2="64.9291" gradientUnits="userSpaceOnUse">
<stop stop-opacity="0.5"/>
<stop offset="1"/>
</linearGradient>
<linearGradient id="paint4_linear_6561_3710" x1="28.9434" y1="59.1735" x2="42.8393" y2="59.1735" gradientUnits="userSpaceOnUse">
<stop offset="0.3" stop-opacity="0.2"/>
<stop offset="1"/>
</linearGradient>
<linearGradient id="paint5_linear_6561_3710" x1="81.4043" y1="34.7484" x2="84.4879" y2="34.7484" gradientUnits="userSpaceOnUse">
<stop/>
<stop offset="0.5" stop-opacity="0.02"/>
<stop offset="1" stop-opacity="0"/>
</linearGradient>
<linearGradient id="paint6_linear_6561_3710" x1="79.5835" y1="32.307" x2="81.4044" y2="32.307" gradientUnits="userSpaceOnUse">
<stop/>
<stop offset="0.05" stop-opacity="0"/>
<stop offset="0.12" stop-color="white" stop-opacity="0"/>
<stop offset="0.25" stop-color="white"/>
<stop offset="0.75" stop-color="white"/>
<stop offset="0.88" stop-color="white" stop-opacity="0"/>
<stop offset="0.95" stop-opacity="0"/>
<stop offset="1"/>
</linearGradient>
<linearGradient id="paint7_linear_6561_3710" x1="72.4854" y1="42.5516" x2="81.4045" y2="42.5516" gradientUnits="userSpaceOnUse">
<stop stop-opacity="0.2"/>
<stop offset="1"/>
</linearGradient>
<linearGradient id="paint8_linear_6561_3710" x1="79.0916" y1="27.9454" x2="79.0916" y2="26.1426" gradientUnits="userSpaceOnUse">
<stop stop-color="white" stop-opacity="0.2"/>
<stop offset="1" stop-color="white"/>
</linearGradient>
<linearGradient id="paint9_linear_6561_3710" x1="72.6609" y1="27.6583" x2="72.6609" y2="26.6309" gradientUnits="userSpaceOnUse">
<stop/>
<stop offset="0.5" stop-opacity="0"/>
<stop offset="1"/>
</linearGradient>
<linearGradient id="paint10_linear_6561_3710" x1="78.2349" y1="30.305" x2="79.9504" y2="30.305" gradientUnits="userSpaceOnUse">
<stop/>
<stop offset="0.5" stop-opacity="0"/>
<stop offset="1"/>
</linearGradient>
<linearGradient id="paint11_linear_6561_3710" x1="79.0916" y1="27.9552" x2="79.0916" y2="27.6212" gradientUnits="userSpaceOnUse">
<stop stop-opacity="0.2"/>
<stop offset="1"/>
</linearGradient>
<linearGradient id="paint12_linear_6561_3710" x1="14.6299" y1="43.07" x2="15.5725" y2="43.07" gradientUnits="userSpaceOnUse">
<stop/>
<stop offset="0.7" stop-opacity="0.2"/>
</linearGradient>
<linearGradient id="paint13_linear_6561_3710" x1="8.8623" y1="43.07" x2="9.80691" y2="43.07" gradientUnits="userSpaceOnUse">
<stop offset="0.3" stop-opacity="0.2"/>
<stop offset="1"/>
</linearGradient>
<radialGradient id="paint14_radial_6561_3710" cx="0" cy="0" r="1" gradientUnits="userSpaceOnUse" gradientTransform="translate(12.3541 19.7283) rotate(-90) scale(3.2228 3.22027)">
<stop offset="0.36" stop-color="white"/>
<stop offset="0.51" stop-color="#FCFCFC"/>
<stop offset="0.63" stop-color="#F1F1F1"/>
<stop offset="0.74" stop-color="#DFDFDF"/>
<stop offset="0.85" stop-color="#C6C6C6"/>
<stop offset="0.96" stop-color="#A7A7A7"/>
<stop offset="1" stop-color="#999999"/>
</radialGradient>
<radialGradient id="paint15_radial_6561_3710" cx="0" cy="0" r="1" gradientUnits="userSpaceOnUse" gradientTransform="translate(12.3541 65.3338) rotate(90) scale(3.2228 3.22027)">
<stop offset="0.36" stop-color="white"/>
<stop offset="0.51" stop-color="#FCFCFC"/>
<stop offset="0.63" stop-color="#F1F1F1"/>
<stop offset="0.74" stop-color="#DFDFDF"/>
<stop offset="0.85" stop-color="#C6C6C6"/>
<stop offset="0.96" stop-color="#A7A7A7"/>
<stop offset="1" stop-color="#999999"/>
</radialGradient>
<linearGradient id="paint16_linear_6561_3710" x1="79.5835" y1="52.5129" x2="81.4044" y2="52.5129" gradientUnits="userSpaceOnUse">
<stop/>
<stop offset="0.05" stop-opacity="0"/>
<stop offset="0.12" stop-color="white" stop-opacity="0"/>
<stop offset="0.25" stop-color="white"/>
<stop offset="0.75" stop-color="white"/>
<stop offset="0.88" stop-color="white" stop-opacity="0"/>
<stop offset="0.95" stop-opacity="0"/>
<stop offset="1"/>
</linearGradient>
<linearGradient id="paint17_linear_6561_3710" x1="68.9568" y1="64.4628" x2="63.7469" y2="62.6313" gradientUnits="userSpaceOnUse">
<stop stop-opacity="0.2"/>
<stop offset="0.82" stop-opacity="0.6"/>
<stop offset="1"/>
</linearGradient>
<linearGradient id="paint18_linear_6561_3710" x1="403.643" y1="48.4405" x2="84.1855" y2="48.4405" gradientUnits="userSpaceOnUse">
<stop/>
<stop offset="0.5" stop-opacity="0.02"/>
<stop offset="1" stop-opacity="0"/>
</linearGradient>
<linearGradient id="paint19_linear_6561_3710" x1="46.3794" y1="32.8343" x2="48.6531" y2="32.8343" gradientUnits="userSpaceOnUse">
<stop/>
<stop offset="0.5" stop-opacity="0"/>
<stop offset="1"/>
</linearGradient>
<linearGradient id="paint20_linear_6561_3710" x1="46.0596" y1="52.1888" x2="48.3333" y2="52.1888" gradientUnits="userSpaceOnUse">
<stop/>
<stop offset="0.5" stop-opacity="0"/>
<stop offset="1"/>
</linearGradient>
<clipPath id="clip0_6561_3710">
<rect width="100" height="71" fill="white" transform="matrix(1 0 0 -1 0 71)"/>
</clipPath>
</defs>
</svg>
