<svg width="100" height="48" viewBox="0 0 100 48" fill="none" xmlns="http://www.w3.org/2000/svg">
<g clip-path="url(#clip0_6560_2287)">
<path d="M70.1142 32.0316V34.1766C70.3355 34.1448 70.5726 34.1925 70.8414 34.2878C70.9362 34.0018 71.1101 33.3663 71.0153 32.8419C70.9678 32.5083 70.541 32.2222 70.1142 32.0316ZM70.1142 13.8546V15.9996C70.541 15.8089 70.9678 15.5229 71.0153 15.2052C71.0943 14.6808 70.9204 14.0294 70.8414 13.7593C70.5884 13.8228 70.3355 13.8705 70.1142 13.8546ZM27.5081 8.61124H23.461V9.51691H27.5081V8.61124ZM55.0163 8.61124H51.064C50.0838 8.61124 49.1985 8.16635 48.5977 7.48312H42.0527C41.4519 8.18224 40.5666 8.61124 39.5864 8.61124H35.397V9.73935H55.0163V8.61124ZM67.6479 8.56357C67.474 8.59535 67.2843 8.61124 67.0946 8.61124H62.9051V9.73935H67.6479L67.9799 9.40569C67.7744 9.19913 67.6479 8.91313 67.6479 8.61124V8.56357ZM69.5608 7.48312C69.5292 7.53079 69.4818 7.56256 69.4502 7.61023V7.72145C69.4818 7.73734 69.4976 7.75323 69.5292 7.78501C69.6241 7.61023 69.8138 7.49901 70.0193 7.49901L69.5608 7.48312ZM23.4452 39.4041H27.4923V38.4984H23.4293L23.4452 39.4041ZM70.3513 43.6941V44.7269C70.3513 46.5382 68.8968 48 67.0946 48H51.064C49.2617 48 47.8073 46.5382 47.8073 44.7269V43.6941H42.8431V44.7269C42.8431 46.5382 41.3887 48 39.5864 48H23.54C21.7378 48 20.2833 46.5382 20.2833 44.7269V43.6941H17.3586V45.283H9.69109V45.5054H8.33149V45.283H6.97189C6.97189 45.283 6.18143 44.5521 5.39096 43.2492C4.93249 42.5024 4.85345 40.5322 4.86926 38.9751L4.75859 38.8956C4.50564 39.1181 4.17365 39.2928 3.81004 39.1657C3.35157 39.0068 3.20928 38.3077 2.45044 38.2601C1.7074 38.2124 0.980175 38.1171 0.64818 37.5768C0.316186 37.0366 0 26.8836 0 24.0077C0 21.1317 0.347804 10.9628 0.679799 10.4226C1.01179 9.88235 1.73902 9.78702 2.48206 9.73935C3.22509 9.69168 3.36738 8.99257 3.84165 8.83368C4.20527 8.70657 4.53726 8.89724 4.79021 9.10379L4.90088 9.02435C4.88507 7.46723 4.96411 5.497 5.42258 4.75021C6.21305 3.44732 7.00351 2.71643 7.00351 2.71643H8.36311V2.49398H9.72271V2.71643H17.3902V4.30532H20.3149V3.27254C20.3149 1.4612 21.7694 -0.000587463 23.5716 -0.000587463H39.6022C41.4045 -0.000587463 42.859 1.4612 42.859 3.27254V4.30532H47.8231V3.27254C47.8231 1.4612 49.2775 -0.000587463 51.0798 -0.000587463H67.1104C68.9126 -0.000587463 70.3671 1.4612 70.3671 3.27254V4.30532H73.8293C73.9716 4.30532 74.0823 4.41655 74.0823 4.55955L74.8885 7.2289C74.8885 7.37189 74.7779 7.48312 74.6356 7.48312H75.2205C75.4103 7.48312 75.5684 7.57845 75.679 7.70557C75.7739 7.56256 75.9478 7.48312 76.1375 7.48312H80.4218C80.738 7.48312 80.9909 7.73734 80.9909 8.05512V9.18324C80.9909 9.50102 80.738 9.75525 80.4218 9.75525H80.3111V13.6004L79.8527 14.0612H75.7897L75.5684 12.6947C75.5684 12.6947 75.3944 11.5348 74.8885 11.3283C74.4617 11.1535 74.2246 11.2011 73.9242 10.8675L73.7661 13.1396C73.7661 13.1396 73.0072 13.7752 72.865 13.6004C72.7543 13.4733 72.3591 13.1873 72.1377 13.0284C71.9164 13.1873 71.6477 13.362 71.3789 13.505C71.5528 14.2042 71.9164 15.7136 71.7425 15.8566C71.6002 15.9678 70.8256 16.4127 70.1616 16.7146V31.3007C70.8256 31.6026 71.6002 32.0475 71.7425 32.1587C71.9164 32.3017 71.5686 33.8111 71.3789 34.5103C71.6477 34.6533 71.9164 34.828 72.1377 34.9869C72.3749 34.828 72.7701 34.5579 72.865 34.4149C73.0231 34.2243 73.7661 34.8598 73.7661 34.8598L73.9242 37.1319C74.2246 36.7983 74.4617 36.8459 74.8885 36.6712C75.3944 36.4646 75.5684 35.3047 75.5684 35.3047L75.7897 33.9383H79.8527L80.3111 34.3832V38.2601H80.4218C80.738 38.2601 80.9909 38.5143 80.9909 38.8321V39.9602C80.9909 40.278 80.738 40.5322 80.4218 40.5322H76.1375C75.9478 40.5322 75.7897 40.4368 75.679 40.3097C75.5842 40.4527 75.4103 40.5322 75.2205 40.5322H74.6356C74.7779 40.5322 74.8885 40.6434 74.8885 40.7864L74.0823 43.4558C74.0823 43.5988 73.9716 43.71 73.8293 43.71L70.3513 43.6941ZM69.4502 40.4051C69.4818 40.4527 69.5292 40.4845 69.5608 40.5322H70.0193C69.8138 40.5322 69.6241 40.421 69.5292 40.2462C69.5134 40.2621 69.4818 40.2938 69.4502 40.3097V40.4051ZM62.9051 39.4041H67.0946C67.2843 39.4041 67.474 39.42 67.6479 39.4517V39.4041C67.6479 39.0863 67.7744 38.8003 67.9799 38.6096L67.6479 38.2759H62.9051V39.4041ZM48.5977 40.5322C49.1985 39.8331 50.0838 39.4041 51.064 39.4041H55.0163V38.2759H35.397V39.4041H39.5864C40.5666 39.4041 41.4519 39.849 42.0527 40.5322H48.5977Z" fill="black"/>
<path d="M74.604 7.49898H17.3586V8.61121L17.4661 8.84954H18.4969L19.398 9.51688H33.8477L33.9583 9.73932H68.549V38.26H33.9599L33.8477 38.4825H30.006C29.9902 38.4984 22.544 38.4984 22.544 38.4984H19.398L18.4969 39.1816H17.474L17.3744 39.404L17.3712 40.5163H74.5882C74.7304 40.5163 74.8411 40.6275 74.8411 40.7705L74.0507 43.4398C74.0507 43.5828 73.94 43.6941 73.7977 43.6941H17.3633L17.3586 45.283H6.9877C6.9877 45.283 6.19724 44.5521 5.40677 43.2492C4.95305 42.5024 4.86926 40.5274 4.88032 38.9782L4.7744 38.9083C4.53094 39.1164 4.19578 39.2896 3.84165 39.1657C3.38319 39.0068 3.2409 38.3077 2.48206 38.26C1.73902 38.2124 1.01179 38.117 0.679799 37.5768C0.347804 37.0525 0 26.8835 0 24.0076C0 21.1317 0.347804 10.9628 0.679799 10.4226C1.01179 9.88232 1.73902 9.78699 2.48206 9.73932C3.22509 9.69166 3.36738 8.99254 3.84165 8.83365C4.20685 8.70654 4.55149 8.89403 4.79653 9.11806L4.89613 9.05133C4.88507 7.50057 4.96727 5.51445 5.42258 4.76449C6.21305 3.46159 7.00351 2.7307 7.00351 2.7307H17.3586V4.3196H73.7977C73.94 4.3196 74.0507 4.43082 74.0507 4.57382L74.8569 7.24316C74.8569 7.38617 74.7463 7.49739 74.604 7.49739V7.49898Z" fill="#FED100"/>
<path d="M84.3363 45.6119H78.5059V2.40663H84.3363V45.6119Z" fill="#333333"/>
<path d="M83.8792 6.90788V15.909C83.8792 15.909 84.0436 17.0292 82.3077 17.0292C80.5719 17.0292 80.2968 16.3682 80.2968 15.909V14.3296H79.4004V8.02805C79.4004 8.02805 80.0581 7.20182 80.5149 6.66795C80.9718 6.13409 81.1916 5.54778 81.1916 5.54778H82.763L83.8776 6.90788H83.8792ZM83.8792 41.1121L82.7646 42.4722H81.1932C81.1932 42.4722 80.9924 41.8652 80.5165 41.352C80.0407 40.8197 79.402 40.011 79.402 40.011V33.7094H80.2984V32.13C80.2984 31.6708 80.5908 31.0099 82.3093 31.0099C84.0278 31.0099 83.8807 32.13 83.8807 32.13V41.1121H83.8792Z" fill="#444444"/>
<path d="M82.0882 3.08668C82.0882 3.08668 81.8684 4.17031 82.0882 4.66604C82.3079 5.16178 82.7648 5.78622 82.7648 5.78622H81.4115C81.4115 5.78622 80.991 4.99653 80.9546 4.20685C80.9183 3.41717 80.9546 3.08668 80.9546 3.08668H82.0882ZM82.0882 44.9335H80.9736C80.9736 44.9335 80.9546 44.5839 80.9736 43.8133C80.9926 43.0427 81.4305 42.2339 81.4305 42.2339H82.7838C82.7838 42.2339 82.3269 42.8584 82.1071 43.3541C81.8874 43.8498 82.0882 44.9335 82.0882 44.9335Z" fill="#1D1D1D"/>
<path d="M96.4179 45.6119H84.3364V2.40663H96.4179V45.6119Z" fill="#444444"/>
<path d="M99.9999 45.6119H96.4175V2.40663H99.9999V45.6119Z" fill="#333333"/>
<path d="M77.1712 46.0536H76.7144V1.96645H77.1712V1.91084C77.1712 1.56128 77.4447 1.2864 77.7925 1.2864H98.939C99.2868 1.2864 99.5603 1.56128 99.5603 1.91084V2.02047C99.5603 2.37003 99.2868 2.64491 98.939 2.64491H78.7237V45.3926H98.9201C99.2679 45.3926 99.5414 45.6675 99.5414 46.017V46.1092C99.5414 46.4588 99.2679 46.7336 98.9201 46.7336H77.7736C77.4258 46.7336 77.1523 46.4588 77.1523 46.1092V46.0536H77.1712Z" fill="#1D1D1D"/>
<path d="M73.646 38.0646H73.061V9.84735H73.646V38.0646Z" fill="#333333"/>
<path d="M75.1953 37.3417H74.6104V10.5688H75.1953V37.3417Z" fill="#1D1D1D"/>
<path d="M35.3971 7.9439V11.3441H27.5083V7.9439H35.3971ZM62.9053 7.9439V11.3441H55.0164V7.9439H62.9053ZM35.3971 40.0714V36.6712H27.5083V40.0714H35.3971ZM62.9053 40.0714V36.6712H55.0164V40.0714H62.9053Z" fill="black"/>
<path d="M66.4937 7.499H48.6055C49.2015 8.19017 50.0805 8.62712 51.0639 8.62712H67.0945C68.0778 8.62712 68.9568 8.19017 69.5528 7.499H66.4937ZM23.5557 39.3882H39.5863C40.5697 39.3882 41.4487 39.8251 42.0447 40.5163H21.0974C21.6934 39.8251 22.5724 39.3882 23.5557 39.3882ZM51.0639 39.3882H67.0945C68.0778 39.3882 68.9568 39.8251 69.5528 40.5163H48.6055C49.2015 39.8251 50.0805 39.3882 51.0639 39.3882ZM39.5863 8.62712H23.5557C22.5724 8.62712 21.6934 8.19017 21.0974 7.499H42.0447C41.4487 8.19017 40.5697 8.62712 39.5863 8.62712ZM65.6875 4.32121H47.8072V3.28843C47.8072 1.47708 49.2616 0.0152931 51.0639 0.0152931H67.0945C68.8967 0.0152931 70.3512 1.47708 70.3512 3.28843V4.32121H65.6875ZM65.6875 43.6941H70.3512V44.7269C70.3512 46.5382 68.8967 48 67.0945 48H51.0639C49.2616 48 47.8072 46.5382 47.8072 44.7269V43.6941H65.6875ZM20.2832 4.32121V3.28843C20.2832 1.47708 21.7377 0.0152931 23.5399 0.0152931H39.5863C41.3886 0.0152931 42.843 1.47708 42.843 3.28843V4.32121H20.2832ZM42.843 43.6941V44.7269C42.843 46.5382 41.3886 48 39.5863 48H23.5399C21.7377 48 20.2832 46.5382 20.2832 44.7269V43.6941H42.843Z" fill="#222222"/>
<path d="M23.4454 38.0392V9.97449H14.4341V38.0392H23.4454Z" fill="#1D1D1D"/>
<path d="M9.69125 2.50981V4.5436H8.33165V2.50981H9.69125ZM9.69125 7.38772C10.1023 7.54661 10.3711 7.83261 10.3711 8.16628C10.3711 8.65884 9.7703 9.07195 9.01145 9.07195C8.25261 9.07195 7.65186 8.65884 7.65186 8.16628C7.65186 7.83261 7.92061 7.54661 8.33165 7.38772V7.26061H9.69125V7.38772ZM9.69125 45.5054H8.33165V43.4716H9.69125V45.5054ZM8.34746 40.6433C7.93642 40.4845 7.66766 40.1985 7.66766 39.8648C7.66766 39.3563 8.26842 38.9591 9.02726 38.9591C9.78611 38.9591 10.3869 39.3563 10.3869 39.8648C10.3869 40.1985 10.1181 40.5003 9.70706 40.6433V40.7705H8.34746V40.6433Z" fill="black"/>
<path opacity="0.15" d="M19.3978 9.51692L18.9552 9.9777H4.74262L3.84149 9.75526L5.20109 8.84959H18.4967L19.3978 9.51692ZM19.3978 38.4984L18.4967 39.1816H5.18528L3.82568 38.276L4.72681 38.0535H18.9235L19.3978 38.4984Z" fill="black"/>
<path opacity="0.1" d="M16.4574 38.0376H4.74268V9.97767H16.4732V38.0376H16.4574Z" fill="url(#paint0_linear_6560_2287)"/>
<path d="M68.3118 38.9432L67.632 38.26L66.9522 37.8151H55.2217V10.2H66.9522L67.632 9.73927L68.3118 9.05604L70.114 8.8336V39.1656L68.3118 38.9432Z" fill="#1D1D1D"/>
<path d="M69.6715 33.9701H66.5097L65.3872 33.2869V14.7285L66.5097 14.0453H70.13V33.9701H69.6715Z" fill="#333333"/>
<path d="M64.486 10.4226H70.1141L70.3355 9.96179L71.0153 9.50101L70.1141 11.9956H65.3239L64.4702 11.2011L64.486 10.4226ZM64.486 37.5927V36.8142L65.3397 36.0197H70.1299L71.0311 38.5143L70.3513 38.0694L70.1299 37.6245L64.486 37.5927Z" fill="#333333"/>
<path d="M70.7939 13.6003L71.2524 13.1395C71.2524 13.1395 71.9322 15.6659 71.7109 15.8565C71.4895 16.0472 69.5766 17.0959 69.2288 16.9846C68.881 16.8734 69.2288 16.3014 69.2288 16.3014C69.2288 16.3014 70.9204 15.8406 71.031 15.1733C71.1417 14.506 70.7939 13.6003 70.7939 13.6003ZM70.7939 34.4148C70.7939 34.4148 71.1259 33.5092 71.0152 32.826C70.9046 32.1427 69.213 31.6978 69.213 31.6978C69.213 31.6978 68.881 31.1258 69.213 31.0146C69.545 30.9034 71.4737 31.9521 71.695 32.1427C71.9164 32.3334 71.2366 34.8597 71.2366 34.8597L70.7939 34.4148Z" fill="#1D1D1D"/>
<path d="M72.8333 12.4723C72.8333 12.4723 70.4303 14.5855 69.6714 13.6004C68.9126 12.6153 70.1299 8.84959 70.1299 8.84959H72.6119L72.8333 12.4723ZM72.8333 35.559L72.6119 39.1816H70.1299C70.1299 39.1816 68.9284 35.416 69.6714 34.4308C70.4145 33.4457 72.8333 35.559 72.8333 35.559Z" fill="#444444"/>
<path d="M79.821 14.0452H75.7581L75.5367 12.6787C75.5367 12.6787 75.3628 11.5188 74.8569 11.3123C74.351 11.1057 74.1139 11.2169 73.7345 10.6291C73.355 10.057 73.5131 8.81771 73.5131 8.81771H80.2795V13.5685L79.821 14.0452ZM79.821 33.97L80.2795 34.4148V39.1656H73.5131C73.5131 39.1656 73.355 37.9263 73.7345 37.3543C74.1139 36.7823 74.351 36.8776 74.8569 36.6711C75.3628 36.4645 75.5367 35.3046 75.5367 35.3046L75.7581 33.9382L79.821 33.97Z" fill="#333333"/>
<path d="M66.2886 33.7476V14.2677C66.2886 14.2677 66.7787 16.079 66.9684 16.079C67.1581 16.079 67.5691 16.4604 67.4268 16.7622C67.2688 17.0641 66.9684 16.9847 66.9684 16.9847V31.0305C66.9684 31.0305 67.2688 30.9511 67.4268 31.253C67.5849 31.5549 67.1581 31.9362 66.9684 31.9362C66.7787 31.9362 66.2886 33.7476 66.2886 33.7476Z" fill="black"/>
<path d="M66.2886 33.7476C66.2886 33.7476 65.2452 33.5569 65.1819 32.8419C65.1187 32.1269 65.1819 24.0076 65.1819 24.0076C65.1819 24.0076 65.1187 15.9042 65.1819 15.1733C65.2452 14.4583 66.2886 14.2677 66.2886 14.2677V33.7476Z" fill="#444444"/>
<path d="M29.5317 11.3601C29.5317 11.3601 29.7214 11.6779 29.7531 12.2658C29.7847 12.8536 30.2115 14.0771 30.2115 14.0771C30.2115 14.0771 27.5556 14.3472 26.607 13.8546C25.6584 13.3621 25.9272 12.1704 26.1485 11.5825C26.3857 11.0105 29.5317 11.3601 29.5317 11.3601ZM29.5317 36.6871C29.5317 36.6871 26.3857 37.0367 26.1485 36.4647C25.9114 35.8927 25.6584 34.701 26.607 34.1925C27.5556 33.6841 30.2115 33.9701 30.2115 33.9701C30.2115 33.9701 29.8005 35.1935 29.7531 35.7814C29.7214 36.3693 29.5317 36.6871 29.5317 36.6871Z" fill="#333333"/>
<path d="M56.1385 37.8152H28.6304V10.2002H56.1385L55.2374 11.789V36.2263L56.1385 37.8152Z" fill="#1D1D1D"/>
<path d="M55.4589 37.5928L54.3365 37.3703V34.6533H51.6331L50.7319 33.7476V14.2678L51.6331 13.3621H54.3365V10.661L55.4589 10.4385V13.6004H58.3836L60.1859 15.4118V32.6036L58.3836 34.415H55.4589V37.5928Z" fill="#333333"/>
<path d="M59.348 13.8864L59.9171 14.4584C60.0752 14.6173 60.0436 14.8874 59.8539 15.0781L58.7314 13.95C58.9212 13.7434 59.2057 13.7275 59.348 13.8864ZM59.348 34.129C59.1899 34.2879 58.9212 34.2561 58.7314 34.0654L59.8539 32.9373C60.0436 33.128 60.0594 33.3981 59.9171 33.557L59.348 34.129Z" fill="white"/>
<path opacity="0.1" d="M1.80225 31.2531V16.7623C1.80225 16.7623 2.46624 15.7931 2.48205 14.4902C2.49785 13.2032 2.26072 13.1238 2.26072 13.1238L2.94051 10.8516C2.94051 10.8516 3.0828 12.1704 2.94051 12.8854C2.79823 13.6004 2.94051 23.9759 2.94051 23.9759C2.94051 23.9759 2.79823 34.3514 2.94051 35.0664C3.0828 35.7814 2.94051 37.1002 2.94051 37.1002L2.26072 34.8281C2.26072 34.8281 2.49785 34.7645 2.48205 33.4616C2.46624 32.2223 1.80225 31.2531 1.80225 31.2531Z" fill="black"/>
<path d="M2.92443 11.1059C3.30385 11.1059 3.60423 11.4077 3.60423 11.7891C3.60423 12.1704 3.30385 12.4723 2.92443 12.4723C2.54501 12.4723 2.24463 12.1704 2.24463 11.7891C2.24463 11.4077 2.56081 11.1059 2.92443 11.1059ZM2.92443 36.9095C3.30385 36.9095 3.60423 36.6077 3.60423 36.2263C3.60423 35.845 3.30385 35.5431 2.92443 35.5431C2.54501 35.5431 2.24463 35.845 2.24463 36.2263C2.26044 36.6077 2.56081 36.9095 2.92443 36.9095Z" fill="#444444"/>
<path d="M67.9481 12.1704C67.2367 12.1704 66.0668 11.2171 65.6874 10.5815C65.3238 9.93005 64.1539 9.70761 63.6638 9.89827C63.1737 10.0889 63.3476 9.81883 63.4267 10.3591C63.5057 10.8993 64.2646 10.7881 64.7863 10.8198C65.3238 10.8516 66.8573 12.7901 67.5371 12.9331C68.2011 13.0761 69.7504 12.1704 69.7504 12.1704L69.9717 11.4872C69.9717 11.4872 68.6595 12.1704 67.9481 12.1704ZM64.8021 37.2114C65.3396 37.1796 66.8731 35.2571 67.5529 35.0982C68.2327 34.9552 69.7662 35.8609 69.7662 35.8609L69.9875 36.5441C69.9875 36.5441 68.6754 35.8609 67.9639 35.8609C67.2525 35.8609 66.0826 36.7983 65.7032 37.4498C65.308 38.0853 64.1539 38.3078 63.6638 38.1171C63.1737 37.9264 63.3634 38.1965 63.4425 37.6563C63.5215 37.132 64.2646 37.2432 64.8021 37.2114ZM68.7544 38.276C69.039 38.276 69.3077 38.3872 69.4974 38.562C69.5923 38.3872 69.782 38.276 69.9875 38.276H71.9321V37.3862L68.1062 33.7476H67.4264L68.3276 32.3812L68.5489 33.0644L71.9321 36.274V35.0982C71.9321 35.0982 72.6909 34.6056 72.8332 34.415C72.9755 34.2243 73.7343 34.8757 73.7343 34.8757L73.9557 38.0377L73.8972 38.276H75.173C75.3627 38.276 75.5208 38.3713 75.6314 38.4984C75.7263 38.3554 75.9002 38.276 76.0899 38.276H80.3742C80.6904 38.276 80.9434 38.5302 80.9434 38.848V39.9761C80.9434 40.2939 80.6904 40.5481 80.3742 40.5481H76.0899C75.9002 40.5481 75.7421 40.4528 75.6314 40.3257C75.5366 40.4687 75.3627 40.5481 75.173 40.5481H69.9875C69.782 40.5481 69.5923 40.4369 69.4974 40.2621C69.4816 40.278 69.45 40.3098 69.4184 40.3257V44.1549H68.0588V40.3098H68.0904C67.8217 40.1032 67.6319 39.7696 67.6319 39.4041C67.6319 38.7844 68.1378 38.276 68.7544 38.276ZM80.4058 9.75528H76.1215C75.9318 9.75528 75.7737 9.65994 75.6631 9.53283C75.5682 9.67583 75.3943 9.75528 75.2046 9.75528H73.9177L73.9715 9.97772L73.7343 13.1396C73.7343 13.1396 72.9755 13.7752 72.8332 13.6004C72.6751 13.4097 71.9321 12.9172 71.9321 12.9172V11.7414L68.5489 14.951L68.3276 15.6342L67.4264 14.2677H68.1062L71.9479 10.6292V9.75528H70.0191C69.8136 9.75528 69.6239 9.64405 69.5291 9.46927C69.3235 9.64405 69.0706 9.75528 68.786 9.75528C68.1695 9.75528 67.6636 9.24683 67.6636 8.62716C67.6636 8.26171 67.8375 7.92804 68.122 7.72149V3.87635H69.4816V7.7056H69.45C69.4816 7.72149 69.4974 7.73737 69.5291 7.76915C69.6239 7.59438 69.8136 7.48315 70.0191 7.48315H75.2046C75.3943 7.48315 75.5524 7.57848 75.6631 7.7056C75.7579 7.5626 75.9318 7.48315 76.1215 7.48315H80.4058C80.722 7.48315 80.975 7.73738 80.975 8.05516V9.18327C80.975 9.50105 80.722 9.75528 80.4058 9.75528ZM68.5489 24.0077V21.0682L69.6713 21.9739V26.0415L68.5489 26.9471V24.0077ZM6.62395 35.7814L5.8651 35.3365V12.6947L6.62395 12.234H11.9833L13.5168 13.1396V24.0077C13.5326 24.0077 13.5326 34.8757 13.5326 34.8757L11.9991 35.7814H6.62395ZM0.90099 34.6374C0.90099 34.6374 0.584805 34.3991 0.458331 33.5093C0.316047 32.6195 0.221191 26.0256 0.221191 24.0077C0.221191 21.9898 0.316047 15.3959 0.442521 14.5061C0.568996 13.6163 0.90099 13.378 0.90099 13.378L1.34365 14.0612C1.34365 14.0612 1.12232 21.2748 1.12232 24.0236C1.12232 26.7724 1.34365 33.986 1.34365 33.986L0.90099 34.6374ZM22.5439 31.698H20.7416C20.2515 31.698 19.8405 31.3007 19.8405 30.7923V12.234C19.8405 11.7414 20.2515 11.3283 20.7416 11.3283H22.5439C23.034 11.3283 23.445 11.7414 23.445 12.234V30.7923C23.445 31.3007 23.0498 31.698 22.5439 31.698ZM21.5511 33.4171C21.676 33.3345 21.8262 33.2868 21.9906 33.2868C22.4332 33.2868 22.781 33.6364 22.781 34.0813C22.781 34.245 22.7336 34.3975 22.6514 34.523L23.2237 35.0982L22.6514 35.6734C22.7336 35.7989 22.781 35.9498 22.781 36.1151C22.781 36.56 22.4332 36.9095 21.9906 36.9095C21.8277 36.9095 21.676 36.8619 21.5511 36.7792L21.2001 37.132L19.1765 35.0982L21.2001 33.0644L21.5511 33.4171ZM7.66736 36.56C7.66736 36.8778 7.16146 37.132 6.5449 37.132C5.92834 37.132 5.40663 36.8778 5.42244 36.56C5.42244 36.2422 5.92834 35.988 6.5449 35.988C7.16146 35.988 7.66736 36.2422 7.66736 36.56Z" fill="black"/>
<path d="M28.1877 35.7814V33.0246C28.1182 33.0485 28.0439 33.0644 27.9664 33.0644C27.587 33.0644 27.2866 32.7625 27.2866 32.3811C27.2866 31.9998 27.587 31.6979 27.9664 31.6979C28.0439 31.6979 28.1182 31.7138 28.1877 31.7376V16.2792C28.1182 16.3031 28.0439 16.319 27.9664 16.319C27.587 16.319 27.2866 16.0171 27.2866 15.6357C27.2866 15.2544 27.587 14.9525 27.9664 14.9525C28.0439 14.9525 28.1182 14.9684 28.1877 14.9922V12.6963H37.6575V35.7814H28.1877Z" fill="black"/>
</g>
<defs>
<linearGradient id="paint0_linear_6560_2287" x1="17.734" y1="23.9019" x2="4.95465" y2="23.9019" gradientUnits="userSpaceOnUse">
<stop/>
<stop offset="1" stop-color="white"/>
</linearGradient>
<clipPath id="clip0_6560_2287">
<rect width="100" height="48" fill="white" transform="matrix(1 0 0 -1 0 48)"/>
</clipPath>
</defs>
</svg>
