<svg width="100" height="56" viewBox="0 0 100 56" fill="none" xmlns="http://www.w3.org/2000/svg">
<path fill-rule="evenodd" clip-rule="evenodd" d="M80.6026 46.6124L78.5376 42.0289L77.7452 42.3627L75.2862 36.6594L75.5586 36.5355L75.0846 35.5581L74.8574 35.6649L74.7013 35.3027L74.4524 35.4091L74.6123 35.78L74.3057 35.9239L72.9519 32.8006V31.7152L73.1212 31.7161L73.392 31.5813V31.4802L73.1212 31.3117H72.9519V30.5028H74.4076V30.6377H74.7122V30.6714H75.4231L75.6263 30.7037V30.9073L75.8802 31.1769H76.0494L76.3033 30.9073V30.8062H77.2173L77.759 30.6714H79.9255L80.0948 30.6964V31.0913L80.3995 31.3791H80.6026L80.9072 31.0913V30.8062H81.0372L81.3135 30.8979V36.9736H82.4645V37.1084H82.329V37.3106H82.4645V37.4454H83.4123V37.3106H83.5477V37.1084H83.4123V36.9736H83.6831V32.9294H98.9167L99.6615 32.685L100 32.4407V32.1205L99.6615 31.8846L98.9167 31.6487H83.6831V24.6387H98.9167L99.6615 24.3944L100 24.15V23.8299L99.6615 23.5939L98.9167 23.358H83.6831V19.3812H83.4123V19.2464H83.5477V19.0442H83.4123V18.9094H82.4645V19.0442H82.329V19.2464H82.4645V19.3812H81.3135V25.1874L81.0088 25.2885V25.4813H80.9072V25.2635L80.6026 24.9757H80.3995L80.0948 25.2635V25.9194L80.0323 25.9531H78.2329L77.5559 25.4813H76.3033V25.4476L76.0494 25.1779H75.8802L75.6263 25.4476V26.0205H75.0169V25.5824H74.4076V25.7846H73.7367L73.6628 25.6498H72.9519V24.9757H73.1212L73.392 24.8072V24.7061L73.1212 24.5713H72.9519V23.1498L74.3057 20.0265L74.6123 20.1705L74.4524 20.5413L74.7013 20.6477L74.8574 20.2856L75.0846 20.3923L75.5586 19.4149L75.2862 19.291L77.7452 13.5878L78.5376 13.9215L80.6026 9.33802L76.1679 7.41702L74.1368 12.0679L74.785 12.341L72.3206 17.9413L72.0041 17.7972L71.4963 18.7072L71.9001 18.8969L71.7108 19.3271L71.9588 19.4353L72.1452 19.0119L72.444 19.1523L70.6838 23.0596V24.5713H59.851V17.9783C59.8851 17.9406 59.9158 17.9006 59.9427 17.8627C60.0261 17.7454 60.1085 17.5982 60.1783 17.4631C60.2197 17.3831 60.2584 17.3035 60.2927 17.231H64.9029C64.9072 17.231 64.9115 17.2308 64.9157 17.2304C64.9243 17.2296 64.9327 17.228 64.9409 17.2256C64.9451 17.2244 64.9491 17.223 64.9531 17.2214L66.5364 16.5909L66.5458 16.5867C66.5461 16.5866 66.5464 16.5863 66.5467 16.5862C66.5483 16.5854 66.5498 16.5846 66.5512 16.5838C66.5532 16.5828 66.5551 16.5817 66.5569 16.5805C66.5585 16.5796 66.5601 16.5786 66.5616 16.5776C66.5635 16.5763 66.5652 16.575 66.567 16.5737C66.5681 16.5729 66.5694 16.5721 66.5705 16.5712C66.5765 16.5664 66.5821 16.5611 66.5872 16.5554C66.5881 16.5544 66.5888 16.5534 66.5897 16.5524C66.5912 16.5506 66.5927 16.5488 66.5941 16.5469C66.595 16.5457 66.5959 16.5445 66.5968 16.5432C66.608 16.5273 66.6158 16.5091 66.6193 16.4896H66.8652C67.0731 16.4895 67.2474 16.3333 67.2691 16.1275L67.3152 15.6922C67.4392 14.5195 67.4392 13.3369 67.3152 12.1642L67.2691 11.729C67.2474 11.5231 67.0731 11.3669 66.8652 11.3669H65.6285L65.1623 11.1137C65.1424 11.1029 65.1201 11.0972 65.0975 11.0972H50.2122L50.2018 11.0976C50.1775 11.0995 50.1541 11.1079 50.1342 11.1219L49.0756 11.8658C49.0687 11.8706 49.0626 11.8762 49.0568 11.8821C49.0564 11.8825 49.0561 11.8829 49.0557 11.8832C49.0528 11.8862 49.0501 11.8894 49.0476 11.8926C49.0469 11.8934 49.0462 11.8942 49.0456 11.8951C49.0433 11.8981 49.0412 11.9012 49.0392 11.9044C49.0384 11.9056 49.0377 11.9068 49.037 11.9081C49.0352 11.9111 49.0335 11.9142 49.0319 11.9174C49.0312 11.9189 49.0305 11.9204 49.0299 11.922C49.0285 11.925 49.0272 11.928 49.0261 11.9312C49.0254 11.9331 49.0248 11.9351 49.0242 11.9371C49.0234 11.9398 49.0226 11.9425 49.0219 11.9453C49.0212 11.9482 49.0208 11.9512 49.0203 11.9542C49.0199 11.9563 49.0195 11.9584 49.0192 11.9606C49.0186 11.9656 49.0183 11.9708 49.0183 11.9759V16.4799C49.0183 16.4984 49.0221 16.5163 49.0292 16.5327C49.0297 16.5339 49.0302 16.5352 49.0308 16.5364C49.0319 16.5387 49.033 16.5411 49.0343 16.5434C49.0347 16.5442 49.035 16.5449 49.0355 16.5457C49.0371 16.5486 49.0389 16.5514 49.0407 16.5542L49.0414 16.5552C49.0416 16.5556 49.042 16.556 49.0423 16.5564C49.0441 16.559 49.0459 16.5615 49.0479 16.564C49.0483 16.5645 49.0486 16.5649 49.049 16.5654C49.0511 16.5678 49.0532 16.5702 49.0554 16.5726C49.0557 16.5729 49.0561 16.5733 49.0564 16.5737L49.0572 16.5744C49.0622 16.5795 49.0677 16.5842 49.0736 16.5886C49.0742 16.589 49.0748 16.5895 49.0755 16.5899C49.0786 16.5921 49.0818 16.5941 49.0851 16.5961L50.1375 17.2124C50.1583 17.2246 50.182 17.231 50.2062 17.231H53.4514C53.4856 17.3035 53.5244 17.3831 53.5657 17.4631C53.6356 17.5982 53.718 17.7454 53.8014 17.8627C53.8424 17.9204 53.8921 17.9832 53.9491 18.035C53.9914 18.0735 54.0967 18.1622 54.2474 18.1677L54.2622 18.1679H57.0751V24.5713H47.0548V24.6387H46.6254C46.6404 24.5965 46.6486 24.5512 46.6486 24.5039C46.6486 24.3542 46.5669 24.2236 46.4455 24.1537V24.0995H46.0393C46.1888 24.0995 46.3101 23.9788 46.3101 23.8299V14.5955C46.3101 14.4466 46.1888 14.3259 46.0393 14.3259H46.3778C46.4152 14.3259 46.4455 14.2957 46.4455 14.2585V14.2717C46.5669 14.2018 46.6486 14.0712 46.6486 13.9215C46.6486 13.6981 46.4667 13.5171 46.2424 13.5171H30.9411V13.2474H30.0609C29.9861 13.2474 29.9255 13.3078 29.9255 13.3823V13.5171H29.6547V13.2474H21.7332C21.6211 13.2474 21.5301 13.338 21.5301 13.4497V14.3259H20.8902C20.9073 13.6047 20.8779 12.8826 20.802 12.1642L20.756 11.729C20.7342 11.5231 20.5598 11.3669 20.352 11.3669H19.1153L18.6491 11.1137C18.6292 11.1029 18.6069 11.0972 18.5843 11.0972H3.69904L3.68859 11.0976C3.66432 11.0995 3.64094 11.1079 3.62095 11.1219L2.5624 11.8658C2.55555 11.8706 2.54937 11.8762 2.54362 11.8821C2.54324 11.8825 2.54288 11.8829 2.5425 11.8832C2.53963 11.8862 2.53693 11.8894 2.53437 11.8926C2.5337 11.8934 2.53303 11.8942 2.53238 11.8951C2.5301 11.8981 2.52799 11.9012 2.52597 11.9044C2.52522 11.9056 2.52451 11.9068 2.52379 11.9081C2.52199 11.9111 2.52025 11.9142 2.5187 11.9174C2.51797 11.9189 2.51732 11.9204 2.51665 11.922C2.51531 11.925 2.51399 11.928 2.51288 11.9312C2.51218 11.9331 2.51163 11.9351 2.51103 11.9371C2.51021 11.9398 2.50936 11.9425 2.50871 11.9453C2.50801 11.9482 2.50756 11.9512 2.50706 11.9542C2.50671 11.9563 2.50625 11.9584 2.506 11.9606C2.50542 11.9656 2.50508 11.9708 2.50508 11.9759V16.4799C2.50508 16.4984 2.50893 16.5163 2.51599 16.5327C2.51651 16.5339 2.51702 16.5352 2.51757 16.5364C2.51868 16.5387 2.51984 16.5411 2.52108 16.5434C2.52149 16.5442 2.52185 16.5449 2.52227 16.5457C2.5239 16.5486 2.52565 16.5514 2.52749 16.5542L2.52815 16.5552C2.52844 16.5556 2.52878 16.556 2.52908 16.5564C2.53087 16.559 2.53273 16.5615 2.5347 16.564C2.53507 16.5645 2.53544 16.5649 2.53582 16.5654C2.53785 16.5678 2.53996 16.5702 2.54217 16.5726C2.54252 16.5729 2.54287 16.5733 2.54323 16.5737L2.54396 16.5744C2.54901 16.5795 2.55452 16.5842 2.56042 16.5886C2.56104 16.589 2.56164 16.5895 2.56227 16.5899C2.56535 16.5921 2.56857 16.5941 2.57186 16.5961L3.62426 17.2124C3.64507 17.2246 3.66881 17.231 3.69295 17.231H6.93816C6.97244 17.3035 7.01119 17.3831 7.05254 17.4631C7.12237 17.5982 7.20479 17.7454 7.28818 17.8627C7.32917 17.9204 7.37894 17.9832 7.43589 18.035C7.47819 18.0735 7.58347 18.1622 7.73422 18.1677L7.74903 18.1679H10.5619V24.2343H6.36425V22.01H0.338524V24.3733L0 24.4365V24.7061L0.338524 24.7693V31.5181L0 31.5813V31.8509L0.338524 31.9141V34.3449H6.29655C6.33394 34.3449 6.36425 34.3147 6.36425 34.2775V32.0531H10.5619V38.0588H7.74903L7.73422 38.0591C7.58348 38.0646 7.4782 38.1532 7.43589 38.1917C7.37894 38.2436 7.32916 38.3064 7.28818 38.364C7.20479 38.4814 7.12237 38.6285 7.05254 38.7636C7.0112 38.8436 6.97244 38.9233 6.93816 38.9957H3.69295C3.66881 38.9957 3.64507 39.0022 3.62426 39.0144L2.57186 39.6307C2.56884 39.6324 2.56591 39.6344 2.56306 39.6363C2.56178 39.6372 2.56054 39.6382 2.55929 39.6391C2.55717 39.6407 2.5551 39.6423 2.55308 39.644C2.55262 39.6444 2.55214 39.6448 2.55169 39.6452C2.54889 39.6476 2.5462 39.6501 2.54362 39.6527C2.5429 39.6535 2.54221 39.6542 2.54151 39.655C2.53954 39.6571 2.53764 39.6592 2.53582 39.6614C2.53543 39.6619 2.53502 39.6624 2.53463 39.6629C2.53268 39.6653 2.53085 39.6678 2.52908 39.6704C2.52865 39.671 2.52818 39.6716 2.52776 39.6722C2.52582 39.6751 2.52404 39.6781 2.52233 39.6812C2.52188 39.682 2.52145 39.6828 2.52101 39.6836C2.51986 39.6857 2.51874 39.6879 2.51771 39.6901C2.51709 39.6914 2.5165 39.6928 2.51592 39.6941C2.5089 39.7106 2.50508 39.7284 2.50508 39.7469V44.2508C2.50508 44.2531 2.50535 44.2555 2.50547 44.2578C2.50562 44.2606 2.50567 44.2635 2.506 44.2663C2.50632 44.269 2.50691 44.2717 2.50739 44.2744C2.50782 44.2768 2.50816 44.2792 2.50871 44.2815C2.50942 44.2846 2.51038 44.2875 2.51129 44.2904C2.51183 44.2922 2.51227 44.2939 2.51288 44.2956C2.51409 44.299 2.51557 44.3023 2.51705 44.3056C2.51766 44.307 2.51824 44.3084 2.5189 44.3097C2.52038 44.3127 2.52202 44.3157 2.52372 44.3186C2.52446 44.3199 2.52519 44.3211 2.52597 44.3224C2.52799 44.3256 2.5301 44.3287 2.53238 44.3317C2.53303 44.3325 2.5337 44.3334 2.53437 44.3342C2.53701 44.3375 2.5398 44.3407 2.54276 44.3438C2.54306 44.3441 2.54333 44.3444 2.54362 44.3447C2.54937 44.3506 2.55556 44.3561 2.5624 44.3609L3.62095 45.1048C3.6438 45.1209 3.67107 45.1295 3.69904 45.1295H18.5843C18.6017 45.1295 18.6189 45.1261 18.6349 45.1197C18.6397 45.1177 18.6445 45.1155 18.6491 45.113L19.1153 44.8599H20.352C20.5599 44.8599 20.7342 44.7036 20.756 44.4978L20.802 44.0625C20.8433 43.6719 20.8707 43.2802 20.8845 42.8882C21.0224 43.1393 21.2901 43.3096 21.5978 43.3096H25.6601V43.5118C25.6601 43.5862 25.7207 43.6466 25.7955 43.6466H46.9871C47.0619 43.6466 47.1225 43.5862 47.1225 43.5118V43.3096H49.0183V44.2508C49.0183 44.2531 49.0186 44.2555 49.0187 44.2578C49.0188 44.2606 49.0189 44.2635 49.0192 44.2663C49.0195 44.269 49.0201 44.2717 49.0206 44.2744C49.021 44.2768 49.0214 44.2792 49.0219 44.2815C49.0226 44.2846 49.0236 44.2875 49.0245 44.2904C49.025 44.2922 49.0255 44.2939 49.0261 44.2956C49.0273 44.299 49.0288 44.3023 49.0302 44.3056C49.0309 44.307 49.0314 44.3084 49.0321 44.3097C49.0336 44.3127 49.0352 44.3157 49.0369 44.3186C49.0377 44.3199 49.0384 44.3211 49.0392 44.3224C49.0412 44.3256 49.0433 44.3287 49.0456 44.3317C49.0462 44.3325 49.0469 44.3334 49.0476 44.3342C49.0502 44.3375 49.053 44.3407 49.056 44.3438C49.0563 44.3441 49.0565 44.3444 49.0568 44.3447C49.0626 44.3506 49.0688 44.3561 49.0756 44.3609L50.1342 45.1048C50.157 45.1209 50.1843 45.1295 50.2122 45.1295H65.0975C65.1149 45.1295 65.132 45.1261 65.1481 45.1197C65.1529 45.1177 65.1577 45.1155 65.1623 45.113L65.6285 44.8599H66.8652C67.0731 44.8599 67.2474 44.7036 67.2691 44.4978L67.3152 44.0625C67.4392 42.8898 67.4392 41.7073 67.3152 40.5345L67.2691 40.0993C67.2474 39.8935 67.0731 39.7372 66.8652 39.7372H66.6193C66.6165 39.7214 66.6109 39.7065 66.603 39.6929C66.6028 39.6927 66.6027 39.6925 66.6026 39.6924C66.6008 39.6894 66.5989 39.6865 66.5969 39.6836C66.5961 39.6826 66.5954 39.6816 66.5946 39.6806C66.5931 39.6785 66.5914 39.6765 66.5898 39.6746C66.5888 39.6734 66.5879 39.6722 66.5868 39.671C66.582 39.6656 66.5767 39.6607 66.5709 39.6561C66.5697 39.6551 66.5684 39.654 66.567 39.6531C66.5651 39.6516 66.5631 39.6502 66.5611 39.6489C66.5598 39.6481 66.5586 39.6473 66.5573 39.6465C66.5551 39.6451 66.5528 39.6438 66.5505 39.6426C66.5495 39.642 66.5484 39.6414 66.5473 39.6409C66.5438 39.6391 66.5402 39.6374 66.5364 39.6359L64.9531 39.0053C64.9491 39.0038 64.9451 39.0023 64.9409 39.0011C64.9286 38.9975 64.9158 38.9957 64.9029 38.9957H60.2927C60.2584 38.9233 60.2197 38.8436 60.1783 38.7636C60.1085 38.6285 60.0261 38.4814 59.9427 38.364C59.9158 38.3262 59.885 38.2863 59.851 38.2486V31.6407L70.6838 31.7023V32.8908L72.444 36.7982L72.1452 36.9385L71.9588 36.5151L71.7108 36.6233L71.9001 37.0536L71.4963 37.2432L72.0041 38.1532L72.3206 38.0092L74.785 43.6095L74.1368 43.8825L76.1679 48.5334L80.6026 46.6124Z" fill="#333333"/>
<path d="M46.4455 14.2717C46.5669 14.2018 46.6486 14.0712 46.6486 13.9215C46.6486 13.6981 46.4667 13.517 46.2424 13.517H22.2072C21.9828 13.517 21.801 13.6981 21.801 13.9215C21.801 14.0622 21.8732 14.186 21.9826 14.2585H46.4455V14.2717Z" fill="#E58900"/>
<path fill-rule="evenodd" clip-rule="evenodd" d="M46.0393 24.0995C46.1889 24.0995 46.3101 23.9787 46.3101 23.8298V14.5955C46.3101 14.4466 46.1889 14.3259 46.0393 14.3259H20.4469C20.2973 14.3259 20.176 14.4466 20.176 14.5955V23.8298C20.176 23.9787 20.2973 24.0995 20.4469 24.0995H46.0393ZM32.2275 23.695C32.1901 23.695 32.1598 23.6649 32.1598 23.6276V14.7303C32.1598 14.6931 32.1901 14.6629 32.2275 14.6629H37.3054C37.3428 14.6629 37.3731 14.6931 37.3731 14.7303V23.6276C37.3731 23.6649 37.3428 23.695 37.3054 23.695H32.2275ZM40.0813 23.4254C40.0439 23.4254 40.0135 23.3952 40.0135 23.358V14.7303C40.0135 14.6931 40.0439 14.6629 40.0813 14.6629H45.633C45.6704 14.6629 45.7008 14.6931 45.7008 14.7303V23.358C45.7008 23.3952 45.6704 23.4254 45.633 23.4254H40.0813ZM30.8734 20.3922C30.3125 20.3922 29.8578 19.9396 29.8578 19.3812C29.8578 18.8228 30.3125 18.3701 30.8734 18.3701C31.4343 18.3701 31.889 18.8228 31.889 19.3812C31.889 19.9396 31.4343 20.3922 30.8734 20.3922Z" fill="#E58900"/>
<path d="M46.2424 24.9083C46.4667 24.9083 46.6486 24.7272 46.6486 24.5039C46.6486 24.3542 46.5669 24.2236 46.4455 24.1537V24.1669H21.9826C21.8732 24.2393 21.801 24.3632 21.801 24.5039C21.801 24.7272 21.9828 24.9083 22.2072 24.9083H46.2424Z" fill="#E58900"/>
<path d="M1.89574 25.1105H1.69263V31.1769H1.89574V25.1105Z" fill="#E58900"/>
<path d="M2.7082 24.5039H2.03115V31.7835H2.7082V24.5039Z" fill="#E58900"/>
<path d="M49.3568 43.3096C49.8055 43.3096 50.1693 42.9474 50.1693 42.5007V32.3901C50.1693 31.9434 49.8055 31.5813 49.3568 31.5813H21.5978C21.1491 31.5813 20.7854 31.9434 20.7854 32.3901V42.5007C20.7854 42.9474 21.1491 43.3096 21.5978 43.3096H49.3568Z" fill="#E58900"/>
<path d="M62.627 31.3117H66.757V24.9757H62.627V25.3127H2.84361V30.9747H62.627V31.3117Z" fill="#E58900"/>
<path d="M22.6246 14.2585H21.9825C21.873 14.1861 21.8008 14.0622 21.8008 13.9215C21.8008 13.6981 21.9827 13.5171 22.2071 13.5171H29.6546V13.2474H21.7331C21.621 13.2474 21.53 13.338 21.53 13.4497V14.3259H22.004L22.6246 14.2585Z" fill="#111111"/>
<path d="M30.941 13.2474H30.0608C29.9861 13.2474 29.9254 13.3078 29.9254 13.3823V13.5171H30.941V13.2474Z" fill="#111111"/>
<path d="M68.6526 30.9073H72.444V30.5028H74.4075V30.6377H75.0168V25.5824H74.4075V25.7846H72.444V25.3801H68.6526V24.9757H66.7568V31.3117H68.6526V30.9073Z" fill="#111111"/>
<path d="M52.1326 30.9747H51.6587V33.536H52.1326V30.9747Z" fill="#111111"/>
<path d="M46.987 43.6466C47.0618 43.6466 47.1224 43.5863 47.1224 43.5118V43.3096H25.66V43.5118C25.66 43.5863 25.7206 43.6466 25.7954 43.6466H46.987Z" fill="#111111"/>
<path d="M21.831 24.3514C21.8619 24.2758 21.9152 24.2115 21.9826 24.1669H22.022L22.0919 24.0995H20.4468C20.2973 24.0995 20.176 23.9788 20.176 23.8299V22.8862L18.7881 24.268L18.6865 24.7398H21.4286L21.831 24.3514Z" fill="url(#paint0_linear_2585_154907)"/>
<path d="M75.0847 35.5581L75.5586 36.5355L72.0041 38.1532L71.4963 37.2432L75.0847 35.5581Z" fill="url(#paint1_linear_2585_154907)"/>
<path d="M74.1367 43.8825L78.5375 42.0289L80.6025 46.6124L76.1679 48.5334L74.1367 43.8825Z" fill="url(#paint2_linear_2585_154907)"/>
<path d="M75.0735 37.6954L72.9519 32.8006V30.3006H72.6811V32.8561L72.6922 32.8817L74.8249 37.8021L75.0735 37.6954Z" fill="#222222"/>
<path d="M73.4479 38.3676L70.9547 32.8331V30.6376H70.6838V32.8908L73.2008 38.478L73.4479 38.3676Z" fill="#222222"/>
<path fill-rule="evenodd" clip-rule="evenodd" d="M76.9127 48.1964L76.4447 47.2266L76.5318 46.9851L76.3429 46.5516L78.7227 45.502L78.9438 46.0057L79.1808 46.1068L79.5532 47.0505L79.9255 46.882L77.9621 42.2985L77.7562 42.3882L74.7013 35.3027L74.4524 35.4091L77.5081 42.4963L77.4205 42.5344L78.1175 44.123L75.7415 45.171L75.0569 43.5997L75.0733 43.5925L71.9589 36.5151L71.7108 36.6233L74.7853 43.61L74.4753 43.7436L76.5318 48.3649L76.9127 48.1964ZM75.8492 45.4184L78.2259 44.3701L78.6143 45.2549L76.2352 46.3043L75.8492 45.4184Z" fill="#222222"/>
<path d="M75.0847 20.3922L75.5586 19.4149L72.0041 17.7972L71.4963 18.7071L75.0847 20.3922Z" fill="url(#paint3_linear_2585_154907)"/>
<path d="M74.1367 12.0679L78.5375 13.9215L80.6025 9.338L76.1679 7.41699L74.1367 12.0679Z" fill="url(#paint4_linear_2585_154907)"/>
<path fill-rule="evenodd" clip-rule="evenodd" d="M77.7562 13.5622L77.9621 13.6518L79.9255 9.06838L79.5532 8.89987L79.1808 9.84353L78.9438 9.94463L78.7227 10.4484L76.3429 9.39882L76.5318 8.9653L76.4447 8.72373L76.9127 7.75401L76.5318 7.58549L74.4753 12.2067L74.7853 12.3404L71.7108 19.3271L71.9589 19.4353L75.0733 12.3579L75.0569 12.3508L75.7415 10.7794L78.1175 11.8274L77.4205 13.4159L77.5081 13.4542L74.4524 20.5413L74.7013 20.6476L77.7562 13.5622ZM75.8492 10.5321L76.2352 9.64612L78.6143 10.6955L78.226 11.5804L75.8492 10.5321Z" fill="#222222"/>
<path d="M70.9547 23.1172L73.4479 17.5827L73.2008 17.4724L70.6838 23.0596V25.5149L70.9547 25.616V23.1172Z" fill="#222222"/>
<path d="M72.9519 23.1498L75.0735 18.255L74.8249 18.1482L72.6922 23.0687L72.6811 23.0942V25.7845H72.9519V23.1498Z" fill="#222222"/>
<rect width="2.7759" height="7.34702" transform="matrix(1 0 0 -1 57.0752 24.5713)" fill="url(#paint5_linear_2585_154907)"/>
<path d="M57.6167 17.4938H59.3093V17.2242H57.6167V17.4938Z" fill="#444444"/>
<path d="M66.8651 16.4896C67.073 16.4896 67.2473 16.3333 67.2691 16.1275L67.3151 15.6923C67.4391 14.5195 67.4391 13.337 67.3151 12.1642L67.2691 11.729C67.2473 11.5232 67.073 11.3669 66.8651 11.3669H65.6284L66.5509 11.8678C66.5944 11.8914 66.6214 11.9368 66.6214 11.9862V16.4657C66.6214 16.4738 66.6207 16.4818 66.6193 16.4896H66.8651Z" fill="url(#paint6_linear_2585_154907)"/>
<path d="M49.3003 11.7079C49.1235 11.8322 49.0183 12.0347 49.0183 12.2508V16.1766C49.0183 16.4122 49.1432 16.6301 49.3465 16.7492L50.014 17.1401C50.1157 17.1996 50.2314 17.231 50.3493 17.231H64.8017C64.8858 17.231 64.9691 17.215 65.0472 17.1839L66.2035 16.7234C66.4559 16.6229 66.6216 16.3787 66.6216 16.107V12.3008C66.6216 12.0576 66.4885 11.8338 66.2747 11.7177L65.2802 11.1777C65.183 11.1249 65.0741 11.0973 64.9635 11.0973H50.3791C50.2426 11.0973 50.1093 11.1394 49.9976 11.2179L49.3003 11.7079Z" fill="url(#paint7_linear_2585_154907)"/>
<path d="M66.551 11.8678L65.1623 11.1137C65.1425 11.103 65.1202 11.0973 65.0976 11.0973H50.2123C50.1843 11.0973 50.157 11.1059 50.1342 11.122L49.0756 11.8659C49.0728 11.8679 49.0701 11.8702 49.0674 11.8724H66.5588C66.5563 11.8708 66.5537 11.8693 66.551 11.8678Z" fill="url(#paint8_linear_2585_154907)"/>
<path d="M64.9029 17.231C64.9201 17.231 64.9371 17.2278 64.9531 17.2214L66.3677 16.6581H49.1909L50.1375 17.2124C50.1583 17.2246 50.182 17.231 50.2062 17.231H64.9029Z" fill="url(#paint9_linear_2585_154907)"/>
<path d="M59.4819 18.1679L59.4967 18.1676C59.6475 18.1621 59.7528 18.0735 59.7951 18.035C59.852 17.9831 59.9018 17.9203 59.9428 17.8627C60.0262 17.7453 60.1086 17.5982 60.1784 17.4631C60.2495 17.3255 60.3133 17.1892 60.3591 17.0881L60.5282 16.658H59.8195L59.3766 17.4939H54.3676L53.9248 16.658H53.2161L53.3852 17.0881C53.4309 17.1892 53.4947 17.3255 53.5658 17.4631C53.6357 17.5982 53.7181 17.7453 53.8015 17.8627C53.8425 17.9203 53.8922 17.9831 53.9492 18.035C53.9915 18.0735 54.0968 18.1621 54.2475 18.1676L54.2623 18.1679H59.4819Z" fill="url(#paint10_linear_2585_154907)"/>
<path d="M66.6216 11.9861C66.6216 11.9398 66.5977 11.897 66.5588 11.8724H49.0674C49.0365 11.8978 49.0183 11.9356 49.0183 11.9759V12.0072H66.6216V11.9861Z" fill="#111111"/>
<path d="M66.5365 16.5908C66.5689 16.5779 66.5943 16.5534 66.6086 16.5232H49.0255C49.0358 16.5534 49.0567 16.5794 49.0851 16.596L49.1909 16.658H66.3677L66.5365 16.5908Z" fill="#111111"/>
<path d="M57.6168 17.2243H57.5491V17.4939H57.6168V17.2243Z" fill="#111111"/>
<path d="M59.3771 17.2243H59.3094V17.4939H59.3771V17.2243Z" fill="#111111"/>
<path d="M58.5647 17.4939H58.3616V18.1679H58.5647V17.4939Z" fill="#111111"/>
<path d="M57.0752 31.588H59.8511V39.0024H57.0752V31.588Z" fill="url(#paint11_linear_2585_154907)"/>
<path d="M57.6167 38.7328H59.3093V39.0025H57.6167V38.7328Z" fill="#444444"/>
<path d="M66.8651 39.7372C67.073 39.7372 67.2473 39.8934 67.2691 40.0993L67.3151 40.5345C67.4391 41.7073 67.4391 42.8898 67.3151 44.0625L67.2691 44.4978C67.2473 44.7036 67.073 44.8599 66.8651 44.8599H65.6284L66.5509 44.3589C66.5944 44.3353 66.6214 44.2899 66.6214 44.2406V39.7611C66.6214 39.753 66.6207 39.745 66.6193 39.7372H66.8651Z" fill="url(#paint12_linear_2585_154907)"/>
<path d="M66.551 44.3589L65.1623 45.113C65.1425 45.1238 65.1202 45.1295 65.0976 45.1295H50.2123C50.1843 45.1295 50.157 45.1208 50.1342 45.1048L49.0756 44.3609C49.0728 44.3589 49.0701 44.3565 49.0674 44.3543H66.5588C66.5563 44.3559 66.5537 44.3575 66.551 44.3589Z" fill="url(#paint13_linear_2585_154907)"/>
<path d="M59.4819 38.0588L59.4967 38.0591C59.6475 38.0646 59.7528 38.1532 59.7951 38.1917C59.852 38.2436 59.9018 38.3064 59.9428 38.3641C60.0262 38.4814 60.1086 38.6286 60.1784 38.7637C60.2495 38.9013 60.3133 39.0376 60.3591 39.1387L60.5282 39.5688H59.8195L59.3766 38.7329H54.3676L53.9248 39.5688H53.2161L53.3852 39.1387C53.4309 39.0376 53.4947 38.9013 53.5658 38.7637C53.6357 38.6286 53.7181 38.4814 53.8015 38.3641C53.8425 38.3064 53.8922 38.2436 53.9492 38.1917C53.9915 38.1532 54.0968 38.0646 54.2475 38.0591L54.2623 38.0588H59.4819Z" fill="url(#paint14_linear_2585_154907)"/>
<path d="M66.6216 44.2406C66.6216 44.2869 66.5977 44.3297 66.5588 44.3543H49.0674C49.0365 44.3288 49.0183 44.291 49.0183 44.2508V44.2195H66.6216V44.2406Z" fill="#111111"/>
<path d="M66.5365 39.6358C66.5689 39.6488 66.5943 39.6733 66.6086 39.7034H50.1693V39.5686H66.3677L66.5365 39.6358Z" fill="#111111"/>
<path d="M57.6168 39.0024H57.5491V38.7328H57.6168V39.0024Z" fill="#111111"/>
<path d="M59.3771 39.0024H59.3094V38.7328H59.3771V39.0024Z" fill="#111111"/>
<path d="M58.5647 38.7328H58.3616V38.0588H58.5647V38.7328Z" fill="#111111"/>
<path d="M64.9028 38.9957C64.92 38.9957 64.9371 38.999 64.953 39.0053L66.3676 39.5687H50.1692V39.0009C50.1811 38.9975 50.1936 38.9957 50.2061 38.9957H64.9028Z" fill="url(#paint15_linear_2585_154907)"/>
<path d="M64.9029 38.9957C64.9201 38.9957 64.9372 38.999 64.9531 39.0053L66.5365 39.6358C66.5879 39.6563 66.6216 39.7059 66.6216 39.761V44.2406C66.6216 44.2899 66.5945 44.3353 66.551 44.3589L65.1623 45.113C65.1425 45.1238 65.1202 45.1295 65.0975 45.1295H50.2123C50.1843 45.1295 50.157 45.1208 50.1342 45.1048L49.0756 44.3609C49.0397 44.3356 49.0183 44.2946 49.0183 44.2508V43.3096H49.3568C49.8055 43.3096 50.1693 42.9474 50.1693 42.5007V39.0008C50.1812 38.9975 50.1937 38.9957 50.2062 38.9957H64.9029Z" fill="url(#paint16_linear_2585_154907)"/>
<path d="M20.3519 39.7372C20.5598 39.7372 20.7341 39.8934 20.7559 40.0993L20.7853 40.3775V42.5007C20.7853 42.6411 20.8213 42.7731 20.8844 42.8881C20.8706 43.2802 20.8432 43.6719 20.8019 44.0625L20.7559 44.4978C20.7341 44.7036 20.5598 44.8599 20.3519 44.8599H19.1152L20.0377 44.3589C20.0812 44.3353 20.1083 44.2899 20.1083 44.2406V39.7611C20.1083 39.753 20.1075 39.745 20.1061 39.7372H20.3519Z" fill="url(#paint17_linear_2585_154907)"/>
<rect x="10.562" y="31.6555" width="2.7759" height="7.34702" fill="url(#paint18_linear_2585_154907)"/>
<path d="M11.1035 38.7328H12.7961V39.0025H11.1035V38.7328Z" fill="#444444"/>
<path d="M2.78714 44.5188C2.61035 44.3946 2.50513 44.192 2.50513 43.976V40.0501C2.50513 39.8145 2.63005 39.5966 2.83334 39.4776L3.5008 39.0867C3.6025 39.0271 3.71823 38.9957 3.83609 38.9957H18.2885C18.3726 38.9957 18.4559 39.0117 18.534 39.0428L19.6903 39.5033C19.9427 39.6038 20.1084 39.848 20.1084 40.1197V43.9259C20.1084 44.1692 19.9753 44.3929 19.7615 44.509L18.767 45.0491C18.6698 45.1018 18.5609 45.1295 18.4503 45.1295H3.86593C3.72938 45.1295 3.59616 45.0874 3.48444 45.0088L2.78714 44.5188Z" fill="url(#paint19_linear_2585_154907)"/>
<path d="M20.0378 44.3589L18.6492 45.113C18.6293 45.1238 18.607 45.1295 18.5844 45.1295H3.6991C3.67113 45.1295 3.64386 45.1208 3.62101 45.1048L2.56246 44.3609C2.55957 44.3589 2.5569 44.3565 2.5542 44.3543H20.0456C20.0431 44.3559 20.0405 44.3575 20.0378 44.3589Z" fill="url(#paint20_linear_2585_154907)"/>
<path d="M18.3897 38.9957C18.4069 38.9957 18.4239 38.999 18.4399 39.0053L19.8545 39.5687H2.67773L3.62428 39.0144C3.64509 39.0022 3.66883 38.9957 3.69298 38.9957H18.3897Z" fill="url(#paint21_linear_2585_154907)"/>
<path d="M12.9687 38.0588L12.9836 38.0591C13.1343 38.0646 13.2396 38.1532 13.2819 38.1917C13.3388 38.2436 13.3886 38.3064 13.4296 38.3641C13.513 38.4814 13.5954 38.6286 13.6652 38.7637C13.7363 38.9013 13.8002 39.0376 13.8459 39.1387L14.015 39.5688H13.3063L12.8634 38.7329H7.85446L7.4116 39.5688H6.70288L6.87201 39.1387C6.91773 39.0376 6.98153 38.9013 7.05264 38.7637C7.12248 38.6286 7.20489 38.4814 7.28829 38.3641C7.32927 38.3064 7.37904 38.2436 7.436 38.1917C7.4783 38.1532 7.58357 38.0646 7.73432 38.0591L7.74913 38.0588H12.9687Z" fill="url(#paint22_linear_2585_154907)"/>
<path d="M20.1084 44.2406C20.1084 44.2869 20.0845 44.3298 20.0456 44.3544H2.55419C2.52335 44.3289 2.50514 44.2911 2.50513 44.2508V44.2196H20.1084V44.2406Z" fill="#111111"/>
<path d="M20.0233 39.6359C20.0557 39.6488 20.0811 39.6734 20.0954 39.7035H2.51233C2.52263 39.6734 2.54353 39.6473 2.57191 39.6307L2.67776 39.5687H19.8545L20.0233 39.6359Z" fill="#111111"/>
<path d="M11.1036 39.0025H11.0359V38.7329H11.1036V39.0025Z" fill="#111111"/>
<path d="M12.864 39.0025H12.7963V38.7329H12.864V39.0025Z" fill="#111111"/>
<path d="M12.0515 38.7329H11.8484V38.0588H12.0515V38.7329Z" fill="#111111"/>
<path d="M20.176 14.5955C20.176 14.4466 20.2972 14.3259 20.4468 14.3259H20.8901C20.9072 13.6047 20.8779 12.8826 20.8019 12.1642L20.7559 11.729C20.7341 11.5232 20.5598 11.3669 20.3519 11.3669H19.1152L20.0377 11.8678C20.0812 11.8914 20.1083 11.9368 20.1083 11.9861V16.4657C20.1083 16.4738 20.1075 16.4818 20.1061 16.4896H20.176V14.5955Z" fill="url(#paint23_linear_2585_154907)"/>
<rect width="2.7759" height="7.01" transform="matrix(1 0 0 -1 10.562 24.2343)" fill="url(#paint24_linear_2585_154907)"/>
<path d="M11.1035 17.4938H12.7961V17.2242H11.1035V17.4938Z" fill="#444444"/>
<path d="M2.78714 11.7079C2.61035 11.8322 2.50513 12.0347 2.50513 12.2508V16.1766C2.50513 16.4122 2.63005 16.6301 2.83334 16.7492L3.5008 17.1401C3.6025 17.1996 3.71823 17.231 3.83609 17.231H18.2885C18.3726 17.231 18.4559 17.215 18.534 17.1839L19.6903 16.7234C19.9427 16.6229 20.1084 16.3787 20.1084 16.107V12.3008C20.1084 12.0576 19.9753 11.8338 19.7615 11.7177L18.767 11.1777C18.6698 11.1249 18.5609 11.0973 18.4503 11.0973H3.86593C3.72938 11.0973 3.59616 11.1394 3.48444 11.2179L2.78714 11.7079Z" fill="url(#paint25_linear_2585_154907)"/>
<path d="M20.0378 11.8678L18.6492 11.1137C18.6293 11.103 18.607 11.0973 18.5844 11.0973H3.6991C3.67113 11.0973 3.64386 11.1059 3.62101 11.122L2.56246 11.8659C2.55957 11.8679 2.5569 11.8702 2.5542 11.8724H20.0456C20.0431 11.8708 20.0405 11.8693 20.0378 11.8678Z" fill="url(#paint26_linear_2585_154907)"/>
<path d="M18.3897 17.231C18.4069 17.231 18.4239 17.2278 18.4399 17.2214L19.8545 16.6581H2.67773L3.62428 17.2124C3.64509 17.2246 3.66883 17.231 3.69298 17.231H18.3897Z" fill="url(#paint27_linear_2585_154907)"/>
<path d="M12.9687 18.1679L12.9836 18.1676C13.1343 18.1621 13.2396 18.0735 13.2819 18.035C13.3388 17.9831 13.3886 17.9203 13.4296 17.8627C13.513 17.7453 13.5954 17.5982 13.6652 17.4631C13.7363 17.3255 13.8002 17.1892 13.8459 17.0881L14.015 16.658H13.3063L12.8634 17.4939H7.85446L7.4116 16.658H6.70288L6.87201 17.0881C6.91773 17.1892 6.98153 17.3255 7.05264 17.4631C7.12248 17.5982 7.20489 17.7453 7.28829 17.8627C7.32927 17.9203 7.37904 17.9831 7.436 18.035C7.4783 18.0735 7.58357 18.1621 7.73432 18.1676L7.74913 18.1679H12.9687Z" fill="url(#paint28_linear_2585_154907)"/>
<path d="M20.1084 11.9861C20.1084 11.9398 20.0845 11.897 20.0456 11.8724H2.55419C2.52335 11.8978 2.50514 11.9356 2.50513 11.9759V12.0072H20.1084V11.9861Z" fill="#111111"/>
<path d="M20.0233 16.5908C20.0557 16.5779 20.0811 16.5534 20.0954 16.5232H2.51233C2.52263 16.5534 2.54353 16.5794 2.57191 16.596L2.67776 16.658H19.8545L20.0233 16.5908Z" fill="#111111"/>
<path d="M11.1036 17.2243H11.0359V17.4939H11.1036V17.2243Z" fill="#111111"/>
<path d="M12.864 17.2243H12.7963V17.4939H12.864V17.2243Z" fill="#111111"/>
<path d="M12.0515 17.4939H11.8484V18.1679H12.0515V17.4939Z" fill="#111111"/>
<path d="M6.36431 30.9747H2.84366V25.3127H6.36431V22.0099H2.70825V34.3448H6.36431V30.9747Z" fill="url(#paint29_linear_2585_154907)"/>
<path fill-rule="evenodd" clip-rule="evenodd" d="M2.70829 31.7835H2.03124V24.5039H2.70829V22.0099H0.338623V34.3448H2.70829V31.7835ZM1.69272 31.1769V25.1105H1.89583V31.1769H1.69272Z" fill="url(#paint30_linear_2585_154907)"/>
<path d="M2.03125 24.5039H2.6406V24.3017H0.541748V25.2453H1.69273V25.1105H1.89584V25.2453H2.03125V24.5039Z" fill="#666666"/>
<path d="M2.57289 31.7835H2.03125V31.0421H1.89584V31.1769H1.69273V31.0421H0.541748V32.1205H2.57289V31.7835Z" fill="#666666"/>
<path d="M1.69272 25.2453H1.4896V24.3017H2.64059V24.2343H0.338623V24.3017H1.3542V25.2453H0.338623V25.3128H1.69272V25.2453Z" fill="#111111"/>
<path d="M2.03124 25.2453H1.89583V25.3128H2.03124V25.2453Z" fill="#111111"/>
<path d="M2.70829 32.0531H1.4896V31.1095H1.69272V31.0421H0.338623V31.1095H1.3542V32.0531H0.338623V32.1205H2.70829V32.0531Z" fill="#111111"/>
<path d="M2.03124 31.0421H1.89583V31.1095H2.03124V31.0421Z" fill="#111111"/>
<path d="M75.6262 30.9073L75.8801 31.1769H76.0494L76.3033 30.9073V25.4475L76.0494 25.1779H75.8801L75.6262 25.4475V30.9073Z" fill="url(#paint31_linear_2585_154907)"/>
<path d="M80.0947 31.0913L80.3994 31.3791H80.6025L80.9072 31.0913V25.2635L80.6025 24.9757H80.3994L80.0947 25.2635V31.0913Z" fill="url(#paint32_linear_2585_154907)"/>
<path d="M81.0426 30.8061H80.1962L80.0947 30.6963L79.9254 30.6713H77.7589L77.2172 30.8061H76.2694L76.2355 30.8008L75.6262 30.7037L75.4231 30.6713H74.7122V30.2669H73.3242L72.444 30.5702H71.0222L70.4129 30.9072H68.4495L67.8401 30.705L66.7568 30.687V25.5823H67.8401L68.4495 25.3801H70.4129L71.0222 25.6497H73.6627L73.8658 26.0204H75.6262L76.2694 25.4812H77.5558L78.2328 25.953H80.0322L80.9071 25.4812H81.0426V30.8061Z" fill="url(#paint33_linear_2585_154907)"/>
<path d="M71.9026 30.5703H72.4442L72.5796 30.5234V25.6498H71.9026V30.5703Z" fill="url(#paint34_linear_2585_154907)"/>
<path fill-rule="evenodd" clip-rule="evenodd" d="M66.8247 28.8178H70.5485C70.5859 28.8178 70.6162 28.8479 70.6162 28.8852V29.0874C70.6162 29.1246 70.5859 29.1548 70.5485 29.1548H66.8247V28.8178Z" fill="url(#paint35_linear_2585_154907)"/>
<path fill-rule="evenodd" clip-rule="evenodd" d="M66.8247 27.1326H70.5485C70.5859 27.1326 70.6162 27.1628 70.6162 27.2V27.4023C70.6162 27.4395 70.5859 27.4697 70.5485 27.4697H66.8247V27.1326Z" fill="url(#paint36_linear_2585_154907)"/>
<path d="M68.1111 30.7239V29.2222H68.5173V30.8398H68.4605L68.1111 30.7239Z" fill="url(#paint37_linear_2585_154907)"/>
<path d="M68.1111 25.5635L68.4605 25.4476H68.5173V27.0652H68.1111V25.5635Z" fill="url(#paint38_linear_2585_154907)"/>
<path fill-rule="evenodd" clip-rule="evenodd" d="M70.5621 27.5363C70.6304 27.5294 70.6837 27.472 70.6837 27.4022V27.2C70.6837 27.1256 70.6231 27.0652 70.5483 27.0652H68.5849V25.3801H68.4495L68.0432 25.5149V27.0652H66.7568V27.537H70.5483L70.5621 27.5363ZM68.1109 25.5635L68.4604 25.4475H68.5172V27.0652H68.1109V25.5635ZM66.8245 27.1326H70.5483C70.5857 27.1326 70.616 27.1628 70.616 27.2V27.4022C70.616 27.4394 70.5857 27.4696 70.5483 27.4696H66.8245V27.1326Z" fill="#111111"/>
<path fill-rule="evenodd" clip-rule="evenodd" d="M68.5849 29.2221H70.5483L70.5621 29.2214C70.6304 29.2145 70.6837 29.1571 70.6837 29.0873V28.8851C70.6837 28.8107 70.6231 28.7503 70.5483 28.7503H66.7568V29.2221H68.0432V30.7724L68.4495 30.9072H68.5849V29.2221ZM66.8245 28.8177H70.5483C70.5857 28.8177 70.616 28.8479 70.616 28.8851V29.0873C70.616 29.1245 70.5857 29.1547 70.5483 29.1547H66.8245V28.8177ZM68.1109 30.7239V29.2221H68.5172V30.8398H68.4604L68.1109 30.7239Z" fill="#111111"/>
<path d="M73.5273 30.2669H74.069V26.0205H73.8659L73.6628 25.6497H73.5273V30.2669Z" fill="url(#paint39_linear_2585_154907)"/>
<path d="M72.5796 30.5234L73.3243 30.2669H73.5275V25.6498H72.5796V30.5234Z" fill="url(#paint40_linear_2585_154907)"/>
<path d="M74.0691 30.2669H74.2722H74.7123V30.6713H74.9493V26.0205H74.7292H74.5092H74.0691V30.2669Z" fill="url(#paint41_linear_2585_154907)"/>
<path d="M72.6472 28.8177H73.5951V27.4697H72.6472V28.8177Z" fill="url(#paint42_linear_2585_154907)"/>
<path d="M73.6628 28.8177H74.0691V27.4697H73.6628V28.8177Z" fill="url(#paint43_linear_2585_154907)"/>
<path d="M74.1367 28.8177H75.4908V27.4697H74.1367V28.8177Z" fill="url(#paint44_linear_2585_154907)"/>
<path fill-rule="evenodd" clip-rule="evenodd" d="M75.5586 28.8851V27.4022H72.5796V28.8851H75.5586ZM72.6473 27.4697H73.5952V28.8177H72.6473V27.4697ZM73.6629 27.4697H74.0691V28.8177H73.6629V27.4697ZM74.1368 27.4697H75.4909V28.8177H74.1368V27.4697Z" fill="#222222"/>
<path d="M72.8843 27.7392C72.9404 27.7392 72.9859 27.694 72.9859 27.6381C72.9859 27.5823 72.9404 27.537 72.8843 27.537H72.4104C72.3543 27.537 72.3088 27.5823 72.3088 27.6381C72.3088 27.694 72.3543 27.7392 72.4104 27.7392H72.8843Z" fill="#111111"/>
<path d="M74.2384 27.7392C74.2945 27.7392 74.34 27.694 74.34 27.6381C74.34 27.5823 74.2945 27.537 74.2384 27.537H74.0353C73.9792 27.537 73.9338 27.5823 73.9338 27.6381C73.9338 27.694 73.9792 27.7392 74.0353 27.7392H74.2384Z" fill="#111111"/>
<path d="M75.8633 27.7392C75.9194 27.7392 75.9649 27.694 75.9649 27.6381C75.9649 27.5823 75.9194 27.537 75.8633 27.537H74.8478C74.7917 27.537 74.7462 27.5823 74.7462 27.6381C74.7462 27.694 74.7917 27.7392 74.8478 27.7392H75.8633Z" fill="#111111"/>
<path d="M72.8843 28.7503C72.9404 28.7503 72.9859 28.705 72.9859 28.6492C72.9859 28.5934 72.9404 28.5481 72.8843 28.5481H72.4104C72.3543 28.5481 72.3088 28.5934 72.3088 28.6492C72.3088 28.705 72.3543 28.7503 72.4104 28.7503H72.8843Z" fill="#111111"/>
<path d="M74.2384 28.7503C74.2945 28.7503 74.34 28.705 74.34 28.6492C74.34 28.5934 74.2945 28.5481 74.2384 28.5481H74.0353C73.9792 28.5481 73.9338 28.5934 73.9338 28.6492C73.9338 28.705 73.9792 28.7503 74.0353 28.7503H74.2384Z" fill="#111111"/>
<path d="M75.8633 28.7503C75.9194 28.7503 75.9649 28.705 75.9649 28.6492C75.9649 28.5934 75.9194 28.5481 75.8633 28.5481H74.8478C74.7917 28.5481 74.7462 28.5934 74.7462 28.6492C74.7462 28.705 74.7917 28.7503 74.8478 28.7503H75.8633Z" fill="#111111"/>
<path d="M83.6155 32.9294H98.9168L99.6615 32.685L100 32.4407V32.1205L99.6615 31.8846L98.9168 31.6487H83.6155V32.9294Z" fill="url(#paint45_linear_2585_154907)"/>
<path d="M83.6155 24.6387H98.9168L99.6615 24.3943L100 24.15V23.8298L99.6615 23.5939L98.9168 23.358H83.6155V24.6387Z" fill="url(#paint46_linear_2585_154907)"/>
<rect width="2.36967" height="17.5924" transform="matrix(1 0 0 -1 81.3135 36.9736)" fill="url(#paint47_linear_2585_154907)"/>
<path d="M83.683 19.3812H82.5998V23.3074L82.2612 23.6613V24.7061L82.5998 25.1105V27.6718L82.769 27.8066V28.6155L82.5998 28.7503V31.3116L82.2612 31.7161V32.7608L82.5998 33.1147V36.9736H83.683V19.3812Z" fill="url(#paint48_linear_2585_154907)"/>
<rect width="0.880162" height="1.28067" transform="matrix(1 0 0 -1 82.7354 35.9625)" fill="url(#paint49_linear_2585_154907)"/>
<rect width="0.880162" height="1.28067" transform="matrix(1 0 0 -1 82.7354 21.5381)" fill="url(#paint50_linear_2585_154907)"/>
<rect width="0.947867" height="0.471827" transform="matrix(1 0 0 -1 82.4644 37.4454)" fill="url(#paint51_linear_2585_154907)"/>
<rect width="1.21869" height="0.202212" transform="matrix(1 0 0 -1 82.3291 37.3106)" fill="#222222"/>
<rect x="82.4644" y="18.9094" width="0.947867" height="0.471827" fill="url(#paint52_linear_2585_154907)"/>
<rect x="82.3291" y="19.0442" width="1.21869" height="0.202212" fill="#222222"/>
<path d="M82.2952 28.5465C82.4662 28.5296 82.5998 28.3859 82.5998 28.2111C82.5998 28.0364 82.4662 27.8927 82.2952 27.8758V28.5465Z" fill="#555555"/>
<path d="M81.0764 26.6271H82.2951V29.5929H81.0764V26.6271Z" fill="url(#paint53_linear_2585_154907)"/>
<path d="M81.0764 29.6603H82.0243V30.1321H81.0764V29.6603Z" fill="url(#paint54_linear_2585_154907)"/>
<path d="M81.0764 25.9531H82.0243V26.5597H81.0764V25.9531Z" fill="url(#paint55_linear_2585_154907)"/>
<path d="M81.0764 30.1995H81.8212V30.4691H81.0764V30.1995Z" fill="url(#paint56_linear_2585_154907)"/>
<path d="M81.0764 25.6161H81.8212V25.8857H81.0764V25.6161Z" fill="url(#paint57_linear_2585_154907)"/>
<path d="M81.0764 30.7481V30.5365H81.8212V30.9953L81.0764 30.7481Z" fill="url(#paint58_linear_2585_154907)"/>
<path d="M81.0764 25.337L81.8212 25.0896V25.5486H81.0764V25.337Z" fill="url(#paint59_linear_2585_154907)"/>
<path fill-rule="evenodd" clip-rule="evenodd" d="M81.889 30.1995H82.0921V29.6603H82.3629V28.6026C82.5381 28.5577 82.6676 28.3995 82.6676 28.2111C82.6676 28.0227 82.5381 27.8647 82.3629 27.8198V26.5597H82.0921V25.8857H81.889V24.9964L81.0088 25.2885V30.7967L81.889 31.0888V30.1995ZM81.0765 25.5487V25.337L81.8212 25.0899V25.5487H81.0765ZM81.0765 25.6161H81.8212V25.8857H81.0765V25.6161ZM81.0765 25.9531H82.0244V26.5597H81.0765V25.9531ZM81.0765 26.6271H82.2952V29.5929H81.0765V26.6271ZM82.3629 27.8897C82.5002 27.9326 82.5999 28.0602 82.5999 28.2111C82.5999 28.362 82.5002 28.4897 82.3629 28.5327V27.8897ZM81.0765 29.6603H82.0244V30.1321H81.0765V29.6603ZM81.0765 30.1995H81.8212V30.4691H81.0765V30.1995ZM81.0765 30.7482V30.5365H81.8212V30.9953L81.0765 30.7482Z" fill="#222222"/>
<ellipse cx="1.01557" cy="1.01106" rx="1.01557" ry="1.01106" transform="matrix(1 0 0 -1 29.8579 20.3923)" fill="url(#paint60_radial_2585_154907)"/>
<path d="M40.0134 23.358C40.0134 23.3952 40.0437 23.4254 40.0811 23.4254H45.6329C45.6703 23.4254 45.7006 23.3952 45.7006 23.358V14.7303C45.7006 14.6931 45.6703 14.6629 45.6329 14.6629H40.0811C40.0437 14.6629 40.0134 14.6931 40.0134 14.7303V23.358Z" fill="url(#paint61_linear_2585_154907)"/>
<path d="M45.6329 23.4254C45.6703 23.4254 45.7006 23.3952 45.7006 23.358V14.7303C45.7006 14.6931 45.6703 14.6629 45.6329 14.6629H40.0811C40.0437 14.6629 40.0134 14.6931 40.0134 14.7303V23.358C40.0134 23.3952 40.0437 23.4254 40.0811 23.4254H45.6329ZM40.2504 23.2232V14.8651H45.5652V23.2232H40.2504Z" fill="url(#paint62_linear_2585_154907)"/>
<path d="M32.1597 23.6276C32.1597 23.6648 32.19 23.695 32.2274 23.695H37.3052C37.3426 23.695 37.3729 23.6648 37.3729 23.6276V14.7303C37.3729 14.6931 37.3426 14.6629 37.3052 14.6629H32.2274C32.19 14.6629 32.1597 14.6931 32.1597 14.7303V23.6276Z" fill="url(#paint63_linear_2585_154907)"/>
<path d="M32.3628 14.8651H37.1698V23.4928H32.3628V14.8651ZM37.3729 14.7303C37.3729 14.6931 37.3426 14.6629 37.3052 14.6629H32.2274C32.19 14.6629 32.1597 14.6931 32.1597 14.7303V23.6276C32.1597 23.6625 32.1863 23.6912 32.2204 23.6947L32.2274 23.695H37.3052L37.3122 23.6947C37.3463 23.6912 37.3729 23.6625 37.3729 23.6276V14.7303Z" fill="url(#paint64_linear_2585_154907)"/>
<rect width="24.5091" height="0.0674039" transform="matrix(1 0 0 -1 21.9363 24.1669)" fill="#333333"/>
<path d="M21.9363 14.3259H46.378C46.4152 14.3259 46.4454 14.2957 46.4454 14.2585H21.9363V14.3259Z" fill="#333333"/>
<path d="M2.03114 24.5039H2.70819V24.9083H22.2072C21.9828 24.9083 21.8009 24.7273 21.8009 24.5039H20.0948L20.0406 24.2343H1.08328L0 24.4365V24.7061L1.08328 24.9083H2.03114V24.5039Z" fill="url(#paint65_linear_2585_154907)"/>
<path d="M26.0663 25.3127V25.0431H26.608V25.3127H41.503V25.1105H47.0548V24.9757H49.6953V25.3127H62.2884V24.9757H73.1212L73.392 24.8072V24.7061L73.1212 24.5713H47.0548V24.6387H46.6254C46.6084 24.6867 46.5825 24.7305 46.5497 24.7682L46.5471 24.7735L46.5422 24.7767C46.4679 24.8576 46.3611 24.9083 46.2424 24.9083H25.5924V25.3127H26.0663Z" fill="url(#paint66_linear_2585_154907)"/>
<path d="M20.0948 31.7835L21.1068 31.7458C21.1804 31.6901 21.2638 31.6466 21.3541 31.6183L21.3609 31.615L21.3704 31.6137C21.4426 31.5927 21.5189 31.5813 21.5978 31.5813H49.4245L73.1212 31.7161L73.392 31.5813V31.4802L73.1212 31.3117H47.0548V31.1769H41.503V30.9746H26.608V31.2443H26.0663V30.9746H25.5924V31.3791H2.70819V31.7835H2.03114V31.3791H1.08328L0 31.5813V31.8509L1.08328 32.0531H20.0406L20.0948 31.7835Z" fill="url(#paint67_linear_2585_154907)"/>
<path d="M62.2884 30.9746H49.6953V31.1769H62.2884V30.9746Z" fill="url(#paint68_linear_2585_154907)"/>
<path opacity="0.2" d="M49.3568 43.3096C49.8055 43.3096 50.1693 42.9474 50.1693 42.5007V32.3901C50.1693 31.9434 49.8055 31.5813 49.3568 31.5813H21.5979C21.1492 31.5813 20.7854 31.9434 20.7854 32.3901V42.5007C20.7854 42.9474 21.1492 43.3096 21.5979 43.3096H49.3568Z" fill="url(#paint69_radial_2585_154907)"/>
<path opacity="0.2" d="M66.7568 31.3117H62.6268V30.9747H2.84351V25.3128H62.6268V24.9757H66.7568V31.3117Z" fill="url(#paint70_linear_2585_154907)"/>
<path opacity="0.3" d="M2.03125 24.5039H2.7083V31.7835H2.03125V24.5039Z" fill="white"/>
<g opacity="0.2">
<path d="M46.4455 14.2717C46.5669 14.2018 46.6486 14.0712 46.6486 13.9215C46.6486 13.6981 46.4667 13.5171 46.2424 13.5171H22.2072C21.9828 13.5171 21.8009 13.6981 21.8009 13.9215C21.8009 14.0622 21.8731 14.1861 21.9826 14.2585H46.4455V14.2717Z" fill="url(#paint71_linear_2585_154907)"/>
<path fill-rule="evenodd" clip-rule="evenodd" d="M46.0393 24.0995C46.1888 24.0995 46.3101 23.9788 46.3101 23.8299V14.5955C46.3101 14.4466 46.1888 14.3259 46.0393 14.3259H20.4468C20.2973 14.3259 20.176 14.4466 20.176 14.5955V23.8299C20.176 23.9788 20.2973 24.0995 20.4468 24.0995H46.0393ZM32.2275 23.6951C32.1901 23.6951 32.1598 23.6649 32.1598 23.6277V14.7303C32.1598 14.6931 32.1901 14.6629 32.2275 14.6629H37.3053C37.3427 14.6629 37.373 14.6931 37.373 14.7303V23.6277C37.373 23.6649 37.3427 23.6951 37.3053 23.6951H32.2275ZM40.0812 23.4254C40.0438 23.4254 40.0135 23.3953 40.0135 23.358V14.7303C40.0135 14.6931 40.0438 14.6629 40.0812 14.6629H45.633C45.6704 14.6629 45.7007 14.6931 45.7007 14.7303V23.358C45.7007 23.3953 45.6704 23.4254 45.633 23.4254H40.0812ZM30.8734 20.3923C30.3125 20.3923 29.8578 19.9396 29.8578 19.3812C29.8578 18.8228 30.3125 18.3701 30.8734 18.3701C31.4343 18.3701 31.889 18.8228 31.889 19.3812C31.889 19.9396 31.4343 20.3923 30.8734 20.3923Z" fill="url(#paint72_linear_2585_154907)"/>
<path d="M46.2424 24.9083C46.4667 24.9083 46.6486 24.7273 46.6486 24.5039C46.6486 24.3542 46.5669 24.2237 46.4455 24.1537V24.1669H21.9826C21.8731 24.2393 21.8009 24.3632 21.8009 24.5039C21.8009 24.7273 21.9828 24.9083 22.2072 24.9083H46.2424Z" fill="url(#paint73_linear_2585_154907)"/>
</g>
<defs>
<linearGradient id="paint0_linear_2585_154907" x1="20.6161" y1="24.7398" x2="20.6161" y2="22.1111" gradientUnits="userSpaceOnUse">
<stop stop-color="#333333"/>
<stop offset="1" stop-color="#444444"/>
</linearGradient>
<linearGradient id="paint1_linear_2585_154907" x1="71.7333" y1="37.6477" x2="75.316" y2="35.9841" gradientUnits="userSpaceOnUse">
<stop stop-color="#222222"/>
<stop offset="0.2" stop-color="#444444"/>
<stop offset="0.8" stop-color="#444444"/>
<stop offset="1" stop-color="#222222"/>
</linearGradient>
<linearGradient id="paint2_linear_2585_154907" x1="78.3344" y1="47.5897" x2="76.3184" y2="42.9996" gradientUnits="userSpaceOnUse">
<stop stop-color="#222222"/>
<stop offset="0.05" stop-color="#555555"/>
<stop offset="0.95" stop-color="#444444"/>
<stop offset="1" stop-color="#222222"/>
</linearGradient>
<linearGradient id="paint3_linear_2585_154907" x1="71.7333" y1="18.3027" x2="75.316" y2="19.9663" gradientUnits="userSpaceOnUse">
<stop stop-color="#222222"/>
<stop offset="0.2" stop-color="#444444"/>
<stop offset="0.8" stop-color="#444444"/>
<stop offset="1" stop-color="#222222"/>
</linearGradient>
<linearGradient id="paint4_linear_2585_154907" x1="78.3344" y1="8.36065" x2="76.3184" y2="12.9507" gradientUnits="userSpaceOnUse">
<stop stop-color="#222222"/>
<stop offset="0.05" stop-color="#555555"/>
<stop offset="0.95" stop-color="#444444"/>
<stop offset="1" stop-color="#222222"/>
</linearGradient>
<linearGradient id="paint5_linear_2585_154907" x1="2.7759" y1="3.67351" x2="0" y2="3.67351" gradientUnits="userSpaceOnUse">
<stop stop-color="#222222"/>
<stop offset="0.5" stop-color="#444444"/>
<stop offset="1" stop-color="#222222"/>
</linearGradient>
<linearGradient id="paint6_linear_2585_154907" x1="67.5016" y1="13.9282" x2="62.4915" y2="13.9282" gradientUnits="userSpaceOnUse">
<stop/>
<stop offset="1" stop-color="#666666"/>
</linearGradient>
<linearGradient id="paint7_linear_2585_154907" x1="49.0183" y1="14.1641" x2="66.6216" y2="14.1641" gradientUnits="userSpaceOnUse">
<stop stop-color="#010101"/>
<stop offset="0.3" stop-color="#444444"/>
<stop offset="0.5" stop-color="#666666"/>
<stop offset="0.7" stop-color="#444444"/>
<stop offset="1" stop-color="#010101"/>
</linearGradient>
<linearGradient id="paint8_linear_2585_154907" x1="49.0183" y1="11.5017" x2="66.6216" y2="11.5017" gradientUnits="userSpaceOnUse">
<stop stop-color="#010101"/>
<stop offset="0.5" stop-color="#444444"/>
<stop offset="1" stop-color="#010101"/>
</linearGradient>
<linearGradient id="paint9_linear_2585_154907" x1="49.0183" y1="16.9277" x2="66.6215" y2="16.9277" gradientUnits="userSpaceOnUse">
<stop stop-color="#010101"/>
<stop offset="0.5" stop-color="#444444"/>
<stop offset="1" stop-color="#010101"/>
</linearGradient>
<linearGradient id="paint10_linear_2585_154907" x1="56.8721" y1="18.1679" x2="56.8721" y2="16.7928" gradientUnits="userSpaceOnUse">
<stop stop-color="#222222"/>
<stop offset="0.25" stop-color="#444444"/>
<stop offset="0.5" stop-color="#222222"/>
</linearGradient>
<linearGradient id="paint11_linear_2585_154907" x1="59.8511" y1="35.3289" x2="57.0752" y2="35.3289" gradientUnits="userSpaceOnUse">
<stop stop-color="#222222"/>
<stop offset="0.5" stop-color="#444444"/>
<stop offset="1" stop-color="#222222"/>
</linearGradient>
<linearGradient id="paint12_linear_2585_154907" x1="67.5016" y1="42.2985" x2="62.4915" y2="42.2985" gradientUnits="userSpaceOnUse">
<stop/>
<stop offset="1" stop-color="#666666"/>
</linearGradient>
<linearGradient id="paint13_linear_2585_154907" x1="49.0183" y1="44.725" x2="66.6216" y2="44.725" gradientUnits="userSpaceOnUse">
<stop stop-color="#010101"/>
<stop offset="0.5" stop-color="#444444"/>
<stop offset="1" stop-color="#010101"/>
</linearGradient>
<linearGradient id="paint14_linear_2585_154907" x1="56.8721" y1="38.0588" x2="56.8721" y2="39.434" gradientUnits="userSpaceOnUse">
<stop stop-color="#222222"/>
<stop offset="0.25" stop-color="#444444"/>
<stop offset="0.5" stop-color="#222222"/>
</linearGradient>
<linearGradient id="paint15_linear_2585_154907" x1="49.0182" y1="39.299" x2="66.6215" y2="39.299" gradientUnits="userSpaceOnUse">
<stop stop-color="#010101"/>
<stop offset="0.5" stop-color="#444444"/>
<stop offset="1" stop-color="#010101"/>
</linearGradient>
<linearGradient id="paint16_linear_2585_154907" x1="49.0183" y1="42.0626" x2="66.6216" y2="42.0626" gradientUnits="userSpaceOnUse">
<stop stop-color="#010101"/>
<stop offset="0.3" stop-color="#444444"/>
<stop offset="0.5" stop-color="#666666"/>
<stop offset="0.7" stop-color="#444444"/>
<stop offset="1" stop-color="#010101"/>
</linearGradient>
<linearGradient id="paint17_linear_2585_154907" x1="20.9884" y1="42.2985" x2="15.9783" y2="42.2985" gradientUnits="userSpaceOnUse">
<stop/>
<stop offset="1" stop-color="#666666"/>
</linearGradient>
<linearGradient id="paint18_linear_2585_154907" x1="13.3379" y1="35.329" x2="10.562" y2="35.329" gradientUnits="userSpaceOnUse">
<stop stop-color="#222222"/>
<stop offset="0.5" stop-color="#444444"/>
<stop offset="1" stop-color="#222222"/>
</linearGradient>
<linearGradient id="paint19_linear_2585_154907" x1="2.50513" y1="42.0626" x2="20.1084" y2="42.0626" gradientUnits="userSpaceOnUse">
<stop stop-color="#010101"/>
<stop offset="0.3" stop-color="#444444"/>
<stop offset="0.5" stop-color="#666666"/>
<stop offset="0.7" stop-color="#444444"/>
<stop offset="1" stop-color="#010101"/>
</linearGradient>
<linearGradient id="paint20_linear_2585_154907" x1="2.50514" y1="44.725" x2="20.1084" y2="44.725" gradientUnits="userSpaceOnUse">
<stop stop-color="#010101"/>
<stop offset="0.5" stop-color="#444444"/>
<stop offset="1" stop-color="#010101"/>
</linearGradient>
<linearGradient id="paint21_linear_2585_154907" x1="2.5051" y1="39.299" x2="20.1083" y2="39.299" gradientUnits="userSpaceOnUse">
<stop stop-color="#010101"/>
<stop offset="0.5" stop-color="#444444"/>
<stop offset="1" stop-color="#010101"/>
</linearGradient>
<linearGradient id="paint22_linear_2585_154907" x1="10.3589" y1="38.0588" x2="10.3589" y2="39.434" gradientUnits="userSpaceOnUse">
<stop stop-color="#222222"/>
<stop offset="0.25" stop-color="#444444"/>
<stop offset="0.5" stop-color="#222222"/>
</linearGradient>
<linearGradient id="paint23_linear_2585_154907" x1="20.9884" y1="13.9282" x2="15.9783" y2="13.9282" gradientUnits="userSpaceOnUse">
<stop/>
<stop offset="1" stop-color="#666666"/>
</linearGradient>
<linearGradient id="paint24_linear_2585_154907" x1="2.7759" y1="3.505" x2="0" y2="3.505" gradientUnits="userSpaceOnUse">
<stop stop-color="#222222"/>
<stop offset="0.5" stop-color="#444444"/>
<stop offset="1" stop-color="#222222"/>
</linearGradient>
<linearGradient id="paint25_linear_2585_154907" x1="2.50513" y1="14.1641" x2="20.1084" y2="14.1641" gradientUnits="userSpaceOnUse">
<stop stop-color="#010101"/>
<stop offset="0.3" stop-color="#444444"/>
<stop offset="0.5" stop-color="#666666"/>
<stop offset="0.7" stop-color="#444444"/>
<stop offset="1" stop-color="#010101"/>
</linearGradient>
<linearGradient id="paint26_linear_2585_154907" x1="2.50514" y1="11.5017" x2="20.1084" y2="11.5017" gradientUnits="userSpaceOnUse">
<stop stop-color="#010101"/>
<stop offset="0.5" stop-color="#444444"/>
<stop offset="1" stop-color="#010101"/>
</linearGradient>
<linearGradient id="paint27_linear_2585_154907" x1="2.5051" y1="16.9277" x2="20.1083" y2="16.9277" gradientUnits="userSpaceOnUse">
<stop stop-color="#010101"/>
<stop offset="0.5" stop-color="#444444"/>
<stop offset="1" stop-color="#010101"/>
</linearGradient>
<linearGradient id="paint28_linear_2585_154907" x1="10.3589" y1="18.1679" x2="10.3589" y2="16.7928" gradientUnits="userSpaceOnUse">
<stop stop-color="#222222"/>
<stop offset="0.25" stop-color="#444444"/>
<stop offset="0.5" stop-color="#222222"/>
</linearGradient>
<linearGradient id="paint29_linear_2585_154907" x1="6.36431" y1="28.1774" x2="2.70825" y2="28.1774" gradientUnits="userSpaceOnUse">
<stop stop-color="#010101"/>
<stop offset="0.05" stop-color="#222222"/>
<stop offset="1" stop-color="#444444"/>
</linearGradient>
<linearGradient id="paint30_linear_2585_154907" x1="2.70829" y1="28.1774" x2="0.338623" y2="28.1774" gradientUnits="userSpaceOnUse">
<stop stop-color="#010101"/>
<stop offset="0.05" stop-color="#555555"/>
<stop offset="0.5" stop-color="#444444"/>
<stop offset="0.9" stop-color="#555555"/>
<stop offset="1" stop-color="#010101"/>
</linearGradient>
<linearGradient id="paint31_linear_2585_154907" x1="76.3033" y1="28.1774" x2="75.6262" y2="28.1774" gradientUnits="userSpaceOnUse">
<stop stop-color="#222222"/>
<stop offset="0.5" stop-color="#444444"/>
<stop offset="1" stop-color="#222222"/>
</linearGradient>
<linearGradient id="paint32_linear_2585_154907" x1="80.9072" y1="28.1774" x2="80.0947" y2="28.1774" gradientUnits="userSpaceOnUse">
<stop stop-color="#222222"/>
<stop offset="0.5" stop-color="#444444"/>
<stop offset="1" stop-color="#222222"/>
</linearGradient>
<linearGradient id="paint33_linear_2585_154907" x1="66.6891" y1="28.1437" x2="81.0426" y2="28.1437" gradientUnits="userSpaceOnUse">
<stop stop-color="#222222"/>
<stop offset="0.5" stop-color="#444444"/>
</linearGradient>
<linearGradient id="paint34_linear_2585_154907" x1="72.5796" y1="28.11" x2="71.9026" y2="28.11" gradientUnits="userSpaceOnUse">
<stop stop-color="#111111"/>
<stop offset="0.5" stop-color="#333333"/>
<stop offset="1" stop-color="#111111"/>
</linearGradient>
<linearGradient id="paint35_linear_2585_154907" x1="68.7204" y1="29.1548" x2="68.7204" y2="28.8178" gradientUnits="userSpaceOnUse">
<stop stop-color="#333333"/>
<stop offset="0.5" stop-color="#555555"/>
<stop offset="1" stop-color="#333333"/>
</linearGradient>
<linearGradient id="paint36_linear_2585_154907" x1="68.7204" y1="27.4697" x2="68.7204" y2="27.1326" gradientUnits="userSpaceOnUse">
<stop stop-color="#333333"/>
<stop offset="0.5" stop-color="#555555"/>
<stop offset="1" stop-color="#333333"/>
</linearGradient>
<linearGradient id="paint37_linear_2585_154907" x1="68.5173" y1="30.031" x2="68.1111" y2="30.031" gradientUnits="userSpaceOnUse">
<stop stop-color="#222222"/>
<stop offset="0.5" stop-color="#444444"/>
<stop offset="1" stop-color="#222222"/>
</linearGradient>
<linearGradient id="paint38_linear_2585_154907" x1="68.5173" y1="26.2564" x2="68.1111" y2="26.2564" gradientUnits="userSpaceOnUse">
<stop stop-color="#222222"/>
<stop offset="0.5" stop-color="#444444"/>
<stop offset="1" stop-color="#222222"/>
</linearGradient>
<linearGradient id="paint39_linear_2585_154907" x1="74.069" y1="28.0089" x2="73.5273" y2="28.0089" gradientUnits="userSpaceOnUse">
<stop stop-color="#333333"/>
<stop offset="1" stop-color="#444444"/>
</linearGradient>
<linearGradient id="paint40_linear_2585_154907" x1="73.5275" y1="28.2448" x2="72.5796" y2="28.2448" gradientUnits="userSpaceOnUse">
<stop stop-color="#555555"/>
<stop offset="1" stop-color="#666666"/>
</linearGradient>
<linearGradient id="paint41_linear_2585_154907" x1="74.9493" y1="28.1437" x2="74.0691" y2="28.1437" gradientUnits="userSpaceOnUse">
<stop stop-color="#222222"/>
<stop offset="1" stop-color="#444444"/>
</linearGradient>
<linearGradient id="paint42_linear_2585_154907" x1="73.5951" y1="28.1437" x2="72.6472" y2="28.1437" gradientUnits="userSpaceOnUse">
<stop stop-color="#444444"/>
<stop offset="1" stop-color="#333333"/>
</linearGradient>
<linearGradient id="paint43_linear_2585_154907" x1="74.0691" y1="28.1437" x2="73.6628" y2="28.1437" gradientUnits="userSpaceOnUse">
<stop stop-color="#555555"/>
<stop offset="1" stop-color="#444444"/>
</linearGradient>
<linearGradient id="paint44_linear_2585_154907" x1="75.4908" y1="28.1437" x2="74.1367" y2="28.1437" gradientUnits="userSpaceOnUse">
<stop stop-color="#666666"/>
<stop offset="1" stop-color="#555555"/>
</linearGradient>
<linearGradient id="paint45_linear_2585_154907" x1="83.6155" y1="32.289" x2="100" y2="32.289" gradientUnits="userSpaceOnUse">
<stop stop-color="#222222"/>
<stop offset="0.5" stop-color="#555555"/>
</linearGradient>
<linearGradient id="paint46_linear_2585_154907" x1="83.6155" y1="23.9983" x2="100" y2="23.9983" gradientUnits="userSpaceOnUse">
<stop stop-color="#222222"/>
<stop offset="0.5" stop-color="#555555"/>
</linearGradient>
<linearGradient id="paint47_linear_2585_154907" x1="2.36967" y1="8.79621" x2="0" y2="8.79621" gradientUnits="userSpaceOnUse">
<stop stop-color="#333333"/>
<stop offset="1" stop-color="#555555"/>
</linearGradient>
<linearGradient id="paint48_linear_2585_154907" x1="83.683" y1="28.2111" x2="82.2612" y2="28.2111" gradientUnits="userSpaceOnUse">
<stop stop-color="#444444"/>
<stop offset="1" stop-color="#666666"/>
</linearGradient>
<linearGradient id="paint49_linear_2585_154907" x1="0.440081" y1="0" x2="0.440081" y2="1.28067" gradientUnits="userSpaceOnUse">
<stop stop-color="#111111"/>
<stop offset="0.1" stop-color="#222222"/>
<stop offset="0.9" stop-color="#222222"/>
<stop offset="1" stop-color="#111111"/>
</linearGradient>
<linearGradient id="paint50_linear_2585_154907" x1="0.440081" y1="0" x2="0.440081" y2="1.28067" gradientUnits="userSpaceOnUse">
<stop stop-color="#111111"/>
<stop offset="0.1" stop-color="#222222"/>
<stop offset="0.9" stop-color="#222222"/>
<stop offset="1" stop-color="#111111"/>
</linearGradient>
<linearGradient id="paint51_linear_2585_154907" x1="0.473934" y1="0" x2="0.473934" y2="0.471827" gradientUnits="userSpaceOnUse">
<stop stop-color="#444444"/>
<stop offset="1" stop-color="#222222"/>
</linearGradient>
<linearGradient id="paint52_linear_2585_154907" x1="82.9383" y1="18.9094" x2="82.9383" y2="19.3812" gradientUnits="userSpaceOnUse">
<stop stop-color="#444444"/>
<stop offset="1" stop-color="#222222"/>
</linearGradient>
<linearGradient id="paint53_linear_2585_154907" x1="81.0764" y1="28.11" x2="82.2951" y2="28.11" gradientUnits="userSpaceOnUse">
<stop stop-color="#444444"/>
<stop offset="1" stop-color="#555555"/>
</linearGradient>
<linearGradient id="paint54_linear_2585_154907" x1="81.5503" y1="30.1321" x2="81.5503" y2="29.6603" gradientUnits="userSpaceOnUse">
<stop stop-color="#444444"/>
<stop offset="1" stop-color="#333333"/>
</linearGradient>
<linearGradient id="paint55_linear_2585_154907" x1="81.5503" y1="26.5597" x2="81.5503" y2="25.9531" gradientUnits="userSpaceOnUse">
<stop stop-color="#333333"/>
<stop offset="1" stop-color="#444444"/>
</linearGradient>
<linearGradient id="paint56_linear_2585_154907" x1="81.4488" y1="30.4691" x2="81.4488" y2="30.1995" gradientUnits="userSpaceOnUse">
<stop stop-color="#444444"/>
<stop offset="1" stop-color="#333333"/>
</linearGradient>
<linearGradient id="paint57_linear_2585_154907" x1="81.4488" y1="25.8857" x2="81.4488" y2="25.6161" gradientUnits="userSpaceOnUse">
<stop stop-color="#333333"/>
<stop offset="1" stop-color="#444444"/>
</linearGradient>
<linearGradient id="paint58_linear_2585_154907" x1="81.4488" y1="30.9953" x2="81.4488" y2="30.5365" gradientUnits="userSpaceOnUse">
<stop stop-color="#333333"/>
<stop offset="1" stop-color="#222222"/>
</linearGradient>
<linearGradient id="paint59_linear_2585_154907" x1="81.4488" y1="25.5823" x2="81.4488" y2="25.0431" gradientUnits="userSpaceOnUse">
<stop stop-color="#222222"/>
<stop offset="1" stop-color="#333333"/>
</linearGradient>
<radialGradient id="paint60_radial_2585_154907" cx="0" cy="0" r="1" gradientUnits="userSpaceOnUse" gradientTransform="translate(1.01557 1.01106) rotate(90) scale(1.01106 1.01557)">
<stop stop-color="white"/>
<stop offset="0.25" stop-color="#F42122"/>
<stop offset="0.7" stop-color="#E40405"/>
<stop offset="0.85" stop-color="#9D0104"/>
</radialGradient>
<linearGradient id="paint61_linear_2585_154907" x1="45.7006" y1="19.0442" x2="40.0134" y2="19.0442" gradientUnits="userSpaceOnUse">
<stop stop-color="#CCCCCC"/>
<stop offset="1" stop-color="#F5F5F5"/>
</linearGradient>
<linearGradient id="paint62_linear_2585_154907" x1="45.7006" y1="19.0442" x2="40.0134" y2="19.0442" gradientUnits="userSpaceOnUse">
<stop stop-color="#111111"/>
<stop offset="1" stop-color="#333333"/>
</linearGradient>
<linearGradient id="paint63_linear_2585_154907" x1="32.1597" y1="19.1789" x2="37.3729" y2="19.1789" gradientUnits="userSpaceOnUse">
<stop stop-color="#F5F5F5"/>
<stop offset="1" stop-color="#DDDDDD"/>
</linearGradient>
<linearGradient id="paint64_linear_2585_154907" x1="37.3729" y1="19.1789" x2="32.1597" y2="19.1789" gradientUnits="userSpaceOnUse">
<stop stop-color="#222222"/>
<stop offset="1" stop-color="#333333"/>
</linearGradient>
<linearGradient id="paint65_linear_2585_154907" x1="36.696" y1="24.2343" x2="36.696" y2="25.7846" gradientUnits="userSpaceOnUse">
<stop stop-color="#222222"/>
<stop offset="0.5" stop-color="#444444"/>
<stop offset="1" stop-color="#222222"/>
</linearGradient>
<linearGradient id="paint66_linear_2585_154907" x1="36.696" y1="24.2343" x2="36.696" y2="25.7846" gradientUnits="userSpaceOnUse">
<stop stop-color="#222222"/>
<stop offset="0.5" stop-color="#444444"/>
<stop offset="1" stop-color="#222222"/>
</linearGradient>
<linearGradient id="paint67_linear_2585_154907" x1="36.696" y1="32.0531" x2="36.696" y2="30.5028" gradientUnits="userSpaceOnUse">
<stop stop-color="#222222"/>
<stop offset="0.5" stop-color="#444444"/>
<stop offset="1" stop-color="#222222"/>
</linearGradient>
<linearGradient id="paint68_linear_2585_154907" x1="36.696" y1="32.0531" x2="36.696" y2="30.5028" gradientUnits="userSpaceOnUse">
<stop stop-color="#222222"/>
<stop offset="0.5" stop-color="#444444"/>
<stop offset="1" stop-color="#222222"/>
</linearGradient>
<radialGradient id="paint69_radial_2585_154907" cx="0" cy="0" r="1" gradientUnits="userSpaceOnUse" gradientTransform="translate(35.4773 37.4454) scale(22.3426 9.3587)">
<stop stop-color="white"/>
<stop offset="1" stop-color="#444444"/>
</radialGradient>
<linearGradient id="paint70_linear_2585_154907" x1="2.84351" y1="28.1437" x2="66.7568" y2="28.1437" gradientUnits="userSpaceOnUse">
<stop stop-color="white"/>
<stop offset="0.93" stop-color="#444444"/>
<stop offset="0.94" stop-color="white"/>
</linearGradient>
<linearGradient id="paint71_linear_2585_154907" x1="20.176" y1="19.2127" x2="46.6486" y2="19.2127" gradientUnits="userSpaceOnUse">
<stop/>
<stop offset="0.0480769" stop-color="#444444"/>
<stop offset="0.1" stop-color="white"/>
<stop offset="0.7" stop-color="white"/>
<stop offset="0.75" stop-color="#444444"/>
<stop offset="1"/>
</linearGradient>
<linearGradient id="paint72_linear_2585_154907" x1="20.176" y1="19.2127" x2="46.6486" y2="19.2127" gradientUnits="userSpaceOnUse">
<stop/>
<stop offset="0.0480769" stop-color="#444444"/>
<stop offset="0.1" stop-color="white"/>
<stop offset="0.7" stop-color="white"/>
<stop offset="0.75" stop-color="#444444"/>
<stop offset="1"/>
</linearGradient>
<linearGradient id="paint73_linear_2585_154907" x1="20.176" y1="19.2127" x2="46.6486" y2="19.2127" gradientUnits="userSpaceOnUse">
<stop/>
<stop offset="0.0480769" stop-color="#444444"/>
<stop offset="0.1" stop-color="white"/>
<stop offset="0.7" stop-color="white"/>
<stop offset="0.75" stop-color="#444444"/>
<stop offset="1"/>
</linearGradient>
</defs>
</svg>
