<svg width="100" height="53" viewBox="0 0 100 53" fill="none" xmlns="http://www.w3.org/2000/svg">
<g clip-path="url(#clip0_6561_4405)">
<path d="M100 33.6936C100 33.8233 99.9512 33.9356 99.875 34.0228C99.8321 34.1564 99.7364 34.2687 99.6055 34.3268C99.8379 34.3771 100 34.5824 100 34.8166C100 34.9464 99.9512 35.0587 99.875 35.1458C99.8106 35.3452 99.629 35.4943 99.3946 35.4943H99.3751V35.5911H92.9114V35.3356C92.3139 34.7915 89.4237 32.1601 89.2128 31.9704C88.959 31.7574 88.8027 31.6606 88.5879 31.6606H88.0802V30.4717C87.9533 30.8222 87.7971 31.1475 87.6018 31.4456C87.2561 32.0207 86.7797 32.499 86.1157 32.8417C83.9618 33.5987 82.9737 34.0828 80.355 34.3016V37.508C80.355 38.0502 80.0426 38.573 80.0426 39.1345C80.0426 39.5024 80.1793 39.909 80.2574 40.1607H88.7715C89.0644 40.1607 89.2792 42.3487 89.2792 45.0594C89.2792 47.7701 89.0449 49.9581 88.7715 49.9581H88.7364C88.7227 49.9697 88.7071 49.9775 88.6934 49.9775H78.3827V50.0356C78.3827 50.446 78.1152 50.7946 77.7441 50.9262C77.6289 50.9766 77.5 51.0037 77.3673 51.0037H74.5279H72.9071H60.1632C59.8313 51.0037 58.4839 50.113 58.4839 45.0981C58.4839 40.6448 59.5462 39.4443 60.0168 39.2313C60.0929 39.1906 60.1574 39.1732 60.2023 39.1732H71.7296C71.8624 38.9234 72.0264 38.6349 72.2002 38.3813L72.1143 38.36V38.3542L72.0557 38.3406L72.6962 34.9425H72.827L72.9149 34.5262C71.8018 34.5068 70.6887 34.4681 69.6342 34.41C67.8182 34.3132 65.592 34.1196 63.3072 33.8872V34.0034C63.2877 34.2164 63.1119 34.3713 62.9167 34.3519H62.905C62.8835 34.3539 62.862 34.3539 62.8386 34.3519L57.4098 34.1777C57.195 34.1777 57.0388 34.0034 57.0583 33.7904L57.0857 33.3993L57.1618 33.4109L57.1755 33.2096C53.1723 32.7449 50.0478 32.3189 50.0478 32.3189L50.0439 32.315C49.9717 32.3053 49.9307 32.2995 49.9307 32.2995L49.917 32.286L49.9111 32.2995C49.9111 32.2995 49.9072 32.2995 49.9053 32.3034L49.9287 32.3305C49.9287 32.3305 49.2921 32.6616 48.8176 33.0024C48.7707 33.0392 48.7239 33.076 48.6809 33.1127V33.4225H51.8639C53.1528 33.4225 53.9143 34.6424 54.0315 35.3588C54.051 35.5137 54.0706 35.8235 54.0706 36.2688H54.4416L54.012 42.2906H53.9749V42.3293H53.6136C53.5394 42.7378 53.4808 43.0941 53.3871 43.4136C53.1332 44.3623 52.3912 45.0013 51.5515 45.4079L52.3521 46.4729L52.977 46.0469L53.4847 46.6665L53.4515 46.6878L53.4652 46.7052L52.8325 47.1273L52.8794 47.1893C52.8794 47.1893 53.5824 47.9831 53.6995 48.3123C53.7777 48.5253 53.5043 49.7258 53.309 50.5777L53.9143 50.752L53.8167 51.449L53.7679 51.4393L53.7581 51.5071L53.1157 51.3754L53.0942 51.449H53.0707C53.061 51.4858 53.0551 51.5071 53.0551 51.5071H52.7427L52.7778 51.3077L52.2525 51.2012L51.8835 52.6108C51.8522 52.7095 51.7897 52.7889 51.7038 52.8451C51.5749 52.9767 51.3484 53.0348 51.1219 52.9787L50.5556 52.8238L51.7077 48.2348L51.7487 48.2445L51.7663 48.1768L52.3717 48.3317C52.7232 48.4091 52.9184 48.7189 52.8403 49.0093L52.4888 50.3066L52.9341 50.4344L53.2699 48.5446L52.4498 47.5184L52.3756 47.4294L51.9225 47.7314L51.4148 47.1118L51.4812 47.0673L51.4538 47.0344L51.8346 46.7885L50.9032 45.6848C49.9111 46.0585 48.9328 46.1747 48.6223 46.1844C48.0072 46.2037 47.8373 45.7623 47.6186 44.7128L48.1536 47.7914L48.1087 47.7992L48.1146 47.8302L39.991 49.263L39.6688 47.4429H39.2685C39.2685 47.4429 39.1845 47.0654 39.0673 46.5794C38.9814 49.1197 38.7139 50.9669 38.4093 50.9669H21.713C21.713 50.9669 21.713 50.9727 21.713 50.9766C21.713 50.9804 21.713 50.9824 21.713 50.9863C21.713 51.2186 21.5177 51.3929 21.3029 51.3929H21.0939C21.1037 51.418 21.1076 51.4393 21.1076 51.4703C21.1076 51.509 21.1076 51.5478 21.0881 51.5671H21.7325C21.8497 51.5671 21.9473 51.6639 21.9473 51.7801C21.9473 51.8692 21.8887 51.9466 21.8087 51.9776C21.7794 51.997 21.7462 52.0125 21.713 52.0125H17.7879C17.6707 52.0125 17.5731 51.9157 17.5731 51.7995C17.5731 51.7065 17.6356 51.6291 17.7195 51.6C17.7508 51.5807 17.7879 51.5671 17.8269 51.5671H18.4264C18.4167 51.542 18.4128 51.5207 18.4128 51.4897C18.4128 51.451 18.4128 51.4122 18.4323 51.3929H18.2175C17.9832 51.3929 17.8074 51.2186 17.8074 50.9863C17.8074 50.9804 17.8074 50.9727 17.8074 50.9669H1.11113C1.09942 50.9669 1.08575 50.963 1.07403 50.9572C1.07012 50.9572 1.06817 50.9514 1.06427 50.9495C1.0545 50.9437 1.04669 50.9359 1.03693 50.9262C1.03302 50.9224 1.03107 50.9185 1.02716 50.9146C1.0174 50.903 1.00764 50.8914 0.999824 50.8759C0.997871 50.872 0.993966 50.8662 0.992013 50.8623C0.982249 50.8449 0.970533 50.8255 0.960769 50.8023C0.960769 50.8004 0.958816 50.7965 0.956863 50.7946C0.908044 50.6842 0.859224 50.5254 0.81431 50.3202L0.324162 49.5922L0.560448 48.3394C0.499912 47.561 0.456951 46.6529 0.439376 45.6654C0.439376 45.6654 0.439376 45.6616 0.439376 45.6596C0.437423 45.5086 0.43547 45.3556 0.433518 45.2007C0.433518 45.1717 0.433518 45.1427 0.433518 45.1136C0.433518 44.9606 0.431565 44.8077 0.431565 44.6528C0.431565 44.6044 0.431565 44.556 0.431565 44.5076H0.160128L0 42.1589L0.542873 41.0901C0.663946 39.4133 0.868988 38.3019 1.11113 38.3019H2.73194C3.53258 36.2107 4.70425 35.746 5.09481 35.7654L7.70763 35.8041L6.44223 35.0296L6.52229 34.9018L5.92279 34.592L5.75875 34.8941L4.54803 34.2939L4.33322 33.9841V33.5426L3.81378 33.5871C3.7923 33.622 3.76887 33.653 3.74739 33.6743C3.55211 33.8872 3.3373 33.9066 3.3373 33.9066L2.08752 33.9841C2.08752 33.9841 2.07971 33.9841 2.068 33.9841V34.1777H1.56027V34.5843H0.212853V34.1777H0.115214V33.6355H0.212853V32.8417H0.115214V32.3189H0.212853V32.1059H1.54074V32.1253H1.56027V32.2995H2.068V32.3189H2.08752L3.3373 32.2414C3.3373 32.2414 3.55211 32.2414 3.74739 32.4157C3.76692 32.4351 3.80597 32.4738 3.84503 32.5319L4.33322 32.4757V32.0478C4.33322 32.0478 4.34103 32.0381 4.35275 32.0246V31.9897C4.35275 31.9897 4.50897 31.7767 4.76283 31.7767C5.0167 31.7767 5.27056 31.8735 5.27056 31.8735L5.32914 32.3576L5.73923 32.3189C5.84858 32.3053 5.93646 32.3208 6.02043 32.3576C6.0712 32.3595 6.12002 32.3692 6.16688 32.3847C6.24304 32.3228 6.34459 32.2802 6.46175 32.2802H7.30145V32.2608H6.79373V31.7186H6.83278V31.6799H11.3242V30.8861L11.3632 30.8725V30.8667C11.3632 30.8667 11.4472 30.8183 11.785 30.6924H11.5195V30.2645C11.289 30.0999 10.9707 29.8908 10.6993 29.7824C10.6993 29.7824 10.6973 29.7824 10.6954 29.7824L10.0744 29.8811V29.5539C9.91232 29.5036 9.77758 29.4745 9.66432 29.4745C9.42998 29.4745 9.03943 29.8811 9.03943 29.8811H5.68064V30.1909H4.62614V28.9517H3.8255V28.6807H3.20061L1.97036 27.2479V26.9187H0.310492V26.8993H0.115214V26.0861H1.97036V25.7763L3.20061 24.3435H3.8255V24.0337H4.64567V23.6658H4.62614V22.8526H4.64567V22.8138H5.68064V23.1236H9.07848C9.07848 23.1236 9.46904 23.5303 9.70337 23.5303C9.81077 23.5303 9.9338 23.5128 10.0744 23.4664V23.143L10.1135 23.1488V23.1236L10.7383 23.2205C10.9981 23.1101 11.289 22.93 11.5195 22.7635V22.3298H11.5585V22.3104H11.8319C11.8065 22.3007 11.7811 22.293 11.7597 22.2833L11.3261 22.1362V21.3036H6.79568V20.7614H7.3034V20.7033H6.99096H6.42465C6.34068 20.7033 6.26062 20.6782 6.19032 20.6375C6.11221 20.6724 6.02628 20.6898 5.93646 20.684L5.31157 20.6123L5.25298 21.1099C5.25298 21.1099 4.97959 21.2068 4.74526 21.2068C4.55389 21.2068 4.41915 21.0867 4.36251 21.0267C4.33322 20.9976 4.31565 20.9744 4.31565 20.9744V20.4962L3.85089 20.4419C3.81378 20.5078 3.77668 20.5581 3.74934 20.5872C3.55406 20.7614 3.33926 20.7614 3.33926 20.7614L2.08948 20.684C2.08948 20.684 2.08167 20.684 2.06995 20.682L1.56223 20.684V20.9163H0.212853V20.684H0.115214V20.1612H0.212853V19.348H0.115214V18.8445H0.212853V18.4379H1.54074V18.4573H1.56027V18.8445H2.068V19.0382C2.07971 19.0382 2.08752 19.0382 2.08752 19.0382L3.3373 19.1156C3.3373 19.1156 3.45838 19.1272 3.60093 19.2221C3.6478 19.2531 3.69857 19.2957 3.74739 19.348C3.76301 19.3634 3.77863 19.3847 3.79425 19.408C3.80207 19.4177 3.80792 19.4254 3.81769 19.4351L4.33322 19.4796V19.0575L4.54803 18.7477L5.75875 18.1281L5.76266 18.1359L5.77828 18.1281L5.9345 18.4186L6.51253 18.1223L6.44223 18.0119L6.47347 17.9926L6.46175 17.9732L7.75254 17.189L5.09481 17.2181C4.7062 17.2181 3.53063 16.7534 2.7378 14.6816H1.11113C0.978344 14.6816 0.853366 14.3137 0.745963 13.6825L0.322209 13.0532L0.544826 11.8721C0.476479 10.9524 0.43547 9.86034 0.429612 8.69085C0.429612 8.62114 0.429612 8.55338 0.429612 8.48367C0.429612 8.44494 0.429612 8.40816 0.429612 8.36943C0.429612 8.36169 0.429612 8.35394 0.429612 8.34426C0.429612 8.33264 0.429612 8.32102 0.429612 8.31134C0.429612 8.19711 0.429612 8.08287 0.429612 7.97057H0.160128L0 5.62189L0.566307 4.50468C0.691285 2.97117 0.890468 1.97981 1.11113 1.97981H17.8074C17.8074 1.96626 17.8133 1.95271 17.8152 1.93915C17.8152 1.93721 17.8152 1.93334 17.8152 1.9314C17.8211 1.90817 17.8269 1.88493 17.8348 1.86364C17.8348 1.85976 17.8367 1.85783 17.8387 1.85396C17.9011 1.70293 18.0457 1.59256 18.2155 1.59256H18.4225C18.4147 1.57126 18.4108 1.54416 18.4108 1.51511C18.4108 1.51124 18.4108 1.5093 18.4108 1.50543C18.4108 1.50156 18.4108 1.49962 18.4108 1.49575C18.4108 1.46671 18.4128 1.4396 18.4225 1.4183H17.7859C17.6688 1.4183 17.5711 1.32149 17.5711 1.20531C17.5711 1.1085 17.6688 1.01169 17.7859 1.01169H21.711C21.8087 1.01169 21.9063 1.08914 21.9063 1.20531C21.9063 1.32149 21.8282 1.4183 21.711 1.4183H21.0666C21.0861 1.43766 21.0861 1.47639 21.0861 1.51511C21.0861 1.54609 21.0842 1.56739 21.0725 1.59256H21.2619C21.3283 1.59256 21.3888 1.60999 21.4435 1.63903C21.5841 1.69131 21.6915 1.8191 21.7071 1.97981H38.3683C38.6807 1.97981 38.9541 3.91606 39.0322 6.54936C39.1689 6.00721 39.2665 5.56187 39.2665 5.56187L39.6669 5.5793L39.9891 3.76116L40.0242 3.76697L40.0281 3.7418L48.1517 5.17462C48.1517 5.17462 47.4838 8.9503 47.5854 8.44688C47.8197 7.28513 47.9759 6.80107 48.6204 6.80107C48.9348 6.81075 49.917 6.92693 50.9149 7.30449L51.8464 6.19889L51.4128 5.9104L51.9206 5.2908L51.9323 5.29854L51.9401 5.2908L52.3736 5.57155L52.4478 5.48442L53.268 4.45821L52.938 2.53745V2.52196L52.4673 2.6575L52.8188 3.95478C52.897 4.24522 52.6821 4.55502 52.3502 4.63247L51.7448 4.78737L51.739 4.76027L51.7058 4.76801L50.5536 0.15974L51.1199 0.00483704C51.325 -0.0455055 51.528 -0.00484467 51.6608 0.10165C51.7604 0.159737 51.8366 0.244934 51.862 0.353363L52.2428 1.80361L52.7935 1.69131L52.7622 1.53448H52.7681L52.7622 1.49575H53.0747C53.0747 1.49575 53.0883 1.54416 53.1098 1.62741L53.7581 1.49575L53.764 1.54029L53.7972 1.53448L53.8948 2.25089L53.3051 2.42128C53.5121 3.27903 53.7718 4.45433 53.6995 4.6712C53.5824 5.01972 52.8794 5.79422 52.8794 5.79422L52.813 5.88329L53.4652 6.31701L53.4554 6.32862L53.4652 6.33637L52.9575 6.95597L52.3326 6.52999L51.7155 7.34903L51.5437 7.57944C52.0592 7.84277 52.5396 8.18936 52.8891 8.64244C53.1059 8.91545 53.2719 9.22719 53.3676 9.58733C53.4633 9.91068 53.5218 10.2728 53.598 10.691H53.9729V10.7104H53.9925L54.4025 16.7321H54.0315C54.0315 17.1774 54.012 17.5066 53.9925 17.6615C53.8948 18.3779 53.1137 19.5977 51.8249 19.5977H48.6418V19.8843C49.0754 20.2367 49.8037 20.6414 49.9209 20.7072L49.9268 20.7014C49.9268 20.7014 53.0883 20.2832 57.113 19.8165L57.1013 19.6403H57.0876L57.0583 19.2298C57.0388 19.0169 57.195 18.8426 57.4098 18.8426L62.8386 18.6683C63.0338 18.649 63.1959 18.769 63.2174 18.8368L63.1608 18.8445C63.2135 18.9026 63.2486 18.9762 63.2486 19.0556V19.1563C65.5197 18.9336 67.7264 18.7458 69.5327 18.649C70.6009 18.5928 71.7179 18.5599 72.8427 18.5464L72.7489 18.0933H72.706L72.1572 15.216L72.0557 14.7184H72.0635L72.0557 14.6797L72.1904 14.6487C72.0225 14.4047 71.8741 14.1278 71.7432 13.9052H60.1437C59.8117 13.9052 58.4643 13.0145 58.4643 7.98025C58.4643 5.91814 58.6909 4.55309 58.9799 3.6566C59.3997 2.31866 59.9641 1.99724 60.1632 1.99724H77.3673C77.5918 1.99724 77.7949 2.07663 77.959 2.20636C78.2245 2.37481 78.4022 2.66912 78.4022 3.00409V3.02345H88.6934C88.7188 3.02345 88.7442 3.04281 88.7695 3.08154C89.0625 3.08154 89.2773 5.2695 89.2773 7.98025C89.2773 10.691 89.0429 12.879 88.7695 12.879H80.2554C80.1578 13.1113 80.0406 13.5373 80.0406 13.9052C80.0406 14.4667 80.3531 14.9895 80.3531 15.5316V18.7264C82.9678 18.9491 83.9559 19.4215 86.1099 20.1786C86.3852 20.3219 86.6273 20.4865 86.8422 20.6724C87.4299 21.1487 87.8205 21.7663 88.0802 22.475V21.4565H88.5879C88.8027 21.4565 88.959 21.3597 89.2128 21.1467C89.4394 20.955 92.3158 18.3276 92.9114 17.7815V17.4291H99.3751V17.5066H99.4923V17.555C99.5665 17.5685 99.6368 17.6015 99.6954 17.6441C99.8789 17.7215 100 17.9035 100 18.1068C100 18.3973 99.7657 18.6102 99.4923 18.6102V18.678C99.5411 18.6877 99.588 18.7051 99.6309 18.7284C99.8496 18.7884 100 18.9859 100 19.2105C100 19.5009 99.7657 19.7139 99.4923 19.7139V19.801C99.5098 19.8049 99.5274 19.8107 99.545 19.8165C99.8106 19.8436 100 20.0605 100 20.3141C100 20.6046 99.7657 20.8176 99.4923 20.8176V20.8757C99.7852 20.8757 100 21.108 100 21.3791C100 21.6172 99.8418 21.8012 99.6348 21.8593C99.5899 21.8825 99.543 21.9019 99.4923 21.9116V21.9793C99.7852 21.9793 100 22.2117 100 22.4827C100 22.6938 99.877 22.8622 99.7051 22.9397C99.6446 22.9862 99.5723 23.021 99.4923 23.0346V23.083C99.7852 23.083 100 23.3153 100 23.5864C100 23.7723 99.9024 23.9272 99.7618 24.0124C99.6915 24.086 99.5997 24.1363 99.4923 24.1576V24.1866H99.6876V28.6787H99.5899V28.7562H99.4923V28.7755C99.7852 28.7755 100 29.0079 100 29.279C100 29.4474 99.9199 29.5888 99.7989 29.6798C99.7266 29.7766 99.6212 29.8463 99.4923 29.8695V29.8792C99.7852 29.8792 100 30.1116 100 30.3826C100 30.5375 99.9316 30.6692 99.8281 30.7602C99.7618 30.8706 99.6524 30.9538 99.5196 30.9867C99.7969 31.0022 100 31.2249 100 31.4882C100 31.6354 99.9395 31.7612 99.8457 31.8503C99.7891 31.9626 99.6915 32.0517 99.5665 32.0962C99.8203 32.133 99.998 32.346 99.998 32.5919C99.998 32.7274 99.9453 32.8436 99.8653 32.9307C99.8184 33.0508 99.7247 33.1495 99.6036 33.2037C99.836 33.2541 99.998 33.4593 99.998 33.6936H100ZM98.0472 26.4908C98.0472 26.7812 98.2815 26.9942 98.5549 26.9942C98.6057 26.9942 98.6506 26.9845 98.6955 26.9729C98.8576 26.8877 98.965 26.7193 98.965 26.5295C98.965 26.2391 98.7307 26.0261 98.4573 26.0261C98.4182 26.0241 98.3811 26.0261 98.344 26.0338C98.1722 26.1113 98.0472 26.2797 98.0472 26.4908ZM88.9004 22.3317C88.8809 22.3569 88.8672 22.3859 88.8672 22.4247V22.5215H89.1601C89.2382 22.5215 89.2968 22.5796 89.2968 22.657V22.9087C89.2968 22.9862 89.2382 23.0443 89.1601 23.0443H89.1425C89.123 23.0559 89.0996 23.0636 89.0742 23.0636H88.8672V23.1411C88.8672 23.3347 88.9648 23.4509 89.1796 23.4509L92.9094 23.4315V22.2891H89.0937C89.0937 22.2891 88.9883 22.2891 88.9004 22.3317ZM88.998 29.6023C88.918 29.6546 88.8691 29.7398 88.8691 29.8579V29.9547H89.1621C89.2402 29.9547 89.2988 30.0128 89.2988 30.0903V30.342C89.2988 30.4194 89.2402 30.4775 89.1621 30.4775H89.1523C89.1328 30.4891 89.1093 30.4969 89.0839 30.4969H88.8691V30.5743C88.8691 30.7679 89.1816 30.7873 89.1816 30.7873L92.9114 30.7679V29.5868H89.0957C89.0586 29.5868 89.0293 29.5946 88.998 29.6023ZM89.1621 27.9236C89.2402 27.9236 89.2988 27.9817 89.2988 28.0591V28.3109C89.2988 28.3883 89.2402 28.4464 89.1621 28.4464H88.8691V28.5432C88.8691 28.7175 89.1816 28.853 89.1816 28.853L92.9114 28.8336V27.6525H89.0957C89.0215 27.6525 88.9629 27.6545 88.918 27.6641C88.8848 27.6951 88.8691 27.7455 88.8691 27.8268V27.9236H89.1621ZM88.8984 24.3667C88.8809 24.3958 88.8672 24.4267 88.8672 24.4577V24.5545H89.1601C89.2382 24.5545 89.2968 24.6126 89.2968 24.6901V24.9418C89.2968 25.0192 89.2382 25.0773 89.1601 25.0773H89.1425C89.123 25.0889 89.0996 25.0967 89.0742 25.0967H88.8672V25.1741C88.8672 25.3484 88.9453 25.3871 89.1796 25.3871L92.9094 25.3678V24.2447H89.0937C89.0937 24.2447 88.9863 24.2931 88.8965 24.3667H88.8984ZM88.8887 26.2759C88.877 26.3088 88.8672 26.3475 88.8672 26.394V26.5876C88.8672 26.8974 89.1796 26.8974 89.1796 26.8974H92.9094V26.2003H89.0937C89.0937 26.2003 88.9785 26.2003 88.8887 26.2759ZM92.9114 31.4476H90.1306C90.1306 31.4476 90.0018 31.4243 89.908 31.4476C89.908 31.4534 89.9022 31.4592 89.9022 31.465C89.9022 31.6199 90.2146 31.8716 90.2146 31.8716L92.9094 34.2803V31.4456L92.9114 31.4476ZM89.9041 21.4759C89.9041 21.6308 90.2166 21.5727 90.2166 21.5727L92.9114 21.5921V18.7071L90.1306 21.1661C90.1306 21.1661 90.0642 21.2203 89.992 21.2939C89.9432 21.3558 89.9041 21.4217 89.9041 21.4759ZM78.2226 34.412L77.6387 39.1345C78.0683 39.2313 78.3808 39.5992 78.3808 40.0639V40.1413H79.5954C79.5192 40.0155 79.3513 39.6805 79.3376 39.1732C79.3181 38.5149 79.6501 38.1664 79.6501 37.5468C79.6501 36.9272 79.6442 34.9115 79.6442 34.9115H79.7282V34.3481C79.2751 34.3771 78.7772 34.3984 78.2226 34.4139V34.412ZM79.7301 18.1359H79.652V15.4735C79.652 14.8539 79.3396 14.5248 79.3396 13.8471C79.3591 13.1868 79.5895 12.8577 79.6012 12.8402H78.3827V12.8983C78.3827 13.3437 78.0703 13.7309 77.6406 13.8277L77.6621 13.9981L78.3437 18.0933L78.162 18.0894L78.2265 18.6083C78.7928 18.6277 79.281 18.647 79.7301 18.6664V18.1339V18.1359ZM73.6179 13.8277H72.7704L72.8173 13.9052C72.8173 13.9181 72.8238 13.9245 72.8368 13.9245C72.9149 14.0794 73.0321 14.2537 73.1688 14.3892L73.4422 14.3311L73.5203 14.7378C73.5671 14.7726 73.5984 14.7997 73.6179 14.8171V13.8277ZM75.0454 18.0391L75.102 16.6566C74.7505 17.1135 74.526 17.9093 74.4186 18.5309H75.1216L75.1469 18.0487H75.0454V18.0371V18.0391ZM75.1157 16.2868L75.1391 15.7039H73.7214L74.1627 17.95C74.3483 17.3091 74.6392 16.6217 75.1157 16.2868ZM74.1003 35.3201L73.7156 37.295H75.1391L75.1118 36.6677C74.6568 36.3327 74.3522 35.6686 74.1686 35.0006L74.1022 35.3201H74.1003ZM73.5398 38.2244L73.4617 38.6311L73.409 38.6194L73.4031 38.6504L73.1688 38.5962C73.0399 38.7434 72.913 38.8905 72.8563 39.0377L72.8368 39.057L72.7978 39.1345H73.6179V38.1392C73.5964 38.1586 73.5691 38.1857 73.5398 38.2244ZM75.0962 36.3405L75.0337 34.9754H75.0454V34.9638H75.1469L75.1216 34.4875H74.4186C74.5279 35.1168 74.7388 35.8913 75.0962 36.3405ZM57.4489 33.5194C57.4294 33.6936 57.5856 33.8485 57.7613 33.8485L62.6433 34.0034C62.7917 34.0034 62.905 33.9318 62.9655 33.8253C61.1064 33.6394 59.2142 33.4303 57.4684 33.227L57.4508 33.5194H57.4489ZM49.4288 31.8213L49.4015 31.7961V31.5057H48.6594V32.6732C48.9523 32.3557 49.3448 31.9161 49.4288 31.8213ZM48.6809 21.5146H49.3995V21.2048L49.4308 21.1738C49.3312 21.0615 48.9621 20.6549 48.6809 20.3587V21.5146ZM39.3271 8.89028L42.7972 9.50214L42.9534 8.71602L39.4618 8.10223L39.3271 8.89028ZM47.3081 44.5269L47.1753 43.7602L43.5685 44.3933L43.7189 45.1543L47.3081 44.5269ZM47.1323 43.5201L46.9995 42.734L43.3889 43.3691L43.5431 44.1474L47.1323 43.5201ZM43.3303 9.81968L43.174 10.6135L45.7615 11.0705L45.9079 10.2786L43.3283 9.82162L43.3303 9.81968ZM42.8616 12.4143C42.9397 12.4336 43.0178 12.4723 43.0959 12.4917H45.1854C45.2831 12.5072 45.3905 12.5207 45.494 12.5266L45.5389 12.2845L42.9729 11.8334L42.8636 12.4143H42.8616ZM45.5799 40.9487L43.0237 41.398L43.1721 42.155L45.7185 41.7L45.5799 40.9487ZM42.9788 41.1675L45.5369 40.7125L45.492 40.4724C45.3787 40.484 45.2635 40.4899 45.1464 40.4899H43.0198C42.9612 40.5092 42.9065 40.5324 42.8616 40.5479L42.9788 41.1675ZM42.9983 11.601L45.5799 12.056L45.7244 11.2796L43.1506 10.8265L42.9983 11.601ZM42.9924 8.51465L43.1506 7.72079L39.6376 7.10893L39.5009 7.90279L42.9924 8.51465ZM45.7595 41.9169L44.5078 42.1376L43.1936 42.3699L43.3498 43.1638L45.906 42.7107L45.7595 41.9188V41.9169ZM42.9944 44.4959L39.5067 45.1078L39.6376 45.89L43.1467 45.2588L42.9944 44.494V44.4959ZM42.9456 44.2559L42.7894 43.4755L39.3271 44.0835L39.4618 44.8851L42.9456 44.2559ZM42.7483 43.2703L42.5882 42.4745L42.4535 42.4958L42.4105 42.5036L42.391 43.1212L39.249 43.6188L39.3017 43.8667L42.7464 43.2703H42.7483ZM47.3139 8.44494L43.7189 7.81373L43.5646 8.59985L47.1812 9.233L47.3139 8.44494ZM47.1382 9.45179L43.5256 8.8167L43.3693 9.60669L47.0054 10.2398L47.1382 9.45179ZM47.6596 46.5406L47.5268 45.7545L39.8758 47.0983L40.0086 47.865L47.6596 46.5406ZM47.4838 45.5338L47.351 44.7477L39.7001 46.0914L39.8328 46.8582L47.4838 45.5338ZM47.7045 46.7439L40.032 48.0916L40.1863 48.99L47.8588 47.6424L47.7045 46.7439ZM39.249 9.37434L42.3929 9.85841L42.4125 10.4586L42.598 10.4896L42.7522 9.71899L39.2841 9.10908L39.249 9.37434ZM39.6981 6.87658L47.3569 8.22228L47.4897 7.4381L39.8289 6.11176L39.6981 6.87658ZM39.8738 5.86973L47.5346 7.21542L47.6654 6.45061L40.0086 5.08555L39.8738 5.86973ZM40.0301 4.88225L47.7084 6.23182L47.8607 5.34695L40.1824 3.99738L40.0301 4.88225ZM5.44631 19.4622L5.43459 19.559L5.7197 19.5784C5.76656 19.5842 5.81343 19.5958 5.85835 19.6113L5.9345 19.6171C6.07315 19.6248 6.19422 19.6868 6.28796 19.7739C6.33678 19.7604 6.3895 19.7526 6.44223 19.7526H7.30145V19.6558H6.81326H6.79373V19.1524H7.30145V19.0556H7.92634V19.1524H9.68384L9.7229 19.166L9.76196 19.1524C9.76196 19.1524 9.77172 19.1543 9.78344 19.1582L9.77953 19.1524C9.77953 19.1524 9.99238 19.1408 10.2599 19.1427C10.6017 19.1427 11.043 19.1621 11.2441 19.2492C11.4785 19.346 11.6151 19.4816 11.9471 19.559L12.0448 19.5183V18.3779C12.0448 18.3159 12.0838 18.2675 12.1404 18.2501C12.1619 18.2346 12.1893 18.223 12.2205 18.223H13.275C13.3336 18.223 13.3922 18.2617 13.4117 18.3198H13.7827V17.2142C13.2281 17.222 12.7497 17.2084 12.3552 17.1387L9.78539 17.1658L6.79177 18.5715L6.71757 18.4534L6.13369 18.7942L6.26452 19.0343L6.25671 19.0382L6.26452 19.0536L5.44436 19.4603L5.44631 19.4622ZM7.30145 33.9647V33.8679H6.79373V33.3257H7.30145V33.2483H6.4227C6.38169 33.2483 6.34459 33.2405 6.30553 33.2309C6.20985 33.3277 6.08096 33.3935 5.9345 33.4032L5.43264 33.4458L5.44436 33.5465L6.24695 33.9434L6.24304 33.9511L6.26648 33.9628L6.13173 34.2087L6.71562 34.5436L6.7742 34.4468L9.7229 35.8216L12.4568 35.8603C12.861 35.8022 13.2848 35.7828 13.7847 35.8022V34.6792H13.3844C13.3726 34.7005 13.357 34.7198 13.3375 34.7314C13.3141 34.7586 13.2809 34.776 13.2399 34.776H12.1854C12.1072 34.776 12.0487 34.7179 12.0487 34.6404V33.471L11.9745 33.44C11.6171 33.5252 11.4745 33.6626 11.2285 33.7691C10.877 33.924 9.78344 33.8659 9.78344 33.8659L9.78734 33.8601C9.77367 33.864 9.76391 33.8659 9.76391 33.8659L9.70533 33.8466L9.64674 33.8659H7.92829V33.9628H7.3034L7.30145 33.9647ZM62.6433 18.9588L62.0594 18.9801L61.7899 19.013L58.0347 19.1234L57.7594 19.133C57.5836 19.133 57.4274 19.2879 57.4469 19.4428L57.4665 19.7759C59.222 19.5745 61.124 19.3654 62.9889 19.1814C62.946 19.0498 62.8132 18.9413 62.6413 18.9588H62.6433Z" fill="black"/>
<path d="M47.5685 26.5298C47.5685 26.5298 47.5685 26.5162 47.5685 26.5104C47.5685 26.5046 47.5685 26.4969 47.5685 26.4911C47.5685 25.3758 47.5295 24.0533 47.4904 22.5411C47.3928 19.4431 46.8655 15.4351 46.0453 14.3702C45.2252 13.3052 43.5848 12.5694 40.0894 11.6013C39.8492 11.5355 39.6051 11.4755 39.361 11.4154C39.152 10.6022 38.7615 9.56826 38.7615 9.56826C38.7615 9.56826 36.3986 8.83248 34.7387 8.13543C33.0789 7.43838 30.6379 7.10922 28.4703 7.10922H13.7854C13.7854 7.10922 13.6585 7.14214 13.4534 7.19829C12.1724 7.2312 11.03 7.45 9.78219 7.82564C7.84893 8.38715 7.47791 9.80061 7.20452 11.1947C6.93113 12.6082 6.69679 13.8086 8.02468 14.9898C8.82728 15.7023 10.2665 16.2677 11.2604 16.6007C11.36 16.6898 11.4538 16.7692 11.5397 16.8292C12.2466 17.352 13.6643 17.2145 15.621 17.1583V35.8644C13.6643 35.8083 12.2466 35.6708 11.5397 36.1936C11.444 36.2614 11.3386 36.3524 11.2253 36.4531C10.2313 36.7861 8.81751 37.3476 8.02468 38.0524C6.69679 39.2335 6.93113 40.434 7.20452 41.8281C7.47791 43.2222 7.84893 44.6163 9.78219 45.1972C11.03 45.5709 12.1704 45.7916 13.4534 45.8245C13.6604 45.8807 13.7854 45.9136 13.7854 45.9136H28.4703C30.6379 45.9136 33.0789 45.5844 34.7387 44.8874C36.3986 44.1903 38.7615 43.4545 38.7615 43.4545C38.7615 43.4545 39.1579 42.4032 39.3668 41.5861C39.609 41.526 39.8511 41.466 40.0894 41.4021C43.5848 40.434 45.2252 39.6982 46.0453 38.6333C46.8655 37.5877 47.3928 33.5797 47.4904 30.4817C47.5295 28.9501 47.5666 27.647 47.5685 26.5317V26.5298ZM86.1164 32.842C83.3044 33.8294 82.4843 34.3522 77.4265 34.4297C74.8879 34.5071 72.0759 34.5071 69.5373 34.3716C62.644 33.9843 49.9314 32.2998 49.9314 32.2998L49.4041 31.7964V26.5492H49.4002V21.2051L49.9275 20.7017C49.9275 20.7017 62.6401 19.0172 69.5334 18.6493C72.072 18.5137 74.884 18.5137 77.4226 18.5912C82.4803 18.688 83.3005 19.1914 86.1125 20.1789C88.2801 21.3019 88.4754 23.8384 88.4949 26.4911H88.4988C88.4793 29.1631 88.284 31.7189 86.1164 32.842Z" fill="#FF0000"/>
<path opacity="0.1" d="M88.3653 26.5063C88.375 26.5198 88.3789 26.5295 88.3789 26.5295C88.3789 26.5295 88.4395 31.3004 86.2699 32.2221C82.4933 34.6133 75.9573 34.3035 71.5694 34.3035C67.1815 34.3035 50.2489 32.0362 50.2489 32.0362L49.7549 31.5463C49.7549 31.5463 63.8442 32.9559 71.9404 33.0159C80.0367 33.0779 84.7077 32.3808 84.7077 26.5101C84.7077 26.5101 84.7077 26.5082 84.7077 26.5063C84.7077 26.5043 84.7077 26.5043 84.7077 26.5024C84.7077 20.6317 80.0347 19.9346 71.9404 19.9966C63.8462 20.0586 49.7549 21.4662 49.7549 21.4662L50.2489 20.9763C50.2489 20.9763 67.1815 18.709 71.5694 18.709C75.9573 18.709 82.4933 18.3973 86.2699 20.7905C88.4395 21.7121 88.3789 26.483 88.3789 26.483C88.3789 26.483 88.3731 26.4908 88.3653 26.5063Z" fill="#292929"/>
<path d="M38.3703 50.9648H1.11121C0.740179 50.9648 0.427734 48.1186 0.427734 44.6527C0.427734 41.1868 0.740179 38.3405 1.11121 38.3405H7.73309C6.73912 39.4287 6.95393 40.5459 7.20389 41.8258C7.47728 43.2199 7.8483 44.6139 9.78156 45.1948C11.0294 45.5685 12.1698 45.7893 13.4528 45.8222C13.6598 45.8783 13.7848 45.9112 13.7848 45.9112H28.4697C30.6373 45.9112 33.0782 45.5821 34.7381 44.885C36.398 44.188 38.7608 43.4522 38.7608 43.4522C38.7608 43.4522 38.88 43.1385 39.0206 42.7222C39.042 43.3322 39.0538 43.9808 39.0538 44.6527C39.0538 48.1186 38.7413 50.9648 38.3703 50.9648ZM38.7608 9.56786C38.7608 9.56786 36.398 8.83208 34.7381 8.13503C33.0782 7.43798 30.6373 7.10883 28.4697 7.10883H13.7848C13.7848 7.10883 13.6578 7.14174 13.4528 7.19789C12.1718 7.23081 11.0294 7.4496 9.78156 7.82524C7.8483 8.38675 7.47728 9.80021 7.20389 11.1943C6.95393 12.4838 6.74108 13.5972 7.71552 14.6796H1.11121C0.740179 14.6796 0.427734 11.8333 0.427734 8.36739C0.427734 4.9015 0.740179 2.03585 1.11121 2.03585H38.3703C38.7413 2.03585 39.0538 4.86278 39.0538 8.36739C39.0538 9.03926 39.042 9.68791 39.0206 10.2978C38.88 9.88153 38.7608 9.56786 38.7608 9.56786Z" fill="url(#paint0_linear_6561_4405)"/>
<path d="M2.85106 7.9725C2.66359 7.9725 2.49956 7.85826 2.44488 7.69174L0.855318 2.87629C0.769396 2.61877 0.976391 2.35738 1.2654 2.35738C1.44896 2.35738 1.61104 2.46968 1.66572 2.63232L3.25724 7.45552C3.34121 7.7111 3.13617 7.97056 2.85106 7.97056V7.9725ZM1.41186 8.44107C1.57394 8.44107 1.69892 8.57467 1.67549 8.7257L0.868988 13.8645L0.322209 13.0513L1.15019 8.64631C1.17167 8.5282 1.28298 8.44107 1.41186 8.44107ZM0.160128 7.96669L0 5.61996L0.579976 4.47563L0.841649 7.9725L0.162081 7.96669H0.160128Z" fill="url(#paint1_linear_6561_4405)"/>
<path d="M2.85106 44.5113C2.66359 44.5113 2.49956 44.3971 2.44488 44.2306L0.855318 39.4151C0.769396 39.1576 0.976391 38.8962 1.2654 38.8962C1.44896 38.8962 1.61104 39.0085 1.66572 39.1711L3.25724 43.9943C3.34121 44.2499 3.13617 44.5094 2.85106 44.5094V44.5113ZM1.41186 44.9818C1.57394 44.9818 1.69892 45.1154 1.67549 45.2665L0.868988 50.4033L0.322209 49.5901L1.15019 45.1851C1.17167 45.067 1.28298 44.9799 1.41186 44.9799V44.9818ZM0.160128 44.5055L0 42.1588L0.579976 41.0145L0.841649 44.5113L0.162081 44.5055H0.160128Z" fill="url(#paint2_linear_6561_4405)"/>
<path d="M1.97021 43.5102C1.97021 50.0741 4.4893 51.1197 5.09467 51.1003L21.3809 50.3646L35.851 49.6869C36.2982 49.6675 38.0791 48.6761 38.2392 43.6187C37.4503 43.8762 35.9174 44.3893 34.7379 44.885C33.078 45.582 30.637 45.9112 28.4695 45.9112H13.7845C13.7845 45.9112 13.6576 45.8783 13.4526 45.8221C12.1715 45.7892 11.0292 45.5704 9.78134 45.1948C7.84809 44.6139 7.47706 43.2198 7.20367 41.8257C6.93028 40.4316 6.69595 39.2311 8.02384 38.05C8.81667 37.3472 10.2324 36.7856 11.2244 36.4507C11.3358 36.348 11.4432 36.259 11.5388 36.1912C11.7497 36.0363 12.0251 35.9395 12.3571 35.8814L5.09467 35.804C4.4893 35.804 1.97021 36.927 1.97021 43.5102ZM34.7379 8.13497C33.078 7.43792 30.637 7.10876 28.4695 7.10876H13.7845C13.7845 7.10876 13.6576 7.14168 13.4526 7.19783C12.1715 7.23074 11.0292 7.44954 9.78134 7.82518C7.84809 8.38669 7.47706 9.80015 7.20367 11.1942C6.93028 12.6077 6.69595 13.8082 8.02384 14.9893C8.82643 15.7018 10.2656 16.2672 11.2596 16.6003C11.3592 16.6893 11.4529 16.7687 11.5388 16.8287C11.7497 16.9836 12.0251 17.0804 12.3571 17.1385L5.09467 17.216C4.4893 17.216 1.97021 16.093 1.97021 9.50971C1.97021 2.92646 4.4893 1.88089 5.09467 1.90025L21.3809 2.63603L35.851 3.29435C36.2982 3.31372 38.083 4.32444 38.2412 9.40128C37.4523 9.14569 35.9174 8.63065 34.7379 8.13497Z" fill="#292929"/>
<path d="M17.5732 51.7975C17.5732 51.9137 17.6709 52.0105 17.788 52.0105H21.7131C21.8108 52.0105 21.9084 51.9137 21.9084 51.7975C21.9084 51.6813 21.8303 51.5845 21.7131 51.5845H21.0687C21.0882 51.5652 21.0882 51.5264 21.0882 51.4877C21.0882 51.449 21.0882 51.4296 21.0687 51.3909H21.3031C21.5179 51.3909 21.7131 51.2166 21.7131 50.9843C21.7131 50.7519 21.5374 50.5777 21.3031 50.5777H18.2177C17.9833 50.5777 17.8076 50.7519 17.8076 50.9843C17.8076 51.2166 17.9833 51.3909 18.2177 51.3909H18.4325C18.4129 51.4103 18.4129 51.449 18.4129 51.4877C18.4129 51.5264 18.4129 51.5458 18.4325 51.5845H17.788C17.6709 51.5845 17.5732 51.6813 17.5732 51.7975ZM21.7131 1.41633H21.0687C21.0882 1.43569 21.0882 1.47441 21.0882 1.51314C21.0882 1.55186 21.0882 1.57123 21.0687 1.60995H21.3031C21.5179 1.60995 21.7131 1.78422 21.7131 2.01657C21.7131 2.24892 21.5374 2.42318 21.3031 2.42318H18.2177C17.9833 2.42318 17.8076 2.24892 17.8076 2.01657C17.8076 1.78422 17.9833 1.60995 18.2177 1.60995H18.4325C18.4129 1.59059 18.4129 1.55186 18.4129 1.51314C18.4129 1.47441 18.4129 1.45505 18.4325 1.41633H17.788C17.6709 1.41633 17.5732 1.31952 17.5732 1.20334C17.5732 1.10653 17.6709 1.00972 17.788 1.00972H21.7131C21.8108 1.00972 21.9084 1.08717 21.9084 1.20334C21.9084 1.31952 21.8303 1.41633 21.7131 1.41633Z" fill="black"/>
<path d="M51.8051 50.1711L51.5708 51.0617L53.7579 51.5071L53.8556 50.7907L51.8051 50.1711ZM51.5708 1.93913L53.7579 1.49378L53.8556 2.2102L51.8051 2.8298L51.5708 1.93913Z" fill="#303030"/>
<path d="M53.2504 36.3267L52.8403 42.3291H53.9729L54.383 36.3267H53.2504ZM52.8403 10.6908H53.9729L54.383 16.7125H53.2504L52.8403 10.6908Z" fill="#1B1B1B"/>
<path d="M51.8051 33.4224H45.8491L46.5521 37.1207C46.5521 37.1207 47.3528 43.3941 47.5871 44.5559C47.8214 45.7176 47.9777 46.2017 48.6221 46.1823C49.2665 46.1629 52.7424 45.6982 53.3478 43.4135C53.9532 41.1481 54.0703 36.0751 53.9727 35.3587C53.8751 34.6423 53.0939 33.4224 51.8051 33.4224ZM51.8051 19.5589H45.8491L46.5521 15.8994C46.5521 15.8994 47.3528 9.60658 47.5871 8.44483C47.8214 7.28308 47.9777 6.79902 48.6221 6.79902C49.2665 6.81838 52.7424 7.28308 53.3478 9.56785C53.9532 11.8333 54.0703 16.9062 53.9727 17.6226C53.8751 18.3391 53.0939 19.5589 51.8051 19.5589Z" fill="url(#paint3_linear_6561_4405)"/>
<path d="M15.5616 32.8611C15.5616 32.8611 15.3077 32.9269 15.0148 33.0566V33.7711H15.0343V34.1777H15.0148V35.8293H13.7845V34.1777H12.8667V33.7711H13.7845V33.4032C13.4272 33.3897 13.0112 33.3451 12.5738 33.3645C11.7146 33.4032 11.5779 33.6162 11.2264 33.7711C10.8749 33.926 9.78134 33.8679 9.78134 33.8679L10.5234 32.8417L11.3436 32.5319V31.8116L11.324 31.8155V30.8861L11.7576 30.7389C11.8122 30.7196 11.8708 30.6983 11.9392 30.6731H11.5388V30.2781C11.3065 30.1116 10.9784 29.8947 10.6991 29.7824C10.211 29.5888 9.89851 29.4726 9.66418 29.4726C9.42984 29.4726 9.03928 29.8793 9.03928 29.8793H5.6805V30.1891H4.626V29.3758H4.64553V28.9499H3.82536V28.6788H3.20047L1.97021 27.246V26.6264H3.20047L4.64553 27.2072V25.8344L3.20047 26.4153H1.97021V25.7957L3.20047 24.3629H3.82536V24.0724H4.64553V23.6658H4.626V22.8526H5.66097V23.0656H5.6805V23.1624H9.03928C9.03928 23.1624 9.42984 23.569 9.66418 23.569C9.89851 23.569 10.211 23.4528 10.6991 23.2592C11.1873 23.0656 11.8318 22.5428 11.8318 22.5428L13.7845 22.7945V22.7171C13.1089 22.628 12.443 22.5234 12.1637 22.4266C11.4803 22.1943 11.3436 22.1168 11.3436 22.1168V20.4904L10.5234 20.1806L9.78134 19.1544C9.78134 19.1544 10.8749 19.0963 11.2264 19.2512C11.5779 19.4061 11.7146 19.6191 12.5738 19.6578C13.0112 19.6772 13.4272 19.6326 13.7845 19.6191V19.2512H12.8667V18.8446H13.7845V17.2123H15.0148V18.8446H15.0343V19.2512H15.0148V19.9657C15.3077 20.0954 15.5616 20.1612 15.5616 20.1612V32.863V32.8611ZM9.78134 26.5295H9.76181V24.3803H9.44937V25.7163L9.35173 25.8131H6.98886C6.28586 25.8131 5.95389 25.6001 5.95389 25.6001V23.8575H5.6805V29.1628H5.95389V27.4202C5.95389 27.4202 6.28586 27.2072 6.98886 27.2072H9.35173L9.4689 27.3234V28.6594H9.78134V26.5295ZM13.7845 30.2375L13.5678 30.2665H13.7845V30.2375ZM5.95389 32.7836C5.95389 33.0353 6.1687 33.2483 6.42256 33.2483H8.33628V32.3189H6.98886H6.42256C6.1687 32.3189 5.95389 32.5319 5.95389 32.7836ZM6.98886 20.7014H8.33628V19.772H6.42256C6.1687 19.772 5.95389 19.985 5.95389 20.2367C5.95389 20.4885 6.1687 20.7014 6.42256 20.7014H6.98886Z" fill="black"/>
<path d="M48.6221 19.8106V15.9768C48.6221 14.0793 47.0598 12.5303 45.1461 12.5303H43.0488C44.6013 13.1073 45.5035 13.6669 46.0444 14.3698C46.8489 15.4134 47.3703 19.282 47.4836 22.3529C48.1807 21.7217 48.6221 20.8175 48.6221 19.8106ZM45.1461 40.4897H42.9961C44.5818 39.905 45.4976 39.3416 46.0444 38.6309C46.8489 37.6047 47.3703 33.7322 47.4836 30.6614C48.1807 31.2906 48.6221 32.1949 48.6221 33.2095V37.0239C48.6221 38.9407 47.0598 40.4897 45.1461 40.4897Z" fill="#363636"/>
<path d="M15.2103 34.3714H12.4373V34.6812H15.2103V34.3714ZM5.93456 33.4032L3.25925 33.6356C2.98586 33.6743 2.77105 33.4613 2.77105 33.1902C2.77105 32.9192 2.98586 32.6675 3.25925 32.6481L5.93456 32.3577C6.22748 32.3189 6.48134 32.5319 6.48134 32.8224C6.48134 33.1128 6.247 33.3839 5.93456 33.4032ZM12.4373 18.3392H15.2103V18.649H12.4373V18.3392ZM5.93456 20.6821L3.25925 20.3723C2.98586 20.3336 2.77105 20.1012 2.77105 19.8301C2.77105 19.5591 2.98586 19.3461 3.25925 19.3848L5.93456 19.6171C6.247 19.6365 6.48134 19.9076 6.48134 20.198C6.48134 20.4885 6.22748 20.7014 5.93456 20.6821ZM4.02083 26.9168H0.310547V26.1036H4.02083V26.9168ZM15.4251 26.7232V26.9168H11.8124V26.7232H8.21931V26.3166H11.8124V26.1036H15.4251V26.3166H15.5032V26.7232H15.4251Z" fill="#484848"/>
<path d="M7.92636 33.2481L10.9141 32.8415V32.0283L7.92636 32.4349V33.2481ZM10.504 36.2106L8.53172 36.3074L6.44225 35.0294L6.79375 34.4679L10.504 36.2106ZM4.54805 34.2937L4.33324 33.9839V32.0476C4.33324 32.0476 4.48947 31.8346 4.74333 31.8346C4.97766 31.8346 5.25105 31.9315 5.25105 31.9315L5.44633 33.5579L6.2665 33.9645L5.75877 34.8939L4.54805 34.2937ZM15.6301 35.8543L14.5561 35.8291L14.1948 34.2743C14.1948 34.2743 14.2729 34.0032 14.4877 33.9451C14.5853 33.9297 14.7455 33.9103 14.9408 33.9161C14.9271 33.494 14.9134 33.068 14.8997 32.6421C14.7884 32.8105 14.6303 33.037 14.5268 33.1513C14.3315 33.3256 13.4918 33.5579 13.4918 33.5579L13.3746 33.3836V34.6422C13.3746 34.7196 13.316 34.7777 13.2379 34.7777H12.1834C12.1053 34.7777 12.0467 34.7196 12.0467 34.6422V32.4736C12.0467 32.3962 12.1053 32.3381 12.1834 32.3381H13.2379C13.2672 32.3381 13.2907 32.3477 13.3121 32.3613L14.8919 32.4291C14.808 29.8229 14.7318 27.3135 14.722 26.51C14.722 26.51 14.722 26.5041 14.722 26.5003C14.722 26.4964 14.722 26.4945 14.722 26.4906C14.7279 25.9233 14.7689 24.4808 14.8236 22.7536H11.539V22.347H11.9491L11.3242 22.134V21.2046L12.5545 21.437L14.8626 21.5241C14.8724 21.2163 14.8822 20.9045 14.8919 20.5908L13.3121 20.6586C13.2907 20.6722 13.2672 20.6818 13.2379 20.6818H12.1834C12.1053 20.6818 12.0467 20.6238 12.0467 20.5463V18.3777C12.0467 18.3003 12.1053 18.2422 12.1834 18.2422H13.2379C13.316 18.2422 13.3746 18.3003 13.3746 18.3777V19.6363L13.4918 19.462C13.4918 19.462 14.3315 19.6944 14.5268 19.8686C14.6303 19.9829 14.7865 20.2094 14.8997 20.3779C14.9134 19.9461 14.9271 19.5124 14.9427 19.0844C14.7474 19.0903 14.5853 19.0709 14.4897 19.0554C14.2749 19.0167 14.1967 18.7456 14.1967 18.7456L14.2983 17.2024L15.6242 17.1618L15.7785 26.5003L15.632 35.8543H15.6301ZM0.115234 33.6741H2.06802V34.1775H0.115234V33.6741ZM0.115234 32.3381H2.06802V32.8415H0.115234V32.3381ZM13.2575 28.6592V29.3756L10.0744 29.879V28.4288L13.2575 27.846V28.6592ZM12.0467 27.9428H8.2388V27.3232H12.0467V27.9428ZM7.92636 19.7718L10.9141 20.1784V20.9916L7.92636 20.585V19.7718ZM6.44225 18.0098L8.53172 16.7319L10.504 16.8287L6.79375 18.5713L6.44225 18.0098ZM5.25105 21.1078C5.25105 21.1078 4.97766 21.2046 4.74333 21.2046C4.48947 21.2046 4.33324 20.9916 4.33324 20.9916V19.0554L4.54805 18.7456L5.75877 18.126L6.2665 19.0554L5.44633 19.462L5.25105 21.1078ZM0.115234 18.8424H2.06802V19.3458H0.115234V18.8424ZM0.115234 20.1784H2.06802V20.6818H0.115234V20.1784ZM13.2575 24.2445V25.1933L10.0744 24.5272V23.1409L13.2575 23.6443V24.2445ZM12.0467 25.7161H8.2388V25.0965H12.0467V25.7161ZM7.51628 25.8904H9.46906V27.1102H7.51628V25.8904Z" fill="#272727"/>
<path d="M1.56031 32.1253H0.212891V34.5844H1.56031V33.8176C1.59546 33.8525 1.63452 33.8854 1.67748 33.9067C1.87276 34.0035 2.08756 33.9841 2.08756 33.9841L3.33734 33.9067C3.33734 33.9067 3.55215 33.8873 3.74743 33.6743C3.84506 33.5775 3.96223 33.3064 4.04034 33.0354C3.96223 32.7643 3.82554 32.5126 3.74743 32.4351C3.55215 32.2609 3.33734 32.2609 3.33734 32.2609L2.08756 32.3383C2.08756 32.3383 1.87276 32.3577 1.67748 32.4738C1.63452 32.499 1.59546 32.5358 1.56031 32.5745V32.1253ZM6.79377 33.8679H7.30149V33.9648H7.92638V33.8679H9.64483L9.70341 33.8486L9.76199 33.8679C9.76199 33.8679 9.9768 33.8292 10.3869 33.5581C10.797 33.2871 11.3242 33.0547 11.3242 33.0547H13.3551C13.3551 33.0547 15.6789 32.4738 15.718 32.4351C15.757 32.3964 15.2103 31.0023 15.2103 31.0023L12.8474 31.7187H6.79377V32.2609H7.30149V33.3645H6.79377V33.8679ZM7.92638 32.2609H9.68388C10.0354 32.2609 10.1916 32.3189 10.1916 32.7643C10.1916 32.9192 10.0744 33.0741 9.93774 33.229L9.66435 33.3645H7.92638V32.2609ZM6.94999 34.7005L6.69613 34.991L5.71974 34.4875L5.85643 34.0616L6.94999 34.7005ZM15.3274 30.6925H11.5195V29.8793H13.277V27.8268H11.6171V27.4202H13.277V26.7038H13.4918V28.0398H14.9173V29.8793H15.3274V30.6925ZM15.2103 22.0181C15.2103 22.0181 15.757 20.624 15.718 20.5853C15.6985 20.5659 13.3746 19.985 13.3746 19.985H11.3242C11.3242 19.985 10.797 19.7527 10.3869 19.4623C9.9768 19.1912 9.76199 19.1525 9.76199 19.1525L9.70341 19.1718L9.64483 19.1525H7.92638V19.0556H7.30149V19.1525H6.79377V19.6559H7.30149V20.7595H6.79377V21.3017H12.8474L15.2103 22.0181ZM10.1916 20.2561C10.1916 20.7015 10.0354 20.7595 9.68388 20.7595H7.92638V19.6559H9.66435L9.93774 19.7914C10.0744 19.9463 10.1916 20.1012 10.1916 20.2561ZM5.71974 18.5329L6.69613 18.0294L6.94999 18.3199L5.85643 18.9588L5.71974 18.5329ZM3.33734 20.7595L2.08756 20.6821C2.08756 20.6821 1.87276 20.6627 1.67748 20.5466C1.63452 20.5214 1.59546 20.4846 1.56031 20.4459V20.9144H0.212891V18.4554H1.56031V19.2028C1.59546 19.1679 1.63452 19.135 1.67748 19.1137C1.87276 19.0169 2.08756 19.0363 2.08756 19.0363L3.33734 19.1137C3.33734 19.1137 3.55215 19.1331 3.74743 19.3461C3.84506 19.4429 3.96223 19.714 4.04034 19.985C3.96223 20.2561 3.82554 20.5078 3.74743 20.5853C3.55215 20.7595 3.33734 20.7595 3.33734 20.7595ZM13.277 24.6243V23.1411H11.5195V22.3279H15.3274V23.1411H14.9173V24.9806H13.4918V26.3166H13.277V25.6002H11.6171V25.1936H13.277V24.6243ZM7.22338 25.5034C7.78968 25.5034 8.25835 25.968 8.25835 26.5296C8.25835 27.0911 7.78968 27.5558 7.22338 27.5558H3.51309C2.94678 27.5558 2.47812 27.0911 2.47812 26.5296C2.47812 25.968 2.94678 25.5034 3.51309 25.5034H7.22338Z" fill="#383838"/>
<path d="M60.2412 45.0788C60.2412 47.7896 60.456 49.9775 60.7489 49.9775H88.6932C88.9666 49.9775 89.201 47.7896 89.201 45.0788C89.201 42.3681 88.9862 40.1801 88.6932 40.1801H60.7489C60.456 40.1801 60.2412 42.3681 60.2412 45.0788ZM88.6932 12.8403H60.7489C60.456 12.8403 60.2412 10.633 60.2412 7.92223C60.2412 5.21148 60.456 3.02353 60.7489 3.02353H88.6932C88.9666 3.02353 89.201 5.21148 89.201 7.92223C89.201 10.633 88.9862 12.8403 88.6932 12.8403Z" fill="url(#paint4_linear_6561_4405)"/>
<path d="M80.8414 7.36059L79.4568 3.56942C79.4295 3.49197 79.3748 3.44356 79.3162 3.44356H78.9315C78.8085 3.44356 78.7324 3.64493 78.7909 3.80757L80.1755 7.59875C80.2028 7.6762 80.2575 7.7246 80.3161 7.7246H80.7008C80.8238 7.7246 80.9 7.52323 80.8414 7.36059ZM78.4004 7.19794L78.4492 7.32961C78.4941 7.45159 78.4668 7.59294 78.4004 7.66845V7.19794ZM82.802 7.72267H82.4524C82.3919 7.72267 82.3372 7.67232 82.3099 7.591L80.9937 3.8037C80.9371 3.63912 81.0152 3.44162 81.1362 3.44162H81.4858C81.5463 3.44162 81.601 3.49196 81.6283 3.57328L82.9445 7.36059C83.0011 7.52517 82.923 7.72267 82.802 7.72267ZM81.4272 8.18349C81.4506 8.11959 81.4936 8.08087 81.5405 8.08087H81.9916C82.0911 8.08087 82.1536 8.24352 82.1048 8.37712L80.6871 12.2574C80.6637 12.3213 80.6207 12.36 80.5738 12.36H80.1227C80.0231 12.36 79.9607 12.1973 80.0095 12.0637L81.4272 8.18349ZM79.1698 8.08087H79.5818C79.6951 8.08087 79.7654 8.26675 79.7107 8.41584L78.3984 12.0076V9.95129L79.0389 8.19511C79.0643 8.12347 79.1151 8.07894 79.1678 8.07894L79.1698 8.08087ZM84.8016 7.72267H84.5477C84.4892 7.72267 84.4345 7.66845 84.4111 7.58519L83.339 3.75917C83.298 3.61008 83.3683 3.44356 83.4757 3.44356H83.7295C83.7881 3.44356 83.8428 3.49777 83.8662 3.58103L84.9383 7.40706C84.9793 7.55615 84.909 7.72267 84.8016 7.72267ZM83.503 8.18349C83.5245 8.12153 83.5674 8.08087 83.6143 8.08087H84.0439C84.1396 8.08087 84.2002 8.23577 84.1552 8.36356L82.802 12.2593C82.7805 12.3213 82.7375 12.3619 82.6907 12.3619H82.261C82.1654 12.3619 82.1048 12.207 82.1497 12.0792L83.503 8.18349ZM87.3246 8.26482L86.5747 12.2574C86.563 12.3193 86.5259 12.3619 86.4849 12.3619H86.2935C86.231 12.3619 86.1861 12.2709 86.2037 12.1799L86.9536 8.18737C86.9653 8.1254 87.0024 8.08281 87.0434 8.08281H87.2348C87.2973 8.08281 87.3422 8.17381 87.3246 8.26482ZM88.6271 7.72267C88.5841 7.72267 88.547 7.67233 88.5412 7.60649L88.1994 3.59265C88.1936 3.51326 88.2326 3.44356 88.2854 3.44356C88.3283 3.44356 88.3654 3.4939 88.3713 3.55973L88.713 7.57357C88.7189 7.65296 88.6798 7.72267 88.6271 7.72267ZM85.8971 8.37518L84.8172 12.2322C84.7957 12.3096 84.745 12.36 84.6903 12.36H84.415C84.3154 12.36 84.249 12.2051 84.288 12.0657L85.3679 8.20866C85.3894 8.13121 85.4402 8.08087 85.4948 8.08087H85.7702C85.8698 8.08087 85.9362 8.23577 85.8971 8.37518ZM88.3283 8.3229L87.8187 12.1993C87.8069 12.2941 87.7523 12.3619 87.6898 12.3619C87.6058 12.3619 87.5433 12.2457 87.5609 12.1199L88.0706 8.24352C88.0823 8.14864 88.137 8.08087 88.1994 8.08087C88.2834 8.08087 88.3459 8.19704 88.3283 8.3229ZM88.5744 12.3619C88.5217 12.3619 88.4807 12.2922 88.4885 12.2128L88.8302 8.19898C88.8361 8.13315 88.8732 8.08281 88.9161 8.08281C88.9688 8.08281 89.0098 8.15251 89.002 8.2319L88.6603 12.2457C88.6544 12.3116 88.6173 12.3619 88.5744 12.3619ZM86.5747 7.72267H86.4166C86.3677 7.72267 86.3248 7.67233 86.3111 7.60068L85.5691 3.65655C85.5495 3.55005 85.6023 3.44356 85.6745 3.44356H85.8327C85.8815 3.44356 85.9245 3.4939 85.9381 3.56554L86.6802 7.50968C86.6997 7.61617 86.647 7.72267 86.5747 7.72267ZM87.7523 7.72267C87.6898 7.72267 87.6351 7.6549 87.6234 7.56002L87.1137 3.68365C87.0981 3.5578 87.1606 3.44162 87.2426 3.44162C87.3051 3.44162 87.3598 3.50939 87.3715 3.60427L87.8811 7.48064C87.8968 7.60649 87.8343 7.72267 87.7523 7.72267ZM86.4166 44.8754C86.3677 44.8754 86.3248 44.8251 86.3111 44.7534L85.5691 40.8093C85.5495 40.7028 85.6023 40.5963 85.6745 40.5963H85.8327C85.8815 40.5963 85.9245 40.6466 85.9381 40.7183L86.6802 44.6624C86.6997 44.7689 86.647 44.8754 86.5747 44.8754H86.4166ZM86.9536 45.3362C86.9653 45.2743 87.0024 45.2317 87.0434 45.2317H87.2348C87.2973 45.2317 87.3422 45.3227 87.3246 45.4137L86.5747 49.4062C86.563 49.4682 86.5259 49.5108 86.4849 49.5108H86.2935C86.231 49.5108 86.1861 49.4198 86.2037 49.3288L86.9536 45.3362ZM88.9181 45.2336C88.9708 45.2336 89.0118 45.3033 89.004 45.3827L88.6623 49.3965C88.6564 49.4624 88.6193 49.5127 88.5763 49.5127C88.5236 49.5127 88.4826 49.443 88.4904 49.3636L88.8321 45.3498C88.838 45.2839 88.8751 45.2336 88.9181 45.2336ZM87.6214 44.7128L87.1117 40.8364C87.0961 40.7105 87.1586 40.5944 87.2406 40.5944C87.3031 40.5944 87.3578 40.6621 87.3695 40.757L87.8792 44.6334C87.8948 44.7592 87.8323 44.8754 87.7503 44.8754C87.6878 44.8754 87.6331 44.8076 87.6214 44.7128ZM88.1994 45.2336C88.2834 45.2336 88.3459 45.3498 88.3283 45.4756L87.8187 49.352C87.8069 49.4469 87.7523 49.5146 87.6898 49.5146C87.6058 49.5146 87.5433 49.3985 87.5609 49.2726L88.0706 45.3962C88.0823 45.3014 88.137 45.2336 88.1994 45.2336ZM88.5412 44.7592L88.1994 40.7454C88.1936 40.666 88.2326 40.5963 88.2854 40.5963C88.3283 40.5963 88.3654 40.6466 88.3713 40.7125L88.713 44.7263C88.7189 44.8057 88.6798 44.8754 88.6271 44.8754C88.5841 44.8754 88.547 44.8251 88.5412 44.7592ZM85.366 45.3614C85.3874 45.2839 85.4382 45.2336 85.4929 45.2336H85.7682C85.8678 45.2336 85.9342 45.3885 85.8952 45.5279L84.8153 49.3849C84.7938 49.4624 84.743 49.5127 84.6883 49.5127H84.413C84.3134 49.5127 84.247 49.3578 84.2861 49.2184L85.366 45.3614ZM83.503 45.3343C83.5245 45.2723 83.5674 45.2317 83.6143 45.2317H84.0439C84.1396 45.2317 84.2002 45.3866 84.1552 45.5144L82.802 49.4101C82.7805 49.4721 82.7375 49.5127 82.6907 49.5127H82.261C82.1654 49.5127 82.1048 49.3578 82.1497 49.23L83.503 45.3343ZM81.4272 45.3343C81.4506 45.2704 81.4936 45.2317 81.5405 45.2317H81.9916C82.0911 45.2317 82.1536 45.3943 82.1048 45.5279L80.6871 49.4082C80.6637 49.4721 80.6207 49.5108 80.5738 49.5108H80.1227C80.0231 49.5108 79.9607 49.3481 80.0095 49.2145L81.4272 45.3343ZM78.4004 44.8212V44.3507L78.4492 44.4823C78.4941 44.6043 78.4668 44.7457 78.4004 44.8212ZM79.1698 45.2336H79.5818C79.6951 45.2336 79.7654 45.4195 79.7107 45.5686L78.3984 49.1603V47.104L79.0389 45.3478C79.0643 45.2762 79.1151 45.2317 79.1678 45.2317L79.1698 45.2336ZM84.8016 44.8754H84.5477C84.4892 44.8754 84.4345 44.8212 84.4111 44.7379L83.339 40.9119C83.298 40.7628 83.3683 40.5963 83.4757 40.5963H83.7295C83.7881 40.5963 83.8428 40.6505 83.8662 40.7338L84.9383 44.5598C84.9793 44.7089 84.909 44.8754 84.8016 44.8754ZM80.7008 44.8754H80.3161C80.2575 44.8754 80.2048 44.827 80.1755 44.7495L78.7909 40.9584C78.7324 40.7957 78.8085 40.5944 78.9315 40.5944H79.3162C79.3748 40.5944 79.4276 40.6428 79.4568 40.7202L80.8414 44.5114C80.9 44.674 80.8238 44.8754 80.7008 44.8754ZM82.802 44.8754H82.4524C82.3919 44.8754 82.3372 44.8251 82.3099 44.7437L80.9937 40.9564C80.9371 40.7919 81.0152 40.5944 81.1362 40.5944H81.4858C81.5463 40.5944 81.601 40.6447 81.6283 40.726L82.9445 44.5133C83.0011 44.6779 82.923 44.8754 82.802 44.8754Z" fill="url(#paint5_linear_6561_4405)"/>
<path d="M71.4307 39.7733C71.4307 39.7733 72.5828 39.4829 72.7976 39.0569C72.9734 38.6309 73.6178 38.1275 73.6178 38.1275V39.8701H77.5233L78.0623 34.9753H75.0335L75.139 37.3336H73.6939C73.3034 37.3336 73.4401 37.6434 72.8738 37.7402C72.3075 37.8371 71.4287 39.7733 71.4287 39.7733H71.4307ZM75.141 15.7057H73.6959C73.3053 15.7057 73.442 15.3959 72.8757 15.2991C72.3094 15.183 71.4307 13.2467 71.4307 13.2467C71.4307 13.2467 72.5828 13.5371 72.7976 13.9825C72.9734 14.4085 73.6178 14.9119 73.6178 14.9119V13.1693H77.5233L78.3435 18.0931L75.0453 18.0389L75.141 15.7038V15.7057Z" fill="#2D2D2D"/>
<path d="M75.9827 34.9638H75.0454L75.3168 40.5867L75.9417 40.2769L75.9827 34.9638ZM72.0557 38.3406L72.6962 34.9425L74.1725 34.9754L73.4031 38.6504L72.0557 38.3406ZM75.0454 18.0507L75.3168 12.4143L75.9417 12.7241L75.9827 18.0507H75.0454ZM72.0557 14.6797L73.4031 14.3699L74.1725 18.072L72.7079 18.0933L72.0557 14.6797Z" fill="#1E1E1E"/>
<path d="M79.9646 39.1733C79.9646 38.6117 80.277 38.1083 80.277 37.5468C80.277 36.9853 80.2712 34.9116 80.2712 34.9116H79.6463C79.6463 34.9116 79.6521 36.9272 79.6521 37.5468C79.6521 38.1664 79.3202 38.5149 79.3397 39.1733C79.3592 39.8316 79.6365 40.1995 79.6365 40.1995H80.2614C80.2614 40.1995 79.9646 39.7348 79.9646 39.1733ZM79.6521 15.4736C79.6521 14.854 79.3397 14.5248 79.3397 13.8471C79.3592 13.1694 79.6033 12.8364 79.6033 12.8364H80.2282C80.2282 12.8364 79.9646 13.2856 79.9646 13.8471C79.9646 14.4086 80.277 14.9314 80.277 15.4736V18.1359H79.6521V15.4736Z" fill="#414141"/>
<path d="M78.3241 50.0549V40.1413C78.3241 39.6185 77.8945 39.1925 77.3673 39.1925H60.1633C59.8313 39.1925 58.4839 40.0832 58.4839 45.0981C58.4839 50.113 59.8313 51.0037 60.1633 51.0037H77.3673C77.8945 51.0037 78.3241 50.5777 78.3241 50.0549ZM77.3673 13.8277H60.1633C59.8313 13.8277 58.4839 12.937 58.4839 7.90277C58.4839 2.86853 59.8313 1.99722 60.1633 1.99722H77.3673C77.8945 1.99722 78.3241 2.42319 78.3241 2.94598V12.8789C78.3241 13.4017 77.8945 13.8277 77.3673 13.8277Z" fill="url(#paint6_linear_6561_4405)"/>
<path opacity="0.5" d="M70.0913 45.5241H58.6851L69.8862 46.0953C70.8978 46.1476 71.7609 46.8369 72.0284 47.805L72.9091 51.0037H74.5299L73.575 48.0431C73.0907 46.5425 71.6828 45.5241 70.0952 45.5241H70.0913ZM70.0913 7.50004H58.6851L69.8862 6.92884C70.8978 6.87657 71.7609 6.18726 72.0284 5.21914L72.9091 2.02045H74.5299L73.575 4.98098C73.0907 6.48157 71.6828 7.50004 70.0952 7.50004H70.0913Z" fill="url(#paint7_linear_6561_4405)"/>
<path d="M92.9113 35.5911V35.3355C92.3137 34.7914 89.4236 32.16 89.2127 31.9703C88.9588 31.7573 88.8026 31.6605 88.5878 31.6605H88.0801V21.4565H88.5878C88.8026 21.4565 88.9588 21.3596 89.2127 21.1467C89.4392 20.955 92.3157 18.3275 92.9113 17.7815V17.4291H99.375V35.5911H92.9113ZM90.1305 31.9509L92.9113 34.41V31.4475H90.1305C90.1305 31.4475 89.8181 31.3894 89.8181 31.5443C89.8181 31.6992 90.1305 31.9509 90.1305 31.9509ZM88.7831 29.9759H89.0838C89.1619 29.9759 89.2205 30.034 89.2205 30.1115V30.3632C89.2205 30.4406 89.1619 30.4987 89.0838 30.4987H88.7831V30.6149C88.7831 30.8085 89.0955 30.8279 89.0955 30.8279H92.9113V29.5887H89.0955C88.8807 29.5887 88.7831 29.7049 88.7831 29.8985V29.9759ZM88.7831 27.9235H89.076C89.1541 27.9235 89.2127 27.9816 89.2127 28.0591V28.3108C89.2127 28.3882 89.1541 28.4463 89.076 28.4463H88.7831V28.5818C88.7831 28.7367 89.0955 28.8916 89.0955 28.8916H92.9113V27.6524H89.0955C88.8612 27.6524 88.7831 27.6718 88.7831 27.8654V27.9235ZM88.7831 26.6262C88.7831 26.936 89.0955 26.936 89.0955 26.936H92.9113V26.2003H89.0955C89.0955 26.2003 88.7831 26.2003 88.7831 26.5294V26.6262ZM88.7831 24.5738H89.076C89.1541 24.5738 89.2127 24.6319 89.2127 24.7094V24.9611C89.2127 25.0385 89.1541 25.0966 89.076 25.0966H88.7831V25.2709C88.7831 25.4451 88.8612 25.4838 89.0955 25.4838H92.9113V24.2447H89.0955C89.0955 24.2447 88.7831 24.3802 88.7831 24.5545V24.5738ZM89.0955 22.289C89.0955 22.289 88.7831 22.289 88.7831 22.502V22.5408H89.076C89.1541 22.5408 89.2127 22.5988 89.2127 22.6763V22.928C89.2127 23.0055 89.1541 23.0635 89.076 23.0635H88.7831V23.2184C88.7831 23.4121 88.8807 23.5282 89.0955 23.5282H92.9113V22.289H89.0955ZM90.1305 21.166C90.1305 21.166 89.8181 21.4177 89.8181 21.5726C89.8181 21.7275 90.1305 21.6694 90.1305 21.6694H92.9113V18.707L90.1305 21.166ZM98.4572 26.026C98.1838 26.0066 97.9494 26.239 97.9494 26.5294C97.9494 26.8199 98.1838 27.0328 98.4572 27.0328C98.7501 27.0328 98.9649 26.8005 98.9649 26.5294C98.9649 26.239 98.7306 26.026 98.4572 26.026Z" fill="#2C2C2C"/>
<path d="M99.9023 33.8679C99.9023 33.5775 99.6679 33.3645 99.3945 33.3645H93.4385C93.1456 33.3645 92.9308 33.5969 92.9308 33.8679C92.9113 34.139 93.1456 34.3714 93.4385 34.3714H99.3945C99.6874 34.3714 99.9023 34.139 99.9023 33.8679ZM93.4385 34.4875H99.3945C99.6679 34.4875 99.9023 34.7005 99.9023 34.991C99.9023 35.262 99.6874 35.4944 99.3945 35.4944H93.4385C93.1456 35.4944 92.9113 35.262 92.9308 34.991C92.9308 34.7199 93.1456 34.4875 93.4385 34.4875ZM99.3945 33.2483H93.4385C93.1456 33.2483 92.9113 33.016 92.9308 32.7449C92.9308 32.4738 93.1456 32.2415 93.4385 32.2415H99.3945C99.6679 32.2415 99.9023 32.4545 99.9023 32.7449C99.9023 33.016 99.6874 33.2483 99.3945 33.2483ZM99.3945 32.1253H93.4385C93.1456 32.1253 92.9113 31.893 92.9308 31.6219C92.9308 31.3508 93.1456 31.1185 93.4385 31.1185H99.3945C99.6679 31.1185 99.9023 31.3315 99.9023 31.6219C99.9023 31.893 99.6874 32.1253 99.3945 32.1253ZM99.3945 31.0023H93.4385C93.1456 31.0023 92.9113 30.7699 92.9308 30.4989C92.9308 30.2278 93.1456 29.9954 93.4385 29.9954H99.3945C99.6679 29.9954 99.9023 30.2084 99.9023 30.4989C99.9023 30.7699 99.6874 31.0023 99.3945 31.0023ZM99.3945 29.8793H93.4385C93.1456 29.8793 92.9113 29.6469 92.9308 29.3758C92.9308 29.1048 93.1456 28.8724 93.4385 28.8724H99.3945C99.6679 28.8724 99.9023 29.0854 99.9023 29.3758C99.9023 29.6469 99.6874 29.8793 99.3945 29.8793ZM99.3945 23.0443H93.4385C93.1456 23.0443 92.9113 22.812 92.9308 22.5409C92.9308 22.2698 93.1456 22.0375 93.4385 22.0375H99.3945C99.6679 22.0375 99.9023 22.2698 99.9023 22.5409C99.9023 22.812 99.6874 23.0443 99.3945 23.0443ZM99.3945 24.1673H93.4385C93.1456 24.1673 92.9113 23.935 92.9308 23.6639C92.9308 23.3928 93.1456 23.1605 93.4385 23.1605H99.3945C99.6679 23.1605 99.9023 23.3735 99.9023 23.6639C99.9023 23.935 99.6874 24.1673 99.3945 24.1673ZM99.3945 21.9213H93.4385C93.1456 21.9213 92.9113 21.6889 92.9308 21.4179C92.9308 21.1468 93.1456 20.9144 93.4385 20.9144H99.3945C99.6679 20.9144 99.9023 21.1274 99.9023 21.4179C99.9023 21.6889 99.6874 21.9213 99.3945 21.9213ZM99.3945 20.7983H93.4385C93.1456 20.7983 92.9113 20.5659 92.9308 20.2948C92.9308 20.0238 93.1456 19.7914 93.4385 19.7914H99.3945C99.6679 19.7914 99.9023 20.0044 99.9023 20.2948C99.9023 20.5659 99.6874 20.7983 99.3945 20.7983ZM99.3945 19.6752H93.4385C93.1456 19.6752 92.9113 19.4429 92.9308 19.1718C92.9308 18.9007 93.1456 18.6684 93.4385 18.6684H99.3945C99.6679 18.6684 99.9023 18.8814 99.9023 19.1718C99.9023 19.4429 99.6874 19.6752 99.3945 19.6752ZM99.3945 18.5522H93.4385C93.1456 18.5522 92.9113 18.3199 92.9308 18.0488C92.9308 17.7777 93.1456 17.5454 93.4385 17.5454H99.3945C99.6679 17.5454 99.9023 17.7584 99.9023 18.0488C99.9023 18.3199 99.6874 18.5522 99.3945 18.5522ZM99.5898 24.2835H93.4385V28.7562H99.5898V24.2835ZM98.9649 26.5296C98.9649 26.8006 98.7501 27.033 98.4572 27.033C98.1838 27.033 97.9495 26.82 97.9495 26.5296C97.9495 26.2391 98.1838 26.0068 98.4572 26.0261C98.7306 26.0261 98.9649 26.2391 98.9649 26.5296Z" fill="#444444"/>
<path d="M95.9966 28.7561H97.0316V24.2834H95.9966V28.7561Z" fill="#4D4D4D"/>
<path d="M47.4507 34.5842V18.4359H48.6224V34.5842H47.4507Z" fill="#363636"/>
<path d="M49.4582 31.5055H48.4271V31.5249C48.4271 31.6992 48.5052 31.8347 48.6419 31.9315C48.5248 31.9896 48.4271 32.0283 48.31 32.0283C48.0366 32.0283 47.8022 31.796 47.8022 31.5249V21.4951C47.8022 21.2241 48.0366 20.9917 48.31 20.9917C48.4271 20.9917 48.5248 21.0304 48.6419 21.0692C48.5052 21.166 48.4271 21.3015 48.4271 21.4758V21.5145H49.4484L49.4582 31.5055Z" fill="#585858"/>
<path d="M9.47895 43.0224L9.19384 43.2393C9.38912 44.0718 9.5844 44.7689 9.66251 44.8657C9.70157 44.9044 9.79921 44.9819 9.9359 45.0593L10.264 44.6914C10.0882 44.6605 9.93004 44.4029 9.87732 44.2345L9.47895 43.0224ZM9.17627 9.76152C9.37155 8.92893 9.56683 8.23188 9.64494 8.13506C9.68399 8.07698 9.78163 8.01889 9.91833 7.94144L10.2405 8.29384C10.2405 8.29384 9.8285 8.57847 9.50434 9.98612L9.17432 9.75957L9.17627 9.76152ZM15.3275 41.6322C15.2104 41.4385 15.1908 40.664 15.2104 40.1219L15.9524 39.7734V40.7802C15.9524 41.3998 16.382 41.8645 17.3194 42.1162C18.1005 42.3292 18.823 43.0456 18.823 43.0456C18.823 43.0456 17.2608 42.9295 16.5968 42.6971C15.9329 42.4841 15.5423 42.0194 15.3275 41.6322ZM45.0293 37.6241C45.7323 37.0045 46.0057 35.7266 46.0643 35.3781C46.1229 35.0296 46.6697 34.7585 46.7868 34.7585C46.904 34.7585 46.572 36.7722 46.162 37.8178C45.7519 38.8633 44.053 39.6959 43.7991 39.8702C43.5452 40.0444 42.8813 39.7734 42.8813 39.7734C42.8813 39.7734 44.3263 38.2437 45.0293 37.6241ZM15.9524 12.2399V13.2468L15.2104 12.8982C15.1908 12.3561 15.2104 11.5816 15.3275 11.388C15.5423 11.0007 15.9329 10.5554 16.5968 10.323C17.2608 10.0907 18.823 9.9745 18.823 9.9745C18.823 9.9745 18.1005 10.6909 17.3194 10.9039C16.382 11.1556 15.9524 11.6203 15.9524 12.2399ZM46.7868 18.281C46.6697 18.281 46.1229 18.0099 46.0643 17.6614C46.0057 17.3322 45.7323 16.035 45.0293 15.4154C44.3263 14.7764 42.8813 13.2468 42.8813 13.2468C42.8813 13.2468 43.5452 12.9757 43.7991 13.15C44.053 13.3242 45.7519 14.1568 46.162 15.2024C46.572 16.2479 46.904 18.2616 46.7868 18.281Z" fill="#FF8000"/>
<path d="M9.9415 45.0653C10.5664 45.3925 12.0505 45.8921 13.8822 45.8921C11.9704 45.5513 10.7714 45.044 10.2598 44.6955L9.9415 45.0653ZM9.19164 43.2704C8.88114 42.0022 8.54331 40.4067 8.53159 40.1589C8.49254 39.7522 8.80498 39.0939 9.35176 38.5324C9.89854 37.9709 9.03932 39.2721 9.03932 39.2721C9.03932 39.2721 8.82256 39.789 8.83037 40.0988C8.83818 40.4086 9.08033 41.4426 9.20726 42.0893C9.20726 42.0893 9.32638 42.523 9.48065 43.0284L9.19164 43.2723V43.2704ZM9.89073 7.97261C10.1055 7.72089 11.5779 7.10904 13.8822 7.10904C13.0445 7.31815 12.4352 7.18262 10.2032 8.29402L9.89073 7.97261ZM9.49236 9.99986L8.87528 12.3698C8.75812 12.8171 8.81865 13.2895 9.04127 13.6962L9.44159 14.4261C9.44159 14.4261 9.89659 15.0496 9.34981 14.4881C8.80303 13.9266 8.49059 13.2682 8.52964 12.8423C8.55308 12.5886 8.87333 11.0629 9.17406 9.81591L9.49041 10.0018L9.49236 9.99986ZM15.835 38.4569L15.9326 39.7929V39.8123L15.2101 40.1414C15.2296 39.6574 15.2687 39.1733 15.3273 38.9603C15.464 38.4956 15.835 38.4569 15.835 38.4569ZM46.7671 34.7587C46.8842 34.7587 46.5718 36.7143 46.1617 37.7792L45.5173 37.0241L45.4782 37.0434C45.8493 36.4045 46.0055 35.63 46.0445 35.3783C46.1031 35.0297 46.6499 34.7587 46.7671 34.7587ZM15.9326 13.2082V13.2276L15.835 14.5636C15.835 14.5636 15.464 14.5249 15.3273 14.0602C15.2687 13.8472 15.2296 13.3631 15.2101 12.8791L15.9326 13.2082ZM46.7671 18.2618C46.6499 18.2618 46.1031 17.9908 46.0445 17.6422C46.0055 17.3905 45.8493 16.616 45.4782 15.9771L45.5173 15.9964L46.1617 15.2413C46.5718 16.3062 46.8842 18.2618 46.7671 18.2618Z" fill="#E0E6E6"/>
<path opacity="0.2" d="M78.9295 30.8279V26.7424H75.354V30.8279H78.9295ZM75.354 22.047H78.9295V26.1325H75.354V22.047Z" fill="black"/>
<path opacity="0.2" d="M8.86369 39.7732C8.70746 40.6058 9.70338 43.9555 9.9963 44.4783C10.2697 45.0011 13.7847 45.9111 13.7847 45.9111H28.4696C30.6372 45.9111 33.0782 45.582 34.738 44.8849C36.3979 44.1879 38.7608 43.4521 38.7608 43.4521C38.7608 43.4521 39.1572 42.4007 39.3661 41.5836C36.0405 42.3949 32.3771 42.726 28.372 43.1423C24.0759 43.5876 18.6471 43.1617 17.7879 43.0455C16.9287 42.9099 15.2102 42.8906 15.2102 40.8963C15.2102 38.9019 15.6203 38.4372 15.6203 38.4372V35.862C13.6636 35.8059 12.2459 35.6684 11.539 36.1912C10.6798 36.8108 9.00038 38.9406 8.86369 39.7732ZM28.372 9.85819C24.0954 9.41285 18.6471 9.83883 17.7879 9.955C16.9287 10.0905 15.2102 10.1099 15.2102 12.1042C15.2298 14.1179 15.6203 14.5826 15.6203 14.5826V17.1578C13.6636 17.214 12.2459 17.3515 11.539 16.8287C10.6798 16.2091 9.00038 14.0792 8.86369 13.2466C8.70746 12.414 9.70338 9.06433 9.9963 8.54154C10.2697 8.01875 13.7847 7.10872 13.7847 7.10872H28.4696C30.6372 7.10872 33.0782 7.43788 34.738 8.13493C36.3979 8.83198 38.7608 9.56775 38.7608 9.56775C38.7608 9.56775 39.1513 10.5998 39.3603 11.4149C36.0366 10.6056 32.3732 10.2725 28.372 9.85819Z" fill="black"/>
<path opacity="0.1" d="M46.2594 31.3893H43.9941C43.9941 31.3893 43.7012 34.7778 43.5841 35.5716C43.4669 36.3655 43.0959 36.6366 42.3538 37.0045C41.6117 37.3724 39.1708 38.1081 37.218 38.5147C35.2652 38.9214 33.2148 39.2892 28.5867 39.7346C23.9391 40.1993 20.9318 39.812 19.7601 39.6378C18.5885 39.4635 18.5299 38.8245 18.5299 38.5147V36.9851L16.2451 37.0045V36.2881H18.5103V16.7319H16.2451V15.9962H18.5299V14.4665C18.5299 14.1567 18.5885 13.5178 19.7601 13.3435C20.9318 13.1692 23.9391 12.782 28.5867 13.2467C33.2148 13.692 35.2652 14.0599 37.218 14.4665C39.1708 14.8731 41.6117 15.6089 42.3538 15.9768C43.0959 16.3447 43.4669 16.6158 43.5841 17.4096C43.7012 18.2035 43.9941 21.6113 43.9941 21.6113H46.2594V22.1147L44.0332 22.1341C44.0332 22.1341 44.1894 25.9485 44.1894 26.2196V26.8004C44.1894 27.0715 44.0332 30.8666 44.0332 30.8666L46.2594 30.8859V31.3893ZM43.2911 17.7582C43.1935 17.1192 43.0373 16.8288 42.6663 16.5383C42.2952 16.2479 41.1821 15.8606 38.4482 15.1055C35.7143 14.3504 32.5313 13.8857 28.3719 13.4984C24.7983 13.1499 20.8927 13.3241 19.3696 13.7308C18.94 13.8857 18.8228 14.2729 18.8228 14.5827V16.0736L43.6622 21.65C43.6622 21.65 43.3693 18.3971 43.2911 17.7582ZM43.7012 22.0954L18.8228 16.7126V26.0453H43.8379L43.7012 22.0954ZM18.8228 38.4373C18.8228 38.7471 18.94 39.1343 19.3696 39.2892C20.8927 39.6958 24.7983 39.8701 28.3719 39.5216C32.5313 39.1343 35.7143 38.689 38.4482 37.9145C41.1821 37.1594 42.2952 36.7721 42.6663 36.4817C43.0373 36.1912 43.1935 35.9008 43.2911 35.2618C43.3693 34.6229 43.6622 31.37 43.6622 31.37L18.8228 36.9464V38.4373ZM18.8228 36.3268L43.7012 30.944L43.8379 27.0134H18.8228V36.3268Z" fill="black"/>
<path d="M43.1743 45.3884L43.682 45.2916L42.815 40.5575C42.0612 40.8266 41.1629 41.1035 40.0889 41.3998C39.8272 41.4695 39.3976 41.576 39.3663 41.5837C39.1574 42.4008 38.761 43.4522 38.761 43.4522C38.761 43.4522 38.1595 43.64 37.3511 43.9149L42.3346 43.1424L42.3892 41.4753L43.1743 45.3884ZM57.4061 33.4456L57.3886 33.5773C57.369 33.7322 57.5057 33.8871 57.701 33.8871L61.7237 34.0188L63.0946 34.1872C63.1063 34.2163 63.0321 34.3712 62.8368 34.3518L57.4081 34.1776C57.1933 34.1776 57.0371 34.0033 57.0566 33.7903L57.0839 33.3992L57.4042 33.4456H57.4061ZM40.0889 11.6009C39.8272 11.5312 39.5636 11.4634 39.298 11.3995C39.3195 11.4053 39.339 11.4092 39.3605 11.415C39.1515 10.6018 38.761 9.56784 38.761 9.56784C38.761 9.56784 38.1478 9.37614 37.3296 9.09732L37.3354 9.08377L42.3346 9.85827L42.3892 11.5351L43.1743 7.61222L43.682 7.70903L42.8169 12.4451C42.0631 12.174 41.1649 11.8991 40.0889 11.6009ZM45.3419 13.5604L45.3243 13.6746C45.0958 13.5023 44.8302 13.3377 44.5236 13.1751L44.6369 12.7433L45.4336 12.8382L45.9453 10.0713L46.8631 10.2842L46.2382 13.6533L45.3419 13.5604ZM61.7901 19.0129L57.703 19.1329C57.5077 19.1329 57.371 19.2878 57.371 19.4427L57.3808 19.6015L57.0878 19.6421L57.0585 19.2297C57.039 19.0167 57.1952 18.8425 57.41 18.8425L62.8388 18.6682C63.0341 18.6488 63.1961 18.7689 63.2176 18.8367L61.7921 19.0129H61.7901ZM48.6225 33.1513C48.1539 33.558 48.3101 34.4874 48.3101 34.4874H47.8024L47.3669 32.5763C47.3962 32.2355 47.4196 31.8966 47.4391 31.5617C47.6793 32.615 47.9976 33.9878 47.9976 33.8658C47.9976 33.6722 48.1929 33.1688 48.5054 32.8396C48.8178 32.5104 49.4486 31.7998 49.4486 31.7998L49.9289 32.3284C49.9289 32.3284 49.0912 32.7641 48.6225 33.1513ZM45.4395 40.1819L44.6389 40.2767L44.5197 39.8275C44.8263 39.6649 45.0919 39.5003 45.3223 39.328L45.3399 39.4403L46.2401 39.3473L46.865 42.7164L45.9472 42.9294L45.4395 40.1819ZM47.9976 19.1523C47.9976 19.0322 47.6813 20.4089 47.4411 21.468C47.4216 21.1311 47.3962 20.7884 47.3688 20.4437L47.8043 18.5327H48.312C48.312 18.5327 48.1558 19.4621 48.6245 19.8687C49.0931 20.2559 49.9407 20.7168 49.9407 20.7168L49.4603 21.2047C49.4603 21.2047 48.8198 20.4902 48.5073 20.1804C48.1949 19.8512 47.9996 19.3478 47.9996 19.1542L47.9976 19.1523Z" fill="#4B4B4B"/>
<path d="M51.7079 48.2349L50.5558 52.8238L51.1221 52.9787C51.4345 53.0562 51.747 52.9207 51.8056 52.6689L52.7819 49.0675C52.8601 48.7771 52.6648 48.4673 52.3133 48.3898L51.7079 48.2349ZM52.3133 4.61126L51.7079 4.76616L50.5558 0.15789L51.1221 0.00299072C51.4345 -0.0744591 51.747 0.0610809 51.8056 0.312794L52.7819 3.93357C52.8601 4.22401 52.6648 4.53381 52.3133 4.61126ZM37.2788 43.9384L37.314 44.072C37.314 44.072 38.2318 44.2463 38.4466 44.4786C38.6614 44.7303 39.2667 47.4411 39.2667 47.4411H39.6671L39.9893 49.2611L48.1128 47.8283L46.8631 40.7765L47.2927 41.4L51.8563 46.8176L51.413 47.1119L51.9208 47.7315L52.3738 47.4295L52.448 47.5185L53.2682 48.5447L52.7409 51.5072H53.0534C53.0534 51.5072 53.7954 48.6803 53.6783 48.3317C53.5611 48.0026 52.8581 47.2087 52.8581 47.2087L52.8073 47.141L53.4635 46.7053L52.9557 46.0857L52.3289 46.502L47.8199 40.4899L46.4549 38.4743L46.3729 38.0154C46.2694 38.2729 46.1581 38.484 46.0409 38.6311C45.9316 38.7725 45.8066 38.908 45.668 39.0397L46.0585 39.607L44.3752 39.9033C44.1585 40.0117 43.9222 40.1201 43.6644 40.2285L46.1815 39.7871L46.576 40.3622L46.6072 40.55L39.296 41.8356C39.2746 41.9131 39.2511 41.9905 39.2277 42.068L46.6463 40.7649L46.783 41.5588L39.0695 42.9335L39.0285 42.6895C38.882 43.1252 38.7571 43.4563 38.7571 43.4563C38.7571 43.4563 38.1205 43.6538 37.2769 43.9423L37.2788 43.9384ZM39.9912 48.0994L47.7047 46.744L47.8609 47.6541L40.1474 49.0094L39.9912 48.0994ZM39.8155 47.1119L47.529 45.7565L47.6657 46.5698L39.9522 47.9251L39.8155 47.1119ZM39.6397 46.1051L47.3532 44.7497L47.4899 45.5629L39.7764 46.9183L39.6397 46.1051ZM39.464 45.1176L47.1775 43.7622L47.3142 44.5561L39.6007 45.9308L39.464 45.1176ZM39.2882 44.0914L47.0017 42.736L47.1384 43.5492L39.4249 44.9046L39.2882 44.0914ZM39.1125 43.0845L46.826 41.7291L46.9627 42.5424L39.2492 43.8784L39.1125 43.0845ZM53.0749 1.4939H52.7624L53.2701 4.45636L52.45 5.48257L52.366 5.58326L51.9227 5.28894L51.415 5.90854L51.8485 6.19704L47.2946 11.6011L46.8728 12.2149L48.1148 5.19213L39.9912 3.75931L39.669 5.57938H39.2687C39.2687 5.57938 38.6633 8.29013 38.4485 8.54184C38.2337 8.77419 37.3159 8.94846 37.3159 8.94846L37.2808 9.08205C38.1244 9.37056 38.761 9.56805 38.761 9.56805C38.761 9.56805 38.8879 9.90302 39.0344 10.3406L39.0734 10.1102L46.7869 11.4656L46.6502 12.2788L39.2374 10.9757C39.2589 11.0473 39.2785 11.1171 39.298 11.1868L46.6092 12.4724L46.5819 12.6351L46.1698 13.2334L43.7425 12.8074C43.9925 12.9139 44.2229 13.0204 44.4338 13.1288L46.0468 13.4115L45.668 13.9614C45.8086 14.0931 45.9335 14.2286 46.0409 14.37C46.1581 14.5229 46.2714 14.7378 46.3768 15.0031L46.451 14.581L47.8375 12.5305L52.3309 6.5204L52.9538 6.93476L53.4615 6.31516L52.8093 5.88144L52.8757 5.79237C52.8757 5.79237 53.5787 5.01787 53.6958 4.66935C53.813 4.32082 53.071 1.4939 53.071 1.4939H53.0749ZM47.7047 6.25707L39.9912 4.9017L40.1474 3.99166L47.8609 5.34703L47.7047 6.25707ZM47.529 7.24456L39.8155 5.88918L39.9522 5.07596L47.6657 6.4507L47.529 7.24456ZM47.3532 8.2514L39.6397 6.89603L39.7764 6.10217L47.4899 7.43818L47.3532 8.2514ZM47.1775 9.25826L39.464 7.90288L39.6007 7.08966L47.3142 8.44503L47.1775 9.25826ZM47.0017 10.2651L39.2882 8.90973L39.4249 8.0965L47.1384 9.45188L47.0017 10.2651ZM46.826 11.272L39.1125 9.91658L39.2492 9.10336L46.9627 10.4587L46.826 11.272Z" fill="#464646"/>
<path opacity="0.25" d="M85.0804 20.3527L82.4637 20.8174C82.4637 20.8174 78.8315 20.0622 77.6013 20.2171C76.4296 20.372 76 18.8424 76 18.8424C76 18.8424 79.7689 19.036 80.6281 19.0748C81.7021 19.0941 82.3465 19.4233 83.0495 19.6363C83.9088 19.8686 85.0804 20.3527 85.0804 20.3527Z" fill="black"/>
<path opacity="0.25" d="M85.0804 32.6848L82.4637 32.2201C82.4637 32.2201 78.8315 32.9752 77.6013 32.8203C76.4296 32.6654 76 34.1951 76 34.1951C76 34.1951 79.7689 34.0014 80.6281 33.9627C81.7021 33.9434 82.3465 33.6142 83.0495 33.4012C83.9088 33.1689 85.0804 32.6848 85.0804 32.6848Z" fill="black"/>
<path opacity="0.2" d="M67.8769 33.8058L67.6035 32.2762L70.2788 32.4311L70.5913 34.0188L67.8769 33.8058Z" fill="black"/>
<path opacity="0.2" d="M67.6035 20.7498L67.8769 19.2201L70.5913 19.0071L70.2788 20.5949L67.6035 20.7498Z" fill="black"/>
<path opacity="0.2" d="M78.9295 30.8279V26.7424H75.354V30.8279H78.9295ZM75.354 22.047H78.9295V26.1325H75.354V22.047Z" fill="black"/>
<path d="M87.7561 23.0635C87.7561 23.0635 84.5536 22.2115 84.1435 22.0179C83.7529 21.8049 83.2647 21.6113 83.128 21.4177C82.9913 21.224 82.8156 21.0498 83.6943 20.9917C84.5926 20.9336 86.272 20.8174 86.272 20.8174C86.272 20.8174 86.9555 21.4757 87.2484 21.9985C87.5608 22.502 87.7561 23.0635 87.7561 23.0635ZM87.7561 29.9759C87.7561 29.9759 84.5536 30.8085 84.1435 31.0021C83.7529 31.1957 83.2647 31.3893 83.128 31.6023C82.9913 31.8153 82.8156 31.9702 83.6943 32.0283C84.5926 32.0864 86.272 32.2219 86.272 32.2219C86.272 32.2219 86.9555 31.5636 87.2484 31.0602C87.5608 30.5374 87.7561 29.9759 87.7561 29.9759Z" fill="#E0E6E6"/>
<path d="M87.0333 29.6274C86.5646 29.763 85.6273 30.034 85.3734 30.1115L85.2953 30.1309C84.9633 30.1115 84.7095 28.485 84.7095 26.5101C84.7095 24.5351 84.9633 22.9087 85.2953 22.8893L85.3734 22.9087C85.6273 22.9861 86.5646 23.2765 87.0333 23.4121C87.5801 23.567 87.912 23.78 88.1464 24.3608C88.3026 24.7481 88.3807 25.6775 88.3807 26.5294C88.4002 27.3814 88.3026 28.3108 88.1464 28.698C87.9316 29.2595 87.5996 29.4725 87.0333 29.6274Z" fill="black"/>
<path d="M87.0137 26.6457C87.0137 27.1104 87.2285 27.4783 87.5019 27.4783C87.7753 27.4783 88.0096 27.1104 88.0096 26.6457C88.0096 26.181 87.7753 25.8131 87.5019 25.8131C87.2285 25.8325 87.0137 26.2003 87.0137 26.6457Z" fill="url(#paint8_linear_6561_4405)"/>
</g>
<defs>
<linearGradient id="paint0_linear_6561_4405" x1="0.427734" y1="26.5003" x2="39.0538" y2="26.5003" gradientUnits="userSpaceOnUse">
<stop/>
<stop offset="0.15" stop-color="#474747"/>
<stop offset="0.2" stop-color="#2D2D2D"/>
<stop offset="0.25" stop-color="#191919"/>
<stop offset="0.3" stop-color="#0A0A0A"/>
<stop offset="0.37" stop-color="#020202"/>
<stop offset="0.48"/>
<stop offset="0.58" stop-color="#030303"/>
<stop offset="0.67" stop-color="#0E0E0E"/>
<stop offset="0.76" stop-color="#212121"/>
<stop offset="0.84" stop-color="#3A3A3A"/>
<stop offset="0.88" stop-color="#494949"/>
<stop offset="1"/>
</linearGradient>
<linearGradient id="paint1_linear_6561_4405" x1="0" y1="8.11191" x2="3.27677" y2="8.11191" gradientUnits="userSpaceOnUse">
<stop stop-color="#474747"/>
<stop offset="0.1" stop-color="#202020"/>
<stop offset="0.16" stop-color="#0D0D0D"/>
<stop offset="0.2" stop-color="#222222"/>
<stop offset="0.25" stop-color="#363636"/>
<stop offset="0.31" stop-color="#454545"/>
<stop offset="0.37" stop-color="#4D4D4D"/>
<stop offset="0.48" stop-color="#505050"/>
<stop offset="0.57" stop-color="#4C4C4C"/>
<stop offset="0.66" stop-color="#414141"/>
<stop offset="0.73" stop-color="#2E2E2E"/>
<stop offset="0.81" stop-color="#151515"/>
<stop offset="0.84" stop-color="#0B0B0B"/>
<stop offset="0.93" stop-color="#2E2E2E"/>
<stop offset="1" stop-color="#494949"/>
</linearGradient>
<linearGradient id="paint2_linear_6561_4405" x1="0" y1="44.6507" x2="0.195278" y2="44.6507" gradientUnits="userSpaceOnUse">
<stop stop-color="#474747"/>
<stop offset="0.1" stop-color="#202020"/>
<stop offset="0.16" stop-color="#0D0D0D"/>
<stop offset="0.2" stop-color="#222222"/>
<stop offset="0.25" stop-color="#363636"/>
<stop offset="0.31" stop-color="#454545"/>
<stop offset="0.37" stop-color="#4D4D4D"/>
<stop offset="0.48" stop-color="#505050"/>
<stop offset="0.57" stop-color="#4C4C4C"/>
<stop offset="0.66" stop-color="#414141"/>
<stop offset="0.73" stop-color="#2E2E2E"/>
<stop offset="0.81" stop-color="#151515"/>
<stop offset="0.84" stop-color="#0B0B0B"/>
<stop offset="0.93" stop-color="#2E2E2E"/>
<stop offset="1" stop-color="#494949"/>
</linearGradient>
<linearGradient id="paint3_linear_6561_4405" x1="45.8491" y1="26.4907" x2="54.002" y2="26.4907" gradientUnits="userSpaceOnUse">
<stop/>
<stop offset="0.4" stop-color="#272727"/>
<stop offset="0.63" stop-color="#2F2F2F"/>
<stop offset="0.74" stop-color="#363636"/>
<stop offset="1" stop-color="#363636"/>
</linearGradient>
<linearGradient id="paint4_linear_6561_4405" x1="60.2412" y1="53" x2="89.201" y2="53" gradientUnits="userSpaceOnUse">
<stop/>
<stop offset="0.15" stop-color="#474747"/>
<stop offset="0.2" stop-color="#2D2D2D"/>
<stop offset="0.25" stop-color="#191919"/>
<stop offset="0.3" stop-color="#0A0A0A"/>
<stop offset="0.37" stop-color="#020202"/>
<stop offset="0.48"/>
<stop offset="0.58" stop-color="#030303"/>
<stop offset="0.67" stop-color="#0E0E0E"/>
<stop offset="0.76" stop-color="#212121"/>
<stop offset="0.84" stop-color="#3A3A3A"/>
<stop offset="0.88" stop-color="#494949"/>
<stop offset="1"/>
</linearGradient>
<linearGradient id="paint5_linear_6561_4405" x1="78.4004" y1="26.4772" x2="89.004" y2="26.4772" gradientUnits="userSpaceOnUse">
<stop offset="0.05" stop-color="#0D0D0D"/>
<stop offset="0.1" stop-color="#222222"/>
<stop offset="0.17" stop-color="#363636"/>
<stop offset="0.24" stop-color="#454545"/>
<stop offset="0.33" stop-color="#4D4D4D"/>
<stop offset="0.48" stop-color="#505050"/>
<stop offset="0.57" stop-color="#4C4C4C"/>
<stop offset="0.66" stop-color="#414141"/>
<stop offset="0.73" stop-color="#2E2E2E"/>
<stop offset="0.81" stop-color="#151515"/>
<stop offset="0.84" stop-color="#0B0B0B"/>
<stop offset="0.93" stop-color="#2E2E2E"/>
<stop offset="1" stop-color="#494949"/>
</linearGradient>
<linearGradient id="paint6_linear_6561_4405" x1="78.3241" y1="26.5004" x2="58.4839" y2="26.5004" gradientUnits="userSpaceOnUse">
<stop stop-color="#5C5C5C"/>
<stop offset="0.5" stop-color="#484848"/>
<stop offset="1" stop-color="#0E0E0E"/>
</linearGradient>
<linearGradient id="paint7_linear_6561_4405" x1="74.528" y1="26.5121" x2="58.6851" y2="26.5121" gradientUnits="userSpaceOnUse">
<stop stop-color="#0E0E0E"/>
<stop offset="0.5" stop-color="#484848"/>
<stop offset="1" stop-color="#5C5C5C"/>
</linearGradient>
<linearGradient id="paint8_linear_6561_4405" x1="87.5605" y1="26.6092" x2="88.9102" y2="26.6092" gradientUnits="userSpaceOnUse">
<stop stop-color="#E0E6E6"/>
<stop offset="0.24" stop-color="#8C8C8C"/>
<stop offset="0.43" stop-color="#E0E6E6"/>
<stop offset="0.7" stop-color="#8E8E8E"/>
<stop offset="1" stop-color="#E0E6E6"/>
</linearGradient>
<clipPath id="clip0_6561_4405">
<rect width="100" height="53" fill="white" transform="matrix(1 0 0 -1 0 53)"/>
</clipPath>
</defs>
</svg>
