<svg width="1920" height="1080" viewBox="0 0 1920 1080" fill="none" xmlns="http://www.w3.org/2000/svg">
<path d="M1920 498.858V480.599V475.121H1892.6V480.86H1589.43V453.21H1550.3V475.382V481.12H1338.7H1339.23V400.52H1343.14V382H1015.96V400.259H1017.79V480.338L471.455 480.338V400.52H475.63V382L148.716 382V400.259H150.803V480.599H47.4847C47.4847 480.338 30.265 480.338 30.265 480.338C30.265 480.599 29.7432 480.599 29.7432 480.599L29.7432 432.082H24.786H15.6543V429.734H5.2181C2.60905 429.734 0.260905 431.821 0.260905 434.69L0.260905 473.817C0.260905 475.903 1.82633 477.469 3.91358 477.469H4.95719V478.773H3.13086C1.30453 478.773 0 480.077 0 481.903L0 492.597C0 494.423 1.30453 495.728 3.13086 495.728H4.95719L4.95719 582.067H3.13086C1.30453 582.067 0 583.371 0 585.197L0 595.891C0 597.717 1.30453 599.021 3.13086 599.021H4.95719V600.326H3.91358C1.82633 600.326 0.260905 601.891 0.260905 603.977L0.260905 642.843C0.260905 645.712 2.60905 647.799 5.2181 647.799H15.1325V645.191H24.2642H29.2214L29.2214 596.935H29.7432V597.456H46.9629V596.935H150.281L150.281 678.318H148.194V696.577H475.369V678.318H470.934V677.796V597.717V597.195H1017.27V597.717V677.796V678.318H1015.18V696.577H1342.36V678.318H1337.92V677.796H1338.44V597.717H1337.92V597.195H1549.78V602.934V625.888H1588.91V597.456H1892.08V603.717H1919.48V597.456V579.197V498.858H1920ZM1815.9 498.858V579.197H1815.12V499.119H1816.16L1815.9 498.858ZM1032.92 579.197V499.119H1170.16V579.197H1170.42L1032.4 579.197H1032.92ZM1185.55 579.197H1185.81V499.119L1323.05 499.119V579.197H1185.29H1185.55ZM1323.05 400.52V480.599L1185.29 480.599H1185.55V400.52H1322.79H1323.05ZM1032.66 480.599H1033.18V400.52H1170.42V480.599H1170.68H1032.66ZM856.29 498.858V578.936H708.879V563.808H712.792C715.402 563.808 717.489 561.721 717.489 559.112C717.489 556.504 715.402 554.417 712.792 554.417H708.879V523.899H712.792C715.402 523.899 717.489 521.812 717.489 519.203C717.489 516.595 715.402 514.508 712.792 514.508H708.879V498.858H856.029H856.29ZM165.936 579.197V499.119H172.719V579.197H173.241H165.936ZM210.55 579.197V499.119H227.509V579.458H210.55V579.197ZM252.034 498.858H303.433V578.936H303.693H252.034V498.597V498.858ZM318.565 579.197V499.119H373.355V579.458H318.565V579.197ZM397.88 498.858H440.147V578.936H440.669H397.88V498.597V498.858ZM449.8 579.197V499.119H456.062V579.197H449.539H449.8ZM456.323 400.52V480.599H397.88V472.252H438.581C443.017 472.252 446.669 468.6 446.669 464.166V445.907C446.669 441.472 443.017 437.82 438.581 437.82H425.014V434.69H438.581C443.017 434.69 446.669 431.038 446.669 426.604V408.345C446.669 403.911 443.017 400.259 438.581 400.259H333.958C329.523 400.259 325.87 403.911 325.87 408.345V426.604C325.87 431.038 329.523 434.69 333.958 434.69H348.308V437.82H333.958C329.523 437.82 325.87 441.472 325.87 445.907V464.166C325.87 468.6 329.523 472.252 333.958 472.252H373.616V480.599H318.826V400.52H456.323ZM165.675 480.599H165.936V400.52H303.433V480.599H303.693H252.034V472.252H292.735C297.171 472.252 300.823 468.6 300.823 464.166V445.907C300.823 441.472 297.171 437.82 292.735 437.82H279.168V434.69H292.735C297.171 434.69 300.823 431.038 300.823 426.604V408.345C300.823 403.911 297.171 400.259 292.735 400.259H188.113C183.677 400.259 180.024 403.911 180.024 408.345V426.604C180.024 431.038 183.677 434.69 188.113 434.69H202.462V437.82H188.113C183.677 437.82 180.024 441.472 180.024 445.907V464.166C180.024 468.6 183.677 472.252 188.113 472.252H227.77V480.599H165.675ZM29.7432 498.858H71.2271V578.936H71.7489H30.0041L30.0041 498.597L29.7432 498.858ZM80.6196 579.197H81.1415V499.119H150.542V579.458H80.6196V579.197ZM165.675 678.057H165.936L165.936 597.978H165.675V597.456H227.77V605.803H188.113C183.677 605.803 180.024 609.455 180.024 613.889L180.024 632.148C180.024 636.583 183.677 640.235 188.113 640.235H202.462V643.365H188.113C183.677 643.365 180.024 647.017 180.024 651.451V669.71C180.024 674.144 183.677 677.796 188.113 677.796H292.735C297.171 677.796 300.823 674.144 300.823 669.71V651.451C300.823 647.017 297.171 643.365 292.735 643.365H279.168V640.235H292.735C297.171 640.235 300.823 636.583 300.823 632.148V613.889C300.823 609.455 297.171 605.803 292.735 605.803H252.034V597.456H303.693V597.978H303.433V678.057H303.693V678.578H165.675V678.057ZM456.323 597.978V678.057V678.578H318.565V678.057V597.978V597.456H373.355V605.803H333.698C329.262 605.803 325.609 609.455 325.609 613.889V632.148C325.609 636.583 329.262 640.235 333.698 640.235H348.047V643.365H333.698C329.262 643.365 325.609 647.017 325.609 651.451V669.71C325.609 674.144 329.262 677.796 333.698 677.796H438.32C442.756 677.796 446.408 674.144 446.408 669.71V651.451C446.408 647.017 442.756 643.365 438.32 643.365H424.753V640.235H438.32C442.756 640.235 446.408 636.583 446.408 632.148V613.889C446.408 609.455 442.756 605.803 438.32 605.803H397.619V597.456H456.062V597.978H456.323ZM471.194 579.197V499.119L699.486 499.119V514.769H695.573C692.964 514.769 690.876 516.856 690.876 519.464C690.876 522.073 692.964 524.159 695.573 524.159H699.486V554.678H695.573C692.964 554.678 690.876 556.765 690.876 559.373C690.876 561.982 692.964 564.068 695.573 564.068H699.486V579.197H470.934H471.194ZM865.683 579.197H866.987V499.119H1017.53V579.197H865.422H865.683ZM1032.66 678.057H1033.18V597.978H1032.66V597.456L1170.68 597.456V597.978H1170.42V678.057H1170.68V678.578H1032.66V678.057ZM1323.31 597.978V678.057V678.578H1185.55V678.057H1185.81V597.978H1185.55V597.456H1323.31V597.978ZM1438.89 579.197V569.546C1438.89 565.633 1435.76 562.503 1431.85 562.503H1400.02V559.634C1400.02 558.591 1399.23 557.808 1398.19 557.808H1396.1C1393.75 557.808 1391.67 559.373 1391.15 561.721C1391.15 561.721 1391.15 562.243 1391.15 562.503H1386.45C1382.54 562.503 1379.4 565.633 1379.4 569.546V573.459V578.415V578.936H1338.7H1339.23V498.858H1379.4C1379.4 499.119 1378.88 499.119 1378.88 499.119V504.335H1379.4V507.205C1379.4 511.9 1383.32 515.552 1387.75 515.552H1391.41C1391.93 517.638 1393.75 519.203 1396.1 519.203H1398.45C1399.49 519.203 1400.28 518.421 1400.28 517.378V515.552H1430.8C1435.5 515.552 1439.15 511.639 1439.15 507.205V504.335V499.119C1439.15 498.858 1550.04 498.858 1550.04 498.858V578.936H1550.56H1439.15L1438.89 579.197ZM1589.43 579.197V499.119H1808.33V579.197H1589.17H1589.43ZM1892.34 579.197H1890V498.858H1892.34V578.936V579.197Z" fill="#231F20"/>
<path d="M1920 498.858V480.599V475.121H1892.61V480.599H1589.43V452.949H1550.3V480.599H1338.44V400.52H1342.88V382H1015.7V400.259H1017.79V480.599L471.456 480.599V400.52H475.891V382L148.717 382V400.259H150.804V480.599H29.7438L29.7438 432.082H12.0023C8.08871 432.082 5.21875 435.212 5.21875 438.864L5.21875 638.67C5.21875 642.582 8.34961 645.451 12.0023 645.451H29.7438L29.7438 597.195H150.804L150.804 678.578H148.717V696.838H475.891V678.578H471.456V597.195H1017.79V678.578H1015.7V696.838H1342.88V678.578H1338.44V597.195H1550.3V625.627H1589.43V597.195H1892.61V603.456H1920V597.195V578.936V498.597V498.858ZM1323.31 480.599L1185.55 480.599V400.52H1323.31V480.86V480.599ZM1185.55 498.858L1323.31 498.858V579.197H1185.55V498.858ZM1170.68 579.197L1032.66 579.197V498.858H1170.68V579.197ZM1032.66 400.52H1170.68V480.86H1032.66V400.52ZM456.324 480.599H318.566V400.52H456.324V480.86V480.599ZM440.669 499.119V579.197H318.827V498.858H456.584V579.197H450.062V499.119H440.93H440.669ZM172.981 499.119V579.197H165.675V498.858H303.694V579.197H210.812V499.119H173.242H172.981ZM165.675 400.52H303.694V480.86H165.675V400.52ZM80.6203 579.197V499.119H71.4886V579.197H29.7438L29.7438 498.858H150.804V579.197H80.8812H80.6203ZM165.675 597.456H303.694V678.839H165.675L165.675 597.456ZM456.324 678.839H318.566V597.456H456.324V678.839ZM865.683 579.197V499.119H856.552V579.197H709.141V499.119H700.009V579.197H471.456V498.858L1017.79 498.858V579.197H865.683ZM1032.66 597.456L1170.68 597.456V678.839H1032.66V597.456ZM1323.31 678.839H1185.55V597.456H1323.31V678.839ZM1438.89 579.197V569.546C1438.89 565.633 1435.76 562.503 1431.85 562.503H1386.19C1382.28 562.503 1379.14 565.633 1379.14 569.546V579.197H1338.44V498.858H1379.14V507.205C1379.14 511.9 1383.06 515.552 1387.49 515.552H1430.28C1434.98 515.552 1438.63 511.639 1438.63 507.205V498.858H1550.04V579.197H1438.63H1438.89ZM1589.43 498.858H1815.9V579.197H1815.12V499.119H1808.59V579.197H1589.43V498.858ZM1892.34 579.197H1890V498.858H1892.34V579.197Z" fill="#FCEE21"/>
<path d="M278.906 439.385H202.2V433.646H278.906V439.385ZM425.013 433.646H348.307V439.385H425.013V433.646ZM278.906 638.669H202.2V644.408H278.906V638.669ZM425.013 638.669H348.307V644.408H425.013V638.669Z" fill="#231F20"/>
<path d="M373.616 597.196H397.88V606.325H373.616V597.196ZM227.509 606.586H251.773V597.457H227.509V606.586ZM227.509 579.198H251.773V498.858H227.509V579.198ZM373.616 579.198H397.88V498.858H373.616V579.198ZM373.616 472.252V480.599H397.88V472.252H373.616ZM227.509 480.599H251.773V472.252H227.509V480.599Z" fill="#423F3F"/>
<path d="M292.736 434.951H188.113C183.677 434.951 180.025 431.299 180.025 426.865V408.606C180.025 404.171 183.677 400.52 188.113 400.52H292.736C297.171 400.52 300.824 404.171 300.824 408.606V426.865C300.824 431.299 297.171 434.951 292.736 434.951ZM300.563 464.426V446.167C300.563 441.733 296.91 438.081 292.475 438.081H187.852C183.416 438.081 179.764 441.733 179.764 446.167V464.426C179.764 468.86 183.416 472.512 187.852 472.512H292.475C296.91 472.512 300.563 468.86 300.563 464.426ZM300.563 632.148V613.889C300.563 609.455 296.91 605.803 292.475 605.803H187.852C183.416 605.803 179.764 609.455 179.764 613.889V632.148C179.764 636.582 183.416 640.234 187.852 640.234H292.475C296.91 640.234 300.563 636.582 300.563 632.148ZM300.563 669.449V651.19C300.563 646.755 296.91 643.104 292.475 643.104H187.852C183.416 643.104 179.764 646.755 179.764 651.19V669.449C179.764 673.883 183.416 677.535 187.852 677.535H292.475C296.91 677.535 300.563 673.883 300.563 669.449Z" fill="url(#paint0_linear_2587_182)"/>
<path d="M438.581 434.951H333.958C329.523 434.951 325.87 431.299 325.87 426.865V408.606C325.87 404.171 329.523 400.52 333.958 400.52H438.581C443.016 400.52 446.669 404.171 446.669 408.606V426.865C446.669 431.299 443.016 434.951 438.581 434.951ZM446.669 464.426V446.167C446.669 441.733 443.016 438.081 438.581 438.081H333.958C329.523 438.081 325.87 441.733 325.87 446.167V464.426C325.87 468.86 329.523 472.512 333.958 472.512H438.581C443.016 472.512 446.669 468.86 446.669 464.426ZM446.669 632.148V613.889C446.669 609.455 443.016 605.803 438.581 605.803H333.958C329.523 605.803 325.87 609.455 325.87 613.889V632.148C325.87 636.582 329.523 640.234 333.958 640.234H438.581C443.016 640.234 446.669 636.582 446.669 632.148ZM446.669 669.449V651.19C446.669 646.755 443.016 643.104 438.581 643.104H333.958C329.523 643.104 325.87 646.755 325.87 651.19V669.449C325.87 673.883 329.523 677.535 333.958 677.535H438.581C443.016 677.535 446.669 673.883 446.669 669.449Z" fill="url(#paint1_linear_2587_182)"/>
<path d="M443.278 407.823V409.127H328.479V407.823H443.278ZM328.479 413.562H443.278V412.258H328.479V413.562ZM328.479 418.257H443.278V416.953H328.479V418.257ZM328.479 423.213H443.278V421.909H328.479V423.213ZM328.479 427.908H443.278V426.604H328.479V427.908ZM443.278 445.124V446.428H328.479V445.124H443.278ZM328.479 451.123H443.278V449.819H328.479V451.123ZM328.479 455.558H443.278V454.253H328.479V455.558ZM328.479 460.514H443.278V459.209H328.479V460.514ZM328.479 465.209H443.278V463.904H328.479V465.209ZM443.278 612.846V614.15H328.479V612.846H443.278ZM328.479 618.845H443.278V617.541H328.479V618.845ZM328.479 623.28H443.278V621.975H328.479V623.28ZM328.479 628.236H443.278V626.931H328.479V628.236ZM328.479 632.931H443.278V631.627H328.479V632.931ZM443.278 650.407V651.711H328.479V650.407H443.278ZM328.479 656.146H443.278V654.842H328.479V656.146ZM328.479 660.58H443.278V659.276H328.479V660.58ZM328.479 665.536H443.278V664.232H328.479V665.536ZM328.479 670.492H443.278V669.188H328.479V670.492Z" fill="url(#paint2_linear_2587_182)"/>
<path d="M297.432 407.823V409.127H182.634V407.823H297.432ZM182.634 413.562H297.432V412.258H182.634V413.562ZM182.634 418.257H297.432V416.953H182.634V418.257ZM182.634 423.213H297.432V421.909H182.634V423.213ZM182.634 427.908H297.432V426.604H182.634V427.908ZM297.432 445.124V446.428H182.634V445.124H297.432ZM182.634 451.123H297.432V449.819H182.634V451.123ZM182.634 455.558H297.432V454.253H182.634V455.558ZM182.634 460.514H297.432V459.209H182.634V460.514ZM182.634 465.209H297.432V463.904H182.634V465.209ZM297.432 612.846V614.15H182.634V612.846H297.432ZM182.634 618.845H297.432V617.541H182.634V618.845ZM182.634 623.28H297.432V621.975H182.634V623.28ZM182.634 628.236H297.432V626.931H182.634V628.236ZM182.634 632.931H297.432V631.627H182.634V632.931ZM297.432 650.407V651.711H182.634V650.407H297.432ZM182.634 656.146H297.432V654.842H182.634V656.146ZM182.634 660.58H297.432V659.276H182.634V660.58ZM182.634 665.536H297.432V664.232H182.634V665.536ZM182.634 670.492H297.432V669.188H182.634V670.492Z" fill="url(#paint3_linear_2587_182)"/>
<path d="M15.3932 645.452L15.3932 648.06H5.47884C2.60889 648.06 0.521647 645.712 0.521647 643.104L0.521647 604.238C0.521647 602.152 2.08708 600.587 4.17432 600.587H5.21794L5.21794 638.93C5.21794 642.843 8.3488 645.712 12.0015 645.712H15.3932V645.452ZM3.91341 477.469H4.95703L4.95703 438.864C4.95703 434.951 8.08789 432.082 11.7406 432.082H15.1323V429.734H5.21794C2.60889 429.734 0.260742 431.821 0.260742 434.69L0.260742 473.817C0.260742 475.904 1.82617 477.469 3.91341 477.469Z" fill="#CB2027"/>
<path d="M0 492.597L0 481.903C0 480.077 1.30453 478.772 3.13086 478.772H4.95719L4.95719 495.727H3.13086C1.30453 495.727 0 494.423 0 492.597ZM5.2181 582.066H3.39176C1.56543 582.066 0.260905 583.371 0.260905 585.196L0.260905 595.891C0.260905 597.717 1.56543 599.021 3.39176 599.021H5.2181L5.2181 582.066Z" fill="#E0E0E0"/>
<path opacity="0.2" d="M1822.68 498.857H1816.16V578.936H1822.68V498.857Z" fill="url(#paint4_linear_2587_182)"/>
<path d="M1399.75 510.074H1395.84C1393.49 510.074 1391.41 511.639 1390.88 513.987C1390.36 516.334 1392.71 519.465 1395.58 519.465H1397.93C1398.97 519.465 1399.75 518.682 1399.75 517.639V510.074ZM717.749 519.204C717.749 521.812 715.662 523.899 713.053 523.899H708.878V514.509H713.053C715.662 514.509 717.749 516.595 717.749 519.204ZM699.747 514.509H695.572C692.963 514.509 690.876 516.595 690.876 519.204C690.876 521.812 692.963 523.899 695.572 523.899H699.747V514.509Z" fill="url(#paint5_linear_2587_182)"/>
<path d="M1397.93 557.808H1395.84C1393.49 557.808 1391.41 559.373 1390.88 561.721C1390.36 564.068 1392.71 567.198 1395.58 567.198H1399.75V559.373C1399.75 558.33 1398.97 557.547 1397.93 557.547V557.808ZM717.749 559.112C717.749 561.721 715.662 563.807 713.053 563.807H708.878V554.417H713.053C715.662 554.417 717.749 556.504 717.749 559.112ZM699.747 554.417H695.572C692.963 554.417 690.876 556.504 690.876 559.112C690.876 561.721 692.963 563.807 695.572 563.807H699.747V554.417Z" fill="url(#paint6_linear_2587_182)"/>
<path opacity="0.1" d="M1852.95 521.029C1843.29 521.029 1835.47 528.855 1835.47 538.506C1835.47 548.157 1843.29 555.982 1852.95 555.982C1862.6 555.982 1870.43 548.157 1870.43 538.506C1870.43 528.855 1862.6 521.029 1852.95 521.029ZM1852.95 553.635C1844.6 553.635 1838.08 546.853 1838.08 538.767C1838.08 530.68 1844.86 523.899 1852.95 523.899C1861.04 523.899 1867.82 530.68 1867.82 538.767C1867.82 546.853 1861.04 553.635 1852.95 553.635Z" fill="black"/>
<defs>
<linearGradient id="paint0_linear_2587_182" x1="180.025" y1="539.027" x2="300.563" y2="539.027" gradientUnits="userSpaceOnUse">
<stop stop-color="#1D1C20"/>
<stop offset="0.2" stop-color="#34323A"/>
<stop offset="0.3" stop-color="#45424C"/>
<stop offset="0.4" stop-color="#4F4B57"/>
<stop offset="0.5" stop-color="#534F5B"/>
<stop offset="0.7" stop-color="#47434D"/>
<stop offset="0.8" stop-color="#37343D"/>
<stop offset="0.9" stop-color="#222025"/>
<stop offset="1"/>
</linearGradient>
<linearGradient id="paint1_linear_2587_182" x1="325.87" y1="382" x2="446.669" y2="382" gradientUnits="userSpaceOnUse">
<stop stop-color="#1D1C20"/>
<stop offset="0.2" stop-color="#34323A"/>
<stop offset="0.3" stop-color="#45424C"/>
<stop offset="0.4" stop-color="#4F4B57"/>
<stop offset="0.5" stop-color="#534F5B"/>
<stop offset="0.7" stop-color="#47434D"/>
<stop offset="0.8" stop-color="#37343D"/>
<stop offset="0.9" stop-color="#222025"/>
<stop offset="1"/>
</linearGradient>
<linearGradient id="paint2_linear_2587_182" x1="328.479" y1="539.027" x2="443.278" y2="539.027" gradientUnits="userSpaceOnUse">
<stop stop-color="#34323A"/>
<stop offset="0.1" stop-color="#4F4B57"/>
<stop offset="0.2" stop-color="#534F5B"/>
<stop offset="0.3" stop-color="#46424D"/>
<stop offset="0.4" stop-color="#35323D"/>
<stop offset="0.5" stop-color="#191720"/>
<stop offset="0.6" stop-color="#322F3A"/>
<stop offset="0.7" stop-color="#4F4B57"/>
<stop offset="0.8" stop-color="#534F5B"/>
<stop offset="1"/>
</linearGradient>
<linearGradient id="paint3_linear_2587_182" x1="182.634" y1="382" x2="297.432" y2="382" gradientUnits="userSpaceOnUse">
<stop stop-color="#34323A"/>
<stop offset="0.1" stop-color="#4F4B57"/>
<stop offset="0.2" stop-color="#534F5B"/>
<stop offset="0.3" stop-color="#46424D"/>
<stop offset="0.4" stop-color="#35323D"/>
<stop offset="0.5" stop-color="#191720"/>
<stop offset="0.6" stop-color="#322F3A"/>
<stop offset="0.7" stop-color="#4F4B57"/>
<stop offset="0.8" stop-color="#534F5B"/>
<stop offset="1"/>
</linearGradient>
<linearGradient id="paint4_linear_2587_182" x1="1819.29" y1="579.197" x2="1819.29" y2="498.857" gradientUnits="userSpaceOnUse">
<stop stop-color="#DDDDDD"/>
<stop offset="0.1" stop-color="white"/>
<stop offset="0.9" stop-color="white"/>
<stop offset="1"/>
</linearGradient>
<linearGradient id="paint5_linear_2587_182" x1="1045.45" y1="523.899" x2="1045.45" y2="510.074" gradientUnits="userSpaceOnUse">
<stop stop-color="#0C0C0F"/>
<stop offset="0.1" stop-color="#272630"/>
<stop offset="0.2" stop-color="#3C3B4A"/>
<stop offset="0.3" stop-color="#4C4A5C"/>
<stop offset="0.4" stop-color="#555367"/>
<stop offset="0.5" stop-color="#655F68"/>
<stop offset="0.6" stop-color="#A88E5D"/>
<stop offset="1"/>
</linearGradient>
<linearGradient id="paint6_linear_2587_182" x1="-0.000508323" y1="567.198" x2="2.60735" y2="554.417" gradientUnits="userSpaceOnUse">
<stop stop-color="#0C0C0F"/>
<stop offset="0.1" stop-color="#272630"/>
<stop offset="0.2" stop-color="#3C3B4A"/>
<stop offset="0.3" stop-color="#4C4A5C"/>
<stop offset="0.4" stop-color="#555367"/>
<stop offset="0.5" stop-color="#655F68"/>
<stop offset="0.6" stop-color="#A88E5D"/>
<stop offset="1"/>
</linearGradient>
</defs>
</svg>
