<svg width="100" height="43" viewBox="0 0 100 43" fill="none" xmlns="http://www.w3.org/2000/svg">
<g clip-path="url(#clip0_6561_4917)">
<path d="M100 21.3807L99.7203 29.3826C99.7018 29.3791 99.7018 29.3791 99.7203 29.3826C99.6978 29.7922 99.597 30.2018 99.5432 30.4493C99.5171 30.5695 99.4563 30.6462 99.3886 30.6462H98.7302C98.7302 30.6462 97.8392 34.7491 96.1265 36.1156C96.0813 36.1557 95.8676 36.3091 95.8155 36.3404C95.8068 36.3457 95.4924 36.506 95.4351 36.5304C95.4282 36.5339 95.2979 36.5844 95.2388 36.6054C95.2354 36.6054 94.5006 36.8023 94.445 36.8128C94.4398 36.8128 93.8266 36.8999 93.7884 36.9034C93.7832 36.9034 93.5122 36.9226 93.4931 36.9243C93.4931 36.9243 93.4897 36.9243 93.4879 36.9243C93.4497 36.9243 93.4132 36.9365 93.3785 36.9557C93.3785 36.9557 93.3785 36.9557 93.3768 36.9557C93.3577 36.9662 93.0016 37.1457 93.0016 37.1457C92.9755 37.1561 92.9512 37.1666 92.9304 37.1736C92.906 37.1736 92.8279 37.1526 92.8261 37.1526C92.8122 37.1474 92.7983 37.1422 92.7827 37.1352C92.781 37.1352 92.7792 37.1335 92.7775 37.1317C92.7619 37.1248 92.675 37.0672 92.6733 37.0655C92.6715 37.0638 92.6681 37.0603 92.6663 37.0585C92.6663 37.0585 91.3149 37.6128 88.0059 37.7435C87.3215 37.7696 86.3002 37.808 86.3002 37.808V38.5453L85.9528 38.9339H82.6489L82.3015 38.5453V37.8725C82.2703 37.8725 74.0003 37.9248 72.9581 37.9195C72.9199 38.0694 72.88 38.2106 72.8383 38.3361C72.7653 38.554 72.279 38.7352 72.2147 38.8886C72.1556 39.0298 72.305 39.0995 72.2703 39.2285C71.975 40.2987 70.7851 42.249 70.7851 42.249C70.7851 42.249 70.7851 42.2525 70.7817 42.2577C70.7608 42.3065 70.7261 42.385 70.6774 42.4652C70.6027 42.7248 70.4846 42.8538 70.297 42.9601C70.0955 43.0734 69.2044 42.8991 69.0829 42.873C68.9769 42.8503 68.9005 42.6656 68.8831 42.6238C68.8623 42.6185 68.8431 42.615 68.824 42.6098L68.4558 42.493C68.3307 42.4564 68.263 42.3205 68.3099 42.1985L69.7759 39.9448C69.7933 39.8995 70.2588 39.225 70.4482 39.0141C70.5055 38.9514 70.8129 38.7108 70.9415 38.6028C70.971 38.5784 70.9918 38.5453 71.004 38.5069L71.0752 38.2699C71.0804 38.249 71.0839 38.2298 71.0822 38.2089C71.0804 38.1601 71.0735 38.0538 71.0683 37.9143C68.2369 37.9021 64.2991 37.8864 60.3422 37.869C60.1807 38.1705 59.7221 38.2803 59.1002 38.2803H57.7523V37.8585C57.728 37.8585 57.7019 37.8585 57.6776 37.8585V38.2803C57.2538 38.2699 56.9481 38.0921 56.8352 37.8551C50.8911 37.8307 45.6644 37.8097 45.0999 37.8097C44.7751 37.8097 43.9448 37.8498 43.7381 37.2956V35.9047H43.1805V37.3792C43.1805 37.5744 43.0224 37.733 42.8279 37.733H36.4443C36.4443 37.733 33.3281 39.4185 32.6021 39.7322C32.3085 39.8577 31.9298 40.0059 31.4782 40.1401H31.4799C31.4799 40.1401 30.9224 40.9052 30.0174 40.6455C29.8385 40.7117 29.5918 40.7902 29.2427 40.8826C27.9277 41.2294 25.1589 41.1248 21.2107 41.1248C17.2625 41.1248 13.8735 40.8477 13.078 40.7431C12.6437 40.6856 12.1035 40.459 11.7005 40.2621C11.6589 40.2673 10.4065 40.398 10.1702 39.6451L10.2293 39.6642C10.1181 39.6276 10.0069 39.591 9.89404 39.5597C8.92479 39.2825 4.86191 36.886 4.86191 36.886C4.86191 36.886 2.27723 36.8372 2.02362 36.6437C1.71096 36.4067 1.71965 36.2847 1.71965 36.2847C1.71965 36.2847 0.335244 36.4328 0.208442 34.9896C0.0816398 33.5465 0 26.3411 0 26.3411L0.340455 26.0239V16.8316L0 16.4482C0 16.4482 0.170228 9.70819 0.213653 8.07679C0.257078 6.44539 1.72486 6.66326 1.72486 6.66326C1.72486 6.66326 1.71617 6.543 2.02883 6.30421C2.25117 6.13515 3.91871 6.00791 4.91402 6.06543C5.36738 5.79876 8.99079 3.67934 9.89925 3.41964C10.0122 3.38652 10.1233 3.35166 10.2328 3.31506L10.1754 3.33423C10.4117 2.58128 11.6641 2.71375 11.7057 2.71723C12.107 2.52202 12.6489 2.29369 13.0832 2.23618C13.8788 2.1316 17.2694 1.85447 21.2159 1.85447C25.1624 1.85447 27.933 1.74989 29.2479 2.09674C29.597 2.18912 29.8437 2.26755 30.0226 2.33378C30.9276 2.07234 31.4851 2.83923 31.4851 2.83923H31.4834C31.935 2.9717 32.3137 3.11985 32.6055 3.24534C33.3316 3.55733 36.4478 5.2445 36.4478 5.2445H42.7584C42.9929 5.2445 43.184 5.43448 43.184 5.67152V7.07983H43.7415V5.7883C43.7415 5.7883 43.8336 6.08461 43.7415 5.78133C43.9482 5.22707 44.7994 5.19047 45.1242 5.19047C45.6071 5.19047 56.0674 5.17479 56.8629 5.17304C56.9932 4.9604 57.2868 4.80702 57.6793 4.79657V5.1713C57.7037 5.1713 57.7297 5.1713 57.754 5.1713V4.79657H59.102C59.6943 4.79657 60.139 4.89591 60.3196 5.16781C64.2453 5.16259 68.1553 5.15561 70.9866 5.15213C70.9953 4.98829 71.0005 4.86454 71.004 4.81225C71.004 4.79134 71.004 4.77216 70.997 4.75125L70.9258 4.51421C70.9154 4.47761 70.8928 4.44449 70.8633 4.41835C70.7348 4.31028 70.4273 4.06976 70.37 4.00701C70.1806 3.79611 69.7151 3.12159 69.6978 3.07627L68.2317 0.822643C68.1848 0.700638 68.2526 0.56469 68.3776 0.528088L68.7459 0.411308C68.765 0.406078 68.7858 0.402596 68.8049 0.397366C68.8223 0.353794 68.8987 0.17078 69.0047 0.148125C69.1245 0.121979 70.0174 -0.0523148 70.2189 0.0609779C70.4065 0.167297 70.5246 0.296272 70.5993 0.555973C70.6479 0.636147 70.6826 0.714581 70.7035 0.763382C70.7052 0.768612 70.707 0.772099 70.707 0.772099C70.707 0.772099 71.8968 2.72246 72.1921 3.79263C72.2269 3.9216 72.0775 3.99132 72.1365 4.1325C72.2008 4.28588 72.6872 4.4654 72.7601 4.68502C72.807 4.82445 72.8522 4.98306 72.8921 5.15213C73.9691 5.15213 82.272 5.12249 82.3033 5.12249V4.46192L82.6507 4.07324H85.9545L86.3019 4.46192V5.18873C86.7883 5.20616 87.3458 5.22533 88.0076 5.25147C91.0353 5.37 92.4231 5.84408 92.6368 5.92425C92.7011 5.83187 92.8661 5.77087 92.9304 5.77436C92.9304 5.77436 92.9304 5.77436 92.9321 5.77436C92.9338 5.77436 92.939 5.77436 92.9408 5.77436C93.0849 5.82142 93.382 5.987 93.4445 6.02186C93.5244 6.0236 94.0021 6.04277 94.5614 6.15781C95.1329 6.26936 95.8016 6.47851 96.2394 6.86719C96.2394 6.86719 96.2237 6.87764 96.2029 6.89333C97.629 8.03148 98.5183 11.3867 98.6972 12.1135L99.3712 12.096C99.4494 12.096 99.5206 12.1867 99.5501 12.3261C99.6057 12.5771 99.6995 12.9692 99.7203 13.3614C99.7018 13.3649 99.7018 13.3649 99.7203 13.3614H99.7464C99.7377 13.3632 99.729 13.3666 99.7203 13.3684C99.9218 16.6207 99.9983 21.3267 99.9983 21.3267V21.3807H100Z" fill="black"/>
<path d="M100 21.3803L99.7203 29.3822C99.6978 29.7917 99.597 30.2013 99.5432 30.4488C99.5171 30.5691 99.4563 30.6458 99.3886 30.6458H98.7302C98.7302 30.6458 97.8392 34.7487 96.1265 36.1152C96.0813 36.1553 95.8676 36.3086 95.8155 36.34C95.8068 36.3452 95.4924 36.5056 95.4351 36.53C95.4282 36.5335 95.2979 36.584 95.2388 36.6049C95.2354 36.6049 94.5006 36.8019 94.445 36.8123C94.4398 36.8123 93.8266 36.8995 93.7884 36.903C93.7832 36.903 93.5122 36.9221 93.4931 36.9239C93.4931 36.9239 93.4897 36.9239 93.4879 36.9239C93.4497 36.9239 93.4132 36.9361 93.3785 36.9553C93.3785 36.9553 93.3785 36.9553 93.3768 36.9553C93.3577 36.9657 93.0016 37.1452 93.0016 37.1452C92.9755 37.1557 92.9512 37.1662 92.9304 37.1731C92.906 37.1731 92.8279 37.1522 92.8261 37.1522C92.8122 37.147 92.7983 37.1418 92.7827 37.1348C92.781 37.1348 92.7792 37.133 92.7775 37.1313C92.7619 37.1243 92.675 37.0668 92.6733 37.0651C92.6715 37.0633 92.6681 37.0598 92.6663 37.0581C92.6663 37.0581 91.3149 37.6124 88.0059 37.7431C87.3215 37.7692 86.3002 37.8076 86.3002 37.8076V38.5448L85.9528 38.9335H82.6489L82.3015 38.5448V37.8721C82.2703 37.8721 45.6644 37.8076 45.0999 37.8076C44.7751 37.8076 43.9448 37.8477 43.7381 37.2934V35.9025H43.1805V37.3771C43.1805 37.5723 43.0224 37.7309 42.8279 37.7309H36.4443C36.4443 37.7309 33.3281 39.4163 32.6021 39.73C32.3085 39.8555 31.9298 40.0037 31.4782 40.1379H31.4799C31.4799 40.1379 30.9224 40.903 30.0174 40.6433C29.8385 40.7096 29.5918 40.788 29.2427 40.8804C27.9277 41.2272 25.1589 41.1227 21.2107 41.1227C17.2625 41.1227 13.8735 40.8455 13.078 40.7409C12.6437 40.6834 12.1035 40.4568 11.7005 40.2599C11.6589 40.2651 10.4082 40.3958 10.1702 39.6446C10.0782 39.615 9.9861 39.5854 9.89231 39.5575C8.92305 39.2804 4.86017 36.8838 4.86017 36.8838C5.284 36.8629 5.5984 36.8089 5.6453 36.713C3.84575 36.6677 3.111 36.4899 2.55862 36.1622C2.2477 35.9984 1.92982 34.7522 1.87077 34.543C1.51641 34.4977 1.57721 34.0916 1.57721 34.0916C1.57721 34.0916 1.2715 34.3792 1.31145 34.5831C1.35314 34.7888 1.70922 36.4045 2.02015 36.6415C1.70749 36.4045 1.71617 36.2825 1.71617 36.2825C1.71617 36.2825 0.33177 36.4306 0.204968 34.9875C0.0781657 33.5443 0 26.3407 0 26.3407L0.340455 26.0235V16.8312L0 16.4477C0 16.4477 0.170228 9.70776 0.213653 8.07636C0.257078 6.44496 1.72486 6.66283 1.72486 6.66283C1.72486 6.66283 1.71617 6.54257 2.02883 6.30378C1.71617 6.54082 1.36008 8.15828 1.32013 8.36221C1.27844 8.56787 1.5859 8.85371 1.5859 8.85371C1.5859 8.85371 1.52336 8.44761 1.87945 8.40229C1.93851 8.19314 2.25638 6.94693 2.56731 6.78309C3.11968 6.45542 3.85617 6.27764 5.65399 6.23232C5.60882 6.13995 5.31701 6.08766 4.91575 6.065C5.36912 5.79833 8.99253 3.67891 9.90099 3.4192C9.99479 3.39306 10.0869 3.36169 10.1789 3.33206C10.4169 2.58084 11.6675 2.71157 11.7092 2.7168C12.1105 2.52159 12.6524 2.29326 13.0867 2.23574C13.8822 2.13116 17.2729 1.85403 21.2194 1.85403C25.1659 1.85403 27.9364 1.74946 29.2513 2.09631C29.6005 2.18868 29.8471 2.26711 30.0261 2.33335C30.931 2.0719 31.4886 2.8388 31.4886 2.8388H31.4869C31.9385 2.97127 32.3172 3.11942 32.609 3.24491C33.3351 3.5569 36.4513 5.24407 36.4513 5.24407H42.7619C42.9964 5.24407 43.1874 5.43405 43.1874 5.67109V7.0794H43.745V5.78787C43.745 5.78787 43.8371 6.08417 43.745 5.7809C43.9517 5.22664 44.8028 5.19004 45.1277 5.19004C45.6106 5.19004 82.2772 5.11858 82.3068 5.11858V4.458L82.6542 4.06932H85.958L86.3054 4.458V5.18481C86.7917 5.20224 87.3493 5.22141 88.0111 5.24755C91.0387 5.36607 92.4266 5.84016 92.6403 5.92033C92.7045 5.82796 92.8696 5.76695 92.9338 5.77044C92.9338 5.77044 92.9338 5.77044 92.9356 5.77044C92.9373 5.77044 92.9425 5.77044 92.9442 5.77044C93.0884 5.8175 93.3854 5.98308 93.448 6.01794C93.5279 6.01968 94.0056 6.03886 94.5649 6.15389C95.1364 6.26544 95.8051 6.47459 96.2428 6.86327C96.2428 6.86327 96.2272 6.87373 96.2064 6.88942C97.6324 8.02756 98.5218 11.3827 98.7007 12.1095L99.3747 12.0921C99.4528 12.0921 99.5241 12.1827 99.5536 12.3222C99.6092 12.5732 99.703 12.9653 99.7238 13.3575H99.7499C99.7412 13.3592 99.7325 13.3627 99.7238 13.3645C99.9253 16.6168 100.002 21.3228 100.002 21.3228V21.3768L100 21.3803ZM56.6111 36.7426C56.6111 36.9779 56.8004 37.1679 57.0349 37.1679H71.0405L71.0127 35.8049C71.0127 35.8049 66.7483 34.4106 65.0061 34.2258C63.2639 34.0411 58.0823 34.0933 57.5317 34.0986C56.9793 34.1038 56.6128 34.4419 56.6128 35.0572V36.7426H56.6111ZM53.8527 6.35781C53.8527 6.12426 53.6616 5.93253 53.4289 5.93253H47.4709C47.2381 5.93253 47.0471 6.12426 47.0471 6.35781L47.5682 8.57659C47.5682 8.81014 47.7593 9.00187 47.992 9.00187H53.7763C54.009 9.00187 54.2001 8.81014 54.2001 8.57659L53.8527 6.35781ZM53.7763 34.0986H47.992C47.7593 34.0986 47.5682 34.2903 47.5682 34.5239L47.0471 36.7426C47.0471 36.9762 47.2381 37.1679 47.4709 37.1679H53.4289C53.6616 37.1679 53.8527 36.9762 53.8527 36.7426L54.2001 34.5239C54.2001 34.2903 54.009 34.0986 53.7763 34.0986ZM57.0349 5.93253C56.8004 5.93253 56.6111 6.12252 56.6111 6.35781V8.04324C56.6111 8.6585 56.9793 8.99664 57.53 9.00187C58.0823 9.0071 63.2621 9.05938 65.0043 8.87463C66.7466 8.68988 70.9241 7.29552 70.9241 7.29552L70.9519 5.93253H57.0332H57.0349ZM73.613 7.76437C72.2077 7.86372 69.4598 8.5975 67.6498 9.35917C67.2017 9.54741 66.9741 10.0459 67.1148 10.513C68.0163 13.49 68.3516 18.4765 68.3516 21.3663V21.4134C68.3516 24.3084 68.0146 29.4798 67.1096 32.4567C66.9706 32.9134 67.1947 33.4014 67.6342 33.5861C69.4459 34.3478 72.206 35.0868 73.6147 35.1879C75.2493 35.303 75.8555 34.9578 76.5711 33.8023C77.2868 32.6467 78.8049 28.305 78.8049 21.4134V21.3663C78.8049 14.4765 77.2868 10.1348 76.5711 8.97747C75.8555 7.82189 75.2493 7.64934 73.6147 7.76612L73.613 7.76437ZM79.1489 7.2014C78.3689 6.98876 75.2788 7.11948 75.2788 7.11948C75.2788 7.11948 78.9908 10.2481 78.9908 21.6626C78.9908 33.0772 75.2788 35.9043 75.2788 35.9043C76.1021 36.1919 79.0221 35.9043 79.0221 35.9043C79.0221 35.9043 81.2976 31.4876 81.2976 21.6923C81.2976 11.8969 79.6648 8.21405 79.1489 7.19966V7.2014Z" fill="#8DC63F"/>
<path d="M10.1772 39.6466L11.1326 39.9568L11.711 40.2619C11.711 40.2619 10.417 40.41 10.1772 39.6466Z" fill="#BE1E2D"/>
<path d="M30.4689 40.3754L31.4851 40.1401C31.4851 40.1401 30.9257 40.9087 30.0208 40.6455C30.257 40.5479 30.4689 40.3771 30.4689 40.3771V40.3754Z" fill="#F7941D"/>
<path d="M10.1772 3.33423L11.1326 3.02398L11.711 2.71897C11.711 2.71897 10.417 2.57082 10.1772 3.33423Z" fill="#BE1E2D"/>
<path d="M30.4689 2.60381L31.4851 2.83911C31.4851 2.83911 30.9257 2.07047 30.0208 2.33365C30.257 2.43126 30.4689 2.60207 30.4689 2.60207V2.60381Z" fill="#F7941D"/>
<path d="M68.8066 0.406005C68.8066 0.406005 68.89 0.172451 69.0099 0.146307C69.1297 0.120163 70.0226 -0.0541318 70.224 0.0591598C70.4255 0.172451 70.5454 0.310144 70.6201 0.606445C70.4585 0.294458 70.3717 0.325831 70.2762 0.277028C70.0851 0.209053 69.3052 0.376376 69.1784 0.393805C69.0151 0.31363 68.8084 0.406005 68.8084 0.406005H68.8066Z" fill="#F7941D"/>
<path d="M68.8865 42.6148C68.8865 42.6148 68.9699 42.8483 69.0897 42.8745C69.2096 42.9006 70.1024 43.0749 70.3039 42.9616C70.5054 42.8483 70.6252 42.7106 70.6999 42.4143C70.5384 42.7263 70.4515 42.6949 70.356 42.7437C70.1649 42.8117 69.385 42.6444 69.2582 42.627C69.0949 42.7071 68.8882 42.6148 68.8882 42.6148H68.8865Z" fill="#F7941D"/>
<path d="M44.8742 24.6311C44.803 24.5997 44.8117 18.3809 44.8742 18.3652C44.9367 18.3495 45.2025 18.5064 45.2025 18.6946V24.2843C45.2025 24.4568 44.8742 24.6294 44.8742 24.6294V24.6311Z" fill="#BE1E2D"/>
<path d="M1.58406 34.0937C1.58406 34.0937 1.27835 34.3812 1.3183 34.5852C1.35825 34.7891 1.71607 36.4065 2.027 36.6436C2.33793 36.8806 5.49408 37.0358 5.65041 36.715C3.85087 36.6697 3.11611 36.492 2.56374 36.1643C2.25281 36.0004 1.93494 34.7542 1.87588 34.5451C1.52153 34.4998 1.58232 34.0937 1.58232 34.0937H1.58406ZM1.58406 8.85752C1.58406 8.85752 1.27835 8.56993 1.3183 8.366C1.35825 8.16208 1.71607 6.54462 2.027 6.30758C2.33793 6.07054 5.49408 5.91542 5.65041 6.23612C3.85087 6.28144 3.11611 6.45922 2.56374 6.78689C2.25281 6.95073 1.93494 8.19694 1.87588 8.40609C1.52153 8.45141 1.58232 8.85752 1.58232 8.85752H1.58406Z" fill="#BE1E2D"/>
<path d="M96.2412 6.86716C95.3431 6.06715 93.4619 6.0288 93.4619 6.0288C93.4619 6.0288 93.1076 5.82662 92.9461 5.77433C92.8557 5.7691 92.5848 5.88414 92.6178 6.03229C92.6838 6.3373 93.9935 6.60049 94.6727 6.76433C94.888 6.81662 95.3466 7.08154 95.4908 7.34473C95.8556 7.14952 96.2429 6.8689 96.2429 6.8689L96.2412 6.86716Z" fill="#F7941D"/>
<path d="M96.1281 36.1154C95.2578 36.891 93.434 36.9276 93.434 36.9276C93.434 36.9276 93.0901 37.1246 92.9337 37.1751C92.8469 37.1803 92.5846 37.0688 92.6159 36.9259C92.6801 36.6296 93.9481 36.3751 94.6065 36.2165C94.8149 36.1659 95.2596 35.9097 95.3986 35.6535C95.7512 35.8435 96.1281 36.1154 96.1281 36.1154Z" fill="#F7941D"/>
<path d="M75.2788 35.9063C75.2788 35.9063 78.9908 33.0793 78.9908 21.6647C78.9908 10.2501 75.2788 7.12155 75.2788 7.12155C75.2788 7.12155 78.369 6.99257 79.1489 7.20347C79.6648 8.21786 81.2976 11.9025 81.2976 21.6961C81.2976 31.4897 79.0221 35.9081 79.0221 35.9081C79.0221 35.9081 76.1022 36.1957 75.2788 35.9081V35.9063Z" fill="url(#paint0_linear_6561_4917)"/>
<path d="M78.8015 21.363C78.8015 14.4732 77.2833 10.1315 76.5677 8.97416C75.852 7.81858 75.2458 7.64603 73.6113 7.76281C72.206 7.86215 69.4581 8.59593 67.6481 9.3576C67.2 9.54584 66.9724 10.0443 67.1131 10.5114C68.0146 13.4884 68.3499 18.475 68.3499 21.3648V21.4118C68.3499 24.3069 68.0129 29.4782 67.1079 32.4551C66.9689 32.9118 67.193 33.3998 67.6325 33.5846C69.4442 34.3462 72.2043 35.0853 73.613 35.1863C75.2475 35.3014 75.8538 34.9563 76.5694 33.8007C77.2851 32.6451 78.8032 28.3034 78.8032 21.4118V21.3648L78.8015 21.363Z" fill="url(#paint1_linear_6561_4917)"/>
<path opacity="0.3" d="M71.5181 9.10509C71.4972 9.11207 69.0949 9.60706 68.4088 9.90336C68.0805 10.0445 67.8408 10.1997 67.7401 10.4873C67.6532 10.7348 67.6741 11.0642 67.8096 11.6271C68.0771 12.7357 68.4418 14.9074 68.6121 17.0564C68.6746 18.4508 68.8657 18.6564 69.0515 18.8551C69.253 19.0695 69.4615 19.2926 69.4615 21.6142V21.6648C69.4615 23.9864 69.253 24.2095 69.0515 24.4239C68.8657 24.6226 68.6746 24.8282 68.6121 26.2261C68.4436 28.3716 68.0788 30.5434 67.8113 31.6519C67.6758 32.2148 67.655 32.5443 67.7418 32.7918C67.8426 33.0793 68.0823 33.2327 68.4106 33.3756C69.0967 33.6719 71.499 34.0624 71.5198 34.0693C71.5198 34.0693 69.1314 33.5098 68.4488 33.2135C68.0962 33.0619 67.9242 32.919 67.8547 32.7203C67.7835 32.5164 67.8061 32.2218 67.9294 31.7042C68.1986 30.5887 68.5669 28.4013 68.7371 26.24C68.7962 24.9136 68.9664 24.7324 69.1297 24.5563C69.3642 24.3053 69.5865 24.0683 69.5865 21.6648V21.6142C69.5865 19.2107 69.3642 18.9737 69.1297 18.7227C68.9664 18.5466 68.7962 18.3671 68.7371 17.0425C68.5669 14.876 68.1986 12.6903 67.9294 11.5749C67.8043 11.0572 67.7818 10.7626 67.8547 10.5587C67.9242 10.36 68.0962 10.2171 68.4488 10.0655C69.1314 9.7709 71.5198 9.10509 71.5198 9.10509H71.5181Z" fill="url(#paint2_radial_6561_4917)"/>
<path d="M57.6828 38.282V37.6057C57.6828 37.6057 57.1548 37.5831 56.7917 37.6545C56.7917 37.9857 57.1461 38.2698 57.6828 38.282ZM60.4099 37.6022C58.7459 37.5778 57.7575 37.5918 57.7575 37.5918V38.282H59.1054C59.8836 38.282 60.4099 38.1112 60.4099 37.6022ZM59.6682 37.7347C59.6682 38.0049 58.9804 38.0049 58.9804 38.0049H57.992L57.9382 37.7347H59.6665H59.6682Z" fill="#CFCFCE"/>
<path d="M57.6828 5.47452V4.79826C57.1461 4.81046 56.7917 5.09282 56.7917 5.42572C57.1548 5.49892 57.6828 5.47452 57.6828 5.47452ZM60.4099 5.47801C60.4099 4.96907 59.8836 4.79826 59.1054 4.79826H57.7575V5.48847C57.7575 5.48847 58.7459 5.50241 60.4099 5.47801ZM59.6682 5.34554H57.9399L57.9938 5.07539H58.9821C58.9821 5.07539 59.67 5.07539 59.67 5.34554H59.6682Z" fill="#CFCFCE"/>
<path d="M68.4628 42.4931L68.8311 42.6098C68.9805 42.6464 69.1403 42.6848 69.2462 42.6255C69.2462 42.6255 69.8247 42.758 70.2224 42.758C70.575 42.7789 70.7331 42.385 70.7922 42.2508C70.7922 42.2508 71.982 40.3004 72.2773 39.2303C72.3121 39.1013 72.1627 39.0316 72.2217 38.8904C72.286 38.737 72.7724 38.5575 72.8453 38.3379C73.0069 37.8568 73.1476 37.1736 73.151 36.5269C72.682 36.2202 71.7527 35.9047 71.0145 35.8036C71.0041 36.5374 71.077 37.9806 71.0892 38.2072C71.0892 38.2281 71.0892 38.2472 71.0823 38.2682L71.011 38.5052C71.0006 38.5418 70.978 38.5749 70.9485 38.6011C70.82 38.7091 70.5125 38.9496 70.4552 39.0124C70.2659 39.2233 69.8003 39.8978 69.783 39.9431L68.3169 42.1968C68.27 42.3188 68.3378 42.4547 68.4628 42.4913V42.4931Z" fill="url(#paint3_linear_6561_4917)"/>
<path d="M98.1327 12.3015L98.732 12.2545C98.732 12.2545 97.7784 8.04001 96.1282 6.83215C95.9128 6.99598 95.7287 6.99598 95.3987 7.29403C95.9563 8.31191 97.0106 11.0588 97.0106 11.0588C97.0106 11.0588 98.1171 12.0575 98.131 12.3015H98.1327Z" fill="url(#paint4_linear_6561_4917)"/>
<path d="M98.2926 30.6461H98.7303C98.7303 30.6461 97.8392 34.749 96.1265 36.1155C95.9111 35.9673 95.6575 35.8052 95.397 35.6536C95.9077 34.7211 96.8352 32.3403 96.9881 31.9446C97.002 31.908 97.0246 31.8766 97.0523 31.8487C97.2278 31.6884 97.8861 31.0766 98.0772 30.7681C98.1241 30.6932 98.2022 30.6444 98.2891 30.6444L98.2926 30.6461Z" fill="url(#paint5_linear_6561_4917)"/>
<path opacity="0.5" d="M76.3627 32.6121C75.6974 33.6631 74.973 34.1563 73.5122 34.0936C74.6656 34.036 75.3013 33.5445 75.8902 32.6121C76.5798 31.521 77.8756 27.9166 77.8756 21.4101V21.3648C77.8756 14.8601 76.5798 11.2557 75.8902 10.1629C75.3013 9.23216 74.6656 8.7389 73.5122 8.68139C74.973 8.61864 75.6991 9.11015 76.3627 10.1629C77.0522 11.254 78.3481 14.8584 78.3481 21.3648V21.4101C78.3481 27.9148 77.0522 31.5192 76.3627 32.6121Z" fill="#231F20"/>
<path d="M78.6328 33.0896C78.982 33.0896 79.0202 32.8316 79.0202 32.6469C79.0202 32.4621 78.6328 25.2917 78.6328 25.2917C78.6328 25.2917 78.3566 24.4777 78.3566 24.3679V23.3692L78.2837 23.0729L78.3757 20.6519L78.2837 18.6929H78.1187C78.1187 18.6929 78.0596 22.0968 77.8946 23.7003C77.7504 25.1052 77.271 28.3749 77.271 28.3749H77.3995L77.8685 26.7L78.1447 24.6049L78.044 24.0141L78.3896 25.3457L78.4209 26.2311L78.3566 31.1793V31.5175H78.7822L78.341 31.6639V32.7166C78.341 33.0861 78.6363 33.0861 78.6363 33.0861L78.6328 33.0896Z" fill="#383838"/>
<path d="M100 21.3892C100 21.3892 99.9202 26.0115 99.7083 29.3772C99.7135 29.3772 99.717 29.3806 99.7222 29.3806C99.6996 29.7902 99.5989 30.1998 99.545 30.4473C99.519 30.5676 99.4582 30.6443 99.3904 30.6443H98.2926C98.5775 30.1929 98.7877 29.5584 98.9423 28.7968C98.9527 28.7427 98.7842 28.6643 98.7946 28.6085C99.1577 26.6808 99.3713 24.0176 99.3713 21.3875V21.3509C99.3713 18.8637 99.1455 16.3469 98.7877 14.4575C98.7772 14.4035 98.9058 14.3216 98.8954 14.2675C98.713 13.3664 98.4663 12.6257 98.1328 12.1272L99.373 12.0941C99.4512 12.0941 99.5224 12.1847 99.552 12.3242C99.6075 12.5751 99.7013 12.9673 99.7222 13.3595C99.7187 13.3595 99.7135 13.3612 99.71 13.363C99.9202 16.7286 100.002 21.3335 100.002 21.3335V21.3892H100Z" fill="url(#paint6_linear_6561_4917)"/>
<path opacity="0.35" d="M94.5996 36.4153C95.053 36.2114 95.4734 36.6122 97.1774 32.0143C98.025 31.1812 98.1171 31.0487 98.1171 31.0487C98.1171 31.0487 96.7223 35.0349 95.727 35.9673C95.284 36.4153 94.5979 36.4153 94.5979 36.4153H94.5996Z" fill="white"/>
<path opacity="0.35" d="M94.5996 6.54997C95.053 6.75389 95.4734 6.35301 97.1774 10.9509C98.025 11.784 98.1171 11.9165 98.1171 11.9165C98.1171 11.9165 96.7223 7.93038 95.727 6.9979C95.284 6.54997 94.5979 6.54997 94.5979 6.54997H94.5996Z" fill="white"/>
<path opacity="0.4" d="M80.1858 10.1089C80.1858 10.1089 94.9956 10.7747 98.1188 12.2737C98.1188 12.2737 97.4726 10.9351 95.8642 10.3704C94.2557 9.80567 79.8193 8.85576 79.8193 8.85576L80.1876 10.1107L80.1858 10.1089Z" fill="url(#paint7_linear_6561_4917)"/>
<path opacity="0.4" d="M80.1858 32.8108C80.1858 32.8108 94.9956 32.145 98.1188 30.646C98.1188 30.646 97.4726 31.9846 95.8642 32.5493C94.2557 33.1141 79.8193 34.064 79.8193 34.064L80.1876 32.809L80.1858 32.8108Z" fill="url(#paint8_linear_6561_4917)"/>
<path opacity="0.5" d="M68.4628 42.4931L68.8311 42.6098C68.9804 42.6464 69.1402 42.6848 69.2462 42.6255C69.2462 42.6255 69.8246 42.758 70.2224 42.758C70.575 42.7789 70.7331 42.385 70.7921 42.2508C70.7921 42.2508 70.5594 42.8992 68.8588 42.1985H68.3186C68.2717 42.3205 68.3395 42.4565 68.4645 42.4931H68.4628Z" fill="url(#paint9_linear_6561_4917)"/>
<path d="M68.3811 0.528034L68.7493 0.411254C68.8987 0.374652 69.0585 0.336308 69.1644 0.395568C69.1644 0.395568 69.7429 0.263105 70.1406 0.263105C70.4933 0.24219 70.6513 0.636097 70.7104 0.770304C70.7104 0.770304 71.9002 2.72066 72.1955 3.79083C72.2303 3.91981 72.0809 3.98953 72.1399 4.13071C72.2042 4.28409 72.6906 4.46361 72.7635 4.68322C72.9251 5.16427 73.0658 5.84751 73.0693 6.49414C72.6003 6.8009 71.7126 7.08152 70.9275 7.2959C70.9171 6.56212 70.9953 5.04052 71.0074 4.8122C71.0074 4.79128 71.0074 4.77211 71.0005 4.7512L70.9292 4.51416C70.9188 4.47755 70.8962 4.44444 70.8667 4.41829C70.7382 4.31023 70.4307 4.0697 70.3734 4.00696C70.1841 3.79606 69.7185 3.12154 69.7012 3.07622L68.2351 0.82259C68.1882 0.700584 68.256 0.564636 68.3811 0.528034Z" fill="url(#paint10_linear_6561_4917)"/>
<path opacity="0.5" d="M68.381 0.527954L68.7493 0.411174C68.8987 0.374572 69.0585 0.336228 69.1644 0.395488C69.1644 0.395488 69.7428 0.263025 70.1406 0.263025C70.4932 0.24211 70.6513 0.636016 70.7104 0.770223C70.7104 0.770223 70.4776 0.121845 68.7771 0.82251H68.2368C68.1899 0.700503 68.2577 0.564556 68.3828 0.527954H68.381Z" fill="url(#paint11_linear_6561_4917)"/>
<path d="M80.1598 21.0548C80.4759 20.9031 80.3977 20.6539 80.3178 20.4866C80.2379 20.3192 76.8108 14.0167 76.8108 14.0167C76.8108 14.0167 76.2115 13.4032 76.1646 13.3021L75.7356 12.401L75.5428 12.1657L74.5857 9.94173L73.6616 8.21447L73.5122 8.28593C73.5122 8.28593 74.9209 11.3831 75.4611 12.9013C75.9353 14.2311 76.9063 17.3893 76.9063 17.3893L77.0227 17.3336L76.7257 15.6185L76.076 13.6089L75.7304 13.1191L76.6145 14.1719L77.0227 14.9579L79.0898 19.4513L79.2357 19.7563L79.6178 19.5733L79.2826 19.8974L79.7342 20.8474C79.8923 21.1803 80.158 21.053 80.158 21.053L80.1598 21.0548Z" fill="#383838"/>
<path opacity="0.4" d="M67.2137 33.7414C68.1587 34.1214 73.2499 35.8051 75.508 35.6918C75.8484 35.4652 76.6179 34.1214 76.6179 34.1214C76.6179 34.1214 75.8328 35.2073 74.3285 35.2073C73.2394 35.2073 69.9183 34.6652 67.3839 33.4295C66.915 33.1732 67.073 32.5789 67.1095 32.4569C67.146 32.3349 67.8668 29.4608 68.0579 27.0328C68.0579 27.0328 67.278 31.4338 66.915 32.4308C66.5519 33.4277 67.2137 33.7432 67.2137 33.7432V33.7414Z" fill="url(#paint12_linear_6561_4917)"/>
<path opacity="0.4" d="M67.1461 9.18177C68.091 8.80181 73.1822 7.11812 75.4403 7.23141C75.7808 7.458 76.5503 8.80181 76.5503 8.80181C76.5503 8.80181 75.7652 7.71595 74.2609 7.71595C73.1718 7.71595 69.8506 8.25801 67.3163 9.49376C66.8473 9.74997 67.0054 10.3443 67.0419 10.4663C67.0783 10.5883 67.7992 13.4625 67.9903 15.8904C67.9903 15.8904 67.2104 11.4894 66.8473 10.4925C66.4843 9.4955 67.1461 9.18003 67.1461 9.18003V9.18177Z" fill="url(#paint13_linear_6561_4917)"/>
<path d="M85.9581 38.9373H84.3062H82.6543L82.3069 38.5486V37.9194L86.3055 37.8113V38.5486L85.9581 38.9373Z" fill="url(#paint14_linear_6561_4917)"/>
<path opacity="0.3" d="M86.3055 38.5486H82.3069V37.8113H86.3055V38.5486Z" fill="url(#paint15_radial_6561_4917)"/>
<path d="M85.9581 4.06961H84.3062H82.6543L82.3069 4.45829V5.08749L86.3055 5.19556V4.45829L85.9581 4.06961Z" fill="url(#paint16_linear_6561_4917)"/>
<path opacity="0.3" d="M86.3055 5.19556H82.3069V4.45829H86.3055V5.19556Z" fill="url(#paint17_radial_6561_4917)"/>
<path d="M57.0349 37.1682H71.0404L71.0127 35.8052C71.0127 35.8052 66.7483 34.4109 65.006 34.2261C63.2638 34.0414 58.0823 34.0937 57.5317 34.0989C56.981 34.1041 56.6128 34.4422 56.6128 35.0575V36.7429C56.6128 36.9782 56.8021 37.1682 57.0366 37.1682H57.0349Z" fill="url(#paint18_linear_6561_4917)"/>
<path d="M53.7763 34.0989H47.9921C47.7593 34.0989 47.5682 34.2906 47.5682 34.5242L47.0471 36.7429C47.0471 36.9765 47.2382 37.1682 47.471 37.1682H53.4289C53.6617 37.1682 53.8527 36.9765 53.8527 36.7429L54.2001 34.5242C54.2001 34.2906 54.0091 34.0989 53.7763 34.0989Z" fill="url(#paint19_linear_6561_4917)"/>
<path d="M57.0349 5.93285H70.9536L70.9258 7.29583C70.9258 7.29583 66.7483 8.69019 65.006 8.87495C63.2638 9.0597 58.0823 9.00741 57.5317 9.00218C56.981 8.99695 56.6128 8.65882 56.6128 8.04356V6.35813C56.6128 6.12283 56.8021 5.93285 57.0366 5.93285H57.0349Z" fill="url(#paint20_linear_6561_4917)"/>
<path d="M53.7763 9.0022H47.9921C47.7593 9.0022 47.5682 8.81047 47.5682 8.57692L47.0471 6.35815C47.0471 6.12459 47.2382 5.93287 47.471 5.93287H53.4289C53.6617 5.93287 53.8527 6.12459 53.8527 6.35815L54.2001 8.57692C54.2001 8.81047 54.0091 9.0022 53.7763 9.0022Z" fill="url(#paint21_linear_6561_4917)"/>
<path d="M75.2336 37.9333H75.0564C75.0668 37.9281 75.2961 37.7033 75.2961 37.3007C75.2961 36.898 74.8619 36.159 74.7611 35.9882C74.6621 35.9743 74.3616 35.929 73.5469 35.7843C73.0432 35.6954 71.8829 35.4479 70.7938 35.1307C69.5831 34.7786 67.0574 33.9786 67.0574 33.9786C67.0574 33.9786 65.5775 33.4522 63.4149 33.4522C62.6072 33.4522 58.9508 33.4871 55.2562 33.5237C55.2596 35.1952 54.5249 37.8079 54.5162 37.834L54.3321 37.8445C54.339 37.8183 55.0859 35.1708 55.0825 33.5237C54.3199 33.5115 53.6112 33.4836 53.0814 33.4853C49.7255 33.4993 47.3666 33.4819 46.6927 33.4853C46.6666 33.8915 46.4443 34.681 46.2358 35.3886C45.977 36.2653 45.6835 37.1909 45.6835 37.8044H45.5098C45.5098 37.1647 45.8068 36.227 46.0691 35.3381C46.2897 34.5904 46.5068 33.82 46.5068 33.4522L46.5033 33.3372H46.5902C47.0661 33.3372 49.656 33.3145 53.071 33.3407C57.2919 33.3721 62.4769 33.2745 63.4149 33.2745C65.5636 33.2745 67.0748 33.8008 67.0748 33.8008C67.0748 33.8008 69.623 34.6043 70.8407 34.9581C71.8759 35.2597 73.0814 35.5194 73.5747 35.6065C74.6239 35.7913 74.8132 35.8139 74.8202 35.8139L74.8619 35.8192L74.8844 35.8558C74.9088 35.8941 75.4663 36.8126 75.4663 37.2954C75.4663 37.6737 75.3222 37.8514 75.2301 37.9281L75.2336 37.9333Z" fill="url(#paint22_linear_6561_4917)"/>
<path d="M75.2336 5.14512H75.0564C75.0668 5.15035 75.2961 5.37519 75.2961 5.77781C75.2961 6.18043 74.8619 6.91944 74.7611 7.09025C74.6621 7.1042 74.3616 7.14951 73.5469 7.29418C73.0432 7.38307 71.8829 7.63057 70.7938 7.94778C69.5831 8.29986 67.0574 9.09987 67.0574 9.09987C67.0574 9.09987 65.5775 9.62624 63.4149 9.62624C62.6072 9.62624 58.9508 9.59138 55.2562 9.55478C55.2596 7.88329 54.5301 5.19915 54.5231 5.17301L54.3425 5.17824C54.3494 5.20438 55.0877 7.9077 55.0842 9.55304C54.5457 9.54781 54.0072 9.54258 53.4757 9.53735C50.1962 9.50423 47.3441 9.47635 46.6701 9.47286C46.644 9.06676 46.446 8.39398 46.2358 7.68634C45.977 6.80964 45.6835 5.81616 45.6835 5.20264H45.5098C45.5098 5.8423 45.8068 6.84798 46.0691 7.73514C46.2897 8.48287 46.4981 9.19051 46.4981 9.55827V9.64541H46.585C47.0609 9.64541 50.0312 9.67504 53.4722 9.7099C57.6915 9.75173 62.4752 9.80054 63.4132 9.80054C65.5619 9.80054 67.0731 9.27417 67.0731 9.27417C67.0731 9.27417 69.6213 8.47067 70.8389 8.11685C71.8742 7.81532 73.0797 7.55562 73.573 7.46847C74.6222 7.28372 74.8115 7.26106 74.8184 7.26106L74.8601 7.25583L74.8827 7.21923C74.907 7.18089 75.4646 6.26235 75.4646 5.77956C75.4646 5.40134 75.3204 5.22356 75.2284 5.14687L75.2336 5.14512Z" fill="url(#paint23_linear_6561_4917)"/>
<path d="M1.87769 34.545L43.1857 34.9023V37.3808C43.1857 37.576 43.0276 37.7346 42.833 37.7346H35.8294L5.2944 36.8475L3.14744 36.4658C2.70277 36.3542 2.33626 36.0405 2.15561 35.6169L1.87769 34.545Z" fill="url(#paint24_radial_6561_4917)"/>
<path d="M14.3652 40.3264C15.2476 40.3264 16.9238 40.3438 18.8432 40.3682C19.5779 40.3874 20.3196 40.3978 21.044 40.3978C24.5406 40.4449 28.1536 40.4989 29.0412 40.4989C29.5554 40.4989 30.033 40.4519 30.469 40.3769C30.469 40.3769 30.5646 40.5338 29.2479 40.8806C27.933 41.2275 25.1642 41.1229 21.2159 41.1229C17.2677 41.1229 13.8788 40.8458 13.0832 40.7412C12.2964 40.6384 11.1586 39.9743 11.1326 39.9586C11.8204 40.1556 12.748 40.3246 14.3634 40.3246L14.3652 40.3264Z" fill="url(#paint25_radial_6561_4917)"/>
<path d="M1.87771 8.43579L43.1857 8.07849V5.67322C43.1857 5.43792 42.9963 5.2462 42.7601 5.2462H35.8277L5.29269 6.13336L3.14574 6.51506C2.70106 6.62661 2.33455 6.94034 2.1539 7.36388L1.87598 8.43579H1.87771Z" fill="url(#paint26_radial_6561_4917)"/>
<path d="M14.3652 2.65421C15.2476 2.65421 16.9238 2.63678 18.8432 2.61238C19.5779 2.59321 20.3196 2.58275 21.044 2.58275C24.5406 2.53569 28.1536 2.48166 29.0412 2.48166C29.5554 2.48166 30.033 2.52872 30.469 2.60366C30.469 2.60366 30.5646 2.4468 29.2479 2.09995C27.933 1.75311 25.1642 1.85768 21.2159 1.85768C17.2677 1.85768 13.8788 2.13481 13.0832 2.23939C12.2964 2.34222 11.1586 3.00629 11.1326 3.02197C11.8204 2.82502 12.748 2.65595 14.3634 2.65595L14.3652 2.65421Z" fill="url(#paint27_radial_6561_4917)"/>
<path opacity="0.4" d="M43.1856 34.9912H42.5464V8.07661H43.1856V34.9912Z" fill="url(#paint28_radial_6561_4917)"/>
<path opacity="0.5" d="M17.0697 34.5451C17.0697 34.5451 15.0826 34.6653 13.6113 34.0989C14.5198 33.0339 15.4612 31.8818 17.207 31.7441H25.8712C28.2005 31.8121 29.1941 34.3551 29.1941 34.3551C29.1941 34.3551 27.4484 34.6636 25.701 34.6636C23.9535 34.6636 17.0697 34.5433 17.0697 34.5433V34.5451Z" fill="url(#paint29_radial_6561_4917)"/>
<path opacity="0.5" d="M17.0835 8.44094C17.0835 8.44094 15.0981 8.29628 13.6199 8.8453C14.5162 9.9207 15.442 11.0832 17.1877 11.2419L25.8519 11.3464C28.1813 11.3063 29.2044 8.77559 29.2044 8.77559C29.2044 8.77559 27.4621 8.44617 25.7147 8.42351C23.9673 8.40085 17.0835 8.44094 17.0835 8.44094Z" fill="url(#paint30_radial_6561_4917)"/>
<path opacity="0.5" d="M4.23646 34.0988L2.73047 34.552V8.4165L4.10619 8.8627L4.23646 34.0988Z" fill="url(#paint31_linear_6561_4917)"/>
<path d="M1.29755 8.36595C1.26976 8.50364 1.3983 8.67793 1.48689 8.77728C1.49036 8.8348 1.50252 8.87837 1.50252 8.87837L1.39482 11.2261L1.23328 14.773V28.199L1.39482 31.7459L1.50252 34.0936C1.50252 34.0936 1.49383 34.125 1.48862 34.172C1.40003 34.2714 1.26976 34.4457 1.29755 34.5851C1.32534 34.728 1.50947 35.5629 1.72486 36.1328V36.2862C1.72486 36.2862 0.340455 36.4344 0.213653 34.9912C0.0868508 33.5481 0 26.341 0 26.341L0.340455 26.0238V16.8314L0 16.4463C0 16.4463 0.170228 9.70627 0.213653 8.07487C0.257078 6.44348 1.72486 6.66134 1.72486 6.66134V6.81472C1.50947 7.38467 1.32708 8.21954 1.29755 8.36246V8.36595Z" fill="url(#paint32_radial_6561_4917)"/>
<path d="M43.7434 37.2971V35.9062H43.1858V7.20164L43.7434 7.20861V5.78811L44.9176 9.59297C44.9176 9.59297 45.0149 17.8197 45.0149 18.2572C44.8255 18.1665 44.7717 18.1892 44.7717 19.3779V23.7335C44.7717 24.6991 44.8255 24.842 45.0131 24.7775C45.0131 25.0076 44.9176 32.3872 44.9176 32.9363C44.9176 33.4853 43.7434 37.2971 43.7434 37.2971Z" fill="url(#paint33_linear_6561_4917)"/>
<path d="M43.7434 35.9062H43.1858V7.08138H43.7434V35.9062Z" fill="#231F20"/>
<path opacity="0.5" d="M41.1847 30.5362H5.11558C4.97836 30.5362 4.86719 30.6478 4.86719 30.7855V31.1463C4.86719 31.284 4.97836 31.3955 5.11558 31.3955H41.1847C41.3219 31.3955 41.4331 31.284 41.4331 31.1463V30.7855C41.4331 30.6478 41.3219 30.5362 41.1847 30.5362ZM41.4331 29.2151V29.5759C41.4331 29.7136 41.3219 29.8251 41.1847 29.8251H5.11558C4.97836 29.8251 4.86719 29.7136 4.86719 29.5759V29.2151C4.86719 29.0774 4.97836 28.9658 5.11558 28.9658H41.1847C41.3219 28.9658 41.4331 29.0774 41.4331 29.2151ZM41.4331 27.6429V28.0037C41.4331 28.1414 41.3219 28.253 41.1847 28.253H5.11558C4.97836 28.253 4.86719 28.1414 4.86719 28.0037V27.6429C4.86719 27.5052 4.97836 27.3937 5.11558 27.3937H41.1847C41.3219 27.3937 41.4331 27.5052 41.4331 27.6429ZM41.4331 26.0708V26.4316C41.4331 26.5693 41.3219 26.6808 41.1847 26.6808H5.11558C4.97836 26.6808 4.86719 26.5693 4.86719 26.4316V26.0708C4.86719 25.9331 4.97836 25.8216 5.11558 25.8216H41.1847C41.3219 25.8216 41.4331 25.9331 41.4331 26.0708ZM41.4331 24.4987V24.8595C41.4331 24.9971 41.3219 25.1087 41.1847 25.1087H5.11558C4.97836 25.1087 4.86719 24.9971 4.86719 24.8595V24.4987C4.86719 24.361 4.97836 24.2494 5.11558 24.2494H41.1847C41.3219 24.2494 41.4331 24.361 41.4331 24.4987ZM41.4331 22.9265V23.2873C41.4331 23.425 41.3219 23.5366 41.1847 23.5366H5.11558C4.97836 23.5366 4.86719 23.425 4.86719 23.2873V22.9265C4.86719 22.7888 4.97836 22.6773 5.11558 22.6773H41.1847C41.3219 22.6773 41.4331 22.7888 41.4331 22.9265ZM41.4331 21.3544V21.7152C41.4331 21.8529 41.3219 21.9644 41.1847 21.9644H5.11558C4.97836 21.9644 4.86719 21.8529 4.86719 21.7152V21.3544C4.86719 21.2167 4.97836 21.1051 5.11558 21.1051H41.1847C41.3219 21.1051 41.4331 21.2167 41.4331 21.3544ZM41.4331 19.7822V20.143C41.4331 20.2807 41.3219 20.3923 41.1847 20.3923H5.11558C4.97836 20.3923 4.86719 20.2807 4.86719 20.143V19.7822C4.86719 19.6446 4.97836 19.533 5.11558 19.533H41.1847C41.3219 19.533 41.4331 19.6446 41.4331 19.7822ZM41.4331 18.2101V18.5709C41.4331 18.7086 41.3219 18.8201 41.1847 18.8201H5.11558C4.97836 18.8201 4.86719 18.7086 4.86719 18.5709V18.2101C4.86719 18.0724 4.97836 17.9609 5.11558 17.9609H41.1847C41.3219 17.9609 41.4331 18.0724 41.4331 18.2101ZM41.4331 16.6397V17.0005C41.4331 17.1382 41.3219 17.2497 41.1847 17.2497H5.11558C4.97836 17.2497 4.86719 17.1382 4.86719 17.0005V16.6397C4.86719 16.502 4.97836 16.3905 5.11558 16.3905H41.1847C41.3219 16.3905 41.4331 16.502 41.4331 16.6397ZM41.4331 15.0676V15.4284C41.4331 15.5661 41.3219 15.6776 41.1847 15.6776H5.11558C4.97836 15.6776 4.86719 15.5661 4.86719 15.4284V15.0676C4.86719 14.9299 4.97836 14.8183 5.11558 14.8183H41.1847C41.3219 14.8183 41.4331 14.9299 41.4331 15.0676ZM41.4331 13.4954V13.8562C41.4331 13.9939 41.3219 14.1055 41.1847 14.1055H5.11558C4.97836 14.1055 4.86719 13.9939 4.86719 13.8562V13.4954C4.86719 13.3577 4.97836 13.2462 5.11558 13.2462H41.1847C41.3219 13.2462 41.4331 13.3577 41.4331 13.4954ZM41.4331 11.9233V12.2841C41.4331 12.4218 41.3219 12.5333 41.1847 12.5333H5.11558C4.97836 12.5333 4.86719 12.4218 4.86719 12.2841V11.9233C4.86719 11.7856 4.97836 11.6741 5.11558 11.6741H41.1847C41.3219 11.6741 41.4331 11.7856 41.4331 11.9233Z" fill="url(#paint34_radial_6561_4917)"/>
<path opacity="0.3" d="M37.6967 31.9969H29.4424C29.2583 31.9969 29.1072 32.1486 29.1072 32.3333V32.6941C29.1072 32.8789 29.2583 33.0305 29.4424 33.0305H37.6967C37.8808 33.0305 38.032 32.8789 38.032 32.6941V32.3333C38.032 32.1486 37.8808 31.9969 37.6967 31.9969ZM37.6967 10.0131H29.4424C29.2583 10.0131 29.1072 10.1648 29.1072 10.3495V10.7103C29.1072 10.8951 29.2583 11.0467 29.4424 11.0467H37.6967C37.8808 11.0467 38.032 10.8951 38.032 10.7103V10.3495C38.032 10.1648 37.8808 10.0131 37.6967 10.0131ZM13.3716 31.9969H5.11552C4.93139 31.9969 4.78027 32.1486 4.78027 32.3333V32.6941C4.78027 32.8789 4.93139 33.0305 5.11552 33.0305H13.3698C13.5539 33.0305 13.7051 32.8789 13.7051 32.6941V32.3333C13.7051 32.1486 13.5539 31.9969 13.3698 31.9969H13.3716ZM13.3716 10.0131H5.11552C4.93139 10.0131 4.78027 10.1648 4.78027 10.3495V10.7103C4.78027 10.8951 4.93139 11.0467 5.11552 11.0467H13.3698C13.5539 11.0467 13.7051 10.8951 13.7051 10.7103V10.3495C13.7051 10.1648 13.5539 10.0131 13.3698 10.0131H13.3716Z" fill="url(#paint35_radial_6561_4917)"/>
<path opacity="0.2" d="M45.2441 18.4105L44.9071 18.3391C44.7994 18.3391 45.2042 18.5029 45.2042 18.6702V24.3052C45.2042 24.4498 44.8186 24.6311 44.9263 24.6311L45.225 24.5509C45.4995 24.5108 45.5985 24.2633 45.5985 24.1553V18.7992C45.5985 18.6911 45.4734 18.4262 45.2441 18.4105Z" fill="url(#paint36_linear_6561_4917)"/>
<path d="M65.9719 30.3131C65.965 30.3444 65.958 30.3741 65.9476 30.402C65.9233 30.4734 65.8885 30.5327 65.8451 30.5762C65.8017 30.6198 65.7478 30.6477 65.6853 30.6477C65.4803 30.6477 65.1434 30.6477 64.8585 30.5832C64.822 30.5745 64.7873 30.5658 64.7543 30.5553C64.6188 30.5135 64.5024 30.4542 64.4277 30.3688C64.3721 30.3043 64.3391 30.2242 64.3391 30.1266C64.3391 29.5932 65.2788 29.5932 65.687 29.5932C65.892 29.5932 65.9928 29.8564 65.9928 30.1213C65.9928 30.1876 65.9858 30.2538 65.9736 30.3148L65.9719 30.3131Z" fill="#F79520"/>
<path d="M66.6423 25.006C66.6354 25.0373 66.6284 25.067 66.618 25.0949C66.5885 25.1803 66.5468 25.2517 66.4895 25.2936C66.4513 25.3232 66.4061 25.3389 66.3557 25.3389C66.1508 25.3389 65.8138 25.3389 65.5289 25.2744C65.2423 25.2099 65.0078 25.0792 65.0078 24.8177C65.0078 24.2844 65.9475 24.2844 66.3557 24.2844C66.5607 24.2844 66.6614 24.5476 66.6614 24.8125C66.6614 24.8787 66.6545 24.945 66.6423 25.006Z" fill="#F79520"/>
<path d="M66.6563 21.5688C66.6337 21.7954 66.533 21.9976 66.3541 21.9976C66.1751 21.9976 65.8955 21.9976 65.6349 21.954C65.3396 21.9034 65.0704 21.7971 65.0148 21.5671C65.0079 21.5392 65.0044 21.5078 65.0044 21.4747C65.0044 20.9413 65.9441 20.9413 66.3523 20.9413C66.5573 20.9413 66.658 21.2045 66.658 21.4694C66.658 21.5026 66.658 21.5357 66.6528 21.5671L66.6563 21.5688Z" fill="#F79520"/>
<path d="M66.618 18.5414C66.5885 18.6268 66.5468 18.6983 66.4895 18.7401C66.4513 18.7697 66.4061 18.7854 66.3557 18.7854C66.1508 18.7854 65.8138 18.7854 65.5289 18.7209C65.2423 18.6564 65.0078 18.5257 65.0078 18.2643C65.0078 17.7309 65.9475 17.7309 66.3557 17.7309C66.5607 17.7309 66.6614 17.9941 66.6614 18.259C66.6614 18.3253 66.6545 18.3915 66.6423 18.4525C66.6354 18.4839 66.6284 18.5135 66.618 18.5414Z" fill="#F79520"/>
<path d="M65.9388 13.1278C65.9145 13.1992 65.8797 13.2585 65.8363 13.3021C65.7929 13.3456 65.739 13.3735 65.6765 13.3735C65.6505 13.3735 65.6227 13.3735 65.5949 13.3735C65.5063 13.3735 65.4038 13.3718 65.2944 13.3648C65.2579 13.3631 65.2214 13.3596 65.1832 13.3578C65.072 13.3491 64.9574 13.3334 64.8497 13.309C64.8132 13.3003 64.7785 13.2916 64.7455 13.2812C64.61 13.2393 64.4936 13.1801 64.4189 13.0947C64.3633 13.0302 64.3303 12.95 64.3303 12.8524C64.3303 12.3191 65.27 12.3191 65.6782 12.3191C65.8832 12.3191 65.984 12.5822 65.984 12.8472C65.984 12.9134 65.977 12.9796 65.9649 13.0406C65.9579 13.072 65.951 13.1016 65.9405 13.1295L65.9388 13.1278Z" fill="#F79520"/>
</g>
<defs>
<linearGradient id="paint0_linear_6561_4917" x1="75.2788" y1="21.5566" x2="81.2976" y2="21.5566" gradientUnits="userSpaceOnUse">
<stop stop-color="#0D0D0D"/>
<stop offset="0.99" stop-color="#2B2B2B"/>
</linearGradient>
<linearGradient id="paint1_linear_6561_4917" x1="67.0679" y1="21.4693" x2="83.1058" y2="21.4693" gradientUnits="userSpaceOnUse">
<stop/>
<stop offset="0.24" stop-color="#020202"/>
<stop offset="0.41" stop-color="#0B0B0B"/>
<stop offset="0.55" stop-color="#1A1A1B"/>
<stop offset="0.68" stop-color="#2E2F30"/>
<stop offset="0.8" stop-color="#494A4C"/>
<stop offset="0.92" stop-color="#6A6B6E"/>
<stop offset="1" stop-color="#87898C"/>
</linearGradient>
<radialGradient id="paint2_radial_6561_4917" cx="0" cy="0" r="1" gradientUnits="userSpaceOnUse" gradientTransform="translate(nan nan) rotate(nan) scale(nan nan)">
<stop stop-color="#1C1C1C"/>
<stop offset="0.19" stop-color="#1F1F1F"/>
<stop offset="0.38" stop-color="#2A2B2B"/>
<stop offset="0.57" stop-color="#3D3E3F"/>
<stop offset="0.75" stop-color="#57595A"/>
<stop offset="0.94" stop-color="#797B7D"/>
<stop offset="1" stop-color="#87898C"/>
</radialGradient>
<linearGradient id="paint3_linear_6561_4917" x1="69.3609" y1="38.676" x2="71.9952" y2="40.1916" gradientUnits="userSpaceOnUse">
<stop stop-color="#3B3B3B"/>
<stop offset="1"/>
</linearGradient>
<linearGradient id="paint4_linear_6561_4917" x1="97.0662" y1="6.83215" x2="97.0662" y2="12.3015" gradientUnits="userSpaceOnUse">
<stop stop-color="white"/>
<stop offset="0.28" stop-color="white"/>
<stop offset="1" stop-color="#212121"/>
</linearGradient>
<linearGradient id="paint5_linear_6561_4917" x1="97.0662" y1="36.1155" x2="97.0662" y2="30.6461" gradientUnits="userSpaceOnUse">
<stop offset="0.2" stop-color="white"/>
<stop offset="1" stop-color="#212121"/>
</linearGradient>
<linearGradient id="paint6_linear_6561_4917" x1="99.0673" y1="30.646" x2="99.0673" y2="12.0941" gradientUnits="userSpaceOnUse">
<stop/>
<stop offset="0.21" stop-color="#ADADAD"/>
<stop offset="0.49" stop-color="#444444"/>
<stop offset="0.51" stop-color="#3D3D3D"/>
<stop offset="0.54" stop-color="#4F4F4F"/>
<stop offset="0.71" stop-color="#989898"/>
<stop offset="0.79" stop-color="#B5B5B5"/>
<stop offset="0.91" stop-color="#4C4C4C"/>
<stop offset="1"/>
</linearGradient>
<linearGradient id="paint7_linear_6561_4917" x1="79.8193" y1="10.5638" x2="98.1188" y2="10.5638" gradientUnits="userSpaceOnUse">
<stop stop-color="white"/>
<stop offset="0.67" stop-color="#8F8F8F"/>
<stop offset="0.88" stop-color="#262626"/>
<stop offset="0.91" stop-color="#1C1C1C"/>
<stop offset="0.92" stop-color="#202020"/>
<stop offset="0.93" stop-color="#2C2C2C"/>
<stop offset="0.94" stop-color="#414141"/>
<stop offset="0.96" stop-color="#5E5E5E"/>
<stop offset="0.97" stop-color="#838383"/>
<stop offset="0.98" stop-color="#B1B1B1"/>
<stop offset="0.99" stop-color="#E6E6E6"/>
<stop offset="1" stop-color="white"/>
</linearGradient>
<linearGradient id="paint8_linear_6561_4917" x1="79.8193" y1="32.3559" x2="98.1188" y2="32.3559" gradientUnits="userSpaceOnUse">
<stop stop-color="white"/>
<stop offset="0.67" stop-color="#8F8F8F"/>
<stop offset="0.88" stop-color="#262626"/>
<stop offset="0.91" stop-color="#1C1C1C"/>
<stop offset="0.92" stop-color="#202020"/>
<stop offset="0.93" stop-color="#2C2C2C"/>
<stop offset="0.94" stop-color="#414141"/>
<stop offset="0.96" stop-color="#5E5E5E"/>
<stop offset="0.97" stop-color="#838383"/>
<stop offset="0.98" stop-color="#B1B1B1"/>
<stop offset="0.99" stop-color="#E6E6E6"/>
<stop offset="1" stop-color="white"/>
</linearGradient>
<linearGradient id="paint9_linear_6561_4917" x1="68.567" y1="41.7628" x2="70.4636" y2="42.8535" gradientUnits="userSpaceOnUse">
<stop stop-color="white"/>
<stop offset="1" stop-color="#231F20"/>
</linearGradient>
<linearGradient id="paint10_linear_6561_4917" x1="69.2426" y1="4.36775" x2="71.9135" y2="2.82964" gradientUnits="userSpaceOnUse">
<stop stop-color="#3B3B3B"/>
<stop offset="1"/>
</linearGradient>
<linearGradient id="paint11_linear_6561_4917" x1="68.487" y1="1.25825" x2="70.3818" y2="0.167527" gradientUnits="userSpaceOnUse">
<stop stop-color="white"/>
<stop offset="1" stop-color="#231F20"/>
</linearGradient>
<linearGradient id="paint12_linear_6561_4917" x1="66.8055" y1="31.3641" x2="76.6179" y2="31.3641" gradientUnits="userSpaceOnUse">
<stop stop-color="#0D0D0D"/>
<stop offset="0.99" stop-color="#2B2B2B"/>
</linearGradient>
<linearGradient id="paint13_linear_6561_4917" x1="66.7379" y1="11.5592" x2="76.5503" y2="11.5592" gradientUnits="userSpaceOnUse">
<stop stop-color="#0D0D0D"/>
<stop offset="0.99" stop-color="#2B2B2B"/>
</linearGradient>
<linearGradient id="paint14_linear_6561_4917" x1="82.3069" y1="38.3743" x2="86.3055" y2="38.3743" gradientUnits="userSpaceOnUse">
<stop stop-color="white"/>
<stop offset="0.45" stop-color="#8F8F8F"/>
<stop offset="0.77" stop-color="#262626"/>
<stop offset="0.8" stop-color="#1C1C1C"/>
<stop offset="0.82" stop-color="#202020"/>
<stop offset="0.85" stop-color="#2C2C2C"/>
<stop offset="0.88" stop-color="#414141"/>
<stop offset="0.91" stop-color="#5E5E5E"/>
<stop offset="0.93" stop-color="#838383"/>
<stop offset="0.96" stop-color="#B1B1B1"/>
<stop offset="0.99" stop-color="#E6E6E6"/>
<stop offset="1" stop-color="white"/>
</linearGradient>
<radialGradient id="paint15_radial_6561_4917" cx="0" cy="0" r="1" gradientUnits="userSpaceOnUse" gradientTransform="translate(84.3062 38.1791) scale(1.72833 1.73423)">
<stop offset="0.41" stop-color="white"/>
<stop offset="1"/>
</radialGradient>
<linearGradient id="paint16_linear_6561_4917" x1="82.3069" y1="4.63258" x2="86.3055" y2="4.63258" gradientUnits="userSpaceOnUse">
<stop stop-color="white"/>
<stop offset="0.45" stop-color="#8F8F8F"/>
<stop offset="0.77" stop-color="#262626"/>
<stop offset="0.8" stop-color="#1C1C1C"/>
<stop offset="0.82" stop-color="#202020"/>
<stop offset="0.85" stop-color="#2C2C2C"/>
<stop offset="0.88" stop-color="#414141"/>
<stop offset="0.91" stop-color="#5E5E5E"/>
<stop offset="0.93" stop-color="#838383"/>
<stop offset="0.96" stop-color="#B1B1B1"/>
<stop offset="0.99" stop-color="#E6E6E6"/>
<stop offset="1" stop-color="white"/>
</linearGradient>
<radialGradient id="paint17_radial_6561_4917" cx="0" cy="0" r="1" gradientUnits="userSpaceOnUse" gradientTransform="translate(84.3062 4.82779) scale(1.72833 1.73424)">
<stop offset="0.41" stop-color="white"/>
<stop offset="1"/>
</radialGradient>
<linearGradient id="paint18_linear_6561_4917" x1="63.8266" y1="34.0884" x2="63.8266" y2="37.1682" gradientUnits="userSpaceOnUse">
<stop/>
<stop offset="0.24" stop-color="#020202"/>
<stop offset="0.41" stop-color="#0B0B0B"/>
<stop offset="0.55" stop-color="#1A1A1B"/>
<stop offset="0.68" stop-color="#2E2F30"/>
<stop offset="0.8" stop-color="#494A4C"/>
<stop offset="0.92" stop-color="#6A6B6E"/>
<stop offset="1" stop-color="#87898C"/>
</linearGradient>
<linearGradient id="paint19_linear_6561_4917" x1="50.6236" y1="34.0989" x2="50.6236" y2="37.1682" gradientUnits="userSpaceOnUse">
<stop/>
<stop offset="0.24" stop-color="#020202"/>
<stop offset="0.41" stop-color="#0B0B0B"/>
<stop offset="0.55" stop-color="#1A1A1B"/>
<stop offset="0.68" stop-color="#2E2F30"/>
<stop offset="0.8" stop-color="#494A4C"/>
<stop offset="0.92" stop-color="#6A6B6E"/>
<stop offset="1" stop-color="#87898C"/>
</linearGradient>
<linearGradient id="paint20_linear_6561_4917" x1="63.7832" y1="9.0109" x2="63.7832" y2="5.93111" gradientUnits="userSpaceOnUse">
<stop/>
<stop offset="0.24" stop-color="#020202"/>
<stop offset="0.41" stop-color="#0B0B0B"/>
<stop offset="0.55" stop-color="#1A1A1B"/>
<stop offset="0.68" stop-color="#2E2F30"/>
<stop offset="0.8" stop-color="#494A4C"/>
<stop offset="0.92" stop-color="#6A6B6E"/>
<stop offset="1" stop-color="#87898C"/>
</linearGradient>
<linearGradient id="paint21_linear_6561_4917" x1="50.6236" y1="9.00045" x2="50.6236" y2="5.93112" gradientUnits="userSpaceOnUse">
<stop/>
<stop offset="0.24" stop-color="#020202"/>
<stop offset="0.41" stop-color="#0B0B0B"/>
<stop offset="0.55" stop-color="#1A1A1B"/>
<stop offset="0.68" stop-color="#2E2F30"/>
<stop offset="0.8" stop-color="#494A4C"/>
<stop offset="0.92" stop-color="#6A6B6E"/>
<stop offset="1" stop-color="#87898C"/>
</linearGradient>
<linearGradient id="paint22_linear_6561_4917" x1="60.4898" y1="33.2779" x2="60.4898" y2="37.9351" gradientUnits="userSpaceOnUse">
<stop/>
<stop offset="0.24" stop-color="#020202"/>
<stop offset="0.41" stop-color="#0B0B0B"/>
<stop offset="0.55" stop-color="#1A1A1B"/>
<stop offset="0.68" stop-color="#2E2F30"/>
<stop offset="0.8" stop-color="#494A4C"/>
<stop offset="0.92" stop-color="#6A6B6E"/>
<stop offset="1" stop-color="#87898C"/>
</linearGradient>
<linearGradient id="paint23_linear_6561_4917" x1="60.4898" y1="9.80228" x2="60.4898" y2="5.14512" gradientUnits="userSpaceOnUse">
<stop/>
<stop offset="0.24" stop-color="#020202"/>
<stop offset="0.41" stop-color="#0B0B0B"/>
<stop offset="0.55" stop-color="#1A1A1B"/>
<stop offset="0.68" stop-color="#2E2F30"/>
<stop offset="0.8" stop-color="#494A4C"/>
<stop offset="0.92" stop-color="#6A6B6E"/>
<stop offset="1" stop-color="#87898C"/>
</linearGradient>
<radialGradient id="paint24_radial_6561_4917" cx="0" cy="0" r="1" gradientUnits="userSpaceOnUse" gradientTransform="translate(22.5308 36.1398) scale(21.7857 21.8601)">
<stop offset="0.22" stop-color="#7D7D7D"/>
<stop offset="0.36" stop-color="#747474"/>
<stop offset="0.57" stop-color="#5D5D5D"/>
<stop offset="0.83" stop-color="#373737"/>
<stop offset="1" stop-color="#1C1C1C"/>
</radialGradient>
<radialGradient id="paint25_radial_6561_4917" cx="0" cy="0" r="1" gradientUnits="userSpaceOnUse" gradientTransform="translate(20.8025 40.5495) scale(10.1876 10.2224)">
<stop offset="0.22" stop-color="#7D7D7D"/>
<stop offset="0.36" stop-color="#747474"/>
<stop offset="0.57" stop-color="#5D5D5D"/>
<stop offset="0.83" stop-color="#373737"/>
<stop offset="1" stop-color="#1C1C1C"/>
</radialGradient>
<radialGradient id="paint26_radial_6561_4917" cx="0" cy="0" r="1" gradientUnits="userSpaceOnUse" gradientTransform="translate(0.0868506 6.83925) scale(0.0868508 0.0871474)">
<stop offset="0.22" stop-color="#7D7D7D"/>
<stop offset="0.36" stop-color="#747474"/>
<stop offset="0.57" stop-color="#5D5D5D"/>
<stop offset="0.83" stop-color="#373737"/>
<stop offset="1" stop-color="#1C1C1C"/>
</radialGradient>
<radialGradient id="paint27_radial_6561_4917" cx="0" cy="0" r="1" gradientUnits="userSpaceOnUse" gradientTransform="translate(20.8025 2.42937) scale(10.1876 10.2224)">
<stop offset="0.22" stop-color="#7D7D7D"/>
<stop offset="0.36" stop-color="#747474"/>
<stop offset="0.57" stop-color="#5D5D5D"/>
<stop offset="0.83" stop-color="#373737"/>
<stop offset="1" stop-color="#1C1C1C"/>
</radialGradient>
<radialGradient id="paint28_radial_6561_4917" cx="0" cy="0" r="1" gradientUnits="userSpaceOnUse" gradientTransform="translate(42.866 21.5339) scale(14.108 14.1562)">
<stop offset="0.22" stop-color="white"/>
<stop offset="0.3" stop-color="#F6F6F6"/>
<stop offset="0.41" stop-color="#DFDFDF"/>
<stop offset="0.55" stop-color="#B8B8B8"/>
<stop offset="0.72" stop-color="#838383"/>
<stop offset="0.91" stop-color="#414141"/>
<stop offset="1" stop-color="#1C1C1C"/>
</radialGradient>
<radialGradient id="paint29_radial_6561_4917" cx="0" cy="0" r="1" gradientUnits="userSpaceOnUse" gradientTransform="translate(21.4018 33.2047) scale(8.33594 8.36441)">
<stop offset="0.22" stop-color="white"/>
<stop offset="0.3" stop-color="#F6F6F6"/>
<stop offset="0.41" stop-color="#DFDFDF"/>
<stop offset="0.55" stop-color="#B8B8B8"/>
<stop offset="0.72" stop-color="#838383"/>
<stop offset="0.91" stop-color="#414141"/>
<stop offset="1" stop-color="#1C1C1C"/>
</radialGradient>
<radialGradient id="paint30_radial_6561_4917" cx="0" cy="0" r="1" gradientTransform="matrix(8.33533 0.100728 -0.100385 8.3638 21.3986 9.83353)" gradientUnits="userSpaceOnUse">
<stop offset="0.22" stop-color="white"/>
<stop offset="0.3" stop-color="#F6F6F6"/>
<stop offset="0.41" stop-color="#DFDFDF"/>
<stop offset="0.55" stop-color="#B8B8B8"/>
<stop offset="0.72" stop-color="#838383"/>
<stop offset="0.91" stop-color="#414141"/>
<stop offset="1" stop-color="#1C1C1C"/>
</radialGradient>
<linearGradient id="paint31_linear_6561_4917" x1="2.73047" y1="21.4851" x2="4.23646" y2="21.4851" gradientUnits="userSpaceOnUse">
<stop stop-color="#1C1C1C"/>
<stop offset="0.28" stop-color="#1F1F1F"/>
<stop offset="0.54" stop-color="#2B2B2B"/>
<stop offset="0.81" stop-color="#3F3F3F"/>
<stop offset="1" stop-color="#525252"/>
</linearGradient>
<radialGradient id="paint32_radial_6561_4917" cx="0" cy="0" r="1" gradientUnits="userSpaceOnUse" gradientTransform="translate(0.863297 21.4729) scale(15.5585 15.6116)">
<stop offset="0.22" stop-color="#333333"/>
<stop offset="1"/>
</radialGradient>
<linearGradient id="paint33_linear_6561_4917" x1="45.0149" y1="21.5426" x2="43.1858" y2="21.5426" gradientUnits="userSpaceOnUse">
<stop/>
<stop offset="0.24" stop-color="#020202"/>
<stop offset="0.41" stop-color="#0B0B0B"/>
<stop offset="0.55" stop-color="#1A1A1B"/>
<stop offset="0.68" stop-color="#2E2F30"/>
<stop offset="0.8" stop-color="#494A4C"/>
<stop offset="0.92" stop-color="#6A6B6E"/>
<stop offset="1" stop-color="#87898C"/>
</linearGradient>
<radialGradient id="paint34_radial_6561_4917" cx="0" cy="0" r="1" gradientUnits="userSpaceOnUse" gradientTransform="translate(23.1315 21.6171) scale(21.7019 22.216)">
<stop offset="0.22" stop-color="#333333"/>
<stop offset="1"/>
</radialGradient>
<radialGradient id="paint35_radial_6561_4917" cx="0" cy="0" r="1" gradientUnits="userSpaceOnUse" gradientTransform="translate(21.407 21.5218) scale(14.2817 14.3305)">
<stop offset="0.95" stop-color="#C4C4C4"/>
<stop offset="0.96" stop-color="#B3B3B3"/>
<stop offset="0.97" stop-color="#8A8A8A"/>
<stop offset="0.98" stop-color="#474747"/>
<stop offset="1"/>
</radialGradient>
<linearGradient id="paint36_linear_6561_4917" x1="44.8898" y1="21.4851" x2="45.5985" y2="21.4851" gradientUnits="userSpaceOnUse">
<stop/>
<stop offset="0.1" stop-color="#252525"/>
<stop offset="0.31" stop-color="#848484"/>
<stop offset="0.56" stop-color="white"/>
</linearGradient>
<clipPath id="clip0_6561_4917">
<rect width="100" height="43" fill="white" transform="matrix(1 0 0 -1 0 43)"/>
</clipPath>
</defs>
</svg>
