<svg width="100" height="89" viewBox="0 0 100 89" fill="none" xmlns="http://www.w3.org/2000/svg">
<g clip-path="url(#clip0_6561_3150)">
<path d="M99.1102 42.6929C99.0435 42.734 98.9672 42.7751 98.8812 42.811C98.8681 42.8591 98.8549 42.9055 98.8417 42.9492C98.6285 43.6402 98.0818 44.1458 97.5229 44.5C98.0818 44.8542 98.6285 45.3598 98.8417 46.0508C98.8558 46.0945 98.8689 46.1409 98.8812 46.189C98.9672 46.2249 99.0435 46.266 99.1102 46.3071C99.4419 46.5144 99.8614 46.9508 99.9781 47.8518C100.146 49.1454 99.3805 52.8759 97.6834 54.934C97.0008 57.0393 95.7433 58.8744 94.2674 59.8969C93.5917 60.3657 92.938 60.5276 92.3396 60.5276C91.4787 60.5276 90.732 60.1926 90.1976 59.9529C90.0888 59.9039 89.9862 59.8576 89.8914 59.8182C89.5509 59.6765 88.9604 59.2645 88.3391 58.7931C87.8653 58.7397 87.4441 58.6785 87.1264 58.6278V58.8613C87.1264 59.5033 86.5999 60.0281 85.9559 60.0281H80.4505C80.6462 60.7392 81.034 62.1212 81.643 62.8446C82.1239 63.4157 83.3006 64.0438 84.4852 64.6289L90.3345 64.6044L90.3407 66.0441L89.6641 66.0468L89.6834 70.6476L90.6952 71.5266C91.2287 71.9902 91.5402 72.6611 91.549 73.3669L91.5876 76.4948C91.5963 77.2435 91.2717 77.9485 90.696 78.4287L89.7194 79.243L89.7404 84.31L90.417 84.3074L90.4231 85.7471L89.1578 85.7523V86.7049H87.3554V87.5533H86.2542V88.4262C86.2542 88.7428 85.9962 89 85.6786 89H84.9274C84.6098 89 84.3518 88.7428 84.3518 88.4262V88.2014H83.6007V87.7037C82.1721 87.3451 81.0595 86.6191 80.4128 85.5993C79.5616 84.2584 79.5055 82.4942 80.2478 80.3573C80.5049 79.6165 80.8699 78.9412 81.2999 78.3158L81.2903 75.9752C81.0182 75.8895 80.7322 75.7819 80.4417 75.6481C78.5692 74.7848 77.4153 73.2576 77.1055 71.231C76.973 70.3633 76.8361 69.472 76.7028 68.6043C76.6808 68.6594 76.6712 68.7198 76.6791 68.7827L77.5144 75.286C77.525 75.3673 77.5917 75.4312 77.6733 75.4382L77.7049 74.9413L78.1427 74.9685L78.0839 75.9114L77.6373 75.8746C77.3504 75.851 77.1161 75.6271 77.0792 75.3428L76.2438 68.8396C76.2026 68.5168 76.357 68.216 76.6177 68.0559C76.522 67.4375 76.4299 66.8375 76.343 66.2742C76.1815 66.4955 75.9437 66.7911 75.6322 67.1182C75.2382 67.5328 74.7916 67.9028 74.3213 68.2028C74.8486 68.5562 75.2268 69.123 75.319 69.786L75.5401 71.3683C75.8051 73.269 75.8051 75.1959 75.5401 77.0965L75.319 78.6788C75.1619 79.8037 74.1844 80.6512 73.0454 80.6512H56.3618C55.9537 80.6512 55.5659 80.5419 55.2298 80.3503C54.9499 80.1815 54.7963 80.0311 54.7963 80.0311C54.4225 79.683 54.1637 79.2124 54.0891 78.6788L53.868 77.0965C53.603 75.1959 53.603 73.269 53.868 71.3683L54.0891 69.786C54.1172 69.5839 54.1724 69.3915 54.2497 69.2113L40.9619 69.3845V69.9461C41.1602 70.1088 41.3638 70.2784 41.5682 70.4543C43.7023 72.2832 44.2885 73.2462 44.442 73.8183C44.8246 74.3028 45.0773 74.7786 45.1738 75.223C45.3449 76.0076 45.2677 76.5735 44.9378 76.9513C44.7684 77.1455 44.4596 77.3642 43.9296 77.3642C43.8795 77.3642 43.8269 77.3624 43.7725 77.3581C43.5944 77.3441 43.3232 77.3231 42.3396 76.4965C42.1886 76.5131 42.0324 76.5245 41.8701 76.5245C41.5235 76.5245 41.1514 76.486 40.7592 76.4082C40.5328 76.3627 40.2836 76.3207 40.0204 76.2761C38.218 75.97 35.7505 75.551 34.7704 73.2541C34.5922 72.8377 34.4466 72.4774 34.3185 72.1599C33.727 70.6983 33.5673 70.3056 32.481 69.6557L32.5775 69.4947L28.3884 69.549C26.0192 69.5796 24.0449 67.7471 23.9071 65.389L23.6245 60.5625C23.6245 60.5625 18.3122 59.8269 15.8491 59.3074V59.938H16.5617L17.3198 60.434H19.8742C20.792 60.434 21.5905 61.0532 21.816 61.941L21.9863 62.6128C22.3276 63.9598 22.3276 65.3829 21.9863 66.7299L21.816 67.4016C21.6318 68.1276 21.0605 68.6087 20.3559 68.76C20.2015 68.8002 20.04 68.8212 19.8742 68.8212H8.36595C8.21239 68.8212 8.06234 68.802 7.91843 68.7679C7.21205 68.6297 6.63204 68.1591 6.4346 67.4401L6.28367 66.8908C5.88442 65.4397 5.88442 63.9047 6.28367 62.4536L6.4346 61.9043C6.6724 61.0392 7.46652 60.4357 8.36683 60.4357H11.417L12.1751 59.9398H12.8868L12.8657 58.6785L7.27874 57.6945C5.45971 57.2589 3.97413 56.086 3.11069 54.5395H2.87728C2.29024 54.5395 1.81464 54.0655 1.81464 53.4803V50.3446C1.81464 50.1154 2.00154 49.9291 2.23145 49.9291H2.28936V48.953H2.18933C2.0033 48.953 1.84447 48.8428 1.77252 48.6844V48.8296C0.795002 48.8296 0 48.0372 0 47.0628V41.6634C0 40.689 0.795002 39.8966 1.77252 39.8966V40.0838C1.84447 39.9254 2.0033 39.8152 2.18933 39.8152H2.28936V38.8391H2.23145C2.00154 38.8391 1.81464 38.6528 1.81464 38.4236V35.2879C1.81464 34.7028 2.29024 34.2287 2.87728 34.2287H3.14052C4.00835 32.7085 5.4799 31.5565 7.27787 31.1262L12.2541 30.1921C12.7235 30.0696 12.8639 30.004 12.8639 30.004L12.8859 28.713H12.1742L11.3117 28.1488H8.36595C8.21239 28.1488 8.06234 28.1296 7.91843 28.0955C7.21205 27.9573 6.63204 27.4867 6.4346 26.7677L6.28367 26.2184C5.88442 24.7673 5.88442 23.2323 6.28367 21.7812L6.4346 21.2319C6.6724 20.3668 7.46652 19.7633 8.36683 19.7633H19.8733C20.7911 19.7633 21.5897 20.3826 21.8152 21.2704L21.9854 21.9421C22.3267 23.2891 22.3267 24.7122 21.9854 26.0592L21.8152 26.731C21.6309 27.4569 21.0597 27.938 20.355 28.0893C20.2006 28.1296 20.0391 28.1506 19.8733 28.1506H17.4242L16.5617 28.7147H15.8491V29.3646C18.3114 28.8424 23.621 28.0797 23.621 28.0797C23.621 28.0797 23.621 28.0841 23.621 28.0911L23.6465 28.0867L23.9071 23.583C24.0449 21.2249 26.0192 19.3924 28.3884 19.423L32.6021 19.4668L32.4801 19.2647C33.5673 18.6148 33.7262 18.2221 34.3176 16.7605C34.4466 16.443 34.5922 16.0827 34.7695 15.6663C35.7496 13.3703 38.218 12.9504 40.0195 12.6443C40.2827 12.5997 40.5319 12.5568 40.7583 12.5122C41.1506 12.4344 41.5226 12.3959 41.8692 12.3959C42.0324 12.3959 42.1878 12.4064 42.3387 12.4239C43.3232 11.5973 43.5935 11.5755 43.7716 11.5623C43.826 11.558 43.8787 11.5562 43.9287 11.5562C44.4587 11.5562 44.7676 11.7758 44.9369 11.9691C45.2668 12.3469 45.3449 12.912 45.173 13.6974C45.0764 14.1418 44.8228 14.6185 44.4411 15.1021C44.2867 15.6742 43.7014 16.6372 41.5674 18.4661C41.3629 18.6411 41.1593 18.8108 40.961 18.9743V19.5875L53.6547 19.7528L53.9373 19.0574L53.8688 18.565C53.6038 16.6643 53.6038 14.7374 53.8688 12.8367L54.09 11.2544C54.247 10.1296 55.2246 9.28205 56.3635 9.28205H73.0472C74.1861 9.28205 75.1637 10.1305 75.3207 11.2544L75.5419 12.8367C75.8069 14.7374 75.8069 16.6643 75.5419 18.565L75.3207 20.1473C75.2672 20.5321 75.1171 20.8838 74.8987 21.1811C75.1575 21.3876 75.405 21.6124 75.634 21.8538C75.9016 22.1354 76.1359 22.4416 76.3386 22.7669C76.4272 22.1931 76.522 21.58 76.6194 20.9485C76.3588 20.7884 76.2035 20.4875 76.2456 20.1648L77.081 13.6616C77.1178 13.3773 77.3521 13.1534 77.639 13.1298L78.0857 13.093L78.1445 14.0359L77.7066 14.063L77.675 13.5662C77.5934 13.5732 77.5258 13.6371 77.5162 13.7184L76.6808 20.2216C76.6729 20.2846 76.6826 20.345 76.7045 20.4001C76.8379 19.5324 76.9748 18.6411 77.1073 17.7734C77.417 15.7468 78.5701 14.2196 80.4435 13.3563C80.7339 13.2225 81.0209 13.1149 81.292 13.0292L81.3017 10.6885C80.8717 10.0631 80.5067 9.38789 80.2496 8.64704C79.5072 6.51021 79.5625 4.74686 80.4145 3.40511C81.0612 2.38611 82.1739 1.65926 83.6024 1.30064V0.802948H84.3536V0.578156C84.3536 0.261528 84.6115 0.00437164 84.9292 0.00437164H85.6803C85.998 0.00437164 86.256 0.261528 86.256 0.578156V1.45196H87.3572V2.30039H89.1596V3.25291L90.4249 3.25816L90.4187 4.69788L89.7422 4.69525L89.7211 9.76225L90.6978 10.5766C91.2734 11.0568 91.599 11.7618 91.5893 12.5105L91.5507 15.6383C91.5419 16.3442 91.2304 17.0151 90.6969 17.4786L89.6518 18.3866L89.6659 22.9585L90.3424 22.9611L90.3363 24.4008L84.4869 24.3763C83.3023 24.9615 82.1256 25.5895 81.6448 26.1607C81.0314 26.8884 80.6523 27.9931 80.4584 28.7007H85.9576C86.6017 28.7007 87.1282 29.2255 87.1282 29.8675V30.3775C87.4458 30.3268 87.8679 30.2655 88.3409 30.2122C88.9612 29.7398 89.5527 29.3279 89.8931 29.187C89.9879 29.1477 90.0906 29.1013 90.1994 29.0523C90.7338 28.8127 91.4805 28.4777 92.3413 28.4777C92.9398 28.4777 93.5935 28.6395 94.2692 29.1083C95.7451 30.1317 97.0025 31.9668 97.6852 34.0712C99.3814 36.1294 100.147 39.8598 99.9798 41.1535C99.8631 42.0544 99.4437 42.4909 99.112 42.6982L99.1102 42.6929Z" fill="#231F20"/>
<path d="M91.6421 36.9409V51.8305C91.6421 53.9175 89.9451 55.6091 87.8514 55.6091H86.3992C86.8247 55.784 87.1266 56.2021 87.1266 56.6876V58.8463C87.1266 59.4883 86.6001 60.0131 85.956 60.0131H79.8847C79.2406 60.0131 78.7141 59.4883 78.7141 58.8463V56.6876C78.7141 56.2021 79.016 55.784 79.4416 55.6091H77.8989L77.3856 61.5202L77.6585 61.4782C77.6655 61.5245 78.3877 66.8601 79.0125 70.9527C79.267 72.6189 80.3033 73.4814 81.2799 73.9292L81.2474 66.0912H81.1799L81.1737 64.6524L90.3347 64.6148L90.3408 66.0545L89.6643 66.0571L89.6836 70.6579L90.6953 71.537C91.2288 72.0005 91.5403 72.6714 91.5491 73.3773L91.5877 76.5051C91.5965 77.2538 91.2718 77.9588 90.6962 78.439L89.7196 79.2533L89.7406 84.3203L90.4172 84.3177L90.4233 85.7574L81.2624 85.795L81.2562 84.3553H81.3238L81.2887 75.9873C81.0167 75.9016 80.7306 75.794 80.4401 75.6602C78.5676 74.7969 77.4137 73.2697 77.104 71.2431C76.8749 69.7421 76.6327 67.4688 76.4178 66.0746C76.1975 66.4498 75.9351 66.8015 75.6315 67.1207C74.618 68.1861 73.2623 68.9663 72.0382 68.982L28.3868 69.5497C26.0176 69.5803 24.0433 67.7479 23.9055 65.3897L23.623 60.5633L18.1281 59.6903C14.2268 59.0711 10.3949 58.0757 6.6866 56.7199L6.49531 56.65C6.09869 56.5599 5.75383 56.3185 5.53359 55.9782L5.52218 55.8304C5.47392 55.1945 5.16855 54.605 4.67716 54.1974L4.30423 53.8878C4.14014 53.7513 4.03133 53.5597 3.99886 53.3489L3.87251 52.5311L3.80845 52.3781C3.43201 51.4789 3.26178 50.5062 3.31179 49.5327L3.39515 44.4929V44.1587L3.31179 39.1188C3.26178 38.1453 3.43113 37.1727 3.80845 36.2735L3.87251 36.1205L3.99886 35.3026C4.03133 35.0918 4.14014 34.9003 4.30423 34.7638L4.67716 34.4542C5.16943 34.0466 5.47392 33.4571 5.52218 32.8212L5.53359 32.6734C5.75383 32.3322 6.09869 32.0908 6.49531 32.0016L6.6866 31.9316C10.3949 30.5759 14.2268 29.5805 18.1281 28.9612L23.6449 28.0848L23.9055 23.5811C24.0433 21.223 26.0176 19.3905 28.3868 19.4212L72.0382 19.9888C73.2632 20.0046 74.6189 20.7856 75.6315 21.8501C75.8992 22.1309 76.1334 22.4379 76.3362 22.7633C76.5704 21.2483 76.846 19.4623 77.104 17.7689C77.4137 15.7423 78.5667 14.2151 80.4401 13.3518C80.7306 13.2179 81.0175 13.1104 81.2887 13.0247L81.3238 4.65662H81.2562L81.2624 3.21691L90.4233 3.25452L90.4172 4.69424L89.7406 4.69161L89.7196 9.75861L90.6962 10.5729C91.2718 11.0531 91.5974 11.7581 91.5877 12.5068L91.5491 15.6347C91.5403 16.3405 91.2288 17.0114 90.6953 17.475L89.6836 18.354L89.6643 22.9548L90.3408 22.9575L90.3347 24.3972L81.1737 24.3596L81.1799 22.9199H81.2474L81.2799 15.0828C80.3024 15.5306 79.2661 16.393 79.0125 18.0593C78.3877 22.1519 77.6655 26.7877 77.6585 26.834L77.3277 26.7824L77.8832 33.1632H79.6434C79.1151 33.0512 78.715 32.5815 78.715 32.0217V29.863C78.715 29.221 79.2415 28.6962 79.8856 28.6962H85.9569C86.601 28.6962 87.1275 29.221 87.1275 29.863V32.0217C87.1275 32.5807 86.7273 33.0512 86.1991 33.1632H87.8523C89.946 33.1632 91.643 34.8548 91.643 36.9418L91.6421 36.9409ZM89.7134 78.0008L90.0758 77.699C90.4286 77.4052 90.6278 76.9731 90.6216 76.5147L90.583 73.3869C90.5777 72.9548 90.3873 72.5437 90.06 72.2603L89.688 71.9367L89.7134 78.0008ZM88.7359 84.3221L89.3115 84.3195L89.2922 79.6067L89.2168 79.6697C88.8614 79.9662 88.6622 80.4018 88.671 80.8636L88.7368 84.3212L88.7359 84.3221ZM83.471 74.4076H89.5862V76.3319H83.4789L83.5122 84.344L87.7707 84.3265L87.7048 80.8837C87.6908 80.1289 88.0155 79.4178 88.5964 78.9332L89.2861 78.3577L89.258 71.5632L87.4153 69.9617L88.0497 69.2366L89.2527 70.2818L89.2352 66.0562L83.4359 66.0799L83.4701 74.4068L83.471 74.4076ZM81.7529 84.351L82.182 84.3492L82.1477 76.2042C82.0135 76.178 81.8705 76.1456 81.7187 76.1071L81.7529 84.351ZM81.7099 74.1015C81.859 74.154 82.003 74.1968 82.139 74.2336L82.1047 66.086L81.6756 66.0877L81.709 74.1015H81.7099ZM90.0609 16.7481C90.3873 16.4639 90.5786 16.0536 90.5839 15.6216L90.6225 12.4937C90.6278 12.0354 90.4295 11.6042 90.0767 11.3094L89.7143 11.0076L89.6888 17.0718L90.0609 16.7481ZM89.3115 4.68899L88.7359 4.68636L88.6701 8.14396C88.6613 8.60667 88.8605 9.04137 89.2159 9.33789L89.2914 9.40087L89.3107 4.68812L89.3115 4.68899ZM88.5964 10.0761C88.0155 9.59155 87.6908 8.88043 87.7048 8.12559L87.7707 4.68287L83.5122 4.66537L83.4789 12.6783H89.2782L89.287 10.6517L88.5973 10.0761H88.5964ZM89.2352 22.9513L89.2527 18.7258L88.0497 19.771L87.4153 19.0459L89.258 17.4444L89.2694 14.5999H83.4701L83.4359 22.9268L89.2352 22.9505V22.9513ZM82.1811 4.65925L81.752 4.6575L81.7178 12.9013C81.8696 12.8628 82.0126 12.8305 82.1469 12.8042L82.1811 4.65925ZM82.1056 22.9225L82.1398 14.7749C82.003 14.8107 81.8599 14.8545 81.7107 14.9069L81.6774 22.9207L82.1065 22.9225H82.1056Z" fill="#009444"/>
<path d="M95.3966 39.8221L94.3611 38.5705C94.0119 38.1489 93.4924 37.9049 92.944 37.9049H91.6392V50.9681H92.944C93.4924 50.9681 94.0119 50.7241 94.3611 50.3025L95.3966 49.0508C95.7748 48.5943 95.981 48.0205 95.981 47.4283V41.4447C95.981 40.8525 95.7739 40.2787 95.3966 39.8221Z" fill="url(#paint0_linear_6561_3150)"/>
<path d="M84.2255 16.9739C84.8494 18.0628 85.1767 19.29 85.1706 20.5207L85.16 22.9015L85.9498 22.9042L85.9603 20.5233C85.9664 19.1746 85.6084 17.8302 84.924 16.6362L83.7569 14.6H83.1778C83.1383 14.6018 83.0312 14.6079 82.8794 14.6262L84.2246 16.9747L84.2255 16.9739ZM83.341 10.8336L83.3322 12.6687L83.1286 12.6582C83.1067 12.6582 82.8865 12.6766 82.5425 12.7229L82.5521 10.831C82.56 9.09829 83.1506 7.44253 84.2606 6.04217L85.2267 4.82375L85.8655 5.25059L84.9003 6.46902C83.8885 7.74604 83.3506 9.25485 83.3436 10.8345L83.341 10.8336Z" fill="url(#paint1_linear_6561_3150)"/>
<path d="M87.7221 6.95281C87.7221 6.74027 87.7511 5.63818 87.7511 5.63818L87.4185 6.05365C86.3085 7.45401 85.7179 9.11064 85.71 10.8425L85.7021 12.6793H86.4919L86.4998 10.8451C86.5059 9.46313 86.9412 8.11789 87.7221 6.95194V6.95281ZM86.018 14.6019H86.9104L88.0828 16.6477C88.7672 17.8417 89.1252 19.186 89.1191 20.5348L89.1085 22.9156L88.3188 22.913L88.3293 20.5322C88.3346 19.3015 88.0082 18.0752 87.3843 16.9853L86.0189 14.601L86.018 14.6019Z" fill="url(#paint2_linear_6561_3150)"/>
<path d="M35.403 19.5123V16.318H36.1541V16.0932C36.1541 15.7766 36.4121 15.5194 36.7297 15.5194H37.4809C37.7985 15.5194 38.0565 15.7766 38.0565 16.0932V16.967H39.1577V17.8155H40.9601V19.6121C40.9601 19.6121 35.3275 19.4371 35.4021 19.5123H35.403Z" fill="url(#paint3_linear_6561_3150)"/>
<path d="M83.599 4.07766V0.798497H84.3502V0.573705C84.3502 0.257073 84.6081 -8.2016e-05 84.9258 -8.2016e-05H85.6769C85.9946 -8.2016e-05 86.2525 0.257073 86.2525 0.573705V1.44751H87.3538V2.29594H89.1561V4.09253L83.5981 4.07766H83.599Z" fill="url(#paint4_linear_6561_3150)"/>
<path d="M53.9977 71.3866C53.7345 73.2751 53.7345 75.1906 53.9977 77.079L54.2189 78.6613C54.368 79.7275 55.2824 80.5209 56.3617 80.5209H73.0453C74.1246 80.5209 75.0398 79.7275 75.1881 78.6613L75.4093 77.079C75.6725 75.1906 75.6725 73.2751 75.4093 71.3866L75.1881 69.8043C75.0977 69.1553 74.7222 68.6078 74.1992 68.2789C73.4955 68.7058 72.7452 68.9708 72.038 68.9804L54.3935 69.2096C54.3092 69.395 54.2487 69.5935 54.2197 69.8043L53.9986 71.3866H53.9977ZM75.1881 20.1254C75.1372 20.4875 74.9968 20.8172 74.7933 21.0954C73.9316 20.435 72.9488 19.9994 72.0371 19.9872L54.1671 19.7545L53.9977 18.5422C53.7345 16.6538 53.7345 14.7383 53.9977 12.8498L54.2189 11.2675C54.368 10.2013 55.2824 9.40798 56.3617 9.40798H73.0453C74.1246 9.40798 75.0398 10.2013 75.1881 11.2675L75.4093 12.8498C75.6725 14.7383 75.6725 16.6538 75.4093 18.5422L75.1881 20.1245V20.1254Z" fill="url(#paint5_linear_6561_3150)"/>
<path d="M21.8994 26.0338C22.239 24.6964 22.239 23.2969 21.8994 21.9596L21.7292 21.2878C21.5142 20.4403 20.749 19.8463 19.8724 19.8463H8.36596C7.50339 19.8463 6.747 20.4219 6.51886 21.2511L6.36793 21.8004C5.97306 23.2375 5.97306 24.7542 6.36793 26.1912L6.51886 26.7405C6.747 27.5697 7.50339 28.1453 8.36596 28.1453H19.8724C20.749 28.1453 21.5142 27.5514 21.7292 26.7038L21.8994 26.0321V26.0338ZM6.51886 61.9244C6.747 61.0952 7.50339 60.5196 8.36596 60.5196H19.8724C20.749 60.5196 21.5142 61.1135 21.7292 61.9611L21.8994 62.6329C22.239 63.9702 22.239 65.3697 21.8994 66.7071L21.7292 67.3788C21.5142 68.2264 20.749 68.8203 19.8724 68.8203H8.36596C7.50339 68.8203 6.747 68.2448 6.51886 67.4156L6.36793 66.8663C5.97306 65.4292 5.97306 63.9125 6.36793 62.4754L6.51886 61.9261V61.9244Z" fill="url(#paint6_linear_6561_3150)"/>
<path opacity="0.15" d="M71.6588 65.6104H27.9793C27.4196 65.6104 26.9658 65.158 26.9658 64.6001V24.3676C26.9658 23.8097 27.4196 23.3574 27.9793 23.3574H71.6588C72.2185 23.3574 72.6723 23.8097 72.6723 24.3676V64.6001C72.6723 65.158 72.2185 65.6104 71.6588 65.6104Z" fill="url(#paint7_linear_6561_3150)"/>
<path d="M1.77252 39.8948C0.795002 39.8948 0 40.6873 0 41.6617V47.061C0 48.0354 0.795002 48.8279 1.77252 48.8279V47.9532C1.27937 47.9532 0.877486 47.5535 0.877486 47.061V41.6617C0.877486 41.1701 1.2785 40.7695 1.77252 40.7695V39.8948Z" fill="url(#paint8_linear_6561_3150)"/>
<path d="M43.9279 11.5519C43.8779 11.5519 43.8252 11.5537 43.7708 11.558C43.5366 11.5764 43.1434 11.6061 41.1752 13.4657C40.1758 14.4095 39.2263 15.3979 38.9254 15.7477C38.4875 16.2568 37.775 16.0661 37.5609 15.9585L37.5793 17.0274C38.4217 17.2373 39.0535 17.2373 39.7923 16.4877C40.5706 15.697 43.2768 12.9383 43.8946 12.6899C44.0332 12.6846 44.0771 12.7117 44.078 12.7126C44.078 12.7135 44.1885 12.8604 44.0595 13.4517C43.8656 14.3421 42.3607 15.8824 39.859 17.1044C38.0847 17.9712 37.0572 18.9412 36.5562 19.5132C37.1476 19.5132 37.5732 19.5281 38.1725 19.5281C38.6805 19.0995 39.3948 18.5974 40.3609 18.126C42.9758 16.8481 44.8651 15.1083 45.1739 13.6931C45.345 12.9085 45.2678 12.3426 44.9379 11.9648C44.7685 11.7706 44.4597 11.5519 43.9297 11.5519H43.9279Z" fill="url(#paint9_linear_6561_3150)"/>
<path d="M41.8676 12.3924C41.521 12.3924 41.149 12.4309 40.7567 12.5088C40.5303 12.5543 40.2811 12.5962 40.0179 12.6408C38.2155 12.947 35.748 13.366 34.7679 15.6629C34.5897 16.0792 34.4441 16.4396 34.316 16.7571C33.7245 18.2187 33.5648 18.6114 32.4785 19.2613L32.6005 19.4633C32.6005 19.4633 33.4832 19.4974 33.9351 19.4974C34.5845 18.8992 34.8512 18.2405 35.2926 17.1498C35.4198 16.8367 35.5638 16.4807 35.7375 16.0739C36.493 14.3054 38.5463 13.9564 40.196 13.6756C40.4671 13.6292 40.7234 13.5864 40.9647 13.5383C41.9106 13.3493 42.7161 13.4464 43.1189 13.7972C43.362 14.0088 43.4673 14.3167 43.4409 14.7374C43.39 15.5421 38.4989 19.556 38.4989 19.556C38.4989 19.556 39.4536 19.5718 40.2118 19.5718C40.6233 19.249 41.0937 18.8685 41.5684 18.4618C44.1201 16.2742 44.4588 15.3261 44.4922 14.8022C44.551 13.8584 44.1552 13.3038 43.8121 13.0056C43.3462 12.5997 42.6758 12.3916 41.8702 12.3916L41.8676 12.3924Z" fill="url(#paint10_linear_6561_3150)"/>
<path d="M35.403 69.4912V72.6856H36.1541V72.9103C36.1541 73.227 36.4121 73.4841 36.7297 73.4841H37.4809C37.7985 73.4841 38.0565 73.227 38.0565 72.9103V72.0365H39.1577V71.1881H40.9601V69.3915C40.9601 69.3915 35.3275 69.5665 35.4021 69.4912H35.403Z" fill="url(#paint11_linear_6561_3150)"/>
<path d="M44.9369 77.038C45.2669 76.6601 45.3449 76.0951 45.173 75.3096C44.8641 73.8944 42.9757 72.1546 40.36 70.8767C39.3938 70.4044 38.6787 69.9032 38.1715 69.4746C37.5713 69.4746 37.1466 69.4895 36.5552 69.4895C37.0562 70.0615 38.0838 71.0307 39.858 71.8984C42.3589 73.1203 43.8638 74.6606 44.0586 75.551C44.1875 76.1423 44.0779 76.2892 44.077 76.2901C44.077 76.2901 44.0331 76.3181 43.8936 76.3129C43.275 76.0636 40.5697 73.3048 39.7913 72.515C39.013 71.7252 38.4207 71.7654 37.5783 71.9753L37.5599 73.0442C37.7749 72.9366 38.4865 72.7459 38.9244 73.255C39.2254 73.6049 40.1748 74.5932 41.1743 75.537C43.1425 77.3966 43.5347 77.4263 43.7699 77.4447C43.8243 77.4491 43.8769 77.4508 43.9269 77.4508C44.4569 77.4508 44.7658 77.2313 44.9352 77.038H44.9369Z" fill="url(#paint12_linear_6561_3150)"/>
<path d="M41.8676 76.6112C41.521 76.6112 41.149 76.5727 40.7567 76.4949C40.5303 76.4494 40.2811 76.4074 40.0179 76.3628C38.2155 76.0566 35.748 75.6377 34.7679 73.3408C34.5897 72.9244 34.4441 72.5641 34.316 72.2466C33.7245 70.785 33.5648 70.3922 32.4785 69.7424L32.6005 69.5403C32.6005 69.5403 33.4832 69.5062 33.9351 69.5062C34.5845 70.1045 34.8512 70.7631 35.2926 71.8538C35.4198 72.167 35.5638 72.523 35.7375 72.9297C36.493 74.6983 38.5463 75.0473 40.196 75.328C40.4671 75.3744 40.7234 75.4173 40.9647 75.4654C41.9106 75.6543 42.7161 75.5572 43.1189 75.2065C43.362 74.9948 43.4673 74.6869 43.4409 74.2662C43.39 73.4615 38.4989 69.4476 38.4989 69.4476C38.4989 69.4476 39.4536 69.4318 40.2118 69.4318C40.6233 69.7546 41.0937 70.1351 41.5684 70.5418C44.1201 72.7294 44.4588 73.6775 44.4922 74.2015C44.551 75.1452 44.1552 75.6998 43.8121 75.998C43.3462 76.4039 42.6758 76.6121 41.8702 76.6121L41.8676 76.6112Z" fill="url(#paint13_linear_6561_3150)"/>
<path opacity="0.2" d="M85.9549 33.1879H79.8844C79.2379 33.1879 78.7139 32.6655 78.7139 32.0211V29.8624C78.7139 29.2179 79.2379 28.6955 79.8844 28.6955H85.9549C86.6014 28.6955 87.1254 29.2179 87.1254 29.8624V32.0211C87.1254 32.6655 86.6014 33.1879 85.9549 33.1879Z" fill="url(#paint14_linear_6561_3150)"/>
<path d="M78.0831 13.0878L77.6365 13.1245C77.3495 13.1481 77.1152 13.372 77.0784 13.6563L76.243 20.1595C76.1877 20.5907 76.4808 20.9826 76.9117 21.0517L79.423 21.4567L79.4932 21.0246L76.9819 20.6196C76.7871 20.5881 76.6537 20.4106 76.6783 20.2146L77.5136 13.7114C77.5241 13.6301 77.5908 13.5662 77.6724 13.5592L77.704 14.056L78.1419 14.0289L78.0831 13.086V13.0878Z" fill="url(#paint15_linear_6561_3150)"/>
<path opacity="0.3" d="M88.7531 4.69706L87.7879 4.67869L87.7045 8.12579C87.6905 8.88063 88.0151 9.59174 88.596 10.0763L90.0755 11.3096C90.4282 11.6035 90.6274 12.0356 90.6213 12.4939L90.5827 15.6218C90.5774 16.0538 90.387 16.4649 90.0597 16.7483L87.4141 19.047L88.0485 19.7721L90.6941 17.4734C91.2276 17.0099 91.5391 16.339 91.5479 15.6331L91.5865 12.5053C91.5953 11.7566 91.2706 11.0516 90.695 10.5714L89.2155 9.33809C88.8602 9.04157 88.661 8.60598 88.6697 8.14416L88.7531 4.69706Z" fill="#231F20"/>
<path opacity="0.21" d="M90.3386 24.4007L81.1777 24.3624L81.1838 22.9227L90.3447 22.961L90.3386 24.4007Z" fill="#231F20"/>
<path opacity="0.21" d="M90.4211 4.69841L81.2603 4.66016L81.2663 3.22046L90.4272 3.25871L90.4211 4.69841Z" fill="#231F20"/>
<path opacity="0.2" d="M87.8509 33.1626H77.8774L78.5645 40.3489C78.6777 41.8271 78.6786 46.8101 78.5663 48.2892L77.8774 55.6102H87.8509C89.9446 55.6102 91.6417 53.9186 91.6417 51.8316V36.942C91.6417 34.8551 89.9446 33.1634 87.8509 33.1634V33.1626Z" fill="url(#paint16_linear_6561_3150)"/>
<path opacity="0.2" d="M77.8696 55.6084H87.4395C89.0813 55.6084 90.4133 54.2815 90.4133 52.6441V36.125C90.4133 34.4885 89.0821 33.1607 87.4395 33.1607H77.8696L78.5672 40.4826C78.6787 41.9302 78.6787 46.8826 78.5672 48.3302L77.8705 55.6075L77.8696 55.6084Z" fill="url(#paint17_linear_6561_3150)"/>
<path d="M88.5275 36.8868V35.1514C88.5275 35.0464 88.4424 34.9616 88.3371 34.9616H86.748C86.6427 34.9616 86.5576 35.0464 86.5576 35.1514V35.4908C86.5576 35.5957 86.4725 35.6806 86.3672 35.6806H85.5107C85.4072 35.6806 85.3238 35.5975 85.3238 35.4943V35.0779C85.3238 34.9634 85.2308 34.8706 85.1159 34.8706H84.9246C84.8825 34.8706 84.8421 34.8829 84.8079 34.9065L83.8119 35.5817C83.7601 35.6167 83.6987 35.636 83.6364 35.636H83.1433C83.0274 35.636 82.9327 35.5424 82.9327 35.4261V35.1085C82.9327 34.9773 82.8265 34.8715 82.6949 34.8715H82.5483C82.5045 34.8715 82.4623 34.8838 82.4246 34.9056L81.1944 35.6491C81.1058 35.7024 80.9926 35.6386 80.9926 35.5354V35.1199C80.9926 34.9572 80.8601 34.826 80.6977 34.826H79.528C79.3648 34.826 79.2332 34.9581 79.2332 35.1199V36.187C79.2332 36.3418 79.3306 36.48 79.4763 36.5334L79.5658 36.5658C79.6737 36.6051 79.7886 36.6252 79.9036 36.6252L86.3873 36.6357C86.4926 36.6357 86.5778 36.7206 86.5778 36.8255V36.8946C86.5778 36.9996 86.6638 37.0853 86.769 37.0844L88.3397 37.0757C88.4442 37.0757 88.5293 36.99 88.5293 36.8859L88.5275 36.8868ZM88.338 40.9654L86.7673 40.9741C86.662 40.9741 86.576 40.8893 86.576 40.7843V40.7152C86.576 40.6103 86.4909 40.5254 86.3856 40.5254L79.9018 40.5149C79.7869 40.5149 79.6719 40.4948 79.564 40.4554L79.4745 40.4231C79.3288 40.3697 79.2314 40.2315 79.2314 40.0767V39.0096C79.2314 38.8469 79.3639 38.7157 79.5263 38.7157H80.696C80.8592 38.7157 80.9908 38.8478 80.9908 39.0096V39.4251C80.9908 39.5283 81.104 39.5921 81.1926 39.5388L82.4229 38.7953C82.4597 38.7726 82.5027 38.7612 82.5466 38.7612H82.6931C82.8247 38.7612 82.9309 38.867 82.9309 38.9982V39.3157C82.9309 39.4312 83.0248 39.5257 83.1415 39.5257H83.6347C83.697 39.5257 83.7584 39.5073 83.8102 39.4714L84.8061 38.7962C84.8403 38.7726 84.8816 38.7603 84.9228 38.7603H85.1141C85.2291 38.7603 85.3221 38.853 85.3221 38.9676V39.384C85.3221 39.4872 85.4054 39.5703 85.509 39.5703H86.3654C86.4707 39.5703 86.5558 39.4854 86.5558 39.3805V39.0411C86.5558 38.9361 86.6409 38.8513 86.7462 38.8513H88.3354C88.4407 38.8513 88.5258 38.9361 88.5258 39.0411V40.7764C88.5258 40.8805 88.4415 40.9663 88.3362 40.9663L88.338 40.9654Z" fill="#231F20"/>
<path d="M78.6859 42.9683H88.6638C89.2868 42.9683 89.7923 43.4721 89.7923 44.0932V46.6122C89.7923 47.2332 89.2868 47.7371 88.6638 47.7371H78.6157C78.6157 47.7371 78.6605 47.2332 78.6605 46.6122V44.0932C78.6605 43.4721 78.6859 42.9683 78.6859 42.9683Z" fill="url(#paint18_linear_6561_3150)"/>
<path d="M93.9076 46.6306H94.4595V42.1942H93.9076C92.7704 42.1942 91.8481 43.1135 91.8481 44.2471V44.5769C91.8481 45.7104 92.7704 46.6297 93.9076 46.6297V46.6306ZM93.9076 51.6399C92.7704 51.6399 91.8481 50.7206 91.8481 49.587V49.2573C91.8481 48.1237 92.7704 47.2044 93.9076 47.2044H94.4595V51.6407H93.9076V51.6399ZM91.8481 39.4486V39.1189C91.8481 37.9853 92.7704 37.066 93.9076 37.066H94.4595V41.5024H93.9076C92.7704 41.5024 91.8481 40.5831 91.8481 39.4495V39.4486Z" fill="url(#paint19_linear_6561_3150)"/>
<path d="M94.6658 42.1821H94.4816V46.6185H94.6658C94.9703 46.6185 95.2178 46.3718 95.2178 46.0683V42.7323C95.2178 42.4288 94.9703 42.1821 94.6658 42.1821Z" fill="url(#paint20_linear_6561_3150)"/>
<path d="M94.6658 47.1992H94.4816V51.6356H94.6658C94.9703 51.6356 95.2178 51.3889 95.2178 51.0854V47.7494C95.2178 47.4459 94.9703 47.1992 94.6658 47.1992Z" fill="url(#paint21_linear_6561_3150)"/>
<path d="M94.6658 37.0618H94.4816V41.4981H94.6658C94.9703 41.4981 95.2178 41.2515 95.2178 40.948V37.6119C95.2178 37.3084 94.9703 37.0618 94.6658 37.0618Z" fill="url(#paint22_linear_6561_3150)"/>
<path d="M7.27793 57.692C5.45891 57.2564 3.97332 56.0835 3.10988 54.537H2.87646C2.28943 54.537 1.81383 54.063 1.81383 53.4778V50.3421C1.81383 50.1129 2.00073 49.9266 2.23064 49.9266H2.28855V49.3004H2.18852C1.93492 49.3004 1.73047 49.0957 1.73047 48.8438V39.832C1.73047 39.5801 1.9358 39.3754 2.18852 39.3754H2.28855V38.8366H2.23064C2.00073 38.8366 1.81383 38.6503 1.81383 38.4211V35.2854C1.81383 34.7003 2.28943 34.2262 2.87646 34.2262H3.13971C4.00754 32.706 5.47909 31.5541 7.27706 31.1237L12.2533 30.1896C10.3719 30.6811 8.51343 31.261 6.68475 31.9293L6.49346 31.9993C6.09684 32.0894 5.75199 32.3308 5.53174 32.671L5.52033 32.8188C5.47207 33.4547 5.1667 34.0443 4.67531 34.4519L4.30238 34.7615C4.13829 34.8979 4.02948 35.0895 3.99701 35.3003L3.87066 36.1181L3.8066 36.2712C3.43016 37.1704 3.25993 38.143 3.30994 39.1165L3.3933 44.1564V44.4905L3.30994 49.5304C3.25993 50.5039 3.42928 51.4766 3.8066 52.3757L3.87066 52.5288L3.99701 53.3466C4.02948 53.5574 4.13829 53.749 4.30238 53.8854L4.67531 54.195C5.16758 54.6026 5.47207 55.1922 5.52033 55.8281L5.53174 55.9759C5.75199 56.317 6.09684 56.5584 6.49346 56.6476L6.68475 56.7176C8.91795 57.5346 11.1959 58.2203 13.5072 58.7713C15.034 59.1361 13.5177 58.7906 13.5177 58.7906L7.27618 57.6911L7.27793 57.692Z" fill="url(#paint23_linear_6561_3150)"/>
<path opacity="0.32" d="M22.8681 41.4973C22.7487 43.5615 22.7496 45.631 22.8698 47.6944L23.3507 55.9128L9.66894 53.7244C7.262 53.2337 5.56494 51.4039 5.56494 49.3003V39.5153C5.56494 37.4117 7.262 35.5828 9.66894 35.0912L23.3656 32.9001L22.8681 41.4973Z" fill="url(#paint24_linear_6561_3150)"/>
<path opacity="0.22" d="M23.3658 32.9L9.66918 35.0911C7.26223 35.5818 5.56518 37.4116 5.56518 39.5152V49.3002C5.56518 51.4038 7.26223 53.2327 9.66918 53.7243L23.3509 55.9127L23.6229 60.5616L18.1281 59.6887C14.2268 59.0695 10.3949 58.0741 6.6866 56.7183L6.49531 56.6483C6.09869 56.5583 5.75383 56.3168 5.53359 55.9766L5.52218 55.8288C5.47392 55.1929 5.16855 54.6034 4.67716 54.1958L4.30423 53.8861C4.14014 53.7497 4.03133 53.5581 3.99886 53.3473L3.87251 52.5295L3.80845 52.3764C3.43201 51.4773 3.26178 50.5046 3.31179 49.5311L3.39515 44.4912V44.1571L3.31179 39.1172C3.26178 38.1437 3.43113 37.1711 3.80845 36.2719L3.87251 36.1188L3.99886 35.301C4.03133 35.0902 4.14014 34.8987 4.30423 34.7622L4.67716 34.4526C5.16943 34.045 5.47392 33.4554 5.52218 32.8196L5.53359 32.6717C5.75383 32.3306 6.09869 32.0892 6.49531 32L6.6866 31.93C10.3949 30.5743 14.2268 29.5789 18.1281 28.9596L23.6449 28.0832L23.3658 32.9Z" fill="url(#paint25_linear_6561_3150)"/>
<path opacity="0.3" d="M23.5437 59.4325C23.5437 59.4325 10.1849 56.7787 7.25581 55.4737C4.32676 54.1687 4.54877 52.4596 4.54877 52.4596C4.54877 52.4596 5.43678 53.6745 7.8332 54.439C10.2296 55.2034 23.4112 57.4977 23.4112 57.4977L23.5446 59.4316L23.5437 59.4325Z" fill="url(#paint26_linear_6561_3150)"/>
<path opacity="0.3" d="M23.5437 29.2833C23.5437 29.2833 10.1849 31.9371 7.25581 33.2421C4.32676 34.5471 4.54877 36.2562 4.54877 36.2562C4.54877 36.2562 5.43678 35.0413 7.8332 34.2768C10.2296 33.5124 23.4112 31.2181 23.4112 31.2181L23.5446 29.2842L23.5437 29.2833Z" fill="url(#paint27_linear_6561_3150)"/>
<path d="M2.96257 54.3899C2.96257 54.3899 2.42379 52.672 2.42379 49.9614C1.99295 50.0147 2.02015 50.7398 2.02015 51.6259C2.02015 52.5119 1.64283 54.2027 2.96257 54.3907V54.3899Z" fill="url(#paint28_linear_6561_3150)"/>
<path d="M2.96257 34.394C2.96257 34.394 2.42379 36.1119 2.42379 38.8225C1.99295 38.7692 2.02015 38.044 2.02015 37.158C2.02015 36.272 1.64283 34.5812 2.96257 34.3932V34.394Z" fill="url(#paint29_linear_6561_3150)"/>
<path opacity="0.2" d="M78.2577 51.4659L77.2179 63.4455C77.1293 64.8152 76.5791 66.1229 75.6314 67.1191C74.6179 68.1845 73.2622 68.9647 72.0381 68.9804L28.3867 69.5481C26.0175 69.5787 24.0431 67.7463 23.9054 65.3881L22.8708 47.6943C22.7497 45.6301 22.7497 43.5615 22.8691 41.4972L23.9054 23.5795C24.0431 21.2214 26.0175 19.3889 28.3867 19.4195L72.0381 19.9872C73.2631 20.003 74.6188 20.784 75.6314 21.8485C76.5791 22.8448 77.1293 24.1515 77.2179 25.5213L78.256 37.4554C78.8088 42.1086 78.8097 46.8109 78.2577 51.4642V51.4659ZM72.6716 24.3676C72.6716 23.8122 72.2153 23.3573 71.6581 23.3573H27.9795C27.4223 23.3573 26.966 23.8122 26.966 24.3676V64.6C26.966 65.1555 27.4223 65.6103 27.9795 65.6103H71.6581C72.2153 65.6103 72.6716 65.1555 72.6716 64.6V24.3676Z" fill="url(#paint30_linear_6561_3150)"/>
<path d="M85.0143 45.3222C85.0143 41.241 82.0906 37.828 78.2208 37.0539L78.2559 37.4563C78.3095 37.9067 78.356 38.3572 78.399 38.8076C81.1244 39.5756 83.1602 42.0002 83.3331 44.9172H78.6675C78.6657 45.1875 78.6613 45.4569 78.6561 45.7272H83.334C83.1567 48.7081 81.0367 51.1747 78.2217 51.8858L78.0708 53.6194C82.0142 52.9048 85.0143 49.4559 85.0143 45.3222Z" fill="url(#paint31_linear_6561_3150)"/>
<path d="M98.8408 42.9491C98.3477 44.5454 96.0758 45.1559 95.9837 45.1804L95.9802 44.4851C95.9986 44.4798 97.7913 43.9681 98.1695 42.7427C98.5916 41.3747 98.5512 38.1008 97.3763 35.51C96.2522 33.0321 93.5776 31.2049 91.641 30.8707C90.2397 30.6293 88.0723 30.9267 87.1255 31.0806V30.3704C87.8617 30.2523 89.1534 30.0791 90.3643 30.0791C90.8574 30.0791 91.3365 30.108 91.7604 30.1806C93.8769 30.5453 96.7954 32.5309 98.016 35.2205C99.319 38.0929 99.2787 41.5295 98.8408 42.9465V42.9491Z" fill="url(#paint32_linear_6561_3150)"/>
<path opacity="0.21" d="M81.2805 15.0811L81.248 23.0091L81.6771 23.0109L81.7105 14.907C81.5701 14.9568 81.4262 15.0146 81.2814 15.0811H81.2805ZM81.2884 13.0238L81.3235 4.63393L81.7526 4.63567L81.7184 12.9014C81.5806 12.9363 81.4376 12.9766 81.2893 13.0238H81.2884Z" fill="#231F20"/>
<path opacity="0.21" d="M82.1387 14.775L82.1045 23.0127L83.4356 23.0179L83.4707 14.6018H83.1777C83.0882 14.6062 82.6749 14.6333 82.1387 14.7759V14.775ZM83.1285 12.6775C83.0996 12.6784 82.7117 12.6924 82.1475 12.8044L82.1817 4.63751L83.5129 4.64276L83.4795 12.6775H83.1294H83.1285Z" fill="#231F20"/>
<path d="M84.1389 2.84089C84.3723 2.82864 84.5566 2.63796 84.5566 2.4053C84.5566 2.15514 84.3451 1.95484 84.0951 1.96883C80.7176 2.16126 80.2368 4.50364 80.2368 7.02708C80.2368 9.31261 81.7706 11.0121 83.6379 12.6775H84.969C82.8596 10.8617 81.1142 9.23302 81.1142 7.02708C81.1142 4.06631 81.8882 2.95634 84.1389 2.84089ZM87.2575 22.9698C86.6538 23.3162 85.9448 23.6608 85.1937 24.0255C83.8002 24.7025 82.2216 25.4705 81.6434 26.1554C81.03 26.8831 80.6509 27.9878 80.457 28.6954H79.8849C79.7629 28.6954 79.6453 28.7147 79.5356 28.7488C79.7182 28.0106 80.1578 26.5603 80.9721 25.593C81.6697 24.7655 83.2658 23.9897 84.8093 23.2392C85.5464 22.8806 86.2423 22.543 86.8205 22.2115C88.5527 21.2187 88.8115 19.9093 88.8115 19.2166V19.172C88.8115 18.3191 88.8133 17.2573 86.2037 14.9079C86.0896 14.8047 85.9738 14.7024 85.8588 14.6009H87.1627C89.689 16.9818 89.6908 18.1923 89.6899 19.1728V19.2166C89.6899 20.0974 89.374 21.7566 87.2584 22.9698H87.2575Z" fill="url(#paint33_linear_6561_3150)"/>
<path d="M84.1389 2.84089C84.3723 2.82864 84.5566 2.63796 84.5566 2.4053C84.5566 2.15514 84.3451 1.95484 84.0951 1.96883C80.7176 2.16126 80.2368 4.50364 80.2368 7.02708C80.2368 9.31261 81.7706 11.0121 83.6379 12.6775H84.969C82.8596 10.8617 81.1142 9.23302 81.1142 7.02708C81.1142 4.06631 81.8882 2.95634 84.1389 2.84089ZM87.2575 22.9698C86.6538 23.3162 85.9448 23.6608 85.1937 24.0255C83.8002 24.7025 82.2216 25.4705 81.6434 26.1554C81.03 26.8831 80.6509 27.9878 80.457 28.6954H79.8849C79.7629 28.6954 79.6453 28.7147 79.5356 28.7488C79.7182 28.0106 80.1578 26.5603 80.9721 25.593C81.6697 24.7655 83.2658 23.9897 84.8093 23.2392C85.5464 22.8806 86.2423 22.543 86.8205 22.2115C88.5527 21.2187 88.8115 19.9093 88.8115 19.2166V19.172C88.8115 18.3191 88.8133 17.2573 86.2037 14.9079C86.0896 14.8047 85.9738 14.7024 85.8588 14.6009H87.1627C89.689 16.9818 89.6908 18.1923 89.6899 19.1728V19.2166C89.6899 20.0974 89.374 21.7566 87.2584 22.9698H87.2575Z" fill="url(#paint34_linear_6561_3150)"/>
<path d="M77.2847 26.2849L77.4479 28.2057L77.5628 29.4285C77.5611 29.3288 77.991 25.8274 81.0631 24.4533C81.6335 24.1979 82.2047 23.9652 82.7567 23.7387C85.6217 22.5684 88.3278 21.4619 88.9526 17.9746C89.186 16.6704 88.7876 15.5797 88.0909 14.601H86.5106C87.388 15.5675 87.9558 16.576 87.7443 17.7594C87.238 20.5846 85.0557 21.4768 82.2916 22.606C81.73 22.8352 81.1439 23.0608 80.5603 23.3364C79.1941 23.981 78.3745 24.6956 77.9051 25.2484C77.7559 26.2088 77.6611 26.8149 77.6594 26.8316L77.3285 26.78L77.2855 26.284L77.2847 26.2849ZM85.5848 12.0277C85.8261 12.2428 86.0683 12.4589 86.307 12.6776H84.4722C83.2612 11.593 82.0687 10.4585 81.5852 9.07214C80.7964 6.80673 80.8429 4.94979 81.7186 3.84245C82.1293 3.32377 82.9041 2.74474 84.3221 2.74474C84.3239 2.74474 84.3256 2.74474 84.3274 2.74474C84.6301 2.74474 84.8644 3.00977 84.8354 3.31065L84.8161 3.50483C84.7907 3.76636 84.5704 3.96841 84.3063 3.96928C83.5587 3.97016 83.0147 4.18183 82.683 4.6008C82.0854 5.35652 82.1082 6.83997 82.7453 8.67066C83.1629 9.86984 84.3397 10.9177 85.5848 12.0277Z" fill="url(#paint35_linear_6561_3150)"/>
<path opacity="0.3" d="M83.1777 14.6019C82.9013 14.615 79.5028 14.8451 79.0123 18.0578C78.3875 22.1504 77.6653 26.7862 77.6583 26.8325L77.3275 26.7809L77.2178 25.5223C77.1538 24.5391 76.851 23.5892 76.3359 22.7618C76.5702 21.2468 76.8458 19.4608 77.1037 17.7674C77.4135 15.7408 78.5665 14.2136 80.4399 13.3503C81.7992 12.724 83.075 12.6785 83.1286 12.6768H88.9884V14.6011H83.1777V14.6019Z" fill="#231F20"/>
<path opacity="0.21" d="M89.7136 11.0078L89.2862 10.6518L89.2582 17.4463L89.6881 17.0728L89.7136 11.0087V11.0078ZM89.2915 9.40102L89.3108 4.6664L89.7399 4.66814L89.7188 9.75788L89.2915 9.40189V9.40102ZM89.6837 18.3524L89.6644 23.0433L89.2354 23.0416L89.2529 18.7259L89.6829 18.3524H89.6837Z" fill="#231F20"/>
<path d="M12.1744 59.9371L11.2969 60.5109H12.8957V60.5345H15.8475V60.5109H17.4375L16.56 59.9371H15.8475V59.2514L12.8641 58.6461L12.886 59.9371H12.1744ZM15.8475 28.7103V29.3961L12.8641 30.0014L12.886 28.7103H12.1744L11.2969 28.1366H12.8957V28.1129H15.8475V28.1366H17.4375L16.56 28.7103H15.8475Z" fill="url(#paint36_linear_6561_3150)"/>
<path d="M99.9771 41.1482C99.8604 42.0491 99.441 42.4856 99.1093 42.6929C98.7688 42.9054 98.1695 43.0952 97.249 42.7891C96.9217 42.6806 96.4689 42.5206 95.981 42.3447V41.4447C95.981 41.4027 95.9775 41.3607 95.9758 41.3188C96.583 41.54 97.1648 41.7473 97.5544 41.8768C97.865 41.98 98.2985 42.064 98.5959 41.8777C98.8776 41.7019 98.9812 41.317 99.0189 41.0249C99.1496 40.0181 98.4599 36.4626 96.8857 34.6152C95.4914 32.9787 92.6554 32.4513 91.3505 32.4014C90.6249 32.3734 87.9257 32.684 86.8008 32.8239C87.0008 32.614 87.1255 32.3315 87.1255 32.0218V31.8154C88.1723 31.6903 90.3844 31.4384 91.2602 31.4384C91.3067 31.4384 91.3497 31.4384 91.3883 31.4402C91.5594 31.4472 95.609 31.6282 97.6228 33.9925C99.362 36.034 100.146 39.8388 99.9771 41.1482Z" fill="url(#paint37_linear_6561_3150)"/>
<path d="M98.3609 43.4233C97.5598 44.2692 96.641 44.3837 95.9812 44.2744V43.6481C96.4164 43.7487 97.1877 43.7706 97.9143 43.0035C98.8049 42.0632 98.2056 38.1281 97.2167 34.6442C96.6077 32.5004 95.374 30.6172 93.9165 29.6061C92.5537 28.6615 91.3375 29.2072 90.4495 29.6061C90.3346 29.6577 90.2266 29.7058 90.1275 29.7478C89.5922 29.97 88.125 31.1359 87.1265 31.9633V31.1683C88.0619 30.4038 89.3246 29.418 89.8914 29.1828C89.9862 29.1434 90.0889 29.097 90.1977 29.0481C90.7321 28.8084 91.4788 28.4734 92.3396 28.4734C92.938 28.4734 93.5918 28.6352 94.2674 29.104C95.8381 30.193 97.1623 32.2021 97.8081 34.478C98.2969 36.1985 99.7798 41.9268 98.3609 43.4242V43.4233Z" fill="url(#paint38_linear_6561_3150)"/>
<path d="M82.8792 74.3746C83.031 74.3921 83.1372 74.3991 83.1776 74.4009H83.7567L84.9238 72.3646C85.6082 71.1707 85.9662 69.8263 85.9601 68.4776L85.9496 66.0967L85.1598 66.0993L85.1703 68.4802C85.1756 69.7109 84.8492 70.9372 84.2253 72.027L82.8801 74.3755L82.8792 74.3746ZM84.8983 82.5319L85.8636 83.7503L85.2248 84.1771L84.2586 82.9587C83.1486 81.5583 82.5581 79.9017 82.5502 78.1699L82.5405 76.2779C82.8845 76.3243 83.1047 76.3418 83.1267 76.3427L83.3303 76.3322L83.339 78.1672C83.3461 79.746 83.8848 81.2557 84.8957 82.5327L84.8983 82.5319Z" fill="url(#paint39_linear_6561_3150)"/>
<path d="M86.4998 78.1548L86.4919 76.3206H85.7021L85.71 78.1574C85.7179 79.8901 86.3085 81.5459 87.4185 82.9462L87.7511 83.3617C87.7511 83.3617 87.7221 82.2596 87.7221 82.0471C86.9412 80.8811 86.5068 79.5359 86.4998 78.1539V78.1548ZM87.3843 72.0137C88.0082 70.9247 88.3355 69.6975 88.3293 68.4668L88.3188 66.086L89.1085 66.0834L89.1191 68.4642C89.1252 69.813 88.7672 71.1573 88.0828 72.3513L86.9104 74.3971H86.018L87.3834 72.0128L87.3843 72.0137Z" fill="url(#paint40_linear_6561_3150)"/>
<path d="M83.599 84.9223V88.2014H84.3502V88.4262C84.3502 88.7428 84.6081 89 84.9258 89H85.6769C85.9946 89 86.2525 88.7428 86.2525 88.4262V87.5524H87.3538V86.704H89.1561V84.9074L83.5981 84.9223H83.599Z" fill="url(#paint41_linear_6561_3150)"/>
<path d="M78.0831 75.9122L77.6365 75.8755C77.3495 75.8518 77.1152 75.6279 77.0784 75.3437L76.243 68.8404C76.1877 68.4092 76.4808 68.0174 76.9117 67.9483L79.423 67.5433L79.4932 67.9754L76.9819 68.3804C76.7871 68.4118 76.6537 68.5894 76.6783 68.7853L77.5136 75.2885C77.5241 75.3699 77.5908 75.4337 77.6724 75.4407L77.704 74.9439L78.1419 74.971L78.0831 75.9139V75.9122Z" fill="url(#paint42_linear_6561_3150)"/>
<path opacity="0.3" d="M88.7531 84.303L87.7879 84.3214L87.7045 80.8743C87.6905 80.1195 88.0151 79.4084 88.596 78.9238L90.0755 77.6905C90.4282 77.3966 90.6274 76.9645 90.6213 76.5062L90.5827 73.3783C90.5774 72.9463 90.387 72.5352 90.0597 72.2518L87.4141 69.9531L88.0485 69.228L90.6941 71.5267C91.2276 71.9902 91.5391 72.6611 91.5479 73.367L91.5865 76.4948C91.5953 77.2435 91.2706 77.9485 90.695 78.4287L89.2155 79.662C88.8602 79.9585 88.661 80.3941 88.6697 80.8559L88.7531 84.303Z" fill="#231F20"/>
<path d="M81.1148 81.9729C81.1148 79.767 82.8601 78.1375 84.9696 76.3225H83.6384C81.7711 77.9879 80.2373 79.6883 80.2373 81.9729C80.2373 84.4955 80.7173 86.8387 84.0956 87.0312C84.3466 87.0452 84.5572 86.8449 84.5572 86.5947C84.5572 86.362 84.3729 86.1705 84.1395 86.1591C81.8887 86.0437 81.1148 84.9346 81.1148 81.9729Z" fill="url(#paint43_linear_6561_3150)"/>
<path d="M81.1148 81.9729C81.1148 79.767 82.8601 78.1375 84.9696 76.3225H83.6385C81.7712 77.9879 80.2373 79.6883 80.2373 81.9729C80.2373 84.4955 80.7173 86.8387 84.0956 87.0312C84.3466 87.0452 84.5572 86.8449 84.5572 86.5947C84.5572 86.362 84.3729 86.1705 84.1395 86.1591C81.8887 86.0437 81.1148 84.9346 81.1148 81.9729ZM89.6887 69.7826V69.8263C89.6887 70.8068 89.6887 72.0174 87.1616 74.3982H85.8576C85.9734 74.2968 86.0884 74.1944 86.2025 74.0912C88.8121 71.7418 88.8112 70.68 88.8104 69.8272V69.7826C88.8104 69.0907 88.5515 67.7813 86.8193 66.7877C86.2411 66.4562 85.5452 66.1177 84.8081 65.7599C83.2646 65.0095 81.6685 64.2336 80.9709 63.4062C80.1557 62.4388 79.7064 60.6982 79.5239 59.96C79.6345 59.9949 79.7521 60.0133 79.8732 60.0133H80.4453C80.6401 60.72 81.0288 62.116 81.6422 62.8438C82.2196 63.5286 83.799 64.2966 85.1925 64.9736C85.9436 65.3383 86.6526 65.683 87.2563 66.0293C89.3719 67.2416 89.6878 68.9009 89.6878 69.7826H89.6887Z" fill="url(#paint44_linear_6561_3150)"/>
<path d="M77.3276 62.2193L77.6584 62.1677C77.661 62.1843 77.7558 62.7913 77.9041 63.7508C78.3735 64.3036 79.1931 65.0182 80.5593 65.6629C81.1429 65.9384 81.729 66.1632 82.2906 66.3932C85.0538 67.5224 87.237 68.4146 87.7433 71.2398C87.9557 72.4232 87.3871 73.4318 86.5096 74.3983H88.0899C88.7867 73.4186 89.1859 72.3279 88.9516 71.0246C88.3268 67.5364 85.6207 66.4308 82.7557 65.2605C82.2029 65.0349 81.6316 64.8013 81.0621 64.5459C77.9901 63.1718 77.5601 59.6705 77.5619 59.5708L77.4469 60.7936L77.2837 62.7143L77.3267 62.2193H77.3276ZM82.7452 80.3294C82.1072 82.1593 82.0853 83.6427 82.6829 84.3993C83.0137 84.8183 83.5586 85.03 84.3062 85.0308C84.5703 85.0308 84.7897 85.2329 84.816 85.4953L84.8353 85.6895C84.8652 85.9895 84.63 86.2545 84.3273 86.2554C84.3255 86.2554 84.3238 86.2554 84.322 86.2554C82.904 86.2554 82.1283 85.6772 81.7185 85.1577C80.8437 84.0512 80.7963 82.1934 81.5851 79.928C82.0677 78.5416 83.2611 77.4072 84.4721 76.3226H86.3069C86.0682 76.5412 85.826 76.7573 85.5847 76.9724C84.3396 78.0824 83.1628 79.1303 82.7452 80.3294Z" fill="url(#paint45_linear_6561_3150)"/>
<path opacity="0.3" d="M83.1777 74.3983C82.9013 74.3852 79.5028 74.1552 79.0123 70.9425C78.3875 66.8499 77.6653 62.2141 77.6583 62.1677L77.3275 62.2193L77.2178 63.478C77.1538 64.4611 76.851 65.411 76.3359 66.2385C76.5702 67.7534 76.8458 69.5395 77.1037 71.2329C77.4135 73.2595 78.5665 74.7867 80.4399 75.65C81.7992 76.2763 83.075 76.3217 83.1286 76.3235H88.9884V74.3992H83.1777V74.3983Z" fill="#231F20"/>
<path opacity="0.21" d="M90.4234 85.7461L90.4173 84.3064L89.7407 84.309L89.7197 79.242L89.2923 79.598L89.3116 84.3108L83.5123 84.3344L83.479 76.3215H83.1289C83.0999 76.3206 82.7121 76.3066 82.1478 76.1946L82.1821 84.3396L81.753 84.3414L81.7187 76.0976C81.581 76.0626 81.438 76.0223 81.2897 75.9751L81.3248 84.3431H81.2572L81.2633 85.7828L90.4243 85.7452L90.4234 85.7461ZM89.6837 70.6474L89.2537 70.274L89.2362 66.0484L83.4369 66.072L83.4711 74.3989H83.178C83.0885 74.3946 82.6752 74.3674 82.1391 74.2249L82.1048 66.0773L81.6757 66.079L81.7091 74.0928C81.5687 74.0429 81.4248 73.9852 81.28 73.9187L81.2475 66.0808H81.18L81.1738 64.6419L90.3348 64.6043L90.3409 66.044L89.6644 66.0466L89.6837 70.6474ZM89.7135 77.9921L89.2862 78.3481L89.2581 71.5536L89.6881 71.9271L89.7135 77.9912V77.9921Z" fill="#231F20"/>
<path d="M99.9771 47.8516C99.8604 46.9507 99.441 46.5142 99.1093 46.3069C98.7688 46.0944 98.1695 45.9046 97.249 46.2107C96.9217 46.3192 96.4689 46.4793 95.981 46.6551V47.5551C95.981 47.5971 95.9775 47.6391 95.9758 47.6811C96.583 47.4598 97.1648 47.2525 97.5544 47.123C97.865 47.0198 98.2985 46.9358 98.5959 47.1221C98.8776 47.298 98.9812 47.6828 99.0189 47.975C99.1496 48.9817 98.4599 52.5373 96.8857 54.3846C95.4914 56.0211 92.6554 56.5485 91.3505 56.5984C90.6249 56.6264 87.9257 56.3159 86.8008 56.1759C87.0008 56.3858 87.1255 56.6684 87.1255 56.978V57.1844C88.1723 57.3095 90.3844 57.5614 91.2602 57.5614C91.3067 57.5614 91.3497 57.5614 91.3883 57.5597C91.5594 57.5527 95.609 57.3716 97.6228 55.0073C99.362 52.9659 100.146 49.161 99.9771 47.8516Z" fill="url(#paint46_linear_6561_3150)"/>
<path opacity="0.5" d="M96.3486 44.3617C96.3486 44.3617 96.088 44.4562 95.981 44.4851C95.981 44.674 95.9845 45.1804 95.9845 45.1804C95.9845 45.1804 96.3293 45.0886 96.5917 44.9722C96.1591 44.8078 96.3486 44.3617 96.3486 44.3617ZM96.4987 43.7031C96.4987 43.7031 96.1582 44.1387 96.5908 44.304C96.3091 44.3232 95.9836 44.2699 95.9836 44.2699C95.9836 44.2699 95.9889 43.8387 95.9889 43.6497C96.2126 43.732 96.4996 43.7031 96.4996 43.7031H96.4987ZM96.6013 42.5651C96.3048 42.4637 95.9889 42.3473 95.9889 42.3473C95.9889 42.3473 95.9941 41.5094 95.9941 41.3205C96.2179 41.4027 96.8883 41.6502 96.8883 41.6502C96.8883 41.6502 96.203 42.0718 96.6013 42.566V42.5651Z" fill="#231F20"/>
<path opacity="0.5" d="M67.4084 73.7446V73.5487C67.4084 73.379 67.2706 73.2417 67.1004 73.2417H62.1654C61.9952 73.2417 61.8574 73.379 61.8574 73.5487V73.7446C61.8574 73.9143 61.9952 74.0516 62.1654 74.0516H67.1004C67.2706 74.0516 67.4084 73.9143 67.4084 73.7446ZM67.1004 72.9128H62.1654C61.9952 72.9128 61.8574 72.7755 61.8574 72.6058V72.4099C61.8574 72.2402 61.9952 72.1029 62.1654 72.1029H67.1004C67.2706 72.1029 67.4084 72.2402 67.4084 72.4099V72.6058C67.4084 72.7755 67.2706 72.9128 67.1004 72.9128ZM67.1004 71.774H62.1654C61.9952 71.774 61.8574 71.6367 61.8574 71.467V71.271C61.8574 71.1014 61.9952 70.964 62.1654 70.964H67.1004C67.2706 70.964 67.4084 71.1014 67.4084 71.271V71.467C67.4084 71.6367 67.2706 71.774 67.1004 71.774Z" fill="url(#paint47_linear_6561_3150)"/>
<path d="M91.641 58.1275C93.5776 57.7934 96.2522 55.9671 97.3763 53.4882C98.5512 50.8975 98.5916 47.6235 98.1695 46.2556C97.9668 45.5987 97.357 45.1465 96.8322 44.8683C97.0481 44.7704 97.2859 44.6488 97.5219 44.4992C98.0809 44.8534 98.6276 45.359 98.8408 46.05C99.2787 47.4679 99.319 50.9036 98.016 53.776C96.7963 56.4656 93.8777 58.4512 91.7604 58.8159C91.3374 58.8885 90.8574 58.9174 90.3643 58.9174C89.1534 58.9174 87.8617 58.7433 87.1255 58.6261V57.9159C88.0723 58.0698 90.2388 58.3672 91.641 58.1258V58.1275Z" fill="url(#paint48_linear_6561_3150)"/>
<path d="M90.4495 59.395C91.3375 59.7938 92.5537 60.3396 93.9165 59.395C95.3748 58.3839 96.6086 56.5007 97.2167 54.3569C98.2056 50.873 98.8049 46.9379 97.9143 45.9976C97.1877 45.2305 96.4164 45.2524 95.9812 45.3529V44.7267L95.9838 45.1815C96.0242 45.171 96.4892 45.0459 97.0377 44.773C97.4747 44.885 97.9345 45.1273 98.3609 45.5777C99.7798 47.0752 98.296 52.8034 97.8081 54.5239C97.1614 56.7998 95.8381 58.809 94.2674 59.8979C93.5918 60.3668 92.938 60.5286 92.3396 60.5286C91.4788 60.5286 90.7321 60.1936 90.1977 59.9539C90.0889 59.9049 89.9862 59.8586 89.8914 59.8192C89.3246 59.5839 88.0619 58.5982 87.1265 57.8337V57.0386C88.1259 57.8661 89.5922 59.032 90.1275 59.2542C90.2275 59.2953 90.3346 59.3443 90.4495 59.3959V59.395Z" fill="url(#paint49_linear_6561_3150)"/>
<path d="M60.335 69.1326V74.1987C60.335 74.8591 60.872 75.3953 61.5354 75.3953H66.6327C67.1206 75.3953 67.5786 75.1626 67.8647 74.769L70.6086 70.9974C70.8323 70.6895 70.9534 70.3186 70.9534 69.9382V68.948L60.3358 69.1335L60.335 69.1326Z" fill="url(#paint50_linear_6561_3150)"/>
<path d="M53.6538 19.7484L54.1961 18.4128C54.383 17.9527 54.6612 17.5338 55.013 17.183L56.7829 15.4188C57.2304 14.9727 57.8412 14.7261 58.4747 14.7357L63.1614 14.8083C63.6484 14.8161 64.1345 14.8616 64.6136 14.9456L66.0773 15.2019C67.0653 15.3751 67.9726 15.8561 68.6693 16.576L71.9652 19.9855L53.6538 19.7476V19.7484Z" fill="url(#paint51_linear_6561_3150)"/>
</g>
<defs>
<linearGradient id="paint0_linear_6561_3150" x1="91.64" y1="44.4361" x2="95.9818" y2="44.4361" gradientUnits="userSpaceOnUse">
<stop stop-color="#00000F"/>
<stop offset="0.52" stop-color="#272733"/>
<stop offset="0.69" stop-color="#2C2C38"/>
<stop offset="0.76" stop-color="#31313D"/>
<stop offset="0.89" stop-color="#25252A"/>
<stop offset="1" stop-color="#1E1E1E"/>
</linearGradient>
<linearGradient id="paint1_linear_6561_3150" x1="82.5425" y1="13.8635" x2="85.9603" y2="13.8635" gradientUnits="userSpaceOnUse">
<stop stop-color="white"/>
<stop offset="1" stop-color="#231F20"/>
</linearGradient>
<linearGradient id="paint2_linear_6561_3150" x1="85.7021" y1="14.2774" x2="89.1191" y2="14.2774" gradientUnits="userSpaceOnUse">
<stop stop-color="white"/>
<stop offset="1" stop-color="#231F20"/>
</linearGradient>
<linearGradient id="paint3_linear_6561_3150" x1="35.4021" y1="17.5653" x2="40.9601" y2="17.5653" gradientUnits="userSpaceOnUse">
<stop stop-color="#00000F"/>
<stop offset="0.75" stop-color="#61616A"/>
</linearGradient>
<linearGradient id="paint4_linear_6561_3150" x1="83.599" y1="2.04666" x2="89.157" y2="2.04666" gradientUnits="userSpaceOnUse">
<stop stop-color="#00000F"/>
<stop offset="0.75" stop-color="#61616A"/>
</linearGradient>
<linearGradient id="paint5_linear_6561_3150" x1="53.8003" y1="44.9653" x2="75.6067" y2="44.9653" gradientUnits="userSpaceOnUse">
<stop stop-color="#22292C"/>
<stop offset="0.08" stop-color="#181F22"/>
<stop offset="0.17" stop-color="#151C20"/>
<stop offset="0.34" stop-color="#1A2023"/>
<stop offset="0.57" stop-color="#2A2C2D"/>
<stop offset="0.64" stop-color="#323232"/>
<stop offset="0.88" stop-color="#202625"/>
<stop offset="1" stop-color="#10181C"/>
</linearGradient>
<linearGradient id="paint6_linear_6561_3150" x1="6.07134" y1="44.3329" x2="22.1539" y2="44.3329" gradientUnits="userSpaceOnUse">
<stop stop-color="#32383B"/>
<stop offset="0.05" stop-color="#22282C"/>
<stop offset="0.11" stop-color="#181F22"/>
<stop offset="0.17" stop-color="#151C20"/>
<stop offset="0.34" stop-color="#1A2023"/>
<stop offset="0.57" stop-color="#2A2C2D"/>
<stop offset="0.64" stop-color="#323232"/>
<stop offset="0.89" stop-color="#202625"/>
<stop offset="1" stop-color="#43494C"/>
</linearGradient>
<linearGradient id="paint7_linear_6561_3150" x1="26.9658" y1="44.4843" x2="72.6714" y2="44.4843" gradientUnits="userSpaceOnUse">
<stop stop-color="white"/>
<stop offset="0.21" stop-color="#FBFBFB"/>
<stop offset="0.4" stop-color="#F0F0F1"/>
<stop offset="0.58" stop-color="#DEDEDF"/>
<stop offset="0.76" stop-color="#C4C5C7"/>
<stop offset="0.93" stop-color="#A3A5A7"/>
<stop offset="1" stop-color="#939598"/>
</linearGradient>
<linearGradient id="paint8_linear_6561_3150" x1="0" y1="44.3609" x2="1.77252" y2="44.3609" gradientUnits="userSpaceOnUse">
<stop stop-color="#2B2B2B"/>
<stop offset="0.03" stop-color="#1F2222"/>
<stop offset="0.08" stop-color="#101716"/>
<stop offset="0.91" stop-color="#102430"/>
</linearGradient>
<linearGradient id="paint9_linear_6561_3150" x1="36.5553" y1="15.5404" x2="45.2617" y2="15.5404" gradientUnits="userSpaceOnUse">
<stop stop-color="#00000F"/>
<stop offset="0.52" stop-color="#272733"/>
<stop offset="0.69" stop-color="#2C2C38"/>
<stop offset="0.76" stop-color="#31313D"/>
<stop offset="0.89" stop-color="#25252A"/>
<stop offset="1" stop-color="#1E1E1E"/>
</linearGradient>
<linearGradient id="paint10_linear_6561_3150" x1="32.4785" y1="15.9821" x2="44.4966" y2="15.9821" gradientUnits="userSpaceOnUse">
<stop stop-color="#00000F"/>
<stop offset="0.75" stop-color="#61616A"/>
</linearGradient>
<linearGradient id="paint11_linear_6561_3150" x1="-5.70848e-05" y1="71.4374" x2="0.0876915" y2="71.4374" gradientUnits="userSpaceOnUse">
<stop stop-color="#00000F"/>
<stop offset="0.75" stop-color="#61616A"/>
</linearGradient>
<linearGradient id="paint12_linear_6561_3150" x1="36.5552" y1="73.4632" x2="45.2616" y2="73.4632" gradientUnits="userSpaceOnUse">
<stop stop-color="#00000F"/>
<stop offset="0.52" stop-color="#272733"/>
<stop offset="0.69" stop-color="#2C2C38"/>
<stop offset="0.76" stop-color="#31313D"/>
<stop offset="0.89" stop-color="#25252A"/>
<stop offset="1" stop-color="#1E1E1E"/>
</linearGradient>
<linearGradient id="paint13_linear_6561_3150" x1="32.4785" y1="73.0206" x2="44.4966" y2="73.0206" gradientUnits="userSpaceOnUse">
<stop stop-color="#00000F"/>
<stop offset="0.75" stop-color="#61616A"/>
</linearGradient>
<linearGradient id="paint14_linear_6561_3150" x1="78.7139" y1="30.9417" x2="87.1263" y2="30.9417" gradientUnits="userSpaceOnUse">
<stop stop-color="#6D6E71"/>
<stop offset="0.14" stop-color="#8F9092"/>
<stop offset="0.32" stop-color="#B7B7B9"/>
<stop offset="0.5" stop-color="#D6D6D7"/>
<stop offset="0.68" stop-color="#ECEDED"/>
<stop offset="0.85" stop-color="#FAFAFA"/>
<stop offset="1" stop-color="white"/>
</linearGradient>
<linearGradient id="paint15_linear_6561_3150" x1="76.236" y1="17.2722" x2="79.4923" y2="17.2722" gradientUnits="userSpaceOnUse">
<stop stop-color="#00000F"/>
<stop offset="0.75" stop-color="#61616A"/>
</linearGradient>
<linearGradient id="paint16_linear_6561_3150" x1="77.8774" y1="44.3855" x2="91.6417" y2="44.3855" gradientUnits="userSpaceOnUse">
<stop stop-color="white"/>
<stop offset="0.15" stop-color="#FAFAFA"/>
<stop offset="0.32" stop-color="#ECEDED"/>
<stop offset="0.5" stop-color="#D6D6D7"/>
<stop offset="0.68" stop-color="#B7B7B9"/>
<stop offset="0.86" stop-color="#8F9092"/>
<stop offset="1" stop-color="#6D6E71"/>
</linearGradient>
<linearGradient id="paint17_linear_6561_3150" x1="77.8696" y1="44.3854" x2="90.4133" y2="44.3854" gradientUnits="userSpaceOnUse">
<stop stop-color="#6D6E71"/>
<stop offset="0.14" stop-color="#8F9092"/>
<stop offset="0.32" stop-color="#B7B7B9"/>
<stop offset="0.5" stop-color="#D6D6D7"/>
<stop offset="0.68" stop-color="#ECEDED"/>
<stop offset="0.85" stop-color="#FAFAFA"/>
<stop offset="1" stop-color="white"/>
</linearGradient>
<linearGradient id="paint18_linear_6561_3150" x1="78.6148" y1="45.3527" x2="89.7914" y2="45.3527" gradientUnits="userSpaceOnUse">
<stop offset="0.07" stop-color="#4C5B64"/>
<stop offset="0.14" stop-color="#48545C"/>
<stop offset="0.23" stop-color="#3F4349"/>
<stop offset="0.27" stop-color="#3C3C41"/>
<stop offset="0.92" stop-color="#101716"/>
<stop offset="0.97" stop-color="#1F2222"/>
<stop offset="1" stop-color="#2B2B2B"/>
</linearGradient>
<linearGradient id="paint19_linear_6561_3150" x1="91.8481" y1="44.3521" x2="94.4595" y2="44.3521" gradientUnits="userSpaceOnUse">
<stop stop-color="#2B2B2B"/>
<stop offset="0.03" stop-color="#1F2222"/>
<stop offset="0.08" stop-color="#101716"/>
<stop offset="0.52" stop-color="#3C3C41"/>
<stop offset="0.59" stop-color="#3F4349"/>
<stop offset="0.79" stop-color="#48545C"/>
<stop offset="0.93" stop-color="#4C5B64"/>
</linearGradient>
<linearGradient id="paint20_linear_6561_3150" x1="94.8501" y1="42.1821" x2="94.8501" y2="46.6185" gradientUnits="userSpaceOnUse">
<stop stop-color="#FFDE17"/>
<stop offset="0.01" stop-color="#FFE027"/>
<stop offset="0.04" stop-color="#FFE654"/>
<stop offset="0.08" stop-color="#FFEC7D"/>
<stop offset="0.11" stop-color="#FFF1A0"/>
<stop offset="0.15" stop-color="#FFF5BD"/>
<stop offset="0.2" stop-color="#FFF9D5"/>
<stop offset="0.25" stop-color="#FFFBE8"/>
<stop offset="0.31" stop-color="#FFFDF5"/>
<stop offset="0.38" stop-color="#FFFEFC"/>
<stop offset="0.54" stop-color="white"/>
<stop offset="0.63" stop-color="#FFFEFC"/>
<stop offset="0.69" stop-color="#FFFEF2"/>
<stop offset="0.74" stop-color="#FFFDE2"/>
<stop offset="0.79" stop-color="#FFFCCC"/>
<stop offset="0.84" stop-color="#FFFAAF"/>
<stop offset="0.88" stop-color="#FFF98B"/>
<stop offset="0.92" stop-color="#FFF661"/>
<stop offset="0.96" stop-color="#FFF431"/>
<stop offset="1" stop-color="#FFF200"/>
</linearGradient>
<linearGradient id="paint21_linear_6561_3150" x1="-0.000101752" y1="47.1992" x2="0.0870858" y2="51.6356" gradientUnits="userSpaceOnUse">
<stop stop-color="#FFDE17"/>
<stop offset="0.01" stop-color="#FFE027"/>
<stop offset="0.04" stop-color="#FFE654"/>
<stop offset="0.08" stop-color="#FFEC7D"/>
<stop offset="0.11" stop-color="#FFF1A0"/>
<stop offset="0.15" stop-color="#FFF5BD"/>
<stop offset="0.2" stop-color="#FFF9D5"/>
<stop offset="0.25" stop-color="#FFFBE8"/>
<stop offset="0.31" stop-color="#FFFDF5"/>
<stop offset="0.38" stop-color="#FFFEFC"/>
<stop offset="0.54" stop-color="white"/>
<stop offset="0.63" stop-color="#FFFEFC"/>
<stop offset="0.69" stop-color="#FFFEF2"/>
<stop offset="0.74" stop-color="#FFFDE2"/>
<stop offset="0.79" stop-color="#FFFCCC"/>
<stop offset="0.84" stop-color="#FFFAAF"/>
<stop offset="0.88" stop-color="#FFF98B"/>
<stop offset="0.92" stop-color="#FFF661"/>
<stop offset="0.96" stop-color="#FFF431"/>
<stop offset="1" stop-color="#FFF200"/>
</linearGradient>
<linearGradient id="paint22_linear_6561_3150" x1="-0.000102068" y1="37.0609" x2="0.0870854" y2="41.4973" gradientUnits="userSpaceOnUse">
<stop stop-color="#FFDE17"/>
<stop offset="0.01" stop-color="#FFE027"/>
<stop offset="0.04" stop-color="#FFE654"/>
<stop offset="0.08" stop-color="#FFEC7D"/>
<stop offset="0.11" stop-color="#FFF1A0"/>
<stop offset="0.15" stop-color="#FFF5BD"/>
<stop offset="0.2" stop-color="#FFF9D5"/>
<stop offset="0.25" stop-color="#FFFBE8"/>
<stop offset="0.31" stop-color="#FFFDF5"/>
<stop offset="0.38" stop-color="#FFFEFC"/>
<stop offset="0.54" stop-color="white"/>
<stop offset="0.63" stop-color="#FFFEFC"/>
<stop offset="0.69" stop-color="#FFFEF2"/>
<stop offset="0.74" stop-color="#FFFDE2"/>
<stop offset="0.79" stop-color="#FFFCCC"/>
<stop offset="0.84" stop-color="#FFFAAF"/>
<stop offset="0.88" stop-color="#FFF98B"/>
<stop offset="0.92" stop-color="#FFF661"/>
<stop offset="0.96" stop-color="#FFF431"/>
<stop offset="1" stop-color="#FFF200"/>
</linearGradient>
<linearGradient id="paint23_linear_6561_3150" x1="1.73047" y1="44.5649" x2="14.1899" y2="44.5649" gradientUnits="userSpaceOnUse">
<stop stop-color="#2B2B2B"/>
<stop offset="0.03" stop-color="#1F2222"/>
<stop offset="0.08" stop-color="#101716"/>
<stop offset="0.52" stop-color="#102430"/>
<stop offset="0.59" stop-color="#0F1E27"/>
<stop offset="0.79" stop-color="#0D1114"/>
<stop offset="0.93" stop-color="#0D0D0D"/>
<stop offset="1" stop-color="#1E1E1E"/>
</linearGradient>
<linearGradient id="paint24_linear_6561_3150" x1="5.56406" y1="44.4065" x2="23.3656" y2="44.4065" gradientUnits="userSpaceOnUse">
<stop stop-color="white"/>
<stop offset="0.12" stop-color="#FAFAFA"/>
<stop offset="0.25" stop-color="#EDECED"/>
<stop offset="0.39" stop-color="#D7D6D6"/>
<stop offset="0.54" stop-color="#B8B7B7"/>
<stop offset="0.68" stop-color="#908E8F"/>
<stop offset="0.84" stop-color="#605D5E"/>
<stop offset="0.99" stop-color="#282425"/>
<stop offset="1" stop-color="#231F20"/>
</linearGradient>
<linearGradient id="paint25_linear_6561_3150" x1="3.30302" y1="44.3224" x2="23.644" y2="44.3224" gradientUnits="userSpaceOnUse">
<stop stop-color="white"/>
<stop offset="0.12" stop-color="#FAFAFA"/>
<stop offset="0.25" stop-color="#EDECED"/>
<stop offset="0.39" stop-color="#D7D6D6"/>
<stop offset="0.54" stop-color="#B8B7B7"/>
<stop offset="0.68" stop-color="#908E8F"/>
<stop offset="0.84" stop-color="#605D5E"/>
<stop offset="0.99" stop-color="#282425"/>
<stop offset="1" stop-color="#231F20"/>
</linearGradient>
<linearGradient id="paint26_linear_6561_3150" x1="4.54526" y1="55.946" x2="23.5437" y2="55.946" gradientUnits="userSpaceOnUse">
<stop stop-color="white"/>
<stop offset="0.12" stop-color="#FAFAFA"/>
<stop offset="0.25" stop-color="#EDECED"/>
<stop offset="0.39" stop-color="#D7D6D6"/>
<stop offset="0.54" stop-color="#B8B7B7"/>
<stop offset="0.68" stop-color="#908E8F"/>
<stop offset="0.84" stop-color="#605D5E"/>
<stop offset="0.99" stop-color="#282425"/>
<stop offset="1" stop-color="#231F20"/>
</linearGradient>
<linearGradient id="paint27_linear_6561_3150" x1="4.54526" y1="32.7698" x2="23.5437" y2="32.7698" gradientUnits="userSpaceOnUse">
<stop stop-color="white"/>
<stop offset="0.12" stop-color="#FAFAFA"/>
<stop offset="0.25" stop-color="#EDECED"/>
<stop offset="0.39" stop-color="#D7D6D6"/>
<stop offset="0.54" stop-color="#B8B7B7"/>
<stop offset="0.68" stop-color="#908E8F"/>
<stop offset="0.84" stop-color="#605D5E"/>
<stop offset="0.99" stop-color="#282425"/>
<stop offset="1" stop-color="#231F20"/>
</linearGradient>
<linearGradient id="paint28_linear_6561_3150" x1="1.97013" y1="52.1752" x2="2.96257" y2="52.1752" gradientUnits="userSpaceOnUse">
<stop stop-color="#2B2B2B"/>
<stop offset="0.03" stop-color="#1F2222"/>
<stop offset="0.08" stop-color="#101716"/>
<stop offset="0.91" stop-color="#102430"/>
</linearGradient>
<linearGradient id="paint29_linear_6561_3150" x1="1.97013" y1="36.6078" x2="2.96257" y2="36.6078" gradientUnits="userSpaceOnUse">
<stop stop-color="#2B2B2B"/>
<stop offset="0.03" stop-color="#1F2222"/>
<stop offset="0.08" stop-color="#101716"/>
<stop offset="0.91" stop-color="#102430"/>
</linearGradient>
<linearGradient id="paint30_linear_6561_3150" x1="22.7787" y1="44.4843" x2="78.671" y2="44.4843" gradientUnits="userSpaceOnUse">
<stop stop-color="white"/>
<stop offset="0.09" stop-color="#ECECED"/>
<stop offset="0.27" stop-color="#BCBDBE"/>
<stop offset="0.52" stop-color="#707174"/>
<stop offset="0.53" stop-color="#6D6E71"/>
<stop offset="1" stop-color="white"/>
</linearGradient>
<linearGradient id="paint31_linear_6561_3150" x1="78.0708" y1="45.3371" x2="85.0143" y2="45.3371" gradientUnits="userSpaceOnUse">
<stop stop-color="#00000F"/>
<stop offset="0.49" stop-color="#40404B"/>
<stop offset="0.93" stop-color="#40404B"/>
</linearGradient>
<linearGradient id="paint32_linear_6561_3150" x1="87.1264" y1="37.6311" x2="99.1163" y2="37.6311" gradientUnits="userSpaceOnUse">
<stop stop-color="#00000F"/>
<stop offset="0.75" stop-color="#61616A"/>
<stop offset="0.82" stop-color="#5B5B64"/>
<stop offset="0.91" stop-color="#4A4A55"/>
<stop offset="1" stop-color="#343440"/>
</linearGradient>
<linearGradient id="paint33_linear_6561_3150" x1="79.5356" y1="15.3584" x2="89.689" y2="15.3584" gradientUnits="userSpaceOnUse">
<stop stop-color="#00000F"/>
<stop offset="0.52" stop-color="#272733"/>
<stop offset="0.69" stop-color="#2C2C38"/>
<stop offset="0.76" stop-color="#31313D"/>
<stop offset="0.89" stop-color="#25252A"/>
<stop offset="1" stop-color="#1E1E1E"/>
</linearGradient>
<linearGradient id="paint34_linear_6561_3150" x1="79.5356" y1="15.3584" x2="89.689" y2="15.3584" gradientUnits="userSpaceOnUse">
<stop stop-color="#00000F"/>
<stop offset="0.52" stop-color="#272733"/>
<stop offset="0.69" stop-color="#2C2C38"/>
<stop offset="0.76" stop-color="#31313D"/>
<stop offset="0.89" stop-color="#25252A"/>
<stop offset="1" stop-color="#1E1E1E"/>
</linearGradient>
<linearGradient id="paint35_linear_6561_3150" x1="77.2847" y1="16.087" x2="89.0193" y2="16.087" gradientUnits="userSpaceOnUse">
<stop stop-color="#00000F"/>
<stop offset="0.75" stop-color="#61616A"/>
</linearGradient>
<linearGradient id="paint36_linear_6561_3150" x1="11.2969" y1="44.3242" x2="17.4375" y2="44.3242" gradientUnits="userSpaceOnUse">
<stop stop-color="#2B2B2B"/>
<stop offset="0.03" stop-color="#1F2222"/>
<stop offset="0.08" stop-color="#101716"/>
<stop offset="0.52" stop-color="#3C3C41"/>
<stop offset="0.59" stop-color="#3F4349"/>
<stop offset="0.79" stop-color="#48545C"/>
<stop offset="0.93" stop-color="#4C5B64"/>
<stop offset="1" stop-color="#1E1E1E"/>
</linearGradient>
<linearGradient id="paint37_linear_6561_3150" x1="86.8017" y1="37.1938" x2="99.9999" y2="37.1938" gradientUnits="userSpaceOnUse">
<stop stop-color="#00000F"/>
<stop offset="0.52" stop-color="#272733"/>
<stop offset="0.69" stop-color="#2C2C38"/>
<stop offset="0.76" stop-color="#31313D"/>
<stop offset="0.89" stop-color="#25252A"/>
<stop offset="1" stop-color="#1E1E1E"/>
</linearGradient>
<linearGradient id="paint38_linear_6561_3150" x1="87.1265" y1="36.391" x2="98.9602" y2="36.391" gradientUnits="userSpaceOnUse">
<stop stop-color="#00000F"/>
<stop offset="0.52" stop-color="#31313D"/>
<stop offset="0.72" stop-color="#363642"/>
<stop offset="0.76" stop-color="#393944"/>
<stop offset="0.9" stop-color="#26262A"/>
<stop offset="1" stop-color="#1E1E1E"/>
</linearGradient>
<linearGradient id="paint39_linear_6561_3150" x1="-9.35409e-05" y1="75.1365" x2="0.087655" y2="75.1365" gradientUnits="userSpaceOnUse">
<stop stop-color="white"/>
<stop offset="1" stop-color="#231F20"/>
</linearGradient>
<linearGradient id="paint40_linear_6561_3150" x1="85.7021" y1="74.7225" x2="89.1191" y2="74.7225" gradientUnits="userSpaceOnUse">
<stop stop-color="white"/>
<stop offset="1" stop-color="#231F20"/>
</linearGradient>
<linearGradient id="paint41_linear_6561_3150" x1="83.599" y1="86.9541" x2="89.157" y2="86.9541" gradientUnits="userSpaceOnUse">
<stop stop-color="#00000F"/>
<stop offset="0.75" stop-color="#61616A"/>
</linearGradient>
<linearGradient id="paint42_linear_6561_3150" x1="76.236" y1="71.7277" x2="79.4923" y2="71.7277" gradientUnits="userSpaceOnUse">
<stop stop-color="#00000F"/>
<stop offset="0.75" stop-color="#61616A"/>
</linearGradient>
<linearGradient id="paint43_linear_6561_3150" x1="80.2373" y1="81.6773" x2="84.9696" y2="81.6773" gradientUnits="userSpaceOnUse">
<stop stop-color="#00000F"/>
<stop offset="0.52" stop-color="#272733"/>
<stop offset="0.69" stop-color="#2C2C38"/>
<stop offset="0.76" stop-color="#31313D"/>
<stop offset="0.89" stop-color="#25252A"/>
<stop offset="1" stop-color="#1E1E1E"/>
</linearGradient>
<linearGradient id="paint44_linear_6561_3150" x1="79.5248" y1="73.4964" x2="89.6887" y2="73.4964" gradientUnits="userSpaceOnUse">
<stop stop-color="#00000F"/>
<stop offset="0.52" stop-color="#272733"/>
<stop offset="0.69" stop-color="#2C2C38"/>
<stop offset="0.76" stop-color="#31313D"/>
<stop offset="0.89" stop-color="#25252A"/>
<stop offset="1" stop-color="#1E1E1E"/>
</linearGradient>
<linearGradient id="paint45_linear_6561_3150" x1="77.2846" y1="72.9131" x2="89.0192" y2="72.9131" gradientUnits="userSpaceOnUse">
<stop stop-color="#00000F"/>
<stop offset="0.75" stop-color="#61616A"/>
</linearGradient>
<linearGradient id="paint46_linear_6561_3150" x1="86.8017" y1="51.8069" x2="99.9999" y2="51.8069" gradientUnits="userSpaceOnUse">
<stop stop-color="#00000F"/>
<stop offset="0.52" stop-color="#272733"/>
<stop offset="0.69" stop-color="#2C2C38"/>
<stop offset="0.76" stop-color="#31313D"/>
<stop offset="0.89" stop-color="#25252A"/>
<stop offset="1" stop-color="#1E1E1E"/>
</linearGradient>
<linearGradient id="paint47_linear_6561_3150" x1="61.8574" y1="72.5078" x2="67.4084" y2="72.5078" gradientUnits="userSpaceOnUse">
<stop stop-color="#1E1E1E"/>
<stop offset="0.07" stop-color="#4C5B64"/>
<stop offset="0.21" stop-color="#48545C"/>
<stop offset="0.41" stop-color="#3F4349"/>
<stop offset="0.48" stop-color="#3C3C41"/>
<stop offset="0.92" stop-color="#101716"/>
<stop offset="0.97" stop-color="#1F2222"/>
<stop offset="1" stop-color="#2B2B2B"/>
</linearGradient>
<linearGradient id="paint48_linear_6561_3150" x1="-5.86595e-05" y1="51.71" x2="0.0876899" y2="51.71" gradientUnits="userSpaceOnUse">
<stop stop-color="#00000F"/>
<stop offset="0.75" stop-color="#61616A"/>
<stop offset="0.82" stop-color="#5B5B64"/>
<stop offset="0.91" stop-color="#4A4A55"/>
<stop offset="1" stop-color="#343440"/>
</linearGradient>
<linearGradient id="paint49_linear_6561_3150" x1="5.74394e-05" y1="52.6267" x2="98.9602" y2="52.6267" gradientUnits="userSpaceOnUse">
<stop stop-color="#00000F"/>
<stop offset="0.52" stop-color="#31313D"/>
<stop offset="0.72" stop-color="#363642"/>
<stop offset="0.76" stop-color="#393944"/>
<stop offset="0.9" stop-color="#26262A"/>
<stop offset="1" stop-color="#1E1E1E"/>
</linearGradient>
<linearGradient id="paint50_linear_6561_3150" x1="60.335" y1="72.1712" x2="70.9525" y2="72.1712" gradientUnits="userSpaceOnUse">
<stop stop-color="#2B2B2B"/>
<stop offset="0.03" stop-color="#1F2222"/>
<stop offset="0.08" stop-color="#101716"/>
<stop offset="0.52" stop-color="#3C3C41"/>
<stop offset="0.59" stop-color="#3F4349"/>
<stop offset="0.79" stop-color="#48545C"/>
<stop offset="0.93" stop-color="#4C5B64"/>
<stop offset="1" stop-color="#1E1E1E"/>
</linearGradient>
<linearGradient id="paint51_linear_6561_3150" x1="53.6538" y1="17.3614" x2="71.9652" y2="17.3614" gradientUnits="userSpaceOnUse">
<stop stop-color="#2B2B2B"/>
<stop offset="0.03" stop-color="#1F2222"/>
<stop offset="0.08" stop-color="#101716"/>
<stop offset="0.52" stop-color="#3C3C41"/>
<stop offset="0.59" stop-color="#3F4349"/>
<stop offset="0.79" stop-color="#48545C"/>
<stop offset="0.93" stop-color="#4C5B64"/>
<stop offset="1" stop-color="#1E1E1E"/>
</linearGradient>
<clipPath id="clip0_6561_3150">
<rect width="100" height="89" fill="white" transform="matrix(1 0 0 -1 0 89)"/>
</clipPath>
</defs>
</svg>
