<svg width="100" height="47" viewBox="0 0 100 47" fill="none" xmlns="http://www.w3.org/2000/svg">
<g clip-path="url(#clip0_6561_3274)">
<path d="M100 26.7534V27.5404H94.7266V28.1897H92.6562V27.5404H91.877V28.3078H85.9375V27.0682C85.5273 28.052 85.0391 28.78 84.6484 29.2129C83.8477 30.1377 82.9688 30.118 82.9688 30.118C82.9688 30.118 81.8164 30.7083 80.7812 30.9051C79.8652 31.0625 79.377 31.1884 79.0879 31.3517L78.9844 35.0764C78.9844 35.0764 79.2188 35.3519 79.375 35.588C79.5312 35.8241 79.5117 36.3751 79.5117 36.3751L79.6289 36.6112H87.207C87.4805 36.6112 87.7148 36.7096 87.9102 36.867H90.0781C90.5078 36.867 90.8594 38.6772 90.8594 40.9006C90.8594 43.124 90.5078 44.9342 90.0781 44.9342H87.9102C87.7148 45.0916 87.4805 45.19 87.207 45.19H67.9492C67.6758 45.19 67.4414 45.0916 67.2461 44.9342H65.0781C64.6484 44.9342 64.2969 43.124 64.2969 40.9006C64.2969 38.6772 64.6484 36.867 65.0781 36.867H67.2461C67.4414 36.7096 67.6758 36.6112 67.9492 36.6112H75.3066L75.5273 36.2373C75.5273 36.2373 75.4883 36.0406 75.5273 35.8438C75.5273 35.8418 75.5293 35.8379 75.5293 35.834C75.2773 35.6667 75.0801 35.527 75 35.4503C74.6484 35.1158 73.457 33.6401 73.457 33.6401L73.3809 32.1093C71.7402 32.1762 66.5137 32.2962 61.6992 32.4005C61.0352 33.2859 59.9414 34.7616 59.5312 35.3322C58.9258 36.1783 58.1055 36.8866 58.1055 36.8866C58.1055 36.8866 58.0605 36.9083 57.9883 36.9417V37.654C57.9883 38.0869 57.5781 38.4411 57.0898 38.4411C56.6016 38.4411 56.1914 38.0869 56.1914 37.654V37.0519C55.7891 36.5541 55.2363 35.4365 54.8828 34.5452C54.4727 33.5417 54.2188 32.9907 54.4336 32.5579H53.6016C53.6016 32.5579 53.6309 32.5323 53.6699 32.5028C53.5391 32.5441 53.4395 32.5677 53.3516 32.5638C53.1816 34.4979 52.9531 36.619 52.707 37.5478C52.8828 37.6658 53.0977 37.8626 53.2539 38.0397C53.4492 38.2561 54.25 39.2399 54.7188 39.8302L54.8164 39.1022C54.8359 38.9054 55.0312 38.748 55.2266 38.7283C55.4414 38.7283 55.5977 38.8858 55.5977 39.1022L55.3828 41.5027C55.3633 41.8175 55.1094 42.0143 54.8555 41.9356C54.6016 41.8569 54.4648 41.5814 54.5039 41.2863L54.6211 40.4008L51.9453 39.4564C51.7109 39.3777 51.4375 39.2596 51.1641 39.1022V41.424L50.1289 41.9356H41.6133L40.5781 41.2863L40.4434 39.2419C37.6191 39.3422 26.7266 39.478 25.2422 39.4603C23.8789 39.4446 21.5508 39.5193 20.1992 39.4209C21.5488 39.5193 23.8848 39.4446 25.252 39.4603C25.293 39.4603 25.3398 39.4603 25.3945 39.4603C25.3945 39.4603 25.3965 39.4603 25.3984 39.4603C25.4492 39.4603 25.5059 39.4603 25.5684 39.4603C25.5762 39.4603 25.5859 39.4603 25.5937 39.4603C25.6523 39.4603 25.7168 39.4603 25.7852 39.4603C25.7988 39.4603 25.8125 39.4603 25.8262 39.4603C25.8984 39.4603 25.9766 39.4603 26.0586 39.4603C26.0664 39.4603 26.0762 39.4603 26.084 39.4603C26.166 39.4603 26.2539 39.4603 26.3457 39.4603C26.3613 39.4603 26.377 39.4603 26.3906 39.4603C26.4805 39.4603 26.5742 39.4603 26.6719 39.4603C26.6934 39.4603 26.7168 39.4603 26.7402 39.4603C26.8359 39.4603 26.9336 39.4603 27.0352 39.4583C27.0547 39.4583 27.0762 39.4583 27.0957 39.4583C27.207 39.4583 27.3184 39.4583 27.4355 39.4564C27.4434 39.4564 27.4531 39.4564 27.4609 39.4564C27.582 39.4564 27.709 39.4544 27.8359 39.4524C27.8555 39.4524 27.875 39.4524 27.8945 39.4524C28.1641 39.4505 28.4453 39.4465 28.7383 39.4446C28.7441 39.4446 28.75 39.4446 28.7559 39.4446C28.8926 39.4446 29.0332 39.4426 29.1738 39.4406C29.2031 39.4406 29.2305 39.4406 29.2598 39.4406C29.3965 39.4406 29.5332 39.4367 29.6738 39.4367C29.7012 39.4367 29.7285 39.4367 29.7559 39.4367C29.8945 39.4367 30.0371 39.4328 30.1797 39.4308C30.207 39.4308 30.2344 39.4308 30.2617 39.4308C30.418 39.4308 30.5781 39.4268 30.7383 39.4249C30.7441 39.4249 30.752 39.4249 30.7578 39.4249C30.9219 39.4229 31.0879 39.4209 31.2539 39.419C31.2715 39.419 31.2871 39.419 31.3047 39.419C31.4648 39.417 31.627 39.415 31.7891 39.4131C31.8145 39.4131 31.8379 39.4131 31.8633 39.4131C32.0234 39.4111 32.1836 39.4091 32.3457 39.4072C32.3535 39.4072 32.3633 39.4072 32.3711 39.4072C32.541 39.4052 32.7109 39.4032 32.8809 39.3993C32.8945 39.3993 32.9102 39.3993 32.9238 39.3993C33.2695 39.3954 33.6172 39.3895 33.9609 39.3836C33.9766 39.3836 33.9902 39.3836 34.0059 39.3836C34.1797 39.3816 34.3535 39.3777 34.5254 39.3757H34.5332C34.6934 39.3737 34.8535 39.3698 35.0117 39.3678C35.043 39.3678 35.0762 39.3678 35.1074 39.3678C35.2637 39.3659 35.4199 39.3619 35.5742 39.3599C35.5859 39.3599 35.5957 39.3599 35.6074 39.3599C35.7754 39.358 35.9434 39.354 36.1074 39.3521C36.2754 39.3501 36.4395 39.3462 36.6016 39.3442C36.6074 39.3442 36.6133 39.3442 36.6211 39.3442C37.6094 39.3265 38.5098 39.3088 39.2383 39.2911C39.4531 39.2852 39.6543 39.2812 39.8379 39.2753C39.6582 39.4623 39.4629 39.663 39.2637 39.8656C39.2754 40.206 39.2832 40.5582 39.2832 40.9183C39.2832 44.0862 38.7949 46.6441 38.1895 46.6441H35.1035C34.8301 46.8802 34.498 47.0179 34.127 47.0179H6.83594C6.46484 47.0179 6.11328 46.8802 5.85938 46.6441H2.77344C2.16797 46.6441 1.67969 44.0862 1.67969 40.9183C1.67969 37.7504 2.16797 35.1925 2.77344 35.1925H5.85938C6.13281 34.9564 6.46484 34.8187 6.83594 34.8187H8.63086C9.13477 33.8703 10.0527 33.2446 11.1133 32.851L11.2109 32.7527V32.0719C11.166 32.0797 11.1211 32.0837 11.0742 32.0837C10.7227 32.0837 10.4297 31.8082 10.4297 31.4344L7.85156 30.4309C7.55859 30.4505 7.1875 30.4309 6.95312 30.2538C6.52344 29.9586 4.62891 30.116 4.62891 30.116H4.60938C4.51172 30.3325 4.21875 30.4899 3.86719 30.4899C3.71094 30.4899 3.57422 30.4702 3.47656 30.4112L2.71484 30.608L2.20703 31.1195L1.17188 31.3616V32.3591H0.390625V31.2947L0 30.6493L0.390625 30.5371V16.4784L0 16.3643L0.390625 15.6678V14.6918H1.17188V15.6147L2.1875 15.8527L2.69531 16.3643L3.45703 16.5611C3.57422 16.5217 3.71094 16.4824 3.84766 16.4824C4.19922 16.4824 4.51172 16.6398 4.58984 16.8562H4.60938C4.60938 16.8562 6.50391 17.0136 6.93359 16.7185C7.16797 16.5611 7.55859 16.5414 7.83203 16.5414L10.4102 15.5379C10.4492 15.2231 10.7227 14.9476 11.0742 14.9476C11.1211 14.9476 11.166 14.9535 11.2109 14.9634V14.2983L11.1133 14.1999C10.0469 13.7907 9.125 13.165 8.62305 12.2126H6.83594C6.46484 12.2126 6.11328 12.0749 5.85938 11.8388H2.77344C2.16797 11.8388 1.67969 9.28087 1.67969 6.11299C1.67969 2.94511 2.16797 0.387203 2.77344 0.387203H5.85938C6.13281 0.151089 6.46484 0.0133553 6.83594 0.0133553H34.1406C34.5117 0.0133553 34.8633 0.151089 35.1172 0.387203H38.2031C38.8086 0.387203 39.2969 2.94511 39.2969 6.11299C39.2969 6.47897 39.2891 6.83314 39.2754 7.17944C39.3672 7.27389 39.459 7.36637 39.5469 7.45885C39.9961 7.47065 40.3652 7.48246 40.6309 7.4923C40.5762 7.49033 40.5137 7.48639 40.4434 7.48442L40.5781 5.43416L41.6133 4.78484H50.1289L51.1641 5.29643V7.6379C51.418 7.48049 51.6914 7.36243 51.9453 7.28373L54.6211 6.33927L54.5039 5.45384C54.4648 5.17837 54.6211 4.88323 54.8555 4.80452C55.1094 4.72581 55.3633 4.92258 55.3828 5.2374L55.5977 7.6379C55.6172 7.85434 55.4414 8.01175 55.2266 8.01175C55.0312 8.01175 54.8359 7.83466 54.8164 7.6379L54.7188 6.90988C54.668 6.97284 54.6113 7.04171 54.5527 7.11255C54.584 7.10074 54.6172 7.08894 54.6484 7.07713L53.8887 7.92517C53.6035 8.27345 53.3535 8.58039 53.2539 8.70042C53.0977 8.87751 52.8633 9.05459 52.707 9.19233C52.7539 9.36941 52.7988 9.58782 52.8438 9.83771C53.0254 9.71571 53.168 9.63307 53.2227 9.6134C53.418 9.57404 53.6133 9.31825 53.6133 9.75113C53.6133 9.92625 53.6328 10.0974 53.6387 10.2548L54.7656 10.3414C55.1953 10.3808 55.5469 10.9907 55.5469 11.6991C55.5469 11.7581 55.543 11.8171 55.5391 11.8742C55.6973 12.4409 55.7754 13.651 55.8203 14.4931C61.1562 14.6013 71.082 14.8276 73.3789 14.924L73.457 13.3716C73.457 13.3716 74.6484 11.8958 75 11.5613C75.082 11.4846 75.2773 11.3449 75.5293 11.1777C75.5293 11.1737 75.5273 11.1718 75.5273 11.1678C75.4883 10.9711 75.5273 10.7743 75.5273 10.7743L75.2949 10.3808H67.9492C67.6758 10.3808 67.4414 10.2824 67.2461 10.125H65.0781C64.6484 10.125 64.2969 8.31477 64.2969 6.11102C64.2969 3.90728 64.6484 2.07739 65.0781 2.07739H67.2461C67.4414 1.91998 67.6758 1.8216 67.9492 1.8216H87.207C87.4805 1.8216 87.7148 1.91998 87.9102 2.07739H90.0781C90.5078 2.07739 90.8594 3.88761 90.8594 6.11102C90.8594 8.33444 90.5078 10.125 90.0781 10.125H87.9102C87.7148 10.2824 87.4805 10.3808 87.207 10.3808H79.6387L79.5117 10.6366C79.5117 10.6366 79.5312 11.1875 79.375 11.4236C79.2188 11.64 78.9844 11.9352 78.9844 11.9352L79.0879 15.6835C79.3926 15.8468 79.875 15.9551 80.7422 16.1066C81.7773 16.2836 82.9297 16.8936 82.9297 16.8936C82.9297 16.8936 83.8086 16.8739 84.6094 17.7987C85 18.2513 85.4883 18.9793 85.8984 19.9434V18.7038H87.3242H91.877V19.4712H92.6562V18.8416H94.7266V19.4712H100V20.2582H94.7266V20.514H100V21.3011H94.7266V21.5569H100V22.3439H94.7266V22.58H100V23.3671H94.7266V23.6229H100V24.4099H94.7266V24.6657H100V25.4528H94.7266V25.7086H100V26.4956H94.7266V26.7514H100V26.7534ZM54.4727 12.919L53.2246 12.8226C53.2773 13.3479 53.3262 13.8831 53.3711 14.3987C53.4414 14.3947 53.5234 14.4105 53.623 14.438L54.4727 14.4538V12.917V12.919ZM75.7383 15.3136V15.3057C75.2012 15.2487 74.627 15.1877 74.1016 15.1365V15.1464C74.6172 15.1975 75.1914 15.2565 75.7383 15.3136ZM75.7812 35.1945L75.8809 35.2594C75.9668 35.1433 76.0352 35.0568 76.0352 35.0568L75.7559 31.9007C75.1445 31.9656 74.5566 32.0227 74.1016 32.062V33.2465L75.7812 35.1945ZM51.1836 38.6083C51.8086 38.9428 53.2148 39.4741 54.1523 39.8086L54.082 39.7318C53.2129 39.4111 52.1875 39.0097 51.6777 38.7362V38.382C52.0801 38.3525 52.4805 38.3112 52.7539 38.2482L52.5293 37.9984L52.4707 38.0574C52.2363 38.1558 51.709 38.2148 51.1816 38.2541V38.6083H51.1836ZM46.2695 9.29858C46.2051 9.29661 46.1406 9.29268 46.0742 9.29071C46.1406 9.29464 46.2051 9.29661 46.2695 9.30054V9.29858ZM49.5039 38.3132C49.5039 38.3132 49.4355 38.3879 49.3145 38.4824L49.3535 38.6969C49.3535 38.8011 49.1934 38.8956 48.9316 38.9664C48.9961 38.9664 49.0547 38.9625 49.0996 38.9527C49.6465 38.8346 49.998 38.4411 49.998 38.4411C49.998 38.4411 50.0547 38.4411 50.1465 38.4411V38.2955C49.7754 38.3151 49.502 38.3151 49.502 38.3151L49.5039 38.3132ZM48.9492 8.0511C49.1836 8.11604 49.3301 8.20064 49.3516 8.29509C49.4609 8.3797 49.5234 8.44463 49.5234 8.44463C49.5234 8.44463 49.668 8.44463 49.8848 8.4525C49.7344 8.33051 49.4668 8.14752 49.1191 8.06094C49.0684 8.04717 49.002 8.04126 48.9258 8.04126C48.9336 8.0452 48.9395 8.04717 48.9473 8.0511H48.9492ZM42.1934 39.0805C42.3203 39.0156 42.4414 38.931 42.5625 38.809C42.6504 38.7205 42.7598 38.6221 42.8848 38.5217L46.2695 38.443V38.4175C46.041 38.3565 45.8906 38.3132 45.8906 38.3132L42.5957 38.3899C42.4629 38.4942 42.3477 38.5985 42.2559 38.691C42.0625 38.8858 41.8633 38.99 41.6523 39.0609V39.0805H42.1914H42.1934ZM9.16016 18.0958H8.47656L9.92188 18.6153V18.3634L9.16016 18.0958ZM10.6641 30.9641C10.7812 30.8657 10.918 30.8067 11.0938 30.8067C11.1348 30.8067 11.1719 30.8106 11.2109 30.8185V29.0949H10.0996L9.02344 29.4884L8.76953 29.8819L8.55469 29.9409L8.47656 30.059L10.6641 30.9641ZM8.37891 28.9571H9.16016L9.92188 28.6895V28.4121L8.20312 29.0161L8.37891 28.9571ZM6.60156 18.1155C6.50391 18.1549 6.40625 18.1745 6.30859 18.1745C6.03516 18.1745 5.80078 18.0171 5.70312 17.8007L4.43359 17.3481C4.29688 17.4465 4.08203 17.5252 3.84766 17.5252C3.41797 17.5252 3.06641 17.2891 3.06641 17.0136C3.06641 16.9743 3.06641 16.9349 3.08594 16.8956H1.79688L1.17188 16.7106V30.3148L1.79688 30.1377H3.10547C3.08594 30.0983 3.08594 30.059 3.08594 30.0196C3.08594 29.7245 3.4375 29.5081 3.86719 29.5081C4.10156 29.5081 4.29688 29.5671 4.45312 29.6851L5.72266 29.2326C5.82031 29.0161 6.05469 28.8587 6.32813 28.8587C6.42578 28.8587 6.52344 28.8784 6.62109 28.9178L9.92188 27.7628V19.2784L6.60156 18.1155ZM11.0742 16.2463C10.918 16.2463 10.7617 16.1872 10.6445 16.0888L8.45703 16.994L8.53516 17.112L8.76953 17.171L9.02344 17.5646L9.99219 17.9187H11.2109V16.2305C11.166 16.2404 11.1211 16.2463 11.0742 16.2463ZM41.6719 7.67725C41.8691 7.74809 42.0547 7.85237 42.2363 8.03536C42.3379 8.13768 42.4707 8.25377 42.6191 8.36986L42.7832 8.37379C42.6914 8.29705 42.6094 8.22229 42.541 8.15539C42.4121 8.02552 42.2832 7.93698 42.1465 7.87008V7.80712H50.166V7.67922H41.6699L41.6719 7.67725ZM54.1523 6.94923C53.2148 7.30341 51.7891 7.83466 51.1836 8.14948V8.50366C51.3516 8.51546 51.5195 8.5312 51.6797 8.54891V8.27738C52.1074 8.05504 52.9414 7.72644 53.7266 7.42736L54.1543 6.9512L54.1523 6.94923ZM52.5039 8.71813C52.5039 8.71813 52.5215 8.74174 52.5312 8.75945L52.5605 8.72797C52.543 8.72403 52.5234 8.72206 52.5039 8.72009V8.71813ZM72.2559 15.0008C71.6953 15.0381 55.7109 14.6977 53.8652 14.5147C54.3535 14.6918 71.834 15.0657 72.4199 15.0263C72.5586 15.0165 72.9102 15.0381 73.3691 15.0775V15.0677C72.8281 15.0185 72.4102 14.9909 72.2539 15.0008H72.2559ZM75.7812 11.8191L74.1016 13.7671V14.9712C74.5605 15.0067 75.1465 15.0578 75.7559 15.1188L76.0352 11.9568C76.0352 11.9568 75.9668 11.8703 75.8809 11.7542L75.7812 11.8191ZM79.168 16.1597C79.5684 16.2305 80.2754 16.2522 80.8867 16.3368C80.3164 16.2443 79.623 16.2187 79.168 16.1597ZM92.6562 20.2602H91.877V20.516H92.6562V20.2602ZM92.6562 21.3031H91.877V21.5588H92.6562V21.3031ZM92.6562 22.3459H91.877V22.582H92.6562V22.3459ZM92.6562 23.3691H91.877V23.6249H92.6562V23.3691ZM92.6562 24.4119H91.877V24.6677H92.6562V24.4119ZM92.6562 25.4547H91.877V25.7105H92.6562V25.4547ZM92.6562 26.4976H91.877V26.7534H92.6562V26.4976Z" fill="black"/>
<path d="M85.959 23.536C85.8028 20.5649 84.7872 19.1088 84.1817 18.2824C83.5176 17.456 82.0723 16.7083 81.213 16.4722C80.3536 16.2361 78.8106 16.2951 78.6348 16.0787C78.459 15.8819 78.4005 15.6261 77.7364 15.5671C77.0528 15.5278 72.7754 15.0162 72.1895 15.0555C71.6036 15.0949 54.1231 14.721 53.6348 14.5439C53.1465 14.3865 53.0489 14.3472 52.7364 14.6817C52.4434 15.0162 51.9942 16.4919 52.2286 18.8334C52.4044 20.6239 52.4629 21.9619 52.4825 23.4966C52.4825 25.0314 52.4239 26.3694 52.2286 28.1796C51.9747 30.5211 52.4434 31.9771 52.7364 32.3313C53.0294 32.6854 53.1465 32.6264 53.6348 32.469C54.1231 32.3116 71.6036 31.9181 72.1895 31.9574C72.7754 31.9968 77.0723 31.5049 77.7364 31.4458C78.4005 31.3868 78.459 31.1507 78.6348 30.9343C78.8106 30.7178 80.3536 30.7769 81.213 30.5407C82.0723 30.3046 83.5176 29.5766 84.1817 28.7305C84.7872 27.9631 85.8028 26.5071 85.959 23.536Z" fill="#005295"/>
<path d="M49.7382 23.3628C49.7577 26.452 49.6796 29.7182 49.5624 31.1546C49.3476 33.6141 49.0937 34.8931 48.7812 35.9556C48.4687 37.0181 48.1757 37.3723 47.4921 37.392C46.8085 37.392 44.5038 37.4904 43.8788 37.6478C43.2538 37.8249 42.5507 38.3364 42.1991 38.6906C41.8476 39.0448 41.4765 39.1038 41.0468 39.2022C40.6171 39.3006 26.8671 39.4777 25.1874 39.458C23.5077 39.4383 20.3632 39.5564 19.3866 39.3203C18.4101 39.0841 17.2773 38.789 16.8085 37.7658C16.3398 36.7427 16.164 35.5621 16.164 35.5621L16.5546 35.1686L16.164 32.5713H15.7734C15.7734 32.5713 15.4023 28.2819 15.4609 23.3628C15.4023 18.4438 15.7734 14.1543 15.7734 14.1543H16.164L16.5546 11.5571L16.164 11.1635C16.164 11.1635 16.3398 9.98297 16.8085 8.9598C17.2773 7.93664 18.4101 7.62182 19.3866 7.40538C20.3632 7.18894 23.5273 7.307 25.1874 7.26765C26.8476 7.24797 40.5976 7.42505 41.0273 7.52344C41.457 7.62182 41.8281 7.68085 42.1796 8.03502C42.5312 8.38919 43.2343 8.90077 43.8593 9.07786C44.4843 9.25495 46.789 9.33365 47.4726 9.33365C48.1562 9.33365 48.4491 9.7075 48.7616 10.77C49.0741 11.8325 49.3281 13.1115 49.5429 15.571C49.6796 17.0074 49.7382 20.254 49.7382 23.3628Z" fill="#005295"/>
<path d="M91.877 28.3175H87.2285V18.7155H91.877V28.3175Z" fill="#1D1D1D"/>
<path d="M11.0742 14.8098C11.4258 14.8098 11.7187 15.1049 11.7187 15.4591C11.7187 15.8133 11.4258 16.1084 11.0742 16.1084C10.918 16.1084 10.7617 16.0494 10.6445 15.951L8.45703 16.8561L8.53516 16.9741L8.76953 17.0332L9.02344 17.4267L12.2285 18.5994L12.2578 19.0461L9.16016 17.958H8.37891L8.20312 17.8596L11.6016 19.0795L11.2109 19.5911L6.60156 17.9776C6.50391 18.017 6.40625 18.0367 6.30859 18.0367C6.03516 18.0367 5.80078 17.8793 5.70312 17.6628L4.43359 17.2103C4.29688 17.3086 4.08203 17.3874 3.84766 17.3874C3.41797 17.3874 3.06641 17.1512 3.06641 16.8758C3.06641 16.8364 3.06641 16.7971 3.08594 16.7577H1.79687L0 16.2265L0.507812 15.3213L2.1875 15.7149L2.69531 16.2265L3.45703 16.4232C3.57422 16.3839 3.71094 16.3445 3.84766 16.3445C4.19922 16.3445 4.51172 16.5019 4.58984 16.7184H4.60937C4.60937 16.7184 6.50391 16.8758 6.93359 16.5806C7.16797 16.4232 7.55859 16.4035 7.83203 16.4035L10.4102 15.4C10.4492 15.0852 10.7227 14.8098 11.0742 14.8098ZM11.0742 31.9281C10.7227 31.9281 10.4297 31.6526 10.4297 31.2788L7.85156 30.2753C7.55859 30.295 7.1875 30.2753 6.95312 30.0982C6.52344 29.8031 4.62891 29.9605 4.62891 29.9605H4.60937C4.51172 30.1769 4.21875 30.3343 3.86719 30.3343C3.71094 30.3343 3.57422 30.3146 3.47656 30.2556L2.71484 30.4524L2.20703 30.964L0.527344 31.3575L0 30.5114L1.79687 29.9998H3.10547C3.08594 29.9605 3.08594 29.9211 3.08594 29.8818C3.08594 29.5866 3.4375 29.3702 3.86719 29.3702C4.10156 29.3702 4.29687 29.4292 4.45312 29.5473L5.72266 29.0947C5.82031 28.8783 6.05469 28.7209 6.32812 28.7209C6.42578 28.7209 6.52344 28.7405 6.62109 28.7799L11.2305 27.1664L11.6211 27.678L8.20312 28.8783L8.37891 28.8193H9.16016L12.1445 27.7705V28.2093L9.02344 29.3505L8.76953 29.744L8.55469 29.8031L8.47656 29.9211L10.6641 30.8262C10.7812 30.7278 10.918 30.6688 11.0937 30.6688C11.4453 30.6688 11.7383 30.964 11.7383 31.3181C11.7383 31.6723 11.4453 31.9281 11.0742 31.9281Z" fill="black"/>
<path d="M10.125 21.5135V23.4614V25.4094H11.2109V29.0947H9.92188V23.5067V17.9186H11.2109V21.5135H10.125Z" fill="#1D1D1D"/>
<path d="M85.9375 28.3175V27.0778C85.5273 28.0617 85.0391 28.7897 84.6484 29.2226C83.8477 30.1473 82.9688 30.1277 82.9688 30.1277C82.9688 30.1277 81.8164 30.718 80.7813 30.9147C79.7461 31.0918 79.2578 31.2295 78.9844 31.4263C78.7109 31.6231 75.2344 31.9772 73.8281 32.0953C73.0859 32.1543 67.1289 32.2921 61.6992 32.4101C61.0352 33.2955 59.9414 34.7713 59.5312 35.3419C58.9258 36.1879 58.1055 36.8963 58.1055 36.8963C58.1055 36.8963 57.9277 36.9829 57.6836 37.0793C57.8672 37.2229 57.9883 37.4315 57.9883 37.6637C57.9883 38.0965 57.5781 38.4507 57.0898 38.4507C56.6016 38.4507 56.1914 38.0965 56.1914 37.6637C56.1914 37.5023 56.248 37.3528 56.3438 37.2288C55.9414 36.8687 55.2832 35.5662 54.8828 34.5548C54.4727 33.5513 54.2188 33.0004 54.4336 32.5675L53.8594 32.5793C53.6895 34.545 53.4551 36.7349 53.2031 37.6833C53.3789 37.8014 53.5938 37.9982 53.75 38.1752C53.9453 38.3917 54.7461 39.3755 55.2148 39.9658L55.3125 39.2378C55.332 39.041 55.5273 38.8836 55.7227 38.8639C55.9375 38.8639 56.0938 39.0213 56.0938 39.2378L55.8789 41.6383C55.8594 41.9531 55.6055 42.1499 55.3516 42.0711C55.0977 41.9924 54.9609 41.717 55 41.4218L55.1172 40.5364L52.4414 39.5919C52.207 39.5132 51.9336 39.3952 51.6602 39.2378V41.5596L50.625 42.0711H42.1094L41.0742 41.4218L40.9375 39.3361V39.2161C40.9746 39.2122 41.0059 39.2102 41.0176 39.2063C41.4375 39.1099 41.8027 39.0489 42.1484 38.7144V39.2181H50.6445V38.431C50.2734 38.4507 50 38.4507 50 38.4507C50 38.4507 49.6484 38.8442 49.1016 38.9623C48.5547 39.0804 46.3867 38.4507 46.3867 38.4507L42.3301 38.5452C42.709 38.2087 43.3086 37.8053 43.8496 37.6519C44.4746 37.4945 46.7793 37.3961 47.4629 37.3961C48.1465 37.3764 48.4395 37.0222 48.752 35.9597C49.0645 34.8972 49.3184 33.6182 49.5332 31.1587C49.6504 29.7223 49.7285 26.4561 49.709 23.3669C49.709 20.2581 49.6504 17.0115 49.5137 15.5751C49.2988 13.1156 49.0449 11.8366 48.7324 10.7741C48.4199 9.71159 48.127 9.33774 47.4434 9.33774C46.7598 9.33774 44.4551 9.25903 43.8301 9.08195C43.4492 8.97373 43.041 8.74155 42.6992 8.49757L46.4063 8.58414C46.4063 8.58414 48.5742 7.93483 49.1211 8.07256C49.668 8.21029 50.0195 8.58414 50.0195 8.58414C50.0195 8.58414 50.293 8.58414 50.6641 8.60382V7.81676H42.1484V8.03714C41.7969 7.68493 41.4277 7.62591 40.998 7.52753C40.9883 7.52556 40.9707 7.52359 40.9453 7.51966L41.0723 5.5717L42.1074 4.92239H50.623L51.6582 5.43397V7.77544C51.9121 7.61803 52.1855 7.49998 52.4395 7.42128L55.1152 6.47681L54.998 5.59138C54.959 5.31591 55.1152 5.02077 55.3496 4.94207C55.6035 4.86336 55.8574 5.06012 55.877 5.37494L56.0918 7.77544C56.1113 7.99188 55.9355 8.1493 55.7207 8.1493C55.5254 8.1493 55.3301 7.97221 55.3105 7.77544L55.2129 7.04742C54.7441 7.61803 53.9434 8.60185 53.748 8.83796C53.5918 9.01505 53.3574 9.19213 53.2012 9.32987C53.2637 9.56795 53.3242 9.88081 53.3848 10.2468L54.7637 10.353C55.1934 10.3924 55.5449 11.0023 55.5449 11.7107C55.5449 11.7697 55.541 11.8288 55.5371 11.8858C55.6953 12.4525 55.7734 13.6626 55.8184 14.5047C61.5996 14.6228 72.7715 14.8786 73.7871 14.9573C75.1934 15.0557 78.6504 15.3902 78.9434 15.6066C79.2363 15.823 79.7246 15.9411 80.7402 16.1182C81.7754 16.2953 82.9277 16.9052 82.9277 16.9052C82.9277 16.9052 83.8066 16.8855 84.6074 17.8103C84.9981 18.2629 85.4863 18.9909 85.8965 19.955V18.7154H87.3223L87.3613 28.3175H85.9355H85.9375ZM51.6797 38.7459C52.3047 39.0804 53.7109 39.6116 54.6484 39.9461L53.0273 38.1359L52.9688 38.1949C52.7344 38.2933 52.207 38.3523 51.6797 38.3917V38.7459ZM54.6484 7.08678C53.7109 7.44095 52.2852 7.97221 51.6797 8.28703V8.6412C52.207 8.68055 52.7344 8.73958 52.9688 8.83796C52.9883 8.83796 53.0078 8.85764 53.0273 8.89699L54.6484 7.08678ZM54.4727 12.9287L53.7109 12.8696C53.7637 13.395 53.8145 13.9321 53.8594 14.4536L54.4727 14.4654V12.9287ZM84.1816 18.2924C83.5176 17.466 82.0723 16.7183 81.2129 16.4822C80.3535 16.2461 78.8105 16.3051 78.6348 16.0887C78.459 15.8919 78.4004 15.6361 77.7363 15.5771C77.0527 15.5377 72.7754 15.0261 72.1895 15.0655C71.6035 15.1048 54.123 14.731 53.6348 14.5539C53.1465 14.3965 53.0488 14.3572 52.7363 14.6916C52.4434 15.0261 51.9941 16.5019 52.2285 18.8433C52.4043 20.6339 52.4629 21.9719 52.4824 23.5066C52.4824 25.0414 52.4238 26.3793 52.2285 28.1896C51.9746 30.531 52.4434 31.9871 52.7363 32.3412C53.0293 32.6954 53.1465 32.6364 53.6348 32.479C54.123 32.3216 71.6035 31.928 72.1895 31.9674C72.7754 32.0067 77.0723 31.5148 77.7363 31.4558C78.4004 31.3968 78.459 31.1607 78.6348 30.9442C78.8105 30.7278 80.3535 30.7868 81.2129 30.5507C82.0723 30.3146 83.5176 29.5866 84.1816 28.7405C84.7871 27.9731 85.8027 26.5171 85.959 23.546C85.8027 20.5748 84.7871 19.1188 84.1816 18.2924Z" fill="black"/>
<path d="M100 20.26H88.1445V19.4729H100V20.26ZM100 21.3028H88.1445V20.5157H100V21.3028ZM100 22.3456H88.1445V21.5586H100V22.3456ZM100 23.3688H88.1445V22.5817H100V23.3688ZM100 24.4116H88.1445V23.6246H100V24.4116ZM100 25.4545H88.1445V24.6674H100V25.4545ZM100 26.4973H88.1445V25.7103H100V26.4973ZM100 27.5402H88.1445V26.7531H100V27.5402Z" fill="#333333"/>
<path d="M97.2852 20.1222H91.4844V20.26H90.7031V19.4729H91.4844V19.6106H97.2852V20.1222ZM97.2852 21.1651H91.4844V21.3028H90.7031V20.5157H91.4844V20.6535H97.2852V21.1651ZM97.2852 22.2079H91.4844V22.3456H90.7031V21.5586H91.4844V21.6963H97.2852V22.2079ZM97.2852 23.2507H91.4844V23.3885H90.7031V22.6014H91.4844V22.7195H97.2852V23.2507ZM97.2852 24.2936H91.4844V24.4313H90.7031V23.6443H91.4844V23.782H97.2852V24.2936ZM97.2852 25.3167H91.4844V25.4545H90.7031V24.6674H91.4844V24.8052H97.2852V25.3167ZM97.2852 26.3596H91.4844V26.4973H90.7031V25.7103H91.4844V25.848H97.2852V26.3596ZM97.2852 27.4024H91.4844V27.5402H90.7031V26.7531H91.4844V26.8908H97.2852V27.4024Z" fill="black"/>
<path d="M54.7656 10.3432C55.1953 10.3826 55.5469 10.9925 55.5469 11.7009C55.5469 12.4092 55.1953 12.9798 54.7656 12.9405L52.9688 12.8027V10.2055L54.7656 10.3432Z" fill="black"/>
<path d="M53.6328 10.5007C53.9844 10.5204 54.2578 11.0123 54.2578 11.5829C54.2578 12.1535 53.9844 12.6061 53.6328 12.5667L52.1875 12.4486V10.363L53.6328 10.5007Z" fill="#1D1D1D"/>
<path d="M82.5977 24.5494C83.1641 24.5494 83.6328 24.0772 83.6328 23.5066C83.6328 22.936 83.1641 22.4638 82.5977 22.4638C82.0312 22.4638 81.5625 22.936 81.5625 23.5066C81.5625 24.0772 82.0312 24.5494 82.5977 24.5494Z" fill="#DDDDDD"/>
<path d="M85.957 23.5067C85.9766 24.2937 85.8789 25.1595 85.7227 25.5333C85.4883 26.0842 85.1562 26.281 84.5703 26.4581C83.9844 26.6352 82.7344 27.009 82.7344 27.009C82.7344 27.009 83.8281 26.1236 84.1602 24.9234C84.2969 24.3921 84.3945 23.9199 84.4336 23.487C84.4141 23.0541 84.3164 22.5819 84.1602 22.0506C83.8477 20.8504 82.7344 19.9649 82.7344 19.9649C82.7344 19.9649 84.0039 20.3585 84.5703 20.5159C85.1367 20.693 85.4883 20.8897 85.7227 21.4407C85.8789 21.8539 85.957 22.7196 85.957 23.5067Z" fill="black"/>
<path d="M13.9063 4.44049C15.3517 4.22405 33.9454 4.57822 35.1759 4.69628C36.4064 4.81434 37.0509 5.16851 37.8907 5.85718C38.2423 6.14445 38.7696 6.6639 39.2755 7.17942C39.3673 7.27387 39.4591 7.36635 39.5489 7.46079C39.4591 7.45882 39.3634 7.45685 39.2677 7.45292C38.7813 7.44111 38.2188 7.42931 37.6036 7.4175C35.6173 7.38012 33.0841 7.34077 30.8165 7.31322C30.7853 7.31322 30.7521 7.31322 30.7208 7.31322C30.5763 7.31322 30.4317 7.30928 30.2892 7.30732C30.2638 7.30732 30.2403 7.30732 30.2149 7.30732C30.0567 7.30732 29.9005 7.30338 29.7462 7.30141C29.7384 7.30141 29.7325 7.30141 29.7247 7.30141C29.5724 7.30141 29.42 7.29748 29.2716 7.29551C29.2501 7.29551 29.2286 7.29551 29.2071 7.29551C29.0646 7.29551 28.9239 7.29158 28.7853 7.29158C28.7716 7.29158 28.7579 7.29158 28.7423 7.29158C28.5978 7.29158 28.4571 7.28764 28.3185 7.28764C28.3067 7.28764 28.297 7.28764 28.2853 7.28764C28.1446 7.28764 28.0079 7.28567 27.8751 7.2837C27.8653 7.2837 27.8575 7.2837 27.8478 7.2837C27.7188 7.2837 27.5938 7.28174 27.4728 7.27977C27.4571 7.27977 27.4415 7.27977 27.4239 7.27977C27.3067 7.27977 27.1935 7.27977 27.0841 7.2778C27.0685 7.2778 27.0528 7.2778 27.0372 7.2778C26.9239 7.2778 26.8165 7.2778 26.711 7.27583C26.7013 7.27583 26.6896 7.27583 26.6798 7.27583C26.5802 7.27583 26.4845 7.27583 26.3927 7.27583C26.3751 7.27583 26.3595 7.27583 26.3419 7.27583C26.2501 7.27583 26.1622 7.27583 26.0802 7.27583C26.0743 7.27583 26.0665 7.27583 26.0606 7.27583C25.9747 7.27583 25.8946 7.27583 25.8185 7.27583C25.8106 7.27583 25.8028 7.27583 25.795 7.27583C25.7208 7.27583 25.6524 7.27583 25.5899 7.27583C25.5841 7.27583 25.5802 7.27583 25.5743 7.27583C25.5118 7.27583 25.4532 7.27583 25.4005 7.27583C25.3966 7.27583 25.3946 7.27583 25.3907 7.27583C25.338 7.27583 25.2931 7.27583 25.254 7.27583C23.5938 7.31519 20.4298 7.19713 19.4532 7.41357C18.4767 7.63001 17.3438 7.94483 16.8751 8.96799C16.4063 9.99116 16.2306 11.1717 16.2306 11.1717L16.6212 11.5653L16.5235 12.2205L16.2306 14.1625H15.8399C15.8399 14.1625 15.8106 14.5088 15.7677 15.1168L11.8556 14.9555L11.1134 14.2078C10.047 13.7985 9.1251 13.1728 8.62315 12.2205C8.42588 11.8466 8.29111 11.4236 8.24229 10.9415C7.8126 6.67177 12.461 4.6648 13.9063 4.44836V4.44049Z" fill="black"/>
<path d="M25.5704 39.4522C25.5704 39.4522 25.5879 39.4522 25.5958 39.4522C25.6543 39.4522 25.7188 39.4522 25.7872 39.4522C25.8008 39.4522 25.8145 39.4522 25.8282 39.4522C25.9004 39.4522 25.9786 39.4522 26.0606 39.4522C26.0684 39.4522 26.0782 39.4522 26.086 39.4522C26.17 39.4522 26.2559 39.4522 26.3477 39.4522C26.3633 39.4522 26.379 39.4522 26.3926 39.4522C26.4825 39.4522 26.5762 39.4522 26.6739 39.4522C26.6954 39.4522 26.7188 39.4522 26.7422 39.4522C26.8379 39.4522 26.9356 39.4522 27.0372 39.4503C27.0567 39.4503 27.0782 39.4503 27.0977 39.4503C27.2071 39.4503 27.3204 39.4503 27.4375 39.4483C27.4454 39.4483 27.4551 39.4483 27.4629 39.4483C27.584 39.4483 27.709 39.4463 27.8379 39.4444C27.8575 39.4444 27.877 39.4444 27.8965 39.4444C28.1661 39.4424 28.4473 39.4385 28.7403 39.4365C28.7461 39.4365 28.752 39.4365 28.7579 39.4365C28.8946 39.4365 29.0352 39.4345 29.1758 39.4326C29.2051 39.4326 29.2325 39.4326 29.2618 39.4326C29.3985 39.4326 29.5352 39.4286 29.6758 39.4286C29.7032 39.4286 29.7305 39.4286 29.7579 39.4286C29.8965 39.4286 30.0391 39.4247 30.1817 39.4227C30.209 39.4227 30.2364 39.4227 30.2637 39.4227C30.42 39.4227 30.5801 39.4188 30.7403 39.4168C30.7461 39.4168 30.754 39.4168 30.7598 39.4168C30.9239 39.4148 31.0899 39.4129 31.2559 39.4109C31.2735 39.4109 31.2891 39.4109 31.3067 39.4109C31.4668 39.4089 31.629 39.407 31.7911 39.405C31.8165 39.405 31.8399 39.405 31.8653 39.405C32.0254 39.403 32.1856 39.4011 32.3477 39.3991C32.3555 39.3991 32.3653 39.3991 32.3731 39.3991C32.543 39.3971 32.7129 39.3952 32.8829 39.3912C32.8965 39.3912 32.9122 39.3912 32.9258 39.3912C33.2715 39.3873 33.6192 39.3814 33.9629 39.3755C33.9786 39.3755 33.9922 39.3755 34.0079 39.3755C34.1817 39.3735 34.3555 39.3696 34.5274 39.3676H34.5352C34.6954 39.3657 34.8555 39.3617 35.0137 39.3598C35.045 39.3598 35.0782 39.3598 35.1094 39.3598C35.2657 39.3578 35.4219 39.3538 35.5762 39.3519C35.5879 39.3519 35.5977 39.3519 35.6094 39.3519C35.7774 39.3499 35.9454 39.346 36.1094 39.344C36.2774 39.342 36.4415 39.3381 36.6036 39.3361C36.6094 39.3361 36.6153 39.3361 36.6231 39.3361C37.6114 39.3184 38.5118 39.3007 39.2403 39.283C39.4551 39.2771 39.6563 39.2732 39.8399 39.2673C39.6602 39.4542 39.4649 39.6549 39.2657 39.8576C38.7559 40.375 38.2247 40.8945 37.879 41.1857C37.0586 41.8744 36.3946 42.2285 35.1641 42.3466C33.9336 42.4647 15.3594 42.8188 13.8946 42.6024C12.4493 42.386 7.7813 40.379 8.23052 36.1092C8.2813 35.6193 8.41802 35.1904 8.61919 34.8106C9.1231 33.8622 10.0411 33.2365 11.1016 32.843L11.8438 32.0953L15.7774 31.932C15.8067 32.3471 15.8282 32.5813 15.8282 32.5813H16.2188L16.5547 34.8106L16.6094 35.1785L16.2188 35.5721C16.2188 35.5721 16.3946 36.7526 16.8633 37.7758C17.3321 38.799 18.4649 39.0941 19.4415 39.3302C20.418 39.5664 23.5626 39.4483 25.2422 39.468C25.2833 39.468 25.3321 39.468 25.3848 39.468C25.3848 39.468 25.3868 39.468 25.3887 39.468C25.4395 39.468 25.4961 39.468 25.5586 39.468L25.5704 39.4522Z" fill="black"/>
<path d="M77.8321 37.2801H79.004L75.8809 35.2593C75.9668 35.1432 76.0352 35.0567 76.0352 35.0567L75.7344 31.6645C76.6993 31.5641 77.5547 31.4697 77.8223 31.4461C78.4864 31.3871 78.545 31.1509 78.7207 30.9345C78.7676 30.8774 78.9063 30.8401 79.1036 30.8105L78.9864 35.0744C78.9864 35.0744 79.2208 35.3498 79.377 35.586C79.5333 35.8221 79.5137 36.373 79.5137 36.373L80.4122 38.1832C80.4122 38.1832 74.3575 38.1832 74.377 38.1832L75.5293 36.2353C75.5293 36.2353 75.4903 36.0385 75.5293 35.8418C75.5293 35.8398 75.5313 35.8359 75.5313 35.8319C76.3692 36.3868 77.834 37.2584 77.834 37.2584V37.2781L77.8321 37.2801Z" fill="black"/>
<path d="M77.8223 15.5673C77.5488 15.5516 76.6953 15.4591 75.7344 15.3588L76.0352 11.9567C76.0352 11.9567 75.9668 11.8702 75.8809 11.7541L79.0039 9.73333L77.832 9.75301C77.832 9.75301 76.3672 10.6247 75.5293 11.1795C75.5293 11.1756 75.5273 11.1736 75.5273 11.1697C75.4883 10.9729 75.5273 10.7762 75.5273 10.7762L74.375 8.82822H80.4102L79.5117 10.6384C79.5117 10.6384 79.5313 11.1894 79.375 11.4255C79.2188 11.6419 78.9844 11.9371 78.9844 11.9371L79.1016 16.2029C78.9063 16.1734 78.7656 16.136 78.7188 16.0789C78.543 15.8822 78.4844 15.6264 77.8203 15.5673H77.8223Z" fill="black"/>
<path d="M74.1016 33.2464L75.7813 35.1943L75.8809 35.2593L79.0039 37.28H77.832V37.2604C77.832 37.2604 76.3672 36.3887 75.5293 35.8338C75.2773 35.6666 75.0801 35.5269 75 35.4501C74.6484 35.1156 73.457 33.6399 73.457 33.6399L73.3691 31.8966C73.5938 31.8769 73.8418 31.8553 74.1016 31.8297V33.2464Z" fill="#1D1D1D"/>
<path d="M79.0039 9.73335L75.8809 11.7541L75.7813 11.819L74.1016 13.767V15.1896C73.8418 15.164 73.5957 15.1404 73.3691 15.1207L73.457 13.3735C73.457 13.3735 74.6484 11.8977 75 11.5632C75.082 11.4865 75.2773 11.3468 75.5293 11.1796C76.3672 10.6247 77.832 9.75303 77.832 9.75303L79.0039 9.73335Z" fill="#1D1D1D"/>
<path opacity="0.1" d="M81.0938 23.5067C81.1328 24.4314 81.0547 25.2185 80.9375 25.5923C80.7422 26.1433 80.3125 26.6155 79.5117 26.7532C78.7109 26.891 74.4922 27.009 74.4922 27.009C74.4922 27.009 74.6289 25.1988 74.6484 23.5067C74.6289 21.8145 74.4922 20.0043 74.4922 20.0043C74.4922 20.0043 78.7109 20.1223 79.5117 20.2601C80.3125 20.3978 80.7422 20.87 80.9375 21.421C81.0547 21.7948 81.1328 22.5819 81.0938 23.5067Z" fill="black"/>
<path d="M85.3123 20.26C85.3123 20.26 81.8944 19.3155 81.4452 19.0991C80.9959 18.8827 80.4491 18.6662 80.2928 18.4498C80.1366 18.2334 79.9217 18.0563 80.9373 18.0563H83.7694C83.7694 18.0563 84.492 18.7253 84.8045 19.2172C85.0975 19.7287 85.3123 20.26 85.3123 20.26ZM85.3123 26.7532C85.3123 26.7532 81.8944 27.6976 81.4452 27.9141C80.9959 28.1305 80.4491 28.3469 80.2928 28.5634C80.1366 28.7798 79.9217 28.9569 80.9373 28.9569H83.7694C83.7694 28.9569 84.492 28.2879 84.8045 27.796C85.0975 27.2844 85.3123 26.7532 85.3123 26.7532Z" fill="white"/>
<path d="M82.4805 17.5251L79.6484 17.6628L75 16.8758C75 16.8758 77.1875 16.6593 78.2227 16.62C79.2578 16.5806 82.4805 17.5251 82.4805 17.5251ZM82.4805 29.4883L79.6484 29.3505L75 30.1376C75 30.1376 77.1875 30.3737 78.2227 30.3934C79.2578 30.413 82.4805 29.4883 82.4805 29.4883Z" fill="black"/>
<path d="M15.8398 14.1545C15.8398 14.1545 15.8105 14.5008 15.7676 15.1088C15.6621 16.6416 15.4844 19.8409 15.5273 23.363C15.4824 27.1408 15.6914 30.5448 15.7891 31.9221C15.8184 32.3373 15.8398 32.5715 15.8398 32.5715H16.2305L16.4082 33.7579H11.2109V25.4093H14.1289V21.5134H11.2109V13.2553H16.3652L16.2305 14.1545H15.8398Z" fill="#1D1D1D"/>
<path d="M52.1094 12.3699C51.5625 12.3699 51.1523 11.8976 51.1523 11.3664C51.1523 10.8351 51.5625 10.4022 52.0898 10.4022C52.5586 10.0087 53.1055 9.65455 53.2227 9.6152C53.418 9.57585 53.6133 9.32005 53.6133 9.75293C53.6133 10.1858 53.7305 10.5597 53.4766 10.7958C53.3008 10.9532 53.1641 11.0909 53.0664 11.209" fill="black"/>
<path d="M94.7266 28.1896H92.6562V18.8434H94.7266V28.1896Z" fill="black"/>
<path d="M65.0781 36.7587H67.2461C67.4414 36.5993 67.6758 36.4989 67.9492 36.4989H87.207C87.4805 36.4989 87.7148 36.5993 87.9102 36.7587H90.0781C90.5078 36.7587 90.8594 38.5925 90.8594 40.8454C90.8594 43.0983 90.5078 44.9322 90.0781 44.9322H87.9102C87.7148 45.0915 87.4805 45.1919 87.207 45.1919H67.9492C67.6758 45.1919 67.4414 45.0915 67.2461 44.9322H65.0781C64.6484 44.9322 64.2969 43.0983 64.2969 40.8454C64.2969 38.5925 64.6484 36.7587 65.0781 36.7587Z" fill="#333333"/>
<path d="M90.0781 10.1071H87.9102C87.7148 10.2645 87.4805 10.3629 87.207 10.3629H67.9492C67.6758 10.3629 67.4414 10.2645 67.2461 10.1071H65.0781C64.6484 10.1071 64.2969 8.30084 64.2969 6.10301C64.2969 3.90517 64.6484 2.07921 65.0781 2.07921H67.2461C67.4414 1.9218 67.6758 1.82342 67.9492 1.82342H87.207C87.4805 1.82342 87.7148 1.9218 87.9102 2.07921H90.0781C90.5078 2.07921 90.8594 3.88549 90.8594 6.10301C90.8594 8.32052 90.5078 10.1071 90.0781 10.1071Z" fill="#333333"/>
<path d="M16.6212 11.5572L16.5236 12.2125L16.2306 14.1545H15.84C15.84 14.1545 15.8107 14.5008 15.7677 15.1088C15.6622 16.6416 15.4845 19.8409 15.5275 23.363C15.4826 27.1408 15.6915 30.5448 15.7892 31.9222C15.8185 32.3373 15.84 32.5715 15.84 32.5715H16.2306L16.5665 34.8008L16.6212 35.1687L16.2306 35.5623C16.2306 35.5623 16.3419 36.3041 16.6212 37.1187C16.2501 37.0104 15.8732 36.8156 15.7228 36.4713C15.4103 35.7433 14.2775 30.6471 14.5119 23.485C14.258 16.3228 15.3908 11.2267 15.7228 10.4987C15.8595 10.1819 16.1896 9.99298 16.5314 9.88082C16.3185 10.5813 16.2306 11.1617 16.2306 11.1617L16.6212 11.5553V11.5572Z" fill="#333333"/>
<path d="M37.8906 5.83732C37.0508 5.14865 36.4062 4.79448 35.1758 4.67642C33.9453 4.55836 15.3516 4.20419 13.9062 4.42063C12.4609 4.63707 7.8125 6.64405 8.24219 10.9138C8.29101 11.3959 8.42578 11.8189 8.62305 12.1927H6.83594C6.46484 12.1927 6.11328 12.055 5.85937 11.8189H2.77344C2.16797 11.8189 1.67969 9.26099 1.67969 6.09311C1.67969 2.92524 2.16797 0.367322 2.77344 0.367322H5.85937C6.13281 0.131207 6.46484 -0.00652504 6.83594 -0.00652504H34.1406C34.5117 -0.00652504 34.8633 0.131207 35.1172 0.367322H38.2031C38.8086 0.367322 39.2969 2.92524 39.2969 6.09311C39.2969 6.45909 39.2891 6.81326 39.2754 7.15956C38.7695 6.64208 38.2402 6.12459 37.8906 5.83732Z" fill="#333333"/>
<path d="M13.9375 42.5139C15.4023 42.7303 33.9766 42.3762 35.207 42.2581C36.4375 42.1401 37.1016 41.7859 37.9219 41.0972C38.2676 40.808 38.7988 40.2885 39.3086 39.7691C39.3203 40.1095 39.3281 40.4617 39.3281 40.8217C39.3281 43.9896 38.8398 46.5475 38.2344 46.5475H35.1484C34.875 46.7837 34.543 46.9214 34.1719 46.9214H6.86719C6.49609 46.9214 6.14453 46.7837 5.89062 46.5475H2.80469C2.19922 46.5475 1.71094 43.9896 1.71094 40.8217C1.71094 37.6539 2.19922 35.096 2.80469 35.096H5.89062C6.16406 34.8598 6.49609 34.7221 6.86719 34.7221H8.66211C8.46094 35.1019 8.32422 35.5308 8.27344 36.0207C7.82422 40.2905 12.4922 42.2975 13.9375 42.5139Z" fill="#333333"/>
<path d="M15.7596 37.9195C15.2322 37.7424 14.8611 37.0734 15.115 36.6208C15.2889 36.3119 15.9412 36.186 16.3416 36.1388C16.4334 36.548 16.5896 37.1246 16.8279 37.6716C16.5623 37.827 16.1111 38.0375 15.7615 37.9214L15.7596 37.9195Z" fill="#1D1D1D"/>
<path d="M19.4552 39.3402C20.3048 39.5448 22.7911 39.4838 24.5294 39.4759V41.2842H17.0489V39.8478C17.0489 39.8478 16.3653 39.7888 16.5411 39.0608C16.6505 38.6082 16.8204 38.1655 16.9317 37.892C17.4298 38.8286 18.5138 39.1119 19.4552 39.3402Z" fill="#1D1D1D"/>
<path d="M19.455 7.42525C18.4803 7.64169 17.3514 7.95454 16.8807 8.9718C16.7675 8.6983 16.6249 8.30871 16.5409 7.91322C16.3846 7.1852 17.0487 7.12617 17.0487 7.12617V5.6898H24.5292V7.29539C22.7987 7.30129 20.3026 7.23636 19.455 7.42525Z" fill="#1D1D1D"/>
<path d="M10.8572 39.3363C10.8572 38.628 10.6424 36.5226 10.8572 36.3455C11.072 36.1684 11.1111 36.2078 11.1111 36.2078C11.1111 36.2078 11.6775 36.1291 11.7556 36.2078C11.8338 36.2865 11.8924 39.9856 11.8924 39.9856H11.1111C11.1111 39.9856 10.8572 40.0446 10.8572 39.3363Z" fill="#1D1D1D"/>
<path d="M15.115 10.3925C14.8806 9.95964 15.2322 9.27097 15.7595 9.09388C16.0779 8.97583 16.4783 9.1352 16.7498 9.28081C16.5095 9.8888 16.3631 10.5027 16.2908 10.8647C15.8845 10.8077 15.2693 10.6778 15.115 10.3925Z" fill="#1D1D1D"/>
<path d="M11.1111 10.7663C11.1111 10.7663 11.072 10.8056 10.8572 10.6286C10.6424 10.4711 10.8572 8.36579 10.8572 7.63776C10.8572 6.90974 11.1111 6.98845 11.1111 6.98845L11.8924 7.00812C11.8924 7.00812 11.8338 10.7073 11.7556 10.7663C11.6775 10.845 11.1111 10.7663 11.1111 10.7663Z" fill="#1D1D1D"/>
<path d="M1.22852 32.1937H0.466797V14.5441H1.24805V32.1937H1.22852ZM11.6777 28.9471H9.99805V17.771H11.6777V28.9471Z" fill="#1D1D1D"/>
<path d="M14.1289 21.4289V23.5205V25.6121H11.2383H10.1602V23.5205V21.4289H11.2383H14.1289Z" fill="black"/>
<path d="M48.7287 35.0605C48.9826 35.1195 49.2951 34.6276 49.4123 33.9586C49.5295 33.2896 49.4123 32.6797 49.1584 32.6207C48.9045 32.5616 48.592 33.0535 48.4748 33.7422C48.338 34.3915 48.4552 35.0015 48.7287 35.0605Z" fill="#1D1D1D"/>
<path d="M48.7287 11.449C48.9826 11.39 49.2951 11.8819 49.4123 12.5509C49.5295 13.2199 49.4123 13.8298 49.1584 13.8889C48.9045 13.9479 48.592 13.456 48.4748 12.787C48.338 12.118 48.4552 11.508 48.7287 11.449Z" fill="#1D1D1D"/>
<path d="M16.5548 35.1885L16.4903 35.2534C16.1778 35.1019 15.8946 34.5352 15.8165 33.8505C15.7423 33.333 15.8048 32.8765 15.9513 32.5912H16.1661L16.5568 35.1885H16.5548Z" fill="#151515"/>
<path d="M16.1638 14.1742H16.0837C15.8591 13.9302 15.7458 13.3832 15.8376 12.7477C15.906 12.1475 16.1325 11.6379 16.3982 11.4195L16.5544 11.5769L16.1638 14.1742Z" fill="#151515"/>
</g>
<defs>
<clipPath id="clip0_6561_3274">
<rect width="100" height="47" fill="white" transform="matrix(1 0 0 -1 0 47)"/>
</clipPath>
</defs>
</svg>
