<svg width="100" height="40" viewBox="0 0 100 40" fill="none" xmlns="http://www.w3.org/2000/svg">
<g clip-path="url(#clip0_6561_4653)">
<path d="M98.294 28.2134V28.5898L89.1001 30.6085V30.7548L86.4454 31.652V32.9784H92.0867C94.0387 32.9784 95.6198 34.1681 95.6198 35.6505V37.3279C95.6198 38.7907 94.0387 40 92.0867 40H74.675C72.723 40 71.1419 38.8102 71.1419 37.3279V35.6505C71.1419 34.7279 71.7704 33.9087 72.723 33.427H70.1464V36.2746C70.1464 36.5867 69.8731 36.8598 69.5413 36.8598H53.3984C53.0666 36.8598 52.7933 36.5867 52.7933 36.2551V33.427H38.983C39.9297 33.9048 40.5544 34.7201 40.5544 35.6505V37.3279C40.5544 38.7907 38.9733 40 37.0213 40H19.6096C17.6576 40 16.0765 38.8102 16.0765 37.3279V35.6505C16.0765 34.7279 16.7051 33.9087 17.6576 33.427L12.6078 33.4231V32.2177L9.34218 32.52L8.54187 32.1006V28.3129C6.73238 27.6282 5.23717 26.0172 4.39586 23.9165L2.54538 22.9471C2.46731 22.9764 2.38727 22.992 2.30529 22.992C1.72555 22.992 1.2278 22.2586 1.02089 21.221L0.00195312 20.6515V19.6567L1.02479 19.0755C1.23365 18.0476 1.72946 17.3357 2.30529 17.3357C2.37947 17.3357 2.45169 17.3513 2.52196 17.3747L4.26508 16.4619C5.07515 14.1915 6.63479 12.44 8.54187 11.7164V8.5001L9.3617 8.0515L12.6078 8.37333V6.56525H17.6049C16.6816 6.08544 16.0746 5.28185 16.0746 4.36513V2.68774C16.0746 1.20539 17.6557 0.0156097 19.6077 0.0156097H37.0193C38.9713 0.0156097 40.5524 1.20539 40.5524 2.68774V4.36513C40.5524 5.2838 39.9453 6.08934 39.0182 6.56915H52.7913V3.74099C52.7913 3.42891 53.0646 3.15585 53.3964 3.15585H69.5393C69.8712 3.15585 70.1444 3.42891 70.1444 3.74099V6.56915H72.6742C71.749 6.08934 71.14 5.2838 71.14 4.36513V2.68774C71.14 1.20539 72.7211 0.0156097 74.673 0.0156097H92.0847C94.0367 0.0156097 95.6178 1.20539 95.6178 2.68774V4.36513C95.6178 5.84748 94.0367 7.03726 92.0847 7.03726H86.4435V8.27775L89.0982 9.10475V9.40706L98.292 11.4258V11.8022L99.9122 12.245V27.7706L98.292 28.2134H98.294Z" fill="black"/>
<path d="M89.174 30.6008L78.0691 33.0408L76.3299 33.4231H70.2202H52.8671H12.6953V32.2138V31.9212V31.6287V31.3517V31.0591V30.7607V30.4682V30.1697V29.8713V29.5982V29.3018V29.0092V28.7108V28.664H10.2358V28.6094V28.2992V28.0067V27.6985V27.4098V27.1173V26.8286V26.5341V26.2259V25.9333V25.6447V25.3365V25.0439V24.7358V24.4432V24.135V23.862V23.5518V23.2593V22.9511V22.6819V22.3894V22.0812V21.7886V21.4804V21.2074V20.8973V20.6047V20.2965V19.9883V19.7153V19.4071V19.1145V18.8044V18.5118V18.2037V17.9306V17.6224V17.3338V17.0412V16.7525V16.46V16.1498V15.8573V15.5491V15.2565V14.9679V14.6597V14.3671V14.057V13.7839V13.4758V13.1832V12.875V12.5864V12.2938V12.0051V11.7125V11.4024V11.3634H12.6953V11.2932V11.0143V10.7159V10.4233V10.1249V9.85181V9.55534V9.26277V8.96435V8.67179V8.37337V6.56529L52.8671 6.57699L70.2007 6.58284H70.2202H70.5657L76.3299 6.58479L77.9559 6.94173L89.174 9.40711L98.3483 11.4219V28.586L89.174 30.6008Z" fill="#D9E0E0"/>
<path d="M8.64703 12.2722V28.3206C5.81861 27.2615 3.74756 23.9418 3.74756 20.0155C3.74756 16.0892 5.81861 12.7696 8.64703 11.7105V12.2722Z" fill="#D9E0E0"/>
<path d="M52.8794 6.58082V3.74095C52.8794 3.42888 53.1527 3.15581 53.4845 3.15581H69.6274C69.9592 3.15581 70.2325 3.42888 70.2325 3.74095V6.58667H70.213L52.8794 6.58082Z" fill="#222222"/>
<path d="M70.2325 36.2747C70.2325 36.5868 69.9592 36.8599 69.6274 36.8599H53.4845C53.1527 36.8599 52.8794 36.5868 52.8794 36.2552V33.4271H70.2325V36.2747Z" fill="#222222"/>
<path d="M66.0942 37.1719H66.7384V36.5477H66.0942V37.1719Z" fill="black"/>
<path d="M55.2607 37.0159H55.9049V36.5478H55.2607V37.0159Z" fill="black"/>
<path opacity="0.1" d="M66.6797 35.2603C66.6797 35.7674 67.0896 36.177 67.5971 36.177C68.1046 36.177 68.5145 35.7674 68.5145 35.2603C68.5145 34.7532 68.1046 34.3436 67.5971 34.3436C67.0896 34.3436 66.6797 34.7532 66.6797 35.2603Z" fill="white"/>
<path d="M66.0942 2.84363H66.7384V3.46777H66.0942V2.84363Z" fill="black"/>
<path d="M55.2607 2.99966H55.9049V3.46777H55.2607V2.99966Z" fill="black"/>
<path opacity="0.1" d="M66.6797 4.75516C66.6797 4.24804 67.0896 3.83845 67.5971 3.83845C68.1046 3.83845 68.5145 4.24804 68.5145 4.75516C68.5145 5.26228 68.1046 5.67188 67.5971 5.67188C67.0896 5.67188 66.6797 5.26228 66.6797 4.75516Z" fill="white"/>
<path d="M0.0585938 20.6514L2.36193 21.9387V18.3499L0.0585938 19.6567V20.6514Z" fill="#222222"/>
<path d="M0.976074 20.1638C0.976074 21.7241 1.60071 22.9919 2.36198 22.9919C3.12325 22.9919 3.74789 21.7241 3.74789 20.1638C3.74789 18.6034 3.12325 17.3356 2.36198 17.3356C1.60071 17.3356 0.976074 18.5839 0.976074 20.1638Z" fill="#333333"/>
<path d="M3.72811 20.0078C3.72811 21.416 3.99553 22.7462 4.46791 23.9224L2.20557 22.7384V17.5697L4.33127 16.458C3.94478 17.5424 3.72811 18.7439 3.72811 20.0078Z" fill="black"/>
<path opacity="0.4" d="M83.0566 7.19322L89.1858 9.10467V9.41089L77.9697 6.94551L83.0566 7.19322Z" fill="black"/>
<path opacity="0.4" d="M89.1859 30.7548L83.0567 32.8028L78.083 33.0447L89.1859 30.6047V30.7548Z" fill="black"/>
<path d="M9.44775 32.5298V26.5809V25.9762V8.05154L12.7076 8.37726V11.3673H10.2481V28.6679L12.7076 28.6815V32.2177L9.44775 32.5298Z" fill="#333333"/>
<path d="M9.42824 32.52L8.62793 32.1007V8.50014L9.44776 8.05154V25.9762V26.5809V32.5317L9.42824 32.522V32.52Z" fill="#161616"/>
<path opacity="0.1" d="M12.7075 11.3479H76.3421L98.38 13.5324V26.4835L76.3421 28.6485H12.7075V11.3479Z" fill="url(#paint0_linear_6561_4653)"/>
<path opacity="0.1" d="M76.1274 33.427H76.3226V28.6484H76.1274V33.427Z" fill="black"/>
<path opacity="0.1" d="M76.1274 11.3479H76.3226V6.56928H76.1274V11.3479Z" fill="black"/>
<path opacity="0.1" d="M53.6992 33.427H53.8944V28.6484H53.6992V33.427Z" fill="black"/>
<path opacity="0.1" d="M53.6992 11.3479H53.8944V6.56928H53.6992V11.3479Z" fill="black"/>
<path opacity="0.1" d="M31.2515 33.427H31.4467V28.6484H31.2515V33.427Z" fill="black"/>
<path opacity="0.1" d="M31.2515 11.3479H31.4467V6.56928H31.2515V11.3479Z" fill="black"/>
<path d="M98.3604 28.2192L100 27.7706V12.245L98.3604 11.7964V28.2192Z" fill="#D9E0E0"/>
<path opacity="0.2" d="M98.3604 28.2192L100 27.7706V12.245L98.3604 11.7964V28.2192Z" fill="black"/>
<path d="M84.4215 8.36353L80.4023 7.47997V5.08676H80.4219H86.5316V8.36353H84.4215Z" fill="black"/>
<path d="M80.4219 34.9287H80.4023V32.5355L84.4215 31.6519H86.5316V34.9287H80.4219Z" fill="black"/>
<path d="M40.6404 35.6505V37.3279C40.6404 38.7907 39.0593 40 37.1074 40H19.6957C17.7437 40 16.1626 38.8102 16.1626 37.3279V35.6505C16.1626 34.7299 16.7872 33.9126 17.7378 33.4309H39.0769C40.0197 33.9087 40.6404 34.7221 40.6404 35.6505Z" fill="#222222"/>
<path d="M78.0848 33.0486L78.4011 32.9784H92.1742C94.1262 32.9784 95.7073 34.1681 95.7073 35.6505V37.3279C95.7073 38.7907 94.1262 40 92.1742 40H74.7626C72.8106 40 71.2295 38.8102 71.2295 37.3279V35.6505C71.2295 34.7299 71.8541 33.9126 72.8047 33.4309H76.3456L78.0868 33.0486H78.0848Z" fill="#222222"/>
<path d="M16.1626 4.36509V2.6877C16.1626 1.20535 17.7437 0.0155683 19.6957 0.0155683H37.1074C39.0593 0.0155683 40.6404 1.20535 40.6404 2.6877V4.36509C40.6404 5.28961 40.0236 6.101 39.0867 6.58081L17.7047 6.57496C16.7736 6.09515 16.1626 5.28766 16.1626 4.36704V4.36509Z" fill="#222222"/>
<path d="M76.3442 6.59265H72.8033C71.8546 6.11479 71.228 5.29755 71.228 4.36523V2.68783C71.228 1.20548 72.8091 0.0157051 74.7611 0.0157051H92.1728C94.1248 0.0157051 95.7059 1.20548 95.7059 2.68783V4.36523C95.7059 5.84757 94.1248 7.03735 92.1728 7.03735H78.3703L77.9702 6.94958L76.3442 6.59265Z" fill="#222222"/>
</g>
<defs>
<linearGradient id="paint0_linear_6561_4653" x1="12.1464" y1="19.8227" x2="96.9544" y2="19.8227" gradientUnits="userSpaceOnUse">
<stop/>
<stop offset="0.24" stop-color="white"/>
<stop offset="0.69"/>
<stop offset="1" stop-color="white"/>
</linearGradient>
<clipPath id="clip0_6561_4653">
<rect width="100" height="40" fill="white" transform="matrix(1 0 0 -1 0 40)"/>
</clipPath>
</defs>
</svg>
