<svg width="100" height="60" viewBox="0 0 100 60" fill="none" xmlns="http://www.w3.org/2000/svg">
<g clip-path="url(#clip0_6561_3078)">
<path d="M94.9966 41.6601H78.755L77.1758 41.4871H75.7476C75.6883 41.4871 75.6424 41.4395 75.6424 41.3825V41.3197L75.0688 41.257L74.3959 41.0725H70.5893V41.1201H72.5681C72.6484 41.1201 72.7115 41.1847 72.7115 41.2627V41.5593C72.7115 41.8084 72.5088 42.0081 72.2603 42.0081H70.5893V46.9501H80.512C80.946 46.9501 81.2959 47.2999 81.2959 47.7297V59.2204C81.2959 59.652 80.9441 60 80.512 60H51.4206C50.8871 60 50.4397 59.633 50.3174 59.1386H49.7343C49.6195 59.1386 49.5259 59.0455 49.5259 58.9314V58.6176H49.3595V58.9314C49.3595 59.0455 49.2658 59.1386 49.1511 59.1386H48.1665C48.0518 59.1386 47.9581 59.0455 47.9581 58.9314V58.6176H47.7918V58.8895C47.7918 59.0264 47.6809 59.1386 47.5413 59.1386H46.6408C46.5031 59.1386 46.3903 59.0283 46.3903 58.8895V58.6176H46.224V58.8895C46.224 59.0264 46.1131 59.1386 45.9735 59.1386H45.073C44.9354 59.1386 44.8226 59.0283 44.8226 58.8895V58.6176H44.6562V58.8895C44.6562 59.0264 44.5454 59.1386 44.4058 59.1386H43.5053C43.3676 59.1386 43.2548 59.0283 43.2548 58.8895V58.6176H43.0789V58.8895C43.0789 59.0264 42.968 59.1386 42.8285 59.1386H41.928C41.7903 59.1386 41.6775 59.0283 41.6775 58.8895V58.6176H41.5112V58.8895C41.5112 59.0264 41.4003 59.1386 41.2607 59.1386H40.3602C40.2225 59.1386 40.1097 59.0283 40.1097 58.8895V58.6176H39.9549V58.8895C39.9549 59.0264 39.844 59.1386 39.7044 59.1386H38.8039C38.6663 59.1386 38.5535 59.0283 38.5535 58.8895V58.6176H38.3986V58.8895C38.3986 59.0264 38.2877 59.1386 38.1481 59.1386H37.2476C37.11 59.1386 36.9972 59.0283 36.9972 58.8895V58.6176H36.7983V58.8895C36.7983 59.0264 36.6874 59.1386 36.5479 59.1386H35.6474C35.5097 59.1386 35.3969 59.0283 35.3969 58.8895V58.6176H35.2095V58.8895C35.2095 59.0264 35.0987 59.1386 34.9591 59.1386H34.0586C33.9209 59.1386 33.8081 59.0283 33.8081 58.8895V58.6176H33.6208V58.8895C33.6208 59.0264 33.5099 59.1386 33.3703 59.1386H32.4698C32.3321 59.1386 32.2193 59.0283 32.2193 58.8895V58.6176H32.0434V58.8895C32.0434 59.0264 31.9326 59.1386 31.793 59.1386H30.8925C30.7548 59.1386 30.642 59.0283 30.642 58.8895V58.6176H30.4661V58.9104C30.4661 59.0359 30.3648 59.1367 30.2386 59.1367H29.2941C29.1679 59.1367 29.0666 59.0359 29.0666 58.9104V58.6176H28.8907V58.9104C28.8907 59.0359 28.7894 59.1367 28.6632 59.1367H27.7187C27.5925 59.1367 27.4912 59.0359 27.4912 58.9104V58.6176H27.2924V58.9104C27.2924 59.0359 27.191 59.1367 27.0649 59.1367H26.1204C25.9942 59.1367 25.8929 59.0359 25.8929 58.9104V58.6176H25.7055V58.9104C25.7055 59.0359 25.6042 59.1367 25.478 59.1367H24.5335C24.4073 59.1367 24.306 59.0359 24.306 58.9104V58.6176H24.1071V58.9104C24.1071 59.0359 24.0058 59.1367 23.8796 59.1367H22.9352C22.809 59.1367 22.7076 59.0359 22.7076 58.9104V58.6176H22.4782V58.9104C22.4782 59.0359 22.3769 59.1367 22.2507 59.1367H21.3062C21.18 59.1367 21.0787 59.0359 21.0787 58.9104V58.6176H20.9621V58.9751C20.9621 59.0645 20.8894 59.1367 20.7996 59.1367H20.0749C19.9851 59.1367 19.9124 59.0645 19.9124 58.9751V58.6176H19.8379V58.9751C19.8379 59.0645 19.7652 59.1367 19.6754 59.1367H19.0177C18.9278 59.1367 18.8552 59.0645 18.8552 58.9751V58.0776L19.0502 57.5395H5.97469C4.73769 57.5395 3.68423 56.642 3.49495 55.425L0 32.9551V27.0547L3.49495 4.58098C3.68423 3.36402 4.73769 2.46652 5.97469 2.46652H19.0158L18.8647 2.04629V0.987156H19.8474V1.44922H19.922V0.987156H20.9716V1.44922H21.0883V0.987156H22.4897V1.44922H22.7191V0.987156H24.1205V1.44922H24.3194V0.987156H25.7208V1.44922H25.9082V0.987156H27.3096V1.44922H27.5084V0.987156H28.9098V1.44922H29.0857V0.987156H30.4872V1.44922H30.6631V0.987156H32.0645V1.44922H32.2404V0.987156H33.6418V1.44922H33.8292V0.987156H35.2306V1.44922H35.4179V0.987156H36.8194V1.44922H37.0182V0.987156H38.4196V1.44922H38.5745V0.987156H39.9759V1.44922H40.1308V0.987156H41.5322V1.44922H41.6985V0.987156H43.1V1.44922H43.2759V0.987156H44.6773V1.44922H44.8436V0.987156H46.245V1.44922H46.4114V0.987156H47.8128V1.44922H47.9791V0.987156H49.3806V1.44922H49.5469V0.987156H50.9483V1.44922H51.1892V0.987156H52.5906V1.44922H52.7665V0.987156H54.1679V1.44922H54.3438V0.987156H55.7453V1.44922H55.9212V0.987156H56.8465L57.4124 0.487064C57.7604 0.17902 58.2097 0.00979233 58.6762 0.00979233H87.1578C88.1558 0.00979233 88.9664 0.814121 88.9664 1.8086V11.259C88.9664 12.2516 88.1577 13.0578 87.1578 13.0578H70.6122V16.9198H72.2832C72.5337 16.9198 72.7344 17.1213 72.7344 17.3685V17.6652C72.7344 17.745 72.6694 17.8078 72.591 17.8078H70.6122V17.8876H74.3595L75.0497 17.6956L75.6654 17.6385V17.5606C75.6654 17.5187 75.6998 17.4845 75.7418 17.4845H77.3344L78.7856 17.3533H95.0195C97.7612 17.3533 99.9828 19.5628 99.9828 22.2896V36.7238C99.9828 39.4506 97.7612 41.6601 95.0195 41.6601H94.9966ZM73.6101 40.7208C73.3386 40.5135 73.2315 40.2815 73.2315 39.9107V39.1558C73.2315 38.9429 73.3959 38.7641 73.6081 38.7451L76.9846 38.4409V37.724L73.6081 37.4198C73.394 37.4008 73.2315 37.222 73.2315 37.009V36.2846C73.2315 36.0716 73.3959 35.8929 73.6081 35.8739L76.9846 35.5696L76.9788 35.1646L70.5893 35.1931V39.7491H72.2603C72.5107 39.7491 72.7115 39.9507 72.7115 40.1978V40.4945C72.7115 40.5743 72.6465 40.6371 72.5681 40.6371H70.5893V40.717H73.6101V40.7208ZM70.5893 18.285H72.5681C72.6484 18.285 72.7115 18.3497 72.7115 18.4277V18.7243C72.7115 18.9734 72.5088 19.173 72.2603 19.173H70.5893V23.8279H76.9788L76.9846 23.3696L73.6081 23.0654C73.394 23.0464 73.2315 22.8676 73.2315 22.6547V21.9302C73.2315 21.7172 73.3959 21.5385 73.6081 21.5195L76.9846 21.2152V20.4984L73.6081 20.1941C73.394 20.1751 73.2315 19.9964 73.2315 19.7834V19.0285C73.2315 19.0114 73.2334 18.9962 73.2353 18.9791V18.846C73.2353 18.5227 73.3405 18.3687 73.5431 18.2318H70.5912V18.2793L70.5893 18.285Z" fill="#231F20"/>
<path d="M88.9436 11.2571V1.80669C88.9436 0.814117 88.1349 0.00788498 87.135 0.00788498H58.6935C58.227 0.00788498 57.7777 0.17712 57.4298 0.485161L50.7496 6.3912C50.4743 6.63459 50.1187 6.76959 49.7497 6.76959H34.8349V3.90215C34.8349 3.10922 34.1887 2.46651 33.3915 2.46651H6.01306C4.77606 2.46651 3.7226 3.36402 3.53332 4.58097L0.0402832 27.0528V32.9532L3.53524 55.4269C3.72451 56.6439 4.77797 57.5414 6.01497 57.5414H33.9172C34.4258 57.5414 34.8369 57.1325 34.8369 56.6268V55.1037H50.3232V58.8686C50.3232 59.4942 50.8318 60 51.4608 60H80.5121C80.9461 60 81.296 59.6501 81.296 59.2204V47.7335C81.296 47.3018 80.9442 46.9539 80.5121 46.9539H70.5894V42.0119H72.2604C72.5108 42.0119 72.7116 41.8103 72.7116 41.5631V41.2665C72.7116 41.1866 72.6466 41.1239 72.5682 41.1239H70.5894V40.6447H72.5682C72.6485 40.6447 72.7116 40.58 72.7116 40.5021V40.2055C72.7116 39.9564 72.5089 39.7567 72.2604 39.7567H70.5894V35.1817H81.4891V32.358H82.6324V30.9243H81.4891V27.9579H82.6324V26.5242H81.4891V23.8374H70.5894V19.1825H72.2604C72.5108 19.1825 72.7116 18.981 72.7116 18.7338V18.4372C72.7116 18.3573 72.6466 18.2945 72.5682 18.2945H70.5894V17.8154H72.5682C72.6485 17.8154 72.7116 17.7507 72.7116 17.6728V17.3761C72.7116 17.127 72.5089 16.9274 72.2604 16.9274H70.5894V13.0654H87.135C88.133 13.0654 88.9436 12.2611 88.9436 11.2666V11.2571ZM90.1367 30.9186V31.4167C90.1367 31.934 89.716 32.3523 89.196 32.3523H72.421V32.358H70.0254C69.7749 32.358 69.5742 32.1564 69.5742 31.9092V31.6126C69.5742 31.5327 69.6392 31.47 69.7176 31.47H70.6697V30.9908H69.7176C69.6373 30.9908 69.5742 30.9262 69.5742 30.8482V30.5516C69.5742 30.3025 69.7768 30.1028 70.0254 30.1028H70.6697V28.7813H70.0254C69.7749 28.7813 69.5742 28.5797 69.5742 28.3325V28.0359C69.5742 27.956 69.6392 27.8933 69.7176 27.8933H70.6697V27.4141H69.7176C69.6373 27.4141 69.5742 27.3495 69.5742 27.2715V26.9749C69.5742 26.7258 69.7768 26.5261 70.0254 26.5261H71.031H89.1979C89.7179 26.5261 90.1386 26.9444 90.1386 27.4616V27.9598H77.5525V30.9262H90.1386L90.1367 30.9186Z" fill="#F6921E"/>
<path opacity="0.1" d="M79.6726 59.329H61.2955C59.8921 59.329 58.7526 58.1976 58.7526 56.8V49.1845H39.9242V53.9344H34.4065V49.1845H4.48145V10.3941H67.7653V49.1579H79.6726C79.9575 49.1579 80.1889 49.388 80.1889 49.6713V58.8137C80.1889 59.097 79.9575 59.3271 79.6726 59.3271V59.329ZM66.427 11.535H57.7795V12.7063H53.2655V11.5388L6.01096 11.535V24.4613L12.2093 24.4537C12.7141 24.4537 13.1232 24.8587 13.1232 25.3607V25.7962H66.427V11.535ZM66.4767 33.4116H13.1213V33.6151C13.1309 34.1266 12.7141 34.5468 12.1998 34.5468L6.05876 34.5582V47.6709H34.699L34.7143 46.8628H39.2665V47.6709H66.4767V33.4097V33.4116ZM75.3804 54.5676C75.3804 54.349 75.2026 54.1702 74.9808 54.1702H69.1094C68.8895 54.1702 68.7098 54.3471 68.7098 54.5676V57.321C68.7098 57.5397 68.8876 57.7184 69.1094 57.7184H74.9808C75.2007 57.7184 75.3804 57.5416 75.3804 57.321V54.5676Z" fill="#231F20"/>
<path d="M56.3303 1.44744H19.5243L19.5281 2.45903L33.3129 2.47805C34.1427 2.47805 34.8157 3.11695 34.8157 3.9422V6.76211H49.7495C50.1644 6.76211 50.564 6.60999 50.8737 6.33237L56.3303 1.44554V1.44744ZM34.831 56.6383L34.8386 55.3757V55.1038H50.3231V58.6196H19.3159V57.5453L33.9228 57.5358C34.4218 57.5358 34.8272 57.1346 34.831 56.6383Z" fill="#231F20"/>
<path opacity="0.5" d="M66.4673 33.6453H13.1252V25.7959H66.4673V33.6453Z" fill="url(#paint0_linear_6561_3078)"/>
<path opacity="0.5" d="M68.9431 26.5167H81.489V23.8298H68.9431V26.5167ZM68.9431 35.1951V32.3714H81.489V35.1951H68.9431Z" fill="url(#paint1_linear_6561_3078)"/>
<path d="M95.0368 40.9946H78.8334L75.1836 40.5934L73.614 40.3158C73.4151 40.2816 73.2717 40.1104 73.2717 39.9089V39.154C73.2717 38.941 73.4362 38.7623 73.6484 38.7433L77.0248 38.439V37.7222L73.6484 37.4179C73.4342 37.3989 73.2717 37.2202 73.2717 37.0072V36.2827C73.2717 36.0698 73.4362 35.891 73.6484 35.872L77.0248 35.5678V34.8509L73.6484 34.5467C73.4342 34.5277 73.2717 34.3489 73.2717 34.1359V33.4115C73.2717 33.1985 73.4362 33.0198 73.6484 33.0008L77.0248 32.6965V32.3485H89.2361C89.7561 32.3485 90.1767 31.9302 90.1767 31.413V30.9148H77.5907V27.9485H90.1767V27.4503C90.1767 26.9331 89.7561 26.5148 89.2361 26.5148H77.0248V26.239L73.6484 25.9348C73.4342 25.9158 73.2717 25.737 73.2717 25.5241V24.7996C73.2717 24.5866 73.4362 24.4079 73.6484 24.3889L77.0248 24.0847V23.3678L73.6484 23.0636C73.4342 23.0445 73.2717 22.8658 73.2717 22.6528V21.9284C73.2717 21.7154 73.4362 21.5366 73.6484 21.5176L77.0248 21.2134V20.4965L73.6484 20.1923C73.4342 20.1733 73.2717 19.9945 73.2717 19.7816V19.0267C73.2717 18.827 73.4151 18.6559 73.614 18.6198L75.1836 18.3421L78.8334 18.0113H95.0368C97.4076 18.0113 99.3309 19.9242 99.3309 22.282V36.7163C99.3309 39.0741 97.4076 40.987 95.0368 40.987V40.9946Z" fill="url(#paint2_linear_6561_3078)"/>
<path d="M94.945 40.3063H77.8354V32.3524H89.2342C89.7542 32.3524 90.1749 31.9341 90.1749 31.4168V30.9187H77.8354V27.9523H90.1749V27.4541C90.1749 26.9369 89.7542 26.5186 89.2342 26.5186H77.8354V18.6959H94.945C96.6562 18.6959 98.0423 20.0744 98.0423 21.7763V37.2278C98.0423 38.9296 96.6562 40.3082 94.945 40.3082V40.3063Z" fill="url(#paint3_linear_6561_3078)"/>
<path d="M92.8247 21.396C92.1403 21.7744 91.7178 22.4894 91.7178 23.2671V35.7637C91.7178 36.5414 92.1422 37.2583 92.8247 37.6347L96.6887 39.7701C96.1916 40.1067 95.5913 40.3044 94.945 40.3044H77.8354V32.3505H89.2342C89.7542 32.3505 90.1749 31.9322 90.1749 31.415V30.9168H77.8354V27.9504H90.1749V27.4523C90.1749 26.935 89.7542 26.5167 89.2342 26.5167H77.8354V18.694H94.945C95.6027 18.694 96.2107 18.8993 96.7136 19.2473L92.8247 21.396Z" fill="url(#paint4_linear_6561_3078)"/>
<path opacity="0.3" d="M4.08578 24.4631H12.2228C12.7212 24.4631 13.1252 24.865 13.1252 25.3606L13.1252 33.6435C13.1252 34.1392 12.7212 34.541 12.2228 34.541H4.08578C3.58739 34.541 3.18337 34.1392 3.18337 33.6435L3.18337 25.3606C3.18337 24.865 3.58739 24.4631 4.08578 24.4631Z" fill="white"/>
<path opacity="0.25" d="M13.1004 26.9349L36.6416 26.9349V32.069H13.1004V26.9349Z" fill="#231F20"/>
<path opacity="0.5" d="M36.6531 26.9349H45.4841V32.069H36.6531V26.9349Z" fill="url(#paint5_linear_6561_3078)"/>
<path d="M45.6581 27.4712L64.0505 27.4712V31.5347L45.6581 31.5347V27.4712Z" fill="url(#paint6_linear_6561_3078)"/>
<path opacity="0.8" d="M73.4207 22.0006C73.3519 22.1774 73.3519 22.3733 73.4207 22.5501L73.4494 22.6243C73.4838 22.7118 73.5641 22.7688 73.6578 22.7745L76.8507 22.9494C76.9443 22.9552 77.038 22.9552 77.1317 22.9494L80.229 22.7802C80.3686 22.7726 80.4775 22.6585 80.4775 22.5178V22.0329C80.4775 21.8941 80.3686 21.7781 80.229 21.7705L77.1317 21.6013C77.038 21.5956 76.9443 21.5956 76.8507 21.6013L73.6578 21.7762C73.5641 21.7819 73.4838 21.8409 73.4494 21.9264L73.4207 22.0006ZM73.4494 24.7958C73.4838 24.7083 73.5641 24.6513 73.6578 24.6456L76.8507 24.4706C76.9443 24.4649 77.038 24.4649 77.1317 24.4706L80.229 24.6399C80.3686 24.6475 80.4775 24.7616 80.4775 24.9023V25.3872C80.4775 25.526 80.3686 25.642 80.229 25.6496L77.1317 25.8188C77.038 25.8245 76.9443 25.8245 76.8507 25.8188L73.6578 25.6439C73.5641 25.6382 73.4838 25.5792 73.4494 25.4936L73.4207 25.4195C73.3519 25.2426 73.3519 25.0468 73.4207 24.87L73.4494 24.7958ZM73.4494 33.4324C73.4838 33.3449 73.5641 33.2879 73.6578 33.2822L76.8507 33.1072C76.9443 33.1015 77.038 33.1015 77.1317 33.1072L80.229 33.2765C80.3686 33.2841 80.4775 33.3982 80.4775 33.5389V34.0237C80.4775 34.1626 80.3686 34.2785 80.229 34.2861L77.1317 34.4554C77.038 34.4611 76.9443 34.4611 76.8507 34.4554L73.6578 34.2804C73.5641 34.2747 73.4838 34.2158 73.4494 34.1302L73.4207 34.0561C73.3519 33.8792 73.3519 33.6834 73.4207 33.5065L73.4494 33.4324ZM73.4494 36.2694C73.4838 36.1819 73.5641 36.1249 73.6578 36.1192L76.8507 35.9442C76.9443 35.9385 77.038 35.9385 77.1317 35.9442L80.229 36.1135C80.3686 36.1211 80.4775 36.2352 80.4775 36.3759V36.8608C80.4775 36.9996 80.3686 37.1156 80.229 37.1232L77.1317 37.2924C77.038 37.2981 76.9443 37.2981 76.8507 37.2924L73.6578 37.1175C73.5641 37.1118 73.4838 37.0528 73.4494 36.9673L73.4207 36.8931C73.3519 36.7163 73.3519 36.5204 73.4207 36.3436L73.4494 36.2694ZM73.4494 39.1711C73.4838 39.0836 73.5641 39.0266 73.6578 39.0209L76.8507 38.8459C76.9443 38.8402 77.038 38.8402 77.1317 38.8459L80.229 39.0152C80.3686 39.0228 80.4775 39.1369 80.4775 39.2776V39.7624C80.4775 39.9013 80.3686 40.0172 80.229 40.0249L77.1317 40.1941C77.038 40.1998 76.9443 40.1998 76.8507 40.1941L73.6578 40.0191C73.5641 40.0134 73.4838 39.9545 73.4494 39.8689L73.4207 39.7948C73.3519 39.6179 73.3519 39.4221 73.4207 39.2452L73.4494 39.1711ZM80.2271 19.9603L77.1298 20.1295C77.0361 20.1352 76.9424 20.1352 76.8488 20.1295L73.6559 19.9546C73.5622 19.9489 73.4819 19.8899 73.4475 19.8044L73.4188 19.7302C73.35 19.5534 73.35 19.3575 73.4188 19.1807L73.4475 19.1065C73.4819 19.0191 73.5622 18.962 73.6559 18.9563L76.8488 18.7814C76.9424 18.7757 77.0361 18.7757 77.1298 18.7814L80.2271 18.9506C80.3666 18.9582 80.4756 19.0723 80.4756 19.213V19.6979C80.4756 19.8367 80.3666 19.9527 80.2271 19.9603Z" fill="#7F7F7F"/>
<path opacity="0.5" d="M73.4992 39.1711C73.5336 39.0836 73.6139 39.0266 73.7076 39.0209L76.9005 38.8459C76.9942 38.8402 77.0878 38.8402 77.1815 38.8459L80.2788 39.0152C80.4184 39.0228 80.5273 39.1369 80.5273 39.2776V39.7624C80.5273 39.9013 80.4184 40.0172 80.2788 40.0249L77.1815 40.1941C77.0878 40.1998 76.9942 40.1998 76.9005 40.1941L73.7076 40.0191C73.6139 40.0134 73.5336 39.9545 73.4992 39.8689L73.4705 39.7948C73.4017 39.6179 73.4017 39.4221 73.4705 39.2452L73.4992 39.1711ZM80.2769 19.9603L77.1796 20.1295C77.0859 20.1352 76.9922 20.1352 76.8986 20.1295L73.7057 19.9546C73.612 19.9489 73.5317 19.8899 73.4973 19.8044L73.4686 19.7302C73.3998 19.5534 73.3998 19.3575 73.4686 19.1807L73.4973 19.1065C73.5317 19.0191 73.612 18.962 73.7057 18.9563L76.8986 18.7814C76.9922 18.7757 77.0859 18.7757 77.1796 18.7814L80.2769 18.9506C80.4165 18.9582 80.5254 19.0723 80.5254 19.213V19.6979C80.5254 19.8367 80.4165 19.9527 80.2769 19.9603Z" fill="url(#paint7_linear_6561_3078)"/>
<path d="M93.2988 26.3131H96.1686V25.4879H93.2988V26.3131ZM93.2988 26.5927H96.1686V27.4179H93.2988V26.5927ZM93.2988 31.451H96.1686V32.2762H93.2988V31.451ZM93.2988 32.5557H96.1686V33.381H93.2988V32.5557Z" fill="url(#paint8_linear_6561_3078)"/>
<path d="M79.3057 28.2053V28.7624C79.3057 28.8955 79.4146 29.0058 79.5504 29.0058H93.188C93.3218 29.0058 93.4327 28.8974 93.4327 28.7624V28.2053C93.4327 28.0722 93.3237 27.9619 93.188 27.9619H79.5504C79.4166 27.9619 79.3057 28.0703 79.3057 28.2053ZM79.5504 29.8615H93.188C93.3218 29.8615 93.4327 29.9699 93.4327 30.1049V30.662C93.4327 30.7951 93.3237 30.9054 93.188 30.9054H79.5504C79.4166 30.9054 79.3057 30.797 79.3057 30.662V30.1049C79.3057 29.9718 79.4146 29.8615 79.5504 29.8615Z" fill="url(#paint9_linear_6561_3078)"/>
<path d="M80.7031 28.9886H92.2529V29.8519H80.7031V28.9886Z" fill="url(#paint10_linear_6561_3078)"/>
<path d="M94.1918 17.8668H94.991V41.0802H94.1918V17.8668Z" fill="url(#paint11_linear_6561_3078)"/>
<path d="M35.1541 33.2841L35.1216 34.0314L54.8581 34.6969H54.8753L82.5673 33.4837C82.8617 33.4704 83.0911 33.248 83.0816 32.9856L83.1064 32.3619L82.2748 32.3809L82.074 32.7574L54.8505 33.9496L35.1503 33.2841H35.1541ZM54.8562 25.0582L35.156 25.7238L35.1235 24.9765L54.8428 24.3109H54.862L82.5042 25.5203C82.8407 25.5355 83.1064 25.7827 83.1084 26.0831L83.1122 26.5205L82.313 26.5167L82.1142 26.2505L54.8562 25.0563V25.0582Z" fill="url(#paint12_linear_6561_3078)"/>
<path d="M75.5754 25.4746H78.4452V24.8509C78.4452 24.6113 78.2502 24.4173 78.0093 24.4173H76.0133C75.7724 24.4173 75.5773 24.6113 75.5773 24.8509V25.4746H75.5754ZM75.5754 25.8321H78.4452V26.5185H75.5754V25.8321ZM75.5754 32.377H78.4452V33.0634H75.5754V32.377ZM75.5754 34.0712V33.4209H78.4452V34.0712C78.4452 34.2956 78.2617 34.4781 78.0361 34.4781H75.9846C75.759 34.4781 75.5754 34.2956 75.5754 34.0712Z" fill="url(#paint13_linear_6561_3078)"/>
<path d="M85.6416 29.0057H72.004C71.8688 29.0057 71.7593 28.8968 71.7593 28.7623V28.2052C71.7593 28.0708 71.8688 27.9618 72.004 27.9618H85.6416C85.7767 27.9618 85.8863 28.0708 85.8863 28.2052V28.7623C85.8863 28.8968 85.7767 29.0057 85.6416 29.0057Z" fill="url(#paint14_linear_6561_3078)"/>
<path d="M85.6416 30.9033H72.004C71.8688 30.9033 71.7593 30.7944 71.7593 30.6599V30.1028C71.7593 29.9684 71.8688 29.8594 72.004 29.8594H85.6416C85.7767 29.8594 85.8863 29.9684 85.8863 30.1028V30.6599C85.8863 30.7944 85.7767 30.9033 85.6416 30.9033Z" fill="url(#paint15_linear_6561_3078)"/>
<path d="M73.157 28.9886H84.7068V29.8519H73.157V28.9886Z" fill="url(#paint16_linear_6561_3078)"/>
<path d="M6.60931 29.7549H0.854492V29.1787H6.60931V29.7549Z" fill="url(#paint17_linear_6561_3078)"/>
<path opacity="0.3" d="M72.2602 16.918H69.8646V17.8079H72.568C72.6483 17.8079 72.7114 17.7432 72.7114 17.6653V17.3686C72.7114 17.1214 72.5088 16.9199 72.2602 16.9199V16.918Z" fill="url(#paint18_linear_6561_3078)"/>
<path opacity="0.3" d="M72.568 18.2852H69.8646V19.1751H72.2602C72.5088 19.1751 72.7114 18.9735 72.7114 18.7263V18.4297C72.7114 18.3498 72.6464 18.2871 72.568 18.2871V18.2852Z" fill="url(#paint19_linear_6561_3078)"/>
<path opacity="0.3" d="M72.2602 39.7511H69.8646V40.641H72.568C72.6483 40.641 72.7114 40.5763 72.7114 40.4984V40.2018C72.7114 39.9546 72.5088 39.753 72.2602 39.753V39.7511Z" fill="url(#paint20_linear_6561_3078)"/>
<path opacity="0.3" d="M72.568 41.1202H69.8646V42.0101H72.2602C72.5088 42.0101 72.7114 41.8086 72.7114 41.5614V41.2648C72.7114 41.1849 72.6464 41.1221 72.568 41.1221V41.1202Z" fill="url(#paint21_linear_6561_3078)"/>
<path d="M48.113 28.3763H45.7174V29.2662H48.4208C48.5011 29.2662 48.5642 29.2016 48.5642 29.1236V28.827C48.5642 28.5798 48.3615 28.3782 48.113 28.3782V28.3763Z" fill="url(#paint22_linear_6561_3078)"/>
<path d="M48.4189 29.7454H45.7154V30.6353H48.111C48.3596 30.6353 48.5623 30.4337 48.5623 30.1865V29.8899C48.5623 29.81 48.4973 29.7473 48.4189 29.7473V29.7454Z" fill="url(#paint23_linear_6561_3078)"/>
<path opacity="0.3" d="M70.0635 28.7776H72.4591V27.8877H69.7557C69.6754 27.8877 69.6123 27.9523 69.6123 28.0303V28.3269C69.6123 28.576 69.815 28.7757 70.0635 28.7757V28.7776ZM69.6123 27.2659V26.9693C69.6123 26.7202 69.815 26.5205 70.0635 26.5205H72.4591V27.4104H69.7557C69.6754 27.4104 69.6123 27.3457 69.6123 27.2678V27.2659ZM70.0635 32.3581C69.8131 32.3581 69.6123 32.1565 69.6123 31.9093V31.6127C69.6123 31.5328 69.6773 31.4701 69.7557 31.4701H72.4591V32.36H70.0635V32.3581ZM69.6123 30.8464V30.5498C69.6123 30.3007 69.815 30.101 70.0635 30.101H72.4591V30.9909H69.7557C69.6754 30.9909 69.6123 30.9263 69.6123 30.8483V30.8464Z" fill="url(#paint24_linear_6561_3078)"/>
<path d="M39.1079 55.9613L38.888 55.1038H40.2894L40.5093 55.9613V57.0205L39.9644 58.0796V58.8915C39.9644 59.0284 39.8535 59.1406 39.714 59.1406H38.8134C38.6758 59.1406 38.563 59.0303 38.563 58.8915V58.0796L39.1079 57.0205V55.9613Z" fill="url(#paint25_linear_6561_3078)"/>
<path d="M50.0708 55.9614L49.8509 55.1038H50.3231V58.8688C50.3231 58.962 50.3365 59.0532 50.3576 59.1388H49.7343C49.6196 59.1388 49.5259 59.0456 49.5259 58.9315V58.0797L50.0708 57.0205V55.9614Z" fill="url(#paint26_linear_6561_3078)"/>
<path d="M35.9533 55.9613L35.7335 55.1038H37.1349L37.3548 55.9613V57.0205L36.8099 58.0796V58.8915C36.8099 59.0284 36.699 59.1406 36.5594 59.1406H35.6589C35.5212 59.1406 35.4084 59.0303 35.4084 58.8915V58.0796L35.9533 57.0205V55.9613Z" fill="url(#paint27_linear_6561_3078)"/>
<path d="M37.5517 55.9613L37.3319 55.1038H38.7333L38.9532 55.9613V57.0205L38.4083 58.0796V58.8915C38.4083 59.0284 38.2974 59.1406 38.1578 59.1406H37.2573C37.1196 59.1406 37.0068 59.0303 37.0068 58.8915V58.0796L37.5517 57.0205V55.9613Z" fill="url(#paint28_linear_6561_3078)"/>
<path d="M42.2282 55.9613L42.0084 55.1038H43.4098L43.6297 55.9613V57.0205L43.0848 58.0796V58.8915C43.0848 59.0284 42.9739 59.1406 42.8343 59.1406H41.9338C41.7962 59.1406 41.6833 59.0303 41.6833 58.8915V58.0796L42.2282 57.0205V55.9613Z" fill="url(#paint29_linear_6561_3078)"/>
<path d="M40.6623 55.9613L40.4425 55.1038H41.8439L42.0637 55.9613V57.0205L41.5189 58.0796V58.8915C41.5189 59.0284 41.408 59.1406 41.2684 59.1406H40.3679C40.2302 59.1406 40.1174 59.0303 40.1174 58.8915V58.0796L40.6623 57.0205V55.9613Z" fill="url(#paint30_linear_6561_3078)"/>
<path d="M43.8056 55.9613L43.5858 55.1038H44.9872L45.2071 55.9613V57.0205L44.6622 58.0796V58.8915C44.6622 59.0284 44.5513 59.1406 44.4117 59.1406H43.5112C43.3735 59.1406 43.2607 59.0303 43.2607 58.8915V58.0796L43.8056 57.0205V55.9613Z" fill="url(#paint31_linear_6561_3078)"/>
<path d="M48.5029 55.9614L48.283 55.1038H49.6845L49.9043 55.9614V57.0205L49.3594 58.0797V58.9315C49.3594 59.0456 49.2657 59.1388 49.151 59.1388H48.1664C48.0517 59.1388 47.958 59.0456 47.958 58.9315V58.0797L48.5029 57.0205V55.9614Z" fill="url(#paint32_linear_6561_3078)"/>
<path d="M46.9372 55.9613L46.7174 55.1038H48.1188L48.3386 55.9613V57.0205L47.7938 58.0796V58.8915C47.7938 59.0284 47.6829 59.1406 47.5433 59.1406H46.6428C46.5051 59.1406 46.3923 59.0303 46.3923 58.8915V58.0796L46.9372 57.0205V55.9613Z" fill="url(#paint33_linear_6561_3078)"/>
<path d="M45.3713 55.9613L45.1514 55.1038H46.5529L46.7727 55.9613V57.0205L46.2278 58.0796V58.8915C46.2278 59.0284 46.1169 59.1406 45.9774 59.1406H45.0769C44.9392 59.1406 44.8264 59.0303 44.8264 58.8915V58.0796L45.3713 57.0205V55.9613Z" fill="url(#paint34_linear_6561_3078)"/>
<path d="M32.3342 57.5415L32.0569 58.0796V58.8915C32.0569 59.0284 31.9461 59.1406 31.8065 59.1406H30.906C30.7683 59.1406 30.6555 59.0303 30.6555 58.8915V58.0796L30.9327 57.5415H32.3342Z" fill="url(#paint35_linear_6561_3078)"/>
<path d="M24.396 57.5415L24.1187 58.0797V58.9125C24.1187 59.038 24.0174 59.1388 23.8912 59.1388H22.9468C22.8206 59.1388 22.7192 59.038 22.7192 58.9125V58.0797L22.9965 57.5415H24.3979H24.396Z" fill="url(#paint36_linear_6561_3078)"/>
<path d="M22.7651 57.5415L22.4879 58.0797V58.9125C22.4879 59.038 22.3866 59.1388 22.2604 59.1388H21.3159C21.1897 59.1388 21.0884 59.038 21.0884 58.9125V58.0797L21.3656 57.5415H22.767H22.7651Z" fill="url(#paint37_linear_6561_3078)"/>
<path d="M20.0405 57.5415L19.8455 58.0797V58.9772C19.8455 59.0665 19.7729 59.1388 19.683 59.1388H19.0253C18.9354 59.1388 18.8628 59.0665 18.8628 58.9772V58.0797L19.0578 57.5415H20.0405Z" fill="url(#paint38_linear_6561_3078)"/>
<path d="M21.1801 57.5415L20.9718 58.0797V58.9772C20.9718 59.0665 20.8991 59.1388 20.8092 59.1388H20.0846C19.9948 59.1388 19.9221 59.0665 19.9221 58.9772V58.0797L20.1305 57.5415H21.1801Z" fill="url(#paint39_linear_6561_3078)"/>
<path d="M34.8367 56.6269V55.1038H35.546L35.7659 55.9613V57.0205L35.221 58.0796V58.8915C35.221 59.0284 35.1101 59.1406 34.9705 59.1406H34.07C33.9324 59.1406 33.8196 59.0303 33.8196 58.8915V58.0796L34.1083 57.5206C34.5232 57.4312 34.8348 57.0661 34.8348 56.6269H34.8367Z" fill="url(#paint40_linear_6561_3078)"/>
<path d="M25.9941 57.5415L25.7169 58.0797V58.9125C25.7169 59.038 25.6156 59.1388 25.4894 59.1388H24.5449C24.4187 59.1388 24.3174 59.038 24.3174 58.9125V58.0797L24.5946 57.5415H25.996H25.9941Z" fill="url(#paint41_linear_6561_3078)"/>
<path d="M30.7568 57.5415L30.4796 58.0797V58.9125C30.4796 59.038 30.3783 59.1388 30.2521 59.1388H29.3076C29.1814 59.1388 29.0801 59.038 29.0801 58.9125V58.0797L29.3573 57.5415H30.7587H30.7568Z" fill="url(#paint42_linear_6561_3078)"/>
<path d="M27.583 57.5415L27.3058 58.0797V58.9125C27.3058 59.038 27.2044 59.1388 27.0782 59.1388H26.1338C26.0076 59.1388 25.9062 59.038 25.9062 58.9125V58.0797L26.1835 57.5415H27.5849H27.583Z" fill="url(#paint43_linear_6561_3078)"/>
<path d="M33.9113 57.5415L33.6341 58.0796V58.8915C33.6341 59.0284 33.5232 59.1406 33.3836 59.1406H32.4831C32.3455 59.1406 32.2327 59.0303 32.2327 58.8915V58.0796L32.5099 57.5415H33.9113Z" fill="url(#paint44_linear_6561_3078)"/>
<path d="M29.1814 57.5415L28.9041 58.0797V58.9125C28.9041 59.038 28.8028 59.1388 28.6766 59.1388H27.7322C27.606 59.1388 27.5046 59.038 27.5046 58.9125V58.0797L27.7819 57.5415H29.1833H29.1814Z" fill="url(#paint45_linear_6561_3078)"/>
<path d="M30.8733 2.46667L30.6572 2.04645V0.987314H32.0567V2.04645L32.2747 2.46667H30.8733Z" fill="url(#paint46_linear_6561_3078)"/>
<path d="M33.3913 2.46652H32.4487L32.2327 2.04629V0.987154H33.6341V2.04629L33.8979 2.55969C33.7392 2.50075 33.571 2.46652 33.3913 2.46652Z" fill="url(#paint47_linear_6561_3078)"/>
<path d="M27.7206 2.46667L27.5027 2.04645V0.987314H28.9041V2.04645L29.1202 2.46667H27.7206Z" fill="url(#paint48_linear_6561_3078)"/>
<path d="M29.2961 2.46667L29.0801 2.04645V0.987314H30.4815V2.04645L30.6975 2.46667H29.2961Z" fill="url(#paint49_linear_6561_3078)"/>
<path d="M35.7659 4.16461L35.4944 5.22374L35.7659 6.28287V6.76965H34.8348V3.9022C34.8348 3.385 34.5595 2.93434 34.1465 2.68144L33.8196 2.04634V0.987212H35.221V2.04634L35.7659 3.10548V4.16461Z" fill="url(#paint50_linear_6561_3078)"/>
<path d="M37.3548 4.16461L37.0814 5.22374L37.3548 6.28287V6.76965H35.9533V6.28287L35.6819 5.22374L35.9533 4.16461V3.10548L35.4084 2.04634V0.987212H36.8099V2.04634L37.3548 3.10548V4.16461Z" fill="url(#paint51_linear_6561_3078)"/>
<path d="M38.9532 4.16461L38.6797 5.22374L38.9532 6.28287V6.76965H37.5517V6.28287L37.2802 5.22374L37.5517 4.16461V3.10548L37.0068 2.04634V0.987212H38.4083V2.04634L38.9532 3.10548V4.16461Z" fill="url(#paint52_linear_6561_3078)"/>
<path d="M21.3044 2.46667L21.0884 2.04645V0.987314H22.4879V2.04645L22.7058 2.46667H21.3044Z" fill="url(#paint53_linear_6561_3078)"/>
<path d="M20.0846 2.46667L19.9221 2.04645V0.987314H20.9718V2.04645L21.1343 2.46667H20.0846Z" fill="url(#paint54_linear_6561_3078)"/>
<path d="M24.5334 2.46667L24.3174 2.04645V0.987314H25.7169V2.04645L25.9348 2.46667H24.5334Z" fill="url(#paint55_linear_6561_3078)"/>
<path d="M22.9353 2.46667L22.7192 2.04645V0.987314H24.1187V2.04645L24.3367 2.46667H22.9353Z" fill="url(#paint56_linear_6561_3078)"/>
<path d="M26.1203 2.46667L25.9043 2.04645V0.987314H27.3057V2.04645L27.5218 2.46667H26.1203Z" fill="url(#paint57_linear_6561_3078)"/>
<path d="M19.0157 2.46667L18.8628 2.04645V0.987314H19.8455V2.04645L19.9985 2.46667H19.0157Z" fill="url(#paint58_linear_6561_3078)"/>
<path d="M40.5074 4.16461L40.2359 5.22374L40.5074 6.28287V6.76965H39.1079V6.28287L38.8345 5.22374L39.1079 4.16461V3.10548L38.563 2.04634V0.987212H39.9625V2.04634L40.5074 3.10548V4.16461Z" fill="url(#paint59_linear_6561_3078)"/>
<path d="M53.1126 4.16463L53.0667 4.34337L51.5563 5.67822L51.4397 5.22376L51.7112 4.16463V3.1055L51.1663 2.04637V0.987236H52.5677V2.04637L53.1126 3.1055V4.16463Z" fill="url(#paint60_linear_6561_3078)"/>
<path d="M49.9043 4.16461L49.6328 5.22374L49.9043 6.28287V6.76015C49.8527 6.76585 49.8011 6.76965 49.7495 6.76965H48.5029V6.28287L48.2314 5.22374L48.5029 4.16461V3.10548L47.958 2.04634V0.987212H49.3594V2.04634L49.9043 3.10548V4.16461Z" fill="url(#paint61_linear_6561_3078)"/>
<path d="M51.4702 4.1646L51.1988 5.22373L51.3594 5.85123L50.7495 6.39125C50.5544 6.56239 50.3212 6.68028 50.0688 6.73352V6.28287L49.7973 5.22373L50.0688 4.1646V3.10547L49.5239 2.04634V0.987208H50.9253V2.04634L51.4702 3.10547V4.1646Z" fill="url(#paint62_linear_6561_3078)"/>
<path d="M55.8984 1.83911V0.98724H56.864L55.8984 1.83911Z" fill="url(#paint63_linear_6561_3078)"/>
<path d="M54.7414 2.86206L54.3208 2.04632V0.987185H55.7222V1.99498L54.7414 2.86206Z" fill="url(#paint64_linear_6561_3078)"/>
<path d="M53.2885 4.14758V3.10557L52.7437 2.04644V0.987303H54.1451V2.04644L54.6192 2.97056L53.2885 4.14758Z" fill="url(#paint65_linear_6561_3078)"/>
<path d="M43.6295 4.16461L43.3561 5.22374L43.6295 6.28287V6.76965H42.228V6.28287L41.9565 5.22374L42.228 4.16461V3.10548L41.6851 2.04634V0.987212H43.0846V2.04634L43.6295 3.10548V4.16461Z" fill="url(#paint66_linear_6561_3078)"/>
<path d="M48.3386 4.16461L48.0652 5.22374L48.3386 6.28287V6.76965H46.9372V6.28287L46.6657 5.22374L46.9372 4.16461V3.10548L46.3923 2.04634V0.987212H47.7938V2.04634L48.3386 3.10548V4.16461Z" fill="url(#paint67_linear_6561_3078)"/>
<path d="M42.0637 4.16461L41.7903 5.22374L42.0637 6.28287V6.76965H40.6623V6.28287L40.3908 5.22374L40.6623 4.16461V3.10548L40.1174 2.04634V0.987212H41.5189V2.04634L42.0637 3.10548V4.16461Z" fill="url(#paint68_linear_6561_3078)"/>
<path d="M45.2071 4.16461L44.9337 5.22374L45.2071 6.28287V6.76965H43.8056V6.28287L43.5341 5.22374L43.8056 4.16461V3.10548L43.2607 2.04634V0.987212H44.6622V2.04634L45.2071 3.10548V4.16461Z" fill="url(#paint69_linear_6561_3078)"/>
<path d="M46.7727 4.16461L46.4993 5.22374L46.7727 6.28287V6.76965H45.3713V6.28287L45.0998 5.22374L45.3713 4.16461V3.10548L44.8264 2.04634V0.987212H46.2278V2.04634L46.7727 3.10548V4.16461Z" fill="url(#paint70_linear_6561_3078)"/>
<path opacity="0.5" d="M13.8995 41.0402L13.236 41.5004C12.8307 41.7818 12.7083 42.3237 12.9531 42.7516L14.2952 45.0828C14.6451 45.581 15.3334 45.7027 15.8343 45.3547L16.6392 44.7957C17.1401 44.4477 17.2625 43.7632 16.9126 43.265L15.1747 41.2076C14.8573 40.8311 14.3029 40.7588 13.8975 41.0402H13.8995Z" fill="url(#paint71_linear_6561_3078)"/>
<path opacity="0.5" d="M13.5 40.0192L13.9627 40.679C14.2457 41.0822 14.7905 41.2039 15.2207 40.9605L17.5647 39.6256C18.0656 39.2776 18.188 38.5931 17.8381 38.0949L17.276 37.2944C16.9261 36.7962 16.2379 36.6745 15.7369 37.0225L13.6683 38.7509C13.2897 39.0666 13.2171 39.618 13.5 40.0211V40.0192Z" fill="url(#paint72_linear_6561_3078)"/>
<path opacity="0.5" d="M12.4731 40.4147L13.1365 39.9546C13.5419 39.6732 13.6642 39.1312 13.4195 38.7034L12.0774 36.3722C11.7275 35.874 11.0392 35.7523 10.5383 36.1003L9.73336 36.6593C9.23244 37.0073 9.11008 37.6918 9.45996 38.19L11.1979 40.2474C11.5153 40.6239 12.0697 40.6962 12.475 40.4147H12.4731Z" fill="url(#paint73_linear_6561_3078)"/>
<path opacity="0.5" d="M12.8634 42.5273C12.8175 42.5919 12.7659 42.6547 12.7009 42.7079L10.6322 44.4364C10.1313 44.7844 9.44298 44.6627 9.0931 44.1645L8.531 43.3639C8.18113 42.8658 8.30349 42.1812 8.80441 41.8332L11.1484 40.4984C11.5767 40.2531 12.1235 40.3748 12.4064 40.7798L12.8691 41.4396C12.9341 41.5309 12.9762 41.6298 13.0049 41.7325C12.8404 41.9625 12.7869 42.2554 12.8615 42.5292L12.8634 42.5273Z" fill="url(#paint74_linear_6561_3078)"/>
<path opacity="0.7" d="M16.4578 45.3529C13.8901 47.1346 10.355 46.5109 8.56355 43.9553C6.7721 41.4016 7.3992 37.8857 9.96879 36.104C12.5384 34.3223 16.0716 34.946 17.863 37.5016C19.6545 40.0553 19.0274 43.5712 16.4578 45.3529ZM15.7389 37.0206L13.6702 38.749C13.6071 38.8023 13.5555 38.865 13.5077 38.9297C13.4867 38.8536 13.4599 38.7775 13.4179 38.7053L12.0757 36.374C11.7258 35.8759 11.0375 35.7542 10.5366 36.1021L9.73172 36.6612C9.2308 37.0091 9.10844 37.6937 9.45832 38.1919L11.1962 40.2493C11.2498 40.312 11.3129 40.3634 11.3779 40.4109C11.3014 40.4318 11.2249 40.4585 11.1523 40.5003L8.80827 41.8351C8.30735 42.1831 8.18499 42.8676 8.53487 43.3658L9.09697 44.1664C9.44684 44.6646 10.1351 44.7863 10.636 44.4383L12.7047 42.7098C12.7678 42.6566 12.8194 42.5938 12.8672 42.5292C12.8883 42.6052 12.915 42.6813 12.9571 42.7536L14.2992 45.0848C14.6491 45.583 15.3374 45.7047 15.8383 45.3567L16.6432 44.7977C17.1442 44.4497 17.2665 43.7652 16.9166 43.267L15.1787 41.2095C15.1252 41.1468 15.0621 41.0955 14.9971 41.0479C15.0736 41.027 15.15 41.0004 15.2227 40.9585L17.5667 39.6237C18.0676 39.2757 18.19 38.5912 17.8401 38.093L17.278 37.2925C16.9281 36.7943 16.2398 36.6726 15.7389 37.0206Z" fill="url(#paint75_radial_6561_3078)"/>
<path opacity="0.5" d="M26.6099 41.2457L25.8317 41.4701C25.3576 41.607 25.065 42.0805 25.1606 42.5635L25.6769 45.2008C25.847 45.7846 26.4588 46.1192 27.0458 45.9519L27.9903 45.68C28.5772 45.5108 28.9137 44.9023 28.7455 44.3185L27.7666 41.8143C27.5868 41.356 27.0859 41.1088 26.6118 41.2457H26.6099Z" fill="url(#paint76_linear_6561_3078)"/>
<path opacity="0.5" d="M26.564 40.1485L26.7896 40.9224C26.9272 41.394 27.4033 41.6849 27.8889 41.5898L30.5407 41.0764C31.1277 40.9072 31.4642 40.2987 31.2959 39.7149L31.0225 38.7756C30.8524 38.1919 30.2406 37.8572 29.6536 38.0245L27.1356 38.9981C26.6749 39.1768 26.4263 39.675 26.564 40.1466V40.1485Z" fill="url(#paint77_linear_6561_3078)"/>
<path opacity="0.5" d="M25.4606 40.194L26.2388 39.9697C26.7129 39.8328 27.0055 39.3593 26.9099 38.8763L26.3937 36.2389C26.2235 35.6552 25.6117 35.3205 25.0247 35.4879L24.0803 35.7598C23.4933 35.929 23.1568 36.5375 23.3251 37.1212L24.304 39.6255C24.4837 40.0838 24.9846 40.331 25.4587 40.194H25.4606Z" fill="url(#paint78_linear_6561_3078)"/>
<path opacity="0.5" d="M25.1472 42.32C25.0822 42.3656 25.0134 42.4093 24.935 42.4379L22.417 43.4114C21.8301 43.5807 21.2183 43.2441 21.0481 42.6603L20.7747 41.721C20.6046 41.1373 20.943 40.5288 21.5299 40.3595L24.1817 39.8461C24.6673 39.753 25.1434 40.042 25.2811 40.5136L25.5067 41.2875C25.5373 41.394 25.5468 41.5023 25.5411 41.6088C25.3097 41.7743 25.1663 42.0329 25.1472 42.3181V42.32Z" fill="url(#paint79_linear_6561_3078)"/>
<path opacity="0.7" d="M27.6347 46.1458C24.6273 47.0109 21.4822 45.2863 20.6123 42.2952C19.7424 39.3042 21.4765 36.1762 24.4839 35.3111C27.4913 34.4459 30.6364 36.1705 31.5063 39.1616C32.3762 42.1526 30.6421 45.2806 27.6347 46.1458ZM29.6537 38.0264L27.1357 39C27.0573 39.0304 26.9885 39.0722 26.9235 39.1179C26.9292 39.038 26.9273 38.9581 26.912 38.8764L26.3958 36.239C26.2256 35.6552 25.6138 35.3206 25.0269 35.4879L24.0824 35.7598C23.4954 35.929 23.1589 36.5375 23.3272 37.1213L24.3061 39.6255C24.3367 39.7035 24.3787 39.772 24.4246 39.8366C24.3443 39.8309 24.264 39.8328 24.1818 39.848L21.53 40.3614C20.943 40.5307 20.6066 41.1391 20.7748 41.7229L21.0482 42.6622C21.2184 43.246 21.8302 43.5807 22.4171 43.4133L24.9351 42.4398C25.0135 42.4093 25.0823 42.3675 25.1473 42.3219C25.1416 42.4017 25.1435 42.4816 25.1588 42.5634L25.675 45.2007C25.8452 45.7845 26.457 46.1191 27.0439 45.9518L27.9884 45.6799C28.5754 45.5107 28.9118 44.9022 28.7436 44.3184L27.7647 41.8142C27.7341 41.7362 27.6921 41.6678 27.6462 41.6031C27.7265 41.6088 27.8068 41.6069 27.889 41.5917L30.5408 41.0783C31.1277 40.9091 31.4642 40.3006 31.296 39.7168L31.0226 38.7775C30.8524 38.1937 30.2406 37.8591 29.6537 38.0264Z" fill="url(#paint80_radial_6561_3078)"/>
<path opacity="0.5" d="M26.3937 19.1713L25.5869 19.1123C25.0936 19.0762 24.6539 19.4204 24.5736 19.9052L24.1357 22.5559C24.0899 23.1606 24.5468 23.6892 25.1567 23.7329L26.1356 23.8052C26.7436 23.8508 27.2751 23.3964 27.3191 22.7898L27.277 20.103C27.2693 19.6105 26.8851 19.2074 26.3937 19.1713Z" fill="url(#paint81_linear_6561_3078)"/>
<path opacity="0.5" d="M26.7342 18.1292L26.675 18.9317C26.6387 19.4222 26.9847 19.8596 27.4722 19.9395L30.1374 20.3749C30.7454 20.4205 31.2769 19.9661 31.3209 19.3595L31.3935 18.3859C31.4394 17.7813 30.9825 17.2526 30.3726 17.2089L27.6711 17.2507C27.1759 17.2583 26.7706 17.6405 26.7342 18.1292Z" fill="url(#paint82_linear_6561_3078)"/>
<path opacity="0.5" d="M25.6844 17.7907L26.4912 17.8497C26.9845 17.8858 27.4242 17.5417 27.5045 17.0568L27.9423 14.4061C27.9882 13.8014 27.5313 13.2728 26.9214 13.2291L25.9425 13.1568C25.3345 13.1112 24.803 13.5656 24.759 14.1722L24.8011 16.859C24.8087 17.3515 25.193 17.7546 25.6844 17.7907Z" fill="url(#paint83_linear_6561_3078)"/>
<path opacity="0.5" d="M24.6482 19.6751C24.5717 19.6961 24.4914 19.7113 24.4092 19.7132L21.7077 19.755C21.0997 19.7094 20.6428 19.1827 20.6868 18.578L20.7594 17.6044C20.8053 16.9997 21.3349 16.5453 21.9429 16.589L24.6081 17.0245C25.0956 17.1043 25.4417 17.5417 25.4053 18.0322L25.3461 18.8347C25.3384 18.945 25.3078 19.0495 25.2658 19.1465C24.9924 19.2207 24.7648 19.4146 24.6482 19.6751Z" fill="url(#paint84_linear_6561_3078)"/>
<path opacity="0.7" d="M25.6426 24.1208C22.5204 23.8907 20.1745 21.1868 20.4059 18.0817C20.6372 14.9765 23.3559 12.6434 26.4781 12.8735C29.6002 13.1036 31.9461 15.8075 31.7148 18.9126C31.4834 22.0178 28.7647 24.3509 25.6426 24.1208ZM30.3726 17.207L27.6711 17.2488C27.587 17.2488 27.5086 17.2659 27.4321 17.2869C27.4646 17.2146 27.4914 17.1385 27.5048 17.0568L27.9426 14.4061C27.9885 13.8014 27.5315 13.2728 26.9216 13.2291L25.9427 13.1568C25.3348 13.1112 24.8032 13.5656 24.7593 14.1722L24.8013 16.859C24.8013 16.9427 24.8185 17.0206 24.8396 17.0967C24.7669 17.0644 24.6904 17.0378 24.6082 17.0244L21.943 16.589C21.3351 16.5434 20.8036 16.9978 20.7596 17.6044L20.6869 18.578C20.641 19.1826 21.098 19.7113 21.7079 19.755L24.4094 19.7132C24.4935 19.7132 24.5719 19.696 24.6484 19.6751C24.6159 19.7474 24.5891 19.8234 24.5757 19.9052L24.1379 22.5559C24.092 23.1606 24.549 23.6892 25.1589 23.7329L26.1378 23.8052C26.7457 23.8508 27.2772 23.3964 27.3212 22.7898L27.2792 20.103C27.2792 20.0193 27.2619 19.9413 27.2409 19.8653C27.3136 19.8976 27.39 19.9242 27.4723 19.9375L30.1374 20.373C30.7454 20.4186 31.2769 19.9642 31.3209 19.3576L31.3936 18.384C31.4395 17.7793 30.9825 17.2507 30.3726 17.207Z" fill="url(#paint85_radial_6561_3078)"/>
<path opacity="0.5" d="M13.1634 19.2492L12.4675 18.8366C12.043 18.5856 11.4962 18.6978 11.2056 19.0952L9.62067 21.2724C9.30903 21.7934 9.47918 22.4685 10.003 22.7784L10.8462 23.2785C11.3701 23.5884 12.0488 23.4192 12.3604 22.8982L13.5324 20.4776C13.7465 20.0345 13.5859 19.5021 13.1615 19.2511L13.1634 19.2492Z" fill="url(#paint86_linear_6561_3078)"/>
<path opacity="0.5" d="M13.9358 18.4677L13.521 19.1598C13.2686 19.582 13.3814 20.1258 13.781 20.4148L15.9701 21.9911C16.494 22.3011 17.1727 22.1319 17.4843 21.6108L17.9872 20.7723C18.2988 20.2513 18.1286 19.5762 17.6048 19.2663L15.1709 18.1007C14.7255 17.8877 14.1901 18.0474 13.9378 18.4696L13.9358 18.4677Z" fill="url(#paint87_linear_6561_3078)"/>
<path opacity="0.5" d="M13.1501 17.6975L13.846 18.1101C14.2704 18.3611 14.8172 18.249 15.1078 17.8515L16.6928 15.6743C17.0044 15.1533 16.8343 14.4783 16.3104 14.1684L15.4673 13.6683C14.9434 13.3583 14.2647 13.5275 13.9531 14.0486L12.7811 16.4692C12.5669 16.9122 12.7275 17.4446 13.152 17.6956L13.1501 17.6975Z" fill="url(#paint88_linear_6561_3078)"/>
<path opacity="0.5" d="M11.3739 18.9221C11.2955 18.9069 11.2171 18.886 11.1426 18.8498L8.70873 17.6842C8.18487 17.3743 8.0128 16.6993 8.32635 16.1782L8.82918 15.3397C9.14082 14.8187 9.81954 14.6475 10.3434 14.9594L12.5325 16.5357C12.9321 16.8248 13.0449 17.3686 12.7925 17.7907L12.3777 18.4829C12.3203 18.5779 12.2477 18.6597 12.1654 18.7262C11.8863 18.6711 11.5976 18.7434 11.3758 18.9259L11.3739 18.9221Z" fill="url(#paint89_linear_6561_3078)"/>
<path opacity="0.7" d="M10.2632 23.3412C7.57313 21.7459 6.69365 18.2851 8.29583 15.6097C9.89991 12.9343 13.3796 12.0597 16.0696 13.6531C18.7597 15.2466 19.6391 18.7092 18.037 21.3846C16.4329 24.06 12.9532 24.9347 10.2632 23.3412ZM17.6049 19.2625L15.171 18.0969C15.0965 18.0608 15.0181 18.0399 14.9397 18.0246C15.0009 17.9733 15.0601 17.9182 15.1079 17.8516L16.6929 15.6744C17.0045 15.1534 16.8344 14.4784 16.3105 14.1684L15.4674 13.6683C14.9435 13.3584 14.2648 13.5276 13.9531 14.0486L12.7811 16.4692C12.7448 16.5434 12.7238 16.6213 12.7085 16.6993C12.6569 16.6385 12.6014 16.5795 12.5345 16.532L10.3454 14.9556C9.82152 14.6457 9.1428 14.8149 8.83116 15.3359L8.32833 16.1745C8.01669 16.6955 8.18685 17.3705 8.71071 17.6805L11.1446 18.8461C11.2191 18.8822 11.2975 18.9031 11.3759 18.9183C11.3147 18.9697 11.2554 19.0248 11.2076 19.0914L9.62269 21.2686C9.31105 21.7896 9.4812 22.4646 10.0051 22.7746L10.8482 23.2747C11.3721 23.5846 12.0508 23.4154 12.3624 22.8944L13.5344 20.4738C13.5708 20.3996 13.5918 20.3216 13.6071 20.2437C13.6587 20.3045 13.7142 20.3635 13.7811 20.411L15.9702 21.9874C16.4941 22.2973 17.1728 22.1281 17.4844 21.6071L17.9872 20.7685C18.2989 20.2475 18.1287 19.5725 17.6049 19.2625Z" fill="url(#paint90_radial_6561_3078)"/>
<path d="M72.0979 32.3581H71.4268L71.9182 33.7271L72.5261 33.5541L72.0979 32.3581ZM76.0861 32.3524L76.4551 33.3259L75.849 33.5085L75.4112 32.3505H76.0861V32.3524ZM43.0102 34.752L41.0486 29.3746L42.8955 24.3147L42.2875 24.1379L40.7121 28.4543L39.1386 24.1436L38.5306 24.3205L38.5899 24.4821L38.0183 24.3509L36.8979 28.2356L35.7794 24.3547L35.16 24.4973L36.5671 29.3803L35.072 34.5695L35.6915 34.7121L36.8979 30.525L38.1062 34.7159L38.4542 34.6361L38.414 34.7482L39.022 34.9251L40.7102 30.2968L42.4003 34.9308L43.0083 34.7539L43.0102 34.752ZM40.3756 29.3746L38.6167 34.1949L37.2286 29.3803L38.6186 24.56L40.3756 29.3746ZM73.8606 32.3524L73.4228 33.5066L72.8167 33.324L73.1838 32.3524H73.8587H73.8606ZM70.2663 28.7776V29.1236L70.142 28.7776H70.2663ZM70.2663 29.696V30.0991H70.121L70.2663 29.696ZM71.4058 26.5186L71.8283 25.3378L72.4363 25.5108L72.0749 26.5186H71.4039H71.4058ZM73.201 26.5186L72.9066 25.7428L73.5127 25.5602L73.8759 26.5186H73.201ZM69.5493 32.3581H69.9833L69.4939 33.7233L68.8859 33.5503L69.3294 32.3105C69.3964 32.3391 69.4709 32.3581 69.5493 32.3581ZM69.3466 26.5566L68.9738 25.5146L69.5818 25.3416L70.0043 26.5186H69.5493C69.4767 26.5186 69.4097 26.5319 69.3466 26.5566ZM48.7995 34.1588L47.0386 30.1352L45.2739 34.1588L44.599 34.1207L46.6964 29.3632L44.7271 24.9765L45.3389 24.7882L47.0405 28.5912L48.8224 24.6931L49.4342 24.8243L47.3827 29.3613L49.6025 34.2501L48.7995 34.155V34.1588ZM75.3978 26.5186L75.763 25.5564L76.3691 25.739L76.0727 26.5186H75.3978ZM55.8525 34.4801L53.7742 30.1067L51.7553 34.4421L51.0364 34.347L53.4263 29.3746L51.1836 24.657L51.8585 24.5258L53.7723 28.6425L55.7014 24.4878H56.4413L54.1184 29.3746L56.6096 34.5923L55.8486 34.4801H55.8525ZM67.6546 34.0029L66.1194 30.236L64.586 33.9991L63.9857 33.8032L65.781 29.4012L64.0927 25.2617L64.6931 25.0658L66.1213 28.5665L67.5514 25.062L68.1517 25.2579L66.4616 29.4012L68.2588 33.807L67.6584 34.0029H67.6546ZM62.3338 34.2919L60.181 30.0725L57.9039 34.5144L57.3227 34.2767L59.8292 29.386L57.4718 24.7882L58.0531 24.5505L60.181 28.7015L62.2076 24.676L62.8921 24.7825L60.5328 29.386L63.0412 34.2805L62.3338 34.29V34.2919Z" fill="url(#paint91_linear_6561_3078)"/>
<path d="M79.4546 26.5186V25.5736L48.6845 23.5504H48.6577L34.9475 24.2368V34.7711L48.6845 35.4575H48.7113L79.4527 33.4343V32.3543H78.6153V32.7403L48.6749 34.7102L35.7811 34.0656V24.9442L48.6749 24.2996L78.6153 26.2695V26.5205H79.4527L79.4546 26.5186ZM79.4546 30.9187H78.6172V27.9523H79.4546V30.9187Z" fill="url(#paint92_linear_6561_3078)"/>
<path d="M100 36.7239V22.2897C100 19.563 97.7784 17.3534 95.0367 17.3534H78.8028L75.065 17.6938L74.2276 17.9258C74.1225 17.9543 74.0211 17.9942 73.9236 18.0437C73.4916 18.2642 73.2755 18.3764 73.2755 18.8499V19.0762L73.3654 19.0705C73.3979 18.9735 73.526 18.886 73.6674 18.886L76.9521 18.654L78.864 18.6845H80.6019C81.2921 18.6845 81.946 19.0362 82.292 19.6314C82.3589 19.7474 82.4201 19.8672 82.4717 19.9908C82.9115 21.0252 83.1409 23.0921 83.1409 24.2235V26.5186H85.6398V24.2235C85.6398 23.0921 85.4103 21.0252 84.9706 19.9908C84.8559 19.7189 84.7029 19.4679 84.5213 19.2397C84.3435 19.0153 84.506 18.6864 84.7947 18.6864H95.0367C97.0385 18.6864 98.0881 20.3007 98.0881 22.2916V36.7258C98.0881 38.7167 97.0385 40.3311 95.0367 40.3311H84.9075C84.6265 40.3311 84.4639 40.0154 84.6284 39.7872C84.7641 39.5971 84.8807 39.3936 84.9725 39.1769C85.4122 38.1424 85.6417 35.8854 85.6417 34.754V32.3543H83.1428V34.754C83.1428 35.8854 82.9134 38.1424 82.4737 39.1769L82.4679 39.1902C82.1716 39.8823 81.489 40.3311 80.7319 40.3311H78.8716L76.975 40.3159L73.6847 40.1105C73.5986 40.1029 73.4533 40.0896 73.3673 39.9203L73.2698 39.9108C73.2698 40.3653 73.4265 40.6087 73.8529 40.8578C73.981 40.9319 74.1225 40.9871 74.2659 41.027L75.109 41.2571L78.7971 41.6621H95.0387C97.7803 41.6621 100.002 39.4526 100.002 36.7258L100 36.7239Z" fill="url(#paint93_linear_6561_3078)"/>
<path d="M83.1218 25.4746H85.9916V24.4173H83.1218V25.4746ZM83.1218 25.8321H85.9916V26.5185H83.1218V25.8321ZM83.1218 32.3523H85.9916V33.0634H83.1218V32.3523ZM83.1218 34.4781V33.4209H85.9916V34.4781H83.1218Z" fill="url(#paint94_linear_6561_3078)"/>
<path opacity="0.3" d="M72.4591 28.7776L72.4667 26.5167H89.2341C89.7541 26.5167 90.1747 26.935 90.1747 27.4522V27.9504H77.5887V30.9167H90.1747V31.4149C90.1747 31.9321 89.7541 32.3505 89.2341 32.3505H72.4667L72.4591 30.0972H70.7078V28.7757H72.4591V28.7776Z" fill="url(#paint95_linear_6561_3078)"/>
<path d="M95.7997 26.469C95.7997 26.3644 95.7155 26.2789 95.6104 26.277L93.557 26.2598L85.9649 25.4669H83.5865C83.4813 25.4669 83.3953 25.5525 83.3953 25.6571C83.3953 25.7617 83.4813 25.8472 83.5865 25.8472H85.9553L93.536 26.6401L95.6085 26.6592C95.7136 26.6592 95.7997 26.5755 95.8016 26.4709L95.7997 26.469ZM83.5845 33.0235H85.9534L93.5341 32.2305L95.6066 32.2115C95.7117 32.2115 95.7978 32.2952 95.7997 32.3998C95.7997 32.5044 95.7155 32.5899 95.6104 32.5918L93.557 32.6089L85.9649 33.4019H83.5865C83.4813 33.4019 83.3953 33.3163 83.3953 33.2117C83.3953 33.1071 83.4813 33.0216 83.5865 33.0216L83.5845 33.0235Z" fill="#231F20"/>
<path d="M94.2587 23.2613C94.2587 23.0786 94.4072 22.9304 94.5904 22.9304C94.7736 22.9304 94.9221 23.0786 94.9221 23.2613V35.1418C94.9221 35.3245 94.7736 35.4727 94.5904 35.4727C94.4072 35.4727 94.2587 35.3245 94.2587 35.1418V23.2613Z" fill="url(#paint96_linear_6561_3078)"/>
<path d="M75.7571 17.8744H77.3498V17.4846H75.7571C75.7151 17.4846 75.6807 17.5188 75.6807 17.5606V17.7983C75.6807 17.8401 75.7151 17.8744 75.7571 17.8744ZM75.6807 18.576V18.3383C75.6807 18.2965 75.7151 18.2623 75.7571 18.2623H77.3498V18.6521H75.7571C75.7151 18.6521 75.6807 18.6179 75.6807 18.576ZM75.6807 40.6029V40.4242C75.6807 40.3652 75.7285 40.3196 75.7858 40.3196H77.3478V40.7094H75.7858C75.7266 40.7094 75.6807 40.6619 75.6807 40.6048V40.6029ZM75.7877 41.4871C75.7285 41.4871 75.6826 41.4396 75.6826 41.3825V41.2038C75.6826 41.1448 75.7304 41.0992 75.7877 41.0992H77.3498V41.489H75.7877V41.4871Z" fill="url(#paint97_linear_6561_3078)"/>
<path d="M4.12207 31.974C4.12207 32.071 4.20811 32.1489 4.31326 32.1489L94.2987 31.3883C94.3962 31.3883 94.4746 31.3104 94.4746 31.2134C94.4746 31.1164 94.3962 31.0385 94.2987 31.0385L4.31326 31.7991C4.20811 31.7991 4.12207 31.877 4.12207 31.974ZM94.4899 27.8078L4.31326 27.1271C4.20811 27.1271 4.12207 27.0491 4.12207 26.9521C4.12207 26.8552 4.20811 26.7772 4.31326 26.7772L94.4899 27.4579C94.5874 27.4579 94.6658 27.5359 94.6658 27.6329C94.6658 27.7299 94.5874 27.8078 94.4899 27.8078Z" fill="url(#paint98_linear_6561_3078)"/>
<path opacity="0.15" d="M64.609 40.5668V35.6191C64.609 35.1285 64.1558 34.733 63.5976 34.733H41.0448L38.5593 36.9444V44.6131C38.5593 45.0847 38.9952 45.4669 39.5325 45.4669H59.6361L64.6071 40.5668H64.609ZM63.5995 24.8985H41.0467L38.5612 22.6129V14.6875C38.5612 14.2007 38.9972 13.8052 39.5344 13.8052H59.638L64.609 18.8688V23.982C64.609 24.4877 64.1558 24.8985 63.5976 24.8985H63.5995Z" fill="white"/>
<path d="M5.40296 32.4189V32.1013H3.97286V32.4189C3.97286 32.6337 4.14684 32.8068 4.36289 32.8068H5.01293C5.22898 32.8068 5.40296 32.6337 5.40296 32.4189ZM3.97286 31.1563H5.40296V31.8617H3.97286V31.1563ZM3.97286 27.0338H5.40296V27.7393H3.97286V27.0338ZM3.97286 26.471C3.97286 26.2599 4.14493 26.0907 4.35524 26.0907H5.01867C5.23089 26.0907 5.40105 26.2618 5.40105 26.471V26.7961H3.97095V26.471H3.97286Z" fill="url(#paint99_linear_6561_3078)"/>
<path d="M11.586 30.8825H11.4063C11.4063 31.1715 11.1711 31.4054 10.8805 31.4054H2.74158C2.26934 31.4054 1.88887 31.0251 1.88887 30.5573V30.4489H8.15991V28.4676H1.88696V28.3592C1.88696 27.8895 2.26934 27.5111 2.73967 27.5111H10.8805C11.1711 27.5111 11.4063 27.745 11.4063 28.034H11.586V30.8863V30.8825Z" fill="url(#paint100_linear_6561_3078)"/>
<path d="M7.30353 30.2778V29.9051C7.30353 29.8158 7.25 29.7435 7.18117 29.7435H0.386278C0.319361 29.7435 0.263916 29.8158 0.263916 29.9051V30.2778C0.263916 30.3672 0.317449 30.4395 0.386278 30.4395H7.18117C7.24809 30.4395 7.30353 30.3672 7.30353 30.2778ZM7.18117 29.1731H0.386278C0.319361 29.1731 0.263916 29.1008 0.263916 29.0114V28.6387C0.263916 28.5494 0.317449 28.4771 0.386278 28.4771H7.18117C7.24809 28.4771 7.30353 28.5494 7.30353 28.6387V29.0114C7.30353 29.1008 7.25 29.1731 7.18117 29.1731Z" fill="url(#paint101_linear_6561_3078)"/>
<path d="M0.717041 29.5229C0.717041 29.6199 0.795429 29.6979 0.892936 29.6979H92.2167C92.3219 29.6979 92.4079 29.6199 92.4079 29.5229C92.4079 29.426 92.3219 29.348 92.2167 29.348H0.892936C0.795429 29.348 0.717041 29.426 0.717041 29.5229Z" fill="url(#paint102_linear_6561_3078)"/>
<path opacity="0.4" d="M75.4187 57.3228V54.5694C75.4187 54.3508 75.2409 54.172 75.0191 54.172H69.1476C68.9278 54.172 68.748 54.3489 68.748 54.5694V57.3228C68.748 57.5415 68.9259 57.7202 69.1476 57.7202H75.0191C75.239 57.7202 75.4187 57.5434 75.4187 57.3228ZM75.021 53.7252H69.1495C68.9297 53.7252 68.75 53.5483 68.75 53.3278V50.5744C68.75 50.3557 68.9278 50.177 69.1495 50.177H75.021C75.2409 50.177 75.4206 50.3538 75.4206 50.5744V53.3278C75.4206 53.5464 75.2428 53.7252 75.021 53.7252Z" fill="url(#paint103_linear_6561_3078)"/>
<path opacity="0.4" d="M39.7751 37.745V40.4983C39.7751 40.717 39.9529 40.8958 40.1747 40.8958H46.0461C46.266 40.8958 46.4457 40.7189 46.4457 40.4983V37.745C46.4457 37.5263 46.2679 37.3476 46.0461 37.3476H40.1747C39.9548 37.3476 39.7751 37.5244 39.7751 37.745ZM40.1728 41.3578H46.0442C46.2641 41.3578 46.4438 41.5347 46.4438 41.7552V44.5086C46.4438 44.7273 46.266 44.906 46.0442 44.906H40.1728C39.9529 44.906 39.7732 44.7292 39.7732 44.5086V41.7552C39.7732 41.5366 39.951 41.3578 40.1728 41.3578ZM40.1728 19.0609H46.0442C46.2641 19.0609 46.4438 19.2377 46.4438 19.4583V22.2117C46.4438 22.4304 46.266 22.6091 46.0442 22.6091H40.1728C39.9529 22.6091 39.7732 22.4323 39.7732 22.2117V19.4583C39.7732 19.2397 39.951 19.0609 40.1728 19.0609ZM46.0442 18.6236H40.1728C39.9395 18.6236 39.7502 18.4353 39.7502 18.2033V15.45C39.7502 15.218 39.9395 15.0298 40.1728 15.0298H46.0442C46.2775 15.0298 46.4667 15.218 46.4667 15.45V18.2033C46.4667 18.4353 46.2775 18.6236 46.0442 18.6236Z" fill="url(#paint104_linear_6561_3078)"/>
<path d="M45.5416 30.9072L45.5225 31.2875L67.3946 33.4286H69.4939L94.7443 31.4187L94.7271 31.0384L69.4862 33.0483H67.4061L45.5435 30.9072H45.5416ZM69.4919 25.8987H67.4137L45.5416 28.0398L45.5225 27.6595L67.4042 25.5184H69.5015L94.7424 27.4997L94.7271 27.88L69.4939 25.8987H69.4919Z" fill="#231F20"/>
<path opacity="0.25" d="M5.6553 49.6788H5.46411V56.2047C5.46411 56.6155 5.79869 56.9482 6.21166 56.9482H33.4123C33.8252 56.9482 34.1598 56.6155 34.1598 56.2047V55.0258C34.1598 54.7216 34.4103 54.4725 34.7162 54.4725H50.4454C50.7513 54.4725 51.0017 54.7216 51.0017 55.0258V58.7984C51.0017 59.2091 51.3363 59.5419 51.7493 59.5419H59.5269V59.3517H51.7493C51.4434 59.3517 51.1929 59.1026 51.1929 58.7984V55.0277C51.1929 54.617 50.8583 54.2842 50.4454 54.2842H34.7162C34.3032 54.2842 33.9686 54.617 33.9686 55.0277V56.2067C33.9686 56.5109 33.7182 56.76 33.4123 56.76H6.21166C5.90576 56.76 5.6553 56.5109 5.6553 56.2067V49.6807V49.6788ZM87.1022 12.265H68.2318V12.0749H87.1022C87.4731 12.0749 87.7752 11.7745 87.7752 11.4056V1.74788C87.7752 1.37899 87.4731 1.07856 87.1022 1.07856H58.4792C58.3205 1.07856 58.1656 1.1356 58.0433 1.23829L50.4282 7.67294C50.2714 7.80414 50.0745 7.8764 49.8699 7.8764H34.59C34.1139 7.8764 33.7258 7.49039 33.7258 7.01692V4.15517C33.7258 3.78629 33.4237 3.48585 33.0528 3.48585H6.45065C6.07974 3.48585 5.77766 3.78629 5.77766 4.15517V10.103H5.58647V4.15517C5.58647 3.68171 5.97459 3.2957 6.45065 3.2957H33.0528C33.5289 3.2957 33.917 3.68171 33.917 4.15517V7.01692C33.917 7.38581 34.2191 7.68625 34.59 7.68625H49.8699C50.0286 7.68625 50.1834 7.62921 50.3058 7.52652L57.9209 1.09187C58.0777 0.96067 58.2746 0.888412 58.4792 0.888412H87.1022C87.5783 0.888412 87.9664 1.27441 87.9664 1.74788V11.4056C87.9664 11.879 87.5783 12.265 87.1022 12.265ZM33.1159 45.9747C33.1159 46.625 33.3415 47.262 33.7488 47.7678L34.4791 48.6767L34.33 48.7946L33.5996 47.8857C33.1656 47.3457 32.9247 46.665 32.9247 45.9728V34.1075H33.1159V45.9728V45.9747ZM53.2788 5.74102H74.5831C74.8374 5.74102 75.0687 5.5813 75.1586 5.34551L75.3383 5.41207C75.2198 5.72201 74.9177 5.93117 74.585 5.93117H53.2998C53.1048 5.93117 52.9461 6.08899 52.9461 6.28295V11.1375C52.9461 11.7136 52.4777 12.1795 51.8984 12.1795L34.0661 12.1776C33.4964 12.1776 33.0318 12.6396 33.0318 13.2063V25.4804H32.8406V13.2063C32.8406 12.5351 33.3912 11.9874 34.0661 11.9874H51.9156C52.3802 11.9798 52.7549 11.6033 52.7549 11.1375V6.26204C52.7549 5.97301 52.9901 5.73912 53.2807 5.73912L53.2788 5.74102ZM65.8629 13.4231C65.8629 12.7842 65.3391 12.2631 64.6967 12.2631H59.4868C59.0986 12.2631 58.7296 12.0977 58.4715 11.8106C58.2497 11.5634 58.1293 11.2439 58.1293 10.9131V10.4396H58.3205V10.9131C58.3205 11.1983 58.4256 11.4721 58.6149 11.6832C58.8367 11.9304 59.1541 12.073 59.4868 12.073H64.6967C65.4461 12.073 66.0541 12.6796 66.0541 13.4231V25.393H65.8629V13.4231ZM39.6909 48.3915V53.3107C39.6909 53.5997 39.4558 53.8336 39.1652 53.8336H19.3904C19.1361 53.8336 18.9048 53.9933 18.8149 54.2291L18.6352 54.1625C18.7537 53.8526 19.0558 53.6434 19.3885 53.6434H39.1441C39.3391 53.6434 39.4978 53.4856 39.4978 53.2917V48.3934C39.4978 47.8173 39.9663 47.3514 40.5456 47.3514H64.9414C65.4136 47.3514 65.7979 46.9711 65.7979 46.4995V34.7977H65.9891V46.4995C65.9891 47.0757 65.5207 47.5415 64.9414 47.5415H40.5456C40.0733 47.5415 39.689 47.9218 39.689 48.3934L39.6909 48.3915Z" fill="white"/>
<path opacity="0.4" d="M53.2656 12.7061H57.7567V10.3939H53.2656V12.7061ZM58.8407 10.3825V5.92158H74.5795V10.3825H58.8407ZM34.7527 46.8417H39.2705V49.1786H34.7527V46.8417ZM18.6985 49.3498H34.4086V53.9191H18.6985V49.3498Z" fill="url(#paint105_linear_6561_3078)"/>
<path d="M93.9527 17.8744H95.5453V17.4846H93.9527C93.9106 17.4846 93.8762 17.5189 93.8762 17.5607V17.7984C93.8762 17.8402 93.9106 17.8744 93.9527 17.8744ZM93.8762 18.5761V18.3384C93.8762 18.2966 93.9106 18.2623 93.9527 18.2623H95.5453V18.6522H93.9527C93.9106 18.6522 93.8762 18.6179 93.8762 18.5761ZM93.8762 40.603V40.4242C93.8762 40.3653 93.924 40.3197 93.9814 40.3197H95.5434V40.7095H93.9814C93.9221 40.7095 93.8762 40.6619 93.8762 40.6049V40.603ZM93.8762 41.3807V41.202C93.8762 41.143 93.924 41.0974 93.9814 41.0974H95.5434V41.4872H93.9814C93.9221 41.4872 93.8762 41.4396 93.8762 41.3826V41.3807Z" fill="url(#paint106_linear_6561_3078)"/>
<path d="M94.5721 18.0627C94.5721 17.9658 94.53 17.8878 94.4765 17.8878H69.9832V18.2396H94.4765C94.5281 18.2396 94.5721 18.1616 94.5721 18.0646V18.0627ZM94.5721 40.8959C94.5721 40.9928 94.53 41.0708 94.4765 41.0708H69.9832V40.719H94.4765C94.5281 40.719 94.5721 40.797 94.5721 40.894V40.8959Z" fill="url(#paint107_linear_6561_3078)"/>
</g>
<defs>
<linearGradient id="paint0_linear_6561_3078" x1="39.7962" y1="25.7959" x2="39.7962" y2="33.6453" gradientUnits="userSpaceOnUse">
<stop/>
<stop offset="0.35" stop-color="#242424"/>
<stop offset="0.41" stop-color="#202020"/>
<stop offset="0.73" stop-color="#121212"/>
<stop offset="1" stop-color="#0D0D0D"/>
</linearGradient>
<linearGradient id="paint1_linear_6561_3078" x1="68.9431" y1="29.5134" x2="81.4871" y2="29.5134" gradientUnits="userSpaceOnUse">
<stop stop-color="#0D0D0D"/>
<stop offset="0.15" stop-color="#121212"/>
<stop offset="0.33" stop-color="#202020"/>
<stop offset="0.53" stop-color="#383838"/>
<stop offset="0.73" stop-color="#595959"/>
<stop offset="0.88" stop-color="#787878"/>
<stop offset="1" stop-color="#262626"/>
</linearGradient>
<linearGradient id="paint2_linear_6561_3078" x1="73.2698" y1="29.5077" x2="99.3309" y2="29.5077" gradientUnits="userSpaceOnUse">
<stop stop-color="#262626"/>
<stop offset="0.54" stop-color="#787878"/>
<stop offset="0.64" stop-color="#656565"/>
<stop offset="0.84" stop-color="#363636"/>
<stop offset="1" stop-color="#0D0D0D"/>
</linearGradient>
<linearGradient id="paint3_linear_6561_3078" x1="87.9398" y1="18.694" x2="87.9398" y2="40.3063" gradientUnits="userSpaceOnUse">
<stop offset="0.01" stop-color="#0D0D0D"/>
<stop offset="0.23" stop-color="#222222"/>
<stop offset="0.51" stop-color="#3B3B3B"/>
<stop offset="1" stop-color="#0D0D0D"/>
</linearGradient>
<linearGradient id="paint4_linear_6561_3078" x1="87.2745" y1="18.694" x2="87.2745" y2="40.3063" gradientUnits="userSpaceOnUse">
<stop offset="0.01" stop-color="#0D0D0D"/>
<stop offset="0.34" stop-color="#484848"/>
<stop offset="0.51" stop-color="#616161"/>
<stop offset="1" stop-color="#0D0D0D"/>
</linearGradient>
<linearGradient id="paint5_linear_6561_3078" x1="36.6531" y1="29.5039" x2="45.4841" y2="29.5039" gradientUnits="userSpaceOnUse">
<stop stop-color="#999999"/>
<stop offset="0.25" stop-color="#969696"/>
<stop offset="0.41" stop-color="#8D8D8D"/>
<stop offset="0.56" stop-color="#7E7E7E"/>
<stop offset="0.68" stop-color="#686868"/>
<stop offset="0.8" stop-color="#4C4C4C"/>
<stop offset="0.92" stop-color="#2B2B2B"/>
<stop offset="1" stop-color="#0D0D0D"/>
</linearGradient>
<linearGradient id="paint6_linear_6561_3078" x1="45.6581" y1="29.5039" x2="64.0505" y2="29.5039" gradientUnits="userSpaceOnUse">
<stop stop-color="#0D0D0D"/>
<stop offset="0.11" stop-color="#121212"/>
<stop offset="0.24" stop-color="#202020"/>
<stop offset="0.39" stop-color="#383838"/>
<stop offset="0.54" stop-color="#595959"/>
<stop offset="0.65" stop-color="#787878"/>
<stop offset="1" stop-color="#262626"/>
</linearGradient>
<linearGradient id="paint7_linear_6561_3078" x1="80.5254" y1="29.4887" x2="73.4189" y2="29.4887" gradientUnits="userSpaceOnUse">
<stop stop-color="#0F0F0F"/>
<stop offset="0.83" stop-color="#1F1F1F"/>
<stop offset="1" stop-color="#0D0D0D"/>
</linearGradient>
<linearGradient id="paint8_linear_6561_3078" x1="93.2988" y1="29.4354" x2="96.1667" y2="29.4354" gradientUnits="userSpaceOnUse">
<stop stop-color="#262626"/>
<stop offset="0.35" stop-color="#787878"/>
<stop offset="0.46" stop-color="#595959"/>
<stop offset="0.61" stop-color="#383838"/>
<stop offset="0.76" stop-color="#202020"/>
<stop offset="0.89" stop-color="#121212"/>
<stop offset="1" stop-color="#0D0D0D"/>
</linearGradient>
<linearGradient id="paint9_linear_6561_3078" x1="79.3057" y1="29.4336" x2="93.4327" y2="29.4336" gradientUnits="userSpaceOnUse">
<stop/>
<stop offset="0.02" stop-color="#060606"/>
<stop offset="0.18" stop-color="#373737"/>
<stop offset="0.32" stop-color="#5A5A5A"/>
<stop offset="0.44" stop-color="#707070"/>
<stop offset="0.51" stop-color="#787878"/>
<stop offset="0.59" stop-color="#6E6E6E"/>
<stop offset="0.72" stop-color="#555555"/>
<stop offset="0.89" stop-color="#2C2C2C"/>
<stop offset="1" stop-color="#0D0D0D"/>
</linearGradient>
<linearGradient id="paint10_linear_6561_3078" x1="92.2529" y1="29.4203" x2="80.7031" y2="29.4203" gradientUnits="userSpaceOnUse">
<stop/>
<stop offset="0.37" stop-color="#202020"/>
<stop offset="0.54" stop-color="#303030"/>
<stop offset="0.68" stop-color="#1E1E1E"/>
<stop offset="0.85" stop-color="#111111"/>
<stop offset="1" stop-color="#0D0D0D"/>
</linearGradient>
<linearGradient id="paint11_linear_6561_3078" x1="94.991" y1="29.4735" x2="94.1918" y2="29.4735" gradientUnits="userSpaceOnUse">
<stop/>
<stop offset="0.35" stop-color="#262626"/>
<stop offset="0.44" stop-color="#202020"/>
<stop offset="0.74" stop-color="#121212"/>
<stop offset="1" stop-color="#0D0D0D"/>
</linearGradient>
<linearGradient id="paint12_linear_6561_3078" x1="35.1235" y1="29.5039" x2="83.1103" y2="29.5039" gradientUnits="userSpaceOnUse">
<stop stop-color="#141414"/>
<stop offset="0.51" stop-color="#1F1F1F"/>
<stop offset="0.82" stop-color="#0C0C0C"/>
<stop offset="1"/>
</linearGradient>
<linearGradient id="paint13_linear_6561_3078" x1="75.5754" y1="29.4487" x2="78.4452" y2="29.4487" gradientUnits="userSpaceOnUse">
<stop stop-color="#262626"/>
<stop offset="0.35" stop-color="#787878"/>
<stop offset="0.46" stop-color="#595959"/>
<stop offset="0.61" stop-color="#383838"/>
<stop offset="0.76" stop-color="#202020"/>
<stop offset="0.89" stop-color="#121212"/>
<stop offset="1" stop-color="#0D0D0D"/>
</linearGradient>
<linearGradient id="paint14_linear_6561_3078" x1="85.8863" y1="28.4847" x2="71.7593" y2="28.4847" gradientUnits="userSpaceOnUse">
<stop/>
<stop offset="0.02" stop-color="#060606"/>
<stop offset="0.18" stop-color="#373737"/>
<stop offset="0.32" stop-color="#5A5A5A"/>
<stop offset="0.44" stop-color="#707070"/>
<stop offset="0.51" stop-color="#787878"/>
<stop offset="0.59" stop-color="#6E6E6E"/>
<stop offset="0.72" stop-color="#555555"/>
<stop offset="0.89" stop-color="#2C2C2C"/>
<stop offset="1" stop-color="#0D0D0D"/>
</linearGradient>
<linearGradient id="paint15_linear_6561_3078" x1="85.8863" y1="30.3823" x2="71.7593" y2="30.3823" gradientUnits="userSpaceOnUse">
<stop/>
<stop offset="0.02" stop-color="#060606"/>
<stop offset="0.18" stop-color="#373737"/>
<stop offset="0.32" stop-color="#5A5A5A"/>
<stop offset="0.44" stop-color="#707070"/>
<stop offset="0.51" stop-color="#787878"/>
<stop offset="0.59" stop-color="#6E6E6E"/>
<stop offset="0.72" stop-color="#555555"/>
<stop offset="0.89" stop-color="#2C2C2C"/>
<stop offset="1" stop-color="#0D0D0D"/>
</linearGradient>
<linearGradient id="paint16_linear_6561_3078" x1="84.7049" y1="12.4019" x2="73.1551" y2="12.4019" gradientUnits="userSpaceOnUse">
<stop/>
<stop offset="0.37" stop-color="#202020"/>
<stop offset="0.54" stop-color="#303030"/>
<stop offset="0.68" stop-color="#1E1E1E"/>
<stop offset="0.85" stop-color="#111111"/>
<stop offset="1" stop-color="#0D0D0D"/>
</linearGradient>
<linearGradient id="paint17_linear_6561_3078" x1="0.854492" y1="29.4659" x2="6.6074" y2="29.4659" gradientUnits="userSpaceOnUse">
<stop/>
<stop offset="0.37" stop-color="#202020"/>
<stop offset="0.54" stop-color="#303030"/>
<stop offset="0.68" stop-color="#1E1E1E"/>
<stop offset="0.85" stop-color="#111111"/>
<stop offset="1" stop-color="#0D0D0D"/>
</linearGradient>
<linearGradient id="paint18_linear_6561_3078" x1="72.7114" y1="17.3629" x2="69.8646" y2="17.3629" gradientUnits="userSpaceOnUse">
<stop stop-color="#262626"/>
<stop offset="0.35" stop-color="#787878"/>
<stop offset="0.46" stop-color="#595959"/>
<stop offset="0.61" stop-color="#383838"/>
<stop offset="0.76" stop-color="#202020"/>
<stop offset="0.89" stop-color="#121212"/>
<stop offset="1" stop-color="#0D0D0D"/>
</linearGradient>
<linearGradient id="paint19_linear_6561_3078" x1="72.7114" y1="18.732" x2="69.8646" y2="18.732" gradientUnits="userSpaceOnUse">
<stop stop-color="#262626"/>
<stop offset="0.35" stop-color="#787878"/>
<stop offset="0.46" stop-color="#595959"/>
<stop offset="0.61" stop-color="#383838"/>
<stop offset="0.76" stop-color="#202020"/>
<stop offset="0.89" stop-color="#121212"/>
<stop offset="1" stop-color="#0D0D0D"/>
</linearGradient>
<linearGradient id="paint20_linear_6561_3078" x1="72.7114" y1="40.196" x2="69.8646" y2="40.196" gradientUnits="userSpaceOnUse">
<stop stop-color="#262626"/>
<stop offset="0.35" stop-color="#787878"/>
<stop offset="0.46" stop-color="#595959"/>
<stop offset="0.61" stop-color="#383838"/>
<stop offset="0.76" stop-color="#202020"/>
<stop offset="0.89" stop-color="#121212"/>
<stop offset="1" stop-color="#0D0D0D"/>
</linearGradient>
<linearGradient id="paint21_linear_6561_3078" x1="72.7114" y1="41.5652" x2="69.8646" y2="41.5652" gradientUnits="userSpaceOnUse">
<stop stop-color="#262626"/>
<stop offset="0.35" stop-color="#787878"/>
<stop offset="0.46" stop-color="#595959"/>
<stop offset="0.61" stop-color="#383838"/>
<stop offset="0.76" stop-color="#202020"/>
<stop offset="0.89" stop-color="#121212"/>
<stop offset="1" stop-color="#0D0D0D"/>
</linearGradient>
<linearGradient id="paint22_linear_6561_3078" x1="48.5642" y1="28.8232" x2="45.7174" y2="28.8232" gradientUnits="userSpaceOnUse">
<stop stop-color="#262626"/>
<stop offset="0.35" stop-color="#787878"/>
<stop offset="0.46" stop-color="#595959"/>
<stop offset="0.61" stop-color="#383838"/>
<stop offset="0.76" stop-color="#202020"/>
<stop offset="0.89" stop-color="#121212"/>
<stop offset="1" stop-color="#0D0D0D"/>
</linearGradient>
<linearGradient id="paint23_linear_6561_3078" x1="48.5642" y1="30.1903" x2="45.7173" y2="30.1903" gradientUnits="userSpaceOnUse">
<stop stop-color="#262626"/>
<stop offset="0.35" stop-color="#787878"/>
<stop offset="0.46" stop-color="#595959"/>
<stop offset="0.61" stop-color="#383838"/>
<stop offset="0.76" stop-color="#202020"/>
<stop offset="0.89" stop-color="#121212"/>
<stop offset="1" stop-color="#0D0D0D"/>
</linearGradient>
<linearGradient id="paint24_linear_6561_3078" x1="69.6123" y1="29.4393" x2="72.4591" y2="29.4393" gradientUnits="userSpaceOnUse">
<stop stop-color="#262626"/>
<stop offset="0.35" stop-color="#787878"/>
<stop offset="0.46" stop-color="#595959"/>
<stop offset="0.61" stop-color="#383838"/>
<stop offset="0.76" stop-color="#202020"/>
<stop offset="0.89" stop-color="#121212"/>
<stop offset="1" stop-color="#0D0D0D"/>
</linearGradient>
<linearGradient id="paint25_linear_6561_3078" x1="38.563" y1="57.1212" x2="40.5074" y2="57.1212" gradientUnits="userSpaceOnUse">
<stop stop-color="#242424"/>
<stop offset="0.47" stop-color="#212121"/>
<stop offset="0.79" stop-color="#181818"/>
<stop offset="1" stop-color="#0D0D0D"/>
</linearGradient>
<linearGradient id="paint26_linear_6561_3078" x1="49.5259" y1="60.0002" x2="50.3556" y2="60.0002" gradientUnits="userSpaceOnUse">
<stop stop-color="#242424"/>
<stop offset="0.47" stop-color="#212121"/>
<stop offset="0.79" stop-color="#181818"/>
<stop offset="1" stop-color="#0D0D0D"/>
</linearGradient>
<linearGradient id="paint27_linear_6561_3078" x1="35.4084" y1="60.0001" x2="37.3548" y2="60.0001" gradientUnits="userSpaceOnUse">
<stop stop-color="#242424"/>
<stop offset="0.47" stop-color="#212121"/>
<stop offset="0.79" stop-color="#181818"/>
<stop offset="1" stop-color="#0D0D0D"/>
</linearGradient>
<linearGradient id="paint28_linear_6561_3078" x1="37.0068" y1="60.0001" x2="38.9532" y2="60.0001" gradientUnits="userSpaceOnUse">
<stop stop-color="#242424"/>
<stop offset="0.47" stop-color="#212121"/>
<stop offset="0.79" stop-color="#181818"/>
<stop offset="1" stop-color="#0D0D0D"/>
</linearGradient>
<linearGradient id="paint29_linear_6561_3078" x1="41.6853" y1="60.0001" x2="43.6297" y2="60.0001" gradientUnits="userSpaceOnUse">
<stop stop-color="#242424"/>
<stop offset="0.47" stop-color="#212121"/>
<stop offset="0.79" stop-color="#181818"/>
<stop offset="1" stop-color="#0D0D0D"/>
</linearGradient>
<linearGradient id="paint30_linear_6561_3078" x1="40.1174" y1="60.0001" x2="42.0637" y2="60.0001" gradientUnits="userSpaceOnUse">
<stop stop-color="#242424"/>
<stop offset="0.47" stop-color="#212121"/>
<stop offset="0.79" stop-color="#181818"/>
<stop offset="1" stop-color="#0D0D0D"/>
</linearGradient>
<linearGradient id="paint31_linear_6561_3078" x1="43.2607" y1="60.0001" x2="45.2071" y2="60.0001" gradientUnits="userSpaceOnUse">
<stop stop-color="#242424"/>
<stop offset="0.47" stop-color="#212121"/>
<stop offset="0.79" stop-color="#181818"/>
<stop offset="1" stop-color="#0D0D0D"/>
</linearGradient>
<linearGradient id="paint32_linear_6561_3078" x1="47.9599" y1="60.0002" x2="49.9043" y2="60.0002" gradientUnits="userSpaceOnUse">
<stop stop-color="#242424"/>
<stop offset="0.47" stop-color="#212121"/>
<stop offset="0.79" stop-color="#181818"/>
<stop offset="1" stop-color="#0D0D0D"/>
</linearGradient>
<linearGradient id="paint33_linear_6561_3078" x1="46.3923" y1="60.0001" x2="48.3386" y2="60.0001" gradientUnits="userSpaceOnUse">
<stop stop-color="#242424"/>
<stop offset="0.47" stop-color="#212121"/>
<stop offset="0.79" stop-color="#181818"/>
<stop offset="1" stop-color="#0D0D0D"/>
</linearGradient>
<linearGradient id="paint34_linear_6561_3078" x1="44.8264" y1="60.0001" x2="46.7727" y2="60.0001" gradientUnits="userSpaceOnUse">
<stop stop-color="#242424"/>
<stop offset="0.47" stop-color="#212121"/>
<stop offset="0.79" stop-color="#181818"/>
<stop offset="1" stop-color="#0D0D0D"/>
</linearGradient>
<linearGradient id="paint35_linear_6561_3078" x1="30.6574" y1="58.3401" x2="32.3342" y2="58.3401" gradientUnits="userSpaceOnUse">
<stop stop-color="#242424"/>
<stop offset="0.47" stop-color="#212121"/>
<stop offset="0.79" stop-color="#181818"/>
<stop offset="1" stop-color="#0D0D0D"/>
</linearGradient>
<linearGradient id="paint36_linear_6561_3078" x1="22.7192" y1="58.3402" x2="24.396" y2="58.3402" gradientUnits="userSpaceOnUse">
<stop stop-color="#242424"/>
<stop offset="0.47" stop-color="#212121"/>
<stop offset="0.79" stop-color="#181818"/>
<stop offset="1" stop-color="#0D0D0D"/>
</linearGradient>
<linearGradient id="paint37_linear_6561_3078" x1="21.0884" y1="58.3402" x2="22.7651" y2="58.3402" gradientUnits="userSpaceOnUse">
<stop stop-color="#242424"/>
<stop offset="0.47" stop-color="#212121"/>
<stop offset="0.79" stop-color="#181818"/>
<stop offset="1" stop-color="#0D0D0D"/>
</linearGradient>
<linearGradient id="paint38_linear_6561_3078" x1="18.8628" y1="58.3402" x2="20.0405" y2="58.3402" gradientUnits="userSpaceOnUse">
<stop stop-color="#242424"/>
<stop offset="0.47" stop-color="#212121"/>
<stop offset="0.79" stop-color="#181818"/>
<stop offset="1" stop-color="#0D0D0D"/>
</linearGradient>
<linearGradient id="paint39_linear_6561_3078" x1="19.9221" y1="58.3402" x2="21.1801" y2="58.3402" gradientUnits="userSpaceOnUse">
<stop stop-color="#242424"/>
<stop offset="0.47" stop-color="#212121"/>
<stop offset="0.79" stop-color="#181818"/>
<stop offset="1" stop-color="#0D0D0D"/>
</linearGradient>
<linearGradient id="paint40_linear_6561_3078" x1="33.8215" y1="60.0001" x2="35.7659" y2="60.0001" gradientUnits="userSpaceOnUse">
<stop stop-color="#242424"/>
<stop offset="0.47" stop-color="#212121"/>
<stop offset="0.79" stop-color="#181818"/>
<stop offset="1" stop-color="#0D0D0D"/>
</linearGradient>
<linearGradient id="paint41_linear_6561_3078" x1="24.3174" y1="58.3402" x2="25.9941" y2="58.3402" gradientUnits="userSpaceOnUse">
<stop stop-color="#242424"/>
<stop offset="0.47" stop-color="#212121"/>
<stop offset="0.79" stop-color="#181818"/>
<stop offset="1" stop-color="#0D0D0D"/>
</linearGradient>
<linearGradient id="paint42_linear_6561_3078" x1="29.0801" y1="58.3402" x2="30.7568" y2="58.3402" gradientUnits="userSpaceOnUse">
<stop stop-color="#242424"/>
<stop offset="0.47" stop-color="#212121"/>
<stop offset="0.79" stop-color="#181818"/>
<stop offset="1" stop-color="#0D0D0D"/>
</linearGradient>
<linearGradient id="paint43_linear_6561_3078" x1="25.9043" y1="58.3402" x2="27.583" y2="58.3402" gradientUnits="userSpaceOnUse">
<stop stop-color="#242424"/>
<stop offset="0.47" stop-color="#212121"/>
<stop offset="0.79" stop-color="#181818"/>
<stop offset="1" stop-color="#0D0D0D"/>
</linearGradient>
<linearGradient id="paint44_linear_6561_3078" x1="32.2346" y1="58.3401" x2="33.9113" y2="58.3401" gradientUnits="userSpaceOnUse">
<stop stop-color="#242424"/>
<stop offset="0.47" stop-color="#212121"/>
<stop offset="0.79" stop-color="#181818"/>
<stop offset="1" stop-color="#0D0D0D"/>
</linearGradient>
<linearGradient id="paint45_linear_6561_3078" x1="27.5027" y1="58.3402" x2="29.1814" y2="58.3402" gradientUnits="userSpaceOnUse">
<stop stop-color="#242424"/>
<stop offset="0.47" stop-color="#212121"/>
<stop offset="0.79" stop-color="#181818"/>
<stop offset="1" stop-color="#0D0D0D"/>
</linearGradient>
<linearGradient id="paint46_linear_6561_3078" x1="30.6572" y1="1.72699" x2="32.2747" y2="1.72699" gradientUnits="userSpaceOnUse">
<stop stop-color="#242424"/>
<stop offset="0.47" stop-color="#212121"/>
<stop offset="0.79" stop-color="#181818"/>
<stop offset="1" stop-color="#0D0D0D"/>
</linearGradient>
<linearGradient id="paint47_linear_6561_3078" x1="32.2346" y1="1.77247" x2="33.8979" y2="1.77247" gradientUnits="userSpaceOnUse">
<stop stop-color="#242424"/>
<stop offset="0.47" stop-color="#212121"/>
<stop offset="0.79" stop-color="#181818"/>
<stop offset="1" stop-color="#0D0D0D"/>
</linearGradient>
<linearGradient id="paint48_linear_6561_3078" x1="27.5027" y1="1.72699" x2="29.1202" y2="1.72699" gradientUnits="userSpaceOnUse">
<stop stop-color="#242424"/>
<stop offset="0.47" stop-color="#212121"/>
<stop offset="0.79" stop-color="#181818"/>
<stop offset="1" stop-color="#0D0D0D"/>
</linearGradient>
<linearGradient id="paint49_linear_6561_3078" x1="29.0801" y1="1.72699" x2="30.6975" y2="1.72699" gradientUnits="userSpaceOnUse">
<stop stop-color="#242424"/>
<stop offset="0.47" stop-color="#212121"/>
<stop offset="0.79" stop-color="#181818"/>
<stop offset="1" stop-color="#0D0D0D"/>
</linearGradient>
<linearGradient id="paint50_linear_6561_3078" x1="33.8215" y1="3.87748" x2="35.7659" y2="3.87748" gradientUnits="userSpaceOnUse">
<stop stop-color="#242424"/>
<stop offset="0.47" stop-color="#212121"/>
<stop offset="0.79" stop-color="#181818"/>
<stop offset="1" stop-color="#0D0D0D"/>
</linearGradient>
<linearGradient id="paint51_linear_6561_3078" x1="35.4084" y1="3.87748" x2="37.3548" y2="3.87748" gradientUnits="userSpaceOnUse">
<stop stop-color="#242424"/>
<stop offset="0.47" stop-color="#212121"/>
<stop offset="0.79" stop-color="#181818"/>
<stop offset="1" stop-color="#0D0D0D"/>
</linearGradient>
<linearGradient id="paint52_linear_6561_3078" x1="37.0068" y1="3.87748" x2="38.9532" y2="3.87748" gradientUnits="userSpaceOnUse">
<stop stop-color="#242424"/>
<stop offset="0.47" stop-color="#212121"/>
<stop offset="0.79" stop-color="#181818"/>
<stop offset="1" stop-color="#0D0D0D"/>
</linearGradient>
<linearGradient id="paint53_linear_6561_3078" x1="21.0884" y1="1.72699" x2="22.7058" y2="1.72699" gradientUnits="userSpaceOnUse">
<stop stop-color="#242424"/>
<stop offset="0.47" stop-color="#212121"/>
<stop offset="0.79" stop-color="#181818"/>
<stop offset="1" stop-color="#0D0D0D"/>
</linearGradient>
<linearGradient id="paint54_linear_6561_3078" x1="19.9221" y1="1.72699" x2="21.1343" y2="1.72699" gradientUnits="userSpaceOnUse">
<stop stop-color="#242424"/>
<stop offset="0.47" stop-color="#212121"/>
<stop offset="0.79" stop-color="#181818"/>
<stop offset="1" stop-color="#0D0D0D"/>
</linearGradient>
<linearGradient id="paint55_linear_6561_3078" x1="24.3174" y1="1.72699" x2="25.9348" y2="1.72699" gradientUnits="userSpaceOnUse">
<stop stop-color="#242424"/>
<stop offset="0.47" stop-color="#212121"/>
<stop offset="0.79" stop-color="#181818"/>
<stop offset="1" stop-color="#0D0D0D"/>
</linearGradient>
<linearGradient id="paint56_linear_6561_3078" x1="22.7192" y1="1.72699" x2="24.3367" y2="1.72699" gradientUnits="userSpaceOnUse">
<stop stop-color="#242424"/>
<stop offset="0.47" stop-color="#212121"/>
<stop offset="0.79" stop-color="#181818"/>
<stop offset="1" stop-color="#0D0D0D"/>
</linearGradient>
<linearGradient id="paint57_linear_6561_3078" x1="25.9043" y1="1.72699" x2="27.5218" y2="1.72699" gradientUnits="userSpaceOnUse">
<stop stop-color="#242424"/>
<stop offset="0.47" stop-color="#212121"/>
<stop offset="0.79" stop-color="#181818"/>
<stop offset="1" stop-color="#0D0D0D"/>
</linearGradient>
<linearGradient id="paint58_linear_6561_3078" x1="18.8628" y1="1.72699" x2="19.9985" y2="1.72699" gradientUnits="userSpaceOnUse">
<stop stop-color="#242424"/>
<stop offset="0.47" stop-color="#212121"/>
<stop offset="0.79" stop-color="#181818"/>
<stop offset="1" stop-color="#0D0D0D"/>
</linearGradient>
<linearGradient id="paint59_linear_6561_3078" x1="-2.03957e-05" y1="3.87748" x2="0.19117" y2="3.87748" gradientUnits="userSpaceOnUse">
<stop stop-color="#242424"/>
<stop offset="0.47" stop-color="#212121"/>
<stop offset="0.79" stop-color="#181818"/>
<stop offset="1" stop-color="#0D0D0D"/>
</linearGradient>
<linearGradient id="paint60_linear_6561_3078" x1="51.1663" y1="3.33178" x2="53.1126" y2="3.33178" gradientUnits="userSpaceOnUse">
<stop stop-color="#242424"/>
<stop offset="0.47" stop-color="#212121"/>
<stop offset="0.79" stop-color="#181818"/>
<stop offset="1" stop-color="#0D0D0D"/>
</linearGradient>
<linearGradient id="paint61_linear_6561_3078" x1="47.9599" y1="3.87748" x2="49.9043" y2="3.87748" gradientUnits="userSpaceOnUse">
<stop stop-color="#242424"/>
<stop offset="0.47" stop-color="#212121"/>
<stop offset="0.79" stop-color="#181818"/>
<stop offset="1" stop-color="#0D0D0D"/>
</linearGradient>
<linearGradient id="paint62_linear_6561_3078" x1="49.5258" y1="3.86036" x2="51.4702" y2="3.86036" gradientUnits="userSpaceOnUse">
<stop stop-color="#242424"/>
<stop offset="0.47" stop-color="#212121"/>
<stop offset="0.79" stop-color="#181818"/>
<stop offset="1" stop-color="#0D0D0D"/>
</linearGradient>
<linearGradient id="paint63_linear_6561_3078" x1="55.8984" y1="1.41318" x2="56.864" y2="1.41318" gradientUnits="userSpaceOnUse">
<stop stop-color="#242424"/>
<stop offset="0.47" stop-color="#212121"/>
<stop offset="0.79" stop-color="#181818"/>
<stop offset="1" stop-color="#0D0D0D"/>
</linearGradient>
<linearGradient id="paint64_linear_6561_3078" x1="54.3208" y1="1.92462" x2="55.7222" y2="1.92462" gradientUnits="userSpaceOnUse">
<stop stop-color="#242424"/>
<stop offset="0.47" stop-color="#212121"/>
<stop offset="0.79" stop-color="#181818"/>
<stop offset="1" stop-color="#0D0D0D"/>
</linearGradient>
<linearGradient id="paint65_linear_6561_3078" x1="52.7437" y1="2.56744" x2="54.6192" y2="2.56744" gradientUnits="userSpaceOnUse">
<stop stop-color="#242424"/>
<stop offset="0.47" stop-color="#212121"/>
<stop offset="0.79" stop-color="#181818"/>
<stop offset="1" stop-color="#0D0D0D"/>
</linearGradient>
<linearGradient id="paint66_linear_6561_3078" x1="41.6851" y1="3.87748" x2="43.6295" y2="3.87748" gradientUnits="userSpaceOnUse">
<stop stop-color="#242424"/>
<stop offset="0.47" stop-color="#212121"/>
<stop offset="0.79" stop-color="#181818"/>
<stop offset="1" stop-color="#0D0D0D"/>
</linearGradient>
<linearGradient id="paint67_linear_6561_3078" x1="46.3923" y1="3.87748" x2="48.3386" y2="3.87748" gradientUnits="userSpaceOnUse">
<stop stop-color="#242424"/>
<stop offset="0.47" stop-color="#212121"/>
<stop offset="0.79" stop-color="#181818"/>
<stop offset="1" stop-color="#0D0D0D"/>
</linearGradient>
<linearGradient id="paint68_linear_6561_3078" x1="40.1174" y1="3.87748" x2="42.0637" y2="3.87748" gradientUnits="userSpaceOnUse">
<stop stop-color="#242424"/>
<stop offset="0.47" stop-color="#212121"/>
<stop offset="0.79" stop-color="#181818"/>
<stop offset="1" stop-color="#0D0D0D"/>
</linearGradient>
<linearGradient id="paint69_linear_6561_3078" x1="43.2607" y1="3.87748" x2="45.2071" y2="3.87748" gradientUnits="userSpaceOnUse">
<stop stop-color="#242424"/>
<stop offset="0.47" stop-color="#212121"/>
<stop offset="0.79" stop-color="#181818"/>
<stop offset="1" stop-color="#0D0D0D"/>
</linearGradient>
<linearGradient id="paint70_linear_6561_3078" x1="44.8264" y1="3.87748" x2="46.7727" y2="3.87748" gradientUnits="userSpaceOnUse">
<stop stop-color="#242424"/>
<stop offset="0.47" stop-color="#212121"/>
<stop offset="0.79" stop-color="#181818"/>
<stop offset="1" stop-color="#0D0D0D"/>
</linearGradient>
<linearGradient id="paint71_linear_6561_3078" x1="13.7775" y1="44.8022" x2="15.9412" y2="41.7039" gradientUnits="userSpaceOnUse">
<stop stop-color="#999999"/>
<stop offset="0.15" stop-color="#949494"/>
<stop offset="0.32" stop-color="#858585"/>
<stop offset="0.51" stop-color="#6E6E6E"/>
<stop offset="0.7" stop-color="#4D4D4D"/>
<stop offset="0.9" stop-color="#242424"/>
<stop offset="1" stop-color="#0D0D0D"/>
</linearGradient>
<linearGradient id="paint72_linear_6561_3078" x1="13.8548" y1="38.148" x2="17.5954" y2="39.91" gradientUnits="userSpaceOnUse">
<stop stop-color="#0D0D0D"/>
<stop offset="0.02" stop-color="#171717"/>
<stop offset="0.1" stop-color="#393939"/>
<stop offset="0.18" stop-color="#575757"/>
<stop offset="0.28" stop-color="#6F6F6F"/>
<stop offset="0.38" stop-color="#828282"/>
<stop offset="0.51" stop-color="#8F8F8F"/>
<stop offset="0.67" stop-color="#969696"/>
<stop offset="1" stop-color="#999999"/>
</linearGradient>
<linearGradient id="paint73_linear_6561_3078" x1="12.769" y1="37.1888" x2="10.3371" y2="39.2359" gradientUnits="userSpaceOnUse">
<stop stop-color="#969696"/>
<stop offset="0.15" stop-color="#919191"/>
<stop offset="0.33" stop-color="#828282"/>
<stop offset="0.51" stop-color="#6B6B6B"/>
<stop offset="0.71" stop-color="#4A4A4A"/>
<stop offset="0.91" stop-color="#212121"/>
<stop offset="1" stop-color="#0D0D0D"/>
</linearGradient>
<linearGradient id="paint74_linear_6561_3078" x1="8.95685" y1="41.4007" x2="12.3137" y2="43.4371" gradientUnits="userSpaceOnUse">
<stop stop-color="#999999"/>
<stop offset="0.25" stop-color="#969696"/>
<stop offset="0.41" stop-color="#8D8D8D"/>
<stop offset="0.56" stop-color="#7E7E7E"/>
<stop offset="0.68" stop-color="#686868"/>
<stop offset="0.8" stop-color="#4C4C4C"/>
<stop offset="0.92" stop-color="#2B2B2B"/>
<stop offset="1" stop-color="#0D0D0D"/>
</linearGradient>
<radialGradient id="paint75_radial_6561_3078" cx="0" cy="0" r="1" gradientTransform="matrix(4.65026 -3.22761 -3.24528 -4.62495 13.2132 40.7282)" gradientUnits="userSpaceOnUse">
<stop offset="0.43" stop-color="#0D0D0D"/>
<stop offset="1" stop-color="#666666"/>
</radialGradient>
<linearGradient id="paint76_linear_6561_3078" x1="25.2764" y1="44.7668" x2="28.3275" y2="42.5259" gradientUnits="userSpaceOnUse">
<stop stop-color="#999999"/>
<stop offset="0.15" stop-color="#949494"/>
<stop offset="0.32" stop-color="#858585"/>
<stop offset="0.51" stop-color="#6E6E6E"/>
<stop offset="0.7" stop-color="#4D4D4D"/>
<stop offset="0.9" stop-color="#242424"/>
<stop offset="1" stop-color="#0D0D0D"/>
</linearGradient>
<linearGradient id="paint77_linear_6561_3078" x1="27.5003" y1="38.4959" x2="30.4673" y2="41.3637" gradientUnits="userSpaceOnUse">
<stop stop-color="#0D0D0D"/>
<stop offset="0.02" stop-color="#171717"/>
<stop offset="0.1" stop-color="#393939"/>
<stop offset="0.18" stop-color="#575757"/>
<stop offset="0.28" stop-color="#6F6F6F"/>
<stop offset="0.38" stop-color="#828282"/>
<stop offset="0.51" stop-color="#8F8F8F"/>
<stop offset="0.67" stop-color="#969696"/>
<stop offset="1" stop-color="#999999"/>
</linearGradient>
<linearGradient id="paint78_linear_6561_3078" x1="26.7874" y1="37.2413" x2="23.8216" y2="38.3934" gradientUnits="userSpaceOnUse">
<stop stop-color="#969696"/>
<stop offset="0.15" stop-color="#919191"/>
<stop offset="0.33" stop-color="#828282"/>
<stop offset="0.51" stop-color="#6B6B6B"/>
<stop offset="0.71" stop-color="#4A4A4A"/>
<stop offset="0.91" stop-color="#212121"/>
<stop offset="1" stop-color="#0D0D0D"/>
</linearGradient>
<linearGradient id="paint79_linear_6561_3078" x1="21.8114" y1="40.0032" x2="24.3305" y2="43.0069" gradientUnits="userSpaceOnUse">
<stop stop-color="#999999"/>
<stop offset="0.25" stop-color="#969696"/>
<stop offset="0.41" stop-color="#8D8D8D"/>
<stop offset="0.56" stop-color="#7E7E7E"/>
<stop offset="0.68" stop-color="#686868"/>
<stop offset="0.8" stop-color="#4C4C4C"/>
<stop offset="0.92" stop-color="#2B2B2B"/>
<stop offset="1" stop-color="#0D0D0D"/>
</linearGradient>
<radialGradient id="paint80_radial_6561_3078" cx="0" cy="0" r="1" gradientTransform="matrix(5.44746 -1.56684 -1.57542 -5.41781 26.0601 40.7269)" gradientUnits="userSpaceOnUse">
<stop offset="0.43" stop-color="#0D0D0D"/>
<stop offset="1" stop-color="#666666"/>
</radialGradient>
<linearGradient id="paint81_linear_6561_3078" x1="23.9123" y1="22.0145" x2="27.5611" y2="20.978" gradientUnits="userSpaceOnUse">
<stop stop-color="#999999"/>
<stop offset="0.15" stop-color="#949494"/>
<stop offset="0.32" stop-color="#858585"/>
<stop offset="0.51" stop-color="#6E6E6E"/>
<stop offset="0.7" stop-color="#4D4D4D"/>
<stop offset="0.9" stop-color="#242424"/>
<stop offset="1" stop-color="#0D0D0D"/>
</linearGradient>
<linearGradient id="paint82_linear_6561_3078" x1="28.196" y1="16.8995" x2="29.9807" y2="20.6146" gradientUnits="userSpaceOnUse">
<stop stop-color="#0D0D0D"/>
<stop offset="0.02" stop-color="#171717"/>
<stop offset="0.1" stop-color="#393939"/>
<stop offset="0.18" stop-color="#575757"/>
<stop offset="0.28" stop-color="#6F6F6F"/>
<stop offset="0.38" stop-color="#828282"/>
<stop offset="0.51" stop-color="#8F8F8F"/>
<stop offset="0.67" stop-color="#969696"/>
<stop offset="1" stop-color="#999999"/>
</linearGradient>
<linearGradient id="paint83_linear_6561_3078" x1="27.9618" y1="15.4757" x2="24.7782" y2="15.5185" gradientUnits="userSpaceOnUse">
<stop stop-color="#969696"/>
<stop offset="0.15" stop-color="#919191"/>
<stop offset="0.33" stop-color="#828282"/>
<stop offset="0.51" stop-color="#6B6B6B"/>
<stop offset="0.71" stop-color="#4A4A4A"/>
<stop offset="0.91" stop-color="#212121"/>
<stop offset="1" stop-color="#0D0D0D"/>
</linearGradient>
<linearGradient id="paint84_linear_6561_3078" x1="22.3322" y1="16.3498" x2="23.6503" y2="20.0349" gradientUnits="userSpaceOnUse">
<stop stop-color="#999999"/>
<stop offset="0.25" stop-color="#969696"/>
<stop offset="0.41" stop-color="#8D8D8D"/>
<stop offset="0.56" stop-color="#7E7E7E"/>
<stop offset="0.68" stop-color="#686868"/>
<stop offset="0.8" stop-color="#4C4C4C"/>
<stop offset="0.92" stop-color="#2B2B2B"/>
<stop offset="1" stop-color="#0D0D0D"/>
</linearGradient>
<radialGradient id="paint85_radial_6561_3078" cx="0" cy="0" r="1" gradientTransform="matrix(5.65525 0.415996 0.418273 -5.62446 26.0624 18.4984)" gradientUnits="userSpaceOnUse">
<stop offset="0.43" stop-color="#0D0D0D"/>
<stop offset="1" stop-color="#666666"/>
</radialGradient>
<linearGradient id="paint86_linear_6561_3078" x1="9.66499" y1="20.6821" x2="13.3884" y2="21.3971" gradientUnits="userSpaceOnUse">
<stop stop-color="#999999"/>
<stop offset="0.15" stop-color="#949494"/>
<stop offset="0.32" stop-color="#858585"/>
<stop offset="0.51" stop-color="#6E6E6E"/>
<stop offset="0.7" stop-color="#4D4D4D"/>
<stop offset="0.9" stop-color="#242424"/>
<stop offset="1" stop-color="#0D0D0D"/>
</linearGradient>
<linearGradient id="paint87_linear_6561_3078" x1="15.7899" y1="18.0168" x2="15.7335" y2="22.1337" gradientUnits="userSpaceOnUse">
<stop stop-color="#0D0D0D"/>
<stop offset="0.02" stop-color="#171717"/>
<stop offset="0.1" stop-color="#393939"/>
<stop offset="0.18" stop-color="#575757"/>
<stop offset="0.28" stop-color="#6F6F6F"/>
<stop offset="0.38" stop-color="#828282"/>
<stop offset="0.51" stop-color="#8F8F8F"/>
<stop offset="0.67" stop-color="#969696"/>
<stop offset="1" stop-color="#999999"/>
</linearGradient>
<linearGradient id="paint88_linear_6561_3078" x1="16.2249" y1="16.6457" x2="13.3644" y2="15.255" gradientUnits="userSpaceOnUse">
<stop stop-color="#969696"/>
<stop offset="0.15" stop-color="#919191"/>
<stop offset="0.33" stop-color="#828282"/>
<stop offset="0.51" stop-color="#6B6B6B"/>
<stop offset="0.71" stop-color="#4A4A4A"/>
<stop offset="0.91" stop-color="#212121"/>
<stop offset="1" stop-color="#0D0D0D"/>
</linearGradient>
<linearGradient id="paint89_linear_6561_3078" x1="10.7967" y1="14.9133" x2="10.3377" y2="18.7962" gradientUnits="userSpaceOnUse">
<stop stop-color="#999999"/>
<stop offset="0.25" stop-color="#969696"/>
<stop offset="0.41" stop-color="#8D8D8D"/>
<stop offset="0.56" stop-color="#7E7E7E"/>
<stop offset="0.68" stop-color="#686868"/>
<stop offset="0.8" stop-color="#4C4C4C"/>
<stop offset="0.92" stop-color="#2B2B2B"/>
<stop offset="1" stop-color="#0D0D0D"/>
</linearGradient>
<radialGradient id="paint90_radial_6561_3078" cx="0" cy="0" r="1" gradientTransform="matrix(0.0821123 0.0486823 0.0489487 -0.0816653 13.1666 18.4944)" gradientUnits="userSpaceOnUse">
<stop offset="0.43" stop-color="#0D0D0D"/>
<stop offset="1" stop-color="#666666"/>
</radialGradient>
<linearGradient id="paint91_linear_6561_3078" x1="55.7645" y1="24.136" x2="55.7645" y2="34.9289" gradientUnits="userSpaceOnUse">
<stop/>
<stop offset="0.51" stop-color="#1F1F1F"/>
<stop offset="0.82" stop-color="#0C0C0C"/>
<stop offset="1"/>
</linearGradient>
<linearGradient id="paint92_linear_6561_3078" x1="34.9475" y1="29.5039" x2="79.4546" y2="29.5039" gradientUnits="userSpaceOnUse">
<stop stop-color="#141414"/>
<stop offset="0.24" stop-color="#1F1F1F"/>
<stop offset="0.72" stop-color="#0C0C0C"/>
<stop offset="1"/>
</linearGradient>
<linearGradient id="paint93_linear_6561_3078" x1="86.6359" y1="17.3534" x2="86.6359" y2="41.6602" gradientUnits="userSpaceOnUse">
<stop stop-color="#212121"/>
<stop offset="0.09" stop-color="#171717"/>
<stop offset="0.13" stop-color="#323232"/>
<stop offset="0.17" stop-color="#4A4A4A"/>
<stop offset="0.22" stop-color="#5C5C5C"/>
<stop offset="0.27" stop-color="#696969"/>
<stop offset="0.35" stop-color="#707070"/>
<stop offset="0.51" stop-color="#737373"/>
<stop offset="0.65" stop-color="#707070"/>
<stop offset="0.73" stop-color="#696969"/>
<stop offset="0.78" stop-color="#5B5B5B"/>
<stop offset="0.83" stop-color="#494949"/>
<stop offset="0.88" stop-color="#313131"/>
<stop offset="0.91" stop-color="#171717"/>
<stop offset="1" stop-color="#212121"/>
</linearGradient>
<linearGradient id="paint94_linear_6561_3078" x1="83.1218" y1="29.4487" x2="85.9916" y2="29.4487" gradientUnits="userSpaceOnUse">
<stop stop-color="#262626"/>
<stop offset="0.35" stop-color="#787878"/>
<stop offset="0.46" stop-color="#595959"/>
<stop offset="0.61" stop-color="#383838"/>
<stop offset="0.76" stop-color="#202020"/>
<stop offset="0.89" stop-color="#121212"/>
<stop offset="1" stop-color="#0D0D0D"/>
</linearGradient>
<linearGradient id="paint95_linear_6561_3078" x1="90.1766" y1="29.4355" x2="70.7078" y2="29.4355" gradientUnits="userSpaceOnUse">
<stop stop-color="#262626"/>
<stop offset="0.35" stop-color="#B0B0B0"/>
<stop offset="0.48" stop-color="#898989"/>
<stop offset="0.63" stop-color="#686868"/>
<stop offset="0.77" stop-color="#505050"/>
<stop offset="0.89" stop-color="#424242"/>
<stop offset="1" stop-color="#3D3D3D"/>
</linearGradient>
<linearGradient id="paint96_linear_6561_3078" x1="94.9221" y1="29.2015" x2="94.2587" y2="29.2015" gradientUnits="userSpaceOnUse">
<stop/>
<stop offset="0.35" stop-color="#424242"/>
<stop offset="0.42" stop-color="#383838"/>
<stop offset="0.63" stop-color="#202020"/>
<stop offset="0.83" stop-color="#121212"/>
<stop offset="1" stop-color="#0D0D0D"/>
</linearGradient>
<linearGradient id="paint97_linear_6561_3078" x1="75.6807" y1="29.4868" x2="77.3498" y2="29.4868" gradientUnits="userSpaceOnUse">
<stop stop-color="#3B3B3B"/>
<stop offset="1"/>
</linearGradient>
<linearGradient id="paint98_linear_6561_3078" x1="49.394" y1="26.7753" x2="49.394" y2="32.1489" gradientUnits="userSpaceOnUse">
<stop/>
<stop offset="0.35" stop-color="#242424"/>
<stop offset="0.41" stop-color="#202020"/>
<stop offset="0.73" stop-color="#121212"/>
<stop offset="1" stop-color="#0D0D0D"/>
</linearGradient>
<linearGradient id="paint99_linear_6561_3078" x1="3.97286" y1="29.4487" x2="5.40296" y2="29.4487" gradientUnits="userSpaceOnUse">
<stop stop-color="#262626"/>
<stop offset="0.35" stop-color="#787878"/>
<stop offset="0.46" stop-color="#595959"/>
<stop offset="0.61" stop-color="#383838"/>
<stop offset="0.76" stop-color="#202020"/>
<stop offset="0.89" stop-color="#121212"/>
<stop offset="1" stop-color="#0D0D0D"/>
</linearGradient>
<linearGradient id="paint100_linear_6561_3078" x1="1.88696" y1="29.4564" x2="11.586" y2="29.4564" gradientUnits="userSpaceOnUse">
<stop stop-color="#262626"/>
<stop offset="0.35" stop-color="#787878"/>
<stop offset="0.46" stop-color="#595959"/>
<stop offset="0.61" stop-color="#383838"/>
<stop offset="0.76" stop-color="#202020"/>
<stop offset="0.89" stop-color="#121212"/>
<stop offset="1" stop-color="#0D0D0D"/>
</linearGradient>
<linearGradient id="paint101_linear_6561_3078" x1="0.265828" y1="29.4583" x2="7.30353" y2="29.4583" gradientUnits="userSpaceOnUse">
<stop/>
<stop offset="0.02" stop-color="#060606"/>
<stop offset="0.18" stop-color="#373737"/>
<stop offset="0.32" stop-color="#5A5A5A"/>
<stop offset="0.44" stop-color="#707070"/>
<stop offset="0.51" stop-color="#787878"/>
<stop offset="0.59" stop-color="#6E6E6E"/>
<stop offset="0.72" stop-color="#555555"/>
<stop offset="0.89" stop-color="#2C2C2C"/>
<stop offset="1" stop-color="#0D0D0D"/>
</linearGradient>
<linearGradient id="paint102_linear_6561_3078" x1="46.5625" y1="29.6998" x2="46.5625" y2="29.348" gradientUnits="userSpaceOnUse">
<stop/>
<stop offset="0.35" stop-color="#242424"/>
<stop offset="0.41" stop-color="#202020"/>
<stop offset="0.73" stop-color="#121212"/>
<stop offset="1" stop-color="#0D0D0D"/>
</linearGradient>
<linearGradient id="paint103_linear_6561_3078" x1="68.7519" y1="53.9477" x2="75.4187" y2="53.9477" gradientUnits="userSpaceOnUse">
<stop stop-color="#999999"/>
<stop offset="0.1" stop-color="#9A9A9A"/>
<stop offset="0.13" stop-color="#A1A1A1"/>
<stop offset="0.16" stop-color="#ADADAD"/>
<stop offset="0.18" stop-color="#BEBEBE"/>
<stop offset="0.19" stop-color="#D4D4D4"/>
<stop offset="0.21" stop-color="#EEEEEE"/>
<stop offset="0.22" stop-color="white"/>
<stop offset="0.25" stop-color="#E8E8E8"/>
<stop offset="0.31" stop-color="#C3C3C3"/>
<stop offset="0.38" stop-color="#A3A3A3"/>
<stop offset="0.46" stop-color="#898989"/>
<stop offset="0.54" stop-color="#757575"/>
<stop offset="0.64" stop-color="#666666"/>
<stop offset="0.76" stop-color="#5E5E5E"/>
<stop offset="0.95" stop-color="#5C5C5C"/>
</linearGradient>
<linearGradient id="paint104_linear_6561_3078" x1="39.7502" y1="29.966" x2="46.4667" y2="29.966" gradientUnits="userSpaceOnUse">
<stop stop-color="#999999"/>
<stop offset="0.1" stop-color="#9A9A9A"/>
<stop offset="0.13" stop-color="#A1A1A1"/>
<stop offset="0.16" stop-color="#ADADAD"/>
<stop offset="0.18" stop-color="#BEBEBE"/>
<stop offset="0.19" stop-color="#D4D4D4"/>
<stop offset="0.21" stop-color="#EEEEEE"/>
<stop offset="0.22" stop-color="white"/>
<stop offset="0.25" stop-color="#E8E8E8"/>
<stop offset="0.31" stop-color="#C3C3C3"/>
<stop offset="0.38" stop-color="#A3A3A3"/>
<stop offset="0.46" stop-color="#898989"/>
<stop offset="0.54" stop-color="#757575"/>
<stop offset="0.64" stop-color="#666666"/>
<stop offset="0.76" stop-color="#5E5E5E"/>
<stop offset="0.95" stop-color="#5C5C5C"/>
</linearGradient>
<linearGradient id="paint105_linear_6561_3078" x1="18.6985" y1="29.9203" x2="74.5795" y2="29.9203" gradientUnits="userSpaceOnUse">
<stop stop-color="#242424"/>
<stop offset="0.47" stop-color="#212121"/>
<stop offset="0.79" stop-color="#181818"/>
<stop offset="1" stop-color="#0D0D0D"/>
</linearGradient>
<linearGradient id="paint106_linear_6561_3078" x1="93.8762" y1="29.4869" x2="95.5453" y2="29.4869" gradientUnits="userSpaceOnUse">
<stop stop-color="#3B3B3B"/>
<stop offset="1"/>
</linearGradient>
<linearGradient id="paint107_linear_6561_3078" x1="82.2786" y1="17.8859" x2="82.2786" y2="41.0727" gradientUnits="userSpaceOnUse">
<stop/>
<stop offset="0.35" stop-color="#242424"/>
<stop offset="0.41" stop-color="#202020"/>
<stop offset="0.73" stop-color="#121212"/>
<stop offset="1" stop-color="#0D0D0D"/>
</linearGradient>
<clipPath id="clip0_6561_3078">
<rect width="100" height="60" fill="white" transform="matrix(1 0 0 -1 0 60)"/>
</clipPath>
</defs>
</svg>
