<svg width="100" height="87" viewBox="0 0 100 87" fill="none" xmlns="http://www.w3.org/2000/svg">
<g clip-path="url(#clip0_6561_4718)">
<path d="M99.137 13.811C97.8486 16.3989 96.7359 17.34 96.7359 17.34L95.6232 16.7911L95.0766 17.34H92.6755L91.5627 17.7125H90.8404L90.8014 17.7713L90.2548 17.8302L90.2743 17.8106L89.8449 17.8302V17.8498H88.7712L88.8298 17.7517H86.78V17.3008H86.6824L86.6629 19.2418L87.3852 19.3202L87.9122 19.2222H89.4154L89.5716 18.8693H90.2548V19.2614L90.86 19.1242C90.86 19.1242 90.7233 18.6144 91.836 18.5948H92.9097V18.5164H95.1937V18.6144H96.4821C96.4821 18.6144 97.4582 18.634 97.4582 19.4183C97.4582 20.2025 96.9897 20.0652 96.9897 20.0652L96.6188 20.6926H96.5797V66.4333H96.6578L97.0287 67.0607C97.0287 67.0607 97.6534 66.9235 97.6534 67.7077C97.6534 68.492 96.6773 68.5116 96.6773 68.5116H92.0312C90.9185 68.492 91.0552 67.9822 91.0552 67.9822L90.45 67.845V68.2371H89.7668L89.6106 67.8842H88.1075L87.5413 67.6489L86.6824 67.7469V70.2957H86.8581V69.9624H88.8298L88.7907 69.884H90.2743V69.8644L90.8209 69.9232L90.8404 69.9428H91.6603L92.7731 70.3153H95.1742L95.7208 70.8643L96.8335 70.3153C96.8335 70.3153 97.9462 71.2368 99.2346 73.8248C100.386 76.1383 100.074 79.4517 99.2151 81.726L99.1956 82.0201L99.1565 81.8632C99.0589 82.0789 98.9613 82.3142 98.8637 82.5102C97.751 84.7649 96.4626 85.1374 96.4626 85.1374H95.3499L94.979 85.8825L93.8663 86.4314L92.7535 85.8825H91.4651L91.0747 86.1765L90.7819 86.5295L90.5867 86.5491L90.3719 86.7059L89.6887 86.5687H88.7712L88.8688 86.4118L86.741 86.0197H86.6824V86.0001L86.1749 85.9021L86.6043 85.0982V84.7453L85.4135 86.9804H64.3695L58.1032 78.9223H39.5774L34.3067 87H15.4881L14.6292 86.451H9.78786L8.67514 85.3335H7.38673L6.27402 85.8825L5.1613 85.3335L4.7904 84.5885H3.67768C3.67768 84.5885 2.74066 84.314 1.78411 82.8827L1.5889 82.6279L1.64746 82.6475C1.53033 82.4514 1.41321 82.2358 1.29608 82.0005C1.13991 81.6868 0.983737 81.3339 0.866609 80.9418L0.710438 80.4712C0.554268 79.9811 0.43714 79.4517 0.339533 78.9027L0.280969 78.4322C0.0662342 76.6677 0.183362 74.7463 0.925173 73.2758C2.2331 70.7074 2.76018 70.3741 2.76018 70.3741V67.3744L4.16572 66.6098L7.73812 64.5904H15.4686V22.4572H9.12413V22.5356H7.93333L7.77716 22.4572H7.73812L2.56497 19.6731V16.5558C2.52592 16.5166 2.40879 16.4185 2.25262 16.2225C1.90124 15.85 1.43273 15.1638 0.808045 13.9482C0.554268 13.4384 0.378576 12.8895 0.261448 12.3209C-0.0313724 11.1249 -0.0704151 9.77212 0.105277 8.49773L0.163841 8.02719C0.261448 7.47823 0.378576 6.94886 0.515225 6.45871L0.671396 5.98817C0.808045 5.61565 0.944694 5.26275 1.10087 4.94905C1.21799 4.71378 1.33512 4.49812 1.45225 4.30206L1.64746 4.04717C2.60401 2.59634 3.54103 2.34146 3.54103 2.34146H4.65375L5.02465 1.59643L6.13737 1.04746L7.25009 1.59643H8.53849L9.65121 0.478897H14.6682L14.2192 0.75338H14.3363L15.5076 0.00834656H34.3262L36.0636 2.75318L39.5774 8.14482H39.4603L39.4798 8.16443H57.9275L64.389 0.00834656H85.4135L86.6043 2.24343V1.96894L86.2139 1.1651L90.2939 0.616135L90.8014 1.12589H90.8404L91.0161 1.34155L91.387 1.71407H92.6755L93.7882 1.1651L94.9009 1.71407L95.2718 2.45909H96.3845C96.3845 2.45909 96.9311 2.61594 97.6339 3.36097L97.6729 3.38058L98.3952 4.26284L98.3171 4.24323C98.4733 4.47851 98.6295 4.75299 98.7856 5.06669C98.9028 5.32156 99.0394 5.59605 99.137 5.90974L99.2151 5.61565L99.2737 6.26265C99.4884 6.92925 99.6641 7.65468 99.7812 8.41931L99.8007 8.49773H99.7812C100.015 10.3211 99.8983 12.2817 99.137 13.811ZM90.1767 40.6123V45.9059H90.1962C90.9381 45.9843 91.387 46.6117 91.387 47.3567C91.387 48.1018 90.9381 48.7292 90.1962 48.8076V48.8272H90.1767V54.9246H90.2158V54.9443C90.9381 55.0227 91.387 55.6501 91.387 56.3951C91.387 57.1401 90.9381 57.7871 90.2158 57.8459V57.8655H90.1767V67.1392L91.1333 67.394L91.3285 67.0215H91.9727L92.5193 66.3941H92.6755V20.5554H92.4607L91.9141 19.928H91.1137L90.9185 19.5555L90.1572 19.6143V28.7899H90.2743V28.8291C90.9771 28.9664 91.3675 29.5545 91.3675 30.2603C91.3675 30.9662 90.9771 31.5543 90.2743 31.6916V31.7112H90.1572V37.6126H90.1962V37.6518C90.9381 37.7302 91.3675 38.338 91.3675 39.083C91.387 39.8869 90.9381 40.5143 90.1767 40.6123C90.1182 40.6319 90.0791 40.6319 90.1767 40.6123Z" fill="black"/>
<path d="M96.5798 20.5945L96.9507 19.9671H91.9337L92.4803 20.5945H96.5798ZM96.6383 66.4332L97.0092 67.0606H91.9922L92.5388 66.4332H96.6383ZM82.4854 85.2354C82.0949 85.2354 81.8021 84.9217 81.8021 84.5491V69.9035C81.8021 69.531 82.1145 69.2173 82.4854 69.2173C82.8563 69.2173 83.1686 69.531 83.1686 69.9035V84.5491C83.1881 84.9217 82.8758 85.2354 82.4854 85.2354ZM82.4854 18.5163C82.0949 18.5163 81.8021 18.2026 81.8021 17.8301V3.1844C81.8021 2.81189 82.1145 2.49819 82.4854 2.49819C82.8563 2.49819 83.1686 2.81189 83.1686 3.1844V17.8301C83.1881 18.2026 82.8758 18.5163 82.4854 18.5163ZM33.7992 53.7286C34.1701 53.7286 34.4824 54.0423 34.4824 54.3952V57.1204C34.4824 57.4929 34.1701 57.787 33.8187 57.787C33.4478 57.787 33.1549 57.4733 33.1549 57.1204V54.3952C33.1354 54.0423 33.4478 53.7286 33.7992 53.7286ZM33.8187 32.4757C33.4478 32.4757 33.1354 32.162 33.1354 31.7895V29.0839C33.1354 28.7114 33.4478 28.3977 33.7992 28.3977C34.1701 28.3977 34.4629 28.7114 34.4629 29.0839V31.7895C34.4824 32.1816 34.1896 32.4757 33.8187 32.4757ZM47.7569 43.7883H45.0434C44.6725 43.7883 44.3797 43.4747 44.3797 43.1217C44.3797 42.7492 44.6921 42.4551 45.0434 42.4551H47.7569C48.1278 42.4551 48.4206 42.7688 48.4206 43.1217C48.4402 43.4747 48.1278 43.7883 47.7569 43.7883ZM22.5549 43.7883H19.8609C19.49 43.7883 19.1972 43.4747 19.1972 43.1217C19.1972 42.7492 19.5095 42.4551 19.8609 42.4551H22.5549C22.9258 42.4551 23.2186 42.7688 23.2186 43.1217C23.2381 43.4747 22.9258 43.7883 22.5549 43.7883ZM44.1455 53.4933C43.8917 53.7482 43.4622 53.7482 43.1889 53.4933L41.2758 51.5719C41.022 51.317 41.022 50.8857 41.2758 50.6112C41.5296 50.3563 41.9591 50.3563 42.2324 50.6112L44.1455 52.5326C44.4188 52.8071 44.4188 53.2384 44.1455 53.4933ZM26.3225 35.5931C26.0687 35.8479 25.6392 35.8479 25.3659 35.5931L23.4528 33.6717C23.1991 33.4168 23.1991 32.9855 23.4528 32.711C23.7066 32.4561 24.1361 32.4561 24.4094 32.711L26.3225 34.6324C26.5958 34.9068 26.5958 35.3382 26.3225 35.5931ZM23.4724 53.4933C23.2186 53.2188 23.2186 52.7875 23.4724 52.5326L25.3855 50.6112C25.6392 50.3563 26.0687 50.3563 26.342 50.6112C26.5958 50.8661 26.5958 51.2974 26.342 51.5719L24.4289 53.4933C24.1556 53.7678 23.7261 53.7678 23.4724 53.4933ZM42.2519 35.5931C41.9981 35.8479 41.5686 35.8479 41.2953 35.5931C41.0416 35.3382 41.0416 34.9068 41.2953 34.6324L43.2084 32.711C43.4622 32.4561 43.8917 32.4561 44.165 32.711C44.4188 32.9659 44.4188 33.3972 44.165 33.6717L42.2519 35.5931ZM42.7985 43.1414C42.7985 38.1222 38.7381 34.0638 33.7601 34.0638C28.7822 34.0638 24.7217 38.1418 24.7217 43.1414C24.7217 48.1409 28.7822 52.2189 33.7601 52.2189C38.7381 52.2189 42.7985 48.1605 42.7985 43.1414ZM41.1392 43.1414C41.1392 47.239 37.8205 50.5524 33.7601 50.5524C29.6997 50.5524 26.381 47.2194 26.381 43.1414C26.381 39.0633 29.6997 35.7303 33.7601 35.7303C37.8205 35.7303 41.1392 39.0437 41.1392 43.1414ZM77.2732 14.497H72.4514C72.5685 14.3402 72.6661 14.203 72.7442 14.0853C74.1693 12.0463 70.753 8.71328 68.6252 11.7718V10.3994C68.6252 9.69358 69.2109 9.10541 69.9136 9.10541H77.2927C77.9955 9.10541 78.5811 9.69358 78.5811 10.3994V13.203C78.5811 13.9089 77.9955 14.497 77.2732 14.497ZM77.2732 78.04H69.8941C69.1913 78.04 68.6057 77.4518 68.6057 76.746V75.3147C68.6252 75.3539 68.6643 75.3932 68.6838 75.4324C70.8116 78.5301 74.2474 75.1775 72.8223 73.1385C72.7247 73.0012 72.6076 72.8444 72.4904 72.6483H77.2732C77.9759 72.6483 78.5616 73.2365 78.5616 73.9423V76.746C78.5811 77.4714 77.9955 78.04 77.2732 78.04ZM19.5095 13.5756C19.7243 13.8304 19.978 14.1441 20.2513 14.4774H16.5033C15.8005 14.4774 15.2148 13.8893 15.2148 13.1834V10.3798C15.2148 9.67398 15.8005 9.0858 16.5033 9.0858H23.8823C24.5851 9.0858 25.1707 9.67398 25.1707 10.3798V12.9286C24.3118 11.8895 23.5895 11.0268 23.16 10.517C21.3445 8.37998 17.6941 11.3405 19.5095 13.5756ZM16.5033 72.6483H20.2123C19.939 72.9816 19.7048 73.2757 19.5095 73.511C17.6941 75.7461 21.325 78.7066 23.16 76.5695C23.5895 76.0598 24.3118 75.1971 25.1902 74.1384V76.746C25.1902 77.4518 24.6046 78.04 23.9018 78.04H16.5033C15.8005 78.04 15.2148 77.4518 15.2148 76.746V73.9423C15.2148 73.2365 15.8005 72.6483 16.5033 72.6483ZM74.1107 22.9276L73.9545 51.0622H73.1542L66.8488 47.7291V27.6722C66.8488 26.3979 65.9898 24.7314 65.9898 24.7314L68.4495 21.614H72.8028L74.1107 22.9276Z" fill="#FF4F01"/>
<path d="M86.6819 84.5885L85.3935 87H64.369L58.1027 78.9419H39.5769L34.3061 87H15.4876L2.93536 78.9419L2.81823 67.3744L7.73761 64.5904H15.4876V22.4572H7.73761L2.56445 19.6731V8.18402L15.4681 0.0279388H34.2866L39.4403 8.18402H57.8879L64.3495 0.0279388H85.374L86.6624 2.43948V19.3006L90.1762 19.6731V67.3744L86.6624 67.7469L86.6819 84.5885ZM33.1349 57.1205C33.1349 57.493 33.4472 57.7871 33.7986 57.7871C34.1695 57.7871 34.4623 57.4734 34.4623 57.1205V54.3953C34.4623 54.0228 34.15 53.7287 33.7986 53.7287C33.4277 53.7287 33.1349 54.0424 33.1349 54.3953V57.1205ZM26.3219 50.6113C26.0486 50.3368 25.6192 50.3368 25.3654 50.6113L23.4523 52.5327C23.1985 52.7876 23.1985 53.2189 23.4523 53.4934C23.7061 53.7483 24.1355 53.7483 24.4088 53.4934L26.3219 51.572C26.5952 51.3171 26.5952 50.8858 26.3219 50.6113ZM15.2143 73.9424V76.7461C15.2143 77.4519 15.7999 78.0401 16.5027 78.0401H23.8818C24.5845 78.0401 25.1702 77.4519 25.1702 76.7461V74.1385C24.3112 75.1776 23.5694 76.0599 23.1399 76.5696C21.3245 78.7067 17.674 75.7462 19.4895 73.5111C19.6847 73.2562 19.9384 72.9621 20.1922 72.6484H16.4832C15.7999 72.6484 15.2143 73.2366 15.2143 73.9424ZM23.2375 43.1022C23.2375 42.7297 22.9252 42.416 22.5738 42.416H19.8799C19.509 42.416 19.2162 42.7297 19.2162 43.0826C19.2162 43.4552 19.5285 43.7492 19.8799 43.7492H22.5738C22.9252 43.7885 23.2375 43.4748 23.2375 43.1022ZM25.1702 10.3799C25.1702 9.67408 24.5845 9.0859 23.8818 9.0859H16.5027C15.7999 9.0859 15.2143 9.67408 15.2143 10.3799V13.1835C15.2143 13.8894 15.7999 14.4775 16.5027 14.4775H20.2508C19.9775 14.1442 19.7237 13.8305 19.509 13.5757C17.6935 11.3406 21.3245 8.38008 23.1595 10.5171C23.5889 11.0073 24.3112 11.8895 25.1702 12.9287V10.3799ZM26.3219 34.6325L24.4088 32.7111C24.1551 32.4562 23.7256 32.4562 23.4523 32.7111C23.1985 32.966 23.1985 33.3973 23.4523 33.6718L25.3654 35.5932C25.6192 35.848 26.0486 35.848 26.3219 35.5932C26.5952 35.3383 26.5952 34.907 26.3219 34.6325ZM34.4818 29.084C34.4818 28.7115 34.1695 28.3978 33.8181 28.3978C33.4472 28.3978 33.1544 28.7115 33.1544 29.084V31.7896C33.1544 32.1621 33.4667 32.4758 33.8181 32.4758C34.189 32.4758 34.4818 32.1621 34.4818 31.7896V29.084ZM33.74 34.0639C28.7426 34.0639 24.7016 38.1419 24.7016 43.1415C24.7016 48.141 28.7621 52.219 33.74 52.219C38.718 52.219 42.7784 48.141 42.7784 43.1415C42.7979 38.1419 38.7375 34.0639 33.74 34.0639ZM44.1644 32.7111C43.8911 32.4366 43.4617 32.4366 43.2079 32.7111L41.2948 34.6325C41.041 34.8873 41.041 35.3187 41.2948 35.5932C41.5486 35.848 41.978 35.848 42.2513 35.5932L44.1644 33.6718C44.4182 33.4169 44.4182 32.9856 44.1644 32.7111ZM44.1644 52.5327L42.2513 50.6113C41.9976 50.3565 41.5681 50.3565 41.2948 50.6113C41.041 50.8662 41.041 51.2975 41.2948 51.572L43.2079 53.4934C43.4617 53.7483 43.8911 53.7483 44.1644 53.4934C44.4182 53.2385 44.4182 52.8072 44.1644 52.5327ZM48.4396 43.1022C48.4396 42.7297 48.1273 42.4356 47.7759 42.4356H45.0624C44.6915 42.4356 44.3987 42.7493 44.3987 43.1022C44.3987 43.4748 44.711 43.7688 45.0624 43.7688H47.7759C48.1273 43.7885 48.4396 43.4748 48.4396 43.1022ZM65.9697 24.7315C65.9697 24.7315 66.8287 26.398 66.8287 27.6724V47.7096L73.1341 51.0427H73.9345L74.0906 22.9081L72.8022 21.5945H68.449L65.9697 24.7315ZM78.5805 10.3799C78.5805 9.67408 77.9949 9.0859 77.2921 9.0859H69.9131C69.2103 9.0859 68.6247 9.67408 68.6247 10.3799V11.7523C70.7525 8.69378 74.1687 12.0464 72.7437 14.0658C72.6656 14.1834 72.568 14.3207 72.4508 14.4775H77.2921C77.9949 14.4775 78.5805 13.8894 78.5805 13.1835V10.3799ZM78.5805 73.9424C78.5805 73.2366 77.9949 72.6484 77.2921 72.6484H72.5094C72.646 72.8445 72.7632 73.0013 72.8413 73.1386C74.2663 75.1776 70.8306 78.5302 68.7027 75.4325C68.6832 75.3933 68.6442 75.3541 68.6247 75.3148V76.7461C68.6247 77.4519 69.2103 78.0401 69.9131 78.0401H77.2921C77.9949 78.0401 78.5805 77.4519 78.5805 76.7461V73.9424ZM83.1876 3.1845C83.1876 2.81199 82.8752 2.49829 82.5043 2.49829C82.1334 2.49829 81.8211 2.81199 81.8211 3.1845V17.8302C81.8211 18.2027 82.1334 18.5164 82.5043 18.5164C82.8752 18.5164 83.1876 18.2027 83.1876 17.8302V3.1845ZM83.1876 69.9036C83.1876 69.5311 82.8752 69.2174 82.5043 69.2174C82.1334 69.2174 81.8211 69.5311 81.8211 69.9036V84.5493C81.8211 84.9218 82.1334 85.2355 82.5043 85.2355C82.8752 85.2355 83.1876 84.9218 83.1876 84.5493V69.9036Z" fill="#757575"/>
<path d="M33.7404 35.7304C37.8157 35.7304 41.1195 39.0484 41.1195 43.1414C41.1195 47.2344 37.8157 50.5525 33.7404 50.5525C29.665 50.5525 26.3613 47.2344 26.3613 43.1414C26.3613 39.0484 29.665 35.7304 33.7404 35.7304Z" fill="#757575"/>
<path opacity="0.25" d="M90.1967 19.6731L86.6829 19.3006V2.43948L85.3945 0.0279388H64.37L57.9084 8.18402H39.4803L34.3071 0.0279388H15.4886L2.58496 8.18402V19.6731L7.73859 22.4376H15.4886V64.5904H7.73859L2.83874 67.3744L2.93635 78.9419L15.4886 87H34.3071L39.5584 78.9419H58.1036L64.37 87H85.3945L86.6829 84.5885V67.7273L90.1967 67.3744V19.6731Z" fill="url(#paint0_linear_6561_4718)"/>
<path d="M9.78816 86.4511H14.8051L2.9557 78.8048L2.76048 70.3742C2.76048 70.3742 2.21389 70.7075 0.925478 73.2955C-0.36293 75.8835 0.203189 79.7851 1.29638 82.0005C2.38958 84.216 3.69751 84.5885 3.69751 84.5885H4.81022L5.18113 85.3336L6.27432 85.8825L7.38704 85.3336H8.67545L9.78816 86.4511ZM86.8779 69.9625H91.6802L92.7929 70.335H95.194L95.7406 70.884L96.8533 70.335C96.8533 70.335 97.966 71.2565 99.2544 73.8445C100.543 76.4325 99.9963 80.334 98.8835 82.5495C97.7513 84.7846 96.4629 85.1571 96.4629 85.1571H95.3502L94.9793 85.9021L93.8861 86.4511L92.7734 85.9021H91.485L90.3918 86.7256L86.1556 85.9217L86.7022 84.8826L86.8779 69.9625ZM2.85809 16.6539C2.85809 16.6539 2.1358 16.5166 0.847393 13.909C-0.441015 11.3211 0.105582 7.41946 1.2183 5.20399C2.33101 2.98852 3.61942 2.616 3.61942 2.616H4.71262L5.08352 1.87097L6.19624 1.32201L7.30895 1.87097H8.59736L9.71008 0.753441H14.5123L2.79953 8.16449L2.85809 16.6539ZM96.7362 17.3205L95.6235 16.7715L95.0769 17.3205H92.6758L91.563 17.693H86.7803V2.38073L86.1947 1.18477L90.2746 0.635803L91.3874 1.75334H92.6758L93.7885 1.20438L94.9012 1.75334L95.2721 2.49837H96.3848C96.3848 2.49837 97.6732 2.87088 98.7859 5.08636C99.8987 7.30183 100.445 11.2034 99.1568 13.7914C97.8489 16.399 96.7362 17.3205 96.7362 17.3205ZM97.6342 67.7078C97.6342 68.492 96.6581 68.5116 96.6581 68.5116C96.6581 68.5116 93.1247 68.5313 92.012 68.5116C90.8993 68.492 91.036 67.9823 91.036 67.9823L90.4308 67.845V68.2372H89.7476L89.5914 67.8843H88.0882L87.2098 67.7078L90.3527 67.3745L91.1141 67.4333L91.3093 67.0608L96.5215 67.0804C96.5605 67.0804 97.6342 66.9236 97.6342 67.7078ZM96.5605 66.4334H92.7148V20.5947H96.5605V66.4334ZM91.8168 18.536C92.9295 18.5164 96.4629 18.536 96.4629 18.536C96.4629 18.536 97.439 18.5556 97.439 19.3399C97.439 20.1241 96.3458 19.9673 96.3458 19.9673L91.1336 19.9869L90.9384 19.6144L90.177 19.6732L87.0341 19.3399L87.9126 19.1634H89.4157L89.5719 18.8105H90.2551V19.2027L90.8603 19.0654C90.8408 19.0654 90.7041 18.5556 91.8168 18.536ZM19.5098 13.5757C17.6943 11.3407 21.3253 8.38016 23.1603 10.5172C24.9758 12.6543 32.3353 21.6534 32.3353 21.6534H26.2056C26.2056 21.673 21.3448 15.8304 19.5098 13.5757ZM68.684 75.4326C66.7319 72.5897 61.0707 63.767 61.0707 63.767L64.8188 61.728C64.8188 61.728 71.417 71.0996 72.8226 73.1387C74.2476 75.1581 70.8119 78.5107 68.684 75.4326ZM65.0531 25.1433L61.305 23.1042C61.305 23.1042 66.6343 14.6345 68.6059 11.772C70.7338 8.67424 74.1695 12.0269 72.7445 14.0659C71.3194 16.1049 65.0531 25.1433 65.0531 25.1433ZM26.2251 65.3159L32.2572 65.4531C32.2572 65.4531 24.9758 74.413 23.1603 76.5501C21.3448 78.6871 17.6943 75.7266 19.5098 73.4916C21.3253 71.2761 26.2251 65.3159 26.2251 65.3159ZM90.2356 45.906C90.8798 45.906 91.3874 46.5726 91.3874 47.3764C91.3874 48.1803 90.8798 48.8469 90.2356 48.8469V45.906ZM91.3874 56.4148C91.3874 57.2186 90.8798 57.8852 90.2356 57.8852V54.9443C90.8798 54.9639 91.3874 55.6109 91.3874 56.4148ZM90.2356 37.6715C90.8798 37.6715 91.3874 38.3381 91.3874 39.1419C91.3874 39.9458 90.8798 40.6124 90.2356 40.6124V37.6715ZM90.2356 28.8292C90.8798 28.8292 91.3874 29.4958 91.3874 30.2996C91.3874 31.1035 90.8798 31.7701 90.2356 31.7701V28.8292Z" fill="black"/>
<path opacity="0.4" d="M58.1034 78.7656H39.5581V72.6486H58.1034V78.7656Z" fill="black"/>
<path opacity="0.15" d="M24.8198 72.3739H14.4539C13.7512 72.3739 13.1655 72.9621 13.1655 73.6679V77.0598C13.1655 77.7656 13.7512 78.3538 14.4539 78.3538H24.8198C25.5225 78.3538 26.1082 77.7656 26.1082 77.0598V73.6679C26.1082 72.9425 25.5225 72.3739 24.8198 72.3739Z" fill="black"/>
<path opacity="0.15" d="M78.1712 72.1779H67.5906C66.8879 72.1779 66.3022 72.7661 66.3022 73.4719V77.1186C66.3022 77.8244 66.8879 78.4126 67.5906 78.4126H78.1712C78.874 78.4126 79.4596 77.8244 79.4596 77.1186V73.4719C79.4596 72.7661 78.8935 72.1779 78.1712 72.1779Z" fill="black"/>
<path opacity="0.5" d="M58.1035 78.8242V68.5115L61.7345 64.7863L64.7408 69.629V78.785L58.1035 78.8242Z" fill="url(#paint1_linear_6561_4718)"/>
<path opacity="0.5" d="M9.1247 78.7656V64.5905H7.9339L2.76074 67.3746L2.93643 78.7656H9.1247Z" fill="url(#paint2_linear_6561_4718)"/>
<path opacity="0.5" d="M33.1943 67.2373V78.7656H39.5583V72.6486L33.1943 67.2373Z" fill="url(#paint3_linear_6561_4718)"/>
<path opacity="0.5" d="M3.09229 78.9419H39.5581L34.3069 87H15.4883L3.09229 78.9419Z" fill="url(#paint4_linear_6561_4718)"/>
<path d="M89.8843 66.943L86.7609 67.3547L84.2427 65.0216L84.2231 21.2807L86.4486 19.6338L89.9819 19.9867L89.8843 66.943Z" fill="url(#paint5_linear_6561_4718)"/>
<path d="M52.1689 62.3946V24.3002C52.1689 22.6337 54.1406 22.2808 54.1406 22.2808L65.3068 25.5157C65.3068 25.5157 66.7514 25.9667 66.7514 28.4174V58.7675C66.7514 61.3751 65.3068 61.5515 65.3068 61.5515L54.1406 64.0611C54.1406 64.0415 52.1689 64.2767 52.1689 62.3946Z" fill="url(#paint6_linear_6561_4718)"/>
<path d="M52.7739 60.7673V25.8883C52.7739 24.3787 54.4528 24.0454 54.4528 24.0454L64.0182 27.0059C64.0182 27.0059 65.2481 27.4176 65.2481 29.6527V57.4343C65.2481 59.8066 64.0182 59.9831 64.0182 59.9831L54.4528 62.277C54.4723 62.277 52.7739 62.5123 52.7739 60.7673Z" fill="url(#paint7_linear_6561_4718)"/>
<path opacity="0.15" d="M24.6245 8.81144H14.2586C13.5559 8.81144 12.9702 9.39962 12.9702 10.1054V13.4973C12.9702 14.2031 13.5559 14.7913 14.2586 14.7913H24.6245C25.3272 14.7913 25.9129 14.2031 25.9129 13.4973V10.1054C25.9129 9.38001 25.3272 8.81144 24.6245 8.81144Z" fill="black"/>
<path opacity="0.15" d="M77.9959 8.6154H67.4154C66.7126 8.6154 66.127 9.20358 66.127 9.90939V13.5561C66.127 14.2619 66.7126 14.8501 67.4154 14.8501H77.9959C78.6987 14.8501 79.2843 14.2619 79.2843 13.5561V9.90939C79.2843 9.20358 78.6987 8.6154 77.9959 8.6154Z" fill="black"/>
<path opacity="0.3" d="M86.1553 85.9217L90.3914 86.7256L91.4846 85.9021H92.773L93.8857 86.4511L94.9984 85.9021L95.3693 85.1571H96.4821C96.4821 85.1571 97.7705 84.7846 98.8832 82.5691C99.9959 80.3536 100.543 76.4521 99.2541 73.8641C97.9657 71.2761 96.853 70.3546 96.853 70.3546L95.7403 70.9036L95.1937 70.3546H92.7925L91.6798 69.9821H86.8776L86.7214 84.8826L86.1553 85.9217Z" fill="url(#paint8_linear_6561_4718)"/>
<path opacity="0.3" d="M86.1948 1.18465L90.2748 0.635683L91.3875 1.75323H92.6759L93.7886 1.20425L94.9013 1.75323L95.2722 2.49825H96.385C96.385 2.49825 97.6734 2.87077 98.7861 5.08624C99.8988 7.30171 100.445 11.2033 99.157 13.7913C97.8686 16.3793 96.7559 17.3204 96.7559 17.3204L95.6432 16.7714L95.0966 17.3204H92.6954L91.5827 17.6929H86.8V2.38061L86.1948 1.18465Z" fill="url(#paint9_linear_6561_4718)"/>
<path opacity="0.3" d="M14.805 86.4509H9.78805L8.67534 85.3334H7.38693L6.27421 85.8824L5.1615 85.3334L4.79059 84.5884H3.67787C3.67787 84.5884 2.38947 84.2158 1.27675 82.0004C0.164034 79.7849 -0.363042 75.8833 0.925366 73.2953C2.21377 70.7073 2.76037 70.374 2.76037 70.374L2.93606 78.8046L14.805 86.4509Z" fill="url(#paint10_linear_6561_4718)"/>
<g opacity="0.3">
<path d="M33.7409 35.7301C37.8162 35.7301 41.1199 39.0482 41.1199 43.1412C41.1199 47.2342 37.8162 50.5522 33.7409 50.5522C29.6655 50.5522 26.3618 47.2342 26.3618 43.1412C26.3618 39.0482 29.6655 35.7301 33.7409 35.7301Z" fill="url(#paint11_radial_6561_4718)"/>
</g>
<g opacity="0.3">
<path d="M51.9152 24.202V62.3552C51.9152 63.9237 53.0669 64.3354 54.1211 64.1982C53.3207 64.7864 52.657 65.2961 52.0909 65.2961H18.3385L15.6641 63.1003V23.7315C15.6641 23.2217 18.319 21.6337 18.9436 21.6337H51.3491C52.2861 21.6337 53.7307 22.1434 53.7307 22.1434C53.7307 22.1434 51.9152 22.5944 51.9152 24.202ZM33.1357 57.1205C33.1357 57.493 33.448 57.7871 33.7994 57.7871C34.1703 57.7871 34.4631 57.4734 34.4631 57.1205V54.3952C34.4631 54.0227 34.1508 53.7286 33.7994 53.7286C33.4285 53.7286 33.1357 54.0423 33.1357 54.3952V57.1205ZM23.4726 53.4934C23.7264 53.7678 24.1754 53.7678 24.4291 53.4934L26.3422 51.572C26.596 51.3171 26.596 50.8662 26.3422 50.6113C26.0689 50.3368 25.6395 50.3368 25.3857 50.6113L23.4726 52.5327C23.1993 52.8071 23.1993 53.2385 23.4726 53.4934ZM22.5551 42.4356H19.8612C19.4902 42.4356 19.1974 42.7493 19.1974 43.1022C19.1974 43.4747 19.5098 43.7688 19.8612 43.7688H22.5551C22.926 43.7688 23.2188 43.4551 23.2188 43.1022C23.2383 42.7297 22.926 42.4356 22.5551 42.4356ZM26.3227 34.6324L24.4096 32.711C24.1558 32.4562 23.7069 32.4562 23.4531 32.711C23.1993 32.9659 23.1993 33.3972 23.4531 33.6717L25.3662 35.5931C25.6395 35.848 26.0689 35.848 26.3227 35.5931C26.596 35.3382 26.596 34.9069 26.3227 34.6324ZM34.4826 29.0839C34.4826 28.7114 34.1703 28.3977 33.8189 28.3977C33.448 28.3977 33.1552 28.7114 33.1552 29.0839V31.7896C33.1552 32.1621 33.4675 32.4758 33.8189 32.4758C34.1898 32.4758 34.4826 32.1621 34.4826 31.7896V29.0839ZM33.7408 34.0638C28.7434 34.0638 24.7024 38.1419 24.7024 43.1414C24.7024 48.1409 28.7629 52.219 33.7408 52.219C38.7188 52.219 42.7792 48.1409 42.7792 43.1414C42.7987 38.1419 38.7383 34.0638 33.7408 34.0638ZM44.1457 32.711C43.8919 32.4562 43.4429 32.4562 43.1891 32.711L41.2761 34.6324C41.0223 34.9069 41.0223 35.3186 41.2761 35.5931C41.5298 35.848 41.9788 35.848 42.2326 35.5931L44.1457 33.6717C44.419 33.4168 44.419 32.9855 44.1457 32.711ZM44.1457 52.5327L42.2326 50.6113C41.9788 50.3368 41.5298 50.3368 41.2761 50.6113C41.0223 50.8662 41.0223 51.3171 41.2761 51.572L43.1891 53.4934C43.4429 53.7678 43.8919 53.7678 44.1457 53.4934C44.419 53.2385 44.419 52.8071 44.1457 52.5327ZM47.7571 42.4356H45.0437C44.6728 42.4356 44.38 42.7493 44.38 43.1022C44.38 43.4747 44.6923 43.7688 45.0437 43.7688H47.7571C48.128 43.7688 48.4209 43.4551 48.4209 43.1022C48.4404 42.7297 48.128 42.4356 47.7571 42.4356Z" fill="url(#paint12_radial_6561_4718)"/>
</g>
<path d="M33.7995 25.3197C23.9608 25.3197 15.957 33.3582 15.957 43.2396C15.957 53.121 23.9608 61.1594 33.7995 61.1594C43.6383 61.1594 51.642 53.121 51.642 43.2396C51.642 33.3582 43.6383 25.3197 33.7995 25.3197ZM33.7995 59.4929C24.8783 59.4929 17.6163 52.1995 17.6163 43.2396C17.6163 34.2796 24.8783 26.9862 33.7995 26.9862C42.7208 26.9862 49.9827 34.2796 49.9827 43.2396C49.9827 52.1995 42.7208 59.4929 33.7995 59.4929Z" fill="url(#paint13_linear_6561_4718)"/>
<path d="M33.7996 33.162C28.2751 33.162 23.7656 37.6909 23.7656 43.2394C23.7656 48.7879 28.2751 53.3169 33.7996 53.3169C39.3241 53.3169 43.8336 48.7879 43.8336 43.2394C43.8336 37.6909 39.3241 33.162 33.7996 33.162ZM33.7996 52.3758C28.7826 52.3758 24.7026 48.2782 24.7026 43.2394C24.7026 38.2007 28.7826 34.1031 33.7996 34.1031C38.8166 34.1031 42.8965 38.2007 42.8965 43.2394C42.8965 48.2782 38.8166 52.3758 33.7996 52.3758Z" fill="url(#paint14_linear_6561_4718)"/>
<path opacity="0.1" d="M33.7994 35.5932C37.9287 35.5932 41.2761 38.9551 41.2761 43.1022C41.2761 47.2494 37.9287 50.6113 33.7994 50.6113C29.6702 50.6113 26.3228 47.2494 26.3228 43.1022C26.3228 38.9551 29.6702 35.5932 33.7994 35.5932Z" fill="url(#paint15_radial_6561_4718)"/>
<path d="M23.6483 75.3541C23.6483 75.3541 22.4965 77.0402 21.4033 76.3148C20.5249 75.7463 20.5639 74.7071 21.2862 73.6092C22.0085 72.5113 28.0796 65.3747 28.0796 65.3747L31.8668 65.4335L23.6483 75.3541Z" fill="url(#paint16_linear_6561_4718)"/>
<path opacity="0.5" d="M32.6084 65.5511V66.747L39.558 72.6484H58.1033V68.5116L61.7342 64.7864L61.0705 63.7669L59.5478 63.1984L54.1404 64.4335C54.1404 64.4335 52.7935 65.5511 52.1102 65.5511H32.6084Z" fill="url(#paint17_linear_6561_4718)"/>
<path d="M70.695 72.2759C70.695 72.2759 72.3738 74.2365 71.3978 75.0991C70.6169 75.8049 69.6604 75.5501 68.8795 74.4717C67.7668 72.9425 61.4224 63.5708 61.4224 63.5708L63.6478 62.3748L70.695 72.2759Z" fill="url(#paint18_linear_6561_4718)"/>
<path d="M95.3499 66.4333H93.0659V20.5946H95.3499V66.4333Z" fill="url(#paint19_linear_6561_4718)"/>
<path d="M94.9793 68.5117H92.6953V67.0805H94.9793V68.5117Z" fill="url(#paint20_linear_6561_4718)"/>
<path d="M95.1741 19.9673H92.8901V18.5164H95.1741V19.9673Z" fill="url(#paint21_linear_6561_4718)"/>
<g opacity="0.25">
<path d="M73.1546 65.4531L80.5532 65.3355V56.003L83.7938 53.0622V34.1032L80.6508 31.4172V21.7318H72.8813L74.0722 22.9474V64.0415L73.1546 65.4531Z" fill="url(#paint22_radial_6561_4718)"/>
</g>
<path opacity="0.3" d="M14.6489 0.49855H9.63196L8.51924 1.61609H7.23083L6.11811 1.06713L5.0054 1.61609L4.63449 2.36112H3.5413C3.5413 2.36112 2.25289 2.73363 1.14017 4.94911C0.027457 7.16458 -0.51914 11.0662 0.769268 13.6542C2.05768 16.2421 2.60427 16.5754 2.60427 16.5754L2.77997 8.14488L14.6489 0.49855Z" fill="url(#paint23_linear_6561_4718)"/>
<path d="M89.7474 84.8631L88.7714 86.5884H89.5132L90.3526 86.5688L91.2311 85.412L90.7235 84.8827C90.743 84.8631 89.7474 84.8631 89.7474 84.8631ZM98.2587 80.04L98.4344 79.5498L99.0396 79.1969H99.7619L98.4735 82.079L97.6341 83.4122L96.5604 84.6866L95.76 84.7454L96.9118 82.5496L98.2587 80.04ZM91.3677 75.7855L91.8167 75.3346L93.1637 76.4129L94.3545 76.0796L96.0333 77.354L96.0919 78.2362H96.0723L96.0138 79.0597L94.3349 80.3341L93.1441 80.0008L91.7972 81.0791L91.3482 80.6282L87.4244 86.0002L86.6826 86.0198V84.3141L89.6693 80.5693L91.4263 79.8831L91.8948 79.8047L92.0705 80.1184L92.3438 79.9616V79.5498L93.1246 79.4126L93.7688 78.4323L94.2178 78.2362H94.2373L93.7884 78.0402L93.1441 77.0599L92.3633 76.9226V76.5109L92.09 76.3541L91.9143 76.6678L91.4458 76.5893L89.6889 75.9031L86.6631 72.1388V70.4723L87.4439 70.4919L91.3677 75.7855ZM88.8495 76.256L89.767 78.197L89.7474 78.2558L88.8299 80.1968L86.7802 80.6674L86.8192 79.8635L86.8388 76.5893L86.7997 75.7071L88.8495 76.256ZM90.7625 71.6094H89.767L88.7909 69.8841H89.5327L90.3721 69.9037L91.4067 71.1389L90.7625 71.6094ZM95.2915 80.3341L96.8142 79.4714L97.2046 79.1969L97.4584 78.2558L97.6731 78.2362L97.4779 78.2166L97.2241 77.2755L96.8337 77.0011L95.311 76.1384L92.3828 72.4525L92.0705 71.1585L92.2071 70.9428L93.1441 70.9624L93.6322 71.3153L95.7405 74.5111L95.3501 75.2757L97.0094 76.5501L97.9854 76.5697L98.1806 77.0403L98.2978 78.1186L98.3173 78.2755H98.2783L98.1611 79.3538L97.9659 79.8243L96.9898 79.8439L95.3305 81.1183L95.6429 81.9418L93.5736 85.1767L93.0465 85.5297L92.1876 85.5689L92.0509 85.3532L92.3633 84.0592L95.2915 80.3341ZM98.4344 76.9226L98.2587 76.4325L96.9118 73.9425L95.76 71.7467L96.5409 71.8055L97.6341 73.0799L98.4735 74.4131L98.7858 75.609L99.7814 77.2952L98.4344 76.9226ZM89.5327 17.8107H88.7909L89.767 16.0853H90.7625L91.2701 16.6147L90.3916 17.7715L89.5327 17.8107ZM97.6145 14.6149L96.5409 15.8893L95.7405 15.9481L96.8922 13.7522L98.2392 11.2623L98.4149 10.7721L99.0201 10.4192H99.7424L98.4539 13.3013L97.6145 14.6149ZM94.3545 7.32148L96.0333 8.59586L96.0919 9.47813H96.0723L96.0138 10.3016L94.3349 11.576L93.1441 11.2427L91.7972 12.321L91.3482 11.8701L87.4244 17.2029L86.6826 17.2225V15.5168L89.6693 11.772L91.4263 11.0858L91.8948 11.0074L92.0705 11.3211L92.3438 11.1642V10.7525L93.1246 10.6153L93.7688 9.63498L94.2178 9.43892H94.2373L93.7884 9.24286L93.1441 8.26257L92.3633 8.12533V7.7136L92.09 7.53715L91.9143 7.85084L91.4458 7.77242L89.6889 7.0862L86.6631 3.32186V1.65536L87.4439 1.67496L91.3677 6.98817L91.8167 6.53724L93.1637 7.61557L94.3545 7.32148ZM88.8495 7.47832L89.767 9.41931L89.7474 9.47813L88.8299 11.4191L86.7802 11.8897L86.8192 11.0858L86.8388 7.81163L86.7997 6.92936L88.8495 7.47832ZM89.767 2.83172L88.7909 1.10638H89.5327L90.3721 1.12599L91.4067 2.36117L90.7625 2.83172H89.767ZM96.9898 7.79202L97.9659 7.81163L98.1611 8.28217L98.2783 9.3605L98.2978 9.53695H98.2587L98.1416 10.6153L97.9464 11.0858L96.9703 11.1054L95.311 12.3798L95.6234 13.2033L93.5736 16.3794L93.0465 16.7323L92.1876 16.7715L92.0509 16.5559L92.3633 15.2619L95.2915 11.576L96.8142 10.7133L97.2046 10.4388L97.4584 9.49774L97.6731 9.47813L97.4779 9.45853L97.2241 8.51744L96.8337 8.24296L95.311 7.38029L92.3828 3.69437L92.0705 2.40038L92.2071 2.18472L93.1246 2.24354L93.6127 2.59644L95.721 5.79221L95.3305 6.57645L96.9898 7.79202ZM98.2587 7.65478L96.9118 5.16483L95.76 2.96896L96.5409 3.02778L97.6341 4.30216L98.4735 5.63537L98.7858 6.83133L99.7814 8.51744L98.4539 8.16454L98.2587 7.65478ZM0.242098 76.5305L1.53051 73.6484L2.3504 72.3152L2.74083 71.7859L2.83844 71.9035L2.91652 73.4916L1.72572 75.6679L1.56955 76.158L0.964388 76.5109L0.242098 76.5305ZM9.59282 85.8041L8.55819 84.569L9.20239 84.0984H10.198L11.174 85.8237H10.4322L9.59282 85.8041ZM6.84031 84.7454L6.35228 84.3925L4.26349 81.1967L4.65392 80.4125L2.99461 79.1381L2.03806 79.1185L1.84285 78.648L1.72572 77.5696L1.7062 77.4128H1.74524L1.86237 76.3345L2.05758 75.8639L2.99461 75.8247L2.95556 76.3737L2.79939 76.5305L2.54562 77.4716L2.33088 77.4912L2.52609 77.5108L2.77987 78.4519L3.03365 78.9421L5.20052 80.2557L7.60164 83.275L7.91398 84.569L7.77733 84.7846L6.84031 84.7454ZM1.7062 79.2754L3.05317 81.7653L4.20493 83.9612L3.42408 83.9024L2.33088 82.628L1.51099 81.2948L1.19864 80.1184L0.203056 78.4323L1.53051 78.7852L1.7062 79.2754ZM1.41338 10.7525L1.56955 11.2427L2.76035 13.4189L2.68227 15.007L2.58466 15.1246L2.19423 14.5953L1.37434 13.2621L0.0859276 10.38H0.808217L1.41338 10.7525ZM9.06574 2.83172L8.42154 2.36117L9.45617 1.12599L10.2956 1.10638H11.0374L10.0613 2.83172H9.06574ZM5.02483 6.67448L2.85796 7.98808L2.60418 8.47823L2.3504 9.41931L2.15519 9.43892L2.36992 9.45853L2.6237 10.3996L2.77987 10.5565L2.81891 11.1054L1.88189 11.0662L1.68668 10.5957L1.56955 9.51734H1.53051L1.55003 9.34089L1.66716 8.26257L1.86237 7.79202L2.81891 7.77242L4.47823 6.49802L4.0878 5.71379L6.19611 2.53763L6.68414 2.18472L7.60164 2.1259L7.73829 2.34157L7.42595 3.63555L5.02483 6.67448ZM1.55003 7.65478L1.39386 8.16454L0.0664062 8.51744L1.06199 6.83133L1.37434 5.63537L2.19423 4.30216L3.28743 3.02778L4.06828 2.96896L2.91652 5.16483L1.55003 7.65478Z" fill="black"/>
<path opacity="0.4" d="M58.1034 14.458H39.5581V8.34095H58.1034V14.458Z" fill="black"/>
<path opacity="0.5" d="M58.1035 8.28195V18.6143L61.7345 22.3198L64.7408 17.4771V8.32117L58.1035 8.28195Z" fill="url(#paint24_linear_6561_4718)"/>
<path opacity="0.5" d="M9.1247 8.36061V22.5161H7.9339L2.76074 19.7517L2.93643 8.36061H9.1247Z" fill="url(#paint25_linear_6561_4718)"/>
<path opacity="0.5" d="M33.1943 19.8889V8.36061H39.5583V14.4581L33.1943 19.8889Z" fill="url(#paint26_linear_6561_4718)"/>
<path opacity="0.5" d="M3.09229 8.16455H39.5581L34.3069 0.1065H15.4883L3.09229 8.16455Z" fill="url(#paint27_linear_6561_4718)"/>
<path opacity="0.5" d="M32.6084 21.5162V20.3594L39.558 14.458H58.1033V18.6145L61.7342 22.3396L61.2462 23.1238L59.8602 23.8101L54.3552 22.222C54.3552 22.222 52.364 21.5162 51.6807 21.5162C50.978 21.4966 32.6084 21.5162 32.6084 21.5162Z" fill="url(#paint28_linear_6561_4718)"/>
<path d="M23.6483 11.4385C23.6483 11.4385 22.4965 9.75242 21.4033 10.4778C20.5249 11.0464 20.5639 12.0855 21.2862 13.1835C22.0085 14.2814 28.0796 21.418 28.0796 21.418L31.8668 21.3592L23.6483 11.4385Z" fill="url(#paint29_linear_6561_4718)"/>
<path d="M70.695 14.5167C70.695 14.5167 72.3738 12.5561 71.3978 11.6935C70.6169 10.9876 69.6604 11.2425 68.8795 12.3208C67.7668 13.8501 61.4224 23.2218 61.4224 23.2218L63.6478 24.4177L70.695 14.5167Z" fill="url(#paint30_linear_6561_4718)"/>
<path d="M59.7236 63.1591L61.2073 63.6885L62.8861 62.7474L62.7299 62.3945L59.7236 63.1591Z" fill="url(#paint31_linear_6561_4718)"/>
<path d="M60.0361 23.8491L61.1488 23.2414L63.1791 24.2609L63.0424 24.6138L60.0361 23.8491Z" fill="url(#paint32_linear_6561_4718)"/>
<path opacity="0.8" d="M73.9742 64.2179L72.9005 65.7275H68.2154C68.1959 65.7275 66.6537 65.7471 66.5561 63.8061C66.4585 62.0024 67.7274 57.1989 68.2935 55.552C68.8011 54.0816 69.4062 52.6307 70.7532 52.1994V51.5328L66.8489 49.631C66.7123 49.7683 66.8489 47.7293 66.8489 47.7293L73.1543 51.0623H73.9547L73.9742 64.2179ZM73.6228 63.0415H70.6165C70.6165 63.0415 70.0504 62.9827 70.2066 62.12C70.3628 61.2574 71.1827 57.4538 71.4755 56.5912C71.7683 55.7285 72.393 55.4344 72.8029 55.4344H73.5643V54.8658H72.5882C71.5926 54.8658 71.1631 55.6501 70.6946 57.1009C70.2652 58.4341 69.5038 61.7083 69.5624 62.8455C69.6014 63.8061 70.2066 63.8454 70.2847 63.8454H73.6228V63.0415ZM73.5447 52.5915H71.6707C70.1676 52.5915 69.5234 53.6895 68.8206 55.7089C68.1764 57.5715 67.0246 62.1592 67.1027 63.7669C67.1808 65.1001 68.0593 65.159 68.1959 65.159H72.6468L73.3886 64.2179H70.3042C70.2847 64.2179 69.2696 64.2375 69.1915 62.8651C69.1329 61.5907 69.9723 58.1596 70.3432 56.9833C70.7337 55.7285 71.2412 54.4933 72.5882 54.4933H73.5643L73.5447 52.5915Z" fill="url(#paint33_linear_6561_4718)"/>
<path opacity="0.5" d="M85.3943 87H64.3699L58.1035 78.9419L80.8849 78.9223V56.0422L83.8912 53.317V65.1982L86.6828 67.7469V84.6081L85.3943 87ZM83.1884 69.9036C83.1884 69.5311 82.8761 69.2174 82.5052 69.2174C82.1343 69.2174 81.8219 69.5311 81.8219 69.9036V84.5493C81.8219 84.9218 82.1343 85.2355 82.5052 85.2355C82.8761 85.2355 83.1884 84.9218 83.1884 84.5493V69.9036Z" fill="url(#paint34_linear_6561_4718)"/>
<path opacity="0.5" d="M83.8912 21.9279V33.8091L80.8849 31.0838V8.20369L58.1035 8.18409L64.3699 0.126034H85.3943L86.6828 2.53757V19.3987L83.8912 21.9279ZM83.1884 3.18456C83.1884 2.81205 82.8761 2.49836 82.5052 2.49836C82.1343 2.49836 81.8219 2.81205 81.8219 3.18456V17.8302C81.8219 18.2027 82.1343 18.5164 82.5052 18.5164C82.8761 18.5164 83.1884 18.2027 83.1884 17.8302V3.18456Z" fill="url(#paint35_linear_6561_4718)"/>
<path d="M89.9231 85.9805V70.2957H86.6045V85.9805C86.585 85.9805 89.9231 85.9805 89.9231 85.9805ZM86.585 1.51799H89.9036V17.2028H86.585V1.51799Z" fill="url(#paint36_linear_6561_4718)"/>
<g opacity="0.22">
<path d="M33.7994 59.4341C24.8195 59.4341 17.5381 52.1211 17.5381 43.1023C17.5381 34.0836 24.8195 26.7705 33.7994 26.7705C42.7792 26.7705 50.0606 34.0836 50.0606 43.1023C50.0606 52.1211 42.7987 59.4341 33.7994 59.4341ZM33.1356 57.1206C33.1356 57.4931 33.448 57.7872 33.7994 57.7872C34.1703 57.7872 34.4631 57.4735 34.4631 57.1206V54.3954C34.4631 54.0228 34.1507 53.7287 33.7994 53.7287C33.4285 53.7287 33.1356 54.0424 33.1356 54.3954V57.1206ZM23.4726 53.4935C23.7264 53.768 24.1753 53.768 24.4291 53.4935L26.3422 51.5721C26.596 51.3172 26.596 50.8663 26.3422 50.6114C26.0689 50.3369 25.6394 50.3369 25.3857 50.6114L23.4726 52.5328C23.1993 52.8073 23.1993 53.2386 23.4726 53.4935ZM22.5551 42.4357H19.8611C19.4902 42.4357 19.1974 42.7494 19.1974 43.1023C19.1974 43.4748 19.5097 43.7689 19.8611 43.7689H22.5551C22.926 43.7689 23.2188 43.4552 23.2188 43.1023C23.2383 42.7298 22.926 42.4357 22.5551 42.4357ZM26.3227 34.6325L24.4096 32.7112C24.1558 32.4563 23.7068 32.4563 23.4531 32.7112C23.1993 32.966 23.1993 33.3974 23.4531 33.6719L25.3661 35.5932C25.6394 35.8481 26.0689 35.8481 26.3227 35.5932C26.596 35.3384 26.596 34.907 26.3227 34.6325ZM34.4826 29.0841C34.4826 28.7115 34.1703 28.3978 33.8189 28.3978C33.448 28.3978 33.1552 28.7115 33.1552 29.0841V31.7897C33.1552 32.1622 33.4675 32.4759 33.8189 32.4759C34.1898 32.4759 34.4826 32.1622 34.4826 31.7897V29.0841ZM33.7018 32.9856C28.0796 32.9856 23.5311 37.5538 23.5311 43.2003C23.5311 48.8469 28.0796 53.4151 33.7018 53.4151C39.3239 53.4151 43.8724 48.8469 43.8724 43.2003C43.8724 37.5538 39.3239 32.9856 33.7018 32.9856ZM44.1457 32.7112C43.8919 32.4563 43.4429 32.4563 43.1891 32.7112L41.276 34.6325C41.0223 34.907 41.0223 35.3187 41.276 35.5932C41.5298 35.8481 41.9788 35.8481 42.2326 35.5932L44.1457 33.6719C44.419 33.417 44.419 32.9856 44.1457 32.7112ZM44.1457 52.5328L42.2326 50.6114C41.9788 50.3369 41.5298 50.3369 41.276 50.6114C41.0223 50.8663 41.0223 51.3172 41.276 51.5721L43.1891 53.4935C43.4429 53.768 43.8919 53.768 44.1457 53.4935C44.419 53.2386 44.419 52.8073 44.1457 52.5328ZM47.7571 42.4357H45.0437C44.6727 42.4357 44.3799 42.7494 44.3799 43.1023C44.3799 43.4748 44.6923 43.7689 45.0437 43.7689H47.7571C48.128 43.7689 48.4208 43.4552 48.4208 43.1023C48.4404 42.7298 48.128 42.4357 47.7571 42.4357Z" fill="url(#paint37_radial_6561_4718)"/>
</g>
<path opacity="0.8" d="M73.6227 63.0415H70.6164C70.6164 63.0415 70.0503 62.9827 70.2064 62.12C70.3626 61.2574 71.1825 57.4538 71.4753 56.5911C71.7682 55.7285 72.3928 55.4344 72.8028 55.4344H73.5641L73.6227 63.0415Z" fill="black"/>
<path opacity="0.25" d="M66.2437 25.3196C66.2437 25.3196 67.7273 28.8683 68.5667 28.4174C69.4061 27.9664 69.4061 27.241 70.3431 27.7312C71.2802 28.2213 71.6706 28.9663 72.1586 29.9466C72.6271 30.9269 73.1737 32.3974 72.8809 32.4758C72.6076 32.5738 71.3973 30.2211 70.3431 30.7505C69.5623 31.1426 70.714 35.3579 72.022 34.9854C72.6662 34.7893 72.7833 33.0248 73.1152 33.3189C73.6032 33.7502 74.0131 35.9265 74.0131 35.9265L73.9155 51.0623L71.2606 50.0624C71.2606 50.0624 73.6227 40.2986 66.8293 28.3586C66.8293 28.3586 66.9074 26.594 66.2437 25.3196Z" fill="white"/>
</g>
<defs>
<linearGradient id="paint0_linear_6561_4718" x1="2.58496" y1="43.514" x2="90.1967" y2="43.514" gradientUnits="userSpaceOnUse">
<stop stop-opacity="0.5"/>
<stop offset="0.53" stop-opacity="0.05"/>
<stop offset="1" stop-opacity="0.5"/>
</linearGradient>
<linearGradient id="paint1_linear_6561_4718" x1="58.1035" y1="71.8053" x2="64.7408" y2="71.8053" gradientUnits="userSpaceOnUse">
<stop/>
<stop offset="1" stop-color="#B3B3B3"/>
</linearGradient>
<linearGradient id="paint2_linear_6561_4718" x1="2.76074" y1="71.6781" x2="9.1247" y2="71.6781" gradientUnits="userSpaceOnUse">
<stop/>
<stop offset="1" stop-color="#B3B3B3"/>
</linearGradient>
<linearGradient id="paint3_linear_6561_4718" x1="33.1943" y1="73.0015" x2="39.5661" y2="73.0015" gradientUnits="userSpaceOnUse">
<stop stop-color="#B3B3B3"/>
<stop offset="1"/>
</linearGradient>
<linearGradient id="paint4_linear_6561_4718" x1="21.3252" y1="78.9419" x2="21.3252" y2="87" gradientUnits="userSpaceOnUse">
<stop stop-color="#B3B3B3"/>
<stop offset="1"/>
</linearGradient>
<linearGradient id="paint5_linear_6561_4718" x1="84.2153" y1="43.4943" x2="89.9819" y2="43.4943" gradientUnits="userSpaceOnUse">
<stop stop-color="#4D4D4D"/>
<stop offset="1" stop-color="#333333"/>
</linearGradient>
<linearGradient id="paint6_linear_6561_4718" x1="52.1689" y1="43.1709" x2="66.7514" y2="43.1709" gradientUnits="userSpaceOnUse">
<stop stop-color="#999999"/>
<stop offset="1" stop-color="#4D4D4D"/>
</linearGradient>
<linearGradient id="paint7_linear_6561_4718" x1="52.7739" y1="43.1671" x2="65.2481" y2="43.1671" gradientUnits="userSpaceOnUse">
<stop stop-color="#999999"/>
<stop offset="1" stop-color="#333333"/>
</linearGradient>
<linearGradient id="paint8_linear_6561_4718" x1="93.0775" y1="69.9586" x2="93.0775" y2="86.7021" gradientUnits="userSpaceOnUse">
<stop/>
<stop offset="0.5" stop-color="white"/>
<stop offset="1"/>
</linearGradient>
<linearGradient id="paint9_linear_6561_4718" x1="93.0488" y1="0.635683" x2="93.0488" y2="17.6929" gradientUnits="userSpaceOnUse">
<stop/>
<stop offset="0.5" stop-color="white"/>
<stop offset="1"/>
</linearGradient>
<linearGradient id="paint10_linear_6561_4718" x1="7.48844" y1="70.374" x2="7.48844" y2="86.4509" gradientUnits="userSpaceOnUse">
<stop/>
<stop offset="0.5" stop-color="white"/>
<stop offset="1"/>
</linearGradient>
<radialGradient id="paint11_radial_6561_4718" cx="0" cy="0" r="1" gradientUnits="userSpaceOnUse" gradientTransform="translate(33.9361 43.0981) scale(23.1465 23.2468)">
<stop offset="0.31"/>
<stop offset="0.32" stop-color="#090909"/>
<stop offset="0.33" stop-color="#373737"/>
<stop offset="0.34" stop-color="#626262"/>
<stop offset="0.36" stop-color="#888888"/>
<stop offset="0.37" stop-color="#A8A8A8"/>
<stop offset="0.39" stop-color="#C4C4C4"/>
<stop offset="0.41" stop-color="#DADADA"/>
<stop offset="0.43" stop-color="#EBEBEB"/>
<stop offset="0.46" stop-color="#F6F6F6"/>
<stop offset="0.5" stop-color="#FDFDFD"/>
<stop offset="0.61" stop-color="white"/>
<stop offset="0.66"/>
<stop offset="0.68" stop-color="#141414"/>
<stop offset="0.75" stop-color="#5A5A5A"/>
<stop offset="0.81" stop-color="#959595"/>
<stop offset="0.87" stop-color="#C3C3C3"/>
<stop offset="0.92" stop-color="#E4E4E4"/>
<stop offset="0.96" stop-color="#F8F8F8"/>
<stop offset="0.99" stop-color="white"/>
</radialGradient>
<radialGradient id="paint12_radial_6561_4718" cx="0" cy="0" r="1" gradientUnits="userSpaceOnUse" gradientTransform="translate(0.0977486 325.232) scale(23.1465 23.2468)">
<stop offset="0.31"/>
<stop offset="0.32" stop-color="#090909"/>
<stop offset="0.33" stop-color="#373737"/>
<stop offset="0.34" stop-color="#626262"/>
<stop offset="0.36" stop-color="#888888"/>
<stop offset="0.37" stop-color="#A8A8A8"/>
<stop offset="0.39" stop-color="#C4C4C4"/>
<stop offset="0.41" stop-color="#DADADA"/>
<stop offset="0.43" stop-color="#EBEBEB"/>
<stop offset="0.46" stop-color="#F6F6F6"/>
<stop offset="0.5" stop-color="#FDFDFD"/>
<stop offset="0.61" stop-color="white"/>
<stop offset="0.66"/>
<stop offset="0.68" stop-color="#141414"/>
<stop offset="0.75" stop-color="#5A5A5A"/>
<stop offset="0.81" stop-color="#959595"/>
<stop offset="0.87" stop-color="#C3C3C3"/>
<stop offset="0.92" stop-color="#E4E4E4"/>
<stop offset="0.96" stop-color="#F8F8F8"/>
<stop offset="0.99" stop-color="white"/>
</radialGradient>
<linearGradient id="paint13_linear_6561_4718" x1="51.642" y1="43.2396" x2="15.957" y2="43.2396" gradientUnits="userSpaceOnUse">
<stop stop-color="#4D4D4D"/>
<stop offset="0.52" stop-color="#B3B3B3"/>
<stop offset="1" stop-color="#4D4D4D"/>
</linearGradient>
<linearGradient id="paint14_linear_6561_4718" x1="43.8336" y1="325.33" x2="23.7656" y2="325.33" gradientUnits="userSpaceOnUse">
<stop stop-color="#4D4D4D"/>
<stop offset="0.52" stop-color="#B3B3B3"/>
<stop offset="1" stop-color="#4D4D4D"/>
</linearGradient>
<radialGradient id="paint15_radial_6561_4718" cx="0" cy="0" r="1" gradientUnits="userSpaceOnUse" gradientTransform="translate(33.7994 43.1022) scale(7.48448 7.51693)">
<stop offset="0.06" stop-color="white"/>
<stop offset="0.41" stop-color="#FDFDFD"/>
<stop offset="0.53" stop-color="#F6F6F6"/>
<stop offset="0.62" stop-color="#EAEAEA"/>
<stop offset="0.69" stop-color="#D9D9D9"/>
<stop offset="0.76" stop-color="#C3C3C3"/>
<stop offset="0.81" stop-color="#A8A8A8"/>
<stop offset="0.86" stop-color="#878787"/>
<stop offset="0.91" stop-color="#626262"/>
<stop offset="0.95" stop-color="#363636"/>
<stop offset="0.99"/>
</radialGradient>
<linearGradient id="paint16_linear_6561_4718" x1="24.7688" y1="69.3116" x2="27.0923" y2="71.2525" gradientUnits="userSpaceOnUse">
<stop/>
<stop offset="0.55" stop-color="#999999"/>
<stop offset="1"/>
</linearGradient>
<linearGradient id="paint17_linear_6561_4718" x1="47.1713" y1="63.1984" x2="47.1713" y2="72.6484" gradientUnits="userSpaceOnUse">
<stop stop-color="white" stop-opacity="0.3"/>
<stop offset="1"/>
</linearGradient>
<linearGradient id="paint18_linear_6561_4718" x1="65.7035" y1="69.8477" x2="68.0198" y2="68.2671" gradientUnits="userSpaceOnUse">
<stop/>
<stop offset="0.55" stop-color="#999999"/>
<stop offset="1"/>
</linearGradient>
<linearGradient id="paint19_linear_6561_4718" x1="93.0659" y1="43.514" x2="95.3499" y2="43.514" gradientUnits="userSpaceOnUse">
<stop/>
<stop offset="0.55" stop-color="#808080"/>
<stop offset="1"/>
</linearGradient>
<linearGradient id="paint20_linear_6561_4718" x1="92.6992" y1="67.7961" x2="94.9832" y2="67.7961" gradientUnits="userSpaceOnUse">
<stop/>
<stop offset="0.55" stop-color="#808080"/>
<stop offset="1"/>
</linearGradient>
<linearGradient id="paint21_linear_6561_4718" x1="92.8823" y1="19.2419" x2="95.1663" y2="19.2419" gradientUnits="userSpaceOnUse">
<stop/>
<stop offset="0.55" stop-color="#808080"/>
<stop offset="1"/>
</linearGradient>
<radialGradient id="paint22_radial_6561_4718" cx="0" cy="0" r="1" gradientUnits="userSpaceOnUse" gradientTransform="translate(78.4293 43.5082) scale(25.9731 26.0857)">
<stop stop-color="white"/>
<stop offset="0.47" stop-color="#818181"/>
<stop offset="0.83" stop-color="#242424"/>
<stop offset="0.99"/>
</radialGradient>
<linearGradient id="paint23_linear_6561_4718" x1="7.33625" y1="16.5754" x2="7.33625" y2="0.49855" gradientUnits="userSpaceOnUse">
<stop/>
<stop offset="0.5" stop-color="white"/>
<stop offset="1"/>
</linearGradient>
<linearGradient id="paint24_linear_6561_4718" x1="0.000204137" y1="15.3009" x2="0.195418" y2="15.3009" gradientUnits="userSpaceOnUse">
<stop/>
<stop offset="1" stop-color="#B3B3B3"/>
</linearGradient>
<linearGradient id="paint25_linear_6561_4718" x1="2.76074" y1="15.4384" x2="9.1247" y2="15.4384" gradientUnits="userSpaceOnUse">
<stop/>
<stop offset="1" stop-color="#B3B3B3"/>
</linearGradient>
<linearGradient id="paint26_linear_6561_4718" x1="0.000248698" y1="14.1248" x2="0.195462" y2="14.1248" gradientUnits="userSpaceOnUse">
<stop stop-color="#B3B3B3"/>
<stop offset="1"/>
</linearGradient>
<linearGradient id="paint27_linear_6561_4718" x1="21.3252" y1="8.16455" x2="21.3252" y2="0.1065" gradientUnits="userSpaceOnUse">
<stop stop-color="#B3B3B3"/>
<stop offset="1"/>
</linearGradient>
<linearGradient id="paint28_linear_6561_4718" x1="47.1713" y1="23.7983" x2="47.1713" y2="14.4659" gradientUnits="userSpaceOnUse">
<stop stop-color="#B3B3B3"/>
<stop offset="1"/>
</linearGradient>
<linearGradient id="paint29_linear_6561_4718" x1="24.7708" y1="17.4791" x2="27.0943" y2="15.5382" gradientUnits="userSpaceOnUse">
<stop/>
<stop offset="0.55" stop-color="#999999"/>
<stop offset="1"/>
</linearGradient>
<linearGradient id="paint30_linear_6561_4718" x1="65.7201" y1="16.9168" x2="68.0365" y2="18.4975" gradientUnits="userSpaceOnUse">
<stop/>
<stop offset="0.55" stop-color="#999999"/>
<stop offset="1"/>
</linearGradient>
<linearGradient id="paint31_linear_6561_4718" x1="60.0262" y1="63.6944" x2="62.6262" y2="62.2003" gradientUnits="userSpaceOnUse">
<stop stop-color="#4D4D4D"/>
<stop offset="0.55" stop-color="#B3B3B3"/>
<stop offset="1" stop-color="#666666"/>
</linearGradient>
<linearGradient id="paint32_linear_6561_4718" x1="60.3309" y1="23.3159" x2="62.9309" y2="24.8099" gradientUnits="userSpaceOnUse">
<stop stop-color="#666666"/>
<stop offset="0.55" stop-color="#B3B3B3"/>
<stop offset="1" stop-color="#666666"/>
</linearGradient>
<linearGradient id="paint33_linear_6561_4718" x1="70.2495" y1="65.0825" x2="70.4563" y2="45.8412" gradientUnits="userSpaceOnUse">
<stop/>
<stop offset="1" stop-color="#4D4D4D"/>
</linearGradient>
<linearGradient id="paint34_linear_6561_4718" x1="72.3931" y1="53.317" x2="72.3931" y2="87" gradientUnits="userSpaceOnUse">
<stop stop-color="#B3B3B3"/>
<stop offset="0.23" stop-color="#B0B0B0"/>
<stop offset="0.39" stop-color="#A8A8A8"/>
<stop offset="0.52" stop-color="#999999"/>
<stop offset="0.63" stop-color="#838383"/>
<stop offset="0.74" stop-color="#686868"/>
<stop offset="0.84" stop-color="#474747"/>
<stop offset="0.94" stop-color="#1F1F1F"/>
<stop offset="1"/>
</linearGradient>
<linearGradient id="paint35_linear_6561_4718" x1="72.3931" y1="0.126034" x2="72.3931" y2="33.8091" gradientUnits="userSpaceOnUse">
<stop/>
<stop offset="0.06" stop-color="#1F1F1F"/>
<stop offset="0.16" stop-color="#474747"/>
<stop offset="0.26" stop-color="#686868"/>
<stop offset="0.37" stop-color="#838383"/>
<stop offset="0.48" stop-color="#999999"/>
<stop offset="0.61" stop-color="#A8A8A8"/>
<stop offset="0.77" stop-color="#B0B0B0"/>
<stop offset="1" stop-color="#B3B3B3"/>
</linearGradient>
<linearGradient id="paint36_linear_6561_4718" x1="86.5928" y1="43.7492" x2="89.9134" y2="43.7492" gradientUnits="userSpaceOnUse">
<stop/>
<stop offset="0.98" stop-opacity="0.02"/>
<stop offset="1" stop-opacity="0"/>
</linearGradient>
<radialGradient id="paint37_radial_6561_4718" cx="0" cy="0" r="1" gradientUnits="userSpaceOnUse" gradientTransform="translate(33.6608 43.2847) scale(12.6362 12.6909)">
<stop/>
<stop offset="0.22" stop-color="#030303"/>
<stop offset="0.36" stop-color="#0B0B0B"/>
<stop offset="0.47" stop-color="#191919"/>
<stop offset="0.57" stop-color="#2E2E2E"/>
<stop offset="0.66" stop-color="#494949"/>
<stop offset="0.75" stop-color="#696969"/>
<stop offset="0.83" stop-color="#909090"/>
<stop offset="0.91" stop-color="#BDBDBD"/>
<stop offset="0.98" stop-color="#EFEFEF"/>
<stop offset="1" stop-color="white"/>
</radialGradient>
<clipPath id="clip0_6561_4718">
<rect width="100" height="87" fill="white" transform="matrix(1 0 0 -1 0 87)"/>
</clipPath>
</defs>
</svg>
