<svg width="100" height="61" viewBox="0 0 100 61" fill="none" xmlns="http://www.w3.org/2000/svg">
<g clip-path="url(#clip0_6561_3948)">
<path d="M92.6172 30.0934H91.2891V30.782H90.6836V31.3525C90.8008 31.3132 90.918 31.2935 90.9961 31.2935C91.4453 31.2935 92.5781 30.9197 93.1445 30.782C93.7109 30.6639 93.6523 30.6049 93.6523 30.6049C93.6523 30.6049 93.5938 30.5262 93.5547 30.4279C93.5156 30.3492 93.0859 30.6639 92.832 30.4279C92.7344 30.3295 92.6562 30.2115 92.6172 30.0934ZM91.2891 23.2668H92.6953C92.7344 23.2078 92.7734 23.1488 92.832 23.0898C93.0859 22.8537 93.5156 23.1685 93.5547 23.0898C93.5938 23.0111 93.6523 22.9127 93.6523 22.9127C93.6523 22.9127 93.7109 22.8734 93.1445 22.7356C92.5781 22.6176 91.4453 22.2241 90.9961 22.2241C90.918 22.2241 90.8203 22.2045 90.6836 22.1651V22.5586H91.2891V23.2668ZM28.4766 53.1504H20.5078V54.3505H28.4766V53.1504ZM38.8867 53.1504H29.4922V54.3505H37.2852L39.0234 53.2488L38.8867 53.1504ZM59.1602 53.1504H49.7266L54.5898 60.4885H59.1602V53.1504ZM69.1602 53.1504H60.1758V60.5082H69.1602V53.1504ZM78.6523 53.1504H70.1758V60.5082H74.5898L78.6523 57.085V53.1504ZM17.6367 48.1928H11.1914V51.6159L12.8906 54.3505H19.5117V53.1504H18.7109L17.6367 52.3438V48.1928ZM75.2539 42.5662V44.4548H79.668V42.5662H75.2539ZM75.2539 38.8086V41.2088H79.668V38.8086H75.2539ZM0 18.9781L4.0625 9.9284H10V10.617H10.1758V8.21684L11.3672 7.01677H17.6367V2.70835L18.7109 1.90174H64.2578C64.7656 1.40992 66.25 0.0327911 68.1445 0.0327911C69.8438 0.0327911 71.4844 1.29187 72.1875 1.90174H90.1367L91.2109 2.70835V9.9284L90.1367 10.617H75.4492V14.5516H83.3984V14.2172H84.7461V14.5516H84.9609V14.2172H86.0938V14.5516H90.6641V19.9421C90.8789 20.0011 91.0938 20.0994 91.2695 20.1978C92.5586 20.9257 92.3633 21.9684 94.043 22.0864C95.7227 22.1848 96.1523 21.9684 96.1914 22.775C96.2109 22.9914 96.2109 23.1488 96.2305 23.2865H97.168C97.207 23.1881 97.2852 23.1094 97.3633 23.1094H99.1211C99.2578 23.1094 99.375 23.2865 99.375 23.5226V24.9784H99.9805V28.3819H99.375V29.8377C99.375 30.0737 99.2578 30.2508 99.1211 30.2508H97.3633C97.2852 30.2508 97.207 30.1918 97.168 30.0737H96.25C96.2305 30.2311 96.2109 30.4475 96.1914 30.7623C96.1328 31.5689 95.7227 31.3328 94.043 31.4509C92.3633 31.5492 92.5586 32.6116 91.2695 33.3395C91.0938 33.4379 90.8789 33.5166 90.6641 33.5952V38.8086H86.0938V39.1431H84.9609V38.8086H84.7461V39.1431H83.3984V38.8086H80V44.4352H90.1172L91.1914 45.1237V52.3438L90.1172 53.1701H79.1602V57.4195L74.5898 61H54.2578L49.3359 53.3275C49.1797 53.4258 49.0039 53.5242 48.8281 53.6226V55.885H48.3203V53.898C47.1289 54.5078 45.7227 55.0194 44.4141 55.0194C43.0078 55.0194 41.6406 54.5669 40.5078 54.0554V55.885H40.1758V53.898C39.9219 53.7799 39.707 53.6422 39.4922 53.5242L37.3047 55.039H12.7148L10.5078 51.6159V48.1928H4.0625L0 35.897V18.9781Z" fill="black"/>
<path d="M100 28.3622H99.5898V28.6966H99.3945V29.818C99.3945 30.0541 99.2773 30.2311 99.1406 30.2311H97.3828C97.3027 30.2311 97.2305 30.1702 97.1836 30.0738H91.2891V30.7426H90.6641V38.7693H86.0938V39.1234H84.9609V38.7693H84.7461V39.1234H83.3984V38.7693H75.2344V48.1731H10.8398V47.8387H10V48.1731H4.0625L0 35.8774V18.9584L4.0625 9.90874H10V10.5973H10.8398V9.90874H61.3477V9.5743H66.2695V8.19718H69.3164V9.5743H75.2539V9.90874H75.4102V12.3089H76.7773V14.5123H83.3984V14.1778H84.7461V14.5123H84.9609V14.1778H86.0938V14.5123H90.6641V22.5389H91.2891V23.2275H97.1738C97.2207 23.1193 97.2969 23.0504 97.3828 23.0504H99.1406C99.2773 23.0504 99.3945 23.2275 99.3945 23.4636V24.6046H99.5898V24.9391H100V28.3622Z" fill="#FED100"/>
<path d="M91.1914 52.3045V45.1041L90.1172 44.4155H75.2344V48.1731H17.6172V52.3045L18.6914 53.1307H90.1172L91.1914 52.3045ZM75.4102 10.5973V9.90874H17.6172V2.68868L18.6914 1.88208H90.1172L91.1914 2.68868V9.90874L90.1172 10.5973H75.4102Z" fill="url(#paint0_linear_6561_3948)"/>
<path d="M23.7891 48.1731V52.5799L24.5898 52.993V48.1731H23.7891ZM21.2305 48.1731V52.993L20.293 52.5799V48.1731H21.2305ZM32.0703 48.1731V52.993L31.543 52.5799V48.1731H32.0703ZM28.3203 48.1731V52.993L27.793 52.5799V48.1731H28.3203ZM23.7891 9.90876V2.41328L24.5898 2.01982V9.90876H23.7891ZM35.8008 48.1731V52.993L35.2734 52.5799V48.1731H35.8008ZM27.793 9.90876V2.41328L28.3203 2.01982V9.90876H27.793ZM19.1016 48.1731V52.993L18.0273 52.5799V48.1731H19.1016ZM20.293 9.90876V2.41328L21.2305 2.01982V9.90876H20.293ZM18.0273 9.90876V2.41328L19.1016 2.01982V9.90876H18.0273ZM62.0313 48.1731V52.5799L61.5039 52.993V48.1731H62.0313ZM69.5117 48.1731V52.5799L68.9844 52.993V48.1731H69.5117ZM31.543 9.90876V2.41328L32.0703 2.01982V9.90876H31.543ZM65.7812 48.1731V52.5799L65.2539 52.993V48.1731H65.7812ZM39.5508 48.1731V52.993L39.0234 52.5799V48.1731H39.5508ZM73.2617 48.1731V52.5799L72.7344 52.993V48.1731H73.2617ZM58.2812 48.1731V52.5799L57.7539 52.993V48.1731H58.2812ZM47.0508 48.1731V52.5799L46.5234 52.993V48.1731H47.0508ZM43.3008 48.1731V52.5799L42.7734 52.993V48.1731H43.3008ZM54.5508 48.1731V52.5799L54.0234 52.993V48.1731H54.5508ZM50.8008 48.1731V52.5799L50.2734 52.993V48.1731H50.8008ZM80.2344 44.5532L80.7617 44.9664V52.5799L80.2344 52.993V44.5532ZM76.4844 2.00014L77.0117 2.41328V10.0268L76.4844 10.4399V2.00014ZM80.2344 2.00014L80.7617 2.41328V10.0268L80.2344 10.4399V2.00014ZM84.4922 44.5532L85.293 44.9664V52.5799L84.4922 52.993V44.5532ZM35.2734 9.90876V2.41328L35.8008 2.01982V9.90876H35.2734ZM84.4922 2.00014L85.293 2.41328V10.0268L84.4922 10.4399V2.00014ZM89.9805 2.00014L91.0547 2.41328V10.0268L89.9805 10.4399V2.00014ZM89.9805 52.993V44.5532L91.0547 44.9664V52.5799L89.9805 52.993ZM87.832 44.5532L88.7695 44.9664V52.5799L87.832 52.993V44.5532ZM87.832 2.00014L88.7695 2.41328V10.0268L87.832 10.4399V2.00014ZM76.4844 44.5532L77.0117 44.9664V52.5799L76.4844 52.993V44.5532ZM46.5234 9.90876V2.00014L47.0508 2.41328V9.90876H46.5234ZM50.2734 9.90876V2.00014L50.8008 2.41328V9.90876H50.2734ZM54.0234 9.90876V2.00014L54.5508 2.41328V9.90876H54.0234ZM39.0234 9.90876V2.41328L39.5508 2.01982V9.90876H39.0234ZM42.7734 9.90876V2.00014L43.3008 2.41328V9.90876H42.7734ZM65.2539 9.90876V2.00014L65.7812 2.41328V9.90876H65.2539ZM57.7539 9.90876V2.00014L58.2812 2.41328V9.90876H57.7539ZM72.7344 9.90876V2.00014L73.2617 2.41328V9.90876H72.7344ZM68.9844 9.90876V2.00014L69.5117 2.41328V9.90876H68.9844ZM61.5039 9.90876V2.00014L62.0313 2.41328V9.90876H61.5039Z" fill="url(#paint1_linear_6561_3948)"/>
<path opacity="0.2" d="M10.707 47.8386V10.5973H9.95703V47.8386H10.707ZM3.73047 19.3125H7.46094V20.1584H3.73047V19.3125ZM3.73047 34.6773H7.46094V35.5232H3.73047V34.6773Z" fill="#060606"/>
<path opacity="0.1" d="M39.8242 41.9997C39.8242 41.016 39.0234 40.2094 38.0469 40.2094C37.0703 40.1897 36.2695 40.9963 36.2695 41.9997C36.2695 43.003 37.0703 43.7899 38.0469 43.7899C39.0234 43.7899 39.8242 42.9833 39.8242 41.9997ZM38.0469 38.6552C37.0703 38.6552 36.2695 37.8486 36.2695 36.865C36.2695 35.8813 37.0703 35.0747 38.0469 35.0747C39.0234 35.0747 39.8242 35.8813 39.8242 36.865C39.8242 37.8486 39.0234 38.6552 38.0469 38.6552ZM54.8437 15.6258C54.3164 15.6258 53.9062 15.193 53.9062 14.6815C53.9062 14.17 54.3164 13.7372 54.8437 13.7372C55.3711 13.7372 55.7813 14.1503 55.7813 14.6815C55.7813 15.2126 55.3516 15.6258 54.8437 15.6258ZM42.7148 35.0747C42.1484 35.0747 41.6992 34.6222 41.6992 34.0517C41.6992 33.4812 42.1484 33.0287 42.7148 33.0287C43.2812 33.0287 43.7305 33.4812 43.7305 34.0517C43.7305 34.6222 43.2812 35.0747 42.7148 35.0747Z" fill="black"/>
<path opacity="0.3" d="M75.2539 14.4689V9.57425H58.3281V17.4396L62.8398 17.418L62.8613 15.9248L60.9707 15.5352L60.9766 14.2879L64.2852 13.623L66.9668 13.6427V14.467H75.2559L75.2539 14.4689ZM48.1992 44.1302L48.2285 36.5462H51.875V46.2844H39.668V44.1637L48.1992 44.1302Z" fill="black"/>
<path opacity="0.15" d="M86.084 30.0737H97.1992V28.3799L97.1289 28.3681C96.4961 28.2599 96.0332 27.707 96.0332 27.0618V26.2375C96.0332 25.6059 96.4766 25.061 97.0918 24.9371L97.1992 24.9154V23.2275H86.084V30.0737Z" fill="black"/>
<path opacity="0.15" d="M99.9883 28.1852H99.6289V25.1358H99.9883V28.1852Z" fill="black"/>
<path opacity="0.2" d="M99.5723 28.6947V28.3583H97.1816V28.6947H99.5723ZM97.1816 24.6046H99.5723V24.9411H97.1816V24.6046Z" fill="url(#paint2_linear_6561_3948)"/>
<path opacity="0.2" d="M99.4043 29.8791V28.7085H97.2012V30.0187C97.2012 30.1446 97.3027 30.2469 97.4277 30.2469H99.0391C99.2402 30.2469 99.4043 30.0817 99.4043 29.8791ZM97.2012 23.261C97.2012 23.1351 97.3027 23.0328 97.4277 23.0328H99.0391C99.2402 23.0328 99.4043 23.198 99.4043 23.4007V24.5712H97.2012V23.261Z" fill="url(#paint3_linear_6561_3948)"/>
<path opacity="0.15" d="M69.9531 24.7619C71.2578 26.8906 69.9531 28.5392 69.9531 28.5392H68.0508H79.7891C79.7891 28.5392 80.3945 28.1221 80.3945 26.6289C80.3945 25.1357 79.7891 24.7619 79.7891 24.7619C79.7891 24.7619 71.8125 24.7619 69.9531 24.7619Z" fill="url(#paint4_linear_6561_3948)"/>
<path opacity="0.15" d="M68.1035 24.5416C69.0898 25.1318 69.0723 28.1654 68.0938 28.7595C68.6035 28.7595 69.543 28.7458 69.543 28.7458C69.7012 28.7458 69.8477 28.6651 69.9375 28.5333C70.7207 27.3903 70.6523 25.901 69.9277 24.7698C69.8379 24.6301 69.6855 24.5416 69.5195 24.5416H68.1035Z" fill="url(#paint5_linear_6561_3948)"/>
<path opacity="0.15" d="M79.9219 24.5416C80.9082 25.1318 80.8906 28.1654 79.9121 28.7595C80.4219 28.7595 81.3613 28.7458 81.3613 28.7458C81.5195 28.7458 81.666 28.6651 81.7559 28.5333C82.5391 27.3903 82.4707 25.901 81.7461 24.7698C81.6563 24.6301 81.5039 24.5416 81.3379 24.5416H79.9219Z" fill="url(#paint6_linear_6561_3948)"/>
<path opacity="0.15" d="M66.3066 24.7836C67.1816 25.3069 67.166 27.9904 66.2988 28.5156C66.752 28.5156 67.584 28.5019 67.584 28.5019C67.7246 28.5019 67.8535 28.4291 67.9336 28.315C68.6289 27.3038 68.5684 25.9857 67.9258 24.9843C67.8457 24.8603 67.7109 24.7836 67.5644 24.7836H66.3086H66.3066Z" fill="url(#paint7_linear_6561_3948)"/>
<path opacity="0.15" d="M66.1465 24.7343H60.2695C60.1152 24.7343 59.9805 25.1475 59.9805 25.6787V27.5673C59.9805 28.0788 60.0996 28.5116 60.2695 28.5116H66.1465C66.3008 28.5116 66.4355 28.0985 66.4355 27.5673V25.6787C66.4355 25.1672 66.2988 24.7343 66.1465 24.7343Z" fill="url(#paint8_linear_6561_3948)"/>
<path opacity="0.2" d="M86.6191 34.158V31.4234H86.1113V34.158H86.6191ZM86.1113 19.285H86.6191V22.0196H86.1113V19.285Z" fill="black"/>
<path opacity="0.1" d="M90.6465 31.4312V30.7426H86.084V31.4312H90.6465ZM86.082 21.87H90.6445V22.5585H86.082V21.87Z" fill="black"/>
<path d="M50.7422 28.8382C50.7422 29.09 50.6641 29.3064 50.5664 29.3064V29.4677C50.6641 29.4677 50.7422 29.6841 50.7422 29.936C50.7422 30.1878 50.6641 30.4042 50.5664 30.4042H48.9062C48.8086 30.4042 48.7305 30.1878 48.7305 29.936C48.7305 29.6841 48.8086 29.4677 48.9062 29.4677V29.3064C48.8086 29.3064 48.7305 29.09 48.7305 28.8382C48.7305 28.5864 48.8086 28.37 48.9062 28.37V28.2086C48.8086 28.2086 48.7305 27.9922 48.7305 27.7404C48.7305 27.4886 48.8086 27.2722 48.9062 27.2722V27.1286C48.8086 27.1286 48.7305 26.9122 48.7305 26.6604C48.7305 26.4086 48.8086 26.1921 48.9062 26.1921V26.0308C48.8086 26.0308 48.7305 25.8144 48.7305 25.5626C48.7305 25.3108 48.8086 25.0944 48.9062 25.0944V24.9331C48.8086 24.9331 48.7305 24.7167 48.7305 24.4648C48.7305 24.213 48.8086 23.9966 48.9062 23.9966V23.8353C48.8086 23.8353 48.7305 23.6189 48.7305 23.3671C48.7305 23.1153 48.8086 22.8989 48.9062 22.8989H50.5664C50.6641 22.8989 50.7422 23.1153 50.7422 23.3671C50.7422 23.6189 50.6641 23.8353 50.5664 23.8353V23.9966C50.6641 23.9966 50.7422 24.213 50.7422 24.4648C50.7422 24.7167 50.6641 24.9331 50.5664 24.9331V25.0944C50.6641 25.0944 50.7422 25.3108 50.7422 25.5626C50.7422 25.8144 50.6641 26.0308 50.5664 26.0308V26.1921C50.6641 26.1921 50.7422 26.4086 50.7422 26.6604C50.7422 26.9122 50.6641 27.1286 50.5664 27.1286V27.2722C50.6641 27.2722 50.7422 27.4886 50.7422 27.7404C50.7422 27.9922 50.6641 28.2086 50.5664 28.2086V28.37C50.6641 28.37 50.7422 28.5864 50.7422 28.8382Z" fill="#333333"/>
<path d="M10.6836 44.2385H26.2695V9.55463H10.6836V44.2385ZM62.8906 37.345L61.0156 37.7463V38.9464L64.2383 39.6349H66.9531V38.7693H75.0781V48.1731H55.0781V35.5232H62.8906V37.345Z" fill="#060606"/>
<path opacity="0.2" d="M97.4023 28.2913C97.584 27.8781 97.6992 27.2958 97.6992 26.6525C97.6992 26.0092 97.584 25.4249 97.4023 25.0117H99.5723V28.2913H97.4023Z" fill="url(#paint9_linear_6561_3948)"/>
<path opacity="0.3" d="M86.0938 22.535V14.5122H90.6641V22.535H86.0938ZM87.291 19.5151H86.6309V20.3945H87.291V19.5151ZM87.291 20.7054H86.6309V21.5848H87.291V20.7054ZM90.6641 38.7693H86.0938V30.7525H90.6641V38.7693ZM87.291 31.8719H86.6309V32.7513H87.291V31.8719ZM87.291 33.0621H86.6309V33.9415H87.291V33.0621ZM86.0938 23.2137V30.0737H90.6641V23.2137H86.0938Z" fill="url(#paint10_linear_6561_3948)"/>
<path opacity="0.1" d="M64.2383 16.2238H66.9531V13.6663L64.2383 13.6466L61.0156 14.3352V15.5352L64.2383 16.2238ZM61.0156 21.3388V20.1388L64.2383 19.4502L66.9531 19.4699V22.0274H64.2383L61.0156 21.3388ZM61.0156 33.1231V31.923L64.2383 31.2344L66.9531 31.2541V33.8116H64.2383L61.0156 33.1231ZM64.2383 39.6349L61.0156 38.9463V37.7463L64.2383 37.0577L66.9531 37.0774V39.6349H64.2383Z" fill="url(#paint11_linear_6561_3948)"/>
<path opacity="0.5" d="M58.3008 18.4212V24.7619H62.8945V21.7421L61.0059 21.325L60.9883 20.1466L62.8945 19.7413V18.4212H58.3008ZM62.8945 33.5224V34.7854H58.3008V28.5392H62.8945V31.5157L61.0273 31.921V33.1151L62.8945 33.5204V33.5224Z" fill="black"/>
<path d="M57.3242 19.9814L57.3105 19.9952C56.748 20.5559 56.7539 21.4746 57.3242 22.0274H60.7227C60.8398 22.0274 60.957 21.7323 60.957 21.3782V20.6306C60.957 20.2765 60.8398 19.9814 60.7227 19.9814H57.3242ZM65.8203 27.1621H56.875V26.4736H65.8203V27.1621ZM10.5078 48.1731V51.5962L12.7148 55.0194H37.2852L39.4941 53.4966C39.7051 53.6167 39.9336 53.7406 40.1758 53.8626V55.8673H40.5078V54.0239C41.6289 54.5472 43.0098 55.0016 44.4141 55.0016C45.7129 55.0016 47.1016 54.498 48.3008 53.8881V55.8673H48.8086V53.6186C48.9844 53.5203 49.1562 53.4219 49.3203 53.3235L54.2383 61H74.5703L79.1406 57.4195V48.2951C79.6328 48.1711 80 47.7226 80 47.1894V38.8637H79.668V41.1694H74.4141V42.5269H79.668V46.9533C79.668 47.5239 79.1992 47.996 78.6133 47.996H73.2422C72.6758 47.996 72.207 47.5239 72.1875 46.9533V38.8637H71.875V47.2091C71.875 47.8386 72.3828 48.3501 73.0078 48.3501L78.6328 48.3305V57.0654L74.5703 60.4688H70.1758V48.1731H69.1602V60.4688H60.1758V48.1731H59.1602V60.4688H54.5703L49.1406 52.2651H40.4883L39.125 53.1307H38.8867C38.9238 53.1543 38.9668 53.1799 39.0059 53.2055L37.2656 54.3111H29.4922V48.1731H28.4766V54.3111H20.5078V48.1731H19.4922V54.3111H12.8516L11.1523 51.5765V48.1534C11.1914 48.1731 10.5078 48.1731 10.5078 48.1731ZM48.8086 52.7963H48.9844L49.1992 53.1307H48.8086V52.7963ZM40.5078 52.7963H48.3008V53.1307H40.5078V52.7963ZM40.0234 53.1307L40.1758 53.0245V53.1307H40.0234ZM57.2852 15.8894V17.4239H61.3477V17.7583H52.5391V17.4239H56.9531V15.8894H57.2852ZM88.2227 33.1821C89.1016 33.1821 90.0391 32.9657 90.6836 32.4936C91.1348 32.163 91.959 31.7952 92.4121 31.6024C92.0176 31.7617 91.3438 32.0273 90.8984 32.1591C90.2344 32.3558 87.3047 32.6706 87.3047 32.6706V31.982C87.3047 31.982 87.8711 32.0017 88.5352 31.982C89.1992 31.9624 90.5469 31.2935 90.9961 31.2935C91.4453 31.2935 92.5781 30.9 93.1445 30.782C93.7109 30.6443 93.6523 30.6049 93.6523 30.6049C93.6523 30.6049 93.5938 30.5066 93.5547 30.4279C93.5156 30.3492 93.0859 30.6639 92.832 30.4279C92.5781 30.1918 92.6074 30.0718 92.6074 30.0718L95.0273 30.0816L94.9805 30.4102L95.5859 30.2331L95.8984 30.056L96.2734 30.0639C96.2734 30.0639 96.2832 30.1918 96.2305 30.7446C96.1543 31.5492 95.7617 31.3348 94.082 31.4332C92.4023 31.5512 92.5977 32.5939 91.3086 33.3218C90.0195 34.0497 87.3242 33.7939 87.3047 33.8333C87.2852 33.8726 87.3047 33.1841 87.3047 33.1841H88.2227V33.1821ZM65.9961 21.4962C66.3477 21.9487 66.2305 25.9424 66.2305 25.9424L65.7461 26.0644C65.7461 26.0644 65.7852 22.3264 65.5703 22.3068C64.7305 22.2281 65.0195 22.4012 63.457 23.0307C61.9141 23.6996 59.1406 25.5489 58.6328 25.785C58.1445 26.0211 56.9727 25.9621 56.875 25.9424V25.2735C56.9727 25.2735 58.1055 25.3325 58.5547 25.1555C59.1602 24.9194 60 24.3095 60.3711 24.0144C60.9375 23.6996 64.1797 22.0274 65 21.6733C65.3906 21.4569 65.8203 21.2602 65.9961 21.4962ZM95.4473 23.2275L94.9746 23.0799L94.9922 23.2294L92.7168 23.2196C92.7168 23.2196 92.5781 23.2845 92.832 23.0485C93.0859 22.8124 93.5156 23.1271 93.5547 23.0485C93.5938 22.9698 93.6523 22.8714 93.6523 22.8714C93.6523 22.8714 93.7109 22.832 93.1445 22.6943C92.5781 22.5763 91.4453 22.1828 90.9961 22.1828C90.5469 22.1828 89.1992 21.5139 88.5352 21.4943C87.8711 21.4746 87.3047 21.4943 87.3047 21.4943V20.8057C87.3047 20.8057 90.2344 21.1205 90.8984 21.3172C91.3438 21.449 92.0176 21.7146 92.4121 21.874C91.959 21.6831 91.1348 21.3133 90.6836 20.9828C90.0391 20.5106 89.1016 20.2942 88.2227 20.2942H87.3047C87.3047 20.2942 87.2852 19.6056 87.3047 19.645C87.3242 19.6843 90.0195 19.4286 91.3086 20.1565C92.5977 20.8844 92.4023 21.9271 94.082 22.0451C95.7617 22.1435 96.1699 21.9291 96.2305 22.7337C96.2598 23.133 96.2324 23.2255 96.2324 23.2255H95.4473V23.2275ZM70.6836 10.7547V5.63965H65.0781V10.7547H62.0312V10.2432H64.5703V5.12815H71.1914V10.2432H73.9062V10.7547H70.6836ZM96.0742 27.6736H82.2051C82.293 27.3628 82.3672 26.9969 82.3672 26.6211C82.3672 26.2453 82.3086 25.8952 82.209 25.6276H96.0742C96.2891 25.6276 96.4648 25.9227 96.4648 26.2768V27.0244C96.4648 27.3785 96.2891 27.6736 96.0742 27.6736ZM64.3457 1.82895C64.4824 1.76994 65.8789 -0.00655746 68.125 -0.00655746C70.3711 -0.00655746 72.1445 1.88797 72.1445 1.88797C72.1445 1.88797 64.209 1.90961 64.3457 1.83092V1.82895ZM57.2852 13.1548H56.9531V11.6203H43.7305V13.1548H43.3984V11.6203H41.6797V13.1548H41.3477V11.6203H33.0469V13.1548H32.7148V11.2859H61.3672V11.6203H57.2852V13.1548ZM67.0313 30.0541V30.7426C67.0313 30.7426 66.6797 30.8017 66.2695 30.7426C65.8594 30.7033 63.8477 30.4082 62.2656 29.3852C60.6836 28.3622 56.8555 28.3622 56.8555 28.3622V27.6736C56.8555 27.6736 61.2695 27.6146 62.3242 28.5196C64.043 29.9951 66.2695 30.0541 66.2695 30.0541H67.0313ZM60.7227 31.2541C60.8398 31.2541 60.957 31.5492 60.957 31.9034V32.6509C60.957 33.0051 60.8398 33.3001 60.7227 33.3001H57.3242L57.3164 33.2923C56.7422 32.7513 56.7305 31.8365 57.293 31.2836L57.3242 31.2541H60.7227ZM10.1562 8.21684L11.3477 7.01677H31.6992V18.1124H10.1758L10.1562 8.21684Z" fill="black"/>
<path opacity="0.3" d="M57.1484 34.6576C56.0137 33.2745 56.0098 31.2777 57.1387 29.8908L57.1484 29.877H56.2109C56.127 29.877 55.8555 30.0777 55.7949 30.4082H49.6094C49.4336 30.4082 49.2773 30.8213 49.2773 31.3525V33.2411C49.2773 33.7526 49.4141 34.1854 49.6094 34.1854H55.8027C55.8613 34.4943 56.1309 34.6772 56.2109 34.6772L57.1484 34.6576ZM55.8027 22.9127H49.6094C49.4141 22.9127 49.2773 22.4799 49.2773 21.9684V20.0797C49.2773 19.5486 49.4336 19.1354 49.6094 19.1354H55.7949C55.8555 18.8049 56.127 18.6043 56.2109 18.6043H57.1484C56.0137 19.9676 55.9961 21.9487 57.1055 23.3317L57.1484 23.3848L56.2109 23.4045C56.1309 23.4045 55.8613 23.2215 55.8027 22.9127Z" fill="url(#paint12_linear_6561_3948)"/>
<path opacity="0.2" d="M65.5801 29.4835V31.4312H71.0664C70.1367 30.9885 68.6953 30.7505 67.041 30.7505V29.9635C69.6504 29.9635 71.4609 30.6403 72.6309 31.4312H73.9434C73.4883 30.9216 73.1641 30.2311 73.0098 29.4835H65.5801ZM83.3906 29.4835V31.4312H75.1348C74.4961 31.0042 74.0273 30.296 73.8125 29.4835H83.3906ZM65.5801 23.853V21.87H71.2813C70.3184 22.3677 69.0938 22.7395 67.3086 22.7395V23.5265C70.0371 23.5265 71.5977 22.6982 72.7871 21.87H74.041C73.5293 22.4031 73.168 23.0819 73.0039 23.853H65.582H65.5801ZM73.8066 23.853C74.0371 22.9953 74.5781 22.2949 75.3125 21.87H83.3887V23.853H73.8047H73.8066Z" fill="black"/>
<path opacity="0.1" d="M77.0312 31.99H83.3145V29.4836H73.7891C74.1504 30.9591 75.4219 31.99 77.0312 31.99ZM64.2383 31.2345L64.0625 31.2719V29.4836H72.9844C73.3594 31.4116 74.9746 32.7769 77.0332 32.7769H83.3164V33.196H76.0605C75.0332 33.196 74.3359 32.6786 73.4531 32.0215C72.1699 31.0673 70.3027 29.9774 67.0371 29.9774V30.7644C70.0449 30.7644 71.7363 31.7224 72.9902 32.655C73.9082 33.3376 74.7773 33.9829 76.0605 33.9829H83.3164V37.589H66.9551V37.0775L64.2402 37.0578L64.0645 37.0952V33.7744L64.2402 33.8117H66.9551V31.2542L64.2402 31.2345H64.2383ZM73.002 23.8532H64.0625V21.9901L64.2383 22.0275H66.9531V19.47L64.2383 19.4503L64.0625 19.4877V16.1865L64.2383 16.2239H66.9531V15.7124H83.3145V19.4247H76.0586C74.7734 19.4247 73.9063 20.07 72.9883 20.7527C71.7363 21.6832 70.3164 22.7397 67.3066 22.7397V23.5266C70.5723 23.5266 72.168 22.3403 73.4512 21.3862C74.334 20.7291 75.0313 20.2117 76.0586 20.2117H83.3145V20.6307H77.0312C75 20.6307 73.4004 21.9645 73 23.8532H73.002ZM73.8066 23.8532C74.1914 22.417 75.4492 21.4176 77.0312 21.4176H83.3145V23.8532H73.8066Z" fill="url(#paint13_linear_6561_3948)"/>
<path opacity="0.1" d="M77.0312 20.6306H83.3867V20.2116H76.0586C75.0313 20.2116 74.334 20.729 73.4512 21.3861C72.168 22.3402 70.5723 23.5265 67.3066 23.5265V22.7396C70.3145 22.7396 71.7344 21.6831 72.9883 20.7526C73.9063 20.0699 74.7754 19.4246 76.0586 19.4246H83.3867V14.5122H66.9531V16.2238H64.2383L62.8906 15.9366V19.7394L64.2383 19.4522L66.9531 19.4719V22.0294H64.2383L62.8906 21.7421V23.7882H73.0176C73.4414 21.9349 75.0234 20.6345 77.0312 20.6345V20.6306ZM64.2383 31.2345L62.8906 31.5217V29.4835H72.9844C73.3594 31.4115 74.9746 32.7768 77.0332 32.7768H83.4414V33.1959H76.0605C75.0332 33.1959 74.3359 32.6785 73.4531 32.0214C72.1699 31.0672 70.3164 29.9636 67.0508 29.9636V30.7505C70.0586 30.7505 71.7363 31.7224 72.9902 32.6529C73.9082 33.3356 74.7773 33.9808 76.0605 33.9808H83.4414V38.7673H66.9551V37.0754L64.2402 37.0558L62.8926 37.343V33.5205L64.2402 33.8077H66.9551V31.2502L64.2402 31.2305L64.2383 31.2345ZM85.0781 31.4194V38.7693H84.7109V31.4194L83.4395 29.4835V31.9899H77.0312C75.4219 31.9899 74.1504 30.9571 73.7891 29.4835H85.7949V23.7842H73.8223C74.2285 22.3835 75.4727 21.4175 77.0312 21.4175H83.3867V23.7764L84.7461 21.8562V14.5122H85.084V21.8858H86.082V14.5122H86.0938L86.1074 31.4194H85.0781Z" fill="black"/>
<path opacity="0.3" d="M56.373 32.2634C56.373 33.5835 56.8008 34.6517 57.3301 34.6517C57.707 34.6517 58.0332 34.1048 58.1895 33.31H57.8438C57.2773 33.31 56.8184 32.8477 56.8184 32.2772C56.8184 31.7067 57.2773 31.2443 57.8438 31.2443H58.1953C58.041 30.4358 57.7129 29.8751 57.3301 29.8751C56.8008 29.8751 56.373 30.9453 56.373 32.2634ZM57.8418 19.9559C57.2754 19.9559 56.8164 20.4182 56.8164 20.9887C56.8164 21.5592 57.2754 22.0215 57.8418 22.0215H58.1934C58.0391 22.8301 57.7109 23.3908 57.3281 23.3908C56.7988 23.3908 56.3711 22.3206 56.3711 21.0025C56.3711 19.6844 56.7988 18.6142 57.3281 18.6142C57.7051 18.6142 58.0313 19.1611 58.1875 19.9559H57.8418Z" fill="url(#paint14_linear_6561_3948)"/>
<path opacity="0.05" d="M4.0625 48.1731H10V9.90874H4.0625L0 18.9584V35.8774L4.0625 48.1731ZM75.4101 14.4769H66.9844V13.6742L64.2305 13.6526L61.3379 14.229L61.3496 9.90678H10.8398V48.1731H75.2344V37.5909L72.8711 35.1908V32.5664C71.6465 31.6575 69.9648 30.7407 67.0508 30.7407V29.9538C69.8437 29.9538 71.6719 30.7466 72.8711 31.4391V28.5334H69.9844L69.9707 28.5471C69.8613 28.673 69.7031 28.7458 69.5351 28.7478L68.1973 28.7557C68.0254 28.7557 67.8613 28.6848 67.7441 28.5589L67.7187 28.5314H57.6445L60.0527 24.7463H67.707L67.8164 24.6597C67.9277 24.5712 68.0625 24.524 68.2051 24.524H69.4512C69.6367 24.524 69.8145 24.5948 69.9492 24.7246L69.9746 24.7482H72.873V21.8091C71.6738 22.657 70.1035 23.5246 67.3105 23.5246V22.7376C70.2246 22.7376 71.6484 21.7461 72.873 20.8372V18.3564L75.4121 15.7458V14.4749L75.4101 14.4769ZM48.2344 44.1637H26.1934V18.1439H48.2344V44.1637Z" fill="black"/>
<path opacity="0.5" d="M75.2305 48.1888H17.6152V49.8905H76.4004V44.4332H75.2305V48.1888ZM31.7031 9.93229V6.99311H17.5664V5.11039H33.2754V6.76884H76.5098V9.93425H31.7051L31.7031 9.93229Z" fill="black"/>
</g>
<defs>
<linearGradient id="paint0_linear_6561_3948" x1="17.6172" y1="27.5064" x2="91.1914" y2="27.5064" gradientUnits="userSpaceOnUse">
<stop stop-color="#000001"/>
<stop offset="0.02" stop-color="#030304"/>
<stop offset="0.13" stop-color="#1B1B1C"/>
<stop offset="0.24" stop-color="#2C2C2C"/>
<stop offset="0.37" stop-color="#363636"/>
<stop offset="0.53" stop-color="#3A3A3A"/>
<stop offset="0.65" stop-color="#363636"/>
<stop offset="0.78" stop-color="#2A2A2A"/>
<stop offset="0.9" stop-color="#161616"/>
<stop offset="1"/>
</linearGradient>
<linearGradient id="paint1_linear_6561_3948" x1="18.0273" y1="27.4966" x2="91.0547" y2="27.4966" gradientUnits="userSpaceOnUse">
<stop stop-color="#3A3A3A"/>
<stop offset="0.14" stop-color="#363636"/>
<stop offset="0.28" stop-color="#2A2A2A"/>
<stop offset="0.42" stop-color="#161617"/>
<stop offset="0.53" stop-color="#000001"/>
<stop offset="0.63" stop-color="#171718"/>
<stop offset="0.74" stop-color="#282828"/>
<stop offset="0.86" stop-color="#323232"/>
<stop offset="1" stop-color="#363636"/>
</linearGradient>
<linearGradient id="paint2_linear_6561_3948" x1="99.4883" y1="26.6487" x2="97.2891" y2="26.6487" gradientUnits="userSpaceOnUse">
<stop/>
<stop offset="0.05" stop-color="#2E2E2E"/>
<stop offset="0.12" stop-color="#646464"/>
<stop offset="0.19" stop-color="#949494"/>
<stop offset="0.26" stop-color="#BABABA"/>
<stop offset="0.33" stop-color="#D8D8D8"/>
<stop offset="0.39" stop-color="#EDEDED"/>
<stop offset="0.46" stop-color="#FAFAFA"/>
<stop offset="0.52" stop-color="white"/>
<stop offset="0.6" stop-color="#FBFBFB"/>
<stop offset="0.66" stop-color="#F1F1F1"/>
<stop offset="0.72" stop-color="#E0E0E0"/>
<stop offset="0.77" stop-color="#C9C9C9"/>
<stop offset="0.82" stop-color="#AAAAAA"/>
<stop offset="0.87" stop-color="#848484"/>
<stop offset="0.92" stop-color="#585858"/>
<stop offset="0.97" stop-color="#252525"/>
<stop offset="1"/>
</linearGradient>
<linearGradient id="paint3_linear_6561_3948" x1="99.3262" y1="26.6389" x2="97.3008" y2="26.6389" gradientUnits="userSpaceOnUse">
<stop/>
<stop offset="0.05" stop-color="#2E2E2E"/>
<stop offset="0.12" stop-color="#646464"/>
<stop offset="0.19" stop-color="#949494"/>
<stop offset="0.26" stop-color="#BABABA"/>
<stop offset="0.33" stop-color="#D8D8D8"/>
<stop offset="0.39" stop-color="#EDEDED"/>
<stop offset="0.46" stop-color="#FAFAFA"/>
<stop offset="0.52" stop-color="white"/>
<stop offset="0.6" stop-color="#FBFBFB"/>
<stop offset="0.66" stop-color="#F1F1F1"/>
<stop offset="0.72" stop-color="#E0E0E0"/>
<stop offset="0.77" stop-color="#C9C9C9"/>
<stop offset="0.82" stop-color="#AAAAAA"/>
<stop offset="0.87" stop-color="#848484"/>
<stop offset="0.92" stop-color="#585858"/>
<stop offset="0.97" stop-color="#252525"/>
<stop offset="1"/>
</linearGradient>
<linearGradient id="paint4_linear_6561_3948" x1="69.6399" y1="24.3527" x2="69.6399" y2="28.1103" gradientUnits="userSpaceOnUse">
<stop/>
<stop offset="0.5" stop-color="white"/>
<stop offset="1"/>
</linearGradient>
<linearGradient id="paint5_linear_6561_3948" x1="64.7511" y1="24.1273" x2="64.7511" y2="28.3358" gradientUnits="userSpaceOnUse">
<stop/>
<stop offset="0.5" stop-color="white"/>
<stop offset="1"/>
</linearGradient>
<linearGradient id="paint6_linear_6561_3948" x1="76.5871" y1="24.1273" x2="76.5871" y2="28.3358" gradientUnits="userSpaceOnUse">
<stop/>
<stop offset="0.5" stop-color="white"/>
<stop offset="1"/>
</linearGradient>
<linearGradient id="paint7_linear_6561_3948" x1="62.8213" y1="24.3904" x2="62.8213" y2="28.0728" gradientUnits="userSpaceOnUse">
<stop/>
<stop offset="0.5" stop-color="white"/>
<stop offset="1"/>
</linearGradient>
<linearGradient id="paint8_linear_6561_3948" x1="65.206" y1="24.3151" x2="65.206" y2="28.0727" gradientUnits="userSpaceOnUse">
<stop stop-opacity="0"/>
<stop offset="1"/>
</linearGradient>
<linearGradient id="paint9_linear_6561_3948" x1="99.4961" y1="26.6505" x2="97.5" y2="26.6505" gradientUnits="userSpaceOnUse">
<stop/>
<stop offset="0.05" stop-color="#2E2E2E"/>
<stop offset="0.12" stop-color="#646464"/>
<stop offset="0.19" stop-color="#949494"/>
<stop offset="0.26" stop-color="#BABABA"/>
<stop offset="0.33" stop-color="#D8D8D8"/>
<stop offset="0.39" stop-color="#EDEDED"/>
<stop offset="0.46" stop-color="#FAFAFA"/>
<stop offset="0.52" stop-color="white"/>
<stop offset="0.6" stop-color="#FBFBFB"/>
<stop offset="0.66" stop-color="#F1F1F1"/>
<stop offset="0.72" stop-color="#E0E0E0"/>
<stop offset="0.77" stop-color="#C9C9C9"/>
<stop offset="0.82" stop-color="#AAAAAA"/>
<stop offset="0.87" stop-color="#848484"/>
<stop offset="0.92" stop-color="#585858"/>
<stop offset="0.97" stop-color="#252525"/>
<stop offset="1"/>
</linearGradient>
<linearGradient id="paint10_linear_6561_3948" x1="86.2715" y1="26.6408" x2="90.8496" y2="26.6408" gradientUnits="userSpaceOnUse">
<stop/>
<stop offset="1" stop-opacity="0"/>
</linearGradient>
<linearGradient id="paint11_linear_6561_3948" x1="61.0156" y1="26.6407" x2="66.9219" y2="26.6407" gradientUnits="userSpaceOnUse">
<stop stop-color="white"/>
<stop offset="1"/>
</linearGradient>
<linearGradient id="paint12_linear_6561_3948" x1="53.2129" y1="18.6043" x2="53.2129" y2="34.6772" gradientUnits="userSpaceOnUse">
<stop stop-color="#171717"/>
<stop offset="0.04" stop-color="#5C5C5C"/>
<stop offset="0.06" stop-color="#969696"/>
<stop offset="0.09" stop-color="#C3C3C3"/>
<stop offset="0.11" stop-color="#E4E4E4"/>
<stop offset="0.13" stop-color="#F7F7F7"/>
<stop offset="0.14" stop-color="white"/>
<stop offset="0.15" stop-color="#F8F8F8"/>
<stop offset="0.17" stop-color="#E7E7E7"/>
<stop offset="0.2" stop-color="#CBCBCB"/>
<stop offset="0.22" stop-color="#A4A4A4"/>
<stop offset="0.25" stop-color="#717171"/>
<stop offset="0.27" stop-color="#353535"/>
<stop offset="0.3"/>
<stop offset="0.72"/>
<stop offset="0.74" stop-color="#272727"/>
<stop offset="0.76" stop-color="#5F5F5F"/>
<stop offset="0.78" stop-color="#909090"/>
<stop offset="0.8" stop-color="#B8B8B8"/>
<stop offset="0.82" stop-color="#D7D7D7"/>
<stop offset="0.83" stop-color="#EDEDED"/>
<stop offset="0.85" stop-color="#FAFAFA"/>
<stop offset="0.87" stop-color="white"/>
<stop offset="0.88" stop-color="#F8F8F8"/>
<stop offset="0.9" stop-color="#E6E6E6"/>
<stop offset="0.92" stop-color="#C8C8C8"/>
<stop offset="0.94" stop-color="#9E9E9E"/>
<stop offset="0.96" stop-color="#696969"/>
<stop offset="0.99" stop-color="#282828"/>
<stop offset="1"/>
</linearGradient>
<linearGradient id="paint13_linear_6561_3948" x1="64.0625" y1="26.6507" x2="83.6269" y2="26.6507" gradientUnits="userSpaceOnUse">
<stop/>
<stop offset="0.46" stop-opacity="0"/>
<stop offset="1"/>
</linearGradient>
<linearGradient id="paint14_linear_6561_3948" x1="56.373" y1="26.6349" x2="58.1934" y2="26.6349" gradientUnits="userSpaceOnUse">
<stop stop-color="white"/>
<stop offset="1"/>
</linearGradient>
<clipPath id="clip0_6561_3948">
<rect width="100" height="61" fill="white" transform="matrix(1 0 0 -1 0 61)"/>
</clipPath>
</defs>
</svg>
