<svg width="100" height="56" viewBox="0 0 100 56" fill="none" xmlns="http://www.w3.org/2000/svg">
<g clip-path="url(#clip0_6561_3376)">
<path d="M99.8279 41.176L96.139 49.0297C95.8422 49.6612 95.2014 50.0693 94.5067 50.0693H89.7595V53.7298C89.9895 53.9288 90.081 54.2586 89.9632 54.5585C89.8145 54.9374 89.388 55.1234 89.0109 54.974C88.7203 54.859 88.5446 54.5783 88.5469 54.2823L87.2933 53.7856L86.5083 55.8749C86.4707 55.9753 86.3584 56.026 86.2586 55.9882L86.189 55.9617C86.0891 55.924 86.0386 55.8112 86.0762 55.7109L87.9442 50.7385C87.9818 50.6382 88.094 50.5874 88.1939 50.6252L88.2635 50.6517C88.3634 50.6895 88.4139 50.8022 88.3763 50.9026L87.479 53.2906L88.7393 53.7901C88.7691 53.7574 88.8016 53.7281 88.8359 53.7016V50.0693H78.2506C78.0289 50.0693 77.8365 49.9436 77.7394 49.7592H63.1785C62.7038 49.7592 62.3188 49.3725 62.3188 48.8956V46.6445H61.1483L61.1556 47.5668H61.155V47.5758H56.8102H55.6733V48.9604H55.6744L55.6727 49.0557H55.5807L45.2418 49.041L45.1301 48.8578L43.4467 49.7598H27.7349L26.0515 48.8578V48.82H25.0521C24.6464 48.82 24.2418 48.8567 23.8429 48.9294L19.6181 49.6989C18.8454 49.8399 18.0621 49.9103 17.277 49.9103H7.18892C6.27708 49.9103 5.4191 49.474 4.87929 48.736L1.17467 43.6706V42.8994H1.00072C0.698268 42.8994 0.453613 42.653 0.453613 42.3497V12.5471C0.453613 12.2433 0.69883 11.9975 1.00072 11.9975H1.17467V11.2787L4.87929 6.21441C5.41966 5.47588 6.27708 5.04009 7.18892 5.04009H17.277C18.0621 5.04009 18.846 5.11113 19.6181 5.2515L23.8429 6.02103C24.2418 6.09376 24.6464 6.1304 25.0521 6.1304H26.0515V6.09263L27.7349 5.19062H43.4467L45.1301 6.09263L45.2418 5.90941L55.5807 5.89475H55.6727L55.6744 5.99003H55.6733V7.37462H56.8102H59.9071L62.3194 6.55097V6.1056C62.3194 5.62865 62.7043 5.24192 63.179 5.24192H77.7394C77.8365 5.05757 78.0284 4.93185 78.2506 4.93185H88.0693L85.7894 0.315781C85.7417 0.219379 85.781 0.10268 85.877 0.05476L85.9438 0.0214958C86.0397 -0.0264244 86.1559 0.0130386 86.2036 0.109444L87.3326 2.39605L88.5553 1.80918C88.5317 1.51377 88.6877 1.22062 88.97 1.08531C89.3358 0.909981 89.7741 1.06558 89.9486 1.43259C90.0956 1.7421 90.0081 2.1029 89.7584 2.31431V4.93185H94.5056C95.2008 4.93185 95.8411 5.34001 96.1379 5.97142L99.8268 13.8252C99.9396 14.0659 99.9996 14.3331 99.9996 14.5992V40.4036C99.9996 40.6692 99.9402 40.937 99.8268 41.1777L99.8279 41.176ZM88.837 2.33066C88.8185 2.31657 88.8011 2.30078 88.7837 2.285L87.5677 2.86848L88.5553 4.86871C88.5654 4.88844 88.5704 4.9093 88.5732 4.93072H88.8364V2.33066H88.837Z" fill="#231F20"/>
<path d="M99.5484 13.9565L95.8595 6.10276C95.6126 5.57677 95.0851 5.24078 94.506 5.24078H63.1795C62.7048 5.24078 62.3198 5.62752 62.3198 6.10446V48.895C62.3198 49.3719 62.7048 49.7587 63.1795 49.7587H94.506C95.0851 49.7587 95.612 49.4232 95.8595 48.8967L99.5484 41.0429C99.6426 40.8422 99.6915 40.6229 99.6915 40.4014V14.5969C99.6915 14.3748 99.6426 14.1561 99.5484 13.9554V13.9565Z" fill="#BABABA"/>
<path d="M62.3199 46.6437H61.1494L61.1567 47.566H61.1562V47.575H56.8113H55.6744V48.9596H55.6755L55.6739 49.0549H55.5818L45.2429 49.0402L45.1312 48.857L43.4478 49.759H27.736L26.0526 48.857V48.8192H25.0532C24.6475 48.8192 24.243 48.8559 23.844 48.9286L19.6192 49.6981C18.8465 49.8391 18.0632 49.9095 17.2781 49.9095H7.19005C6.2782 49.9095 5.42023 49.4732 4.88041 48.7352L1.17467 43.6704V42.8992H1.00072C0.698268 42.8992 0.453613 42.6528 0.453613 42.3495V12.5469C0.453613 12.243 0.69883 11.9972 1.00072 11.9972H1.17467V11.2784L4.87929 6.21418C5.41966 5.47565 6.27708 5.03986 7.18892 5.03986H17.277C18.0621 5.03986 18.846 5.1109 19.6181 5.25127L23.8429 6.02081C24.2418 6.09353 24.6464 6.13017 25.0521 6.13017H26.0515V6.09241L27.7349 5.19039H43.4467L45.1301 6.09241L45.2418 5.90918L55.5807 5.89453H55.6727L55.6744 5.9898H55.6733V7.3744H56.8102H59.9071L62.3194 6.55074V46.6437H62.3199Z" fill="#231F20"/>
<path d="M89.0176 2.18056L87.2642 3.02197L87.0373 2.5448L88.7908 1.70339L89.0176 2.18056Z" fill="url(#paint0_linear_6561_3376)"/>
<path opacity="0.5" d="M99.5482 41.0433L95.8593 48.897C95.6124 49.423 95.0849 49.759 94.5058 49.759H89.2974V48.4624H89.7586V49.007H91.8741C92.7253 49.007 93.4846 48.4697 93.7713 47.6641L95.4059 43.0678C95.5978 42.5288 96.0018 42.0925 96.5237 41.8613L99.0095 40.908C99.2845 40.8026 99.4663 40.5376 99.4663 40.2416V37.398C99.4663 37.0564 99.2255 36.7632 98.8917 36.6984L98.0746 36.5389C97.4389 36.3663 96.9973 35.7868 96.9973 35.1249V20.3415C96.9973 19.6796 97.4389 19.1006 98.0746 18.9275L98.8917 18.768C99.2255 18.7032 99.4663 18.4095 99.4663 18.0684V15.2248C99.4663 14.9294 99.2845 14.6638 99.0095 14.5584L96.5237 13.6051C96.0018 13.3745 95.5978 12.9382 95.4059 12.3986L93.7713 7.8023C93.4851 6.99669 92.7253 6.45943 91.8741 6.45943L89.6896 6.4786V5.23832H94.5053C95.0844 5.23832 95.6113 5.57376 95.8587 6.10031L99.5476 13.9541C99.6419 14.1548 99.6907 14.3741 99.6907 14.5956V40.4C99.6907 40.6222 99.6419 40.8409 99.5476 41.0416L99.5482 41.0433Z" fill="url(#paint1_linear_6561_3376)"/>
<path opacity="0.5" d="M99.5484 41.0433L95.8595 48.897C95.6126 49.423 95.0851 49.759 94.506 49.759H63.1795C62.7048 49.759 62.3198 49.3723 62.3198 48.8954V6.10482C62.3198 5.62788 62.7048 5.24114 63.1795 5.24114H94.506C95.0851 5.24114 95.612 5.57658 95.8595 6.10313L99.5484 13.9569C99.6426 14.1576 99.6915 14.3769 99.6915 14.5984V40.4029C99.6915 40.625 99.6426 40.8437 99.5484 41.0444V41.0433ZM94.1362 22.9331C94.1362 21.6308 93.0852 20.5749 91.789 20.5749H65.0974C64.1211 20.5749 63.3299 21.3698 63.3299 22.3507V46.6865C63.3299 47.6675 64.1211 48.4624 65.0974 48.4624H91.789C93.0852 48.4624 94.1362 47.4065 94.1362 46.1042V22.9336V22.9331Z" fill="url(#paint2_radial_6561_3376)"/>
<path d="M51.6143 35.589V27.4652V27.4094V19.2856H62.3196V27.4094V27.4652V35.589H51.6143Z" fill="url(#paint3_linear_6561_3376)"/>
<path d="M55.6742 49.007H45.2876V45.2884L55.6742 47.566V49.007Z" fill="url(#paint4_radial_6561_3376)"/>
<path d="M45.2876 40.7331V45.2883L55.6742 47.5659H57.1085L45.2876 40.7331Z" fill="url(#paint5_radial_6561_3376)"/>
<path d="M45.2876 36.1909V40.7331L57.1085 47.5659H57.9412L49.729 38.4093V36.1909H45.2876Z" fill="url(#paint6_radial_6561_3376)"/>
<path d="M49.729 35.5973V38.4093L57.9412 47.5659H58.7044L53.731 36.7169V35.5973H49.729Z" fill="url(#paint7_radial_6561_3376)"/>
<path d="M61.0639 35.5973H53.731V36.7169L58.7043 47.5659H61.1565L61.0639 35.5973Z" fill="url(#paint8_radial_6561_3376)"/>
<path d="M45.1304 48.857H37.3283L37.3042 48.0768H34.0423V48.857H26.0518L27.7352 49.759H43.447L45.1304 48.857Z" fill="#404041"/>
<path d="M34.3189 48.4934V48.8565H37.0499V48.4934C37.0499 48.4449 37.0107 48.4055 36.9624 48.4055H34.4064C34.3582 48.4055 34.3189 48.4449 34.3189 48.4934ZM37.2744 48.8571V48.3333C37.2744 48.2488 37.2065 48.1805 37.1223 48.1805H34.2471C34.1629 48.1805 34.095 48.2488 34.095 48.3333V48.8571H30.1996V47.5514C30.1996 46.7734 29.5723 46.1431 28.7979 46.1431H28.7738C27.9994 46.1431 27.372 46.7734 27.372 47.5514V48.8571H26.0522V36.1911H45.1309V48.8571H37.275H37.2744Z" fill="url(#paint9_radial_6561_3376)"/>
<path d="M11.4114 23.8408C8.48956 23.8408 6.12101 25.4559 6.12101 27.4477C6.12101 29.4395 8.48956 31.0546 11.4114 31.0546C11.8306 31.0546 12.6296 31.071 12.6296 31.071V34.9643H10.3884V34.5195H9.9502V34.1672H8.75162V34.5195H8.31337V34.9643H6.06265V34.5195H5.62441V34.1672H4.42582V34.5195H3.98757V34.9643H3.83158V42.349C3.83158 42.6529 3.58636 42.8987 3.28447 42.8987H1.00121C0.698757 42.8987 0.454102 42.6523 0.454102 42.349V12.5464C0.454102 12.2425 0.699318 11.9967 1.00121 11.9967H3.28447C3.58692 11.9967 3.83158 12.2431 3.83158 12.5464V19.9311H3.98757V20.337H4.42582V20.748H5.62441V20.337H6.06265V19.9311H8.31337V20.337H8.75162V20.748H9.9502V20.337H10.3884V19.9311H12.6296V23.8244C12.6296 23.8244 11.8306 23.8408 11.4114 23.8408Z" fill="url(#paint10_linear_6561_3376)"/>
<path d="M46.9447 33.9924V32.9213H22.0303V33.9924H46.9447ZM22.0303 20.9594H46.9447V22.0306H22.0303V20.9594Z" fill="url(#paint11_linear_6561_3376)"/>
<path d="M41.6189 30.8872C41.6834 30.7389 41.6559 30.5596 41.5347 30.4384C41.3776 30.2806 41.1223 30.2806 40.9646 30.4384C40.8075 30.5963 40.8075 30.8528 40.9646 31.0112C41.0852 31.1324 41.2637 31.1606 41.4113 31.0958L42.9482 32.6399H23.3208V22.3124H42.9482L41.4113 23.8565C41.2637 23.7917 41.0852 23.8193 40.9646 23.9411C40.8075 24.0989 40.8075 24.3554 40.9646 24.5139C41.1217 24.6717 41.377 24.6717 41.5347 24.5139C41.6553 24.3926 41.6834 24.2134 41.6189 24.0651L43.1289 22.548V32.4048L41.6189 30.8877V30.8872Z" fill="url(#paint12_linear_6561_3376)"/>
<path d="M44.9553 36.2384V34.0256H19.8164V36.2384H44.9553ZM19.8164 18.7799H44.9553V20.9926H19.8164V18.7799Z" fill="url(#paint13_linear_6561_3376)"/>
<path d="M46.8884 36.2051V33.9923H45.1304V36.2051H46.8884ZM45.1304 18.7466H46.8884V20.9593H45.1304V18.7466Z" fill="url(#paint14_linear_6561_3376)"/>
<path d="M51.6144 35.0991V35.6273H47.8425V33.9924H46.8886V32.9213H44.6782V32.2448H43.1475V27.499V27.4528V22.7071H44.6782V22.0305H46.8886V20.9594H47.8425V19.3245H51.6144V19.8533H51.2127V22.3688H51.6144V27.4528V27.499V32.583H51.2127V35.0991H51.6144Z" fill="url(#paint15_linear_6561_3376)"/>
<path opacity="0.25" d="M91.8753 6.46173C92.7265 6.46173 93.4857 6.99899 93.7724 7.8046L95.407 12.4009C95.5989 12.9399 96.003 13.3762 96.5248 13.6074L99.0106 14.5607C99.2856 14.6661 99.4674 14.9311 99.4674 15.2271V18.0707C99.4674 18.4123 99.2267 18.7055 98.8928 18.7703L98.0758 18.9298C97.44 19.1024 96.9984 19.6819 96.9984 20.3438V35.1272C96.9984 35.7891 97.44 36.3681 98.0758 36.5412L98.8928 36.7007C99.2261 36.7655 99.4674 37.0593 99.4674 37.4003V40.2439C99.4674 40.5393 99.2856 40.8049 99.0106 40.9103L96.5248 41.8636C96.003 42.0942 95.5989 42.5305 95.407 43.0701L93.7724 47.6664C93.4863 48.472 92.7265 49.0093 91.8753 49.0093H89.7598V48.4647H91.8377C93.1283 48.4647 94.1748 47.4133 94.1748 46.1166V22.9235C94.1748 21.6269 93.1283 20.5755 91.8377 20.5755H91.2748V6.46455H91.8753V6.46173Z" fill="url(#paint16_linear_6561_3376)"/>
<path d="M97.0542 35.126V20.3425C97.0542 19.7568 97.401 19.2358 97.9212 19.0041V36.4644C97.4004 36.2326 97.0542 35.7117 97.0542 35.126Z" fill="#231F20"/>
<path d="M93.772 47.6642L94.0644 46.8417L95.3707 46.8462L95.7074 46.9025V47.7747C95.7074 48.3807 95.2181 48.8723 94.6149 48.8723H92.5981C93.1352 48.6637 93.5706 48.2308 93.772 47.6647V47.6642Z" fill="url(#paint17_linear_6561_3376)"/>
<path d="M91.789 20.5748H91.2744V6.46165H91.789V20.5748Z" fill="#231F20"/>
<path d="M28.7852 46.4216C29.4128 46.4216 29.9215 46.9327 29.9215 47.5632C29.9215 48.1937 29.4128 48.7048 28.7852 48.7048C28.1577 48.7048 27.6489 48.1937 27.6489 47.5632C27.6489 46.9327 28.1577 46.4216 28.7852 46.4216Z" fill="#BE1E2D"/>
<path d="M65.7163 20.5748V20.0511C65.7163 19.829 65.8959 19.6486 66.117 19.6486H69.9765C70.4169 19.6486 70.8428 19.8081 71.1756 20.0985L71.7216 20.5748H69.9248V20.3454C69.9248 20.1233 69.7453 19.9429 69.5242 19.9429H66.7847C66.5636 19.9429 66.3841 20.1233 66.3841 20.3454V20.5748H65.7163Z" fill="url(#paint18_linear_6561_3376)"/>
<path d="M81.6727 17.3242C82.5962 17.3242 83.3449 18.0764 83.3449 19.0042C83.3449 19.932 82.5962 20.6842 81.6727 20.6842C80.7492 20.6842 80.0005 19.932 80.0005 19.0042C80.0005 18.0764 80.7492 17.3242 81.6727 17.3242Z" fill="url(#paint19_radial_6561_3376)"/>
<path d="M88.8369 6.23621H89.7594V1.65453C89.7594 1.41888 89.5692 1.22776 89.3346 1.22776H89.2623C89.0277 1.22776 88.8375 1.41888 88.8375 1.65453V6.23621H88.8369Z" fill="#231F20"/>
<path d="M89.2184 54.7675H89.3783C89.5888 54.7675 89.7599 54.5955 89.7599 54.3841V48.4624H88.8374V54.3841C88.8374 54.5955 89.0085 54.7675 89.219 54.7675H89.2184Z" fill="#231F20"/>
<path d="M89.2872 1.01177C89.6925 1.01177 90.0212 1.34192 90.0212 1.74917C90.0212 2.15643 89.6925 2.48657 89.2872 2.48657C88.8818 2.48657 88.5532 2.15643 88.5532 1.74917C88.5532 1.34192 88.8818 1.01177 89.2872 1.01177Z" fill="#231F20"/>
<path d="M88.7827 54.3695L86.9751 53.6531L87.1683 53.1612L88.9759 53.8776L88.7827 54.3695Z" fill="url(#paint20_linear_6561_3376)"/>
<path d="M59.3699 35.5974V33.8605H60.3592C60.4821 34.1407 60.761 34.3368 61.0853 34.3368C61.5236 34.3368 61.8793 33.98 61.8793 33.5391C61.8793 33.0983 61.5241 32.7414 61.0853 32.7414C60.7795 32.7414 60.5146 32.9156 60.3817 33.1699H59.3694V31.1629H60.3586C60.4815 31.4431 60.7604 31.6393 61.0847 31.6393C61.523 31.6393 61.8788 31.2824 61.8788 30.8415C61.8788 30.4007 61.5236 30.0438 61.0847 30.0438C60.7789 30.0438 60.5141 30.218 60.3811 30.4723H59.3688V28.4653H60.3581C60.481 28.7455 60.7599 28.9417 61.0842 28.9417C61.5224 28.9417 61.8782 28.5848 61.8782 28.1439C61.8782 27.7031 61.523 27.3462 61.0842 27.3462C60.7784 27.3462 60.5135 27.5204 60.3805 27.7747H59.3682V25.7677H60.3575C60.4804 26.0479 60.7593 26.2441 61.0836 26.2441C61.5219 26.2441 61.8776 25.8872 61.8776 25.4463C61.8776 25.0055 61.5224 24.6486 61.0836 24.6486C60.7778 24.6486 60.513 24.8228 60.38 25.0771H59.3677V23.5059H63.2008V35.5968H59.3677L59.3699 35.5974Z" fill="url(#paint21_radial_6561_3376)"/>
<path d="M47.5388 24.3087C49.2929 24.3087 50.7148 25.7373 50.7148 27.4995C50.7148 29.2618 49.2929 30.6904 47.5388 30.6904C45.7847 30.6904 44.3628 29.2618 44.3628 27.4995C44.3628 25.7373 45.7847 24.3087 47.5388 24.3087Z" fill="#FFF100"/>
<path opacity="0.5" d="M47.5388 24.3087C49.2929 24.3087 50.7148 25.7373 50.7148 27.4995C50.7148 29.2618 49.2929 30.6904 47.5388 30.6904C45.7847 30.6904 44.3628 29.2618 44.3628 27.4995C44.3628 25.7373 45.7847 24.3087 47.5388 24.3087Z" fill="url(#paint22_radial_6561_3376)"/>
<path d="M47.3814 29.5708H48.2882C49.0009 29.5708 49.5794 28.9896 49.5794 28.2736V25.4125C49.5794 25.0658 49.2994 24.7845 48.9543 24.7845H47.3809V29.5702L47.3814 29.5708Z" fill="#FFF100"/>
<path d="M58.4177 30.9282C58.2106 30.8995 58.0013 30.8747 57.7948 30.8544C57.6276 30.838 57.5316 30.6323 57.4301 30.4146C57.388 30.325 57.3139 30.166 57.2684 30.1209C57.2028 30.2055 57.1001 30.5048 57.0361 30.6903C56.8689 31.1769 56.7803 31.4119 56.6097 31.4119C56.6086 31.4119 56.6074 31.4119 56.6069 31.4119C56.4239 31.4091 56.3661 31.1447 56.2719 30.639C56.241 30.4722 56.1972 30.2382 56.1552 30.1181C56.0906 30.2528 56.0059 30.5449 55.9459 30.7512C55.768 31.364 55.6911 31.5794 55.5317 31.589C55.5284 31.589 55.5244 31.589 55.5211 31.589C55.3494 31.589 55.2686 31.3234 55.1053 30.7371C55.0536 30.5516 54.9829 30.2957 54.9246 30.1514C54.8909 30.307 54.8634 30.581 54.8438 30.7794C54.777 31.4475 54.7417 31.6651 54.5767 31.6876C54.4055 31.7107 54.3012 31.4655 54.0829 30.9068C54.015 30.7332 53.9218 30.4941 53.8517 30.3617C53.8287 30.5122 53.8191 30.7738 53.8124 30.9632C53.79 31.5692 53.7743 31.8167 53.6082 31.8511C53.4437 31.8855 53.345 31.6803 53.0852 31.0376C53.0111 30.8544 52.909 30.6024 52.8344 30.462C52.8069 30.6294 52.7895 30.9288 52.7777 31.1453C52.7362 31.8793 52.7098 32.0698 52.5661 32.1093C52.3984 32.1555 52.2968 31.9424 52.028 31.3189C51.9556 31.1509 51.8574 30.9232 51.7833 30.7833C51.7738 30.9395 51.78 31.1819 51.7845 31.3612C51.8002 31.9999 51.7934 32.2108 51.6504 32.2593C51.4921 32.3134 51.3698 32.1178 51.083 31.6324C51.0011 31.4937 50.8889 31.3031 50.8092 31.1943C50.7997 31.3324 50.8064 31.5608 50.8115 31.7276C50.8289 32.3004 50.8232 32.4904 50.6897 32.544C50.5444 32.6026 50.4114 32.4402 50.1241 32.0682C50.0427 31.9627 49.9316 31.819 49.8536 31.7367C49.8525 31.8522 49.8693 32.0383 49.8822 32.1736C49.9237 32.6252 49.9366 32.8275 49.8031 32.889C49.6516 32.9583 49.5152 32.7683 49.2672 32.4222C49.2055 32.3359 49.1247 32.2232 49.0585 32.142C49.0714 32.2638 49.1011 32.4329 49.1236 32.5603C49.2083 33.0423 49.2375 33.2408 49.1079 33.3073C48.9592 33.384 48.8262 33.1951 48.5619 32.8191C48.5029 32.7351 48.4266 32.6268 48.3621 32.5434C48.3778 32.6494 48.4042 32.7819 48.4244 32.8839C48.5125 33.327 48.5428 33.5097 48.421 33.5785C48.2802 33.6574 48.1433 33.4815 47.8705 33.1303C47.8139 33.0576 47.742 32.9651 47.6792 32.8901C47.6988 32.9972 47.7286 33.1292 47.7521 33.2318C47.861 33.7093 47.8896 33.8637 47.7757 33.9325C47.6444 34.012 47.5109 33.8592 47.2185 33.5238C47.1641 33.4612 47.0956 33.3828 47.0345 33.3169C47.0384 33.3332 47.0423 33.349 47.0457 33.3642C47.1113 33.6382 47.1854 33.9489 47.012 34.0813C46.8605 34.1969 46.6905 34.0864 46.5541 33.9979C46.383 33.8863 46.2994 33.8491 46.227 33.9049C46.1114 33.9945 46.0873 34.1687 46.0643 34.3367C46.0424 34.4974 46.0216 34.6485 45.9122 34.7302C45.7837 34.8261 45.6412 34.8052 45.5413 34.7787V34.8086C45.0879 34.8086 44.9409 34.3576 44.9263 34.1191L45.2063 34.1022C45.2074 34.1197 45.2355 34.5267 45.5407 34.5267V34.5436C45.5435 34.5448 45.5463 34.5453 45.5497 34.5464C45.6395 34.5746 45.7186 34.5938 45.7781 34.5493C45.8117 34.5245 45.8286 34.3982 45.8415 34.3063C45.8679 34.1129 45.901 33.8722 46.0895 33.7262C46.2994 33.5638 46.5165 33.7053 46.6753 33.8085C46.7404 33.8508 46.8493 33.9218 46.8757 33.9015C46.9323 33.8581 46.8532 33.526 46.8268 33.4167C46.7718 33.1867 46.7387 33.048 46.8459 32.9809C46.9733 32.9008 47.0945 33.0395 47.3863 33.375C47.4508 33.4488 47.5339 33.5441 47.604 33.6179C47.5849 33.5136 47.5552 33.3828 47.5322 33.2819C47.4222 32.7977 47.3902 32.6268 47.5092 32.5569C47.6461 32.4763 47.7718 32.6381 48.0462 32.9916C48.1107 33.0745 48.1943 33.1821 48.2633 33.2628C48.2482 33.1596 48.2224 33.0288 48.2022 32.9279C48.1113 32.4707 48.0799 32.2824 48.2078 32.2136C48.3537 32.1352 48.4839 32.3202 48.7431 32.6889C48.8082 32.7813 48.8929 32.902 48.9625 32.9899C48.9491 32.8732 48.9216 32.7182 48.9008 32.5998C48.8138 32.1042 48.7835 31.9007 48.9199 31.8342C49.0686 31.7615 49.2032 31.9492 49.4473 32.2897C49.518 32.3884 49.6134 32.5214 49.6847 32.6043C49.6841 32.491 49.6684 32.3202 49.6566 32.1933C49.614 31.7299 49.6011 31.5224 49.7403 31.4627C49.8833 31.4012 50.0152 31.5608 50.2991 31.9289C50.3856 32.0411 50.5056 32.1961 50.5859 32.2779C50.5977 32.1465 50.5904 31.9064 50.5848 31.7338C50.5668 31.147 50.573 30.953 50.7127 30.9012C50.8687 30.8431 50.9905 31.0359 51.2744 31.5168C51.3591 31.6606 51.4758 31.8579 51.5572 31.9678C51.5696 31.8178 51.5628 31.5557 51.5583 31.3663C51.5421 30.7134 51.5494 30.4981 51.6992 30.4524C51.8664 30.4006 51.9668 30.612 52.2328 31.2293C52.3114 31.4114 52.4197 31.6628 52.4971 31.8021C52.524 31.6374 52.5403 31.3443 52.5527 31.1323C52.5953 30.3819 52.6222 30.188 52.7726 30.1514C52.9427 30.1102 53.0386 30.325 53.2922 30.9525C53.368 31.1402 53.4729 31.3995 53.5492 31.5416C53.5706 31.3928 53.5801 31.1391 53.5868 30.9547C53.6093 30.3521 53.6261 30.0843 53.7984 30.0544C53.9707 30.0245 54.0677 30.2545 54.2905 30.8239C54.3623 31.0077 54.4628 31.2648 54.5346 31.395C54.5694 31.2462 54.598 30.9604 54.6188 30.7563C54.6811 30.1311 54.7164 29.8543 54.8943 29.8362C54.8999 29.8357 54.9055 29.8351 54.9111 29.8351C55.0789 29.8351 55.1597 30.0995 55.3196 30.6757C55.3774 30.8837 55.4593 31.1791 55.5216 31.3122C55.5845 31.1814 55.6687 30.891 55.7281 30.6864C55.9105 30.0589 55.9891 29.839 56.1552 29.8351C56.3459 29.8306 56.4015 30.1187 56.4907 30.5956C56.5221 30.7631 56.5704 31.0235 56.6164 31.1419C56.6787 31.0331 56.7634 30.7873 56.8229 30.6142C56.9907 30.1266 57.0861 29.8723 57.2656 29.883C57.4345 29.8926 57.5305 30.0989 57.6321 30.3171C57.6798 30.4197 57.769 30.6103 57.815 30.6277C58.0243 30.648 58.2364 30.6734 58.4468 30.7027L58.416 30.926L58.4177 30.9282Z" fill="#D91C5C"/>
<path d="M47.3811 26.646H46.462C45.8133 26.646 45.2881 27.1742 45.2881 27.8254V28.8255C45.2881 29.0329 45.3644 29.2331 45.5024 29.3875L45.7959 29.7162C45.934 29.8707 46.0103 30.0708 46.0103 30.2783V32.3467C46.0103 32.8079 46.3823 33.1816 46.8413 33.1816H47.3817V26.6454L47.3811 26.646Z" fill="#FFF100"/>
<path d="M48.424 31.5378V31.4944C48.424 31.2362 48.2158 31.0271 47.9588 31.0271H47.3774V35.173C47.3774 35.328 47.502 35.4537 47.6563 35.4537L48.0463 35.4548C48.3218 35.4554 48.5844 35.337 48.7668 35.1301L48.7735 35.1222C48.8409 35.0455 48.8779 34.9469 48.8779 34.8448V33.0267C48.8779 32.7341 48.8179 32.4449 48.7012 32.1771L48.4228 31.5378H48.424Z" fill="#FFF100"/>
<path d="M47.3813 34.6683H46.1592V33.8227H47.3813V34.6683Z" fill="#FFF100"/>
<path d="M46.1589 34.9204H45.7476V33.458H46.1589V34.9204Z" fill="#FFF100"/>
<path d="M58.433 30.4514C58.6338 30.4514 58.7966 30.6149 58.7966 30.8167C58.7966 31.0184 58.6338 31.182 58.433 31.182C58.2321 31.182 58.0693 31.0184 58.0693 30.8167C58.0693 30.6149 58.2321 30.4514 58.433 30.4514Z" fill="url(#paint23_radial_6561_3376)"/>
<path opacity="0.25" d="M55.6745 47.5659L45.2783 46.4965L45.2879 45.2883L55.6745 47.5659Z" fill="#231F20"/>
<path opacity="0.25" d="M57.1761 47.552L45.2783 41.9973L45.2879 40.7333L57.1761 47.552Z" fill="#231F20"/>
<path opacity="0.25" d="M57.9411 47.5659L49.7288 38.4093V36.1909H48.1279V39.0903L57.9411 47.5659Z" fill="#231F20"/>
<path opacity="0.25" d="M53.7309 35.5973V36.7169L58.7043 47.5659L52.2041 36.7169V35.6272L53.7309 35.5973Z" fill="#231F20"/>
<path d="M60.8179 39.5319C62.135 39.5319 63.2028 40.6046 63.2028 41.9279C63.2028 43.2511 62.135 44.3239 60.8179 44.3239C59.5008 44.3239 58.4331 43.2511 58.4331 41.9279C58.4331 40.6046 59.5008 39.5319 60.8179 39.5319Z" fill="url(#paint24_radial_6561_3376)"/>
<path d="M55.6742 5.94074H45.2876V9.6593L55.6742 7.38171V5.94074Z" fill="url(#paint25_radial_6561_3376)"/>
<path d="M45.2876 14.2145V9.6593L55.6742 7.3817H57.1085L45.2876 14.2145Z" fill="url(#paint26_radial_6561_3376)"/>
<path d="M45.2876 18.7567V14.2145L57.1085 7.38172H57.9412L49.729 16.5383V18.7567H45.2876Z" fill="url(#paint27_radial_6561_3376)"/>
<path d="M49.729 19.3505V16.5384L57.9412 7.38183H58.7044L53.731 18.2308V19.3505H49.729Z" fill="url(#paint28_radial_6561_3376)"/>
<path d="M61.0639 19.3505H53.731V18.2308L58.7043 7.38183H61.1565L61.0639 19.3505Z" fill="url(#paint29_radial_6561_3376)"/>
<path d="M45.1304 6.09129H37.3283L37.3042 6.87097H34.0423V6.09129H26.0518L27.7352 5.18927H43.447L45.1304 6.09129Z" fill="#404041"/>
<path d="M34.4065 6.54245H36.9625C37.0107 6.54245 37.05 6.50299 37.05 6.4545V6.09144H34.319V6.4545C34.319 6.50299 34.3582 6.54245 34.4065 6.54245ZM45.1304 6.09144V18.7574H26.0518V6.09144H27.3715V7.39711C27.3715 8.1751 27.9989 8.80538 28.7733 8.80538H28.7974C29.5718 8.80538 30.1991 8.1751 30.1991 7.39711V6.09144H34.0945V6.61518C34.0945 6.69974 34.1624 6.76795 34.2466 6.76795H37.1218C37.206 6.76795 37.2739 6.69974 37.2739 6.61518V6.09144H45.1298H45.1304Z" fill="url(#paint30_radial_6561_3376)"/>
<path d="M26.0517 48.8193V36.5293H23.3218L22.8723 36.1911H1.17432V43.6705L4.87893 48.7347C5.41931 49.4733 6.27672 49.9091 7.18857 49.9091H17.2767C18.0617 49.9091 18.8456 49.838 19.6177 49.6976L23.8425 48.9281C24.2415 48.8554 24.6461 48.8187 25.0518 48.8187H26.0511L26.0517 48.8193ZM22.8718 18.7568H1.17432V11.2774L4.87893 6.21313C5.41931 5.4746 6.27672 5.03881 7.18857 5.03881H17.2767C18.0617 5.03881 18.8456 5.10985 19.6177 5.25023L23.8425 6.01976C24.2415 6.09248 24.6461 6.12913 25.0518 6.12913H26.0511V18.4191H23.3212L22.8718 18.7574V18.7568Z" fill="url(#paint31_linear_6561_3376)"/>
<path d="M28.7852 6.2435C29.4128 6.2435 29.9215 6.75462 29.9215 7.38512C29.9215 8.01562 29.4128 8.52673 28.7852 8.52673C28.1577 8.52673 27.6489 8.01562 27.6489 7.38512C27.6489 6.75462 28.1577 6.2435 28.7852 6.2435Z" fill="#BE1E2D"/>
<path opacity="0.25" d="M55.6745 7.38171L45.2783 8.45116L45.2879 9.6593L55.6745 7.38171Z" fill="#231F20"/>
<path opacity="0.25" d="M57.1761 7.39636L45.2783 12.9505L45.2879 14.2145L57.1761 7.39636Z" fill="#231F20"/>
<path opacity="0.25" d="M57.9411 7.38172L49.7288 16.5383V18.7567H48.1279V15.8573L57.9411 7.38172Z" fill="#231F20"/>
<path opacity="0.25" d="M53.7309 19.3505V18.2308L58.7043 7.38183L52.2041 18.2308V19.3206L53.7309 19.3505Z" fill="#231F20"/>
<path d="M18.5512 35.6837C17.1725 35.6837 15.9004 35.0754 14.8752 34.0488L9.88613 33.5155C9.72396 33.498 9.60107 33.361 9.60107 33.197V31.0524C9.60107 30.9211 9.68076 30.8032 9.80252 30.7548L15.0957 28.6491H18.6791C19.3368 28.6491 19.8704 28.1135 19.8704 27.4523V27.4083C19.8704 26.7476 19.3373 26.2114 18.6791 26.2114H15.2085L9.80308 24.0646C9.68132 24.0161 9.60164 23.8983 9.60164 23.767V21.623C9.60164 21.4589 9.72508 21.3219 9.88725 21.3044L14.9627 20.7706C15.9728 19.7953 17.2123 19.2202 18.5523 19.2202C21.9461 19.2202 24.6967 22.9055 24.6967 27.4511C24.6967 31.9967 21.9461 35.682 18.5523 35.682L18.5512 35.6837Z" fill="url(#paint32_linear_6561_3376)"/>
<path d="M44.5931 34.1107H45.542C45.6559 34.1107 45.748 34.0183 45.748 33.9038V33.6321H44.3872V33.9038C44.3872 34.0183 44.4792 34.1107 44.5931 34.1107Z" fill="#C3996B"/>
<path opacity="0.5" d="M48.73 34.9508L48.5123 34.9943C48.3137 35.0337 48.1279 34.8809 48.1279 34.6769V33.0622C48.1279 32.8835 48.2721 32.7386 48.4495 32.7386H48.7463C48.8192 32.7386 48.8782 32.7978 48.8782 32.8717V34.7693C48.8782 34.8578 48.8159 34.9339 48.7295 34.9514L48.73 34.9508Z" fill="url(#paint33_linear_6561_3376)"/>
<path opacity="0.5" d="M49.3049 28.8734L48.9626 28.9421C48.65 29.0047 48.3594 28.7623 48.3594 28.4393V25.8826C48.3594 25.5996 48.5855 25.3702 48.8644 25.3702H49.3307C49.4452 25.3702 49.5378 25.4643 49.5378 25.5804V28.5853C49.5378 28.7257 49.4401 28.8463 49.3043 28.8734H49.3049Z" fill="url(#paint34_linear_6561_3376)"/>
<path d="M48.9741 34.0087L48.1279 33.9089V34.6074L48.9741 34.5076C49.0381 34.5003 49.0858 34.4456 49.0858 34.3814V34.1344C49.0858 34.0702 49.0375 34.0155 48.9741 34.0081V34.0087Z" fill="url(#paint35_linear_6561_3376)"/>
<path d="M47.3841 34.6683V33.8266H47.3151V34.6683H47.3841ZM46.1592 33.8266H46.2282V34.6683H46.1592V33.8266Z" fill="url(#paint36_linear_6561_3376)"/>
<path d="M47.3771 33.1816H47.3086V31.4921H47.3771V33.1816Z" fill="url(#paint37_linear_6561_3376)"/>
<path d="M47.3779 28.9957H47.2466V26.6454H47.3779V28.9957Z" fill="url(#paint38_linear_6561_3376)"/>
<path opacity="0.5" d="M47.2172 28.7189C47.0517 28.7189 46.917 28.8542 46.917 29.0205V31.218C46.917 31.3844 47.0517 31.5197 47.2172 31.5197L47.2688 31.4633H47.2172C47.0825 31.4633 46.9731 31.3533 46.9731 31.218V29.0205C46.9731 28.8852 47.0825 28.7753 47.2172 28.7753V28.7189Z" fill="url(#paint39_linear_6561_3376)"/>
<path opacity="0.5" d="M91.7887 48.4624H65.0972C64.1208 48.4624 63.3296 47.6675 63.3296 46.6866V22.3507C63.3296 21.3698 64.1208 20.5749 65.0972 20.5749H91.7887C93.0849 20.5749 94.1359 21.6308 94.1359 22.9331V46.1036C94.1359 47.4059 93.0849 48.4618 91.7887 48.4618V48.4624Z" fill="url(#paint40_linear_6561_3376)"/>
<path d="M49.7471 27.1635L48.3594 26.938V28.5188L49.7471 28.2933C49.8514 28.2764 49.9306 28.1535 49.9306 28.0075V27.4488C49.9306 27.3028 49.852 27.1799 49.7471 27.163V27.1635Z" fill="url(#paint41_linear_6561_3376)"/>
<path d="M57.2179 43.0239H61.0229C61.5841 43.0239 62.0392 42.5662 62.0392 42.003V41.8524C62.0392 41.2887 61.5835 40.8315 61.0229 40.8315H57.2179C57.0473 40.8315 56.9087 40.9707 56.9087 41.1421V42.7133C56.9087 42.8847 57.0473 43.0239 57.2179 43.0239Z" fill="url(#paint42_linear_6561_3376)"/>
<path d="M91.2746 21.9793H87.6272C87.2715 21.9793 86.9819 22.2702 86.9819 22.6276V46.6539C86.9819 47.0113 87.2715 47.3022 87.6272 47.3022H91.2746C91.971 47.3022 92.5372 46.7334 92.5372 46.0338V23.2477C92.5372 22.5481 91.971 21.9793 91.2746 21.9793ZM87.6272 47.0204C87.4264 47.0204 87.2625 46.8557 87.2625 46.6539V22.6276C87.2625 22.4258 87.4264 22.2611 87.6272 22.2611H91.2746C91.8161 22.2611 92.2566 22.7037 92.2566 23.2477V46.0338C92.2566 46.5778 91.8161 47.0204 91.2746 47.0204H87.6272Z" fill="#231F20"/>
<path d="M83.4724 46.7125H66.457C66.0177 46.7125 65.6597 47.0716 65.6597 47.5136V48.4624H65.7719V47.5136C65.7719 47.1342 66.0794 46.8252 66.457 46.8252H83.4724C83.85 46.8252 84.1575 47.1342 84.1575 47.5136V48.4624H84.2697V47.5136C84.2697 47.0722 83.9123 46.7125 83.4724 46.7125Z" fill="url(#paint43_radial_6561_3376)"/>
<path d="M66.457 22.3411H83.4724C83.9117 22.3411 84.2697 21.9819 84.2697 21.54V20.5912H84.1575V21.54C84.1575 21.9194 83.85 22.2283 83.4724 22.2283H66.457C66.0794 22.2283 65.7719 21.9194 65.7719 21.54V20.5912H65.6597V21.54C65.6597 21.9814 66.0171 22.3411 66.457 22.3411Z" fill="url(#paint44_radial_6561_3376)"/>
<path d="M99.8275 41.1758L96.1386 49.0295C95.8418 49.6609 95.201 50.0691 94.5063 50.0691H78.2513C77.932 50.0691 77.6733 49.8092 77.6733 49.4884V49.449H94.5063C94.9636 49.449 95.3856 49.1806 95.5803 48.7651L99.2692 40.9114C99.3433 40.753 99.3826 40.5771 99.3826 40.4023V14.5979C99.3826 14.4231 99.3433 14.2466 99.2692 14.0888L95.5803 6.23505C95.385 5.81955 94.9636 5.5512 94.5063 5.5512H77.6733V5.51174C77.6733 5.19096 77.932 4.93107 78.2513 4.93107H94.5063C95.2015 4.93107 95.8418 5.33923 96.1386 5.97064L99.8275 13.8244C99.9403 14.0651 100 14.3323 100 14.5984V40.4029C100 40.6684 99.9409 40.9362 99.8275 41.1769V41.1758Z" fill="#231F20"/>
<path d="M94.065 46.8416L95.4073 43.0678C95.4791 42.8654 95.5812 42.6777 95.7075 42.5097V45.691L95.3708 46.8456L94.0645 46.8411L94.065 46.8416Z" fill="white"/>
<path d="M95.8474 42.3432L95.6229 42.6302V45.679L95.2627 46.9137L95.6229 46.974V47.7745C95.6229 48.3332 95.1707 48.7876 94.6146 48.7876H92.7875L92.5978 48.8716L92.5137 48.9556L92.5978 49.238H94.6146C95.2632 49.238 95.8474 48.4257 95.8474 47.774V42.3427V42.3432Z" fill="#231F20"/>
<path d="M93.772 7.81077L94.0644 8.6333L95.3707 8.62879L95.7074 8.57241V7.70028C95.7074 7.09424 95.2181 6.60264 94.6149 6.60264H92.5981C93.1352 6.81123 93.5706 7.2442 93.772 7.81021V7.81077Z" fill="url(#paint45_linear_6561_3376)"/>
<path d="M94.065 8.63279L95.4073 12.4066C95.4791 12.609 95.5812 12.7967 95.7075 12.9647V9.78342L95.3708 8.62884L94.0645 8.63335L94.065 8.63279Z" fill="white"/>
<path d="M95.8474 13.1315L95.6229 12.8446V9.79575L95.2627 8.56111L95.6229 8.50079V7.70025C95.6229 7.14156 95.1707 6.68717 94.6146 6.68717H92.7875L92.5978 6.60317L92.5137 6.51917L92.5978 6.23673H94.6146C95.2632 6.23673 95.8474 7.04911 95.8474 7.70082V13.1321V13.1315Z" fill="#231F20"/>
<path d="M92.6961 7.36368C92.9958 7.36368 93.2382 7.11958 93.2382 6.81909V6.78132C93.2382 6.48027 92.9952 6.23672 92.6961 6.23672H64.1669C63.5513 6.23672 62.9402 6.3382 62.3572 6.53721L57.2829 8.26965C56.9961 8.36774 56.8424 8.68063 56.94 8.96871L56.9479 8.99239C57.0455 9.28047 57.3569 9.43494 57.6437 9.33684L62.5424 7.66473C63.1254 7.46572 63.7365 7.36425 64.3521 7.36425H88.6139V9.34868C88.6139 10.3268 88.3558 11.2869 87.8653 12.132L82.9958 20.5235L84.2555 20.5337L88.9803 12.4415C89.4752 11.5936 89.7362 10.6284 89.7362 9.64579V7.36481H92.6961V7.36368ZM63.3297 23.2527H60.1817C59.8837 23.2527 59.6419 23.0097 59.6419 22.7104V22.6675C59.6419 22.3682 59.8837 22.1252 60.1817 22.1252H63.3297V23.2527ZM63.3297 46.6437H60.1867C59.886 46.6437 59.6419 46.3984 59.6419 46.0963V46.0636C59.6419 45.7614 59.886 45.5162 60.1867 45.5162H63.3297V46.6437Z" fill="#231F20"/>
<path d="M87.6271 47.1613H91.2745C91.894 47.1613 92.3967 46.6561 92.3967 46.0337V23.2477C92.3967 22.6253 91.894 22.1201 91.2745 22.1201H87.6271C87.3482 22.1201 87.1221 22.3473 87.1221 22.6275V46.6539C87.1221 46.9341 87.3482 47.1613 87.6271 47.1613Z" fill="url(#paint46_linear_6561_3376)"/>
<path d="M92.8286 35.5974V34.8735L91.7523 34.1243C91.5963 34.016 91.4964 33.8435 91.4796 33.6535L90.4858 22.5153L90.6446 22.5593L90.7277 23.4405H90.8792L90.8394 23.1214H91.0588L92.2871 32.6675C92.3348 33.0379 92.5104 33.3796 92.7831 33.6327L93.1703 33.9924L93.2674 34.0166C93.5867 34.0967 93.8106 34.3847 93.8106 34.7151V35.183C93.8106 35.4266 93.6102 35.6216 93.3684 35.6143L92.8286 35.598V35.5974ZM90.9639 24.1226H90.7917L91.6923 33.6986L92.1036 33.2826L90.9639 24.1226Z" fill="#231F20"/>
<path opacity="0.3" d="M63.33 22.1455H60.1097C60.0227 22.1455 59.6899 22.3502 59.6899 22.6033V22.769C59.6899 23.0216 60.0227 23.2268 60.1097 23.2268H63.33V22.1461V22.1455Z" fill="url(#paint47_linear_6561_3376)"/>
<path opacity="0.3" d="M63.33 45.5366H60.1097C60.0227 45.5366 59.6899 45.7413 59.6899 45.9944V46.1601C59.6899 46.4127 60.0227 46.6179 60.1097 46.6179H63.33V45.5372V45.5366Z" fill="url(#paint48_linear_6561_3376)"/>
<path opacity="0.3" d="M63.296 6.29882C62.9773 6.34899 62.6636 6.42679 62.3572 6.53109L57.2829 8.26352C56.9961 8.36161 56.8424 8.6745 56.94 8.96258L56.9479 8.98626C57.0455 9.27434 57.3569 9.42881 57.6437 9.33072L62.5424 7.65861C62.878 7.54416 63.2231 7.46185 63.5732 7.4128C63.4974 7.06666 63.3959 6.60663 63.296 6.29882Z" fill="url(#paint49_linear_6561_3376)"/>
<path opacity="0.3" d="M92.696 7.36367C92.9957 7.36367 93.2381 7.11957 93.2381 6.81908V6.78131C93.2381 6.48026 92.9951 6.23672 92.696 6.23672H64.1668C63.8183 6.23672 63.6371 6.23446 63.2959 6.29873C63.3778 6.66292 63.4721 7.0553 63.5731 7.41272C63.9098 7.35014 64.0085 7.36424 64.352 7.36424H92.696V7.36367Z" fill="url(#paint50_linear_6561_3376)"/>
<path opacity="0.3" d="M87.8651 12.1315L82.9956 20.5231L84.2554 20.5332L88.9801 12.441C88.584 12.3311 88.3539 12.2673 87.8651 12.1315Z" fill="url(#paint51_linear_6561_3376)"/>
<path opacity="0.3" d="M88.6133 7.36368V9.34811C89.0324 9.45861 89.3725 9.54881 89.7356 9.64465V7.36368H88.6133Z" fill="url(#paint52_linear_6561_3376)"/>
<path opacity="0.3" d="M88.6133 9.34813C88.6133 10.3263 88.3552 11.2863 87.8647 12.1314L88.9797 12.4409C89.4746 11.593 89.7356 10.6279 89.7356 9.64523L88.6133 9.34869V9.34813Z" fill="url(#paint53_linear_6561_3376)"/>
<path opacity="0.3" d="M88.8369 6.23621H89.7594V1.65453C89.7594 1.41888 89.5692 1.22776 89.3346 1.22776H89.2623C89.0277 1.22776 88.8375 1.41888 88.8375 1.65453V6.23621H88.8369Z" fill="url(#paint54_linear_6561_3376)"/>
<path d="M89.2808 53.5503C89.6862 53.5503 90.0148 53.8805 90.0148 54.2877C90.0148 54.695 89.6862 55.0251 89.2808 55.0251C88.8755 55.0251 88.5469 54.695 88.5469 54.2877C88.5469 53.8805 88.8755 53.5503 89.2808 53.5503Z" fill="#231F20"/>
<path opacity="0.3" d="M89.2184 54.7675H89.3783C89.5888 54.7675 89.7599 54.5955 89.7599 54.3841V48.4624H88.8374V54.3841C88.8374 54.5955 89.0085 54.7675 89.219 54.7675H89.2184Z" fill="url(#paint55_linear_6561_3376)"/>
<path d="M86.2593 55.8755L86.1889 55.8488C86.0889 55.8109 86.0384 55.6987 86.0762 55.5982L87.9445 50.6255C87.9822 50.525 88.0939 50.4743 88.194 50.5122L88.2643 50.5389C88.3643 50.5769 88.4148 50.6891 88.3771 50.7896L86.5088 55.7622C86.471 55.8627 86.3593 55.9135 86.2593 55.8755Z" fill="url(#paint56_linear_6561_3376)"/>
<path d="M88.4659 5.1279L88.3985 5.16148C88.3027 5.20922 88.1866 5.16992 88.1391 5.0737L85.7876 0.312459C85.7401 0.216235 85.7792 0.0995258 85.875 0.0517809L85.9423 0.018201C86.0381 -0.029544 86.1543 0.00975791 86.2018 0.105982L88.5532 4.86722C88.6008 4.96345 88.5616 5.08015 88.4659 5.1279Z" fill="url(#paint57_linear_6561_3376)"/>
<path d="M0 38.0142V41.0974C0 41.3336 0.190786 41.5253 0.425902 41.5253H0.453959V37.5868H0.425902C0.190786 37.5868 0 37.7785 0 38.0147V38.0142ZM0.425902 13.4224H0.453959V17.3608H0.425902C0.190786 17.3608 0 17.1691 0 16.9329V13.8497C0 13.6135 0.190786 13.4218 0.425902 13.4218V13.4224Z" fill="#BE1E2D"/>
</g>
<defs>
<linearGradient id="paint0_linear_6561_3376" x1="87.0328" y1="2.35538" x2="89.013" y2="2.35538" gradientUnits="userSpaceOnUse">
<stop stop-color="#323232"/>
<stop offset="0.23" stop-color="#424343"/>
<stop offset="0.61" stop-color="#585B5C"/>
<stop offset="0.84" stop-color="#616466"/>
<stop offset="1" stop-color="#3A3C3E"/>
</linearGradient>
<linearGradient id="paint1_linear_6561_3376" x1="89.2979" y1="27.4995" x2="99.6913" y2="27.4995" gradientUnits="userSpaceOnUse">
<stop offset="0.45" stop-color="#737373"/>
<stop offset="0.67" stop-color="#4B4B4B"/>
<stop offset="0.84" stop-color="#323232"/>
<stop offset="0.95" stop-color="#292929"/>
</linearGradient>
<radialGradient id="paint2_radial_6561_3376" cx="0" cy="0" r="1" gradientUnits="userSpaceOnUse" gradientTransform="translate(81.0056 27.4995) scale(20.4944 20.5902)">
<stop offset="0.45" stop-color="#C4C4C4"/>
<stop offset="0.52" stop-color="#B3B3B3"/>
<stop offset="0.71" stop-color="#8B8B8B"/>
<stop offset="0.86" stop-color="#727272"/>
<stop offset="0.95" stop-color="#696969"/>
</radialGradient>
<linearGradient id="paint3_linear_6561_3376" x1="51.6143" y1="27.437" x2="62.3196" y2="27.437" gradientUnits="userSpaceOnUse">
<stop stop-color="#323232"/>
<stop offset="0.23" stop-color="#424343"/>
<stop offset="0.61" stop-color="#585B5C"/>
<stop offset="0.84" stop-color="#616466"/>
<stop offset="1" stop-color="#3A3C3E"/>
</linearGradient>
<radialGradient id="paint4_radial_6561_3376" cx="0" cy="0" r="1" gradientUnits="userSpaceOnUse" gradientTransform="translate(50.4809 47.1477) scale(3.89821 3.91644)">
<stop stop-color="#929497"/>
<stop offset="0.1" stop-color="#8D8F92"/>
<stop offset="0.66" stop-color="#757679"/>
<stop offset="1" stop-color="#6D6E70"/>
</radialGradient>
<radialGradient id="paint5_radial_6561_3376" cx="0" cy="0" r="1" gradientUnits="userSpaceOnUse" gradientTransform="translate(51.198 44.1495) scale(4.82128 4.84383)">
<stop stop-color="#9C9EA1"/>
<stop offset="0.08" stop-color="#989A9D"/>
<stop offset="0.65" stop-color="#7F8184"/>
<stop offset="1" stop-color="#77787B"/>
</radialGradient>
<radialGradient id="paint6_radial_6561_3376" cx="0" cy="0" r="1" gradientUnits="userSpaceOnUse" gradientTransform="translate(51.6144 41.8787) scale(6.00303 6.03111)">
<stop stop-color="#A6A8AB"/>
<stop offset="0.1" stop-color="#A1A3A6"/>
<stop offset="0.66" stop-color="#888A8D"/>
<stop offset="1" stop-color="#808184"/>
</radialGradient>
<radialGradient id="paint7_radial_6561_3376" cx="0" cy="0" r="1" gradientUnits="userSpaceOnUse" gradientTransform="translate(54.217 41.5816) scale(5.27356 5.29822)">
<stop stop-color="#B1B3B5"/>
<stop offset="0.11" stop-color="#ABADAF"/>
<stop offset="0.66" stop-color="#929496"/>
<stop offset="1" stop-color="#898B8D"/>
</radialGradient>
<radialGradient id="paint8_radial_6561_3376" cx="0" cy="0" r="1" gradientUnits="userSpaceOnUse" gradientTransform="translate(57.4434 41.5816) scale(4.96325 4.98646)">
<stop stop-color="#C1C3C5"/>
<stop offset="0.19" stop-color="#B6B8BA"/>
<stop offset="0.69" stop-color="#9D9FA2"/>
<stop offset="1" stop-color="#949699"/>
</radialGradient>
<radialGradient id="paint9_radial_6561_3376" cx="0" cy="0" r="1" gradientUnits="userSpaceOnUse" gradientTransform="translate(35.591 42.5238) scale(8.08484 8.12266)">
<stop stop-color="#C1C3C5"/>
<stop offset="0.19" stop-color="#B6B8BA"/>
<stop offset="0.69" stop-color="#9D9FA2"/>
<stop offset="1" stop-color="#949699"/>
</radialGradient>
<linearGradient id="paint10_linear_6561_3376" x1="0.45354" y1="27.4477" x2="12.6296" y2="27.4477" gradientUnits="userSpaceOnUse">
<stop stop-color="#323232"/>
<stop offset="0.84" stop-color="#333333"/>
<stop offset="1" stop-color="#3A3C3E"/>
</linearGradient>
<linearGradient id="paint11_linear_6561_3376" x1="22.0303" y1="27.4759" x2="46.9447" y2="27.4759" gradientUnits="userSpaceOnUse">
<stop stop-color="#231F20"/>
<stop offset="0.2" stop-color="#424243"/>
<stop offset="0.38" stop-color="#585A5C"/>
<stop offset="0.49" stop-color="#616466"/>
<stop offset="0.87" stop-color="#3A3C3E"/>
</linearGradient>
<linearGradient id="paint12_linear_6561_3376" x1="23.3219" y1="55.9999" x2="43.1289" y2="55.9999" gradientUnits="userSpaceOnUse">
<stop stop-color="#231F20"/>
<stop offset="0.2" stop-color="#424243"/>
<stop offset="0.38" stop-color="#585A5C"/>
<stop offset="0.49" stop-color="#616466"/>
<stop offset="0.87" stop-color="#3A3C3E"/>
</linearGradient>
<linearGradient id="paint13_linear_6561_3376" x1="19.8164" y1="27.5091" x2="44.9553" y2="27.5091" gradientUnits="userSpaceOnUse">
<stop stop-color="#323232"/>
<stop offset="0.23" stop-color="#424343"/>
<stop offset="0.61" stop-color="#585B5C"/>
<stop offset="0.84" stop-color="#616466"/>
<stop offset="1" stop-color="#3A3C3E"/>
</linearGradient>
<linearGradient id="paint14_linear_6561_3376" x1="45.1304" y1="27.4758" x2="46.8884" y2="27.4758" gradientUnits="userSpaceOnUse">
<stop stop-color="#323232"/>
<stop offset="0.23" stop-color="#424343"/>
<stop offset="0.61" stop-color="#585B5C"/>
<stop offset="0.84" stop-color="#616466"/>
<stop offset="1" stop-color="#3A3C3E"/>
</linearGradient>
<linearGradient id="paint15_linear_6561_3376" x1="43.1475" y1="27.4759" x2="51.6144" y2="27.4759" gradientUnits="userSpaceOnUse">
<stop stop-color="#323232"/>
<stop offset="0.23" stop-color="#424343"/>
<stop offset="0.61" stop-color="#585B5C"/>
<stop offset="0.84" stop-color="#616466"/>
<stop offset="1" stop-color="#3A3C3E"/>
</linearGradient>
<linearGradient id="paint16_linear_6561_3376" x1="89.7592" y1="27.7347" x2="99.4669" y2="27.7347" gradientUnits="userSpaceOnUse">
<stop stop-color="#323232"/>
<stop offset="0.18" stop-color="#424343"/>
<stop offset="0.48" stop-color="#585B5C"/>
<stop offset="0.66" stop-color="#616466"/>
<stop offset="1" stop-color="#3A3C3E"/>
</linearGradient>
<linearGradient id="paint17_linear_6561_3376" x1="94.1531" y1="46.8417" x2="94.1531" y2="48.8718" gradientUnits="userSpaceOnUse">
<stop offset="0.25" stop-color="#FFB900"/>
<stop offset="0.41" stop-color="#FBB200"/>
<stop offset="0.62" stop-color="#F0A000"/>
<stop offset="0.86" stop-color="#DF8300"/>
<stop offset="1" stop-color="#D47000"/>
</linearGradient>
<linearGradient id="paint18_linear_6561_3376" x1="65.7163" y1="20.112" x2="71.7216" y2="20.112" gradientUnits="userSpaceOnUse">
<stop stop-color="#242424"/>
<stop offset="0.05" stop-color="#4A4A4A"/>
<stop offset="0.12" stop-color="#7A7A7A"/>
<stop offset="0.19" stop-color="#A3A3A3"/>
<stop offset="0.26" stop-color="#C4C4C4"/>
<stop offset="0.33" stop-color="#DEDEDE"/>
<stop offset="0.4" stop-color="#F0F0F0"/>
<stop offset="0.48" stop-color="#FBFBFB"/>
<stop offset="0.57" stop-color="white"/>
<stop offset="0.7" stop-color="white"/>
<stop offset="0.73" stop-color="#F0F0F0"/>
<stop offset="0.79" stop-color="#CACACA"/>
<stop offset="0.87" stop-color="#8C8C8C"/>
<stop offset="0.98" stop-color="#383838"/>
<stop offset="1" stop-color="#242424"/>
</linearGradient>
<radialGradient id="paint19_radial_6561_3376" cx="0" cy="0" r="1" gradientUnits="userSpaceOnUse" gradientTransform="translate(81.6727 19.0042) scale(1.67219 1.68001)">
<stop offset="0.7" stop-color="#FFB900"/>
<stop offset="0.71" stop-color="#FCB500"/>
<stop offset="0.74" stop-color="#ED9B00"/>
<stop offset="0.79" stop-color="#E28800"/>
<stop offset="0.83" stop-color="#DA7A00"/>
<stop offset="0.89" stop-color="#D57200"/>
<stop offset="1" stop-color="#D47000"/>
</radialGradient>
<linearGradient id="paint20_linear_6561_3376" x1="86.9754" y1="53.7705" x2="88.9758" y2="53.7705" gradientUnits="userSpaceOnUse">
<stop stop-color="#323232"/>
<stop offset="0.23" stop-color="#424343"/>
<stop offset="0.61" stop-color="#585B5C"/>
<stop offset="0.84" stop-color="#616466"/>
<stop offset="1" stop-color="#3A3C3E"/>
</linearGradient>
<radialGradient id="paint21_radial_6561_3376" cx="0" cy="0" r="1" gradientUnits="userSpaceOnUse" gradientTransform="translate(61.2862 29.5516) scale(4.46552 4.4864)">
<stop stop-color="#C1C3C5"/>
<stop offset="0.19" stop-color="#B6B8BA"/>
<stop offset="0.69" stop-color="#9D9FA2"/>
<stop offset="1" stop-color="#949699"/>
</radialGradient>
<radialGradient id="paint22_radial_6561_3376" cx="0" cy="0" r="1" gradientUnits="userSpaceOnUse" gradientTransform="translate(47.5388 27.4995) scale(3.17603 3.19088)">
<stop offset="0.66"/>
<stop offset="0.72" stop-color="#1A1A1B"/>
<stop offset="0.81" stop-color="#404243"/>
<stop offset="0.88" stop-color="#585A5C"/>
<stop offset="0.93" stop-color="#616466"/>
<stop offset="0.95" stop-color="#4F5153"/>
<stop offset="0.98" stop-color="#3F4143"/>
<stop offset="1" stop-color="#3A3C3E"/>
</radialGradient>
<radialGradient id="paint23_radial_6561_3376" cx="0" cy="0" r="1" gradientUnits="userSpaceOnUse" gradientTransform="translate(58.433 30.8167) scale(0.363615 0.365316)">
<stop stop-color="#C1C3C5"/>
<stop offset="0.19" stop-color="#B6B8BA"/>
<stop offset="0.69" stop-color="#9D9FA2"/>
<stop offset="1" stop-color="#949699"/>
</radialGradient>
<radialGradient id="paint24_radial_6561_3376" cx="0" cy="0" r="1" gradientUnits="userSpaceOnUse" gradientTransform="translate(60.8179 41.9279) scale(2.38483 2.39598)">
<stop stop-color="#242424"/>
<stop offset="0.57" stop-color="#F0F0F0"/>
<stop offset="0.6" stop-color="#C8C8C8"/>
<stop offset="0.61" stop-color="#AFAFAF"/>
<stop offset="0.62" stop-color="#A6A6A6"/>
<stop offset="0.7" stop-color="white"/>
<stop offset="0.71" stop-color="#EFEFEF"/>
<stop offset="0.79" stop-color="#A7A7A7"/>
<stop offset="0.86" stop-color="#6F6F6F"/>
<stop offset="0.92" stop-color="#464646"/>
<stop offset="0.97" stop-color="#2D2D2D"/>
<stop offset="1" stop-color="#242424"/>
</radialGradient>
<radialGradient id="paint25_radial_6561_3376" cx="0" cy="0" r="1" gradientUnits="userSpaceOnUse" gradientTransform="translate(0.0280811 7.80002) scale(3.89821 3.91644)">
<stop stop-color="#929497"/>
<stop offset="0.1" stop-color="#8D8F92"/>
<stop offset="0.66" stop-color="#757679"/>
<stop offset="1" stop-color="#6D6E70"/>
</radialGradient>
<radialGradient id="paint26_radial_6561_3376" cx="0" cy="0" r="1" gradientUnits="userSpaceOnUse" gradientTransform="translate(0.0280757 10.7981) scale(0.0280568 0.028188)">
<stop stop-color="#9C9EA1"/>
<stop offset="0.08" stop-color="#989A9D"/>
<stop offset="0.65" stop-color="#7F8184"/>
<stop offset="1" stop-color="#77787B"/>
</radialGradient>
<radialGradient id="paint27_radial_6561_3376" cx="0" cy="0" r="1" gradientUnits="userSpaceOnUse" gradientTransform="translate(0.0280861 13.0695) scale(6.00303 6.03111)">
<stop stop-color="#A6A8AB"/>
<stop offset="0.1" stop-color="#A1A3A6"/>
<stop offset="0.66" stop-color="#888A8D"/>
<stop offset="1" stop-color="#808184"/>
</radialGradient>
<radialGradient id="paint28_radial_6561_3376" cx="0" cy="0" r="1" gradientUnits="userSpaceOnUse" gradientTransform="translate(0.0280685 13.3661) scale(5.27356 5.29822)">
<stop stop-color="#B1B3B5"/>
<stop offset="0.11" stop-color="#ABADAF"/>
<stop offset="0.66" stop-color="#929496"/>
<stop offset="1" stop-color="#898B8D"/>
</radialGradient>
<radialGradient id="paint29_radial_6561_3376" cx="0" cy="0" r="1" gradientUnits="userSpaceOnUse" gradientTransform="translate(0.0280118 13.3661) scale(4.96325 4.98646)">
<stop stop-color="#C1C3C5"/>
<stop offset="0.19" stop-color="#B6B8BA"/>
<stop offset="0.69" stop-color="#9D9FA2"/>
<stop offset="1" stop-color="#949699"/>
</radialGradient>
<radialGradient id="paint30_radial_6561_3376" cx="0" cy="0" r="1" gradientUnits="userSpaceOnUse" gradientTransform="translate(35.5911 12.4242) scale(8.08484 8.12266)">
<stop stop-color="#C1C3C5"/>
<stop offset="0.19" stop-color="#B6B8BA"/>
<stop offset="0.69" stop-color="#9D9FA2"/>
<stop offset="1" stop-color="#949699"/>
</radialGradient>
<linearGradient id="paint31_linear_6561_3376" x1="1.17432" y1="27.4742" x2="26.0517" y2="27.4742" gradientUnits="userSpaceOnUse">
<stop stop-color="#231F20"/>
<stop offset="0.2" stop-color="#424243"/>
<stop offset="0.38" stop-color="#585A5C"/>
<stop offset="0.49" stop-color="#616466"/>
<stop offset="0.87" stop-color="#0D0D0D"/>
</linearGradient>
<linearGradient id="paint32_linear_6561_3376" x1="9.60107" y1="27.4528" x2="24.6956" y2="27.4528" gradientUnits="userSpaceOnUse">
<stop stop-color="#202020"/>
<stop offset="0.21" stop-color="#080808"/>
<stop offset="0.48" stop-color="#262728"/>
<stop offset="0.94" stop-color="#616466"/>
</linearGradient>
<linearGradient id="paint33_linear_6561_3376" x1="48.5033" y1="32.7381" x2="48.5033" y2="35.0005" gradientUnits="userSpaceOnUse">
<stop stop-color="#333333"/>
<stop offset="0.17" stop-color="#7B7B7B"/>
<stop offset="0.32" stop-color="#B3B3B3"/>
<stop offset="0.45" stop-color="#DCDCDC"/>
<stop offset="0.54" stop-color="#F5F5F5"/>
<stop offset="0.61" stop-color="white"/>
<stop offset="1" stop-color="#3A3C3E"/>
</linearGradient>
<linearGradient id="paint34_linear_6561_3376" x1="48.9486" y1="25.3702" x2="48.9486" y2="28.9517" gradientUnits="userSpaceOnUse">
<stop stop-color="#333333"/>
<stop offset="0.17" stop-color="#7B7B7B"/>
<stop offset="0.32" stop-color="#B3B3B3"/>
<stop offset="0.45" stop-color="#DCDCDC"/>
<stop offset="0.54" stop-color="#F5F5F5"/>
<stop offset="0.61" stop-color="white"/>
<stop offset="1" stop-color="#3A3C3E"/>
</linearGradient>
<linearGradient id="paint35_linear_6561_3376" x1="48.6071" y1="33.9089" x2="48.6071" y2="34.6074" gradientUnits="userSpaceOnUse">
<stop/>
<stop offset="0.15" stop-color="#030303"/>
<stop offset="0.3" stop-color="#0E0E0F"/>
<stop offset="0.44" stop-color="#202122"/>
<stop offset="0.58" stop-color="#3A3C3D"/>
<stop offset="0.71" stop-color="#5B5E60"/>
<stop offset="0.74" stop-color="#616466"/>
<stop offset="0.78" stop-color="#5A5D5F"/>
<stop offset="1" stop-color="#3A3C3E"/>
</linearGradient>
<linearGradient id="paint36_linear_6561_3376" x1="46.7714" y1="33.8266" x2="46.7714" y2="34.6683" gradientUnits="userSpaceOnUse">
<stop/>
<stop offset="0.15" stop-color="#030303"/>
<stop offset="0.3" stop-color="#0E0E0F"/>
<stop offset="0.44" stop-color="#202122"/>
<stop offset="0.58" stop-color="#3A3C3D"/>
<stop offset="0.71" stop-color="#5B5E60"/>
<stop offset="0.74" stop-color="#616466"/>
<stop offset="0.78" stop-color="#5A5D5F"/>
<stop offset="1" stop-color="#3A3C3E"/>
</linearGradient>
<linearGradient id="paint37_linear_6561_3376" x1="47.3428" y1="31.4921" x2="47.3428" y2="33.1816" gradientUnits="userSpaceOnUse">
<stop/>
<stop offset="0.15" stop-color="#030303"/>
<stop offset="0.3" stop-color="#0E0E0F"/>
<stop offset="0.44" stop-color="#202122"/>
<stop offset="0.58" stop-color="#3A3C3D"/>
<stop offset="0.71" stop-color="#5B5E60"/>
<stop offset="0.74" stop-color="#616466"/>
<stop offset="0.78" stop-color="#5A5D5F"/>
<stop offset="1" stop-color="#3A3C3E"/>
</linearGradient>
<linearGradient id="paint38_linear_6561_3376" x1="47.3117" y1="26.646" x2="47.3117" y2="28.9957" gradientUnits="userSpaceOnUse">
<stop/>
<stop offset="0.15" stop-color="#030303"/>
<stop offset="0.3" stop-color="#0E0E0F"/>
<stop offset="0.44" stop-color="#202122"/>
<stop offset="0.58" stop-color="#3A3C3D"/>
<stop offset="0.71" stop-color="#5B5E60"/>
<stop offset="0.74" stop-color="#616466"/>
<stop offset="0.78" stop-color="#5A5D5F"/>
<stop offset="1" stop-color="#3A3C3E"/>
</linearGradient>
<linearGradient id="paint39_linear_6561_3376" x1="47.0926" y1="28.7189" x2="47.0926" y2="31.5202" gradientUnits="userSpaceOnUse">
<stop stop-color="#3A3C3E"/>
<stop offset="0.22" stop-color="#5A5D5F"/>
<stop offset="0.26" stop-color="#616466"/>
<stop offset="0.29" stop-color="#5B5E60"/>
<stop offset="0.42" stop-color="#3A3C3D"/>
<stop offset="0.56" stop-color="#202122"/>
<stop offset="0.7" stop-color="#0E0E0F"/>
<stop offset="0.85" stop-color="#030303"/>
<stop offset="1"/>
</linearGradient>
<linearGradient id="paint40_linear_6561_3376" x1="63.3296" y1="34.5184" x2="94.1359" y2="34.5184" gradientUnits="userSpaceOnUse">
<stop offset="0.74" stop-color="white"/>
<stop offset="0.75" stop-color="#DEDEDE"/>
<stop offset="0.76" stop-color="#BDBDBD"/>
<stop offset="0.78" stop-color="#A1A1A1"/>
<stop offset="0.79" stop-color="#8A8A8A"/>
<stop offset="0.81" stop-color="#787878"/>
<stop offset="0.84" stop-color="#6C6C6C"/>
<stop offset="0.87" stop-color="#656565"/>
<stop offset="0.95" stop-color="#636363"/>
</linearGradient>
<linearGradient id="paint41_linear_6561_3376" x1="49.145" y1="26.938" x2="49.145" y2="28.5188" gradientUnits="userSpaceOnUse">
<stop/>
<stop offset="0.15" stop-color="#030303"/>
<stop offset="0.3" stop-color="#0E0E0F"/>
<stop offset="0.44" stop-color="#202122"/>
<stop offset="0.58" stop-color="#3A3C3D"/>
<stop offset="0.71" stop-color="#5B5E60"/>
<stop offset="0.74" stop-color="#616466"/>
<stop offset="0.78" stop-color="#5A5D5F"/>
<stop offset="1" stop-color="#3A3C3E"/>
</linearGradient>
<linearGradient id="paint42_linear_6561_3376" x1="59.4736" y1="40.8315" x2="59.4736" y2="43.0239" gradientUnits="userSpaceOnUse">
<stop stop-color="#242424"/>
<stop offset="0.57" stop-color="#F0F0F0"/>
<stop offset="0.6" stop-color="#C8C8C8"/>
<stop offset="0.61" stop-color="#AFAFAF"/>
<stop offset="0.62" stop-color="#A6A6A6"/>
<stop offset="0.7" stop-color="white"/>
<stop offset="0.71" stop-color="#EFEFEF"/>
<stop offset="0.79" stop-color="#A7A7A7"/>
<stop offset="0.86" stop-color="#6F6F6F"/>
<stop offset="0.92" stop-color="#464646"/>
<stop offset="0.97" stop-color="#2D2D2D"/>
<stop offset="1" stop-color="#242424"/>
</linearGradient>
<radialGradient id="paint43_radial_6561_3376" cx="0" cy="0" r="1" gradientUnits="userSpaceOnUse" gradientTransform="translate(74.965 47.5874) scale(6.6085 6.63941)">
<stop stop-color="#C1C3C5"/>
<stop offset="0.19" stop-color="#B6B8BA"/>
<stop offset="0.69" stop-color="#9D9FA2"/>
<stop offset="1" stop-color="#949699"/>
</radialGradient>
<radialGradient id="paint44_radial_6561_3376" cx="0" cy="0" r="1" gradientUnits="userSpaceOnUse" gradientTransform="translate(74.9644 21.4661) rotate(180) scale(6.6085 6.63941)">
<stop stop-color="#C1C3C5"/>
<stop offset="0.19" stop-color="#B6B8BA"/>
<stop offset="0.69" stop-color="#9D9FA2"/>
<stop offset="1" stop-color="#949699"/>
</radialGradient>
<linearGradient id="paint45_linear_6561_3376" x1="3.6987e-05" y1="8.63274" x2="0.0566763" y2="6.60265" gradientUnits="userSpaceOnUse">
<stop offset="0.25" stop-color="#FFB900"/>
<stop offset="0.41" stop-color="#FBB200"/>
<stop offset="0.62" stop-color="#F0A000"/>
<stop offset="0.86" stop-color="#DF8300"/>
<stop offset="1" stop-color="#D47000"/>
</linearGradient>
<linearGradient id="paint46_linear_6561_3376" x1="87.1221" y1="34.6407" x2="92.3967" y2="34.6407" gradientUnits="userSpaceOnUse">
<stop stop-color="#231F20"/>
<stop offset="0.38" stop-color="#424243"/>
<stop offset="0.71" stop-color="#585A5C"/>
<stop offset="0.91" stop-color="#616466"/>
</linearGradient>
<linearGradient id="paint47_linear_6561_3376" x1="61.5103" y1="22.0634" x2="61.5103" y2="23.1449" gradientUnits="userSpaceOnUse">
<stop offset="0.25" stop-color="#696969"/>
<stop offset="0.64" stop-color="#F7F7F7"/>
<stop offset="0.66" stop-color="#EBEBEB"/>
<stop offset="0.76" stop-color="#B3B3B3"/>
<stop offset="0.84" stop-color="#8B8B8B"/>
<stop offset="0.91" stop-color="#727272"/>
<stop offset="0.95" stop-color="#696969"/>
</linearGradient>
<linearGradient id="paint48_linear_6561_3376" x1="0.000261524" y1="45.4767" x2="0.348869" y2="46.4538" gradientUnits="userSpaceOnUse">
<stop offset="0.25" stop-color="#696969"/>
<stop offset="0.64" stop-color="#F7F7F7"/>
<stop offset="0.66" stop-color="#EBEBEB"/>
<stop offset="0.76" stop-color="#B3B3B3"/>
<stop offset="0.84" stop-color="#8B8B8B"/>
<stop offset="0.91" stop-color="#727272"/>
<stop offset="0.95" stop-color="#696969"/>
</linearGradient>
<linearGradient id="paint49_linear_6561_3376" x1="60.0111" y1="7.31922" x2="60.4208" y2="8.50307" gradientUnits="userSpaceOnUse">
<stop offset="0.25" stop-color="#696969"/>
<stop offset="0.64" stop-color="#F7F7F7"/>
<stop offset="0.66" stop-color="#EBEBEB"/>
<stop offset="0.76" stop-color="#B3B3B3"/>
<stop offset="0.84" stop-color="#8B8B8B"/>
<stop offset="0.91" stop-color="#727272"/>
<stop offset="0.95" stop-color="#696969"/>
</linearGradient>
<linearGradient id="paint50_linear_6561_3376" x1="78.267" y1="6.23615" x2="78.267" y2="7.41216" gradientUnits="userSpaceOnUse">
<stop offset="0.25" stop-color="#696969"/>
<stop offset="0.64" stop-color="#F7F7F7"/>
<stop offset="0.66" stop-color="#EBEBEB"/>
<stop offset="0.76" stop-color="#B3B3B3"/>
<stop offset="0.84" stop-color="#8B8B8B"/>
<stop offset="0.91" stop-color="#727272"/>
<stop offset="0.95" stop-color="#696969"/>
</linearGradient>
<linearGradient id="paint51_linear_6561_3376" x1="85.4854" y1="16.1906" x2="86.4927" y2="16.7694" gradientUnits="userSpaceOnUse">
<stop offset="0.01" stop-color="#696969"/>
<stop offset="0.75" stop-color="#F7F7F7"/>
<stop offset="0.76" stop-color="#EBEBEB"/>
<stop offset="0.82" stop-color="#B3B3B3"/>
<stop offset="0.88" stop-color="#8B8B8B"/>
<stop offset="0.92" stop-color="#727272"/>
<stop offset="0.95" stop-color="#696969"/>
</linearGradient>
<linearGradient id="paint52_linear_6561_3376" x1="88.6133" y1="8.50417" x2="89.7356" y2="8.50417" gradientUnits="userSpaceOnUse">
<stop offset="0.01" stop-color="#696969"/>
<stop offset="0.68" stop-color="#F7F7F7"/>
<stop offset="0.7" stop-color="#EBEBEB"/>
<stop offset="0.78" stop-color="#B3B3B3"/>
<stop offset="0.85" stop-color="#8B8B8B"/>
<stop offset="0.91" stop-color="#727272"/>
<stop offset="0.95" stop-color="#696969"/>
</linearGradient>
<linearGradient id="paint53_linear_6561_3376" x1="88.2357" y1="10.7406" x2="89.5445" y2="11.0899" gradientUnits="userSpaceOnUse">
<stop offset="0.01" stop-color="#696969"/>
<stop offset="0.57" stop-color="#F7F7F7"/>
<stop offset="0.59" stop-color="#EBEBEB"/>
<stop offset="0.71" stop-color="#B3B3B3"/>
<stop offset="0.81" stop-color="#8B8B8B"/>
<stop offset="0.9" stop-color="#727272"/>
<stop offset="0.95" stop-color="#696969"/>
</linearGradient>
<linearGradient id="paint54_linear_6561_3376" x1="88.8369" y1="3.73198" x2="89.7594" y2="3.73198" gradientUnits="userSpaceOnUse">
<stop offset="0.01" stop-color="#696969"/>
<stop offset="0.68" stop-color="#F7F7F7"/>
<stop offset="0.7" stop-color="#EBEBEB"/>
<stop offset="0.78" stop-color="#B3B3B3"/>
<stop offset="0.85" stop-color="#8B8B8B"/>
<stop offset="0.91" stop-color="#727272"/>
<stop offset="0.95" stop-color="#696969"/>
</linearGradient>
<linearGradient id="paint55_linear_6561_3376" x1="88.8368" y1="51.6149" x2="89.7593" y2="51.6149" gradientUnits="userSpaceOnUse">
<stop offset="0.01" stop-color="#696969"/>
<stop offset="0.68" stop-color="#F7F7F7"/>
<stop offset="0.7" stop-color="#EBEBEB"/>
<stop offset="0.78" stop-color="#B3B3B3"/>
<stop offset="0.85" stop-color="#8B8B8B"/>
<stop offset="0.91" stop-color="#727272"/>
<stop offset="0.95" stop-color="#696969"/>
</linearGradient>
<linearGradient id="paint56_linear_6561_3376" x1="86.0641" y1="53.1933" x2="88.3894" y2="53.1933" gradientUnits="userSpaceOnUse">
<stop stop-color="#323232"/>
<stop offset="0.23" stop-color="#424343"/>
<stop offset="0.61" stop-color="#585B5C"/>
<stop offset="0.84" stop-color="#616466"/>
<stop offset="1" stop-color="#3A3C3E"/>
</linearGradient>
<linearGradient id="paint57_linear_6561_3376" x1="85.7687" y1="2.59225" x2="88.5744" y2="2.59225" gradientUnits="userSpaceOnUse">
<stop stop-color="#323232"/>
<stop offset="0.23" stop-color="#424343"/>
<stop offset="0.61" stop-color="#585B5C"/>
<stop offset="0.84" stop-color="#616466"/>
<stop offset="1" stop-color="#3A3C3E"/>
</linearGradient>
<clipPath id="clip0_6561_3376">
<rect width="100" height="56" fill="white" transform="matrix(1 0 0 -1 0 56)"/>
</clipPath>
</defs>
</svg>
