<svg width="100" height="56" viewBox="0 0 100 56" fill="none" xmlns="http://www.w3.org/2000/svg">
<path d="M98.5549 37.6481C98.4472 37.7911 97.9266 38.077 97.9266 38.077C97.9266 38.077 97.5317 39.0421 96.2392 40.6148C94.9466 42.1875 93.6361 42.6343 92.3077 42.7237C91.6381 42.7595 91.2522 42.7273 91.0314 42.6862C90.7531 42.7005 90.4407 42.7166 90.1086 42.7326C89.7927 43.1026 89.2541 43.3492 88.6456 43.3492H87.6223H87.4967H87.012H86.8863H86.4016H86.2759H85.8092H85.6835H85.1809H85.0552H84.5705H84.4448H83.9602H83.8345H83.3498H83.2421H82.7574H82.6317H82.147H82.0393H81.5367H81.411H81.1686C81.1273 43.4511 81.0591 43.5851 80.9442 43.7603C80.657 44.1713 79.6876 45.3866 79.0234 45.887C78.3592 46.3875 77.7847 46.2802 77.2462 46.0836C77.2282 46.0836 77.1923 46.0479 77.1923 46.03C77.1923 46.0121 77.1923 46.0121 77.1923 45.9943C77.1923 45.9943 77.1923 45.9764 77.2103 45.9585L77.3539 45.6726C77.4149 45.5814 78.4938 43.7764 78.966 43.0901C78.9193 43.0633 78.8744 43.0365 78.8313 43.0061L76.3612 42.9954C76.3612 42.9954 74.7312 42.9918 71.9917 42.9864C71.9522 43.0329 71.9127 43.0722 71.8714 43.108C71.6165 43.3242 71.3383 43.3314 71.0672 43.3314C71.0439 43.3314 71.0223 43.3314 70.999 43.3314H69.1141H68.8089C68.6329 43.3314 68.5252 43.1759 68.4427 42.9793C58.1438 42.9596 39.9533 42.9257 27.1052 42.9024C26.7839 43.1759 26.3243 43.3492 25.8163 43.3492H17.1636C16.6412 43.3492 16.1726 43.1723 15.8495 42.8899C10.4712 42.8863 4.71591 42.8846 4.58487 42.8846C4.53819 42.8846 3.9422 42.8524 3.9027 42.8488H2.80047C1.92083 42.8488 1.74132 42.7952 1.23867 42.2948C0.73602 41.7944 0.5206 41.4727 0.484696 40.9365C0.466745 40.3646 0 31.3393 0 28.0151C0 24.6731 0.466745 15.6299 0.484696 15.0758C0.5206 14.5397 0.73602 14.218 1.23867 13.7176C1.74132 13.2171 1.92083 13.1635 2.80047 13.1635C2.80047 13.1635 5.60453 13.1135 6.96527 13.1171C8.65991 13.1153 11.8733 13.1135 15.8819 13.1099C16.2032 12.8454 16.6574 12.6792 17.16 12.6792H25.8128C26.3064 12.6792 26.7534 12.8418 27.073 13.101C34.5068 13.0956 42.3966 13.0903 48.098 13.0831V13.1063C48.1106 13.1063 48.1214 13.1063 48.1339 13.1063V13.0831C50.6203 13.0813 53.1048 13.0777 55.3074 13.076V13.092C55.32 13.092 55.3326 13.092 55.3451 13.092V13.076C58.1689 13.0724 60.6786 13.0706 62.6856 13.0688C62.77 12.8561 62.8777 12.6846 63.0626 12.6971H63.3678H65.2527C65.276 12.6971 65.2976 12.6971 65.3209 12.6971C65.592 12.6971 65.8702 12.7042 66.1252 12.9205C66.1718 12.9598 66.2167 13.0063 66.2616 13.0617C66.766 13.0599 67.2579 13.0581 67.7336 13.0563C67.739 13.0527 67.7444 13.0474 67.748 13.0474L68.4319 13.0438C68.5163 12.8365 68.624 12.672 68.8071 12.672H69.1123H70.9973C71.0206 12.672 71.0421 12.672 71.0655 12.672C71.3365 12.672 71.6148 12.6792 71.8697 12.8954C71.9146 12.933 71.9577 12.9777 71.999 13.0277L74.3578 13.017C75.6378 13.0045 76.3559 12.992 76.3577 12.9794C76.3577 12.9794 76.758 12.9884 77.4222 13.0027L78.8637 12.9955C78.8978 12.9723 78.9355 12.9526 78.9714 12.9312C78.5029 12.2556 77.4114 10.4291 77.3504 10.3362L77.2068 10.0502C77.1888 10.0502 77.1888 10.0324 77.1888 10.0145C77.1888 9.99662 77.1888 9.99662 77.1888 9.97875C77.1888 9.96088 77.2247 9.92513 77.2427 9.92513C77.7812 9.72854 78.3557 9.62131 79.0199 10.1217C79.6841 10.6221 80.6535 11.8374 80.9407 12.2485C81.0628 12.4344 81.131 12.5738 81.1723 12.6774H88.642C89.2362 12.6774 89.7622 12.9133 90.0799 13.2672C90.4785 13.2868 90.8447 13.3047 91.1642 13.3226C91.3958 13.2958 91.753 13.2833 92.3042 13.3208C93.6326 13.4102 94.961 13.857 96.2356 15.4297C97.5281 17.0024 97.9231 17.9675 97.9231 17.9675C97.9231 17.9675 98.4437 18.2535 98.5514 18.3964C98.6591 18.5394 99.9875 23.1146 99.9875 28.0115V28.0294C99.9911 32.9299 98.6626 37.5051 98.5549 37.6481Z" fill="black"/>
<path d="M98.6627 28.1406V28.0155V27.8904C98.6627 23.1543 98.0129 20.3306 97.8764 19.705C97.7508 19.0795 97.8764 19.0259 97.8764 19.0259L96.5893 16.7204C96.5893 16.7204 96.2464 16.556 95.7097 16.329C95.207 15.5927 94.2789 14.2541 93.9594 13.961C93.5124 13.5499 92.7351 13.4963 92.3706 13.407C92.0062 13.3355 83.5061 12.978 83.5061 12.978C83.5061 12.978 83.4361 13.9074 83.3409 14.4614C83.2458 15.0154 83.1973 15.0405 82.7324 15.1638C82.3967 15.2514 75.7779 16.6507 74.7223 16.9099C73.6667 17.169 72.884 17.3388 71.8249 17.3567C70.7657 17.3745 66.5273 17.3227 66.5273 17.3227L5.92594 17.3066C5.85593 17.3066 5.81284 17.3853 5.85413 17.4425L5.91696 17.8106C5.93312 17.8338 5.96005 17.8481 5.98877 17.8481L62.0161 17.8017H71.0494V18.177C71.0494 18.177 73.0672 18.152 73.8463 17.9893C74.6254 17.8267 83.2153 15.8536 83.8741 15.8358C84.5329 15.8 84.8094 16.0717 84.8094 16.0717C84.8094 16.0717 84.8758 15.9573 84.9871 15.7107C85.0733 15.5194 85.4359 14.8153 85.6352 14.708C85.8236 14.6008 85.9385 14.5972 86.0444 14.5972C86.1504 14.5972 86.1719 14.4614 86.4555 14.3184C86.7266 14.1755 86.5435 14.1183 89.0029 14.4757C89.9777 14.6169 90.8178 14.7992 91.5467 14.9904C89.5953 14.6008 87.2059 14.3041 86.8649 14.3041C86.4897 14.3041 86.0786 14.7331 86.0786 14.7331C86.0786 14.7331 85.9655 14.7331 85.8667 14.7331C85.7536 14.7331 85.6046 14.876 85.4287 15.1084C85.2672 15.3228 84.9171 16.1628 84.9171 16.1628C84.9171 16.1628 85.3425 16.2164 85.8667 17.7177C86.3909 19.2189 86.9043 23.9192 86.9043 27.8868V28.0155V28.1406C86.9043 32.1082 86.3927 36.8085 85.8667 38.3097C85.3425 39.811 84.9171 39.8646 84.9171 39.8646C84.9171 39.8646 85.2977 40.7421 85.4718 40.9744C85.6459 41.2068 85.7536 41.2943 85.8667 41.2943C85.9673 41.2943 86.0786 41.2943 86.0786 41.2943C86.0786 41.2943 86.4914 41.7233 86.8649 41.7233C87.1826 41.7233 89.2614 41.4677 91.1266 41.1174C90.4983 41.2693 89.7946 41.4105 89.0011 41.5267C86.5417 41.8841 86.7248 41.8269 86.4538 41.6839C86.1719 41.541 86.1486 41.4051 86.0427 41.4051C85.9367 41.4051 85.8201 41.4016 85.6334 41.2943C85.4341 41.1871 85.0715 40.4829 84.9853 40.2917C84.874 40.0469 84.8076 39.9307 84.8076 39.9307C84.8076 39.9307 84.5311 40.2024 83.8723 40.1666C83.2135 40.1487 74.6236 38.1757 73.8445 38.013C73.0654 37.8504 71.0476 37.8254 71.0476 37.8254V38.2025L62.0179 38.2025L5.99056 38.156C5.96184 38.156 5.93491 38.1703 5.91875 38.1936L5.85592 38.5617C5.81643 38.6189 5.85772 38.6975 5.92773 38.6975L66.5291 38.6815C66.5291 38.6815 70.7693 38.6296 71.8267 38.6475C72.884 38.6654 73.6667 38.8334 74.7241 39.0943C75.7815 39.3552 82.4002 40.7528 82.7342 40.8404C83.1991 40.9619 83.2476 40.9887 83.3427 41.5428C83.4361 42.0968 83.5079 43.0261 83.5079 43.0261C83.5079 43.0261 92.008 42.6687 92.3724 42.5972C92.7369 42.5078 93.5142 42.4542 93.9612 42.0432C94.2753 41.7536 95.1801 40.4544 95.6863 39.7109C96.2356 39.4768 96.5893 39.3088 96.5893 39.3088L97.8764 37.0033C97.8764 37.0033 97.7382 36.9497 97.8764 36.3241C98.0129 35.7004 98.6627 32.8767 98.6627 28.1406ZM5.96363 18.4004C6.1252 18.2753 6.39447 18.2753 6.39447 18.2753C6.39447 18.2753 69.4373 18.3468 70.9991 18.3468C71.3923 18.3468 72.814 18.3503 72.814 18.3503C72.814 18.3503 74.7582 21.1348 74.7582 27.8904V28.0155V28.1406C74.7582 34.8962 72.7566 37.6985 72.7566 37.6985C72.7566 37.6985 71.5323 37.7021 70.9973 37.7021C69.4355 37.7021 6.39268 37.7557 6.39268 37.7557C6.39268 37.7557 6.1234 37.7557 5.96184 37.6306C5.78232 37.5055 5.81822 37.3804 5.81822 37.3804L5.45739 33.0107C5.18273 29.6865 5.18273 26.3445 5.45739 23.0185L5.81822 18.6488C5.82002 18.6506 5.78412 18.5076 5.96363 18.4004ZM5.47535 39.6912C5.67461 39.2283 5.69256 38.8441 5.99056 38.8638C6.83609 38.8638 61.4883 38.7565 66.443 38.7386V38.7565C66.6763 40.0433 67.1251 41.3122 67.161 41.4373V41.6875C67.161 41.7233 67.3944 42.599 67.6457 42.9385C67.6457 42.9385 5.3084 42.8849 4.58315 42.8849C3.8579 42.8849 4.23668 42.3398 4.38209 42.0521C4.76805 41.2925 5.08759 40.5938 5.47535 39.6912ZM67.2472 41.4373C67.2472 41.4373 67.2472 41.4373 67.2472 41.4194C67.2472 41.4016 66.7625 40.079 66.5291 38.7565L70.1733 38.7565C71.1427 38.7565 72.3832 38.7297 73.1372 38.8727C73.8911 39.0157 82.1812 40.7939 82.9173 40.9583C83.2188 41.0263 83.2422 41.2568 83.3068 41.675C83.3589 42.1004 83.4235 42.9189 83.4235 42.9189L67.7517 42.9546C67.7517 42.9368 67.7517 42.9189 67.7337 42.901C67.5003 42.6329 67.267 41.6679 67.249 41.6857V41.4373H67.2472ZM82.9173 15.0458C82.183 15.2103 73.8911 16.9885 73.1372 17.1315C72.3832 17.2745 71.1427 17.2476 70.1733 17.2476H66.5291C66.7625 15.9251 67.2472 14.6026 67.2472 14.5847C67.2472 14.5669 67.2472 14.5669 67.2472 14.5669V14.3166C67.2652 14.3345 67.4985 13.3694 67.7319 13.1014C67.7499 13.0835 67.7499 13.0656 67.7499 13.0477L83.4576 12.9763C83.4576 12.9763 83.3571 13.902 83.305 14.3274C83.2422 14.7474 83.2188 14.9779 82.9173 15.0458ZM67.1628 14.5686C67.1269 14.6937 66.6781 15.9627 66.4448 17.2494V17.2673C65.1289 17.2619 53.8032 17.2512 48.2543 17.2387L48.2722 13.0799C55.4206 13.0728 67.6475 13.0674 67.6475 13.0674C67.3962 13.407 67.1628 14.2827 67.1628 14.3184L67.1628 14.5686ZM27.8935 17.1565C23.9369 17.1476 6.18444 17.1422 5.99056 17.1422C5.69256 17.1601 5.67461 16.7776 5.47535 16.3147C5.08759 15.4122 4.76805 14.7134 4.38388 13.9538C4.23847 13.6661 3.85969 13.121 4.58494 13.121C5.01578 13.121 32.4837 13.1014 48.1017 13.0871V16.9027C38.8063 16.8813 28.9706 16.8402 28.3135 16.8402C28.1717 16.8402 28.0317 17.1565 27.8935 17.1565ZM2.27455 40.2024C2.09324 38.8566 1.34825 33.0089 1.31234 28.1442C1.31234 28.1084 1.31055 28.0709 1.31055 28.0334C1.31055 28.0298 1.31055 28.028 1.31055 28.0244C1.31055 28.0209 1.31055 28.0173 1.31055 28.0155C1.33747 22.4394 2.31405 15.523 2.31405 15.523H3.55451V15.5409L3.55451 28.0155V28.0334L3.55451 40.4901V40.508H2.31584C2.31584 40.508 2.30148 40.4007 2.27455 40.2024Z" fill="#FFD200"/>
<path d="M27.1053 42.9029C27.459 42.9047 27.8144 42.9047 28.1716 42.9047C27.8126 42.9047 27.4554 42.9029 27.1053 42.9029ZM15.855 42.8939C9.30439 42.8886 4.77697 42.885 4.58488 42.885C4.71593 42.885 10.4713 42.8868 15.8496 42.8904C15.8514 42.8922 15.8532 42.8922 15.855 42.8939ZM6.31004 13.1193C5.71225 13.1229 5.01213 13.13 4.3928 13.139C4.44665 13.1282 4.50949 13.1211 4.58668 13.1211C4.64592 13.1211 5.25987 13.1193 6.31004 13.1193ZM55.3487 13.0782V13.0943C55.3362 13.0943 55.3236 13.0943 55.311 13.0943V13.0782C53.1479 13.08 50.7136 13.0818 48.2722 13.0854V13.0782C52.4944 13.0746 58.4903 13.0711 62.6892 13.0693C62.6892 13.0693 62.6892 13.071 62.6874 13.071C60.6822 13.0746 58.1726 13.0764 55.3487 13.0782ZM90.9039 13.3123C90.6526 13.2998 90.3779 13.2855 90.0853 13.2712C90.3761 13.2855 90.6508 13.2998 90.9039 13.3123ZM98.5549 37.6485C98.4472 37.7915 97.9266 38.0775 97.9266 38.0775C97.9266 38.0775 97.5317 39.0425 96.2392 40.6153C94.9466 42.188 93.6362 42.6348 92.3077 42.7242C91.6381 42.7599 91.2522 42.7277 91.0314 42.6866C91.0296 42.6866 91.0278 42.6866 91.026 42.6866C91.7692 42.6473 92.2862 42.6151 92.3706 42.5991C92.735 42.5097 93.5123 42.4561 93.9593 42.045C94.2734 41.7555 95.1782 40.4562 95.6844 39.7127C96.2338 39.4786 96.5874 39.3106 96.5874 39.3106L97.8746 37.0051C97.8746 37.0051 97.7363 36.9515 97.8746 36.326C98.0128 35.7005 98.6609 32.8767 98.6609 28.1407V28.0156V27.8905C98.6609 23.1544 98.011 20.3306 97.8746 19.7051C97.7489 19.0796 97.8746 19.026 97.8746 19.026L96.5874 16.7205C96.5874 16.7205 96.2445 16.5561 95.7078 16.3291C95.2051 15.5928 94.277 14.2542 93.9575 13.9611C93.5105 13.55 92.7332 13.4964 92.3688 13.407C92.2898 13.391 91.8338 13.3624 91.166 13.3266C91.3976 13.2998 91.7548 13.2873 92.3059 13.3248C93.6344 13.4142 94.9628 13.861 96.2374 15.4337C97.5299 17.0065 97.9248 17.9715 97.9248 17.9715C97.9248 17.9715 98.4454 18.2575 98.5531 18.4005C98.6609 18.5434 99.9893 23.1187 99.9893 28.0156V28.0334C99.9911 32.9303 98.6627 37.5056 98.5549 37.6485ZM83.5078 12.9781C83.5078 12.9781 87.4554 13.1443 90.0853 13.273C89.7658 12.9174 89.2416 12.6832 88.6474 12.6832H81.1777C81.1364 12.5796 81.0682 12.4402 80.9461 12.2543C80.6589 11.8433 79.6895 10.628 79.0253 10.1275C78.361 9.62714 77.7866 9.73437 77.248 9.93095C77.2301 9.93095 77.1942 9.9667 77.1942 9.98457C77.1942 10.0024 77.1942 10.0024 77.1942 10.0203C77.1942 10.0382 77.1942 10.0561 77.2121 10.0561L77.3558 10.342C77.4168 10.4332 78.5083 12.2615 78.9768 12.937C78.9409 12.9567 78.9032 12.9781 78.8691 13.0014L77.4276 13.0085C76.7616 12.9942 76.363 12.9853 76.363 12.9853C76.3612 12.9978 75.6432 13.0103 74.3632 13.0228L72.0043 13.0335C71.9613 12.9817 71.9182 12.9388 71.8751 12.9013C71.6202 12.685 71.3419 12.6779 71.0709 12.6779C71.0475 12.6779 71.026 12.6779 71.0026 12.6779H69.1177H68.8125C68.6294 12.6779 68.5217 12.8441 68.4373 13.0496L83.4611 12.9817C83.4611 12.9817 83.3606 13.9075 83.3085 14.3328C83.2457 14.751 83.2206 14.9816 82.919 15.0495C82.1848 15.2139 73.8929 16.9922 73.1389 17.1351C72.3849 17.2781 71.1444 17.2513 70.175 17.2513H66.5308C66.7642 15.9288 67.2489 14.6062 67.2489 14.5884C67.2489 14.5705 67.2489 14.5705 67.2489 14.5705V14.3203C67.2669 14.3382 67.5002 13.3731 67.7336 13.105C67.7516 13.0871 67.7516 13.0693 67.7516 13.0514C67.748 13.0514 67.7426 13.0568 67.7372 13.0603C67.2615 13.0621 66.7696 13.0639 66.2652 13.0657C66.2203 13.0121 66.1754 12.9638 66.1287 12.9245C65.8738 12.7082 65.5956 12.7011 65.3245 12.7011C65.3012 12.7011 65.2796 12.7011 65.2563 12.7011H63.3713H63.0662C62.8831 12.6886 62.7754 12.8602 62.691 13.071C65.601 13.0693 67.6492 13.0693 67.6492 13.0693C67.3979 13.4088 67.1645 14.2846 67.1645 14.3203V14.5705C67.1286 14.6956 66.6798 15.9645 66.4465 17.2513V17.2692C65.1306 17.2638 53.8049 17.2531 48.256 17.2406L48.274 13.0889C48.2291 13.0889 48.1842 13.0889 48.1393 13.0889V13.1122C48.1268 13.1122 48.116 13.1122 48.1034 13.1122V16.9046C38.808 16.8831 28.9723 16.842 28.3152 16.842C28.1734 16.842 28.0352 17.1584 27.897 17.1584C23.9404 17.1494 6.18794 17.1441 5.99406 17.1441C5.69606 17.1619 5.67811 16.7795 5.47885 16.3166C5.09109 15.4141 4.77155 14.7153 4.38738 13.9557C4.25634 13.6984 3.94398 13.2373 4.39636 13.1425C3.51673 13.155 2.80584 13.1676 2.80584 13.1676C1.9262 13.1676 1.74669 13.2212 1.24404 13.7216C0.741391 14.222 0.525971 14.5437 0.490068 15.0799C0.472116 15.6339 0.00537109 24.6771 0.00537109 28.0191C0.00537109 31.3433 0.472116 40.3686 0.490068 40.9405C0.525971 41.4767 0.741392 41.7984 1.24404 42.2988C1.74669 42.7992 1.9262 42.8528 2.80584 42.8528H3.90807C3.94577 42.8564 4.54177 42.8886 4.59024 42.8886C3.86499 42.8886 4.24377 42.3435 4.38918 42.0558C4.77335 41.2962 5.09289 40.5974 5.48064 39.6949C5.67991 39.232 5.69786 38.8477 5.99586 38.8674C6.84138 38.8674 61.4936 38.7602 66.4483 38.7423V38.7602C66.6816 40.0469 67.1304 41.3159 67.1663 41.441V41.6912C67.1663 41.7269 67.3997 42.6026 67.651 42.9422C67.651 42.9422 46.0856 42.9243 28.1752 42.9082C40.9479 42.9315 58.4292 42.9654 68.4481 42.9833C68.5307 43.1799 68.6384 43.3354 68.8143 43.3354H69.1195H71.0044C71.0278 43.3354 71.0493 43.3354 71.0726 43.3354C71.3437 43.3354 71.622 43.3282 71.8769 43.112C71.9182 43.078 71.9577 43.0369 71.9971 42.9905C74.7366 42.9958 76.3666 42.9994 76.3666 42.9994L78.8368 43.0101C78.8798 43.0405 78.9247 43.0673 78.9714 43.0941C78.4993 43.7804 77.4204 45.5855 77.3593 45.6766L77.2157 45.9626C77.1978 45.9804 77.1978 45.9983 77.1978 45.9983C77.1978 46.0162 77.1978 46.0162 77.1978 46.034C77.1978 46.0519 77.2337 46.0877 77.2516 46.0877C77.7902 46.2842 78.3646 46.3915 79.0288 45.8911C79.693 45.3907 80.6624 44.1754 80.9497 43.7643C81.0646 43.5892 81.1328 43.4551 81.1741 43.3533H81.4164H81.5421H82.0447H82.1524H82.6371H82.7628H83.2475H83.3552H83.8399H83.9656H84.4503H84.5759H85.0606H85.1863H85.6889H85.8146H86.2813H86.407H86.8917H87.0174H87.5021H87.6277H88.651C89.2596 43.3533 89.7981 43.1066 90.1141 42.7367C87.4787 42.8618 83.5078 43.028 83.5078 43.028C83.5078 43.028 83.4378 42.0986 83.3427 41.5446C83.2493 40.9906 83.199 40.9656 82.7341 40.8422C82.3984 40.7547 75.7796 39.3553 74.724 39.0962C73.6685 38.837 72.8858 38.6672 71.8266 38.6494C70.7675 38.6315 66.5291 38.6833 66.5291 38.6833L5.92767 38.6994C5.85766 38.6994 5.81458 38.6208 5.85586 38.5636L5.91869 38.1954C5.93485 38.1722 5.96178 38.1579 5.9905 38.1579L62.0178 38.2026H71.0511V37.8273C71.0511 37.8273 73.0689 37.8523 73.848 38.0149C74.6271 38.1775 83.2188 40.1506 83.8776 40.1685C84.5364 40.2042 84.8129 39.9326 84.8129 39.9326C84.8129 39.9326 84.8793 40.0469 84.9906 40.2936C85.0768 40.4848 85.4394 41.189 85.6387 41.2962C85.8272 41.4034 85.9421 41.407 86.048 41.407C86.1539 41.407 86.1754 41.5428 86.4591 41.6858C86.7301 41.8288 86.547 41.886 89.0064 41.5285C89.7999 41.4124 90.5036 41.2712 91.1319 41.1193C89.2667 41.4696 87.1861 41.7251 86.8702 41.7251C86.495 41.7251 86.0839 41.2962 86.0839 41.2962C86.0839 41.2962 85.9708 41.2962 85.8721 41.2962C85.7589 41.2962 85.653 41.2086 85.4771 40.9763C85.3012 40.744 84.9224 39.8664 84.9224 39.8664C84.9224 39.8664 85.3479 39.8128 85.8721 38.3116C86.3962 36.8103 86.9097 32.11 86.9097 28.1425V28.0174V27.8922C86.9097 23.9247 86.398 19.2244 85.8721 17.7231C85.3479 16.2219 84.9224 16.1683 84.9224 16.1683C84.9224 16.1683 85.2725 15.3283 85.434 15.1138C85.6082 14.8815 85.7589 14.7385 85.8721 14.7385C85.9726 14.7385 86.0839 14.7385 86.0839 14.7385C86.0839 14.7385 86.4968 14.3096 86.8702 14.3096C87.2112 14.3096 89.5988 14.6063 91.552 14.9959C90.8231 14.8046 89.983 14.6223 89.0082 14.4811C86.5488 14.1237 86.7319 14.1809 86.4609 14.3239C86.179 14.4669 86.1557 14.6027 86.0498 14.6027C85.9438 14.6027 85.8272 14.6063 85.6405 14.7135C85.4412 14.8207 85.0786 15.5249 84.9924 15.7161C84.8811 15.9609 84.8147 16.0771 84.8147 16.0771C84.8147 16.0771 84.5382 15.8055 83.8794 15.8412C83.2206 15.8591 74.6307 17.8321 73.8516 17.9948C73.0725 18.1574 71.0547 18.1824 71.0547 18.1824V17.8071H62.0178L5.9905 17.8536C5.96178 17.8536 5.93485 17.8393 5.9187 17.816L5.85587 17.4479C5.81637 17.3907 5.85766 17.3121 5.92767 17.3121L66.5291 17.3281C66.5291 17.3281 70.7693 17.38 71.8266 17.3621C72.8858 17.3442 73.6667 17.1762 74.724 16.9153C75.7814 16.6544 82.4002 15.2568 82.7341 15.1692C83.199 15.0477 83.2475 15.0209 83.3427 14.4669C83.4378 13.9128 83.5078 12.9781 83.5078 12.9781ZM66.5291 38.7566H70.1733C71.1427 38.7566 72.3831 38.7298 73.1371 38.8728C73.8911 39.0157 82.1812 40.794 82.9172 40.9584C83.2188 41.0263 83.2421 41.2569 83.3067 41.6751C83.3588 42.1004 83.4234 42.919 83.4234 42.919L67.7516 42.9547C67.7516 42.9368 67.7516 42.919 67.7336 42.9011C67.5003 42.633 67.2669 41.6679 67.2489 41.6858V41.4356C67.2489 41.4356 67.2489 41.4356 67.2489 41.4177C67.2489 41.3999 66.7625 40.0791 66.5291 38.7566ZM3.55445 40.508H2.31579C2.31579 40.508 2.30143 40.4008 2.2745 40.2024C2.09319 38.8567 1.34819 33.009 1.31229 28.1442C1.31229 28.1085 1.31049 28.071 1.31049 28.0334C1.31049 28.0299 1.31049 28.0281 1.31049 28.0245C1.31049 28.0209 1.31049 28.0173 1.31049 28.0156C1.33742 22.4395 2.31399 15.5231 2.31399 15.5231H3.55445V15.541L3.55445 28.0156V28.0334L3.55445 40.4902V40.508ZM5.81996 18.6507C5.81996 18.6507 5.78406 18.5077 5.96357 18.4005C6.12514 18.2754 6.39442 18.2754 6.39442 18.2754C6.39442 18.2754 69.4373 18.3469 70.9991 18.3469C71.3922 18.3469 72.814 18.3504 72.814 18.3504C72.814 18.3504 74.7581 21.1349 74.7581 27.8905V28.0156V28.1407C74.7581 34.8963 72.7565 37.6986 72.7565 37.6986C72.7565 37.6986 71.5322 37.7021 70.9973 37.7021C69.4355 37.7021 6.39262 37.7558 6.39262 37.7558C6.39262 37.7558 6.12334 37.7558 5.96178 37.6307C5.78226 37.5056 5.81817 37.3805 5.81817 37.3805L5.45734 33.0108C5.18267 29.6866 5.18267 26.3445 5.45734 23.0186L5.81996 18.6507ZM6.96708 13.1175C8.66172 13.1157 11.8751 13.1139 15.8837 13.1104C16.205 12.8459 16.6592 12.6797 17.1619 12.6797H25.8146C26.3083 12.6797 26.7553 12.8423 27.0748 13.1014C34.5086 13.0961 42.3984 13.0907 48.0998 13.0836C34.7097 13.0961 12.6129 13.1122 6.30825 13.1175C6.5488 13.1175 6.7732 13.1175 6.96708 13.1175ZM25.8146 43.3497H17.1619C16.6431 43.3497 16.1763 43.1745 15.855 42.8939C19.1832 42.8975 23.0339 42.8993 27.1035 42.9029C26.7822 43.1763 26.3244 43.3497 25.8146 43.3497Z" fill="black"/>
<path opacity="0.2" d="M97.8761 36.3262C97.7378 36.9517 97.8761 37.0053 97.8761 37.0053L96.5889 39.3108C96.5889 39.3108 94.1529 40.4725 92.1172 40.9193C90.0815 41.3661 87.2451 41.7235 86.8699 41.7235C86.4947 41.7235 86.0836 41.2946 86.0836 41.2946C86.0836 41.2946 85.9705 41.2946 85.8718 41.2946C85.7587 41.2946 85.6527 41.207 85.4768 40.9747C85.3009 40.7423 84.9221 39.8648 84.9221 39.8648C84.9221 39.8648 85.3476 39.8112 85.8718 38.31C86.3959 36.8087 86.9094 32.1084 86.9094 28.1408V28.0157V27.8906C86.9094 23.9231 86.3977 19.2227 85.8718 17.7215C85.3476 16.2203 84.9221 16.1666 84.9221 16.1666C84.9221 16.1666 85.2722 15.3267 85.4337 15.1122C85.6079 14.8799 85.7587 14.7369 85.8718 14.7369C85.9723 14.7369 86.0836 14.7369 86.0836 14.7369C86.0836 14.7369 86.4965 14.308 86.8699 14.308C87.2451 14.308 90.0922 14.6654 92.1172 15.1122C94.1529 15.559 96.5889 16.7207 96.5889 16.7207L97.8761 19.0262C97.8761 19.0262 97.7504 19.0798 97.8761 19.7053C98.0143 20.3308 98.6624 23.1546 98.6624 27.8906V28.0157V28.1408C98.6624 32.8769 98.0125 35.7007 97.8761 36.3262Z" fill="url(#paint0_linear_2585_154914)"/>
<path d="M27.0637 42.9388H15.9068C16.2263 43.1926 16.6715 43.3499 17.1634 43.3499H25.8161C26.3026 43.3499 26.7442 43.1908 27.0637 42.9388ZM90.1515 42.6779C89.8427 43.0782 89.2844 43.3499 88.6453 43.3499H79.9926C79.5294 43.3499 79.1094 43.2105 78.7952 42.9835L90.1515 42.6779ZM78.797 13.048C79.1112 12.8192 79.5312 12.6816 79.9944 12.6816H88.6471C89.2862 12.6816 89.8445 12.9533 90.1533 13.3536L78.797 13.048ZM17.1616 12.6816H25.8143C26.3205 12.6816 26.7765 12.8532 27.0979 13.1231H15.8708C16.1922 12.8514 16.6518 12.6816 17.1616 12.6816Z" fill="black"/>
<path d="M89.507 13.1463L89.9199 13.1642C89.7763 13.0391 89.5968 12.9318 89.3814 12.8603L89.507 13.1463ZM89.0582 13.1642L88.8428 12.7352C88.771 12.7352 88.6992 12.7174 88.6274 12.7174H88.1068L88.2863 13.1284L88.9146 13.1463L89.0582 13.1642ZM87.7118 13.1642H87.8375L87.6221 12.7174H87.4964H87.0117H86.8861L87.0656 13.1284L87.7118 13.1642ZM86.4911 13.1642H86.6168L86.4014 12.7174H86.2757H85.809H85.6833L85.8628 13.1284L86.4911 13.1642ZM78.718 13.1463L79.2027 13.1642L79.0771 12.914C78.9514 12.9854 78.8257 13.0569 78.718 13.1463ZM80.3337 12.7174H80.208H79.9926C79.8669 12.7174 79.7413 12.7352 79.6156 12.7531L79.7772 13.1284L80.4055 13.1463H80.5311L80.3337 12.7174ZM80.8184 12.7174L80.9979 13.1284L81.6262 13.1463H81.7519L81.5364 12.6995H81.4108H80.9261H80.8184L80.8184 12.7174ZM82.0391 12.7174L82.2186 13.1284L82.8469 13.1463H82.9726L82.7572 12.6995H82.6315H82.1468H82.0391V12.7174ZM85.2704 13.1642H85.3961L85.1807 12.7174H85.055H84.5703H84.4446L84.6241 13.1284L85.2704 13.1642ZM83.2419 12.7174L83.4214 13.1284L84.0497 13.1463H84.1754L83.9599 12.6995H83.8343H83.3496H83.2419V12.7174ZM89.507 42.9209L89.9199 42.9031C89.7763 43.0282 89.5968 43.1354 89.3814 43.2069L89.507 42.9209ZM89.0582 42.9031L88.8428 43.332C88.771 43.332 88.6992 43.332 88.6274 43.332H88.1068L88.2863 42.9209L88.9146 42.9031H89.0582ZM87.7118 42.9031H87.8375L87.6221 43.3499H87.4964H87.0117H86.8861L87.0656 42.9388L87.7118 42.9031ZM86.4911 42.9031H86.6168L86.4014 43.3499H86.2757H85.809H85.6833L85.8628 42.9388L86.4911 42.9031ZM78.718 42.9209L79.2027 42.9031L79.0771 43.1533C78.9514 43.0818 78.8257 43.0103 78.718 42.9209ZM80.3337 43.332H80.208H79.9926C79.8669 43.332 79.7413 43.3141 79.6156 43.2962L79.7772 42.9209L80.4055 42.9031H80.5311L80.3337 43.332ZM80.8184 43.332L80.9979 42.9209L81.6262 42.9031H81.7519L81.5364 43.3499H81.4108H80.9261H80.8184L80.8184 43.332ZM82.0391 43.332L82.2186 42.9209L82.8469 42.9031H82.9726L82.7572 43.3499H82.6315H82.1468H82.0391V43.332ZM85.2704 42.9031H85.3961L85.1807 43.3499H85.055H84.5703H84.4446L84.6241 42.9388L85.2704 42.9031ZM83.2419 43.332L83.4214 42.9209L84.0497 42.9031H84.1754L83.9599 43.3499H83.8343H83.3496H83.2419V43.332Z" fill="#333333"/>
<path d="M80.0822 41.4912V41.3303C79.9566 40.6155 74.1761 39.15 67.6417 39.2393H67.3545C67.6058 40.401 67.9648 41.4197 67.9648 41.4376V41.4554V41.6342C69.0779 41.6163 69.9575 41.5984 71.6449 41.5984C74.7686 41.5984 78.2871 41.5805 80.0822 41.4912ZM67.6417 16.7672H67.3545C67.6058 15.6055 67.9648 14.5868 67.9648 14.5689V14.551V14.3723C69.0779 14.3902 69.9575 14.4081 71.6449 14.4081C74.7686 14.4081 78.2871 14.4259 80.0822 14.5153V14.6761C79.9566 15.391 74.1761 16.8565 67.6417 16.7672Z" fill="#151515"/>
<path opacity="0.102" d="M79.4919 41.4051C79.7037 41.364 79.8509 41.2586 79.9765 41.2943C80.2817 41.4016 80.3715 41.4016 80.5331 41.4194C80.6946 41.4194 80.8023 41.5803 81.2152 41.7232C81.6281 41.8662 81.5743 41.8841 85.3262 41.5445C89.0781 41.1871 91.5375 40.5794 93.189 40.1863C94.8406 39.7752 96.0613 39.2033 96.0613 39.2033C96.0613 39.2033 93.584 41.6518 92.8838 42.0628C92.1837 42.4739 90.9989 42.5454 90.4603 42.6168C89.9038 42.7062 76.3629 42.9957 76.3629 42.9957C76.3629 42.9957 70.2234 42.9564 67.7514 42.9564C67.6491 42.9564 67.2793 41.8019 67.2488 41.6875C67.2488 41.5999 67.2488 41.532 67.2488 41.4284C67.8771 41.4123 77.8098 41.4355 79.4919 41.4051Z" fill="url(#paint1_linear_2585_154914)"/>
<path opacity="0.102" d="M79.6158 41.5106C79.6517 41.5284 79.9569 41.2764 79.9748 41.2943C80.28 41.4016 80.3697 41.4016 80.5313 41.4194C80.6929 41.4194 80.8006 41.5803 81.2135 41.7232C81.6264 41.8662 81.5725 41.8841 85.3244 41.5445C89.0763 41.1871 91.5357 40.5794 93.1873 40.1863C94.8388 39.7752 96.0595 39.2033 96.0595 39.2033C96.0595 39.2033 93.5822 41.6518 92.8821 42.0628C92.182 42.4739 90.9972 42.5454 90.4586 42.6168C89.9021 42.7062 76.3611 42.9957 76.3611 42.9957C76.3611 42.9957 7.1052 42.8778 4.45553 42.8778C4.29217 42.8778 4.90253 41.8341 5.20412 41.3211C5.45544 40.8958 5.18617 41.6321 6.26147 41.6321C14.6988 41.6321 72.769 41.5964 73.1172 41.5964C73.1172 41.5785 78.2389 41.5445 79.6158 41.5106Z" fill="url(#paint2_linear_2585_154914)"/>
<path opacity="0.102" d="M73.1172 14.3814C72.769 14.3814 14.6988 14.3456 6.26147 14.3456C5.18617 14.3456 5.45544 15.0837 5.20412 14.6566C4.90253 14.1437 4.29217 13.0946 4.45553 13.0999C7.09623 13.1768 76.3468 13.1017 76.3611 12.982C76.3611 12.982 89.9021 13.2715 90.4586 13.3609C90.9972 13.4324 92.182 13.5038 92.8821 13.9149C93.5822 14.326 96.0595 16.7744 96.0595 16.7744C96.0595 16.7744 94.8388 16.2025 93.1873 15.7915C91.5357 15.3983 89.0763 14.7906 85.3244 14.4332C81.5725 14.0936 81.6264 14.1115 81.2135 14.2545C80.8006 14.3974 80.6929 14.5583 80.5313 14.5583C80.3698 14.5762 80.28 14.5762 79.9748 14.6834C79.9569 14.7013 79.6517 14.4493 79.6158 14.4671C78.2389 14.4332 73.1172 14.3992 73.1172 14.3814Z" fill="url(#paint3_linear_2585_154914)"/>
<path d="M92.4511 42.2596C92.4511 42.2596 93.1692 42.206 93.7615 41.8128C94.354 41.4197 96.8493 38.5602 97.1903 37.9883C97.5314 37.4163 97.5673 37.0053 97.5673 37.0053C97.5673 37.0053 97.5314 37.0589 97.2621 37.3806C96.9929 37.7023 94.6951 40.3831 94.2463 40.7941C93.7974 41.2052 93.0076 41.8665 92.6306 42.0273C92.2536 42.1882 92.4511 42.2596 92.4511 42.2596Z" fill="white"/>
<path d="M66.4194 41.6339C63.206 41.6875 6.15726 41.5803 6.04955 41.5803C5.69769 41.5803 5.7713 41.314 5.7713 41.314C5.91311 40.9226 6.29907 40.0254 6.48039 39.6144C6.67786 39.2748 6.64195 39.2569 7.16255 39.2569C9.04749 39.2569 54.8423 39.2748 57.93 39.2569H65.7911C66.0244 40.365 66.3835 41.3658 66.4194 41.4909V41.6339Z" fill="#151515"/>
<path d="M68.8805 42.5276H72.0579C72.2015 42.5276 72.3092 42.5633 72.0579 42.9029C71.7348 43.3497 71.3578 43.3318 70.9988 43.3318H68.8086C68.5394 43.3318 68.4317 42.9744 68.324 42.6527C68.2701 42.5097 68.6291 42.5276 68.8805 42.5276ZM69.9396 43.028H70.8731C71.1244 43.028 71.3758 42.9029 71.4296 42.7778C71.4834 42.6527 71.3578 42.6527 71.3578 42.6527H69.796C69.796 42.6527 69.7421 42.6169 69.7242 42.8314C69.7421 43.0637 69.9396 43.028 69.9396 43.028ZM72.0579 13.4785H68.8805C68.6291 13.4785 68.2701 13.4964 68.324 13.3534C68.4317 13.0317 68.5394 12.6743 68.8086 12.6743H70.9988C71.3578 12.6743 71.7348 12.6564 72.0579 13.1032C72.3092 13.4428 72.2015 13.4785 72.0579 13.4785ZM71.4296 13.2283C71.3758 13.1032 71.1244 12.9781 70.8731 12.9781H69.9396C69.9396 12.9781 69.7421 12.9424 69.7242 13.1747C69.7421 13.3892 69.796 13.3534 69.796 13.3534H71.3578C71.3578 13.3534 71.4834 13.3534 71.4296 13.2283ZM66.3134 13.5036H63.1359C62.8846 13.5036 62.5256 13.5214 62.5794 13.3785C62.6871 13.0568 62.7948 12.6814 63.0641 12.6993H65.2542C65.6132 12.6993 65.9902 12.6814 66.3134 13.1282C66.5647 13.4678 66.457 13.5036 66.3134 13.5036ZM65.685 13.2533C65.6312 13.1282 65.3799 13.0031 65.1286 13.0031H64.1951C64.1951 13.0031 63.9976 12.9674 63.9796 13.1997C63.9976 13.4142 64.0514 13.3785 64.0514 13.3785H65.6132C65.6132 13.3785 65.7389 13.3785 65.685 13.2533Z" fill="#151515"/>
<path opacity="0.502" d="M69.5088 43.1532H71.7527V42.5992H69.5088V43.1532Z" fill="black"/>
<path d="M72.1658 42.7242C72.1478 42.7778 72.1119 42.8314 72.0581 42.9029C71.735 43.3497 71.358 43.3318 70.9989 43.3318H69.114C69.114 43.2067 69.132 43.0816 69.2038 43.028C69.3294 42.9029 69.4551 42.7957 69.7603 42.8314V42.8493C69.7423 43.0637 69.9398 43.028 69.9398 43.028H70.8733C71.1246 43.028 71.3759 42.9029 71.4298 42.7778C71.4477 42.7599 71.4477 42.7242 71.4477 42.7063C71.4477 42.7242 72.1658 42.7242 72.1658 42.7242Z" fill="url(#paint4_linear_2585_154914)"/>
<path opacity="0.102" d="M67.2468 14.5756C67.2468 14.4737 67.2468 14.404 67.2468 14.3165C67.2773 14.2021 67.6471 13.0476 67.7495 13.0476C70.2214 13.0476 76.3609 13.0082 76.3609 13.0082C76.3609 13.0082 89.9019 13.2978 90.4584 13.3871C90.9969 13.4586 92.1817 13.5301 92.8819 13.9412C93.582 14.3522 96.0593 16.8007 96.0593 16.8007C96.0593 16.8007 94.8386 16.2288 93.187 15.8177C91.5355 15.4245 89.0761 14.8169 85.3242 14.4594C81.5723 14.1199 81.6261 14.1377 81.2133 14.2807C80.8004 14.4237 80.6927 14.5845 80.5311 14.5845C80.3695 14.6024 80.2798 14.6024 79.9746 14.7096C79.8489 14.7454 79.7017 14.6399 79.4899 14.5988C77.8096 14.5684 67.8769 14.5935 67.2468 14.5756Z" fill="url(#paint5_linear_2585_154914)"/>
<path opacity="0.102" d="M73.1172 14.5365C72.769 14.5365 14.6988 14.5007 6.26147 14.5007C5.18617 14.5007 5.45544 15.2102 5.20412 14.801C4.90253 14.3077 4.29217 13.3033 4.45553 13.3033C7.10521 13.3033 76.3611 13.1907 76.3611 13.1907C76.3611 13.1907 89.9021 13.4695 90.4586 13.5553C90.9972 13.6232 92.182 13.6929 92.8821 14.0879C93.5822 14.4829 96.0595 16.8384 96.0595 16.8384C96.0595 16.8384 94.8388 16.2879 93.1873 15.893C91.5357 15.5141 89.0763 14.9297 85.3244 14.5865C81.5725 14.2595 81.6264 14.2773 81.2135 14.4149C80.8006 14.5526 80.6929 14.708 80.5313 14.708C80.3698 14.7259 80.28 14.7259 79.9748 14.8278C79.9569 14.8457 79.6517 14.6026 79.6158 14.6187C78.2389 14.5865 73.1172 14.5543 73.1172 14.5365Z" fill="url(#paint6_linear_2585_154914)"/>
<path d="M48.9651 14.4346C48.9651 14.3917 49.001 14.3578 49.0423 14.3578C54.8102 14.3542 65.5417 14.356 66.4196 14.3721V14.515C66.3836 14.6401 66.0246 15.641 65.7913 16.749H57.9302C57.564 16.7472 50.2594 16.7454 49.0333 16.7437C48.9902 16.7437 48.9543 16.7097 48.9543 16.6668L48.9651 14.4346Z" fill="#151515"/>
<path d="M47.3511 16.6579C47.3511 16.7061 47.3134 16.7454 47.2649 16.7454C35.9822 16.7472 8.40661 16.749 7.16255 16.749C6.64196 16.749 6.67786 16.7311 6.48039 16.3916C6.29908 15.9805 5.91132 15.0834 5.7713 14.692C5.7713 14.692 5.6977 14.4257 6.04955 14.4257C6.11597 14.4257 32.2196 14.3756 47.2631 14.3578C47.3116 14.3578 47.3493 14.3971 47.3493 14.4453V16.6579H47.3511Z" fill="#151515"/>
<path opacity="0.502" d="M69.5088 13.4069H71.7527V12.8528H69.5088V13.4069Z" fill="black"/>
<path d="M80.0467 41.1873C77.5334 41.2588 69.3474 41.2945 68.7012 41.2945C68.3781 40.812 67.9113 39.9005 67.8036 39.2571L72.2018 39.2571C73.4404 39.2571 74.4278 39.4716 75.1997 39.6503C75.3433 39.6861 75.469 39.7039 75.6126 39.7397C76.4922 39.9184 79.0773 40.5439 79.7953 40.7226L80.0467 41.1873ZM65.9007 41.3481L7.22913 41.3481C7.06756 41.3481 6.82701 41.3303 6.90061 41.0265C6.97421 40.7226 7.21297 40.1168 7.34581 39.7718C7.47865 39.4251 7.55046 39.2839 7.87359 39.2839L48.825 39.275L65.4788 39.241L65.6673 40.2419L65.9007 41.3481Z" fill="url(#paint7_linear_2585_154914)"/>
<path d="M80.0467 14.8189C77.5334 14.7474 69.3474 14.7116 68.7012 14.7116C68.3781 15.1942 67.9113 16.1056 67.8036 16.749H72.2018C73.4404 16.749 74.4278 16.5346 75.1997 16.3558C75.3433 16.3201 75.469 16.3022 75.6126 16.2665C76.4922 16.0878 79.0773 15.4622 79.7953 15.2835L80.0467 14.8189ZM7.87359 16.7222C7.55046 16.7222 7.47866 16.581 7.34581 16.2343C7.21297 15.8876 6.97421 15.2817 6.90061 14.9797C6.82701 14.6759 7.06756 14.658 7.22912 14.658L46.8198 14.658C46.8845 14.658 46.9347 14.7098 46.9347 14.7724V15.7303V16.7454L30.5143 16.7329L7.87359 16.7222ZM49.9614 16.6418C49.8034 16.6418 49.5216 16.6668 49.5216 16.2075C49.5216 15.9305 49.5216 15.3729 49.5216 15.0137C49.5216 14.8868 49.5934 14.6652 49.9883 14.6652H65.6997C65.6637 14.969 65.2347 16.6668 65.2347 16.6668L49.9614 16.6418Z" fill="url(#paint8_linear_2585_154914)"/>
<path d="M72.8928 37.7021C72.8928 37.7021 73.2231 37.241 73.8102 35.7576C74.3774 34.2743 74.9465 31.2682 74.9465 28.0155C74.9465 24.7628 74.3972 21.6889 73.8102 20.2055C73.2429 18.7221 72.8928 18.3289 72.8928 18.3289C72.8928 18.3289 81.4432 16.3988 81.9333 16.3452C82.4216 16.3094 83.7339 16.1128 84.3783 17.0958C85.0246 18.0787 85.9527 22.2965 85.9527 28.0155C85.9527 33.7345 85.0425 37.9523 84.3783 38.9353C83.7141 39.9182 82.4216 39.7216 81.9333 39.6859C81.4235 39.6502 72.8928 37.7021 72.8928 37.7021Z" fill="url(#paint9_linear_2585_154914)"/>
<path d="M3.28497 37.7556C3.24907 38.4526 2.60101 39.575 2.60101 39.575C2.60101 39.575 1.65137 31.2288 1.65137 27.9939C1.65137 24.7591 2.59383 16.4433 2.59383 16.4433C2.59383 16.4433 3.25087 17.58 3.28677 18.277C3.30472 18.7059 3.26882 24.0317 3.25086 28.0172C3.26702 32.0008 3.30293 37.3267 3.28497 37.7556Z" fill="url(#paint10_linear_2585_154914)"/>
<path opacity="0.102" d="M83.0535 41.169L81.9495 41.2941L81.1362 43.0277L83.4215 42.9205C83.4215 42.9205 83.2994 41.6873 83.2563 41.4729C83.2133 41.2584 83.1109 41.0975 83.1109 41.0975L83.0535 41.169Z" fill="black"/>
<path opacity="0.3" d="M7.32227 30.0708C7.32227 29.8921 7.37971 29.767 7.47845 29.767L62.8954 29.767C62.9726 29.767 63.0516 29.91 63.0516 30.0708L7.32227 30.0708Z" fill="white"/>
<path opacity="0.051" d="M7.47845 30.3749C7.40125 30.3749 7.32227 30.2319 7.32227 30.0711L63.03 30.0711C63.03 30.2498 62.9726 30.3749 62.8739 30.3749L7.47845 30.3749Z" fill="#111111"/>
<path opacity="0.3" d="M7.32227 36.2722C7.32227 36.0935 7.43895 35.9684 7.55564 35.9684L70.3525 35.9684C70.489 35.9684 70.5859 36.1114 70.5859 36.2722L7.32227 36.2722Z" fill="white"/>
<path opacity="0.051" d="M7.55564 36.5763C7.41921 36.5763 7.32227 36.4333 7.32227 36.2725L70.5859 36.2725C70.5859 36.4512 70.4692 36.5763 70.3525 36.5763L7.55564 36.5763Z" fill="#111111"/>
<path opacity="0.3" d="M7.32227 33.1628C7.32227 32.9841 7.37971 32.859 7.47845 32.859H62.8954C62.9726 32.859 63.0516 33.002 63.0516 33.1628H7.32227Z" fill="white"/>
<path opacity="0.051" d="M7.47845 33.4662C7.40125 33.4662 7.32227 33.3232 7.32227 33.1624H63.03C63.03 33.3411 62.9726 33.4662 62.8739 33.4662H7.47845Z" fill="#111111"/>
<path d="M80.0393 42.6065C79.6102 42.5386 79.3607 42.6101 79.1489 42.8495C78.8975 43.0997 77.4255 45.5661 77.3537 45.6733L77.2101 45.9593C77.1921 45.9771 77.1921 45.995 77.1921 45.995C77.1921 46.0129 77.1921 46.0129 77.1921 46.0307C77.1921 46.0486 77.2281 46.0844 77.246 46.0844C77.7845 46.281 78.359 46.3882 79.0232 45.8878C79.6874 45.3874 80.6568 44.1721 80.9441 43.761C81.2133 43.35 81.2313 43.1534 81.2313 43.1176C81.2313 43.0997 81.2313 43.0819 81.2313 43.0819C81.2241 43.0604 81.199 43.0211 81.1272 42.9693L81.6621 41.9023C81.6585 41.8988 81.6549 41.8934 81.6514 41.888L81.9494 41.3483L79.5259 40.6692L79.5977 40.9194L79.9029 41.4734L80.1219 41.5824C80.1506 41.8291 80.1344 42.2062 80.0393 42.6065ZM81.6621 14.1294C81.6585 14.1329 81.6549 14.1383 81.6514 14.1437L81.9493 14.6834L79.5259 15.3625L79.5977 15.1123L79.9029 14.5583L80.1219 14.4493C80.1488 14.1991 80.1326 13.8148 80.0357 13.4073C79.6084 13.4735 79.3607 13.402 79.1489 13.1643C78.8975 12.9141 77.4255 10.4477 77.3537 10.3405L77.2101 10.0546C77.1921 10.0546 77.1921 10.0367 77.1921 10.0188C77.1921 10.0009 77.1921 10.0009 77.1921 9.98307C77.1921 9.96519 77.2281 9.92945 77.246 9.92945C77.7845 9.73286 78.359 9.62563 79.0232 10.126C79.6874 10.6265 80.6568 11.8417 80.9441 12.2528C81.2133 12.6639 81.2313 12.8604 81.2313 12.8962C81.2313 12.9141 81.2313 12.9319 81.2313 12.9319C81.2241 12.9552 81.1972 12.9963 81.12 13.0499L81.1236 13.057L81.6621 14.1294Z" fill="#040203"/>
<path d="M81.716 14.2009C81.6083 14.3439 81.4288 14.5226 81.1595 14.6119C80.9261 14.6834 80.585 14.737 80.1183 14.5583C80.1183 14.6119 80.1003 14.6656 80.1003 14.7013H81.9853C81.9673 14.6656 81.9314 14.6119 81.8955 14.5583L81.716 14.2009Z" fill="#040203"/>
<path d="M99.9909 28.0336C99.9909 32.9305 98.6624 37.5057 98.5547 37.6487C98.447 37.7917 97.9264 38.0776 97.9264 38.0776C97.9264 38.0776 97.5315 39.0427 96.239 40.6155C94.9464 42.1882 93.6359 42.635 92.3075 42.7243C90.9971 42.7958 90.7637 42.5992 90.7637 42.5992C90.7637 42.5992 92.4511 42.3312 93.259 42.0452C94.0668 41.7593 95.2336 40.4367 96.5621 38.7032C97.8905 36.9696 98.3213 35.3611 98.6804 33.0556C99.0394 30.7501 99.0574 29.7672 99.0574 28.0872V28.0336H99.0663L99.0574 27.9443C99.0574 26.2643 99.0394 25.2813 98.6804 22.9759C98.3213 20.6704 97.8905 19.0619 96.5621 17.3283C95.2336 15.5947 94.0668 14.2722 93.259 13.9863C92.4511 13.7003 90.7637 13.4322 90.7637 13.4322C90.7637 13.4322 90.9791 13.2356 92.3075 13.325C93.6359 13.4144 94.9644 13.8612 96.239 15.4339C97.5315 17.0066 97.9264 17.9717 97.9264 17.9717C97.9264 17.9717 98.447 18.2577 98.5547 18.4006C98.6624 18.5436 99.9998 23.1367 99.9998 28.0336L99.9909 28.0336Z" fill="url(#paint11_linear_2585_154914)"/>
<path d="M92.4512 13.7718C92.4512 13.7718 93.1693 13.8254 93.7617 14.2186C94.354 14.6118 96.8494 17.4713 97.1905 18.0432C97.5315 18.6151 97.5674 19.0083 97.5674 19.0083C97.5674 19.0083 97.5315 18.9547 97.2623 18.633C96.993 18.3113 94.7131 15.6305 94.2643 15.2195C93.8155 14.8084 93.0256 14.1471 92.6486 13.9863C92.2358 13.8254 92.4512 13.7718 92.4512 13.7718Z" fill="white"/>
<path d="M92.4511 42.2596C92.4511 42.2596 92.2536 42.206 92.6306 42.0452C92.8819 41.9379 93.2948 41.6341 93.6718 41.3124C93.7616 41.3303 93.8334 41.366 93.8693 41.4197C93.959 41.5269 93.8154 41.7235 93.618 41.9022C93.0614 42.206 92.4511 42.2596 92.4511 42.2596ZM92.4511 13.7718C92.4511 13.7718 92.2536 13.8254 92.6306 13.9862C92.8819 14.0935 93.2948 14.3973 93.6718 14.719C93.7616 14.7011 93.8334 14.6654 93.8693 14.6118C93.959 14.5045 93.8154 14.3079 93.618 14.1292C93.0614 13.8254 92.4511 13.7718 92.4511 13.7718Z" fill="#FF8040"/>
<path opacity="0.502" d="M63.7644 12.8782H66.0084V13.4323H63.7644V12.8782Z" fill="black"/>
<path d="M72.1657 13.2821C72.1478 13.2284 72.1119 13.1748 72.058 13.1033C71.7349 12.6565 71.3579 12.6744 70.9989 12.6744H69.1139C69.1139 12.7995 69.1319 12.9246 69.2037 12.9782C69.3294 13.1033 69.455 13.2106 69.7602 13.1748V13.157C69.7423 12.9425 69.9397 12.9782 69.9397 12.9782H70.8732C71.1245 12.9782 71.3759 13.1033 71.4297 13.2284C71.4477 13.2463 71.4477 13.2821 71.4477 13.2999C71.4477 13.2821 72.1657 13.2821 72.1657 13.2821ZM65.6852 13.2535C65.6313 13.1284 65.38 13.0033 65.1287 13.0033H64.1952C64.1952 13.0033 63.9977 12.9675 64.0157 13.182V13.1998C63.7105 13.2356 63.5848 13.1284 63.4591 13.0033C63.3873 12.9496 63.3694 12.8245 63.3694 12.6994H65.2543C65.6133 12.6994 65.9903 12.6816 66.3135 13.1284C66.3673 13.1998 66.4032 13.2535 66.4212 13.3071L65.7031 13.325C65.7031 13.3071 65.7031 13.2713 65.6852 13.2535Z" fill="url(#paint12_linear_2585_154914)"/>
<path opacity="0.102" d="M83.0803 14.8617L81.9763 14.7366L81.1631 13.0031H83.5291C83.5291 13.0031 83.3263 14.3435 83.2832 14.5579C83.2401 14.7724 83.1378 14.9332 83.1378 14.9332L83.0803 14.8617Z" fill="black"/>
<path opacity="0.3" d="M7.32227 25.96C7.32227 26.1387 7.37971 26.2638 7.47845 26.2638L62.8954 26.2638C62.9726 26.2638 63.0516 26.1208 63.0516 25.96L7.32227 25.96Z" fill="white"/>
<path opacity="0.051" d="M7.47845 25.6566C7.40125 25.6566 7.32227 25.7996 7.32227 25.9604L63.03 25.9604C63.03 25.7817 62.9726 25.6566 62.8739 25.6566L7.47845 25.6566Z" fill="#111111"/>
<path opacity="0.3" d="M7.32227 19.7586C7.32227 19.9373 7.43895 20.0624 7.55564 20.0624L70.3525 20.0624C70.489 20.0624 70.5859 19.9194 70.5859 19.7586L7.32227 19.7586Z" fill="white"/>
<path opacity="0.051" d="M7.55564 19.4545C7.41921 19.4545 7.32227 19.5975 7.32227 19.7583L70.5859 19.7583C70.5859 19.5796 70.4692 19.4545 70.3525 19.4545L7.55564 19.4545Z" fill="#111111"/>
<path opacity="0.3" d="M7.32227 22.8688C7.32227 23.0475 7.37971 23.1726 7.47845 23.1726L62.8954 23.1726C62.9726 23.1726 63.0516 23.0296 63.0516 22.8688L7.32227 22.8688Z" fill="white"/>
<path opacity="0.051" d="M7.47845 22.5465C7.40125 22.5465 7.32227 22.6895 7.32227 22.8503L63.03 22.8503C63.03 22.6716 62.9726 22.5465 62.8739 22.5465L7.47845 22.5465Z" fill="#111111"/>
<path d="M84.4932 13.9684C84.4932 14.0756 84.5829 14.1471 84.6727 14.1471C84.7624 14.1471 84.8522 14.0577 84.8522 13.9684C84.8522 13.879 84.7624 13.7897 84.6727 13.7897C84.5829 13.7897 84.4932 13.8611 84.4932 13.9684Z" fill="black"/>
<path d="M5.25243 28.0084C5.25423 32.3763 5.81432 37.2804 5.83586 37.5038C5.8574 37.7272 5.79457 38.1758 5.68148 38.7352C5.56838 39.2945 5.39066 39.7002 5.39066 39.7002C5.39066 39.7002 4.71568 39.8289 4.20944 39.4429C3.7032 39.0568 3.55779 37.9524 3.55779 37.9524C3.55779 37.9524 3.55779 31.2254 3.55779 31.1414C4.04967 30.9519 4.29202 30.8089 4.29202 30.8089C4.40331 30.7518 4.47333 30.6374 4.47333 30.5123L4.46974 28.0156V25.5385C4.46974 25.4134 4.39973 25.299 4.28842 25.2418C4.28842 25.2418 4.04608 25.0989 3.5542 24.9094C3.5542 24.8236 3.5542 18.0984 3.5542 18.0984C3.5542 18.0984 3.69961 16.9939 4.20585 16.6079C4.71208 16.2219 5.38707 16.3523 5.38707 16.3523C5.38707 16.3523 5.56659 16.758 5.67789 17.3174C5.78919 17.8768 5.85381 18.3254 5.83227 18.5488C5.81073 18.7686 5.25243 23.6423 5.25243 28.0084Z" fill="url(#paint13_linear_2585_154914)"/>
<path d="M99.0576 30.75C98.9679 31.8044 98.6268 33.8418 98.178 35.772C97.801 37.3268 96.9932 37.2554 96.9932 37.2554L98.3395 28.0156L96.9932 18.7758C96.9932 18.7758 97.801 18.7043 98.178 20.2592C98.6268 22.1893 98.9679 24.2267 99.0576 25.2812C99.1294 26.139 99.1653 27.5152 99.1833 28.0156C99.1653 28.516 99.1294 29.8921 99.0576 30.75Z" fill="url(#paint14_linear_2585_154914)"/>
<rect width="19.8277" height="0.419712" transform="matrix(1 0 0 -1 28.3135 13.7184)" fill="#151515"/>
<path opacity="0.2" d="M85.396 39.4897C85.396 39.4897 86.8304 39.2699 87.2037 36.9823C87.5772 34.6947 87.6328 34.2872 88.0726 34.0853C88.5124 33.8815 89.7224 33.9155 91.1334 33.8476C92.5462 33.7797 95.5495 33.5759 96.3178 33.2042C97.0862 32.8325 97.1544 32.5608 97.2998 32.2552C97.447 31.9496 97.4577 31.7298 97.4577 31.7298C97.4577 31.7298 97.21 32.1712 96.3968 32.2552C95.5836 32.3392 87.9936 32.4929 87.9936 32.4929C87.9936 32.4929 87.4174 32.4589 87.2935 32.6108C87.1696 32.7628 87.1355 33.2542 87.1355 33.2542C87.1355 33.2542 86.9775 35.0504 86.6275 36.6767C86.2667 38.3209 86.1194 38.5926 85.8825 38.9143C85.6455 39.2181 85.396 39.4897 85.396 39.4897Z" fill="url(#paint15_radial_2585_154914)"/>
<path opacity="0.2" d="M85.396 16.5414C85.396 16.5414 86.8304 16.7612 87.2037 19.0488C87.5772 21.3364 87.6328 21.7439 88.0726 21.9459C88.5124 22.1496 89.7224 22.1157 91.1334 22.1836C92.5462 22.2515 95.5495 22.4552 96.3178 22.827C97.0862 23.1987 97.1544 23.4703 97.2998 23.776C97.4452 24.0816 97.4577 24.3014 97.4577 24.3014C97.4577 24.3014 97.21 23.86 96.3968 23.776C95.5836 23.692 87.9936 23.5383 87.9936 23.5383C87.9936 23.5383 87.4174 23.5722 87.2935 23.4203C87.1696 23.2684 87.1355 22.7769 87.1355 22.7769C87.1355 22.7769 86.9775 20.9808 86.6275 19.3705C86.2667 17.7263 86.1194 17.4386 85.8825 17.133C85.6455 16.8131 85.396 16.5414 85.396 16.5414Z" fill="url(#paint16_radial_2585_154914)"/>
<path opacity="0.25" d="M81.3841 41.2946C81.2387 41.2946 81.0448 41.1516 80.8186 40.9193C82.4989 40.7584 84.5508 40.5082 86.6026 40.115C91.2719 39.2036 92.8714 38.5066 94.6827 37.5772C95.846 36.9874 96.6054 36.4155 96.9931 36.076C96.9608 36.1832 96.9446 36.2726 96.9285 36.3441C96.7669 36.9696 96.9285 37.0232 96.9285 37.0232L95.2482 39.3108C95.2482 39.3108 92.0977 40.4725 89.4641 40.9193C86.8306 41.3661 83.1631 41.7235 82.6784 41.7235C82.1937 41.7235 81.6605 41.2946 81.6605 41.2946C81.6605 41.2946 81.5295 41.2946 81.3841 41.2946Z" fill="url(#paint17_linear_2585_154914)"/>
<path opacity="0.3" d="M97.4706 37.1483L95.8083 39.3108C95.8083 39.3108 92.5357 40.4725 89.798 40.9193C87.0604 41.3661 83.2511 41.7235 82.7484 41.7235C82.244 41.7235 81.6911 41.2946 81.6911 41.2946C81.6911 41.2946 81.5403 41.2946 81.4056 41.2946C81.3554 41.2946 81.2889 41.2767 81.2207 41.241C82.9997 41.098 85.0983 40.9014 86.8952 40.6155C90.9918 39.9721 93.2915 39.1857 95.171 38.4529C96.363 37.9704 97.0846 37.47 97.4706 37.1483Z" fill="url(#paint18_linear_2585_154914)"/>
<path opacity="0.25" d="M81.3841 14.7365C81.2387 14.7365 81.0448 14.8795 80.8186 15.1118C82.4989 15.2726 84.5508 15.5228 86.6026 15.916C91.2719 16.8275 92.8714 17.5245 94.6827 18.4538C95.846 19.0436 96.6054 19.6155 96.9931 19.9551C96.9608 19.8478 96.9446 19.7585 96.9285 19.687C96.7669 19.0615 96.9285 19.0079 96.9285 19.0079L95.2482 16.7203C95.2482 16.7203 92.0977 15.5586 89.4641 15.1118C86.8468 14.665 83.1631 14.3075 82.6784 14.3075C82.1937 14.3075 81.6605 14.7365 81.6605 14.7365C81.6605 14.7365 81.5295 14.7365 81.3841 14.7365Z" fill="url(#paint19_linear_2585_154914)"/>
<path opacity="0.3" d="M97.4706 18.8828L95.8083 16.7203C95.8083 16.7203 92.5357 15.5586 89.798 15.1118C87.0783 14.665 83.2511 14.3076 82.7484 14.3076C82.244 14.3076 81.6911 14.7365 81.6911 14.7365C81.6911 14.7365 81.5403 14.7365 81.4056 14.7365C81.3554 14.7365 81.2889 14.7544 81.2207 14.7901C82.9997 14.9331 85.0983 15.1297 86.8952 15.4157C90.9918 16.059 93.2915 16.8633 95.171 17.5782C96.363 18.0428 97.0846 18.5611 97.4706 18.8828Z" fill="url(#paint20_linear_2585_154914)"/>
<path d="M99.4704 28.4088C99.4345 28.7662 99.1473 28.9092 99.1473 28.9092L98.6626 28.0335L99.1473 27.1577C99.1473 27.1577 99.4345 27.3007 99.4704 27.6581C99.4704 27.8547 99.4525 27.9798 99.4345 28.0335C99.4525 28.0871 99.4704 28.2122 99.4704 28.4088Z" fill="url(#paint21_linear_2585_154914)"/>
<path d="M2.97106 31.1791L2.8454 30.8038V28.0158V25.2457L2.97106 24.8703C2.97106 24.8703 3.3301 24.8167 3.72503 24.9597C4.11997 25.1027 4.35334 25.335 4.35334 25.335V28.0158V30.6966C4.35334 30.6966 4.11997 30.9289 3.72503 31.0719C3.3301 31.2149 2.97106 31.1791 2.97106 31.1791ZM2.43251 15.3446C3.37498 17.0782 3.56167 18.0504 3.56167 18.0504C3.75196 17.214 3.90814 16.719 4.45028 16.4652C4.86856 16.299 5.09654 16.3294 5.38736 16.3508L4.10741 13.5628C4.10741 13.5628 3.3301 13.4949 2.84719 13.8702C2.36429 14.2455 2.43251 15.1766 2.43251 15.3446ZM2.84899 42.1811C3.33369 42.5564 4.1092 42.4885 4.1092 42.4885L5.38916 39.7005C5.09834 39.7219 4.87035 39.7523 4.45208 39.5861C3.90994 39.3323 3.75376 38.8373 3.56347 38.0008C3.56347 38.0008 3.37677 38.9731 2.43431 40.7067C2.4361 40.8729 2.36429 41.8058 2.84899 42.1811Z" fill="#ED2939"/>
<path opacity="0.2" d="M3.08758 31.1791L2.96191 30.8038V28.0158L2.96191 25.2457L3.08758 24.8703C3.08758 24.8703 3.44661 24.8167 3.84155 24.9597C4.23649 25.1027 4.46986 25.335 4.46986 25.335V28.0158V30.6966C4.46986 30.6966 4.23649 30.9289 3.84155 31.0719C3.44661 31.2149 3.08758 31.1791 3.08758 31.1791Z" fill="black"/>
<path opacity="0.2" d="M3.0874 31.0717V30.5891V28.0156L3.0874 25.442V24.9595L3.46439 25.3348C3.46439 25.3348 3.59005 26.9254 3.59005 28.0156C3.59005 29.1057 3.46439 30.6963 3.46439 30.6963L3.0874 31.0717Z" fill="black"/>
<defs>
<linearGradient id="paint0_linear_2585_154914" x1="88.3572" y1="34.8696" x2="88.3572" y2="34.8696" gradientUnits="userSpaceOnUse">
<stop offset="1"/>
<stop stop-color="white"/>
</linearGradient>
<linearGradient id="paint1_linear_2585_154914" x1="-560.32" y1="-24.6783" x2="-560.32" y2="-24.8021" gradientUnits="userSpaceOnUse">
<stop offset="1" stop-opacity="0"/>
<stop/>
</linearGradient>
<linearGradient id="paint2_linear_2585_154914" x1="27.3361" y1="42.0476" x2="27.3361" y2="42.0476" gradientUnits="userSpaceOnUse">
<stop offset="1" stop-opacity="0"/>
<stop/>
</linearGradient>
<linearGradient id="paint3_linear_2585_154914" x1="27.3361" y1="15.8263" x2="27.3361" y2="15.8263" gradientUnits="userSpaceOnUse">
<stop offset="1" stop-opacity="0"/>
<stop/>
</linearGradient>
<linearGradient id="paint4_linear_2585_154914" x1="-531.365" y1="62.8194" x2="-531.365" y2="63.2307" gradientUnits="userSpaceOnUse">
<stop offset="1" stop-color="white"/>
<stop stop-color="#707070"/>
</linearGradient>
<linearGradient id="paint5_linear_2585_154914" x1="-560.32" y1="-22.6456" x2="-560.32" y2="-22.7694" gradientUnits="userSpaceOnUse">
<stop offset="1" stop-opacity="0"/>
<stop/>
</linearGradient>
<linearGradient id="paint6_linear_2585_154914" x1="-560.553" y1="-22.6322" x2="-560.55" y2="-22.7384" gradientUnits="userSpaceOnUse">
<stop offset="1" stop-opacity="0"/>
<stop/>
</linearGradient>
<linearGradient id="paint7_linear_2585_154914" x1="43.4672" y1="35.3874" x2="43.4672" y2="44.25" gradientUnits="userSpaceOnUse">
<stop offset="1"/>
<stop stop-color="#707070"/>
</linearGradient>
<linearGradient id="paint8_linear_2585_154914" x1="25.1769" y1="16.2263" x2="25.1769" y2="16.2263" gradientUnits="userSpaceOnUse">
<stop offset="1"/>
<stop stop-color="#707070"/>
</linearGradient>
<linearGradient id="paint9_linear_2585_154914" x1="76.1578" y1="33.8706" x2="76.1578" y2="33.8706" gradientUnits="userSpaceOnUse">
<stop offset="1"/>
<stop stop-color="#707070"/>
</linearGradient>
<linearGradient id="paint10_linear_2585_154914" x1="2.06144" y1="33.792" x2="2.06144" y2="33.792" gradientUnits="userSpaceOnUse">
<stop offset="1" stop-color="#707070"/>
<stop/>
</linearGradient>
<linearGradient id="paint11_linear_2585_154914" x1="93.0727" y1="35.3804" x2="93.0727" y2="35.3804" gradientUnits="userSpaceOnUse">
<stop offset="1" stop-color="#E9E9E9"/>
<stop offset="0.5444" stop-color="white"/>
<stop stop-color="#E9E9E9"/>
</linearGradient>
<linearGradient id="paint12_linear_2585_154914" x1="65.5685" y1="13.1623" x2="65.5685" y2="13.1623" gradientUnits="userSpaceOnUse">
<stop offset="1" stop-color="white"/>
<stop stop-color="#707070"/>
</linearGradient>
<linearGradient id="paint13_linear_2585_154914" x1="4.12566" y1="33.8734" x2="4.12566" y2="33.8734" gradientUnits="userSpaceOnUse">
<stop offset="1" stop-color="#3C3C3C"/>
<stop/>
</linearGradient>
<linearGradient id="paint14_linear_2585_154914" x1="91.256" y1="28.0156" x2="91.256" y2="28.0156" gradientUnits="userSpaceOnUse">
<stop offset="1" stop-color="#8C8C8C"/>
<stop stop-color="white"/>
</linearGradient>
<radialGradient id="paint15_radial_2585_154914" cx="0" cy="0" r="1" gradientUnits="userSpaceOnUse" gradientTransform="translate(89.6016 42.579) scale(6.03087 3.88)">
<stop offset="1" stop-color="#6F6F6F"/>
<stop offset="0.5111" stop-color="white"/>
<stop stop-color="#6F6F6F"/>
</radialGradient>
<radialGradient id="paint16_radial_2585_154914" cx="0" cy="0" r="1" gradientUnits="userSpaceOnUse" gradientTransform="translate(89.6016 21.2186) scale(6.03087 3.88)">
<stop offset="1" stop-color="#6F6F6F"/>
<stop offset="0.5111" stop-color="white"/>
<stop stop-color="#6F6F6F"/>
</radialGradient>
<linearGradient id="paint17_linear_2585_154914" x1="-559.655" y1="-30.0989" x2="-559.655" y2="-30.1702" gradientUnits="userSpaceOnUse">
<stop offset="1" stop-color="white"/>
<stop stop-color="#636363"/>
</linearGradient>
<linearGradient id="paint18_linear_2585_154914" x1="-559.446" y1="-27.4761" x2="-559.446" y2="-27.4055" gradientUnits="userSpaceOnUse">
<stop offset="1" stop-color="white"/>
<stop stop-color="#636363"/>
</linearGradient>
<linearGradient id="paint19_linear_2585_154914" x1="-559.655" y1="-30.1423" x2="-559.655" y2="-30.071" gradientUnits="userSpaceOnUse">
<stop offset="1" stop-color="white"/>
<stop stop-color="#636363"/>
</linearGradient>
<linearGradient id="paint20_linear_2585_154914" x1="-559.446" y1="-27.4" x2="-559.446" y2="-27.4707" gradientUnits="userSpaceOnUse">
<stop offset="1" stop-color="white"/>
<stop stop-color="#636363"/>
</linearGradient>
<linearGradient id="paint21_linear_2585_154914" x1="98.8646" y1="28.4713" x2="98.8646" y2="28.4713" gradientUnits="userSpaceOnUse">
<stop offset="1" stop-color="#A5A5A5"/>
<stop/>
</linearGradient>
</defs>
</svg>
