<svg width="100" height="57" viewBox="0 0 100 57" fill="none" xmlns="http://www.w3.org/2000/svg">
<path d="M99.9609 33.5651H99.6094V34.5104C99.6094 34.6482 99.5117 34.7467 99.375 34.7467H97.9883V38.5475C97.9883 38.6459 97.9102 38.7444 97.793 38.7444H94.1406C94.0039 39.1186 93.6719 39.7291 93.2227 40.3592C92.7734 40.9697 92.3438 41.4621 92.0117 41.7181C91.6406 42.3089 91.3477 42.7421 91.1719 42.8603C91.1328 42.8997 91.0742 42.9194 91.0352 42.9391V45.0068C91.0742 45.0068 91.1328 45.0068 91.1719 45.0265C91.3086 45.0856 91.3672 45.2432 91.3086 45.381L90.625 46.9171C90.6055 46.9762 90.5469 47.0155 90.4883 47.0549V48.6698C90.4883 48.7682 90.4102 48.8667 90.293 48.8667H90.2539L90.2344 49.0046H90.2734C90.3711 49.0243 90.4492 49.1227 90.4297 49.2409L90.0586 51.2102C90.0391 51.3087 89.9414 51.3677 89.8438 51.3481C89.8242 51.3481 89.7852 51.3284 89.7656 51.3087L89.4141 52.9826L89.1016 53.2977H82.9102C82.9297 53.3174 82.9297 53.3371 82.9492 53.3371H86.9531V54.0657H86.9727C87.0703 54.0657 87.168 54.1642 87.168 54.302V56.7637C87.168 56.9015 87.0898 57 86.9727 57C86.8555 57 86.7773 56.9015 86.7773 56.7637V56.4289H82.8711V56.7637C82.8711 56.9015 82.793 57 82.6758 57C82.5586 57 82.4805 56.9015 82.4805 56.7637V54.302C82.4805 54.1839 82.5586 54.0657 82.6562 54.0657V53.8688C82.4805 53.8688 82.3242 53.7112 82.3242 53.534C82.3242 53.4355 82.3633 53.3568 82.4219 53.2977H80.5469L80.3125 53.0614V51.3481H80.2734C80.1758 51.3481 80.0781 51.2693 80.0781 51.1511V50.1665H64.9219C64.8438 50.1665 64.7852 49.9301 64.7266 49.5166H61.7969C60.9766 49.5166 60.4102 49.1621 60.0781 48.8864H51.6602C49.1992 48.8864 46.9336 48.0002 45.1758 46.5429L43.3594 46.4444C43.3203 46.9762 43.2422 47.3109 43.1836 47.3109H30.3516C30.2539 47.3109 30.1562 46.6808 30.1367 45.7946L29.6484 45.7749C29.3164 45.7552 29.0039 45.7355 28.6914 45.7158H6.97266C6.83594 45.834 6.64063 45.9127 6.42578 45.9127H0.722656C0.332031 45.9127 0 45.6567 0 45.3416V42.1316C0 41.8165 0.3125 41.5802 0.722656 41.5802H6.42578C6.64063 41.5802 6.85547 41.659 6.97266 41.7772H19.707C19.0234 41.0288 18.457 40.182 17.9883 39.2564H17.9102C17.7734 39.2564 17.6758 39.1383 17.6758 39.0201V38.6065C17.6562 38.5475 17.6367 38.5081 17.6172 38.449H15.7031L15.4883 37.5628H16.1133C15.9766 36.9917 15.957 35.7904 15.957 35.7904L16.3281 35.8101H16.7188C16.6992 35.7116 16.6797 35.6132 16.6602 35.5344H15.3516C15.0195 35.5344 14.7656 35.2784 14.7656 34.9436V34.3134H13.418L12.0312 34.7073L10.5664 36.1843H8.4375L7.87109 35.6132V20.7645L8.4375 20.1934H10.6055L12.0703 21.6704L13.457 22.0643H14.8047V21.4341C14.8047 21.0993 15.0586 20.8433 15.3906 20.8433H16.6797C16.6992 20.7448 16.7188 20.6463 16.7578 20.5479L16.1328 20.5676L15.7617 20.5873C15.7617 20.5873 15.7813 18.5786 16.0742 18.5392H16.0938C16.1523 18.4013 16.2109 18.3226 16.2695 18.3226C16.4453 18.3029 16.5234 18.3029 16.5625 18.3226L15.9961 17.7514L17.4805 16.2548L16.6016 15.3883C16.5234 15.3095 16.5234 15.1716 16.6016 15.0929C16.6406 15.0535 16.6797 15.0338 16.7188 15.0338C16.7188 14.9944 16.7383 14.9353 16.7773 14.9156L19.7266 11.942C19.7656 11.9026 19.8242 11.8829 19.8828 11.8829C19.8828 11.8238 19.9023 11.7647 19.9414 11.7253C20.0195 11.6466 20.1562 11.6466 20.2344 11.7253L21.0938 12.6115L22.3438 11.3512L23.1055 12.1192C24.8633 11.2724 27.0313 10.7604 29.707 10.6422L30.1953 10.6225C30.2344 9.75601 30.3125 9.12582 30.4102 9.12582H43.2422C43.3203 9.12582 43.3789 9.46061 43.418 9.97263L45.2539 9.87417C47.0117 8.41687 49.2773 7.55037 51.7187 7.55037H60.1367C60.4492 7.27467 61.0352 6.92019 61.8555 6.92019L64.7656 6.95957C64.8242 6.54602 64.8828 6.3097 64.9609 6.3097H80.8984C81.0547 6.3097 81.1914 7.57006 81.1914 9.14552C81.1914 10.721 81.0547 11.9813 80.8984 11.9813H80.5664C80.8203 12.3358 81.0547 12.71 81.25 13.1039H87.6758C88.5352 12.8281 89.8242 13.0448 90.625 13.3205V10.8194L90.1562 9.7757C90.0977 9.63785 90.1562 9.5 90.293 9.44092C90.4297 9.38184 90.5859 9.46061 90.6445 9.57877L91.3281 11.1148C91.3867 11.2527 91.3281 11.4102 91.1914 11.4693C91.1523 11.489 91.0938 11.489 91.0547 11.489V13.5174C91.1133 13.5371 91.1523 13.5765 91.1914 13.5962C91.3867 13.734 91.6797 14.187 92.0508 14.7778C92.3633 15.0338 92.8125 15.5261 93.2422 16.1169C93.6914 16.7471 94.0234 17.3379 94.1602 17.7318H97.8125C97.9102 17.7318 98.0078 17.8105 98.0078 17.9287V21.7295H99.3945C99.5117 21.7295 99.6289 21.8279 99.6289 21.9658V22.9111H99.9609C99.9805 22.9111 100 22.9308 100 22.9505V33.5257C100 33.5454 99.9805 33.5651 99.9609 33.5651Z" fill="black"/>
<path d="M100 33.5453V22.97C100 22.9503 99.9805 22.9306 99.9609 22.9306H99.6289V21.9854C99.6289 21.8475 99.5117 21.749 99.3945 21.749H98.0078V17.9483C98.0078 17.8301 97.9101 17.7513 97.8125 17.7513H93.9004C92.7793 16.0498 91.6523 13.9623 91.2109 13.6354C90.625 13.2022 87.9688 12.5523 87.1094 13.4976C86.25 14.4429 85.957 17.0621 84.7266 17.3575C84.0391 17.5229 83.0937 17.5465 82.3945 17.5347C82.3984 17.6588 82.4023 17.7828 82.4023 17.9089V38.567C82.4023 38.699 82.3984 38.829 82.3945 38.9609C83.1035 38.9511 84.0469 38.9747 84.7266 39.1381C85.957 39.4335 86.25 42.0527 87.1094 42.998C87.9688 43.9433 90.625 43.2934 91.2109 42.8602C91.6523 42.5332 92.7891 40.4458 93.9082 38.7443H97.8125C97.9297 38.7443 98.0078 38.6458 98.0078 38.5473V34.7859H99.3945C99.5312 34.7859 99.6289 34.6875 99.6289 34.5496V33.5847H99.9609C99.9805 33.5847 100 33.565 100 33.5453ZM41.4648 17.9089V38.567C41.4648 41.7829 42.9199 44.6542 45.1992 46.5507L29.668 45.7944C18.457 45.3415 15.957 37.6218 15.957 28.2281C15.957 24.8547 16.2793 21.6978 17.2109 19.0156L15.9766 17.771L22.3047 11.3707L23.0664 12.1427C24.8301 11.288 27.002 10.7701 29.668 10.6618L45.2656 9.88979C42.9492 11.7823 41.4648 14.6733 41.4648 17.9089Z" fill="#005295"/>
<path d="M15.8203 20.6069L17.9492 20.5478V19.6813H16.5625V18.3619C16.5625 18.3619 16.6211 18.2634 16.2305 18.3225C15.8398 18.3816 15.8203 20.6069 15.8203 20.6069ZM16.8164 36.7947V38.1141C16.8164 38.1141 16.875 38.2126 16.4844 38.1535C16.0938 38.0944 16.0742 35.8691 16.0742 35.8691L18.2031 35.9282V36.7947H16.8164ZM6.42578 45.952H0.722656C0.3125 45.952 0 45.696 0 45.3809V42.1906C0 41.8952 0.332031 41.6392 0.722656 41.6392H6.42578C6.83594 41.6392 7.14844 41.8755 7.14844 42.1906V45.4006C7.14844 45.696 6.81641 45.952 6.42578 45.952Z" fill="#1D1D1D"/>
<path d="M24.8242 15.0141C24.7461 15.0929 24.6289 15.0929 24.5508 15.0338L22.4727 12.9542L21.916 13.5155L22.6621 14.2737C22.7402 14.3327 22.7402 14.4509 22.6621 14.5297C22.584 14.6084 22.4863 14.6084 22.3887 14.5494L21.6367 13.7971L18.5859 16.8732L19.3535 17.655C19.4316 17.7141 19.4316 17.8322 19.3535 17.911C19.2754 17.9701 19.1582 17.9898 19.0801 17.9307L18.3047 17.1567L17.8105 17.655C17.791 17.6747 17.7715 17.6885 17.748 17.6983L19.8223 19.8212C19.9004 19.8803 19.9004 19.9985 19.8223 20.0772C19.7441 20.1363 19.627 20.1363 19.5684 20.0969L17.0488 17.5762C16.9707 17.4974 16.9707 17.3596 17.0488 17.2808C17.127 17.202 17.2637 17.202 17.3418 17.2808L17.498 17.4403C17.5078 17.4187 17.5195 17.397 17.5371 17.3793L18.0313 16.881L17.25 16.0992L16.5469 15.3962L16.3965 15.2504L19.998 11.5796L20.1602 11.7332L21.6426 13.2398L22.1973 12.6805L22.0313 12.5131C21.9531 12.4343 21.9531 12.2965 22.0313 12.2177C22.1094 12.1389 22.2461 12.1389 22.3242 12.2177L24.8242 14.7581C24.9023 14.8172 24.9023 14.9354 24.8242 15.0141ZM20.5781 12.7376L17.5391 15.8078L18.3145 16.5955L21.3633 13.5214L20.5801 12.7376H20.5781Z" fill="#222222"/>
<path d="M81.1914 9.14545C81.1914 7.56999 81.0547 6.30963 80.8984 6.30963H64.9609C64.8047 6.30963 64.668 7.56999 64.668 9.14545C64.668 10.7209 64.8047 11.9813 64.9609 11.9813H80.8984C81.0547 11.9813 81.1914 10.7209 81.1914 9.14545ZM43.2031 13.7143H30.3711C30.2539 13.7143 30.1367 12.6902 30.1367 11.4299C30.1367 10.1695 30.2344 9.14545 30.3711 9.14545H43.2031C43.3398 9.14545 43.4375 10.1695 43.4375 11.4299C43.4375 12.6902 43.3398 13.7143 43.2031 13.7143ZM43.2031 47.3503H30.3711C30.2539 47.3503 30.1367 46.3262 30.1367 45.0658C30.1367 43.8055 30.2344 42.7814 30.3711 42.7814H43.2031C43.3398 42.7814 43.4375 43.8055 43.4375 45.0658C43.4375 46.3262 43.3398 47.3503 43.2031 47.3503ZM64.9609 44.4947H80.8984C81.0547 44.4947 81.1914 45.7551 81.1914 47.3306C81.1914 48.906 81.0547 50.1664 80.8984 50.1664H64.9609C64.8047 50.1664 64.668 48.906 64.668 47.3306C64.668 45.7551 64.8047 44.4947 64.9609 44.4947Z" fill="url(#paint0_linear_6560_2433)"/>
<path d="M20.7031 35.5935H15.3711C15.0391 35.5935 14.7852 35.3375 14.7852 35.0027V34.3726H13.4395L12.041 34.7763L10.5859 36.2434H8.41797L7.85156 35.6723V20.8236L8.41797 20.2525H10.5859L12.041 21.7197L13.4395 22.1234H14.7852V21.4735C14.7852 21.1387 15.0391 20.8827 15.3711 20.8827H20.7031C21.0352 20.8827 21.2891 21.1387 21.2891 21.4735V35.0027C21.2891 35.3375 21.0352 35.5935 20.7031 35.5935Z" fill="#171717"/>
<path d="M16.3477 37.9172V35.8888L15.9766 35.8691C15.9766 35.8691 15.9961 37.8779 16.2695 37.8975C16.3086 37.9172 16.3281 37.9172 16.3477 37.9172ZM16.0352 18.5785C16.0742 18.5588 16.0938 18.5588 16.1133 18.5588V20.6069L15.7422 20.6266C15.7422 20.6266 15.7617 18.6179 16.0352 18.5785Z" fill="#FF8000"/>
<path d="M46.9728 10.1499L45.2346 10.5044C45.2346 10.5044 27.9103 10.9573 26.3283 11.686C24.7463 12.4146 24.9025 12.4737 24.9025 12.4737V19.839H18.1252C18.1252 19.839 16.9533 23.6988 17.1096 29.4492C17.2658 35.1997 18.4963 40.5956 23.1838 42.9982C27.8713 45.4007 34.3361 45.3023 33.8478 44.1404C33.7111 41.9544 33.633 42.2498 35.3713 42.7618C37.1096 43.2739 42.2267 43.845 46.9142 44.1404C51.6017 44.4358 51.1721 26.4559 51.1721 26.4559L50.8205 10.6422L46.9728 10.1499Z" fill="#111111"/>
<path d="M22.5195 40.3593H26.7188C27.4609 40.3593 28.0664 39.7488 28.0664 39.0004C28.0664 38.2521 27.4609 37.6416 26.7188 37.6416H22.5195C21.7773 37.6416 21.1719 38.2521 21.1719 39.0004C21.1719 39.7488 21.7773 40.3593 22.5195 40.3593Z" fill="#1D1D1D"/>
<path d="M88.457 17.909V13.1629H88.3594V13.1235H79.7461V13.1629H78.0273V17.909H88.457ZM44.7852 26.5937H29.0039C28.75 26.5937 28.5547 26.4164 28.5547 26.2195V14.187C28.5547 13.99 28.75 13.8128 29.0039 13.8128H44.7852C45.0391 13.8128 45.2344 13.9703 45.2344 14.187V26.2195C45.2344 26.4164 45.0391 26.5937 44.7852 26.5937ZM60.7227 45.7355H1.17188C0.527344 45.7355 0 45.2235 0 44.5539V42.9784C0 42.3482 0.527344 41.8165 1.17188 41.8165H60.7227C61.3672 41.8165 61.8945 42.3482 61.8945 42.9981V44.5539C61.8945 45.2038 61.3672 45.7355 60.7227 45.7355ZM79.0234 26.3968H82.0703C82.2461 26.3968 82.3828 26.5346 82.3828 26.7118V29.784C82.3828 29.9612 82.2461 30.0991 82.0703 30.0991H79.0234C78.8477 30.0991 78.7109 29.9612 78.7109 29.784V26.7118C78.7109 26.5346 78.8477 26.3968 79.0234 26.3968Z" fill="#222222"/>
<path d="M38.1445 37.0508H37.3633V39.1974H38.1445V37.0508ZM30.5273 39.1974H29.7461V37.0508H30.5273V39.1974ZM32.3828 35.5345H36.9141V37.6416H34.3359V39.1974H33.5547V37.6416H32.3828V37.2675H31.1719V35.948H32.3828V35.5345ZM30 28.7206H34.3359C35.0391 28.7206 35.6055 29.2917 35.6055 30.0007V32.7774C35.6055 33.4864 35.0391 34.0575 34.3359 34.0575H30C29.3164 34.0575 28.7305 33.4864 28.7305 32.7774V30.0007C28.7305 29.2917 29.2969 28.7206 30 28.7206ZM27.0117 23.8958H25.1562C25.0781 23.8958 25 23.817 25 23.7382V23.5413H24.3945C24.3359 23.5413 24.2773 23.4822 24.2773 23.4231V20.6661C24.2773 20.607 24.3359 20.5479 24.3945 20.5479H25V20.3707C25 20.2919 25.0586 20.2131 25.1562 20.2131H27.0117C27.0898 20.2131 27.168 20.2722 27.168 20.3707V23.7382C27.168 23.817 27.1094 23.8958 27.0117 23.8958ZM28.5742 28.3661L27.7734 27.5587V25.2546L28.9453 24.073L44.1016 22.5566L44.2187 28.3661H28.5742Z" fill="#080808"/>
<path d="M31.8945 29.0947C31.25 29.0947 30.7422 29.6067 30.7422 30.2566V32.5804C30.7422 33.2303 31.25 33.7423 31.8945 33.7423H33.3203C32.6758 33.7423 32.168 33.2303 32.168 32.5804V30.2566C32.168 29.6067 32.6758 29.0947 33.3203 29.0947H31.8945ZM35.4492 33.7226H33.5352C32.8906 33.7226 32.3828 33.2106 32.3828 32.5607V30.2369C32.3828 29.587 32.8906 29.075 33.5352 29.075H35.4492C34.8047 29.075 34.2969 29.587 34.2969 30.2369V32.5607C34.2969 33.2106 34.8047 33.7226 35.4492 33.7226ZM31.6406 33.7423H30.2148C29.5703 33.7423 29.0625 33.2303 29.0625 32.5804V30.2566C29.082 29.6067 29.5898 29.0947 30.2148 29.0947H31.6406C30.9961 29.0947 30.4883 29.6067 30.4883 30.2566V32.5804C30.4883 33.2303 30.9961 33.7423 31.6406 33.7423ZM16.875 23.9154C16.8359 24.0139 16.7383 24.073 16.6406 24.0533C16.5234 24.0139 16.4648 23.9154 16.5039 23.8169L17.5 19.4254C17.5391 19.3269 17.6367 19.2678 17.7344 19.2875C17.832 19.3072 17.8906 19.4254 17.8711 19.5238L16.875 23.9154ZM17.7344 36.6766C17.6367 36.6963 17.5391 36.6372 17.5 36.5387L16.5039 32.1472C16.4648 32.0487 16.5234 31.9502 16.6406 31.9108C16.7383 31.8911 16.8359 31.9502 16.875 32.0487L17.8711 36.4403C17.8906 36.5387 17.832 36.6569 17.7344 36.6766ZM29.1211 36.007V34.9436C29.1211 34.6876 29.3164 34.4907 29.5703 34.4907H33.457C33.7109 34.4907 33.9063 34.6876 33.9063 34.9436V36.007C33.9063 36.263 33.7109 36.46 33.457 36.46H29.5703C29.3164 36.46 29.1211 36.263 29.1211 36.007ZM16.7969 24.5653V31.3791C16.7969 31.4973 16.6992 31.5761 16.6016 31.5761C16.4844 31.5761 16.4062 31.4973 16.4062 31.3791V24.5653C16.4062 24.4471 16.5039 24.3683 16.6016 24.3683C16.7188 24.3683 16.7969 24.4668 16.7969 24.5653ZM29.2578 37.1492V39.0792C29.2578 39.1973 29.1602 39.3155 29.0234 39.3155H17.9297C17.793 39.3155 17.6953 39.217 17.6953 39.0792V37.1492C17.6953 37.0311 17.793 36.9129 17.9297 36.9129H29.0234C29.1406 36.9129 29.2578 37.0114 29.2578 37.1492ZM80.3125 51.348C80.1953 51.348 80.1172 51.2693 80.1172 51.1511V49.1621C80.1172 49.0439 80.2148 48.9652 80.3125 48.9652C80.4297 48.9652 80.5078 49.0636 80.5078 49.1621V51.1511C80.5078 51.2693 80.4102 51.348 80.3125 51.348ZM90.4297 49.2409L90.0586 51.2102C90.0391 51.3086 89.9414 51.3677 89.8438 51.348C89.7461 51.3283 89.6875 51.2299 89.6875 51.1314L90.0391 49.1621C90.0586 49.0636 90.1758 48.9848 90.2734 49.0045C90.3906 49.0242 90.4492 49.1227 90.4297 49.2409ZM90.3125 46.3657C90.2148 46.3657 90.1172 46.2672 90.1172 46.1687V42.8996C90.1172 42.7815 90.2148 42.7027 90.3125 42.7027C90.4297 42.7027 90.5078 42.8012 90.5078 42.8996V46.1687C90.5078 46.2869 90.4102 46.3657 90.3125 46.3657ZM90.3125 48.847C90.2148 48.847 90.1172 48.7682 90.1172 48.6698V46.6611C90.1172 46.5429 90.2148 46.4641 90.3125 46.4641C90.4297 46.4641 90.5078 46.5626 90.5078 46.6611V48.6501C90.5078 48.7682 90.4102 48.847 90.3125 48.847ZM80.3125 46.3657C80.1953 46.3657 80.1172 46.2672 80.1172 46.1687V42.8996C80.1172 42.7815 80.2148 42.7027 80.3125 42.7027C80.4297 42.7027 80.5078 42.8012 80.5078 42.8996V46.1687C80.5078 46.2869 80.4102 46.3657 80.3125 46.3657ZM80.3125 48.847C80.1953 48.847 80.1172 48.7682 80.1172 48.6698V46.6611C80.1172 46.5429 80.2148 46.4641 80.3125 46.4641C80.4297 46.4641 80.5078 46.5626 80.5078 46.6611V48.6501C80.5078 48.7682 80.4102 48.847 80.3125 48.847ZM29.1211 14.3642H41.1523V17.0228H29.1211V14.3642ZM29.5117 11.3905L24.5117 12.3752C24.4141 12.3949 24.3164 12.3358 24.2969 12.2176C24.2773 12.0995 24.3555 12.001 24.4531 11.9813L29.4531 10.9967C29.5508 10.977 29.6484 11.0557 29.668 11.1542C29.6875 11.2724 29.6094 11.3708 29.5117 11.3905Z" fill="#222222"/>
<path d="M29.7266 21.8752V23.8366C29.7266 23.9745 29.6094 24.0927 29.4727 24.0927H26.543C26.4062 24.0927 26.2891 23.9745 26.2891 23.8366V20.2722C26.2891 20.1343 26.4062 20.0162 26.543 20.0162H26.8555V16.688C26.8555 16.688 26.6602 15.4473 27.9102 15.3883C29.1406 15.3489 30 15.3489 30 15.3489L30.2344 21.9264L29.7266 21.8752Z" fill="#171717"/>
<path d="M30.7617 13.9703H42.6758C42.8125 13.9703 42.9297 13.8719 42.9297 13.734V11.2724C42.9297 11.1345 42.8125 11.0361 42.6758 11.0361H30.7617C30.625 11.0361 30.5078 11.1345 30.5078 11.2724V13.734C30.5078 13.8719 30.625 13.9703 30.7617 13.9703Z" fill="url(#paint1_linear_6560_2433)"/>
<path d="M29.9805 14.0294H44.0625V13.222H29.9805V14.0294Z" fill="#080808"/>
<path d="M34.707 36.6963H42.9297C43.2422 36.6963 43.4961 36.4403 43.4961 36.1252V27.4602C43.4961 27.1451 43.2422 26.8891 42.9297 26.8891H34.707C34.3945 26.8891 34.1406 27.1451 34.1406 27.4602V36.1252C34.1406 36.4403 34.3945 36.6963 34.707 36.6963Z" fill="#292929"/>
<path d="M15.7227 38.5279H30.293C32.5977 38.5279 36.7383 39.2959 38.9648 39.2959H47.6172V38.4097H39.1211C36.1523 38.4097 32.6953 37.6417 30.2344 37.6417H15.5273L15.7227 38.5279Z" fill="#1D1D1D"/>
<path opacity="0.1" d="M91.7969 38.7444C91.6992 38.7444 91.6016 38.6656 91.6016 38.5475V17.9484C91.6016 17.8499 91.6797 17.7514 91.7969 17.7514H97.8125C97.9102 17.7514 98.0078 17.8302 98.0078 17.9484V21.7492H99.3945C99.5117 21.7492 99.6289 21.8476 99.6289 21.9855V34.5497C99.6289 34.6876 99.5313 34.7861 99.3945 34.7861H98.0078V38.5475C98.0078 38.6459 97.9297 38.7444 97.8125 38.7444H91.7969Z" fill="url(#paint2_linear_6560_2433)"/>
<path d="M92.578 39.8669C91.8748 40.8319 91.4452 41.7378 91.6405 41.8756C91.8163 42.0135 92.5389 41.3242 93.242 40.3592C93.8866 39.4731 94.2967 38.6656 94.2186 38.4096C94.4725 38.4096 95.117 37.7597 95.7616 36.8736C96.4647 35.9086 96.8944 35.0027 96.6991 34.8648C96.5233 34.727 95.8006 35.4163 95.0975 36.3812C94.453 37.2674 94.0428 38.0748 94.1209 38.3308C93.867 38.3308 93.2225 38.9807 92.578 39.8669ZM95.0975 20.1146C94.453 19.2284 94.0428 18.421 94.1209 18.165C93.867 18.165 93.2225 17.5151 92.578 16.6289C91.8748 15.664 91.4452 14.7581 91.6405 14.6202C91.8163 14.4824 92.5389 15.1716 93.242 16.1366C93.8866 17.0228 94.2967 17.8302 94.2186 18.0862C94.4725 18.0862 95.117 18.7361 95.7616 19.6223C96.4647 20.5873 96.8944 21.4932 96.6991 21.631C96.5233 21.7689 95.8006 21.0796 95.0975 20.1146Z" fill="white"/>
<path d="M88.5742 41.7377C88.5742 42.2103 88.9453 42.5845 89.4141 42.5845C89.8828 42.5845 90.2539 42.2103 90.2539 41.7377C90.2539 41.265 89.8828 40.8909 89.4141 40.8909C88.9453 40.9105 88.5742 41.2847 88.5742 41.7377ZM89.4141 15.5851C88.9453 15.5851 88.5742 15.2109 88.5742 14.7383C88.5742 14.2656 88.9453 13.8915 89.4141 13.8915C89.8828 13.8915 90.2539 14.2656 90.2539 14.7383C90.2539 15.2109 89.8828 15.5851 89.4141 15.5851Z" fill="#FF8000"/>
<path opacity="0.1" d="M88.457 41.7378C88.457 42.2695 88.8867 42.7028 89.4141 42.7028C89.9414 42.7028 90.3711 42.2695 90.3711 41.7378C90.3711 41.2061 89.9414 40.7728 89.4141 40.7728C88.8867 40.7925 88.457 41.2061 88.457 41.7378ZM89.4141 15.7034C88.8867 15.7034 88.457 15.2701 88.457 14.7384C88.457 14.2067 88.8867 13.7931 89.4141 13.7734C89.9414 13.7734 90.3711 14.2067 90.3711 14.7384C90.3711 15.2701 89.9414 15.7034 89.4141 15.7034Z" fill="black"/>
<path opacity="0.4" d="M88.6914 41.7378C88.6914 42.1316 89.0039 42.4664 89.4141 42.4664C89.8242 42.4664 90.1367 42.1513 90.1367 41.7378C90.1367 41.3242 89.8242 41.0091 89.4141 41.0091C89.0039 41.0288 88.6914 41.3439 88.6914 41.7378ZM89.4141 15.4671C89.0039 15.4671 88.6914 15.1323 88.6914 14.7384C88.6914 14.3445 89.0039 14.0294 89.4141 14.0098C89.8242 14.0098 90.1367 14.3248 90.1367 14.7384C90.1367 15.152 89.8242 15.4671 89.4141 15.4671Z" fill="#FFBF00"/>
<path d="M91.3281 11.1148L90.6445 9.57878C90.5859 9.44093 90.4297 9.38184 90.293 9.44093C90.1562 9.5 90.0977 9.63786 90.1563 9.77571L90.625 10.8451C90.625 10.8451 90.625 10.8549 90.625 10.8588V14.0097C90.625 14.2264 90.7227 14.443 90.8398 14.443C90.957 14.443 91.0547 14.2461 91.0547 13.9901V11.487C91.0996 11.491 91.1465 11.489 91.1914 11.4693C91.3281 11.4102 91.3867 11.2527 91.3281 11.1148ZM90.625 45.6528V42.5058C90.625 42.2695 90.7227 42.0529 90.8398 42.0529C90.957 42.0529 91.0547 42.2498 91.0547 42.5058V45.0088C91.0996 45.0049 91.1465 45.0068 91.1914 45.0265C91.3281 45.0856 91.3867 45.2432 91.3281 45.381L90.6445 46.9171C90.5859 47.0549 90.4297 47.114 90.293 47.0549C90.1562 46.9959 90.0977 46.858 90.1563 46.7201L90.625 45.6528ZM86.9922 57C86.8945 57 86.8164 56.8818 86.7969 56.7637V54.302C86.7969 54.1642 86.8945 54.0657 86.9922 54.0657C87.1094 54.0657 87.1875 54.1642 87.1875 54.302V56.7637C87.1875 56.9015 87.0898 57 86.9922 57ZM82.7148 57C82.6172 57 82.5195 56.8818 82.5195 56.7637V54.302C82.5195 54.1642 82.6172 54.0657 82.7148 54.0657C82.832 54.0657 82.9102 54.1642 82.9102 54.302V56.7637C82.9102 56.9015 82.8125 57 82.7148 57Z" fill="#292929"/>
<path d="M17.8516 18.9724L23.9453 12.8281V13.2614L18.3203 18.933L17.8516 18.9724Z" fill="black"/>
<path d="M72.1094 47.941H51.7969C46.6192 47.941 42.4219 43.7089 42.4219 38.4883V18.0074C42.4219 12.7868 46.6192 8.55464 51.7969 8.55464H72.1094C77.287 8.55464 81.4844 12.7868 81.4844 18.0074V38.4883C81.4844 43.7089 77.287 47.941 72.1094 47.941Z" fill="#111111"/>
<path d="M72.168 48.9061H60.1172C60.4414 49.1759 61.0137 49.5244 61.8359 49.5363H72.0703C73.0195 49.5363 74.5547 48.973 75.1367 48.4649C74.1973 48.7505 73.2012 48.9061 72.168 48.9061ZM72.168 7.58974H60.1172C60.4414 7.31994 61.0137 6.97137 61.8359 6.95955H72.0703C73.0195 6.95955 74.5547 7.52278 75.1367 8.03284C74.1973 7.74532 73.2012 7.58974 72.168 7.58974Z" fill="#111111"/>
<path d="M75.1367 48.465C74.1973 48.7506 73.2012 48.9061 72.168 48.9061H51.6992C46.0547 48.9061 41.4648 44.2782 41.4648 38.5672V17.909C41.4648 12.2177 46.0547 7.58979 51.6992 7.58979H72.168C73.1992 7.58979 74.1973 7.74537 75.1367 8.03289C79.3379 9.31492 82.4023 13.2437 82.4023 17.909V38.5672C82.4023 43.2365 79.3457 47.181 75.1367 48.465ZM66.7773 47.9412V42.0135H56.9531V47.9412H66.7773ZM42.4219 38.4884C42.4219 43.7071 46.6211 47.9412 51.7969 47.9412H56.8164V42.0135H49.668C48.9062 42.0135 48.3008 41.3833 48.3008 40.635V33.4076H42.4219V38.4884ZM42.4219 33.2697H48.3008V23.364H42.4219V33.2697ZM51.7969 8.55476C46.6211 8.55476 42.4219 12.7888 42.4219 18.0075V23.2262H48.3008V15.8609C48.3008 15.0929 48.9062 14.4824 49.668 14.4824H56.8164V8.55476H51.7969ZM56.9531 8.55476V14.4824H66.7773V8.55476H56.9531ZM81.4844 18.0075C81.4844 12.7888 77.2852 8.55476 72.1094 8.55476H66.9141V14.4824H74.2187C74.9805 14.4824 75.5859 15.0929 75.5859 15.8609V23.2262H81.4648V23.364H75.5859V33.2697H81.4648V33.4076H75.5859V40.635C75.5859 41.403 74.9805 42.0135 74.2187 42.0135H66.9141V47.9412H72.1094C77.2852 47.9412 81.4844 43.7071 81.4844 38.4884V18.0075Z" fill="#333333"/>
<path d="M49.6289 41.462H74.2578C74.6875 41.462 75.0391 41.1076 75.0391 40.6743V15.8412C75.0391 15.4079 74.6875 15.0535 74.2578 15.0535H49.6289C49.1992 15.0535 48.8477 15.4079 48.8477 15.8412V40.6546C48.8477 41.1076 49.1992 41.462 49.6289 41.462Z" fill="#111111"/>
<path opacity="0.05" d="M48.8477 39.7095V15.8413C48.8477 15.4081 49.1992 15.0536 49.6289 15.0536H56.7383V39.7095H48.8477Z" fill="white"/>
<path opacity="0.05" d="M66.543 39.7095H64.6484V15.0339H66.5234V39.7095H66.543Z" fill="black"/>
<path opacity="0.05" d="M66.543 39.7095V15.0339H69.8047V39.7095H66.543Z" fill="white"/>
<path opacity="0.05" d="M56.7578 39.7095H64.6484V15.0339H56.7578V39.7095ZM69.2578 39.7095V15.0339H73.7109C74.1406 15.0339 74.4922 15.3884 74.4922 15.8216V39.7095H69.2578Z" fill="#DDDDDD"/>
<path d="M89.375 53.2899L89.0625 53.605H86.9336V56.7362H82.6562V53.605H80.5469L80.3125 53.3687V44.8789C80.3125 44.8789 81.2246 43.7269 81.8223 42.116C82.3613 40.4558 82.3711 39.7646 82.4219 38.6834C83.4121 38.6894 84.4551 38.7307 85 38.8627C86.2305 39.1581 86.5234 41.7773 87.3828 42.7225C87.9336 43.3291 89.2246 43.2779 90.2344 43.0494V49.113L89.375 53.2879V53.2899Z" fill="url(#paint3_linear_6560_2433)"/>
<path d="M63.2227 25.4319C63.2227 26.8498 62.0898 27.9723 60.7031 27.9723C59.3164 27.9723 58.1836 26.8301 58.1836 25.4319V20.1147H56.7578V15.0142H64.6484V20.1147H63.2227V25.4319Z" fill="url(#paint4_linear_6560_2433)"/>
<path d="M42.4219 33.2696H48.3008V33.1318H42.4219V33.2696ZM42.4219 23.0882H48.3008V23.2261H42.4219V23.0882ZM75.5859 33.2696V33.1318H81.4648V33.2696H75.5859ZM75.5859 23.0882H81.4648V23.2261H75.5859V23.0882ZM56.9727 8.55464H57.1094V14.4823H56.9727V8.55464ZM66.9141 8.55464H67.0508V14.4823H66.9141V8.55464ZM56.9727 42.0134H57.1094V47.941H56.9727V42.0134ZM66.9141 42.0134H67.0508V47.941H66.9141V42.0134Z" fill="black"/>
<path opacity="0.64" d="M73.5352 47.823L74.8242 41.8559C75.1562 41.6984 75.4102 41.3833 75.5273 41.0288L81.3867 39.7487C80.8203 43.904 77.6172 47.1928 73.5352 47.823ZM81.3867 16.7471L75.5273 15.467C75.4102 15.0929 75.1367 14.7778 74.8047 14.6202L73.5156 8.67288C77.6172 9.28337 80.8398 12.5918 81.3867 16.7471ZM42.5 39.7684L48.3594 41.0485C48.4766 41.403 48.7305 41.6984 49.043 41.8756L50.332 47.8427C46.25 47.1928 43.0469 43.904 42.5 39.7684ZM50.3516 8.65318L49.0625 14.6202C48.7305 14.7975 48.457 15.0929 48.3594 15.467L42.5 16.7471C43.0469 12.5918 46.2695 9.30306 50.3516 8.65318Z" fill="#1B1B1B"/>
<defs>
<linearGradient id="paint0_linear_6560_2433" x1="55.6641" y1="6.47111" x2="55.6641" y2="50.3279" gradientUnits="userSpaceOnUse">
<stop stop-color="#1C1C1C"/>
<stop offset="0.47" stop-color="#292929"/>
<stop offset="1" stop-color="#1C1C1C"/>
</linearGradient>
<linearGradient id="paint1_linear_6560_2433" x1="35.2687" y1="12.5293" x2="47.8207" y2="12.5293" gradientUnits="userSpaceOnUse">
<stop/>
<stop offset="0.48" stop-color="#1D1D1D"/>
<stop offset="1"/>
</linearGradient>
<linearGradient id="paint2_linear_6560_2433" x1="103.285" y1="28.2262" x2="93.3357" y2="28.2262" gradientUnits="userSpaceOnUse">
<stop stop-opacity="0"/>
<stop offset="1"/>
</linearGradient>
<linearGradient id="paint3_linear_6560_2433" x1="85.2734" y1="56.7362" x2="85.2734" y2="38.6834" gradientUnits="userSpaceOnUse">
<stop/>
<stop offset="1" stop-color="#101010"/>
</linearGradient>
<linearGradient id="paint4_linear_6560_2433" x1="60.7031" y1="27.9723" x2="60.7031" y2="15.0142" gradientUnits="userSpaceOnUse">
<stop/>
<stop offset="1" stop-color="#101010"/>
</linearGradient>
</defs>
</svg>
