<svg width="100" height="43" viewBox="0 0 100 43" fill="none" xmlns="http://www.w3.org/2000/svg">
<g clip-path="url(#clip0_6560_1971)">
<path d="M0.914717 11.2465C1.28006 9.76803 2.56148 7.55164 3.29353 6.62792C4.02557 5.70419 4.94029 4.50239 6.40438 4.13345C7.86848 3.76451 10.2473 3.11749 15.5529 2.19376C20.8599 1.27004 27.447 1.36227 31.0145 1.7202C34.582 2.07813 36.1375 1.7202 40.3471 1.7202C44.5567 1.7202 65.5066 2.10153 65.5066 2.10153C65.5066 2.10153 71.3616 2.10153 75.4785 1.82482C79.5954 1.54812 85.7258 1.82483 89.0193 2.65631C92.3128 3.4878 96.9791 8.1078 96.9791 8.1078C96.9791 8.1078 97.6198 8.29227 98.5345 10.0475C100.09 14.0205 99.9986 21.0303 99.9986 21.0303V21.9774C99.9986 21.9774 100.09 28.9873 98.5345 32.9603C97.6198 34.7155 96.9791 34.8999 96.9791 34.8999C96.9791 34.8999 92.3128 39.5199 89.0193 40.3514C85.7258 41.1829 79.5954 41.4596 75.4785 41.1829C71.3616 40.9062 65.5066 40.9062 65.5066 40.9062C65.5066 40.9062 44.5553 41.2876 40.3471 41.2876C36.1388 41.2876 34.5834 40.9296 31.0145 41.2876C27.447 41.6455 20.8585 41.7377 15.5529 40.814C10.2459 39.8903 7.86711 39.2432 6.40438 38.8743C4.94029 38.5054 4.02557 37.3036 3.29353 36.3798C2.56148 35.4561 1.28006 33.2397 0.914717 31.7612C0.549376 30.2827 0 24.9207 0 21.5025C0 18.0843 0.549376 12.725 0.914717 11.2465Z" fill="#231F20"/>
<path d="M0.914717 11.2465C1.28006 9.76796 2.56148 7.55157 3.29353 6.62785C4.02557 5.70412 4.94029 4.50232 6.40438 4.13338C7.86848 3.76444 10.2473 3.11742 15.5529 2.19369C20.8599 1.26997 27.447 1.36221 31.0145 1.72013C34.582 2.07806 36.1375 1.72013 40.3471 1.72013C42.7327 1.72013 50.5003 1.84265 56.7793 1.94865L55.6192 0.0598984C55.6192 0.0598984 56.9456 -0.449455 59.1281 1.98857C62.7951 2.0519 65.5066 2.10146 65.5066 2.10146C65.5066 2.10146 71.3616 2.10146 75.4785 1.82475C79.5954 1.54805 85.7258 1.82475 89.0193 2.65624C92.3128 3.48773 96.9791 8.10773 96.9791 8.10773C96.9791 8.10773 97.6198 8.2922 98.5345 10.0474C100.09 14.0204 99.9986 21.0302 99.9986 21.0302V21.9774C99.9986 21.9774 100.09 28.9872 98.5345 32.9602C97.6198 34.7154 96.9791 34.8999 96.9791 34.8999C96.9791 34.8999 92.3128 39.5199 89.0193 40.3514C85.7258 41.1829 79.5954 41.4596 75.4785 41.1829C71.3616 40.9062 65.5066 40.9062 65.5066 40.9062C65.5066 40.9062 62.7992 40.9557 59.1363 41.019C56.9497 43.4653 55.6205 42.956 55.6205 42.956L56.7874 41.0576C50.5057 41.1636 42.7354 41.2861 40.3484 41.2861C36.1402 41.2861 34.5848 40.9282 31.0159 41.2861C27.4483 41.644 20.8599 41.7363 15.5543 40.8125C10.2473 39.8888 7.86848 39.2418 6.40575 38.8729C4.94165 38.5039 4.02694 37.3021 3.29489 36.3784C2.56284 35.4547 1.28142 33.2383 0.91608 31.7598C0.550739 30.2813 0 24.9206 0 21.5024C0 18.0842 0.549376 12.725 0.914717 11.2465ZM75.957 31.6221C76.0647 31.7364 76.2528 31.7309 76.55 31.7116C76.6767 31.7033 77.8627 31.6001 79.3636 31.4693C81.6334 31.2711 84.4566 31.0246 84.9283 30.9957C85.1982 30.9792 85.4967 30.92 85.6385 30.8567C85.9193 30.73 85.997 30.5841 86.0843 30.3749C86.1893 30.1243 86.2915 29.67 86.3297 29.4856C86.3692 29.2997 86.3542 29.1676 86.282 29.0836C86.207 28.9955 86.0911 28.9762 85.9657 28.9762C85.9193 28.9762 85.873 28.979 85.8266 28.9817C85.783 28.9845 85.738 28.9858 85.6971 28.9858C85.5526 28.9858 83.4887 29.0588 81.3049 29.1373C79.0624 29.2171 76.7435 29.2997 76.58 29.2997C76.1874 29.2997 76.1478 29.5448 76.1206 29.7058L76.1083 29.776C76.0606 30.0651 75.9133 30.942 75.882 31.2477C75.8629 31.4308 75.8861 31.5464 75.9583 31.6221H75.957ZM75.8806 11.6732C75.912 11.9788 76.0592 12.8558 76.1069 13.1449L76.1192 13.2151C76.1465 13.3775 76.186 13.6212 76.5786 13.6212C76.7422 13.6212 79.061 13.7038 81.3035 13.7836C83.4887 13.8607 85.5526 13.935 85.6958 13.935C85.738 13.935 85.7817 13.9378 85.8253 13.9392C85.8716 13.9419 85.9193 13.9447 85.9643 13.9447C86.0897 13.9447 86.2056 13.9254 86.2806 13.8373C86.3528 13.752 86.3678 13.6212 86.3283 13.4353C86.2888 13.2522 86.1865 12.7966 86.0829 12.546C85.9957 12.3368 85.918 12.1895 85.6372 12.0642C85.4954 12.0009 85.1968 11.9417 84.9269 11.9252C84.4552 11.8962 81.632 11.6498 79.3623 11.4516C77.8614 11.3208 76.6754 11.2176 76.5486 11.2093C76.2501 11.1914 76.0633 11.1859 75.9556 11.2988C75.8834 11.3745 75.8602 11.4901 75.8793 11.6732H75.8806Z" fill="#FFE600"/>
<path d="M53.8022 8.39256C53.5064 8.45864 53.3074 8.7381 53.3415 9.04234C53.5146 10.5993 53.9903 15.3625 53.9903 20.5593C53.9903 25.7561 53.4846 32.2373 53.3265 34.0848C53.3006 34.3876 53.5023 34.6616 53.7968 34.7222C54.8314 34.9369 57.2539 35.4518 59.5427 36.0424C61.9747 36.6701 64.7407 37.3047 65.7194 37.5264C65.9594 37.5814 66.2088 37.4809 66.3438 37.2717C67.0172 36.2282 68.7799 32.386 68.7799 20.7534C68.7799 9.1208 67.1317 6.48592 66.4447 5.7797C66.3015 5.6324 66.0902 5.57183 65.8912 5.61863L59.4146 7.13569L53.8022 8.39256Z" fill="url(#paint0_linear_6560_1971)"/>
<path d="M68.6735 33.5851C69.0347 33.5699 69.062 33.3001 69.0538 33.1088C69.0456 32.9174 68.3436 25.4918 68.3436 25.4918C68.3436 25.4918 68.0246 24.6603 68.0191 24.5447L67.9768 23.5095L67.8882 23.2052L67.8814 20.6887L67.7042 18.6596L67.5338 18.6664C67.5338 18.6664 67.617 22.2017 67.5161 23.8729C67.4275 25.3376 67.0703 28.7517 67.0703 28.7517L67.2039 28.7462L67.617 26.9869L67.8133 24.8021L67.6838 24.1923L68.0954 25.5593L68.165 26.4761L68.3081 31.6137L68.3231 31.9648L68.7593 31.9469L68.3095 32.119L68.3545 33.212C68.3695 33.5961 68.6735 33.5823 68.6735 33.5823V33.5851Z" fill="#231F20"/>
<path d="M69.5214 21.4362C69.869 21.3385 69.8335 21.0686 69.7831 20.8842C69.7327 20.6997 67.3607 13.6362 67.3607 13.6362C67.3607 13.6362 66.8604 12.901 66.8304 12.7895L66.5536 11.7915L66.3982 11.5161L65.8189 9.06847L65.185 7.13429L65.02 7.1811C65.02 7.1811 65.9047 10.602 66.1856 12.2526C66.4323 13.6995 66.8604 17.1039 66.8604 17.1039L66.9885 17.0681V15.2606L66.6859 13.0883L66.4214 12.5252L67.133 13.7601L67.4084 14.637L68.7157 19.6039L68.8111 19.9425L69.2324 19.8241L68.8343 20.0953C68.8343 20.0953 69.0088 20.7245 69.126 21.1485C69.2283 21.5188 69.5214 21.4348 69.5214 21.4348V21.4362Z" fill="#231F20"/>
<path d="M57.6817 4.49253C57.6817 4.49253 38.564 3.71473 37.2172 4.49253C35.8703 5.27033 35.614 6.24223 35.614 6.69515C35.614 7.14806 36.1266 7.64365 38.6294 7.81711C41.1323 7.99056 46.8415 8.16127 50.3054 7.81711C53.7693 7.47295 56.7207 6.43634 56.7207 6.43634L57.6831 4.49253H57.6817Z" fill="url(#paint1_linear_6560_1971)"/>
<path d="M57.6817 38.5479C57.6817 38.5479 38.564 39.3257 37.2172 38.5479C35.8703 37.7701 35.614 36.7982 35.614 36.3452C35.614 35.8923 36.1266 35.3967 38.6294 35.2233C41.1309 35.0498 46.8415 34.8791 50.3054 35.2233C53.7693 35.5674 56.7207 36.6041 56.7207 36.6041L57.6831 38.5479H57.6817Z" fill="url(#paint2_linear_6560_1971)"/>
<path d="M14.1066 7.74146L31.1468 8.70923C31.1468 8.70923 30.4325 14.8256 30.4325 21.2284C30.4325 27.6311 31.1468 34.4359 31.1468 34.4359L14.1066 35.5496C14.1066 35.5496 12.449 29.1482 12.449 21.2284C12.449 13.3086 14.1066 7.74146 14.1066 7.74146Z" fill="url(#paint3_linear_6560_1971)"/>
<path d="M32.0055 6.61535C32.0055 6.61535 31.7588 7.21969 30.9491 7.1839C30.1393 7.1481 24.0062 6.848 23.4077 6.848C22.8093 6.848 22.5871 6.75852 22.658 6.40334C22.7289 6.04817 23.1297 5.86921 24.0103 5.76183C24.8909 5.65445 26.3714 5.44107 28.3085 5.3337C30.2456 5.22632 31.9715 5.15611 32.3232 5.15611C32.6749 5.15611 32.7458 5.31718 32.6408 5.55671C32.5358 5.79625 32.0069 6.61397 32.0069 6.61397L32.0055 6.61535Z" fill="url(#paint4_linear_6560_1971)"/>
<path d="M32.0055 36.5146C32.0055 36.5146 31.7588 35.9103 30.9491 35.9461C30.1393 35.9819 24.0062 36.282 23.4077 36.282C22.8093 36.282 22.5871 36.3715 22.658 36.7266C22.7289 37.0818 23.1297 37.2608 24.0103 37.3682C24.8909 37.4755 26.3714 37.6889 28.3085 37.7963C30.2456 37.9037 31.9715 37.9739 32.3232 37.9739C32.6749 37.9739 32.7458 37.8128 32.6408 37.5733C32.5358 37.3337 32.0069 36.516 32.0069 36.516L32.0055 36.5146Z" fill="url(#paint5_linear_6560_1971)"/>
<path opacity="0.3" d="M36.7005 1.80397C36.7005 1.80397 36.7686 3.39123 37.2171 4.49254C37.2171 4.49254 30.1557 4.64673 22.6444 5.69573C15.1331 6.74335 14.5278 6.20784 14.1066 7.81713C12.1953 7.91624 8.46285 8.11035 8.46285 8.11035C8.46285 8.11035 8.77502 7.09439 9.06675 6.37992C9.18126 6.10183 8.75594 5.70812 7.24277 6.07981C7.15961 5.86781 7.24277 5.68472 7.24277 5.55669C9.59977 5.15609 15.662 4.27091 20.2819 4.14563C24.9019 4.02036 30.4815 4.06992 34.7156 3.72989L36.7005 3.53578V1.80259V1.80397Z" fill="url(#paint6_linear_6560_1971)"/>
<path opacity="0.3" d="M36.7005 41.5105C36.7005 41.5105 36.7686 39.9232 37.2171 38.8219C37.2171 38.8219 30.1557 38.6677 22.6444 37.6187C15.1331 36.5711 14.5278 37.1066 14.1066 35.4973C12.1953 35.3982 8.46285 35.2041 8.46285 35.2041C8.46285 35.2041 8.77502 36.22 9.06675 36.9345C9.18126 37.2126 8.75594 37.6063 7.24277 37.2346C7.15961 37.4466 7.24277 37.6297 7.24277 37.7577C9.59977 38.1583 15.662 39.0435 20.2819 39.1688C24.9005 39.2927 30.4815 39.2445 34.7156 39.5845L36.7005 39.7787V41.5118V41.5105Z" fill="url(#paint7_linear_6560_1971)"/>
<path opacity="0.3" d="M58.2843 4.39621L55.6206 0.059792C55.6206 0.059792 57.0329 -0.482604 59.3381 2.228C59.7948 2.81032 59.9938 3.03884 60.1928 3.42705C60.3919 3.81527 60.2133 4.21587 59.6557 4.27644C59.0982 4.33701 58.2843 4.39758 58.2843 4.39758V4.39621Z" fill="url(#paint8_linear_6560_1971)"/>
<path opacity="0.3" d="M58.2843 38.6194L55.6206 42.9558C55.6206 42.9558 57.0329 43.4982 59.3381 40.7876C59.7948 40.2053 59.9938 39.9768 60.1928 39.5886C60.3919 39.2003 60.2133 38.7997 59.6557 38.7392C59.0982 38.6786 58.2843 38.618 58.2843 38.618V38.6194Z" fill="url(#paint9_linear_6560_1971)"/>
<path opacity="0.1" d="M3.5376 21.885C3.5376 26.355 4.33917 30.5661 4.78903 32.2497C5.23889 33.9334 6.36082 36.1373 6.64982 36.688C6.93882 37.2387 8.34975 37.3681 8.53514 37.2056C8.72054 37.0432 7.51546 35.6514 7.16375 33.2863C7.35596 34.0958 7.67632 34.5501 7.67632 34.5501L7.83718 34.356C7.83718 34.356 6.49032 27.521 6.49032 21.885V21.3041C6.49032 15.6681 7.83718 8.8331 7.83718 8.8331L7.67632 8.63899C7.67632 8.63899 7.35596 9.09191 7.16375 9.90275C7.51682 7.53768 8.72054 6.1459 8.53514 5.98345C8.34975 5.82101 6.93882 5.95041 6.64982 6.50107C6.36082 7.05173 5.23889 9.25435 4.78903 10.9394C4.33917 12.6244 3.5376 16.8341 3.5376 21.3041V21.885Z" fill="url(#paint10_radial_6560_1971)"/>
<path opacity="0.2" d="M6.71661 21.8768C6.71661 26.3468 7.24553 30.5579 7.69539 32.2415C8.14389 33.9265 8.7219 36.1292 9.0109 36.6798C9.2999 37.2305 8.39336 37.3599 8.57876 37.1974C8.76416 37.035 7.55907 35.6432 7.20736 33.2782C7.39958 34.0876 7.71993 34.5419 7.71993 34.5419L7.88079 34.3478C7.88079 34.3478 6.53394 27.5128 6.53394 21.8768V21.2959C6.53394 15.6599 7.88079 8.82492 7.88079 8.82492L7.71993 8.63081C7.71993 8.63081 7.39958 9.08373 7.20736 9.89457C7.56044 7.5295 8.76416 6.13772 8.57876 5.97528C8.39336 5.81283 9.2999 5.94224 9.0109 6.49289C8.7219 7.04355 8.14526 9.24617 7.69539 10.9312C7.2469 12.6162 6.71661 16.8259 6.71661 21.2959V21.8768Z" fill="#231F20"/>
<path d="M5.36556 5.49759C5.80042 5.52374 6.15213 5.93949 5.73362 6.94031C5.31512 7.94112 5.17198 8.28253 5.17198 8.28253L3.97508 10.9794L3.33028 13.8634C3.33028 13.8634 2.96221 18.0154 2.96221 21.5024C2.96221 24.9894 3.51431 29.4896 3.51431 29.4896L3.88238 31.9084L5.07928 34.9783C5.07928 34.9783 5.52505 35.8153 5.74998 36.3343C5.97491 36.8533 5.87813 37.5334 5.30149 37.4356C4.72485 37.3379 2.9922 34.3258 2.35013 32.3503C1.70805 30.3748 1.3877 23.7436 1.3877 21.4721C1.3877 19.2006 1.6767 13.8882 2.15791 11.2643C2.83134 8.60879 4.57217 6.17352 5.36556 5.49896V5.49759Z" fill="#231F20"/>
<path d="M2.20705 19.6205C2.48185 19.6205 2.70462 20.447 2.70462 21.4665C2.70462 22.4861 2.48185 23.3126 2.20705 23.3126C1.93224 23.3126 1.70947 22.4861 1.70947 21.4665C1.70947 20.447 1.93224 19.6205 2.20705 19.6205Z" fill="#BCBEC0"/>
<path d="M4.99624 8.23708L3.5376 8.30591C3.5376 8.30591 4.63499 6.24921 5.31796 5.72884C5.44337 5.62972 5.96548 5.91607 5.67239 6.60714C5.3793 7.29821 5.20072 7.81858 4.99624 8.23845V8.23708Z" fill="#F26522"/>
<path d="M4.1332 7.72485H5.01247C5.01247 7.72485 5.51414 6.59188 5.61229 6.2725C5.71044 5.95312 5.2633 5.99029 5.2633 5.99029L4.87888 6.35647L5.3042 6.62492L5.02474 7.23064L4.21499 7.49908L4.13184 7.72485H4.1332Z" fill="#ED1C24"/>
<path d="M3.44885 8.6831L3.6397 8.58399H4.74799V8.75331L3.97914 10.4452L3.7842 10.6283H2.66772V10.163H2.79314L2.8354 10.4025L3.96551 9.86701L4.13318 9.34527L3.6397 8.79599L3.39295 8.87996L3.44885 8.6831Z" fill="#ED1C24" stroke="#231F20" stroke-width="0.155677" stroke-miterlimit="10"/>
<path d="M3.70788 11.1652L3.16941 13.5619H2.03931L2.10883 12.5184H2.3324L2.30377 13.2508L2.50007 13.2659L3.16941 12.7015L3.29619 12.0944L2.52734 11.4749L2.40192 11.9829H2.23425L2.35966 11.1652H3.70788Z" fill="#ED1C24" stroke="#231F20" stroke-width="0.155677" stroke-miterlimit="10"/>
<path d="M4.9403 35.0099H3.63843C3.63843 35.0099 4.51906 36.7623 5.24566 37.3116C5.37107 37.4107 5.95726 37.1918 5.66417 36.5008C5.37107 35.8097 5.09843 35.3499 4.9403 35.0099Z" fill="#F26522"/>
<path d="M3.97388 35.4477H5.01265C5.01265 35.4477 5.49386 36.3728 5.59338 36.6922C5.64518 36.8601 5.5593 37.0198 5.45978 37.1024C5.36572 37.1809 5.22803 37.174 5.13806 37.0887L4.87087 36.7707L5.31801 36.4774L4.9772 35.8497L4.13337 35.712L3.97388 35.4477Z" fill="#ED1C24"/>
<path d="M3.44885 34.4882L3.6397 34.5873H4.74799V34.418L3.97914 32.7261L3.7842 32.543H2.66772V33.0083H2.79314L2.8354 32.7687L3.96551 33.3043L4.13318 33.826L3.6397 34.3753L3.39295 34.2913L3.44885 34.4882Z" fill="#ED1C24" stroke="#231F20" stroke-width="0.155677" stroke-miterlimit="10"/>
<path d="M3.70788 32.0074L3.16941 29.6107H2.03931L2.10883 30.6542H2.3324L2.30377 29.9205L2.50007 29.9067L3.16941 30.4697L3.29619 31.0768L2.52734 31.6963L2.40192 31.1897H2.23425L2.35966 32.0074H3.70788Z" fill="#ED1C24" stroke="#231F20" stroke-width="0.155677" stroke-miterlimit="10"/>
<path d="M42.3619 1.96648V2.61626C42.3619 2.61626 43.0476 2.63828 43.5179 2.56945C43.5179 2.25007 43.0585 1.97887 42.3619 1.96648ZM38.8244 2.61901C40.9837 2.64241 42.2651 2.63002 42.2651 2.63002V1.96648H40.5161C39.506 1.96648 38.823 2.1303 38.823 2.61901H38.8244ZM39.7854 2.49236C39.7854 2.23355 40.677 2.23355 40.677 2.23355H41.9584L42.0279 2.49236H39.7854Z" fill="#6D6D6D"/>
<path d="M43.5194 40.577C43.0491 40.5068 42.3634 40.5302 42.3634 40.5302V41.1799C43.06 41.1675 43.5194 40.8963 43.5194 40.577ZM40.5162 41.1786H42.2652V40.515C42.2652 40.515 40.9838 40.5012 38.8245 40.526C38.8245 41.0161 39.5074 41.1786 40.5176 41.1786H40.5162ZM42.028 40.6527L41.9585 40.9115H40.6771C40.6771 40.9115 39.7855 40.9115 39.7855 40.6527H42.028Z" fill="#6D6D6D"/>
<path d="M86.1063 14.2873C86.2712 14.2873 86.4375 14.2763 86.5589 14.1455C86.6966 13.9982 86.7006 13.7669 86.6897 13.5811C86.6679 13.2328 86.5275 12.773 86.4116 12.4481C86.2917 12.1081 86.0408 11.8451 85.7232 11.7267C85.5255 11.6524 85.2911 11.6056 85.0266 11.585C84.1828 11.523 76.741 10.8856 76.3716 10.8443L76.3511 10.8416C76.1003 10.8127 75.8644 10.7865 75.6913 10.9434C75.5809 11.0439 75.5264 11.194 75.5264 11.4019C75.5264 11.7529 75.6627 12.5624 75.7431 13.0469C75.7649 13.1791 75.7827 13.2796 75.7895 13.3305C75.814 13.5026 75.8781 13.961 76.4384 13.961C76.6142 13.961 79.0435 14.0464 81.3909 14.129C83.6811 14.2088 85.8459 14.2859 86.004 14.2859H86.0558C86.0708 14.2859 86.0872 14.2859 86.1022 14.2859L86.1063 14.2873ZM86.0272 12.5871C86.1772 13.0112 86.2671 13.3732 86.2821 13.6072C86.2821 13.6196 86.2835 13.632 86.2835 13.6444C86.2889 13.7711 86.1894 13.8743 86.064 13.8743C86.064 13.8743 86.0627 13.8743 86.0613 13.8743H86.0068C85.8541 13.8743 83.5939 13.7945 81.4073 13.7174C78.9467 13.6306 76.7396 13.5522 76.557 13.5522C76.3866 13.5522 76.2284 13.504 76.1957 13.2741C76.1889 13.2218 76.1712 13.1158 76.148 12.9795C76.0744 12.539 75.9421 11.8534 75.9421 11.5382C75.9421 11.439 75.964 11.3468 76.0335 11.3041C76.103 11.2614 76.1848 11.2394 76.3061 11.2532L76.3266 11.2559C76.6974 11.2972 84.1542 11.936 84.998 11.9979C85.2229 12.0145 85.4192 12.0544 85.5814 12.115C85.7846 12.1907 85.9468 12.3641 86.0258 12.5871H86.0272ZM86.0599 28.6333H86.0081C85.8486 28.6333 83.6852 28.709 81.395 28.7902C79.0462 28.8728 76.6183 28.9581 76.4424 28.9581C75.8822 28.9581 75.8181 29.4166 75.7936 29.5886C75.7867 29.6396 75.769 29.7401 75.7472 29.8722C75.6654 30.3568 75.5305 31.1663 75.5305 31.5173C75.5305 31.7266 75.5836 31.8766 75.6954 31.9757C75.8685 32.1327 76.1044 32.1051 76.3552 32.0776L76.3756 32.0748C76.7464 32.0336 84.1882 31.3962 85.0307 31.3342C85.2938 31.3149 85.5283 31.2668 85.7273 31.1924C86.0449 31.074 86.2958 30.8111 86.4157 30.4711C86.5302 30.1462 86.672 29.6864 86.6938 29.3381C86.7047 29.1522 86.7006 28.921 86.563 28.7737C86.4403 28.6429 86.2739 28.6319 86.1104 28.6319C86.0954 28.6319 86.079 28.6319 86.064 28.6319L86.0599 28.6333ZM86.0272 30.3334C85.9481 30.5578 85.7859 30.7299 85.5828 30.8056C85.4206 30.8662 85.2243 30.9061 84.9993 30.9226C84.1555 30.9846 76.6987 31.6233 76.3279 31.6646L76.3075 31.6674C76.1862 31.6811 76.1071 31.6605 76.0348 31.6164C75.9626 31.5724 75.9435 31.4815 75.9435 31.3824C75.9435 31.0658 76.0757 30.3816 76.1493 29.9411C76.1725 29.8048 76.1903 29.6988 76.1971 29.6465C76.2298 29.4166 76.3865 29.3684 76.5583 29.3684C76.741 29.3684 78.948 29.2885 81.4086 29.2032C83.5952 29.1261 85.8554 29.0476 86.0081 29.0476H86.0627C86.0627 29.0476 86.064 29.0476 86.0654 29.0476C86.1908 29.0476 86.2903 29.1509 86.2849 29.2775C86.2849 29.2899 86.2849 29.3009 86.2835 29.3147C86.2685 29.5487 86.1785 29.9108 86.0286 30.3348L86.0272 30.3334Z" fill="black"/>
<path d="M75.9569 11.2986C76.0646 11.1843 76.2527 11.1898 76.5499 11.2091C76.6767 11.2174 77.8627 11.3206 79.3636 11.4514C81.6333 11.6496 84.4565 11.8961 84.9282 11.925C85.1981 11.9415 85.4967 12.0007 85.6385 12.064C85.9193 12.1907 85.997 12.3366 86.0842 12.5458C86.1892 12.7964 86.2914 13.2507 86.3296 13.4351C86.3691 13.621 86.3541 13.7531 86.2819 13.8371C86.2069 13.9252 86.091 13.9445 85.9656 13.9445C85.9193 13.9445 85.8729 13.9417 85.8266 13.939C85.783 13.9362 85.738 13.9349 85.6971 13.9349C85.5526 13.9349 83.4887 13.8619 81.3048 13.7834C79.0623 13.7036 76.7435 13.621 76.5799 13.621C76.1873 13.621 76.1477 13.3759 76.1205 13.2149L76.1082 13.1447C76.0605 12.8556 75.9133 11.9787 75.8819 11.673C75.8628 11.49 75.886 11.3743 75.9583 11.2986H75.9569ZM79.5735 13.5838C80.0043 13.599 80.4555 13.6155 80.9081 13.6306L80.66 11.7006C80.2238 11.662 79.7889 11.6249 79.3717 11.5877L79.5735 13.5838ZM79.095 11.5643C78.6547 11.5257 78.2389 11.49 77.8763 11.4583L78.0113 13.5288C78.393 13.5425 78.8306 13.5577 79.2981 13.5742L79.095 11.5643ZM82.5671 11.8658L82.8807 13.7008C83.3851 13.7187 83.8608 13.7352 84.2725 13.749L83.9481 11.9828C83.5595 11.9497 83.0879 11.9098 82.5685 11.8658H82.5671ZM85.8334 13.8013C85.9738 13.8082 86.1197 13.8165 86.1783 13.7476C86.2205 13.6981 86.226 13.6031 86.196 13.4627C86.1578 13.2823 86.0583 12.8377 85.9574 12.5981C85.8743 12.3972 85.8088 12.2912 85.5812 12.1879C85.4544 12.1315 85.1695 12.0764 84.9187 12.0599C84.8069 12.053 84.5629 12.0337 84.2262 12.0062L84.5492 13.7587C85.1954 13.7807 85.6344 13.7958 85.6957 13.7958C85.7407 13.7958 85.787 13.7986 85.8334 13.8013ZM81.3089 13.6458C81.7437 13.6609 82.18 13.6761 82.6012 13.6912L82.2863 11.841C81.8542 11.8038 81.3988 11.7639 80.9381 11.724L81.1848 13.6403C81.2257 13.6416 81.268 13.643 81.3089 13.6444V13.6458ZM76.0169 11.6579C76.0482 11.9594 76.1941 12.8336 76.2418 13.1213L76.2541 13.1915C76.28 13.3484 76.3018 13.4833 76.5785 13.4833C76.648 13.4833 77.087 13.4971 77.7373 13.5191L77.6009 11.4335C77.0147 11.3826 76.6112 11.3482 76.5417 11.344C76.449 11.3385 76.3686 11.3344 76.3004 11.3344C76.1791 11.3344 76.0959 11.3482 76.055 11.3922C76.0141 11.4349 76.0019 11.5216 76.0155 11.6579H76.0169ZM75.8806 31.2475C75.9119 30.9419 76.0591 30.0649 76.1068 29.7758L76.1191 29.7056C76.1464 29.5432 76.1859 29.2995 76.5785 29.2995C76.7421 29.2995 79.0609 29.2169 81.3034 29.1371C83.4887 29.06 85.5526 28.9857 85.6957 28.9857C85.738 28.9857 85.7816 28.9829 85.8252 28.9815C85.8716 28.9788 85.9193 28.976 85.9643 28.976C86.0897 28.976 86.2055 28.9953 86.2805 29.0834C86.3528 29.1687 86.3678 29.2995 86.3282 29.4854C86.2887 29.6685 86.1865 30.1241 86.0829 30.3747C85.9956 30.5839 85.9179 30.7312 85.6371 30.8565C85.4953 30.9198 85.1968 30.979 84.9268 30.9955C84.4552 31.0245 81.632 31.2709 79.3622 31.4691C77.8613 31.5999 76.6753 31.7031 76.5485 31.7114C76.25 31.7293 76.0632 31.7348 75.9555 31.6219C75.8833 31.5462 75.8601 31.4306 75.8792 31.2475H75.8806ZM79.3717 31.3314C79.7889 31.2957 80.2238 31.2571 80.66 31.2186L80.9081 29.2885C80.4541 29.305 80.0043 29.3202 79.5735 29.3353L79.3717 31.3314ZM79.2981 29.345C78.8306 29.3615 78.393 29.3766 78.0113 29.3904L77.8763 31.4609C78.2403 31.4292 78.6547 31.3934 79.095 31.3549L79.2981 29.345ZM83.9453 30.9364L84.2698 29.1701C83.8581 29.1839 83.3837 29.2018 82.8779 29.2183L82.5644 31.0534C83.0824 31.0093 83.5555 30.968 83.944 30.9364H83.9453ZM85.6957 29.1233C85.6344 29.1233 85.1954 29.1371 84.5492 29.1605L84.2262 30.9129C84.5629 30.8854 84.8069 30.8661 84.9187 30.8593C85.1695 30.8441 85.4544 30.7891 85.5812 30.7312C85.8088 30.628 85.8729 30.522 85.9574 30.321C86.057 30.0815 86.1578 29.6368 86.196 29.4565C86.226 29.3174 86.2192 29.2211 86.1783 29.1715C86.1197 29.1027 85.9738 29.1096 85.8334 29.1178C85.787 29.1206 85.7407 29.1233 85.6957 29.1233ZM81.1848 29.2789L80.9381 31.1952C81.3988 31.1552 81.8542 31.1153 82.2863 31.0781L82.6012 29.2279C82.18 29.2431 81.7424 29.2582 81.3089 29.2734C81.268 29.2747 81.2257 29.2761 81.1848 29.2775V29.2789ZM76.055 31.5269C76.0973 31.571 76.1791 31.5847 76.3004 31.5847C76.3686 31.5847 76.449 31.5806 76.5417 31.5751C76.6099 31.571 77.0147 31.5366 77.6009 31.4856L77.7373 29.4C77.087 29.422 76.6467 29.4358 76.5785 29.4358C76.3018 29.4358 76.28 29.5707 76.2541 29.7277L76.2418 29.7979C76.1941 30.0856 76.0482 30.9598 76.0169 31.2612C76.0032 31.3975 76.0169 31.4843 76.0564 31.5269H76.055Z" fill="url(#paint11_linear_6560_1971)"/>
<path d="M84.3994 12.1797L84.6775 13.6306C84.6775 13.6306 85.5677 13.694 85.8553 13.6912C86.143 13.6885 86.0721 13.431 86.0121 13.2479C85.9521 13.0648 85.8444 12.5486 85.6631 12.3889C85.4818 12.2292 85.2896 12.265 84.3994 12.1797ZM84.3994 30.7395L84.6775 29.2885C84.6775 29.2885 85.5677 29.2252 85.8553 29.228C86.143 29.2307 86.0721 29.4881 86.0121 29.6712C85.9521 29.8543 85.8444 30.3706 85.6631 30.5303C85.4818 30.6899 85.2896 30.6542 84.3994 30.7395Z" fill="url(#paint12_linear_6560_1971)"/>
<path d="M82.7336 12.0407L82.9613 13.5688C82.9613 13.5688 83.6906 13.6348 83.9251 13.6321C84.1596 13.6293 84.1023 13.3581 84.0532 13.1654C84.0042 12.9727 83.9155 12.4289 83.7683 12.261C83.6211 12.093 83.463 12.1302 82.7336 12.0407ZM82.7336 30.88L82.9613 29.3519C82.9613 29.3519 83.6906 29.2859 83.9251 29.2886C84.1596 29.2914 84.1023 29.5626 84.0532 29.7553C84.0042 29.948 83.9155 30.4918 83.7683 30.6597C83.6211 30.8277 83.463 30.7905 82.7336 30.88Z" fill="url(#paint13_linear_6560_1971)"/>
<path d="M81.0881 11.8659L81.3158 13.5068C81.3158 13.5068 82.0451 13.5784 82.2796 13.5743C82.5141 13.5702 82.4568 13.2797 82.4077 13.0746C82.3587 12.8694 82.27 12.2844 82.1228 12.1027C81.9756 11.9209 81.8175 11.9622 81.0881 11.8659ZM81.0881 31.0535L81.3158 29.4125C81.3158 29.4125 82.0451 29.3409 82.2796 29.3451C82.5141 29.3492 82.4568 29.6397 82.4077 29.8448C82.3587 30.0499 82.27 30.635 82.1228 30.8167C81.9756 30.9984 81.8175 30.9571 81.0881 31.0535Z" fill="url(#paint14_linear_6560_1971)"/>
<path d="M79.4578 11.702L79.6854 13.471C79.6854 13.471 80.4147 13.5481 80.6492 13.544C80.8837 13.5398 80.8264 13.226 80.7774 13.0043C80.7283 12.7827 80.6397 12.1522 80.4924 11.9567C80.3452 11.7612 80.1871 11.8053 79.4578 11.702ZM79.4578 31.2186L79.6854 29.4496C79.6854 29.4496 80.4147 29.3726 80.6492 29.3767C80.8837 29.3808 80.8264 29.6947 80.7774 29.9163C80.7283 30.138 80.6397 30.7685 80.4924 30.9639C80.3452 31.1594 80.1871 31.1154 79.4578 31.2186Z" fill="url(#paint15_linear_6560_1971)"/>
<path d="M77.9867 11.5892L78.1912 13.4173C78.1912 13.4173 78.8483 13.4972 79.0596 13.4931C79.2709 13.4889 79.2191 13.1654 79.1754 12.9355C79.1318 12.7056 79.0514 12.0558 78.9178 11.8535C78.7842 11.6511 78.6424 11.6965 77.9854 11.5905L77.9867 11.5892ZM77.9867 31.3315L78.1912 29.5034C78.1912 29.5034 78.8483 29.4235 79.0596 29.4277C79.2709 29.4318 79.2191 29.7553 79.1754 29.9852C79.1318 30.2151 79.0514 30.8649 78.9178 31.0672C78.7842 31.2696 78.6424 31.2242 77.9854 31.3302L77.9867 31.3315Z" fill="url(#paint16_linear_6560_1971)"/>
<path d="M76.1533 11.4102L76.4028 13.3595C76.4028 13.3595 77.2016 13.4449 77.4593 13.4407C77.7169 13.4366 77.6529 13.0911 77.5997 12.846C77.5465 12.601 77.4484 11.9072 77.2875 11.691C77.1267 11.4749 76.9522 11.5245 76.1547 11.4102H76.1533ZM76.1533 31.5105L76.4028 29.5612C76.4028 29.5612 77.2016 29.4758 77.4593 29.48C77.7169 29.4841 77.6529 29.8296 77.5997 30.0747C77.5465 30.3197 77.4484 31.0135 77.2875 31.2297C77.1267 31.4458 76.9522 31.3962 76.1547 31.5105H76.1533Z" fill="url(#paint17_linear_6560_1971)"/>
<path opacity="0.13" d="M63.6213 38.4652C63.6213 38.4652 65.3908 38.7171 65.8488 38.1692C65.9879 37.9834 65.8488 37.5608 65.8488 37.5608L66.0587 37.5442H66.7826L66.8017 37.5222C68.2808 35.7174 68.8056 34.0379 68.8956 33.7199C68.9924 33.3772 69.9194 27.0955 69.9194 21.6661V21.5036C69.9194 16.0728 68.9924 9.79257 68.8956 9.44979C68.8056 9.13179 68.2808 7.45229 66.8017 5.64751L66.7294 5.55941H66.1501L65.9401 5.54289C65.9401 5.54289 66.0792 5.12026 65.9401 4.93441C65.4835 4.38651 63.7127 4.63844 63.7127 4.63844L56.8339 6.50516L57.8086 4.44296C57.8086 4.44296 62.0441 4.47737 62.5008 4.49802C62.7175 4.50766 63.2982 4.46774 63.9294 4.45121C64.5824 2.72491 65.2831 2.12469 65.3144 2.09854L65.707 2.10129C65.7002 2.1068 64.87 2.802 64.2457 4.44433C64.8455 4.43745 65.4439 4.4636 65.782 4.58062C66.3314 4.77197 66.6749 5.20148 66.8235 5.42175H66.908C72.3609 5.42175 79.1033 5.71497 79.3883 5.72736C80.7678 5.78793 93.0163 6.87823 93.1404 6.88924L93.1935 6.89337L93.229 6.9333C93.2522 6.95808 93.7934 7.57068 94.8158 9.15106C95.1975 9.74026 95.6119 10.1835 95.9772 10.5745C96.6016 11.2422 97.14 11.819 97.2586 12.817C97.4386 14.3341 97.7358 21.4279 97.7399 21.505V21.673C97.7371 21.7446 97.4386 28.8301 97.2586 30.3472C97.14 31.3452 96.6016 31.922 95.9772 32.5897C95.6119 32.9807 95.1975 33.4253 94.8158 34.0132C93.792 35.5935 93.2508 36.2061 93.229 36.2309L93.1935 36.2708L93.1404 36.275C93.0163 36.286 80.7678 37.3763 79.3883 37.4369C79.1033 37.4492 72.3582 37.7425 66.908 37.7425H66.6872C66.5195 37.9737 66.1896 38.3441 65.692 38.5189C65.3553 38.6359 64.7569 38.6621 64.1557 38.6552C64.78 40.2975 65.6102 40.9927 65.6171 40.9982L65.2245 41.001C65.1931 40.9762 64.491 40.3746 63.8394 38.6483C63.2083 38.6318 62.6289 38.5919 62.4108 38.6015C61.9541 38.6221 57.7186 38.6566 57.7186 38.6566L56.7439 36.5944L63.6227 38.4611L63.6213 38.4652ZM95.6528 10.6309C95.312 10.2634 94.9371 9.84489 94.5867 9.30249C93.7197 7.96302 93.1935 7.31738 93.0599 7.15769C92.1616 7.07784 80.701 6.05913 79.3746 6.00131C79.0952 5.98892 72.5858 5.70533 67.1916 5.69569C68.2876 7.09711 68.8261 8.39666 69.0455 9.02716C69.9139 9.03267 74.6961 9.08911 81.7698 9.65904C89.6124 10.2909 95.6269 11.311 95.7714 11.1981C95.8464 11.1389 95.7564 10.8732 95.6528 10.6309ZM96.5893 30.9047C96.7543 30.7781 96.8742 30.6335 96.9601 30.4931C96.971 30.4353 96.9792 30.3775 96.9874 30.3155C97.166 28.8095 97.4631 21.7349 97.4659 21.6688V21.5119C97.4631 21.4417 97.1714 14.4883 96.9915 12.8941C96.9028 12.7372 96.7761 12.5693 96.5879 12.4261C96.0549 12.02 88.3119 11.0178 82.2524 10.5318C76.6905 10.0858 70.2684 9.92611 69.2528 9.90408C69.5268 11.6249 70.1893 16.9745 70.1893 21.5009V21.6633C70.1893 26.348 69.4791 31.9124 69.2255 33.4267C70.1484 33.4061 76.6373 33.2477 82.2524 32.7976C88.3119 32.3116 96.0536 31.3108 96.5879 30.9033L96.5893 30.9047ZM79.3746 37.1657C80.701 37.1078 92.1616 36.0891 93.0599 36.0093C93.1949 35.8496 93.7197 35.204 94.5867 33.8645C94.9739 33.2656 95.3897 32.8182 95.7591 32.4231C95.8027 32.2841 95.8177 32.1698 95.7727 32.134C95.6282 32.0212 89.6137 33.0413 81.7712 33.6731C74.5066 34.2582 69.6617 34.3023 68.9869 34.305C68.7361 34.9809 68.2004 36.1827 67.1929 37.4699C72.5845 37.4603 79.0965 37.1767 79.376 37.1643L79.3746 37.1657Z" fill="black"/>
<path d="M53.802 8.39255C53.802 8.39255 49.9346 9.09463 47.0895 9.22266C40.388 9.52414 31.1467 8.71055 31.1467 8.71055V9.02718C31.1467 9.02718 40.906 9.96329 48.5195 9.47871C51.9085 9.26258 52.6583 9.12905 53.3549 9.02718C53.2363 8.51231 53.8006 8.39255 53.8006 8.39255H53.802Z" fill="url(#paint18_linear_6560_1971)"/>
<path d="M53.802 34.7539C53.802 34.7539 49.9346 34.0518 47.0895 33.9238C40.388 33.6223 31.1467 34.4359 31.1467 34.4359V34.1193C31.1467 34.1193 40.906 33.1832 48.5195 33.6677C51.9085 33.8839 52.6583 34.0174 53.3549 34.1193C53.2363 34.6341 53.8006 34.7539 53.8006 34.7539H53.802Z" fill="url(#paint19_linear_6560_1971)"/>
<path opacity="0.3" d="M92.6754 6.172C92.6754 6.172 80.885 4.55031 67.0688 5.02112C67.0688 5.02112 66.6135 3.9322 63.9198 4.14696C61.2261 4.36171 60.768 4.14696 60.768 4.14696L60.355 3.49718C60.355 3.49718 69.115 3.22186 74.4792 3.14889C79.8435 3.07593 84.6311 3.02775 87.3739 3.343C90.1167 3.65825 92.6741 6.172 92.6741 6.172H92.6754Z" fill="url(#paint20_linear_6560_1971)"/>
<path opacity="0.3" d="M57.9463 4.34253L57.5101 4.14704L57.2252 3.6666C57.2252 3.6666 45.5888 2.92184 37.021 3.478C37.0728 3.81252 37.2732 4.34253 37.2732 4.34253C38.6841 3.96671 43.0682 3.95845 47.3078 4.05756C51.7342 4.15944 57.9463 4.34253 57.9463 4.34253Z" fill="url(#paint21_linear_6560_1971)"/>
<path opacity="0.3" d="M92.6754 37.0157C92.6754 37.0157 80.885 38.6374 67.0688 38.1666C67.0688 38.1666 66.6135 39.2555 63.9198 39.0407C61.2261 38.826 60.768 39.0407 60.768 39.0407L60.355 39.6905C60.355 39.6905 69.115 39.9658 74.4792 40.0388C79.8435 40.1117 84.6311 40.1599 87.3739 39.8447C90.1167 39.5294 92.6741 37.0157 92.6741 37.0157H92.6754Z" fill="url(#paint22_linear_6560_1971)"/>
<path opacity="0.3" d="M57.9463 38.8452L57.5101 39.0407L57.2252 39.5212C57.2252 39.5212 45.5888 40.2659 37.021 39.7098C37.0728 39.3752 37.2732 38.8452 37.2732 38.8452C38.6841 39.2211 43.0682 39.2293 47.3078 39.1302C51.7342 39.0283 57.9463 38.8452 57.9463 38.8452Z" fill="url(#paint23_linear_6560_1971)"/>
<path d="M61.068 5.0983C61.5452 4.94411 60.1928 3.42568 60.1928 3.42568C60.1928 3.42568 60.5309 4.18421 59.7553 4.2613C58.9796 4.33839 58.2843 4.39484 58.2843 4.39484L55.6206 0.0584226C55.6206 0.0584226 55.303 0.359907 55.4611 0.661391C55.6193 0.962875 57.5087 4.14704 57.5087 4.14704L58.0649 4.39621C58.0649 4.39621 58.0253 4.91796 58.0253 5.17952C58.0253 5.44108 59.5767 5.5815 61.0667 5.09967L61.068 5.0983Z" fill="url(#paint24_linear_6560_1971)"/>
<path d="M61.068 37.9161C61.5452 38.0702 60.1928 39.5887 60.1928 39.5887C60.1928 39.5887 60.5309 38.8301 59.7553 38.7531C58.9796 38.676 58.2843 38.6195 58.2843 38.6195L55.6206 42.9559C55.6206 42.9559 55.303 42.6544 55.4611 42.353C55.6193 42.0515 57.5087 38.8673 57.5087 38.8673L58.0649 38.6181C58.0649 38.6181 58.0253 38.0964 58.0253 37.8348C58.0253 37.5733 59.5767 37.4329 61.0667 37.9147L61.068 37.9161Z" fill="url(#paint25_linear_6560_1971)"/>
<path d="M89.9587 4.21176C89.9587 4.21176 91.6886 5.07491 92.8201 6.42677C93.9502 7.77863 94.1846 8.12554 94.8145 9.15114C95.5888 10.4108 97.1387 11.3317 97.2573 12.8185C97.3759 14.3053 97.4836 16.1472 97.4836 16.1472H97.8953L97.6009 11.4598L96.7638 11.2078L95.6787 8.87443H94.9399C94.9399 8.87443 93.7171 6.73376 93.2318 6.17209C92.7478 5.6118 91.2946 4.56142 89.9546 4.21176H89.9587Z" fill="url(#paint26_linear_6560_1971)"/>
<path d="M89.9587 38.9333C89.9587 38.9333 91.6886 38.0702 92.8201 36.7183C93.9515 35.3665 94.1846 35.0196 94.8145 33.994C95.5888 32.7343 97.1387 31.8134 97.2573 30.3266C97.3759 28.8398 97.4836 26.9979 97.4836 26.9979H97.8953L97.6009 31.6853L96.7638 31.9373L95.6787 34.2707H94.9399C94.9399 34.2707 93.7171 36.4113 93.2318 36.973C92.7478 37.5333 91.2946 38.5837 89.9546 38.9333H89.9587Z" fill="url(#paint27_linear_6560_1971)"/>
<path opacity="0.8" d="M3.71755 21.8851C3.71755 26.355 4.27374 30.5662 4.81357 32.2498C5.3534 33.9348 6.29539 36.1374 6.64301 36.6881C6.99063 37.2387 4.70179 35.204 4.17559 33.7421C4.0897 33.5053 2.61743 27.51 2.61743 21.8741V21.2931C2.61743 15.6572 3.49671 11.1872 4.15514 9.61783C5.10803 7.34638 6.99199 5.95047 6.64437 6.50112C6.29675 7.05178 5.35613 9.2544 4.81493 10.9394C4.2751 12.6244 3.71891 16.8342 3.71891 21.3041V21.8851H3.71755Z" fill="#231F20"/>
<path opacity="0.13" d="M37.0888 4.53943L37.3451 4.44582C36.8352 3.00998 36.8352 1.81644 36.8366 1.80543H36.564C36.564 1.85361 36.5612 3.05541 37.0888 4.53943Z" fill="black"/>
<path opacity="0.13" d="M37.0888 38.4432L37.3451 38.5369C36.8352 39.9727 36.8352 41.1662 36.8366 41.1772H36.564C36.564 41.1291 36.5612 39.9273 37.0888 38.4432Z" fill="black"/>
</g>
<defs>
<linearGradient id="paint0_linear_6560_1971" x1="68.7785" y1="21.5711" x2="53.3224" y2="21.5711" gradientUnits="userSpaceOnUse">
<stop stop-color="#87898C"/>
<stop offset="0.14" stop-color="#66686A"/>
<stop offset="0.31" stop-color="#414244"/>
<stop offset="0.49" stop-color="#252526"/>
<stop offset="0.67" stop-color="#101011"/>
<stop offset="0.84" stop-color="#040404"/>
<stop offset="1"/>
</linearGradient>
<linearGradient id="paint1_linear_6560_1971" x1="46.6465" y1="8.01672" x2="46.6465" y2="4.14699" gradientUnits="userSpaceOnUse">
<stop/>
<stop offset="0.24" stop-color="#020202"/>
<stop offset="0.41" stop-color="#0B0B0B"/>
<stop offset="0.55" stop-color="#1A1A1B"/>
<stop offset="0.68" stop-color="#2E2F30"/>
<stop offset="0.8" stop-color="#494A4C"/>
<stop offset="0.92" stop-color="#6A6B6E"/>
<stop offset="1" stop-color="#87898C"/>
</linearGradient>
<linearGradient id="paint2_linear_6560_1971" x1="100" y1="35.0237" x2="99.861" y2="38.8933" gradientUnits="userSpaceOnUse">
<stop/>
<stop offset="0.24" stop-color="#020202"/>
<stop offset="0.41" stop-color="#0B0B0B"/>
<stop offset="0.55" stop-color="#1A1A1B"/>
<stop offset="0.68" stop-color="#2E2F30"/>
<stop offset="0.8" stop-color="#494A4C"/>
<stop offset="0.92" stop-color="#6A6B6E"/>
<stop offset="1" stop-color="#87898C"/>
</linearGradient>
<linearGradient id="paint3_linear_6560_1971" x1="31.1468" y1="21.6455" x2="12.4476" y2="21.6455" gradientUnits="userSpaceOnUse">
<stop offset="0.48" stop-color="#2B2829"/>
<stop offset="0.62" stop-color="#312F30"/>
<stop offset="0.83" stop-color="#454445"/>
<stop offset="1" stop-color="#58595B"/>
</linearGradient>
<linearGradient id="paint4_linear_6560_1971" x1="27.6637" y1="7.18527" x2="27.6637" y2="5.15749" gradientUnits="userSpaceOnUse">
<stop/>
<stop offset="0.24" stop-color="#020202"/>
<stop offset="0.41" stop-color="#0B0B0B"/>
<stop offset="0.55" stop-color="#1A1A1B"/>
<stop offset="0.68" stop-color="#2E2F30"/>
<stop offset="0.8" stop-color="#494A4C"/>
<stop offset="0.92" stop-color="#6A6B6E"/>
<stop offset="1" stop-color="#87898C"/>
</linearGradient>
<linearGradient id="paint5_linear_6560_1971" x1="27.6637" y1="35.9447" x2="27.6637" y2="37.9725" gradientUnits="userSpaceOnUse">
<stop/>
<stop offset="0.24" stop-color="#020202"/>
<stop offset="0.41" stop-color="#0B0B0B"/>
<stop offset="0.55" stop-color="#1A1A1B"/>
<stop offset="0.68" stop-color="#2E2F30"/>
<stop offset="0.8" stop-color="#494A4C"/>
<stop offset="0.92" stop-color="#6A6B6E"/>
<stop offset="1" stop-color="#87898C"/>
</linearGradient>
<linearGradient id="paint6_linear_6560_1971" x1="37.2158" y1="4.95785" x2="7.2046" y2="4.95785" gradientUnits="userSpaceOnUse">
<stop stop-color="white"/>
<stop offset="0.08" stop-color="#D0D1D2"/>
<stop offset="0.16" stop-color="#A8AAAC"/>
<stop offset="0.22" stop-color="#909194"/>
<stop offset="0.26" stop-color="#87898C"/>
<stop offset="0.39" stop-color="#BFC0C1"/>
<stop offset="0.55" stop-color="white"/>
<stop offset="0.73" stop-color="#C9C9C9"/>
<stop offset="0.91" stop-color="#9B9B9B"/>
<stop offset="1" stop-color="#8A8A8A"/>
</linearGradient>
<linearGradient id="paint7_linear_6560_1971" x1="37.2158" y1="38.358" x2="7.2046" y2="38.358" gradientUnits="userSpaceOnUse">
<stop stop-color="white"/>
<stop offset="0.08" stop-color="#D0D1D2"/>
<stop offset="0.16" stop-color="#A8AAAC"/>
<stop offset="0.22" stop-color="#909194"/>
<stop offset="0.26" stop-color="#87898C"/>
<stop offset="0.39" stop-color="#BFC0C1"/>
<stop offset="0.55" stop-color="white"/>
<stop offset="0.73" stop-color="#C9C9C9"/>
<stop offset="0.91" stop-color="#9B9B9B"/>
<stop offset="1" stop-color="#8A8A8A"/>
</linearGradient>
<linearGradient id="paint8_linear_6560_1971" x1="59.0382" y1="1.39926" x2="57.0395" y2="2.5428" gradientUnits="userSpaceOnUse">
<stop/>
<stop offset="0.05" stop-color="#373737"/>
<stop offset="0.12" stop-color="#7D7D7D"/>
<stop offset="0.18" stop-color="#B5B5B5"/>
<stop offset="0.23" stop-color="#DDDDDD"/>
<stop offset="0.27" stop-color="#F5F5F5"/>
<stop offset="0.29" stop-color="white"/>
<stop offset="0.4" stop-color="#C9C9C9"/>
<stop offset="0.5" stop-color="#9B9B9B"/>
<stop offset="0.55" stop-color="#8A8A8A"/>
<stop offset="0.58" stop-color="#7F7F7F"/>
<stop offset="0.62" stop-color="#636363"/>
<stop offset="0.68" stop-color="#353535"/>
<stop offset="0.74"/>
</linearGradient>
<linearGradient id="paint9_linear_6560_1971" x1="59.0382" y1="41.615" x2="57.0395" y2="40.4714" gradientUnits="userSpaceOnUse">
<stop/>
<stop offset="0.05" stop-color="#373737"/>
<stop offset="0.12" stop-color="#7D7D7D"/>
<stop offset="0.18" stop-color="#B5B5B5"/>
<stop offset="0.23" stop-color="#DDDDDD"/>
<stop offset="0.27" stop-color="#F5F5F5"/>
<stop offset="0.29" stop-color="white"/>
<stop offset="0.4" stop-color="#C9C9C9"/>
<stop offset="0.5" stop-color="#9B9B9B"/>
<stop offset="0.55" stop-color="#8A8A8A"/>
<stop offset="0.58" stop-color="#7F7F7F"/>
<stop offset="0.62" stop-color="#636363"/>
<stop offset="0.68" stop-color="#353535"/>
<stop offset="0.74"/>
</linearGradient>
<radialGradient id="paint10_radial_6560_1971" cx="0" cy="0" r="1" gradientUnits="userSpaceOnUse" gradientTransform="translate(6.04455 21.6069) rotate(180) scale(11.1197 16.1701)">
<stop stop-color="#87898C"/>
<stop offset="0.44" stop-color="#BFC0C1"/>
<stop offset="0.97" stop-color="white"/>
</radialGradient>
<linearGradient id="paint11_linear_6560_1971" x1="75.8737" y1="21.4596" x2="86.3514" y2="21.4596" gradientUnits="userSpaceOnUse">
<stop stop-color="#2E2E2E"/>
<stop offset="0.06" stop-color="#2A2A2A"/>
<stop offset="0.66" stop-color="#0B0B0B"/>
<stop offset="1"/>
</linearGradient>
<linearGradient id="paint12_linear_6560_1971" x1="84.3994" y1="21.4596" x2="86.0653" y2="21.4596" gradientUnits="userSpaceOnUse">
<stop stop-color="#5E5E5E"/>
<stop offset="0.01" stop-color="#5C5C5C"/>
<stop offset="0.4" stop-color="#2A2A2A"/>
<stop offset="0.7" stop-color="#0B0B0B"/>
<stop offset="0.87"/>
</linearGradient>
<linearGradient id="paint13_linear_6560_1971" x1="82.7323" y1="0.0143795" x2="84.0969" y2="0.0143795" gradientUnits="userSpaceOnUse">
<stop stop-color="#5E5E5E"/>
<stop offset="0.01" stop-color="#5C5C5C"/>
<stop offset="0.4" stop-color="#2A2A2A"/>
<stop offset="0.7" stop-color="#0B0B0B"/>
<stop offset="0.87"/>
</linearGradient>
<linearGradient id="paint14_linear_6560_1971" x1="81.0868" y1="0.0143897" x2="82.4513" y2="0.0143897" gradientUnits="userSpaceOnUse">
<stop stop-color="#5E5E5E"/>
<stop offset="0.01" stop-color="#5C5C5C"/>
<stop offset="0.4" stop-color="#2A2A2A"/>
<stop offset="0.7" stop-color="#0B0B0B"/>
<stop offset="0.87"/>
</linearGradient>
<linearGradient id="paint15_linear_6560_1971" x1="79.4578" y1="21.4596" x2="80.821" y2="21.4596" gradientUnits="userSpaceOnUse">
<stop stop-color="#5E5E5E"/>
<stop offset="0.01" stop-color="#5C5C5C"/>
<stop offset="0.4" stop-color="#2A2A2A"/>
<stop offset="0.7" stop-color="#0B0B0B"/>
<stop offset="0.87"/>
</linearGradient>
<linearGradient id="paint16_linear_6560_1971" x1="77.9867" y1="21.4597" x2="79.215" y2="21.4597" gradientUnits="userSpaceOnUse">
<stop stop-color="#5E5E5E"/>
<stop offset="0.01" stop-color="#5C5C5C"/>
<stop offset="0.4" stop-color="#2A2A2A"/>
<stop offset="0.7" stop-color="#0B0B0B"/>
<stop offset="0.87"/>
</linearGradient>
<linearGradient id="paint17_linear_6560_1971" x1="76.152" y1="0.0143766" x2="77.6474" y2="0.0143766" gradientUnits="userSpaceOnUse">
<stop stop-color="#5E5E5E"/>
<stop offset="0.01" stop-color="#5C5C5C"/>
<stop offset="0.4" stop-color="#2A2A2A"/>
<stop offset="0.7" stop-color="#0B0B0B"/>
<stop offset="0.87"/>
</linearGradient>
<linearGradient id="paint18_linear_6560_1971" x1="53.8006" y1="9.00377" x2="31.1467" y2="9.00377" gradientUnits="userSpaceOnUse">
<stop stop-color="#87898C"/>
<stop offset="0.07" stop-color="#6A6C6E"/>
<stop offset="0.15" stop-color="#4F5051"/>
<stop offset="0.24" stop-color="#38393A"/>
<stop offset="0.35" stop-color="#272728"/>
<stop offset="0.47" stop-color="#1B1B1B"/>
<stop offset="0.64" stop-color="#141414"/>
<stop offset="1" stop-color="#121212"/>
</linearGradient>
<linearGradient id="paint19_linear_6560_1971" x1="100" y1="34.1413" x2="99.8637" y2="34.1413" gradientUnits="userSpaceOnUse">
<stop stop-color="#87898C"/>
<stop offset="0.07" stop-color="#6A6C6E"/>
<stop offset="0.15" stop-color="#4F5051"/>
<stop offset="0.24" stop-color="#38393A"/>
<stop offset="0.35" stop-color="#272728"/>
<stop offset="0.47" stop-color="#1B1B1B"/>
<stop offset="0.64" stop-color="#141414"/>
<stop offset="1" stop-color="#121212"/>
</linearGradient>
<linearGradient id="paint20_linear_6560_1971" x1="92.6754" y1="4.63291" x2="60.355" y2="4.63291" gradientUnits="userSpaceOnUse">
<stop stop-color="#A8A8A8"/>
<stop offset="0.04" stop-color="#B5B5B5"/>
<stop offset="0.17" stop-color="#DDDDDD"/>
<stop offset="0.27" stop-color="#F5F5F5"/>
<stop offset="0.33" stop-color="white"/>
<stop offset="0.52" stop-color="#C9C9C9"/>
<stop offset="0.71" stop-color="#9B9B9B"/>
<stop offset="0.8" stop-color="#8A8A8A"/>
<stop offset="0.83" stop-color="#7F7F7F"/>
<stop offset="0.88" stop-color="#636363"/>
<stop offset="0.94" stop-color="#353535"/>
<stop offset="1"/>
</linearGradient>
<linearGradient id="paint21_linear_6560_1971" x1="57.945" y1="3.80702" x2="37.0196" y2="3.80702" gradientUnits="userSpaceOnUse">
<stop offset="0.08"/>
<stop offset="0.09" stop-color="#090909"/>
<stop offset="0.1" stop-color="#373737"/>
<stop offset="0.12" stop-color="#626262"/>
<stop offset="0.13" stop-color="#878787"/>
<stop offset="0.15" stop-color="#A8A8A8"/>
<stop offset="0.17" stop-color="#C3C3C3"/>
<stop offset="0.2" stop-color="#D9D9D9"/>
<stop offset="0.22" stop-color="#EAEAEA"/>
<stop offset="0.26" stop-color="#F6F6F6"/>
<stop offset="0.31" stop-color="#FDFDFD"/>
<stop offset="0.44" stop-color="white"/>
<stop offset="0.53" stop-color="#C9C9C9"/>
<stop offset="0.62" stop-color="#9B9B9B"/>
<stop offset="0.66" stop-color="#8A8A8A"/>
<stop offset="0.72" stop-color="#8E8E8E"/>
<stop offset="0.78" stop-color="#9A9A9A"/>
<stop offset="0.85" stop-color="#AFAFAF"/>
<stop offset="0.91" stop-color="#CCCCCC"/>
<stop offset="0.97" stop-color="#F1F1F1"/>
<stop offset="0.99" stop-color="white"/>
</linearGradient>
<linearGradient id="paint22_linear_6560_1971" x1="100" y1="38.5548" x2="99.8637" y2="38.5548" gradientUnits="userSpaceOnUse">
<stop stop-color="#A8A8A8"/>
<stop offset="0.04" stop-color="#B5B5B5"/>
<stop offset="0.17" stop-color="#DDDDDD"/>
<stop offset="0.27" stop-color="#F5F5F5"/>
<stop offset="0.33" stop-color="white"/>
<stop offset="0.52" stop-color="#C9C9C9"/>
<stop offset="0.71" stop-color="#9B9B9B"/>
<stop offset="0.8" stop-color="#8A8A8A"/>
<stop offset="0.83" stop-color="#7F7F7F"/>
<stop offset="0.88" stop-color="#636363"/>
<stop offset="0.94" stop-color="#353535"/>
<stop offset="1"/>
</linearGradient>
<linearGradient id="paint23_linear_6560_1971" x1="100" y1="39.3807" x2="99.8638" y2="39.3807" gradientUnits="userSpaceOnUse">
<stop offset="0.08"/>
<stop offset="0.09" stop-color="#090909"/>
<stop offset="0.1" stop-color="#373737"/>
<stop offset="0.12" stop-color="#626262"/>
<stop offset="0.13" stop-color="#878787"/>
<stop offset="0.15" stop-color="#A8A8A8"/>
<stop offset="0.17" stop-color="#C3C3C3"/>
<stop offset="0.2" stop-color="#D9D9D9"/>
<stop offset="0.22" stop-color="#EAEAEA"/>
<stop offset="0.26" stop-color="#F6F6F6"/>
<stop offset="0.31" stop-color="#FDFDFD"/>
<stop offset="0.44" stop-color="white"/>
<stop offset="0.53" stop-color="#C9C9C9"/>
<stop offset="0.62" stop-color="#9B9B9B"/>
<stop offset="0.66" stop-color="#8A8A8A"/>
<stop offset="0.72" stop-color="#8E8E8E"/>
<stop offset="0.78" stop-color="#9A9A9A"/>
<stop offset="0.85" stop-color="#AFAFAF"/>
<stop offset="0.91" stop-color="#CCCCCC"/>
<stop offset="0.97" stop-color="#F1F1F1"/>
<stop offset="0.99" stop-color="white"/>
</linearGradient>
<linearGradient id="paint24_linear_6560_1971" x1="59.5126" y1="1.89899" x2="56.9715" y2="3.3518" gradientUnits="userSpaceOnUse">
<stop offset="0.04"/>
<stop offset="0.09" stop-color="#171717"/>
<stop offset="0.16" stop-color="#3F3F3F"/>
<stop offset="0.23" stop-color="#575757"/>
<stop offset="0.27" stop-color="#616161"/>
<stop offset="0.31" stop-color="#545454"/>
<stop offset="0.46" stop-color="#303030"/>
<stop offset="0.59" stop-color="#151515"/>
<stop offset="0.72" stop-color="#050505"/>
<stop offset="0.81"/>
<stop offset="1"/>
</linearGradient>
<linearGradient id="paint25_linear_6560_1971" x1="100" y1="41.1154" x2="56.9829" y2="39.6682" gradientUnits="userSpaceOnUse">
<stop offset="0.04"/>
<stop offset="0.09" stop-color="#171717"/>
<stop offset="0.16" stop-color="#3F3F3F"/>
<stop offset="0.23" stop-color="#575757"/>
<stop offset="0.27" stop-color="#616161"/>
<stop offset="0.31" stop-color="#545454"/>
<stop offset="0.46" stop-color="#303030"/>
<stop offset="0.59" stop-color="#151515"/>
<stop offset="0.72" stop-color="#050505"/>
<stop offset="0.81"/>
<stop offset="1"/>
</linearGradient>
<linearGradient id="paint26_linear_6560_1971" x1="93.927" y1="16.1458" x2="93.927" y2="4.68807" gradientUnits="userSpaceOnUse">
<stop/>
<stop offset="0.21" stop-color="#4A4A4A"/>
<stop offset="0.4" stop-color="#231F20"/>
<stop offset="0.47" stop-color="#231F20"/>
<stop offset="0.5" stop-color="#383637"/>
<stop offset="0.55" stop-color="#565759"/>
<stop offset="0.58" stop-color="#454446"/>
<stop offset="0.63" stop-color="#231F20"/>
<stop offset="0.67" stop-color="#231F20"/>
<stop offset="0.69" stop-color="#272425"/>
<stop offset="0.8" stop-color="#363636"/>
<stop offset="0.95" stop-color="#323031"/>
<stop offset="1"/>
</linearGradient>
<linearGradient id="paint27_linear_6560_1971" x1="100" y1="26.9979" x2="99.8611" y2="38.4556" gradientUnits="userSpaceOnUse">
<stop/>
<stop offset="0.21" stop-color="#4A4A4A"/>
<stop offset="0.4" stop-color="#231F20"/>
<stop offset="0.47" stop-color="#231F20"/>
<stop offset="0.5" stop-color="#383637"/>
<stop offset="0.55" stop-color="#565759"/>
<stop offset="0.58" stop-color="#454446"/>
<stop offset="0.63" stop-color="#231F20"/>
<stop offset="0.67" stop-color="#231F20"/>
<stop offset="0.69" stop-color="#272425"/>
<stop offset="0.8" stop-color="#363636"/>
<stop offset="0.95" stop-color="#323031"/>
<stop offset="1"/>
</linearGradient>
<clipPath id="clip0_6560_1971">
<rect width="100" height="43" fill="white" transform="matrix(1 0 0 -1 0 43)"/>
</clipPath>
</defs>
</svg>
