<svg width="100" height="54" viewBox="0 0 100 54" fill="none" xmlns="http://www.w3.org/2000/svg">
<g clip-path="url(#clip0_6561_5188)">
<path d="M97.5561 48.6126C97.4393 48.8141 97.2253 48.9381 96.993 48.9381H93.1864C93.0048 48.9381 92.909 48.7225 93.0315 48.5872C93.0315 48.5872 93.7072 47.822 93.9466 47.3612C94.0184 47.2217 94.069 47.0216 94.1211 46.7975C93.9015 47.3682 93.4412 48.2645 92.7134 48.2645H76.348L75.7848 47.8981H71.9205C72.4737 47.8981 72.9228 48.3476 72.9228 48.9015C72.9228 49.4553 72.4737 49.9048 71.9205 49.9048H64.2889C64.0074 50.9927 63.3978 52.4964 63.3978 52.4964L61.8028 54L60.9117 53.6717L62.3504 49.9062H30.7557C30.2024 49.9062 29.7534 49.4567 29.7534 48.9029C29.7534 48.8395 29.7604 48.7789 29.7717 48.7183C29.8336 48.7422 29.8955 48.7676 29.9575 48.7944C29.2761 48.4984 28.5413 48.3448 27.7965 48.3448H8.25943V48.893H3.08866C2.69026 48.893 2.32565 48.6718 2.13982 48.318L0.236506 44.6823C0.081651 44.3849 0 44.0538 0 43.7184V10.5117C0 10.1354 0.0900977 9.76477 0.260439 9.42938L2.18768 5.6696C2.34254 5.36803 2.65366 5.17778 2.99293 5.17778H8.25943V5.72597H28.5455C28.8763 5.72597 29.2015 5.65128 29.4986 5.50613L29.79 5.3638C29.766 5.27642 29.752 5.18483 29.752 5.09041C29.752 4.53659 30.201 4.08705 30.7543 4.08705H62.349L60.9103 0.321629L61.8014 -0.00671387L63.3964 1.49691C63.3964 1.49691 64.006 3.00055 64.2875 4.08846H71.9191C72.4723 4.08846 72.9214 4.538 72.9214 5.09182C72.9214 5.64564 72.4991 6.067 71.9669 6.09236H75.8778L76.5352 5.72878H92.7134C92.9147 5.72878 93.1216 5.83307 93.3159 6.01062C93.3483 6.03458 93.3792 6.06136 93.413 6.09095C93.2948 5.9303 93.1765 5.77388 93.0709 5.6386C92.9273 5.45117 93.0611 5.17919 93.2976 5.17919H97.1985C97.5477 5.17919 97.8658 5.38353 98.0108 5.7006L99.9986 10.041V44.3793L97.5561 48.6126ZM94.8377 33.9892H94.5097V33.1422H94.8377V31.8035H93.8058V35.4604H94.8377V33.9906V33.9892ZM93.8044 22.3575H94.8363V20.7425H94.5083V19.8956H94.8363V18.7161H93.8044V22.3561V22.3575ZM94.8377 45.3925V36.3891H93.8058V40.0023L93.9536 40.3264L94.276 40.9746V46.2113C94.3858 45.8702 94.5463 45.5546 94.8391 45.3925H94.8377ZM93.9564 6.87306C94.0733 7.14504 94.169 7.48325 94.2239 7.89897C94.2563 8.09908 94.2746 8.30342 94.2746 8.50635V13.3216L93.8424 14.1869L93.8058 14.2616V17.6451H94.8377V8.52044C94.1774 8.51903 94.3126 7.49171 93.9564 6.87447V6.87306Z" fill="#231F20"/>
<path d="M4.17719 6.08798C4.17719 5.88787 4.33908 5.72581 4.53899 5.72581H28.5458C28.8766 5.72581 29.2018 5.65113 29.4989 5.50598L30.1732 5.17763H33.176V5.41438C33.176 5.65253 33.3153 5.86955 33.5321 5.9682L33.8292 6.10348C34.0798 6.21763 34.3515 6.27682 34.6274 6.27682H45.9656C46.1303 6.27682 46.288 6.21199 46.4049 6.09503L46.692 5.80754L46.716 5.18185H50.7281V5.80754L51.2673 6.1669C51.3743 6.23877 51.501 6.27682 51.6305 6.27682H64.1668C64.3329 6.27682 64.4906 6.20072 64.5947 6.07107L64.8059 5.80754H68.1803C68.338 5.80754 68.4661 5.93578 68.4661 6.09362H75.8809L76.5383 5.73004H92.7165C92.7165 5.73004 94.2763 5.90055 94.2763 8.71898V13.3229L93.8075 14.2628V40.0021L94.2763 41.0351V46.3337C94.2763 46.3337 93.7836 48.2643 92.7165 48.2643H76.3511L75.788 47.898H68.4675V47.7725C68.4675 48.0431 68.2479 48.2629 67.9776 48.2629H64.8073L64.6947 48.122C64.5286 47.9149 64.278 47.7937 64.0119 47.7937H51.7305C51.5362 47.7937 51.3476 47.8514 51.1871 47.9585L50.7309 48.2629V48.8999H46.7188L46.6949 48.2629L46.5132 48.0811C46.3288 47.8965 46.0782 47.7923 45.8178 47.7923H34.5725C34.336 47.7923 34.1009 47.843 33.8855 47.9416L33.618 48.0628C33.3519 48.184 33.1802 48.4504 33.1802 48.7435V48.89H30.1774C29.4369 48.5293 28.6232 48.3419 27.7983 48.3419H4.62627C4.37709 48.3419 4.17578 48.1403 4.17578 47.8909V6.08657L4.17719 6.08798ZM67.7144 46.8551L68.4647 47.5132V27.897L67.7144 28.0844V46.8551ZM67.7144 26.003L68.4647 26.1904V6.55584L67.7144 7.21394V26.003Z" fill="#EDC98F"/>
<path d="M93.299 5.17626H97.2C97.5491 5.17626 97.8673 5.38059 98.0123 5.69766L100 10.038V44.3792L97.5576 48.6125C97.4407 48.814 97.2267 48.938 96.9944 48.938H93.1878C93.0062 48.938 92.9105 48.7224 93.033 48.5871C93.033 48.5871 93.7087 47.8219 93.948 47.3611C94.1873 46.9003 94.1803 45.756 94.8406 45.3924V8.52032C94.1634 8.52032 94.3225 7.44228 93.9339 6.83068C93.7115 6.48119 93.3469 5.99219 93.0738 5.63707C92.9302 5.44964 93.0639 5.17766 93.3004 5.17766L93.299 5.17626Z" fill="#353535"/>
<path opacity="0.5" d="M8.25931 27.487V45.7758C8.25931 46.3606 7.86936 46.8736 7.30484 47.03L4.17676 47.8938C4.17676 48.1433 4.37807 48.3448 4.62725 48.3448H27.795C28.6186 48.3448 29.4323 48.5322 30.1742 48.893H33.177V48.7464C33.177 48.4533 33.3487 48.187 33.6148 48.0658L33.8823 47.9446C34.0976 47.8459 34.3327 47.7952 34.5692 47.7952H45.8146C46.075 47.7952 46.3256 47.8995 46.51 48.0841L46.6916 48.2659L46.7155 48.9028H50.7277V48.2659L51.1838 47.9615C51.3443 47.8544 51.5344 47.7966 51.7272 47.7966H64.0087C64.2747 47.7966 64.5253 47.9178 64.6914 48.1249L64.8041 48.2659H67.9744C68.2447 48.2659 68.4643 48.046 68.4643 47.7755V47.5148L67.7139 46.8567V28.0859L68.4643 27.8985V26.1919L67.7139 26.0045V7.21546L68.4643 6.55736V6.09232C68.4643 5.93449 68.3362 5.80625 68.1785 5.80625H64.8041L64.5929 6.06977C64.4887 6.19942 64.3311 6.27552 64.1649 6.27552H51.6287C51.4992 6.27552 51.3739 6.23746 51.2655 6.1656L50.7263 5.80625V5.18056H46.7141L46.6902 5.80625L46.403 6.09373C46.2862 6.21069 46.1285 6.27552 45.9638 6.27552H34.6256C34.351 6.27552 34.0779 6.21633 33.8273 6.10218L33.5303 5.9669C33.3135 5.86826 33.1741 5.65265 33.1741 5.41308V5.17633H30.1714L29.497 5.50467C29.2 5.64982 28.8748 5.72451 28.544 5.72451H4.53856C4.33865 5.72451 4.17676 5.88657 4.17676 6.08668L7.77644 7.12105C8.06222 7.20278 8.25931 7.46489 8.25931 7.76224V27.4856V27.487Z" fill="url(#paint0_linear_6561_5188)"/>
<path d="M68.4645 28.3481V47.5078L67.7141 46.8497V28.079L68.4645 27.8916V28.3481Z" fill="url(#paint1_linear_6561_5188)"/>
<path d="M68.4645 26.1863L67.7141 25.9974V7.20839L68.4645 6.55029V25.717V26.1863Z" fill="url(#paint2_linear_6561_5188)"/>
<path opacity="0.35" d="M4.17676 6.09367L7.77644 7.12804C8.06222 7.20977 8.25931 7.47189 8.25931 7.76923V45.7814C8.25931 46.3662 7.86936 46.8791 7.30484 47.0356L4.17676 47.8994V6.09508V6.09367Z" fill="url(#paint3_linear_6561_5188)"/>
<path opacity="0.5" d="M68.4644 6.09086H75.8791L76.5365 5.72728H92.7147C92.7147 5.72728 94.2745 5.8978 94.2745 8.71622V13.3201L93.8057 14.2601V40.0022L94.2745 41.0351V46.3338C94.2745 46.3338 93.7818 48.2644 92.7147 48.2644H76.3493L75.7862 47.898H68.4658V6.09086H68.4644Z" fill="url(#paint4_linear_6561_5188)"/>
<path d="M81.43 19.897H93.1357C93.2982 19.897 93.4299 20.0288 93.4299 20.1915V33.789C93.4299 33.9517 93.2982 34.0835 93.1357 34.0835H81.43C81.2676 34.0835 81.1358 33.9517 81.1358 33.789V20.1915C81.1358 20.0288 81.2676 19.897 81.43 19.897Z" fill="url(#paint5_linear_6561_5188)"/>
<path d="M94.5098 19.897H99.437V20.7439H94.5098V19.897Z" fill="url(#paint6_linear_6561_5188)"/>
<path d="M94.5098 33.1436H99.437V33.9905H94.5098V33.1436Z" fill="url(#paint7_linear_6561_5188)"/>
<path d="M95.4008 48.645H94.8376V5.47657H95.4008V48.645Z" fill="url(#paint8_linear_6561_5188)"/>
<path d="M93.8045 17.645H94.8772V18.7188H93.8045V17.645Z" fill="#231F20"/>
<path d="M93.8045 22.3589H94.8772V31.8048H93.8045V22.3589Z" fill="#231F20"/>
<path d="M93.8045 35.4604H94.8772V36.3891H93.8045V35.4604Z" fill="#231F20"/>
<path opacity="0.7" d="M69.6976 6.09085V14.2601L70.8463 15.0112V27.0219V38.9791L69.6976 39.7302V47.8994H68.4644V6.09085H69.6976Z" fill="url(#paint9_linear_6561_5188)"/>
<path d="M97.5968 24.4079L98.5386 24.856C98.678 24.9222 98.8469 24.9152 98.9722 24.8236C99.0975 24.732 99.1792 24.5826 99.1792 24.4149V21.7628C99.1792 21.5753 99.0778 21.4119 98.9258 21.3245C98.8089 21.2569 98.6639 21.2625 98.5415 21.3203L97.5954 21.7698C97.3491 21.8868 97.1914 22.1362 97.1914 22.4096V23.7681C97.1914 24.0415 97.3491 24.2909 97.5954 24.4079H97.5968Z" fill="url(#paint10_linear_6561_5188)"/>
<path d="M98.5388 24.856C98.6782 24.9222 98.8471 24.9152 98.9724 24.8236C99.0977 24.732 99.1794 24.5826 99.1794 24.4149V21.7628C99.1794 21.5753 99.078 21.4119 98.926 21.3245C98.8091 21.2569 98.6641 21.2625 98.5416 21.3203L98.5388 24.856Z" fill="white"/>
<path d="M98.7964 21.3908C98.7964 21.3908 98.9752 21.3908 98.9752 23.0875C98.9752 24.7842 98.7964 24.7842 98.7964 24.7842C98.9569 24.7842 99.0864 24.632 99.0864 24.446V21.729C99.0864 21.5416 98.9569 21.3908 98.7964 21.3908Z" fill="#FFF7E4"/>
<path d="M97.5968 28.1605L98.5386 28.6087C98.678 28.6749 98.8469 28.6679 98.9722 28.5763C99.0975 28.4847 99.1792 28.3353 99.1792 28.1676V25.5155C99.1792 25.328 99.0778 25.1646 98.9258 25.0772C98.8089 25.0095 98.6639 25.0152 98.5415 25.073L97.5954 25.5225C97.3491 25.6395 97.1914 25.8889 97.1914 26.1623V27.5208C97.1914 27.7942 97.3491 28.0436 97.5954 28.1605H97.5968Z" fill="url(#paint11_linear_6561_5188)"/>
<path d="M98.5388 28.6075C98.6782 28.6737 98.8471 28.6666 98.9724 28.575C99.0977 28.4834 99.1794 28.3341 99.1794 28.1664V25.5142C99.1794 25.3268 99.078 25.1633 98.926 25.076C98.8091 25.0083 98.6641 25.014 98.5416 25.0717L98.5388 28.6075Z" fill="white"/>
<path d="M98.7964 25.142C98.7964 25.142 98.9752 25.142 98.9752 26.8387C98.9752 28.5354 98.7964 28.5354 98.7964 28.5354C98.9569 28.5354 99.0864 28.3832 99.0864 28.1972V25.4802C99.0864 25.2928 98.9569 25.142 98.7964 25.142Z" fill="#FFF7E4"/>
<path d="M97.5968 31.9655L98.5386 32.4136C98.678 32.4798 98.8469 32.4728 98.9722 32.3812C99.0975 32.2896 99.1792 32.1402 99.1792 31.9725V29.3204C99.1792 29.133 99.0778 28.9695 98.9258 28.8821C98.8089 28.8145 98.6639 28.8201 98.5415 28.8779L97.5954 29.3274C97.3491 29.4444 97.1914 29.6938 97.1914 29.9672V31.3257C97.1914 31.5991 97.3491 31.8485 97.5954 31.9655H97.5968Z" fill="url(#paint12_linear_6561_5188)"/>
<path d="M98.5388 32.4121C98.6782 32.4784 98.8471 32.4713 98.9724 32.3797C99.0977 32.2881 99.1794 32.1388 99.1794 31.9711V29.3189C99.1794 29.1315 99.078 28.968 98.926 28.8807C98.8091 28.813 98.6641 28.8187 98.5416 28.8764L98.5388 32.4121Z" fill="white"/>
<path d="M98.7964 28.9469C98.7964 28.9469 98.9752 28.9469 98.9752 30.6436C98.9752 32.3403 98.7964 32.3403 98.7964 32.3403C98.9569 32.3403 99.0864 32.1881 99.0864 32.0021V29.2852C99.0864 29.0977 98.9569 28.9469 98.7964 28.9469Z" fill="#FFF7E4"/>
<path opacity="0.3" d="M68.4348 39.4527L69.6976 39.7303L80.5445 40.9746H94.2745L93.8044 40.029L80.2432 40.053L70.8463 38.9792L68.4644 38.6607L68.4348 39.4527Z" fill="url(#paint13_linear_6561_5188)"/>
<path opacity="0.3" d="M68.4348 14.8365L69.6976 14.5589L80.5445 13.3145H94.2745L93.8044 14.2601L80.2432 14.2362L70.8463 15.3114L68.4644 15.6299L68.4348 14.8365Z" fill="url(#paint14_linear_6561_5188)"/>
<path d="M67.7141 28.0859L68.4912 27.8915V26.192L67.7141 26.0031V28.0859Z" fill="url(#paint15_linear_6561_5188)"/>
<path d="M84.1132 18.1441C84.0626 17.6861 83.6487 17.3564 83.1912 17.4071L81.4357 17.6044C80.9781 17.6551 80.6487 18.0694 80.6994 18.5274C80.7501 18.9854 81.164 19.3152 81.6215 19.2644L83.377 19.0672C83.8345 19.0164 84.1639 18.6021 84.1132 18.1441ZM80.6938 35.5719C80.7346 35.1125 81.14 34.7728 81.599 34.8137L83.3587 34.9715C83.8176 35.0124 84.1569 35.4183 84.1161 35.8777C84.0752 36.3371 83.6698 36.6767 83.2109 36.6358L81.4511 36.478C80.9922 36.4371 80.6529 36.0313 80.6938 35.5719Z" fill="#353535"/>
<path d="M5.33262 11.6938H6.79671C7.20023 11.6938 7.52734 12.0213 7.52734 12.4252L7.52734 41.4339C7.52734 41.8378 7.20023 42.1653 6.79671 42.1653H5.33262C4.9291 42.1653 4.60198 41.8378 4.60198 41.4339L4.60198 12.4252C4.60198 12.0213 4.9291 11.6938 5.33262 11.6938Z" fill="url(#paint16_linear_6561_5188)"/>
<path d="M8.25942 5.72584V5.17765H2.99293C2.65366 5.17765 2.34254 5.3679 2.18768 5.66948L0.260439 9.42926C0.0886899 9.76465 0 10.1353 0 10.5115V43.7182C0 44.055 0.081651 44.3848 0.236506 44.6836L2.13841 48.3193C2.32283 48.673 2.68885 48.8943 3.08725 48.8943H8.25802V48.3461H4.62595C4.62595 48.3461 4.17547 48.2362 4.17547 47.9008V6.09647C4.17547 6.09647 4.14872 5.72866 4.53726 5.72866H8.25802L8.25942 5.72584Z" fill="url(#paint17_linear_6561_5188)"/>
<path d="M92.8429 45.7561H93.1498C93.3046 45.7561 93.4299 45.6307 93.4299 45.4757V43.6634C93.4299 43.5084 93.3046 43.383 93.1498 43.383H92.8429V45.7547V45.7561ZM92.8429 8.19773H93.1498C93.3046 8.19773 93.4299 8.32315 93.4299 8.47816V10.2904C93.4299 10.4454 93.3046 10.5709 93.1498 10.5709H92.8429V8.19914V8.19773ZM66.6948 30.0194H67.0017C67.1566 30.0194 67.2819 30.1448 67.2819 30.2998V32.1121C67.2819 32.2671 67.1566 32.3925 67.0017 32.3925H66.6948V30.0208V30.0194ZM66.6948 25.8355H67.0017C67.1566 25.8355 67.2819 25.9609 67.2819 26.1159V27.9281C67.2819 28.0832 67.1566 28.2086 67.0017 28.2086H66.6948V25.8369V25.8355ZM66.6948 21.8262H67.0017C67.1566 21.8262 67.2819 21.9517 67.2819 22.1067V23.9189C67.2819 24.0739 67.1566 24.1994 67.0017 24.1994H66.6948V21.8277V21.8262Z" fill="#F89843"/>
<path d="M92.536 45.8956H92.8429V43.2702H92.536C92.3812 43.2702 92.2559 43.3956 92.2559 43.5506V45.6165C92.2559 45.7716 92.3812 45.897 92.536 45.897V45.8956Z" fill="#353535"/>
<path d="M92.536 10.7088H92.8429V8.08343H92.536C92.3812 8.08343 92.2559 8.20885 92.2559 8.36386V10.4298C92.2559 10.5848 92.3812 10.7102 92.536 10.7102V10.7088Z" fill="#353535"/>
<path d="M66.3878 32.5306H66.6947V29.9052H66.3878C66.233 29.9052 66.1077 30.0306 66.1077 30.1856V32.2515C66.1077 32.4066 66.233 32.532 66.3878 32.532V32.5306Z" fill="url(#paint18_linear_6561_5188)"/>
<path d="M66.3878 28.3482H66.6947V25.7228H66.3878C66.233 25.7228 66.1077 25.8483 66.1077 26.0033V28.0692C66.1077 28.2242 66.233 28.3496 66.3878 28.3496V28.3482Z" fill="url(#paint19_linear_6561_5188)"/>
<path d="M66.3878 24.3389H66.6947V21.7136H66.3878C66.233 21.7136 66.1077 21.839 66.1077 21.994V24.0599C66.1077 24.2149 66.233 24.3403 66.3878 24.3403V24.3389Z" fill="url(#paint20_linear_6561_5188)"/>
<path d="M68.4643 6.09093C68.4643 5.9331 68.3362 5.80486 68.1786 5.80486H64.8041L64.593 6.06839C64.5859 6.07825 64.5761 6.08529 64.5676 6.09375H51.16L50.7264 5.80486V5.17917H46.7142L46.6903 5.80486L46.4031 6.09234C46.4031 6.09234 46.4031 6.09234 46.4017 6.09375H33.8119L33.5318 5.96692C33.315 5.86828 33.1756 5.65267 33.1756 5.4131V5.17635H30.1728L29.7885 5.36378C29.7646 5.27641 29.7505 5.18481 29.7505 5.09039C29.7505 4.53657 30.1996 4.08703 30.7528 4.08703H71.9204C72.4737 4.08703 72.9228 4.53657 72.9228 5.09039C72.9228 5.64421 72.4737 6.09375 71.9204 6.09375H68.4643V6.09093Z" fill="#353535"/>
<path d="M30.1728 48.893H33.1756V48.7465C33.1756 48.4534 33.3474 48.187 33.6134 48.0658L33.8809 47.9446C33.9189 47.9277 33.9569 47.9136 33.9963 47.8995H46.251C46.3454 47.946 46.4326 48.008 46.5101 48.0841L46.6917 48.2659L46.7156 48.9029H50.7278V48.2659L51.1839 47.9615C51.2191 47.939 51.2543 47.9193 51.2923 47.9009H64.4198C64.524 47.9559 64.6169 48.032 64.6915 48.125L64.8041 48.2659H67.9744C68.2025 48.2659 68.3911 48.1109 68.4474 47.8995H71.9218C72.4751 47.8995 72.9242 48.3491 72.9242 48.9029C72.9242 49.4567 72.4751 49.9062 71.9218 49.9062H30.7528C30.1996 49.9062 29.7505 49.4567 29.7505 48.9029C29.7505 48.8395 29.7575 48.7789 29.7688 48.7183C29.9053 48.7718 30.0405 48.8282 30.1728 48.893Z" fill="#353535"/>
<path d="M50.7263 5.80783L51.2655 6.16718C51.3725 6.23905 51.4992 6.2771 51.6287 6.2771H64.1649C64.331 6.2771 64.4887 6.201 64.5929 6.07136L64.8041 5.80783L64.4929 5.35406L64.3634 5.17932H50.7263V5.80783ZM46.6916 5.80783L46.4044 6.09531C46.2876 6.21227 46.1299 6.2771 45.9652 6.2771H34.627C34.3524 6.2771 34.0793 6.21791 33.8287 6.10376L33.5317 5.96848C33.3149 5.86984 33.1755 5.65423 33.1755 5.41466V5.17791H46.7141L46.6902 5.80642L46.6916 5.80783Z" fill="url(#paint21_linear_6561_5188)"/>
<path d="M50.7263 48.9028H64.3634L64.4929 48.7281L64.8041 48.2743L64.5929 48.0108C64.4887 47.8812 64.331 47.8051 64.1649 47.8051H51.6287C51.4992 47.8051 51.3739 47.8431 51.2655 47.915L50.7263 48.2743V48.9028ZM46.7141 48.9028H33.1755V48.6661C33.1755 48.4279 33.3149 48.2109 33.5317 48.1123L33.8287 47.977C34.0793 47.8628 34.351 47.8036 34.627 47.8036H45.9652C46.1299 47.8036 46.2876 47.8685 46.4044 47.9854L46.6916 48.2729L46.7155 48.9014L46.7141 48.9028Z" fill="url(#paint22_linear_6561_5188)"/>
<path d="M65.9784 48.2645C65.9784 48.2645 65.5561 49.3806 64.2891 49.9048C64.0075 50.9927 63.3979 52.4964 63.3979 52.4964L61.8015 54L60.9104 53.6717L62.9756 48.2659L63.9146 48.552L64.1018 49.351C64.1018 49.351 64.7593 49.1551 65.228 48.2659H65.9784V48.2645Z" fill="#3A3A3A"/>
<path d="M65.9782 5.72876C65.9782 5.72876 65.5559 4.61266 64.2889 4.08844C64.0073 3.00052 63.3978 1.49689 63.3978 1.49689L61.8027 -0.00673914L60.9116 0.321606L62.9768 5.72735L63.9158 5.44128L64.1031 4.64226C64.1031 4.64226 64.7605 4.83814 65.2293 5.72735H65.9796L65.9782 5.72876Z" fill="#3A3A3A"/>
<path d="M34.0161 5.21441C34.0161 4.80292 34.4427 4.66482 35.0734 4.66482H36.1658V5.22287C36.1658 5.22287 35.3648 5.23414 34.0161 5.21441ZM35.9743 4.88888H35.1733C35.1733 4.88888 34.6158 4.88888 34.6158 5.10731H36.0166L35.9729 4.88888H35.9743ZM36.9485 5.17214C36.9485 4.90439 36.6613 4.67468 36.2263 4.66482V5.2116C36.2263 5.2116 36.6543 5.22992 36.9485 5.17214Z" fill="#848484"/>
<path d="M51.6133 5.21441C51.6133 4.80292 52.0398 4.66482 52.6705 4.66482H53.763V5.22287C53.763 5.22287 52.9619 5.23414 51.6133 5.21441ZM53.5715 4.88888H52.7705C52.7705 4.88888 52.213 4.88888 52.213 5.10731H53.6137L53.5701 4.88888H53.5715ZM54.5457 5.17214C54.5457 4.90439 54.2585 4.67468 53.8235 4.66482V5.2116C53.8235 5.2116 54.2515 5.22992 54.5457 5.17214Z" fill="#848484"/>
<path d="M34.0161 48.927C35.3648 48.9072 36.1658 48.9185 36.1658 48.9185V49.4766H35.0734C34.4427 49.4766 34.0161 49.3385 34.0161 48.927ZM35.9743 49.2511L36.018 49.0327H34.6172C34.6172 49.2511 35.1747 49.2511 35.1747 49.2511H35.9757H35.9743ZM36.9485 48.9692C36.6543 48.9101 36.2263 48.9298 36.2263 48.9298V49.4766C36.6613 49.4667 36.9485 49.2384 36.9485 48.9692Z" fill="#848484"/>
<path d="M51.6133 48.927C52.9619 48.9072 53.763 48.9185 53.763 48.9185V49.4766H52.6705C52.0398 49.4766 51.6133 49.3385 51.6133 48.927ZM53.5715 49.2511L53.6151 49.0327H52.2144C52.2144 49.2511 52.7719 49.2511 52.7719 49.2511H53.5729H53.5715ZM54.5457 48.9692C54.2515 48.9101 53.8235 48.9298 53.8235 48.9298V49.4766C54.2585 49.4667 54.5457 49.2384 54.5457 48.9692Z" fill="#848484"/>
<path opacity="0.7" d="M65.6474 13.65L65.5447 40.7689L64.0313 41.8822L64.0144 46.3973V46.5551L64.0102 47.7938L63.8736 47.7981L63.8779 46.5551H32.0227L32.0086 49.0297L31.8721 49.0339L31.8918 45.0149L40.2371 41.1142L40.3258 12.858L31.9875 8.99112L31.9945 7.60727H31.9777V7.44944H31.9945L32.0058 5.18061L32.1621 5.17778L32.148 7.44944H64.0032L64.0074 6.27697L64.1636 6.27415L64.1411 12.0914L65.6446 13.65H65.6474ZM32.1494 7.60727L32.1424 8.88684L40.5003 12.8411L40.3976 41.2283L32.0297 45.16L32.0227 46.3973H63.8779L63.8934 41.737L65.3856 40.6547L65.4743 13.6669L63.9905 12.1957L64.006 7.60727H32.1508H32.1494Z" fill="url(#paint23_linear_6561_5188)"/>
</g>
<defs>
<linearGradient id="paint0_linear_6561_5188" x1="36.3205" y1="48.9028" x2="36.3205" y2="5.17774" gradientUnits="userSpaceOnUse">
<stop stop-color="#060606"/>
<stop offset="0.02" stop-color="#1A1A1A"/>
<stop offset="0.03" stop-color="#3A3A3A"/>
<stop offset="0.04" stop-color="#666666"/>
<stop offset="0.05" stop-color="#9F9F9F"/>
<stop offset="0.07" stop-color="white"/>
<stop offset="0.92" stop-color="white"/>
<stop offset="1" stop-color="#231F20"/>
</linearGradient>
<linearGradient id="paint1_linear_6561_5188" x1="67.7141" y1="37.6997" x2="68.4659" y2="37.6997" gradientUnits="userSpaceOnUse">
<stop/>
<stop offset="0.22" stop-color="#0A0A0A"/>
<stop offset="0.6" stop-color="#262627"/>
<stop offset="0.99" stop-color="#4A4B4C"/>
</linearGradient>
<linearGradient id="paint2_linear_6561_5188" x1="100" y1="16.3683" x2="99.8592" y2="16.3683" gradientUnits="userSpaceOnUse">
<stop/>
<stop offset="0.22" stop-color="#0A0A0A"/>
<stop offset="0.6" stop-color="#262627"/>
<stop offset="0.99" stop-color="#4A4B4C"/>
</linearGradient>
<linearGradient id="paint3_linear_6561_5188" x1="8.25931" y1="26.9965" x2="4.17676" y2="26.9965" gradientUnits="userSpaceOnUse">
<stop stop-color="#B3B5B8"/>
<stop offset="1" stop-color="#231F20"/>
</linearGradient>
<linearGradient id="paint4_linear_6561_5188" x1="81.3694" y1="48.2644" x2="81.3694" y2="5.72869" gradientUnits="userSpaceOnUse">
<stop/>
<stop offset="0.01" stop-color="#060606"/>
<stop offset="0.03" stop-color="#191A1A"/>
<stop offset="0.04" stop-color="#39393A"/>
<stop offset="0.06" stop-color="#646566"/>
<stop offset="0.09" stop-color="#9B9D9E"/>
<stop offset="0.1" stop-color="#C4C6C8"/>
<stop offset="0.9" stop-color="#C4C6C8"/>
<stop offset="1" stop-color="#231F20"/>
</linearGradient>
<linearGradient id="paint5_linear_6561_5188" x1="93.4299" y1="26.9895" x2="81.1358" y2="26.9895" gradientUnits="userSpaceOnUse">
<stop stop-color="#2E2E2E"/>
<stop offset="0.02" stop-color="#222222"/>
<stop offset="0.08" stop-color="#090909"/>
<stop offset="0.11"/>
<stop offset="0.17" stop-color="#060606"/>
<stop offset="0.25" stop-color="#19191A"/>
<stop offset="0.35" stop-color="#38383A"/>
<stop offset="0.44" stop-color="#58595B"/>
<stop offset="1" stop-color="#6D6E71"/>
</linearGradient>
<linearGradient id="paint6_linear_6561_5188" x1="94.5084" y1="20.3197" x2="99.4356" y2="20.3197" gradientUnits="userSpaceOnUse">
<stop stop-color="#6D6E71"/>
<stop offset="0.56" stop-color="#58595B"/>
<stop offset="0.65" stop-color="#38383A"/>
<stop offset="0.75" stop-color="#19191A"/>
<stop offset="0.83" stop-color="#060606"/>
<stop offset="0.89"/>
<stop offset="0.92" stop-color="#090909"/>
<stop offset="0.98" stop-color="#222222"/>
<stop offset="1" stop-color="#2E2E2E"/>
</linearGradient>
<linearGradient id="paint7_linear_6561_5188" x1="0.000118392" y1="33.5663" x2="0.140896" y2="33.5663" gradientUnits="userSpaceOnUse">
<stop stop-color="#6D6E71"/>
<stop offset="0.56" stop-color="#58595B"/>
<stop offset="0.65" stop-color="#38383A"/>
<stop offset="0.75" stop-color="#19191A"/>
<stop offset="0.83" stop-color="#060606"/>
<stop offset="0.89"/>
<stop offset="0.92" stop-color="#090909"/>
<stop offset="0.98" stop-color="#222222"/>
<stop offset="1" stop-color="#2E2E2E"/>
</linearGradient>
<linearGradient id="paint8_linear_6561_5188" x1="94.8376" y1="27.0601" x2="95.4008" y2="27.0601" gradientUnits="userSpaceOnUse">
<stop stop-color="#0D0D0D"/>
<stop offset="0.06" stop-color="#131313"/>
<stop offset="0.15" stop-color="#262627"/>
<stop offset="0.26" stop-color="#454547"/>
<stop offset="0.38" stop-color="#6F7073"/>
<stop offset="0.4" stop-color="#757679"/>
<stop offset="1" stop-color="#86888A"/>
</linearGradient>
<linearGradient id="paint9_linear_6561_5188" x1="69.6553" y1="47.8994" x2="69.6553" y2="6.09226" gradientUnits="userSpaceOnUse">
<stop/>
<stop offset="0.03" stop-color="#060606"/>
<stop offset="0.08" stop-color="#19191A"/>
<stop offset="0.14" stop-color="#38383A"/>
<stop offset="0.18" stop-color="#4F4F51"/>
<stop offset="0.82" stop-color="#565759"/>
<stop offset="1" stop-color="#231F20"/>
</linearGradient>
<linearGradient id="paint10_linear_6561_5188" x1="98.1867" y1="21.2752" x2="98.1867" y2="24.8997" gradientUnits="userSpaceOnUse">
<stop/>
<stop offset="0.08" stop-color="#060606"/>
<stop offset="0.2" stop-color="#19191A"/>
<stop offset="0.35" stop-color="#38383A"/>
<stop offset="0.47" stop-color="#58595B"/>
<stop offset="0.96" stop-color="#272324"/>
<stop offset="1" stop-color="#231F20"/>
</linearGradient>
<linearGradient id="paint11_linear_6561_5188" x1="-3.25812e-05" y1="25.0279" x2="0.141032" y2="28.6524" gradientUnits="userSpaceOnUse">
<stop/>
<stop offset="0.08" stop-color="#060606"/>
<stop offset="0.2" stop-color="#19191A"/>
<stop offset="0.35" stop-color="#38383A"/>
<stop offset="0.47" stop-color="#58595B"/>
<stop offset="0.96" stop-color="#272324"/>
<stop offset="1" stop-color="#231F20"/>
</linearGradient>
<linearGradient id="paint12_linear_6561_5188" x1="-3.25812e-05" y1="28.8328" x2="0.141032" y2="32.4573" gradientUnits="userSpaceOnUse">
<stop/>
<stop offset="0.08" stop-color="#060606"/>
<stop offset="0.2" stop-color="#19191A"/>
<stop offset="0.35" stop-color="#38383A"/>
<stop offset="0.47" stop-color="#58595B"/>
<stop offset="0.96" stop-color="#272324"/>
<stop offset="1" stop-color="#231F20"/>
</linearGradient>
<linearGradient id="paint13_linear_6561_5188" x1="81.3554" y1="40.976" x2="81.3554" y2="38.6607" gradientUnits="userSpaceOnUse">
<stop/>
<stop offset="0.05" stop-color="#0B0B0C"/>
<stop offset="0.17" stop-color="#242425"/>
<stop offset="0.3" stop-color="#373738"/>
<stop offset="0.46" stop-color="#444446"/>
<stop offset="0.65" stop-color="#4C4C4E"/>
<stop offset="1" stop-color="#4F4F51"/>
</linearGradient>
<linearGradient id="paint14_linear_6561_5188" x1="100" y1="13.3145" x2="99.8589" y2="15.6299" gradientUnits="userSpaceOnUse">
<stop/>
<stop offset="0.05" stop-color="#0B0B0C"/>
<stop offset="0.17" stop-color="#242425"/>
<stop offset="0.3" stop-color="#373738"/>
<stop offset="0.46" stop-color="#444446"/>
<stop offset="0.65" stop-color="#4C4C4E"/>
<stop offset="1" stop-color="#4F4F51"/>
</linearGradient>
<linearGradient id="paint15_linear_6561_5188" x1="67.7141" y1="27.0445" x2="68.4912" y2="27.0445" gradientUnits="userSpaceOnUse">
<stop stop-color="#D3D5D6"/>
<stop offset="0.25" stop-color="#9C9D9E"/>
<stop offset="0.49" stop-color="#717172"/>
<stop offset="0.7" stop-color="#515252"/>
<stop offset="0.88" stop-color="#3E3E3E"/>
<stop offset="1" stop-color="#383838"/>
</linearGradient>
<linearGradient id="paint16_linear_6561_5188" x1="7.52734" y1="26.9303" x2="4.60198" y2="26.9303" gradientUnits="userSpaceOnUse">
<stop/>
<stop offset="0.24" stop-color="#020202"/>
<stop offset="0.41" stop-color="#0B0B0B"/>
<stop offset="0.55" stop-color="#1A1A1B"/>
<stop offset="0.68" stop-color="#2E2F30"/>
<stop offset="0.8" stop-color="#494A4C"/>
<stop offset="0.92" stop-color="#6A6B6E"/>
<stop offset="1" stop-color="#87898C"/>
</linearGradient>
<linearGradient id="paint17_linear_6561_5188" x1="8.25942" y1="27.0346" x2="0" y2="27.0346" gradientUnits="userSpaceOnUse">
<stop stop-color="#2E2E2E"/>
<stop offset="0.02" stop-color="#222222"/>
<stop offset="0.08" stop-color="#090909"/>
<stop offset="0.11"/>
<stop offset="0.24" stop-color="#060606"/>
<stop offset="0.44" stop-color="#19191A"/>
<stop offset="0.66" stop-color="#38383A"/>
<stop offset="0.86" stop-color="#58595B"/>
<stop offset="0.99" stop-color="#272324"/>
<stop offset="1" stop-color="#231F20"/>
</linearGradient>
<linearGradient id="paint18_linear_6561_5188" x1="66.4019" y1="32.5306" x2="66.4019" y2="29.9052" gradientUnits="userSpaceOnUse">
<stop/>
<stop offset="0.08" stop-color="#060606"/>
<stop offset="0.2" stop-color="#19191A"/>
<stop offset="0.35" stop-color="#38383A"/>
<stop offset="0.47" stop-color="#58595B"/>
<stop offset="0.96" stop-color="#272324"/>
<stop offset="1" stop-color="#231F20"/>
</linearGradient>
<linearGradient id="paint19_linear_6561_5188" x1="66.4019" y1="28.3482" x2="66.4019" y2="25.7228" gradientUnits="userSpaceOnUse">
<stop/>
<stop offset="0.08" stop-color="#060606"/>
<stop offset="0.2" stop-color="#19191A"/>
<stop offset="0.35" stop-color="#38383A"/>
<stop offset="0.47" stop-color="#58595B"/>
<stop offset="0.96" stop-color="#272324"/>
<stop offset="1" stop-color="#231F20"/>
</linearGradient>
<linearGradient id="paint20_linear_6561_5188" x1="66.4019" y1="24.3389" x2="66.4019" y2="21.7136" gradientUnits="userSpaceOnUse">
<stop/>
<stop offset="0.08" stop-color="#060606"/>
<stop offset="0.2" stop-color="#19191A"/>
<stop offset="0.35" stop-color="#38383A"/>
<stop offset="0.47" stop-color="#58595B"/>
<stop offset="0.96" stop-color="#272324"/>
<stop offset="1" stop-color="#231F20"/>
</linearGradient>
<linearGradient id="paint21_linear_6561_5188" x1="48.9905" y1="6.2771" x2="48.9905" y2="5.17932" gradientUnits="userSpaceOnUse">
<stop/>
<stop offset="0.24" stop-color="#020202"/>
<stop offset="0.41" stop-color="#0B0B0B"/>
<stop offset="0.55" stop-color="#1A1A1B"/>
<stop offset="0.68" stop-color="#2E2F30"/>
<stop offset="0.8" stop-color="#494A4C"/>
<stop offset="0.92" stop-color="#6A6B6E"/>
<stop offset="1" stop-color="#87898C"/>
</linearGradient>
<linearGradient id="paint22_linear_6561_5188" x1="48.9905" y1="47.8051" x2="48.9905" y2="48.9028" gradientUnits="userSpaceOnUse">
<stop/>
<stop offset="0.24" stop-color="#020202"/>
<stop offset="0.41" stop-color="#0B0B0B"/>
<stop offset="0.55" stop-color="#1A1A1B"/>
<stop offset="0.68" stop-color="#2E2F30"/>
<stop offset="0.8" stop-color="#494A4C"/>
<stop offset="0.92" stop-color="#6A6B6E"/>
<stop offset="1" stop-color="#87898C"/>
</linearGradient>
<linearGradient id="paint23_linear_6561_5188" x1="31.8707" y1="27.1066" x2="65.6474" y2="27.1066" gradientUnits="userSpaceOnUse">
<stop/>
<stop offset="0.03" stop-color="#060606"/>
<stop offset="0.08" stop-color="#19191A"/>
<stop offset="0.14" stop-color="#38383A"/>
<stop offset="0.18" stop-color="#4F4F51"/>
<stop offset="0.82" stop-color="#565759"/>
<stop offset="1" stop-color="#231F20"/>
</linearGradient>
<clipPath id="clip0_6561_5188">
<rect width="100" height="54" fill="white" transform="matrix(1 0 0 -1 0 54)"/>
</clipPath>
</defs>
</svg>
