<svg width="100" height="46" viewBox="0 0 100 46" fill="none" xmlns="http://www.w3.org/2000/svg">
<g clip-path="url(#clip0_6561_3876)">
<path d="M99.304 32.0117C99.2562 32.1741 99.1704 32.4078 99.0548 32.6931C99.0129 32.7981 98.9511 32.9288 98.5582 32.9288C98.8733 33.0021 98.8135 33.2616 98.7576 33.3863C97.8343 35.4622 96.0555 38.8552 95.1442 39.3762C93.9696 40.0496 92.1609 40.1843 92.1609 40.1843L90.759 40.8796C90.759 40.8796 90.398 41.149 89.2893 41.351C88.1805 41.553 83.5241 42.1591 79.9984 42.1136C76.4727 42.068 73.4196 42.1136 71.228 41.553C70.7534 41.5629 68.5798 41.6065 66.2825 41.6541C65.8278 42.9257 64.8387 44.8114 64.8387 44.8114C64.7709 44.9659 64.6532 45.0927 64.5057 45.1719L63.1037 45.9345C62.9821 45.9998 62.7667 46.0058 62.6012 45.9899L62.3579 45.9642C62.2143 45.9226 62.1366 45.7681 62.1904 45.6294L63.5963 42.3592C63.6162 42.3077 63.7259 42.0482 63.8057 41.868C63.8336 41.8086 63.8675 41.7531 63.9074 41.7016C61.8414 41.7432 60.1504 41.7769 60.1504 41.7769L48.0118 42.0245L31.9846 42.1175C31.9846 42.1175 30.6964 42.385 28.6623 42.4523C26.6282 42.5196 20.207 42.6761 17.9935 42.4523C15.7779 42.2285 14.5116 41.8006 14.5116 41.8006L3.26447 41.3451C3.02317 41.3351 2.8078 41.1906 2.71208 40.9707L2.1238 40.7469L1.15263 38.1422V37.7599L0.813624 36.0524L0.971164 35.9178C0.971164 35.9178 0 31.3164 0 23.0309V22.9735C0 14.6879 0.971164 10.0846 0.971164 10.0846L0.813624 9.94994L1.15263 8.24252V7.86023L2.1238 5.25553L2.71208 5.0317C2.8098 4.81184 3.02317 4.66724 3.26447 4.65734L14.5116 4.20176C14.5116 4.20176 15.7779 3.7759 17.9935 3.55009C20.209 3.32627 26.6282 3.48275 28.6623 3.55009C30.6964 3.61744 31.9846 3.88484 31.9846 3.88484L48.0118 3.97794L60.1504 4.22553C60.1504 4.22553 61.8414 4.2592 63.9074 4.3008C63.8675 4.2493 63.8336 4.19384 63.8057 4.13442C63.7239 3.95615 63.6162 3.69469 63.5963 3.64319L62.1904 0.372944C62.1366 0.234291 62.2143 0.0797958 62.3579 0.0381966L62.6012 0.0124474C62.7667 -0.00537872 62.9821 0.0025444 63.1037 0.0679092L64.5057 0.830505C64.6532 0.911716 64.7709 1.03848 64.8387 1.191C64.8387 1.191 65.8278 3.07669 66.2825 4.34834C68.5798 4.3939 70.7534 4.43945 71.228 4.44936C73.4216 3.8888 76.4727 3.93238 79.9984 3.8888C83.5241 3.84324 88.1805 4.44936 89.2893 4.6514C90.398 4.85344 90.759 5.12282 90.759 5.12282L92.1609 5.81807C92.1609 5.81807 93.9696 5.95276 95.1442 6.62622C96.0635 7.1531 97.8662 10.6036 98.7816 12.6735C98.8274 12.7765 98.8294 12.9191 98.7098 13.0716C98.8434 13.1152 99.0129 13.3014 99.0707 13.446C99.1585 13.6659 99.2642 13.856 99.302 13.9907C99.663 15.2247 99.9801 22.9715 99.9801 22.9715V23.0289C99.9801 23.0289 99.663 30.7757 99.302 32.0097L99.304 32.0117Z" fill="#231F20"/>
<path d="M99.9999 22.9837C99.9999 22.9837 99.6828 15.2369 99.3219 14.0029C99.282 13.8702 99.1763 13.68 99.0906 13.4582C99.0327 13.3116 98.8632 13.1274 98.7296 13.0838C98.8493 12.9313 98.8473 12.7887 98.8014 12.6857C97.8861 10.6158 96.0814 7.16528 95.164 6.63839C93.9895 5.96494 92.1807 5.83024 92.1807 5.83024L90.7788 5.13499C90.7788 5.13499 90.4179 4.86561 89.3091 4.66357C88.2024 4.46153 83.544 3.85542 80.0183 3.90098C76.4926 3.94654 73.4395 3.90098 71.2479 4.46153C70.163 4.43974 60.1722 4.23771 60.1722 4.23771L48.0337 3.99011L32.0065 3.89702C32.0065 3.89702 30.7182 3.62961 28.6842 3.56227C26.6501 3.49492 20.2288 3.33844 18.0153 3.56227C15.7998 3.78609 14.5335 4.21394 14.5335 4.21394L3.28632 4.66951C3.04502 4.67942 2.82965 4.82401 2.73393 5.04388L2.14565 5.2677L1.17449 7.87241V8.2547L0.835476 9.96212L0.993016 10.0968C0.993016 10.0968 0.0158691 14.7001 0.0158691 22.9837V23.0411C0.0158691 31.3266 0.989028 35.9299 0.989028 35.9299L0.831488 36.0646L1.1705 37.772V38.1543L2.14166 40.759L2.72994 40.9829C2.82766 41.2027 3.04104 41.3493 3.28233 41.3572L14.5295 41.8128C14.5295 41.8128 15.7958 42.2387 18.0113 42.4645C20.2269 42.6903 26.6461 42.5318 28.6802 42.4645C30.7142 42.3971 32.0025 42.1297 32.0025 42.1297L48.0297 42.0366L60.1682 41.789C60.1682 41.789 70.1591 41.587 71.2439 41.5652C73.4375 42.1258 76.4886 42.0822 80.0143 42.1258C83.54 42.1693 88.1964 41.5652 89.3051 41.3632C90.4139 41.1611 90.7749 40.8918 90.7749 40.8918L92.1768 40.1965C92.1768 40.1965 93.9855 40.0618 95.16 39.3884C96.0714 38.8674 97.8502 35.4744 98.7735 33.3985C98.8293 33.2737 98.8892 33.0143 98.5741 32.941C98.9669 32.941 99.0268 32.8102 99.0706 32.7053C99.1863 32.42 99.272 32.1863 99.3199 32.0239C99.6808 30.7899 99.9979 23.0431 99.9979 23.0431V22.9856L99.9999 22.9837Z" fill="#DA1F26"/>
<path d="M2.62234 40.9372C2.62234 40.9372 2.10984 39.5804 2.05201 39.1427C1.99418 38.7049 2.36111 38.4514 2.36111 38.4514L2.37108 37.7086C2.37108 37.7086 1.20648 32.2971 1.20648 23.0014C1.20648 13.7057 2.29929 8.24273 2.29929 8.24273V7.57125L2.08591 7.27018C2.01013 7.14341 1.99817 6.99089 2.05201 6.85422L2.6383 5.03191L2.12579 5.25574L1.15463 7.86045V8.24273L0.815618 9.95015L0.973158 10.0848C0.973158 10.0848 0 15.8508 0 23.0311C0 30.9502 0.971164 35.92 0.971164 35.92L0.813624 36.0546L1.15263 37.7621V38.1444L2.1238 40.7491L2.62035 40.9392L2.62234 40.9372Z" fill="url(#paint0_linear_6561_3876)"/>
<path d="M5.31241 40.6224C5.22866 40.7274 5.29846 40.8819 5.43406 40.8858C7.73335 40.9452 21.3735 41.2958 22.233 41.2958C23.1723 41.2958 23.7107 41.5751 24.8613 40.2698C26.012 38.9645 26.1516 38.7545 26.4327 38.3366C26.7139 37.9186 27.2543 37.1283 25.6351 37.1382C24.1374 37.1481 10.4255 37.1382 8.38544 37.1382C8.22591 37.1382 8.07435 37.2095 7.97464 37.3343L5.31241 40.6224Z" fill="url(#paint1_linear_6561_3876)"/>
<path d="M5.31241 5.41028C5.22866 5.3053 5.29846 5.1508 5.43406 5.14683C7.73335 5.08741 21.3735 4.73681 22.233 4.73681C23.1723 4.73681 23.7107 4.45753 24.8613 5.76285C26.01 7.06818 26.1516 7.27813 26.4327 7.69608C26.7139 8.11402 27.2543 8.90434 25.6351 8.89444C24.1374 8.88454 10.4255 8.89444 8.38544 8.89444C8.22591 8.89444 8.07435 8.82313 7.97464 8.69834L5.31241 5.41028Z" fill="url(#paint2_linear_6561_3876)"/>
<path d="M78.6084 22.9738C78.6084 14.6387 76.4268 10.0216 75.2662 8.62314C74.1056 7.22472 72.8373 6.59483 70.187 6.73547C67.5347 6.8761 62.316 8.62314 59.4663 9.49665C61.3309 13.0264 61.6479 19.145 61.6479 22.9738V23.0312C61.6479 26.86 61.3309 32.9786 59.4663 36.5083C62.316 37.3819 67.5367 39.1309 70.187 39.2695C72.8373 39.4082 74.1056 38.7803 75.2662 37.3819C76.4268 35.9834 78.6084 31.3643 78.6084 23.0312V22.9738Z" fill="url(#paint3_linear_6561_3876)"/>
<path d="M94.6815 37.9126C94.6516 37.9126 91.7142 38.0314 89.3012 38.1919C86.9062 38.3523 76.3969 38.7742 75.4218 38.7504C74.5483 38.7286 74.2312 38.3701 74.2292 38.3662L74.0757 38.4929C74.0896 38.5108 74.4446 38.9228 75.4178 38.9485C76.3989 38.9723 86.9182 38.5484 89.3152 38.3899C91.7261 38.2295 94.6616 38.1106 94.6915 38.1106L94.6835 37.9126H94.6815Z" fill="url(#paint4_linear_6561_3876)"/>
<path d="M70.4024 41.0541C70.4283 41.3136 70.3127 41.5236 70.3007 41.5731L70.0893 41.5691C70.1053 41.5771 70.2249 41.274 70.203 41.074C70.179 40.8402 70.1073 40.0479 70.0853 39.7904C70.0714 39.626 70.0734 39.4656 70.0793 39.3646C69.8301 39.3527 69.156 39.2992 68.2208 39.0932C67.0302 38.8298 63.1157 37.7443 61.0018 37.0906C58.908 36.4449 58.1242 36.3399 55.4062 36.3399C54.3991 36.3399 50.9731 36.3558 47.1403 36.3795C47.1543 36.6034 47.1742 36.8272 47.1962 37.051C47.9918 37.051 48.8035 37.049 49.6211 37.0471C50.4945 37.0451 51.3819 37.0411 52.2594 37.0411C53.1368 37.0411 53.9923 37.0431 54.8199 37.051C57.179 37.0728 57.8989 37.2828 58.7325 37.5244L58.882 37.568C59.2729 37.6809 59.8293 37.8612 60.4734 38.0691C61.3069 38.3405 62.2502 38.6455 63.1157 38.8951C64.1128 39.1823 65.417 39.4854 66.5676 39.7528C67.1638 39.8914 67.7282 40.0222 68.147 40.1291C68.6415 40.2539 68.839 40.3728 68.831 40.5391C68.827 40.6085 68.815 40.8184 67.8319 40.9531C67.1479 41.0462 63.5325 41.1631 62.7049 41.1631C61.9571 41.1631 49.3219 41.4047 47.946 41.4305C47.9938 41.6385 48.0776 41.9158 48.1155 42.0247H47.9101C47.9041 42.0089 47.8004 41.7098 47.7426 41.4325C46.4563 41.4404 29.9585 41.5335 29.4839 41.5355H29.4759C29.2027 41.5355 29.0232 41.4642 28.9454 41.3235C28.8597 41.1671 28.9096 40.9432 29.093 40.66C29.2246 40.4599 29.4221 40.2084 29.6953 39.8637C29.9665 39.521 30.3394 39.0496 30.81 38.4178C31.7612 37.1421 32.2917 37.1402 33.8751 37.1421H33.9648C34.7086 37.1421 36.9341 37.1223 39.2912 37.1025C42.2326 37.0768 45.5629 37.049 46.9967 37.049C46.9748 36.8252 46.9569 36.6034 46.9409 36.3795C41.3612 36.4152 34.9958 36.4707 33.9827 36.5261C32.3356 36.6172 31.0353 36.6885 29.9625 38.2078C29.2625 39.1982 28.2196 40.3787 27.5296 41.1591C27.1307 41.6088 26.8177 41.9653 26.7519 42.0742C26.5983 42.3357 26.6482 42.506 26.6482 42.506L26.4448 42.51C26.4348 42.4882 26.371 42.3278 26.5784 41.9752C26.6521 41.8484 26.9413 41.5236 27.378 41.0284C28.066 40.25 29.105 39.0734 29.797 38.0929C30.9257 36.4944 32.2697 36.4211 33.9788 36.3261C35.6937 36.231 52.9174 36.1399 55.4042 36.1399C58.1482 36.1399 58.9419 36.2468 61.0597 36.9005C63.1715 37.5522 67.0761 38.6356 68.2626 38.8991C69.4113 39.1526 70.1771 39.1704 70.185 39.1704H70.2927L70.2827 39.2774C70.2827 39.2794 70.2608 39.529 70.2827 39.7726C70.3067 40.0281 70.3765 40.8204 70.4004 41.0541H70.4024ZM62.7029 40.965C63.5065 40.965 67.1439 40.8462 67.804 40.757C68.3584 40.6818 68.6076 40.5708 68.6336 40.5372C68.6336 40.5332 68.5857 40.4461 68.0991 40.3213C67.6823 40.2163 67.12 40.0856 66.5237 39.9469C65.3711 39.6795 64.0649 39.3745 63.0618 39.0853C62.1944 38.8357 61.2471 38.5287 60.4136 38.2573C59.7714 38.0493 59.2151 37.8691 58.8282 37.7582L58.6786 37.7146C57.859 37.4769 57.1531 37.2709 54.8199 37.2491C53.1587 37.2333 51.36 37.2392 49.6231 37.2432C48.8134 37.2451 48.0078 37.2471 47.2181 37.2471C47.3357 38.3464 47.5312 39.418 47.7944 40.345L47.8084 40.3965C47.8562 40.5708 47.9061 40.9036 47.9061 41.173C47.9061 41.1888 47.9081 41.2106 47.9101 41.2304C49.0986 41.2086 61.9471 40.963 62.7029 40.963V40.965ZM39.2912 37.3026C36.8304 37.3244 34.7066 37.3422 33.9628 37.3422H33.8731C32.2857 37.3422 31.8609 37.3422 30.9695 38.5366C30.4969 39.1704 30.124 39.6419 29.8528 39.9865C29.5836 40.3292 29.3882 40.5748 29.2605 40.7689C29.1229 40.9809 29.0731 41.1433 29.1209 41.2285C29.1608 41.2998 29.2904 41.3394 29.4819 41.3374C29.9525 41.3354 46.2031 41.2423 47.7087 41.2344C47.7087 41.2126 47.7047 41.1928 47.7047 41.173C47.7047 40.9294 47.6588 40.6124 47.6149 40.4461L47.601 40.3965C47.3338 39.4557 47.1343 38.3623 47.0167 37.2451C45.5948 37.2451 42.2466 37.2749 39.2932 37.2986L39.2912 37.3026Z" fill="black"/>
<path d="M25.6651 37.0391C25.6551 37.0391 25.6431 37.0391 25.6332 37.0391C24.1754 37.049 11.0099 37.0391 8.38552 37.0391C8.19408 37.0391 8.01659 37.1243 7.89694 37.2709L5.23472 40.5589C5.1709 40.6362 5.15894 40.7412 5.20082 40.8323C5.24269 40.9234 5.33044 40.9808 5.43214 40.9828C8.08838 41.0522 21.3876 41.3948 22.2331 41.3948C22.3787 41.3948 22.5143 41.4008 22.6439 41.4087C23.3658 41.4443 23.9361 41.4741 24.9372 40.3371C26.0918 39.0278 26.2334 38.8159 26.5166 38.392C26.698 38.1206 26.9673 37.7205 26.7958 37.4075C26.6621 37.1599 26.2912 37.0391 25.6671 37.0391H25.6651ZM20.4184 37.2431C22.9988 37.2431 25.1027 37.2431 25.6351 37.2392C26.3271 37.2313 26.5525 37.3798 26.6183 37.5026C26.7319 37.7126 26.5046 38.0513 26.3531 38.2771C26.0699 38.699 25.9303 38.907 24.7836 40.2083C23.8464 41.274 23.3438 41.2482 22.6519 41.2126C22.5182 41.2067 22.3807 41.1987 22.2311 41.1987C21.3876 41.1987 8.09237 40.8561 5.43414 40.7867C5.39824 40.7867 5.38428 40.761 5.38029 40.7511C5.37431 40.7412 5.36633 40.7134 5.38827 40.6857L8.0505 37.3976C8.13226 37.2966 8.2539 37.2392 8.38352 37.2392C10.0467 37.2392 15.9474 37.2431 20.4164 37.2431H20.4184Z" fill="black"/>
<path d="M2.36124 38.4316C2.36124 38.4316 2.01027 38.7585 2.05614 38.9902C2.102 39.222 2.5128 41.0601 2.86976 41.3295C3.22672 41.5989 6.85014 41.7752 7.02961 41.4107C4.96365 41.3592 4.12011 41.1572 3.48596 40.7848C3.129 40.5986 2.76407 39.1824 2.69627 38.9447C2.28945 38.8932 2.35925 38.4316 2.35925 38.4316H2.36124Z" fill="#BE1E2D"/>
<path d="M4.55665 26.6877C4.39513 26.6521 4.41307 19.5847 4.55665 19.5669C4.70023 19.5491 5.31045 19.7273 5.31045 19.9413V26.2936C5.31045 26.4897 4.55665 26.6858 4.55665 26.6858V26.6877Z" fill="#BE1E2D"/>
<path d="M45.6986 37.2827L33.3307 37.3441C32.8621 37.3441 32.1821 37.3441 31.6417 38.0037C31.201 38.5405 30.2099 39.9013 29.835 40.4123L29.7053 40.5906C29.6156 40.7134 29.5937 40.8422 29.6455 40.9452C29.7193 41.0878 29.9107 41.1571 30.2338 41.1571H33.8652L30.2158 41.062C29.8848 41.062 29.837 40.8798 29.825 40.854C29.805 40.8144 29.833 40.753 29.8669 40.7075L29.9985 40.5292C30.3714 40.0182 31.3605 38.6633 31.7972 38.1285C32.2778 37.5422 32.8482 37.5363 33.3128 37.5422L45.6986 37.4808V37.2827Z" fill="#231F20"/>
<path d="M29.8906 40.6104H46.1152L45.9039 37.2431C45.9039 37.2431 34.4673 37.3838 33.2069 37.3838C31.9466 37.3838 31.3304 38.5643 30.8359 39.2219C30.3692 39.8419 29.8906 40.6124 29.8906 40.6124V40.6104Z" fill="url(#paint5_linear_6561_3876)"/>
<path d="M49.8464 40.5035L63.5982 40.3173L63.9392 39.2893C63.9392 39.2893 59.0854 37.7661 58.3994 37.5879C57.7134 37.4096 56.9636 37.2551 55.5397 37.2373C54.1159 37.2194 48.6997 37.2412 48.6997 37.2412L49.7706 40.5035H49.8464Z" fill="url(#paint6_linear_6561_3876)"/>
<path d="M34.234 40.6105H33.7056V37.4393H34.234V40.6105Z" fill="black"/>
<path d="M45.904 37.2432H45.553L45.7285 40.6105H46.0794L45.904 37.2432Z" fill="black"/>
<path d="M48.7736 37.2432H48.4226L49.4715 40.5055H49.8225L48.7736 37.2432Z" fill="black"/>
<path d="M29.8589 5.35279H46.0835L45.8721 8.72009C45.8721 8.72009 34.4355 8.57946 33.1752 8.57946C31.9149 8.57946 31.2987 7.39893 30.8041 6.74131C30.3375 6.12133 29.8589 5.35081 29.8589 5.35081V5.35279Z" fill="url(#paint7_linear_6561_3876)"/>
<path d="M49.8146 5.50727L63.5664 5.69346L63.8775 6.69573C63.8775 6.69573 59.2411 8.12584 58.559 8.32391C57.8132 8.5418 56.868 8.72601 55.4441 8.74384C54.0203 8.76166 48.6699 8.76562 48.6699 8.76562L49.7408 5.50331H49.8166L49.8146 5.50727Z" fill="url(#paint8_linear_6561_3876)"/>
<path d="M34.202 8.52405H33.6736V5.35284H34.202V8.52405Z" fill="black"/>
<path d="M45.868 8.75183L45.521 8.72014L45.6965 5.35284H46.0475L45.868 8.75183Z" fill="black"/>
<path d="M48.7296 8.75183H48.3787L49.4376 5.45782H49.7905L48.7296 8.75183Z" fill="black"/>
<path d="M75.5195 7.05437C75.4776 7.05437 75.4437 7.05437 75.4158 7.05437C74.4426 7.07814 74.0897 7.49211 74.0737 7.50994L74.2273 7.63671C74.2273 7.63671 74.5464 7.27621 75.4198 7.25442C76.395 7.22669 86.9043 7.65256 89.2993 7.813C91.7122 7.97542 94.6516 8.09229 94.6796 8.09229L94.6875 7.89421C94.6576 7.89421 91.7222 7.77537 89.3112 7.61492C86.98 7.45844 76.9713 7.05437 75.5155 7.05437H75.5195Z" fill="url(#paint9_linear_6561_3876)"/>
<path d="M91.5068 5.49349C91.4888 5.49349 91.2136 5.50141 91.0481 5.82824C91.0142 5.89558 91.0142 5.96887 91.0481 6.04018C91.2236 6.4086 92.3643 6.68393 92.7113 6.76118L92.8848 6.79881C93.6146 6.95727 94.0554 7.05235 94.3824 7.62281C94.7394 8.24279 95.7285 10.5662 96.1094 11.7527L96.1173 11.7785L96.235 11.8874C96.7834 12.3885 97.2141 12.7847 97.4076 13.1234C97.595 13.4522 98.2152 18.5329 98.2152 22.9757V23.0332C98.2152 27.476 97.593 32.5567 97.4076 32.8855C97.2161 33.2242 96.7834 33.6203 96.235 34.1235L96.1193 34.2304L96.1113 34.2562C95.7285 35.4407 94.7413 37.7641 94.3844 38.3861C94.0573 38.9545 93.6166 39.0516 92.8868 39.2101L92.7133 39.2477C92.3683 39.3249 91.2276 39.6022 91.0501 39.9687C91.0162 40.04 91.0162 40.1133 91.0501 40.1806C91.2136 40.5075 91.4908 40.5134 91.5068 40.5154L91.6962 40.4223C91.6962 40.4223 91.3413 40.3173 91.2276 40.0935C91.2236 40.0856 91.2196 40.0757 91.2296 40.0558C91.3154 39.8776 91.9575 39.6201 92.7551 39.4438L92.9266 39.4062C93.6844 39.2417 94.185 39.1328 94.5559 38.4871C94.9228 37.8493 95.894 35.5694 96.2928 34.3453L96.3706 34.274C96.931 33.759 97.3757 33.3529 97.583 32.9865C97.8104 32.5864 98.4166 27.3928 98.4166 23.0371V22.9797C98.4166 18.624 97.8104 13.4324 97.583 13.0303C97.3757 12.6639 96.9329 12.2578 96.3726 11.7448L96.2928 11.6715C95.894 10.4454 94.9228 8.16752 94.5559 7.52971C94.185 6.88398 93.6844 6.77504 92.9266 6.61064L92.7551 6.57301C91.9575 6.39672 91.3154 6.13922 91.2296 5.96095C91.2196 5.94114 91.2236 5.93124 91.2276 5.92331C91.3413 5.69949 91.7162 5.60639 91.7202 5.60639L91.5068 5.50141V5.49349Z" fill="url(#paint10_linear_6561_3876)"/>
<path d="M70.4023 4.95071C70.3784 5.18444 70.3086 5.97477 70.2847 6.23029C70.2628 6.47392 70.2747 6.58484 70.2747 6.58682L70.2867 6.72944L70.185 6.73538C70.185 6.73538 69.5568 6.71755 68.4241 6.96911C67.2515 7.22859 63.1655 8.30811 61.0856 8.88253C60.7286 8.98157 60.4075 9.07466 60.1104 9.16182C58.6586 9.5857 57.6994 9.86499 55.4041 9.86499C52.9174 9.86499 35.6937 9.77387 33.9707 9.6788C32.2697 9.5857 30.9256 9.51043 29.7989 7.91196C29.1049 6.93148 28.066 5.7549 27.378 4.97646C26.9413 4.48325 26.6541 4.15643 26.5803 4.02966C26.3729 3.67708 26.4307 3.5206 26.4407 3.49881H26.6581C26.6581 3.49881 26.5983 3.66718 26.7538 3.92864C26.8176 4.03758 27.1327 4.39412 27.5295 4.84375C28.2195 5.62615 29.2645 6.80669 29.9624 7.79707C31.0353 9.31632 32.3355 9.38762 33.9927 9.47874C34.9997 9.5342 41.3611 9.58966 46.9409 9.62532C46.9548 9.40149 46.9748 9.17766 46.9967 8.95582C45.5629 8.95582 42.2326 8.92611 39.2912 8.90234C36.9341 8.88253 34.7066 8.86272 33.9647 8.86272H33.875C32.2976 8.86074 31.7612 8.86272 30.81 7.58711C30.3393 6.95525 29.9664 6.48383 29.6952 6.14115C29.422 5.79452 29.2246 5.54494 29.093 5.34488C28.9095 5.06164 28.8597 4.83979 28.9454 4.68133C29.0232 4.54069 29.2007 4.46939 29.4759 4.46939H29.4838C29.9565 4.47137 46.4443 4.56447 47.7425 4.57239C47.8023 4.29508 47.914 3.96627 47.922 3.94647L48.1114 4.01183C48.0735 4.12077 47.9958 4.36837 47.9479 4.57635C49.3159 4.6021 61.957 4.84375 62.7068 4.84375C63.5344 4.84375 67.1518 4.96062 67.8338 5.05371C68.817 5.1884 68.8289 5.39836 68.8329 5.46769C68.8429 5.63209 68.6435 5.75094 68.1489 5.87771C67.7282 5.98467 67.1638 6.1154 66.5655 6.25406C65.4169 6.52146 64.1147 6.82452 63.1196 7.11173C62.2561 7.3613 61.3109 7.66832 60.4773 7.9377C59.8332 8.14767 59.2748 8.32792 58.886 8.44082L58.7364 8.4844C57.9028 8.72605 57.183 8.93601 54.8238 8.9578C53.1607 8.97365 51.3619 8.9677 49.623 8.96374C48.8054 8.96176 47.9938 8.95978 47.1981 8.95978C47.1762 9.18361 47.1562 9.40743 47.1423 9.63126C50.9751 9.65503 54.4011 9.67087 55.4081 9.67087C57.6735 9.67087 58.6227 9.39357 60.0586 8.97563C60.3577 8.88847 60.6787 8.79538 61.0357 8.69634C63.1156 8.12192 67.2097 7.04042 68.3842 6.78094C69.2736 6.58484 69.838 6.50165 70.0773 6.52542C70.0733 6.4244 70.0753 6.3729 70.0893 6.22038C70.1132 5.96486 70.183 5.17058 70.2069 4.93685C70.2269 4.73679 70.1112 4.43571 70.1112 4.43373L70.3326 4.43769C70.3385 4.44958 70.4323 4.69717 70.4063 4.95665L70.4023 4.95071ZM29.4818 4.66746H29.4759C29.2864 4.66746 29.1608 4.70708 29.1209 4.77641C29.073 4.86158 29.1229 5.02598 29.2605 5.23594C29.3861 5.42808 29.5815 5.67567 29.8508 6.01834C30.124 6.363 30.4969 6.83442 30.9695 7.46826C31.8449 8.64286 32.2717 8.66267 33.7893 8.66267H33.9628C34.7066 8.66267 36.8324 8.68049 39.2912 8.70228C42.2466 8.72803 45.5928 8.75576 47.0146 8.75576C47.1323 7.63861 47.3317 6.54721 47.5989 5.60436L47.6129 5.55485C47.6568 5.39044 47.7026 5.07352 47.7026 4.82791C47.7026 4.81008 47.7026 4.78829 47.7066 4.7665C46.191 4.75858 29.9485 4.66548 29.4798 4.6635L29.4818 4.66746ZM49.621 8.7617C51.36 8.76765 53.1567 8.77161 54.8179 8.75576C57.149 8.73397 57.857 8.52797 58.6746 8.29028L58.8261 8.2467C59.213 8.13578 59.7674 7.95553 60.4115 7.74557C61.2451 7.47421 62.1923 7.16719 63.0598 6.91761C64.0609 6.62842 65.3651 6.32536 66.5157 6.05796C67.1139 5.91931 67.6783 5.78659 68.0971 5.68161C68.5637 5.56277 68.6235 5.47165 68.6315 5.48156C68.6016 5.43006 68.3543 5.32112 67.8019 5.24585C67.1419 5.15473 63.5065 5.03787 62.7008 5.03787C61.9431 5.03787 49.0866 4.79225 47.908 4.77046C47.906 4.79027 47.904 4.81206 47.904 4.82791C47.904 5.09729 47.8542 5.43006 47.8063 5.60436L47.7924 5.65587C47.5291 6.58088 47.3337 7.65446 47.2161 8.75378C48.0057 8.75378 48.8114 8.75576 49.621 8.75774V8.7617Z" fill="black"/>
<path d="M22.9171 4.52492C22.8014 4.52492 22.6818 4.53086 22.5601 4.53681C22.4305 4.54275 22.2949 4.55067 22.1493 4.55067C21.3038 4.55067 8.00464 4.89335 5.3484 4.96267C5.24869 4.96465 5.15895 5.02209 5.11708 5.11321C5.0752 5.20432 5.08716 5.30931 5.15098 5.38656L7.8132 8.67462C7.93285 8.82318 8.11034 8.90637 8.30178 8.90637H8.57697C18.5917 8.90043 24.6201 8.90043 25.5494 8.90637C26.1935 8.90637 26.5744 8.78951 26.71 8.53795C26.8815 8.22301 26.6123 7.82488 26.4348 7.56143C26.1457 7.12963 26.0021 6.91768 24.8495 5.61038C24.0179 4.66754 23.4834 4.52492 22.9131 4.52492H22.9171ZM8.30178 8.7083C8.17216 8.7083 8.05051 8.65085 7.96875 8.54983L5.30652 5.26177C5.28459 5.23404 5.29256 5.20631 5.29855 5.1964C5.30253 5.1865 5.31849 5.16075 5.35239 5.16075C8.00863 5.09142 21.3058 4.74875 22.1493 4.74875C22.2989 4.74875 22.4365 4.74083 22.5701 4.73488C23.2641 4.70121 23.7646 4.67546 24.7019 5.73913C25.8465 7.03851 25.9861 7.24649 26.2653 7.66245C26.4209 7.89618 26.6502 8.23489 26.5365 8.44485C26.4707 8.56766 26.2394 8.71424 25.5534 8.7083C24.6221 8.70235 18.5957 8.70235 8.57897 8.7083H8.30377H8.30178Z" fill="black"/>
<path d="M2.36124 7.57324C2.36124 7.57324 2.01027 7.24641 2.05614 7.01467C2.102 6.78292 2.5128 4.94477 2.86976 4.67538C3.22672 4.406 6.85014 4.22971 7.02961 4.59417C4.96365 4.64567 4.12011 4.84771 3.48596 5.22009C3.129 5.40629 2.76407 6.82253 2.69627 7.06023C2.28945 7.11172 2.35925 7.57324 2.35925 7.57324H2.36124Z" fill="#BE1E2D"/>
<path d="M8.63089 15.3715C8.64684 15.7736 8.01469 15.7379 7.97879 16.3321C7.87111 18.0851 7.81527 20.5135 7.81527 22.9935V23.0509C7.81527 25.5288 7.86911 27.9592 7.97879 29.7122C8.01469 30.3064 8.64684 30.2708 8.63089 30.6729C8.59699 31.5286 8.63089 31.7979 8.63089 32.1069C8.63089 32.5784 8.0785 32.6655 8.0785 33.1369C8.0785 33.8421 8.07052 34.5037 7.88905 34.8285C7.74547 35.084 7.44435 35.2405 7.09537 35.4208C6.72844 35.6109 6.31166 35.8248 5.9208 36.2131C5.15105 36.9776 3.18678 39.3962 3.16684 39.4219L2.92754 39.717C2.92754 39.717 2.76801 39.2278 2.69821 38.9644H2.69223C2.69223 38.9644 2.69223 38.9604 2.69223 38.9584C2.58853 38.9465 2.55463 38.9386 2.48085 38.8713C2.37515 38.7762 2.36718 38.6197 2.36319 38.4513C2.35721 38.1978 2.37316 37.7125 2.37316 37.7085L2.39709 37.7046C2.39908 37.7244 2.45692 38.1839 2.4629 38.4494C2.46489 38.5642 2.50278 38.6593 2.5666 38.7187C2.59053 38.7405 2.61844 38.7524 2.64836 38.7643C2.41105 37.657 1.30029 32 1.30029 23.0509V22.9935C1.30029 14.0463 2.41105 8.3873 2.64836 7.28005C2.61844 7.29193 2.59053 7.30382 2.5666 7.32561C2.50278 7.38503 2.46489 7.48011 2.4629 7.59499C2.45692 7.85843 2.40108 8.31995 2.39709 8.33976L2.37316 8.3358C2.37316 8.3358 2.35721 7.84655 2.36319 7.59301C2.36718 7.42464 2.37715 7.26816 2.48085 7.17308C2.55463 7.10574 2.58853 7.09782 2.69223 7.08593C2.69223 7.08593 2.69223 7.07999 2.69223 7.07801H2.69821C2.76801 6.81655 2.92754 6.3273 2.92754 6.3273L3.16684 6.62243C3.18878 6.64818 5.15105 9.0667 5.9208 9.83127C6.31166 10.2195 6.72844 10.4354 7.09537 10.6236C7.44435 10.8038 7.74747 10.9603 7.88905 11.2158C8.07052 11.5407 8.0785 12.2022 8.0785 12.9074C8.0785 13.3788 8.63089 13.466 8.63089 13.9374C8.63089 14.2464 8.59499 14.5158 8.63089 15.3715ZM3.07511 6.82447C3.04719 6.7908 2.99335 6.8007 2.97939 6.84428C2.93153 7.00472 2.85575 7.26222 2.85575 7.26222C2.65434 8.18129 1.49971 13.872 1.49971 22.9974V23.0549C1.49971 32.1802 2.65633 37.871 2.85575 38.79C2.85575 38.79 2.93153 39.0475 2.97939 39.208C2.99136 39.2496 3.04719 39.2615 3.07511 39.2278C3.5577 38.6375 4.91175 36.9915 5.62367 36.2428L5.51798 36.2725C5.50601 36.2309 4.3454 31.9683 4.3454 23.037V22.9796C4.3454 14.0483 5.50801 9.78572 5.51798 9.74412L5.57182 9.75798C4.84793 8.98549 3.54773 7.40682 3.0771 6.83041L3.07511 6.82447ZM7.71756 11.3129C7.60389 11.1089 7.33866 10.9722 7.00563 10.7999C6.64469 10.6137 6.194 10.3819 5.78121 9.96993C5.7513 9.94022 5.71939 9.90654 5.68748 9.87287C5.55387 10.4037 4.84793 13.4382 4.61661 19.1904C4.61661 19.232 4.59467 19.2954 4.55878 19.3132C4.44511 19.3726 4.44511 21.6485 4.44511 22.9697V23.0271C4.44511 24.3483 4.44511 26.6262 4.55878 26.6836C4.59667 26.7034 4.61661 26.7668 4.61661 26.8064C4.85392 32.6972 5.58777 35.7377 5.69546 36.1576C5.72537 36.1279 5.75528 36.0962 5.78121 36.0705C6.194 35.6604 6.64469 35.4287 7.00563 35.2405C7.34066 35.0682 7.60389 34.9315 7.71756 34.7275C7.91099 34.3809 7.89105 33.4816 7.8731 32.6893C7.86712 32.4595 7.86313 32.2377 7.86313 32.0317C7.86313 31.7266 7.83721 31.1106 7.80131 30.2569C7.72753 28.4802 7.61585 25.824 7.61585 23.0747V22.9875C7.61585 20.2382 7.72753 17.5543 7.80131 15.7775C7.83721 14.9238 7.86313 14.3078 7.86313 14.0028C7.86313 13.7968 7.86712 13.5749 7.8731 13.3451C7.89105 12.5528 7.91099 11.6536 7.71756 11.3069V11.3129Z" fill="#231F20"/>
<path d="M33.8652 4.84772H30.2338C29.9107 4.84772 29.7173 4.91704 29.6455 5.06164C29.5937 5.16464 29.6156 5.29339 29.7053 5.4162L29.833 5.5905C30.2079 6.10352 31.201 7.46431 31.6417 8.00307C32.1821 8.66267 32.8661 8.66069 33.3128 8.66267L45.8701 8.75378L45.5212 8.52401L33.3307 8.46459C32.8541 8.46459 32.2758 8.46459 31.7952 7.87828C31.3585 7.34348 30.3674 5.98666 29.9925 5.47562L29.8649 5.29933C29.831 5.25377 29.8031 5.19237 29.823 5.15275C29.835 5.12898 29.9028 4.9725 30.2338 4.9725L33.8652 4.8497V4.84772Z" fill="#231F20"/>
<path d="M78.6084 22.9738C78.6084 14.6387 76.4268 10.0216 75.2662 8.62314C74.1056 7.22472 72.8373 6.59483 70.187 6.73547C67.5347 6.8761 62.316 8.62314 59.4663 9.49666C61.3309 13.0264 61.6479 19.145 61.6479 22.9738V23.0312C61.6479 26.86 61.3309 32.9786 59.4663 36.5083C62.316 37.3819 67.5367 39.1309 70.187 39.2695C72.8373 39.4082 74.1056 38.7803 75.2662 37.3819C76.4268 35.9834 78.6084 31.3643 78.6084 23.0312V22.9738Z" stroke="#231F20" stroke-width="0.255208" stroke-miterlimit="10"/>
<path d="M77.1825 21.9873C77.5454 21.815 77.4557 21.5317 77.364 21.3416C77.2722 21.1514 73.3377 13.989 73.3377 13.989C73.3377 13.989 72.6497 13.2917 72.5959 13.1769L72.1033 12.1528L71.882 11.8854L70.7832 9.35794L69.7223 7.395L69.5508 7.47621C69.5508 7.47621 71.1681 10.996 71.7882 12.7213C72.3327 14.2326 73.4474 17.8217 73.4474 17.8217L73.581 17.7584L73.24 15.8093L72.4942 13.5255L72.0973 12.9689L73.1124 14.1653L73.581 15.0586L75.9541 20.165L76.1216 20.5116L76.5603 20.3036L76.1754 20.6721L76.6939 21.7516C76.8754 22.1299 77.1805 21.9853 77.1805 21.9853L77.1825 21.9873Z" fill="#232323"/>
<path d="M51.5455 42.51V41.7415C51.5455 41.7415 50.9392 41.7157 50.5225 41.7969C50.5225 42.1733 50.9293 42.4961 51.5455 42.51ZM53.1787 42.51H51.6312V41.7256C51.6312 41.7256 52.7659 41.7098 54.6763 41.7375C54.6763 42.3159 54.0721 42.51 53.1787 42.51Z" fill="#282828"/>
<path d="M29.9188 42.6783V41.9098C29.9188 41.9098 29.3125 41.8841 28.8958 41.9653C28.8958 42.3416 29.3026 42.6645 29.9188 42.6783ZM31.552 42.6783H30.0045V41.894C30.0045 41.894 31.1392 41.8781 33.0496 41.9058C33.0496 42.4842 32.4454 42.6783 31.552 42.6783Z" fill="#282828"/>
<path d="M50.5205 4.21789C50.9373 4.30108 51.5435 4.27335 51.5435 4.27335V3.50481C50.9273 3.51868 50.5205 3.83956 50.5205 4.21789ZM54.6764 4.27731C52.766 4.30504 51.6313 4.28919 51.6313 4.28919V3.50481C51.6313 3.50481 52.2854 3.50481 53.1787 3.50481C54.0721 3.50481 54.6764 3.69893 54.6764 4.27731Z" fill="#282828"/>
<path d="M28.8958 4.04955C29.3125 4.13274 29.9188 4.10501 29.9188 4.10501V3.33648C29.3026 3.35034 28.8958 3.67123 28.8958 4.04955ZM33.0496 4.10897C31.1392 4.1367 30.0045 4.12086 30.0045 4.12086V3.33648C30.0045 3.33648 30.6586 3.33648 31.552 3.33648C32.4454 3.33648 33.0496 3.53059 33.0496 4.10897Z" fill="#282828"/>
<path d="M66.789 40.3926L66.45 41.175C66.111 42.3912 64.8387 44.8137 64.8387 44.8137C64.7709 44.9682 64.6533 45.095 64.5057 45.1742L63.1038 45.9368C62.9822 46.0022 62.7668 46.0081 62.6013 45.9923L62.358 45.9665C62.2144 45.9249 62.1366 45.7704 62.1905 45.6318L63.5964 42.3615C63.6163 42.31 63.726 42.0505 63.8058 41.8703C63.8516 41.7673 63.9174 41.6762 63.9972 41.5969L64.2963 41.3058C64.2963 41.3058 64.4698 41.0641 64.2564 40.5729C64.2166 40.4481 64.1567 40.3352 64.1029 40.2461C64.049 40.1569 64.1109 40.046 64.2166 40.046H66.5577C66.7053 40.046 66.8588 40.2282 66.7871 40.3926H66.789Z" fill="#232323"/>
<path d="M62.2643 45.5326H62.3301C62.3839 45.5326 62.4338 45.4989 62.4537 45.4494L63.3232 43.5083C63.3471 43.4468 63.3013 43.3795 63.2355 43.3795H63.1537C63.0839 43.3795 63.0221 43.4231 62.9981 43.4865L62.1805 45.4118C62.1586 45.4692 62.2025 45.5326 62.2643 45.5326Z" fill="#F7941D"/>
<path d="M66.5597 5.95898H64.2185C64.1148 5.95898 64.051 5.84608 64.1048 5.75893C64.1587 5.66979 64.2584 5.52123 64.2983 5.39644C64.5136 4.90323 64.2983 4.69922 64.2983 4.69922L63.9991 4.40805C63.9174 4.32881 63.8536 4.2377 63.8077 4.1347C63.7259 3.95643 63.6183 3.69497 63.5983 3.64347L62.1924 0.373226C62.1386 0.234573 62.2164 0.0800757 62.3599 0.0384798L62.6032 0.0127287C62.7687 -0.00509834 62.9841 0.00282478 63.1058 0.0681901L64.5077 0.830785C64.6552 0.911997 64.7729 1.03876 64.8407 1.19128C64.8407 1.19128 66.0871 3.5682 66.4261 4.78439L66.791 5.61235C66.8628 5.77675 66.7092 5.95898 66.5617 5.95898H66.5597Z" fill="#232323"/>
<path d="M62.2643 0.472274H62.3301C62.3839 0.472274 62.4338 0.505949 62.4537 0.555468L63.3232 2.49661C63.3471 2.55802 63.3013 2.62537 63.2355 2.62537H63.1537C63.0839 2.62537 63.0221 2.58179 62.9981 2.5184L62.1805 0.5931C62.1586 0.535658 62.2025 0.472274 62.2643 0.472274Z" fill="#F7941D"/>
<path opacity="0.25" d="M97.3659 32.9291L78.1281 33.1291L77.9087 33.9452L96.1355 34.1453L97.3659 32.9291Z" fill="url(#paint11_linear_6561_3876)"/>
<path opacity="0.25" d="M97.3659 13.2065L78.1281 12.7945L77.9087 12.1409L96.0996 11.8715L97.3659 13.2065Z" fill="url(#paint12_linear_6561_3876)"/>
<path d="M56.816 32.0833C56.7682 32.8914 56.0941 33.5253 55.2785 33.5253H48.8214C48.1773 33.5253 47.6548 33.0043 47.6548 32.3665V13.6384C47.6548 12.9986 48.1773 12.4796 48.8214 12.4796H55.2785C56.0941 12.4796 56.7702 13.1135 56.816 13.9137C56.822 13.9632 57.3425 18.9766 57.3425 22.9757V23.0332C57.3425 27.0323 56.822 32.0437 56.816 32.0853V32.0833Z" fill="black"/>
<path d="M3.08907 6.81662C3.06115 6.78295 3.00731 6.79286 2.99335 6.83643C2.94549 6.99688 2.86971 7.25438 2.86971 7.25438C2.6683 8.17345 1.51367 13.8642 1.51367 22.9896V23.047C1.51367 32.1724 2.67029 37.8631 2.86971 38.7822C2.86971 38.7822 2.94549 39.0397 2.99335 39.2001C3.00532 39.2417 3.06115 39.2536 3.08907 39.2199C3.57166 38.6297 4.92571 36.9837 5.63763 36.2349L5.53194 36.2646C5.51997 36.2231 4.35936 31.9604 4.35936 23.0292V22.9717C4.35936 14.0405 5.52197 9.77787 5.53194 9.73627L5.58578 9.75014C4.8619 8.97764 3.56169 7.39897 3.09107 6.82257L3.08907 6.81662Z" fill="url(#paint13_linear_6561_3876)"/>
<path d="M97.7684 13.0738H98.4245C98.6299 13.0738 98.7675 12.8639 98.6858 12.6777C98.1553 11.4833 96.5161 7.93374 95.2837 6.85819C94.3903 6.06984 92.6175 5.95298 92.2565 5.93713C92.2127 5.93713 92.1728 5.92327 92.1329 5.90346C92.0372 5.84998 91.8397 5.745 91.6982 5.68557C91.6343 5.65982 91.5645 5.65586 91.5007 5.67765C91.3771 5.72123 91.2255 5.82027 91.2515 5.93911C91.3252 6.27584 92.781 6.56503 93.5368 6.74528C93.7761 6.80273 94.2866 7.0939 94.4461 7.38507C95.0324 8.44676 96.0993 11.1564 96.2728 11.6021C96.2888 11.6417 96.3127 11.6794 96.3446 11.7071C96.544 11.8873 97.3018 12.5866 97.5231 12.9352C97.577 13.0203 97.6667 13.0758 97.7664 13.0758L97.7684 13.0738Z" fill="url(#paint14_linear_6561_3876)"/>
<path d="M95.2837 6.85828C94.2846 5.97684 92.1907 5.93524 92.1907 5.93524C92.1907 5.93524 91.7959 5.71141 91.6164 5.65397C91.5167 5.64803 91.2156 5.7748 91.2515 5.93722C91.3253 6.27395 92.781 6.56314 93.5368 6.74339C93.7761 6.80083 94.2866 7.09201 94.4462 7.38318C94.851 7.16728 95.2837 6.85828 95.2837 6.85828Z" fill="#F7941D"/>
<path d="M97.7685 32.931H98.4106C98.624 32.931 98.7656 33.1469 98.6798 33.341C98.1434 34.5493 96.5122 38.075 95.2838 39.1466C94.3924 39.933 92.6235 40.0518 92.2586 40.0677C92.2127 40.0677 92.1708 40.0816 92.131 40.1033C92.0352 40.1568 91.8418 40.2598 91.7002 40.3192C91.6344 40.347 91.5626 40.3509 91.4968 40.3272C91.3732 40.2836 91.2256 40.1846 91.2515 40.0677C91.3253 39.731 92.7811 39.4418 93.5369 39.2615C93.7762 39.2041 94.2867 38.9129 94.4462 38.6217C95.0325 37.562 96.0974 34.8563 96.2729 34.4067C96.2888 34.3651 96.3147 34.3274 96.3467 34.2977C96.5481 34.1155 97.3039 33.4202 97.5232 33.0696C97.5771 32.9845 97.6668 32.929 97.7665 32.929L97.7685 32.931Z" fill="url(#paint15_linear_6561_3876)"/>
<path d="M95.2837 39.1467C94.2846 40.0281 92.1907 40.0697 92.1907 40.0697C92.1907 40.0697 91.7959 40.2936 91.6164 40.351C91.5167 40.3569 91.2156 40.2302 91.2515 40.0677C91.3253 39.731 92.781 39.4418 93.5368 39.2616C93.7761 39.2041 94.2866 38.913 94.4462 38.6218C94.851 38.8377 95.2837 39.1467 95.2837 39.1467Z" fill="#F7941D"/>
<path opacity="0.5" d="M75.2663 37.3819C74.1476 38.7288 72.9252 39.3607 70.4644 39.2794C72.4047 39.2062 73.4776 38.5763 74.4687 37.3819C75.6293 35.9834 77.8109 31.3643 77.8109 23.0312V22.9738C77.8109 14.6387 75.6293 10.0216 74.4687 8.62315C73.4776 7.42875 72.4067 6.79887 70.4644 6.72558C72.9252 6.64437 74.1456 7.27623 75.2663 8.62315C76.4269 10.0216 78.6086 14.6407 78.6086 22.9738V23.0312C78.6086 31.3663 76.4269 35.9834 75.2663 37.3819Z" fill="#231F20"/>
<path d="M74.999 36.8945C75.3998 36.8945 75.4437 36.6014 75.4437 36.3914C75.4437 36.1815 74.999 28.0326 74.999 28.0326C74.999 28.0326 74.6819 27.1076 74.6819 26.9828V25.8478L74.5981 25.5111L74.7038 22.7598L74.5981 20.5334H74.4087C74.4087 20.5334 74.3409 24.4019 74.1515 26.2242C73.9859 27.8207 73.4355 31.5366 73.4355 31.5366H73.5831L74.1215 29.6331L74.4386 27.2522L74.323 26.5807L74.7198 28.094L74.7557 29.1002L74.6819 34.7236V35.1079H75.1705L74.664 35.2743V36.4706C74.664 36.8906 75.003 36.8906 75.003 36.8906L74.999 36.8945Z" fill="#232323"/>
<path d="M99.2801 31.485C99.2343 31.9188 99.0249 32.3526 98.9152 32.618C98.8613 32.7448 98.7357 32.828 98.5981 32.828H97.6748C97.8882 32.0694 98.3528 27.0026 98.3528 23.0034V22.9638C98.3528 18.9646 97.8902 13.8998 97.6748 13.1392H98.5602C98.7217 13.1392 98.8673 13.2343 98.9291 13.3828C99.0428 13.6483 99.2362 14.0642 99.2801 14.4802C99.6969 17.9327 99.8544 22.9341 99.8544 22.9341V22.9915C99.8544 22.9915 99.6969 28.0326 99.2801 31.4831V31.485Z" fill="url(#paint16_linear_6561_3876)"/>
</g>
<defs>
<linearGradient id="paint0_linear_6561_3876" x1="0" y1="22.9856" x2="2.6363" y2="22.9856" gradientUnits="userSpaceOnUse">
<stop stop-color="#1A1A1A"/>
<stop offset="1"/>
</linearGradient>
<linearGradient id="paint1_linear_6561_3876" x1="16.0132" y1="41.3236" x2="16.0132" y2="37.1382" gradientUnits="userSpaceOnUse">
<stop stop-color="#1A1A1A"/>
<stop offset="1"/>
</linearGradient>
<linearGradient id="paint2_linear_6561_3876" x1="16.0132" y1="4.71106" x2="16.0132" y2="8.89444" gradientUnits="userSpaceOnUse">
<stop stop-color="#1A1A1A"/>
<stop offset="1"/>
</linearGradient>
<linearGradient id="paint3_linear_6561_3876" x1="59.4643" y1="23.0015" x2="85.6299" y2="23.0015" gradientUnits="userSpaceOnUse">
<stop/>
<stop offset="0.24" stop-color="#020202"/>
<stop offset="0.41" stop-color="#0B0B0B"/>
<stop offset="0.55" stop-color="#1A1A1B"/>
<stop offset="0.68" stop-color="#2E2F30"/>
<stop offset="0.8" stop-color="#494A4C"/>
<stop offset="0.92" stop-color="#6A6B6E"/>
<stop offset="1" stop-color="#87898C"/>
</linearGradient>
<linearGradient id="paint4_linear_6561_3876" x1="74.0737" y1="38.4315" x2="94.6895" y2="38.4315" gradientUnits="userSpaceOnUse">
<stop/>
<stop offset="0.21" stop-color="#1A1A1A"/>
<stop offset="0.51"/>
<stop offset="0.79" stop-color="#1A1A1A"/>
<stop offset="1"/>
</linearGradient>
<linearGradient id="paint5_linear_6561_3876" x1="38.0029" y1="40.6104" x2="38.0029" y2="37.2431" gradientUnits="userSpaceOnUse">
<stop stop-color="#1A1A1A"/>
<stop offset="1"/>
</linearGradient>
<linearGradient id="paint6_linear_6561_3876" x1="56.3195" y1="40.5055" x2="56.3195" y2="37.2313" gradientUnits="userSpaceOnUse">
<stop stop-color="#1A1A1A"/>
<stop offset="1"/>
</linearGradient>
<linearGradient id="paint7_linear_6561_3876" x1="37.9712" y1="5.35279" x2="37.9712" y2="8.72009" gradientUnits="userSpaceOnUse">
<stop stop-color="#1A1A1A"/>
<stop offset="1"/>
</linearGradient>
<linearGradient id="paint8_linear_6561_3876" x1="56.2737" y1="5.50529" x2="56.2737" y2="8.76761" gradientUnits="userSpaceOnUse">
<stop stop-color="#1A1A1A"/>
<stop offset="1"/>
</linearGradient>
<linearGradient id="paint9_linear_6561_3876" x1="3.20865e-05" y1="7.57333" x2="0.19945" y2="7.57333" gradientUnits="userSpaceOnUse">
<stop/>
<stop offset="0.21" stop-color="#1A1A1A"/>
<stop offset="0.51"/>
<stop offset="0.79" stop-color="#1A1A1A"/>
<stop offset="1"/>
</linearGradient>
<linearGradient id="paint10_linear_6561_3876" x1="91.0222" y1="23.0015" x2="98.4166" y2="23.0015" gradientUnits="userSpaceOnUse">
<stop/>
<stop offset="0.21" stop-color="#1A1A1A"/>
<stop offset="0.51"/>
<stop offset="0.79" stop-color="#1A1A1A"/>
<stop offset="1"/>
</linearGradient>
<linearGradient id="paint11_linear_6561_3876" x1="77.9087" y1="33.5372" x2="97.3659" y2="33.5372" gradientUnits="userSpaceOnUse">
<stop offset="0.66" stop-color="white"/>
<stop offset="0.81" stop-color="#848484"/>
<stop offset="0.94" stop-color="#252525"/>
<stop offset="0.99"/>
</linearGradient>
<linearGradient id="paint12_linear_6561_3876" x1="77.9087" y1="12.539" x2="97.3659" y2="12.539" gradientUnits="userSpaceOnUse">
<stop offset="0.66" stop-color="white"/>
<stop offset="0.81" stop-color="#848484"/>
<stop offset="0.94" stop-color="#252525"/>
<stop offset="0.99"/>
</linearGradient>
<linearGradient id="paint13_linear_6561_3876" x1="1.51367" y1="23.0153" x2="5.63763" y2="23.0153" gradientUnits="userSpaceOnUse">
<stop stop-color="#1A1A1A"/>
<stop offset="1"/>
</linearGradient>
<linearGradient id="paint14_linear_6561_3876" x1="94.9806" y1="5.6618" x2="94.9806" y2="13.0738" gradientUnits="userSpaceOnUse">
<stop stop-color="#1A1A1A"/>
<stop offset="0.35" stop-color="white"/>
<stop offset="0.6" stop-color="white"/>
<stop offset="1" stop-color="#212121"/>
</linearGradient>
<linearGradient id="paint15_linear_6561_3876" x1="94.9767" y1="40.341" x2="94.9767" y2="32.931" gradientUnits="userSpaceOnUse">
<stop stop-color="#1A1A1A"/>
<stop offset="0.35" stop-color="white"/>
<stop offset="0.6" stop-color="white"/>
<stop offset="1" stop-color="#212121"/>
</linearGradient>
<linearGradient id="paint16_linear_6561_3876" x1="98.7636" y1="32.826" x2="98.7636" y2="13.1392" gradientUnits="userSpaceOnUse">
<stop/>
<stop offset="0.47" stop-color="#A1A1A1"/>
<stop offset="0.82" stop-color="#383838"/>
<stop offset="1"/>
</linearGradient>
<clipPath id="clip0_6561_3876">
<rect width="100" height="46" fill="white" transform="matrix(1 0 0 -1 0 46)"/>
</clipPath>
</defs>
</svg>
