<svg width="100" height="56" viewBox="0 0 100 56" fill="none" xmlns="http://www.w3.org/2000/svg">
<path d="M27.0167 47.2066V42.7617L26.2049 41.9535H21.5373V40.5622L34.3988 41.6505H77.4734V38.7714H79.2999V41.9535H74.6322L73.8204 42.7617V47.2066L74.6322 48.0148H85.1852L85.997 47.2066V42.7617L85.1852 41.9535H80.5175V38.7714H87.6712C87.7553 38.7714 87.8234 38.7036 87.8234 38.6199V33.4678H100V32.5587H98.3274L95.5099 31.5749V28.9219H95.6621C95.7462 28.9219 95.8143 28.8541 95.8143 28.7704V27.2551C95.8143 27.1714 95.7462 27.1036 95.6621 27.1036H95.5099V24.4507L98.3274 23.4668H100V22.5576H87.8234V17.4056C87.8234 17.3219 87.7553 17.2541 87.6712 17.2541H80.5175V14.0719H85.1852L85.997 13.2637V8.8189L85.1852 8.01071H74.6322L73.8204 8.8189V13.2637L74.6322 14.0719H79.2999V17.2541H77.4734V14.375H34.3988L21.5373 15.4634V14.0719H26.2049L27.0167 13.2637V8.8189L26.2049 8.01071H15.652L14.8402 8.8189V13.2637L15.652 14.0719H20.3196V15.5665L13.8508 16.1138V16.1176H6.69711C6.61305 16.1176 6.5449 16.1854 6.5449 16.2691V22.5576H0V23.4668H1.67279L6.08828 25.0054V26.1186H5.02283C4.93877 26.1186 4.87062 26.1865 4.87062 26.2701V28.4673C4.87062 28.551 4.93877 28.6189 5.02283 28.6189H6.08828V31.0201L1.67279 32.5587H0V33.4678H6.5449V39.7564C6.5449 39.84 6.61305 39.9079 6.69711 39.9079H13.8508V39.9117L20.3196 40.4592V41.9535H15.652L14.8402 42.7617V47.2066L15.652 48.0148H26.2049L27.0167 47.2066Z" fill="black"/>
<path fill-rule="evenodd" clip-rule="evenodd" d="M44.7488 38.544H44.5966C44.3444 38.544 44.1399 38.3405 44.1399 38.0894V40.8927H42.9223V35.4376H35.0075V34.2254H42.9223V28.7703H44.1399V31.119C44.1399 30.868 44.3444 30.6644 44.5966 30.6644H44.7488V28.0126H68.9497V34.0739H71.2328C71.4009 34.0739 71.5372 34.2095 71.5372 34.3769V35.2861C71.5372 35.4535 71.4009 35.5892 71.2328 35.5892H68.9497V41.6504H75.6468V14.3749H34.3987V41.6504H44.7488V38.544ZM47.0319 14.5264H65.2967V27.8611H47.0319V14.5264ZM73.0179 24.9408C71.9479 26.006 70.2132 26.006 69.1433 24.9408C68.0733 23.8756 68.0733 22.1486 69.1433 21.0835C70.2132 20.0183 71.9479 20.0183 73.0179 21.0835C74.0878 22.1486 74.0878 23.8756 73.0179 24.9408Z" fill="#E58900"/>
<path d="M21.5372 15.4633V14.0719H20.3196V15.5663L21.5372 15.4633Z" fill="url(#paint0_linear_2585_154906)"/>
<path d="M21.5372 40.5621L20.3196 40.4591V41.9535H21.5372V40.5621Z" fill="url(#paint1_linear_2585_154906)"/>
<rect width="0.608828" height="27.2755" transform="matrix(1 0 0 -1 76.8645 41.6505)" fill="#222222"/>
<rect width="1.21766" height="27.2755" transform="matrix(1 0 0 -1 75.647 41.6505)" fill="url(#paint2_linear_2585_154906)"/>
<path d="M15.6519 14.0719H26.2049L27.0166 13.2637V8.81884L26.2049 8.01068H15.6519L14.8401 8.81884V13.2637L15.6519 14.0719Z" fill="#111111"/>
<path d="M16.0579 8.01068H15.652L15.2461 10.6372H15.652L16.0579 8.01068Z" fill="#888888"/>
<path d="M17.3263 8.01068H16.9204L16.5145 10.6372H16.9204L17.3263 8.01068Z" fill="#888888"/>
<path d="M18.5946 8.01068H18.1888L17.7829 10.6372H18.1888L18.5946 8.01068Z" fill="#888888"/>
<path d="M19.863 8.01068H19.4572L19.0513 10.6372H19.4572L19.863 8.01068Z" fill="#888888"/>
<path d="M21.1314 8.01068H20.7255L20.3197 10.6372H20.7255L21.1314 8.01068Z" fill="#888888"/>
<path d="M22.3998 8.01068H21.9939L21.5881 10.6372H21.9939L22.3998 8.01068Z" fill="#888888"/>
<path d="M23.6682 8.01068H23.2623L22.8564 10.6372H23.2623L23.6682 8.01068Z" fill="#888888"/>
<path d="M24.9366 8.01068H24.5307L24.1248 10.6372H24.5307L24.9366 8.01068Z" fill="#888888"/>
<path d="M26.205 8.01068H25.7991L25.3932 10.6372H25.7991L26.205 8.01068Z" fill="#888888"/>
<path d="M27.0168 8.81884L26.9525 8.75487L26.6616 10.6372H27.0168V8.81884Z" fill="#888888"/>
<path d="M15.652 11.4454H15.2461L15.652 14.0719H16.0579L15.652 11.4454Z" fill="#888888"/>
<path d="M16.9204 11.4454H16.5145L16.9204 14.0719H17.3263L16.9204 11.4454Z" fill="#888888"/>
<path d="M18.1888 11.4454H17.7829L18.1888 14.0719H18.5946L18.1888 11.4454Z" fill="#888888"/>
<path d="M19.4572 11.4454H19.0513L19.4572 14.0719H19.863L19.4572 11.4454Z" fill="#888888"/>
<path d="M20.7255 11.4454H20.3197L20.7255 14.0719H21.1314L20.7255 11.4454Z" fill="#888888"/>
<path d="M21.9939 11.4454H21.5881L21.9939 14.0719H22.3998L21.9939 11.4454Z" fill="#888888"/>
<path d="M23.2623 11.4454H22.8564L23.2623 14.0719H23.6682L23.2623 11.4454Z" fill="#888888"/>
<path d="M24.5307 11.4454H24.1248L24.5307 14.0719H24.9366L24.5307 11.4454Z" fill="#888888"/>
<path d="M25.7991 11.4454H25.3932L25.7991 14.0719H26.205L25.7991 11.4454Z" fill="#888888"/>
<path d="M27.0168 13.2637V11.4454H26.6616L26.9525 13.3278L27.0168 13.2637Z" fill="#888888"/>
<path opacity="0.5" d="M26.2049 14.0719H15.6519L14.8401 13.2637V8.81884L15.6519 8.01068H26.2049L27.0166 8.81884V13.2637L26.2049 14.0719Z" fill="url(#paint3_linear_2585_154906)"/>
<path d="M74.6321 14.0719H85.1851L85.9969 13.2637V8.81884L85.1851 8.01068H74.6321L73.8203 8.81884V13.2637L74.6321 14.0719Z" fill="#111111"/>
<path d="M75.0381 8.01068H74.6322L74.2263 10.6372H74.6322L75.0381 8.01068Z" fill="#888888"/>
<path d="M76.3065 8.01068H75.9006L75.4947 10.6372H75.9006L76.3065 8.01068Z" fill="#888888"/>
<path d="M77.5749 8.01068H77.169L76.7631 10.6372H77.169L77.5749 8.01068Z" fill="#888888"/>
<path d="M78.8433 8.01068H78.4374L78.0315 10.6372H78.4374L78.8433 8.01068Z" fill="#888888"/>
<path d="M80.1117 8.01068H79.7058L79.2999 10.6372H79.7058L80.1117 8.01068Z" fill="#888888"/>
<path d="M81.38 8.01068H80.9742L80.5683 10.6372H80.9742L81.38 8.01068Z" fill="#888888"/>
<path d="M82.6484 8.01068H82.2426L81.8367 10.6372H82.2426L82.6484 8.01068Z" fill="#888888"/>
<path d="M83.9168 8.01068H83.5109L83.1051 10.6372H83.5109L83.9168 8.01068Z" fill="#888888"/>
<path d="M85.1852 8.01068H84.7793L84.3735 10.6372H84.7793L85.1852 8.01068Z" fill="#888888"/>
<path d="M85.997 8.81884L85.9327 8.75487L85.6418 10.6372H85.997V8.81884Z" fill="#888888"/>
<path d="M74.6322 11.4454H74.2263L74.6322 14.0719H75.0381L74.6322 11.4454Z" fill="#888888"/>
<path d="M75.9006 11.4454H75.4947L75.9006 14.0719H76.3065L75.9006 11.4454Z" fill="#888888"/>
<path d="M77.169 11.4454H76.7631L77.169 14.0719H77.5749L77.169 11.4454Z" fill="#888888"/>
<path d="M78.4374 11.4454H78.0315L78.4374 14.0719H78.8433L78.4374 11.4454Z" fill="#888888"/>
<path d="M79.7058 11.4454H79.2999L79.7058 14.0719H80.1117L79.7058 11.4454Z" fill="#888888"/>
<path d="M80.9742 11.4454H80.5683L80.9742 14.0719H81.38L80.9742 11.4454Z" fill="#888888"/>
<path d="M82.2426 11.4454H81.8367L82.2426 14.0719H82.6484L82.2426 11.4454Z" fill="#888888"/>
<path d="M83.5109 11.4454H83.1051L83.5109 14.0719H83.9168L83.5109 11.4454Z" fill="#888888"/>
<path d="M84.7793 11.4454H84.3735L84.7793 14.0719H85.1852L84.7793 11.4454Z" fill="#888888"/>
<path d="M85.997 13.2637V11.4454H85.6418L85.9327 13.3278L85.997 13.2637Z" fill="#888888"/>
<path opacity="0.5" d="M85.1851 14.0719H74.6321L73.8203 13.2637V8.81884L74.6321 8.01068H85.1851L85.9969 8.81884V13.2637L85.1851 14.0719Z" fill="url(#paint4_linear_2585_154906)"/>
<path d="M15.6519 48.0148H26.2049L27.0166 47.2066V42.7617L26.2049 41.9535H15.6519L14.8401 42.7617V47.2066L15.6519 48.0148Z" fill="#111111"/>
<path d="M16.0579 41.9535H15.652L15.2461 44.5801H15.652L16.0579 41.9535Z" fill="#888888"/>
<path d="M17.3263 41.9535H16.9204L16.5145 44.5801H16.9204L17.3263 41.9535Z" fill="#888888"/>
<path d="M18.5946 41.9535H18.1888L17.7829 44.5801H18.1888L18.5946 41.9535Z" fill="#888888"/>
<path d="M19.863 41.9535H19.4572L19.0513 44.5801H19.4572L19.863 41.9535Z" fill="#888888"/>
<path d="M21.1314 41.9535H20.7255L20.3197 44.5801H20.7255L21.1314 41.9535Z" fill="#888888"/>
<path d="M22.3998 41.9535H21.9939L21.5881 44.5801H21.9939L22.3998 41.9535Z" fill="#888888"/>
<path d="M23.6682 41.9535H23.2623L22.8564 44.5801H23.2623L23.6682 41.9535Z" fill="#888888"/>
<path d="M24.9366 41.9535H24.5307L24.1248 44.5801H24.5307L24.9366 41.9535Z" fill="#888888"/>
<path d="M26.205 41.9535H25.7991L25.3932 44.5801H25.7991L26.205 41.9535Z" fill="#888888"/>
<path d="M27.0168 42.7617L26.9525 42.6977L26.6616 44.5801H27.0168V42.7617Z" fill="#888888"/>
<path d="M15.652 45.3882H15.2461L15.652 48.0148H16.0579L15.652 45.3882Z" fill="#888888"/>
<path d="M16.9204 45.3882H16.5145L16.9204 48.0148H17.3263L16.9204 45.3882Z" fill="#888888"/>
<path d="M18.1888 45.3882H17.7829L18.1888 48.0148H18.5946L18.1888 45.3882Z" fill="#888888"/>
<path d="M19.4572 45.3882H19.0513L19.4572 48.0148H19.863L19.4572 45.3882Z" fill="#888888"/>
<path d="M20.7255 45.3882H20.3197L20.7255 48.0148H21.1314L20.7255 45.3882Z" fill="#888888"/>
<path d="M21.9939 45.3882H21.5881L21.9939 48.0148H22.3998L21.9939 45.3882Z" fill="#888888"/>
<path d="M23.2623 45.3882H22.8564L23.2623 48.0148H23.6682L23.2623 45.3882Z" fill="#888888"/>
<path d="M24.5307 45.3882H24.1248L24.5307 48.0148H24.9366L24.5307 45.3882Z" fill="#888888"/>
<path d="M25.7991 45.3882H25.3932L25.7991 48.0148H26.205L25.7991 45.3882Z" fill="#888888"/>
<path d="M27.0168 47.2066V45.3882H26.6616L26.9525 47.2706L27.0168 47.2066Z" fill="#888888"/>
<path opacity="0.5" d="M26.2049 48.0148H15.6519L14.8401 47.2066V42.7617L15.6519 41.9535H26.2049L27.0166 42.7617V47.2066L26.2049 48.0148Z" fill="url(#paint5_linear_2585_154906)"/>
<path d="M74.6321 48.0148H85.1851L85.9969 47.2066V42.7617L85.1851 41.9535H74.6321L73.8203 42.7617V47.2066L74.6321 48.0148Z" fill="#111111"/>
<path d="M75.0381 41.9535H74.6322L74.2263 44.5801H74.6322L75.0381 41.9535Z" fill="#888888"/>
<path d="M76.3065 41.9535H75.9006L75.4947 44.5801H75.9006L76.3065 41.9535Z" fill="#888888"/>
<path d="M77.5749 41.9535H77.169L76.7631 44.5801H77.169L77.5749 41.9535Z" fill="#888888"/>
<path d="M78.8433 41.9535H78.4374L78.0315 44.5801H78.4374L78.8433 41.9535Z" fill="#888888"/>
<path d="M80.1117 41.9535H79.7058L79.2999 44.5801H79.7058L80.1117 41.9535Z" fill="#888888"/>
<path d="M81.38 41.9535H80.9742L80.5683 44.5801H80.9742L81.38 41.9535Z" fill="#888888"/>
<path d="M82.6484 41.9535H82.2426L81.8367 44.5801H82.2426L82.6484 41.9535Z" fill="#888888"/>
<path d="M83.9168 41.9535H83.5109L83.1051 44.5801H83.5109L83.9168 41.9535Z" fill="#888888"/>
<path d="M85.1852 41.9535H84.7793L84.3735 44.5801H84.7793L85.1852 41.9535Z" fill="#888888"/>
<path d="M85.997 42.7617L85.9327 42.6977L85.6418 44.5801H85.997V42.7617Z" fill="#888888"/>
<path d="M74.6322 45.3882H74.2263L74.6322 48.0148H75.0381L74.6322 45.3882Z" fill="#888888"/>
<path d="M75.9006 45.3882H75.4947L75.9006 48.0148H76.3065L75.9006 45.3882Z" fill="#888888"/>
<path d="M77.169 45.3882H76.7631L77.169 48.0148H77.5749L77.169 45.3882Z" fill="#888888"/>
<path d="M78.4374 45.3882H78.0315L78.4374 48.0148H78.8433L78.4374 45.3882Z" fill="#888888"/>
<path d="M79.7058 45.3882H79.2999L79.7058 48.0148H80.1117L79.7058 45.3882Z" fill="#888888"/>
<path d="M80.9742 45.3882H80.5683L80.9742 48.0148H81.38L80.9742 45.3882Z" fill="#888888"/>
<path d="M82.2426 45.3882H81.8367L82.2426 48.0148H82.6484L82.2426 45.3882Z" fill="#888888"/>
<path d="M83.5109 45.3882H83.1051L83.5109 48.0148H83.9168L83.5109 45.3882Z" fill="#888888"/>
<path d="M84.7793 45.3882H84.3735L84.7793 48.0148H85.1852L84.7793 45.3882Z" fill="#888888"/>
<path d="M85.997 47.2066V45.3882H85.6418L85.9327 47.2706L85.997 47.2066Z" fill="#888888"/>
<path opacity="0.5" d="M85.1851 48.0148H74.6321L73.8203 47.2066V42.7617L74.6321 41.9535H85.1851L85.9969 42.7617V47.2066L85.1851 48.0148Z" fill="url(#paint6_linear_2585_154906)"/>
<path d="M47.6408 27.8612V14.5265H47.032V27.8612H47.6408ZM65.2968 27.8612V14.5265H64.688V27.8612H65.2968Z" fill="#222222"/>
<path fill-rule="evenodd" clip-rule="evenodd" d="M64.6881 14.5265H47.6409V27.8612H64.6881V14.5265ZM48.5541 27.0278V15.3599H49.7718C49.7718 15.6947 50.0443 15.9661 50.3806 15.9661C50.7168 15.9661 50.9894 15.6947 50.9894 15.3599H61.3395C61.3395 15.6947 61.6121 15.9661 61.9483 15.9661C62.2846 15.9661 62.5572 15.6947 62.5572 15.3599H63.7748V27.0278H62.5572C62.5572 26.693 62.2846 26.4217 61.9483 26.4217C61.6121 26.4217 61.3395 26.693 61.3395 27.0278H50.9894C50.9894 26.693 50.7168 26.4217 50.3806 26.4217C50.0443 26.4217 49.7718 26.693 49.7718 27.0278H48.5541Z" fill="url(#paint7_linear_2585_154906)"/>
<path d="M49.6348 26.8762C49.7053 26.5304 50.0124 26.2701 50.3806 26.2701C50.7488 26.2701 51.0559 26.5304 51.1264 26.8762H61.2025C61.273 26.5304 61.5801 26.2701 61.9483 26.2701C62.3165 26.2701 62.6236 26.5304 62.6941 26.8762H63.6226V15.5114H62.6941C62.6236 15.8573 62.3165 16.1176 61.9483 16.1176C61.5801 16.1176 61.273 15.8573 61.2025 15.5114H51.1264C51.0559 15.8573 50.7488 16.1176 50.3806 16.1176C50.0124 16.1176 49.7053 15.8573 49.6348 15.5114H48.7063V26.8762H49.6348Z" fill="url(#paint8_linear_2585_154906)"/>
<path d="M50.3804 15.5115C50.4645 15.5115 50.5326 15.4436 50.5326 15.3599C50.5326 15.2763 50.4645 15.2084 50.3804 15.2084C50.2964 15.2084 50.2282 15.2763 50.2282 15.3599C50.2282 15.4436 50.2964 15.5115 50.3804 15.5115Z" fill="#222222"/>
<path d="M61.9482 15.5115C62.0322 15.5115 62.1004 15.4436 62.1004 15.3599C62.1004 15.2763 62.0322 15.2084 61.9482 15.2084C61.8641 15.2084 61.796 15.2763 61.796 15.3599C61.796 15.4436 61.8641 15.5115 61.9482 15.5115Z" fill="#222222"/>
<path fill-rule="evenodd" clip-rule="evenodd" d="M49.7716 27.0278C49.7716 26.693 50.0442 26.4217 50.3804 26.4217C50.7167 26.4217 50.9893 26.693 50.9893 27.0278H61.3393C61.3393 26.693 61.6119 26.4217 61.9482 26.4217C62.2844 26.4217 62.557 26.693 62.557 27.0278H63.7747V15.3599H62.557C62.557 15.6947 62.2844 15.9661 61.9482 15.9661C61.6119 15.9661 61.3393 15.6947 61.3393 15.3599H50.9893C50.9893 15.6947 50.7167 15.9661 50.3804 15.9661C50.0442 15.9661 49.7716 15.6947 49.7716 15.3599H48.554V27.0278H49.7716ZM48.7062 15.5115H49.6346C49.7052 15.8573 50.0123 16.1176 50.3804 16.1176C50.7486 16.1176 51.0557 15.8573 51.1262 15.5115H61.2024C61.2729 15.8573 61.58 16.1176 61.9482 16.1176C62.3164 16.1176 62.6235 15.8573 62.694 15.5115H63.6224V26.8763H62.694C62.6235 26.5304 62.3164 26.2701 61.9482 26.2701C61.58 26.2701 61.2729 26.5304 61.2024 26.8763H51.1262C51.0557 26.5304 50.7486 26.2701 50.3804 26.2701C50.0123 26.2701 49.7052 26.5304 49.6346 26.8763H48.7062V15.5115Z" fill="#222222"/>
<path d="M50.3804 27.1793C50.4645 27.1793 50.5326 27.1115 50.5326 27.0278C50.5326 26.9441 50.4645 26.8763 50.3804 26.8763C50.2964 26.8763 50.2282 26.9441 50.2282 27.0278C50.2282 27.1115 50.2964 27.1793 50.3804 27.1793Z" fill="#222222"/>
<path d="M61.9482 27.1793C62.0322 27.1793 62.1004 27.1115 62.1004 27.0278C62.1004 26.9441 62.0322 26.8763 61.9482 26.8763C61.8641 26.8763 61.796 26.9441 61.796 27.0278C61.796 27.1115 61.8641 27.1793 61.9482 27.1793Z" fill="#222222"/>
<path d="M73.0181 21.0835C71.9481 20.0184 70.2134 20.0184 69.1435 21.0835C68.0736 22.1487 68.0736 23.8757 69.1435 24.9409C70.2134 26.006 71.9481 26.006 73.0181 24.9409C74.088 23.8757 74.088 22.1487 73.0181 21.0835Z" fill="url(#paint9_linear_2585_154906)"/>
<path d="M81.1262 24.4714V21.5727C81.1262 21.3216 80.9218 21.1181 80.6696 21.1181H79.1475C78.8954 21.1181 78.6909 21.3216 78.6909 21.5727V24.9821C78.6909 25.1956 78.8387 25.3746 79.038 25.4234L81.1262 24.4714Z" fill="url(#paint10_linear_2585_154906)"/>
<path d="M80.6696 34.9073C80.9218 34.9073 81.1262 34.7038 81.1262 34.4528V31.5541L79.0379 30.602C78.8387 30.6509 78.6909 30.8299 78.6909 31.0433V34.4528C78.6909 34.7038 78.8954 34.9073 79.1475 34.9073H80.6696Z" fill="url(#paint11_linear_2585_154906)"/>
<path d="M80.5175 14.0719H79.2998V17.254H80.5175V14.0719Z" fill="url(#paint12_linear_2585_154906)"/>
<path d="M80.5175 18.4663H79.2998V21.118H80.5175V18.4663Z" fill="url(#paint13_linear_2585_154906)"/>
<path d="M80.5175 34.9073H79.2998V37.5591H80.5175V34.9073Z" fill="url(#paint14_linear_2585_154906)"/>
<path d="M80.5175 38.7713H79.2998V41.9535H80.5175V38.7713Z" fill="url(#paint15_linear_2585_154906)"/>
<path d="M79.0381 25.4235C78.8388 25.3746 78.691 25.1956 78.691 24.9821V21.5727C78.691 21.3216 78.8955 21.1181 79.1477 21.1181H79.2999V20.5878H77.4734V26.1369L79.0381 25.4235Z" fill="#111111"/>
<path d="M85.997 22.2509V20.5878H80.5175V21.1181H80.6697C80.9219 21.1181 81.1264 21.3216 81.1264 21.5727V24.4715L85.997 22.2509Z" fill="#111111"/>
<path d="M85.997 23.1675L78.2725 26.6891V29.3363L78.691 29.5272V26.4983L81.1264 25.3881V26.8005L82.0396 26.4974V24.9718L83.8448 24.1487H83.8661V31.8768H83.8448L85.997 32.858V23.1675Z" fill="#111111"/>
<path d="M82.0396 29.5281L81.1264 29.225V30.6375L82.0396 31.0538V29.5281Z" fill="#111111"/>
<path d="M79.2999 34.9074H79.1477C78.8955 34.9074 78.691 34.7039 78.691 34.4528V31.0434C78.691 30.8299 78.8388 30.651 79.038 30.6021L81.1264 31.5541V34.4528C81.1264 34.7039 80.9219 34.9074 80.6697 34.9074H80.5175V35.4377H85.997V33.7747L77.4734 29.8887V35.4377H79.2999V34.9074Z" fill="#111111"/>
<path d="M85.9969 32.8579L78.2724 29.3362V26.6891L85.9969 23.1675V22.2509L77.4353 26.1542V29.8713L85.9969 33.7747V32.8579Z" fill="url(#paint16_linear_2585_154906)"/>
<path d="M83.866 24.1487H83.8448L82.0396 24.9717V31.0537L83.8448 31.8767H83.866V24.1487Z" fill="#AAAAAA"/>
<path d="M81.1262 25.3881L78.6909 26.4983V29.5272L81.1262 30.6375V25.3881Z" fill="url(#paint17_linear_2585_154906)"/>
<path d="M82.0395 26.4973L81.1262 26.8004V29.2249L82.0395 29.528V26.4973Z" fill="url(#paint18_linear_2585_154906)"/>
<path d="M85.997 17.254H77.4734V18.4663H85.997V17.254Z" fill="url(#paint19_linear_2585_154906)"/>
<path d="M85.997 37.5591H77.4734V38.7714H85.997V37.5591Z" fill="url(#paint20_linear_2585_154906)"/>
<path d="M87.6713 38.7714C87.7554 38.7714 87.8236 38.7035 87.8236 38.6198V33.4678H86.6059V32.5586H87.8236V23.4668H86.6059V22.5576H87.8236V17.4056C87.8236 17.3219 87.7554 17.254 87.6713 17.254H85.9971V38.7714H87.6713Z" fill="url(#paint21_linear_2585_154906)"/>
<path d="M88.4323 29.0734V26.952H87.8235V29.0734H88.4323Z" fill="#111111"/>
<path d="M90.5632 26.952L90.7154 27.7854V24.9821H87.8235V26.0428H90.1066V26.952H90.5632Z" fill="#111111"/>
<path d="M90.1066 29.9826H87.8235V31.0433H90.7154V28.24L90.5632 29.0734H90.1066V29.9826Z" fill="#111111"/>
<path d="M93.9878 24.9821H90.7153L93.9878 25.4866V24.9821Z" fill="#444444"/>
<path d="M93.9878 31.0433V30.5389L90.7153 31.0433H93.9878Z" fill="#444444"/>
<path d="M92.1615 27.4065C92.4136 27.4065 92.6181 27.203 92.6181 26.9519C92.6181 26.7009 92.4136 26.4973 92.1615 26.4973C91.9093 26.4973 91.7048 26.7009 91.7048 26.9519C91.7048 27.203 91.9093 27.4065 92.1615 27.4065Z" fill="#222222"/>
<path d="M94.6729 28.4672C94.9251 28.4672 95.1295 28.2637 95.1295 28.0126C95.1295 27.7616 94.9251 27.5581 94.6729 27.5581C94.4207 27.5581 94.2162 27.7616 94.2162 28.0126C94.2162 28.2637 94.4207 28.4672 94.6729 28.4672Z" fill="#222222"/>
<path d="M92.1615 29.528C92.4136 29.528 92.6181 29.3244 92.6181 29.0734C92.6181 28.8223 92.4136 28.6188 92.1615 28.6188C91.9093 28.6188 91.7048 28.8223 91.7048 29.0734C91.7048 29.3244 91.9093 29.528 92.1615 29.528Z" fill="#222222"/>
<path fill-rule="evenodd" clip-rule="evenodd" d="M94.5205 30.4567L95.7382 28.0127L94.5205 25.5687L90.7153 24.9821V31.0433L94.5205 30.4567ZM92.1613 27.4066C91.9091 27.4066 91.7047 27.2031 91.7047 26.952C91.7047 26.7009 91.9091 26.4974 92.1613 26.4974C92.4135 26.4974 92.6179 26.7009 92.6179 26.952C92.6179 27.2031 92.4135 27.4066 92.1613 27.4066ZM94.6727 28.4673C94.4205 28.4673 94.2161 28.2638 94.2161 28.0127C94.2161 27.7617 94.4205 27.5581 94.6727 27.5581C94.9249 27.5581 95.1293 27.7617 95.1293 28.0127C95.1293 28.2638 94.9249 28.4673 94.6727 28.4673ZM92.1613 29.528C91.9091 29.528 91.7047 29.3245 91.7047 29.0734C91.7047 28.8224 91.9091 28.6188 92.1613 28.6188C92.4135 28.6188 92.6179 28.8224 92.6179 29.0734C92.6179 29.3245 92.4135 29.528 92.1613 29.528Z" fill="#DDDDDD"/>
<rect width="0.304414" height="2.12143" transform="matrix(1 0 0 -1 90.2588 29.0734)" fill="#BBBBBB"/>
<path d="M90.2589 29.0734V26.9519H88.4324V29.0734H90.2589Z" fill="#222222"/>
<path d="M90.7155 28.2399V27.7854L90.5633 26.9519V29.0734L90.7155 28.2399Z" fill="#222222"/>
<path d="M90.2588 24.9821V24.7884L89.6319 24.1487H87.8235V24.9821H90.2588Z" fill="url(#paint22_linear_2585_154906)"/>
<path d="M90.2588 31.2371V31.0433H87.8235V31.8767H89.632L90.2588 31.2371Z" fill="url(#paint23_linear_2585_154906)"/>
<path d="M89.9543 26.0429H89.6499V26.9521H89.9543V26.0429Z" fill="#BBBBBB"/>
<path d="M89.9543 29.0735H89.6499V29.9827H89.9543V29.0735Z" fill="#BBBBBB"/>
<path d="M89.65 26.9521V26.0429H87.8235V26.9521H89.65Z" fill="#444444"/>
<path d="M89.65 29.9827V29.0735H87.8235V29.9827H89.65Z" fill="#444444"/>
<path d="M90.1066 26.0429H89.9544V26.9521H90.1066V26.0429Z" fill="#444444"/>
<path d="M90.1066 29.0735H89.9544V29.9827H90.1066V29.0735Z" fill="#444444"/>
<path d="M95.662 28.9219C95.7461 28.9219 95.8142 28.854 95.8142 28.7703V27.255C95.8142 27.1714 95.7461 27.1035 95.662 27.1035H95.2852L95.7381 28.0127L95.2852 28.9219H95.662Z" fill="#444444"/>
<path d="M89.1122 23.6183H87.8235V23.9214H89.4092L89.1122 23.6183Z" fill="#111111"/>
<path d="M92.9985 23.6183H91.172V23.9214H92.9985V23.6183Z" fill="#111111"/>
<path d="M95.128 23.6183H93.9118V23.9214H94.2583L95.128 23.6183Z" fill="#111111"/>
<path d="M95.5099 24.4506L95.2055 24.557V26.9435L95.2853 27.1035H95.5099V24.4506Z" fill="#111111"/>
<path d="M95.5099 28.9219H95.2853L95.2055 29.082V31.4685L95.5099 31.5749V28.9219Z" fill="#111111"/>
<path d="M89.4092 32.104H87.8235V32.4071H89.1122L89.4092 32.104Z" fill="#111111"/>
<path d="M92.9985 32.104H91.172V32.4071H92.9985V32.104Z" fill="#111111"/>
<path d="M94.2581 32.104H93.9118V32.4071H95.1279L94.2581 32.104Z" fill="#111111"/>
<path d="M98.3273 23.4668H95.5628L93.9117 24.0421V23.4668H92.9984V24.1487H91.172V23.4668H90.2587V23.4863L90.2395 23.4668H88.9636L90.2587 24.7884V24.9821H93.9878L98.3273 23.4668Z" fill="url(#paint24_linear_2585_154906)"/>
<path d="M90.2587 32.5391V32.5586H91.172V31.8767H92.9984V32.5586H93.9117V31.9833L95.5627 32.5586H98.3273L93.9878 31.0433H90.2587V31.2371L88.9636 32.5586H90.2396L90.2587 32.5391Z" fill="url(#paint25_linear_2585_154906)"/>
<path d="M99.9999 23.4668V22.5576H86.6057V23.4668H99.9999Z" fill="url(#paint26_linear_2585_154906)"/>
<path d="M99.9999 33.4678V32.5586H86.6057V33.4678H99.9999Z" fill="url(#paint27_linear_2585_154906)"/>
<path d="M33.1811 15.6946L21.0046 16.725V27.4065H33.1811V15.6946Z" fill="url(#paint28_linear_2585_154906)"/>
<path d="M19.7869 16.828L13.8508 17.3304V38.6951L19.7869 39.1974V16.828Z" fill="url(#paint29_linear_2585_154906)"/>
<path d="M33.1811 28.6188H21.0046V39.3004L33.1811 40.3308V28.6188Z" fill="url(#paint30_linear_2585_154906)"/>
<path fill-rule="evenodd" clip-rule="evenodd" d="M34.3988 14.375L13.8508 16.1138V17.3305L19.7869 16.8281V39.1975L13.8508 38.6952V39.9118L34.3988 41.6505V14.375ZM21.0046 16.7251L33.1811 15.6947V27.4066H21.0046V16.7251ZM21.0046 39.3005V28.6189H33.1811V40.3309L21.0046 39.3005Z" fill="url(#paint31_linear_2585_154906)"/>
<path d="M13.8509 16.1175H12.0244V18.3905H13.8509V16.1175Z" fill="#222222"/>
<path d="M13.8509 37.6349H12.0244V39.9078H13.8509V37.6349Z" fill="#222222"/>
<rect width="1.82648" height="19.2444" transform="matrix(1 0 0 -1 12.0244 37.6349)" fill="url(#paint32_linear_2585_154906)"/>
<path d="M12.0244 16.1175H6.69713C6.61307 16.1175 6.54492 16.1854 6.54492 16.2691V17.9359H12.0244V16.1175Z" fill="url(#paint33_linear_2585_154906)"/>
<path d="M12.0244 38.0895H6.54492V39.7563C6.54492 39.84 6.61307 39.9078 6.69713 39.9078H12.0244V38.0895Z" fill="url(#paint34_linear_2585_154906)"/>
<path d="M9.28465 17.9359H6.54492V22.5576H9.28465V17.9359Z" fill="url(#paint35_linear_2585_154906)"/>
<path d="M8.82803 23.4668H7.00154V24.1487H8.82803V23.4668Z" fill="url(#paint36_linear_2585_154906)"/>
<path d="M8.82803 25.0579H7.00154V30.9675H8.82803V25.0579Z" fill="url(#paint37_linear_2585_154906)"/>
<path d="M8.82803 31.8767H7.00154V32.5586H8.82803V31.8767Z" fill="url(#paint38_linear_2585_154906)"/>
<path d="M9.28465 33.4678H6.54492V38.0895H9.28465V33.4678Z" fill="url(#paint39_linear_2585_154906)"/>
<path d="M12.5571 22.5576H0V23.4668H12.5571V22.5576Z" fill="url(#paint40_linear_2585_154906)"/>
<path d="M12.5571 32.5586H0V33.4678H12.5571V32.5586Z" fill="url(#paint41_linear_2585_154906)"/>
<path fill-rule="evenodd" clip-rule="evenodd" d="M6.08834 31.9833V32.5586H7.00158V31.8767H8.82807V32.5586H9.74131V32.5391L9.76041 32.5586H11.0364L9.74131 31.2371V24.7884L11.0364 23.4668H9.76048L9.74131 23.4863V23.4668H8.82807V24.1487H7.00158V23.4668H6.08834V24.0421L4.43725 23.4668H1.67285L6.08834 25.0054V31.0201L1.67285 32.5586H4.43733L6.08834 31.9833ZM7.00158 25.0578H8.82807V30.9675H7.00158V25.0578Z" fill="url(#paint42_linear_2585_154906)"/>
<path d="M6.08826 28.6189V28.0128H5.47943V26.7248H6.08826V26.1186H5.61642C5.20452 26.1186 4.87061 26.4526 4.87061 26.8645V27.8731C4.87061 28.285 5.20452 28.6189 5.61642 28.6189H6.08826Z" fill="#222222"/>
<path d="M9.74121 28.6189H10.9741C11.386 28.6189 11.7199 28.285 11.7199 27.8731V26.8645C11.7199 26.4526 11.386 26.1186 10.9741 26.1186H9.74121V28.6189Z" fill="#222222"/>
<path d="M60.0457 37.6349C60.0457 37.7604 60.1479 37.8622 60.274 37.8622H60.7306C60.8567 37.8622 60.9589 37.7604 60.9589 37.6349V32.0283C60.9589 31.9027 60.8567 31.801 60.7306 31.801H60.274C60.1479 31.801 60.0457 31.9027 60.0457 32.0283V37.6349Z" fill="url(#paint43_linear_2585_154906)"/>
<rect width="6.16438" height="0.909183" transform="matrix(1 0 0 -1 60.959 35.2861)" fill="url(#paint44_linear_2585_154906)"/>
<path d="M67.1233 36.8133C67.1233 37.2252 67.4572 37.5591 67.8691 37.5591H68.9498V32.104H67.8691C67.4572 32.104 67.1233 32.4379 67.1233 32.8498V36.8133Z" fill="url(#paint45_linear_2585_154906)"/>
<path d="M68.3411 35.2862C68.3411 35.3699 68.4092 35.4377 68.4933 35.4377H71.233C71.3171 35.4377 71.3852 35.3699 71.3852 35.2862V34.377C71.3852 34.2933 71.3171 34.2255 71.233 34.2255H68.4933C68.4092 34.2255 68.3411 34.2933 68.3411 34.377V35.2862Z" fill="#222222"/>
<path fill-rule="evenodd" clip-rule="evenodd" d="M71.2329 35.5892C71.401 35.5892 71.5373 35.4535 71.5373 35.2862V34.377C71.5373 34.2096 71.401 34.0739 71.2329 34.0739H68.4931C68.325 34.0739 68.1887 34.2096 68.1887 34.377V35.2862C68.1887 35.4535 68.325 35.5892 68.4931 35.5892H71.2329ZM68.4931 35.4377C68.4091 35.4377 68.3409 35.3699 68.3409 35.2862V34.377C68.3409 34.2933 68.4091 34.2255 68.4931 34.2255H71.2329L71.2484 34.2263C71.3252 34.234 71.3851 34.2985 71.3851 34.377V35.2862C71.3851 35.3646 71.3252 35.4291 71.2484 35.4369L71.2329 35.4377H68.4931Z" fill="#111111"/>
<path d="M68.9497 37.5592H67.2754C67.1914 37.5592 67.1232 37.4913 67.1232 37.4077V35.2862H60.9588V37.635C60.9588 37.7605 60.8566 37.8622 60.7305 37.8622H60.2739C60.1478 37.8622 60.0456 37.7605 60.0456 37.635V32.0283C60.0456 31.9028 60.1478 31.801 60.2739 31.801H60.7305C60.8566 31.801 60.9588 31.9028 60.9588 32.0283V34.377H67.1232V32.2556C67.1232 32.1719 67.1914 32.1041 67.2754 32.1041H68.9497V28.0128H44.7488V30.6645H45.3576V29.7426C45.3576 29.5188 45.5212 29.3282 45.7433 29.2934L48.5592 28.8529L48.5851 28.8497C48.8516 28.823 49.0867 29.0316 49.0867 29.302V29.225C49.0867 28.9818 49.2785 28.7832 49.5198 28.771L49.5433 28.7704H56.3926C56.6448 28.7704 56.8492 28.9739 56.8492 29.225V39.9837C56.8492 40.2347 56.6448 40.4383 56.3926 40.4383H58.9801C59.0222 40.4383 59.0562 40.4722 59.0562 40.514V41.6505H68.9497V37.5592Z" fill="url(#paint46_linear_2585_154906)"/>
<path d="M49.5433 40.4383C49.2911 40.4383 49.0867 40.2347 49.0867 39.9837V39.9067C49.0867 40.1859 48.8362 40.3991 48.5592 40.3558L45.7433 39.9152C45.5212 39.8805 45.3576 39.6899 45.3576 39.4661V38.5441H44.7488V40.4383H49.5433Z" fill="url(#paint47_linear_2585_154906)"/>
<path d="M44.7488 41.6505H59.0562V40.8112C59.0562 40.6052 58.8893 40.4383 58.6833 40.4383H44.7488V41.6505Z" fill="url(#paint48_linear_2585_154906)"/>
<path d="M56.3927 40.3624C56.6029 40.3624 56.7733 40.1928 56.7733 39.9836V29.2249C56.7733 29.0157 56.6029 28.8461 56.3927 28.8461H49.5434C49.3333 28.8461 49.1629 29.0157 49.1629 29.2249V39.9836C49.1629 40.1928 49.3333 40.3624 49.5434 40.3624H56.3927Z" fill="url(#paint49_linear_2585_154906)"/>
<path d="M49.0874 29.2023C49.0876 29.1979 49.088 29.1935 49.0883 29.1891C49.088 29.1933 49.0876 29.1974 49.0874 29.2016V29.2023Z" fill="url(#paint50_linear_2585_154906)"/>
<path d="M56.3926 28.8461V28.7704H49.5433V28.8461H56.3926ZM56.7731 29.225V39.9836C56.7731 40.1929 56.6028 40.3625 56.3926 40.3625H49.5433C49.3331 40.3625 49.1628 40.1929 49.1628 39.9836V29.225C49.1628 29.0158 49.3331 28.8461 49.5433 28.8461V28.7704L49.5198 28.771C49.2785 28.7831 49.0867 28.9818 49.0867 29.225V39.9836C49.0867 40.2347 49.2911 40.4382 49.5433 40.4382H56.3926C56.6448 40.4382 56.8492 40.2347 56.8492 39.9836V29.225C56.8492 28.9739 56.6448 28.7704 56.3926 28.7704V28.8461C56.6028 28.8461 56.7731 29.0158 56.7731 29.225Z" fill="#111111"/>
<path d="M48.5711 40.2808C48.802 40.317 49.0107 40.1393 49.0107 39.9066V29.302C49.0107 29.0693 48.802 28.8916 48.5711 28.9277L45.7553 29.3683C45.5702 29.3972 45.4338 29.556 45.4338 29.7425V30.6645H45.5099C45.7621 30.6645 45.9666 30.868 45.9666 31.1191V38.0895C45.9666 38.3406 45.7621 38.5441 45.5099 38.5441H45.4338V39.4661C45.4338 39.6526 45.5702 39.8114 45.7553 39.8403L48.5711 40.2808Z" fill="url(#paint51_linear_2585_154906)"/>
<path d="M48.5592 40.3557C48.8363 40.3991 49.0867 40.1858 49.0867 39.9066V29.302C49.0867 29.0315 48.8517 28.823 48.5852 28.8496L48.5592 28.8529L45.7434 29.2934C45.5213 29.3281 45.3577 29.5187 45.3577 29.7425V30.6645H45.4338V29.7425C45.4338 29.556 45.5701 29.3972 45.7552 29.3683L48.571 28.9277C48.8019 28.8916 49.0106 29.0693 49.0106 29.302V39.9066C49.0106 40.1393 48.8019 40.317 48.571 40.2808L45.7552 39.8403C45.5701 39.8113 45.4338 39.6526 45.4338 39.4661V38.5441H45.3577V39.4661C45.3577 39.6899 45.5213 39.8804 45.7434 39.9152L48.5592 40.3557Z" fill="#111111"/>
<path d="M45.5098 38.4684C45.72 38.4684 45.8903 38.2988 45.8903 38.0896V31.1192C45.8903 30.9099 45.72 30.7403 45.5098 30.7403H44.5966C44.3864 30.7403 44.2161 30.9099 44.2161 31.1192V38.0896C44.2161 38.2988 44.3864 38.4684 44.5966 38.4684H45.5098Z" fill="url(#paint52_linear_2585_154906)"/>
<path fill-rule="evenodd" clip-rule="evenodd" d="M45.51 38.5441C45.7622 38.5441 45.9666 38.3405 45.9666 38.0895V31.1191C45.9666 30.868 45.7622 30.6645 45.51 30.6645H44.5968C44.3446 30.6645 44.1401 30.868 44.1401 31.1191V38.0895C44.1401 38.3405 44.3446 38.5441 44.5968 38.5441H45.51ZM44.5968 38.4683C44.3866 38.4683 44.2162 38.2987 44.2162 38.0895V31.1191C44.2162 30.9099 44.3866 30.7402 44.5968 30.7402H45.51C45.7202 30.7402 45.8905 30.9099 45.8905 31.1191V38.0895C45.8905 38.2987 45.7202 38.4683 45.51 38.4683H44.5968Z" fill="#111111"/>
<rect width="1.21766" height="12.1224" transform="matrix(1 0 0 -1 42.9224 40.8928)" fill="url(#paint53_linear_2585_154906)"/>
<rect width="7.91476" height="1.21224" transform="matrix(1 0 0 -1 35.0076 35.4377)" fill="url(#paint54_linear_2585_154906)"/>
<path opacity="0.15" fill-rule="evenodd" clip-rule="evenodd" d="M44.7488 38.5441H44.5966C44.3444 38.5441 44.1399 38.3406 44.1399 38.0895V40.8929H42.9223V35.4378H35.0075V34.2255H42.9223V28.7704H44.1399V31.1191C44.1399 30.8681 44.3444 30.6645 44.5966 30.6645H44.7488V28.0128H68.9497V34.074H71.2328C71.4009 34.074 71.5372 34.2097 71.5372 34.377V35.2862C71.5372 35.4536 71.4009 35.5893 71.2328 35.5893H68.9497V41.6505H75.6468V14.375H34.3987V41.6505H44.7488V38.5441ZM47.0319 14.5265H65.2967V27.8612H47.0319V14.5265ZM73.0179 24.9409C71.9479 26.0061 70.2132 26.0061 69.1433 24.9409C68.0733 23.8758 68.0733 22.1487 69.1433 21.0836C70.2132 20.0184 71.9479 20.0184 73.0179 21.0836C74.0878 22.1487 74.0878 23.8758 73.0179 24.9409Z" fill="url(#paint55_linear_2585_154906)"/>
<defs>
<linearGradient id="paint0_linear_2585_154906" x1="21.5372" y1="36.2711" x2="20.3196" y2="36.2711" gradientUnits="userSpaceOnUse">
<stop stop-color="#AAAAAA"/>
<stop offset="0.5" stop-color="#DDDDDD"/>
<stop offset="1" stop-color="#AAAAAA"/>
</linearGradient>
<linearGradient id="paint1_linear_2585_154906" x1="21.5372" y1="36.2711" x2="20.3196" y2="36.2711" gradientUnits="userSpaceOnUse">
<stop stop-color="#AAAAAA"/>
<stop offset="0.5" stop-color="#DDDDDD"/>
<stop offset="1" stop-color="#AAAAAA"/>
</linearGradient>
<linearGradient id="paint2_linear_2585_154906" x1="0.608828" y1="0" x2="0.608828" y2="27.2755" gradientUnits="userSpaceOnUse">
<stop stop-color="#444444"/>
<stop offset="1" stop-color="#AAAAAA"/>
</linearGradient>
<linearGradient id="paint3_linear_2585_154906" x1="27.0166" y1="11.0413" x2="14.8401" y2="11.0413" gradientUnits="userSpaceOnUse">
<stop offset="0.1"/>
<stop offset="0.5" stop-color="#999999"/>
<stop offset="0.9"/>
</linearGradient>
<linearGradient id="paint4_linear_2585_154906" x1="85.9969" y1="11.0413" x2="73.8203" y2="11.0413" gradientUnits="userSpaceOnUse">
<stop offset="0.1"/>
<stop offset="0.5" stop-color="#999999"/>
<stop offset="0.9"/>
</linearGradient>
<linearGradient id="paint5_linear_2585_154906" x1="27.0166" y1="44.9842" x2="14.8401" y2="44.9842" gradientUnits="userSpaceOnUse">
<stop offset="0.1"/>
<stop offset="0.5" stop-color="#999999"/>
<stop offset="0.9"/>
</linearGradient>
<linearGradient id="paint6_linear_2585_154906" x1="85.9969" y1="44.9842" x2="73.8203" y2="44.9842" gradientUnits="userSpaceOnUse">
<stop offset="0.1"/>
<stop offset="0.5" stop-color="#999999"/>
<stop offset="0.9"/>
</linearGradient>
<linearGradient id="paint7_linear_2585_154906" x1="64.6881" y1="27.8612" x2="46.887" y2="15.623" gradientUnits="userSpaceOnUse">
<stop stop-color="#AAAAAA"/>
<stop offset="0.5" stop-color="#DDDDDD"/>
<stop offset="1" stop-color="#AAAAAA"/>
</linearGradient>
<linearGradient id="paint8_linear_2585_154906" x1="48.5541" y1="27.0278" x2="63.7243" y2="15.2946" gradientUnits="userSpaceOnUse">
<stop stop-color="#AAAAAA"/>
<stop offset="0.5" stop-color="#DDDDDD"/>
<stop offset="1" stop-color="#AAAAAA"/>
</linearGradient>
<linearGradient id="paint9_linear_2585_154906" x1="73.0181" y1="21.0835" x2="69.1608" y2="24.958" gradientUnits="userSpaceOnUse">
<stop stop-color="#999999"/>
<stop offset="0.5" stop-color="#DDDDDD"/>
<stop offset="1" stop-color="#999999"/>
</linearGradient>
<linearGradient id="paint10_linear_2585_154906" x1="81.1262" y1="32.748" x2="78.6909" y2="32.748" gradientUnits="userSpaceOnUse">
<stop stop-color="#222222"/>
<stop offset="0.5" stop-color="#444444"/>
<stop offset="1" stop-color="#222222"/>
</linearGradient>
<linearGradient id="paint11_linear_2585_154906" x1="81.1262" y1="32.748" x2="78.6909" y2="32.748" gradientUnits="userSpaceOnUse">
<stop stop-color="#222222"/>
<stop offset="0.5" stop-color="#444444"/>
<stop offset="1" stop-color="#222222"/>
</linearGradient>
<linearGradient id="paint12_linear_2585_154906" x1="80.5175" y1="17.595" x2="79.2998" y2="17.595" gradientUnits="userSpaceOnUse">
<stop stop-color="#AAAAAA"/>
<stop offset="0.5" stop-color="#DDDDDD"/>
<stop offset="1" stop-color="#AAAAAA"/>
</linearGradient>
<linearGradient id="paint13_linear_2585_154906" x1="80.5175" y1="17.595" x2="79.2998" y2="17.595" gradientUnits="userSpaceOnUse">
<stop stop-color="#AAAAAA"/>
<stop offset="0.5" stop-color="#DDDDDD"/>
<stop offset="1" stop-color="#AAAAAA"/>
</linearGradient>
<linearGradient id="paint14_linear_2585_154906" x1="80.5175" y1="17.595" x2="79.2998" y2="17.595" gradientUnits="userSpaceOnUse">
<stop stop-color="#AAAAAA"/>
<stop offset="0.5" stop-color="#DDDDDD"/>
<stop offset="1" stop-color="#AAAAAA"/>
</linearGradient>
<linearGradient id="paint15_linear_2585_154906" x1="80.5175" y1="17.595" x2="79.2998" y2="17.595" gradientUnits="userSpaceOnUse">
<stop stop-color="#AAAAAA"/>
<stop offset="0.5" stop-color="#DDDDDD"/>
<stop offset="1" stop-color="#AAAAAA"/>
</linearGradient>
<linearGradient id="paint16_linear_2585_154906" x1="77.4353" y1="28.0127" x2="86.5518" y2="28.0127" gradientUnits="userSpaceOnUse">
<stop stop-color="#333333"/>
<stop offset="1" stop-color="#555555"/>
</linearGradient>
<linearGradient id="paint17_linear_2585_154906" x1="79.9086" y1="30.8918" x2="79.9086" y2="25.1337" gradientUnits="userSpaceOnUse">
<stop stop-color="#111111"/>
<stop offset="0.5" stop-color="#333333"/>
<stop offset="1" stop-color="#111111"/>
</linearGradient>
<linearGradient id="paint18_linear_2585_154906" x1="80.213" y1="28.0126" x2="82.0395" y2="28.0126" gradientUnits="userSpaceOnUse">
<stop stop-color="#AAAAAA"/>
<stop offset="1" stop-color="#888888"/>
</linearGradient>
<linearGradient id="paint19_linear_2585_154906" x1="85.997" y1="28.0127" x2="77.4734" y2="28.0127" gradientUnits="userSpaceOnUse">
<stop stop-color="#222222"/>
<stop offset="0.2" stop-color="#444444"/>
<stop offset="0.8" stop-color="#444444"/>
<stop offset="1" stop-color="#222222"/>
</linearGradient>
<linearGradient id="paint20_linear_2585_154906" x1="85.997" y1="28.0127" x2="77.4734" y2="28.0127" gradientUnits="userSpaceOnUse">
<stop stop-color="#222222"/>
<stop offset="0.2" stop-color="#444444"/>
<stop offset="0.8" stop-color="#444444"/>
<stop offset="1" stop-color="#222222"/>
</linearGradient>
<linearGradient id="paint21_linear_2585_154906" x1="86.9103" y1="38.7714" x2="86.9103" y2="17.254" gradientUnits="userSpaceOnUse">
<stop stop-color="#AAAAAA"/>
<stop offset="0.25" stop-color="#DDDDDD"/>
<stop offset="0.75" stop-color="#DDDDDD"/>
<stop offset="1" stop-color="#AAAAAA"/>
</linearGradient>
<linearGradient id="paint22_linear_2585_154906" x1="90.2588" y1="28.0127" x2="87.8235" y2="28.0127" gradientUnits="userSpaceOnUse">
<stop stop-color="#BBBBBB"/>
<stop offset="1" stop-color="#999999"/>
</linearGradient>
<linearGradient id="paint23_linear_2585_154906" x1="90.2588" y1="28.0127" x2="87.8235" y2="28.0127" gradientUnits="userSpaceOnUse">
<stop stop-color="#BBBBBB"/>
<stop offset="1" stop-color="#999999"/>
</linearGradient>
<linearGradient id="paint24_linear_2585_154906" x1="93.4551" y1="33.0132" x2="93.4551" y2="22.9364" gradientUnits="userSpaceOnUse">
<stop stop-color="#E5A800"/>
<stop offset="0.2" stop-color="#F0CE0F"/>
<stop offset="0.8" stop-color="#F0CE0F"/>
<stop offset="1" stop-color="#E5A800"/>
</linearGradient>
<linearGradient id="paint25_linear_2585_154906" x1="93.4551" y1="33.0132" x2="93.4551" y2="22.9364" gradientUnits="userSpaceOnUse">
<stop stop-color="#E5A800"/>
<stop offset="0.2" stop-color="#F0CE0F"/>
<stop offset="0.8" stop-color="#F0CE0F"/>
<stop offset="1" stop-color="#E5A800"/>
</linearGradient>
<linearGradient id="paint26_linear_2585_154906" x1="99.9999" y1="23.0122" x2="87.8234" y2="23.0122" gradientUnits="userSpaceOnUse">
<stop stop-color="#E5A800"/>
<stop offset="0.3" stop-color="#F0CE0F"/>
<stop offset="0.85" stop-color="#F0CE0F"/>
<stop offset="1" stop-color="#E5A800"/>
</linearGradient>
<linearGradient id="paint27_linear_2585_154906" x1="99.9999" y1="23.0122" x2="87.8234" y2="23.0122" gradientUnits="userSpaceOnUse">
<stop stop-color="#E5A800"/>
<stop offset="0.3" stop-color="#F0CE0F"/>
<stop offset="0.85" stop-color="#F0CE0F"/>
<stop offset="1" stop-color="#E5A800"/>
</linearGradient>
<linearGradient id="paint28_linear_2585_154906" x1="33.1811" y1="28.0127" x2="13.242" y2="28.0127" gradientUnits="userSpaceOnUse">
<stop stop-color="#111111"/>
<stop offset="1" stop-color="#333333"/>
</linearGradient>
<linearGradient id="paint29_linear_2585_154906" x1="33.1811" y1="28.0127" x2="13.242" y2="28.0127" gradientUnits="userSpaceOnUse">
<stop stop-color="#111111"/>
<stop offset="1" stop-color="#333333"/>
</linearGradient>
<linearGradient id="paint30_linear_2585_154906" x1="33.1811" y1="28.0127" x2="13.242" y2="28.0127" gradientUnits="userSpaceOnUse">
<stop stop-color="#111111"/>
<stop offset="1" stop-color="#333333"/>
</linearGradient>
<linearGradient id="paint31_linear_2585_154906" x1="34.3988" y1="41.6505" x2="12.1438" y2="14.2779" gradientUnits="userSpaceOnUse">
<stop stop-color="#AAAAAA"/>
<stop offset="0.5" stop-color="#DDDDDD"/>
<stop offset="1" stop-color="#AAAAAA"/>
</linearGradient>
<linearGradient id="paint32_linear_2585_154906" x1="0.913242" y1="0" x2="0.913242" y2="19.2444" gradientUnits="userSpaceOnUse">
<stop stop-color="#999999"/>
<stop offset="0.25" stop-color="#CCCCCC"/>
<stop offset="0.75" stop-color="#CCCCCC"/>
<stop offset="1" stop-color="#999999"/>
</linearGradient>
<linearGradient id="paint33_linear_2585_154906" x1="12.0244" y1="28.0127" x2="6.54492" y2="28.0127" gradientUnits="userSpaceOnUse">
<stop stop-color="#444444"/>
<stop offset="1" stop-color="#666666"/>
</linearGradient>
<linearGradient id="paint34_linear_2585_154906" x1="12.0244" y1="28.0127" x2="6.54492" y2="28.0127" gradientUnits="userSpaceOnUse">
<stop stop-color="#444444"/>
<stop offset="1" stop-color="#666666"/>
</linearGradient>
<linearGradient id="paint35_linear_2585_154906" x1="7.91478" y1="38.0895" x2="7.91478" y2="17.9359" gradientUnits="userSpaceOnUse">
<stop stop-color="#AAAAAA"/>
<stop offset="0.5" stop-color="#DDDDDD"/>
<stop offset="1" stop-color="#AAAAAA"/>
</linearGradient>
<linearGradient id="paint36_linear_2585_154906" x1="7.91478" y1="38.0895" x2="7.91478" y2="17.9359" gradientUnits="userSpaceOnUse">
<stop stop-color="#AAAAAA"/>
<stop offset="0.5" stop-color="#DDDDDD"/>
<stop offset="1" stop-color="#AAAAAA"/>
</linearGradient>
<linearGradient id="paint37_linear_2585_154906" x1="7.91478" y1="38.0895" x2="7.91478" y2="17.9359" gradientUnits="userSpaceOnUse">
<stop stop-color="#AAAAAA"/>
<stop offset="0.5" stop-color="#DDDDDD"/>
<stop offset="1" stop-color="#AAAAAA"/>
</linearGradient>
<linearGradient id="paint38_linear_2585_154906" x1="7.91478" y1="38.0895" x2="7.91478" y2="17.9359" gradientUnits="userSpaceOnUse">
<stop stop-color="#AAAAAA"/>
<stop offset="0.5" stop-color="#DDDDDD"/>
<stop offset="1" stop-color="#AAAAAA"/>
</linearGradient>
<linearGradient id="paint39_linear_2585_154906" x1="7.91478" y1="38.0895" x2="7.91478" y2="17.9359" gradientUnits="userSpaceOnUse">
<stop stop-color="#AAAAAA"/>
<stop offset="0.5" stop-color="#DDDDDD"/>
<stop offset="1" stop-color="#AAAAAA"/>
</linearGradient>
<linearGradient id="paint40_linear_2585_154906" x1="0" y1="23.0122" x2="12.5571" y2="23.0122" gradientUnits="userSpaceOnUse">
<stop stop-color="#E5A800"/>
<stop offset="0.3" stop-color="#F0CE0F"/>
<stop offset="0.85" stop-color="#F0CE0F"/>
<stop offset="1" stop-color="#E5A800"/>
</linearGradient>
<linearGradient id="paint41_linear_2585_154906" x1="0" y1="23.0122" x2="12.5571" y2="23.0122" gradientUnits="userSpaceOnUse">
<stop stop-color="#E5A800"/>
<stop offset="0.3" stop-color="#F0CE0F"/>
<stop offset="0.85" stop-color="#F0CE0F"/>
<stop offset="1" stop-color="#E5A800"/>
</linearGradient>
<linearGradient id="paint42_linear_2585_154906" x1="6.54496" y1="33.0132" x2="6.54496" y2="22.9364" gradientUnits="userSpaceOnUse">
<stop stop-color="#E5A800"/>
<stop offset="0.2" stop-color="#F0CE0F"/>
<stop offset="0.8" stop-color="#F0CE0F"/>
<stop offset="1" stop-color="#E5A800"/>
</linearGradient>
<linearGradient id="paint43_linear_2585_154906" x1="60.5023" y1="37.8622" x2="60.5023" y2="31.801" gradientUnits="userSpaceOnUse">
<stop stop-color="#111111"/>
<stop offset="0.5" stop-color="#555555"/>
<stop offset="1" stop-color="#111111"/>
</linearGradient>
<linearGradient id="paint44_linear_2585_154906" x1="0" y1="0.454592" x2="6.16438" y2="0.454592" gradientUnits="userSpaceOnUse">
<stop stop-color="#333333"/>
<stop offset="0.15" stop-color="#555555"/>
<stop offset="0.6" stop-color="#555555"/>
<stop offset="1" stop-color="#111111"/>
</linearGradient>
<linearGradient id="paint45_linear_2585_154906" x1="68.9498" y1="34.8315" x2="67.1233" y2="34.8315" gradientUnits="userSpaceOnUse">
<stop stop-color="#111111"/>
<stop offset="1" stop-color="#444444"/>
</linearGradient>
<linearGradient id="paint46_linear_2585_154906" x1="68.9497" y1="34.8316" x2="44.7488" y2="34.8316" gradientUnits="userSpaceOnUse">
<stop stop-color="#777777"/>
<stop offset="0.3" stop-color="#BBBBBB"/>
<stop offset="1" stop-color="#222222"/>
</linearGradient>
<linearGradient id="paint47_linear_2585_154906" x1="68.9497" y1="34.8316" x2="44.7488" y2="34.8316" gradientUnits="userSpaceOnUse">
<stop stop-color="#777777"/>
<stop offset="0.3" stop-color="#BBBBBB"/>
<stop offset="1" stop-color="#222222"/>
</linearGradient>
<linearGradient id="paint48_linear_2585_154906" x1="44.7488" y1="41.0444" x2="59.0562" y2="41.0444" gradientUnits="userSpaceOnUse">
<stop stop-color="#666666"/>
<stop offset="0.9" stop-color="#333333"/>
<stop offset="1" stop-color="#111111"/>
</linearGradient>
<linearGradient id="paint49_linear_2585_154906" x1="56.7733" y1="34.6043" x2="49.0874" y2="34.6043" gradientUnits="userSpaceOnUse">
<stop stop-color="#AAAAAA"/>
<stop offset="0.1" stop-color="#CCCCCC"/>
<stop offset="0.75" stop-color="#CCCCCC"/>
<stop offset="1" stop-color="#777777"/>
</linearGradient>
<linearGradient id="paint50_linear_2585_154906" x1="56.7733" y1="34.6043" x2="49.0874" y2="34.6043" gradientUnits="userSpaceOnUse">
<stop stop-color="#AAAAAA"/>
<stop offset="0.1" stop-color="#CCCCCC"/>
<stop offset="0.75" stop-color="#CCCCCC"/>
<stop offset="1" stop-color="#777777"/>
</linearGradient>
<linearGradient id="paint51_linear_2585_154906" x1="49.0107" y1="34.6043" x2="45.4338" y2="34.6043" gradientUnits="userSpaceOnUse">
<stop stop-color="#AAAAAA"/>
<stop offset="0.7" stop-color="#CCCCCC"/>
<stop offset="0.86" stop-color="#888888"/>
<stop offset="1" stop-color="#888888"/>
</linearGradient>
<linearGradient id="paint52_linear_2585_154906" x1="45.8903" y1="34.6044" x2="44.2161" y2="34.6044" gradientUnits="userSpaceOnUse">
<stop stop-color="#AAAAAA"/>
<stop offset="0.2" stop-color="#CCCCCC"/>
<stop offset="0.8" stop-color="#BBBBBB"/>
<stop offset="1" stop-color="#888888"/>
</linearGradient>
<linearGradient id="paint53_linear_2585_154906" x1="0.608828" y1="0" x2="0.608828" y2="12.1224" gradientUnits="userSpaceOnUse">
<stop stop-color="#111111"/>
<stop offset="0.18" stop-color="#333333"/>
<stop offset="0.2" stop-color="#555555"/>
<stop offset="0.8" stop-color="#555555"/>
<stop offset="0.82" stop-color="#333333"/>
<stop offset="1" stop-color="#111111"/>
</linearGradient>
<linearGradient id="paint54_linear_2585_154906" x1="0" y1="0.606122" x2="7.91476" y2="0.606122" gradientUnits="userSpaceOnUse">
<stop stop-color="#444444"/>
<stop offset="1" stop-color="#111111"/>
</linearGradient>
<linearGradient id="paint55_linear_2585_154906" x1="75.6468" y1="28.0128" x2="34.3987" y2="28.0128" gradientUnits="userSpaceOnUse">
<stop stop-color="#444444"/>
<stop offset="0.2" stop-color="white"/>
<stop offset="0.8" stop-color="white"/>
<stop offset="1" stop-color="#444444"/>
</linearGradient>
</defs>
</svg>
