<svg width="100" height="56" viewBox="0 0 100 56" fill="none" xmlns="http://www.w3.org/2000/svg">
<mask id="mask0_2587_161" style="mask-type:alpha" maskUnits="userSpaceOnUse" x="18" y="0" width="64" height="56">
<rect width="62.6632" height="56" transform="matrix(1 0 0 -1 18.646 56)" fill="#D9D9D9"/>
</mask>
<g mask="url(#mask0_2587_161)">
<mask id="mask1_2587_161" style="mask-type:alpha" maskUnits="userSpaceOnUse" x="18" y="0" width="64" height="56">
<rect width="62.6632" height="56" transform="matrix(1 0 0 -1 18.6455 56)" fill="#D9D9D9"/>
</mask>
<g mask="url(#mask1_2587_161)">
<path d="M44.8125 50.5049C44.8125 48.6405 46.2199 47.142 47.9456 47.142H63.3912C65.1169 47.142 66.5243 48.6526 66.5243 50.5049V52.6371C66.5243 54.5015 65.1169 56 63.3912 56H47.9456C46.2199 56 44.8125 54.4894 44.8125 52.6371V50.5049Z" fill="#050605"/>
<path d="M64.7373 47.4588C65.092 47.6415 65.4103 47.8973 65.6794 48.2021L64.9578 48.1652L64.7373 47.4588ZM63.9294 49.6153C64.1863 49.7616 64.5289 49.8832 64.9942 49.9564C65.1534 49.9806 65.3125 49.9927 65.4716 50.0174L65.4225 49.8348C65.4346 49.8348 64.566 49.7979 63.9294 49.6153ZM61.7633 49.6153C62.0203 49.7616 62.3628 49.8832 62.8281 49.9564C62.9873 49.9806 63.1464 49.9927 63.305 50.0174L63.2564 49.8348C63.2564 49.8348 62.3993 49.7979 61.7633 49.6153ZM59.5845 49.6153C59.8414 49.7616 60.1846 49.8832 60.6493 49.9564C60.8085 49.9806 60.9676 49.9927 61.1267 50.0174L61.0775 49.8348C61.0903 49.8348 60.2211 49.7979 59.5845 49.6153ZM57.4184 49.6153C57.6753 49.7616 58.0179 49.8832 58.4832 49.9564C58.6424 49.9806 58.8015 49.9927 58.9606 50.0174L58.9115 49.8348C58.9115 49.8348 58.055 49.7979 57.4184 49.6153ZM48.092 50.0053L48.0434 49.8221C48.0434 49.8221 47.1863 49.7858 46.5503 49.6032C46.8073 49.7495 47.1499 49.8711 47.6152 49.9443C47.7865 49.9806 47.9456 49.9927 48.092 50.0053ZM50.2708 50.0053L50.2216 49.8221C50.2216 49.8221 49.3652 49.7858 48.7286 49.6032C48.9855 49.7495 49.3287 49.8711 49.7934 49.9443C49.9525 49.9806 50.1117 49.9927 50.2708 50.0053ZM52.4369 50.0053L52.3883 49.8221C52.3883 49.8221 51.5313 49.7858 50.8953 49.6032C51.1522 49.7495 51.4948 49.8711 51.9595 49.9443C52.1186 49.9806 52.2905 49.9927 52.4369 50.0053ZM54.6157 50.0053L54.5666 49.8221C54.5666 49.8221 53.7101 49.7858 53.0735 49.6032C53.3304 49.7495 53.673 49.8711 54.1383 49.9443C54.2975 49.9806 54.4566 49.9927 54.6157 50.0053ZM55.2396 49.6153C55.4965 49.7616 55.8397 49.8832 56.3044 49.9564C56.4635 49.9806 56.6227 49.9927 56.7818 50.0174L56.7332 49.8348C56.7454 49.8348 55.8883 49.7979 55.2396 49.6153ZM52.6453 48.7016L53.5139 48.7989L53.9427 49.4079L53.7344 48.7258L54.5179 48.7989C54.5179 48.7989 54.5301 48.8721 54.6036 48.9937C54.6522 48.8231 54.8235 48.7016 54.8235 48.7016L55.6927 48.7989L56.121 49.4079L55.9132 48.7258L56.6962 48.7989C56.6962 48.7989 56.7083 48.8721 56.7818 48.9937C56.831 48.8231 57.0023 48.7016 57.0023 48.7016L57.8709 48.7989L58.2998 49.4079L58.0914 48.7258L58.875 48.7989C58.875 48.7989 58.8872 48.8721 58.9606 48.9937C59.0093 48.8231 59.1806 48.7016 59.1806 48.7016L60.0498 48.7989L60.478 49.4079L60.2703 48.7258L61.0532 48.7989C61.0532 48.7989 61.0654 48.8721 61.1389 48.9937C61.1881 48.8231 61.3594 48.7016 61.3594 48.7016L62.228 48.7989L62.6568 49.4079L62.4485 48.7258L63.2321 48.7989C63.2321 48.7989 63.2442 48.8721 63.3177 48.9937C63.3663 48.8231 63.5376 48.7016 63.5376 48.7016L64.4068 48.7989L64.8351 49.4079L64.6273 48.7258L65.4103 48.7989C65.4103 48.7989 65.5573 49.42 66.4873 49.7616C66.5243 49.9322 66.5486 50.1027 66.5486 50.2853H66.3403H65.5203H64.125H63.3542H61.9589H61.1881H59.7928H59.0214H57.6262H56.8553H55.4601H54.6892H53.294H52.5226H51.1273H50.3565H48.9612H48.1904H46.0116L45.9016 49.8221C45.9016 49.8221 45.4242 49.7979 44.9225 49.7248C44.9716 49.53 45.0203 49.3347 45.0938 49.1642L45.265 49.42L45.1429 49.0305C45.1916 48.9332 45.2286 48.8479 45.2772 48.7621L45.8403 48.811C45.8403 48.811 45.8524 48.8842 45.9259 49.0058C45.9751 48.8352 46.1464 48.7137 46.1464 48.7137L47.015 48.811L47.4439 49.42L47.2355 48.7379L48.0191 48.811C48.0191 48.811 48.0313 48.8842 48.1047 49.0058C48.1534 48.8352 48.3247 48.7137 48.3247 48.7137L49.1939 48.811L49.6221 49.42L49.4144 48.7379L50.1973 48.811C50.1973 48.811 50.2095 48.8842 50.283 49.0058C50.3322 48.8352 50.5035 48.7137 50.5035 48.7137L51.3721 48.811L51.8009 49.42L51.5926 48.7379L52.3762 48.811C52.3762 48.811 52.3883 48.8842 52.4618 49.0058C52.4861 48.8352 52.6453 48.7016 52.6453 48.7016ZM64.9578 54.9762L65.6794 54.9278C65.4103 55.232 65.092 55.4884 64.7373 55.671L64.9578 54.9762ZM65.4716 53.1366C65.3125 53.1487 65.1534 53.1729 64.9942 53.1977C64.5289 53.2582 64.1863 53.3924 63.9294 53.5388C64.566 53.3561 65.4225 53.3193 65.4225 53.3193L65.4716 53.1366ZM63.305 53.1366C63.1464 53.1487 62.9873 53.1729 62.8281 53.1977C62.3628 53.2582 62.0203 53.3924 61.7633 53.5388C62.3993 53.3561 63.2564 53.3193 63.2564 53.3193L63.305 53.1366ZM61.1267 53.1366C60.9676 53.1487 60.8085 53.1729 60.6493 53.1977C60.1846 53.2582 59.8414 53.3924 59.5845 53.5388C60.2211 53.3561 61.0775 53.3193 61.0775 53.3193L61.1267 53.1366ZM58.9606 53.1366C58.8015 53.1487 58.6424 53.1729 58.4832 53.1977C58.0179 53.2582 57.6753 53.3924 57.4184 53.5388C58.055 53.3435 58.9115 53.3193 58.9115 53.3193L58.9606 53.1366ZM46.5625 53.5267C47.1991 53.3435 48.0556 53.3072 48.0556 53.3072L48.1047 53.1245C47.9456 53.1366 47.7865 53.1608 47.6273 53.185C47.162 53.2582 46.8194 53.3924 46.5625 53.5267ZM48.7286 53.5267C49.3652 53.3435 50.2216 53.3072 50.2216 53.3072L50.2708 53.1245C50.1117 53.1366 49.9525 53.1608 49.7934 53.185C49.3409 53.2582 48.9855 53.3924 48.7286 53.5267ZM50.9074 53.5267C51.5434 53.3435 52.4005 53.3072 52.4005 53.3072L52.4491 53.1245C52.2905 53.1366 52.1314 53.1608 51.9722 53.185C51.5069 53.2582 51.1644 53.3924 50.9074 53.5267ZM56.7818 53.1366C56.6227 53.1487 56.4635 53.1729 56.3044 53.1977C55.8397 53.2582 55.4965 53.3924 55.2396 53.5388C55.8762 53.3561 56.7332 53.3193 56.7332 53.3193L56.7818 53.1366ZM53.0735 53.5267C53.7101 53.3435 54.5666 53.3072 54.5666 53.3072L54.6157 53.1245C54.4566 53.1366 54.2975 53.1608 54.1383 53.185C53.673 53.2582 53.3304 53.3924 53.0735 53.5267ZM52.6453 54.4404C52.6453 54.4404 52.474 54.3062 52.4248 54.1477C52.3634 54.2578 52.3391 54.343 52.3391 54.343L51.5561 54.4162L51.7639 53.7335L51.3356 54.343L50.4664 54.4404C50.4664 54.4404 50.2951 54.3062 50.2465 54.1477C50.1852 54.2578 50.1609 54.343 50.1609 54.343L49.3773 54.4162L49.5856 53.7335L49.1568 54.343L48.2882 54.4404C48.2882 54.4404 48.1169 54.3062 48.0677 54.1477C48.0064 54.2578 47.9821 54.343 47.9821 54.343L47.1991 54.4162L47.4068 53.7335L46.9786 54.343L46.1094 54.4404C46.1094 54.4404 45.9381 54.3062 45.8895 54.1477C45.8281 54.2578 45.8038 54.343 45.8038 54.343L45.2407 54.3914C45.1916 54.3062 45.1429 54.2088 45.1059 54.1235L45.2286 53.7335L45.0446 53.9893C44.9716 53.8067 44.9103 53.624 44.8733 53.4287C45.375 53.3435 45.8524 53.3314 45.8524 53.3314L45.963 52.8687H48.1412H48.912H50.3443H51.1152H52.5104H53.2818H54.6771H55.4479H56.8432H57.614H59.0341H59.805H61.2002H61.9711H63.3663H64.1377H65.533H66.3038H66.5116C66.4994 53.0514 66.4751 53.2219 66.4508 53.3924C65.5203 53.7456 65.3738 54.3551 65.3738 54.3551L64.5903 54.4283L64.7986 53.7456L64.3698 54.3551L63.5012 54.4525C63.5012 54.4525 63.3299 54.3183 63.2807 54.1598C63.2193 54.2699 63.195 54.3551 63.195 54.3551L62.412 54.4283L62.6198 53.7456L62.1916 54.3551L61.3223 54.4525C61.3223 54.4525 61.151 54.3183 61.1024 54.1598C61.0411 54.2699 61.0168 54.3551 61.0168 54.3551L60.2332 54.4283L60.4416 53.7456L60.0127 54.3551L59.1441 54.4525C59.1441 54.4525 58.9728 54.3183 58.9236 54.1598C58.8623 54.2699 58.838 54.3551 58.838 54.3551L58.055 54.4283L58.2627 53.7456L57.8345 54.3551L56.9653 54.4525C56.9653 54.4525 56.794 54.3183 56.7454 54.1598C56.684 54.2699 56.6597 54.3551 56.6597 54.3551L55.8762 54.4283L56.0845 53.7456L55.6557 54.3551L54.787 54.4525C54.787 54.4525 54.6157 54.3183 54.5666 54.1598C54.5052 54.2699 54.4809 54.3551 54.4809 54.3551L53.6979 54.4283L53.9057 53.7456L53.4774 54.3551L52.6453 54.4404ZM63.3906 47.142H63.4155C63.5376 47.142 63.6481 47.1541 63.7703 47.1662L64.1377 48.2263L63.9051 48.2142V48.2263L62.7668 48.1652L62.4363 47.142H62.6568H63.3906ZM64.1499 54.9157L63.7824 55.9758C63.6603 55.9879 63.5376 56 63.4034 56H62.4606L62.7911 54.9762L63.9294 54.9157V54.9278L64.1499 54.9157ZM60.515 47.142H61.3715H61.592L61.9711 48.2263L61.7384 48.2142V48.2263L60.6007 48.1652L60.2703 47.142H60.515ZM61.7384 54.9278L61.9711 54.9157L61.592 56H61.3715H60.515H60.2946L60.6128 54.9762L61.7512 54.9157L61.7384 54.9278ZM58.3362 47.142H59.1927H59.4132L59.7928 48.2263L59.5602 48.2142V48.2263L58.4219 48.1652L58.0914 47.142H58.3362ZM59.5723 54.9278L59.805 54.9157L59.4253 56H59.2054H58.3484H58.1279L58.4589 54.9762L59.5966 54.9157L59.5723 54.9278ZM46.3299 47.6167L46.5382 48.2263L45.6811 48.1773C45.8773 47.9584 46.0972 47.7751 46.3299 47.6167ZM45.6811 54.9641L46.5382 54.9157L46.3299 55.5247C46.0972 55.3663 45.8773 55.1836 45.6811 54.9641ZM47.5781 48.1652L47.272 47.2151C47.4925 47.1662 47.713 47.142 47.9334 47.142H47.9456H48.3368H48.5573L48.9369 48.2263L48.7043 48.2142V48.2263L47.5781 48.1652ZM48.5573 56H48.3368H47.9456C47.713 56 47.4925 55.9758 47.2847 55.9268L47.5903 54.9762L48.7286 54.9157V54.9278L48.9612 54.9157L48.5573 56ZM49.4265 47.142H49.6464H50.5035H50.7234L51.103 48.2263L50.8704 48.2142V48.2263L49.7321 48.1652L49.4265 47.142ZM49.4265 56L49.7448 54.9762L50.8825 54.9157V54.9278L51.1152 54.9157L50.7361 56H50.5156H49.6591H49.4265ZM51.6047 47.142H51.8252H52.6817H52.9022L53.2818 48.2263L53.0492 48.2142V48.2263L51.9109 48.1652L51.6047 47.142ZM51.6047 56L51.9352 54.9762L53.0735 54.9157V54.9278L53.3061 54.9157L52.9265 56H52.7066H51.8495H51.6047ZM56.1701 47.142H57.0266H57.2471L57.6262 48.2263L57.3941 48.2142V48.2263L56.2558 48.1652L55.9253 47.142H56.1701ZM53.7714 47.142H53.9913H54.8484H55.0683L55.4479 48.2263L55.2153 48.2142V48.2263L54.077 48.1652L53.7714 47.142ZM57.4062 54.9278L57.6389 54.9157L57.2593 56H57.0388H56.1823H55.9618L56.2922 54.9762L57.4306 54.9157L57.4062 54.9278ZM53.7714 56L54.0891 54.9762L55.2274 54.9157V54.9278L55.4601 54.9157L55.0804 56H54.8605H54.0035H53.7714ZM52.4126 51.0165H53.2818H54.5787H55.4479H56.7454H57.614H58.9115H59.7807H61.0775H61.9468H63.2442H64.1128H66.2917H66.5116V52.1376H66.2917H64.1128H63.2442H61.9711H61.1024H59.805H58.9358H57.6389H56.7697H55.4722H54.6036H53.2818H52.4126H51.1152H50.2465H48.9491H48.0799H45.9016H44.8125V51.0165H45.9016H48.0799H48.9491H50.2465H51.1152H52.4126Z" fill="#272626"/>
</g>
<mask id="mask2_2587_161" style="mask-type:alpha" maskUnits="userSpaceOnUse" x="18" y="0" width="64" height="56">
<rect width="62.6632" height="56" transform="matrix(1 0 0 -1 18.6455 56)" fill="#D9D9D9"/>
</mask>
<g mask="url(#mask2_2587_161)">
<path d="M44.8125 5.49564C44.8125 7.36 46.2199 8.85852 47.9456 8.85852L63.3912 8.85852C65.1169 8.85852 66.5243 7.3479 66.5243 5.49564V3.36338C66.5243 1.49901 65.1169 0.000495911 63.3912 0.000495911L47.9456 0.000495911C46.2199 0.000495911 44.8125 1.51111 44.8125 3.36338V5.49564Z" fill="#050605"/>
<path d="M64.7373 8.54165C65.092 8.35901 65.4103 8.10321 65.6794 7.79844L64.9578 7.84741L64.7373 8.54165ZM63.9294 6.38519C64.1863 6.23885 64.5289 6.11728 64.9942 6.04412C65.1534 6.01992 65.3125 6.00782 65.4716 5.98304L65.4225 6.16568C65.4346 6.17836 64.566 6.20255 63.9294 6.38519ZM61.7633 6.38519C62.0203 6.23885 62.3628 6.11728 62.8281 6.04412C62.9873 6.01992 63.1464 6.00782 63.305 5.98304L63.2564 6.16568C63.2564 6.17836 62.3993 6.20255 61.7633 6.38519ZM59.5845 6.38519C59.8414 6.23885 60.1846 6.11728 60.6493 6.04412C60.8085 6.01992 60.9676 6.00782 61.1267 5.98304L61.0775 6.16568C61.0903 6.17836 60.2211 6.20255 59.5845 6.38519ZM57.4184 6.38519C57.6753 6.23885 58.0179 6.11728 58.4832 6.04412C58.6424 6.01992 58.8015 6.00782 58.9606 5.98304L58.9115 6.16568C58.9115 6.17836 58.055 6.20255 57.4184 6.38519ZM48.092 5.99515L48.0434 6.17836C48.0434 6.17836 47.1863 6.21465 46.5503 6.39728C46.8073 6.25095 47.1499 6.12938 47.6152 6.05621C47.7865 6.01992 47.9456 6.00782 48.092 5.99515ZM50.2708 5.99515L50.2216 6.17836C50.2216 6.17836 49.3652 6.21465 48.7286 6.39728C48.9855 6.25095 49.3287 6.12938 49.7934 6.05621C49.9525 6.01992 50.1117 6.00782 50.2708 5.99515ZM52.4369 5.99515L52.3883 6.17836C52.3883 6.17836 51.5313 6.21465 50.8953 6.39728C51.1522 6.25095 51.4948 6.12938 51.9595 6.05621C52.1186 6.01992 52.2905 6.00782 52.4369 5.99515ZM54.6157 5.99515L54.5666 6.17836C54.5666 6.17836 53.7101 6.21465 53.0735 6.39728C53.3304 6.25095 53.673 6.12938 54.1383 6.05621C54.2975 6.01992 54.4566 6.00782 54.6157 5.99515ZM55.2396 6.38519C55.4965 6.23885 55.8397 6.11728 56.3044 6.04412C56.4635 6.01992 56.6227 6.00782 56.7818 5.98304L56.7332 6.16568C56.7454 6.17836 55.8883 6.20255 55.2396 6.38519ZM52.6453 7.29893L53.5139 7.20157L53.9427 6.59259L53.7344 7.27473L54.5179 7.20157C54.5179 7.20157 54.5301 7.12839 54.6036 7.00683C54.6522 7.17737 54.8235 7.29893 54.8235 7.29893L55.6927 7.20157L56.121 6.59259L55.9132 7.27473L56.6962 7.20157C56.6962 7.20157 56.7083 7.12839 56.7818 7.00683C56.831 7.17737 57.0023 7.29893 57.0023 7.29893L57.8709 7.20157L58.2998 6.59259L58.0914 7.27473L58.875 7.20157C58.875 7.20157 58.8872 7.12839 58.9606 7.00683C59.0093 7.17737 59.1806 7.29893 59.1806 7.29893L60.0498 7.20157L60.478 6.59259L60.2703 7.27473L61.0532 7.20157C61.0532 7.20157 61.0654 7.12839 61.1389 7.00683C61.1881 7.17737 61.3594 7.29893 61.3594 7.29893L62.228 7.20157L62.6568 6.59259L62.4485 7.27473L63.2321 7.20157C63.2321 7.20157 63.2442 7.12839 63.3177 7.00683C63.3663 7.17737 63.5376 7.29893 63.5376 7.29893L64.4068 7.20157L64.8351 6.59259L64.6273 7.27473L65.4103 7.20157C65.4103 7.20157 65.5573 6.57992 66.4873 6.23885C66.5243 6.06831 66.5486 5.89778 66.5486 5.71515H66.3403H65.5203H64.125H63.3542L61.9589 5.71515H61.1881H59.7928H59.0214H57.6262H56.8553L55.4601 5.71515H54.6892H53.294H52.5226H51.1273H50.3565H48.9612H48.1904H46.0116L45.9016 6.17836C45.9016 6.17836 45.4242 6.19045 44.9225 6.27572C44.9716 6.47045 45.0203 6.66576 45.0938 6.8363L45.265 6.57992L45.1429 6.96996C45.1916 7.06733 45.2286 7.15259 45.2772 7.23844L45.8403 7.18947C45.8403 7.18947 45.8524 7.1163 45.9259 6.99473C45.9751 7.16527 46.1464 7.28683 46.1464 7.28683L47.015 7.18947L47.4439 6.58049L47.2355 7.26263L48.0191 7.18947C48.0191 7.18947 48.0313 7.1163 48.1047 6.99473C48.1534 7.16527 48.3247 7.28683 48.3247 7.28683L49.1939 7.18947L49.6221 6.58049L49.4144 7.26263L50.1973 7.18947C50.1973 7.18947 50.2095 7.1163 50.283 6.99473C50.3322 7.16527 50.5035 7.28683 50.5035 7.28683L51.3721 7.18947L51.8009 6.58049L51.5926 7.26263L52.3762 7.18947C52.3762 7.18947 52.3883 7.1163 52.4618 6.99473C52.4861 7.16527 52.6453 7.29893 52.6453 7.29893ZM64.9578 1.02428L65.6794 1.07268C65.4103 0.768479 65.092 0.512101 64.7373 0.329466L64.9578 1.02428ZM65.4716 2.86387C65.3125 2.85177 65.1534 2.82757 64.9942 2.8028C64.5289 2.7423 64.1863 2.60806 63.9294 2.46173C64.566 2.64436 65.4225 2.68124 65.4225 2.68124L65.4716 2.86387ZM63.305 2.86387C63.1464 2.85177 62.9873 2.82757 62.8281 2.8028C62.3628 2.7423 62.0203 2.60806 61.7633 2.46173C62.3993 2.64436 63.2564 2.68124 63.2564 2.68124L63.305 2.86387ZM61.1267 2.86387C60.9676 2.85177 60.8085 2.82757 60.6493 2.8028C60.1846 2.7423 59.8414 2.60806 59.5845 2.46173C60.2211 2.64436 61.0775 2.68124 61.0775 2.68124L61.1267 2.86387ZM58.9606 2.86387C58.8015 2.85177 58.6424 2.82757 58.4832 2.8028C58.0179 2.7423 57.6753 2.60806 57.4184 2.46173C58.055 2.64436 58.9115 2.68124 58.9115 2.68124L58.9606 2.86387ZM46.5625 2.47383C47.1991 2.65704 48.0556 2.69333 48.0556 2.69333L48.1047 2.87597C47.9456 2.86387 47.7865 2.83967 47.6273 2.81547C47.162 2.7423 46.8194 2.60806 46.5625 2.47383ZM48.7286 2.47383C49.3652 2.65704 50.2216 2.69333 50.2216 2.69333L50.2708 2.87597C50.1117 2.86387 49.9525 2.83967 49.7934 2.81547C49.3409 2.7423 48.9855 2.60806 48.7286 2.47383ZM50.9074 2.47383C51.5434 2.65704 52.4005 2.69333 52.4005 2.69333L52.4491 2.87597C52.2905 2.86387 52.1314 2.83967 51.9722 2.81547C51.5069 2.7423 51.1644 2.60806 50.9074 2.47383ZM56.7818 2.86387C56.6227 2.85177 56.4635 2.82757 56.3044 2.8028C55.8397 2.7423 55.4965 2.60806 55.2396 2.46173C55.8762 2.64436 56.7332 2.68124 56.7332 2.68124L56.7818 2.86387ZM53.0735 2.47383C53.7101 2.65704 54.5666 2.69333 54.5666 2.69333L54.6157 2.87597C54.4566 2.86387 54.2975 2.83967 54.1383 2.81547C53.673 2.7423 53.3304 2.60806 53.0735 2.47383ZM52.6453 1.56008C52.6453 1.56008 52.474 1.68222 52.4248 1.85276C52.3634 1.73062 52.3391 1.65745 52.3391 1.65745L51.5561 1.58428L51.7639 2.267L51.3356 1.65745L50.4664 1.56008C50.4664 1.56008 50.2951 1.68222 50.2465 1.85276C50.1852 1.73062 50.1609 1.65745 50.1609 1.65745L49.3773 1.58428L49.5856 2.267L49.1568 1.65745L48.2882 1.56008C48.2882 1.56008 48.1169 1.68222 48.0677 1.85276C48.0064 1.73062 47.9821 1.65745 47.9821 1.65745L47.1991 1.58428L47.4068 2.267L46.9786 1.65745L46.1094 1.56008C46.1094 1.56008 45.9381 1.68222 45.8895 1.85276C45.8281 1.73062 45.8038 1.65745 45.8038 1.65745L45.2407 1.60906C45.1916 1.69432 45.1429 1.79169 45.1059 1.87695L45.2286 2.267L45.0573 2.01119C44.9838 2.19383 44.9225 2.37646 44.8854 2.57177C45.3877 2.65704 45.8646 2.66914 45.8646 2.66914L45.9751 3.13177H48.1534H48.9248H50.3443H51.1152L52.5104 3.13177H53.2818H54.6771H55.4479H56.8432H57.614H59.0341H59.805H61.2002H61.9711H63.3663H64.1377H65.533H66.3038H66.5116C66.4994 2.94914 66.4751 2.7786 66.4508 2.60806C65.5203 2.2549 65.3738 1.64535 65.3738 1.64535L64.5903 1.57218L64.7986 2.2549L64.3698 1.64535L63.5012 1.54798C63.5012 1.54798 63.3299 1.67012 63.2807 1.84066C63.2193 1.71852 63.195 1.64535 63.195 1.64535L62.412 1.57218L62.6198 2.2549L62.1916 1.64535L61.3223 1.54798C61.3223 1.54798 61.151 1.67012 61.1024 1.84066C61.0411 1.71852 61.0168 1.64535 61.0168 1.64535L60.2332 1.57218L60.4416 2.2549L60.0127 1.64535L59.1441 1.54798C59.1441 1.54798 58.9728 1.67012 58.9236 1.84066C58.8623 1.71852 58.838 1.64535 58.838 1.64535L58.055 1.57218L58.2627 2.2549L57.8345 1.64535L56.9653 1.54798C56.9653 1.54798 56.794 1.67012 56.7454 1.84066C56.684 1.71852 56.6597 1.64535 56.6597 1.64535L55.8762 1.57218L56.0845 2.2549L55.6557 1.64535L54.787 1.54798C54.787 1.54798 54.6157 1.67012 54.5666 1.84066C54.5052 1.71852 54.4809 1.64535 54.4809 1.64535L53.6979 1.57218L53.9057 2.2549L53.4774 1.64535L52.6453 1.56008ZM63.3906 8.85852H63.4155C63.5376 8.85852 63.6481 8.84642 63.7703 8.83432L64.1377 7.77424L63.9051 7.78634V7.77424L62.7668 7.83531L62.4363 8.85852H62.6568H63.3906ZM64.1499 1.08477L63.7824 0.0246935C63.6603 0.0125923 63.5376 0.000495911 63.4155 0.000495911H62.4606L62.7911 1.02428L63.9294 1.08477V1.07268L64.1499 1.08477ZM60.515 8.85852H61.3715H61.592L61.9711 7.77424L61.7384 7.78634V7.77424L60.6007 7.83531L60.2824 8.85852H60.515ZM61.7384 1.07268L61.9711 1.08477L61.592 0.000495911H61.3715H60.515H60.2946L60.6128 1.02428L61.7512 1.08477L61.7384 1.07268ZM58.3362 8.85852H59.1927L59.4132 8.85852L59.7928 7.77424L59.5602 7.78634V7.77424L58.4219 7.83531L58.0914 8.85852H58.3362ZM59.5723 1.07268L59.805 1.08477L59.4253 0.000495911L59.2054 0.000495911H58.3484H58.1279L58.4589 1.02428L59.5966 1.08477L59.5723 1.07268ZM46.3299 8.38379L46.5382 7.77424L45.6811 7.82321C45.8773 8.04214 46.0972 8.22535 46.3299 8.38379ZM45.6811 1.03638L46.5382 1.08477L46.3299 0.475802C46.0972 0.634239 45.8773 0.816875 45.6811 1.03638ZM47.5781 7.83531L47.272 8.78535C47.4925 8.83432 47.713 8.85852 47.9334 8.85852H47.9456H48.3368H48.5573L48.9369 7.77424L48.7043 7.78634V7.77424L47.5781 7.83531ZM48.5573 0.000495911H48.3368H47.9456C47.713 0.000495911 47.4925 0.0246935 47.2847 0.0736637L47.5903 1.02428L48.7286 1.08477V1.07268L48.9612 1.08477L48.5573 0.000495911ZM49.4265 8.85852H49.6464H50.5035H50.7234L51.103 7.77424L50.8704 7.78634V7.77424L49.7321 7.83531L49.4265 8.85852ZM49.4265 0.000495911L49.7448 1.02428L50.8825 1.08477V1.07268L51.1152 1.08477L50.7361 0.000495911H50.5156H49.6591H49.4265ZM51.6047 8.85852H51.8252H52.6817H52.9022L53.2818 7.77424L53.0492 7.78634V7.77424L51.9109 7.83531L51.6047 8.85852ZM51.6047 0.000495911L51.9352 1.02428L53.0735 1.08477V1.07268L53.3061 1.08477L52.9265 0.000495911H52.7066H51.8495H51.6047ZM56.1701 8.85852H57.0266H57.2471L57.6262 7.77424L57.3941 7.78634V7.77424L56.2558 7.83531L55.9253 8.85852H56.1701ZM53.7714 8.85852H53.9913H54.8484H55.0683L55.4479 7.77424L55.2153 7.78634V7.77424L54.077 7.83531L53.7714 8.85852ZM57.4062 1.07268L57.6389 1.08477L57.2593 0.000495911H57.0388H56.1823H55.9618L56.2922 1.02428L57.4306 1.08477L57.4062 1.07268ZM53.7714 0.000495911L54.0891 1.02428L55.2274 1.08477V1.07268L55.4601 1.08477L55.0804 0.000495911H54.8605H54.0035H53.7714ZM52.4126 4.98403H53.2818H54.5787H55.4479L56.7454 4.98403H57.614H58.9115H59.7807H61.0775H61.9468L63.2442 4.98403H64.1128H66.2917H66.5116V3.86288H66.2917H64.1128H63.2442H61.9711H61.1024H59.805H58.9358H57.6389H56.7697H55.4722H54.6036H53.2818H52.4126L51.1152 3.86288H50.2465H48.9491H48.0799H45.9016H44.8125V4.98403H45.9016H48.0799H48.9491H50.2465H51.1152H52.4126Z" fill="#272626"/>
</g>
<mask id="mask3_2587_161" style="mask-type:alpha" maskUnits="userSpaceOnUse" x="18" y="0" width="64" height="56">
<rect width="62.6632" height="56" transform="matrix(1 0 0 -1 18.6455 56)" fill="#D9D9D9"/>
</mask>
<g mask="url(#mask3_2587_161)">
<path d="M52.1189 54.9401H47.1374C44.4331 54.9401 43.5147 51.2234 41.263 51.2234H30.2236C28.8648 51.2234 27.0905 49.3838 23.6391 44.315C20.1878 39.2462 18.6455 33.1905 18.6455 31.363L18.6455 24.6246C18.6455 22.7971 20.1756 16.7656 23.627 11.6847C27.0784 6.60376 28.8648 4.77627 30.2115 4.77627H41.2508C43.5026 4.77627 44.4204 1.06022 47.1253 1.06022H52.1067L52.1189 54.9401ZM81.3087 28.3533C81.3087 43.2187 68.6536 54.9401 65.4592 54.9401H52.6449V1.06022H65.4592C68.6536 1.06022 81.2966 12.7816 81.2966 27.6464V28.3533H81.3087Z" fill="#292929"/>
</g>
<rect width="0.538773" height="52.8198" transform="matrix(1 0 0 -1 52.1191 54.4044)" fill="#050605"/>
<path d="M52.2908 33.1415H55.1426C55.3382 33.1415 55.4974 32.983 55.4974 32.7883V23.2113C55.4974 23.016 55.3382 22.8575 55.1426 22.8575H52.2908C52.0952 22.8575 51.936 23.016 51.936 23.2113V32.7883C51.936 32.983 52.0952 33.1415 52.2908 33.1415Z" fill="#050605"/>
<mask id="mask4_2587_161" style="mask-type:alpha" maskUnits="userSpaceOnUse" x="52" y="33" width="1" height="2">
<rect width="0.538773" height="1.41325" transform="matrix(1 0 0 -1 52.1191 34.9082)" fill="#D9D9D9"/>
</mask>
<g mask="url(#mask4_2587_161)">
<rect width="0.538773" height="1.41325" transform="matrix(1 0 0 -1 52.1191 34.9082)" fill="url(#paint0_linear_2587_161)"/>
</g>
<mask id="mask5_2587_161" style="mask-type:alpha" maskUnits="userSpaceOnUse" x="52" y="35" width="1" height="2">
<rect width="0.538773" height="1.41325" transform="matrix(1 0 0 -1 52.1069 36.5039)" fill="#D9D9D9"/>
</mask>
<g mask="url(#mask5_2587_161)">
<rect width="0.538771" height="1.41325" transform="matrix(1 0 0 -1 52.1069 36.5039)" fill="url(#paint1_linear_2587_161)"/>
</g>
<mask id="mask6_2587_161" style="mask-type:alpha" maskUnits="userSpaceOnUse" x="52" y="36" width="1" height="3">
<rect width="0.538773" height="1.41268" transform="matrix(1 0 0 -1 52.1191 38.1006)" fill="#D9D9D9"/>
</mask>
<g mask="url(#mask6_2587_161)">
<rect width="0.538773" height="1.41268" transform="matrix(1 0 0 -1 52.1191 38.1006)" fill="url(#paint2_linear_2587_161)"/>
</g>
<mask id="mask7_2587_161" style="mask-type:alpha" maskUnits="userSpaceOnUse" x="52" y="39" width="1" height="3">
<rect width="0.538773" height="1.41325" transform="matrix(1 0 0 -1 52.1191 41.2928)" fill="#D9D9D9"/>
</mask>
<g mask="url(#mask7_2587_161)">
<rect width="0.538773" height="1.41325" transform="matrix(1 0 0 -1 52.1191 41.2928)" fill="url(#paint3_linear_2587_161)"/>
</g>
<mask id="mask8_2587_161" style="mask-type:alpha" maskUnits="userSpaceOnUse" x="52" y="38" width="1" height="2">
<rect width="0.538773" height="1.41325" transform="matrix(1 0 0 -1 52.1069 39.6973)" fill="#D9D9D9"/>
</mask>
<g mask="url(#mask8_2587_161)">
<rect width="0.538771" height="1.41325" transform="matrix(1 0 0 -1 52.1069 39.6973)" fill="url(#paint4_linear_2587_161)"/>
</g>
<mask id="mask9_2587_161" style="mask-type:alpha" maskUnits="userSpaceOnUse" x="52" y="32" width="1" height="2">
<rect width="0.538773" height="0.576132" transform="matrix(1 0 0 -1 52.1191 33.3114)" fill="#D9D9D9"/>
</mask>
<g mask="url(#mask9_2587_161)">
<rect width="0.538771" height="0.576132" transform="matrix(1 0 0 -1 52.1191 33.3114)" fill="url(#paint5_linear_2587_161)"/>
</g>
<mask id="mask10_2587_161" style="mask-type:alpha" maskUnits="userSpaceOnUse" x="52" y="41" width="1" height="1">
<rect width="0.538773" height="0.576132" transform="matrix(1 0 0 -1 52.1191 41.6472)" fill="#D9D9D9"/>
</mask>
<g mask="url(#mask10_2587_161)">
<rect width="0.538771" height="0.576132" transform="matrix(1 0 0 -1 52.1191 41.6472)" fill="url(#paint6_linear_2587_161)"/>
</g>
<mask id="mask11_2587_161" style="mask-type:alpha" maskUnits="userSpaceOnUse" x="52" y="21" width="1" height="2">
<rect width="0.538773" height="1.41325" transform="matrix(1 0 0 -1 52.1191 22.5045)" fill="#D9D9D9"/>
</mask>
<g mask="url(#mask11_2587_161)">
<rect width="0.538773" height="1.41325" transform="matrix(1 0 0 -1 52.1191 22.5045)" fill="url(#paint7_linear_2587_161)"/>
</g>
<mask id="mask12_2587_161" style="mask-type:alpha" maskUnits="userSpaceOnUse" x="52" y="19" width="1" height="2">
<rect width="0.538773" height="1.41325" transform="matrix(1 0 0 -1 52.1069 20.9089)" fill="#D9D9D9"/>
</mask>
<g mask="url(#mask12_2587_161)">
<rect width="0.538771" height="1.41325" transform="matrix(1 0 0 -1 52.1069 20.9089)" fill="url(#paint8_linear_2587_161)"/>
</g>
<mask id="mask13_2587_161" style="mask-type:alpha" maskUnits="userSpaceOnUse" x="52" y="17" width="1" height="3">
<rect width="0.538773" height="1.41267" transform="matrix(1 0 0 -1 52.1191 19.312)" fill="#D9D9D9"/>
</mask>
<g mask="url(#mask13_2587_161)">
<rect width="0.538773" height="1.41267" transform="matrix(1 0 0 -1 52.1191 19.312)" fill="url(#paint9_linear_2587_161)"/>
</g>
<mask id="mask14_2587_161" style="mask-type:alpha" maskUnits="userSpaceOnUse" x="52" y="14" width="1" height="3">
<rect width="0.538773" height="1.41325" transform="matrix(1 0 0 -1 52.1191 16.1199)" fill="#D9D9D9"/>
</mask>
<g mask="url(#mask14_2587_161)">
<rect width="0.538773" height="1.41325" transform="matrix(1 0 0 -1 52.1191 16.1199)" fill="url(#paint10_linear_2587_161)"/>
</g>
<mask id="mask15_2587_161" style="mask-type:alpha" maskUnits="userSpaceOnUse" x="52" y="16" width="1" height="2">
<rect width="0.538773" height="1.41325" transform="matrix(1 0 0 -1 52.1069 17.7164)" fill="#D9D9D9"/>
</mask>
<g mask="url(#mask15_2587_161)">
<rect width="0.538771" height="1.41325" transform="matrix(1 0 0 -1 52.1069 17.7164)" fill="url(#paint11_linear_2587_161)"/>
</g>
<mask id="mask16_2587_161" style="mask-type:alpha" maskUnits="userSpaceOnUse" x="52" y="22" width="1" height="1">
<rect width="0.538773" height="0.576132" transform="matrix(1 0 0 -1 52.1191 22.8701)" fill="#D9D9D9"/>
</mask>
<g mask="url(#mask16_2587_161)">
<rect width="0.538771" height="0.576132" transform="matrix(1 0 0 -1 52.1191 22.8701)" fill="url(#paint12_linear_2587_161)"/>
</g>
<mask id="mask17_2587_161" style="mask-type:alpha" maskUnits="userSpaceOnUse" x="52" y="13" width="1" height="2">
<rect width="0.538773" height="0.576132" transform="matrix(1 0 0 -1 52.1191 14.5365)" fill="#D9D9D9"/>
</mask>
<g mask="url(#mask17_2587_161)">
<rect width="0.538771" height="0.576132" transform="matrix(1 0 0 -1 52.1191 14.5365)" fill="url(#paint13_linear_2587_161)"/>
</g>
<mask id="mask18_2587_161" style="mask-type:alpha" maskUnits="userSpaceOnUse" x="18" y="0" width="64" height="56">
<rect width="62.6632" height="56" transform="matrix(1 0 0 -1 18.6455 56)" fill="#D9D9D9"/>
</mask>
<g mask="url(#mask18_2587_161)">
<path d="M37.5177 50.152H43.2208C43.8082 50.152 44.2856 49.6767 44.2856 49.0919C44.2856 48.5071 43.8082 48.0318 43.2208 48.0318H37.5177C36.9303 48.0318 36.4529 48.5071 36.4529 49.0919C36.4407 49.6767 36.9303 50.152 37.5177 50.152Z" fill="#050605"/>
<path d="M53.355 41.1107C53.355 41.3054 53.5141 41.4639 53.7097 41.4639C53.9059 41.4639 54.0651 41.3054 54.0651 41.1107C54.0651 40.916 53.9059 40.7575 53.7097 40.7575C53.5263 40.7575 53.355 40.916 53.355 41.1107Z" fill="#050605"/>
<path d="M53.355 39.3441C53.355 39.5388 53.5141 39.6973 53.7097 39.6973C53.9059 39.6973 54.0651 39.5388 54.0651 39.3441C54.0651 39.1494 53.9059 38.9909 53.7097 38.9909C53.5141 38.9909 53.355 39.1494 53.355 39.3441Z" fill="#050605"/>
<path d="M53.355 35.445C53.355 35.6398 53.5141 35.7982 53.7097 35.7982C53.9059 35.7982 54.0651 35.6398 54.0651 35.445C54.0651 35.2503 53.9059 35.0919 53.7097 35.0919C53.5141 35.0919 53.355 35.2503 53.355 35.445Z" fill="#050605"/>
<path d="M53.355 33.6773C53.355 33.8721 53.5141 34.0305 53.7097 34.0305C53.9059 34.0305 54.0651 33.8721 54.0651 33.6773C54.0651 33.4826 53.9059 33.3242 53.7097 33.3242C53.5263 33.3121 53.355 33.4826 53.355 33.6773Z" fill="#050605"/>
<path d="M50.6865 41.1107C50.6865 41.3054 50.8457 41.4639 51.0413 41.4639C51.2374 41.4639 51.3966 41.3054 51.3966 41.1107C51.3966 40.916 51.2374 40.7575 51.0413 40.7575C50.8457 40.7575 50.6865 40.916 50.6865 41.1107Z" fill="#050605"/>
<path d="M50.6865 39.3441C50.6865 39.5388 50.8457 39.6973 51.0413 39.6973C51.2374 39.6973 51.3966 39.5388 51.3966 39.3441C51.3966 39.1494 51.2374 38.9909 51.0413 38.9909C50.8457 38.9909 50.6865 39.1494 50.6865 39.3441Z" fill="#050605"/>
<path d="M50.6865 35.445C50.6865 35.6398 50.8457 35.7982 51.0413 35.7982C51.2374 35.7982 51.3966 35.6398 51.3966 35.445C51.3966 35.2503 51.2374 35.0919 51.0413 35.0919C50.8457 35.0919 50.6865 35.2503 50.6865 35.445Z" fill="#050605"/>
<path d="M50.6865 33.6773C50.6865 33.8721 50.8457 34.0305 51.0413 34.0305C51.2374 34.0305 51.3966 33.8721 51.3966 33.6773C51.3966 33.4826 51.2374 33.3242 51.0413 33.3242C50.8457 33.3242 50.6865 33.4826 50.6865 33.6773Z" fill="#050605"/>
<path d="M53.355 22.3347C53.355 22.5294 53.5141 22.6879 53.7097 22.6879C53.9059 22.6879 54.0651 22.5294 54.0651 22.3347C54.0651 22.14 53.9059 21.9815 53.7097 21.9815C53.5141 21.9815 53.355 22.14 53.355 22.3347Z" fill="#050605"/>
<path d="M53.355 20.5556C53.355 20.7504 53.5141 20.9088 53.7097 20.9088C53.9059 20.9088 54.0651 20.7504 54.0651 20.5556C54.0651 20.3609 53.9059 20.2025 53.7097 20.2025C53.5141 20.2025 53.355 20.3609 53.355 20.5556Z" fill="#050605"/>
<path d="M53.355 16.6555C53.355 16.8502 53.5141 17.0087 53.7097 17.0087C53.9059 17.0087 54.0651 16.8502 54.0651 16.6555C54.0651 16.4608 53.9059 16.3023 53.7097 16.3023C53.5141 16.3023 53.355 16.4608 53.355 16.6555Z" fill="#050605"/>
<path d="M53.355 14.89C53.355 15.0847 53.5141 15.2432 53.7097 15.2432C53.9059 15.2432 54.0651 15.0847 54.0651 14.89C54.0651 14.6953 53.9059 14.5368 53.7097 14.5368C53.5263 14.5368 53.355 14.6953 53.355 14.89Z" fill="#050605"/>
<path d="M50.6865 22.3347C50.6865 22.5294 50.8457 22.6879 51.0413 22.6879C51.2374 22.6879 51.3966 22.5294 51.3966 22.3347C51.3966 22.14 51.2374 21.9815 51.0413 21.9815C50.8457 21.9815 50.6865 22.14 50.6865 22.3347Z" fill="#050605"/>
<path d="M50.6865 20.5556C50.6865 20.7504 50.8457 20.9088 51.0413 20.9088C51.2374 20.9088 51.3966 20.7504 51.3966 20.5556C51.3966 20.3609 51.2374 20.2025 51.0413 20.2025C50.8457 20.2025 50.6865 20.3609 50.6865 20.5556Z" fill="#050605"/>
<path d="M50.6865 16.6555C50.6865 16.8502 50.8457 17.0087 51.0413 17.0087C51.2374 17.0087 51.3966 16.8502 51.3966 16.6555C51.3966 16.4608 51.2374 16.3023 51.0413 16.3023C50.8457 16.3023 50.6865 16.4608 50.6865 16.6555Z" fill="#050605"/>
<path d="M50.6865 14.89C50.6865 15.0847 50.8457 15.2432 51.0413 15.2432C51.2374 15.2432 51.3966 15.0847 51.3966 14.89C51.3966 14.6953 51.2374 14.5368 51.0413 14.5368C50.8457 14.5368 50.6865 14.6953 50.6865 14.89Z" fill="#050605"/>
<path d="M37.5177 7.96838H43.2208C43.8082 7.96838 44.2856 7.49308 44.2856 6.9083C44.2856 6.32353 43.8082 5.84822 43.2208 5.84822H37.5177C36.9303 5.84822 36.4529 6.32353 36.4529 6.9083C36.4407 7.49308 36.9303 7.96838 37.5177 7.96838Z" fill="#050605"/>
<path d="M38.2275 9.56529C38.2275 9.76002 38.3867 9.91846 38.5823 9.91846C38.7785 9.91846 38.9376 9.76002 38.9376 9.56529C38.9376 9.37056 38.7785 9.21212 38.5823 9.21212C38.3867 9.21212 38.2275 9.37056 38.2275 9.56529Z" fill="#050605"/>
<path d="M47.6646 9.56529C47.6646 9.76002 47.8237 9.91846 48.0193 9.91846C48.2155 9.91846 48.3746 9.76002 48.3746 9.56529C48.3746 9.37056 48.2155 9.21212 48.0193 9.21212C47.8237 9.21212 47.6646 9.37056 47.6646 9.56529Z" fill="#050605"/>
<path d="M60.1235 9.56529C60.1235 9.76002 60.2827 9.91846 60.4783 9.91846C60.6745 9.91846 60.8336 9.76002 60.8336 9.56529C60.8336 9.37056 60.6745 9.21212 60.4783 9.21212C60.2827 9.21212 60.1235 9.37056 60.1235 9.56529Z" fill="#050605"/>
<path d="M65.4595 9.56529C65.4595 9.76002 65.6186 9.91846 65.8142 9.91846C66.0104 9.91846 66.1695 9.76002 66.1695 9.56529C66.1695 9.37056 66.0104 9.21212 65.8142 9.21212C65.6308 9.21212 65.4595 9.37056 65.4595 9.56529Z" fill="#050605"/>
<path d="M38.2275 46.4354C38.2275 46.2407 38.3867 46.0822 38.5823 46.0822C38.7785 46.0822 38.9376 46.2407 38.9376 46.4354C38.9376 46.6301 38.7785 46.7886 38.5823 46.7886C38.3867 46.7886 38.2275 46.6301 38.2275 46.4354Z" fill="#050605"/>
<path d="M47.6646 46.4354C47.6646 46.2407 47.8237 46.0822 48.0193 46.0822C48.2155 46.0822 48.3746 46.2407 48.3746 46.4354C48.3746 46.6301 48.2155 46.7886 48.0193 46.7886C47.8237 46.7886 47.6646 46.6301 47.6646 46.4354Z" fill="#050605"/>
<path d="M60.1235 46.4354C60.1235 46.2407 60.2827 46.0822 60.4783 46.0822C60.6745 46.0822 60.8336 46.2407 60.8336 46.4354C60.8336 46.6301 60.6745 46.7886 60.4783 46.7886C60.2827 46.7886 60.1235 46.6301 60.1235 46.4354Z" fill="#050605"/>
<path d="M65.4595 46.4354C65.4595 46.2407 65.6186 46.0822 65.8142 46.0822C66.0104 46.0822 66.1695 46.2407 66.1695 46.4354C66.1695 46.6301 66.0104 46.7886 65.8142 46.7886C65.6308 46.7886 65.4595 46.6301 65.4595 46.4354Z" fill="#050605"/>
<path d="M74.3696 20.2024C74.3696 20.3971 74.5288 20.5555 74.7244 20.5555C74.9206 20.5555 75.0797 20.3971 75.0797 20.2024C75.0797 20.0076 74.9206 19.8492 74.7244 19.8492C74.5288 19.8492 74.3696 20.0076 74.3696 20.2024Z" fill="#050605"/>
<path d="M74.3696 35.7984C74.3696 35.6037 74.5288 35.4453 74.7244 35.4453C74.9206 35.4453 75.0797 35.6037 75.0797 35.7984C75.0797 35.9932 74.9206 36.1516 74.7244 36.1516C74.5288 36.1516 74.3696 35.9932 74.3696 35.7984Z" fill="#050605"/>
<path d="M24.5195 20.2024C24.5195 20.3971 24.6787 20.5555 24.8743 20.5555C25.0705 20.5555 25.2296 20.3971 25.2296 20.2024C25.2296 20.0076 25.0705 19.8492 24.8743 19.8492C24.6787 19.8492 24.5195 20.0076 24.5195 20.2024Z" fill="#050605"/>
<path d="M24.5195 35.7984C24.5195 35.6037 24.6787 35.4453 24.8743 35.4453C25.0705 35.4453 25.2296 35.6037 25.2296 35.7984C25.2296 35.9932 25.0705 36.1516 24.8743 36.1516C24.6787 36.1516 24.5195 35.9932 24.5195 35.7984Z" fill="#050605"/>
<path d="M65.1045 27.9999C65.1045 26.1355 69.4616 24.0643 77.3921 23.0405C78.3105 24.0764 78.8122 26.1476 78.8122 27.9999C78.8122 29.8522 78.3105 31.9354 77.3921 32.9592C69.4737 31.9354 65.1045 29.8642 65.1045 27.9999Z" fill="#111112"/>
<path d="M66.5361 28.0001C66.5361 28.5849 67.0136 29.0602 67.6009 29.0602C68.1883 29.0602 68.6658 28.5849 68.6658 28.0001C68.6658 27.4153 68.1883 26.94 67.6009 26.94C67.0136 26.94 66.5361 27.4153 66.5361 28.0001Z" fill="#181818"/>
<path d="M67.2466 28.0003C67.2466 28.1951 67.4057 28.3535 67.6013 28.3535C67.7975 28.3535 67.9566 28.1951 67.9566 28.0003C67.9566 27.8056 67.7975 27.6472 67.6013 27.6472C67.4057 27.6472 67.2466 27.8056 67.2466 28.0003Z" fill="#D9E0E0"/>
<path d="M68.1396 30.2181C68.1396 30.3644 68.2618 30.486 68.4087 30.486C68.5557 30.486 68.6784 30.3644 68.6784 30.2181C68.6784 30.0717 68.5557 29.9502 68.4087 29.9502C68.2496 29.9502 68.1396 30.0717 68.1396 30.2181Z" fill="#363E41"/>
<path d="M68.1396 25.7823C68.1396 25.9286 68.2618 26.0502 68.4087 26.0502C68.5557 26.0502 68.6784 25.9286 68.6784 25.7823C68.6784 25.6359 68.5557 25.5144 68.4087 25.5144C68.2496 25.5144 68.1396 25.6359 68.1396 25.7823Z" fill="#363E41"/>
<path d="M76.854 32.3381C76.854 32.4844 76.9761 32.606 77.1231 32.606C77.2701 32.606 77.3928 32.4844 77.3928 32.3381C77.3928 32.1917 77.2701 32.0702 77.1231 32.0702C76.9761 32.0702 76.854 32.1917 76.854 32.3381Z" fill="#363E41"/>
<path d="M76.854 23.6623C76.854 23.8086 76.9761 23.9302 77.1231 23.9302C77.2701 23.9302 77.3928 23.8086 77.3928 23.6623C77.3928 23.5159 77.2701 23.3944 77.1231 23.3944C76.9761 23.3944 76.854 23.5159 76.854 23.6623Z" fill="#363E41"/>
<path d="M69.2041 27.9999C69.2041 30.7411 71.4315 32.9592 74.1856 32.9592C76.9391 32.9592 79.1665 30.7411 79.1665 27.9999C79.1665 25.2587 76.9391 23.0405 74.1856 23.0405C71.4315 23.0405 69.2041 25.2587 69.2041 27.9999Z" fill="#181818"/>
<g opacity="0.102005">
<mask id="mask19_2587_161" style="mask-type:alpha" maskUnits="userSpaceOnUse" x="69" y="23" width="11" height="10">
<rect width="9.9625" height="9.91822" transform="matrix(1 0 0 -1 69.2036 32.9592)" fill="#D9D9D9"/>
</mask>
<g mask="url(#mask19_2587_161)">
<mask id="mask20_2587_161" style="mask-type:alpha" maskUnits="userSpaceOnUse" x="69" y="23" width="11" height="10">
<path d="M69.2036 27.9998C69.2036 25.2585 71.431 23.0404 74.1845 23.0404C76.9386 23.0404 79.166 25.2585 79.166 27.9998C79.166 30.741 76.9386 32.9591 74.1845 32.9591C71.431 32.9591 69.2036 30.741 69.2036 27.9998Z" fill="black"/>
</mask>
<g mask="url(#mask20_2587_161)">
<rect width="9.96239" height="9.91868" transform="matrix(1 0 0 -1 69.2036 32.9591)" fill="url(#paint14_linear_2587_161)"/>
</g>
</g>
</g>
<path d="M69.5591 28.0004C69.5591 30.5469 71.6274 32.606 74.1852 32.606C76.7431 32.606 78.812 30.5469 78.812 28.0004C78.812 25.4539 76.7431 23.3948 74.1852 23.3948C71.6274 23.3948 69.5591 25.4539 69.5591 28.0004Z" fill="#181818"/>
<g opacity="0.102005">
<mask id="mask21_2587_161" style="mask-type:alpha" maskUnits="userSpaceOnUse" x="71" y="25" width="7" height="6">
<rect width="5.7033" height="5.67801" transform="matrix(1 0 0 -1 71.3335 30.8392)" fill="#D9D9D9"/>
</mask>
<g mask="url(#mask21_2587_161)">
<mask id="mask22_2587_161" style="mask-type:alpha" maskUnits="userSpaceOnUse" x="71" y="25" width="7" height="6">
<path d="M71.3335 28.0001C71.3335 29.5717 72.6061 30.8392 74.1848 30.8392C75.7641 30.8392 77.0366 29.5717 77.0366 28.0001C77.0366 26.4284 75.7641 25.1609 74.1848 25.1609C72.6061 25.1609 71.3335 26.4284 71.3335 28.0001Z" fill="black"/>
</mask>
<g mask="url(#mask22_2587_161)">
<rect width="5.70313" height="5.67835" transform="matrix(1 0 0 -1 71.3335 30.8392)" fill="url(#paint15_linear_2587_161)"/>
</g>
</g>
</g>
<path d="M71.873 27.9997C71.873 29.2666 72.9136 30.3025 74.1861 30.3025C75.4593 30.3025 76.4992 29.2666 76.4992 27.9997C76.4992 26.7328 75.4593 25.6969 74.1861 25.6969C72.9136 25.6969 71.873 26.7328 71.873 27.9997Z" fill="#181818"/>
<path d="M73.6597 31.7284C73.6597 31.9225 73.8188 32.0815 74.0144 32.0815C74.2106 32.0815 74.3697 31.9225 74.3697 31.7284C74.3697 31.5336 74.2106 31.3746 74.0144 31.3746C73.8188 31.3746 73.6597 31.5336 73.6597 31.7284Z" fill="#111112"/>
<path d="M70.624 26.0503C70.624 26.245 70.7832 26.4034 70.9788 26.4034C71.175 26.4034 71.3341 26.245 71.3341 26.0503C71.3341 25.8555 71.175 25.6971 70.9788 25.6971C70.7832 25.6971 70.624 25.8555 70.624 26.0503Z" fill="#111112"/>
<path d="M77.2085 26.4037C77.2085 26.5978 77.3676 26.7568 77.5632 26.7568C77.7594 26.7568 77.9186 26.5978 77.9186 26.4037C77.9186 26.2089 77.7594 26.0499 77.5632 26.0499C77.3798 26.0499 77.2085 26.2089 77.2085 26.4037Z" fill="#111112"/>
</g>
</g>
<defs>
<linearGradient id="paint0_linear_2587_161" x1="0.134693" y1="0.353313" x2="0.134693" y2="0.353313" gradientUnits="userSpaceOnUse">
<stop offset="1" stop-color="#AFB0AF"/>
<stop offset="0.9889" stop-color="#AFB0AF"/>
<stop offset="0.9" stop-color="#939494"/>
<stop offset="0.2056" stop-color="white"/>
<stop offset="0.0111" stop-color="#CECECE"/>
<stop stop-color="#CECECE"/>
</linearGradient>
<linearGradient id="paint1_linear_2587_161" x1="0.134693" y1="0.353313" x2="0.134693" y2="0.353313" gradientUnits="userSpaceOnUse">
<stop offset="1" stop-color="#AFAFAF"/>
<stop offset="0.9889" stop-color="#AFAFAF"/>
<stop offset="0.9" stop-color="#909090"/>
<stop offset="0.2056" stop-color="white"/>
<stop offset="0.0111" stop-color="#CECECE"/>
<stop stop-color="#CECECE"/>
</linearGradient>
<linearGradient id="paint2_linear_2587_161" x1="0.134693" y1="0.353169" x2="0.134693" y2="0.353169" gradientUnits="userSpaceOnUse">
<stop offset="1" stop-color="#AFB0AF"/>
<stop offset="0.9889" stop-color="#AFB0AF"/>
<stop offset="0.9" stop-color="#939494"/>
<stop offset="0.2056" stop-color="white"/>
<stop offset="0.0111" stop-color="#CECECE"/>
<stop stop-color="#CECECE"/>
</linearGradient>
<linearGradient id="paint3_linear_2587_161" x1="0.134693" y1="0.353313" x2="0.134693" y2="0.353313" gradientUnits="userSpaceOnUse">
<stop offset="1" stop-color="#AFB0AF"/>
<stop offset="0.9889" stop-color="#AFB0AF"/>
<stop offset="0.9" stop-color="#939494"/>
<stop offset="0.2056" stop-color="white"/>
<stop offset="0.0111" stop-color="#CECECE"/>
<stop stop-color="#CECECE"/>
</linearGradient>
<linearGradient id="paint4_linear_2587_161" x1="0.134693" y1="0.353313" x2="0.134693" y2="0.353313" gradientUnits="userSpaceOnUse">
<stop offset="1" stop-color="#AFAFAF"/>
<stop offset="0.9889" stop-color="#AFAFAF"/>
<stop offset="0.9" stop-color="#909090"/>
<stop offset="0.2056" stop-color="white"/>
<stop offset="0.0111" stop-color="#CECECE"/>
<stop stop-color="#CECECE"/>
</linearGradient>
<linearGradient id="paint5_linear_2587_161" x1="0.134693" y1="0.144033" x2="0.134693" y2="0.144033" gradientUnits="userSpaceOnUse">
<stop offset="1" stop-color="#AFAFAF"/>
<stop offset="0.9889" stop-color="#AFAFAF"/>
<stop offset="0.9" stop-color="#8E8D8E"/>
<stop offset="0.2056" stop-color="white"/>
<stop offset="0.0111" stop-color="#CECECE"/>
<stop stop-color="#CECECE"/>
</linearGradient>
<linearGradient id="paint6_linear_2587_161" x1="0.134693" y1="0.144033" x2="0.134693" y2="0.144033" gradientUnits="userSpaceOnUse">
<stop offset="1" stop-color="#AFAFAF"/>
<stop offset="0.9889" stop-color="#AFAFAF"/>
<stop offset="0.9" stop-color="#8E8D8E"/>
<stop offset="0.2056" stop-color="white"/>
<stop offset="0.0111" stop-color="#CECECE"/>
<stop stop-color="#CECECE"/>
</linearGradient>
<linearGradient id="paint7_linear_2587_161" x1="0.134693" y1="0.353313" x2="0.134693" y2="0.353313" gradientUnits="userSpaceOnUse">
<stop offset="1" stop-color="#AFB0AF"/>
<stop offset="0.9889" stop-color="#AFB0AF"/>
<stop offset="0.9" stop-color="#939494"/>
<stop offset="0.2056" stop-color="white"/>
<stop offset="0.0111" stop-color="#CECECE"/>
<stop stop-color="#CECECE"/>
</linearGradient>
<linearGradient id="paint8_linear_2587_161" x1="0.134693" y1="0.353312" x2="0.134693" y2="0.353312" gradientUnits="userSpaceOnUse">
<stop offset="1" stop-color="#AFAFAF"/>
<stop offset="0.9889" stop-color="#AFAFAF"/>
<stop offset="0.9" stop-color="#909090"/>
<stop offset="0.2056" stop-color="white"/>
<stop offset="0.0111" stop-color="#CECECE"/>
<stop stop-color="#CECECE"/>
</linearGradient>
<linearGradient id="paint9_linear_2587_161" x1="0.134693" y1="0.353168" x2="0.134693" y2="0.353168" gradientUnits="userSpaceOnUse">
<stop offset="1" stop-color="#AFB0AF"/>
<stop offset="0.9889" stop-color="#AFB0AF"/>
<stop offset="0.9" stop-color="#939494"/>
<stop offset="0.2056" stop-color="white"/>
<stop offset="0.0111" stop-color="#CECECE"/>
<stop stop-color="#CECECE"/>
</linearGradient>
<linearGradient id="paint10_linear_2587_161" x1="0.134693" y1="0.353313" x2="0.134693" y2="0.353313" gradientUnits="userSpaceOnUse">
<stop offset="1" stop-color="#AFB0AF"/>
<stop offset="0.9889" stop-color="#AFB0AF"/>
<stop offset="0.9" stop-color="#939494"/>
<stop offset="0.2056" stop-color="white"/>
<stop offset="0.0111" stop-color="#CECECE"/>
<stop stop-color="#CECECE"/>
</linearGradient>
<linearGradient id="paint11_linear_2587_161" x1="0.134693" y1="0.353313" x2="0.134693" y2="0.353313" gradientUnits="userSpaceOnUse">
<stop offset="1" stop-color="#AFAFAF"/>
<stop offset="0.9889" stop-color="#AFAFAF"/>
<stop offset="0.9" stop-color="#909090"/>
<stop offset="0.2056" stop-color="white"/>
<stop offset="0.0111" stop-color="#CECECE"/>
<stop stop-color="#CECECE"/>
</linearGradient>
<linearGradient id="paint12_linear_2587_161" x1="0.134693" y1="0.144033" x2="0.134693" y2="0.144033" gradientUnits="userSpaceOnUse">
<stop offset="1" stop-color="#AFAFAF"/>
<stop offset="0.9889" stop-color="#AFAFAF"/>
<stop offset="0.9" stop-color="#8E8D8E"/>
<stop offset="0.2056" stop-color="white"/>
<stop offset="0.0111" stop-color="#CECECE"/>
<stop stop-color="#CECECE"/>
</linearGradient>
<linearGradient id="paint13_linear_2587_161" x1="0.134693" y1="0.144033" x2="0.134693" y2="0.144033" gradientUnits="userSpaceOnUse">
<stop offset="1" stop-color="#AFAFAF"/>
<stop offset="0.9889" stop-color="#AFAFAF"/>
<stop offset="0.9" stop-color="#8E8D8E"/>
<stop offset="0.2056" stop-color="white"/>
<stop offset="0.0111" stop-color="#CECECE"/>
<stop stop-color="#CECECE"/>
</linearGradient>
<linearGradient id="paint14_linear_2587_161" x1="2.4906" y1="2.47967" x2="2.4906" y2="2.47967" gradientUnits="userSpaceOnUse">
<stop offset="1" stop-color="white"/>
<stop stop-color="#050605"/>
</linearGradient>
<linearGradient id="paint15_linear_2587_161" x1="1.42578" y1="1.41959" x2="1.42578" y2="1.41959" gradientUnits="userSpaceOnUse">
<stop offset="1" stop-color="white"/>
<stop stop-color="#050605"/>
</linearGradient>
</defs>
</svg>
