<svg width="100" height="56" viewBox="0 0 100 56" fill="none" xmlns="http://www.w3.org/2000/svg">
<g clip-path="url(#clip0_6566_5377)">
<path d="M97.4219 35.8218H100V47.6334H97.3242V49.8579H93.1641V52.2202L86.7383 55.3109H83.5156V52.7517H81.6016L80.7812 51.5903L76.0938 55.9802H55.1367L52.7148 53.4407H50.1367L49.6875 54.4053L49.2188 54.1888L49.5703 53.4407H45.6445L45.1758 54.4053L44.7266 54.1888L45.0781 53.4407H41.1523L40.6836 54.4053L40.2344 54.1888L40.5859 53.4407H36.6602L36.1914 54.4053L35.7422 54.1888L36.0938 53.4407H32.168L31.6992 54.4053L31.25 54.1888L31.6016 53.4407H27.6758L27.207 54.4053L26.7578 54.1888L27.1094 53.4407H23.1836L22.7344 54.4053L22.2852 54.1888L22.6367 53.4407H18.75L18.3008 54.4053L17.8516 54.1888L18.2031 53.4407H15.0195C14.7656 53.4407 14.5312 53.4211 14.2969 53.362L13.8086 54.3857L13.3594 54.1691L13.8086 53.2242C12.3242 52.7517 11.2109 51.4328 11.0156 49.8382H10.6641L0 39.2865V16.6477L10.6055 5.87946H11.0156L11.2891 5.15108H11.3281C11.7383 3.96992 12.6562 3.04468 13.8086 2.63128L13.3203 1.60761L13.7695 1.39106L14.2969 2.49348C14.5703 2.43442 14.8438 2.39505 15.1367 2.39505H18.1641L17.793 1.60761L18.2422 1.39106L18.7305 2.39505H22.6562L22.2852 1.60761L22.7344 1.39106L23.2031 2.39505H27.1289L26.7578 1.62729L27.207 1.41075L27.6758 2.39505H31.6016L31.2305 1.62729L31.6797 1.41075L32.1484 2.39505H36.0742L35.7031 1.62729L36.1523 1.41075L36.6211 2.39505H40.5469L40.1953 1.64698L40.6445 1.43043L41.1133 2.39505H45.0391L44.6875 1.64698L45.1367 1.43043L45.6055 2.39505H49.5312L49.1797 1.64698L49.6289 1.43043L50.0977 2.39505H52.8906L55.1953 0.0524101H76.2695L80.8398 4.32427L81.6406 3.18248H83.5547V0.62331H86.7773L93.2031 3.714V5.97789H97.3438V8.30083H100V20.1124H97.3242V35.8809L97.4219 35.8218ZM82.0117 50.6847L82.4023 51.2359H85.0586V53.7754H86.4062L91.6406 51.2556V49.8579H82.6367L82.0117 50.4485V50.6847ZM91.6992 4.61956L86.4648 2.09975H85.1172V4.65893H82.4609L82.0703 5.21014V5.40699L82.6367 5.93851H91.6992V4.61956Z" fill="black"/>
<path d="M97.3438 49.8579H93.1641V52.2202L86.7383 55.3109H83.5156V52.7517H81.6016L80.7812 51.5903L76.0938 55.9802H55.1367L49.2969 49.8579H10.6445L0 39.2865V16.6477L10.6055 5.87946L49.4141 5.91883L55.2148 -0.0066452H76.2891L80.8594 4.26521L81.6602 3.12342H83.5742V0.564247H86.7969L93.2227 3.65495V5.89914H97.3438V49.8579ZM30.5859 24.4433C29.3359 24.4433 28.2422 25.1717 27.7148 26.2347H26.6602C25.8398 26.2347 25.8398 29.2073 26.6602 29.2073H27.7539C28.3008 30.2113 29.3555 30.92 30.5859 30.92C32.3633 30.92 33.7891 29.4632 33.7891 27.6915C33.7891 25.9198 32.3633 24.4433 30.5859 24.4433ZM58.1641 12.7105L57.9102 11.7852C57.8125 11.5687 54.6484 13.0058 54.7266 13.2026L55.2344 14.0098C55.332 14.2263 55.5664 14.305 55.7812 14.2263L57.9687 13.242C58.1641 13.1633 58.2617 12.927 58.1641 12.7105ZM57.9492 42.8694L55.7617 41.8851C55.5664 41.7866 55.3125 41.8851 55.2148 42.1016L54.707 42.9087C54.6094 43.1253 57.793 44.5427 57.8906 44.3261L58.1445 43.4009C58.2617 43.204 58.1641 42.9678 57.9492 42.8694ZM69.4727 11.2734L68.5352 11.4112C68.3008 11.4112 68.125 11.5884 68.125 11.8246V14.2263C68.125 14.4625 68.3008 14.6397 68.5352 14.6397L69.4727 14.7775C69.707 14.7775 69.707 11.2734 69.4727 11.2734ZM69.4727 41.511L68.5352 41.6488C68.3008 41.6488 68.125 41.826 68.125 42.0623V44.4639C68.125 44.7002 68.3008 44.8773 68.5352 44.8773L69.4727 45.0151C69.707 45.0151 69.707 41.511 69.4727 41.511ZM81.5039 23.3015C81.5039 23.5378 81.6797 23.7149 81.9141 23.7149L82.5195 23.7937V32.3964L81.9141 32.4752C81.6797 32.4752 81.5039 32.6524 81.5039 32.8886V35.2903C81.5039 35.5265 81.6797 35.7037 81.9141 35.7037L82.8516 35.8415C82.9883 35.8415 83.0469 34.4832 83.0078 33.4595H83.7305L86.1133 31.6484L86.1719 30.4475L84.9805 30.5066L85.0391 25.093H86.2891L86.2305 24.0299L84.6094 23.9118L83.9258 22.4944H83.0078C83.0273 21.5101 82.9688 20.3486 82.8516 20.3486L81.9141 20.4864C81.6797 20.4864 81.5039 20.6636 81.5039 20.8998V23.3015ZM82.0117 50.6847L82.4023 51.2359H85.0586V53.7754H86.4062L91.6406 51.2556V49.8579H82.6367L82.0117 50.4485V50.6847ZM91.6992 4.61956L86.4648 2.09975H85.1172V4.65893H82.4609L82.0703 5.21014V5.40699L82.6367 5.93851H91.6992V4.61956Z" fill="#FED100"/>
<path opacity="0.2" d="M36.4453 28.0263C36.4453 29.5027 37.6367 30.7035 39.1016 30.7035C40.5664 30.7035 41.7578 29.5027 41.7578 28.0263C41.7578 26.5498 40.5664 25.349 39.1016 25.349C37.6367 25.349 36.4453 26.5301 36.4453 28.0263ZM30.5859 23.6757C32.7734 23.6757 34.5508 25.4671 34.5508 27.6719C34.5508 29.8767 32.7734 31.6682 30.5859 31.6682C28.3984 31.6682 26.6211 29.8767 26.6211 27.6719C26.6211 25.4671 28.3984 23.6757 30.5859 23.6757ZM97.3438 49.858V5.91892H82.6367L76.3086 -0.00655746H55.2344L49.4336 5.91892L10.625 5.87954L0 16.6478V39.2866L10.6445 49.858H49.2969L55.1367 56H76.0938L82.6367 49.8777H97.3438V49.858ZM23.8281 39.5032H11.9141V16.4312H23.8281V39.5032ZM42.7734 39.5032H24.2773V16.4312H42.7734V39.5032ZM55 39.5032H43.0859V16.4312H55V39.5032ZM82.6367 36.314L68.9453 44.2278H55.2734V11.8444H68.9453L82.6367 19.7581V36.314Z" fill="url(#paint0_radial_6566_5377)"/>
<path d="M69.4727 41.5113L68.5352 41.6491C68.3008 41.6491 68.125 41.8263 68.125 42.0625V44.4642C68.125 44.7004 68.3008 44.8776 68.5352 44.8776L69.4727 45.0154C69.707 45.0154 69.707 41.5113 69.4727 41.5113Z" fill="black"/>
<path d="M82.8516 32.3572L81.9141 32.495C81.6797 32.495 81.5039 32.6722 81.5039 32.9084V35.3101C81.5039 35.5464 81.6797 35.7235 81.9141 35.7235L82.8516 35.8613C83.0664 35.8613 83.0664 32.3572 82.8516 32.3572Z" fill="black"/>
<path d="M69.4727 11.2735L68.5352 11.4113C68.3008 11.4113 68.125 11.5885 68.125 11.8247V14.2264C68.125 14.4626 68.3008 14.6398 68.5352 14.6398L69.4727 14.7776C69.707 14.7776 69.707 11.2735 69.4727 11.2735Z" fill="black"/>
<path d="M54.7265 13.2028L55.2343 14.01C55.332 14.2265 55.5664 14.3052 55.7812 14.2265L57.9687 13.2422C58.164 13.1438 58.2617 12.9075 58.1835 12.691L57.9296 11.7658C57.8125 11.5886 54.6484 13.006 54.7265 13.2028Z" fill="black"/>
<path d="M54.7265 42.9087L55.2343 42.1016C55.332 41.8851 55.5664 41.8063 55.7812 41.8851L57.9687 42.8694C58.164 42.9678 58.2617 43.204 58.1835 43.4206L57.9296 44.3458C57.8125 44.5427 54.6484 43.1253 54.7265 42.9087Z" fill="black"/>
<path d="M82.8516 20.3487L81.9141 20.4865C81.6797 20.4865 81.5039 20.6637 81.5039 20.8999V23.3016C81.5039 23.5378 81.6797 23.715 81.9141 23.715L82.8516 23.8528C83.0664 23.8528 83.0664 20.3487 82.8516 20.3487Z" fill="black"/>
<path d="M49.2969 49.8581L52.7148 53.4409H15.0195C12.9492 53.4409 11.25 51.866 10.9961 49.8581H49.2969Z" fill="url(#paint1_linear_6566_5377)"/>
<path d="M49.4531 5.97803L52.9688 2.33612L15.1758 2.39519C13.1055 2.39519 11.4062 3.97006 11.1523 5.97803H49.4531Z" fill="url(#paint2_linear_6566_5377)"/>
<path d="M37.832 49.8581L35.7617 54.189L36.2109 54.4055L38.3789 49.8581C38.3984 49.8581 37.832 49.8581 37.832 49.8581ZM42.8906 49.8581L40.7227 54.4055L40.2734 54.189L42.3438 49.8581C42.3242 49.8581 42.8906 49.8581 42.8906 49.8581ZM47.3633 49.8581L45.1953 54.4055L44.7461 54.189L46.8164 49.8581C46.7969 49.8581 47.3633 49.8581 47.3633 49.8581ZM50.9961 51.6495L49.668 54.4055L49.2188 54.189L50.625 51.2558L50.9961 51.6495ZM33.9062 49.8581L31.7383 54.4055L31.2891 54.189L33.3594 49.8581H33.9062ZM20.4688 49.8581L18.2812 54.4055L17.832 54.189L19.9023 49.8581H20.4688ZM15.9766 49.8581L13.8086 54.4055L13.3594 54.189L15.4297 49.8581H15.9766ZM29.4336 49.8581L27.2656 54.4055L26.8164 54.189L28.8867 49.8581C28.8672 49.8581 29.4336 49.8581 29.4336 49.8581ZM24.9414 49.8581L22.7734 54.4055L22.3242 54.189L24.3945 49.8581C24.375 49.8581 24.9414 49.8581 24.9414 49.8581ZM38.3984 5.91899L36.2305 1.37154L35.7812 1.58808L37.8516 5.91899H38.3984ZM42.3242 5.91899L40.2539 1.58808L40.7031 1.37154L42.8711 5.91899H42.3242ZM46.8164 5.91899L44.7461 1.58808L45.1953 1.37154L47.3633 5.91899H46.8164ZM50.625 4.52129L49.2188 1.58808L49.668 1.37154L50.9961 4.12757L50.625 4.52129ZM33.3594 5.91899L31.2891 1.58808L31.7383 1.37154L33.9062 5.91899H33.3594ZM19.9023 5.91899L17.832 1.58808L18.2812 1.37154L20.4492 5.91899H19.9023ZM15.4102 5.91899L13.3398 1.58808L13.7891 1.37154L15.957 5.91899H15.4102ZM28.8672 5.91899L26.7969 1.58808L27.2461 1.37154L29.4141 5.91899H28.8672ZM24.375 5.91899L22.3047 1.58808L22.7539 1.37154L24.9219 5.91899H24.375Z" fill="#545454"/>
<path opacity="0.2" d="M74.707 2.92664C74.9609 2.57229 74.707 2.08015 74.2773 2.08015H56.3867C56.1719 2.08015 55.9766 2.17857 55.8203 2.33606L51.4844 6.98195C51.1914 7.29692 51.2305 7.80876 51.5625 8.06467L55.0781 10.8601C55.2148 10.9782 55.3906 11.0373 55.5859 11.0373H68.3594C68.75 11.0373 69.1406 10.8404 69.375 10.5057L74.707 2.92664ZM94.2383 21.0574H84.1602C83.6523 21.0574 83.2422 20.644 83.2422 20.1322V9.02929C83.2422 8.51745 83.6523 8.10405 84.1602 8.10405H94.2383C94.7461 8.10405 95.1562 8.51745 95.1562 9.02929V20.1322C95.1367 20.644 94.7266 21.0574 94.2383 21.0574ZM10.2734 39.4244H3.45703C2.94922 39.4244 2.53906 39.011 2.53906 38.4992V17.4942C2.53906 16.9824 2.94922 16.569 3.45703 16.569H10.2734C10.7812 16.569 11.1914 16.9824 11.1914 17.4942V38.4992C11.1719 39.011 10.7812 39.4244 10.2734 39.4244ZM13.0078 40.2512H53.9844C54.4922 40.2512 54.9023 40.6646 54.9023 41.1765V43.775C54.9023 44.0506 54.7852 44.3065 54.5703 44.4837L50.8984 47.5153C50.7617 47.6138 50.6055 47.6925 50.4297 47.6925H13.0078C12.5 47.6925 12.0898 47.2791 12.0898 46.7673V41.1765C12.0898 40.6646 12.5 40.2512 13.0078 40.2512ZM76.4062 52.8109C76.1133 53.0865 75.6445 53.0274 75.4297 52.6928L70.1562 45.0546C69.9219 44.7003 70.0195 44.2278 70.3906 44.0112C72.8516 42.6135 81.1133 37.8692 81.6211 37.5936C82.207 37.259 82.6367 37.5149 82.6367 38.0858V46.6295C82.6367 46.9051 82.5195 47.161 82.3242 47.3382L76.4062 52.8109ZM94.2383 47.7516H84.1602C83.6523 47.7516 83.2422 47.3382 83.2422 46.8263V35.7235C83.2422 35.2116 83.6523 34.7982 84.1602 34.7982H94.2383C94.7461 34.7982 95.1562 35.2116 95.1562 35.7235V46.846C95.1367 47.3382 94.7266 47.7516 94.2383 47.7516ZM51.5625 47.7909L55.0781 45.0152C55.2148 44.8971 55.3906 44.8381 55.5859 44.8381H68.3594C68.75 44.8381 69.1406 45.0349 69.375 45.3696L74.7266 52.9487C74.9805 53.303 74.7266 53.7952 74.2969 53.7952H56.4062C56.1914 53.7952 55.9961 53.7164 55.8398 53.5392L51.5039 48.8934C51.1914 48.5587 51.2305 48.0666 51.5625 47.7909ZM54.8828 12.1003V14.6988C54.8828 15.2107 54.4727 15.6241 53.9648 15.6241H13.0078C12.5 15.6241 12.0898 15.2107 12.0898 14.6988V9.10803C12.0898 8.5962 12.5 8.18279 13.0078 8.18279H50.4102C50.5859 8.18279 50.7422 8.24185 50.8789 8.35996L54.5508 11.3916C54.7656 11.5491 54.8828 11.8247 54.8828 12.1003ZM81.6211 18.262C81.1328 17.9864 72.8516 13.2421 70.3906 11.8444C70.0195 11.6278 69.9219 11.1554 70.1562 10.801L75.4297 3.16287C75.6641 2.82821 76.1133 2.78884 76.4062 3.04476L82.3242 8.49776C82.5195 8.67494 82.6367 8.95054 82.6367 9.20646V17.7502C82.6367 18.3407 82.207 18.5967 81.6211 18.262Z" fill="black"/>
<path d="M96.6465 35.6881V48.0864C96.8906 48.2242 97.0566 48.484 97.0566 48.7872C97.0566 49.2321 96.6973 49.5943 96.2559 49.5943C95.9649 49.5943 95.7109 49.4349 95.5723 49.2006H83.0938C82.9531 49.4349 82.7012 49.5943 82.4102 49.5943C82.3379 49.5943 82.2715 49.5825 82.2051 49.5648L76.4473 54.8583C76.4492 54.882 76.4551 54.9056 76.4551 54.9292C76.4551 55.3741 76.0957 55.7363 75.6543 55.7363C75.3711 55.7363 75.1231 55.5867 74.9805 55.3623H63.3008C63.1582 55.5867 62.9102 55.7363 62.627 55.7363C62.3438 55.7363 62.0957 55.5867 61.9531 55.3623H56.2109C56.0684 55.5867 55.8203 55.7363 55.5371 55.7363C55.0957 55.7363 54.7363 55.3741 54.7363 54.9292C54.7363 54.8623 54.7461 54.7993 54.7617 54.7382L49.8555 49.616C49.7637 49.6514 49.666 49.6731 49.5606 49.6731C49.2715 49.6731 49.0215 49.5175 48.8809 49.2872H36.0606C35.9199 49.5215 35.668 49.6809 35.377 49.6809C35.0859 49.6809 34.832 49.5215 34.6934 49.2872H24.6172C24.4766 49.5215 24.2246 49.6809 23.9336 49.6809C23.6426 49.6809 23.3887 49.5215 23.25 49.2872H11.748C11.6074 49.5215 11.3555 49.6809 11.0645 49.6809C10.623 49.6809 10.2637 49.3187 10.2637 48.8738C10.2637 48.7852 10.2813 48.7025 10.3066 48.6218L1.06641 39.5722C1.03711 39.5761 1.00781 39.582 0.976563 39.582C0.535156 39.582 0.175781 39.2198 0.175781 38.7749C0.175781 38.4895 0.324219 38.2394 0.546875 38.0957V34.3849C0.578125 34.4007 0.613281 34.4164 0.648438 34.4302C0.369141 34.3042 0.175781 34.0227 0.175781 33.6959C0.175781 33.251 0.535156 32.8888 0.976563 32.8888C1.41797 32.8888 1.77734 33.251 1.77734 33.6959C1.77734 34.0306 1.57617 34.316 1.28906 34.4381C1.31641 34.4282 1.3418 34.4164 1.36719 34.4046V38.0741C1.61133 38.2119 1.77734 38.4717 1.77734 38.7749C1.77734 38.8733 1.75781 38.9678 1.72461 39.0564L10.8945 48.0824C10.9453 48.0726 11 48.0667 11.0547 48.0667C11.4941 48.0667 11.8496 48.423 11.8555 48.864C11.8555 48.86 11.8555 48.8561 11.8555 48.8541C11.8555 48.7163 11.8164 48.5785 11.7578 48.4604H23.2422C23.3828 48.2261 23.6348 48.0667 23.9258 48.0667C24.3652 48.0667 24.7207 48.423 24.7266 48.864C24.7266 48.86 24.7266 48.8561 24.7266 48.8541C24.7266 48.7163 24.6875 48.5785 24.6289 48.4604H34.6875C34.8281 48.2261 35.0801 48.0667 35.3711 48.0667C35.6621 48.0667 35.916 48.2261 36.0547 48.4604H48.8672C49.0059 48.2202 49.2617 48.0588 49.5566 48.0588C49.9981 48.0588 50.3574 48.421 50.3574 48.8659C50.3574 48.8915 50.3516 48.9132 50.3496 48.9388L55.3281 54.1536C55.3945 54.1359 55.4609 54.124 55.5332 54.124C55.832 54.124 56.0918 54.2914 56.2285 54.5375H61.9277C62.0645 54.2914 62.3223 54.124 62.6231 54.124C62.9238 54.124 63.1816 54.2914 63.3184 54.5375H74.9551C75.0918 54.2914 75.3496 54.124 75.6504 54.124C75.7695 54.124 75.8828 54.1516 75.9844 54.2008L81.627 48.986C81.6387 49.0254 81.6524 49.0648 81.6699 49.1022C81.6289 49.0057 81.6074 48.8994 81.6074 48.7892C81.6074 48.3442 81.9668 47.982 82.4082 47.982C82.6992 47.982 82.9531 48.1415 83.0918 48.3757H95.5703C95.6387 48.2616 95.7324 48.1671 95.8438 48.1001V35.6803C95.6113 35.5385 95.4531 35.2846 95.4531 34.9913C95.4531 34.5464 95.8125 34.1841 96.2539 34.1841C96.6953 34.1841 97.0547 34.5464 97.0547 34.9913C97.0547 35.2925 96.8887 35.5543 96.6445 35.6921L96.6465 35.6881ZM76.2207 54.3662C76.2813 54.4292 76.3301 54.502 76.3691 54.5827C76.334 54.502 76.2832 54.4292 76.2207 54.3662Z" fill="url(#paint3_radial_6566_5377)"/>
<path d="M96.666 7.74969V20.1696C96.8984 20.3113 97.0566 20.5653 97.0566 20.8586C97.0566 21.3035 96.6973 21.6657 96.2559 21.6657C95.8144 21.6657 95.4551 21.3035 95.4551 20.8586C95.4551 20.5574 95.6211 20.2956 95.8652 20.1578V7.75954C95.6836 7.65717 95.5449 7.4859 95.4863 7.2792C95.4941 7.3107 95.502 7.3422 95.5137 7.3737H83.1465C83.0254 7.66308 82.7402 7.86584 82.4082 7.86584C81.9668 7.86584 81.6074 7.50362 81.6074 7.05872C81.6074 6.95438 81.6289 6.85399 81.6641 6.76146L76.0605 1.60571C75.9394 1.67855 75.8008 1.72383 75.6504 1.72383C75.3125 1.72383 75.0234 1.51122 74.9062 1.21199H63.3984C63.2812 1.51122 62.9941 1.72383 62.6543 1.72383C62.3145 1.72383 62.0273 1.51122 61.9102 1.21199H56.3086C56.1914 1.51122 55.9043 1.72383 55.5644 1.72383C55.4707 1.72383 55.3828 1.70414 55.3008 1.67461L50.373 6.81855C50.3828 6.8717 50.3887 6.92486 50.3887 6.97998C50.3887 7.42488 50.0293 7.7871 49.5879 7.7871C49.25 7.7871 48.9609 7.57449 48.8438 7.27527H36.1133C35.9961 7.57449 35.709 7.7871 35.3691 7.7871C35.0293 7.7871 34.7422 7.57449 34.625 7.27527H24.668C24.5508 7.57449 24.2637 7.7871 23.9238 7.7871C23.584 7.7871 23.2969 7.57449 23.1797 7.27527H11.7969C11.6797 7.57449 11.3926 7.7871 11.0527 7.7871C10.9707 7.7871 10.8926 7.77135 10.8184 7.74773L1.69336 16.7285C1.74414 16.8348 1.77539 16.9529 1.77539 17.0789C1.77539 17.4135 1.57422 17.699 1.28711 17.821C1.31445 17.8112 1.33984 17.7994 1.36523 17.7876V21.3783C1.60938 21.5161 1.77539 21.7759 1.77539 22.0791C1.77539 22.524 1.41602 22.8862 0.974609 22.8862C0.533203 22.8862 0.173828 22.524 0.173828 22.0791C0.173828 21.7937 0.322266 21.5437 0.544922 21.3999V17.758C0.322266 17.6143 0.173828 17.3643 0.173828 17.0789C0.173828 16.634 0.533203 16.2717 0.974609 16.2717C0.980469 16.2717 0.986328 16.2717 0.992188 16.2717L10.252 7.15518C10.293 7.30086 10.375 7.43669 10.4824 7.54299C10.3398 7.39732 10.252 7.19849 10.252 6.97801C10.252 6.5331 10.6113 6.17088 11.0527 6.17088C11.293 6.17088 11.5039 6.27915 11.6504 6.44649H23.3242C23.4707 6.27915 23.6836 6.17088 23.9219 6.17088C24.1895 6.17088 24.4258 6.30475 24.5723 6.50948C24.5586 6.48783 24.5449 6.46617 24.5273 6.44649H34.7617C34.7422 6.47011 34.7266 6.4957 34.709 6.52129C34.8535 6.31065 35.0938 6.17088 35.3672 6.17088C35.6074 6.17088 35.8184 6.27915 35.9648 6.44649H48.9805C48.9609 6.47011 48.9453 6.4957 48.9277 6.52129C49.0723 6.31065 49.3125 6.17088 49.5859 6.17088C49.668 6.17088 49.7461 6.18663 49.8203 6.21025L54.7617 1.05253C54.7754 1.09978 54.793 1.14505 54.8125 1.19033C54.7812 1.10371 54.7617 1.01316 54.7617 0.914728C54.7617 0.469826 55.1211 0.107603 55.5625 0.107603C55.8301 0.107603 56.0664 0.241468 56.2129 0.446201C56.1992 0.424547 56.1855 0.402897 56.168 0.383211H62.0547C62.2012 0.215881 62.4141 0.107603 62.6523 0.107603C62.8906 0.107603 63.1035 0.215881 63.25 0.383211H75.0488C75.1953 0.215881 75.4082 0.107603 75.6465 0.107603C76.0879 0.107603 76.4473 0.469826 76.4473 0.914728V0.835987L82.3262 6.24963C82.3008 6.25356 82.2734 6.25947 82.248 6.26538C82.2988 6.25553 82.3496 6.24963 82.4043 6.24963C82.6523 6.24963 82.8711 6.36577 83.0195 6.54491H95.6387C95.7852 6.36577 96.0039 6.24963 96.2539 6.24963C96.6953 6.24963 97.0547 6.61185 97.0547 7.05675C97.0547 7.35007 96.8965 7.60599 96.6641 7.74576L96.666 7.74969ZM24.7266 6.98194C24.7266 7.06266 24.7109 7.13943 24.6895 7.21227C24.7109 7.14534 24.7266 7.07053 24.7266 6.98194ZM34.5879 6.81855C34.5977 6.76737 34.6133 6.71618 34.6348 6.66894C34.6152 6.71618 34.5996 6.7654 34.5879 6.81855ZM48.8066 6.81855C48.8164 6.76737 48.832 6.71618 48.8535 6.66894C48.834 6.71618 48.8184 6.7654 48.8066 6.81855ZM95.4844 7.27527C95.4766 7.24771 95.4707 7.21817 95.4668 7.19061C95.4707 7.22014 95.4766 7.24771 95.4844 7.27527ZM96.2559 7.86781C96.2129 7.86781 96.1699 7.86191 96.1289 7.85403C96.1719 7.86191 96.2129 7.86781 96.2559 7.86781Z" fill="url(#paint4_radial_6566_5377)"/>
<path d="M30.5859 24.4434C32.355 24.4434 33.7891 25.8888 33.7891 27.6719C33.7891 29.4549 32.355 30.9004 30.5859 30.9004C28.8169 30.9004 27.3828 29.4549 27.3828 27.6719C27.3828 25.8888 28.8169 24.4434 30.5859 24.4434Z" fill="black"/>
<path d="M30.1172 26.2152H26.6602C25.8398 26.2152 25.8398 29.1877 26.6602 29.1877H30.1172C30.9375 29.1877 31.6016 28.5184 31.6016 27.6916C31.6016 26.8845 30.9375 26.2152 30.1172 26.2152Z" fill="url(#paint5_linear_6566_5377)"/>
<path opacity="0.25" d="M55.2539 43.3025V44.2278H57.3633C56.7773 44.0309 55.8398 43.6175 55.2539 43.3025ZM55.2539 12.8287V11.8247H57.5586C57.0117 12.0019 55.918 12.4743 55.2539 12.8287ZM81.9141 20.4668C81.6797 20.4668 81.5039 20.644 81.5039 20.8802V23.2819C81.5039 23.5182 81.6797 23.6953 81.9141 23.6953L82.6563 23.8134V32.3965L81.9141 32.5146C81.6797 32.5146 81.5039 32.6918 81.5039 32.928V35.3297C81.5039 35.566 81.6797 35.7431 81.9141 35.7431L82.6563 35.8612V36.3534L69.6484 43.8734C69.6875 42.8498 69.6289 41.5505 69.4922 41.5505L68.5547 41.6883C68.3203 41.6883 68.1445 41.8655 68.1445 42.1017V44.2278H57.9297L58.1641 43.401C58.2617 43.2041 58.1641 42.9482 57.9492 42.8498L55.7617 41.8655C55.5664 41.7867 55.3516 41.8458 55.2539 42.0426V14.0492C55.3516 14.2264 55.5859 14.3051 55.7617 14.2264L57.9492 13.2421C58.1445 13.1437 58.2422 12.9074 58.1641 12.6909L57.9102 11.805H68.125V14.2067C68.125 14.4429 68.3008 14.6201 68.5352 14.6201L69.4727 14.7579C69.6289 14.7579 69.668 13.2421 69.6289 12.2184L82.6367 19.7581V20.3684L81.9141 20.4668Z" fill="white"/>
<path opacity="0.25" d="M55 39.5032H43.0859V16.4312H55V39.5032Z" fill="white"/>
<path d="M100 47.6335H97.4023V35.822H100V47.6335Z" fill="#B2B2B2"/>
<path d="M100 20.0535H97.4023V8.24189H100V20.0535Z" fill="#B2B2B2"/>
<path d="M85.0391 25.1127L84.9805 30.5264L86.1719 30.4673L86.1133 31.6681L83.7305 33.4792H83.0078C82.9883 32.8493 82.9297 32.3571 82.8516 32.3571L82.5195 32.4162V23.8134L82.8516 23.8725C82.9492 23.8725 83.0078 23.2425 83.0078 22.5142H83.9063L84.5898 23.9316L86.2109 24.0497L86.2695 25.1127H85.0391Z" fill="#B2B2B2"/>
<path opacity="0.6" d="M85.0391 25.1127L84.9805 30.5264L86.1719 30.4673L86.1133 31.6681L83.7305 33.4792H83.0078C82.9883 32.8493 82.9297 32.3571 82.8516 32.3571L82.5195 32.4162V23.8134L82.8516 23.8725C82.9492 23.8725 83.0078 23.2425 83.0078 22.5142H83.9063L84.5898 23.9316L86.2109 24.0497L86.2695 25.1127H85.0391Z" fill="url(#paint6_linear_6566_5377)"/>
<path opacity="0.25" d="M23.8281 39.5032H11.9141V16.4312H23.8281V39.5032Z" fill="white"/>
<path opacity="0.25" d="M24.2773 39.5032V16.4312H42.7734V39.5032H24.2773ZM30.5859 23.6757C28.3984 23.6757 26.6211 25.4671 26.6211 27.6719C26.6211 29.8767 28.3984 31.6682 30.5859 31.6682C32.7734 31.6682 34.5508 29.8767 34.5508 27.6719C34.5508 25.4671 32.7734 23.6757 30.5859 23.6757ZM39.1016 25.3293C37.6367 25.3293 36.4453 26.5301 36.4453 28.0066C36.4453 29.483 37.6367 30.6839 39.1016 30.6839C40.5664 30.6839 41.7578 29.483 41.7578 28.0066C41.7773 26.5301 40.5859 25.3293 39.1016 25.3293Z" fill="white"/>
<path opacity="0.25" d="M76.6211 20.5259H60.0195C58.7695 20.5259 57.7344 21.5693 57.7344 22.8292V33.5974C57.7344 34.8573 58.7695 35.9006 60.0195 35.9006H76.6211C77.8711 35.9006 78.9062 34.8573 78.9062 33.5974V22.8292C78.9062 21.5496 77.8711 20.5259 76.6211 20.5259Z" fill="white"/>
<path opacity="0.5" d="M84.9219 30.5854H82.5391V25.2309H84.9219V30.5854Z" fill="url(#paint7_linear_6566_5377)"/>
<path d="M100 47.6335H97.4023V35.822H100V47.6335Z" fill="url(#paint8_linear_6566_5377)"/>
<path d="M100 20.0535H97.4023V8.24189H100V20.0535Z" fill="url(#paint9_linear_6566_5377)"/>
<path opacity="0.5" d="M1.75781 33.6959L1.71875 38.5583L11.4648 48.0863H49.3555C49.3555 48.0863 49.707 47.9879 49.9805 48.1651C50.2539 48.3422 50.3516 48.5785 50.3516 48.5785L55.8984 54.2086L75.4297 54.189L81.6602 48.421C81.6602 48.421 81.8555 48.1847 82.1289 48.0469C82.4023 47.9091 82.9492 47.9682 82.9492 47.9682H95.5273V35.2904L95.8789 35.6448V48.1257L95.625 48.4013H83.125C83.125 48.4013 82.9883 48.1847 82.832 48.0863C82.6758 47.9879 81.6797 47.8107 81.6797 49.0115C80.8203 49.799 76.0352 54.2283 76.0352 54.2283C76.0352 54.2283 75.5078 53.9527 75.0195 54.563H63.3789C63.3789 54.563 62.7734 53.8149 61.9922 54.563H56.2695C56.2695 54.563 56.0938 54.1102 55.3711 54.1693C54.5703 53.4015 50.8594 49.6218 50.3516 49.11C50.6055 48.3619 49.5898 47.5745 48.9062 48.4997H36.0742C35.918 48.2438 35.2148 47.7516 34.6875 48.4997H24.6289C24.5312 48.2438 23.8867 47.732 23.2422 48.4997H11.7383C11.7383 48.4997 11.5039 48.0076 10.8789 48.106C10.6055 47.8304 1.69922 39.0701 1.69922 39.0701C1.69922 39.0701 1.91406 38.3614 1.34766 38.0858V34.4046C1.64062 34.2274 1.73828 34.0108 1.75781 33.6959Z" fill="black"/>
<path opacity="0.5" d="M95.8594 7.69055L95.6055 7.41495H83.1055C83.1055 7.41495 82.9688 7.6315 82.8125 7.72993C82.6562 7.82835 81.6602 8.00553 81.6602 6.82437C80.8008 6.03693 76.0156 1.60759 76.0156 1.60759C76.0156 1.60759 75.4883 1.88319 75 1.27293H63.3594C63.3594 1.27293 62.7539 2.021 61.9727 1.27293H56.25C56.25 1.27293 56.0742 1.72571 55.3516 1.66665C54.5508 2.4344 50.8398 6.21411 50.332 6.72594C50.5859 7.47401 49.5703 8.26145 48.8867 7.33621H36.0547C35.8984 7.59212 35.1953 8.08427 34.668 7.33621H24.6094C24.5117 7.59212 23.8672 8.10396 23.2227 7.33621H11.7188C11.7188 7.33621 11.4844 7.82835 10.8594 7.72993C10.6055 8.00553 1.67969 16.7658 1.67969 16.7658C1.67969 16.7658 1.89453 17.4745 1.32812 17.7501V21.4314C1.64062 21.5888 1.73828 21.8054 1.75781 22.1204L1.71875 17.2579L11.4648 7.72993H49.3555C49.3555 7.72993 49.707 7.82835 49.9805 7.65118C50.2734 7.47401 50.3516 7.23778 50.3516 7.23778L55.8984 1.60759L75.4297 1.62727L81.6602 7.39526C81.6602 7.39526 81.8555 7.6315 82.1289 7.7693C82.3828 7.88741 82.9492 7.84804 82.9492 7.84804H95.5078V20.5061" fill="black"/>
</g>
<defs>
<radialGradient id="paint0_radial_6566_5377" cx="0" cy="0" r="1" gradientUnits="userSpaceOnUse" gradientTransform="translate(48.6719 27.9967) scale(39.6289 39.9428)">
<stop offset="0.6"/>
<stop offset="1" stop-color="white"/>
</radialGradient>
<linearGradient id="paint1_linear_6566_5377" x1="31.8555" y1="49.8581" x2="31.8555" y2="53.4449" gradientUnits="userSpaceOnUse">
<stop stop-color="#666666"/>
<stop offset="0.55" stop-color="#CCCCCC"/>
<stop offset="0.6" stop-color="#999999"/>
<stop offset="1"/>
</linearGradient>
<linearGradient id="paint2_linear_6566_5377" x1="32.0605" y1="6.19851" x2="32.0605" y2="2.16879" gradientUnits="userSpaceOnUse">
<stop stop-color="#666666"/>
<stop offset="0.55" stop-color="#CCCCCC"/>
<stop offset="0.6" stop-color="#999999"/>
<stop offset="1"/>
</linearGradient>
<radialGradient id="paint3_radial_6566_5377" cx="0" cy="0" r="1" gradientUnits="userSpaceOnUse" gradientTransform="translate(48.6152 44.3126) scale(35.1777 35.4564)">
<stop stop-color="white"/>
<stop offset="1" stop-color="#B3B3B3"/>
</radialGradient>
<radialGradient id="paint4_radial_6566_5377" cx="0" cy="0" r="1" gradientUnits="userSpaceOnUse" gradientTransform="translate(48.7187 11.4999) scale(35.1758 35.4544)">
<stop stop-color="white"/>
<stop offset="1" stop-color="#B3B3B3"/>
</radialGradient>
<linearGradient id="paint5_linear_6566_5377" x1="28.8242" y1="26.223" x2="28.8242" y2="29.2055" gradientUnits="userSpaceOnUse">
<stop/>
<stop offset="0.17" stop-color="#666666"/>
<stop offset="0.48" stop-color="#CCCCCC"/>
<stop offset="0.51" stop-color="#B0B0B0"/>
<stop offset="0.56" stop-color="#696969"/>
<stop offset="0.63"/>
<stop offset="0.88" stop-color="#363636"/>
<stop offset="1" stop-color="#4D4D4D"/>
</linearGradient>
<linearGradient id="paint6_linear_6566_5377" x1="86.2852" y1="27.9967" x2="82.5059" y2="27.9967" gradientUnits="userSpaceOnUse">
<stop stop-color="#B3B3B3"/>
<stop offset="0.05" stop-color="#A2A2A2"/>
<stop offset="0.24" stop-color="#686868"/>
<stop offset="0.42" stop-color="#3B3B3B"/>
<stop offset="0.57" stop-color="#1B1B1B"/>
<stop offset="0.7" stop-color="#070707"/>
<stop offset="0.79"/>
</linearGradient>
<linearGradient id="paint7_linear_6566_5377" x1="82.5391" y1="27.9082" x2="84.9141" y2="27.9082" gradientUnits="userSpaceOnUse">
<stop stop-color="white"/>
<stop offset="1"/>
</linearGradient>
<linearGradient id="paint8_linear_6566_5377" x1="100" y1="41.7278" x2="97.4023" y2="41.7278" gradientUnits="userSpaceOnUse">
<stop stop-color="#CCCCCC"/>
<stop offset="0.13" stop-color="#999999"/>
<stop offset="0.6" stop-color="#999999"/>
<stop offset="1"/>
</linearGradient>
<linearGradient id="paint9_linear_6566_5377" x1="8.84107e-05" y1="14.1477" x2="0.195401" y2="14.1477" gradientUnits="userSpaceOnUse">
<stop stop-color="#CCCCCC"/>
<stop offset="0.13" stop-color="#999999"/>
<stop offset="0.6" stop-color="#999999"/>
<stop offset="1"/>
</linearGradient>
<clipPath id="clip0_6566_5377">
<rect width="100" height="56" fill="white" transform="matrix(1 0 0 -1 0 56)"/>
</clipPath>
</defs>
</svg>
