<svg width="100" height="45" viewBox="0 0 100 45" fill="none" xmlns="http://www.w3.org/2000/svg">
<g clip-path="url(#clip0_6561_2953)">
<path d="M97.8869 35.5279C96.5564 37.567 92.5651 40.8217 92.5651 40.8217C92.5651 40.8217 91.8079 41.5472 90.5889 42.0687C90.5889 42.0707 90.5889 42.0746 90.5889 42.0766C90.5889 42.4295 90.2954 42.7432 89.9237 42.7628L89.0315 42.8079C88.7693 43.502 87.9554 44.0177 87.0084 44.0177H76.5995C76.0066 44.0177 75.4725 43.8275 75.091 43.5177L73.7233 43.5863C73.3751 43.604 73.0914 43.3726 73.0307 43.0589C65.9343 43.2177 59.2056 43.3314 59.2056 43.3314C59.2056 43.3314 58.2078 44.9196 56.9165 44.998C56.7736 45.0058 56.6601 44.9902 56.5721 44.9588C56.2082 44.898 55.8051 44.6314 56.036 43.4687C56.0458 43.4216 56.0536 43.3765 56.0614 43.3314H28.6324C28.5208 43.5608 28.286 43.7236 28.018 43.7236H26.304C25.9656 43.9079 25.5586 44.0177 25.1223 44.0177H14.6938C14.2477 44.0177 13.8349 43.9098 13.4944 43.7236H11.8176C11.5516 43.7236 11.3168 43.5608 11.2033 43.3314H10.8589C10.8589 43.3314 6.59362 43.4098 4.18705 39.9982C1.74134 36.5866 0.841323 34.1554 0.841323 34.1554L0 29.1556V15.823L0.841323 10.8036C0.841323 10.8036 1.76091 8.37234 4.18705 4.98035C6.61319 1.58836 10.8589 1.64718 10.8589 1.64718H11.2033C11.3148 1.41778 11.5496 1.25505 11.8176 1.25505H13.5238C13.8623 1.07074 14.2712 0.960941 14.7134 0.960941H25.1223C25.5684 0.960941 25.9812 1.06878 26.3217 1.25505H28.018C28.2841 1.25505 28.5189 1.41778 28.6324 1.64718H56.0614C56.0536 1.60209 56.0458 1.55699 56.036 1.50994C55.7562 0.104122 56.4038 -0.0115585 56.7854 -0.0194016C56.8323 -0.0213623 56.8812 -0.0233231 56.936 -0.0194016C58.2469 0.0590248 59.2252 1.64718 59.2252 1.64718C59.2252 1.64718 65.944 1.7609 73.0346 1.91972C73.1012 1.61581 73.3829 1.39622 73.7233 1.4119L75.0792 1.47857C75.4627 1.16093 76.0008 0.960941 76.5995 0.960941H87.0084C87.975 0.960941 88.783 1.4668 89.0374 2.17265L89.9237 2.21578C90.2954 2.23539 90.5889 2.52949 90.5889 2.90202C91.8196 3.42356 92.5846 4.15686 92.5846 4.15686C92.5846 4.15686 96.5956 7.43121 97.8869 9.47033C99.0413 11.2742 99.5891 15.2348 100 22.4893C99.5891 29.7242 99.0413 33.724 97.8869 35.5279Z" fill="black"/>
<path d="M0 22.4892V15.8229L0.841323 10.8035C0.841323 10.8035 1.76091 8.37229 4.18705 4.9803C6.61319 1.58831 10.8589 1.64713 10.8589 1.64713H56.349V0.843246C56.2121 0.392288 56.2512 -0.0586662 56.936 -0.019455C58.2469 0.0589752 59.2252 1.64713 59.2252 1.64713C59.2252 1.64713 87.2432 2.1177 89.2389 2.49023C91.2346 2.86276 92.5846 4.15681 92.5846 4.15681C92.5846 4.15681 96.5956 7.43116 97.8869 9.47028C99.0413 11.2741 99.5891 15.2347 100 22.4892C99.5891 29.7242 99.0413 33.724 97.8869 35.5278C96.5564 37.5669 92.5651 40.8217 92.5651 40.8217C92.5651 40.8217 91.215 42.1157 89.2193 42.4883C87.2236 42.8608 59.2056 43.3314 59.2056 43.3314C59.2056 43.3314 58.2078 44.9195 56.9165 44.998C56.2317 45.0372 56.2121 44.5666 56.349 44.1156V43.3314H10.8589C10.8589 43.3314 6.59362 43.4098 4.18705 39.9982C1.74134 36.5866 0.841323 34.1553 0.841323 34.1553L0 29.1556V22.4892Z" fill="#D9E0E0"/>
<path d="M12.9897 43.3316C13.3732 43.7492 13.9915 44.0178 14.6939 44.0178H25.1224C25.8092 44.0178 26.4255 43.7453 26.8129 43.3316H12.9897ZM89.1099 42.5061C88.9984 43.3473 88.0886 44.0178 87.0085 44.0178H76.5996C75.7348 44.0178 74.9972 43.612 74.6704 43.0218C81.3091 42.8669 87.842 42.6767 89.1099 42.5061ZM13.0171 1.64735C13.4006 1.23364 14.015 0.961105 14.7135 0.961105H25.1224C25.8268 0.961105 26.4431 1.22972 26.8266 1.64735H13.0171ZM74.6744 1.95713C75.005 1.37481 75.7387 0.961105 76.5996 0.961105H87.0085C88.1081 0.961105 89.0023 1.61401 89.1099 2.47083C87.797 2.30025 81.2875 2.11007 74.6744 1.95713Z" fill="black"/>
<path d="M73.0308 43.059C73.0895 43.3727 73.3751 43.604 73.7234 43.5864L89.9238 42.7629C90.2955 42.7433 90.589 42.4296 90.589 42.0767C90.589 42.0747 90.589 42.0708 90.589 42.0688C90.1801 42.2433 89.7203 42.3943 89.2194 42.4884C88.202 42.6786 80.4168 42.8943 73.0308 43.059ZM28.6324 43.3315C28.5209 43.5609 28.2861 43.7236 28.0181 43.7236H11.8177C11.5516 43.7236 11.3168 43.5609 11.2034 43.3315H28.6305H28.6324ZM11.2034 1.64725C11.3149 1.41785 11.5497 1.25512 11.8177 1.25512H28.0181C28.2842 1.25512 28.519 1.41785 28.6324 1.64725H11.2034ZM89.239 2.49035C88.2196 2.30017 80.4246 2.08449 73.0347 1.91979C73.1012 1.61588 73.383 1.39629 73.7234 1.41197L89.9238 2.21585C90.2955 2.23546 90.589 2.52956 90.589 2.9021C90.1859 2.73151 89.732 2.5825 89.239 2.49035Z" fill="#888888"/>
<path opacity="0.3" d="M11.2034 43.3315C11.3149 43.5609 11.5497 43.7236 11.8177 43.7236H28.0181C28.2842 43.7236 28.519 43.5609 28.6324 43.3315H11.2034ZM89.2194 42.4884C89.7203 42.3943 90.1801 42.2433 90.589 42.0688C90.589 42.0708 90.589 42.0747 90.589 42.0767C90.589 42.4296 90.2955 42.7433 89.9238 42.7629L73.7234 43.5864C73.3751 43.604 73.0914 43.3727 73.0308 43.059C80.4168 42.8943 88.2 42.6786 89.2194 42.4884ZM89.239 2.49035C88.2196 2.30017 80.4246 2.08449 73.0347 1.91979C73.1012 1.61588 73.383 1.39629 73.7234 1.41197L89.9238 2.21585C90.2955 2.23546 90.589 2.52956 90.589 2.9021C90.1859 2.73151 89.732 2.5825 89.239 2.49035ZM11.2034 1.64725C11.3149 1.41785 11.5497 1.25512 11.8177 1.25512H28.0181C28.2842 1.25512 28.519 1.41785 28.6324 1.64725H11.2034Z" fill="black"/>
<path d="M5.83057 9.9803L10.8002 2.54929C9.41108 2.72575 6.75015 3.37278 5.00881 5.82364C2.58267 9.21563 1.66309 11.6469 1.66309 11.6469L5.83057 9.9803ZM10.8002 42.4297C9.43065 42.2532 6.75015 41.6062 5.00881 39.1553C2.58267 35.7633 1.66309 33.3321 1.66309 33.3321L5.83057 34.9987L10.8002 42.4297Z" fill="url(#paint0_linear_6561_2953)"/>
<path d="M98.3762 31.8614C98.3762 31.8614 96.9088 32.5869 96.4979 32.7045C96.087 32.8026 95.95 32.1752 96.087 30.4105C96.2044 28.8028 96.4196 25.9402 96.3414 22.509V22.4894C96.4392 19.0582 96.224 16.1955 96.087 14.5878C95.95 12.8036 96.087 12.1957 96.4979 12.2938C96.9088 12.3918 98.3762 13.1369 98.3762 13.1369C98.3762 13.1369 99.3545 15.6073 99.4132 22.509V22.5286C99.3545 29.391 98.3762 31.8614 98.3762 31.8614Z" fill="black"/>
<path d="M98.3762 31.8614C98.3762 31.8614 96.9088 32.5869 96.4979 32.7045C96.4197 32.7241 96.3414 32.7241 96.2827 32.6849C96.7719 32.5281 98.0828 31.881 98.0828 31.881C98.0828 31.881 99.061 29.4106 99.1197 22.5089V22.4893C99.0415 15.5877 98.0828 13.1173 98.0828 13.1173C98.0828 13.1173 96.7914 12.4702 96.2827 12.3134C96.3414 12.2742 96.4197 12.2742 96.4979 12.2938C96.9088 12.3918 98.3762 13.1369 98.3762 13.1369C98.3762 13.1369 99.3545 15.6073 99.4132 22.5089V22.5286C99.3545 29.391 98.3762 31.8614 98.3762 31.8614Z" fill="url(#paint1_linear_6561_2953)"/>
<path d="M90.6672 3.54918C91.5868 4.01974 92.1347 4.56874 92.1347 4.56874C92.1347 4.56874 96.1456 7.84309 97.437 9.8822C97.8087 10.4704 98.1217 11.2743 98.3761 12.3723C97.1239 11.9605 95.5782 11.3331 94.6195 10.4116C93.4456 9.29399 91.7433 5.8824 90.6672 3.54918ZM90.6672 41.5277C91.5868 41.0571 92.1347 40.5082 92.1347 40.5082C92.1347 40.5082 96.1456 37.2534 97.437 35.2143C97.8087 34.6261 98.1217 33.8222 98.3761 32.7242C97.1239 33.136 95.5782 33.7634 94.6195 34.6849C93.4456 35.8221 91.7433 39.1945 90.6672 41.5277Z" fill="url(#paint2_linear_6561_2953)"/>
<path d="M95.1477 7.27454C96.0673 8.15685 96.9477 9.11759 97.4565 9.90187C97.8282 10.4901 98.1412 11.294 98.3956 12.3919C98.0043 12.2547 97.5738 12.1174 97.1434 11.941V11.9018C96.8304 10.1371 96.0282 8.72545 95.1477 7.27454ZM95.1477 37.8417C96.0673 36.9594 96.9477 35.9986 97.4565 35.2144C97.8282 34.6261 98.1412 33.8223 98.3956 32.7243C98.0043 32.8615 97.5738 32.9988 97.1434 33.1752V33.2145C96.8304 34.9791 96.0282 36.3908 95.1477 37.8417Z" fill="#FF9326"/>
<path d="M57.523 6.66658L66.6993 4.1569C66.6993 4.1569 48.2097 4.07848 36.8617 4.11769L38.4269 6.74501C39.0139 6.74501 39.5422 6.7058 40.0117 6.66658C43.6705 6.35287 57.523 6.66658 57.523 6.66658ZM27.5093 6.66658C25.7288 6.76462 18.333 8.54884 18.333 8.33317C18.333 8.11749 22.9309 4.25494 33.3399 4.1569L35.7269 4.13729L37.0573 6.78422C33.379 6.82344 28.8789 6.58816 27.5093 6.66658ZM40.0117 38.3121C43.6705 38.6258 57.523 38.3121 57.523 38.3121L66.6993 40.8218C66.6993 40.8218 42.5553 40.8806 36.8617 40.8414L38.4269 38.2337C38.9943 38.2533 39.5226 38.2729 40.0117 38.3121ZM27.5093 38.3317C28.8789 38.4101 33.379 38.1748 37.0573 38.2141L35.7269 40.8414L33.3399 40.8218C22.9114 40.7237 18.333 36.8808 18.333 36.6651C18.333 36.4494 25.7288 38.2337 27.5093 38.3317Z" fill="url(#paint3_linear_6561_2953)"/>
<path d="M31.2464 34.626C30.1116 26.6068 30.1311 18.4111 31.2464 10.3723C26.9615 10.1566 19.6439 9.72526 15.8286 11.6075C9.7633 14.6074 9.46981 28.842 14.6547 32.6653C18.4113 35.4299 26.6876 34.8613 31.2464 34.626ZM71.8842 38.4297C69.4189 39.4689 62.4536 37.6259 59.5774 37.1749V7.843C62.4536 7.39205 69.4189 5.549 71.8842 6.58816C78.7322 9.48998 78.7322 35.5279 71.8842 38.4297Z" fill="url(#paint4_linear_6561_2953)"/>
<path opacity="0.5" d="M94.2087 37.92C93.8956 37.92 93.2109 37.8612 92.5652 37.724C93.2891 36.4299 94.013 35.2731 94.6196 34.7045L94.6391 34.6849C95.1283 34.9202 95.4609 35.528 95.4609 36.2535C95.4609 37.175 94.9131 37.92 94.2087 37.92Z" fill="url(#paint5_linear_6561_2953)"/>
<path opacity="0.5" d="M94.2087 7.19614C93.8956 7.19614 93.2109 7.25496 92.5652 7.39221C93.2891 8.68626 94.013 9.84307 94.6196 10.4117L94.6391 10.4313C95.1283 10.196 95.4609 9.58818 95.4609 8.86272C95.4609 7.9412 94.9131 7.19614 94.2087 7.19614Z" fill="url(#paint6_linear_6561_2953)"/>
<path d="M94.0913 36.2534C94.0913 36.822 94.3848 37.2926 94.7174 37.2926C95.0696 37.2926 95.3435 36.822 95.3435 36.2534C95.3435 35.6848 95.0696 35.2143 94.7174 35.2143C94.3652 35.2143 94.0913 35.6848 94.0913 36.2534ZM94.7174 9.90179C94.3652 9.90179 94.0913 9.43122 94.0913 8.86262C94.0913 8.29402 94.3848 7.82346 94.7174 7.82346C95.0696 7.82346 95.3435 8.29402 95.3435 8.86262C95.3435 9.43122 95.0696 9.90179 94.7174 9.90179Z" fill="#F5F5F5"/>
<path d="M98.4739 24.0579C98.65 24.0579 98.787 23.4109 98.787 22.607C98.787 21.8031 98.65 21.1365 98.4739 21.1365C98.2978 21.1365 98.1609 21.7835 98.1609 22.607C98.1609 23.4109 98.2978 24.0579 98.4739 24.0579ZM98.3761 24.6853C98.0239 24.6853 97.75 23.7442 97.75 22.607C97.75 21.4698 98.0239 20.509 98.3761 20.509C98.7283 20.509 99.0022 21.4502 99.0022 22.607C99.0022 23.7638 98.7283 24.6853 98.3761 24.6853Z" fill="url(#paint7_linear_6561_2953)"/>
<path opacity="0.1" d="M94.4436 15.6662L94.698 15.3525C94.4436 15.2937 88.2804 13.8036 84.6412 13.2938C80.8651 12.7448 79.065 12.7056 79.0846 12.7056L79.2215 13.1173C79.2215 13.1173 80.6498 13.0977 84.4064 13.6271C88.1043 14.1565 94.4436 15.6662 94.4436 15.6662ZM84.4064 31.3321C88.1043 30.8027 94.4436 29.2734 94.4436 29.2734L94.698 29.6067C94.4436 29.6655 88.2804 31.1557 84.6412 31.6851C80.8651 32.234 79.065 32.2733 79.0846 32.2733L79.2215 31.8419C79.2215 31.8419 80.6498 31.8615 84.4064 31.3321ZM56.545 1.49045C56.8189 2.98058 56.6819 4.17659 56.6819 4.17659H56.1928C56.1928 4.17659 56.3297 2.98058 56.0363 1.51006C55.7428 0.039547 56.4667 -0.0192757 56.8384 -0.0192757C56.8971 -0.0192757 56.9754 -0.0192757 57.0537 0.000331879C56.7015 0.0787582 56.3102 0.353252 56.545 1.49045ZM56.0363 43.4688C56.3297 41.9983 56.1928 40.8023 56.1928 40.8023H56.6819C56.6819 40.8023 56.8189 41.9983 56.545 43.4688C56.3102 44.606 56.7015 44.9001 57.0537 44.9589C56.9754 44.9785 56.8971 44.9785 56.8384 44.9785C56.4667 44.9785 55.7428 44.9393 56.0363 43.4688ZM1.66333 18.1367H2.09377V26.8814H1.66333V18.1367ZM39.7968 42.2924H37.7032C37.5858 42.2924 37.488 42.1943 37.488 42.0767C37.488 41.9591 37.5858 41.861 37.7032 41.861H39.7968C39.9142 41.861 40.012 41.9591 40.012 42.0767C40.012 42.1943 39.9142 42.2924 39.7968 42.2924ZM39.7968 3.11782H37.7032C37.5858 3.11782 37.488 3.01979 37.488 2.90215C37.488 2.78451 37.5858 2.68647 37.7032 2.68647H39.7968C39.9142 2.68647 40.012 2.78451 40.012 2.90215C40.012 3.01979 39.9142 3.11782 39.7968 3.11782ZM37.5859 40.4101C37.5859 40.4101 36.4119 42.5865 36.0206 43.3315H35.5706C35.9032 42.41 37.175 40.1944 37.175 40.1944L37.5859 40.4101ZM37.175 4.78441C37.175 4.78441 35.9032 2.56883 35.5706 1.64731H36.0206C36.4119 2.39237 37.5859 4.56873 37.5859 4.56873L37.175 4.78441ZM67.58 43.1355C67.5213 43.1355 67.5017 43.1159 67.5017 43.0766C67.5017 43.0178 67.7756 42.7629 67.7561 42.3904C67.7365 41.763 66.3082 40.8807 66.3082 40.8023C66.3082 40.7238 66.3278 40.7238 66.3278 40.7042H66.406C67.1104 41.1944 67.893 41.763 67.9126 42.3904C67.9126 42.4492 67.9126 42.5277 67.893 42.5669C67.893 42.6257 67.7561 43.1355 67.58 43.1355ZM66.406 4.27463H66.3278C66.3278 4.25502 66.3082 4.25502 66.3082 4.17659C66.3082 4.09817 67.7365 3.21586 67.7561 2.58844C67.7756 2.21591 67.5017 1.96102 67.5017 1.9022C67.5017 1.86298 67.5213 1.82377 67.58 1.82377C67.7561 1.84338 67.893 2.35316 67.893 2.41198C67.9126 2.45119 67.9126 2.52962 67.9126 2.58844C67.893 3.21586 67.1104 3.78446 66.406 4.27463Z" fill="black"/>
</g>
<defs>
<linearGradient id="paint0_linear_6561_2953" x1="13.4416" y1="22.4895" x2="1.84896" y2="22.4895" gradientUnits="userSpaceOnUse">
<stop stop-color="#5D0000"/>
<stop offset="1" stop-color="#A10000"/>
</linearGradient>
<linearGradient id="paint1_linear_6561_2953" x1="97.8428" y1="33.2367" x2="97.8428" y2="12.7671" gradientUnits="userSpaceOnUse">
<stop stop-color="white"/>
<stop offset="0.05" stop-color="#BEBEBE"/>
<stop offset="0.57" stop-color="white"/>
<stop offset="1" stop-color="#8C8C8C"/>
</linearGradient>
<linearGradient id="paint2_linear_6561_2953" x1="91.382" y1="22.3728" x2="97.6484" y2="22.3728" gradientUnits="userSpaceOnUse">
<stop stop-color="#C8C8C8"/>
<stop offset="0.64" stop-color="#F5F5F5"/>
<stop offset="1" stop-color="#F5F5F5"/>
</linearGradient>
<linearGradient id="paint3_linear_6561_2953" x1="42.5161" y1="4.10592" x2="42.5161" y2="40.8551" gradientUnits="userSpaceOnUse">
<stop stop-color="#535353"/>
<stop offset="0.1"/>
<stop offset="0.91"/>
<stop offset="1" stop-color="#525252"/>
</linearGradient>
<linearGradient id="paint4_linear_6561_2953" x1="78.3957" y1="22.509" x2="12.3792" y2="22.509" gradientUnits="userSpaceOnUse">
<stop stop-color="#535353"/>
<stop offset="0.29"/>
<stop offset="0.64"/>
<stop offset="1" stop-color="#525252"/>
</linearGradient>
<linearGradient id="paint5_linear_6561_2953" x1="94.0144" y1="37.907" x2="94.0144" y2="34.668" gradientUnits="userSpaceOnUse">
<stop stop-color="white"/>
<stop offset="0.05" stop-color="#BEBEBE"/>
<stop offset="0.57" stop-color="white"/>
<stop offset="1" stop-color="#8C8C8C"/>
</linearGradient>
<linearGradient id="paint6_linear_6561_2953" x1="94.0144" y1="10.4262" x2="94.0144" y2="7.18712" gradientUnits="userSpaceOnUse">
<stop stop-color="white"/>
<stop offset="0.05" stop-color="#BEBEBE"/>
<stop offset="0.57" stop-color="white"/>
<stop offset="1" stop-color="#8C8C8C"/>
</linearGradient>
<linearGradient id="paint7_linear_6561_2953" x1="98.3715" y1="24.6843" x2="98.3715" y2="20.51" gradientUnits="userSpaceOnUse">
<stop stop-color="white"/>
<stop offset="0.05" stop-color="#BEBEBE"/>
<stop offset="0.57" stop-color="white"/>
<stop offset="1" stop-color="#8C8C8C"/>
</linearGradient>
<clipPath id="clip0_6561_2953">
<rect width="100" height="45" fill="white" transform="matrix(1 0 0 -1 0 45)"/>
</clipPath>
</defs>
</svg>
