<svg width="100" height="56" viewBox="0 0 100 56" fill="none" xmlns="http://www.w3.org/2000/svg">
<path d="M99.992 18.8966V18.005C99.992 17.9765 99.9686 17.9532 99.9399 17.9532H98.4764C98.4477 17.9532 98.4243 17.9765 98.4243 18.005V18.0516L1.25505 18.0516V18.005C1.25505 17.9765 1.23161 17.9532 1.20296 17.9532H0.0545247C0.0258789 17.9532 0.00244141 17.9765 0.00244141 18.005L0.00244141 18.8966C0.00244141 18.9252 0.0258789 18.9485 0.0545247 18.9485H0.158691L0.158691 37.0148H0.0545247C0.0258789 37.0148 0.00244141 37.0382 0.00244141 37.0667L0.00244141 37.9557C0.00244141 37.9842 0.0258789 38.0076 0.0545247 38.0076H1.20557C1.23161 38.0076 1.25505 37.9842 1.25505 37.9557V37.9065L98.4269 37.9065V37.9557C98.4269 37.9842 98.4504 38.0076 98.479 38.0076H99.9425C99.9712 38.0076 99.9946 37.9842 99.9946 37.9557V37.0641C99.9946 37.0356 99.9712 37.0122 99.9425 37.0122H99.5441V18.9459H99.9425C99.9712 18.9459 99.9946 18.9226 99.9946 18.8941L99.992 18.8966ZM99.6717 34.5939H99.5441V33.7126H99.6717C99.854 33.7126 100.002 33.8603 100.002 34.0418V34.2647C100.002 34.4461 99.854 34.5939 99.6717 34.5939ZM99.6717 29.6716H99.5441V28.7904H99.6717C99.854 28.7904 100.002 28.9381 100.002 29.1196V29.3425C100.002 29.5239 99.854 29.6716 99.6717 29.6716ZM99.6717 22.3181H99.5441V21.4368H99.6717C99.854 21.4368 100.002 21.5846 100.002 21.766V21.9889C100.002 22.1704 99.854 22.3181 99.6717 22.3181ZM99.6717 27.1704H99.5441V26.2891H99.6717C99.854 26.2891 100.002 26.4368 100.002 26.6183V26.8412C100.002 27.0226 99.854 27.1704 99.6717 27.1704Z" fill="black"/>
<path d="M99.992 18.8966V18.005C99.992 17.9765 99.9686 17.9532 99.9399 17.9532H98.4764C98.4477 17.9532 98.4243 17.9765 98.4243 18.005V18.0516L1.25505 18.0516V18.005C1.25505 17.9765 1.23161 17.9532 1.20296 17.9532H0.0545247C0.0258789 17.9532 0.00244141 17.9765 0.00244141 18.005L0.00244141 18.8966C0.00244141 18.9252 0.0258789 18.9485 0.0545247 18.9485H0.158691L0.158691 37.0148H0.0545247C0.0258789 37.0148 0.00244141 37.0382 0.00244141 37.0667L0.00244141 37.9557C0.00244141 37.9842 0.0258789 38.0076 0.0545247 38.0076H1.20557C1.23161 38.0076 1.25505 37.9842 1.25505 37.9557V37.9065L98.4269 37.9065V37.9557C98.4269 37.9842 98.4504 38.0076 98.479 38.0076H99.9425C99.9712 38.0076 99.9946 37.9842 99.9946 37.9557V37.0641C99.9946 37.0356 99.9712 37.0122 99.9425 37.0122H99.5441V18.9459H99.9425C99.9712 18.9459 99.9946 18.9226 99.9946 18.8941L99.992 18.8966ZM99.6717 34.5939H99.5441V33.7126H99.6717C99.854 33.7126 100.002 33.8603 100.002 34.0418V34.2647C100.002 34.4461 99.854 34.5939 99.6717 34.5939ZM99.6717 29.6716H99.5441V28.7904H99.6717C99.854 28.7904 100.002 28.9381 100.002 29.1196V29.3425C100.002 29.5239 99.854 29.6716 99.6717 29.6716ZM99.6717 22.3181H99.5441V21.4368H99.6717C99.854 21.4368 100.002 21.5846 100.002 21.766V21.9889C100.002 22.1704 99.854 22.3181 99.6717 22.3181ZM99.6717 27.1704H99.5441V26.2891H99.6717C99.854 26.2891 100.002 26.4368 100.002 26.6183V26.8412C100.002 27.0226 99.854 27.1704 99.6717 27.1704Z" fill="#FF0049"/>
<path opacity="0.1" d="M48.417 37.0249H1.25293L1.25293 18.9249L48.417 18.9249V37.0249Z" fill="url(#paint0_linear_2587_185)"/>
<path opacity="0.6" d="M99.5466 18.5464V18.3779C99.5466 18.3106 99.4919 18.2587 99.4268 18.2587H98.9632C98.8955 18.2587 98.8434 18.3131 98.8434 18.3779V18.5464C98.8434 18.6138 98.8981 18.6657 98.9632 18.6657H99.4268C99.4945 18.6657 99.5466 18.6112 99.5466 18.5464ZM99.4268 37.7351H98.9632C98.8955 37.7351 98.8434 37.6807 98.8434 37.6159V37.4474C98.8434 37.38 98.8981 37.3282 98.9632 37.3282H99.4268C99.4945 37.3282 99.5466 37.3826 99.5466 37.4474V37.6159C99.5466 37.6833 99.4919 37.7351 99.4268 37.7351ZM0.877279 18.6683H0.413737C0.346029 18.6683 0.293945 18.6138 0.293945 18.549V18.3805C0.293945 18.3131 0.348633 18.2613 0.413737 18.2613H0.877279C0.944987 18.2613 0.99707 18.3157 0.99707 18.3805V18.549C0.99707 18.6164 0.942383 18.6683 0.877279 18.6683ZM0.877279 37.7351H0.413737C0.346029 37.7351 0.293945 37.6807 0.293945 37.6159L0.293945 37.4474C0.293945 37.38 0.348633 37.3282 0.413737 37.3282H0.877279C0.944987 37.3282 0.99707 37.3826 0.99707 37.4474V37.6159C0.99707 37.6833 0.942383 37.7351 0.877279 37.7351Z" fill="black"/>
<path opacity="0.2" d="M1.21338 37.0144H0.158691L0.158691 18.9507H1.21338L1.21338 37.0144Z" fill="url(#paint1_linear_2587_185)"/>
<path opacity="0.2" d="M99.542 37.0066H98.4795V18.9506H99.542V37.0066Z" fill="url(#paint2_linear_2587_185)"/>
<path opacity="0.2" d="M98.4297 37.03V37.9087L1.25781 37.9087V37.03L98.4297 37.03Z" fill="url(#paint3_linear_2587_185)"/>
<path opacity="0.2" d="M98.4272 18.0537V18.9324L1.25535 18.9324V18.0537L98.4272 18.0537Z" fill="url(#paint4_linear_2587_185)"/>
<path opacity="0.6" d="M99.6356 33.9272C99.6017 33.9272 99.5731 33.935 99.5444 33.948V34.3523C99.5731 34.3653 99.6043 34.373 99.6356 34.373C99.758 34.373 99.8595 34.2746 99.8595 34.1501C99.8595 34.0257 99.7606 33.9272 99.6356 33.9272ZM99.6356 29.4482C99.6017 29.4482 99.5731 29.4404 99.5444 29.4275V29.0231C99.5731 29.0102 99.6043 29.0024 99.6356 29.0024C99.758 29.0024 99.8595 29.1009 99.8595 29.2253C99.8595 29.3497 99.7606 29.4482 99.6356 29.4482ZM99.6356 26.9495C99.6017 26.9495 99.5731 26.9417 99.5444 26.9288V26.5244C99.5731 26.5115 99.6043 26.5037 99.6356 26.5037C99.758 26.5037 99.8595 26.6022 99.8595 26.7266C99.8595 26.851 99.7606 26.9495 99.6356 26.9495ZM99.6356 22.0973C99.6017 22.0973 99.5731 22.0895 99.5444 22.0765V21.6722C99.5731 21.6592 99.6043 21.6514 99.6356 21.6514C99.758 21.6514 99.8595 21.7499 99.8595 21.8744C99.8595 21.9988 99.7606 22.0973 99.6356 22.0973Z" fill="url(#paint5_linear_2587_185)"/>
<path opacity="0.1" d="M98.4453 37.0249H51.2812V18.9249L98.4453 18.9249V37.0249Z" fill="url(#paint6_linear_2587_185)"/>
<path opacity="0.3" d="M1.17969 37.9734H0.0807292C0.0598958 37.9734 0.0442708 37.9578 0.0442708 37.9371L0.0442708 37.0869C0.0442708 37.0662 0.0598958 37.0506 0.0807292 37.0506H1.17969C1.20052 37.0506 1.21615 37.0662 1.21615 37.0869L1.21615 37.9371C1.21615 37.9578 1.20052 37.9734 1.17969 37.9734ZM0.927083 37.4602C0.927083 37.4187 0.893229 37.385 0.851563 37.385H0.440104C0.398437 37.385 0.364583 37.4187 0.364583 37.4602V37.6053C0.364583 37.6468 0.398437 37.6805 0.440104 37.6805H0.851562C0.893229 37.6805 0.927083 37.6468 0.927083 37.6053V37.4602ZM1.17969 18.9247H0.0755208C0.0546875 18.9247 0.0390625 18.9091 0.0390625 18.8884L0.0390625 18.0252C0.0390625 18.0045 0.0546875 17.989 0.0755208 17.989H1.17708C1.19792 17.989 1.21354 18.0045 1.21354 18.0252L1.21354 18.8884C1.21354 18.9091 1.19792 18.9247 1.17708 18.9247H1.17969ZM0.927083 18.3804C0.927083 18.3389 0.893229 18.3052 0.851563 18.3052H0.440104C0.398437 18.3052 0.364583 18.3389 0.364583 18.3804V18.5255C0.364583 18.567 0.398437 18.6007 0.440104 18.6007H0.851563C0.893229 18.6007 0.927083 18.567 0.927083 18.5255L0.927083 18.3804ZM99.9193 37.9734H98.5026C98.4818 37.9734 98.4661 37.9578 98.4661 37.9371V37.0843C98.4661 37.0636 98.4818 37.048 98.5026 37.048H99.9193C99.9401 37.048 99.9557 37.0636 99.9557 37.0843V37.9371C99.9557 37.9578 99.9401 37.9734 99.9193 37.9734ZM99.4766 37.4602C99.4766 37.4187 99.4427 37.385 99.401 37.385H98.9896C98.9479 37.385 98.9141 37.4187 98.9141 37.4602V37.6053C98.9141 37.6468 98.9479 37.6805 98.9896 37.6805H99.401C99.4427 37.6805 99.4766 37.6468 99.4766 37.6053V37.4602ZM99.9141 18.9091H98.5052C98.4844 18.9091 98.4688 18.8936 98.4688 18.8728V18.0278C98.4688 18.0071 98.4844 17.9916 98.5052 17.9916H99.9141C99.9349 17.9916 99.9505 18.0071 99.9505 18.0278V18.8728C99.9505 18.8936 99.9349 18.9091 99.9141 18.9091ZM99.4818 18.3985C99.4818 18.357 99.4479 18.3233 99.4062 18.3233H98.9948C98.9531 18.3233 98.9193 18.357 98.9193 18.3985V18.5436C98.9193 18.5851 98.9531 18.6188 98.9948 18.6188H99.4062C99.4479 18.6188 99.4818 18.5851 99.4818 18.5436V18.3985Z" fill="white"/>
<path opacity="0.2" d="M0.158691 37.0117H1.21338V36.7344L1.14046 36.8432C1.11442 36.8821 1.07275 36.9054 1.02588 36.9054H0.346191C0.299316 36.9054 0.25765 36.8821 0.231608 36.8432L0.158691 36.7344L0.158691 37.0117ZM1.42171 37.8489L1.53109 37.9111H1.25244L1.25244 37.0324H1.53109L1.42171 37.0946C1.38265 37.1154 1.35921 37.1517 1.35921 37.1906L1.35921 37.753C1.35921 37.7919 1.38265 37.8282 1.42171 37.8489ZM1.02588 19.0516H0.346191C0.299316 19.0516 0.25765 19.075 0.231608 19.1138L0.158691 19.2227L0.158691 18.9454H1.21338V19.2227L1.14046 19.1138C1.11442 19.075 1.07275 19.0516 1.02588 19.0516ZM1.42171 18.8676L1.53109 18.9298H1.25244V18.0511H1.53109L1.42171 18.1133C1.38265 18.1341 1.35921 18.1704 1.35921 18.2092V18.7743C1.35921 18.8132 1.38265 18.8495 1.42171 18.8702V18.8676ZM98.4868 37.0117V36.7344L98.5597 36.8432C98.5858 36.8821 98.6274 36.9054 98.6743 36.9054H99.354C99.4009 36.9054 99.4426 36.8821 99.4686 36.8432L99.5415 36.7344V37.0117H98.4868ZM98.2629 37.8489C98.3019 37.8282 98.3254 37.7919 98.3254 37.753V37.188C98.3254 37.1491 98.3019 37.1128 98.2629 37.0921L98.1535 37.0298H98.4321V37.9111H98.1535L98.2629 37.8489ZM99.3514 19.0516H98.6717C98.6248 19.0516 98.5832 19.075 98.5571 19.1138L98.4842 19.2227V18.9454H99.5389V19.2227L99.466 19.1138C99.4399 19.075 99.3983 19.0516 99.3514 19.0516ZM98.2603 18.8728C98.2993 18.8521 98.3228 18.8158 98.3228 18.7769V18.2118C98.3228 18.1729 98.2993 18.1367 98.2603 18.1159L98.1509 18.0537H98.4295V18.9324H98.1509L98.2603 18.8702V18.8728Z" fill="#231F20"/>
<path opacity="0.1" d="M1.35954 36.4131H1.24756V37.03L98.4429 37.03V36.4131H98.3361L98.2423 36.8667H97.4663L97.3673 36.4131H96.9689L96.8543 36.9393H96.0809L95.9663 36.4131L95.5835 36.4131L95.4637 36.9652H94.6929L94.5731 36.4131H94.1798L94.0809 36.8667H93.2918L93.1929 36.4131H92.7996L92.6851 36.9393H91.8986L91.784 36.4131H91.409L91.2892 36.9652H90.508L90.3882 36.4131H90.0028L89.8934 36.9315H89.1278L89.021 36.4131H88.6147L88.5002 36.9393H87.7163L87.6017 36.4131H87.2293L87.1095 36.9652H86.3309L86.2111 36.4131H85.8257L85.7215 36.9289H84.9403L84.8309 36.4131H84.4455L84.3309 36.9393H83.5444L83.4298 36.4131H83.0522L82.9324 36.9652H82.1616L82.0418 36.4131H81.6304L81.5314 36.8667H80.7554L80.6564 36.4131H80.2528L80.1382 36.9393H79.3647L79.2502 36.4131H78.8778L78.758 36.9652H77.9611L77.8413 36.4131H77.4507L77.3569 36.9393H76.5731L76.4663 36.4131H76.0757L75.9611 36.9393H75.1798L75.0653 36.4131H74.6903L74.5705 36.9652H73.7918L73.672 36.4131H73.2814L73.1746 36.9497H72.3986L72.2892 36.4131H71.8986L71.784 36.9393H71.008L70.8934 36.4131H70.5106L70.3908 36.9652H69.6173L69.4976 36.4131H69.1043L68.9976 36.9523H68.2189L68.1121 36.4131H67.7215L67.6069 36.9393H66.8335L66.7189 36.4131H66.3361L66.2163 36.9652H65.4429L65.3231 36.4131H64.9194L64.8205 36.8667H64.047L63.9507 36.4131H63.5392L63.4246 36.9393H62.6564L62.5418 36.4131H62.1538L62.034 36.9652H61.2528L61.133 36.4131H60.7476L60.6434 36.9238H59.8621L59.7632 36.4131H59.3595L59.245 36.9393H58.4715L58.3569 36.4131H57.9611L57.8543 36.8615H57.0783L56.9715 36.4131H56.5575L56.4585 36.8667H55.6851L55.5861 36.4131H55.1929L55.0731 36.9212H54.2944L54.1746 36.4131H53.8022L53.6772 36.9315H52.8986L52.7736 36.4131H52.383L52.271 36.9289H51.508L51.3934 36.4131H50.9976L50.909 36.8538H50.2163L50.0757 36.4028H49.6746L49.534 36.8538H48.8283L48.7476 36.4131H48.3179L48.2241 36.8667H47.4481L47.3491 36.4131H46.9507L46.8361 36.9393H46.0627L45.9481 36.4131H45.5653L45.4455 36.9652H44.6746L44.5548 36.4131H44.1616L44.0627 36.8667H43.2736L43.1746 36.4131H42.7814L42.6668 36.9393H41.8804L41.7658 36.4131H41.3908L41.271 36.9652H40.4897L40.3699 36.4131H39.9845L39.8752 36.9315H39.1095L39.0028 36.4131H38.5965L38.4819 36.9393H37.6981L37.5835 36.4131H37.2111L37.0913 36.9652H36.3127L36.1929 36.4131H35.8074L35.7033 36.9289H34.922L34.8127 36.4131H34.4272L34.3127 36.9393H33.5262L33.4116 36.4131H33.034L32.9142 36.9652H32.1434L32.0236 36.4131H31.6121L31.5132 36.8667H30.7371L30.6382 36.4131H30.2345L30.12 36.9393H29.3465L29.2319 36.4131H28.8595L28.7397 36.9652H27.9429L27.8231 36.4131H27.4325L27.3387 36.9393H26.5548L26.4481 36.4131H26.0575L25.9429 36.9393H25.1616L25.047 36.4131H24.672L24.5522 36.9652H23.7736L23.6538 36.4131H23.2632L23.1564 36.9497H22.3804L22.271 36.4131H21.8804L21.7658 36.9393H20.9897L20.8752 36.4131H20.4923L20.3726 36.9652H19.5991L19.4793 36.4131H19.0861L18.9793 36.9523H18.2007L18.0939 36.4131H17.7033L17.5887 36.9393H16.8153L16.7007 36.4131H16.3179L16.1981 36.9652H15.4246L15.3048 36.4131H14.9012L14.8022 36.8667H14.0288L13.9325 36.4131H13.521L13.4064 36.9393H12.6382L12.5236 36.4131H12.1356L12.0158 36.9652H11.2345L11.1147 36.4131H10.7293L10.6252 36.9238H9.84391L9.74495 36.4131H9.34131L9.22672 36.9393H8.45329L8.3387 36.4131H7.94287L7.8361 36.8615H7.06006L6.95329 36.4131H6.53923L6.44027 36.8667H5.66683L5.56787 36.4131H5.17464L5.05485 36.9212H4.2762L4.15641 36.4131H3.78402L3.65902 36.9315H2.88037L2.75537 36.4131H2.36475L2.25277 36.9289H1.48975L1.37516 36.4131H1.35954ZM98.3387 19.5547L98.2449 19.1011H97.4689L97.3699 19.5547H96.9715L96.8569 19.0285H96.0835L95.9689 19.5547H95.5861L95.4663 19.0026H94.6955L94.5757 19.5547H94.1824L94.0835 19.1011H93.2944L93.1955 19.5547H92.8022L92.6877 19.0285H91.9012L91.7866 19.5547H91.4116L91.2918 19.0026H90.5106L90.3908 19.5547H90.0054L89.896 19.0363H89.1304L89.0236 19.5547H88.6173L88.5028 19.0285H87.7189L87.6043 19.5547H87.2319L87.1121 19.0026H86.3335L86.2137 19.5547H85.8283L85.7241 19.0389H84.9429L84.8335 19.5547H84.4481L84.3335 19.0285H83.547L83.4324 19.5547H83.0548L82.9351 19.0026H82.1642L82.0444 19.5547H81.633L81.534 19.1011H80.758L80.659 19.5547H80.2554L80.1408 19.0285H79.3673L79.2528 19.5547H78.8804L78.7606 19.0026H77.9637L77.8439 19.5547H77.4533L77.3595 19.0285H76.5757L76.4689 19.5547H76.0783L75.9637 19.0285H75.1824L75.0679 19.5547H74.6929L74.5731 19.0026H73.7944L73.6746 19.5547H73.284L73.1772 19.0181H72.4012L72.2918 19.5547H71.9012L71.7866 19.0285H71.0106L70.896 19.5547H70.5132L70.3934 19.0026H69.6199L69.5002 19.5547H69.1069L69.0002 19.0155H68.2215L68.1147 19.5547H67.7241L67.6095 19.0285H66.8361L66.7215 19.5547H66.3387L66.2189 19.0026H65.4455L65.3257 19.5547H64.922L64.8231 19.1011H64.0496L63.9533 19.5547H63.5418L63.4272 19.0285H62.659L62.5444 19.5547H62.1564L62.0366 19.0026H61.2554L61.1356 19.5547H60.7502L60.646 19.044H59.8647L59.7658 19.5547H59.3621L59.2476 19.0285H58.4741L58.3595 19.5547H57.9637L57.8569 19.1062H57.0809L56.9741 19.5547H56.5601L56.4611 19.1011H55.6877L55.5887 19.5547H55.1955L55.0757 19.0466H54.297L54.1772 19.5547H53.8048L53.6798 19.0363H52.9012L52.7762 19.5547H52.3856L52.2736 19.0389H51.5106L51.396 19.5547H51.0002L50.9116 19.114H50.2189L50.0783 19.565H49.6772L49.5366 19.114H48.8309L48.7502 19.5547H48.3205L48.2267 19.1011L47.4507 19.1011L47.3517 19.5547H46.9533L46.8387 19.0285H46.0653L45.9507 19.5547H45.5679L45.4481 19.0026H44.6772L44.5574 19.5547H44.1642L44.0653 19.1011H43.2762L43.1772 19.5547H42.784L42.6694 19.0285H41.883L41.7684 19.5547H41.3934L41.2736 19.0026H40.4923L40.3726 19.5547H39.9871L39.8778 19.0363H39.1121L39.0054 19.5547H38.5991L38.4845 19.0285H37.7007L37.5861 19.5547H37.2137L37.0939 19.0026H36.3153L36.1955 19.5547H35.8101L35.7059 19.0389H34.9246L34.8153 19.5547H34.4298L34.3153 19.0285H33.5288L33.4142 19.5547H33.0366L32.9168 19.0026H32.146L32.0262 19.5547H31.6147L31.5158 19.1011H30.7397L30.6408 19.5547H30.2371L30.1226 19.0285H29.3491L29.2345 19.5547H28.8621L28.7423 19.0026H27.9455L27.8257 19.5547H27.4351L27.3413 19.0285H26.5575L26.4507 19.5547H26.0601L25.9455 19.0285H25.1642L25.0496 19.5547H24.6746L24.5548 19.0026H23.7762L23.6564 19.5547H23.2658L23.159 19.0181H22.383L22.2736 19.5547H21.883L21.7684 19.0285H20.9923L20.8778 19.5547H20.495L20.3752 19.0026H19.6017L19.4819 19.5547H19.0887L18.9819 19.0155H18.2033L18.0965 19.5547H17.7059L17.5913 19.0285H16.8179L16.7033 19.5547H16.3205L16.2007 19.0026H15.4272L15.3075 19.5547H14.9038L14.8048 19.1011H14.0314L13.9351 19.5547H13.5236L13.409 19.0285H12.6408L12.5262 19.5547H12.1382L12.0184 19.0026H11.2371L11.1173 19.5547H10.7319L10.6278 19.044H9.84652L9.74756 19.5547H9.34391L9.22933 19.0285H8.45589L8.34131 19.5547H7.94548L7.8387 19.1062H7.06266L6.95589 19.5547H6.54183L6.44287 19.1011H5.66943L5.57047 19.5547H5.17725L5.05745 19.0466H4.27881L4.15902 19.5547H3.78662L3.66162 19.0363H2.88297L2.75798 19.5547H2.36735L2.25537 19.0389H1.49235L1.37777 19.5547H1.26579V18.9378L98.4611 18.9378V19.5547H98.3543H98.3387Z" fill="#231F20"/>
<path opacity="0.1" d="M51.2759 37.0249H48.4165V18.93H51.2759V37.0249Z" fill="url(#paint7_linear_2587_185)"/>
<defs>
<linearGradient id="paint0_linear_2587_185" x1="1.25293" y1="27.9736" x2="48.417" y2="27.9736" gradientUnits="userSpaceOnUse">
<stop stop-color="white"/>
<stop offset="0.1"/>
<stop offset="0.2" stop-color="white"/>
<stop offset="0.3" stop-color="#C8C8C8"/>
<stop offset="0.4" stop-color="white"/>
<stop offset="0.5" stop-color="#C8C8C8"/>
<stop offset="0.6"/>
<stop offset="0.7" stop-color="white"/>
<stop offset="0.8" stop-color="white"/>
<stop offset="0.9"/>
<stop offset="1"/>
</linearGradient>
<linearGradient id="paint1_linear_2587_185" x1="0.158691" y1="27.9812" x2="1.21338" y2="27.9812" gradientUnits="userSpaceOnUse">
<stop stop-color="#4D4D4D"/>
<stop offset="0.1" stop-color="#878787"/>
<stop offset="0.2" stop-color="white"/>
<stop offset="0.8" stop-color="white"/>
<stop offset="0.9" stop-color="#494949"/>
<stop offset="1"/>
</linearGradient>
<linearGradient id="paint2_linear_2587_185" x1="98.4795" y1="27.9786" x2="99.542" y2="27.9786" gradientUnits="userSpaceOnUse">
<stop stop-color="#4D4D4D"/>
<stop offset="0.1" stop-color="#878787"/>
<stop offset="0.2" stop-color="white"/>
<stop offset="0.8" stop-color="white"/>
<stop offset="0.9" stop-color="#494949"/>
<stop offset="1"/>
</linearGradient>
<linearGradient id="paint3_linear_2587_185" x1="49.8438" y1="37.9113" x2="49.8438" y2="37.03" gradientUnits="userSpaceOnUse">
<stop stop-color="#4D4D4D"/>
<stop offset="0.1" stop-color="#878787"/>
<stop offset="0.2" stop-color="white"/>
<stop offset="0.8" stop-color="white"/>
<stop offset="0.9" stop-color="#494949"/>
<stop offset="1"/>
</linearGradient>
<linearGradient id="paint4_linear_2587_185" x1="49.8387" y1="18.9324" x2="49.8387" y2="18.0537" gradientUnits="userSpaceOnUse">
<stop stop-color="#4D4D4D"/>
<stop offset="0.1" stop-color="#878787"/>
<stop offset="0.2" stop-color="white"/>
<stop offset="0.8" stop-color="white"/>
<stop offset="0.9" stop-color="#494949"/>
<stop offset="1"/>
</linearGradient>
<linearGradient id="paint5_linear_2587_185" x1="99.5444" y1="28.0122" x2="99.8595" y2="28.0122" gradientUnits="userSpaceOnUse">
<stop stop-color="#616161"/>
<stop offset="0.2" stop-color="#575757"/>
<stop offset="0.6" stop-color="#3D3D3D"/>
<stop offset="1" stop-color="#212121"/>
</linearGradient>
<linearGradient id="paint6_linear_2587_185" x1="51.2812" y1="38.0073" x2="98.4453" y2="38.0073" gradientUnits="userSpaceOnUse">
<stop stop-color="white"/>
<stop offset="0.1"/>
<stop offset="0.2" stop-color="white"/>
<stop offset="0.3" stop-color="#C8C8C8"/>
<stop offset="0.4" stop-color="white"/>
<stop offset="0.5" stop-color="#C8C8C8"/>
<stop offset="0.6"/>
<stop offset="0.7" stop-color="white"/>
<stop offset="0.8" stop-color="white"/>
<stop offset="0.9"/>
<stop offset="1"/>
</linearGradient>
<linearGradient id="paint7_linear_2587_185" x1="48.4165" y1="27.9788" x2="51.2759" y2="27.9788" gradientUnits="userSpaceOnUse">
<stop stop-color="#777777"/>
<stop offset="0.1" stop-color="white"/>
<stop offset="0.4" stop-color="#D4D7DE"/>
<stop offset="0.5" stop-color="#090909"/>
<stop offset="0.6" stop-color="white"/>
<stop offset="0.9" stop-color="#E0D7D9"/>
<stop offset="1"/>
</linearGradient>
</defs>
</svg>
