<svg width="100" height="40" viewBox="0 0 100 40" fill="none" xmlns="http://www.w3.org/2000/svg">
<g clip-path="url(#clip0_6561_3910)">
<path d="M99.9911 20.0054C99.9911 24.7852 100.179 29.536 98.8088 33.7151C98.765 33.8492 98.7191 33.9829 98.6717 34.116C97.7577 36.71 94.7056 36.8281 92.8771 36.9076C92.8046 36.9107 92.7338 36.9138 92.6655 36.9169C92.4513 36.9288 92.2934 36.8916 92.173 36.841C91.9636 36.7569 91.8698 36.6346 91.7895 36.6346H90.2695C90.1955 36.6346 87.3669 37.0944 86.2163 37.0944L76.3894 37.1047C75.281 37.1047 74.1408 36.6341 72.737 36.6341L68.6109 36.631C68.4817 36.7058 68.3477 36.792 68.219 36.8952C67.5859 37.4282 67.0054 38.3901 66.7938 38.8395C66.551 39.4458 66.4984 39.5082 66.4561 39.5609C66.3717 39.6863 66.2977 39.8013 66.1815 39.8643C66.0335 39.9794 65.5796 39.9794 65.527 40C65.2633 39.9788 65.2211 39.8849 65.168 39.8013C65.1049 39.6656 65.168 39.6445 65.1258 39.5088C64.9674 38.9128 66.2342 37.115 66.2972 36.9375C66.3055 36.8405 66.3816 36.7358 66.4994 36.63L43.7825 36.6135V36.2058H43.4656V36.6135H32.2135L28.9941 37.1047H17.9744L14.8921 36.6341H11.5247C10.6383 36.6341 4.24125 36.937 3.30222 37.0939C2.14277 37.0944 0 36.8018 0 34.4917V5.46601C0 3.15639 2.14277 2.86382 3.30379 2.86382C3.68367 2.93709 4.99268 3.02068 6.44916 3.10427V3.14143C8.5492 3.26011 10.9848 3.36537 11.5263 3.36537H14.8936L17.9759 2.89478H28.9957L32.215 3.38601H43.4672V3.79365H43.784V3.38601L66.501 3.3695C66.3832 3.26372 66.3071 3.15897 66.2988 3.06196C66.2352 2.88446 64.9689 1.0867 65.1273 0.490719C65.1695 0.355011 65.106 0.333855 65.1695 0.198147C65.2227 0.114555 65.2649 0.0206413 65.5286 -0.000514984C65.5812 0.0206413 66.0351 0.0206413 66.1831 0.135193C66.2993 0.198147 66.3733 0.312698 66.4577 0.438087C66.4999 0.490204 66.5526 0.553158 66.7954 1.15946C67.0064 1.6089 67.5869 2.57073 68.2206 3.10376C68.3493 3.20696 68.4832 3.29313 68.6119 3.36795L72.738 3.36485C74.1419 3.36485 75.2711 2.89426 76.3904 2.89426L86.2174 2.90458C87.3784 2.90458 90.1861 3.36434 90.2705 3.36434H91.7906C91.8078 3.36434 91.8255 3.35969 91.8442 3.35092C91.9089 3.32151 91.9865 3.24875 92.1136 3.18632C92.2408 3.12233 92.4143 3.06867 92.6665 3.08208C92.7353 3.08518 92.8057 3.08828 92.8786 3.09137C94.7072 3.17083 97.7593 3.28952 98.6728 5.88295C98.7202 6.01608 98.7655 6.1492 98.8098 6.28336C100.181 10.4625 99.9922 15.2133 99.9922 20.0034L99.9911 20.0054Z" fill="#231F20"/>
<path d="M91.7901 36.6345C91.8756 36.6345 91.9736 36.7568 92.1731 36.8409C91.9642 36.7573 91.8704 36.635 91.7901 36.6345ZM98.6713 34.1164C97.7547 36.717 94.688 36.8285 92.8615 36.908C94.6958 36.828 97.7442 36.7072 98.6713 34.1164ZM98.8089 6.28528C100.18 10.4644 99.9912 15.2152 99.9912 20.0053C99.9912 15.2059 100.169 10.4365 98.8089 6.28528ZM98.8089 33.7144C100.169 29.5632 99.9912 24.7938 99.9912 20.0053C99.9912 24.785 100.179 29.5353 98.8089 33.7144ZM91.7818 4.49268C90.9929 4.3255 90.1664 3.99836 90.2805 3.36522H90.2701C90.1857 3.36522 87.378 2.90546 86.2169 2.90546L76.39 2.89514C75.2712 2.89514 74.1414 3.36573 72.7376 3.36573L68.6115 3.36883C69.0972 3.65057 69.5109 3.76563 69.2858 3.97203C68.9482 4.42147 68.9164 4.29609 68.3781 4.26461C68.1576 4.24758 66.9799 3.80021 66.5011 3.37038L43.7841 3.38689V3.79453H43.4673V3.38689H32.2151L28.9958 2.89566H17.976L14.8937 3.36625H11.5264C10.9849 3.36625 8.54929 3.26099 6.44925 3.14231V3.62786C5.03498 3.93076 1.99487 3.12631 1.99487 4.52674V35.4322C1.99487 36.8331 5.03498 36.0282 6.44925 36.3311V36.8538C4.99277 36.9374 3.68376 37.021 3.30388 37.0942C4.24395 36.9374 10.64 36.6345 11.5264 36.6345H14.8937L17.976 37.1051H28.9958L32.2151 36.6138H43.4673V36.2062H43.7841V36.6138L66.5011 36.6304C66.9799 36.2005 68.1582 35.7526 68.3781 35.7361C68.9164 35.7046 68.9482 35.5793 69.2858 36.0287C69.5109 36.2351 69.0972 36.3507 68.6115 36.6319L72.7376 36.635C74.1414 36.635 75.2811 37.1056 76.39 37.1056L86.2169 37.0953C87.3675 37.0953 90.1961 36.6355 90.2701 36.6355H90.2805C90.1648 35.9936 91.0163 35.6659 91.8151 35.5013C91.8058 35.5034 91.7959 35.505 91.7865 35.507H91.7547C92.1982 34.6499 95.1111 35.0787 95.8292 34.1793H95.8256C97.0611 32.652 97.2643 29.2149 97.2971 27.4661H97.3274H97.3253C97.3253 27.4661 97.3315 26.9197 97.3315 26.7376V13.2647C97.3315 13.0754 97.2971 12.4892 97.2971 12.4892C97.2643 10.7404 97.0616 7.30335 95.8256 5.77598H95.8292C95.1247 4.89362 92.305 5.28991 91.7818 4.49423V4.49268ZM48.4912 35.4116L48.7659 33.4151C48.7872 33.1958 48.8185 32.976 48.9451 32.8192C49.1562 32.5266 49.5996 32.4745 50.0744 32.4115H60.0389C61.3265 32.4115 62.4985 32.9657 62.6251 33.0178L68.6313 35.3904L48.4918 35.4116H48.4912ZM45.2719 30.687C45.2615 31.0214 45.2297 31.2304 45.2192 31.4812C45.1557 31.9518 45.0926 32.3279 45.0186 32.6411C44.8706 33.2996 44.7232 33.8429 44.5647 34.345V5.65421C44.7232 6.15576 44.8706 6.69963 45.0186 7.35804C45.0926 7.67177 45.1557 8.04794 45.2192 8.51802C45.2297 8.7688 45.2615 8.97778 45.2719 9.31215C45.2932 9.8555 45.2932 30.1432 45.2719 30.6865V30.687ZM68.6313 4.6093L62.6251 6.98188C62.4985 7.03399 61.327 7.58818 60.0389 7.58818H50.0744C49.5991 7.52523 49.1562 7.47311 48.9451 7.18054C48.8185 7.02367 48.7867 6.80437 48.7659 6.58456L48.4912 4.58814L68.6308 4.6093H68.6313ZM75.4817 19.9944C75.4817 26.318 74.1201 33.0385 71.2384 35.0142L63.1108 31.4084C63.8815 28.8165 63.8179 23.8304 63.9763 19.9949C63.8179 16.1693 63.8815 11.1837 63.1108 8.59181L71.2384 4.98598C74.1201 6.96124 75.4817 13.6822 75.4817 19.9949V19.9944ZM92.8777 3.09277C94.7057 3.17223 97.7578 3.29091 98.6718 5.88383C97.7474 3.3002 94.714 3.17326 92.8777 3.09277ZM92.1127 3.1872C91.9882 3.25015 91.9084 3.32239 91.8433 3.3518C91.9079 3.32239 91.9855 3.24963 92.1127 3.1872Z" fill="#29E8ED"/>
<path opacity="0.17" d="M80.1485 19.7567V18.6226C80.1485 17.3413 81.1214 16.3031 82.3215 16.3031H97.3115C97.0677 6.80301 95.7967 6.7834 95.1802 6.7834C94.4971 6.7834 76.1392 6.51972 76.1392 6.51972C79.1438 12.5791 78.8604 19.7567 78.8604 19.7567V20.2026C78.8604 20.2026 79.1433 27.3802 76.1392 33.4396C76.1392 33.4396 94.4507 33.1759 95.1339 33.1759C95.7503 33.1759 97.0213 33.1563 97.2652 23.6562H82.3215C81.1214 23.6562 80.1485 22.6175 80.1485 21.3367V19.7567ZM97.2771 20.2026C97.2771 21.4724 97.2626 22.618 97.2365 23.6515L82.9958 23.3326C81.7697 23.3326 80.7759 22.2939 80.7759 21.0132V18.9466C80.7759 17.6654 81.7697 16.6272 82.9958 16.6272L97.2365 16.3083C97.2631 17.3418 97.2771 18.4869 97.2771 19.7573V20.2031V20.2026Z" fill="url(#paint0_linear_6561_3910)"/>
<path opacity="0.1" d="M96.2835 33.4396L75.6604 33.6671C75.6604 33.6671 78.4942 29.7837 78.4942 20.1819C78.4942 10.5801 75.6099 6.2519 75.6099 6.2519L96.283 6.56047C96.283 6.56047 97.2966 8.56256 97.2966 12.4878V27.4648C97.2966 27.4648 97.122 31.7868 96.283 33.4396H96.2835Z" fill="url(#paint1_linear_6561_3910)"/>
<path opacity="0.15" d="M99.9911 20.0053C99.9911 24.9388 100.192 29.8408 98.6717 34.1154C97.7217 36.812 94.4602 36.8332 92.6655 36.9168C92.0746 36.9379 91.9161 36.6345 91.7895 36.6345H90.2695C90.1955 36.6345 87.3669 37.0943 86.2163 37.0943L76.3894 37.1046C75.281 37.1046 74.1408 36.634 72.737 36.634L43.7835 36.6129V36.2052H43.4667V36.6129H32.2145L28.9952 37.1041H17.9754L14.8931 36.6335H11.5257C10.6393 36.6335 4.24229 36.9364 3.30327 37.0933C2.14277 37.0943 0 36.7909 0 34.4916V5.50771C0 3.2084 2.14277 2.90499 3.30379 2.90499C4.24333 3.06186 10.6081 3.36476 11.5263 3.36476H14.8936L17.9759 2.89416H28.9957L32.2151 3.3854H43.4672V3.79304H43.784V3.3854L72.7375 3.36424C74.1414 3.36424 75.2706 2.89365 76.3899 2.89365L86.2169 2.90396C87.3779 2.90396 90.1856 3.36372 90.27 3.36372H91.79C91.9271 3.36372 92.0751 3.06083 92.666 3.08147C94.4602 3.16506 97.7223 3.18622 98.6722 5.88285C100.192 10.1579 99.9917 15.06 99.9917 20.0038L99.9911 20.0053Z" fill="url(#paint2_linear_6561_3910)"/>
<path opacity="0.15" d="M42.4776 33.5531C42.4791 34.3926 41.7595 35.0737 40.8721 35.0737H3.9817C3.62266 35.0737 3.1792 34.7043 3.1792 34.3751V5.62547C3.1792 5.29626 3.61224 4.9268 3.9817 4.9268H40.8252C41.711 4.9268 42.4296 5.60483 42.4307 6.4423L42.4776 33.5531Z" fill="url(#paint3_radial_6561_3910)"/>
<path d="M45.2718 30.6873C45.2614 31.0216 45.2296 31.2306 45.2192 31.4814C45.1556 31.952 45.0926 32.3282 45.0186 32.6414C44.8706 33.2998 44.7231 33.8431 44.5647 34.3452V5.65444C44.7231 6.156 44.8706 6.69986 45.0186 7.35828C45.0926 7.67201 45.1556 8.04818 45.2192 8.51826C45.2296 8.76904 45.2614 8.97802 45.2718 9.31239C45.2932 9.85574 45.2932 30.1434 45.2718 30.6868V30.6873Z" fill="url(#paint4_linear_6561_3910)"/>
<path d="M75.4816 19.9946C75.4816 13.6813 74.1199 6.96092 71.2382 4.98567L63.1106 8.59149C63.8813 11.1834 63.8177 16.1695 63.9761 19.9946C63.8177 23.8306 63.8813 28.8162 63.1106 31.4081L71.2382 35.0139C74.1199 33.0387 75.4816 26.3177 75.4816 19.9941V19.9946Z" fill="url(#paint5_linear_6561_3910)"/>
<path d="M60.0388 32.4117C61.3264 32.4117 62.4984 32.9659 62.625 33.018L68.6313 35.3906L48.4917 35.4117L48.7663 33.4153C48.7877 33.196 48.819 32.9762 48.9456 32.8193C49.1566 32.5268 49.6001 32.4747 50.0748 32.4117H60.0393H60.0388Z" fill="url(#paint6_linear_6561_3910)"/>
<path d="M60.0388 7.58826C61.3264 7.58826 62.4984 7.03407 62.625 6.98195L68.6313 4.60938L48.4917 4.58822L48.7663 6.58463C48.7877 6.80393 48.819 7.02375 48.9456 7.18061C49.1566 7.47319 49.6001 7.5253 50.0748 7.58826H60.0393H60.0388Z" fill="url(#paint7_linear_6561_3910)"/>
<path d="M98.5539 19.9945C98.5961 24.4786 98.4924 30.99 96.6139 34.1676C96.3814 34.5855 95.6003 35.2754 93.1094 35.3384C93.0777 35.3384 90.0693 35.4638 90.2804 36.6346H91.79C91.9271 36.6346 92.0959 36.9483 92.666 36.9168C94.4711 36.8333 97.7113 36.8018 98.6722 34.1155C100.182 29.8719 99.9916 24.9492 99.9916 20.0054C99.9916 15.0616 100.182 10.1281 98.6722 5.88445C97.7118 3.19815 94.4711 3.16667 92.666 3.08308C92.0959 3.0516 91.9271 3.36533 91.79 3.36533H90.2804C90.0693 4.53614 93.0777 4.66153 93.1094 4.66153C95.6003 4.72448 96.3814 5.41386 96.6139 5.83234C98.493 9.00988 98.5966 15.5007 98.5539 19.9951V19.9945Z" fill="#231F20"/>
<path d="M98.3047 27.5616C98.1406 27.5472 98.0311 27.5513 98.0311 27.5513L97.3245 27.4646C97.3245 27.4646 97.3308 26.9182 97.3308 26.736V13.2632C97.3308 13.0738 97.2964 12.4877 97.2964 12.4877L98.0311 12.401C98.0311 12.401 98.1406 12.3592 98.2948 12.3293C98.436 13.4258 98.5538 15.2085 98.5538 19.9945C98.5538 24.7804 98.5038 26.4749 98.3052 27.5616H98.3047Z" fill="url(#paint8_linear_6561_3910)"/>
<path d="M91.7546 35.5056H91.7864C92.4514 35.3694 93.0845 35.3384 93.0954 35.3384C95.5863 35.2755 96.3674 34.5861 96.5998 34.1676L95.8291 34.1779C95.1116 35.0768 92.1981 34.6485 91.7546 35.5056ZM91.7546 4.4469H91.7864C92.4514 4.58313 93.0845 4.61409 93.0954 4.61409C95.5863 4.67704 96.3674 5.36642 96.5998 5.7849L95.8291 5.77458C95.1116 4.8757 92.1981 5.30398 91.7546 4.4469Z" fill="#FDB615"/>
<path d="M97.2965 27.4648C97.2637 29.2135 97.061 32.6506 95.825 34.178L96.5957 34.1677C97.5456 32.5789 97.9047 30.1542 98.0313 27.5515L97.6697 27.4679L97.2965 27.4648ZM97.2965 12.4878C97.2637 10.7391 97.061 7.30198 95.825 5.77462L96.5957 5.78494C97.5456 7.37371 97.9047 9.79841 98.0313 12.4011L97.6697 12.4847L97.2965 12.4878Z" fill="white"/>
<path d="M75.63 6.28333C76.2981 7.35868 76.8729 8.69357 77.3174 10.2096C78.1053 12.8974 78.5123 16.1885 78.5263 19.9909C78.5263 19.9909 78.5263 19.992 78.5263 19.9925C78.5263 19.993 78.5263 19.9935 78.5263 19.994C78.5117 23.797 78.1053 27.102 77.3174 29.7893C76.8796 31.2826 76.3153 32.5995 75.6603 33.6665L95.7055 33.3642V33.3951L75.6415 33.698C75.4164 34.0623 75.1803 34.3972 74.9349 34.6996L74.9104 34.68C76.235 33.0468 78.4617 28.9554 78.4956 19.9925C78.4617 11.0295 76.2345 6.95155 74.9104 5.31892L74.9349 5.29931C75.1689 5.58775 75.3945 5.90613 75.6108 6.25134L95.7065 6.55423V6.58519L75.6311 6.28281L75.63 6.28333Z" fill="#231F20"/>
<path opacity="0.1" d="M46.4541 11.2984C46.4541 10.0652 47.4463 9.00943 48.6709 9.00943H60.1971C61.4217 9.00943 62.2659 10.1276 62.4139 11.2984C63.0684 16.6396 63.0684 23.3708 62.4139 28.7011C62.2659 29.8719 61.4113 30.9901 60.1971 30.9901H48.6709C47.4781 30.9901 46.4541 29.9344 46.4541 28.7011V11.2984Z" fill="white"/>
<path d="M43.7836 19.9946V3.79414H43.4673V19.9946V36.2058H43.7836V19.9946Z" fill="#231F20"/>
<path opacity="0.35" d="M31.5709 34.3663V32.2657C31.5709 31.4401 30.8111 30.6872 29.9768 30.6872H17.0889C16.2447 30.6872 15.4949 31.3875 15.4949 32.2657V34.3663H31.5709ZM29.9773 9.32318H17.0894C16.2453 9.32318 15.4954 8.62297 15.4954 7.74473V5.64408H31.5714V7.74473C31.5714 8.57033 30.8116 9.32318 29.9773 9.32318Z" fill="url(#paint9_linear_6561_3910)"/>
<path d="M66.2982 36.9375C66.2346 37.115 64.9683 38.9128 65.1267 39.5088C65.1689 39.6445 65.1054 39.6656 65.1689 39.8013C65.2221 39.8849 65.2643 39.9788 65.528 40C65.5806 39.9788 66.0345 39.9788 66.1825 39.8643C66.2987 39.8013 66.3727 39.6863 66.4571 39.5609C66.4993 39.5088 66.552 39.4458 66.7948 38.8395C67.0058 38.3901 67.5863 37.4282 68.22 36.8952C68.8323 36.404 69.5707 36.2889 69.2862 36.0278C68.9485 35.5784 68.9167 35.7038 68.3784 35.7352C68.1038 35.7564 66.3414 36.4458 66.2992 36.937L66.2982 36.9375ZM68.3779 4.26425C68.1033 4.24309 66.3409 3.55371 66.2987 3.06247C66.2351 2.88497 64.9688 1.08722 65.1273 0.491238C65.1695 0.355526 65.1059 0.33437 65.1695 0.198662C65.2226 0.115067 65.2648 0.0211563 65.5285 0C65.5811 0.0211563 66.035 0.0211563 66.183 0.135712C66.2992 0.198662 66.3732 0.313213 66.4576 0.438602C66.4998 0.490719 66.5525 0.553669 66.7953 1.15997C67.0064 1.60941 67.5869 2.57124 68.2205 3.10427C68.8328 3.5955 69.5712 3.71058 69.2867 3.97168C68.949 4.42111 68.9172 4.29572 68.3789 4.26425H68.3779Z" fill="#231F20"/>
<path opacity="0.05" d="M80.7761 18.9357V21.0132C80.7761 22.2944 81.7698 23.3326 82.996 23.3326L96.5993 23.6561H82.3217C81.1216 23.6561 80.1487 22.6174 80.1487 21.3367V18.6138C80.1487 17.3325 81.1216 16.2943 82.3217 16.2943H96.5993L82.996 16.6163C81.7698 16.6163 80.7761 17.655 80.7761 18.9357Z" fill="url(#paint10_linear_6561_3910)"/>
<path d="M6.44916 36.3313V36.854C4.99268 36.9376 3.68367 37.0212 3.30379 37.0945C2.14277 37.0945 0 36.8019 0 34.4918V5.46611C0 3.15648 2.14277 2.86391 3.30379 2.86391C3.68367 2.93718 4.99268 3.02077 6.44916 3.10436V3.62708C5.03489 3.92997 1.99478 3.12552 1.99478 4.52595V7.03888H3.17924V7.1524H1.99478V32.7353H3.17924V32.8488H1.99478V35.433C1.99478 36.8339 5.03489 36.0289 6.44916 36.3318V36.3313Z" fill="#231F20"/>
<path d="M3.58049 36.2766V36.1207C3.58049 36.0263 3.50389 35.9494 3.40853 35.9489C3.01927 35.9468 2.10421 35.8896 2.10421 35.4025V33.6579C2.10421 33.5541 2.01927 33.4705 1.91505 33.4705L1.66909 33.5237C1.61386 33.5356 1.57425 33.5841 1.57425 33.6403V35.1764C1.57425 35.7766 1.72954 35.9835 1.99061 36.1615C2.34392 36.4025 3.20426 36.3854 3.48826 36.3731C3.54037 36.3705 3.58102 36.3282 3.58102 36.2766H3.58049ZM3.40801 3.9521C3.01875 3.95417 2.10369 4.01144 2.10369 4.49855V6.24315C2.10369 6.34687 2.01875 6.43046 1.91453 6.43046L1.66857 6.37731C1.61333 6.36544 1.57373 6.31694 1.57373 6.2607V4.72456C1.57373 4.12444 1.72902 3.91753 1.99009 3.73951C2.3434 3.49854 3.20374 3.51556 3.48774 3.52795C3.53985 3.53053 3.58049 3.57284 3.58049 3.62444V3.78027C3.58049 3.8747 3.50389 3.95158 3.40853 3.9521H3.40801Z" fill="#E11F26"/>
<path d="M52.0097 36.0046C51.6517 35.954 51.1405 35.9741 51.1405 35.9741V36.4504C51.6725 36.4401 52.0097 36.2378 52.0097 36.0046ZM49.7596 36.4504H51.0686V35.9643C51.0686 35.9643 50.1071 35.954 48.4912 35.9747C48.4912 36.3292 49.0024 36.4509 49.7596 36.4509V36.4504ZM50.8951 36.0655L50.844 36.2579H49.8826C49.8826 36.2579 49.2176 36.2579 49.2176 36.0655H50.8951Z" fill="#444444"/>
<path d="M51.1405 3.54959C51.1405 3.74206 51.1405 4.02587 51.1405 4.02587C51.1405 4.02587 51.6517 4.04599 52.0097 3.99542C52.0097 3.7627 51.672 3.55991 51.1405 3.54959ZM48.4912 4.02587C50.1071 4.04599 51.0686 4.03619 51.0686 4.03619V3.55011C51.0686 3.55011 50.5162 3.55011 49.7596 3.55011C49.0029 3.55011 48.4912 3.67189 48.4912 4.02638V4.02587ZM49.2176 3.93453C49.2176 3.74206 49.8826 3.74206 49.8826 3.74206C50.2609 3.74206 50.844 3.74206 50.844 3.74206L50.8951 3.93453C50.8951 3.93453 49.5652 3.93453 49.2176 3.93453Z" fill="#444444"/>
<path d="M47.5631 34.4205L47.5579 34.2957C47.5396 33.8767 47.5323 33.7198 47.66 33.2348L48.2572 31.8999L60.0075 31.9417C61.5557 31.9417 62.1487 32.1961 62.835 32.4912C62.9366 32.5351 63.0414 32.58 63.1513 32.6249L71.0262 35.8127C71.2857 35.9216 71.712 36.1677 71.664 36.4015C71.6291 36.5712 71.3623 36.6538 70.8475 36.6538V36.5506C71.478 36.5506 71.5536 36.4206 71.5619 36.3808C71.5859 36.2632 71.3274 36.0511 70.9861 35.9077L63.1117 32.7198C63.0007 32.6744 62.896 32.629 62.7933 32.5851C62.0893 32.2828 61.5333 32.0444 60.007 32.0444L48.3244 32.0026L47.7595 33.2642C47.6371 33.7312 47.6439 33.8839 47.6621 34.2905L47.6673 34.4149C47.6892 34.8643 47.7095 36.1899 47.6454 36.6094L47.5422 36.594C47.6022 36.1982 47.586 34.8896 47.5626 34.419L47.5631 34.4205Z" fill="url(#paint11_linear_6561_3910)"/>
<path d="M77.2231 20.4465C77.2231 20.7763 77.1262 21.1787 76.4836 21.1787H75.518C75.4404 24.0606 75.0829 26.8527 74.4915 29.1474C74.3127 29.8398 74.1147 30.4818 73.8979 31.0715C73.887 31.6954 73.8766 32.2465 73.8693 32.6294C74.1022 32.7197 74.2179 32.9132 74.2179 33.1505C74.2179 33.4802 74.121 33.8827 73.4784 33.8827H72.4498C72.0808 34.376 71.6859 34.7697 71.2684 35.0561L71.2445 35.0726L63.0486 31.4364L63.0616 31.393C63.6609 29.3765 63.7531 25.9554 63.8417 22.6468C63.8667 21.7144 63.8902 20.8341 63.9251 19.9961C63.8902 19.1555 63.8667 18.2757 63.8417 17.3438C63.7531 14.0388 63.6609 10.6213 63.0616 8.60531L63.0486 8.56197L71.2445 4.9257L71.2684 4.94221C72.6191 5.86792 73.7333 7.91077 74.4915 10.8499C74.9276 12.5414 75.2366 14.5027 75.3997 16.5703C75.8583 17.8268 76.344 19.1581 76.6035 19.8712C77.0188 19.8903 77.2231 20.1297 77.2231 20.446V20.4465ZM73.5019 32.0463C73.4909 32.071 73.4795 32.0958 73.468 32.1206L73.703 32.0587L73.5019 32.0463ZM74.3899 10.8762C73.6426 7.9794 72.5514 5.9639 71.2325 5.04438L63.1731 8.62028C63.7651 10.6549 63.8563 14.0538 63.9444 17.3423C63.9694 18.2731 63.9928 19.1529 64.0277 19.9971C63.9928 20.8387 63.9694 21.719 63.9444 22.6504C63.8563 25.942 63.7646 29.345 63.1726 31.3796L71.232 34.955C71.9824 34.4323 72.6587 33.554 73.2398 32.361C73.2476 32.2491 73.2528 32.1763 73.2528 32.1763L73.3383 32.1536C73.356 32.1154 73.3737 32.0772 73.3909 32.0391L73.2768 32.0323L73.3013 31.6938L73.7155 26.8274L73.752 25.9518L73.5066 24.6148L73.5603 25.203L73.1303 27.2444L72.5472 28.8563L72.4222 28.8538C72.4222 28.8538 73.1241 25.6726 73.368 24.3011C73.6494 22.7484 73.95 19.397 73.95 19.397L74.1126 19.413L74.061 21.3387L73.8031 23.719L73.8505 24.0137C73.8505 24.0137 73.7848 24.8929 73.7739 25.0003C73.763 25.1076 73.987 25.9229 73.987 25.9229C73.987 25.9229 73.9407 28.636 73.9031 30.7454C74.0782 30.2398 74.2408 29.6985 74.3899 29.1211C75.06 26.5214 75.4294 23.2794 75.4294 19.9935C75.4294 19.318 75.4138 18.6447 75.3831 17.978L74.3742 14.5048L74.0933 13.6735L73.3831 12.5109L73.6447 13.0419L73.9771 15.1013L74.0121 16.8134L73.8943 16.8552C73.8943 16.8552 73.406 13.6353 73.1402 12.2674C72.8443 10.7173 71.9198 7.47991 71.9198 7.47991L72.0772 7.4376L72.7218 9.25548L73.3367 11.5708L73.4873 11.8293C73.4873 11.8293 73.7421 12.674 73.7708 12.7782C73.7994 12.8825 74.3018 13.5651 74.3018 13.5651C74.3018 13.5651 74.7489 14.7881 75.2637 16.1988C75.0944 14.2772 74.7979 12.4578 74.3899 10.8757V10.8762ZM75.8364 19.5239L75.7374 19.1988L75.5045 18.397C75.5222 18.8856 75.5321 19.3774 75.5337 19.8702H75.9281C75.8911 19.7484 75.8661 19.6669 75.8661 19.6669L76.2434 19.398L75.8364 19.5239Z" fill="url(#paint12_linear_6561_3910)"/>
<path d="M71.0257 4.18676L63.1518 7.37462C63.0413 7.42003 62.9371 7.46493 62.835 7.50827C62.1482 7.80291 61.5552 8.05781 60.0075 8.05781L48.2572 8.09961L47.6626 6.77297L47.66 6.76522C47.5328 6.28018 47.5396 6.12332 47.5578 5.70432L47.563 5.57945C47.586 5.10989 47.6027 3.80079 47.5427 3.40502L47.6459 3.38954C47.7095 3.80956 47.6897 5.13466 47.6678 5.58358L47.6626 5.70845C47.6449 6.11506 47.6381 6.26832 47.76 6.73478L48.3249 7.99641L60.0075 7.95461C61.5338 7.95461 62.0898 7.7157 62.7938 7.41384C62.896 7.36998 63.0012 7.32509 63.1122 7.27916L70.9861 4.0913C71.3279 3.94785 71.5864 3.73577 71.5624 3.61813C71.5541 3.57839 71.4785 3.44836 70.848 3.44836V3.34516C71.3628 3.34516 71.6296 3.42772 71.6645 3.59749C71.7125 3.83124 71.2862 4.07737 71.0262 4.18624L71.0257 4.18676Z" fill="url(#paint13_linear_6561_3910)"/>
<path opacity="0.15" d="M59.1289 30.4468H48.7303C48.0744 30.4468 47.5427 29.9203 47.5427 29.2708V10.7639C47.5427 10.1144 48.0744 9.58789 48.7303 9.58789H59.1289C59.7848 9.58789 60.3165 10.1144 60.3165 10.7639V29.2708C60.3165 29.9203 59.7848 30.4468 59.1289 30.4468Z" fill="white"/>
</g>
<defs>
<linearGradient id="paint0_linear_6561_3910" x1="76.1392" y1="19.9796" x2="97.3115" y2="19.9796" gradientUnits="userSpaceOnUse">
<stop stop-color="white"/>
<stop offset="0.46" stop-color="white"/>
<stop offset="0.6" stop-color="#FCFCFC"/>
<stop offset="0.68" stop-color="#F4F4F4"/>
<stop offset="0.73" stop-color="#E7E7E7"/>
<stop offset="0.79" stop-color="#D3D3D3"/>
<stop offset="0.83" stop-color="#BABABA"/>
<stop offset="0.87" stop-color="#9C9C9C"/>
<stop offset="0.91" stop-color="#777777"/>
<stop offset="0.95" stop-color="#4D4D4D"/>
<stop offset="0.98" stop-color="#1E1E1E"/>
<stop offset="1"/>
</linearGradient>
<linearGradient id="paint1_linear_6561_3910" x1="97.2966" y1="19.9595" x2="75.6099" y2="19.9595" gradientUnits="userSpaceOnUse">
<stop stop-color="#757575"/>
<stop offset="0.06" stop-color="#858585"/>
<stop offset="0.22" stop-color="#B1B1B1"/>
<stop offset="0.38" stop-color="#D2D2D2"/>
<stop offset="0.53" stop-color="#EBEBEB"/>
<stop offset="0.67" stop-color="#F9F9F9"/>
<stop offset="0.78" stop-color="white"/>
</linearGradient>
<linearGradient id="paint2_linear_6561_3910" x1="0" y1="19.9996" x2="100" y2="19.9996" gradientUnits="userSpaceOnUse">
<stop stop-color="#BABABA"/>
<stop offset="0.33" stop-color="#4A4A4A"/>
<stop offset="0.38" stop-color="#4B4B4B"/>
<stop offset="0.4" stop-color="#525252"/>
<stop offset="0.42" stop-color="#5E5E5E"/>
<stop offset="0.43" stop-color="#6F6F6F"/>
<stop offset="0.44" stop-color="#858585"/>
<stop offset="0.45" stop-color="#C0C0C0"/>
<stop offset="0.46" stop-color="white"/>
<stop offset="0.6" stop-color="#FCFCFC"/>
<stop offset="0.68" stop-color="#F4F4F4"/>
<stop offset="0.73" stop-color="#E7E7E7"/>
<stop offset="0.79" stop-color="#D3D3D3"/>
<stop offset="0.83" stop-color="#BABABA"/>
<stop offset="0.87" stop-color="#9C9C9C"/>
<stop offset="0.91" stop-color="#777777"/>
<stop offset="0.95" stop-color="#4D4D4D"/>
<stop offset="0.98" stop-color="#1E1E1E"/>
<stop offset="1"/>
</linearGradient>
<radialGradient id="paint3_radial_6561_3910" cx="0" cy="0" r="1" gradientUnits="userSpaceOnUse" gradientTransform="translate(22.8284 20.1394) scale(17.8926 16.8316)">
<stop stop-color="#B5B5B5"/>
<stop offset="1" stop-color="#1F1F1F"/>
</radialGradient>
<linearGradient id="paint4_linear_6561_3910" x1="45.288" y1="19.9998" x2="44.5647" y2="19.9998" gradientUnits="userSpaceOnUse">
<stop stop-color="#0D0D0D"/>
<stop offset="0.24" stop-color="#111111"/>
<stop offset="0.48" stop-color="#1D1D1D"/>
<stop offset="0.73" stop-color="#313131"/>
<stop offset="0.97" stop-color="#4E4E4E"/>
<stop offset="1" stop-color="#525252"/>
</linearGradient>
<linearGradient id="paint5_linear_6561_3910" x1="63.1106" y1="19.9998" x2="75.4816" y2="19.9998" gradientUnits="userSpaceOnUse">
<stop stop-color="#0D0D0D"/>
<stop offset="0.24" stop-color="#111111"/>
<stop offset="0.48" stop-color="#1D1D1D"/>
<stop offset="0.73" stop-color="#313131"/>
<stop offset="0.97" stop-color="#4E4E4E"/>
<stop offset="1" stop-color="#525252"/>
</linearGradient>
<linearGradient id="paint6_linear_6561_3910" x1="58.5615" y1="32.4117" x2="58.5615" y2="35.4117" gradientUnits="userSpaceOnUse">
<stop stop-color="#0D0D0D"/>
<stop offset="0.24" stop-color="#111111"/>
<stop offset="0.48" stop-color="#1D1D1D"/>
<stop offset="0.73" stop-color="#313131"/>
<stop offset="0.97" stop-color="#4E4E4E"/>
<stop offset="1" stop-color="#525252"/>
</linearGradient>
<linearGradient id="paint7_linear_6561_3910" x1="58.5615" y1="7.58826" x2="58.5615" y2="4.58822" gradientUnits="userSpaceOnUse">
<stop stop-color="#0D0D0D"/>
<stop offset="0.24" stop-color="#111111"/>
<stop offset="0.48" stop-color="#1D1D1D"/>
<stop offset="0.73" stop-color="#313131"/>
<stop offset="0.97" stop-color="#4E4E4E"/>
<stop offset="1" stop-color="#525252"/>
</linearGradient>
<linearGradient id="paint8_linear_6561_3910" x1="97.2964" y1="19.9454" x2="98.5538" y2="19.9454" gradientUnits="userSpaceOnUse">
<stop stop-color="#080808"/>
<stop offset="0.29" stop-color="#0A0A0A"/>
<stop offset="0.5" stop-color="#141414"/>
<stop offset="0.69" stop-color="#232324"/>
<stop offset="0.87" stop-color="#39393B"/>
<stop offset="1" stop-color="#4F4F51"/>
</linearGradient>
<linearGradient id="paint9_linear_6561_3910" x1="15.4954" y1="20.0055" x2="31.5709" y2="20.0055" gradientUnits="userSpaceOnUse">
<stop stop-color="#020202"/>
<stop offset="0.04" stop-color="#363636"/>
<stop offset="0.09" stop-color="#656565"/>
<stop offset="0.13" stop-color="#8E8E8E"/>
<stop offset="0.18" stop-color="#B1B1B1"/>
<stop offset="0.23" stop-color="#CDCDCD"/>
<stop offset="0.28" stop-color="#E3E3E3"/>
<stop offset="0.34" stop-color="#F3F3F3"/>
<stop offset="0.41" stop-color="#FCFCFC"/>
<stop offset="0.51" stop-color="white"/>
<stop offset="0.6" stop-color="#FCFCFC"/>
<stop offset="0.67" stop-color="#F3F3F3"/>
<stop offset="0.72" stop-color="#E3E3E3"/>
<stop offset="0.78" stop-color="#CDCDCD"/>
<stop offset="0.83" stop-color="#B1B1B1"/>
<stop offset="0.87" stop-color="#8E8E8E"/>
<stop offset="0.92" stop-color="#646464"/>
<stop offset="0.96" stop-color="#363636"/>
<stop offset="1"/>
</linearGradient>
<linearGradient id="paint10_linear_6561_3910" x1="80.1487" y1="19.975" x2="96.5993" y2="19.975" gradientUnits="userSpaceOnUse">
<stop/>
<stop offset="0.15" stop-color="#030303"/>
<stop offset="0.29" stop-color="#0E0E0E"/>
<stop offset="0.43" stop-color="#212121"/>
<stop offset="0.56" stop-color="#3B3B3B"/>
<stop offset="0.69" stop-color="#5D5D5D"/>
<stop offset="0.82" stop-color="#878787"/>
<stop offset="0.94" stop-color="#B7B7B7"/>
<stop offset="1" stop-color="#D1D1D1"/>
</linearGradient>
<linearGradient id="paint11_linear_6561_3910" x1="47.5172" y1="34.2776" x2="86.6249" y2="34.2776" gradientUnits="userSpaceOnUse">
<stop stop-color="#87898C"/>
<stop offset="0.07" stop-color="#6C6D6F"/>
<stop offset="0.15" stop-color="#505153"/>
<stop offset="0.24" stop-color="#3A393A"/>
<stop offset="0.35" stop-color="#282928"/>
<stop offset="0.47" stop-color="#1B1B1C"/>
<stop offset="0.64" stop-color="#161616"/>
<stop offset="1" stop-color="#141414"/>
</linearGradient>
<linearGradient id="paint12_linear_6561_3910" x1="63.033" y1="19.9997" x2="86.0109" y2="19.9997" gradientUnits="userSpaceOnUse">
<stop stop-color="#87898C"/>
<stop offset="0.07" stop-color="#6C6D6F"/>
<stop offset="0.15" stop-color="#505153"/>
<stop offset="0.24" stop-color="#3A393A"/>
<stop offset="0.35" stop-color="#282928"/>
<stop offset="0.47" stop-color="#1B1B1C"/>
<stop offset="0.64" stop-color="#161616"/>
<stop offset="1" stop-color="#141414"/>
</linearGradient>
<linearGradient id="paint13_linear_6561_3910" x1="47.5172" y1="5.72238" x2="86.6249" y2="5.72238" gradientUnits="userSpaceOnUse">
<stop stop-color="#87898C"/>
<stop offset="0.07" stop-color="#6C6D6F"/>
<stop offset="0.15" stop-color="#505153"/>
<stop offset="0.24" stop-color="#3A393A"/>
<stop offset="0.35" stop-color="#282928"/>
<stop offset="0.47" stop-color="#1B1B1C"/>
<stop offset="0.64" stop-color="#161616"/>
<stop offset="1" stop-color="#141414"/>
</linearGradient>
<clipPath id="clip0_6561_3910">
<rect width="100" height="40" fill="white" transform="matrix(1 0 0 -1 0 40)"/>
</clipPath>
</defs>
</svg>
