<svg width="100" height="123" viewBox="0 0 100 123" fill="none" xmlns="http://www.w3.org/2000/svg">
<g clip-path="url(#clip0_6561_4356)">
<path d="M99.9993 82.0858L100.042 82.1053V84.0141H99.9896V84.0394H94.0105V84.0141H74.6038V83.981L74.5491 84.0394V82.0138H74.6038V81.9884H76.3467L77.2163 81.034H76.6144C76.1846 81.034 75.8133 80.8198 75.5984 80.4887C75.5945 80.4828 75.5925 80.475 75.5886 80.4692H75.403V80.4244H75.3795V80.2881H75.487C75.4733 80.2588 75.4616 80.2277 75.4479 80.1965H75.2662V80.1517H75.2428V80.0154H75.3913C75.3874 79.9998 75.3874 79.9842 75.3834 79.9706H75.233V70.7129H73.6268V70.8493H71.0476V82.2436H70.9929V82.2689H46.7639V70.7383H46.7737V70.7129H40.3882L40.056 73.9657H40.1342V74.3747H40.2377V72.6471H40.2709V72.6217H40.5445V77.8553H46.2461V77.9001H46.2696V79.7894L46.2364 79.8031V79.8537L44.4758 80.5938C44.7592 80.6581 45.0015 80.8198 45.1715 81.0418C45.189 81.0633 45.2105 81.0847 45.2262 81.1061H45.4255V81.2424H45.3082C45.3317 81.2872 45.3512 81.332 45.3688 81.3788H45.5622V81.5151H45.4157C45.4255 81.5541 45.4313 81.593 45.4372 81.632H45.5622V81.6963H45.5857V118.838H45.5525V118.883H45.4411C45.4391 118.898 45.4352 118.914 45.4333 118.927H45.5622V119.064H45.3981C45.3825 119.11 45.3649 119.155 45.3434 119.2H45.4235V119.336H45.2711C45.0562 119.687 44.6751 119.927 44.2375 119.927H43.8056L46.2461 120.953V121L46.2891 121.019V122.909H46.2344V122.953H40.2553V122.909H20.8467V122.895L20.794 122.953V120.928H20.8467V120.883H22.6072L23.4767 119.929H22.8964C22.7284 119.929 22.5681 119.892 22.4216 119.831C22.1617 119.74 21.9429 119.566 21.7963 119.338H21.6224V119.202H21.7221C21.7006 119.157 21.683 119.112 21.6674 119.066H21.4876V118.929H21.6302C21.6263 118.914 21.6263 118.898 21.6244 118.885H21.4778V81.7216H21.4876V81.63H21.6166C21.6224 81.5911 21.6283 81.5521 21.6361 81.5132H21.4876V81.3768H21.6752C21.6908 81.3301 21.7104 81.2853 21.7318 81.2405H21.6244V81.1042H21.81C22.0308 80.775 22.406 80.5588 22.8358 80.5588H23.2716L21.6967 78.8311L21.3157 78.4221H20.8272V78.3773H20.8037V77.8319H23.9203V77.7871H23.9535V77.7423H24.0551V77.6703H24.0903H23.9183V76.8522H23.9515V76.788H24.1899V72.4445H24.1665C24.0864 72.4445 24.016 72.4153 23.9594 72.3724H23.8187C23.721 72.3724 23.6624 72.2945 23.6624 72.2166V70.4831H22.1578V70.3916L21.2922 69.7352H10.8776V71.2349H16.5246C17.7556 71.2349 18.7716 72.1114 19.0061 73.2606H18.9611C18.9651 73.2762 18.969 73.2898 18.9729 73.3054V73.3969H19.0256C19.0452 73.5138 19.0452 73.6112 19.0452 73.7281V75.2862H18.9729V75.8316H19.0452V76.6691H18.9729V77.2145H19.0452V78.7727C19.0452 78.8896 19.0452 79.0064 19.0256 79.1038H18.9729V79.2402H19.0061C18.9357 79.6122 18.7794 79.9569 18.5586 80.251C18.1014 80.8899 17.3433 81.3106 16.4914 81.3106H2.48738C1.25639 81.3106 0.240336 80.4341 0.00586185 79.285V78.9616C0.00195395 78.9013 0 78.8389 0 78.7727V77.2145H0.00586185V76.6691H0V75.8511H0.00586185V75.3057H0V73.7475C0 73.6813 0 73.6151 0.00586185 73.5528V73.3073H0.00976976C0.121145 72.725 0.439639 72.2146 0.881232 71.8524C1.32283 71.4804 1.89729 71.2544 2.5206 71.2544H8.1343V69.7547H5.5883V64.5931C5.44176 64.5931 5.30693 64.5113 5.23464 64.3867C5.18383 64.3185 5.15452 64.2347 5.15452 64.1393C5.15452 63.9056 5.33038 63.7303 5.56485 63.7303C5.57267 63.7303 5.58049 63.7303 5.5883 63.7322V59.1589C5.49451 59.1589 5.40463 59.1239 5.33233 59.0654C5.32256 59.0596 5.31475 59.0518 5.30498 59.044C5.30498 59.044 5.30302 59.044 5.30107 59.0421C5.20923 58.968 5.15257 58.857 5.15257 58.7246C5.15257 58.4909 5.32843 58.3156 5.5629 58.3156C5.57072 58.3156 5.57853 58.3156 5.58635 58.3175V53.1794H8.12062V51.7633H2.48738C1.25639 51.7633 0.240336 50.8869 0.00586185 49.7182V49.3559C0.00195395 49.2956 0 49.2332 0 49.167V47.6088H0.00586185V47.0634H0V46.2454H0.00586185V45.7H0V44.1418C0 44.0756 0 44.0094 0.00586185 43.9471V43.7601C0.0371251 43.5906 0.0879278 43.427 0.150454 43.2712C0.50412 42.3109 1.43615 41.6292 2.5206 41.6292H16.5304C17.7614 41.6292 18.7775 42.5057 19.0119 43.6744H18.9572C18.9631 43.7016 18.9729 43.7309 18.9787 43.7581V43.8107H19.0315C19.051 43.9276 19.051 44.025 19.051 44.1418V45.7H18.9787V46.2843H19.051V47.1024H18.9787V47.6478H19.051V49.206C19.051 49.3228 19.051 49.4397 19.0315 49.5371H18.9787V49.6734H19.0119C18.9416 50.0532 18.7833 50.4019 18.5625 50.6999C18.1053 51.3446 17.3472 51.7633 16.4972 51.7633H10.905V53.2183H21.2805L22.1793 52.5366H23.6604V50.8284C23.6604 50.7992 23.6682 50.7758 23.6799 50.7544V50.7369C23.6799 50.6395 23.7581 50.5811 23.8363 50.5811H23.9476C24.0043 50.5382 24.0746 50.509 24.1547 50.509H24.1977V46.1908H23.9242V45.3728H23.9379V45.3475H24.059V45.2559H23.9222V45.1196H20.7959V43.0745H20.8096V43.0297H22.6268L23.4963 42.0753H22.8593C22.5838 42.0753 22.3317 41.9818 22.1265 41.8279C22.1168 41.8221 22.109 41.8143 22.0992 41.8084C22.0738 41.7889 22.0503 41.7714 22.0269 41.75C21.9448 41.6779 21.8706 41.5961 21.81 41.5046H21.6244V41.3682H21.7318C21.7104 41.3234 21.6908 41.2786 21.6752 41.2319H21.4876V41.0956H21.6361C21.6322 41.08 21.6322 41.0644 21.6283 41.0508H21.4778V3.88782H21.4876V3.79626H21.6127C21.6185 3.74952 21.6263 3.70472 21.6361 3.65992H21.4876V3.52359H21.6752C21.6908 3.47684 21.7104 3.43204 21.7318 3.38725H21.6244V3.2509H21.81C22.0308 2.92173 22.406 2.70554 22.8358 2.70554H23.1797L21.2316 0.568855H20.8272V0.543533H20.8037V0.0994492L20.794 0.0897141H20.8037V-0.00183868H46.2442V0.0234833H46.2676V1.93227L46.2324 1.94591V1.99655L44.4719 2.73669C44.7084 2.79123 44.9174 2.91394 45.0796 3.08144C45.0913 3.09313 45.1031 3.10677 45.1148 3.11845C45.1265 3.13014 45.1363 3.14378 45.148 3.15546C45.1754 3.18662 45.2027 3.21584 45.2281 3.24895H45.4235V3.38529H45.3102C45.3336 3.43009 45.3532 3.47489 45.3708 3.52164H45.5603V3.65798H45.4157C45.4274 3.70278 45.4372 3.74757 45.4431 3.79431H45.5603V3.81963H45.5837V41.0021H45.5486V41.0469H45.4372C45.4352 41.0624 45.4313 41.078 45.4274 41.0917H45.5583V41.228H45.4001C45.3864 41.2747 45.3649 41.3195 45.3434 41.3643H45.4216V41.5007H45.2691C45.0542 41.8415 44.6693 42.0714 44.2336 42.0714H43.7548L46.2422 43.1173V43.1446L46.2852 43.1641V45.0728H46.2305V45.1176H40.5601V50.3512H40.5054V50.396H40.2319V48.6431H40.1498V49.0073H40.0716L40.4038 52.26H46.7581V40.7742H46.7678V40.6826H70.9968V40.7274H71.0613V52.0769H73.5956V52.1217H73.6405V52.2581H75.2271V42.7979H75.2369V42.7063H75.362C75.3639 42.683 75.3698 42.6596 75.3737 42.6343H75.2604V42.57H75.235V42.4336H75.4225C75.4303 42.4083 75.4421 42.3869 75.4518 42.3616H75.3952V42.2973H75.3698V42.161H75.5554C75.7762 41.8318 76.1514 41.6156 76.5812 41.6156H76.9955L75.0806 39.5179H74.5921V39.4536H74.5472V38.9082H99.9876V38.9725H100.011V40.8813L99.9778 40.8949V40.9066L98.2076 41.6507C98.5163 41.7266 98.7801 41.9097 98.954 42.159H99.1689V42.2954H99.036C99.036 42.2954 99.0399 42.307 99.0439 42.3129C99.0653 42.3518 99.0849 42.3908 99.1025 42.4317H99.3057V42.568H99.1533C99.167 42.6128 99.1728 42.6576 99.1806 42.7044H99.3057V42.7687H99.3311V79.9121H99.2959V79.9569H99.1845C99.1826 79.9725 99.1787 79.9881 99.1767 80.0017H99.3057V80.1381H99.1415C99.1259 80.1848 99.1083 80.2296 99.0868 80.2744H99.1669V80.4108H99.0145C98.7996 80.7614 98.4186 81.0009 97.9809 81.0009H97.5491L99.9896 82.0274V82.0741L99.9993 82.0858ZM26.6851 74.067V74.476H26.7887V72.7483H26.8219V72.7035H27.0954V77.9566H38.3541V72.7503H38.3873V72.7055H38.6609V74.4779H38.7977V74.0689H38.8406L38.5124 70.8162H28.4417V70.5883H26.9528L26.605 74.0689H26.6832L26.6851 74.067ZM38.8192 49.1164V48.7521H38.6824V50.4603H38.6277V50.5051H38.3541V45.1819H27.113V50.4603H27.0603V50.5051H26.7867V48.7521H26.7047V49.1164H26.6265L26.9782 52.6418H28.4632V52.3691H38.5241L38.8524 49.1164H38.8192Z" fill="black"/>
<path d="M21.1024 53.4711H19.4611V69.4816H21.1024V64.5694C21.1454 64.583 21.1904 64.5928 21.2392 64.5928C21.4737 64.5928 21.6495 64.4175 21.6495 64.1837C21.6495 63.95 21.4737 63.7747 21.2392 63.7747C21.1904 63.7747 21.1454 63.7844 21.1024 63.7981V59.1527C21.1454 59.1683 21.1904 59.178 21.2392 59.178C21.4737 59.178 21.6495 59.0027 21.6495 58.769C21.6495 58.5353 21.4737 58.36 21.2392 58.36C21.1904 58.36 21.1454 58.3697 21.1024 58.3834V53.4711ZM5.84208 64.5012C5.76978 64.5577 5.68185 64.5928 5.58806 64.5928C5.35359 64.5928 5.17773 64.4175 5.17773 64.1837C5.17773 63.95 5.35359 63.7747 5.58806 63.7747C5.68576 63.7747 5.77369 63.8059 5.84208 63.8604V59.0865C5.76978 59.143 5.68185 59.178 5.58806 59.178C5.35359 59.178 5.17773 59.0027 5.17773 58.769C5.17773 58.5353 5.35359 58.36 5.58806 58.36C5.68576 58.36 5.77369 58.3911 5.84208 58.4457V53.4711H19.3243V69.4816H5.84208V64.5012ZM71.0259 82.2198H46.7969V70.6892H53.753V52.2635H46.7969V40.7329H71.0259V52.1272H73.6247V70.845H71.0259V82.2198ZM100.023 82.0835L97.4746 81.0122H97.9709C98.4008 81.0122 98.7759 80.796 98.9967 80.4669H99.2019V80.3305H99.0749C99.0964 80.2857 99.1159 80.2409 99.1315 80.1942H99.3387V80.0578H99.1706C99.1804 80.013 99.1882 79.9683 99.1941 79.9215H99.3387V42.7586H99.1941C99.1882 42.7118 99.1804 42.667 99.1706 42.6222H99.3406V42.4859H99.1296C99.112 42.4391 99.0925 42.3943 99.071 42.3495H99.2038V42.2132H98.9889C98.7896 41.9269 98.4711 41.7243 98.1018 41.6776L100.024 40.8692V38.9605H74.584V39.5058H75.0804L77.0519 41.6678H76.6162C76.1863 41.6678 75.8111 41.884 75.5903 42.2132H75.4047V42.3495H75.5122C75.4907 42.3943 75.4711 42.4391 75.4555 42.4859H75.2679V42.6222H75.4164C75.4067 42.667 75.3988 42.7118 75.393 42.7586H75.2679V79.9215H75.393C75.3988 79.9683 75.4067 80.013 75.4164 80.0578H75.2679V80.1942H75.4555C75.4711 80.2409 75.4907 80.2857 75.5122 80.3305H75.4047V80.4669H75.5903C75.8111 80.796 76.1863 81.0122 76.6162 81.0122H77.1633C77.2121 81.0122 77.261 81.0083 77.3098 81.0025L74.584 83.9923H100.024V82.0835H100.023ZM96.2631 42.4859H96.1772L96.2788 42.443C96.2729 42.4567 96.269 42.4722 96.2631 42.4859ZM96.5074 80.6071L94.1607 79.6196V43.3331L96.0756 42.5287V42.6222H96.2241C96.2143 42.667 96.2065 42.7118 96.2006 42.7586H96.0756V79.9215H96.2006C96.2065 79.9683 96.2143 80.013 96.2241 80.0578H96.0756V80.1942H96.2631C96.2788 80.2409 96.2983 80.2857 96.3198 80.3305H96.2123V80.4669H96.398C96.4312 80.5156 96.4683 80.5623 96.5074 80.6052V80.6071ZM24.3655 77.8764H20.8289V78.4217H21.3076L23.2967 80.6032H22.861C22.4311 80.6032 22.056 80.8194 21.8352 81.1486H21.6495V81.2849H21.757C21.7355 81.3297 21.716 81.3745 21.7003 81.4213H21.5128V81.5576H21.6613C21.6535 81.5966 21.6456 81.6355 21.6417 81.6745H21.5128V118.837H21.6359C21.6398 118.884 21.6476 118.929 21.6554 118.974H21.5128V119.11H21.6925C21.7082 119.157 21.7277 119.202 21.7472 119.246H21.6476V119.383H21.8215C22.0403 119.724 22.4214 119.948 22.859 119.948H23.4061C23.4491 119.948 23.4921 119.944 23.5351 119.938L20.8289 122.908H46.2693V120.999L43.7683 119.948H44.2177C44.6495 119.936 45.0266 119.712 45.2474 119.383H45.4487V119.246H45.3236C45.3451 119.202 45.3647 119.157 45.3803 119.11H45.5835V118.974H45.4194C45.4291 118.929 45.437 118.884 45.4409 118.837H45.5835V81.6745H45.435C45.4291 81.6355 45.4233 81.5966 45.4155 81.5576H45.5835V81.4213H45.3764C45.3607 81.3745 45.3412 81.3297 45.3197 81.2849H45.4467V81.1486H45.2416C45.0442 80.8545 44.7238 80.65 44.3506 80.611L46.2674 79.8046V77.8958H24.3636V77.8764H24.3655ZM42.5099 81.4213H42.424L42.5256 81.3784C42.5197 81.392 42.5158 81.4076 42.5099 81.4213ZM42.7249 119.511L40.427 118.545V82.2627L42.3224 81.4661V81.5596H42.4709C42.463 81.5985 42.4552 81.6375 42.4513 81.6764H42.3224V118.837H42.4455C42.4494 118.884 42.4572 118.929 42.465 118.974H42.3224V119.11H42.5021C42.5177 119.157 42.5373 119.202 42.5568 119.246H42.4572V119.383H42.6311C42.6604 119.428 42.6897 119.47 42.7229 119.509L42.7249 119.511ZM20.8289 45.0764H46.2693V43.1676L43.7214 42.0963H44.2177C44.6417 42.0846 45.0129 41.8704 45.2337 41.5509H45.4487V41.4146H45.3158C45.3393 41.3698 45.3588 41.325 45.3764 41.2783H45.5874V41.1419H45.4174C45.4272 41.0971 45.437 41.0523 45.4409 41.0056H45.5855V3.84263H45.4409C45.435 3.79588 45.4272 3.75109 45.4174 3.7063H45.5855V3.56995H45.3783C45.3627 3.52321 45.3432 3.4784 45.3217 3.43361H45.4487V3.29726H45.2435C45.0462 3.00315 44.7257 2.79864 44.3525 2.75968L46.2693 1.95332V0.0445251H20.8289V0.589905H21.3252L23.2967 2.7519H22.861C22.4311 2.7519 22.056 2.96809 21.8352 3.29726H21.6495V3.43361H21.757C21.7355 3.4784 21.716 3.52321 21.7003 3.56995H21.5128V3.7063H21.6613C21.6515 3.75109 21.6437 3.79588 21.6378 3.84263H21.5128V41.0056H21.6378C21.6437 41.0523 21.6515 41.0971 21.6613 41.1419H21.5128V41.2783H21.7003C21.716 41.325 21.7355 41.3698 21.757 41.4146H21.6495V41.5509H21.8352C22.056 41.8801 22.4311 42.0963 22.861 42.0963H23.4081C23.4589 42.0963 23.5097 42.0905 23.5586 42.0827L20.8289 45.0764ZM42.5099 3.56995H42.424L42.5256 3.52709C42.5197 3.54073 42.5158 3.55632 42.5099 3.56995ZM42.7542 41.6912L40.427 40.7134V4.41138L42.3224 3.61475V3.70824H42.4709C42.4611 3.75303 42.4533 3.79783 42.4474 3.84457H42.3224V41.0075H42.4474C42.4533 41.0543 42.4611 41.0991 42.4709 41.1439H42.3224V41.2802H42.5099C42.5256 41.327 42.5451 41.3718 42.5666 41.4166H42.4591V41.5529H42.6448C42.678 41.6016 42.7151 41.6483 42.7542 41.6912ZM53.6357 70.436H28.5861V54.4255H53.6162V68.5272H53.6357V70.436ZM33.5687 54.4255H28.5861V52.5168H53.6357V54.4255H33.5687ZM75.1097 70.436H73.7419V52.5362H75.1097V70.436ZM25.323 72.1695C25.323 72.2474 25.2448 72.3253 25.1667 72.3253H23.8575C23.7794 72.3253 23.7012 72.2669 23.7012 72.1695V65.7225C23.7012 65.6445 23.7598 65.5666 23.8575 65.5666H25.1667C25.2448 65.5666 25.323 65.6251 25.323 65.7225V72.1695ZM25.1667 57.3861H23.8575C23.7598 57.3861 23.7012 57.3082 23.7012 57.2303V50.7833C23.7012 50.6859 23.7794 50.6274 23.8575 50.6274H25.1667C25.2448 50.6274 25.323 50.7054 25.323 50.7833V57.2303C25.323 57.3277 25.2448 57.3861 25.1667 57.3861Z" fill="#007EAE"/>
<path d="M23.2619 64.821V58.3156H20.5459V64.821H23.2619Z" fill="#C4CCCC"/>
<path opacity="0.1" d="M21.093 69.5735V53.563H19.4517V69.5735H21.093Z" fill="black"/>
<path opacity="0.3" d="M71.0166 82.3118V70.7811H46.7876V82.3118H71.0166Z" fill="url(#paint0_linear_6561_4356)"/>
<path opacity="0.3" d="M71.0166 82.3118V70.7811H46.7876V82.3118H71.0166Z" fill="url(#paint1_linear_6561_4356)"/>
<path opacity="0.3" d="M71.0166 40.8246V52.3552H46.7876V40.8246H71.0166Z" fill="url(#paint2_linear_6561_4356)"/>
<path opacity="0.3" d="M71.0166 40.8246V52.3552H46.7876V40.8246H71.0166Z" fill="url(#paint3_linear_6561_4356)"/>
<path opacity="0.15" d="M89.8136 48.5572V44.4865H81.0989V48.5572H89.8136ZM88.1722 53.4266L89.54 49.9012H85.4562V53.4266H88.1722ZM86.2769 58.8608L87.6447 54.79H82.7403V58.8608H86.2769ZM84.7724 54.381V53.2123C85.1045 52.8033 85.3195 52.2579 85.3195 51.6736C85.3195 51.0893 85.1241 50.5634 84.7724 50.1349V48.9663H80.6886V50.5634C80.5127 50.8945 80.415 51.2841 80.415 51.6931C80.415 52.1021 80.5127 52.4722 80.6886 52.8228V54.4199L84.7724 54.381ZM84.7724 74.3259V73.1572C85.1045 72.7482 85.3195 72.2028 85.3195 71.6185C85.3195 71.0342 85.1241 70.5083 84.7724 70.0798V68.9112H80.6886V70.5083C80.5127 70.8394 80.415 71.229 80.415 71.638C80.415 72.047 80.5127 72.4171 80.6886 72.7677V74.3648H84.7724V74.3259ZM88.0745 64.4119H81.0989V68.4827H89.8136V64.4313L88.0745 64.4119ZM86.2769 78.7862L87.6447 74.7154H82.7403V78.7862H86.2769ZM88.1722 73.3715L89.54 69.8461H85.4562V73.3715H88.1722ZM94.1513 79.877H78.0898V43.2594H94.1513V79.877Z" fill="url(#paint4_linear_6561_4356)"/>
<path opacity="0.1" d="M89.8136 68.4827H88.4067L89.8136 64.782V68.4827Z" fill="black"/>
<path opacity="0.1" d="M78.5194 80.0134V42.8505H75.2563V80.0134H78.5194Z" fill="url(#paint5_linear_6561_4356)"/>
<path opacity="0.1" d="M99.329 80.0134V42.8505H96.0659V80.0134H99.329Z" fill="url(#paint6_linear_6561_4356)"/>
<path d="M95.5189 80.8313V42.3244H94.6982V80.8313H95.5189Z" fill="#E0E6E6"/>
<path d="M96.203 80.8313V42.3244H95.3823V80.8313H96.203Z" fill="url(#paint7_linear_6561_4356)"/>
<path d="M94.8348 80.8313V42.3244H94.0142V80.8313H94.8348Z" fill="url(#paint8_linear_6561_4356)"/>
<path opacity="0.1" d="M100.013 84.084H94.0342V79.6626L100.013 82.1752V84.084Z" fill="white"/>
<path opacity="0.1" d="M100.013 39.0523H94.0342V43.4736L100.013 40.961V39.0523Z" fill="white"/>
<path d="M98.5082 61.5682C98.5082 62.0162 98.137 62.3862 97.6876 62.3862H94.0142V60.7501H97.6876C98.1565 60.7501 98.5082 61.1202 98.5082 61.5682Z" fill="#444444"/>
<path opacity="0.1" d="M82.877 73.2352C83.7758 73.2352 84.5183 72.5145 84.5183 71.5991C84.5183 70.6836 83.7954 69.963 82.877 69.963C81.9587 69.963 81.2357 70.6836 81.2357 71.5991C81.2357 72.5145 81.9587 73.2352 82.877 73.2352ZM82.877 74.0532C81.5288 74.0532 80.4346 72.9625 80.4346 71.6185C80.4346 70.2746 81.5288 69.1839 82.877 69.1839C84.2252 69.1839 85.3194 70.2746 85.3194 71.6185C85.3194 72.9625 84.2252 74.0532 82.877 74.0532Z" fill="white"/>
<path opacity="0.6" d="M84.4986 77.9875C85.2607 77.9875 85.8664 77.3837 85.8664 76.6241C85.8664 75.8645 85.2607 75.2607 84.4986 75.2607C83.7366 75.2607 83.1309 75.8645 83.1309 76.6241C83.1309 77.3837 83.7561 77.9875 84.4986 77.9875Z" fill="black"/>
<path d="M84.5181 75.3583C83.7365 75.3583 83.2285 76.04 83.2285 76.6438C83.2285 77.4229 83.9124 77.8904 84.5181 77.8904C85.2411 77.8904 85.7687 77.345 85.7687 76.6438C85.7687 75.8647 85.1238 75.3583 84.5181 75.3583ZM84.5181 75.4947C83.8733 75.4947 83.3653 76.04 83.3653 76.6438C83.3653 77.3255 83.9124 77.7735 84.5181 77.7735C85.202 77.7735 85.6514 77.2671 85.6514 76.6438C85.6319 75.9621 85.1238 75.4947 84.5181 75.4947Z" fill="#E0E6E6"/>
<path opacity="0.6" d="M88.172 47.8755C88.934 47.8755 89.5397 47.2717 89.5397 46.5121C89.5397 45.7524 88.934 45.1486 88.172 45.1486C87.4099 45.1486 86.8042 45.7524 86.8042 46.5121C86.8237 47.2717 87.4295 47.8755 88.172 47.8755Z" fill="black"/>
<path d="M88.1915 45.2463C87.4099 45.2463 86.9019 45.928 86.9019 46.5318C86.9019 47.3109 87.5857 47.7783 88.1915 47.7783C88.9144 47.7783 89.442 47.233 89.442 46.5318C89.442 45.7527 88.7972 45.2463 88.1915 45.2463ZM88.1915 45.3826C87.5467 45.3826 87.0386 45.928 87.0386 46.5318C87.0386 47.2135 87.5857 47.6615 88.1915 47.6615C88.8753 47.6615 89.3248 47.155 89.3248 46.5318C89.3052 45.8501 88.7972 45.3826 88.1915 45.3826Z" fill="#E0E6E6"/>
<path opacity="0.6" d="M88.172 67.801C88.934 67.801 89.5397 67.1972 89.5397 66.4376C89.5397 65.678 88.934 65.0742 88.172 65.0742C87.4099 65.0742 86.8042 65.678 86.8042 66.4376C86.8237 67.1972 87.4295 67.801 88.172 67.801Z" fill="black"/>
<path d="M88.1915 65.1715C87.4099 65.1715 86.9019 65.8533 86.9019 66.4571C86.9019 67.2362 87.5857 67.7036 88.1915 67.7036C88.9144 67.7036 89.442 67.1582 89.442 66.4571C89.442 65.6974 88.7972 65.1715 88.1915 65.1715ZM88.1915 65.3079C87.5467 65.3079 87.0386 65.8533 87.0386 66.4571C87.0386 67.1388 87.5857 67.5867 88.1915 67.5867C88.8753 67.5867 89.3248 67.0803 89.3248 66.4571C89.3052 65.7948 88.7972 65.3079 88.1915 65.3079Z" fill="#E0E6E6"/>
<path opacity="0.6" d="M84.4986 58.0427C85.2607 58.0427 85.8664 57.4389 85.8664 56.6793C85.8664 55.9197 85.2607 55.3159 84.4986 55.3159C83.7366 55.3159 83.1309 55.9197 83.1309 56.6793C83.1309 57.4389 83.7561 58.0427 84.4986 58.0427Z" fill="black"/>
<path d="M84.5181 55.4132C83.7365 55.4132 83.2285 56.095 83.2285 56.6988C83.2285 57.4779 83.9124 57.9453 84.5181 57.9453C85.2411 57.9453 85.7687 57.3999 85.7687 56.6988C85.7687 55.9197 85.1238 55.4132 84.5181 55.4132ZM84.5181 55.5496C83.8733 55.5496 83.3653 56.095 83.3653 56.6988C83.3653 57.3805 83.9124 57.8284 84.5181 57.8284C85.202 57.8284 85.6514 57.322 85.6514 56.6988C85.6319 56.017 85.1238 55.5496 84.5181 55.5496Z" fill="#E0E6E6"/>
<path opacity="0.1" d="M82.877 53.2901C83.7758 53.2901 84.5183 52.5694 84.5183 51.654C84.5183 50.7386 83.7954 50.0179 82.877 50.0179C81.9587 50.0179 81.2357 50.7386 81.2357 51.654C81.2357 52.5694 81.9587 53.2901 82.877 53.2901ZM82.877 54.1082C81.5288 54.1082 80.4346 53.0174 80.4346 51.6735C80.4346 50.3295 81.5288 49.2388 82.877 49.2388C84.2252 49.2388 85.3194 50.3295 85.3194 51.6735C85.3194 53.0174 84.2252 54.1082 82.877 54.1082Z" fill="white"/>
<path d="M97.4337 61.8408H93.6489C93.6039 61.8915 93.5492 61.9343 93.4867 61.9577V61.9772H92.8028V62.1135H92.666V61.0228H92.8028V61.1591H93.4867V61.1981C93.5473 61.2137 93.6 61.2507 93.6449 61.2955H97.4337C97.5704 61.2955 97.7072 61.4123 97.7072 61.5682C97.7072 61.724 97.59 61.8408 97.4337 61.8408Z" fill="#222222"/>
<path d="M92.3926 69.0476V64.1198C92.3926 63.9834 92.2754 63.8666 92.1386 63.8666H90.1847C90.0479 63.8666 89.9307 63.9834 89.9307 64.1198V69.0476C89.9307 69.1839 90.0479 69.3008 90.1847 69.3008H92.1386C92.2754 69.3008 92.3926 69.1839 92.3926 69.0476Z" fill="#333333"/>
<path d="M92.3926 67.2751V67.0025H90.0869V67.2751H92.3926Z" fill="black"/>
<path d="M92.3926 66.3208V66.0481H90.0869V66.3208H92.3926Z" fill="black"/>
<path d="M91.4351 67.0024V66.3207H91.2983V67.0024H91.4351Z" fill="black"/>
<path d="M90.2237 67.0024V66.3207H90.0869V67.0024H90.2237Z" fill="black"/>
<path d="M90.6143 67.0024V66.3207H90.4775V67.0024H90.6143Z" fill="black"/>
<path d="M92.3926 54.2253V59.153C92.3926 59.2894 92.2754 59.4062 92.1386 59.4062H90.1847C90.0479 59.4062 89.9307 59.2894 89.9307 59.153V54.2253C89.9307 54.0889 90.0479 53.972 90.1847 53.972H92.1386C92.2754 53.972 92.3926 54.0889 92.3926 54.2253Z" fill="#333333"/>
<path d="M92.3926 56.0171V56.2898H90.0869V56.0171H92.3926Z" fill="black"/>
<path d="M92.3926 56.9519V57.2246H90.0869V56.9519H92.3926Z" fill="black"/>
<path d="M91.4351 56.2897V56.9714H91.2983V56.2897H91.4351Z" fill="black"/>
<path d="M90.2237 56.2897V56.9714H90.0869V56.2897H90.2237Z" fill="black"/>
<path d="M90.6143 56.2897V56.9714H90.4775V56.2897H90.6143Z" fill="black"/>
<path d="M86.5505 63.7693V59.3673C86.5505 59.231 86.4332 59.1141 86.2965 59.1141H84.069C83.9322 59.1141 83.8149 59.231 83.8149 59.3673V63.7693C83.8149 63.9056 83.9322 64.0225 84.069 64.0225H86.2965C86.4332 64.003 86.5505 63.9056 86.5505 63.7693Z" fill="url(#paint9_linear_6561_4356)"/>
<path opacity="0.5" d="M84.3029 63.7302C84.4201 63.7302 84.4983 63.6328 84.4983 63.5355C84.4983 63.4186 84.4006 63.3407 84.3029 63.3407C84.1856 63.3407 84.1075 63.4381 84.1075 63.5355C84.0879 63.6523 84.1856 63.7302 84.3029 63.7302Z" fill="black"/>
<path opacity="0.5" d="M84.3029 59.8152C84.4201 59.8152 84.4983 59.7178 84.4983 59.6204C84.4983 59.5035 84.4006 59.4256 84.3029 59.4256C84.1856 59.4256 84.1075 59.523 84.1075 59.6204C84.0879 59.7178 84.1856 59.8152 84.3029 59.8152Z" fill="black"/>
<path opacity="0.2" d="M91.5717 65.7754L86.6673 65.639L84.7524 63.7303V59.3868L86.6673 57.478L91.5717 57.3417V65.7754Z" fill="black"/>
<path opacity="0.1" d="M84.772 61.5681V59.4061L86.6868 57.4973L91.5913 57.361V61.5681H84.772Z" fill="black"/>
<path opacity="0.15" d="M36.0601 87.4731V83.4023H27.3455V87.4731H36.0601ZM34.4188 92.3619L35.7866 88.8365H31.7028V92.3619H34.4188ZM32.5235 97.7766L33.8912 93.7058H28.9868V97.7766H32.5235ZM31.0189 93.2968V92.1087C31.3511 91.6997 31.566 91.1543 31.566 90.57C31.566 89.9857 31.3706 89.4598 31.0189 89.0313V87.8431H26.9352V89.4403C26.7593 89.7714 26.6616 90.1609 26.6616 90.57C26.6616 90.979 26.7593 91.3491 26.9352 91.6997V93.2968H31.0189ZM31.0189 113.242V112.073C31.3511 111.645 31.566 111.119 31.566 110.534C31.566 109.95 31.3706 109.424 31.0189 108.996V107.827H26.9352V109.424C26.7593 109.755 26.6616 110.145 26.6616 110.554C26.6616 110.963 26.7593 111.333 26.9352 111.684V113.281L31.0189 113.242ZM34.3406 103.347H27.365V107.418H36.0797V103.367L34.3406 103.347ZM32.5235 117.722L33.8912 113.651H28.9868V117.722H32.5235ZM34.4188 112.287L35.7866 108.762H31.7028V112.287H34.4188ZM40.4174 118.812H24.356V82.1947H40.4174V118.812Z" fill="url(#paint10_linear_6561_4356)"/>
<path opacity="0.1" d="M36.0602 107.418H34.6533L36.0602 103.717V107.418Z" fill="black"/>
<path opacity="0.1" d="M24.766 118.929V81.7663H21.5029V118.929H24.766Z" fill="url(#paint11_linear_6561_4356)"/>
<path opacity="0.1" d="M45.5761 118.929V81.7663H42.313V118.929H45.5761Z" fill="url(#paint12_linear_6561_4356)"/>
<path d="M41.7655 119.747V81.2402H40.9448V119.747H41.7655Z" fill="#E0E6E6"/>
<path d="M42.4496 119.747V81.2402H41.6289V119.747H42.4496Z" fill="url(#paint13_linear_6561_4356)"/>
<path d="M41.0819 119.747V81.2402H40.2612V119.747H41.0819Z" fill="url(#paint14_linear_6561_4356)"/>
<path opacity="0.1" d="M46.2599 123H40.2808V118.579L46.2599 121.091V123Z" fill="white"/>
<path opacity="0.1" d="M46.2599 77.9878H40.2808V82.4092L46.2599 79.8966V77.9878Z" fill="white"/>
<path d="M44.7553 100.503C44.7553 100.951 44.3841 101.322 43.9347 101.322H40.2612V99.6854H43.9347C44.3841 99.6854 44.7553 100.036 44.7553 100.503Z" fill="#444444"/>
<path opacity="0.1" d="M29.1236 112.151C30.0224 112.151 30.7649 111.431 30.7649 110.515C30.7649 109.6 30.0419 108.879 29.1236 108.879C28.2052 108.879 27.4823 109.6 27.4823 110.515C27.4823 111.431 28.2052 112.151 29.1236 112.151ZM29.1236 112.969C27.7754 112.969 26.6812 111.879 26.6812 110.535C26.6812 109.191 27.7754 108.1 29.1236 108.1C30.4718 108.1 31.566 109.191 31.566 110.535C31.566 111.879 30.4718 112.969 29.1236 112.969Z" fill="white"/>
<path opacity="0.6" d="M30.7452 116.904C31.5072 116.904 32.113 116.3 32.113 115.54C32.113 114.781 31.5072 114.177 30.7452 114.177C29.9832 114.177 29.3774 114.781 29.3774 115.54C29.3774 116.3 30.0027 116.904 30.7452 116.904Z" fill="black"/>
<path d="M30.7647 114.274C29.9831 114.274 29.4751 114.956 29.4751 115.56C29.4751 116.339 30.159 116.806 30.7647 116.806C31.4877 116.806 32.0152 116.261 32.0152 115.56C32.0152 114.78 31.3704 114.274 30.7647 114.274ZM30.7647 114.41C30.1199 114.41 29.6119 114.956 29.6119 115.56C29.6119 116.241 30.159 116.689 30.7647 116.689C31.4486 116.689 31.898 116.183 31.898 115.56C31.8785 114.878 31.3704 114.41 30.7647 114.41Z" fill="#E0E6E6"/>
<path opacity="0.6" d="M34.419 86.7915C35.1811 86.7915 35.7868 86.1877 35.7868 85.4281C35.7868 84.6685 35.1811 84.0647 34.419 84.0647C33.657 84.0647 33.0513 84.6685 33.0513 85.4281C33.0513 86.1877 33.6765 86.7915 34.419 86.7915Z" fill="black"/>
<path d="M34.4385 84.162C33.657 84.162 33.1489 84.8437 33.1489 85.4475C33.1489 86.2266 33.8328 86.6941 34.4385 86.6941C35.1615 86.6941 35.6891 86.1487 35.6891 85.4475C35.7086 84.6684 35.0443 84.162 34.4385 84.162ZM34.4385 84.2984C33.7937 84.2984 33.2857 84.8437 33.2857 85.4475C33.2857 86.1292 33.8328 86.5772 34.4385 86.5772C35.1224 86.5772 35.5718 86.0708 35.5718 85.4475C35.5523 84.7853 35.0443 84.2984 34.4385 84.2984Z" fill="#E0E6E6"/>
<path opacity="0.6" d="M34.419 106.736C35.1811 106.736 35.7868 106.132 35.7868 105.373C35.7868 104.613 35.1811 104.009 34.419 104.009C33.657 104.009 33.0513 104.613 33.0513 105.373C33.0708 106.132 33.6765 106.736 34.419 106.736Z" fill="black"/>
<path d="M34.4385 104.107C33.657 104.107 33.1489 104.789 33.1489 105.392C33.1489 106.171 33.8328 106.639 34.4385 106.639C35.1615 106.639 35.6891 106.094 35.6891 105.392C35.7086 104.613 35.0443 104.107 34.4385 104.107ZM34.4385 104.243C33.7937 104.243 33.2857 104.789 33.2857 105.392C33.2857 106.074 33.8328 106.522 34.4385 106.522C35.1224 106.522 35.5718 106.016 35.5718 105.392C35.5523 104.711 35.0443 104.243 34.4385 104.243Z" fill="#E0E6E6"/>
<path opacity="0.6" d="M30.7452 96.9587C31.5072 96.9587 32.113 96.3549 32.113 95.5953C32.113 94.8357 31.5072 94.2319 30.7452 94.2319C29.9832 94.2319 29.3774 94.8357 29.3774 95.5953C29.3774 96.3549 30.0027 96.9587 30.7452 96.9587Z" fill="black"/>
<path d="M30.7647 94.3293C29.9831 94.3293 29.4751 95.011 29.4751 95.6148C29.4751 96.3939 30.159 96.8613 30.7647 96.8613C31.4877 96.8613 32.0152 96.316 32.0152 95.6148C32.0152 94.8552 31.3704 94.3293 30.7647 94.3293ZM30.7647 94.4656C30.1199 94.4656 29.6119 95.011 29.6119 95.6148C29.6119 96.2965 30.159 96.7445 30.7647 96.7445C31.4486 96.7445 31.898 96.238 31.898 95.6148C31.8785 94.9525 31.3704 94.4656 30.7647 94.4656Z" fill="#E0E6E6"/>
<path opacity="0.1" d="M29.1236 92.2256C30.0224 92.2256 30.7649 91.505 30.7649 90.5895C30.7649 89.6741 30.0419 88.9534 29.1236 88.9534C28.2052 88.9534 27.4823 89.6741 27.4823 90.5895C27.4823 91.505 28.2052 92.2256 29.1236 92.2256ZM29.1236 93.0437C27.7754 93.0437 26.6812 91.953 26.6812 90.609C26.6812 89.2651 27.7754 88.1743 29.1236 88.1743C30.4718 88.1743 31.566 89.2651 31.566 90.609C31.566 91.953 30.4718 93.0437 29.1236 93.0437Z" fill="white"/>
<path d="M39.597 100.893H38.9131V100.075H39.597V100.893Z" fill="#222222"/>
<path d="M43.6807 100.757H39.9155C39.8686 100.817 39.806 100.866 39.7337 100.893H39.0499V101.03H38.9131V99.9388H39.0499V100.075H39.7337V100.134C39.7885 100.147 39.8354 100.176 39.8764 100.211H43.6807C43.8175 100.211 43.9543 100.328 43.9543 100.484C43.9543 100.64 43.837 100.757 43.6807 100.757Z" fill="#222222"/>
<path d="M38.6392 107.983V103.055C38.6392 102.919 38.522 102.802 38.3852 102.802H36.4313C36.2945 102.802 36.1772 102.919 36.1772 103.055V107.983C36.1772 108.119 36.2945 108.236 36.4313 108.236H38.3852C38.522 108.217 38.6392 108.119 38.6392 107.983Z" fill="#333333"/>
<path d="M38.6396 106.191V105.918H36.334V106.191H38.6396Z" fill="black"/>
<path d="M38.6396 105.237V104.964H36.334V105.237H38.6396Z" fill="black"/>
<path d="M37.6822 105.918V105.237H37.5454V105.918H37.6822Z" fill="black"/>
<path d="M36.4708 105.918V105.237H36.334V105.918H36.4708Z" fill="black"/>
<path d="M36.8809 105.918V105.237H36.7441V105.918H36.8809Z" fill="black"/>
<path d="M38.6392 93.141V98.0688C38.6392 98.2052 38.522 98.322 38.3852 98.322H36.4313C36.2945 98.322 36.1772 98.2052 36.1772 98.0688V93.141C36.1772 93.0047 36.2945 92.8878 36.4313 92.8878H38.3852C38.522 92.9073 38.6392 93.0047 38.6392 93.141Z" fill="#333333"/>
<path d="M38.6396 94.9329V95.2056H36.334V94.9329H38.6396Z" fill="black"/>
<path d="M38.6396 95.8875V96.1602H36.334V95.8875H38.6396Z" fill="black"/>
<path d="M37.6822 95.2057V95.8875H37.5454V95.2057H37.6822Z" fill="black"/>
<path d="M32.7971 102.685V98.2829C32.7971 98.1465 32.6798 98.0297 32.543 98.0297H30.3155C30.1788 98.0297 30.0615 98.1465 30.0615 98.2829V102.685C30.0615 102.821 30.1788 102.938 30.3155 102.938H32.543C32.6798 102.938 32.7971 102.821 32.7971 102.685Z" fill="url(#paint15_linear_6561_4356)"/>
<path opacity="0.5" d="M30.5499 102.666C30.6672 102.666 30.7453 102.568 30.7453 102.471C30.7453 102.373 30.6476 102.276 30.5499 102.276C30.4327 102.276 30.3546 102.373 30.3546 102.471C30.335 102.568 30.4327 102.666 30.5499 102.666Z" fill="black"/>
<path opacity="0.5" d="M30.5499 98.7312C30.6672 98.7312 30.7453 98.6338 30.7453 98.5364C30.7453 98.4196 30.6476 98.3417 30.5499 98.3417C30.4327 98.3417 30.3546 98.439 30.3546 98.5364C30.335 98.6338 30.4327 98.7312 30.5499 98.7312Z" fill="black"/>
<path opacity="0.2" d="M37.8188 104.691L32.9144 104.555L30.9995 102.646V98.3026L32.9144 96.3938L37.8188 96.2574V104.691Z" fill="black"/>
<path opacity="0.1" d="M31.019 100.504V98.3417L32.9339 96.4329L37.8383 96.2965V100.504H31.019Z" fill="black"/>
<path d="M24.356 45.1682V43.1231H20.8193V45.1682H24.356Z" fill="#222222"/>
<path opacity="0.15" d="M36.0601 9.622V5.55121H27.3455V9.622H36.0601ZM34.4188 14.5108L35.7866 10.9854H31.7028V14.5108H34.4188ZM32.5235 19.9256L33.8912 15.8548H28.9868V19.9256H32.5235ZM31.0189 15.4652V14.2966C31.3511 13.8681 31.566 13.3422 31.566 12.7579C31.566 12.1735 31.3706 11.6476 31.0189 11.2191V10.0505H26.9352V11.6476C26.7593 11.9788 26.6616 12.3683 26.6616 12.7773C26.6616 13.1864 26.7593 13.5564 26.9352 13.907V15.5042H31.0189V15.4652ZM31.0189 35.3906V34.222C31.3511 33.813 31.566 33.2676 31.566 32.6833C31.566 32.0989 31.3706 31.5731 31.0189 31.1446V29.9759H26.9352V31.5731C26.7593 31.9042 26.6616 32.2937 26.6616 32.7028C26.6616 33.1118 26.7593 33.4819 26.9352 33.8324V35.4296H31.0189V35.3906ZM34.3406 25.4961H27.365V29.5669H36.0797V25.5156L34.3406 25.4961ZM32.5235 39.8705L33.8912 35.7997H28.9868V39.8705H32.5235ZM34.4188 34.4557L35.7866 30.9303H31.7028V34.4557H34.4188ZM40.4174 40.9612H24.356V4.34361H40.4174V40.9612Z" fill="url(#paint16_linear_6561_4356)"/>
<path opacity="0.1" d="M36.0602 29.5667H34.6533L36.0602 25.8659V29.5667Z" fill="black"/>
<path opacity="0.1" d="M24.766 41.0974V3.93447H21.5029V41.0974H24.766Z" fill="url(#paint17_linear_6561_4356)"/>
<path opacity="0.1" d="M45.5761 41.0974V3.93447H42.313V41.0974H45.5761Z" fill="url(#paint18_linear_6561_4356)"/>
<path d="M25.3037 72.2611V70.5276H26.9353L26.525 74.5984H25.4308L25.21 72.4033C25.2627 72.3819 25.3037 72.3312 25.3037 72.2611Z" fill="black"/>
<path d="M41.7655 41.896V3.36963H40.9448V41.896H41.7655Z" fill="#E0E6E6"/>
<path d="M42.4496 41.896V3.36963H41.6289V41.896H42.4496Z" fill="url(#paint19_linear_6561_4356)"/>
<path d="M41.0819 41.896V3.36963H40.2612V41.896H41.0819Z" fill="url(#paint20_linear_6561_4356)"/>
<path opacity="0.1" d="M46.2599 45.1682H40.2808V40.7468L46.2599 43.2594V45.1682Z" fill="white"/>
<path opacity="0.1" d="M24.9031 0.136157H20.8193L24.9031 4.61597V0.136157Z" fill="black"/>
<path opacity="0.1" d="M46.2599 0.136237H40.2808V4.55762L46.2599 2.04502V0.136237Z" fill="white"/>
<path d="M44.7749 22.6522C44.7749 23.1001 44.4036 23.4702 43.9542 23.4702H40.2808V21.8341H43.9542C44.4036 21.8341 44.7749 22.2042 44.7749 22.6522Z" fill="#444444"/>
<path opacity="0.1" d="M29.1236 34.3193C30.0224 34.3193 30.7649 33.5987 30.7649 32.6832C30.7649 31.7678 30.0419 31.0471 29.1236 31.0471C28.2052 31.0471 27.4823 31.7678 27.4823 32.6832C27.4823 33.5987 28.2052 34.3193 29.1236 34.3193ZM29.1236 35.1179C27.7754 35.1179 26.6812 34.0272 26.6812 32.6832C26.6812 31.3393 27.7754 30.2486 29.1236 30.2486C30.4718 30.2486 31.566 31.3393 31.566 32.6832C31.566 34.0272 30.4718 35.1179 29.1236 35.1179Z" fill="white"/>
<path opacity="0.6" d="M30.7452 39.0522C31.5072 39.0522 32.113 38.4484 32.113 37.6888C32.113 36.9292 31.5072 36.3254 30.7452 36.3254C29.9832 36.3254 29.3774 36.9292 29.3774 37.6888C29.3774 38.4484 30.0027 39.0522 30.7452 39.0522Z" fill="black"/>
<path d="M30.7647 36.4228C29.9831 36.4228 29.4751 37.1045 29.4751 37.7083C29.4751 38.4874 30.159 38.9548 30.7647 38.9548C31.4877 38.9548 32.0152 38.4095 32.0152 37.7083C32.0152 36.9292 31.3704 36.4228 30.7647 36.4228ZM30.7647 36.5591C30.1199 36.5591 29.6119 37.1045 29.6119 37.7083C29.6119 38.39 30.159 38.838 30.7647 38.838C31.4486 38.838 31.898 38.3316 31.898 37.7083C31.8785 37.046 31.3704 36.5591 30.7647 36.5591Z" fill="#E0E6E6"/>
<path opacity="0.6" d="M34.419 8.94019C35.1811 8.94019 35.7868 8.33639 35.7868 7.57676C35.7868 6.81714 35.1811 6.21334 34.419 6.21334C33.657 6.21334 33.0513 6.81714 33.0513 7.57676C33.0513 8.33639 33.6765 8.94019 34.419 8.94019Z" fill="black"/>
<path d="M34.4385 6.33024C33.657 6.33024 33.1489 7.01194 33.1489 7.61574C33.1489 8.39484 33.8328 8.8623 34.4385 8.8623C35.1615 8.8623 35.6891 8.31693 35.6891 7.61574C35.7086 6.83665 35.0443 6.33024 34.4385 6.33024ZM34.4385 6.4471C33.7937 6.4471 33.2857 6.99247 33.2857 7.59627C33.2857 8.27798 33.8328 8.72596 34.4385 8.72596C35.1224 8.72596 35.5718 8.21955 35.5718 7.59627C35.5523 6.93404 35.0443 6.4471 34.4385 6.4471Z" fill="#E0E6E6"/>
<path opacity="0.6" d="M34.419 28.885C35.1811 28.885 35.7868 28.2812 35.7868 27.5216C35.7868 26.762 35.1811 26.1582 34.419 26.1582C33.657 26.1582 33.0513 26.762 33.0513 27.5216C33.0513 28.2812 33.6765 28.885 34.419 28.885Z" fill="black"/>
<path d="M34.4385 26.2555C33.657 26.2555 33.1489 26.9372 33.1489 27.541C33.1489 28.3201 33.8328 28.7876 34.4385 28.7876C35.1615 28.7876 35.6891 28.2422 35.6891 27.541C35.7086 26.7619 35.0443 26.2555 34.4385 26.2555ZM34.4385 26.3919C33.7937 26.3919 33.2857 26.9372 33.2857 27.541C33.2857 28.2228 33.8328 28.6707 34.4385 28.6707C35.1224 28.6707 35.5718 28.1643 35.5718 27.541C35.5523 26.8593 35.0443 26.3919 34.4385 26.3919Z" fill="#E0E6E6"/>
<path opacity="0.6" d="M30.7452 19.127C31.5072 19.127 32.113 18.5232 32.113 17.7635C32.113 17.0039 31.5072 16.4001 30.7452 16.4001C29.9832 16.4001 29.3774 17.0039 29.3774 17.7635C29.3774 18.5232 30.0027 19.127 30.7452 19.127Z" fill="black"/>
<path d="M30.7647 16.4975C29.9831 16.4975 29.4751 17.1792 29.4751 17.783C29.4751 18.5621 30.159 19.0295 30.7647 19.0295C31.4877 19.0295 32.0152 18.4842 32.0152 17.783C32.0152 17.0039 31.3704 16.4975 30.7647 16.4975ZM30.7647 16.6338C30.1199 16.6338 29.6119 17.1792 29.6119 17.783C29.6119 18.4647 30.159 18.9127 30.7647 18.9127C31.4486 18.9127 31.898 18.4063 31.898 17.783C31.8785 17.1013 31.3704 16.6338 30.7647 16.6338Z" fill="#E0E6E6"/>
<path opacity="0.1" d="M29.1236 14.3746C30.0224 14.3746 30.7649 13.6539 30.7649 12.7385C30.7649 11.823 30.0419 11.1024 29.1236 11.1024C28.2052 11.1024 27.4823 11.823 27.4823 12.7385C27.4823 13.6539 28.2052 14.3746 29.1236 14.3746ZM29.1236 15.1926C27.7754 15.1926 26.6812 14.1019 26.6812 12.7579C26.6812 11.414 27.7754 10.3233 29.1236 10.3233C30.4718 10.3233 31.566 11.414 31.566 12.7579C31.566 14.1019 30.4718 15.1926 29.1236 15.1926Z" fill="white"/>
<path d="M39.597 23.0613H38.9131V22.2432H39.597V23.0613Z" fill="#222222"/>
<path d="M43.6807 22.9251H40.1441H39.8959C39.851 22.9757 39.7963 23.0186 39.7337 23.0419V23.0614H39.0499V23.1978H38.9131V22.107H39.0499V22.2434H39.7337V22.2823C39.7943 22.2979 39.8471 22.3349 39.892 22.3797H40.2809H43.6807C43.8175 22.3797 43.9543 22.4966 43.9543 22.6524C43.9543 22.8082 43.837 22.9251 43.6807 22.9251Z" fill="#222222"/>
<path d="M38.6392 30.1316V25.2038C38.6392 25.0674 38.522 24.9506 38.3852 24.9506H36.4313C36.2945 24.9506 36.1772 25.0674 36.1772 25.2038V30.1316C36.1772 30.2679 36.2945 30.3848 36.4313 30.3848H38.3852C38.522 30.3848 38.6392 30.2679 38.6392 30.1316Z" fill="#333333"/>
<path d="M38.6396 28.3396V28.0669H36.334V28.3396H38.6396Z" fill="black"/>
<path d="M38.6396 27.3853V27.1126H36.334V27.3853H38.6396Z" fill="black"/>
<path d="M37.6822 28.0669V27.3852H37.5454V28.0669H37.6822Z" fill="black"/>
<path d="M38.6392 15.2897V20.2175C38.6392 20.3538 38.522 20.4707 38.3852 20.4707H36.4313C36.2945 20.4707 36.1772 20.3538 36.1772 20.2175V15.2897C36.1772 15.1534 36.2945 15.0365 36.4313 15.0365H38.3852C38.522 15.056 38.6392 15.1534 38.6392 15.2897Z" fill="#333333"/>
<path d="M38.6396 17.0816V17.3542H36.334V17.0816H38.6396Z" fill="black"/>
<path d="M38.6396 18.0361V18.3088H36.334V18.0361H38.6396Z" fill="black"/>
<path d="M37.6822 17.3547V18.0364H37.5454V17.3547H37.6822Z" fill="black"/>
<path d="M36.4708 17.3547V18.0364H36.334V17.3547H36.4708Z" fill="black"/>
<path d="M36.8809 17.3547V18.0364H36.7441V17.3547H36.8809Z" fill="black"/>
<path d="M32.7971 24.8532V20.4513C32.7971 20.315 32.6798 20.1981 32.543 20.1981H30.3155C30.1788 20.1981 30.0615 20.315 30.0615 20.4513V24.8532C30.0615 24.9896 30.1788 25.1064 30.3155 25.1064H32.543C32.6798 25.087 32.7971 24.9701 32.7971 24.8532Z" fill="url(#paint21_linear_6561_4356)"/>
<path opacity="0.2" d="M37.8188 26.8594L32.9144 26.723L30.9995 24.8142V20.4708L32.9144 18.562L37.8188 18.4256V26.8594Z" fill="black"/>
<path opacity="0.1" d="M31.019 22.6521V20.4706L32.9339 18.5618L37.8383 18.4255V22.6326H31.019V22.6521Z" fill="black"/>
<path d="M38.9131 101.302V99.6661H37.8188V101.302H38.9131Z" fill="#E0E6E6"/>
<path d="M92.666 62.3862V60.7501H91.5718V62.3862H92.666Z" fill="#E0E6E6"/>
<path d="M38.9131 23.4509V21.8148H37.8188V23.4509H38.9131Z" fill="#E0E6E6"/>
<path d="M37.154 98.0493V89.226H35.5127V98.0493H37.154Z" fill="url(#paint22_linear_6561_4356)"/>
<path d="M38.0923 101.166V99.257L37.5452 97.2119L36.3142 96.5301L29.9248 99.3738V101.146H38.0923V101.166Z" fill="#333333"/>
<path d="M35.1025 86.7916V81.5133L34.6922 81.1042H29.3774L29.1039 81.3769L34.829 87.0643L35.1025 86.7916ZM40.6908 79.1954V80.9679L36.4703 92.4985L24.7661 81.1042V79.1954H40.6908Z" fill="#333333"/>
<path d="M40.007 74.5984L40.4173 70.5276H38.5024L38.9128 74.5984H40.007Z" fill="black"/>
<path d="M38.8737 71.8718L38.5024 70.5084H40.4173L40.0461 71.8718H38.8737Z" fill="#E0E6E6"/>
<path d="M40.2805 79.1951V74.9879H38.6392V79.1951H40.2805Z" fill="black"/>
<path d="M40.5348 79.1951V72.6896H40.2612V79.1951H40.5348Z" fill="#333333"/>
<path d="M38.6393 79.1951V72.6896H38.3657V79.1951H38.6393Z" fill="#333333"/>
<path d="M40.2805 74.8516V74.4425H38.6392V74.8516H40.2805Z" fill="#222222"/>
<path d="M39.87 73.917V70.9369H39.0493V73.917H39.87Z" fill="#E0E6E6"/>
<path d="M26.7985 79.1951V74.9879H25.1768V79.1951H26.7985Z" fill="black"/>
<path d="M27.0719 79.1951V72.6896H26.7983V79.1951H27.0719Z" fill="#333333"/>
<path d="M25.1769 79.1951V72.6896H24.9033V79.1951H25.1769Z" fill="#333333"/>
<path d="M26.7985 74.8516V74.4425H25.1768V74.8516H26.7985Z" fill="#222222"/>
<path d="M26.388 73.917V70.9369H25.5674V73.917H26.388Z" fill="#E0E6E6"/>
<path d="M37.154 25.0869V33.9102H35.5127V25.0869H37.154Z" fill="url(#paint23_linear_6561_4356)"/>
<path d="M38.0923 21.9703V23.8791L37.5452 25.9242L36.3142 26.606L29.9248 23.7623V21.9898H38.0923V21.9703Z" fill="#333333"/>
<path d="M35.1025 36.3448V41.6232L34.6922 42.0322H29.3774L29.1039 41.7595L34.829 36.0721L35.1025 36.3448ZM40.6908 43.941V42.188L36.4703 30.6574L24.7661 42.0517V43.9604H40.6908V43.941Z" fill="#333333"/>
<path d="M40.007 48.5571L40.4173 52.6279H38.5024L38.9128 48.5571H40.007Z" fill="black"/>
<path d="M38.8737 51.2645L38.5024 52.6279H40.4173L40.0461 51.2645H38.8737Z" fill="#E0E6E6"/>
<path d="M40.2805 43.9413V48.1484H38.6392V43.9413H40.2805Z" fill="black"/>
<path d="M40.5348 43.9411V50.4465H40.2612V43.9411H40.5348Z" fill="#333333"/>
<path d="M38.6393 43.9411V50.4465H38.3657V43.9411H38.6393Z" fill="#333333"/>
<path d="M40.2805 48.2846V48.6936H38.6392V48.2846H40.2805Z" fill="#222222"/>
<path d="M39.87 49.2195V52.219H39.0493V49.2389H39.87V49.2195Z" fill="#E0E6E6"/>
<path d="M26.7985 43.9413V48.1484H25.1768V43.9413H26.7985Z" fill="black"/>
<path d="M27.0719 43.9411V50.4465H26.7983V43.9411H27.0719Z" fill="#333333"/>
<path d="M25.1769 43.9411V50.4465H24.9033V43.9411H25.1769Z" fill="#333333"/>
<path d="M26.7985 48.2846V48.6936H25.1768V48.2846H26.7985Z" fill="#222222"/>
<path d="M26.388 49.2195V52.219H25.5674V49.2389H26.388V49.2195Z" fill="#E0E6E6"/>
<path opacity="0.49" d="M28.5767 70.5276H53.6263V68.6188H28.5767V70.5276Z" fill="black"/>
<path opacity="0.2" d="M53.6067 68.6189V54.5172H33.4614V68.6189H53.6067Z" fill="url(#paint24_linear_6561_4356)"/>
<path opacity="0.1" d="M75.1002 70.5276V52.6278H73.7324V70.5276H75.1002Z" fill="black"/>
<path d="M25.04 79.1951V77.8316H23.9458V79.1951H25.04Z" fill="#1B1B1B"/>
<path d="M25.04 77.7151V76.897H23.9458V77.7151H25.04Z" fill="#1B1B1B"/>
<path d="M25.04 65.5027V64.6846H23.9458V65.5027H25.04Z" fill="#1B1B1B"/>
<path d="M24.7663 81.2402V78.2602H24.2192V81.2402H24.7663Z" fill="#333333"/>
<path d="M24.7663 77.4424V72.4172H24.2192V77.4424H24.7663Z" fill="#333333"/>
<path d="M24.9032 77.8513V77.715H24.0825V77.8513H24.9032Z" fill="black"/>
<path d="M25.3131 70.3914V65.8142C25.3131 65.7168 25.235 65.6583 25.1568 65.6583H23.8477C23.75 65.6583 23.6913 65.7363 23.6913 65.8142V70.3914H22.6948L23.2419 65.5025L23.5155 61.7044H25.2936L25.5671 65.5025L26.1142 70.3914H25.3131Z" fill="#E0E6E6"/>
<path d="M25.04 43.9413V45.3047H23.9458V43.9413H25.04Z" fill="#1B1B1B"/>
<path d="M25.04 45.4212V46.2393H23.9458V45.4212H25.04Z" fill="#1B1B1B"/>
<path d="M25.04 57.6338V58.4519H23.9458V57.6338H25.04Z" fill="#1B1B1B"/>
<path d="M24.7663 41.8962V44.8762H24.2192V41.8962H24.7663Z" fill="#333333"/>
<path d="M24.7663 45.6941V50.7192H24.2192V45.6941H24.7663Z" fill="#333333"/>
<path d="M24.9032 45.285V45.4214H24.0825V45.285H24.9032Z" fill="black"/>
<path d="M23.6913 57.3221C23.6913 57.4001 23.75 57.478 23.8477 57.478H25.1568C25.235 57.478 25.3131 57.4195 25.3131 57.3221V52.7449H26.1142L25.5671 57.6338L25.2936 61.4319H23.5155L23.2419 57.6338L22.6948 52.7449H23.6913V57.3221Z" fill="#E0E6E6"/>
<path d="M24.7663 64.9573V58.1791H24.2192V64.9573H24.7663Z" fill="#333333"/>
<path d="M80.4148 68.4827V67.801H75.2368V68.4827H80.4148Z" fill="#121212"/>
<path d="M80.4148 55.3354V54.6537H75.2368V55.3354H80.4148Z" fill="#121212"/>
<path d="M25.3135 52.6279V50.875C25.3135 50.8146 25.2686 50.7561 25.2119 50.7328L25.4308 48.5571H26.525L26.9353 52.6279H25.3135Z" fill="black"/>
<path d="M76.0577 67.0024L78.3633 66.4571V65.7754L75.9209 65.23L76.0577 67.0024Z" fill="#121212"/>
<path d="M79.5945 66.5738V65.7947C79.5945 65.6389 79.4577 65.5025 79.3014 65.5025H78.1095C77.9532 65.5025 77.8164 65.6194 77.8164 65.7947V66.5738C77.8164 66.7296 77.9336 66.866 78.1095 66.866H79.3014C79.4773 66.866 79.5945 66.7296 79.5945 66.5738Z" fill="url(#paint25_linear_6561_4356)"/>
<path d="M76.0577 57.6338L78.3633 57.0884V56.4067L75.9209 55.8613L76.0577 57.6338Z" fill="#121212"/>
<path d="M79.5945 57.2247V56.4456C79.5945 56.2898 79.4577 56.1534 79.3014 56.1534H78.1095C77.9532 56.1534 77.8164 56.2703 77.8164 56.4456V57.2247C77.8164 57.3805 77.9336 57.5168 78.1095 57.5168H79.3014C79.4773 57.4974 79.5945 57.3805 79.5945 57.2247Z" fill="url(#paint26_linear_6561_4356)"/>
<path d="M76.3312 68.7551V54.3808H74.8267V68.7551H76.3312Z" fill="#333333"/>
<path d="M79.5942 65.3468H81.0988C81.0988 65.3468 81.9194 65.4052 81.9194 64.6651V58.3349C81.9194 57.5948 81.0988 57.6532 81.0988 57.6532H79.5942V56.0366H81.2356C81.2356 56.0366 82.0562 55.9003 82.0562 55.238V55.1796H83.5412V58.6466L87.4882 60.7501H92.6662V62.3862H87.4882L83.5412 64.4898V67.9568H82.0758C82.0562 67.8984 82.0367 67.8399 82.0367 67.7815C82.0367 67.1193 81.216 66.9829 81.216 66.9829H79.5747L79.5942 65.3468Z" fill="#333333"/>
<path d="M74.5728 84.084V82.0583H76.4192L74.5728 84.084Z" fill="#222222"/>
<path d="M20.8193 123V120.974H22.6658L20.8193 123Z" fill="#222222"/>
<path d="M16.5207 81.3574H2.51082C1.27983 81.3574 0.263771 80.4809 0.0292969 79.3318V73.3522H0.0332048C0.255955 72.1933 1.28569 71.3265 2.51082 71.3265H8.15774V69.5736H10.8698V71.3265H16.5207C17.7516 71.3265 18.7677 72.203 19.0022 73.3522V79.3318C18.7872 80.4809 17.7516 81.3574 16.5207 81.3574Z" fill="black"/>
<path d="M16.5207 51.81H10.8933V53.563H8.14797V51.81H2.51082C1.27983 51.81 0.263771 50.9335 0.0292969 49.7649V43.8048C0.244232 42.6361 1.27983 41.7597 2.51082 41.7597H16.5207C17.7516 41.7597 18.7677 42.6361 19.0022 43.8048V49.7649C18.7872 50.9335 17.7516 51.81 16.5207 51.81Z" fill="black"/>
<path d="M25.04 64.6846V65.5027H23.9458V64.6846H25.04Z" fill="#1B1B1B"/>
<path d="M23.6916 70.5276H22.187V68.8915H23.6916V70.5276Z" fill="#D5DDDD"/>
<path opacity="0.49" d="M48.6437 54.5173H47.9345H28.5767V52.6085H47.9345H48.1943H53.6263V54.5173H48.6437Z" fill="black"/>
<path d="M28.5766 70.5276H25.3135V68.8915H28.5766V70.5276Z" fill="#D5DDDD"/>
<path d="M25.3037 70.5084H26.9353L26.564 71.8718H25.3916L25.3037 71.5485V70.5084Z" fill="#E0E6E6"/>
<path d="M25.0498 57.6338V58.4519H23.9556V57.6338H25.0498Z" fill="#1B1B1B"/>
<path d="M25.3037 52.6279V51.5878L25.3916 51.2645H26.564L26.9353 52.6279H25.3037Z" fill="#E0E6E6"/>
<path d="M23.6818 52.6088H22.187V54.2449H23.6818V52.6088ZM25.3036 54.2449V52.6088H28.9868V54.2449H25.3036Z" fill="#D5DDDD"/>
<path opacity="0.1" d="M25.3132 65.8144V72.2614C25.3132 72.3588 25.235 72.4172 25.1569 72.4172H23.8477C23.75 72.4172 23.6914 72.3393 23.6914 72.2614V65.8144C23.6914 65.717 23.7696 65.6586 23.8477 65.6586H25.1569C25.235 65.6586 25.3132 65.7365 25.3132 65.8144Z" fill="url(#paint27_linear_6561_4356)"/>
<path opacity="0.1" d="M25.3039 50.8749V57.322C25.3039 57.4193 25.2258 57.4778 25.1476 57.4778H23.8384C23.7407 57.4778 23.6821 57.3999 23.6821 57.322V50.8749C23.6821 50.7775 23.7603 50.7191 23.8384 50.7191H25.1476C25.2258 50.7191 25.3039 50.797 25.3039 50.8749Z" fill="url(#paint28_linear_6561_4356)"/>
<path d="M26.3978 52.2092V49.2292H25.5771V52.2092H26.3978Z" fill="#E0E6E6"/>
</g>
<defs>
<linearGradient id="paint0_linear_6561_4356" x1="74.2283" y1="76.6092" x2="50.0013" y2="76.6092" gradientUnits="userSpaceOnUse">
<stop/>
<stop offset="0.3" stop-opacity="0"/>
<stop offset="0.6" stop-opacity="0"/>
<stop offset="1"/>
</linearGradient>
<linearGradient id="paint1_linear_6561_4356" x1="62.1148" y1="70.3826" x2="62.1148" y2="79.4918" gradientUnits="userSpaceOnUse">
<stop/>
<stop offset="1" stop-opacity="0"/>
</linearGradient>
<linearGradient id="paint2_linear_6561_4356" x1="84546.9" y1="46.6293" x2="84571.1" y2="46.6293" gradientUnits="userSpaceOnUse">
<stop/>
<stop offset="0.3" stop-opacity="0"/>
<stop offset="0.6" stop-opacity="0"/>
<stop offset="1"/>
</linearGradient>
<linearGradient id="paint3_linear_6561_4356" x1="62.1148" y1="52.7405" x2="62.1148" y2="43.7466" gradientUnits="userSpaceOnUse">
<stop/>
<stop offset="1" stop-opacity="0"/>
</linearGradient>
<linearGradient id="paint4_linear_6561_4356" x1="93.1689" y1="62.0322" x2="77.1074" y2="62.0322" gradientUnits="userSpaceOnUse">
<stop/>
<stop offset="1" stop-opacity="0.5"/>
</linearGradient>
<linearGradient id="paint5_linear_6561_4356" x1="77.471" y1="61.0327" x2="74.204" y2="61.0327" gradientUnits="userSpaceOnUse">
<stop/>
<stop offset="0.49" stop-color="white"/>
<stop offset="1"/>
</linearGradient>
<linearGradient id="paint6_linear_6561_4356" x1="98.2962" y1="-31530.2" x2="95.0292" y2="-31530.2" gradientUnits="userSpaceOnUse">
<stop/>
<stop offset="0.49" stop-color="white"/>
<stop offset="1"/>
</linearGradient>
<linearGradient id="paint7_linear_6561_4356" x1="95.9877" y1="62.1875" x2="95.3098" y2="62.1875" gradientUnits="userSpaceOnUse">
<stop stop-color="#CAD5D5"/>
<stop offset="0.49" stop-color="#E0E6E6"/>
<stop offset="1" stop-color="#CAD5D5"/>
</linearGradient>
<linearGradient id="paint8_linear_6561_4356" x1="94.6274" y1="-32691" x2="93.9495" y2="-32691" gradientUnits="userSpaceOnUse">
<stop stop-color="#CAD5D5"/>
<stop offset="0.49" stop-color="#E0E6E6"/>
<stop offset="1" stop-color="#CAD5D5"/>
</linearGradient>
<linearGradient id="paint9_linear_6561_4356" x1="87.8079" y1="61.1112" x2="85.1132" y2="61.1112" gradientUnits="userSpaceOnUse">
<stop/>
<stop offset="1" stop-color="#333333"/>
</linearGradient>
<linearGradient id="paint10_linear_6561_4356" x1="39.4037" y1="100.962" x2="23.3422" y2="100.962" gradientUnits="userSpaceOnUse">
<stop/>
<stop offset="1" stop-opacity="0.5"/>
</linearGradient>
<linearGradient id="paint11_linear_6561_4356" x1="23.6741" y1="99.966" x2="20.4071" y2="99.966" gradientUnits="userSpaceOnUse">
<stop/>
<stop offset="0.49" stop-color="white"/>
<stop offset="1"/>
</linearGradient>
<linearGradient id="paint12_linear_6561_4356" x1="44.4691" y1="99.966" x2="41.202" y2="99.966" gradientUnits="userSpaceOnUse">
<stop/>
<stop offset="0.49" stop-color="white"/>
<stop offset="1"/>
</linearGradient>
<linearGradient id="paint13_linear_6561_4356" x1="42.2405" y1="101.136" x2="41.5626" y2="101.136" gradientUnits="userSpaceOnUse">
<stop stop-color="#CAD5D5"/>
<stop offset="0.49" stop-color="#E0E6E6"/>
<stop offset="1" stop-color="#CAD5D5"/>
</linearGradient>
<linearGradient id="paint14_linear_6561_4356" x1="40.8188" y1="101.136" x2="40.1409" y2="101.136" gradientUnits="userSpaceOnUse">
<stop stop-color="#CAD5D5"/>
<stop offset="0.49" stop-color="#E0E6E6"/>
<stop offset="1" stop-color="#CAD5D5"/>
</linearGradient>
<linearGradient id="paint15_linear_6561_4356" x1="33.9996" y1="100.046" x2="31.2778" y2="100.046" gradientUnits="userSpaceOnUse">
<stop/>
<stop offset="1" stop-color="#333333"/>
</linearGradient>
<linearGradient id="paint16_linear_6561_4356" x1="39.4037" y1="23.1009" x2="23.3422" y2="23.1009" gradientUnits="userSpaceOnUse">
<stop/>
<stop offset="1" stop-opacity="0.5"/>
</linearGradient>
<linearGradient id="paint17_linear_6561_4356" x1="23.6741" y1="22.1147" x2="20.4071" y2="22.1147" gradientUnits="userSpaceOnUse">
<stop/>
<stop offset="0.49" stop-color="white"/>
<stop offset="1"/>
</linearGradient>
<linearGradient id="paint18_linear_6561_4356" x1="44.4691" y1="22.1147" x2="41.202" y2="22.1147" gradientUnits="userSpaceOnUse">
<stop/>
<stop offset="0.49" stop-color="white"/>
<stop offset="1"/>
</linearGradient>
<linearGradient id="paint19_linear_6561_4356" x1="42.2405" y1="23.2756" x2="41.5626" y2="23.2756" gradientUnits="userSpaceOnUse">
<stop stop-color="#CAD5D5"/>
<stop offset="0.49" stop-color="#E0E6E6"/>
<stop offset="1" stop-color="#CAD5D5"/>
</linearGradient>
<linearGradient id="paint20_linear_6561_4356" x1="40.8188" y1="23.2756" x2="40.1409" y2="23.2756" gradientUnits="userSpaceOnUse">
<stop stop-color="#CAD5D5"/>
<stop offset="0.49" stop-color="#E0E6E6"/>
<stop offset="1" stop-color="#CAD5D5"/>
</linearGradient>
<linearGradient id="paint21_linear_6561_4356" x1="33.9996" y1="22.2265" x2="31.2778" y2="22.2265" gradientUnits="userSpaceOnUse">
<stop/>
<stop offset="1" stop-color="#333333"/>
</linearGradient>
<linearGradient id="paint22_linear_6561_4356" x1="35.8437" y1="97.5971" x2="35.8437" y2="91.0722" gradientUnits="userSpaceOnUse">
<stop/>
<stop offset="0.44" stop-color="#333333"/>
<stop offset="0.61" stop-color="#333333"/>
<stop offset="1"/>
</linearGradient>
<linearGradient id="paint23_linear_6561_4356" x1="5113.34" y1="25.4075" x2="5115.82" y2="25.7477" gradientUnits="userSpaceOnUse">
<stop/>
<stop offset="0.44" stop-color="#333333"/>
<stop offset="0.61" stop-color="#333333"/>
<stop offset="1"/>
</linearGradient>
<linearGradient id="paint24_linear_6561_4356" x1="51.3194" y1="61.1405" x2="31.1741" y2="61.1405" gradientUnits="userSpaceOnUse">
<stop/>
<stop offset="1" stop-opacity="0"/>
</linearGradient>
<linearGradient id="paint25_linear_6561_4356" x1="77.0199" y1="65.5457" x2="75.2496" y2="65.5457" gradientUnits="userSpaceOnUse">
<stop stop-color="#121212"/>
<stop offset="1" stop-color="#333333"/>
</linearGradient>
<linearGradient id="paint26_linear_6561_4356" x1="5634.13" y1="56.1985" x2="5635.9" y2="56.1985" gradientUnits="userSpaceOnUse">
<stop stop-color="#121212"/>
<stop offset="1" stop-color="#333333"/>
</linearGradient>
<linearGradient id="paint27_linear_6561_4356" x1="24.8177" y1="68.4617" x2="23.1842" y2="68.4617" gradientUnits="userSpaceOnUse">
<stop/>
<stop offset="0.5" stop-color="white"/>
<stop offset="1"/>
</linearGradient>
<linearGradient id="paint28_linear_6561_4356" x1="24.8018" y1="53.5409" x2="23.1683" y2="53.5409" gradientUnits="userSpaceOnUse">
<stop/>
<stop offset="0.5" stop-color="white"/>
<stop offset="1"/>
</linearGradient>
<clipPath id="clip0_6561_4356">
<rect width="100" height="123" fill="white" transform="matrix(1 0 0 -1 0 123)"/>
</clipPath>
</defs>
</svg>
