<svg width="100" height="56" viewBox="0 0 100 56" fill="none" xmlns="http://www.w3.org/2000/svg">
<path d="M91.8806 50.9289V44.9971L90.9489 44.0749C91.0792 43.9573 91.2137 43.8356 91.3515 43.7102L92.1896 44.4659C92.2693 44.5378 92.3911 44.5381 92.4712 44.4665L100 37.7381V36.336L99.606 35.6615V20.1312L100 19.4566V18.0546L92.4712 11.3261C92.3911 11.2546 92.2693 11.2548 92.1896 11.3267L91.196 12.2227C91.0993 12.1337 91.0044 12.0468 90.9117 11.962L91.8806 11.003V5.07114L90.791 3.99263H76.6265L75.5369 5.07114V7.88729C74.0816 7.8197 72.7001 7.76253 71.6606 7.72596H22.1058V7.31115H21.2677V6.62669L20.1781 5.54819H6.01361L4.92404 6.62669V7.31115H0.838135V8.14078H0.419068V16.3334H0V21.726H0.419068V34.3778H0V39.7704H0.419068V47.2371H0.838135V48.7408L3.05052 50.2445H5.64692L6.01361 50.6074H20.1781L20.5448 50.2445H23.714L25.6679 48.7408V48.326H71.6606C72.7001 48.2894 74.0816 48.2323 75.5369 48.1647V50.9289L76.6265 52.0074H90.791L91.8806 50.9289Z" fill="black"/>
<path d="M75.0957 46.1482C75.9181 46.1374 77.0251 46.1014 78.2063 46.0412C78.1883 45.9185 78.2019 45.7445 78.2402 45.5573C78.2814 45.3553 78.3535 45.1267 78.4574 44.911C78.661 44.4879 79.0083 44.0741 79.5178 44.0741C80.1152 44.0741 81.0129 44.0191 81.9062 43.9172C82.8011 43.8151 83.6829 43.6669 84.2521 43.4829C85.4462 43.097 86.6573 42.1511 88.2249 40.9243L88.2794 40.8816C89.1416 40.2069 90.0893 39.4659 90.9188 38.8937C91.3335 38.6076 91.7211 38.3621 92.0555 38.1876C92.385 38.0157 92.6794 37.9037 92.9018 37.9037C93.8385 37.9038 94.3569 38.4077 94.3682 38.8734C94.6808 38.6423 95.1103 37.8965 95.2592 37.5174C95.4419 37.0525 96.5342 33.162 96.5425 28.6248C96.5342 24.0876 95.4419 19.0045 95.2592 18.5396C95.1103 18.1606 94.6809 17.4149 94.3683 17.1837C94.3533 17.6479 93.8353 18.1482 92.9021 18.1482C92.6796 18.1482 92.3853 18.0362 92.0557 17.8643C91.7213 17.6899 91.3337 17.4443 90.9191 17.1582C90.0895 16.586 89.1419 15.8451 88.2796 15.1703L88.2252 15.1277C86.6576 13.9009 85.4464 12.9549 84.2524 12.569C83.6831 12.385 82.8013 12.2368 81.9064 12.1347C81.0131 12.0328 80.1154 11.9778 79.5181 11.9778C79.0085 11.9778 78.6613 11.564 78.4576 11.1409C78.3538 10.9252 78.2816 10.6966 78.2404 10.4947C78.2027 10.3101 78.189 10.1383 78.2058 10.0159C77.0298 9.956 75.9273 9.91999 75.1062 9.90901L75.0696 12.8313C75.4336 14.7114 76.5845 21.3079 76.5845 29.5581C76.5845 37.6192 75.4856 44.1015 75.0957 46.1482Z" fill="#F05023"/>
<path d="M67.1555 9.22968H42.9543V10.526H67.1555V9.22968Z" fill="url(#paint0_radial_2585_154905)"/>
<path d="M42.6924 44.6963H28.9156L28.8831 44.6961C27.5594 44.6795 26.4821 43.6504 26.4055 42.3552C25.6673 42.2796 25.0916 41.6619 25.0916 40.9112V41.1186C25.0916 41.5768 24.7163 41.9482 24.2534 41.9482H23.6248C23.162 41.9482 22.7867 41.5768 22.7867 41.1186V31.163C22.7867 30.7048 23.162 30.3334 23.6248 30.3334H24.2534C24.7163 30.3334 25.0916 30.7048 25.0916 31.163V31.3704C25.0916 30.6211 25.665 30.0045 26.4012 29.9269V26.177C25.665 26.0994 25.0916 25.4827 25.0916 24.7334V24.9408C25.0916 25.399 24.7163 25.7704 24.2534 25.7704H23.6248C23.162 25.7704 22.7867 25.399 22.7867 24.9408V14.9852C22.7867 14.527 23.162 14.1556 23.6248 14.1556H24.2534C24.7163 14.1556 25.0916 14.527 25.0916 14.9852V15.1926C25.0916 14.4419 25.6673 13.8243 26.4055 13.7486C26.4821 12.4534 27.5593 11.4242 28.8831 11.4077L28.9156 11.4075H42.6924V10.6815H22.4724V45.3704H42.6924V44.6963Z" fill="url(#paint1_radial_2585_154905)"/>
<path d="M67.0507 12.2371H66.515C66.7585 12.5064 66.9436 12.8284 67.0507 13.1838V12.2371Z" fill="url(#paint2_radial_2585_154905)"/>
<path d="M42.6924 12.4445H28.9156C28.1586 12.4445 27.5356 13.0121 27.4572 13.7408H34.9921C35.8021 13.7408 36.4588 14.3908 36.4588 15.1926V24.7334C36.4588 25.5352 35.8021 26.1852 34.9921 26.1852H27.4488V29.9186H34.9921C35.8021 29.9186 36.4588 30.5686 36.4588 31.3704V40.9112C36.4588 41.713 35.8021 42.363 34.9921 42.363H27.4572C27.5356 43.0917 28.1586 43.6593 28.9156 43.6593H42.6924V12.4445Z" fill="url(#paint3_radial_2585_154905)"/>
<path fill-rule="evenodd" clip-rule="evenodd" d="M64.6411 43.6593C65.4511 43.6593 66.1078 43.0093 66.1078 42.2075V24.791C64.5862 24.1306 63.4887 22.2534 63.4887 20.0408C63.4887 17.8282 64.5862 15.9511 66.1078 15.2906V13.8963C66.1078 13.0945 65.4511 12.4445 64.6411 12.4445H43.9496V43.6593H64.6411ZM50.1833 26.1852C49.3732 26.1852 48.7165 25.5352 48.7165 24.7334V24.9408C48.7165 25.399 48.3413 25.7704 47.8784 25.7704H47.2498C46.7869 25.7704 46.4116 25.399 46.4116 24.9408V14.9852C46.4116 14.527 46.7869 14.1556 47.2498 14.1556H47.8784C48.3413 14.1556 48.7165 14.527 48.7165 14.9852V15.1926C48.7165 14.3908 49.3732 13.7408 50.1833 13.7408H58.617C59.427 13.7408 60.0837 14.3908 60.0837 15.1926V24.7334C60.0837 25.5352 59.427 26.1852 58.617 26.1852H50.1833ZM50.1833 42.363C49.3732 42.363 48.7165 41.713 48.7165 40.9112V41.1186C48.7165 41.5768 48.3413 41.9482 47.8784 41.9482H47.2498C46.7869 41.9482 46.4116 41.5768 46.4116 41.1186V31.163C46.4116 30.7048 46.7869 30.3334 47.2498 30.3334H47.8784C48.3413 30.3334 48.7165 30.7048 48.7165 31.163V31.3704C48.7165 30.5686 49.3732 29.9186 50.1833 29.9186H58.617C59.427 29.9186 60.0837 30.5686 60.0837 31.3704V40.9112C60.0837 41.713 59.427 42.363 58.617 42.363H50.1833Z" fill="url(#paint4_radial_2585_154905)"/>
<path d="M66.1078 16.2284C65.8092 16.4157 65.5281 16.6748 65.2771 17.0031C64.7051 17.7517 64.3268 18.8229 64.3268 20.0408C64.3268 21.2587 64.7051 22.3299 65.2771 23.0784C65.5281 23.4068 65.8092 23.6659 66.1078 23.8533V16.2284Z" fill="url(#paint5_radial_2585_154905)"/>
<path d="M67.0507 42.92C66.9436 43.2754 66.7585 43.5974 66.515 43.8667H67.0507V42.92Z" fill="url(#paint6_radial_2585_154905)"/>
<path d="M67.1555 45.5778H42.9543V46.8223H67.1555V45.5778Z" fill="url(#paint7_radial_2585_154905)"/>
<path d="M0.838257 8.14076H0.419189V47.2371H0.838257V8.14076Z" fill="#333333"/>
<path d="M36.8779 7.72595H71.6605V9.1778H70.2986V9.22966H36.8779V7.72595Z" fill="url(#paint8_linear_2585_154905)"/>
<rect x="31.5872" y="7.72595" width="5.29073" height="1.5037" fill="url(#paint9_linear_2585_154905)"/>
<path d="M20.8486 7.72595H21.6868V10.6815H20.8486V7.72595Z" fill="#888888"/>
<path d="M22.1057 7.72595H23.1534V10.6815H22.1057V7.72595Z" fill="#666666"/>
<path d="M23.5725 9.22974H26.9774V10.3186H23.5725V9.22974Z" fill="#555555"/>
<rect x="23.5725" y="7.72595" width="8.01467" height="1.5037" fill="url(#paint10_linear_2585_154905)"/>
<path d="M23.5726 10.3186H26.9776V9.22967H27.3966H42.9545V9.95559H27.3966V10.6815H23.1536V7.72596H23.5726V10.3186Z" fill="#333333"/>
<path d="M27.3965 9.95557H42.9544V10.5259H42.6925V10.6815H27.3965V9.95557Z" fill="#888888"/>
<path d="M22.1058 7.31115H20.8486V7.72596H21.6868V10.6815H22.1058V7.31115Z" fill="#444444"/>
<rect width="34.7826" height="1.5037" transform="matrix(1 0 0 -1 36.8779 48.3259)" fill="url(#paint11_linear_2585_154905)"/>
<rect width="5.29073" height="1.5037" transform="matrix(1 0 0 -1 31.5872 48.3259)" fill="url(#paint12_linear_2585_154905)"/>
<path d="M20.8486 48.3259H21.6868V45.3704H20.8486V48.3259Z" fill="#888888"/>
<path d="M22.1058 48.3259V45.3704H21.6868V48.3259H22.1058Z" fill="#444444"/>
<path d="M22.1057 48.3259H23.1534V45.3704H22.1057V48.3259Z" fill="#666666"/>
<path d="M23.5725 46.8223H26.9774V45.7334H23.5725V46.8223Z" fill="#555555"/>
<rect width="8.01467" height="1.5037" transform="matrix(1 0 0 -1 23.5725 48.3259)" fill="url(#paint13_linear_2585_154905)"/>
<path d="M23.5726 45.7333H26.9776V46.8222H27.3966H42.9545V46.0963H27.3966V45.3704H23.1536V48.3259H23.5726V45.7333Z" fill="#333333"/>
<path d="M27.3965 46.0963H42.9544V45.5778H42.6925V45.3704H27.3965V46.0963Z" fill="#888888"/>
<path d="M21.2677 6.6267L20.1781 5.54819H6.01364L4.92407 6.6267V7.31116H21.2677V6.6267Z" fill="#111111"/>
<path d="M6.55835 5.54819H6.01354L5.7395 7.31116H6.28431L6.55835 5.54819Z" fill="#888888"/>
<path d="M8.26081 5.54819H7.71601L7.44202 7.31116H7.98677L8.26081 5.54819Z" fill="#888888"/>
<path d="M9.96328 5.54819H9.41847L9.14448 7.31116H9.68923L9.96328 5.54819Z" fill="#888888"/>
<path d="M11.6657 5.54819H11.1209L10.8469 7.31116H11.3917L11.6657 5.54819Z" fill="#888888"/>
<path d="M13.3682 5.54819H12.8234L12.5494 7.31116H13.0942L13.3682 5.54819Z" fill="#888888"/>
<path d="M15.0707 5.54819H14.5259L14.2519 7.31116H14.7966L15.0707 5.54819Z" fill="#888888"/>
<path d="M16.7731 5.54819H16.2283L15.9543 7.31116H16.4991L16.7731 5.54819Z" fill="#888888"/>
<path d="M18.4756 5.54819H17.9308L17.6568 7.31116H18.2015L18.4756 5.54819Z" fill="#888888"/>
<path d="M20.178 5.54819H19.6332L19.3593 7.31116H19.904L20.178 5.54819Z" fill="#888888"/>
<path d="M21.2676 6.6267L21.1813 6.54133L21.0617 7.31116H21.2676V6.6267Z" fill="#888888"/>
<path opacity="0.5" d="M21.2677 6.6267L20.1781 5.54819H6.01364L4.92407 6.6267V7.31116H21.2677V6.6267Z" fill="url(#paint14_linear_2585_154905)"/>
<path d="M20.5448 50.2445H5.64697L6.01366 50.6074H20.1782L20.5448 50.2445Z" fill="#111111"/>
<path d="M6.50208 50.2445H5.95728L6.0137 50.6074H6.55851L6.50208 50.2445Z" fill="#888888"/>
<path d="M8.20455 50.2445H7.65974L7.71616 50.6074H8.26097L8.20455 50.2445Z" fill="#888888"/>
<path d="M9.90701 50.2445H9.3622L9.41862 50.6074H9.96343L9.90701 50.2445Z" fill="#888888"/>
<path d="M11.6095 50.2445H11.0647L11.1211 50.6074H11.6659L11.6095 50.2445Z" fill="#888888"/>
<path d="M13.3119 50.2445H12.7671L12.8235 50.6074H13.3684L13.3119 50.2445Z" fill="#888888"/>
<path d="M15.0144 50.2445H14.4696L14.526 50.6074H15.0708L15.0144 50.2445Z" fill="#888888"/>
<path d="M16.7169 50.2445H16.172L16.2285 50.6074H16.7733L16.7169 50.2445Z" fill="#888888"/>
<path d="M18.4193 50.2445H17.8745L17.9309 50.6074H18.4757L18.4193 50.2445Z" fill="#888888"/>
<path d="M20.1218 50.2445H19.577L19.6334 50.6074H20.1782L20.1218 50.2445Z" fill="#888888"/>
<path opacity="0.5" d="M20.1782 50.6074L20.5448 50.2445H5.64697L6.01366 50.6074H20.1782Z" fill="url(#paint15_linear_2585_154905)"/>
<path d="M23.5703 49.8296L24.9851 48.7407H1.57837L3.18041 49.8296H23.5703Z" fill="url(#paint16_linear_2585_154905)"/>
<path d="M1.57846 48.7408H0.838135L3.05052 50.2445H23.714L25.6679 48.7408V48.326H20.8486V48.7408H24.9852L23.5703 49.8297H3.1805L1.57846 48.7408Z" fill="url(#paint17_linear_2585_154905)"/>
<path d="M91.8805 50.9289V44.9971L90.9489 44.0749C90.089 44.8512 89.4126 45.4423 89.1566 45.6297C87.9517 46.5111 85.0183 47.3926 83.4991 47.6519C82.6511 47.7966 78.8971 48.0086 75.5369 48.1647V50.9289L76.6264 52.0074H90.7909L91.8805 50.9289Z" fill="#111111"/>
<path d="M90.7371 44.2659C90.5092 44.4707 90.2968 44.6601 90.1047 44.8295L89.7015 47.4237H90.2463L90.7371 44.2659Z" fill="#888888"/>
<path d="M91.8807 44.9971L91.7944 44.9117L91.404 47.4237H91.8807V44.9971Z" fill="#888888"/>
<path d="M88.7851 45.871C88.6063 45.9759 88.4068 46.0799 88.192 46.182L87.9991 47.4237H88.5438L88.7851 45.871Z" fill="#888888"/>
<path d="M86.9546 46.695C86.7651 46.7645 86.5723 46.8319 86.3785 46.8967L86.2966 47.4237H86.8414L86.9546 46.695Z" fill="#888888"/>
<path d="M85.1632 47.2675C84.9689 47.3212 84.7787 47.3711 84.5952 47.4167L84.5941 47.4237H85.1389L85.1632 47.2675Z" fill="#888888"/>
<path d="M76.6266 48.5023H76.0818L76.6266 52.0074H77.1714L76.6266 48.5023Z" fill="#888888"/>
<path d="M78.3291 48.5023H77.7843L78.3291 52.0074H78.8739L78.3291 48.5023Z" fill="#888888"/>
<path d="M80.0315 48.5023H79.4868L80.0315 52.0074H80.5763L80.0315 48.5023Z" fill="#888888"/>
<path d="M81.734 48.5023H81.1892L81.734 52.0074H82.2788L81.734 48.5023Z" fill="#888888"/>
<path d="M83.4364 48.5023H82.8917L83.4364 52.0074H83.9813L83.4364 48.5023Z" fill="#888888"/>
<path d="M85.1389 48.5023H84.5941L85.1389 52.0074H85.6837L85.1389 48.5023Z" fill="#888888"/>
<path d="M86.8414 48.5023H86.2966L86.8414 52.0074H87.3862L86.8414 48.5023Z" fill="#888888"/>
<path d="M88.5438 48.5023H87.9991L88.5438 52.0074H89.0886L88.5438 48.5023Z" fill="#888888"/>
<path d="M90.2463 48.5023H89.7015L90.2463 52.0074H90.7911L90.2463 48.5023Z" fill="#888888"/>
<path d="M91.8807 50.9289V48.5023H91.404L91.7944 51.0144L91.8807 50.9289Z" fill="#888888"/>
<path opacity="0.5" d="M90.7909 52.0074L91.8805 50.9289V44.9971L90.9489 44.0749C90.089 44.8512 89.4126 45.4423 89.1566 45.6297C87.9517 46.5111 85.0183 47.3926 83.4991 47.6519C82.6511 47.7966 78.8971 48.0086 75.5369 48.1647V50.9289L76.6264 52.0074H90.7909Z" fill="url(#paint18_linear_2585_154905)"/>
<path d="M91.8805 11.003V5.07116L90.7909 3.99265H76.6264L75.5369 5.07116V7.88731C78.8971 8.04337 82.6511 8.25533 83.4991 8.40006C85.0183 8.65932 87.9517 9.5408 89.1566 10.4223C89.4109 10.6084 90.071 11.1932 90.9117 11.962L91.8805 11.003Z" fill="#111111"/>
<path d="M77.1714 3.99258H76.6266L76.0818 7.49774H76.6266L77.1714 3.99258Z" fill="#888888"/>
<path d="M78.8739 3.99258H78.3291L77.7843 7.49774H78.3291L78.8739 3.99258Z" fill="#888888"/>
<path d="M80.5763 3.99258H80.0315L79.4868 7.49774H80.0315L80.5763 3.99258Z" fill="#888888"/>
<path d="M82.2788 3.99258H81.734L81.1892 7.49774H81.734L82.2788 3.99258Z" fill="#888888"/>
<path d="M83.9813 3.99258H83.4364L82.8917 7.49774H83.4364L83.9813 3.99258Z" fill="#888888"/>
<path d="M85.6837 3.99258H85.1389L84.5941 7.49774H85.1389L85.6837 3.99258Z" fill="#888888"/>
<path d="M87.3862 3.99258H86.8414L86.2966 7.49774H86.8414L87.3862 3.99258Z" fill="#888888"/>
<path d="M89.0886 3.99258H88.5438L87.9991 7.49774H88.5438L89.0886 3.99258Z" fill="#888888"/>
<path d="M90.7911 3.99258H90.2463L89.7015 7.49774H90.2463L90.7911 3.99258Z" fill="#888888"/>
<path d="M91.8807 5.07109L91.7944 4.98571L91.404 7.49774H91.8807V5.07109Z" fill="#888888"/>
<path d="M85.1389 8.5763H84.5941L84.6036 8.63727C84.7872 8.68302 84.9774 8.73301 85.1716 8.7868L85.1389 8.5763Z" fill="#888888"/>
<path d="M86.8414 8.5763H86.2966L86.387 9.15806C86.5809 9.223 86.7737 9.29048 86.9632 9.3601L86.8414 8.5763Z" fill="#888888"/>
<path d="M88.5438 8.5763H87.9991L88.2007 9.87407C88.4157 9.9766 88.6153 10.081 88.794 10.1862L88.5438 8.5763Z" fill="#888888"/>
<path d="M90.2463 8.5763H89.7015L90.1156 11.2408C90.3083 11.4131 90.5213 11.6056 90.7495 11.8136L90.2463 8.5763Z" fill="#888888"/>
<path d="M91.8807 11.003V8.5763H91.404L91.7944 11.0884L91.8807 11.003Z" fill="#888888"/>
<path opacity="0.5" d="M91.8805 11.003V5.07116L90.7909 3.99265H76.6264L75.5369 5.07116V7.88731C78.8971 8.04337 82.6511 8.25533 83.4991 8.40006C85.0183 8.65932 87.9517 9.5408 89.1566 10.4223C89.4109 10.6084 90.071 11.1932 90.9117 11.962L91.8805 11.003Z" fill="url(#paint19_linear_2585_154905)"/>
<path d="M92.1896 44.4659C92.2693 44.5378 92.3911 44.5381 92.4712 44.4666L100 37.7381V36.336L99.606 35.6615V20.1312L100 19.4566V18.0546L92.4712 11.3261C92.3911 11.2546 92.2693 11.2548 92.1896 11.3267L91.196 12.2227C92.2683 13.2083 93.5729 14.4336 94.6997 15.5078L94.9042 15.3056L96.7659 17.1458L96.5822 17.3273C96.9612 17.7019 97.2132 17.9604 97.2761 18.0445C97.3001 18.0767 97.3246 18.1302 97.3494 18.2031L97.6097 18.0546L98.5291 18.9633V19.8748H98.5028V36.3879H98.5291V36.8293L97.6097 37.7381L97.3804 37.6072C97.3411 37.8082 97.3057 37.9455 97.2761 38.0075C97.2396 38.0835 97.0439 38.3009 96.7354 38.6169L96.8706 38.7505L95.009 40.5907L94.862 40.4455C93.7535 41.5004 92.4458 42.7152 91.3515 43.7102L92.1896 44.4659Z" fill="url(#paint20_linear_2585_154905)"/>
<path d="M71.6606 48.3259C75.1005 48.2049 82.284 47.8593 83.4993 47.6519C85.0184 47.3926 87.9519 46.5111 89.1567 45.6296C90.1206 44.9244 97.0404 38.5 97.2762 38.0074C97.5119 37.5148 98.1143 32.2519 98.1143 28.1037C98.1143 23.9556 97.6428 18.5345 97.2762 18.0444C96.9095 17.5544 90.1206 11.1274 89.1567 10.4222C87.9519 9.54074 85.0184 8.65926 83.4993 8.4C82.284 8.19259 75.1005 7.84691 71.6606 7.72593V9.17778H74.9608C74.9608 9.17778 75.0121 9.46231 75.0965 9.90882C75.9186 9.91961 77.0252 9.95568 78.206 10.0158C78.2073 10.0063 78.2088 9.99717 78.2105 9.98832L78.2265 9.90371H78.3134C80.1016 9.90371 82.6499 10.1118 85.3556 10.7099C87.8444 11.26 89.6476 12.7077 91.1504 14.0044L91.2962 14.1304L91.2973 14.1316C92.0699 14.8444 92.8302 15.5493 93.3974 16.0934C93.6809 16.3653 93.9171 16.5981 94.0829 16.772C94.1656 16.8587 94.2322 16.9324 94.2787 16.9897C94.3017 17.0182 94.3216 17.0447 94.3362 17.0681C94.3435 17.0798 94.3506 17.0927 94.3563 17.106C94.3613 17.1177 94.3689 17.1383 94.3689 17.163C94.3689 17.1699 94.3687 17.1768 94.3685 17.1837C94.6811 17.4148 95.1105 18.1605 95.2594 18.5396C95.4347 18.9857 96.4476 23.685 96.5363 28.0734C96.5402 28.0908 96.5424 28.1016 96.5424 28.1037C96.5424 28.1218 96.5426 28.6066 96.5427 28.6248C96.5344 33.162 95.442 37.0525 95.2594 37.5173C95.1105 37.8964 94.6812 38.6419 94.3686 38.8732C94.3687 38.8784 94.3689 38.8837 94.3689 38.8889C94.3689 38.9136 94.3613 38.9341 94.3563 38.9458C94.3506 38.9592 94.3435 38.9721 94.3362 38.9837C94.3216 39.0071 94.3017 39.0337 94.2787 39.0621C94.2322 39.1194 94.1656 39.1931 94.0829 39.2799C93.9171 39.4538 93.6809 39.6865 93.3974 39.9584C92.8302 40.5025 92.0699 41.2074 91.2973 41.9203L91.2962 41.9214L91.1504 42.0474C89.6476 43.3441 87.8444 44.7918 85.3556 45.342C82.6499 45.94 80.1016 46.1481 78.3134 46.1481H78.2265L78.2105 46.0635C78.2091 46.0563 78.2078 46.0488 78.2067 46.0412C77.0254 46.1013 75.9183 46.1374 75.0959 46.1481H75.0954C75.0116 46.588 74.9608 46.8222 74.9608 46.8222H71.6606V48.3259Z" fill="#AAAAAA"/>
<path d="M78.4087 45.9404C79.8138 45.9347 81.6747 45.8011 83.7051 45.4536C85.4085 44.917 86.7819 44.417 87.9913 43.5587C88.5349 43.1729 89.6497 42.1454 90.8321 41.0064C91.8268 40.0482 92.8612 39.019 93.6264 38.2464C93.7351 38.2941 93.8259 38.3517 93.9 38.4144C93.1289 39.1937 92.0696 40.2484 91.0513 41.2294C89.8747 42.3628 88.7414 43.4093 88.1744 43.8116C87.5568 44.25 86.8988 44.5969 86.1856 44.9006C86.0802 44.9348 85.9736 44.9676 85.8656 44.9985C88.0912 44.3608 89.7394 42.9948 91.1553 41.7678C91.9278 41.055 92.6863 40.3518 93.2516 39.8095C93.5346 39.5381 93.7681 39.3079 93.9305 39.1375C94.0119 39.0521 94.074 38.9832 94.1153 38.9323C94.136 38.9067 94.1498 38.8877 94.1579 38.8748C94.1583 38.8741 94.1586 38.8735 94.159 38.8729C94.1464 38.565 93.7732 38.1111 92.9023 38.1111C92.7359 38.1111 92.4818 38.1998 92.1536 38.371C91.8303 38.5397 91.4507 38.7798 91.039 39.0638C90.2157 39.6318 89.2734 40.3686 88.4098 41.0443L88.3553 41.0869C86.7991 42.3048 85.5553 43.28 84.3176 43.6801C83.7273 43.8709 82.828 44.0208 81.9306 44.1232C81.0316 44.2257 80.1257 44.2815 79.5183 44.2815C79.1373 44.2815 78.8427 44.5936 78.647 45.0002C78.5512 45.1992 78.4842 45.4114 78.446 45.5983C78.418 45.7358 78.4067 45.8538 78.4087 45.9404Z" fill="url(#paint21_linear_2585_154905)"/>
<path d="M85.4271 45.1128C85.4482 45.1079 85.4693 45.1027 85.4903 45.0976C85.4678 45.103 85.4453 45.1085 85.4227 45.1138L85.4271 45.1128Z" fill="url(#paint22_linear_2585_154905)"/>
<path d="M83.7048 45.4537C84.2301 45.3638 84.7668 45.2596 85.3098 45.1396C85.6117 45.0729 85.9033 44.9925 86.1855 44.9006C86.8988 44.597 87.5567 44.2501 88.1744 43.8117C88.7413 43.4093 89.8746 42.3629 91.0512 41.2294C92.0695 40.2485 93.1288 39.1937 93.8999 38.4144C93.8258 38.3517 93.735 38.2942 93.6263 38.2464C92.8611 39.0191 91.8267 40.0482 90.832 41.0065C89.6496 42.1454 88.5348 43.173 87.9912 43.5588C86.7818 44.4171 85.4083 44.9171 83.7048 45.4537Z" fill="url(#paint23_linear_2585_154905)"/>
<path d="M78.3133 46.1482C80.1015 46.1482 82.6498 45.9401 85.3554 45.342C87.8443 44.7919 89.6475 43.3442 91.1503 42.0475L91.296 41.9215L91.2972 41.9203C92.0698 41.2075 92.83 40.5026 93.3973 39.9585C93.6807 39.6866 93.917 39.4538 94.0828 39.2799C94.1654 39.1932 94.2321 39.1195 94.2785 39.0622C94.3016 39.0337 94.3215 39.0072 94.336 38.9838C94.3433 38.9721 94.3505 38.9592 94.3562 38.9459C94.3612 38.9342 94.3688 38.9136 94.3688 38.8889C94.3688 38.419 93.8492 37.9038 92.9021 37.9038C92.6797 37.9038 92.3853 38.0157 92.0558 38.1876C91.7214 38.3621 91.3338 38.6076 90.9191 38.8937C90.0896 39.4659 89.1419 40.2069 88.2797 40.8816L88.2252 40.9243C86.6576 42.1511 85.4465 43.097 84.2524 43.4829C83.6832 43.6669 82.8014 43.8151 81.9065 43.9172C81.0132 44.0191 80.1155 44.0741 79.5181 44.0741C79.0086 44.0741 78.6613 44.4879 78.4577 44.911C78.3538 45.1267 78.2817 45.3553 78.2405 45.5573C78.1999 45.7562 78.187 45.9403 78.2103 46.0636L78.2263 46.1482H78.3133ZM78.4085 45.9405C78.4066 45.8539 78.4178 45.7358 78.4458 45.5984C78.484 45.4115 78.551 45.1993 78.6468 45.0002C78.8426 44.5936 79.1371 44.2815 79.5181 44.2815C80.1255 44.2815 81.0315 44.2258 81.9305 44.1232C82.8279 44.0209 83.7271 43.8709 84.3174 43.6801C85.5552 43.2801 86.7989 42.3048 88.3552 41.087L88.4096 41.0444C89.2732 40.3686 90.2155 39.6318 91.0388 39.0639C91.4506 38.7799 91.8301 38.5398 92.1535 38.3711C92.4817 38.1999 92.7357 38.1112 92.9021 38.1112C93.773 38.1112 94.1463 38.5651 94.1588 38.8729C94.1585 38.8735 94.1581 38.8742 94.1577 38.8749C94.1497 38.8878 94.1359 38.9068 94.1151 38.9324C94.0739 38.9832 94.0118 39.0521 93.9304 39.1376C93.7679 39.308 93.5344 39.5381 93.2515 39.8095C92.6861 40.3518 91.9276 41.0551 91.1552 41.7678C89.6239 43.0948 87.821 44.5845 85.3098 45.1396C82.6677 45.7235 80.1771 45.9332 78.4085 45.9405Z" fill="url(#paint24_linear_2585_154905)"/>
<path d="M78.4087 10.1115C79.8138 10.1172 81.6747 10.2508 83.7051 10.5983C85.4085 11.1349 86.7819 11.6349 87.9913 12.4932C88.5349 12.879 89.6497 13.9065 90.8321 15.0455C91.8268 16.0037 92.8612 17.0329 93.6264 17.8055C93.7351 17.7578 93.8259 17.7002 93.9 17.6375C93.1289 16.8582 92.0696 15.8035 91.0513 14.8225C89.8747 13.6891 88.7414 12.6426 88.1744 12.2403C87.5568 11.8019 86.8988 11.455 86.1856 11.1513C86.0802 11.1171 85.9736 11.0843 85.8656 11.0534C88.0912 11.6911 89.7394 13.0571 91.1553 14.2841C91.9278 14.9969 92.6863 15.7001 93.2516 16.2424C93.5346 16.5138 93.7681 16.744 93.9305 16.9144C94.0119 16.9998 94.074 17.0687 94.1153 17.1196C94.136 17.1452 94.1498 17.1642 94.1579 17.1771C94.1583 17.1778 94.1586 17.1784 94.159 17.179C94.1464 17.4869 93.7732 17.9408 92.9023 17.9408C92.7359 17.9408 92.4818 17.8521 92.1536 17.6809C91.8303 17.5122 91.4507 17.2721 91.039 16.9881C90.2157 16.4201 89.2734 15.6833 88.4098 15.0076L88.3553 14.965C86.7991 13.7471 85.5553 12.7719 84.3176 12.3718C83.7273 12.181 82.828 12.0311 81.9306 11.9287C81.0316 11.8262 80.1257 11.7704 79.5183 11.7704C79.1373 11.7704 78.8427 11.4583 78.647 11.0517C78.5512 10.8527 78.4842 10.6405 78.446 10.4536C78.418 10.3161 78.4067 10.1981 78.4087 10.1115Z" fill="url(#paint25_linear_2585_154905)"/>
<path d="M85.4271 10.9391C85.4482 10.944 85.4693 10.9492 85.4903 10.9543C85.4678 10.9489 85.4453 10.9434 85.4227 10.9381L85.4271 10.9391Z" fill="url(#paint26_linear_2585_154905)"/>
<path d="M83.7048 10.5983C84.2301 10.6882 84.7668 10.7924 85.3098 10.9124C85.6117 10.9791 85.9033 11.0595 86.1855 11.1514C86.8988 11.455 87.5567 11.8019 88.1744 12.2403C88.7413 12.6427 89.8746 13.6891 91.0512 14.8226C92.0695 15.8035 93.1288 16.8583 93.8999 17.6376C93.8258 17.7003 93.735 17.7578 93.6263 17.8056C92.8611 17.0329 91.8267 16.0038 90.832 15.0455C89.6496 13.9066 88.5348 12.879 87.9912 12.4932C86.7818 11.6349 85.4083 11.1349 83.7048 10.5983Z" fill="url(#paint27_linear_2585_154905)"/>
<path d="M78.3133 9.90369C80.1015 9.90369 82.6498 10.1118 85.3554 10.7099C87.8443 11.26 89.6475 12.7077 91.1503 14.0044L91.296 14.1304L91.2972 14.1315C92.0698 14.8444 92.83 15.5493 93.3973 16.0934C93.6807 16.3653 93.917 16.5981 94.0828 16.772C94.1654 16.8587 94.2321 16.9324 94.2785 16.9897C94.3016 17.0182 94.3215 17.0447 94.336 17.0681C94.3433 17.0798 94.3505 17.0927 94.3562 17.106C94.3612 17.1177 94.3688 17.1383 94.3688 17.1629C94.3688 17.6329 93.8492 18.1481 92.9021 18.1481C92.6797 18.1481 92.3853 18.0362 92.0558 17.8643C91.7214 17.6898 91.3338 17.4442 90.9191 17.1582C90.0896 16.586 89.1419 15.845 88.2797 15.1702L88.2252 15.1276C86.6576 13.9008 85.4465 12.9549 84.2524 12.5689C83.6832 12.3849 82.8014 12.2368 81.9065 12.1347C81.0132 12.0328 80.1155 11.9778 79.5181 11.9778C79.0086 11.9778 78.6613 11.5639 78.4577 11.1409C78.3538 10.9251 78.2817 10.6966 78.2405 10.4946C78.1999 10.2957 78.187 10.1116 78.2103 9.9883L78.2263 9.90369H78.3133ZM78.4085 10.1114C78.4066 10.198 78.4178 10.3161 78.4458 10.4535C78.484 10.6404 78.551 10.8526 78.6468 11.0517C78.8426 11.4582 79.1371 11.7704 79.5181 11.7704C80.1255 11.7704 81.0315 11.8261 81.9305 11.9286C82.8279 12.031 83.7271 12.181 84.3174 12.3718C85.5552 12.7718 86.7989 13.747 88.3552 14.9649L88.4096 15.0075C89.2732 15.6833 90.2155 16.4201 91.0388 16.988C91.4506 17.272 91.8301 17.5121 92.1535 17.6808C92.4817 17.852 92.7357 17.9407 92.9021 17.9407C93.773 17.9407 94.1463 17.4868 94.1588 17.1789C94.1585 17.1783 94.1581 17.1777 94.1577 17.177C94.1497 17.1641 94.1359 17.1451 94.1151 17.1195C94.0739 17.0687 94.0118 16.9997 93.9304 16.9143C93.7679 16.7439 93.5344 16.5138 93.2515 16.2424C92.6861 15.7001 91.9276 14.9968 91.1552 14.2841C89.6239 12.9571 87.821 11.4674 85.3098 10.9123C82.6677 10.3283 80.1771 10.1187 78.4085 10.1114Z" fill="url(#paint28_linear_2585_154905)"/>
<path d="M20.1152 7.31109H0.838135V48.7407H20.1152V48.3259H1.15244V7.72591H11.0267H20.1152V7.31109Z" fill="#BBBBBB"/>
<rect width="0.419068" height="4.97778" transform="matrix(1 0 0 -1 0 21.726)" fill="#8D4A41"/>
<rect width="0.419068" height="4.97778" transform="matrix(1 0 0 -1 0 39.3556)" fill="#8D4A41"/>
<rect width="0.419068" height="0.414815" transform="matrix(1 0 0 -1 0 16.7482)" fill="#B0938D"/>
<rect width="0.419068" height="0.414815" transform="matrix(1 0 0 -1 0 39.7704)" fill="#B0938D"/>
<path d="M20.8486 44.9556H22.0535V11.0963H20.8486V11.8741H21.6868V44.2296H20.8486V44.9556Z" fill="#888888"/>
<path d="M22.0535 44.9555H20.8486V45.3704H22.4725V10.6815H20.8486V11.0963H22.0535V44.9555Z" fill="#333333"/>
<rect width="18.3342" height="39.9778" transform="matrix(1 0 0 -1 1.4668 48.0149)" fill="url(#paint29_radial_2585_154905)"/>
<path fill-rule="evenodd" clip-rule="evenodd" d="M20.1154 48.3259V7.72593H1.15259V48.3259H20.1154ZM1.46689 48.0148V8.03704H19.8011V48.0148H1.46689Z" fill="#444444"/>
<rect width="0.314301" height="41.4296" transform="matrix(1 0 0 -1 20.1152 48.7407)" fill="#888888"/>
<rect width="0.419068" height="41.4296" transform="matrix(1 0 0 -1 20.4294 48.7407)" fill="#555555"/>
<rect width="0.419068" height="31.9407" transform="matrix(1 0 0 -1 20.8486 43.8148)" fill="#444444"/>
<rect width="0.419068" height="31.9407" transform="matrix(1 0 0 -1 21.2676 43.8148)" fill="#333333"/>
<rect width="0.419068" height="0.414815" transform="matrix(1 0 0 -1 21.2676 44.2297)" fill="#222222"/>
<rect width="0.419068" height="0.414815" transform="matrix(1 0 0 -1 20.8486 44.2297)" fill="#333333"/>
<path d="M70.7176 9.17782H70.2985V10.526H70.7176V9.17782Z" fill="#333333"/>
<path d="M70.7176 12.2371H70.2985V16.9148C70.4589 17.1768 70.5996 17.4604 70.7176 17.7616V12.2371Z" fill="#333333"/>
<path fill-rule="evenodd" clip-rule="evenodd" d="M70.7176 32.1482H72.7081C72.944 32.1482 73.1616 32.071 73.3367 31.9408V36.2445H76.3413C76.3512 36.1072 76.3607 35.9689 76.3701 35.8297H73.7558V20.2223H76.1146C76.1008 20.0825 76.0868 19.9443 76.0726 19.8075H73.3367V24.1112C73.1683 23.9859 72.9606 23.9098 72.7352 23.9041L72.7081 23.9037H70.7176V22.3203C70.5995 22.6215 70.4589 22.905 70.2985 23.167V23.9037H69.7432C69.6026 24.0554 69.4537 24.1941 69.2973 24.3186H70.2985V31.7334H68.0984V32.1482H70.2985V43.8667H70.7176V32.1482ZM70.7176 24.3186H72.7081C73.0553 24.3186 73.3367 24.5971 73.3367 24.9408V31.1112C73.3367 31.4548 73.0553 31.7334 72.7081 31.7334H70.7176V24.3186Z" fill="#333333"/>
<path d="M68.0984 24.0648C68.2119 24.0207 68.3238 23.967 68.4335 23.9037H68.0984V24.0648Z" fill="#333333"/>
<path d="M70.7176 45.5778H70.2985V46.8223H70.7176V45.5778Z" fill="#333333"/>
<path d="M70.2985 9.22968H67.1555V10.526H70.2985V9.22968Z" fill="url(#paint30_linear_2585_154905)"/>
<path d="M70.2985 12.2371H68.0984V15.143C68.9823 15.3846 69.754 16.0254 70.2985 16.9148V12.2371Z" fill="url(#paint31_linear_2585_154905)"/>
<path d="M69.9842 18.4593H70.0728C70.0828 18.4927 70.0924 18.5264 70.1018 18.5603C70.0925 18.5264 70.083 18.4927 70.073 18.4593H70.0728C69.906 17.8992 69.6551 17.4047 69.3482 17.0031C68.9826 16.5247 68.5531 16.1936 68.0984 16.017V18.2785L69.9842 19.3562V18.4593Z" fill="url(#paint32_linear_2585_154905)"/>
<path d="M70.1126 18.5997C70.1098 18.5892 70.1068 18.5787 70.104 18.5682C70.108 18.5828 70.1119 18.5974 70.1157 18.612L70.1126 18.5997Z" fill="url(#paint33_linear_2585_154905)"/>
<path d="M69.7485 19.7005L68.0984 18.7575V20.6435L69.7485 19.7005Z" fill="url(#paint34_linear_2585_154905)"/>
<path d="M68.0984 23.9037H68.4335C68.7635 23.7136 69.0738 23.4374 69.3482 23.0784C69.7644 22.5339 70.0778 21.8185 70.2178 21H69.9842V20.0447L68.0984 21.1225V23.9037Z" fill="url(#paint35_linear_2585_154905)"/>
<path d="M70.2217 20.977C70.2205 20.9847 70.2191 20.9924 70.2178 21H70.2179C70.2192 20.9924 70.2205 20.9847 70.2217 20.977Z" fill="url(#paint36_linear_2585_154905)"/>
<path d="M70.2985 23.167C70.1333 23.4369 69.9471 23.6839 69.7433 23.9037H70.2985V23.167Z" fill="url(#paint37_linear_2585_154905)"/>
<path d="M69.2974 24.3186C69.2996 24.3168 69.3018 24.3149 69.3041 24.3131C69.2869 24.3268 69.2697 24.3404 69.2524 24.3537C69.2675 24.3421 69.2825 24.3304 69.2974 24.3186Z" fill="url(#paint38_linear_2585_154905)"/>
<path d="M70.2985 32.1482H68.0984V43.8667H70.2985V32.1482Z" fill="url(#paint39_linear_2585_154905)"/>
<path d="M70.2985 45.5778H67.1555V46.8223H70.2985V45.5778Z" fill="url(#paint40_linear_2585_154905)"/>
<path d="M76.3699 35.8296C76.5 33.9005 76.5846 31.7898 76.5846 29.558C76.5846 26.0744 76.3792 22.8856 76.1147 20.2222H73.7559V35.8296H76.3699Z" fill="url(#paint41_linear_2585_154905)"/>
<path d="M70.2985 31.7334V24.3186H69.2973C68.9332 24.6085 68.5291 24.821 68.0984 24.9387V31.7334H70.2985Z" fill="url(#paint42_linear_2585_154905)"/>
<path d="M72.7081 31.7334C73.0553 31.7334 73.3367 31.4548 73.3367 31.1112V24.9408C73.3367 24.5972 73.0553 24.3186 72.7081 24.3186H70.7176V31.7334H72.7081Z" fill="url(#paint43_linear_2585_154905)"/>
<path d="M73.3367 19.8075H76.0725C75.7168 16.377 75.2718 13.8768 75.0696 12.8319L75.1062 9.90891H75.1061C75.0158 9.4323 74.9606 9.17782 74.9606 9.17782H70.7175V10.526H73.5724C74.0498 10.526 74.4368 10.909 74.4368 11.3815C74.4368 11.854 74.0498 12.2371 73.5724 12.2371H70.7175V17.7616C70.805 17.985 70.8802 18.218 70.9416 18.4593H72.6033V21H71.0663C70.9971 21.4665 70.8783 21.9098 70.7175 22.3203V23.9037H72.7081L72.7352 23.9041C72.9606 23.9098 73.1683 23.9859 73.3367 24.1112V19.8075Z" fill="url(#paint44_linear_2585_154905)"/>
<path d="M76.5833 29.1214C76.5832 29.0862 76.5829 29.051 76.5827 29.0159C76.583 29.0684 76.5833 29.1209 76.5835 29.1736C76.5834 29.1562 76.5834 29.1388 76.5833 29.1214Z" fill="url(#paint45_linear_2585_154905)"/>
<path d="M74.9606 46.8223C74.9606 46.8223 75.8879 42.5578 76.3409 36.2445H73.3367V31.9408C73.1616 32.071 72.944 32.1482 72.7081 32.1482H70.7175V43.8667H73.5724C74.0498 43.8667 74.4368 44.2498 74.4368 44.7223C74.4368 45.1948 74.0498 45.5778 73.5724 45.5778H70.7175V46.8223H74.9606Z" fill="url(#paint46_linear_2585_154905)"/>
<path d="M76.3759 35.7375C76.3739 35.7682 76.3718 35.799 76.3697 35.8297H76.3698C76.3719 35.799 76.3739 35.7682 76.3759 35.7375Z" fill="url(#paint47_linear_2585_154905)"/>
<rect width="1.2572" height="31.2148" transform="matrix(1 0 0 -1 42.6924 43.6593)" fill="#333333"/>
<path d="M68.0985 12.237H67.0508V13.1838C67.1188 13.4095 67.1555 13.6486 67.1555 13.8963V42.2074C67.1555 42.455 67.1188 42.6942 67.0508 42.9199V43.9703H68.0985V12.237Z" fill="#222222"/>
<path d="M73.5724 12.2371C74.0498 12.2371 74.4368 11.854 74.4368 11.3815C74.4368 10.909 74.0498 10.5259 73.5724 10.5259H42.6924V11.4074H64.641C65.3857 11.4074 66.0546 11.7279 66.515 12.2371H73.5724Z" fill="url(#paint48_linear_2585_154905)"/>
<path d="M73.5724 45.5779C74.0498 45.5779 74.4368 45.1948 74.4368 44.7223C74.4368 44.2498 74.0498 43.8668 73.5724 43.8668H66.515C66.0546 44.3759 65.3857 44.6964 64.641 44.6964H42.6924V45.5779H73.5724Z" fill="url(#paint49_linear_2585_154905)"/>
<path fill-rule="evenodd" clip-rule="evenodd" d="M64.6413 44.6963C66.03 44.6963 67.1557 43.582 67.1557 42.2074V13.8963C67.1557 12.5217 66.03 11.4074 64.6413 11.4074H28.9158L28.8833 11.4076C27.5204 11.4247 26.4188 12.5151 26.4016 13.8641L26.4014 13.8963V42.2074C26.4014 43.5712 27.5096 44.6789 28.8833 44.6961L28.9158 44.6963H64.6413ZM28.9158 43.6593C28.1057 43.6593 27.449 43.0092 27.449 42.2074V13.8963C27.449 13.0945 28.1057 12.4444 28.9158 12.4444H64.6413C65.4513 12.4444 66.108 13.0945 66.108 13.8963V42.2074C66.108 43.0092 65.4513 43.6593 64.6413 43.6593H28.9158Z" fill="#222222"/>
<path d="M69.9842 20.0447V21H70.2179C70.2703 20.6935 70.2985 20.3726 70.2985 20.0407C70.2985 19.4762 70.2172 18.9432 70.073 18.4593H69.9842V19.3562L68.0984 18.2785V18.7575L69.7485 19.7004L68.0984 20.6435V21.1224L69.9842 20.0447Z" fill="#333333"/>
<path d="M72.6034 18.4593H70.9416C71.0681 18.9563 71.1366 19.4881 71.1366 20.0407C71.1366 20.3688 71.1124 20.6895 71.0663 21H72.6034V18.4593Z" fill="#333333"/>
<path fill-rule="evenodd" clip-rule="evenodd" d="M68.0985 24.9387C69.5974 24.5291 70.774 22.9711 71.0665 21.0001H72.6035V18.4593H70.9417C70.5165 16.7879 69.4358 15.5084 68.0985 15.1429V16.0168C68.5532 16.1935 68.9827 16.5247 69.3483 17.0032C69.6552 17.4047 69.9061 17.8992 70.0729 18.4593H70.0731C70.1007 18.552 70.1259 18.6465 70.1488 18.7427C70.1259 18.6465 70.1005 18.552 70.0729 18.4593H69.9843V19.3562L68.0985 18.2785V18.7575L69.7486 19.7005L68.0985 20.6435V21.1225L69.9843 20.0447V21.0001H70.2179C70.2192 20.9924 70.2205 20.9847 70.2218 20.977C70.2205 20.9847 70.2193 20.9924 70.218 21.0001H70.2179C70.0779 21.8185 69.7645 22.5339 69.3483 23.0784C68.9827 23.5568 68.5532 23.8882 68.0985 24.0648V24.9387ZM70.2979 19.9511C70.298 19.962 70.2983 19.9729 70.2984 19.9838V19.988C70.2983 19.9757 70.298 19.9634 70.2979 19.9511Z" fill="url(#paint50_radial_2585_154905)"/>
<path d="M66.1079 23.8533C65.8093 23.6659 65.5282 23.4068 65.2772 23.0784C64.7052 22.3299 64.3269 21.2587 64.3269 20.0408C64.3269 18.8229 64.7052 17.7517 65.2772 17.0032C65.5282 16.6748 65.8093 16.4157 66.1079 16.2284V15.2906C64.5864 15.9511 63.4888 17.8282 63.4888 20.0408C63.4888 22.2534 64.5864 24.1306 66.1079 24.791V23.8533Z" fill="url(#paint51_radial_2585_154905)"/>
<path d="M22.7869 40.7958C22.7869 41.4323 23.3028 41.9482 23.9393 41.9482C24.5758 41.9482 25.0917 41.4323 25.0917 40.7958V31.4859C25.0917 30.8494 24.5758 30.3334 23.9393 30.3334C23.3028 30.3334 22.7869 30.8494 22.7869 31.4859V40.7958Z" fill="url(#paint52_linear_2585_154905)"/>
<path d="M25.5107 40.9112C25.5107 41.4839 25.9798 41.9482 26.5584 41.9482H34.9921C35.5708 41.9482 36.0398 41.4839 36.0398 40.9112V31.3705C36.0398 30.7977 35.5708 30.3334 34.9921 30.3334H26.5584C25.9798 30.3334 25.5107 30.7977 25.5107 31.3705V40.9112Z" fill="url(#paint53_radial_2585_154905)"/>
<path fill-rule="evenodd" clip-rule="evenodd" d="M34.9923 42.363C35.8023 42.363 36.459 41.713 36.459 40.9112V31.3704C36.459 30.5686 35.8023 29.9186 34.9923 29.9186H26.5585C25.7485 29.9186 25.0918 30.5686 25.0918 31.3704V40.9112C25.0918 41.713 25.7485 42.363 26.5585 42.363H34.9923ZM26.5585 41.9482C25.9799 41.9482 25.5109 41.4839 25.5109 40.9112V31.3704L25.5112 31.3437C25.5256 30.7833 25.989 30.3334 26.5585 30.3334H34.9923L35.0193 30.3338C35.5764 30.3477 36.0255 30.7922 36.0396 31.3437L36.0399 31.3704V40.9112C36.0399 41.475 35.5854 41.9337 35.0193 41.9479L34.9923 41.9482H26.5585Z" fill="url(#paint54_linear_2585_154905)"/>
<path d="M46.4116 40.7958C46.4116 41.4323 46.9276 41.9482 47.5641 41.9482C48.2005 41.9482 48.7165 41.4323 48.7165 40.7958V31.4859C48.7165 30.8494 48.2005 30.3334 47.5641 30.3334C46.9276 30.3334 46.4116 30.8494 46.4116 31.4859V40.7958Z" fill="url(#paint55_linear_2585_154905)"/>
<path d="M49.1357 40.9112C49.1357 41.4839 49.6048 41.9482 50.1834 41.9482H58.6171C59.1958 41.9482 59.6648 41.4839 59.6648 40.9112V31.3705C59.6648 30.7977 59.1958 30.3334 58.6171 30.3334H50.1834C49.6048 30.3334 49.1357 30.7977 49.1357 31.3705V40.9112Z" fill="url(#paint56_radial_2585_154905)"/>
<path fill-rule="evenodd" clip-rule="evenodd" d="M58.617 42.363C59.4271 42.363 60.0838 41.713 60.0838 40.9112V31.3704C60.0838 30.5686 59.4271 29.9186 58.617 29.9186H50.1833C49.3732 29.9186 48.7166 30.5686 48.7166 31.3704V40.9112C48.7166 41.713 49.3732 42.363 50.1833 42.363H58.617ZM50.1833 41.9482C49.6047 41.9482 49.1356 41.4839 49.1356 40.9112V31.3704L49.136 31.3437C49.1503 30.7833 49.6137 30.3334 50.1833 30.3334H58.617L58.6441 30.3338C59.2012 30.3477 59.6502 30.7922 59.6643 31.3437L59.6647 31.3704V40.9112C59.6647 41.475 59.2102 41.9337 58.6441 41.9479L58.617 41.9482H50.1833Z" fill="url(#paint57_linear_2585_154905)"/>
<path d="M22.7869 24.6179C22.7869 25.2544 23.3028 25.7704 23.9393 25.7704C24.5758 25.7704 25.0917 25.2544 25.0917 24.618V15.308C25.0917 14.6715 24.5758 14.1556 23.9393 14.1556C23.3028 14.1556 22.7869 14.6715 22.7869 15.308V24.6179Z" fill="url(#paint58_linear_2585_154905)"/>
<path d="M25.5107 24.7333C25.5107 25.3061 25.9798 25.7704 26.5584 25.7704H34.9921C35.5708 25.7704 36.0398 25.3061 36.0398 24.7333V15.1926C36.0398 14.6199 35.5708 14.1556 34.9921 14.1556H26.5584C25.9798 14.1556 25.5107 14.6199 25.5107 15.1926V24.7333Z" fill="url(#paint59_radial_2585_154905)"/>
<path fill-rule="evenodd" clip-rule="evenodd" d="M34.9923 26.1852C35.8023 26.1852 36.459 25.5352 36.459 24.7333V15.1926C36.459 14.3908 35.8023 13.7407 34.9923 13.7407H26.5585C25.7485 13.7407 25.0918 14.3908 25.0918 15.1926V24.7333C25.0918 25.5352 25.7485 26.1852 26.5585 26.1852H34.9923ZM26.5585 25.7704C25.9799 25.7704 25.5109 25.3061 25.5109 24.7333V15.1926L25.5112 15.1658C25.5256 14.6054 25.989 14.1556 26.5585 14.1556H34.9923L35.0193 14.1559C35.5764 14.1699 36.0255 14.6143 36.0396 15.1658L36.0399 15.1926V24.7333C36.0399 25.2971 35.5854 25.7558 35.0193 25.77L34.9923 25.7704H26.5585Z" fill="url(#paint60_linear_2585_154905)"/>
<path d="M46.4116 24.6179C46.4116 25.2544 46.9276 25.7704 47.5641 25.7704C48.2005 25.7704 48.7165 25.2544 48.7165 24.618V15.308C48.7165 14.6715 48.2005 14.1556 47.5641 14.1556C46.9276 14.1556 46.4116 14.6715 46.4116 15.308V24.6179Z" fill="url(#paint61_linear_2585_154905)"/>
<path d="M49.1357 24.7333C49.1357 25.3061 49.6048 25.7704 50.1834 25.7704H58.6171C59.1958 25.7704 59.6648 25.3061 59.6648 24.7333V15.1926C59.6648 14.6199 59.1958 14.1556 58.6171 14.1556H50.1834C49.6048 14.1556 49.1357 14.6199 49.1357 15.1926V24.7333Z" fill="url(#paint62_radial_2585_154905)"/>
<path fill-rule="evenodd" clip-rule="evenodd" d="M58.617 26.1852C59.4271 26.1852 60.0838 25.5352 60.0838 24.7333V15.1926C60.0838 14.3908 59.4271 13.7407 58.617 13.7407H50.1833C49.3732 13.7407 48.7166 14.3908 48.7166 15.1926V24.7333C48.7166 25.5352 49.3732 26.1852 50.1833 26.1852H58.617ZM50.1833 25.7704C49.6047 25.7704 49.1356 25.3061 49.1356 24.7333V15.1926L49.136 15.1658C49.1503 14.6054 49.6137 14.1556 50.1833 14.1556H58.617L58.6441 14.1559C59.2012 14.1699 59.6502 14.6143 59.6643 15.1658L59.6647 15.1926V24.7333C59.6647 25.2971 59.2102 25.7558 58.6441 25.77L58.617 25.7704H50.1833Z" fill="url(#paint63_linear_2585_154905)"/>
<defs>
<radialGradient id="paint0_radial_2585_154905" cx="0" cy="0" r="1" gradientTransform="matrix(25.5893 -0.0280961 -0.0333954 -34.9996 44.814 28.026)" gradientUnits="userSpaceOnUse">
<stop stop-color="#555555"/>
<stop offset="1" stop-color="#888888"/>
</radialGradient>
<radialGradient id="paint1_radial_2585_154905" cx="0" cy="0" r="1" gradientTransform="matrix(25.5893 -0.0280961 -0.0333954 -34.9996 44.814 28.026)" gradientUnits="userSpaceOnUse">
<stop stop-color="#555555"/>
<stop offset="1" stop-color="#888888"/>
</radialGradient>
<radialGradient id="paint2_radial_2585_154905" cx="0" cy="0" r="1" gradientTransform="matrix(25.5893 -0.0280961 -0.0333954 -34.9996 44.814 28.026)" gradientUnits="userSpaceOnUse">
<stop stop-color="#555555"/>
<stop offset="1" stop-color="#888888"/>
</radialGradient>
<radialGradient id="paint3_radial_2585_154905" cx="0" cy="0" r="1" gradientTransform="matrix(25.5893 -0.0280961 -0.0333954 -34.9996 44.814 28.026)" gradientUnits="userSpaceOnUse">
<stop stop-color="#555555"/>
<stop offset="1" stop-color="#888888"/>
</radialGradient>
<radialGradient id="paint4_radial_2585_154905" cx="0" cy="0" r="1" gradientTransform="matrix(25.5893 -0.0280961 -0.0333954 -34.9996 44.814 28.026)" gradientUnits="userSpaceOnUse">
<stop stop-color="#555555"/>
<stop offset="1" stop-color="#888888"/>
</radialGradient>
<radialGradient id="paint5_radial_2585_154905" cx="0" cy="0" r="1" gradientTransform="matrix(25.5893 -0.0280961 -0.0333954 -34.9996 44.814 28.026)" gradientUnits="userSpaceOnUse">
<stop stop-color="#555555"/>
<stop offset="1" stop-color="#888888"/>
</radialGradient>
<radialGradient id="paint6_radial_2585_154905" cx="0" cy="0" r="1" gradientTransform="matrix(25.5893 -0.0280961 -0.0333954 -34.9996 44.814 28.026)" gradientUnits="userSpaceOnUse">
<stop stop-color="#555555"/>
<stop offset="1" stop-color="#888888"/>
</radialGradient>
<radialGradient id="paint7_radial_2585_154905" cx="0" cy="0" r="1" gradientTransform="matrix(25.5893 -0.0280961 -0.0333954 -34.9996 44.814 28.026)" gradientUnits="userSpaceOnUse">
<stop stop-color="#555555"/>
<stop offset="1" stop-color="#888888"/>
</radialGradient>
<linearGradient id="paint8_linear_2585_154905" x1="36.8779" y1="8.4778" x2="71.6605" y2="8.4778" gradientUnits="userSpaceOnUse">
<stop stop-color="#444444"/>
<stop offset="1" stop-color="#222222"/>
</linearGradient>
<linearGradient id="paint9_linear_2585_154905" x1="31.5872" y1="8.4778" x2="36.8779" y2="8.4778" gradientUnits="userSpaceOnUse">
<stop stop-color="#888888"/>
<stop offset="1" stop-color="#555555"/>
</linearGradient>
<linearGradient id="paint10_linear_2585_154905" x1="23.5725" y1="8.4778" x2="31.5872" y2="8.4778" gradientUnits="userSpaceOnUse">
<stop stop-color="#777777"/>
<stop offset="1" stop-color="#999999"/>
</linearGradient>
<linearGradient id="paint11_linear_2585_154905" x1="0" y1="0.751852" x2="34.7826" y2="0.751852" gradientUnits="userSpaceOnUse">
<stop stop-color="#444444"/>
<stop offset="1" stop-color="#222222"/>
</linearGradient>
<linearGradient id="paint12_linear_2585_154905" x1="0" y1="0.751852" x2="5.29073" y2="0.751852" gradientUnits="userSpaceOnUse">
<stop stop-color="#888888"/>
<stop offset="1" stop-color="#555555"/>
</linearGradient>
<linearGradient id="paint13_linear_2585_154905" x1="0" y1="0.751852" x2="8.01467" y2="0.751852" gradientUnits="userSpaceOnUse">
<stop stop-color="#777777"/>
<stop offset="1" stop-color="#999999"/>
</linearGradient>
<linearGradient id="paint14_linear_2585_154905" x1="21.2677" y1="9.59264" x2="4.92407" y2="9.59264" gradientUnits="userSpaceOnUse">
<stop offset="0.1"/>
<stop offset="0.5" stop-color="#999999"/>
<stop offset="0.9"/>
</linearGradient>
<linearGradient id="paint15_linear_2585_154905" x1="21.2677" y1="46.563" x2="4.92409" y2="46.563" gradientUnits="userSpaceOnUse">
<stop offset="0.1"/>
<stop offset="0.5" stop-color="#999999"/>
<stop offset="0.9"/>
</linearGradient>
<linearGradient id="paint16_linear_2585_154905" x1="13.2529" y1="50.2444" x2="13.2529" y2="48.3259" gradientUnits="userSpaceOnUse">
<stop stop-color="#666666"/>
<stop offset="1" stop-color="#333333"/>
</linearGradient>
<linearGradient id="paint17_linear_2585_154905" x1="13.253" y1="48.326" x2="13.253" y2="50.2445" gradientUnits="userSpaceOnUse">
<stop stop-color="#444444"/>
<stop offset="1" stop-color="#777777"/>
</linearGradient>
<linearGradient id="paint18_linear_2585_154905" x1="91.8805" y1="47.963" x2="75.5369" y2="47.963" gradientUnits="userSpaceOnUse">
<stop offset="0.1"/>
<stop offset="0.5" stop-color="#999999"/>
<stop offset="0.9"/>
</linearGradient>
<linearGradient id="paint19_linear_2585_154905" x1="91.8805" y1="8.03709" x2="75.5369" y2="8.03709" gradientUnits="userSpaceOnUse">
<stop offset="0.1"/>
<stop offset="0.5" stop-color="#999999"/>
<stop offset="0.9"/>
</linearGradient>
<linearGradient id="paint20_linear_2585_154905" x1="95.4164" y1="44.5926" x2="95.4164" y2="11.2" gradientUnits="userSpaceOnUse">
<stop stop-color="#222222"/>
<stop offset="0.23" stop-color="#222222"/>
<stop offset="0.25" stop-color="#444444"/>
<stop offset="0.5" stop-color="#444444"/>
<stop offset="0.75" stop-color="#444444"/>
<stop offset="0.78" stop-color="#222222"/>
<stop offset="1" stop-color="#222222"/>
</linearGradient>
<linearGradient id="paint21_linear_2585_154905" x1="88.371" y1="44.2815" x2="86.9809" y2="41.0045" gradientUnits="userSpaceOnUse">
<stop stop-color="#CCCCCC"/>
<stop offset="1" stop-color="white"/>
</linearGradient>
<linearGradient id="paint22_linear_2585_154905" x1="88.371" y1="44.2815" x2="86.9809" y2="41.0045" gradientUnits="userSpaceOnUse">
<stop stop-color="#CCCCCC"/>
<stop offset="1" stop-color="white"/>
</linearGradient>
<linearGradient id="paint23_linear_2585_154905" x1="83.0802" y1="45.7853" x2="94.0565" y2="37.8497" gradientUnits="userSpaceOnUse">
<stop stop-color="#CCCCCC"/>
<stop offset="1" stop-color="#888888"/>
</linearGradient>
<linearGradient id="paint24_linear_2585_154905" x1="93.714" y1="38.4223" x2="93.714" y2="46.0445" gradientUnits="userSpaceOnUse">
<stop stop-color="#666666"/>
<stop offset="1" stop-color="#444444"/>
</linearGradient>
<linearGradient id="paint25_linear_2585_154905" x1="88.371" y1="11.7704" x2="86.9809" y2="15.0474" gradientUnits="userSpaceOnUse">
<stop stop-color="#CCCCCC"/>
<stop offset="1" stop-color="white"/>
</linearGradient>
<linearGradient id="paint26_linear_2585_154905" x1="88.371" y1="11.7704" x2="86.9809" y2="15.0474" gradientUnits="userSpaceOnUse">
<stop stop-color="#CCCCCC"/>
<stop offset="1" stop-color="white"/>
</linearGradient>
<linearGradient id="paint27_linear_2585_154905" x1="83.0802" y1="10.2667" x2="94.0565" y2="18.2024" gradientUnits="userSpaceOnUse">
<stop stop-color="#CCCCCC"/>
<stop offset="1" stop-color="#888888"/>
</linearGradient>
<linearGradient id="paint28_linear_2585_154905" x1="93.714" y1="17.6296" x2="93.714" y2="10.0074" gradientUnits="userSpaceOnUse">
<stop stop-color="#666666"/>
<stop offset="1" stop-color="#444444"/>
</linearGradient>
<radialGradient id="paint29_radial_2585_154905" cx="0" cy="0" r="1" gradientUnits="userSpaceOnUse" gradientTransform="translate(9.1671 19.9889) rotate(90) scale(22.3481 13.0603)">
<stop offset="0.25" stop-color="#BBBBBB"/>
<stop offset="1" stop-color="#777777"/>
</radialGradient>
<linearGradient id="paint30_linear_2585_154905" x1="70.2985" y1="28.026" x2="67.1555" y2="28.026" gradientUnits="userSpaceOnUse">
<stop stop-color="#888888"/>
<stop offset="1" stop-color="#555555"/>
</linearGradient>
<linearGradient id="paint31_linear_2585_154905" x1="70.2985" y1="28.026" x2="67.1555" y2="28.026" gradientUnits="userSpaceOnUse">
<stop stop-color="#888888"/>
<stop offset="1" stop-color="#555555"/>
</linearGradient>
<linearGradient id="paint32_linear_2585_154905" x1="70.2985" y1="28.026" x2="67.1555" y2="28.026" gradientUnits="userSpaceOnUse">
<stop stop-color="#888888"/>
<stop offset="1" stop-color="#555555"/>
</linearGradient>
<linearGradient id="paint33_linear_2585_154905" x1="70.2985" y1="28.026" x2="67.1555" y2="28.026" gradientUnits="userSpaceOnUse">
<stop stop-color="#888888"/>
<stop offset="1" stop-color="#555555"/>
</linearGradient>
<linearGradient id="paint34_linear_2585_154905" x1="70.2985" y1="28.026" x2="67.1555" y2="28.026" gradientUnits="userSpaceOnUse">
<stop stop-color="#888888"/>
<stop offset="1" stop-color="#555555"/>
</linearGradient>
<linearGradient id="paint35_linear_2585_154905" x1="70.2985" y1="28.026" x2="67.1555" y2="28.026" gradientUnits="userSpaceOnUse">
<stop stop-color="#888888"/>
<stop offset="1" stop-color="#555555"/>
</linearGradient>
<linearGradient id="paint36_linear_2585_154905" x1="70.2985" y1="28.026" x2="67.1555" y2="28.026" gradientUnits="userSpaceOnUse">
<stop stop-color="#888888"/>
<stop offset="1" stop-color="#555555"/>
</linearGradient>
<linearGradient id="paint37_linear_2585_154905" x1="70.2985" y1="28.026" x2="67.1555" y2="28.026" gradientUnits="userSpaceOnUse">
<stop stop-color="#888888"/>
<stop offset="1" stop-color="#555555"/>
</linearGradient>
<linearGradient id="paint38_linear_2585_154905" x1="70.2985" y1="28.026" x2="67.1555" y2="28.026" gradientUnits="userSpaceOnUse">
<stop stop-color="#888888"/>
<stop offset="1" stop-color="#555555"/>
</linearGradient>
<linearGradient id="paint39_linear_2585_154905" x1="70.2985" y1="28.026" x2="67.1555" y2="28.026" gradientUnits="userSpaceOnUse">
<stop stop-color="#888888"/>
<stop offset="1" stop-color="#555555"/>
</linearGradient>
<linearGradient id="paint40_linear_2585_154905" x1="70.2985" y1="28.026" x2="67.1555" y2="28.026" gradientUnits="userSpaceOnUse">
<stop stop-color="#888888"/>
<stop offset="1" stop-color="#555555"/>
</linearGradient>
<linearGradient id="paint41_linear_2585_154905" x1="76.5846" y1="28.0259" x2="73.7559" y2="28.0259" gradientUnits="userSpaceOnUse">
<stop stop-color="#BBBBBB"/>
<stop offset="1" stop-color="#999999"/>
</linearGradient>
<linearGradient id="paint42_linear_2585_154905" x1="73.7558" y1="28.026" x2="67.6793" y2="28.026" gradientUnits="userSpaceOnUse">
<stop stop-color="#999999"/>
<stop offset="0.7" stop-color="#999999"/>
<stop offset="1" stop-color="#555555"/>
</linearGradient>
<linearGradient id="paint43_linear_2585_154905" x1="73.7558" y1="28.026" x2="67.6793" y2="28.026" gradientUnits="userSpaceOnUse">
<stop stop-color="#999999"/>
<stop offset="0.7" stop-color="#999999"/>
<stop offset="1" stop-color="#555555"/>
</linearGradient>
<linearGradient id="paint44_linear_2585_154905" x1="76.5845" y1="28" x2="70.7175" y2="28" gradientUnits="userSpaceOnUse">
<stop stop-color="#999999"/>
<stop offset="1" stop-color="#666666"/>
</linearGradient>
<linearGradient id="paint45_linear_2585_154905" x1="76.5845" y1="28" x2="70.7175" y2="28" gradientUnits="userSpaceOnUse">
<stop stop-color="#999999"/>
<stop offset="1" stop-color="#666666"/>
</linearGradient>
<linearGradient id="paint46_linear_2585_154905" x1="76.5845" y1="28" x2="70.7175" y2="28" gradientUnits="userSpaceOnUse">
<stop stop-color="#999999"/>
<stop offset="1" stop-color="#666666"/>
</linearGradient>
<linearGradient id="paint47_linear_2585_154905" x1="76.5845" y1="28" x2="70.7175" y2="28" gradientUnits="userSpaceOnUse">
<stop stop-color="#999999"/>
<stop offset="1" stop-color="#666666"/>
</linearGradient>
<linearGradient id="paint48_linear_2585_154905" x1="42.6924" y1="11.3815" x2="74.4368" y2="11.3815" gradientUnits="userSpaceOnUse">
<stop stop-color="#444444"/>
<stop offset="0.1" stop-color="#222222"/>
<stop offset="0.8" stop-color="#222222"/>
<stop offset="1" stop-color="#444444"/>
</linearGradient>
<linearGradient id="paint49_linear_2585_154905" x1="42.6924" y1="44.7223" x2="74.4368" y2="44.7223" gradientUnits="userSpaceOnUse">
<stop stop-color="#444444"/>
<stop offset="0.1" stop-color="#222222"/>
<stop offset="0.8" stop-color="#222222"/>
<stop offset="1" stop-color="#444444"/>
</linearGradient>
<radialGradient id="paint50_radial_2585_154905" cx="0" cy="0" r="1" gradientUnits="userSpaceOnUse" gradientTransform="translate(68.8581 20.0149) rotate(180) scale(5.23835 5.78148)">
<stop stop-color="#444444"/>
<stop offset="1" stop-color="#222222"/>
</radialGradient>
<radialGradient id="paint51_radial_2585_154905" cx="0" cy="0" r="1" gradientUnits="userSpaceOnUse" gradientTransform="translate(68.8581 20.0149) rotate(180) scale(5.23835 5.78148)">
<stop stop-color="#444444"/>
<stop offset="1" stop-color="#222222"/>
</radialGradient>
<linearGradient id="paint52_linear_2585_154905" x1="25.0917" y1="36.1408" x2="22.7869" y2="36.1408" gradientUnits="userSpaceOnUse">
<stop stop-color="#333333"/>
<stop offset="0.4" stop-color="#555555"/>
<stop offset="0.8" stop-color="#555555"/>
<stop offset="1" stop-color="#444444"/>
</linearGradient>
<radialGradient id="paint53_radial_2585_154905" cx="0" cy="0" r="1" gradientUnits="userSpaceOnUse" gradientTransform="translate(30.7753 36.1408) rotate(-90) scale(11.2519 10.2)">
<stop stop-color="#555555"/>
<stop offset="1" stop-color="#333333"/>
</radialGradient>
<linearGradient id="paint54_linear_2585_154905" x1="36.0399" y1="36.1408" x2="25.5109" y2="36.1408" gradientUnits="userSpaceOnUse">
<stop stop-color="#444444"/>
<stop offset="1" stop-color="#333333"/>
</linearGradient>
<linearGradient id="paint55_linear_2585_154905" x1="48.7165" y1="36.1408" x2="46.4116" y2="36.1408" gradientUnits="userSpaceOnUse">
<stop stop-color="#333333"/>
<stop offset="0.4" stop-color="#555555"/>
<stop offset="0.8" stop-color="#555555"/>
<stop offset="1" stop-color="#444444"/>
</linearGradient>
<radialGradient id="paint56_radial_2585_154905" cx="0" cy="0" r="1" gradientUnits="userSpaceOnUse" gradientTransform="translate(54.4003 36.1408) rotate(-90) scale(11.2519 10.2)">
<stop stop-color="#555555"/>
<stop offset="1" stop-color="#333333"/>
</radialGradient>
<linearGradient id="paint57_linear_2585_154905" x1="59.6647" y1="36.1408" x2="49.1356" y2="36.1408" gradientUnits="userSpaceOnUse">
<stop stop-color="#444444"/>
<stop offset="1" stop-color="#333333"/>
</linearGradient>
<linearGradient id="paint58_linear_2585_154905" x1="25.0917" y1="19.963" x2="22.7869" y2="19.963" gradientUnits="userSpaceOnUse">
<stop stop-color="#333333"/>
<stop offset="0.4" stop-color="#555555"/>
<stop offset="0.8" stop-color="#555555"/>
<stop offset="1" stop-color="#444444"/>
</linearGradient>
<radialGradient id="paint59_radial_2585_154905" cx="0" cy="0" r="1" gradientUnits="userSpaceOnUse" gradientTransform="translate(30.7753 19.963) rotate(-90) scale(11.2519 10.2)">
<stop stop-color="#555555"/>
<stop offset="1" stop-color="#333333"/>
</radialGradient>
<linearGradient id="paint60_linear_2585_154905" x1="36.0399" y1="19.963" x2="25.5109" y2="19.963" gradientUnits="userSpaceOnUse">
<stop stop-color="#444444"/>
<stop offset="1" stop-color="#333333"/>
</linearGradient>
<linearGradient id="paint61_linear_2585_154905" x1="48.7165" y1="19.963" x2="46.4116" y2="19.963" gradientUnits="userSpaceOnUse">
<stop stop-color="#333333"/>
<stop offset="0.4" stop-color="#555555"/>
<stop offset="0.8" stop-color="#555555"/>
<stop offset="1" stop-color="#444444"/>
</linearGradient>
<radialGradient id="paint62_radial_2585_154905" cx="0" cy="0" r="1" gradientUnits="userSpaceOnUse" gradientTransform="translate(54.4003 19.963) rotate(-90) scale(11.2519 10.2)">
<stop stop-color="#555555"/>
<stop offset="1" stop-color="#333333"/>
</radialGradient>
<linearGradient id="paint63_linear_2585_154905" x1="59.6647" y1="19.963" x2="49.1356" y2="19.963" gradientUnits="userSpaceOnUse">
<stop stop-color="#444444"/>
<stop offset="1" stop-color="#333333"/>
</linearGradient>
</defs>
</svg>
