<svg width="1920" height="1080" viewBox="0 0 1920 1080" fill="none" xmlns="http://www.w3.org/2000/svg">
<path d="M1912.39 728.505L7.57485 728.505C3.37493 728.505 0 725.13 0 720.93L0 358.575C0 354.375 3.37493 351 7.57485 351L1912.43 351C1916.63 351 1920 354.375 1920 358.575V720.93C1919.96 725.13 1916.59 728.505 1912.39 728.505Z" fill="#D3DCDC"/>
<path opacity="0.051" d="M1896.68 716.846L23.291 716.846L23.291 362.703L1896.64 362.703L1896.68 716.846Z" fill="black"/>
<path opacity="0.251" d="M962.308 716.846H952.971V362.703H962.308V716.846Z" fill="#E0E6E6"/>
<path opacity="0.251" d="M729.287 716.846H719.949V362.703H729.287V716.846Z" fill="#E0E6E6"/>
<path opacity="0.251" d="M496.302 716.846H486.965V362.703H496.302V716.846Z" fill="#E0E6E6"/>
<path opacity="0.251" d="M263.279 716.846H253.941L253.941 362.703H263.279V716.846Z" fill="#E0E6E6"/>
<path opacity="0.251" d="M1894.35 716.846H1885.02V362.703H1894.35V716.846Z" fill="#E0E6E6"/>
<path opacity="0.251" d="M1661.29 716.846H1651.95V362.703H1661.29V716.846Z" fill="#E0E6E6"/>
<path opacity="0.251" d="M1428.31 716.846H1418.97V362.703H1428.31V716.846Z" fill="#E0E6E6"/>
<path opacity="0.251" d="M1195.32 716.846H1185.99V362.703H1195.32V716.846Z" fill="#E0E6E6"/>
<path opacity="0.251" d="M34.9447 716.846H25.6074L25.6074 362.703H34.9447L34.9447 716.846Z" fill="#E0E6E6"/>
<rect opacity="0.0392" x="23.291" y="709.869" width="1873.35" height="6.97486" fill="black"/>
<rect opacity="0.0392" x="23.291" y="695.872" width="1873.35" height="6.97486" fill="black"/>
<rect opacity="0.0392" x="23.291" y="681.89" width="1873.35" height="6.97486" fill="black"/>
<rect opacity="0.0392" x="23.291" y="667.938" width="1873.35" height="6.97486" fill="black"/>
<rect opacity="0.0392" x="23.291" y="653.91" width="1873.35" height="6.97486" fill="black"/>
<rect opacity="0.0392" x="23.291" y="639.974" width="1873.35" height="6.97486" fill="black"/>
<rect opacity="0.0392" x="23.291" y="626.023" width="1873.35" height="6.97486" fill="black"/>
<rect opacity="0.0392" x="23.291" y="611.994" width="1873.35" height="6.97486" fill="black"/>
<rect opacity="0.0392" x="23.291" y="598.043" width="1873.35" height="6.97486" fill="black"/>
<rect opacity="0.0392" x="23.291" y="584.061" width="1873.35" height="6.97486" fill="black"/>
<rect opacity="0.0392" x="23.291" y="570.063" width="1873.35" height="6.97486" fill="black"/>
<rect opacity="0.0392" x="23.291" y="556.081" width="1873.35" height="6.97486" fill="black"/>
<rect opacity="0.0392" x="23.291" y="542.099" width="1873.35" height="6.97486" fill="black"/>
<rect opacity="0.0392" x="23.291" y="528.102" width="1873.35" height="6.97486" fill="black"/>
<rect opacity="0.0392" x="23.291" y="514.15" width="1873.35" height="6.97486" fill="black"/>
<rect opacity="0.0392" x="23.291" y="500.137" width="1873.35" height="6.97486" fill="black"/>
<rect opacity="0.0392" x="23.291" y="486.187" width="1873.35" height="6.97486" fill="black"/>
<rect opacity="0.0392" x="23.291" y="472.235" width="1873.35" height="6.97486" fill="black"/>
<rect opacity="0.0392" x="23.291" y="458.206" width="1873.35" height="6.97486" fill="black"/>
<rect opacity="0.0392" x="23.291" y="444.255" width="1873.35" height="6.97486" fill="black"/>
<rect opacity="0.0392" x="23.291" y="430.242" width="1873.35" height="6.97486" fill="black"/>
<rect opacity="0.0392" x="23.291" y="416.291" width="1873.35" height="6.97486" fill="black"/>
<rect opacity="0.0392" x="23.291" y="402.293" width="1873.35" height="6.97486" fill="black"/>
<rect opacity="0.0392" x="23.291" y="388.312" width="1873.35" height="6.97486" fill="black"/>
<rect opacity="0.0392" x="23.291" y="374.329" width="1873.35" height="6.97486" fill="black"/>
<rect opacity="0.0392" x="23.291" y="360.378" width="1873.35" height="6.97486" fill="black"/>
</svg>
