<svg width="100" height="43" viewBox="0 0 100 43" fill="none" xmlns="http://www.w3.org/2000/svg">
<g clip-path="url(#clip0_6561_4153)">
<path d="M99.9514 37.5623V42.4174C99.9514 42.4562 99.9417 42.4854 99.9222 42.5145V42.7281C99.9319 42.7475 99.9417 42.7767 99.9417 42.8058C99.9417 42.9126 99.8541 43 99.7472 43H64.1385C64.0315 43 63.944 42.9126 63.944 42.8155L63.9343 42.2815H63.8662C63.837 42.2815 63.8079 42.2717 63.7884 42.262C63.7106 42.2329 63.662 42.1649 63.662 42.0873V41.6115H63.4286V41.5241H63.3508V41.3104H63.4286V40.6502H63.3411V40.4365H63.4189V40.2618H56.4275C56.408 40.2618 56.3983 40.2618 56.3788 40.252C56.2816 40.2423 56.2038 40.1647 56.2038 40.0578C56.2038 39.9996 56.2233 39.951 56.2622 39.9122C56.2913 39.8733 56.3399 39.8539 56.3886 39.8442H61.9214C61.9117 39.8248 61.8923 39.8054 61.8728 39.786C61.8145 39.718 61.7561 39.6403 61.7561 39.4849C61.7561 39.1742 62.1062 39.1742 62.2229 39.1742H62.4174V39.1063H62.6313V38.8538H59.0626H59.0821V39.0383H58.3625V39.0286H58.3431V38.8538H46.5869V39.0286H45.8674V38.8538H41.4625C41.375 38.8538 41.2972 38.7858 41.2874 38.6984C41.2777 38.6693 41.268 38.6499 41.268 38.611C41.268 38.5819 41.2777 38.5528 41.2874 38.5334V32.7947C41.2874 32.7073 41.3555 32.6393 41.443 32.6393H43.9129V32.4743H43.6406V31.5809H11.0171C10.7254 31.5809 10.4434 31.4838 10.21 31.309L9.29599 30.338C8.96538 30.0856 8.77091 29.6972 8.77091 29.2893L8.73201 21.3756L3.00467 20.9969H2.22676V21.094H2.49903V21.7543H0.0291715V21.094H0.797355V20.9969H0.0291715V20.0162H0.797355V11.85H0.0291715V10.8693H0.797355V10.7722H0V10.1022H2.50875V10.7722H2.22676V10.8693H2.94632L8.67367 10.4906L8.63477 2.56717C8.63477 2.18847 8.79035 1.8292 9.07235 1.57674L10.0933 0.644566C10.3364 0.421234 10.6573 0.100803 10.9879 0.100803L80.8246 0.00370407H84.471V0.197906L86.1533 1.94572C86.4061 1.94572 86.6103 2.14963 86.6103 2.4021V6.08222C86.6103 6.33468 86.4061 6.5386 86.1533 6.5386H84.2766V6.56773V6.66483V7.11149H88.3995V7.00468H87.6993C87.5924 7.00468 87.5049 6.91729 87.5049 6.81048V5.43164C87.5146 5.38309 87.534 5.34425 87.5632 5.31512C87.6021 5.28599 87.641 5.26657 87.6896 5.26657H88.2536V5.21802H88.3022V4.73252H88.2536V4.63542H88.3022V4.58686V4.57716H88.4092H88.4578V4.63542H88.5259V4.73252H88.4578V4.81991H91.7834V4.73252H91.725V4.63542H91.7834V4.58686V4.57716H91.9487V4.63542H91.9973V4.73252H91.9487V5.21802H91.9876V5.26657H92.5418C92.5904 5.26657 92.6391 5.28599 92.6682 5.31512C92.7071 5.35396 92.7363 5.40252 92.7363 5.46077V6.80077C92.7363 6.8299 92.7266 6.84932 92.7168 6.87845C92.6877 6.94642 92.6196 7.00468 92.5418 7.00468H91.8417V7.11149H93.8448C94.1365 7.11149 94.3796 7.35424 94.3796 7.64555V17.1129C94.3796 17.4042 94.1365 17.6469 93.8448 17.6469H93.4267V18.181H99.3874C99.6791 18.181 99.9222 18.4237 99.9222 18.7151V22.0068C99.9417 22.0359 99.9514 22.0747 99.9514 22.1039V36.7467C99.9514 36.7855 99.9417 36.8147 99.9222 36.8438V37.4555C99.9417 37.4944 99.9514 37.5235 99.9514 37.5623ZM70.6534 5.95599C70.6243 6.04338 70.5659 6.11135 70.4784 6.14048V6.56773V6.66483V7.66497L70.2742 7.76207H61.3866V8.9467H64.2843L64.6149 8.70395H68.7767L68.9031 8.79134V8.9467H70.4687V8.50003H70.6437V8.24757H70.7021V5.94628H70.6534V5.95599ZM62.6604 33.0277C62.641 33.1054 62.5729 33.154 62.4854 33.1637V33.1928H62.9911V32.6879C62.9911 32.5908 63.0591 32.5228 63.1272 32.5034V32.2315H62.8938C62.8744 32.2315 62.8257 32.2703 62.8257 32.3189V32.8821C62.8257 32.9306 62.7577 33.0083 62.6604 33.0277ZM62.3979 39.281H62.2229C61.9701 39.281 61.8534 39.349 61.8534 39.4947C61.8534 39.6112 61.902 39.6694 61.9506 39.7374C61.9798 39.7665 61.9992 39.8054 62.0187 39.8442C62.0284 39.8345 62.0284 39.8248 62.0284 39.8248L62.0478 39.8636H63.8954L63.8856 38.3586H63.3995V38.3974C63.3995 38.4168 63.3995 38.4265 63.3897 38.446H63.7301V39.1257H63.555V39.4461H63.3508H63.3703V39.5626H62.9911V39.4461H62.4076L62.3979 39.281ZM25.8557 11.6752H28.4228C29.4049 11.6752 30.1828 12.1316 30.8051 12.5006C31.1941 12.7336 31.5733 12.957 31.8261 12.957H32.7888V11.1121H25.8557V11.6752ZM21.48 17.1711H21.9564V13.8503H21.48V17.1711ZM21.48 17.8023V17.8703H21.9467V17.8023H21.48ZM23.7553 13.7241L23.7262 13.7435L23.7165 13.7241H23.2886V13.8503H22.8121V17.1711H23.2886V17.8023H22.8121V17.8703H24.5819V13.7144L23.7553 13.7241ZM25.8557 12.9375V18.6471H28.4228C29.0646 18.6471 29.6188 18.3169 30.1634 17.9965C30.6884 17.6858 31.2233 17.3654 31.8261 17.3654H32.7888V17.2197H30.4745V17.7052V17.7246H30.212V17.7052H30.1925V17.7246H30.0078V17.7052V17.2197H29.823L29.6188 16.9672H28.1797V16.2875H27.781V16.2778L27.6741 16.6274H26.3516L26.0988 16.4332V15.2097L26.3516 15.0058H27.6741L27.781 15.3457H28.1797V14.6562H29.6091L29.8133 14.4038H30.0078V13.9086H30.4745V14.4038H32.7888V14.2387H31.8261C31.2233 14.2387 30.6787 13.9183 30.1634 13.6075C29.6188 13.2871 29.0646 12.957 28.4228 12.957H25.8557V12.9375ZM32.7888 20.5988V18.6277H31.8261C31.5636 18.6277 31.1941 18.851 30.8051 19.084C30.1828 19.453 29.4049 19.9094 28.4228 19.9094H25.8557V20.6571L32.7888 20.5988ZM82.3512 15.4913C82.3318 15.4136 82.3123 15.3262 82.2734 15.2583C82.2443 15.1806 82.2054 15.1126 82.1568 15.0446C82.0692 14.9087 81.9526 14.7922 81.8164 14.7048C81.7484 14.6562 81.6803 14.6174 81.6025 14.5883C81.5247 14.5591 81.4469 14.53 81.3691 14.5106C81.2913 14.4912 81.2038 14.4815 81.1163 14.4815C80.8149 14.4815 80.5329 14.5883 80.3189 14.7728C80.2217 14.8504 80.1439 14.9378 80.0758 15.0349C80.0272 15.1029 79.9883 15.1709 79.9592 15.2486C79.93 15.3262 79.9008 15.4039 79.8814 15.4816C79.8619 15.5593 79.8522 15.6467 79.8522 15.7341C79.8522 15.8214 79.8619 15.9088 79.8814 15.9865C79.9008 16.0642 79.9203 16.1516 79.9592 16.2196C79.9883 16.2972 80.0272 16.3652 80.0758 16.4332C80.1439 16.5303 80.2217 16.6274 80.3189 16.6954C80.5329 16.8701 80.8149 16.9867 81.1163 16.9867C81.2038 16.9867 81.2913 16.9769 81.3691 16.9575C81.4469 16.9381 81.5344 16.9187 81.6025 16.8798C81.6803 16.8507 81.7484 16.8119 81.8164 16.7633C81.9526 16.6759 82.0692 16.5594 82.1568 16.4235C82.2054 16.3555 82.2443 16.2875 82.2734 16.2099C82.3026 16.1322 82.3318 16.0545 82.3512 15.9768C82.3707 15.8991 82.3804 15.8117 82.3804 15.7243C82.3804 15.637 82.361 15.5787 82.3512 15.4913ZM70.0603 20.4726L69.2435 19.1423L69.2338 20.4726H70.0603ZM70.0117 12.7628L69.2338 14.0251L69.2435 17.5401L70.3812 19.3851V12.151L70.0117 12.7628ZM69.2435 12.2578L70.177 10.7625H69.2338L69.2435 12.2578ZM63.944 31.5809H63.5259V32.4743C63.5259 32.5616 63.4578 32.6393 63.38 32.6587H63.3897V33.1831H63.944V31.5809ZM62.7771 38.4363H62.9911V38.3489H62.7771V38.4363ZM44.8075 31.5906H44.8269V32.649H45.8674V32.5228H46.6064V32.649H58.3431V32.5228H59.0821V32.649H62.2909C62.3687 32.649 62.4465 32.6976 62.4757 32.7656C62.5632 32.7656 62.641 32.8335 62.6604 32.9112C62.7091 32.9015 62.7188 32.8627 62.7188 32.8627V32.3092C62.7188 32.2024 62.8063 32.1247 62.8841 32.1247H63.1272V31.5712L44.8075 31.5906ZM8.71256 17.4236L8.70284 14.462L7.43874 15.9283L8.71256 17.4236ZM56.9137 8.88844H57.8569V8.95641H59.2377V8.8496H59.4224V7.77178H56.8942V8.88844H56.9137ZM88.5161 7.11149H91.725V7.00468H88.5161V7.11149ZM92.2695 6.68425H92.3473V5.66469H91.9487V5.83947H92.0167V5.93657H91.9487V6.02396V6.03367H91.8514V6.61628H92.1237C92.1723 6.60656 92.2307 6.6357 92.2695 6.68425ZM88.3022 5.83947V5.66469H87.8841V6.69396V6.68425H87.9619C88.0008 6.6357 88.0494 6.60657 88.1175 6.60657H88.3897V6.02396H88.3022V5.93657H88.2536V5.83947H88.3022ZM91.6764 5.21802V5.17918H88.5939V5.21802H88.6328V5.31512H88.5939V5.41222H91.6764V5.31512H91.6083V5.21802H91.6764ZM8.72229 18.7927L6.81641 16.6662L3.94788 20.0162H8.73201L8.72229 18.7927ZM2.22676 11.85V20.0162H2.49903L6.16492 15.9283L2.49903 11.8403H2.22676V11.85ZM3.93816 11.85L6.81641 15.2097L8.69312 13.1123L8.68339 11.85H3.93816Z" fill="black"/>
<path d="M99.7665 42.9807H64.2161C64.1092 42.9807 64.0217 42.8933 64.0217 42.7962L64.0119 42.2622H63.905C63.8077 42.2622 63.7299 42.1748 63.7299 42.0777V41.6019H63.4966V41.5242H63.4188V41.3106H63.4966V40.6503H63.4188V40.4367H63.4966V40.2619H56.5051C56.3982 40.2619 56.3009 40.1842 56.2912 40.0774C56.2815 39.9512 56.3787 39.8541 56.4954 39.8541H61.9991C61.9894 39.8346 61.9699 39.8152 61.9505 39.7958C61.8921 39.7278 61.8338 39.6502 61.8338 39.4948C61.8338 39.1841 62.1839 39.1841 62.3005 39.1841H62.495V39.0967H62.7089V38.8442H59.1403V39.019H58.4207V38.8442H46.6646V39.019H45.945V38.8442H41.5401C41.4429 38.8442 41.3651 38.7665 41.3651 38.6694V32.7851C41.3651 32.6977 41.4332 32.6298 41.5207 32.6298H43.9905V32.455H43.728V31.5616H11.0948C10.8031 31.5616 10.5211 31.4645 10.2877 31.2898L9.37367 30.3187C9.04306 30.0663 8.84858 29.6779 8.84858 29.2701L8.72217 2.55759C8.72217 2.17889 8.87775 1.81962 9.15974 1.56716L10.1807 0.634991C10.4238 0.411659 10.7447 0.0912247 11.0753 0.0912247L80.912 -0.00587463H84.5584V0.188324L86.2406 1.93614C86.4935 1.93614 86.6977 2.14005 86.6977 2.39252V6.05322C86.6977 6.30568 86.4935 6.5096 86.2406 6.5096H84.3639V7.09221H88.4674V6.98539H87.7673C87.6603 6.98539 87.5728 6.898 87.5728 6.79119V5.45119C87.5728 5.34438 87.6603 5.25699 87.7673 5.25699H88.3313V5.19873H88.3799V4.71323H88.3313V4.61613H88.3799V4.56758H88.5355V4.62584H88.6035V4.72294H88.5355V4.81033H91.861V4.72294H91.8027V4.62584H91.861V4.57729H92.0166V4.62584H92.0749V4.72294H92.0166V5.14047V5.20844H92.0555V5.2667H92.6098C92.7167 5.2667 92.8042 5.3541 92.8042 5.46091V6.8009C92.8042 6.90771 92.7167 6.9951 92.6195 6.9951H91.9194V7.10191H93.9225C94.2142 7.10191 94.4573 7.34467 94.4573 7.63597V17.1033C94.4573 17.3946 94.2142 17.6374 93.9225 17.6374H93.5043V18.1714H99.4651C99.7568 18.1714 99.9999 18.4142 99.9999 18.7055V42.738C99.9999 42.8739 99.8929 42.9807 99.7665 42.9807ZM22.0244 11.6657H21.5479V13.2484H22.0244V11.6657ZM22.0244 13.8407H21.5479V17.1519H22.0244V13.8407ZM22.0244 17.783H21.5576V20.0358H22.0244V17.783ZM24.6693 11.1025H23.9497V11.6657H22.8704V13.2484H23.3566V13.8407H22.8704V17.1519H23.3566V17.783H22.8704V20.0358H23.9497V20.6378H24.6693V11.1025ZM34.4223 17.2004H30.5522V17.6859H30.0757V17.2004H29.891L29.6868 16.948H28.2671V16.2585H27.849L27.742 16.6081H26.4196L26.1667 16.4139V15.1904L26.4196 14.9865H27.742L27.849 15.3264H28.2671V14.6369H29.6868L29.891 14.3845H30.0757V13.8893H30.5522V14.3845H34.4223V11.1122H25.9334V20.6572H34.4223V17.2004ZM38.0104 12.4328C37.9326 12.4133 37.5047 12.5201 37.5047 12.5201V12.6075H37.1644V12.3939H37.0574V13.8601H37.4367V13.9378H37.6117L37.6895 13.899L37.602 13.8116V13.0057L37.7576 12.8503H37.9715L37.9326 12.7532L38.1271 12.627C38.1173 12.627 38.0784 12.4522 38.0104 12.4328ZM37.9229 18.822L37.9618 18.7249H37.7478L37.5923 18.5695V17.7636L37.6798 17.6762L37.602 17.6374H37.427V17.715H37.0477V19.1813H37.1547V18.9676H37.495V19.055C37.495 19.055 37.9229 19.1521 38.0007 19.1424C38.0784 19.1327 38.1076 18.9482 38.1076 18.9482L37.9229 18.822ZM70.1574 20.4533L69.3212 19.1133L69.3114 20.4533H70.1574ZM69.3212 17.5208L70.4588 19.3658L70.5075 12.0638L69.3114 14.0058L69.3212 17.5208ZM69.3212 12.2386L70.2546 10.7432H69.3114L69.3212 12.2386ZM64.0217 33.1735V31.5616H63.5938V32.455C63.5938 32.6006 63.4577 32.6395 63.4577 32.6395V33.1735H64.0217ZM62.4853 39.4268V39.2715H62.2908C62.038 39.2715 61.9213 39.3394 61.9213 39.4851C61.9213 39.6016 61.9699 39.6599 62.0185 39.7278C62.0477 39.7667 62.0769 39.8055 62.0963 39.8541H63.9633V38.3102H63.4577V38.4267H63.798V39.0967H63.623V39.4171H63.4382V39.5336H63.0784V39.4171H62.4853V39.4268ZM63.0784 38.417V38.3004H62.8645V38.417H63.0784ZM62.5631 33.1735H63.0687V32.6686C63.0687 32.5715 63.1368 32.5035 63.2049 32.4841V32.2122H62.9618C62.9423 32.2122 62.8937 32.2511 62.8937 32.2996V32.8531C62.8937 32.9113 62.8256 32.9987 62.7187 32.9987C62.6992 33.0667 62.6409 33.1153 62.5631 33.1347V33.1735ZM59.5001 7.75249H56.9621V8.93712H59.3056V8.83031H59.4903L59.5001 7.75249ZM44.8851 31.5714V32.6395H45.945V32.5132H46.6646V32.6395H58.4207V32.5132H59.1403V32.6395H62.3589C62.4367 32.6395 62.5145 32.688 62.5436 32.756C62.6311 32.7657 62.6992 32.824 62.7187 32.9113C62.777 32.9016 62.7965 32.8628 62.7965 32.8628V32.3093C62.7965 32.2025 62.884 32.1248 62.9618 32.1248H63.2049V31.5714H44.8851ZM70.7992 5.9367H70.5658V7.64568L70.3616 7.74278H61.474V8.92741H64.3717L64.7023 8.68466H68.8641L68.9905 8.77205V8.92741H70.5561V8.48075H70.7895V5.9367H70.7992ZM81.194 14.4719C80.5036 14.4719 79.9396 15.0351 79.9396 15.7245C79.9396 16.4139 80.5036 16.9771 81.194 16.9771C81.8844 16.9771 82.4483 16.4139 82.4483 15.7245C82.4483 15.0351 81.8844 14.4719 81.194 14.4719ZM88.4674 6.01438H88.3799V5.92699H88.3313V5.82989H88.3799V5.65511H87.9618V6.68438H88.0396C88.0784 6.63583 88.1271 6.6067 88.1951 6.6067H88.4674V6.01438ZM91.7541 5.29584H91.686V5.19873H91.7541V5.15989H88.6716V5.19873H88.7105V5.29584H88.6716V5.39294H91.7541V5.29584ZM92.2111 6.59699C92.2889 6.59699 92.3472 6.67467 92.3472 6.67467H92.425V5.6454H92.0263V5.82018H92.0944V5.91728H92.0263V6.00467H91.9194V6.58728C91.9194 6.59699 92.1333 6.59699 92.2111 6.59699ZM91.8027 6.98539H88.5938V7.09221H91.8027V6.98539Z" fill="#FED100"/>
<path d="M72.608 36.6594C73.4458 36.6594 74.1249 37.3376 74.1249 38.1742C74.1249 39.0108 73.4458 39.689 72.608 39.689C71.7702 39.689 71.0911 39.0108 71.0911 38.1742C71.0911 37.3376 71.7702 36.6594 72.608 36.6594Z" fill="#3F3F3F"/>
<path opacity="0.2" d="M93.2421 17.5401C93.3685 17.5401 93.4658 17.443 93.4658 17.3167V16.9866H93.2324C92.9212 16.9866 92.6781 16.7341 92.6781 16.4331V14.9183C92.6781 14.6076 92.931 14.3649 93.2324 14.3649H93.8256V11.5489H93.1546C92.8726 11.5489 92.649 11.3256 92.649 11.044V9.41272C92.649 9.13112 92.8726 8.90779 93.1546 8.90779H93.8256V8.57764C93.8256 8.4417 93.7186 8.32518 93.5727 8.32518H91.6766V7.62606C91.6766 7.49012 91.5696 7.3833 91.4335 7.3833H84.2281C84.1017 7.3833 84.0045 7.4804 84.0045 7.60664V17.3167C84.0045 17.443 84.1017 17.5401 84.2281 17.5401H93.2421ZM51.7019 4.38288H48.2596C48.0943 4.38288 47.9679 4.25665 47.9679 4.09158V1.04261C47.9679 0.877541 48.0943 0.751308 48.2596 0.751308H51.7019C51.8672 0.751308 51.9936 0.877541 51.9936 1.04261V4.09158C51.9936 4.25665 51.8672 4.38288 51.7019 4.38288ZM47.4623 4.38288H26.0309C25.8656 4.38288 25.7392 4.25665 25.7392 4.09158V1.04261C25.7392 0.877541 25.8656 0.751308 26.0309 0.751308H47.4623C47.6276 0.751308 47.754 0.877541 47.754 1.04261V4.09158C47.754 4.25665 47.6276 4.38288 47.4623 4.38288ZM25.2239 4.38288H16.978C16.8127 4.38288 16.6863 4.25665 16.6863 4.09158V1.04261C16.6863 0.877541 16.8127 0.751308 16.978 0.751308H25.2239C25.3892 0.751308 25.5156 0.877541 25.5156 1.04261V4.09158C25.5156 4.25665 25.3892 4.38288 25.2239 4.38288ZM16.1807 6.20839H13.2441C13.0788 6.20839 12.9524 6.08215 12.9524 5.91708V1.02319C12.9524 0.858124 13.0788 0.731892 13.2441 0.731892H16.1807C16.346 0.731892 16.4724 0.858124 16.4724 1.02319V5.91708C16.4724 6.08215 16.3363 6.20839 16.1807 6.20839ZM18.9325 26.0073H23.4152C23.5805 26.0073 23.7069 26.1335 23.7069 26.2986V30.1049C23.7069 30.27 23.5805 30.3962 23.4152 30.3962H18.9325C18.7672 30.3962 18.6408 30.27 18.6408 30.1049V26.2986C18.6408 26.1335 18.7672 26.0073 18.9325 26.0073ZM56.593 30.3962H32.4098C32.2445 30.3962 32.1181 30.27 32.1181 30.1049V23.2496C32.1181 23.0845 32.2445 22.9583 32.4098 22.9583H56.593C56.7583 22.9583 56.8847 23.0845 56.8847 23.2496V30.1049C56.8944 30.2603 56.7583 30.3962 56.593 30.3962ZM24.1834 27.6483H31.6027C31.768 27.6483 31.8944 27.7745 31.8944 27.9396V30.0952C31.8944 30.2603 31.768 30.3865 31.6027 30.3865H24.1834C24.0181 30.3865 23.8917 30.2603 23.8917 30.0952V27.9396C23.8917 27.7842 24.0278 27.6483 24.1834 27.6483ZM63.74 30.3962H57.4292C57.2639 30.3962 57.1375 30.27 57.1375 30.1049V27.9493C57.1375 27.7842 57.2639 27.658 57.4292 27.658H63.74C63.9053 27.658 64.0317 27.7842 64.0317 27.9493V30.1049C64.0414 30.2603 63.9053 30.3962 63.74 30.3962ZM70.4786 30.3962H64.586C64.4207 30.3962 64.2942 30.27 64.2942 30.1049V27.9493C64.2942 27.7842 64.4207 27.658 64.586 27.658H70.4786C70.6439 27.658 70.7703 27.7842 70.7703 27.9493V30.1049C70.7703 30.2603 70.6439 30.3962 70.4786 30.3962ZM74.971 32.1732V36.0572C74.971 36.2223 74.8446 36.3485 74.6793 36.3485H71.2662C71.1009 36.3485 70.9745 36.2223 70.9745 36.0572V32.1732C70.9745 32.0081 71.1009 31.8819 71.2662 31.8819H74.6793C74.8446 31.8819 74.971 32.0081 74.971 32.1732ZM75.9142 37.8536H98.9792C99.1445 37.8536 99.2709 37.9798 99.2709 38.1449V41.9221C99.2709 42.0872 99.1445 42.2134 98.9792 42.2134H75.9142C75.7489 42.2134 75.6225 42.0872 75.6225 41.9221V38.1546C75.6225 37.9895 75.7587 37.8536 75.9142 37.8536ZM71.2662 40.0384H74.6793C74.8446 40.0384 74.971 40.1646 74.971 40.3297V41.9318C74.971 42.0969 74.8446 42.2231 74.6793 42.2231H71.2662C71.1009 42.2231 70.9745 42.0969 70.9745 41.9318V40.3394C70.9745 40.1743 71.1009 40.0384 71.2662 40.0384ZM70.4786 42.262H65.1499C64.9846 42.262 64.8582 42.1357 64.8582 41.9707V32.1926C64.8582 32.0275 64.9846 31.9013 65.1499 31.9013H70.4786C70.6439 31.9013 70.7703 32.0275 70.7703 32.1926V41.9707C70.7703 42.126 70.6439 42.262 70.4786 42.262ZM15.1986 25.0848H18.1352C18.3005 25.0848 18.4269 25.211 18.4269 25.3761V30.1729C18.4269 30.338 18.3005 30.4642 18.1352 30.4642H15.1986C15.0333 30.4642 14.9069 30.338 14.9069 30.1729V25.3761C14.9069 25.211 15.0333 25.0848 15.1986 25.0848ZM16.9294 7.17939V24.1235C16.9294 24.2886 16.803 24.4148 16.6377 24.4148H13.2441C13.0788 24.4148 12.9524 24.2886 12.9524 24.1235V7.17939C12.9524 7.01432 13.0788 6.88809 13.2441 6.88809H16.6377C16.803 6.88809 16.9294 7.02403 16.9294 7.17939ZM56.029 4.38288H52.4701C52.3047 4.38288 52.1783 4.25665 52.1783 4.09158V1.04261C52.1783 0.877541 52.3047 0.751308 52.4701 0.751308H56.029C56.1943 0.751308 56.3207 0.877541 56.3207 1.04261V4.09158C56.3207 4.25665 56.1943 4.38288 56.029 4.38288ZM74.4168 1.04261C74.4168 0.877541 74.5432 0.751308 74.7085 0.751308H84.0725C84.2378 0.751308 84.3643 0.877541 84.3643 1.04261V5.92679C84.3643 6.09186 84.2378 6.21809 84.0725 6.21809L74.7085 6.26664C74.5432 6.26664 74.4168 6.14042 74.4168 5.97534V1.04261ZM12.0286 9.88851H9.73377C9.55874 9.88851 9.42261 9.75257 9.42261 9.57779V2.70304C9.42261 2.62536 9.45178 2.55739 9.51012 2.50884L11.2701 0.80957C11.3188 0.761021 11.3868 0.731892 11.4549 0.731892H12.0675C12.2231 0.731892 12.3398 0.85812 12.3398 1.00377V9.57779C12.3398 9.75257 12.1939 9.88851 12.0286 9.88851Z" fill="url(#paint0_radial_6561_4153)"/>
<path d="M16.6764 23.7061H13.137V8.14077H16.6764V23.7061Z" fill="url(#paint1_linear_6561_4153)"/>
<path opacity="0.1" d="M98.9209 18.4045H93.3881C93.2228 18.4045 93.0866 18.2782 93.0769 18.1132C93.0672 17.9481 92.9311 17.8218 92.7657 17.8218H84.3352C84.1699 17.8218 84.0435 17.9481 84.0435 18.1132V20.9582C84.0435 21.1233 84.1699 21.2495 84.3352 21.2495H98.9112C99.0765 21.2495 99.2029 21.1233 99.2029 20.9582V18.6958C99.2127 18.5307 99.0862 18.4045 98.9209 18.4045Z" fill="url(#paint2_radial_6561_4153)"/>
<path d="M77.9271 23.1527V26.9882H97.9193V33.6784H77.9271V37.4265H75.9434C75.642 37.4265 75.6226 37.1061 75.6226 37.1061V23.4828C75.6226 23.4828 75.642 23.1624 75.9434 23.1624C76.2546 23.1527 77.9271 23.1527 77.9271 23.1527Z" fill="url(#paint3_radial_6561_4153)"/>
<path opacity="0.4" d="M97.3554 25.3083C97.1804 25.3083 97.0345 25.454 97.0345 25.6287V26.0657C97.0345 26.2405 97.1804 26.3861 97.3554 26.3861H97.9291V34.261H97.3554C97.1804 34.261 97.0345 34.4067 97.0345 34.5815V35.0184C97.0345 35.1932 97.1804 35.3388 97.3554 35.3388H97.9291V35.6981C97.9291 35.8243 97.8999 35.9409 97.8416 36.0477L97.2193 37.2323C97.1609 37.3488 97.0345 37.4265 96.8984 37.4265H84.7436V36.9507C84.7436 36.7856 84.6074 36.6497 84.4421 36.6497H83.7906C83.6253 36.6497 83.4892 36.7856 83.4892 36.9507V37.4265H75.9532C75.7782 37.4265 75.6323 37.2809 75.6323 37.1061V23.4828C75.6323 23.308 75.7782 23.1624 75.9532 23.1624H84.9478V23.6576C84.9478 23.8227 85.0839 23.9586 85.2492 23.9586H85.9007C86.066 23.9586 86.2021 23.8227 86.2021 23.6576V23.1624H88.6817V23.9877C88.6817 24.1528 88.8179 24.2888 88.9832 24.2888H89.6347C89.8 24.2888 89.9361 24.1528 89.9361 23.9877V23.1624H96.9081C97.0442 23.1624 97.1706 23.2401 97.229 23.3566L97.8416 24.5121C97.8999 24.6189 97.9291 24.7451 97.9291 24.8714V25.3083H97.3554Z" fill="url(#paint4_linear_6561_4153)"/>
<path d="M79.3467 10.5198H78.2673V8.2379H79.3467V10.5198Z" fill="url(#paint5_radial_6561_4153)"/>
<path opacity="0.15" d="M59.4031 24.182C59.7146 24.182 59.9671 24.4341 59.9671 24.7452C59.9671 25.0562 59.7146 25.3083 59.4031 25.3083C59.0916 25.3083 58.8391 25.0562 58.8391 24.7452C58.8391 24.4341 59.0916 24.182 59.4031 24.182Z" fill="white"/>
<path d="M62.6315 22.2785H57.9738C57.6821 22.2785 57.4195 22.4435 57.2834 22.6863H56.9819V8.93679H63.3122V22.6863C63.1857 22.4435 62.9329 22.2785 62.6315 22.2785Z" fill="url(#paint6_linear_6561_4153)"/>
<path d="M25.9336 20.6376V21.5989H31.5637L31.904 21.7349H58.1001V20.6765L61.3089 17.4721V14.3164L57.9348 10.9469V8.86899H56.9915V10.1507H25.9336V11.1023H32.8667V20.5794L25.9336 20.6376Z" fill="url(#paint7_linear_6561_4153)"/>
<path d="M52.256 19.3558H51.6239V21.6377H50.2334V10.2089H51.6239V12.1801H52.256V19.3558Z" fill="#0C0C0C"/>
<path d="M55.3288 20.6765H52.2561V10.8305H55.3288V20.6765Z" fill="url(#paint8_linear_6561_4153)"/>
<path d="M56.6803 21.6377H55.2996V10.1992H56.6803V21.6377Z" fill="url(#paint9_linear_6561_4153)"/>
<path d="M39.2164 16.8701V16.5108H37.6509V16.8701H39.2164Z" fill="url(#paint10_linear_6561_4153)"/>
<path d="M35.0449 17.6955H38.283V21.531H40.2764V20.7348H50.2044L50.2336 10.7722H40.2958V10.1605H35.0449V17.6955Z" fill="url(#paint11_radial_6561_4153)"/>
<path d="M50.1752 20.8318H41.3557V19.6763H50.1752V20.8318Z" fill="url(#paint12_linear_6561_4153)"/>
<path d="M69.3116 20.4531H63.0786V10.743H69.3116V20.4531Z" fill="url(#paint13_linear_6561_4153)"/>
<path opacity="0.1" d="M28.0242 24.5411V25.2305H29.5703C29.2396 26.318 28.2284 27.1143 27.0323 27.1143C25.5738 27.1143 24.3875 25.9296 24.3875 24.4731C24.3875 23.0166 25.5738 21.832 27.0323 21.832C28.4909 21.832 29.6772 23.0166 29.6772 24.4731V24.5508H28.0242V24.5411Z" fill="url(#paint14_radial_6561_4153)"/>
<path opacity="0.1" d="M28.0242 24.5411V25.2305H29.5703C29.2396 26.318 28.2284 27.1143 27.0323 27.1143C25.5738 27.1143 24.3875 25.9296 24.3875 24.4731C24.3875 23.0166 25.5738 21.832 27.0323 21.832C28.4909 21.832 29.6772 23.0166 29.6772 24.4731V24.5508H28.0242V24.5411Z" fill="black"/>
<path opacity="0.15" d="M28.0242 24.5412V25.2306H28.209C28.0631 25.619 27.6839 25.9006 27.2463 25.9006C26.6726 25.9006 26.2156 25.4346 26.2156 24.8714C26.2156 24.3082 26.6823 23.8421 27.2463 23.8421C27.7033 23.8421 28.0923 24.1431 28.2284 24.5509L28.0242 24.5412Z" fill="url(#paint15_radial_6561_4153)"/>
<path opacity="0.2" d="M29.5703 25.2305H28.0242V24.5411H29.5703V25.2305Z" fill="url(#paint16_linear_6561_4153)"/>
<path opacity="0.25" d="M63.0008 33.6199V37.9215C63.0008 38.0477 62.9522 38.1545 62.6508 38.1545H60.5893C60.2879 38.1545 60.2393 38.0477 60.2393 37.9215V33.6199C60.2393 33.4937 60.2879 33.3869 60.5893 33.3869H62.6508C62.9522 33.3869 63.0008 33.4937 63.0008 33.6199Z" fill="url(#paint17_linear_6561_4153)"/>
<path opacity="0.25" d="M49.5432 33.6199V37.9215C49.5432 37.97 49.5529 38.0283 49.5821 38.0672C49.5334 38.1254 49.4459 38.1545 49.2709 38.1545H47.2094C46.908 38.1545 46.8594 38.0477 46.8594 37.9215V33.6199C46.8594 33.4937 46.908 33.3869 47.2094 33.3869H49.2709C49.4459 33.3869 49.5432 33.4257 49.5918 33.4743C49.5529 33.5131 49.5432 33.5617 49.5432 33.6199Z" fill="url(#paint18_linear_6561_4153)"/>
<path opacity="0.25" d="M52.2073 33.6199V37.9215C52.2073 37.9798 52.2171 38.038 52.2657 38.0769C52.2171 38.1254 52.1296 38.1545 51.9642 38.1545H49.9028C49.6014 38.1545 49.5527 38.0477 49.5527 37.9215V33.6199C49.5527 33.4937 49.6014 33.3869 49.9028 33.3869H51.9642C52.1296 33.3869 52.2171 33.416 52.2657 33.4646C52.2171 33.5034 52.2073 33.5617 52.2073 33.6199Z" fill="url(#paint19_linear_6561_4153)"/>
<path opacity="0.25" d="M54.8816 33.6199V37.9215C54.8816 37.9798 54.8913 38.0283 54.9302 38.0769C54.8816 38.1254 54.7941 38.1545 54.6288 38.1545H52.5673C52.2659 38.1545 52.2173 38.0477 52.2173 37.9215V33.6199C52.2173 33.4937 52.2659 33.3869 52.5673 33.3869H54.6288C54.7941 33.3869 54.8913 33.416 54.94 33.4646C54.8913 33.5131 54.8816 33.5617 54.8816 33.6199Z" fill="url(#paint20_linear_6561_4153)"/>
<path opacity="0.25" d="M57.5654 33.6199V37.9215C57.5654 37.9798 57.5751 38.0283 57.6043 38.0672C57.5556 38.1254 57.4681 38.1545 57.2931 38.1545H55.2316C54.9302 38.1545 54.8816 38.0477 54.8816 37.9215V33.6199C54.8816 33.4937 54.9302 33.3869 55.2316 33.3869H57.2931C57.4681 33.3869 57.5654 33.416 57.614 33.4743C57.5751 33.5131 57.5654 33.5617 57.5654 33.6199Z" fill="url(#paint21_linear_6561_4153)"/>
<path opacity="0.25" d="M60.2296 33.6199V37.9215C60.2296 37.9798 60.2393 38.038 60.2879 38.0769C60.2393 38.1254 60.1518 38.1545 59.9865 38.1545H57.925C57.6236 38.1545 57.575 38.0477 57.575 37.9215V33.6199C57.575 33.4937 57.6236 33.3869 57.925 33.3869H59.9865C60.1518 33.3869 60.2393 33.416 60.2879 33.4646C60.2393 33.5034 60.2296 33.5617 60.2296 33.6199Z" fill="url(#paint22_linear_6561_4153)"/>
<path opacity="0.25" d="M46.8496 33.6199V37.9215C46.8496 37.9798 46.8594 38.0283 46.8983 38.0769C46.8496 38.1254 46.7621 38.1545 46.5968 38.1545H44.5354C44.2339 38.1545 44.1853 38.0477 44.1853 37.9215V33.6199C44.1853 33.4937 44.2339 33.3869 44.5354 33.3869H46.5968C46.7621 33.3869 46.8594 33.416 46.908 33.4646C46.8594 33.5131 46.8496 33.5617 46.8496 33.6199Z" fill="url(#paint23_linear_6561_4153)"/>
<path opacity="0.25" d="M44.1854 33.6199V37.9215C44.1854 37.9798 44.1951 38.038 44.2437 38.0769C44.1951 38.1254 44.1076 38.1545 43.9423 38.1545H41.8808C41.5794 38.1545 41.5308 38.0477 41.5308 37.9215V33.6199C41.5308 33.4937 41.5794 33.3869 41.8808 33.3869H43.9423C44.1076 33.3869 44.1951 33.416 44.2437 33.4646C44.1951 33.5034 44.1854 33.5617 44.1854 33.6199Z" fill="url(#paint24_linear_6561_4153)"/>
<path opacity="0.25" d="M83.7905 36.6497H84.442C84.6073 36.6497 84.7434 36.7856 84.7434 36.9507V37.4265H83.4988V36.9507C83.4891 36.7856 83.6252 36.6497 83.7905 36.6497Z" fill="url(#paint25_linear_6561_4153)"/>
<path opacity="0.25" d="M89.9166 23.978V23.1527H88.6719V23.978C88.6719 24.1431 88.8081 24.2791 88.9734 24.2791H89.6249C89.7805 24.2791 89.9166 24.1431 89.9166 23.978ZM85.8909 23.9489H85.2394C85.0741 23.9489 84.938 23.813 84.938 23.6479V23.1527H86.1826V23.6479C86.1924 23.813 86.0562 23.9489 85.8909 23.9489Z" fill="url(#paint26_linear_6561_4153)"/>
<path opacity="0.25" d="M97.3553 26.3764H97.929V25.3083H97.3553C97.1803 25.3083 97.0344 25.4539 97.0344 25.6287V26.0657C97.0344 26.2307 97.1803 26.3764 97.3553 26.3764ZM97.3553 35.3291C97.1803 35.3291 97.0344 35.1834 97.0344 35.0087V34.5717C97.0344 34.3969 97.1803 34.2513 97.3553 34.2513H97.929V35.3194H97.3553V35.3291Z" fill="url(#paint27_linear_6561_4153)"/>
<path d="M47.3163 9.32544H41.3362V8.41269H47.3163V9.32544Z" fill="url(#paint28_linear_6561_4153)"/>
<path d="M54.4243 9.32544H48.4441V8.41269H54.4243V9.32544Z" fill="url(#paint29_linear_6561_4153)"/>
<path d="M56.9916 22.6863H31.9041V21.7347H56.9916V22.6863Z" fill="url(#paint30_linear_6561_4153)"/>
<path d="M24.6501 21.5989H25.9337V10.1604H24.6501V21.5989ZM34.4421 21.5989V10.1604H35.0547V21.5989H34.4421Z" fill="url(#paint31_linear_6561_4153)"/>
<path d="M26.4198 14.9766L26.167 15.1805V16.4137L26.4198 16.6079V14.9766Z" fill="url(#paint32_linear_6561_4153)"/>
<path d="M14.2748 18.1227L14.0317 18.414V20.1424L14.2748 20.4143V18.1227Z" fill="url(#paint33_linear_6561_4153)"/>
<path d="M24.9612 20.4143L25.7294 20.1327V18.4043L24.9612 18.1227V20.4143Z" fill="url(#paint34_linear_6561_4153)"/>
<path d="M14.2553 11.1413L14.0024 11.4326V13.161L14.2553 13.4329V11.1413Z" fill="url(#paint35_linear_6561_4153)"/>
<path d="M29.8912 14.3746L29.687 14.627V16.9477L29.8912 17.2002V14.3746Z" fill="url(#paint36_linear_6561_4153)"/>
<path d="M27.7422 16.6079L27.8589 16.2486V15.3165L27.7422 14.9766V16.6079Z" fill="url(#paint37_linear_6561_4153)"/>
<path d="M12.466 21.8999H9.77246V9.93707H12.466V21.8999Z" fill="url(#paint38_linear_6561_4153)"/>
<path d="M13.1467 21.8999H12.4661V9.93707H13.1467V21.8999Z" fill="url(#paint39_linear_6561_4153)"/>
<path opacity="0.5" d="M22.8706 17.1516H22.0247V13.821H22.8706V17.1516Z" fill="url(#paint40_linear_6561_4153)"/>
<path d="M39.0122 10.1506V8.8689H41.3362V9.32528H47.3164V8.8689H48.4443V9.32528H54.4342V8.8689H56.9916V10.1506H39.0122Z" fill="url(#paint41_linear_6561_4153)"/>
<path d="M38.2925 10.1604H25.8655V8.98548H38.2925V10.1604Z" fill="url(#paint42_linear_6561_4153)"/>
<path d="M27.2464 24.2012C27.6116 24.2012 27.9076 24.4968 27.9076 24.8614C27.9076 25.2261 27.6116 25.5217 27.2464 25.5217C26.8812 25.5217 26.5852 25.2261 26.5852 24.8614C26.5852 24.4968 26.8812 24.2012 27.2464 24.2012Z" fill="url(#paint43_radial_6561_4153)"/>
<path opacity="0.5" d="M29.9593 25.2305H29.5703V24.5411H29.9593V25.2305Z" fill="url(#paint44_linear_6561_4153)"/>
<path d="M25.6127 22.366C25.039 22.366 24.543 22.5893 24.1055 23.0262C23.7651 23.3758 23.7651 23.8613 23.7651 24.3371V24.4925H23.9596V24.3371C23.9596 23.8807 23.9499 23.4535 24.2416 23.1622C24.5528 22.8417 25.0779 22.4436 25.9822 22.5893C26.8865 22.7349 27.5963 23.4049 27.9269 23.939C28.0825 24.1915 28.0728 24.308 28.0534 24.3565C28.0339 24.4051 28.0145 24.4536 28.0047 24.4536V24.541H28.1798C28.1992 24.5119 28.1895 24.5216 28.2284 24.4439C28.3062 24.308 28.2478 24.0846 28.0922 23.8322C27.7422 23.269 26.9837 22.5504 26.0113 22.3951C25.8849 22.3757 25.7488 22.366 25.6127 22.366Z" fill="url(#paint45_radial_6561_4153)"/>
<path opacity="0.5" d="M23.6487 24.4925V24.9392H24.096V24.4925" fill="url(#paint46_radial_6561_4153)"/>
<path d="M70.7411 20.4532H60.2782C60.1421 20.4532 60.0254 20.5697 60.0254 20.7057V21.0261C60.0254 21.162 60.1421 21.2786 60.2782 21.2786H70.7411V20.4532Z" fill="url(#paint47_radial_6561_4153)"/>
<path d="M73.4736 21.2786H71.8789V20.4532H73.4736V21.2786Z" fill="url(#paint48_linear_6561_4153)"/>
<path d="M70.741 9.91786H60.2004C60.1031 9.91786 60.0156 9.99554 60.0156 10.1024V10.5684C60.0156 10.6655 60.0934 10.7529 60.2004 10.7529H70.741V9.91786Z" fill="url(#paint49_radial_6561_4153)"/>
<path d="M71.8886 19.7832V11.5394H70.7412V19.7832H71.8886ZM71.8789 22.9002C71.8789 22.9973 71.8011 23.075 71.7038 23.075H70.9065C70.8092 23.075 70.7314 22.9973 70.7314 22.9002V20.4532H71.8789V22.9002ZM70.7412 8.23793H71.8886V10.7431H70.7412V8.23793Z" fill="url(#paint50_linear_6561_4153)"/>
<path d="M51.6241 19.2588C52.0591 19.2588 52.4117 19.6109 52.4117 20.0453C52.4117 20.4797 52.0591 20.8318 51.6241 20.8318C51.1891 20.8318 50.8364 20.4797 50.8364 20.0453C50.8364 19.6109 51.1891 19.2588 51.6241 19.2588Z" fill="#3F3F3F"/>
<path d="M51.6242 17.909C52.0162 17.909 52.334 18.2263 52.334 18.6178C52.334 19.0093 52.0162 19.3267 51.6242 19.3267C51.2321 19.3267 50.9143 19.0093 50.9143 18.6178C50.9143 18.2263 51.2321 17.909 51.6242 17.909Z" fill="#3F3F3F"/>
<path d="M55.008 15.2969C55.2711 15.2969 55.4844 15.51 55.4844 15.7727C55.4844 16.0355 55.2711 16.2485 55.008 16.2485C54.7448 16.2485 54.5315 16.0355 54.5315 15.7727C54.5315 15.51 54.7448 15.2969 55.008 15.2969Z" fill="#4C4C4C"/>
<path d="M36.2021 14.967C36.7445 14.967 37.1842 15.4061 37.1842 15.9477C37.1842 16.4894 36.7445 16.9285 36.2021 16.9285C35.6597 16.9285 35.22 16.4894 35.22 15.9477C35.22 15.4061 35.6597 14.967 36.2021 14.967Z" fill="url(#paint51_radial_6561_4153)"/>
<path d="M73.4736 10.7432H71.8789V9.91781H73.4736V10.7432Z" fill="url(#paint52_linear_6561_4153)"/>
<path d="M72.6567 21.7445V28.5319C72.6567 28.6387 72.7443 28.7261 72.8512 28.7261H73.0457C73.1527 28.7261 73.2402 28.6387 73.2402 28.5319V21.7445C73.2402 21.696 73.2013 21.6474 73.1429 21.6474H72.754C72.6956 21.6474 72.6567 21.696 72.6567 21.7445ZM73.1721 9.54864H72.7345C72.6956 9.54864 72.6567 9.51951 72.6567 9.47096V5.98503H73.2499V9.47096C73.2402 9.5098 73.211 9.54864 73.1721 9.54864Z" fill="url(#paint53_linear_6561_4153)"/>
<path d="M65.2374 20.3462L68.0281 16.0738L70.323 19.7927L70.4591 19.9869V19.3655L68.2324 15.763L70.5077 12.0635V11.141L70.2549 11.5391L67.9406 15.229L65.2082 10.9371H64.6929L67.7364 15.598L64.7026 20.3462H65.2374Z" fill="url(#paint54_linear_6561_4153)"/>
<path d="M59.3252 10.6943V11.1604C59.3252 11.2672 59.4127 11.3449 59.51 11.3449H60.6768C60.7838 11.3449 60.8616 11.2575 60.8616 11.1604V10.7332H60.2003C60.1031 10.7332 60.0156 10.6555 60.0156 10.5487V10.5196H59.5197C59.4224 10.5196 59.3349 10.607 59.3252 10.6943ZM60.0156 10.102V10.1603H59.5488C59.4322 10.1603 59.3349 10.0632 59.3349 9.94667V9.54855C59.3349 9.43203 59.4322 9.33493 59.5488 9.33493H60.6574C60.774 9.33493 60.8713 9.43203 60.8713 9.54855V9.92724H60.2003C60.1031 9.91753 60.0156 9.99522 60.0156 10.102ZM60.6963 21.8804H59.5391C59.4322 21.8804 59.3544 21.793 59.3544 21.6959V21.2492C59.3349 21.1327 59.4224 21.055 59.5294 21.055H60.0253V21.0841C60.0253 21.191 60.1128 21.2881 60.2295 21.2881H60.881V21.6959C60.881 21.8027 60.7935 21.8804 60.6963 21.8804ZM59.5391 19.8704H60.6574C60.774 19.8704 60.8616 19.9675 60.8616 20.0743V20.4627H60.2198C60.1128 20.453 60.0156 20.5501 60.0156 20.6666V20.686H59.5391C59.4224 20.686 59.3349 20.5889 59.3349 20.4821V20.0743C59.3349 19.9578 59.4322 19.8704 59.5391 19.8704Z" fill="url(#paint55_linear_6561_4153)"/>
<path d="M93.2419 22.1816H79.0938V21.7641H93.2419V22.1816Z" fill="url(#paint56_linear_6561_4153)"/>
<path d="M86.9215 23.1526H86.5034V22.1816H86.9215V23.1526Z" fill="url(#paint57_linear_6561_4153)"/>
<path d="M92.1239 23.1526H91.696V22.1816H92.1239V23.1526Z" fill="url(#paint58_linear_6561_4153)"/>
<path d="M27.7518 16.6079H26.4197V14.9766H27.7518V16.6079Z" fill="url(#paint59_linear_6561_4153)"/>
<path d="M15.0331 20.4241H14.2747V18.1228H15.0331V20.4241Z" fill="url(#paint60_linear_6561_4153)"/>
<path d="M14.0317 18.5014H13.3704C13.1954 18.5014 13.0496 18.6471 13.0496 18.8219V19.7152C13.0496 19.89 13.1954 20.0356 13.3704 20.0356H14.0317V18.5014Z" fill="url(#paint61_linear_6561_4153)"/>
<path d="M28.2576 16.2583H27.8589V15.3164H28.2576V16.2583Z" fill="url(#paint62_linear_6561_4153)"/>
<path d="M34.4226 17.2002H30.5525V14.3746H34.4226V17.2002Z" fill="url(#paint63_linear_6561_4153)"/>
<path d="M24.9418 17.8606H15.218C15.1208 17.8606 15.043 17.9383 15.043 18.0354V20.5115C15.043 20.6086 15.1208 20.6863 15.218 20.6863H24.9516L24.9418 17.8606Z" fill="url(#paint64_linear_6561_4153)"/>
<path d="M15.0136 13.4424H14.2551V11.1411H15.0136V13.4424Z" fill="url(#paint65_linear_6561_4153)"/>
<path d="M14.0024 11.52H13.3412C13.1661 11.52 13.0203 11.6657 13.0203 11.8404V12.7338C13.0203 12.9085 13.1661 13.0542 13.3412 13.0542H14.0024V11.52Z" fill="url(#paint66_linear_6561_4153)"/>
<path d="M24.9223 10.879H15.1985C15.1012 10.879 15.0234 10.9566 15.0234 11.0537V13.5298C15.0234 13.6269 15.1012 13.7046 15.1985 13.7046H24.932V10.879H24.9223Z" fill="url(#paint67_linear_6561_4153)"/>
<path d="M41.3557 19.6763H40.1597V17.0157H41.3557V19.6763Z" fill="url(#paint68_linear_6561_4153)"/>
<path d="M42.7073 19.084V18.1809H42.0266V17.3847H42.7073H47.5984V19.084H42.7073Z" fill="#3F3F3F"/>
<path d="M42.7168 14.1804H42.7071H42.0361V13.3842H42.7071V12.4812H47.7149V14.1804H42.7168Z" fill="#3F3F3F"/>
<path d="M41.3557 14.394H40.1597V11.8306H41.3557V14.394Z" fill="url(#paint69_linear_6561_4153)"/>
<path d="M41.3752 17.0254H40.2764V14.394H41.3752V17.0254Z" fill="url(#paint70_linear_6561_4153)"/>
<path d="M44.6812 17.0254H45.2062V14.6368H44.6812V17.0254ZM45.5952 14.6368H46.1203V17.0254H45.5952V14.6368ZM46.5092 17.0352V14.6465H47.0343V17.0352H46.5092Z" fill="#3F3F3F"/>
<path d="M42.5029 16.7926H41.7153V16.9382H41.3652V16.2391H41.7153V16.375H42.5029C42.6196 16.375 42.7071 16.4721 42.7071 16.5692V16.5887C42.7071 16.7052 42.6099 16.7926 42.5029 16.7926Z" fill="#3F3F3F"/>
<path d="M42.5029 15.2776H41.7153V15.4136H41.3652V14.7144H41.7153V14.8601H42.5029C42.6196 14.8601 42.7071 14.9475 42.7071 15.0543V15.0737C42.7071 15.1902 42.6099 15.2776 42.5029 15.2776Z" fill="#3F3F3F"/>
<path d="M43.9005 16.1516H41.8127V15.5301H43.9005C43.9481 15.3612 44.1047 15.2388 44.2826 15.2388V16.4429C44.0978 16.4429 43.9481 16.3157 43.9005 16.1516Z" fill="#3F3F3F"/>
<path d="M40.2956 20.8125H40.3832C40.8888 20.8125 41.2972 20.4047 41.2972 19.8998V19.6764H40.2373V20.7542C40.2373 20.7834 40.2665 20.8125 40.2956 20.8125Z" fill="#3F3F3F"/>
<path d="M38.9734 15.7535V14.6175H37.9038V15.7924C37.9038 16.0643 38.1275 16.2876 38.3997 16.2876H38.4386C38.7303 16.2876 38.9734 16.0448 38.9734 15.7535Z" fill="#3F3F3F"/>
<path d="M39.3234 13.8116V12.8697H37.5439V13.8116C37.5439 13.9378 37.6509 14.0446 37.7773 14.0446H39.09C39.2262 14.0446 39.3234 13.9378 39.3234 13.8116ZM39.09 18.7734H37.7773C37.6509 18.7734 37.5439 18.6666 37.5439 18.5404V17.5985H39.3234V18.5404C39.3234 18.6666 39.2262 18.7734 39.09 18.7734Z" fill="#3F3F3F"/>
<path d="M39.8872 19.7735L37.5729 19.9483C37.4076 19.958 37.2715 20.1036 37.2715 20.2687C37.2715 20.4338 37.3979 20.5794 37.5729 20.5891L39.8872 20.7639V19.7735Z" fill="#3F3F3F"/>
<path d="M40.2956 10.7042H40.3832C40.8888 10.7042 41.2972 11.1121 41.2972 11.617V11.8403H40.2373V10.7625C40.2373 10.7237 40.2665 10.7042 40.2956 10.7042Z" fill="#3F3F3F"/>
<path d="M39.8872 11.7334L37.5729 11.5586C37.4076 11.5489 37.2715 11.4033 37.2715 11.2382C37.2715 11.0731 37.3979 10.9275 37.5729 10.9178L39.8872 10.743V11.7334Z" fill="#3F3F3F"/>
<path d="M37.9232 9.32544H26.2351V8.41269H37.9232V9.32544Z" fill="url(#paint71_linear_6561_4153)"/>
<path d="M50.1752 11.9956H41.3557V10.8401H50.1752V11.9956Z" fill="url(#paint72_linear_6561_4153)"/>
<path d="M48.6777 14.5398H47.7053V14.0543H48.6777C48.9111 14.0543 49.0861 13.9572 49.0861 13.9572L49.3292 14.3747C49.3 14.4039 49.0472 14.5398 48.6777 14.5398Z" fill="#3F3F3F"/>
<path d="M58.8877 16.6953H56.6804V15.0252H58.8877V16.6953Z" fill="#3F3F3F"/>
<path d="M59.2085 15.0251H56.6609V13.6852H59.2085V15.0251Z" fill="url(#paint73_linear_6561_4153)"/>
<path d="M59.617 16.9382H58.8877V15.0253H59.617V16.9382Z" fill="url(#paint74_radial_6561_4153)"/>
<path d="M61.1338 16.5789H59.6072V15.0252H61.1338V16.5789Z" fill="url(#paint75_linear_6561_4153)"/>
<path d="M77.1588 7.6554H73.7166V8.18945H77.2658L77.1588 7.6554Z" fill="url(#paint76_linear_6561_4153)"/>
<path d="M79.3466 8.18945H83.7904V7.6554H79.3271L79.3466 8.18945Z" fill="url(#paint77_linear_6561_4153)"/>
<path d="M79.1618 20.6669C79.1618 20.6669 79.1812 21.4825 79.0937 22.1816C79.0062 22.8808 78.2672 22.7545 77.9269 22.6866C77.5865 22.6186 75.8848 22.3273 75.7001 22.2787C75.5153 22.2302 75.0875 21.9195 75.0875 21.5602V20.628H74.825V20.4435H80.4356V20.6571L79.1618 20.6669ZM78.4422 20.6474H75.7487V20.8416C75.7487 20.9776 75.846 21.0844 75.9821 21.0941L77.888 21.298C78.1797 21.3271 78.4422 21.0941 78.4422 20.8028V20.6474Z" fill="url(#paint78_linear_6561_4153)"/>
<path d="M74.825 10.7432V10.5198H75.4959V9.28665C75.4959 9.13129 75.7487 8.97593 75.9821 8.89825C76.2155 8.82057 77.499 8.38361 77.7907 8.28651C78.0824 8.1797 78.2866 8.28651 78.2866 8.58752V10.5101H80.5134V10.7432H74.825Z" fill="url(#paint79_radial_6561_4153)"/>
<path opacity="0.4" d="M79.755 11.7334L79.8523 11.345H75.0195C74.7959 11.345 74.582 11.4518 74.4361 11.6265L73.0845 13.3064C72.9775 13.4423 72.9192 13.6074 72.9192 13.7725V17.4526C72.9192 17.6177 72.9775 17.7827 73.0845 17.9187L74.4361 19.5985C74.582 19.7733 74.7959 19.8801 75.0195 19.8801H79.8523L79.755 19.4917H75.1459C74.9515 19.4917 74.7764 19.4043 74.65 19.2587L73.4443 17.7633C73.3568 17.6468 73.3081 17.5109 73.3081 17.3652V13.8793C73.3081 13.7336 73.3568 13.5977 73.4443 13.4812L74.65 11.9858C74.7667 11.8402 74.9515 11.7528 75.1459 11.7528H79.755V11.7334Z" fill="url(#paint80_linear_6561_4153)"/>
<path opacity="0.6" d="M83.5085 20.8611H71.2273C71.0717 20.8611 70.9453 20.7349 70.9453 20.5795V6.88826C70.9453 6.73289 71.0717 6.60666 71.2273 6.60666H72.647V9.47114C72.647 9.51969 72.6859 9.54882 72.7248 9.54882H73.1526C73.2012 9.54882 73.2304 9.50998 73.2304 9.47114V6.60666H83.5085C83.6641 6.60666 83.7905 6.73289 83.7905 6.88826V20.5795C83.7905 20.7349 83.6641 20.8611 83.5085 20.8611ZM74.2903 8.18941H73.7166V10.5198H74.2903V8.18941ZM75.1557 19.4823C74.9613 19.4823 74.7862 19.3949 74.6598 19.2492L73.4541 17.7539C73.3666 17.6373 73.3179 17.5014 73.3179 17.3557V13.8698C73.3179 13.7242 73.3666 13.5882 73.4541 13.4717L74.6598 11.9763C74.7765 11.8307 74.9613 11.7433 75.1557 11.7433H79.7648L79.8621 11.3549H75.0293C74.8057 11.3549 74.5918 11.4617 74.4459 11.6365L73.0943 13.3163C72.9873 13.4523 72.929 13.6174 72.929 13.7824V17.4626C72.929 17.6276 72.9873 17.7927 73.0943 17.9286L74.4459 19.6085C74.5918 19.7833 74.8057 19.8901 75.0293 19.8901H79.8621L79.7648 19.5017H75.1557V19.4823ZM81.1942 14.4718C80.5039 14.4718 79.9399 15.035 79.9399 15.7244C79.9399 16.4139 80.5039 16.977 81.1942 16.977C81.8846 16.977 82.4486 16.4139 82.4486 15.7244C82.4486 15.035 81.8846 14.4718 81.1942 14.4718Z" fill="url(#paint81_linear_6561_4153)"/>
<path d="M80.4456 19.8899H80.0664V20.4531H70.4592V19.7831H71.8789V11.5393H70.5078V10.7333H80.0761V11.2965H80.4553L83.11 13.6366V17.7926L80.4456 19.8899ZM75.0197 11.3451C74.7961 11.3451 74.5821 11.4519 74.4363 11.6266L73.0847 13.3065C72.9777 13.4424 72.9194 13.6075 72.9194 13.7726V17.4527C72.9194 17.6178 72.9777 17.7829 73.0847 17.9188L74.4363 19.5986C74.5821 19.7734 74.7961 19.8802 75.0197 19.8802H79.8525L79.7552 19.4918H75.1461C74.9516 19.4918 74.7766 19.4044 74.6502 19.2588L73.4444 17.7634C73.3569 17.6469 73.3083 17.511 73.3083 17.3653V13.8794C73.3083 13.7337 73.3569 13.5978 73.4444 13.4813L74.6502 11.9859C74.7669 11.8403 74.9516 11.7529 75.1461 11.7529H79.7552L79.8525 11.3645H75.0197V11.3451ZM82.6238 13.86L80.2706 11.782H79.7552V14.1513H82.6238V13.86ZM82.6238 14.3649H79.7552V17.0934H82.6238V14.3649ZM82.6238 17.3071H79.7552V19.4141H80.2803L82.6238 17.5692V17.3071Z" fill="url(#paint82_radial_6561_4153)"/>
<path opacity="0.1" d="M78.8897 13.7726H76.0212C75.36 13.7726 74.8154 14.3067 74.8154 14.9767V16.4429C74.8154 17.1032 75.3502 17.647 76.0212 17.647H78.8897C79.0453 17.647 79.1814 17.5207 79.1814 17.3557V14.0639C79.1717 13.8989 79.0453 13.7726 78.8897 13.7726Z" fill="url(#paint83_linear_6561_4153)"/>
<path d="M2.30465 21.2495H0.875244V10.6072H2.30465V21.2495Z" fill="url(#paint84_linear_6561_4153)"/>
<path d="M11.8339 21.5601V20.0064H0.106934V20.9775H3.08243L11.8339 21.5601ZM0.106934 10.8595H3.02409L11.8339 10.2769V11.8403H0.106934V10.8595Z" fill="url(#paint85_linear_6561_4153)"/>
<path d="M17.3573 24.3276V20.6863H17.2601V24.2305C17.2601 24.483 17.0559 24.6966 16.7934 24.6966H14.9555C14.693 24.6966 14.4888 24.9102 14.4888 25.1627V31.0664H14.586V25.2598C14.586 25.0073 14.7902 24.7937 15.0528 24.7937H16.8906C17.1434 24.7937 17.3573 24.5898 17.3573 24.3276ZM75.2531 31.3868V23.3177H75.3503V42.5923H75.2531V31.7461C75.2531 31.6781 75.1948 31.6199 75.1267 31.6199H64.0221V31.5228H75.1267C75.1948 31.5228 75.2531 31.4645 75.2531 31.3868ZM17.2601 13.7145L17.3573 13.695V17.8607H17.2601V13.7145ZM17.2601 7.16986C17.2601 6.83 16.9878 6.55812 16.6475 6.55812H13.1858C12.8844 6.55812 12.6315 6.31537 12.6315 6.00465L12.6218 0.596119H12.7191L12.7288 5.90754C12.7288 6.20856 12.9816 6.46102 13.283 6.46102H16.7447C17.0851 6.46102 17.3573 6.7329 17.3573 7.07276V10.8791L17.2601 10.8694V7.16986ZM73.2403 6.55812H76.6728L76.7409 6.65522H73.2403V6.55812ZM79.0843 6.65522L79.0357 6.55812H84.3449V6.65522H79.0843ZM56.525 6.11146V0.198009H56.6222V6.01435C56.6222 6.30566 56.8653 6.54841 57.157 6.54841H70.5662V6.64551H57.0598C56.7584 6.65522 56.525 6.41247 56.525 6.11146ZM70.7996 6.55812H72.6568V6.65522H70.7996V6.55812Z" fill="url(#paint86_radial_6561_4153)"/>
<path d="M34.4226 17.3458H31.9042C31.3013 17.3458 30.7568 17.6663 30.2414 17.977C29.6969 18.2974 29.1426 18.6276 28.5008 18.6276H25.7393V19.8899H28.5008C29.4829 19.8899 30.2608 19.4335 30.8832 19.0645C31.2721 18.8315 31.6514 18.6082 31.9042 18.6082H34.4226V17.3458Z" fill="url(#paint87_linear_6561_4153)"/>
<path d="M34.4225 14.1997H31.9041C31.3012 14.1997 30.7566 13.8793 30.2413 13.5686C29.6968 13.2481 29.1425 12.918 28.5007 12.918H25.4863V11.6557H28.5007C29.4828 11.6557 30.2607 12.112 30.8831 12.481C31.272 12.7141 31.6512 12.9374 31.9041 12.9374H34.4225V14.1997Z" fill="url(#paint88_linear_6561_4153)"/>
<path d="M24.9612 13.4231L25.7294 13.1415V11.4131L24.9612 11.1315V13.4231Z" fill="url(#paint89_linear_6561_4153)"/>
<path d="M23.804 13.7241L23.8818 13.6756L23.6192 13.2483H20.6535L20.3715 12.7046H16.375L15.8596 13.6756L15.9471 13.7241L16.4333 12.8017H20.3131L20.5951 13.3454H23.5706L23.804 13.7241ZM20.6535 11.3646L20.3715 11.9084H16.375L15.8596 10.9373L15.9471 10.8888L16.4333 11.8113H20.3131L20.5951 11.2675H23.5706L23.804 10.8888L23.8818 10.9373L23.6192 11.3646H20.6535ZM20.3715 19.6667L20.6535 20.2202H23.6192L23.8818 20.6377L23.804 20.6863L23.5706 20.3173H20.5951L20.3131 19.7638H16.4333L15.9471 20.6863L15.8596 20.6377L16.375 19.6667H20.3715ZM20.6535 18.3267L20.3715 18.8705H16.375L15.8596 17.8995L15.9471 17.8606L16.4333 18.7734H20.3131L20.5951 18.2296H23.5706L23.804 17.8509L23.8818 17.9092L23.6192 18.3267H20.6535Z" fill="url(#paint90_linear_6561_4153)"/>
<path d="M72.608 2.76122C73.4458 2.76122 74.1249 3.43941 74.1249 4.276C74.1249 5.11259 73.4458 5.79077 72.608 5.79077C71.7702 5.79077 71.0911 5.11259 71.0911 4.276C71.0911 3.43941 71.7702 2.76122 72.608 2.76122Z" fill="#3F3F3F"/>
<path d="M20.7896 22.3176C21.6274 22.3176 22.3065 22.9958 22.3065 23.8324C22.3065 24.669 21.6274 25.3472 20.7896 25.3472C19.9519 25.3472 19.2727 24.669 19.2727 23.8324C19.2727 22.9958 19.9519 22.3176 20.7896 22.3176Z" fill="#3F3F3F"/>
<path d="M20.7896 6.30541C21.6274 6.30541 22.3065 6.9836 22.3065 7.82019C22.3065 8.65678 21.6274 9.33496 20.7896 9.33496C19.9519 9.33496 19.2727 8.65678 19.2727 7.82019C19.2727 6.9836 19.9519 6.30541 20.7896 6.30541Z" fill="#3F3F3F"/>
<path d="M10.6671 20.0066H9.89896L6.62202 16.3556L3.34509 20.0066H2.5769L6.23307 15.9186L2.5769 11.8404H3.34509L6.62202 15.4914L9.89896 11.8404H10.6671L7.01098 15.9186L10.6671 20.0066Z" fill="url(#paint91_linear_6561_4153)"/>
</g>
<defs>
<radialGradient id="paint0_radial_6561_4153" cx="0" cy="0" r="1" gradientUnits="userSpaceOnUse" gradientTransform="translate(54.3468 21.4969) scale(35.0039 34.9544)">
<stop offset="0.52" stop-color="#2E2E2F"/>
<stop offset="0.67" stop-color="#2A2A2B"/>
<stop offset="0.8" stop-color="#202020"/>
<stop offset="0.93" stop-color="#0E0E0E"/>
<stop offset="1"/>
</radialGradient>
<linearGradient id="paint1_linear_6561_4153" x1="14.9067" y1="8.14077" x2="14.9067" y2="23.7061" gradientUnits="userSpaceOnUse">
<stop stop-color="#58595B"/>
<stop offset="0.25"/>
<stop offset="0.4" stop-color="#353436"/>
<stop offset="0.51" stop-color="#414042"/>
<stop offset="0.56" stop-color="#39383A"/>
<stop offset="0.65" stop-color="#232324"/>
<stop offset="0.75"/>
<stop offset="0.79" stop-color="#101011"/>
<stop offset="0.93" stop-color="#444546"/>
<stop offset="1" stop-color="#58595B"/>
</linearGradient>
<radialGradient id="paint2_radial_6561_4153" cx="0" cy="0" r="1" gradientUnits="userSpaceOnUse" gradientTransform="translate(92.3841 19.4665) scale(7.12688 1.84445)">
<stop offset="0.52" stop-color="#2E2E2F"/>
<stop offset="0.67" stop-color="#2A2A2B"/>
<stop offset="0.8" stop-color="#202020"/>
<stop offset="0.93" stop-color="#0E0E0E"/>
<stop offset="1"/>
</radialGradient>
<radialGradient id="paint3_radial_6561_4153" cx="0" cy="0" r="1" gradientUnits="userSpaceOnUse" gradientTransform="translate(86.7709 30.2896) scale(9.36406 9.35082)">
<stop stop-color="#545456"/>
<stop offset="0.34" stop-color="#3A3A3C"/>
<stop offset="1"/>
</radialGradient>
<linearGradient id="paint4_linear_6561_4153" x1="86.7807" y1="23.1624" x2="86.7807" y2="37.4265" gradientUnits="userSpaceOnUse">
<stop/>
<stop offset="0.02" stop-color="#2F2F2F"/>
<stop offset="0.04" stop-color="#5F5F5F"/>
<stop offset="0.06" stop-color="#8A8A8A"/>
<stop offset="0.08" stop-color="#AEAEAE"/>
<stop offset="0.1" stop-color="#CCCCCC"/>
<stop offset="0.12" stop-color="#E2E2E2"/>
<stop offset="0.15" stop-color="#F2F2F2"/>
<stop offset="0.18" stop-color="#FCFCFC"/>
<stop offset="0.22" stop-color="white"/>
<stop offset="0.8" stop-color="white"/>
<stop offset="0.83" stop-color="#FCFCFC"/>
<stop offset="0.86" stop-color="#F1F1F1"/>
<stop offset="0.88" stop-color="#E0E0E0"/>
<stop offset="0.9" stop-color="#C8C8C8"/>
<stop offset="0.93" stop-color="#A9A9A9"/>
<stop offset="0.95" stop-color="#828282"/>
<stop offset="0.97" stop-color="#545454"/>
<stop offset="0.99" stop-color="#212121"/>
<stop offset="1"/>
</linearGradient>
<radialGradient id="paint5_radial_6561_4153" cx="0" cy="0" r="1" gradientUnits="userSpaceOnUse" gradientTransform="translate(78.807 9.38369) scale(0.893619 0.892358)">
<stop offset="0.52" stop-color="#2E2E2F"/>
<stop offset="0.67" stop-color="#2A2A2B"/>
<stop offset="0.8" stop-color="#202020"/>
<stop offset="0.93" stop-color="#0E0E0E"/>
<stop offset="1"/>
</radialGradient>
<linearGradient id="paint6_linear_6561_4153" x1="60.147" y1="8.93679" x2="60.147" y2="22.6863" gradientUnits="userSpaceOnUse">
<stop/>
<stop offset="0.02" stop-color="#101010"/>
<stop offset="0.16" stop-color="#383839"/>
<stop offset="0.32" stop-color="#454547"/>
<stop offset="0.51" stop-color="#48484A"/>
<stop offset="0.63" stop-color="#454546"/>
<stop offset="0.74" stop-color="#3A3A3B"/>
<stop offset="0.85" stop-color="#282829"/>
<stop offset="0.95" stop-color="#0F0F0F"/>
<stop offset="1"/>
</linearGradient>
<linearGradient id="paint7_linear_6561_4153" x1="43.6213" y1="8.86899" x2="43.6213" y2="21.7349" gradientUnits="userSpaceOnUse">
<stop/>
<stop offset="0.1" stop-color="#3B3A3C"/>
<stop offset="0.22" stop-color="#4D4D4F"/>
<stop offset="0.35" stop-color="#555658"/>
<stop offset="0.51" stop-color="#58595B"/>
<stop offset="0.62" stop-color="#555557"/>
<stop offset="0.72" stop-color="#4A4B4C"/>
<stop offset="0.82" stop-color="#38393A"/>
<stop offset="0.91" stop-color="#1F1F20"/>
<stop offset="1"/>
</linearGradient>
<linearGradient id="paint8_linear_6561_4153" x1="53.7925" y1="10.8305" x2="53.7925" y2="20.6765" gradientUnits="userSpaceOnUse">
<stop/>
<stop offset="0.22" stop-color="#565659"/>
<stop offset="0.5" stop-color="#8A8C8E"/>
<stop offset="1"/>
</linearGradient>
<linearGradient id="paint9_linear_6561_4153" x1="55.99" y1="10.1992" x2="55.99" y2="21.6377" gradientUnits="userSpaceOnUse">
<stop/>
<stop offset="0.49" stop-color="#555658"/>
<stop offset="0.5" stop-color="#565759"/>
<stop offset="1"/>
</linearGradient>
<linearGradient id="paint10_linear_6561_4153" x1="37.6509" y1="16.6905" x2="39.2193" y2="16.6905" gradientUnits="userSpaceOnUse">
<stop/>
<stop offset="0.1" stop-color="#3B3A3C"/>
<stop offset="0.22" stop-color="#4D4D4F"/>
<stop offset="0.35" stop-color="#555658"/>
<stop offset="0.51" stop-color="#58595B"/>
<stop offset="0.62" stop-color="#555557"/>
<stop offset="0.72" stop-color="#4A4B4C"/>
<stop offset="0.82" stop-color="#38393A"/>
<stop offset="0.91" stop-color="#1F1F20"/>
<stop offset="1"/>
</linearGradient>
<radialGradient id="paint11_radial_6561_4153" cx="0" cy="0" r="1" gradientUnits="userSpaceOnUse" gradientTransform="translate(42.6392 15.8457) scale(6.7114 6.70191)">
<stop/>
<stop offset="0.4" stop-color="#020202"/>
<stop offset="0.6" stop-color="#0A0A0A"/>
<stop offset="0.75" stop-color="#171617"/>
<stop offset="0.88" stop-color="#292829"/>
<stop offset="1" stop-color="#414042"/>
</radialGradient>
<linearGradient id="paint12_linear_6561_4153" x1="45.7655" y1="19.6763" x2="45.7655" y2="20.8328" gradientUnits="userSpaceOnUse">
<stop stop-color="#8A8C8E"/>
<stop offset="0.56" stop-color="#565659"/>
<stop offset="1"/>
</linearGradient>
<linearGradient id="paint13_linear_6561_4153" x1="63.0786" y1="15.5981" x2="69.3116" y2="15.5981" gradientUnits="userSpaceOnUse">
<stop stop-color="#656668"/>
<stop offset="0.29" stop-color="#4B4C4E"/>
<stop offset="0.91" stop-color="#0A0A0B"/>
<stop offset="1"/>
</linearGradient>
<radialGradient id="paint14_radial_6561_4153" cx="0" cy="0" r="1" gradientUnits="userSpaceOnUse" gradientTransform="translate(27.0323 24.4624) scale(2.64975 2.646)">
<stop stop-color="white"/>
<stop offset="0.29" stop-color="#E5E5E5"/>
<stop offset="0.9" stop-color="#A2A2A2"/>
<stop offset="1" stop-color="#969696"/>
</radialGradient>
<radialGradient id="paint15_radial_6561_4153" cx="0" cy="0" r="1" gradientUnits="userSpaceOnUse" gradientTransform="translate(27.2181 24.8617) scale(1.021 1.01956)">
<stop stop-color="white"/>
<stop offset="0.29" stop-color="#E5E5E5"/>
<stop offset="0.9" stop-color="#A2A2A2"/>
<stop offset="1" stop-color="#969696"/>
</radialGradient>
<linearGradient id="paint16_linear_6561_4153" x1="28.7972" y1="24.5411" x2="28.7972" y2="25.2256" gradientUnits="userSpaceOnUse">
<stop/>
<stop offset="0.03" stop-color="#464648"/>
<stop offset="0.08" stop-color="#727476"/>
<stop offset="0.13" stop-color="#949699"/>
<stop offset="0.19" stop-color="#B3B5B7"/>
<stop offset="0.25" stop-color="#CDCFD1"/>
<stop offset="0.31" stop-color="#E2E3E4"/>
<stop offset="0.37" stop-color="#F0F1F1"/>
<stop offset="0.43" stop-color="#FAFAFA"/>
<stop offset="0.51" stop-color="white"/>
<stop offset="0.61" stop-color="#FBFBFB"/>
<stop offset="0.71" stop-color="#F0F0F0"/>
<stop offset="0.8" stop-color="#DCDCDC"/>
<stop offset="0.89" stop-color="#C1C1C1"/>
<stop offset="0.98" stop-color="#9F9F9F"/>
<stop offset="1" stop-color="#969696"/>
</linearGradient>
<linearGradient id="paint17_linear_6561_4153" x1="60.2305" y1="35.7707" x2="63.0037" y2="35.7707" gradientUnits="userSpaceOnUse">
<stop offset="0.14" stop-color="white"/>
<stop offset="0.31" stop-color="#FDFDFD"/>
<stop offset="0.4" stop-color="#F4F4F4"/>
<stop offset="0.48" stop-color="#E6E6E6"/>
<stop offset="0.55" stop-color="#D2D2D2"/>
<stop offset="0.62" stop-color="#B8B8B8"/>
<stop offset="0.67" stop-color="#989898"/>
<stop offset="0.73" stop-color="#727272"/>
<stop offset="0.78" stop-color="#464646"/>
<stop offset="0.83" stop-color="#161616"/>
<stop offset="0.85"/>
</linearGradient>
<linearGradient id="paint18_linear_6561_4153" x1="46.8535" y1="51.2127" x2="49.5859" y2="51.2127" gradientUnits="userSpaceOnUse">
<stop offset="0.14" stop-color="white"/>
<stop offset="0.31" stop-color="#FDFDFD"/>
<stop offset="0.4" stop-color="#F4F4F4"/>
<stop offset="0.48" stop-color="#E6E6E6"/>
<stop offset="0.55" stop-color="#D2D2D2"/>
<stop offset="0.62" stop-color="#B8B8B8"/>
<stop offset="0.67" stop-color="#989898"/>
<stop offset="0.73" stop-color="#727272"/>
<stop offset="0.78" stop-color="#464646"/>
<stop offset="0.83" stop-color="#161616"/>
<stop offset="0.85"/>
</linearGradient>
<linearGradient id="paint19_linear_6561_4153" x1="49.544" y1="35.7707" x2="52.2628" y2="35.7707" gradientUnits="userSpaceOnUse">
<stop offset="0.14" stop-color="white"/>
<stop offset="0.31" stop-color="#FDFDFD"/>
<stop offset="0.4" stop-color="#F4F4F4"/>
<stop offset="0.48" stop-color="#E6E6E6"/>
<stop offset="0.55" stop-color="#D2D2D2"/>
<stop offset="0.62" stop-color="#B8B8B8"/>
<stop offset="0.67" stop-color="#989898"/>
<stop offset="0.73" stop-color="#727272"/>
<stop offset="0.78" stop-color="#464646"/>
<stop offset="0.83" stop-color="#161616"/>
<stop offset="0.85"/>
</linearGradient>
<linearGradient id="paint20_linear_6561_4153" x1="52.2085" y1="35.7707" x2="54.9312" y2="35.7707" gradientUnits="userSpaceOnUse">
<stop offset="0.14" stop-color="white"/>
<stop offset="0.31" stop-color="#FDFDFD"/>
<stop offset="0.4" stop-color="#F4F4F4"/>
<stop offset="0.48" stop-color="#E6E6E6"/>
<stop offset="0.55" stop-color="#D2D2D2"/>
<stop offset="0.62" stop-color="#B8B8B8"/>
<stop offset="0.67" stop-color="#989898"/>
<stop offset="0.73" stop-color="#727272"/>
<stop offset="0.78" stop-color="#464646"/>
<stop offset="0.83" stop-color="#161616"/>
<stop offset="0.85"/>
</linearGradient>
<linearGradient id="paint21_linear_6561_4153" x1="54.8816" y1="51.2127" x2="57.614" y2="51.2127" gradientUnits="userSpaceOnUse">
<stop offset="0.14" stop-color="white"/>
<stop offset="0.31" stop-color="#FDFDFD"/>
<stop offset="0.4" stop-color="#F4F4F4"/>
<stop offset="0.48" stop-color="#E6E6E6"/>
<stop offset="0.55" stop-color="#D2D2D2"/>
<stop offset="0.62" stop-color="#B8B8B8"/>
<stop offset="0.67" stop-color="#989898"/>
<stop offset="0.73" stop-color="#727272"/>
<stop offset="0.78" stop-color="#464646"/>
<stop offset="0.83" stop-color="#161616"/>
<stop offset="0.85"/>
</linearGradient>
<linearGradient id="paint22_linear_6561_4153" x1="57.5662" y1="35.7707" x2="60.285" y2="35.7707" gradientUnits="userSpaceOnUse">
<stop offset="0.14" stop-color="white"/>
<stop offset="0.31" stop-color="#FDFDFD"/>
<stop offset="0.4" stop-color="#F4F4F4"/>
<stop offset="0.48" stop-color="#E6E6E6"/>
<stop offset="0.55" stop-color="#D2D2D2"/>
<stop offset="0.62" stop-color="#B8B8B8"/>
<stop offset="0.67" stop-color="#989898"/>
<stop offset="0.73" stop-color="#727272"/>
<stop offset="0.78" stop-color="#464646"/>
<stop offset="0.83" stop-color="#161616"/>
<stop offset="0.85"/>
</linearGradient>
<linearGradient id="paint23_linear_6561_4153" x1="44.1824" y1="35.7707" x2="46.9051" y2="35.7707" gradientUnits="userSpaceOnUse">
<stop offset="0.14" stop-color="white"/>
<stop offset="0.31" stop-color="#FDFDFD"/>
<stop offset="0.4" stop-color="#F4F4F4"/>
<stop offset="0.48" stop-color="#E6E6E6"/>
<stop offset="0.55" stop-color="#D2D2D2"/>
<stop offset="0.62" stop-color="#B8B8B8"/>
<stop offset="0.67" stop-color="#989898"/>
<stop offset="0.73" stop-color="#727272"/>
<stop offset="0.78" stop-color="#464646"/>
<stop offset="0.83" stop-color="#161616"/>
<stop offset="0.85"/>
</linearGradient>
<linearGradient id="paint24_linear_6561_4153" x1="41.5181" y1="35.7707" x2="44.2369" y2="35.7707" gradientUnits="userSpaceOnUse">
<stop offset="0.14" stop-color="white"/>
<stop offset="0.31" stop-color="#FDFDFD"/>
<stop offset="0.4" stop-color="#F4F4F4"/>
<stop offset="0.48" stop-color="#E6E6E6"/>
<stop offset="0.55" stop-color="#D2D2D2"/>
<stop offset="0.62" stop-color="#B8B8B8"/>
<stop offset="0.67" stop-color="#989898"/>
<stop offset="0.73" stop-color="#727272"/>
<stop offset="0.78" stop-color="#464646"/>
<stop offset="0.83" stop-color="#161616"/>
<stop offset="0.85"/>
</linearGradient>
<linearGradient id="paint25_linear_6561_4153" x1="84.1211" y1="36.6526" x2="84.1211" y2="37.4294" gradientUnits="userSpaceOnUse">
<stop offset="0.07"/>
<stop offset="0.47" stop-color="#505152"/>
<stop offset="0.83" stop-color="#919396"/>
<stop offset="1" stop-color="#ABADB0"/>
</linearGradient>
<linearGradient id="paint26_linear_6561_4153" x1="87.4273" y1="23.1556" x2="87.4273" y2="24.28" gradientUnits="userSpaceOnUse">
<stop stop-color="#ABADB0"/>
<stop offset="0.17" stop-color="#919396"/>
<stop offset="0.53" stop-color="#505152"/>
<stop offset="0.93"/>
</linearGradient>
<linearGradient id="paint27_linear_6561_4153" x1="97.0344" y1="30.3187" x2="97.9261" y2="30.3187" gradientUnits="userSpaceOnUse">
<stop offset="0.07"/>
<stop offset="0.47" stop-color="#505152"/>
<stop offset="0.83" stop-color="#919396"/>
<stop offset="1" stop-color="#ABADB0"/>
</linearGradient>
<linearGradient id="paint28_linear_6561_4153" x1="41.3604" y1="9.1993" x2="47.3251" y2="9.1993" gradientUnits="userSpaceOnUse">
<stop/>
<stop offset="0.5" stop-color="#656668"/>
<stop offset="0.64" stop-color="#4B4C4E"/>
<stop offset="0.95" stop-color="#0A0A0B"/>
<stop offset="1"/>
</linearGradient>
<linearGradient id="paint29_linear_6561_4153" x1="48.4562" y1="43.2225" x2="54.4209" y2="43.2225" gradientUnits="userSpaceOnUse">
<stop/>
<stop offset="0.5" stop-color="#656668"/>
<stop offset="0.64" stop-color="#4B4C4E"/>
<stop offset="0.95" stop-color="#0A0A0B"/>
<stop offset="1"/>
</linearGradient>
<linearGradient id="paint30_linear_6561_4153" x1="44.4478" y1="21.7308" x2="44.4478" y2="22.6873" gradientUnits="userSpaceOnUse">
<stop/>
<stop offset="0.1" stop-color="#3B3A3C"/>
<stop offset="0.22" stop-color="#4D4D4F"/>
<stop offset="0.35" stop-color="#555658"/>
<stop offset="0.51" stop-color="#58595B"/>
<stop offset="0.62" stop-color="#555557"/>
<stop offset="0.72" stop-color="#4A4B4C"/>
<stop offset="0.82" stop-color="#38393A"/>
<stop offset="0.91" stop-color="#1F1F20"/>
<stop offset="1"/>
</linearGradient>
<linearGradient id="paint31_linear_6561_4153" x1="29.8524" y1="10.1604" x2="29.8524" y2="21.5989" gradientUnits="userSpaceOnUse">
<stop/>
<stop offset="0.06" stop-color="#474749"/>
<stop offset="0.14" stop-color="#616365"/>
<stop offset="0.22" stop-color="#747578"/>
<stop offset="0.3" stop-color="#808285"/>
<stop offset="0.39" stop-color="#87898C"/>
<stop offset="0.51" stop-color="#8A8C8E"/>
<stop offset="0.6" stop-color="#87888A"/>
<stop offset="0.68" stop-color="#7C7E7F"/>
<stop offset="0.76" stop-color="#6A6B6D"/>
<stop offset="0.84" stop-color="#515253"/>
<stop offset="0.91" stop-color="#303131"/>
<stop offset="0.99" stop-color="#090909"/>
<stop offset="1"/>
</linearGradient>
<linearGradient id="paint32_linear_6561_4153" x1="26.2934" y1="14.9805" x2="26.2934" y2="16.604" gradientUnits="userSpaceOnUse">
<stop/>
<stop offset="0.1" stop-color="#3B3A3C"/>
<stop offset="0.22" stop-color="#4D4D4F"/>
<stop offset="0.35" stop-color="#555658"/>
<stop offset="0.51" stop-color="#58595B"/>
<stop offset="0.62" stop-color="#555557"/>
<stop offset="0.72" stop-color="#4A4B4C"/>
<stop offset="0.82" stop-color="#38393A"/>
<stop offset="0.91" stop-color="#1F1F20"/>
<stop offset="1"/>
</linearGradient>
<linearGradient id="paint33_linear_6561_4153" x1="14.1533" y1="18.1256" x2="14.1533" y2="20.4172" gradientUnits="userSpaceOnUse">
<stop/>
<stop offset="0.1" stop-color="#3B3A3C"/>
<stop offset="0.22" stop-color="#4D4D4F"/>
<stop offset="0.35" stop-color="#555658"/>
<stop offset="0.51" stop-color="#58595B"/>
<stop offset="0.62" stop-color="#555557"/>
<stop offset="0.72" stop-color="#4A4B4C"/>
<stop offset="0.82" stop-color="#38393A"/>
<stop offset="0.91" stop-color="#1F1F20"/>
<stop offset="1"/>
</linearGradient>
<linearGradient id="paint34_linear_6561_4153" x1="25.3453" y1="20.4182" x2="25.3453" y2="18.1266" gradientUnits="userSpaceOnUse">
<stop/>
<stop offset="0.1" stop-color="#3B3A3C"/>
<stop offset="0.22" stop-color="#4D4D4F"/>
<stop offset="0.35" stop-color="#555658"/>
<stop offset="0.51" stop-color="#58595B"/>
<stop offset="0.62" stop-color="#555557"/>
<stop offset="0.72" stop-color="#4A4B4C"/>
<stop offset="0.82" stop-color="#38393A"/>
<stop offset="0.91" stop-color="#1F1F20"/>
<stop offset="1"/>
</linearGradient>
<linearGradient id="paint35_linear_6561_4153" x1="14.1289" y1="11.1413" x2="14.1289" y2="13.4329" gradientUnits="userSpaceOnUse">
<stop/>
<stop offset="0.1" stop-color="#3B3A3C"/>
<stop offset="0.22" stop-color="#4D4D4F"/>
<stop offset="0.35" stop-color="#555658"/>
<stop offset="0.51" stop-color="#58595B"/>
<stop offset="0.62" stop-color="#555557"/>
<stop offset="0.72" stop-color="#4A4B4C"/>
<stop offset="0.82" stop-color="#38393A"/>
<stop offset="0.91" stop-color="#1F1F20"/>
<stop offset="1"/>
</linearGradient>
<linearGradient id="paint36_linear_6561_4153" x1="29.7891" y1="14.3697" x2="29.7891" y2="17.2002" gradientUnits="userSpaceOnUse">
<stop/>
<stop offset="0.06" stop-color="#474749"/>
<stop offset="0.14" stop-color="#616365"/>
<stop offset="0.22" stop-color="#747578"/>
<stop offset="0.3" stop-color="#808285"/>
<stop offset="0.39" stop-color="#87898C"/>
<stop offset="0.51" stop-color="#8A8C8E"/>
<stop offset="0.6" stop-color="#87888A"/>
<stop offset="0.68" stop-color="#7C7E7F"/>
<stop offset="0.76" stop-color="#6A6B6D"/>
<stop offset="0.84" stop-color="#515253"/>
<stop offset="0.91" stop-color="#303131"/>
<stop offset="0.99" stop-color="#090909"/>
<stop offset="1"/>
</linearGradient>
<linearGradient id="paint37_linear_6561_4153" x1="27.8005" y1="16.604" x2="27.8005" y2="14.9776" gradientUnits="userSpaceOnUse">
<stop/>
<stop offset="0.1" stop-color="#3B3A3C"/>
<stop offset="0.22" stop-color="#4D4D4F"/>
<stop offset="0.35" stop-color="#555658"/>
<stop offset="0.51" stop-color="#58595B"/>
<stop offset="0.62" stop-color="#555557"/>
<stop offset="0.72" stop-color="#4A4B4C"/>
<stop offset="0.82" stop-color="#38393A"/>
<stop offset="0.91" stop-color="#1F1F20"/>
<stop offset="1"/>
</linearGradient>
<linearGradient id="paint38_linear_6561_4153" x1="11.1192" y1="9.93707" x2="11.1192" y2="21.8999" gradientUnits="userSpaceOnUse">
<stop/>
<stop offset="0.1" stop-color="#3B3A3C"/>
<stop offset="0.22" stop-color="#4D4D4F"/>
<stop offset="0.35" stop-color="#555658"/>
<stop offset="0.51" stop-color="#58595B"/>
<stop offset="0.62" stop-color="#555557"/>
<stop offset="0.72" stop-color="#4A4B4C"/>
<stop offset="0.82" stop-color="#38393A"/>
<stop offset="0.91" stop-color="#1F1F20"/>
<stop offset="1"/>
</linearGradient>
<linearGradient id="paint39_linear_6561_4153" x1="12.8064" y1="9.93707" x2="12.8064" y2="21.8999" gradientUnits="userSpaceOnUse">
<stop/>
<stop offset="0.12" stop-color="#282829"/>
<stop offset="0.29" stop-color="#3C3C3D"/>
<stop offset="0.51" stop-color="#414042"/>
<stop offset="0.64" stop-color="#3D3D3E"/>
<stop offset="0.76" stop-color="#333233"/>
<stop offset="0.87" stop-color="#202021"/>
<stop offset="0.97" stop-color="#070707"/>
<stop offset="1"/>
</linearGradient>
<linearGradient id="paint40_linear_6561_4153" x1="22.4476" y1="13.8259" x2="22.4476" y2="17.1565" gradientUnits="userSpaceOnUse">
<stop/>
<stop offset="0.04" stop-color="#252526"/>
<stop offset="0.14" stop-color="#49494B"/>
<stop offset="0.24" stop-color="#58595B"/>
<stop offset="0.36" stop-color="#606164"/>
<stop offset="0.51" stop-color="#636466"/>
<stop offset="0.62" stop-color="#606062"/>
<stop offset="0.71" stop-color="#555657"/>
<stop offset="0.8" stop-color="#434445"/>
<stop offset="0.89" stop-color="#2A2A2B"/>
<stop offset="0.98" stop-color="#0A0A0A"/>
<stop offset="1"/>
</linearGradient>
<linearGradient id="paint41_linear_6561_4153" x1="48.0019" y1="8.87279" x2="48.0019" y2="10.1545" gradientUnits="userSpaceOnUse">
<stop/>
<stop offset="0.1" stop-color="#3B3A3C"/>
<stop offset="0.22" stop-color="#4D4D4F"/>
<stop offset="0.35" stop-color="#555658"/>
<stop offset="0.51" stop-color="#58595B"/>
<stop offset="0.62" stop-color="#555557"/>
<stop offset="0.72" stop-color="#4A4B4C"/>
<stop offset="0.82" stop-color="#38393A"/>
<stop offset="0.91" stop-color="#1F1F20"/>
<stop offset="1"/>
</linearGradient>
<linearGradient id="paint42_linear_6561_4153" x1="32.079" y1="8.98548" x2="32.079" y2="10.1604" gradientUnits="userSpaceOnUse">
<stop/>
<stop offset="0.1" stop-color="#3B3A3C"/>
<stop offset="0.22" stop-color="#4D4D4F"/>
<stop offset="0.35" stop-color="#555658"/>
<stop offset="0.51" stop-color="#58595B"/>
<stop offset="0.62" stop-color="#555557"/>
<stop offset="0.72" stop-color="#4A4B4C"/>
<stop offset="0.82" stop-color="#38393A"/>
<stop offset="0.91" stop-color="#1F1F20"/>
<stop offset="1"/>
</linearGradient>
<radialGradient id="paint43_radial_6561_4153" cx="0" cy="0" r="1" gradientUnits="userSpaceOnUse" gradientTransform="translate(27.2445 24.8614) scale(0.660249 0.659316)">
<stop stop-color="white"/>
<stop offset="0.29" stop-color="#E5E5E5"/>
<stop offset="0.9" stop-color="#A2A2A2"/>
<stop offset="1" stop-color="#969696"/>
</radialGradient>
<linearGradient id="paint44_linear_6561_4153" x1="29.7648" y1="51.2128" x2="29.7648" y2="51.2128" gradientUnits="userSpaceOnUse">
<stop/>
<stop offset="0.03" stop-color="#464648"/>
<stop offset="0.08" stop-color="#727476"/>
<stop offset="0.13" stop-color="#949699"/>
<stop offset="0.19" stop-color="#B3B5B7"/>
<stop offset="0.25" stop-color="#CDCFD1"/>
<stop offset="0.31" stop-color="#E2E3E4"/>
<stop offset="0.37" stop-color="#F0F1F1"/>
<stop offset="0.43" stop-color="#FAFAFA"/>
<stop offset="0.51" stop-color="white"/>
<stop offset="0.61" stop-color="#FBFBFB"/>
<stop offset="0.71" stop-color="#F0F0F0"/>
<stop offset="0.8" stop-color="#DCDCDC"/>
<stop offset="0.89" stop-color="#C1C1C1"/>
<stop offset="0.98" stop-color="#9F9F9F"/>
<stop offset="1" stop-color="#969696"/>
</linearGradient>
<radialGradient id="paint45_radial_6561_4153" cx="0" cy="0" r="1" gradientUnits="userSpaceOnUse" gradientTransform="translate(26.024 23.4535) scale(1.76974 1.76724)">
<stop stop-color="#808285"/>
<stop offset="0.23" stop-color="#67686B"/>
<stop offset="0.73" stop-color="#262728"/>
<stop offset="1"/>
</radialGradient>
<radialGradient id="paint46_radial_6561_4153" cx="0" cy="0" r="1" gradientUnits="userSpaceOnUse" gradientTransform="translate(23.8762 24.7149) scale(0.224621 0.224303)">
<stop stop-color="white"/>
<stop offset="0.29" stop-color="#E5E5E5"/>
<stop offset="0.9" stop-color="#A2A2A2"/>
<stop offset="1" stop-color="#969696"/>
</radialGradient>
<radialGradient id="paint47_radial_6561_4153" cx="0" cy="0" r="1" gradientUnits="userSpaceOnUse" gradientTransform="translate(64.9149 20.8726) scale(9.13009 0.320754)">
<stop stop-color="#636466"/>
<stop offset="0.29" stop-color="#494A4C"/>
<stop offset="0.92" stop-color="#080809"/>
<stop offset="1"/>
</radialGradient>
<linearGradient id="paint48_linear_6561_4153" x1="72.1763" y1="20.8726" x2="73.7745" y2="20.8726" gradientUnits="userSpaceOnUse">
<stop/>
<stop offset="0.08" stop-color="#2B2B2C"/>
<stop offset="0.2" stop-color="#464547"/>
<stop offset="0.34" stop-color="#4F4F51"/>
<stop offset="0.52" stop-color="#515254"/>
<stop offset="0.63" stop-color="#4E4E50"/>
<stop offset="0.73" stop-color="#434445"/>
<stop offset="0.83" stop-color="#313233"/>
<stop offset="0.93" stop-color="#181919"/>
<stop offset="1"/>
</linearGradient>
<radialGradient id="paint49_radial_6561_4153" cx="0" cy="0" r="1" gradientUnits="userSpaceOnUse" gradientTransform="translate(64.9057 10.3404) scale(9.12096 0.320433)">
<stop stop-color="#636466"/>
<stop offset="0.29" stop-color="#494A4C"/>
<stop offset="0.92" stop-color="#080809"/>
<stop offset="1"/>
</radialGradient>
<linearGradient id="paint50_linear_6561_4153" x1="70.7295" y1="15.6564" x2="71.8818" y2="15.6564" gradientUnits="userSpaceOnUse">
<stop/>
<stop offset="0.08" stop-color="#2B2B2C"/>
<stop offset="0.2" stop-color="#464547"/>
<stop offset="0.34" stop-color="#4F4F51"/>
<stop offset="0.52" stop-color="#515254"/>
<stop offset="0.63" stop-color="#4E4E50"/>
<stop offset="0.73" stop-color="#434445"/>
<stop offset="0.83" stop-color="#313233"/>
<stop offset="0.93" stop-color="#181919"/>
<stop offset="1"/>
</linearGradient>
<radialGradient id="paint51_radial_6561_4153" cx="0" cy="0" r="1" gradientUnits="userSpaceOnUse" gradientTransform="translate(36.204 15.9516) scale(0.985024 0.983633)">
<stop offset="0.51" stop-color="#58595B"/>
<stop offset="0.64" stop-color="#464748"/>
<stop offset="0.89" stop-color="#171718"/>
<stop offset="1"/>
</radialGradient>
<linearGradient id="paint52_linear_6561_4153" x1="-64.4705" y1="10.3341" x2="-64.3343" y2="10.3341" gradientUnits="userSpaceOnUse">
<stop/>
<stop offset="0.08" stop-color="#2B2B2C"/>
<stop offset="0.2" stop-color="#464547"/>
<stop offset="0.34" stop-color="#4F4F51"/>
<stop offset="0.52" stop-color="#515254"/>
<stop offset="0.63" stop-color="#4E4E50"/>
<stop offset="0.73" stop-color="#434445"/>
<stop offset="0.83" stop-color="#313233"/>
<stop offset="0.93" stop-color="#181919"/>
<stop offset="1"/>
</linearGradient>
<linearGradient id="paint53_linear_6561_4153" x1="72.6538" y1="17.3556" x2="73.2431" y2="17.3556" gradientUnits="userSpaceOnUse">
<stop/>
<stop offset="0.08" stop-color="#2B2B2C"/>
<stop offset="0.2" stop-color="#464547"/>
<stop offset="0.34" stop-color="#4F4F51"/>
<stop offset="0.52" stop-color="#515254"/>
<stop offset="0.63" stop-color="#4E4E50"/>
<stop offset="0.73" stop-color="#434445"/>
<stop offset="0.83" stop-color="#313233"/>
<stop offset="0.93" stop-color="#181919"/>
<stop offset="1"/>
</linearGradient>
<linearGradient id="paint54_linear_6561_4153" x1="64.6929" y1="15.6416" x2="70.5077" y2="15.6416" gradientUnits="userSpaceOnUse">
<stop stop-color="#B1B3B6"/>
<stop offset="0.18" stop-color="#97999C"/>
<stop offset="0.55" stop-color="#555658"/>
<stop offset="1"/>
</linearGradient>
<linearGradient id="paint55_linear_6561_4153" x1="59.3252" y1="15.6076" x2="60.881" y2="15.6076" gradientUnits="userSpaceOnUse">
<stop stop-color="#636466"/>
<stop offset="0.29" stop-color="#494A4C"/>
<stop offset="0.92" stop-color="#080809"/>
<stop offset="1"/>
</linearGradient>
<linearGradient id="paint56_linear_6561_4153" x1="79.0938" y1="21.9729" x2="93.2419" y2="21.9729" gradientUnits="userSpaceOnUse">
<stop/>
<stop offset="0.08" stop-color="#2B2B2C"/>
<stop offset="0.2" stop-color="#464547"/>
<stop offset="0.34" stop-color="#4F4F51"/>
<stop offset="0.52" stop-color="#515254"/>
<stop offset="0.63" stop-color="#4E4E50"/>
<stop offset="0.73" stop-color="#434445"/>
<stop offset="0.83" stop-color="#313233"/>
<stop offset="0.93" stop-color="#181919"/>
<stop offset="1"/>
</linearGradient>
<linearGradient id="paint57_linear_6561_4153" x1="86.5015" y1="22.6671" x2="86.9147" y2="22.6671" gradientUnits="userSpaceOnUse">
<stop/>
<stop offset="0.08" stop-color="#2B2B2C"/>
<stop offset="0.2" stop-color="#464547"/>
<stop offset="0.34" stop-color="#4F4F51"/>
<stop offset="0.52" stop-color="#515254"/>
<stop offset="0.63" stop-color="#4E4E50"/>
<stop offset="0.73" stop-color="#434445"/>
<stop offset="0.83" stop-color="#313233"/>
<stop offset="0.93" stop-color="#181919"/>
<stop offset="1"/>
</linearGradient>
<linearGradient id="paint58_linear_6561_4153" x1="91.6931" y1="22.6671" x2="92.121" y2="22.6671" gradientUnits="userSpaceOnUse">
<stop/>
<stop offset="0.08" stop-color="#2B2B2C"/>
<stop offset="0.2" stop-color="#464547"/>
<stop offset="0.34" stop-color="#4F4F51"/>
<stop offset="0.52" stop-color="#515254"/>
<stop offset="0.63" stop-color="#4E4E50"/>
<stop offset="0.73" stop-color="#434445"/>
<stop offset="0.83" stop-color="#313233"/>
<stop offset="0.93" stop-color="#181919"/>
<stop offset="1"/>
</linearGradient>
<linearGradient id="paint59_linear_6561_4153" x1="27.0858" y1="16.604" x2="27.0858" y2="14.9776" gradientUnits="userSpaceOnUse">
<stop/>
<stop offset="0.06" stop-color="#474749"/>
<stop offset="0.14" stop-color="#616365"/>
<stop offset="0.22" stop-color="#747578"/>
<stop offset="0.3" stop-color="#808285"/>
<stop offset="0.39" stop-color="#87898C"/>
<stop offset="0.51" stop-color="#8A8C8E"/>
<stop offset="0.6" stop-color="#87888A"/>
<stop offset="0.68" stop-color="#7C7E7F"/>
<stop offset="0.76" stop-color="#6A6B6D"/>
<stop offset="0.84" stop-color="#515253"/>
<stop offset="0.91" stop-color="#303131"/>
<stop offset="0.99" stop-color="#090909"/>
<stop offset="1"/>
</linearGradient>
<linearGradient id="paint60_linear_6561_4153" x1="14.6539" y1="20.4202" x2="14.6539" y2="18.1238" gradientUnits="userSpaceOnUse">
<stop/>
<stop offset="0.06" stop-color="#474749"/>
<stop offset="0.14" stop-color="#616365"/>
<stop offset="0.22" stop-color="#747578"/>
<stop offset="0.3" stop-color="#808285"/>
<stop offset="0.39" stop-color="#87898C"/>
<stop offset="0.51" stop-color="#8A8C8E"/>
<stop offset="0.6" stop-color="#87888A"/>
<stop offset="0.68" stop-color="#7C7E7F"/>
<stop offset="0.76" stop-color="#6A6B6D"/>
<stop offset="0.84" stop-color="#515253"/>
<stop offset="0.91" stop-color="#303131"/>
<stop offset="0.99" stop-color="#090909"/>
<stop offset="1"/>
</linearGradient>
<linearGradient id="paint61_linear_6561_4153" x1="13.5406" y1="20.0444" x2="13.5406" y2="18.4995" gradientUnits="userSpaceOnUse">
<stop/>
<stop offset="0.06" stop-color="#474749"/>
<stop offset="0.14" stop-color="#616365"/>
<stop offset="0.22" stop-color="#747578"/>
<stop offset="0.3" stop-color="#808285"/>
<stop offset="0.39" stop-color="#87898C"/>
<stop offset="0.51" stop-color="#8A8C8E"/>
<stop offset="0.6" stop-color="#87888A"/>
<stop offset="0.68" stop-color="#7C7E7F"/>
<stop offset="0.76" stop-color="#6A6B6D"/>
<stop offset="0.84" stop-color="#515253"/>
<stop offset="0.91" stop-color="#303131"/>
<stop offset="0.99" stop-color="#090909"/>
<stop offset="1"/>
</linearGradient>
<linearGradient id="paint62_linear_6561_4153" x1="28.0582" y1="16.2602" x2="28.0582" y2="15.3174" gradientUnits="userSpaceOnUse">
<stop/>
<stop offset="0.06" stop-color="#474749"/>
<stop offset="0.14" stop-color="#616365"/>
<stop offset="0.22" stop-color="#747578"/>
<stop offset="0.3" stop-color="#808285"/>
<stop offset="0.39" stop-color="#87898C"/>
<stop offset="0.51" stop-color="#8A8C8E"/>
<stop offset="0.6" stop-color="#87888A"/>
<stop offset="0.68" stop-color="#7C7E7F"/>
<stop offset="0.76" stop-color="#6A6B6D"/>
<stop offset="0.84" stop-color="#515253"/>
<stop offset="0.91" stop-color="#303131"/>
<stop offset="0.99" stop-color="#090909"/>
<stop offset="1"/>
</linearGradient>
<linearGradient id="paint63_linear_6561_4153" x1="32.4875" y1="17.2002" x2="32.4875" y2="14.3707" gradientUnits="userSpaceOnUse">
<stop/>
<stop offset="0.1" stop-color="#3B3A3C"/>
<stop offset="0.22" stop-color="#4D4D4F"/>
<stop offset="0.35" stop-color="#555658"/>
<stop offset="0.51" stop-color="#58595B"/>
<stop offset="0.62" stop-color="#555557"/>
<stop offset="0.72" stop-color="#4A4B4C"/>
<stop offset="0.82" stop-color="#38393A"/>
<stop offset="0.91" stop-color="#1F1F20"/>
<stop offset="1"/>
</linearGradient>
<linearGradient id="paint64_linear_6561_4153" x1="19.9973" y1="20.6863" x2="19.9973" y2="17.8568" gradientUnits="userSpaceOnUse">
<stop/>
<stop offset="0.04" stop-color="#4F5052"/>
<stop offset="0.1" stop-color="#737577"/>
<stop offset="0.16" stop-color="#8E9093"/>
<stop offset="0.22" stop-color="#A6A8AA"/>
<stop offset="0.28" stop-color="#B9BBBD"/>
<stop offset="0.34" stop-color="#C6C8CA"/>
<stop offset="0.42" stop-color="#CFD0D2"/>
<stop offset="0.51" stop-color="#D1D3D4"/>
<stop offset="0.59" stop-color="#CDCFD0"/>
<stop offset="0.66" stop-color="#C3C4C5"/>
<stop offset="0.72" stop-color="#B0B2B3"/>
<stop offset="0.78" stop-color="#979899"/>
<stop offset="0.85" stop-color="#767777"/>
<stop offset="0.91" stop-color="#4D4E4E"/>
<stop offset="0.97" stop-color="#1E1E1F"/>
<stop offset="1"/>
</linearGradient>
<linearGradient id="paint65_linear_6561_4153" x1="14.6344" y1="13.4375" x2="14.6344" y2="11.1411" gradientUnits="userSpaceOnUse">
<stop/>
<stop offset="0.06" stop-color="#474749"/>
<stop offset="0.14" stop-color="#616365"/>
<stop offset="0.22" stop-color="#747578"/>
<stop offset="0.3" stop-color="#808285"/>
<stop offset="0.39" stop-color="#87898C"/>
<stop offset="0.51" stop-color="#8A8C8E"/>
<stop offset="0.6" stop-color="#87888A"/>
<stop offset="0.68" stop-color="#7C7E7F"/>
<stop offset="0.76" stop-color="#6A6B6D"/>
<stop offset="0.84" stop-color="#515253"/>
<stop offset="0.91" stop-color="#303131"/>
<stop offset="0.99" stop-color="#090909"/>
<stop offset="1"/>
</linearGradient>
<linearGradient id="paint66_linear_6561_4153" x1="13.5113" y1="13.062" x2="13.5113" y2="11.5171" gradientUnits="userSpaceOnUse">
<stop/>
<stop offset="0.06" stop-color="#474749"/>
<stop offset="0.14" stop-color="#616365"/>
<stop offset="0.22" stop-color="#747578"/>
<stop offset="0.3" stop-color="#808285"/>
<stop offset="0.39" stop-color="#87898C"/>
<stop offset="0.51" stop-color="#8A8C8E"/>
<stop offset="0.6" stop-color="#87888A"/>
<stop offset="0.68" stop-color="#7C7E7F"/>
<stop offset="0.76" stop-color="#6A6B6D"/>
<stop offset="0.84" stop-color="#515253"/>
<stop offset="0.91" stop-color="#303131"/>
<stop offset="0.99" stop-color="#090909"/>
<stop offset="1"/>
</linearGradient>
<linearGradient id="paint67_linear_6561_4153" x1="19.9777" y1="13.7046" x2="19.9777" y2="10.8751" gradientUnits="userSpaceOnUse">
<stop/>
<stop offset="0.04" stop-color="#4F5052"/>
<stop offset="0.1" stop-color="#737577"/>
<stop offset="0.16" stop-color="#8E9093"/>
<stop offset="0.22" stop-color="#A6A8AA"/>
<stop offset="0.28" stop-color="#B9BBBD"/>
<stop offset="0.34" stop-color="#C6C8CA"/>
<stop offset="0.42" stop-color="#CFD0D2"/>
<stop offset="0.51" stop-color="#D1D3D4"/>
<stop offset="0.59" stop-color="#CDCFD0"/>
<stop offset="0.66" stop-color="#C3C4C5"/>
<stop offset="0.72" stop-color="#B0B2B3"/>
<stop offset="0.78" stop-color="#979899"/>
<stop offset="0.85" stop-color="#767777"/>
<stop offset="0.91" stop-color="#4D4E4E"/>
<stop offset="0.97" stop-color="#1E1E1F"/>
<stop offset="1"/>
</linearGradient>
<linearGradient id="paint68_linear_6561_4153" x1="40.7577" y1="19.6763" x2="40.7577" y2="17.0157" gradientUnits="userSpaceOnUse">
<stop/>
<stop offset="0.1" stop-color="#3B3A3C"/>
<stop offset="0.22" stop-color="#4D4D4F"/>
<stop offset="0.35" stop-color="#555658"/>
<stop offset="0.51" stop-color="#58595B"/>
<stop offset="0.62" stop-color="#555557"/>
<stop offset="0.72" stop-color="#4A4B4C"/>
<stop offset="0.82" stop-color="#38393A"/>
<stop offset="0.91" stop-color="#1F1F20"/>
<stop offset="1"/>
</linearGradient>
<linearGradient id="paint69_linear_6561_4153" x1="40.7577" y1="14.394" x2="40.7577" y2="11.8306" gradientUnits="userSpaceOnUse">
<stop/>
<stop offset="0.1" stop-color="#3B3A3C"/>
<stop offset="0.22" stop-color="#4D4D4F"/>
<stop offset="0.35" stop-color="#555658"/>
<stop offset="0.51" stop-color="#58595B"/>
<stop offset="0.62" stop-color="#555557"/>
<stop offset="0.72" stop-color="#4A4B4C"/>
<stop offset="0.82" stop-color="#38393A"/>
<stop offset="0.91" stop-color="#1F1F20"/>
<stop offset="1"/>
</linearGradient>
<linearGradient id="paint70_linear_6561_4153" x1="40.8258" y1="17.0293" x2="40.8258" y2="14.3949" gradientUnits="userSpaceOnUse">
<stop/>
<stop offset="0.1" stop-color="#3B3A3C"/>
<stop offset="0.22" stop-color="#4D4D4F"/>
<stop offset="0.35" stop-color="#555658"/>
<stop offset="0.51" stop-color="#58595B"/>
<stop offset="0.62" stop-color="#555557"/>
<stop offset="0.72" stop-color="#4A4B4C"/>
<stop offset="0.82" stop-color="#38393A"/>
<stop offset="0.91" stop-color="#1F1F20"/>
<stop offset="1"/>
</linearGradient>
<linearGradient id="paint71_linear_6561_4153" x1="26.1183" y1="43.2225" x2="37.7834" y2="43.2225" gradientUnits="userSpaceOnUse">
<stop/>
<stop offset="0.5" stop-color="#656668"/>
<stop offset="0.64" stop-color="#4B4C4E"/>
<stop offset="0.95" stop-color="#0A0A0B"/>
<stop offset="1"/>
</linearGradient>
<linearGradient id="paint72_linear_6561_4153" x1="45.7655" y1="11.9927" x2="45.7655" y2="10.8352" gradientUnits="userSpaceOnUse">
<stop stop-color="#8A8C8E"/>
<stop offset="0.56" stop-color="#565659"/>
<stop offset="1"/>
</linearGradient>
<linearGradient id="paint73_linear_6561_4153" x1="59.2124" y1="14.3552" x2="56.6648" y2="14.3552" gradientUnits="userSpaceOnUse">
<stop/>
<stop offset="0.49" stop-color="#555658"/>
<stop offset="0.5" stop-color="#565759"/>
<stop offset="1"/>
</linearGradient>
<radialGradient id="paint74_radial_6561_4153" cx="0" cy="0" r="1" gradientUnits="userSpaceOnUse" gradientTransform="translate(59.2484 15.9769) scale(0.724426 0.723403)">
<stop stop-color="#6D6E71"/>
<stop offset="0.22" stop-color="#616164"/>
<stop offset="0.62" stop-color="#404042"/>
<stop offset="1" stop-color="#1C1C1C"/>
</radialGradient>
<linearGradient id="paint75_linear_6561_4153" x1="60.3705" y1="15.0214" x2="60.3705" y2="16.5779" gradientUnits="userSpaceOnUse">
<stop/>
<stop offset="0.03" stop-color="#252526"/>
<stop offset="0.08" stop-color="#434345"/>
<stop offset="0.15" stop-color="#4E4E50"/>
<stop offset="0.24" stop-color="#545557"/>
<stop offset="0.5" stop-color="#565759"/>
<stop offset="0.64" stop-color="#525355"/>
<stop offset="0.79" stop-color="#464648"/>
<stop offset="0.94" stop-color="#222223"/>
<stop offset="1"/>
</linearGradient>
<linearGradient id="paint76_linear_6561_4153" x1="73.7166" y1="7.92243" x2="77.2696" y2="7.92243" gradientUnits="userSpaceOnUse">
<stop stop-color="#545456"/>
<stop offset="0.34" stop-color="#3A3A3C"/>
<stop offset="1"/>
</linearGradient>
<linearGradient id="paint77_linear_6561_4153" x1="83.7904" y1="7.92243" x2="79.3223" y2="7.92243" gradientUnits="userSpaceOnUse">
<stop stop-color="#545456"/>
<stop offset="0.34" stop-color="#3A3A3C"/>
<stop offset="1"/>
</linearGradient>
<linearGradient id="paint78_linear_6561_4153" x1="74.825" y1="21.5922" x2="80.4356" y2="21.5922" gradientUnits="userSpaceOnUse">
<stop stop-color="#545456"/>
<stop offset="0.34" stop-color="#3A3A3C"/>
<stop offset="1"/>
</linearGradient>
<radialGradient id="paint79_radial_6561_4153" cx="0" cy="0" r="1" gradientUnits="userSpaceOnUse" gradientTransform="translate(77.675 9.49833) scale(2.19662 2.19351)">
<stop stop-color="#545456"/>
<stop offset="0.34" stop-color="#3A3A3C"/>
<stop offset="1"/>
</radialGradient>
<linearGradient id="paint80_linear_6561_4153" x1="72.9279" y1="15.6125" x2="79.861" y2="15.6125" gradientUnits="userSpaceOnUse">
<stop/>
<stop offset="0.02" stop-color="#2F2F2F"/>
<stop offset="0.04" stop-color="#5F5F5F"/>
<stop offset="0.06" stop-color="#8A8A8A"/>
<stop offset="0.08" stop-color="#AEAEAE"/>
<stop offset="0.1" stop-color="#CCCCCC"/>
<stop offset="0.12" stop-color="#E2E2E2"/>
<stop offset="0.15" stop-color="#F2F2F2"/>
<stop offset="0.18" stop-color="#FCFCFC"/>
<stop offset="0.22" stop-color="white"/>
<stop offset="0.8" stop-color="white"/>
<stop offset="0.83" stop-color="#FCFCFC"/>
<stop offset="0.86" stop-color="#F1F1F1"/>
<stop offset="0.88" stop-color="#E0E0E0"/>
<stop offset="0.9" stop-color="#C8C8C8"/>
<stop offset="0.93" stop-color="#A9A9A9"/>
<stop offset="0.95" stop-color="#828282"/>
<stop offset="0.97" stop-color="#545454"/>
<stop offset="0.99" stop-color="#212121"/>
<stop offset="1"/>
</linearGradient>
<linearGradient id="paint81_linear_6561_4153" x1="70.9453" y1="13.7339" x2="83.7905" y2="13.7339" gradientUnits="userSpaceOnUse">
<stop stop-color="#545456"/>
<stop offset="0.34" stop-color="#3A3A3C"/>
<stop offset="1"/>
</linearGradient>
<radialGradient id="paint82_radial_6561_4153" cx="0" cy="0" r="1" gradientUnits="userSpaceOnUse" gradientTransform="translate(76.7846 15.5932) scale(5.64372 5.63574)">
<stop stop-color="#545456"/>
<stop offset="0.34" stop-color="#3A3A3C"/>
<stop offset="1"/>
</radialGradient>
<linearGradient id="paint83_linear_6561_4153" x1="74.8154" y1="15.7098" x2="79.1756" y2="15.7098" gradientUnits="userSpaceOnUse">
<stop/>
<stop offset="0.02" stop-color="#2F2F2F"/>
<stop offset="0.04" stop-color="#5F5F5F"/>
<stop offset="0.06" stop-color="#8A8A8A"/>
<stop offset="0.08" stop-color="#AEAEAE"/>
<stop offset="0.1" stop-color="#CCCCCC"/>
<stop offset="0.12" stop-color="#E2E2E2"/>
<stop offset="0.15" stop-color="#F2F2F2"/>
<stop offset="0.18" stop-color="#FCFCFC"/>
<stop offset="0.22" stop-color="white"/>
<stop offset="0.8" stop-color="white"/>
<stop offset="0.83" stop-color="#FCFCFC"/>
<stop offset="0.86" stop-color="#F1F1F1"/>
<stop offset="0.88" stop-color="#E0E0E0"/>
<stop offset="0.9" stop-color="#C8C8C8"/>
<stop offset="0.93" stop-color="#A9A9A9"/>
<stop offset="0.95" stop-color="#828282"/>
<stop offset="0.97" stop-color="#545454"/>
<stop offset="0.99" stop-color="#212121"/>
<stop offset="1"/>
</linearGradient>
<linearGradient id="paint84_linear_6561_4153" x1="0.879134" y1="15.9284" x2="2.30562" y2="15.9284" gradientUnits="userSpaceOnUse">
<stop/>
<stop offset="0.5" stop-color="#656668"/>
<stop offset="0.64" stop-color="#4B4C4E"/>
<stop offset="0.95" stop-color="#0A0A0B"/>
<stop offset="1"/>
</linearGradient>
<linearGradient id="paint85_linear_6561_4153" x1="0.106934" y1="15.9185" x2="11.8339" y2="15.9185" gradientUnits="userSpaceOnUse">
<stop/>
<stop offset="0.5" stop-color="#656668"/>
<stop offset="0.64" stop-color="#4B4C4E"/>
<stop offset="0.95" stop-color="#0A0A0B"/>
<stop offset="1"/>
</linearGradient>
<radialGradient id="paint86_radial_6561_4153" cx="0" cy="0" r="1" gradientUnits="userSpaceOnUse" gradientTransform="translate(48.3735 19.5085) scale(28.8098 28.7691)">
<stop offset="0.52" stop-color="#2E2E2F"/>
<stop offset="0.67" stop-color="#2A2A2B"/>
<stop offset="0.8" stop-color="#202020"/>
<stop offset="0.93" stop-color="#0E0E0E"/>
<stop offset="1"/>
</radialGradient>
<linearGradient id="paint87_linear_6561_4153" x1="30.081" y1="17.3497" x2="30.081" y2="19.8938" gradientUnits="userSpaceOnUse">
<stop/>
<stop offset="0.1" stop-color="#3B3A3C"/>
<stop offset="0.22" stop-color="#4D4D4F"/>
<stop offset="0.35" stop-color="#555658"/>
<stop offset="0.51" stop-color="#58595B"/>
<stop offset="0.62" stop-color="#555557"/>
<stop offset="0.72" stop-color="#4A4B4C"/>
<stop offset="0.82" stop-color="#38393A"/>
<stop offset="0.91" stop-color="#1F1F20"/>
<stop offset="1"/>
</linearGradient>
<linearGradient id="paint88_linear_6561_4153" x1="29.9544" y1="14.2036" x2="29.9544" y2="11.6595" gradientUnits="userSpaceOnUse">
<stop/>
<stop offset="0.1" stop-color="#3B3A3C"/>
<stop offset="0.22" stop-color="#4D4D4F"/>
<stop offset="0.35" stop-color="#555658"/>
<stop offset="0.51" stop-color="#58595B"/>
<stop offset="0.62" stop-color="#555557"/>
<stop offset="0.72" stop-color="#4A4B4C"/>
<stop offset="0.82" stop-color="#38393A"/>
<stop offset="0.91" stop-color="#1F1F20"/>
<stop offset="1"/>
</linearGradient>
<linearGradient id="paint89_linear_6561_4153" x1="25.3453" y1="13.427" x2="25.3453" y2="11.1354" gradientUnits="userSpaceOnUse">
<stop/>
<stop offset="0.1" stop-color="#3B3A3C"/>
<stop offset="0.22" stop-color="#4D4D4F"/>
<stop offset="0.35" stop-color="#555658"/>
<stop offset="0.51" stop-color="#58595B"/>
<stop offset="0.62" stop-color="#555557"/>
<stop offset="0.72" stop-color="#4A4B4C"/>
<stop offset="0.82" stop-color="#38393A"/>
<stop offset="0.91" stop-color="#1F1F20"/>
<stop offset="1"/>
</linearGradient>
<linearGradient id="paint90_linear_6561_4153" x1="15.8373" y1="15.7875" x2="23.8448" y2="15.7875" gradientUnits="userSpaceOnUse">
<stop offset="0.11" stop-color="#A7A9AC"/>
<stop offset="0.12" stop-color="#A4A6A9"/>
<stop offset="0.35" stop-color="#6A6B6D"/>
<stop offset="0.56" stop-color="#3C3D3E"/>
<stop offset="0.75" stop-color="#1B1C1C"/>
<stop offset="0.9" stop-color="#070708"/>
<stop offset="1"/>
</linearGradient>
<linearGradient id="paint91_linear_6561_4153" x1="2.5769" y1="15.9235" x2="10.6671" y2="15.9235" gradientUnits="userSpaceOnUse">
<stop/>
<stop offset="0.5" stop-color="#A7A9AC"/>
<stop offset="0.59" stop-color="#8D8F92"/>
<stop offset="0.79" stop-color="#4C4D4E"/>
<stop offset="1"/>
</linearGradient>
<clipPath id="clip0_6561_4153">
<rect width="100" height="43" fill="white" transform="matrix(1 0 0 -1 0 43)"/>
</clipPath>
</defs>
</svg>
