<svg width="100" height="56" viewBox="0 0 100 56" fill="none" xmlns="http://www.w3.org/2000/svg">
<mask id="mask0_2587_158" style="mask-type:alpha" maskUnits="userSpaceOnUse" x="0" y="11" width="100" height="34">
<rect width="100" height="33.9247" transform="matrix(1 0 0 -1 0 44.9557)" fill="#D9D9D9"/>
</mask>
<g mask="url(#mask0_2587_158)">
<mask id="mask1_2587_158" style="mask-type:alpha" maskUnits="userSpaceOnUse" x="0" y="11" width="101" height="34">
<rect width="100" height="33.9244" transform="matrix(1 0 0 -1 0.000488281 44.9559)" fill="#D9D9D9"/>
</mask>
<g mask="url(#mask1_2587_158)">
<path d="M79.1177 42.3468H77.9461C77.8484 42.4248 77.7116 42.483 77.5754 42.483H67.2657C67.1289 42.483 66.9921 42.4248 66.8945 42.3468H65.7234C65.489 42.3468 65.313 41.3946 65.313 40.2084C65.313 39.0227 65.489 38.0705 65.7234 38.0705H66.8945C66.9921 37.9925 67.1289 37.9343 67.2657 37.9343H77.5754C77.7116 37.9343 77.8484 37.9925 77.9461 38.0705H79.1177C79.3522 38.0705 79.5275 39.0227 79.5275 40.2084C79.5275 41.3946 79.3522 42.3468 79.1177 42.3468Z" fill="#272626"/>
<path d="M67.6174 38.0503C67.6174 38.0503 67.4028 38.8087 67.891 39.4303C68.3792 40.0526 68.3985 40.1888 68.2424 40.325C68.0863 40.4606 67.5788 40.0724 67.2467 39.3722C66.8755 38.6143 67.0707 38.0503 67.0707 38.0503H67.6174ZM78.9818 42.3464H78.5322C78.5322 42.3464 78.2592 41.7824 78.4936 41.0246C78.7082 40.3442 78.8251 40.1108 79.0011 40.2668C79.1771 40.4024 79.2747 40.5968 78.9818 41.1026C78.7865 41.4326 78.9818 42.3464 78.9818 42.3464ZM66.2511 38.0701C66.2511 38.0701 66.0359 38.9833 66.2511 39.3331C66.544 39.839 66.4464 40.0334 66.2704 40.1696C66.0944 40.3052 65.9582 40.0916 65.7629 39.4112C65.5284 38.6533 65.8021 38.0893 65.8021 38.0893L66.2511 38.0701ZM66.5826 42.3464H66.1335C66.1335 42.3464 65.8605 41.7824 66.0944 41.0246C66.3095 40.3442 66.4265 40.1108 66.6025 40.2668C66.7778 40.4024 66.8755 40.5968 66.5826 41.1026C66.3873 41.4326 66.5826 42.3464 66.5826 42.3464ZM68.7113 42.3464H68.1646C68.1646 42.3464 67.9495 41.7824 68.34 41.0246C68.6914 40.3442 69.1796 39.9362 69.3357 40.0724C69.4924 40.208 69.4725 40.3442 68.9843 40.9664C68.516 41.5886 68.7113 42.3464 68.7113 42.3464ZM69.6876 38.0503C69.6876 38.0503 69.4725 38.8087 69.9607 39.4303C70.4488 40.0526 70.4681 40.1888 70.312 40.325C70.1559 40.4606 69.6485 40.0724 69.3164 39.3722C68.9451 38.6143 69.1404 38.0503 69.1404 38.0503H69.6876ZM70.7809 42.3464H70.2343C70.2343 42.3464 70.0191 41.7824 70.4097 41.0246C70.761 40.3442 71.2492 39.9362 71.4059 40.0724C71.562 40.208 71.5421 40.3442 71.0539 40.9664C70.5857 41.5886 70.7809 42.3464 70.7809 42.3464ZM71.7573 38.0503C71.7573 38.0503 71.5421 38.8087 72.0303 39.4303C72.5185 40.0526 72.5384 40.1888 72.3817 40.325C72.2256 40.4606 71.7181 40.0724 71.386 39.3722C71.0154 38.6143 71.2107 38.0503 71.2107 38.0503H71.7573ZM72.8506 42.3464H72.3039C72.3039 42.3464 72.0888 41.7824 72.4793 41.0246C72.8313 40.3442 73.3189 39.9362 73.4756 40.0724C73.6317 40.208 73.6118 40.3442 73.1236 40.9664C72.6553 41.5886 72.8506 42.3464 72.8506 42.3464ZM77.947 38.0503C77.947 38.0503 77.7318 38.8087 78.22 39.4303C78.7082 40.0526 78.7275 40.1888 78.5714 40.325C78.4153 40.4606 77.9078 40.0724 77.5757 39.3722C77.2044 38.6143 77.3997 38.0503 77.3997 38.0503H77.947ZM75.8767 38.0503C75.8767 38.0503 75.6622 38.8087 76.1503 39.4303C76.6385 40.0526 76.6578 40.1888 76.5017 40.325C76.3456 40.4606 75.8381 40.0724 75.5061 39.3722C75.1348 38.6143 75.3301 38.0503 75.3301 38.0503H75.8767ZM76.9899 42.3464H76.4432C76.4432 42.3464 76.2287 41.7824 76.6192 41.0246C76.9706 40.3442 77.4588 39.9362 77.6149 40.0724C77.771 40.208 77.7517 40.3442 77.2635 40.9664C76.7753 41.5886 76.9899 42.3464 76.9899 42.3464ZM73.827 38.0503C73.827 38.0503 73.6118 38.8087 74.1 39.4303C74.5881 40.0526 74.608 40.1888 74.4513 40.325C74.2952 40.4606 73.7878 40.0724 73.4557 39.3722C73.085 38.6143 73.2803 38.0503 73.2803 38.0503H73.827ZM74.9202 42.3464H74.3736C74.3736 42.3464 74.159 41.7824 74.549 41.0246C74.901 40.3442 75.3891 39.9362 75.5452 40.0724C75.7013 40.208 75.6814 40.3442 75.1939 40.9664C74.7057 41.5886 74.9202 42.3464 74.9202 42.3464Z" fill="#161616"/>
<path d="M79.1177 13.2668H77.9461C77.8484 13.1888 77.7116 13.1306 77.5754 13.1306H67.2657C67.1289 13.1306 66.9921 13.1888 66.8945 13.2668H65.7234C65.489 13.2668 65.313 14.219 65.313 15.4053C65.313 16.5909 65.489 17.5431 65.7234 17.5431H66.8945C66.9921 17.6211 67.1289 17.6793 67.2657 17.6793H77.5754C77.7116 17.6793 77.8484 17.6211 77.9461 17.5431H79.1177C79.3522 17.5431 79.5275 16.5909 79.5275 15.4053C79.5275 14.219 79.3522 13.2668 79.1177 13.2668Z" fill="#272626"/>
<path d="M67.6174 17.5632C67.6174 17.5632 67.4028 16.8048 67.891 16.1832C68.3792 15.561 68.3985 15.4248 68.2424 15.2886C68.0863 15.153 67.5788 15.5412 67.2467 16.2414C66.8755 16.9992 67.0707 17.5632 67.0707 17.5632H67.6174ZM78.9818 13.2671H78.5322C78.5322 13.2671 78.2592 13.8311 78.4936 14.5889C78.7082 15.2694 78.8251 15.5028 79.0011 15.3468C79.1771 15.2112 79.2747 15.0168 78.9818 14.5109C78.7865 14.1809 78.9818 13.2671 78.9818 13.2671ZM66.2511 17.5434C66.2511 17.5434 66.0359 16.6302 66.2511 16.2804C66.544 15.7746 66.4464 15.5802 66.2704 15.444C66.0944 15.3084 65.9582 15.522 65.7629 16.2024C65.5284 16.9602 65.8021 17.5242 65.8021 17.5242L66.2511 17.5434ZM66.5826 13.2671H66.1335C66.1335 13.2671 65.8605 13.8311 66.0944 14.5889C66.3095 15.2694 66.4265 15.5028 66.6025 15.3468C66.7778 15.2112 66.8755 15.0168 66.5826 14.5109C66.3873 14.1809 66.5826 13.2671 66.5826 13.2671ZM68.7113 13.2671H68.1646C68.1646 13.2671 67.9495 13.8311 68.34 14.5889C68.6914 15.2694 69.1796 15.6774 69.3357 15.5412C69.4924 15.4056 69.4725 15.2694 68.9843 14.6471C68.516 14.0249 68.7113 13.2671 68.7113 13.2671ZM69.6876 17.5632C69.6876 17.5632 69.4725 16.8048 69.9607 16.1832C70.4488 15.561 70.4681 15.4248 70.312 15.2886C70.1559 15.153 69.6485 15.5412 69.3164 16.2414C68.9451 16.9992 69.1404 17.5632 69.1404 17.5632H69.6876ZM70.7809 13.2671H70.2343C70.2343 13.2671 70.0191 13.8311 70.4097 14.5889C70.761 15.2694 71.2492 15.6774 71.4059 15.5412C71.562 15.4056 71.5421 15.2694 71.0539 14.6471C70.5857 14.0249 70.7809 13.2671 70.7809 13.2671ZM71.7573 17.5632C71.7573 17.5632 71.5421 16.8048 72.0303 16.1832C72.5185 15.561 72.5384 15.4248 72.3817 15.2886C72.2256 15.153 71.7181 15.5412 71.386 16.2414C71.0154 16.9992 71.2107 17.5632 71.2107 17.5632H71.7573ZM72.8506 13.2671H72.3039C72.3039 13.2671 72.0888 13.8311 72.4793 14.5889C72.8313 15.2694 73.3189 15.6774 73.4756 15.5412C73.6317 15.4056 73.6118 15.2694 73.1236 14.6471C72.6553 14.0249 72.8506 13.2671 72.8506 13.2671ZM77.947 17.5632C77.947 17.5632 77.7318 16.8048 78.22 16.1832C78.7082 15.561 78.7275 15.4248 78.5714 15.2886C78.4153 15.153 77.9078 15.5412 77.5757 16.2414C77.2044 16.9992 77.3997 17.5632 77.3997 17.5632H77.947ZM75.8767 17.5632C75.8767 17.5632 75.6622 16.8048 76.1503 16.1832C76.6385 15.561 76.6578 15.4248 76.5017 15.2886C76.3456 15.153 75.8381 15.5412 75.5061 16.2414C75.1348 16.9992 75.3301 17.5632 75.3301 17.5632H75.8767ZM76.9899 13.2671H76.4432C76.4432 13.2671 76.2287 13.8311 76.6192 14.5889C76.9706 15.2694 77.4588 15.6774 77.6149 15.5412C77.771 15.4056 77.7517 15.2694 77.2635 14.6471C76.7753 14.0249 76.9899 13.2671 76.9899 13.2671ZM73.827 17.5632C73.827 17.5632 73.6118 16.8048 74.1 16.1832C74.5881 15.561 74.608 15.4248 74.4513 15.2886C74.2952 15.153 73.7878 15.5412 73.4557 16.2414C73.085 16.9992 73.2803 17.5632 73.2803 17.5632H73.827ZM74.9202 13.2671H74.3736C74.3736 13.2671 74.159 13.8311 74.549 14.5889C74.901 15.2694 75.3891 15.6774 75.5452 15.5412C75.7013 15.4056 75.6814 15.2694 75.1939 14.6471C74.7057 14.0249 74.9202 13.2671 74.9202 13.2671Z" fill="#161616"/>
<rect width="2.75311" height="10.0887" transform="matrix(1 0 0 -1 52.3286 32.8612)" fill="#050605"/>
<path d="M57.4642 32.9966L59.0065 31.811L58.948 31.7329L57.4058 32.9186L57.4642 32.9966Z" fill="#050605"/>
<path d="M57.4642 22.6359L59.0065 23.8215L58.948 23.8995L57.4058 22.7139L57.4642 22.6359Z" fill="#050605"/>
<path d="M62.2675 33.638C62.2675 33.638 59.0654 33.6962 58.6748 33.716C58.2843 33.7352 56.8005 33.638 56.1947 33.6188C55.5896 33.599 52.7588 33.0938 52.7588 33.0938L53.071 32.0828C53.071 32.0828 55.8825 32.5688 57.7177 32.744C58.5187 32.8214 60.8614 32.4134 60.8614 32.4134L62.2675 33.638Z" fill="#050605"/>
<path d="M62.2675 21.9755C62.2675 21.9755 59.0654 21.9173 58.6748 21.8975C58.2843 21.8783 56.8005 21.9755 56.1947 21.9947C55.5896 22.0145 52.7588 22.5197 52.7588 22.5197L53.071 23.5308C53.071 23.5308 55.8825 23.0447 57.7177 22.8695C58.5187 22.7921 60.8614 23.2001 60.8614 23.2001L62.2675 21.9755Z" fill="#050605"/>
<path d="M61.9746 22.1111C62.3651 22.1111 62.6972 21.7805 62.6972 21.3917C62.6972 21.0028 62.3651 20.6729 61.9746 20.6729C61.584 20.6729 61.252 21.0028 61.252 21.3917C61.252 21.7805 61.5648 22.1111 61.9746 22.1111Z" fill="#0E0F0F"/>
<path d="M55.0632 33.0358C55.0632 33.0358 55.3368 32.3362 55.3754 31.8892C55.4146 31.4415 55.2977 30.8391 55.2392 30.7419C55.1801 30.6447 54.9463 30.4113 54.9463 30.4113V33.172L55.0632 33.0358Z" fill="#050605"/>
<path d="M55.0632 22.6161C55.0632 22.6161 55.3368 23.3157 55.3754 23.7627C55.4146 24.2104 55.2977 24.8128 55.2392 24.91C55.1801 25.0072 54.9463 25.2406 54.9463 25.2406V22.4607L55.0632 22.6161Z" fill="#050605"/>
<path d="M55.863 24.7556C55.9992 24.7556 56.1361 24.6392 56.1361 24.4838C56.1361 24.3475 56.0191 24.2113 55.863 24.2113C55.7262 24.2113 55.5894 24.3284 55.5894 24.4838C55.5894 24.6392 55.707 24.7556 55.863 24.7556ZM55.863 31.3845C55.9992 31.3845 56.1361 31.2675 56.1361 31.1121C56.1361 30.9759 56.0191 30.8403 55.863 30.8403C55.7262 30.8403 55.5894 30.9567 55.5894 31.1121C55.5894 31.2675 55.707 31.3845 55.863 31.3845ZM56.4681 31.1511V24.5029C56.4681 24.1723 56.1945 23.9005 55.863 23.9005C55.531 23.9005 55.2573 24.1723 55.2573 24.5029V31.1511C55.2573 31.4817 55.531 31.7535 55.863 31.7535C56.1945 31.7535 56.4681 31.4817 56.4681 31.1511Z" fill="#292929"/>
<rect width="1.3862" height="5.46255" transform="matrix(1 0 0 -1 55.082 30.5479)" fill="#292929"/>
<path d="M56.4682 29.4202V26.2125L55.082 26.0769V29.5564L56.4682 29.4202Z" fill="#171716"/>
</g>
<mask id="mask2_2587_158" style="mask-type:alpha" maskUnits="userSpaceOnUse" x="56" y="25" width="2" height="6">
<rect width="1.15174" height="5.22914" transform="matrix(1 0 0 -1 56.7227 30.4318)" fill="#D9D9D9"/>
</mask>
<g mask="url(#mask2_2587_158)">
<rect width="1.15174" height="5.22914" transform="matrix(1 0 0 -1 56.7227 30.4318)" fill="url(#paint0_linear_2587_158)"/>
</g>
<mask id="mask3_2587_158" style="mask-type:alpha" maskUnits="userSpaceOnUse" x="0" y="11" width="101" height="34">
<rect width="100" height="33.9244" transform="matrix(1 0 0 -1 0.000488281 44.9559)" fill="#D9D9D9"/>
</mask>
<g mask="url(#mask3_2587_158)">
<path d="M56.5859 30.2945V25.3569L56.7029 25.2207V30.4307L56.5859 30.2945Z" fill="#101010"/>
<path d="M56.5857 30.2945V25.3569L56.4688 25.2207V30.4307L56.5857 30.2945Z" fill="#101010"/>
<path d="M58.2259 30.4899L57.8745 30.1593V25.5133L58.2651 25.1443L58.2259 30.4899Z" fill="#101010"/>
<rect width="0.621891" height="5.34554" transform="matrix(1 0 0 -1 56.8584 30.4886)" fill="#161616"/>
</g>
<mask id="mask4_2587_158" style="mask-type:alpha" maskUnits="userSpaceOnUse" x="51" y="27" width="8" height="2">
<rect width="6.97077" height="1.05004" transform="matrix(1 0 0 -1 51.8994 28.3325)" fill="#D9D9D9"/>
</mask>
<g mask="url(#mask4_2587_158)">
<rect width="6.97078" height="1.05004" transform="matrix(1 0 0 -1 51.8994 28.3325)" fill="url(#paint1_linear_2587_158)"/>
</g>
<mask id="mask5_2587_158" style="mask-type:alpha" maskUnits="userSpaceOnUse" x="0" y="11" width="101" height="35">
<rect width="100" height="33.9244" transform="matrix(1 0 0 -1 0.000488281 45.0077)" fill="#D9D9D9"/>
</mask>
<g mask="url(#mask5_2587_158)">
<rect width="0.995645" height="1.61344" transform="matrix(1 0 0 -1 60.7056 37.4801)" fill="#FFC500"/>
<rect width="1.17164" height="1.38003" transform="matrix(1 0 0 -1 60.7051 19.9656)" fill="#FFC500"/>
<path d="M99.3662 32.6798C99.3662 32.6798 99.4831 32.9132 99.3855 33.0686C99.2878 33.224 96.1442 39.6969 96.1442 39.6969C96.1442 39.6969 87.3774 41.7382 87.2797 41.7574C87.1821 41.7964 87.2213 41.719 87.2213 41.2132C87.2213 40.708 87.2996 39.7941 87.1821 39.7941C87.0652 39.7941 83.4141 39.7168 83.3357 39.7941C83.2573 39.8722 83.2573 39.853 83.2573 39.9694C83.2573 40.0858 83.2188 41.7772 83.2188 41.7772L78.3177 41.8162V42.4378C78.3177 42.4378 76.7555 44.7125 76.5602 44.7899C76.3649 44.8679 74.7051 45.0233 74.5098 44.7899C74.3146 44.5571 73.202 42.4576 73.202 42.4576V41.7964H61.8183C61.8183 41.7964 61.4868 41.7964 61.4868 41.5828V35.4596H63.4974V20.239H61.5453V14.1549C61.5453 14.1549 61.4277 13.8825 61.7014 13.8825H79.7822C79.7822 13.8825 82.7692 13.8633 83.3164 13.8825C83.8631 13.9016 86.9284 13.8243 87.1821 13.8633C87.4358 13.9016 96.0857 15.9819 96.0857 15.9819C96.0857 15.9819 99.4246 22.5329 99.3855 22.7657C99.3469 22.9991 99.2101 23.1743 99.2101 23.1743L99.3662 32.6798Z" fill="#FFC500"/>
<g opacity="0.102005">
<mask id="mask6_2587_158" style="mask-type:alpha" maskUnits="userSpaceOnUse" x="61" y="13" width="7" height="8">
<rect width="5.91648" height="6.29815" transform="matrix(1 0 0 -1 61.5264 20.2584)" fill="#D9D9D9"/>
</mask>
<g mask="url(#mask6_2587_158)">
<path d="M67.4429 20.025V14.1935C67.4429 14.0572 67.3453 13.96 67.2084 13.96H61.7607C61.6245 13.96 61.5269 14.0572 61.5269 14.1935V20.025C61.5269 20.1612 61.6245 20.2584 61.7607 20.2584H67.2084C67.3453 20.2584 67.4429 20.1612 67.4429 20.025Z" fill="white"/>
</g>
</g>
<g opacity="0.0509949">
<mask id="mask7_2587_158" style="mask-type:alpha" maskUnits="userSpaceOnUse" x="78" y="14" width="18" height="10">
<rect width="17.1461" height="8.7669" transform="matrix(1 0 0 -1 78.8418 23.3103)" fill="#D9D9D9"/>
</mask>
<g mask="url(#mask7_2587_158)">
<path d="M95.9873 20.918L88.353 23.3091L81.8312 23.2509L82.1241 21.773L81.1477 21.482L80.9525 21.1514L80.3474 20.7428L80.3281 20.5682L80.2305 20.51L80.1129 20.2568H78.8635C78.8436 19.1294 78.8244 15.5335 78.8635 14.9311C78.8828 14.7558 78.922 14.6196 79.0389 14.5422C78.9805 14.6586 79.0196 14.7949 79.0196 14.7949C79.0196 14.7949 82.3001 14.8339 84.0768 15.0085C85.8536 15.2029 87.103 16.1557 87.8841 17.0107C88.6652 17.8663 89.0364 19.6154 89.5246 19.8686C89.9537 20.0822 91.9456 20.0432 92.7852 20.0432C92.9805 20.063 93.1757 20.063 93.3511 20.0822C94.6987 20.1212 95.9873 20.918 95.9873 20.918Z" fill="white"/>
</g>
</g>
<g opacity="0.102005">
<mask id="mask8_2587_158" style="mask-type:alpha" maskUnits="userSpaceOnUse" x="67" y="14" width="12" height="7">
<rect width="11.0124" height="6.35898" transform="matrix(1 0 0 -1 67.6382 20.6681)" fill="#D9D9D9"/>
</mask>
<g mask="url(#mask8_2587_158)">
<path d="M78.6506 20.4519V14.5232C78.6506 14.4068 78.553 14.3096 78.4361 14.3096H67.8527C67.7358 14.3096 67.6382 14.4068 67.6382 14.5232V20.4519C67.6382 20.5683 67.7358 20.6655 67.8527 20.6655H78.4361C78.553 20.6853 78.6506 20.5881 78.6506 20.4519Z" fill="white"/>
</g>
</g>
<g opacity="0.102005">
<mask id="mask9_2587_158" style="mask-type:alpha" maskUnits="userSpaceOnUse" x="80" y="36" width="3" height="6">
<rect width="2.79167" height="5.73441" transform="matrix(1 0 0 -1 80.1729 41.7573)" fill="#D9D9D9"/>
</mask>
<g mask="url(#mask9_2587_158)">
<rect width="2.79229" height="5.73435" transform="matrix(1 0 0 -1 80.1719 41.7573)" fill="#050605"/>
</g>
</g>
<g opacity="0.102005">
<mask id="mask10_2587_158" style="mask-type:alpha" maskUnits="userSpaceOnUse" x="83" y="36" width="12" height="6">
<rect width="10.7394" height="4.74307" transform="matrix(1 0 0 -1 83.9995 41.4851)" fill="#D9D9D9"/>
</mask>
<g mask="url(#mask10_2587_158)">
<path d="M88.4912 41.4851C88.3152 40.6301 87.9837 39.2111 87.8469 39.2111H84.0005V36.742H94.7393V40.0271L88.4912 41.4851Z" fill="#050605"/>
</g>
</g>
<g opacity="0.102005">
<mask id="mask11_2587_158" style="mask-type:alpha" maskUnits="userSpaceOnUse" x="78" y="14" width="19" height="7">
<rect width="17.0423" height="6.37642" transform="matrix(1 0 0 -1 78.9854 20.6851)" fill="#D9D9D9"/>
</mask>
<g mask="url(#mask11_2587_158)">
<path d="M89.7798 16.371C89.7798 16.371 89.3892 17.0508 89.6044 17.187C89.7997 17.3232 90.0335 17.4396 90.1119 17.265C90.1902 17.0898 89.7798 16.371 89.7798 16.371ZM95.2276 20.2585C95.1691 20.2195 95.0516 20.3365 94.9931 20.3167C94.4272 20.1421 93.5285 20.0641 93.0603 20.0641C92.5914 20.0641 90.0142 20.1421 89.5068 19.8888C88.9987 19.6362 88.6473 17.8872 87.8662 17.0316C87.0851 16.1766 85.8358 15.2045 84.059 15.0293C82.2823 14.8349 79.0018 14.8157 79.0018 14.8157C79.0018 14.8157 78.865 14.4071 79.3924 14.3297C79.9197 14.2517 84.5472 14.4269 84.6641 14.4269C84.7817 14.4269 84.9179 14.3099 85.1716 14.3687C85.4259 14.4269 88.745 15.3989 89.5068 15.9822C90.268 16.5654 91.0491 17.5176 91.3028 18.0618C91.5565 18.606 91.9085 19.4034 92.1032 19.5972C92.3184 19.7916 95.462 20.0449 95.6965 20.2975C95.8327 20.5501 95.8917 20.5111 96.0279 20.6863L95.2276 20.2585Z" fill="#050605"/>
</g>
</g>
<g opacity="0.102005">
<mask id="mask12_2587_158" style="mask-type:alpha" maskUnits="userSpaceOnUse" x="85" y="14" width="7" height="5">
<rect width="5.87748" height="4.14044" transform="matrix(1 0 0 -1 85.229 18.8966)" fill="#D9D9D9"/>
</mask>
<g mask="url(#mask12_2587_158)">
<path d="M86.3035 14.7955C86.2643 14.7955 86.2251 14.7757 86.186 14.7757L86.2444 14.7565C86.3035 14.7565 86.362 14.7757 86.4204 14.7955C86.362 14.7757 86.3228 14.7757 86.3035 14.7955ZM90.7942 17.789C90.8134 17.828 90.8526 17.8862 90.8719 17.9252C90.8719 17.9252 90.8918 17.9834 90.8719 17.9834C90.8134 17.9636 90.7158 17.8082 90.6965 17.7692C90.5597 17.5946 90.4229 17.4392 90.2867 17.2832C90.2867 17.2448 90.2867 17.2058 90.2668 17.1668C90.4621 17.342 90.6381 17.5556 90.7942 17.789ZM86.3228 14.8537C86.2444 14.8339 86.1667 14.8147 86.0883 14.8147L86.1468 14.7955C86.186 14.7955 86.2444 14.8147 86.2836 14.8147V14.8339C86.3035 14.8339 86.3035 14.8339 86.3228 14.8537ZM91.0286 18.8774C90.9695 18.605 90.8719 18.3332 90.7357 18.0608C90.5989 17.828 90.4428 17.6138 90.2668 17.4194C90.2668 17.4002 90.2668 17.3804 90.2867 17.3804V17.3612C90.5013 17.5748 90.6574 17.7692 90.755 17.9444C90.931 18.236 91.0479 18.5666 91.1064 18.8774H91.0286ZM86.4204 14.9311C86.3035 14.8927 86.186 14.8729 86.069 14.8537C86.0491 14.8537 86.0106 14.8537 85.9907 14.8339L86.0491 14.8147C86.1468 14.8339 86.2444 14.8537 86.3421 14.8729C86.3812 14.8927 86.4011 14.9119 86.4204 14.9311ZM90.8918 18.8774C90.7743 18.3524 90.5205 17.9252 90.1891 17.5556C90.2083 17.5364 90.2276 17.5166 90.2276 17.4776C90.3843 17.6528 90.5404 17.8472 90.6574 18.0416C90.8134 18.3134 90.931 18.5858 90.9894 18.8774H90.8918ZM86.5958 15.0673C86.362 14.9899 86.1275 14.9311 85.8931 14.9119L85.9515 14.8927C86.1468 14.9119 86.3228 14.9509 86.4789 15.0091C86.5181 15.0091 86.5572 15.0283 86.5958 15.0673ZM90.755 18.8774C90.6766 18.5858 90.5597 18.3332 90.4036 18.0608C90.3253 17.9252 90.2083 17.789 90.0523 17.6138C90.0914 17.6138 90.13 17.5946 90.1499 17.5748C90.482 17.9444 90.7357 18.3524 90.8526 18.8582H90.755V18.8774ZM87.9826 15.9811C87.4552 15.5923 86.9478 15.2617 86.5765 15.1453C86.3035 15.0481 86.0491 14.9899 85.7761 14.9701L85.8539 14.9311C86.1275 14.9701 86.4011 15.0283 86.6741 15.1255C86.6934 15.1255 86.6934 15.1453 86.7133 15.1453C87.0647 15.3787 87.5529 15.6697 87.6897 15.7477C87.7289 15.7669 87.8265 15.8449 87.9826 15.9811ZM90.5989 18.8774C90.5205 18.5858 90.3843 18.3134 90.1891 18.0416C90.0914 17.9054 89.9546 17.7308 89.7786 17.5556C89.857 17.5946 89.9154 17.6138 89.9739 17.6336C90.1107 17.789 90.2475 17.9444 90.3253 18.0608C90.5013 18.3134 90.6182 18.5858 90.7158 18.8774H90.5989ZM90.4229 18.8774C90.13 18.0026 89.4664 17.4392 88.783 16.817C87.709 15.8641 86.9478 15.1255 85.6586 14.9899L85.737 14.9509C86.0491 14.9899 86.3421 15.0481 86.635 15.1843C87.1231 15.3787 87.8458 15.9031 88.5292 16.4672C88.8222 16.7198 89.1151 17.0114 89.3489 17.2058C89.7202 17.5556 90.0131 17.8862 90.1692 18.1196C90.3253 18.3524 90.4428 18.5858 90.5205 18.8582L90.4229 18.8774ZM90.2475 18.8774C89.9347 18.0608 89.2904 17.4776 88.6462 16.895C87.5722 15.9031 86.811 15.1645 85.5224 15.0673L85.62 15.0283C86.8694 15.1453 87.6505 15.8839 88.7046 16.8362C89.3688 17.4392 90.0715 18.0416 90.3644 18.8966H90.2475V18.8774ZM90.0324 18.8774C89.7202 18.0998 89.0952 17.5364 88.5093 16.9724C87.436 15.9421 86.6741 15.2035 85.3856 15.1255L85.4832 15.0871C86.811 15.2035 87.6113 16.0201 88.7046 17.0306C89.2904 17.5748 89.8962 18.1388 90.1692 18.8966L90.0324 18.8774ZM89.8178 18.8774C89.5056 18.1778 88.959 17.6528 88.4117 17.0888C87.2991 15.9811 86.5373 15.2227 85.2295 15.1645L85.3271 15.1255C86.6549 15.2035 87.4552 16.0393 88.5485 17.0888C89.0952 17.6138 89.6617 18.158 89.9546 18.8774H89.8178Z" fill="white"/>
</g>
</g>
<path d="M58.8894 27.8974L58.7725 31.8827C58.7725 31.8827 58.2252 31.7267 58.1667 31.1825C58.1083 30.6382 58.1276 29.5498 58.1276 29.5498V27.9172V27.8782V26.2449C58.1276 26.2449 58.1083 25.1565 58.1667 24.6123C58.2252 24.0681 58.7725 23.9127 58.7725 23.9127L58.8894 27.8974Z" fill="#222222"/>
<path d="M62.4044 33.6517L58.4995 32.3689V23.3879L62.502 22.066L62.4044 33.6517Z" fill="#222222"/>
<path d="M62.443 34.7014H61.8379V21.0162H62.5014L62.443 34.7014Z" fill="#343333"/>
<path d="M62.6584 35.1089H62.2485V20.6077H62.6192L63.1465 21.1321V34.6811L62.6584 35.1089Z" fill="#101010"/>
<rect width="0.878728" height="0.60241" transform="matrix(1 0 0 -1 86.5566 41.3292)" fill="#050605"/>
<rect width="0.878728" height="0.60241" transform="matrix(1 0 0 -1 83.0815 41.3292)" fill="#050605"/>
<rect width="6.11132" height="5.07374" transform="matrix(1 0 0 -1 61.5063 40.4937)" fill="#101010"/>
<path d="M81.2264 34.4479L80.3085 34.8949V35.1673C80.3085 35.1673 80.4261 35.3419 80.0355 35.3809C79.645 35.42 79.4497 35.4001 79.4497 35.4001L79.4298 35.6144L77.0287 35.5945H69.6481C69.6481 35.5945 69.316 35.6726 69.2575 35.5172C69.1985 35.3618 68.6717 35.42 68.6717 35.42L66.3869 35.6726L63.8875 35.7116L62.9895 36.1586L62.9702 35.6534V20.2767H79.5473C79.5473 20.2767 79.9963 20.2767 80.0747 20.3356C80.1524 20.3937 80.1723 20.6272 80.1723 20.6272H80.3284V20.8408L81.1873 21.346L81.2264 34.4479Z" fill="#050605"/>
<path d="M89.8182 17.3042C89.8182 17.3042 89.3885 17.1098 89.2131 16.9544C89.0372 16.799 88.6074 16.3904 88.1976 16.0406C87.7878 15.6908 86.8506 15.0685 86.8506 15.0685L87.2212 14.9911C87.2212 14.9911 87.2604 14.9911 87.2604 14.9329C87.2604 14.8741 87.3773 14.8159 87.3773 14.8159L88.1192 15.1274L88.1976 14.9521L89.1932 15.3601L89.1348 15.5545L89.9159 15.866L89.8767 16.0406L90.2088 16.5656L90.1304 16.76L90.2673 16.799L90.248 16.8764H89.9743L89.8182 17.3042Z" fill="#050605"/>
<path d="M98.9751 32.6402C98.9751 32.6402 98.5261 32.8346 98.4477 32.9708C98.3501 33.107 97.2375 35.2059 97.1785 35.2839C97.12 35.3619 97.0423 35.4003 96.9247 35.4003H89.7786C89.7786 35.4003 89.4272 35.5365 89.1928 35.1285C88.9583 34.7397 88.9191 34.5261 88.8414 34.5453C88.763 34.5645 80.7773 35.1867 80.7773 35.1867V35.1087V20.5493V20.4713C80.7773 20.4713 88.763 21.1133 88.8414 21.1133C88.8999 21.1133 88.9583 20.9189 89.1928 20.5301C89.4272 20.1413 89.7786 20.2577 89.7786 20.2577H96.9247C97.0423 20.2577 97.1007 20.2967 97.1785 20.3741C97.2375 20.4521 98.3501 22.5516 98.4477 22.6878C98.5454 22.8233 98.9751 23.0178 98.9751 23.0178L98.9944 24.9036L99.0727 24.9228L99.0336 27.8197L99.0727 30.716L98.9944 30.7352L98.9751 32.6402Z" fill="#101010"/>
<path d="M99.6782 32.6795V22.9989C99.6782 22.9016 99.5998 22.8435 99.5221 22.8435H98.5457C98.4481 22.8435 98.3896 22.9215 98.3896 22.9989V32.6795C98.3896 32.7767 98.4674 32.8349 98.5457 32.8349H99.5221C99.5998 32.8547 99.6782 32.7767 99.6782 32.6795Z" fill="#101010"/>
<path d="M96.4761 37.0341C96.6521 37.0341 96.8082 36.8978 96.8082 36.7034C96.8082 36.5289 96.6714 36.3734 96.4761 36.3734C96.3001 36.3734 96.144 36.509 96.144 36.7034C96.144 36.8978 96.3001 37.0341 96.4761 37.0341Z" fill="#101010"/>
<path d="M96.4761 19.2861C96.6521 19.2861 96.8082 19.1499 96.8082 18.9555C96.8082 18.7809 96.6714 18.6249 96.4761 18.6249C96.3001 18.6249 96.144 18.7611 96.144 18.9555C96.144 19.1307 96.3001 19.2861 96.4761 19.2861Z" fill="#101010"/>
<path d="M86.5377 15.0092C86.5769 15.0482 86.6353 15.0674 86.6745 15.1064C86.3816 14.99 86.1086 14.9312 85.8349 14.8928L85.8934 14.873C86.1086 14.8928 86.3231 14.951 86.5377 15.0092ZM90.3455 18.0609C90.2672 17.9253 90.1502 17.7891 89.9942 17.6139C90.0333 17.6139 90.0719 17.6139 90.1111 17.5947C90.4239 17.9637 90.6776 18.3723 90.7945 18.8583H90.7162C90.6185 18.6051 90.5016 18.3333 90.3455 18.0609ZM86.2839 14.7956C86.2255 14.7758 86.167 14.7758 86.1086 14.7566L86.167 14.7368C86.2255 14.7566 86.2839 14.7566 86.3424 14.7758C86.3231 14.7758 86.3038 14.7956 86.2839 14.7956ZM90.7361 17.7891C90.7553 17.8281 90.7945 17.8863 90.8138 17.9253C90.8138 17.9253 90.8337 17.9835 90.8138 17.9835C90.7553 17.9637 90.6577 17.8083 90.6384 17.7693C90.5209 17.6139 90.404 17.4777 90.2871 17.3421V17.2251C90.4432 17.3805 90.5992 17.5749 90.7361 17.7891ZM86.343 14.873C86.2454 14.8538 86.1279 14.834 86.0302 14.8148L86.0887 14.7956C86.1477 14.8148 86.2255 14.8148 86.2839 14.834C86.3038 14.834 86.3231 14.8538 86.343 14.873ZM90.9705 18.8775C90.9114 18.6051 90.8138 18.3333 90.6776 18.0609C90.5601 17.8473 90.404 17.6529 90.2479 17.4777C90.2479 17.4585 90.2672 17.4393 90.2672 17.4195C90.4432 17.6139 90.5992 17.7891 90.6969 17.9445C90.8729 18.2361 90.9898 18.5667 91.0483 18.8775H90.9705ZM86.4599 14.9702C86.3231 14.9312 86.167 14.8928 86.0109 14.873C85.991 14.873 85.9525 14.873 85.9326 14.8538L85.991 14.834C86.1279 14.8538 86.2454 14.873 86.3816 14.912C86.4015 14.912 86.4208 14.9312 86.4599 14.9702ZM90.8337 18.8775C90.7162 18.3723 90.4823 17.9637 90.1502 17.5947C90.1695 17.5749 90.1894 17.5557 90.2087 17.5365C90.3455 17.6919 90.4823 17.8665 90.5992 18.0609C90.7553 18.3333 90.8729 18.6051 90.9313 18.8967H90.8337V18.8775ZM88.3536 16.3119C87.69 15.767 86.9873 15.3008 86.4991 15.1256C86.2255 15.0284 85.9718 14.9702 85.6981 14.951L85.7765 14.912C86.0501 14.951 86.3231 15.0092 86.5968 15.1064C86.6745 15.1256 86.7529 15.1646 86.8306 15.2036C87.1627 15.4172 87.5532 15.6506 87.6708 15.7287C87.7678 15.7869 88.0414 16.0203 88.3536 16.3119ZM90.5408 18.8775C90.4624 18.5859 90.3262 18.3135 90.131 18.0417C89.9942 17.8665 89.7989 17.6337 89.5644 17.4003C89.6428 17.4777 89.7205 17.5167 89.7597 17.5365C89.7989 17.5557 89.8381 17.5749 89.8766 17.5947C90.0333 17.7693 90.1502 17.9253 90.2479 18.0417C90.4232 18.2943 90.5408 18.5667 90.6384 18.8583L90.5408 18.8775ZM90.3648 18.8775C90.0719 18.0027 89.4083 17.4393 88.7249 16.8171C87.6509 15.8642 86.8897 15.1256 85.6005 14.99L85.6788 14.951C85.991 14.99 86.2839 15.0482 86.5769 15.1844C87.5731 15.5726 89.5837 17.3421 90.131 18.1389C90.2871 18.3723 90.404 18.6051 90.4823 18.8775H90.3648ZM90.1894 18.8775C89.8766 18.0609 89.2323 17.4777 88.5881 16.8951C87.514 15.9033 86.7529 15.1646 85.4643 15.0674L85.5619 15.0284C86.8113 15.1454 87.5924 15.8841 88.6465 16.8363C89.3107 17.4393 90.0134 18.0417 90.3063 18.8967H90.1894V18.8775ZM89.9742 18.8775C89.6621 18.0999 89.0371 17.5365 88.4512 16.9725C87.3779 15.9423 86.616 15.2036 85.3275 15.1256L85.4251 15.0872C86.7529 15.2036 87.5532 16.0203 88.6465 17.0307C89.2323 17.5749 89.8381 18.1389 90.1111 18.8967L89.9742 18.8775ZM89.7597 18.8775C89.4475 18.1779 88.9009 17.6529 88.3536 17.0889C87.241 15.9813 86.4792 15.2228 85.1714 15.1646L85.269 15.1256C86.5968 15.2036 87.3971 16.0395 88.4904 17.0889C89.0371 17.6139 89.6036 18.1581 89.8965 18.8775H89.7597Z" fill="#050605"/>
<path d="M96.1052 39.211H95.1095V39.0946C94.9336 39.2302 94.6406 39.4246 94.2893 39.5608C93.6643 39.8134 86.987 41.4658 86.987 41.4658L86.811 41.3494L86.8502 41.155H87.0455L93.7619 39.4834C93.7619 39.4834 94.2109 39.3862 94.5237 39.1528C94.6798 39.0357 94.9336 38.8803 95.1095 38.7831V37.8891H96.1052V38.0055L97.0032 37.7337L98.7998 37.7529C98.839 37.6365 98.9559 37.5393 99.0928 37.5003L98.9752 37.3449C98.4093 37.6365 97.9018 37.7529 97.8428 37.5975C97.765 37.4421 98.2333 37.2285 98.8191 36.8979C99.4049 36.5865 99.8931 36.2949 99.9908 36.4509C100.069 36.6063 99.6587 36.9561 99.0928 37.2867L99.2488 37.4811C99.4441 37.5003 99.5809 37.6557 99.5809 37.8501C99.5809 38.0445 99.4049 38.2197 99.1904 38.2197C98.9951 38.2197 98.839 38.0835 98.7998 37.9281L97.6089 37.9473C97.6089 37.9473 97.4522 38.1417 97.2377 38.2197C97.0816 38.2587 96.4174 38.2587 96.1052 38.2197V39.211Z" fill="#050605"/>
<path d="M84.1749 35.2837C84.1749 35.2837 84.1357 35.3618 84.1357 35.4001C84.1357 35.42 84.2533 35.7116 84.0773 35.906C83.9013 36.1004 83.7452 36.0806 83.7452 36.0806L82.2029 36.236C82.2029 36.236 81.9684 36.236 81.8515 36.1004C81.734 35.9642 81.7539 35.867 81.7539 35.7506V35.5945L81.6562 35.459L82.0076 35.4391L81.9684 35.5562C81.9684 35.5562 81.9492 35.8862 82.0076 35.945C82.0661 36.0032 82.086 36.0032 82.1836 36.0032C82.2806 36.0032 83.7452 35.8862 83.7452 35.8862C83.7452 35.8862 83.9013 35.8478 83.9212 35.7698C83.9405 35.6917 83.9212 35.4001 83.9212 35.4001L83.8235 35.3228L84.1749 35.2837Z" fill="#101010"/>
<path d="M83.4915 38.4137C83.6868 38.4137 83.8429 38.2583 83.8429 38.0639C83.8429 37.8695 83.6868 37.7141 83.4915 37.7141C83.2962 37.7141 83.1401 37.8695 83.1401 38.0639C83.1401 38.2583 83.2962 38.4137 83.4915 38.4137Z" fill="#101010"/>
<path d="M85.327 41.4277H86.2642V41.1169H85.327V41.4277ZM84.2144 41.4277H85.1516V41.1169H84.2144V41.4277ZM83.4134 41.4277H84.0577V41.1169H83.4134V41.4277ZM84.0583 40.6501H83.414V40.9609H84.0583V40.6501ZM85.1516 40.6501H84.2144V40.9609H85.1516V40.6501ZM86.2642 40.6501H85.327V40.9609H86.2642V40.6501ZM87.0652 40.6501H86.4209V40.9609H87.0652V40.6501ZM87.0652 41.1169H86.4209V41.4277H87.0652V41.1169ZM87.2405 41.5831H83.2573V40.4947H87.2405V41.5831Z" fill="#353535"/>
<rect width="1.26928" height="3.75191" transform="matrix(1 0 0 -1 81.6758 40.455)" fill="#050605"/>
<rect width="1.26928" height="3.75191" transform="matrix(1 0 0 -1 80.3872 40.455)" fill="#050605"/>
<rect width="2.51866" height="5.30653" transform="matrix(1 0 0 -1 77.2437 41.3292)" fill="#050605"/>
<rect width="4.70585" height="3.75191" transform="matrix(1 0 0 -1 59.4746 18.7614)" fill="#101010"/>
<path d="M82.7888 41.3299C82.7888 41.2717 82.7496 41.2326 82.6912 41.2326H78.6103C78.5519 41.2326 78.5127 41.2717 78.5127 41.3299C78.5127 41.388 78.5519 41.4271 78.6103 41.4271H82.6912C82.7496 41.4462 82.7888 41.388 82.7888 41.3299Z" fill="#050605"/>
<path d="M82.1831 41.3296V41.3104C82.1831 41.1934 82.0855 41.0962 81.9686 41.0962C81.8511 41.0962 81.7534 41.1934 81.7534 41.3104V41.3296C81.7534 41.446 81.8511 41.5432 81.9686 41.5432C82.0855 41.5432 82.1831 41.446 82.1831 41.3296Z" fill="#050605"/>
<path d="M80.2702 41.0389C80.6794 41.0389 81.0115 40.7083 81.0115 40.3003C81.0115 39.8923 80.6794 39.5617 80.2702 39.5617C79.8598 39.5617 79.5283 39.8923 79.5283 40.3003C79.5283 40.7083 79.8598 41.0389 80.2702 41.0389Z" fill="#C3231B"/>
<path d="M80.2706 40.5322C80.1723 40.5322 80.094 40.474 80.056 40.4158V41.2708C80.056 41.29 80.0355 41.3098 80.0162 41.3098C79.9963 41.3098 79.9771 41.29 79.9771 41.2708V40.3186C79.9771 40.2988 79.9963 40.2796 80.0162 40.2796H80.0355C80.0355 40.1824 80.094 40.1044 80.1723 40.0654V40.0072H80.1338C80.1139 40.0072 80.1139 40.0072 80.1139 39.988L80.0747 39.8326C80.0747 39.8128 80.0747 39.7936 80.094 39.7936H80.4845C80.505 39.7936 80.505 39.8128 80.505 39.8326L80.4652 39.988C80.4652 40.0072 80.446 40.0072 80.446 40.0072H80.4261V40.0654C80.505 40.1044 80.5629 40.1824 80.5629 40.2796C80.5629 40.2796 80.5828 40.2598 80.602 40.2598C80.6213 40.2598 80.6412 40.2796 80.6412 40.2988V41.2708C80.6412 41.29 80.6213 41.3098 80.602 41.3098C80.5828 41.3098 80.5629 41.29 80.5629 41.2708V40.357C80.4845 40.4542 80.3869 40.5322 80.2706 40.5322Z" fill="#050605"/>
<path d="M78.1028 43.0014C78.1028 43.0014 77.2235 44.0316 76.9306 44.4013C76.6376 44.7703 76.2863 44.9845 75.8572 44.9845C75.4274 45.0037 74.8024 45.0619 74.4511 44.8675C74.0997 44.673 72.147 41.4462 72.147 41.4462L72.2838 41.31C72.6936 41.952 74.1389 44.4396 74.4511 44.6148C74.8024 44.8093 75.466 44.7703 75.8957 44.7511C76.3255 44.7312 76.5599 44.5758 76.8528 44.2068C77.1457 43.8372 77.9461 42.7098 77.9461 42.7098L78.2975 42.399L78.4735 42.4374L78.1028 43.0014Z" fill="#050605"/>
<path d="M72.128 41.7766C72.3624 41.7766 72.5577 41.5822 72.5577 41.3488C72.5577 41.1154 72.3624 40.9216 72.128 40.9216C71.8935 40.9216 71.6982 41.1154 71.6982 41.3488C71.6982 41.6014 71.8935 41.7766 72.128 41.7766Z" fill="#050605"/>
<path d="M72.2652 42.3791C72.2652 42.7871 71.9331 43.1177 71.5233 43.1177H68.6726C68.2628 43.1177 67.9307 42.7871 67.9307 42.3791V39.7936H68.1259V42.301C68.1259 42.6515 68.3989 42.9233 68.7509 42.9233H71.4257C71.7771 42.9233 72.0507 42.6515 72.0507 42.301V41.2708V41.2324H72.246V42.3791H72.2652Z" fill="#050605"/>
<path d="M67.9885 41.097L67.9692 40.1058H67.9885C68.2621 40.1058 68.496 40.3194 68.496 40.611C68.496 40.9026 68.2621 41.097 67.9885 41.097Z" fill="#050605"/>
<rect width="3.98321" height="0.619127" transform="matrix(1 0 0 -1 68.1055 41.4465)" fill="#050605"/>
<path d="M80.1332 35.0503C80.1332 35.0113 80.114 34.9921 80.0748 34.9723L78.0829 34.5643C78.0443 34.5643 78.0244 34.5835 78.0244 34.6033C78.0244 34.6423 78.0443 34.6615 78.0829 34.6807L80.0748 35.0893C80.0941 35.1085 80.1332 35.0893 80.1332 35.0503Z" fill="#101010"/>
<path d="M80.1332 20.6079C80.1332 20.6469 80.114 20.6661 80.0748 20.6859L78.0829 21.0939C78.0443 21.0939 78.0244 21.0747 78.0244 21.0549C78.0244 21.0159 78.0443 20.9967 78.0829 20.9775L80.0748 20.5689C80.0941 20.5497 80.1332 20.5689 80.1332 20.6079Z" fill="#101010"/>
<path d="M66.3683 40.1635C66.6419 40.1635 66.8758 39.93 66.8758 39.6582C66.8758 39.3858 66.6419 39.1524 66.3683 39.1524C66.0947 39.1524 65.8608 39.3858 65.8608 39.6582C65.8608 39.93 66.0754 40.1635 66.3683 40.1635Z" fill="#050605"/>
<path d="M63.9467 39.3086C64.2981 39.3086 64.5717 39.0362 64.5717 38.6864C64.5717 38.3366 64.2981 38.0648 63.9467 38.0648C63.5953 38.0648 63.3217 38.3366 63.3217 38.6864C63.3024 39.0362 63.5953 39.3086 63.9467 39.3086Z" fill="#050605"/>
<path d="M67.3444 39.7171C67.3444 39.7171 67.0322 39.231 66.9731 39.1728C66.9147 39.1146 66.9147 39.1338 66.7978 39.1338C66.6808 39.1338 65.3332 39.3474 64.9427 38.823C64.5521 38.298 64.1815 36.3738 64.1815 36.3738L63.9277 36.393C63.9277 36.393 64.2592 38.2008 64.5129 38.6676C64.7673 39.1338 65.0403 39.3673 65.6068 39.4254C66.1927 39.4836 66.817 39.3673 66.8755 39.4254C66.9346 39.4836 67.1883 40.0087 67.1883 40.0087L67.3444 39.7171Z" fill="#050605"/>
<path d="M67.4025 40.2795C67.168 40.2795 66.9927 40.0851 66.9927 39.8715C66.9927 39.6573 67.188 39.4629 67.4025 39.4629C67.4809 39.4629 67.5586 39.4827 67.6171 39.5217V40.2405C67.5586 40.2603 67.4809 40.2795 67.4025 40.2795Z" fill="#050605"/>
<path d="M64.0832 36.8007C64.2977 36.8007 64.4545 36.6254 64.4545 36.431C64.4545 36.2174 64.2785 36.062 64.0832 36.062C63.8686 36.062 63.7119 36.2366 63.7119 36.431C63.7119 36.6254 63.8879 36.8007 64.0832 36.8007Z" fill="#050605"/>
<rect width="0.89801" height="0.619127" transform="matrix(1 0 0 -1 64.0249 40.455)" fill="#050605"/>
<path d="M75.6419 12.3458L75.5834 12.365L75.6419 12.521V12.3458ZM75.6419 14.7951H68.7495C68.691 14.9505 68.5343 15.0675 68.3589 15.0675C68.1245 15.0675 67.9292 14.8731 67.9292 14.6397C67.9292 14.6007 67.9292 14.5617 67.9491 14.5425H68.7886V14.5617H75.6612V14.2509V13.2008L75.6226 13.1426C75.6226 13.1624 75.6419 13.415 75.6226 13.4732C75.6027 13.5122 75.525 13.5896 75.4659 13.5704C75.4074 13.5513 75.173 13.0652 75.0368 12.6182C74.9976 12.4622 74.9391 12.2678 74.9192 12.0734L74.7047 11.7434C74.6263 11.6264 74.6655 11.5292 74.7831 11.5292H74.8415C74.8216 11.432 74.8216 11.3546 74.8216 11.3348C74.8216 11.2376 74.8801 11.2376 74.9192 11.2376C74.9584 11.2376 74.9777 11.2376 75.0952 11.3738C75.2321 11.5292 75.349 11.8988 75.349 11.8988L75.4466 11.9378L75.5635 12.2294V12.2486L75.6612 12.2294V11.0822H75.6811H76.2277H76.2862V13.5122L76.6183 13.9983C76.696 14.1147 76.6574 14.2119 76.5399 14.2119C76.4622 14.2119 76.3645 14.1729 76.2862 14.0955H76.2277V14.2119L76.5984 14.1927L76.9503 14.3871L77.1649 14.5227L77.1257 14.9115C77.1257 14.9115 77.0865 14.9505 77.048 15.0087C77.2433 15.2421 77.5362 15.5919 77.7308 15.9033C78.0237 16.4085 78.3365 17.1081 78.3365 17.575V19.2466C78.4926 19.3246 78.6095 19.48 78.6095 19.6546V19.6936H77.6923V19.6546C77.6923 19.4218 77.8676 19.2466 78.0828 19.2076V17.6332C78.0828 17.6332 78.1605 17.1081 77.5747 16.1559C77.2433 15.6309 76.9696 15.3201 76.7743 15.1449C76.6375 15.1449 76.4423 15.1059 76.4423 15.1059H75.6612V14.7951H75.6419Z" fill="#050605"/>
<path d="M78.2973 43.6036V43.4872L78.2581 43.6036H78.2973ZM78.9808 44.9254H78.2973V43.72L78.2196 43.7008V43.72L78.0828 43.9924L77.9851 44.0314C77.9851 44.0314 77.8676 44.4004 77.7314 44.5558C77.5946 44.7118 77.5946 44.7118 77.5554 44.692C77.5162 44.692 77.4578 44.692 77.4578 44.5948C77.4578 44.5756 77.4578 44.4976 77.477 44.4004H77.4186C77.3017 44.4004 77.2818 44.3032 77.3409 44.1868L77.5554 43.8562C77.5946 43.6618 77.6338 43.4674 77.6723 43.312C77.8091 42.865 78.0436 42.3789 78.102 42.3598C78.1605 42.3399 78.2389 42.418 78.2581 42.457C78.278 42.4953 78.2581 42.7678 78.2581 42.787L78.278 42.7486V40.4157H78.9615V41.7957L79.0784 41.7375H79.2544C79.293 41.7765 79.293 41.8347 79.2544 41.9319L78.9615 42.3598L78.9808 44.9254Z" fill="#050605"/>
<path d="M66.5628 14.8926H65.079V14.9118C65.079 14.9706 65.0398 15.009 64.9814 15.009H64.7861C64.7276 15.009 64.6885 14.9706 64.6885 14.9118V14.8926H62.0914V14.9118C62.0914 14.9706 62.0523 15.009 61.9938 15.009H61.7985C61.7401 15.009 61.7009 14.9706 61.7009 14.9118V14.8926H61.1543V15.009H60.4708V14.8926H59.9049C59.8265 14.8926 59.7681 14.8344 59.7681 14.7564C59.7681 14.679 59.8265 14.6202 59.9049 14.6202H61.7009C61.7009 14.5818 61.7594 14.5428 61.7985 14.5428H61.9938C62.0523 14.5428 62.0914 14.5818 62.0914 14.6202H64.6885C64.6885 14.5818 64.7469 14.5428 64.7861 14.5428H64.9814C65.0398 14.5428 65.079 14.5818 65.079 14.6202H66.5628C66.5628 14.601 66.5821 14.5818 66.5821 14.562H67.324C67.3632 14.6202 67.3632 14.679 67.3632 14.7564C67.3632 14.9898 67.1679 15.165 66.9534 15.165C66.7774 15.165 66.6213 15.048 66.5628 14.8926Z" fill="#101010"/>
<path d="M66.5628 18.8782H65.079V18.859C65.079 18.8002 65.0398 18.7618 64.9814 18.7618H64.7861C64.7276 18.7618 64.6885 18.8002 64.6885 18.859V18.8782H62.0914V18.859C62.0914 18.8002 62.0523 18.7618 61.9938 18.7618H61.7985C61.7401 18.7618 61.7009 18.8002 61.7009 18.859V18.8782H61.1543V18.7618H60.4708V18.8782H59.9049C59.8265 18.8782 59.7681 18.9364 59.7681 19.0144C59.7681 19.0918 59.8265 19.1506 59.9049 19.1506H61.7009C61.7009 19.189 61.7594 19.228 61.7985 19.228H61.9938C62.0523 19.228 62.0914 19.189 62.0914 19.1506H64.6885C64.6885 19.189 64.7469 19.228 64.7861 19.228H64.9814C65.0398 19.228 65.079 19.189 65.079 19.1506H66.5628C66.5628 19.1698 66.5821 19.189 66.5821 19.2088H67.324C67.3632 19.1506 67.3632 19.0918 67.3632 19.0144C67.3632 18.781 67.1679 18.6058 66.9534 18.6058C66.7774 18.5866 66.6213 18.7228 66.5628 18.8782Z" fill="#101010"/>
<path d="M78.1417 34.2732L79.5671 34.584V21.0548L77.6343 21.6182L78.1417 34.2732Z" fill="#272626"/>
<g opacity="0.199997">
<mask id="mask13_2587_158" style="mask-type:alpha" maskUnits="userSpaceOnUse" x="95" y="16" width="2" height="24">
<rect width="0.621891" height="23.3849" transform="matrix(1 0 0 -1 95.9297 39.5807)" fill="#D9D9D9"/>
</mask>
<g mask="url(#mask13_2587_158)">
<path d="M96.0466 39.5225V16.2545C96.0466 16.2155 96.0273 16.1957 95.9882 16.1957C95.949 16.1957 95.9297 16.2155 95.9297 16.2545V39.5225C95.9297 39.5615 95.949 39.5807 95.9882 39.5807C96.0273 39.5807 96.0466 39.5417 96.0466 39.5225Z" fill="#050605"/>
</g>
</g>
<path d="M98.7608 32.6798C98.7608 32.6798 97.902 32.777 97.7453 32.6798C97.5892 32.5826 97.3746 32.4854 97.4723 32.2718C97.5892 32.0576 97.7844 31.7858 97.8628 31.6688C97.9405 31.5524 97.9604 30.1724 97.9604 30.1724H97.7453V27.9949V27.5869V25.4094H97.9604C97.9604 25.4094 97.9213 24.0294 97.8628 23.913C97.8043 23.7966 97.5892 23.505 97.4723 23.3106C97.3547 23.1162 97.5892 22.9992 97.7453 22.902C97.902 22.8048 98.7608 22.902 98.7608 22.902L98.9754 27.6061H98.9953L98.9754 27.8203L98.9953 28.0339H98.9754L98.7608 32.6798Z" fill="#353535"/>
<path d="M98.9952 32.2708C99.1712 32.2708 99.3273 32.1345 99.3273 31.9401C99.3273 31.7655 99.1904 31.6101 98.9952 31.6101C98.8192 31.6101 98.6631 31.7457 98.6631 31.9401C98.683 32.1345 98.8192 32.2708 98.9952 32.2708Z" fill="#353535"/>
<path d="M98.9952 24.048C99.1712 24.048 99.3273 23.9118 99.3273 23.7174C99.3273 23.523 99.1904 23.3867 98.9952 23.3867C98.8192 23.3867 98.6631 23.523 98.6631 23.7174C98.6631 23.9118 98.8192 24.048 98.9952 24.048Z" fill="#353535"/>
<g opacity="0.0509949">
<mask id="mask14_2587_158" style="mask-type:alpha" maskUnits="userSpaceOnUse" x="85" y="27" width="3" height="2">
<rect width="1.63992" height="1.63288" transform="matrix(1 0 0 -1 85.6011 28.655)" fill="#D9D9D9"/>
</mask>
<g mask="url(#mask14_2587_158)">
<path d="M86.4213 28.6562C86.8704 28.6562 87.2416 28.2866 87.2416 27.8396C87.2416 27.3926 86.8704 27.0236 86.4213 27.0236C85.9723 27.0236 85.6011 27.3926 85.6011 27.8396C85.6011 28.2866 85.9723 28.6562 86.4213 28.6562Z" fill="white"/>
</g>
</g>
<g opacity="0.0509949">
<mask id="mask15_2587_158" style="mask-type:alpha" maskUnits="userSpaceOnUse" x="80" y="23" width="5" height="3">
<rect width="3.55473" height="1.4898" transform="matrix(1 0 0 -1 80.8354 25.4409)" fill="#D9D9D9"/>
</mask>
<g mask="url(#mask15_2587_158)">
<path d="M84.2328 25.3313C84.2328 25.3313 84.3305 25.1177 83.9791 25.0204C83.647 24.9232 80.8354 24.1066 80.8354 24.1066V23.9512C80.8354 23.9512 83.8815 24.8062 84.0376 24.8842C84.1937 24.9616 84.4088 25.1368 84.3889 25.3504C84.3889 25.5647 84.2328 25.3313 84.2328 25.3313Z" fill="white"/>
</g>
</g>
<g opacity="0.0509949">
<mask id="mask16_2587_158" style="mask-type:alpha" maskUnits="userSpaceOnUse" x="80" y="30" width="5" height="2">
<rect width="3.55473" height="1.4898" transform="matrix(1 0 0 -1 80.8354 31.7264)" fill="#D9D9D9"/>
</mask>
<g mask="url(#mask16_2587_158)">
<path d="M84.2328 30.3464C84.2328 30.3464 84.3305 30.56 83.9791 30.6572C83.647 30.7544 80.8354 31.571 80.8354 31.571V31.7264C80.8354 31.7264 83.8815 30.8714 84.0376 30.7934C84.1937 30.716 84.4088 30.5408 84.3889 30.3272C84.3889 30.113 84.2328 30.3464 84.2328 30.3464Z" fill="white"/>
</g>
</g>
<g opacity="0.102005">
<mask id="mask17_2587_158" style="mask-type:alpha" maskUnits="userSpaceOnUse" x="78" y="13" width="2" height="8">
<rect width="0.621891" height="6.72583" transform="matrix(1 0 0 -1 78.6494 20.5884)" fill="#D9D9D9"/>
</mask>
<g mask="url(#mask17_2587_158)">
<path d="M78.8244 20.5884V13.8628H78.6484V20.5692H78.8244V20.5884Z" fill="#050605"/>
</g>
</g>
<g opacity="0.102005">
<mask id="mask18_2587_158" style="mask-type:alpha" maskUnits="userSpaceOnUse" x="67" y="13" width="2" height="10">
<rect width="0.621891" height="8.59194" transform="matrix(1 0 0 -1 67.4429 22.4541)" fill="#D9D9D9"/>
</mask>
<g mask="url(#mask18_2587_158)">
<path d="M67.6184 22.4541V13.8619H67.4424V22.4349H67.6184V22.4541Z" fill="#050605"/>
</g>
</g>
<g opacity="0.102005">
<mask id="mask19_2587_158" style="mask-type:alpha" maskUnits="userSpaceOnUse" x="80" y="34" width="9" height="2">
<rect width="8.14241" height="1.32184" transform="matrix(1 0 0 -1 80.7383 35.7896)" fill="#D9D9D9"/>
</mask>
<g mask="url(#mask19_2587_158)">
<path d="M84.6431 35.3425C84.6431 35.3035 84.604 35.2645 84.5654 35.2645L81.3826 35.4979C81.3434 35.4979 81.3042 35.5369 81.3042 35.5951C81.3042 35.6341 81.3434 35.6732 81.3826 35.6732L84.5654 35.4397C84.604 35.4199 84.6431 35.3815 84.6431 35.3425ZM80.8944 34.4677L81.0113 35.4787C81.0113 35.4787 88.4702 34.9537 88.6848 34.9537C88.9 34.9537 88.8801 35.2843 88.8801 35.2843L84.0188 35.7896L80.7383 35.7314L80.8944 34.4677Z" fill="#050605"/>
</g>
</g>
<g opacity="0.102005">
<mask id="mask20_2587_158" style="mask-type:alpha" maskUnits="userSpaceOnUse" x="68" y="36" width="9" height="4">
<rect width="8.6107" height="3.09074" transform="matrix(1 0 0 -1 68.0864 39.1138)" fill="#D9D9D9"/>
</mask>
<g mask="url(#mask20_2587_158)">
<rect width="8.6107" height="3.09068" transform="matrix(1 0 0 -1 68.0864 39.1138)" fill="#050605"/>
</g>
</g>
<path d="M78.044 20.4917L75.9744 20.9387H69.8823V20.4143L70.1361 20.3555H77.8096L78.044 20.4917ZM78.044 35.2653L75.9744 34.8183H69.8823V35.3433L70.1361 35.4015H77.8096L78.044 35.2653Z" fill="#272626"/>
<g opacity="0.199997">
<mask id="mask21_2587_158" style="mask-type:alpha" maskUnits="userSpaceOnUse" x="67" y="13" width="12" height="2">
<rect width="11.0124" height="0.408221" transform="matrix(1 0 0 -1 67.6382 14.2905)" fill="#D9D9D9"/>
</mask>
<g mask="url(#mask21_2587_158)">
<rect width="11.0124" height="0.408004" transform="matrix(1 0 0 -1 67.6382 14.2893)" fill="#050605"/>
</g>
</g>
<g opacity="0.199997">
<mask id="mask22_2587_158" style="mask-type:alpha" maskUnits="userSpaceOnUse" x="64" y="13" width="4" height="2">
<rect width="2.53856" height="0.408221" transform="matrix(1 0 0 -1 64.9038 14.2905)" fill="#D9D9D9"/>
</mask>
<g mask="url(#mask22_2587_158)">
<path d="M67.4424 14.2905V13.8825H64.9038L65.3335 14.2905H67.4424Z" fill="#050605"/>
</g>
</g>
<path d="M80.1528 34.7009V20.7829C80.1528 20.7241 80.1136 20.6857 80.0552 20.6857C79.9967 20.6857 79.9575 20.7241 79.9575 20.7829V34.7009C79.9575 34.7591 79.9967 34.7981 80.0552 34.7981C80.1136 34.7981 80.1528 34.7591 80.1528 34.7009Z" fill="#101010"/>
<path d="M79.8995 26.2647C79.8995 26.2449 79.8802 26.2257 79.8603 26.2257H79.7042C79.6849 26.2257 79.665 26.2449 79.665 26.2647C79.665 26.2839 79.6849 26.3031 79.7042 26.3031H79.8603C79.8802 26.3031 79.8995 26.2839 79.8995 26.2647ZM79.8995 26.1285C79.8995 26.1087 79.8802 26.0895 79.8603 26.0895H79.7042C79.6849 26.0895 79.665 26.1087 79.665 26.1285C79.665 26.1477 79.6849 26.1675 79.7042 26.1675H79.8603C79.8802 26.1675 79.8995 26.1675 79.8995 26.1285ZM79.8995 26.0121C79.8995 25.9923 79.8802 25.9731 79.8603 25.9731H79.7042C79.6849 25.9731 79.665 25.9923 79.665 26.0121C79.665 26.0313 79.6849 26.0505 79.7042 26.0505H79.8603C79.8802 26.0505 79.8995 26.0313 79.8995 26.0121ZM79.8995 25.8951C79.8995 25.8759 79.8802 25.8561 79.8603 25.8561H79.7042C79.6849 25.8561 79.665 25.8759 79.665 25.8951C79.665 25.9149 79.6849 25.9341 79.7042 25.9341H79.8603C79.8802 25.9341 79.8995 25.9149 79.8995 25.8951ZM79.8995 25.7787C79.8995 25.7589 79.8802 25.7397 79.8603 25.7397H79.7042C79.6849 25.7397 79.665 25.7589 79.665 25.7787C79.665 25.7979 79.6849 25.8177 79.7042 25.8177H79.8603C79.8802 25.8177 79.8995 25.7979 79.8995 25.7787ZM79.8995 25.6425C79.8995 25.6233 79.8802 25.6035 79.8603 25.6035H79.7042C79.6849 25.6035 79.665 25.6233 79.665 25.6425C79.665 25.6617 79.6849 25.6815 79.7042 25.6815H79.8603C79.8802 25.6815 79.8995 25.6617 79.8995 25.6425ZM79.8995 25.5261C79.8995 25.5063 79.8802 25.4871 79.8603 25.4871H79.7042C79.6849 25.4871 79.665 25.5063 79.665 25.5261C79.665 25.5453 79.6849 25.5645 79.7042 25.5645H79.8603C79.8802 25.5645 79.8995 25.5453 79.8995 25.5261ZM79.8995 25.4091C79.8995 25.3899 79.8802 25.3701 79.8603 25.3701H79.7042C79.6849 25.3701 79.665 25.3899 79.665 25.4091C79.665 25.4289 79.6849 25.4481 79.7042 25.4481H79.8603C79.8802 25.4481 79.8995 25.4289 79.8995 25.4091ZM79.8995 25.2927C79.8995 25.2729 79.8802 25.2537 79.8603 25.2537H79.7042C79.6849 25.2537 79.665 25.2729 79.665 25.2927C79.665 25.3119 79.6849 25.3317 79.7042 25.3317H79.8603C79.8802 25.3317 79.8995 25.3119 79.8995 25.2927ZM79.8995 25.1565C79.8995 25.1373 79.8802 25.1175 79.8603 25.1175H79.7042C79.6849 25.1175 79.665 25.1373 79.665 25.1565C79.665 25.1757 79.6849 25.1955 79.7042 25.1955H79.8603C79.8802 25.1955 79.8995 25.1757 79.8995 25.1565ZM79.8995 25.0401C79.8995 25.0203 79.8802 25.0011 79.8603 25.0011H79.7042C79.6849 25.0011 79.665 25.0203 79.665 25.0401C79.665 25.0593 79.6849 25.0785 79.7042 25.0785H79.8603C79.8802 25.0785 79.8995 25.0593 79.8995 25.0401ZM79.8995 24.9231C79.8995 24.9039 79.8802 24.8841 79.8603 24.8841H79.7042C79.6849 24.8841 79.665 24.9039 79.665 24.9231C79.665 24.9429 79.6849 24.9621 79.7042 24.9621H79.8603C79.8802 24.9621 79.8995 24.9429 79.8995 24.9231ZM79.8995 24.8067C79.8995 24.7869 79.8802 24.7677 79.8603 24.7677H79.7042C79.6849 24.7677 79.665 24.7869 79.665 24.8067C79.665 24.8259 79.6849 24.8457 79.7042 24.8457H79.8603C79.8802 24.8457 79.8995 24.8259 79.8995 24.8067ZM79.8995 24.6705C79.8995 24.6513 79.8802 24.6315 79.8603 24.6315H79.7042C79.6849 24.6315 79.665 24.6513 79.665 24.6705C79.665 24.6897 79.6849 24.7095 79.7042 24.7095H79.8603C79.8802 24.7095 79.8995 24.6897 79.8995 24.6705ZM79.8995 24.5541C79.8995 24.5343 79.8802 24.5151 79.8603 24.5151H79.7042C79.6849 24.5151 79.665 24.5343 79.665 24.5541C79.665 24.5733 79.6849 24.5931 79.7042 24.5931H79.8603C79.8802 24.5931 79.8995 24.5733 79.8995 24.5541ZM79.8995 24.4371C79.8995 24.4179 79.8802 24.3987 79.8603 24.3987H79.7042C79.6849 24.3987 79.665 24.4179 79.665 24.4371C79.665 24.4569 79.6849 24.4761 79.7042 24.4761H79.8603C79.8802 24.4761 79.8995 24.4569 79.8995 24.4371ZM79.8995 24.3207C79.8995 24.3015 79.8802 24.2817 79.8603 24.2817H79.7042C79.6849 24.2817 79.665 24.3015 79.665 24.3207C79.665 24.3399 79.6849 24.3597 79.7042 24.3597H79.8603C79.8802 24.3597 79.8995 24.3399 79.8995 24.3207ZM79.8995 24.1845C79.8995 24.1653 79.8802 24.1455 79.8603 24.1455H79.7042C79.6849 24.1455 79.665 24.1653 79.665 24.1845C79.665 24.2043 79.6849 24.2235 79.7042 24.2235H79.8603C79.8802 24.2235 79.8995 24.2043 79.8995 24.1845ZM79.8995 24.0681C79.8995 24.0483 79.8802 24.0291 79.8603 24.0291H79.7042C79.6849 24.0291 79.665 24.0483 79.665 24.0681C79.665 24.0873 79.6849 24.1071 79.7042 24.1071H79.8603C79.8802 24.1071 79.8995 24.0873 79.8995 24.0681ZM79.8995 23.9511C79.8995 23.9319 79.8802 23.9127 79.8603 23.9127H79.7042C79.6849 23.9127 79.665 23.9319 79.665 23.9511C79.665 23.9709 79.6849 23.9901 79.7042 23.9901H79.8603C79.8802 23.9901 79.8995 23.9709 79.8995 23.9511ZM79.8995 23.8155C79.8995 23.7957 79.8802 23.7765 79.8603 23.7765H79.7042C79.6849 23.7765 79.665 23.7957 79.665 23.8155C79.665 23.8347 79.6849 23.8539 79.7042 23.8539H79.8603C79.8802 23.8737 79.8995 23.8539 79.8995 23.8155ZM79.8995 23.6985C79.8995 23.6793 79.8802 23.6594 79.8603 23.6594H79.7042C79.6849 23.6594 79.665 23.6793 79.665 23.6985C79.665 23.7183 79.6849 23.7375 79.7042 23.7375H79.8603C79.8802 23.7375 79.8995 23.7183 79.8995 23.6985ZM79.8995 23.5821C79.8995 23.5622 79.8802 23.5431 79.8603 23.5431H79.7042C79.6849 23.5431 79.665 23.5622 79.665 23.5821C79.665 23.6012 79.6849 23.6211 79.7042 23.6211H79.8603C79.8802 23.6211 79.8995 23.6012 79.8995 23.5821ZM79.8995 23.465C79.8995 23.4458 79.8802 23.4267 79.8603 23.4267H79.7042C79.6849 23.4267 79.665 23.4458 79.665 23.465C79.665 23.4849 79.6849 23.504 79.7042 23.504H79.8603C79.8802 23.504 79.8995 23.4849 79.8995 23.465ZM79.8995 23.3295C79.8995 23.3096 79.8802 23.2904 79.8603 23.2904H79.7042C79.6849 23.2904 79.665 23.3096 79.665 23.3295C79.665 23.3486 79.6849 23.3678 79.7042 23.3678H79.8603C79.8802 23.3877 79.8995 23.3685 79.8995 23.3295ZM79.8995 23.2124C79.8995 23.1932 79.8802 23.1741 79.8603 23.1741H79.7042C79.6849 23.1741 79.665 23.1932 79.665 23.2124C79.665 23.2322 79.6849 23.2514 79.7042 23.2514H79.8603C79.8802 23.2514 79.8995 23.2322 79.8995 23.2124ZM79.8995 23.096C79.8995 23.0768 79.8802 23.057 79.8603 23.057H79.7042C79.6849 23.057 79.665 23.0768 79.665 23.096C79.665 23.1152 79.6849 23.135 79.7042 23.135H79.8603C79.8802 23.135 79.8995 23.1152 79.8995 23.096ZM79.8995 22.9796C79.8995 22.9598 79.8802 22.9406 79.8603 22.9406H79.7042C79.6849 22.9406 79.665 22.9598 79.665 22.9796C79.665 22.9988 79.6849 23.018 79.7042 23.018H79.8603C79.8802 23.018 79.8995 22.9988 79.8995 22.9796ZM79.8995 22.8434C79.8995 22.8236 79.8802 22.8044 79.8603 22.8044H79.7042C79.6849 22.8044 79.665 22.8236 79.665 22.8434C79.665 22.8626 79.6849 22.8824 79.7042 22.8824H79.8603C79.8802 22.9016 79.8995 22.8824 79.8995 22.8434ZM79.8995 22.7264C79.8995 22.7072 79.8802 22.688 79.8603 22.688H79.7042C79.6849 22.688 79.665 22.7072 79.665 22.7264C79.665 22.7462 79.6849 22.7654 79.7042 22.7654H79.8603C79.8802 22.7654 79.8995 22.7462 79.8995 22.7264ZM79.8995 22.61C79.8995 22.5908 79.8802 22.571 79.8603 22.571H79.7042C79.6849 22.571 79.665 22.5908 79.665 22.61C79.665 22.6292 79.6849 22.649 79.7042 22.649H79.8603C79.8802 22.649 79.8995 22.6292 79.8995 22.61ZM79.8995 22.4936C79.8995 22.4738 79.8802 22.4546 79.8603 22.4546H79.7042C79.6849 22.4546 79.665 22.4738 79.665 22.4936C79.665 22.5128 79.6849 22.532 79.7042 22.532H79.8603C79.8802 22.532 79.8995 22.5128 79.8995 22.4936ZM79.8995 22.3574C79.8995 22.3376 79.8802 22.3184 79.8603 22.3184H79.7042C79.6849 22.3184 79.665 22.3376 79.665 22.3574C79.665 22.3766 79.6849 22.3964 79.7042 22.3964H79.8603C79.8802 22.3964 79.8995 22.3964 79.8995 22.3574ZM79.8995 22.2404C79.8995 22.2212 79.8802 22.202 79.8603 22.202H79.7042C79.6849 22.202 79.665 22.2212 79.665 22.2404C79.665 22.2602 79.6849 22.2794 79.7042 22.2794H79.8603C79.8802 22.2794 79.8995 22.2602 79.8995 22.2404ZM79.8995 33.4373C79.8995 33.4181 79.8802 33.3983 79.8603 33.3983H79.7042C79.6849 33.3983 79.665 33.4181 79.665 33.4373C79.665 33.4571 79.6849 33.4763 79.7042 33.4763H79.8603C79.8802 33.4763 79.8995 33.4571 79.8995 33.4373ZM79.8995 33.3209C79.8995 33.3011 79.8802 33.2819 79.8603 33.2819H79.7042C79.6849 33.2819 79.665 33.3011 79.665 33.3209C79.665 33.3401 79.6849 33.3599 79.7042 33.3599H79.8603C79.8802 33.3599 79.8995 33.3401 79.8995 33.3209ZM79.8995 33.1847C79.8995 33.1655 79.8802 33.1457 79.8603 33.1457H79.7042C79.6849 33.1457 79.665 33.1655 79.665 33.1847C79.665 33.2039 79.6849 33.2237 79.7042 33.2237H79.8603C79.8802 33.2237 79.8995 33.2039 79.8995 33.1847ZM79.8995 33.0683C79.8995 33.0485 79.8802 33.0293 79.8603 33.0293H79.7042C79.6849 33.0293 79.665 33.0485 79.665 33.0683C79.665 33.0875 79.6849 33.1067 79.7042 33.1067H79.8603C79.8802 33.1067 79.8995 33.0875 79.8995 33.0683ZM79.8995 32.9513C79.8995 32.9321 79.8802 32.9123 79.8603 32.9123H79.7042C79.6849 32.9123 79.665 32.9321 79.665 32.9513C79.665 32.9711 79.6849 32.9903 79.7042 32.9903H79.8603C79.8802 32.9903 79.8995 32.9711 79.8995 32.9513ZM79.8995 32.8151C79.8995 32.7959 79.8802 32.7767 79.8603 32.7767H79.7042C79.6849 32.7767 79.665 32.7959 79.665 32.8151C79.665 32.8349 79.6849 32.8541 79.7042 32.8541H79.8603C79.8802 32.8739 79.8995 32.8541 79.8995 32.8151ZM79.8995 32.6987C79.8995 32.6795 79.8802 32.6597 79.8603 32.6597H79.7042C79.6849 32.6597 79.665 32.6795 79.665 32.6987C79.665 32.7185 79.6849 32.7377 79.7042 32.7377H79.8603C79.8802 32.7377 79.8995 32.7185 79.8995 32.6987ZM79.8995 32.5823C79.8995 32.5625 79.8802 32.5433 79.8603 32.5433H79.7042C79.6849 32.5433 79.665 32.5625 79.665 32.5823C79.665 32.6015 79.6849 32.6213 79.7042 32.6213H79.8603C79.8802 32.6213 79.8995 32.6015 79.8995 32.5823ZM79.8995 32.4653C79.8995 32.4461 79.8802 32.4269 79.8603 32.4269H79.7042C79.6849 32.4269 79.665 32.4461 79.665 32.4653C79.665 32.4851 79.6849 32.5043 79.7042 32.5043H79.8603C79.8802 32.5043 79.8995 32.4851 79.8995 32.4653ZM79.8995 32.3297C79.8995 32.3099 79.8802 32.2907 79.8603 32.2907H79.7042C79.6849 32.2907 79.665 32.3099 79.665 32.3297C79.665 32.3489 79.6849 32.3681 79.7042 32.3681H79.8603C79.8802 32.3879 79.8995 32.3681 79.8995 32.3297ZM79.8995 32.2127C79.8995 32.1935 79.8802 32.1737 79.8603 32.1737H79.7042C79.6849 32.1737 79.665 32.1935 79.665 32.2127C79.665 32.2325 79.6849 32.2517 79.7042 32.2517H79.8603C79.8802 32.2517 79.8995 32.2325 79.8995 32.2127ZM79.8995 32.0963C79.8995 32.0765 79.8802 32.0573 79.8603 32.0573H79.7042C79.6849 32.0573 79.665 32.0765 79.665 32.0963C79.665 32.1155 79.6849 32.1353 79.7042 32.1353H79.8603C79.8802 32.1353 79.8995 32.1155 79.8995 32.0963ZM79.8995 31.9793C79.8995 31.9601 79.8802 31.9409 79.8603 31.9409H79.7042C79.6849 31.9409 79.665 31.9601 79.665 31.9793C79.665 31.9991 79.6849 32.0183 79.7042 32.0183H79.8603C79.8802 32.0183 79.8995 31.9991 79.8995 31.9793ZM79.8995 31.8437C79.8995 31.8239 79.8802 31.8047 79.8603 31.8047H79.7042C79.6849 31.8047 79.665 31.8239 79.665 31.8437C79.665 31.8629 79.6849 31.8821 79.7042 31.8821H79.8603C79.8802 31.9019 79.8995 31.8821 79.8995 31.8437ZM79.8995 31.7267C79.8995 31.7075 79.8802 31.6877 79.8603 31.6877H79.7042C79.6849 31.6877 79.665 31.7075 79.665 31.7267C79.665 31.7465 79.6849 31.7657 79.7042 31.7657H79.8603C79.8802 31.7657 79.8995 31.7465 79.8995 31.7267ZM79.8995 31.6103C79.8995 31.5905 79.8802 31.5713 79.8603 31.5713H79.7042C79.6849 31.5713 79.665 31.5905 79.665 31.6103C79.665 31.6295 79.6849 31.6493 79.7042 31.6493H79.8603C79.8802 31.6493 79.8995 31.6295 79.8995 31.6103ZM79.8995 31.4933C79.8995 31.4741 79.8802 31.4549 79.8603 31.4549H79.7042C79.6849 31.4549 79.665 31.4741 79.665 31.4933C79.665 31.5131 79.6849 31.5323 79.7042 31.5323H79.8603C79.8802 31.5323 79.8995 31.5131 79.8995 31.4933ZM79.8995 31.3577C79.8995 31.3379 79.8802 31.3187 79.8603 31.3187H79.7042C79.6849 31.3187 79.665 31.3379 79.665 31.3577C79.665 31.3769 79.6849 31.3961 79.7042 31.3961H79.8603C79.8802 31.3961 79.8995 31.3961 79.8995 31.3577ZM79.8995 31.2407C79.8995 31.2215 79.8802 31.2023 79.8603 31.2023H79.7042C79.6849 31.2023 79.665 31.2215 79.665 31.2407C79.665 31.2605 79.6849 31.2797 79.7042 31.2797H79.8603C79.8802 31.2797 79.8995 31.2605 79.8995 31.2407ZM79.8995 31.1243C79.8995 31.1051 79.8802 31.0853 79.8603 31.0853H79.7042C79.6849 31.0853 79.665 31.1051 79.665 31.1243C79.665 31.1434 79.6849 31.1633 79.7042 31.1633H79.8603C79.8802 31.1633 79.8995 31.1434 79.8995 31.1243ZM79.8995 31.0079C79.8995 30.988 79.8802 30.9689 79.8603 30.9689H79.7042C79.6849 30.9689 79.665 30.988 79.665 31.0079C79.665 31.0271 79.6849 31.0462 79.7042 31.0462H79.8603C79.8802 31.0462 79.8995 31.0271 79.8995 31.0079ZM79.8995 30.8717C79.8995 30.8518 79.8802 30.8326 79.8603 30.8326H79.7042C79.6849 30.8326 79.665 30.8518 79.665 30.8717C79.665 30.8908 79.6849 30.9107 79.7042 30.9107H79.8603C79.8802 30.9107 79.8995 30.9107 79.8995 30.8717ZM79.8995 30.7546C79.8995 30.7354 79.8802 30.7163 79.8603 30.7163H79.7042C79.6849 30.7163 79.665 30.7354 79.665 30.7546C79.665 30.7744 79.6849 30.7936 79.7042 30.7936H79.8603C79.8802 30.7936 79.8995 30.7744 79.8995 30.7546ZM79.8995 30.6382C79.8995 30.619 79.8802 30.5992 79.8603 30.5992H79.7042C79.6849 30.5992 79.665 30.619 79.665 30.6382C79.665 30.6574 79.6849 30.6772 79.7042 30.6772H79.8603C79.8802 30.6772 79.8995 30.6574 79.8995 30.6382ZM79.8995 30.5218C79.8995 30.502 79.8802 30.4828 79.8603 30.4828H79.7042C79.6849 30.4828 79.665 30.502 79.665 30.5218C79.665 30.541 79.6849 30.5602 79.7042 30.5602H79.8603C79.8802 30.5602 79.8995 30.541 79.8995 30.5218ZM79.8995 30.3856C79.8995 30.3658 79.8802 30.3466 79.8603 30.3466H79.7042C79.6849 30.3466 79.665 30.3658 79.665 30.3856C79.665 30.4048 79.6849 30.4246 79.7042 30.4246H79.8603C79.8802 30.4246 79.8995 30.4048 79.8995 30.3856ZM79.8995 30.2686C79.8995 30.2494 79.8802 30.2302 79.8603 30.2302H79.7042C79.6849 30.2302 79.665 30.2494 79.665 30.2686C79.665 30.2884 79.6849 30.3076 79.7042 30.3076H79.8603C79.8802 30.3076 79.8995 30.2884 79.8995 30.2686ZM79.8995 30.1522C79.8995 30.133 79.8802 30.1132 79.8603 30.1132H79.7042C79.6849 30.1132 79.665 30.133 79.665 30.1522C79.665 30.1714 79.6849 30.1912 79.7042 30.1912H79.8603C79.8802 30.1912 79.8995 30.1714 79.8995 30.1522ZM79.8995 30.0358C79.8995 30.016 79.8802 29.9968 79.8603 29.9968H79.7042C79.6849 29.9968 79.665 30.016 79.665 30.0358C79.665 30.055 79.6849 30.0748 79.7042 30.0748H79.8603C79.8802 30.0748 79.8995 30.055 79.8995 30.0358ZM79.8995 29.8996C79.8995 29.8804 79.8802 29.8606 79.8603 29.8606H79.7042C79.6849 29.8606 79.665 29.8804 79.665 29.8996C79.665 29.9188 79.6849 29.9386 79.7042 29.9386H79.8603C79.8802 29.9386 79.8995 29.9188 79.8995 29.8996ZM79.8995 29.7832C79.8995 29.7634 79.8802 29.7442 79.8603 29.7442H79.7042C79.6849 29.7442 79.665 29.7634 79.665 29.7832C79.665 29.8024 79.6849 29.8216 79.7042 29.8216H79.8603C79.8802 29.8216 79.8995 29.8024 79.8995 29.7832ZM79.8995 29.6662C79.8995 29.647 79.8802 29.6272 79.8603 29.6272H79.7042C79.6849 29.6272 79.665 29.647 79.665 29.6662C79.665 29.686 79.6849 29.7052 79.7042 29.7052H79.8603C79.8802 29.7052 79.8995 29.686 79.8995 29.6662ZM79.8995 29.5498C79.8995 29.53 79.8802 29.5108 79.8603 29.5108H79.7042C79.6849 29.5108 79.665 29.53 79.665 29.5498C79.665 29.569 79.6849 29.5888 79.7042 29.5888H79.8603C79.8802 29.5888 79.8995 29.569 79.8995 29.5498ZM79.8995 29.4136C79.8995 29.3944 79.8802 29.3746 79.8603 29.3746H79.7042C79.6849 29.3746 79.665 29.3944 79.665 29.4136C79.665 29.4328 79.6849 29.4526 79.7042 29.4526H79.8603C79.8802 29.4526 79.8995 29.4328 79.8995 29.4136Z" fill="#272626"/>
<path d="M78.4929 41.7767C78.4929 41.7575 78.4929 41.7575 78.4737 41.7575H73.1428C73.1235 41.7575 73.1235 41.7575 73.1235 41.7767C73.1235 41.7959 73.1235 41.7959 73.1428 41.7959H78.4737C78.4929 41.7959 78.4929 41.7959 78.4929 41.7767Z" fill="#050605"/>
<rect width="0.621891" height="3.75191" transform="matrix(1 0 0 -1 62.5415 18.7612)" fill="#050605"/>
<rect width="0.621891" height="3.75191" transform="matrix(1 0 0 -1 60.9585 18.7612)" fill="#050605"/>
<g opacity="0.0509949">
<mask id="mask23_2587_158" style="mask-type:alpha" maskUnits="userSpaceOnUse" x="77" y="24" width="3" height="8">
<rect width="2.09204" height="7.32074" transform="matrix(1 0 0 -1 77.0488 31.5198)" fill="#D9D9D9"/>
</mask>
<g mask="url(#mask23_2587_158)">
<path d="M78.9817 31.2411C78.3958 31.3965 77.4779 31.5909 77.2827 31.4937C77.1465 31.4163 77.0681 29.6468 77.0488 27.8588C77.0681 26.0701 77.1266 24.2821 77.2827 24.2239C77.4779 24.1267 78.3958 24.3403 78.9817 24.4765C79.0009 24.6511 79.0009 24.8263 79.0208 25.0207C79.0793 26.4787 79.1577 27.0422 79.1378 27.8588C79.1577 28.6754 79.06 29.2388 79.0208 30.6969C79.0009 30.8913 78.9817 31.0857 78.9817 31.2411Z" fill="white"/>
</g>
</g>
<path d="M78.5904 21.334C78.7857 21.4894 79.1178 24.3275 79.1178 27.807C79.1178 31.2865 78.7857 34.1054 78.5904 34.2608V34.28C78.5904 34.28 77.9069 34.883 77.5164 34.922C77.1258 34.9604 76.8721 34.8632 76.3062 34.8632H66.1526C66.1526 34.8632 65.2154 35.0576 65.0008 35.1164C64.7857 35.1548 64.3559 35.4464 64.3559 35.4464H63.6924V35.1746H64.3367L64.688 34.8632C64.688 34.8632 64.6489 34.5716 64.6103 34.436C64.5711 34.3388 64.5711 21.2758 64.6103 21.1786C64.6489 21.0424 64.688 20.7508 64.688 20.7508L64.3367 20.44H63.6924V20.1676H64.3559C64.3559 20.1676 64.7857 20.4592 65.0008 20.4982C65.2154 20.5372 66.1526 20.7508 66.1526 20.7508H76.3062C76.8528 20.7508 77.1258 20.6536 77.5164 20.6926C77.9069 20.7316 78.5904 21.334 78.5904 21.334Z" fill="#FFC500"/>
<g opacity="0.102005">
<mask id="mask24_2587_158" style="mask-type:alpha" maskUnits="userSpaceOnUse" x="76" y="23" width="3" height="10">
<rect width="1.97201" height="8.5671" transform="matrix(1 0 0 -1 76.9507 32.0883)" fill="#D9D9D9"/>
</mask>
<g mask="url(#mask24_2587_158)">
<path d="M78.8251 23.5888C78.8642 23.8222 78.9034 24.094 78.9227 24.4246C78.3369 24.2884 77.478 24.094 77.2828 24.172C77.146 24.2494 77.0676 26.0189 77.0483 27.8069C77.0676 29.5956 77.1261 31.3836 77.2828 31.4418C77.478 31.539 78.3369 31.3446 78.9227 31.1892C78.9034 31.5198 78.8642 31.7923 78.8251 32.025C78.3369 32.0839 77.6926 32.1222 77.419 32.0449C76.9507 31.9278 76.9507 30.4506 76.9507 28.0403V27.5543C76.9507 25.1441 76.9507 23.6668 77.419 23.5498C77.6926 23.4916 78.3176 23.5306 78.8251 23.5888Z" fill="#050605"/>
</g>
</g>
</g>
<path d="M39.8716 42.3467H38.7C38.6023 42.4247 38.4655 42.4829 38.3293 42.4829H28.0196C27.8828 42.4829 27.746 42.4247 27.6484 42.3467H26.4773C26.2429 42.3467 26.0669 41.3945 26.0669 40.2082C26.0669 39.0226 26.2429 38.0704 26.4773 38.0704H27.6484C27.746 37.9924 27.8828 37.9342 28.0196 37.9342H38.3293C38.4655 37.9342 38.6023 37.9924 38.7 38.0704H39.8716C40.1061 38.0704 40.2814 39.0226 40.2814 40.2082C40.2814 41.3945 40.0862 42.3467 39.8716 42.3467Z" fill="#272626"/>
<path d="M28.3508 38.0502C28.3508 38.0502 28.1362 38.8086 28.6244 39.4302C29.1126 40.0524 29.1319 40.1887 28.9758 40.3249C28.8197 40.4605 28.3122 40.0723 27.9801 39.372C27.6089 38.6142 27.8041 38.0502 27.8041 38.0502H28.3508ZM39.7345 42.3463H39.2855C39.2855 42.3463 39.0118 41.7823 39.2463 41.0245C39.4608 40.3441 39.5784 40.1106 39.7538 40.2667C39.9298 40.4221 40.0274 40.5967 39.7345 41.1025C39.5199 41.4325 39.7345 42.3463 39.7345 42.3463ZM26.9845 38.07C26.9845 38.07 26.7693 38.9832 26.9845 39.333C27.2774 39.8389 27.1798 40.0333 27.0038 40.1695C26.8284 40.3051 26.6916 40.0915 26.4963 39.411C26.2618 38.6532 26.5355 38.0892 26.5355 38.0892L26.9845 38.07ZM27.3359 42.3463H26.8868C26.8868 42.3463 26.6132 41.7823 26.8477 41.0245C27.0622 40.3441 27.1798 40.1106 27.3551 40.2667C27.5311 40.4221 27.6288 40.5967 27.3359 41.1025C27.1207 41.4325 27.3359 42.3463 27.3359 42.3463ZM29.464 42.3463H28.9173C28.9173 42.3463 28.7028 41.7823 29.0933 41.0245C29.4447 40.3441 29.9329 39.9361 30.089 40.0723C30.2451 40.2079 30.2258 40.3441 29.7376 40.9663C29.2494 41.5885 29.464 42.3463 29.464 42.3463ZM30.421 38.0502C30.421 38.0502 30.2059 38.8086 30.6941 39.4302C31.1822 40.0524 31.2015 40.1887 31.0454 40.3249C30.8893 40.4605 30.3819 40.0723 30.0498 39.372C29.6785 38.6142 29.8738 38.0502 29.8738 38.0502H30.421ZM31.5336 42.3463H30.987C30.987 42.3463 30.7724 41.7823 31.163 41.0245C31.5143 40.3441 32.0025 39.9361 32.1586 40.0723C32.3147 40.2079 32.2954 40.3441 31.8072 40.9663C31.3191 41.5885 31.5336 42.3463 31.5336 42.3463ZM32.4907 38.0502C32.4907 38.0502 32.2755 38.8086 32.7637 39.4302C33.2519 40.0524 33.2718 40.1887 33.1151 40.3249C32.959 40.4605 32.4515 40.0723 32.1194 39.372C31.7488 38.6142 31.9441 38.0502 31.9441 38.0502H32.4907ZM33.584 42.3463H33.0373C33.0373 42.3463 32.8222 41.7823 33.2127 41.0245C33.5647 40.3441 34.0523 39.9361 34.209 40.0723C34.3651 40.2079 34.3452 40.3441 33.857 40.9663C33.3887 41.5885 33.584 42.3463 33.584 42.3463ZM38.6997 38.0502C38.6997 38.0502 38.4851 38.8086 38.9733 39.4302C39.4608 40.0524 39.4808 40.1887 39.3247 40.3249C39.1679 40.4605 38.6605 40.0723 38.3284 39.372C37.9577 38.6142 38.153 38.0502 38.153 38.0502H38.6997ZM36.63 38.0502C36.63 38.0502 36.4148 38.8086 36.903 39.4302C37.3912 40.0524 37.4111 40.1887 37.255 40.3249C37.0983 40.4605 36.5908 40.0723 36.2587 39.372C35.8881 38.6142 36.0834 38.0502 36.0834 38.0502H36.63ZM37.7233 42.3463H37.1766C37.1766 42.3463 36.9621 41.7823 37.3526 41.0245C37.704 40.3441 38.1922 39.9361 38.3483 40.0723C38.5044 40.2079 38.4851 40.3441 37.9969 40.9663C37.528 41.5885 37.7233 42.3463 37.7233 42.3463ZM34.5604 38.0502C34.5604 38.0502 34.3452 38.8086 34.8334 39.4302C35.3215 40.0524 35.3414 40.1887 35.1847 40.3249C35.0286 40.4605 34.5212 40.0723 34.1891 39.372C33.8184 38.6142 34.0137 38.0502 34.0137 38.0502H34.5604ZM35.6536 42.3463H35.107C35.107 42.3463 34.8924 41.7823 35.2824 41.0245C35.6344 40.3441 36.1225 39.9361 36.2786 40.0723C36.4347 40.2079 36.4148 40.3441 35.9273 40.9663C35.4584 41.5885 35.6536 42.3463 35.6536 42.3463Z" fill="#161616"/>
<path d="M23.0793 42.3467H21.9076C21.81 42.4247 21.6732 42.4829 21.537 42.4829H11.2465C11.1104 42.4829 10.9735 42.4247 10.8759 42.3467H9.70426C9.46981 42.3467 9.29443 41.3945 9.29443 40.2082C9.29443 39.0226 9.46981 38.0704 9.70426 38.0704H10.8759C10.9735 37.9924 11.1104 37.9342 11.2465 37.9342H21.5562C21.6931 37.9342 21.8299 37.9924 21.9275 38.0704H23.0985C23.333 38.0704 23.509 39.0226 23.509 40.2082C23.509 41.3945 23.3137 42.3467 23.0793 42.3467Z" fill="#272626"/>
<path d="M11.5788 38.0502C11.5788 38.0502 11.3643 38.8086 11.8524 39.4302C12.3406 40.0524 12.3599 40.1887 12.2038 40.3249C12.0477 40.4605 11.5402 40.0723 11.2082 39.372C10.8369 38.6142 11.0322 38.0502 11.0322 38.0502H11.5788ZM22.9625 42.3463H22.5135C22.5135 42.3463 22.2399 41.7823 22.4743 41.0245C22.6889 40.3441 22.8064 40.1106 22.9818 40.2667C23.1578 40.4023 23.2554 40.5967 22.9625 41.1025C22.748 41.4325 22.9625 42.3463 22.9625 42.3463ZM10.2125 38.07C10.2125 38.07 9.99734 38.9832 10.2125 39.333C10.5054 39.8389 10.4078 40.0333 10.2318 40.1695C10.0564 40.3051 9.9196 40.0915 9.72433 39.411C9.48987 38.6532 9.7635 38.0892 9.7635 38.0892L10.2125 38.07ZM10.544 42.3463H10.095C10.095 42.3463 9.82196 41.7823 10.0564 41.0245C10.271 40.3441 10.3879 40.1106 10.5639 40.2667C10.7393 40.4221 10.8369 40.5967 10.544 41.1025C10.3487 41.4325 10.544 42.3463 10.544 42.3463ZM12.6727 42.3463H12.1261C12.1261 42.3463 11.9109 41.7823 12.3014 41.0245C12.6528 40.3441 13.141 39.9361 13.2971 40.0723C13.4538 40.2079 13.4339 40.3441 12.9457 40.9663C12.4774 41.5885 12.6727 42.3463 12.6727 42.3463ZM13.6491 38.0502C13.6491 38.0502 13.4339 38.8086 13.9221 39.4302C14.4103 40.0524 14.4295 40.1887 14.2735 40.3249C14.1174 40.4605 13.6099 40.0723 13.2778 39.372C12.9065 38.6142 13.1018 38.0502 13.1018 38.0502H13.6491ZM14.7424 42.3463H14.1957C14.1957 42.3463 13.9805 41.7823 14.3711 41.0245C14.7225 40.3441 15.2106 39.9361 15.3674 40.0723C15.5235 40.2079 15.5036 40.3441 15.0154 40.9663C14.5471 41.5885 14.7424 42.3463 14.7424 42.3463ZM15.7187 38.0502C15.7187 38.0502 15.5036 38.8086 15.9917 39.4302C16.4799 40.0524 16.4998 40.1887 16.3431 40.3249C16.187 40.4605 15.6795 40.0723 15.3475 39.372C14.9768 38.6142 15.1721 38.0502 15.1721 38.0502H15.7187ZM16.812 42.3463H16.2654C16.2654 42.3463 16.0502 41.7823 16.4407 41.0245C16.7927 40.3441 17.2803 39.9361 17.437 40.0723C17.5931 40.2079 17.5732 40.3441 17.085 40.9663C16.6167 41.5885 16.812 42.3463 16.812 42.3463ZM21.9084 38.0502C21.9084 38.0502 21.6932 38.8086 22.1814 39.4302C22.6696 40.0524 22.6889 40.1887 22.5328 40.3249C22.3767 40.4605 21.8692 40.0723 21.5371 39.372C21.1659 38.6142 21.3611 38.0502 21.3611 38.0502H21.9084ZM19.8381 38.0502C19.8381 38.0502 19.6236 38.8086 20.1118 39.4302C20.5999 40.0524 20.6192 40.1887 20.4631 40.3249C20.307 40.4605 19.7996 40.0723 19.4675 39.372C19.0962 38.6142 19.2915 38.0502 19.2915 38.0502H19.8381ZM20.9513 42.3463H20.4047C20.4047 42.3463 20.1901 41.7823 20.5807 41.0245C20.932 40.3441 21.4202 39.9361 21.5763 40.0723C21.7324 40.2079 21.7131 40.3441 21.2249 40.9663C20.7368 41.5885 20.9513 42.3463 20.9513 42.3463ZM17.7884 38.0502C17.7884 38.0502 17.5732 38.8086 18.0614 39.4302C18.5496 40.0524 18.5695 40.1887 18.4128 40.3249C18.2567 40.4605 17.7492 40.0723 17.4171 39.372C17.0465 38.6142 17.2417 38.0502 17.2417 38.0502H17.7884ZM18.8817 42.3463H18.335C18.335 42.3463 18.1205 41.7823 18.5104 41.0245C18.8624 40.3441 19.3506 39.9361 19.5067 40.0723C19.6628 40.2079 19.6429 40.3441 19.1553 40.9663C18.6671 41.5885 18.8817 42.3463 18.8817 42.3463Z" fill="#161616"/>
<path d="M39.8716 13.2667H38.7C38.6023 13.1887 38.4655 13.1305 38.3293 13.1305H28.0196C27.8828 13.1305 27.746 13.1887 27.6484 13.2667H26.4773C26.2429 13.2667 26.0669 14.2189 26.0669 15.4051C26.0669 16.5908 26.2429 17.543 26.4773 17.543H27.6484C27.746 17.621 27.8828 17.6792 28.0196 17.6792H38.3293C38.4655 17.6792 38.6023 17.621 38.7 17.543H39.8716C40.1061 17.543 40.2814 16.5908 40.2814 15.4051C40.2814 14.2189 40.0862 13.2667 39.8716 13.2667Z" fill="#272626"/>
<path d="M28.3508 17.5631C28.3508 17.5631 28.1362 16.8047 28.6244 16.1831C29.1126 15.5609 29.1319 15.4246 28.9758 15.2884C28.8197 15.1528 28.3122 15.541 27.9801 16.2413C27.6089 16.9991 27.8041 17.5631 27.8041 17.5631H28.3508ZM39.7345 13.267H39.2855C39.2855 13.267 39.0118 13.831 39.2463 14.5888C39.4608 15.2692 39.5784 15.5027 39.7538 15.3466C39.9298 15.211 40.0274 15.0166 39.7345 14.5108C39.5199 14.1808 39.7345 13.267 39.7345 13.267ZM26.9845 17.5433C26.9845 17.5433 26.7693 16.6301 26.9845 16.2803C27.2774 15.7745 27.1798 15.58 27.0038 15.4438C26.8284 15.3082 26.6916 15.5218 26.4963 16.2023C26.2618 16.9601 26.5355 17.5241 26.5355 17.5241L26.9845 17.5433ZM27.3359 13.267H26.8868C26.8868 13.267 26.6132 13.831 26.8477 14.5888C27.0622 15.2692 27.1798 15.5027 27.3551 15.3466C27.5311 15.211 27.6288 15.0166 27.3359 14.5108C27.1207 14.1808 27.3359 13.267 27.3359 13.267ZM29.464 13.267H28.9173C28.9173 13.267 28.7028 13.831 29.0933 14.5888C29.4447 15.2692 29.9329 15.6772 30.089 15.541C30.2451 15.4055 30.2258 15.2692 29.7376 14.647C29.2494 14.0248 29.464 13.267 29.464 13.267ZM30.421 17.5631C30.421 17.5631 30.2059 16.8047 30.6941 16.1831C31.1822 15.5609 31.2015 15.4246 31.0454 15.2884C30.8893 15.1528 30.3819 15.541 30.0498 16.2413C29.6785 16.9991 29.8738 17.5631 29.8738 17.5631H30.421ZM31.5336 13.267H30.987C30.987 13.267 30.7724 13.831 31.163 14.5888C31.5143 15.2692 32.0025 15.6772 32.1586 15.541C32.3147 15.4055 32.2954 15.2692 31.8072 14.647C31.3191 14.0248 31.5336 13.267 31.5336 13.267ZM32.4907 17.5631C32.4907 17.5631 32.2755 16.8047 32.7637 16.1831C33.2519 15.5609 33.2718 15.4246 33.1151 15.2884C32.959 15.1528 32.4515 15.541 32.1194 16.2413C31.7488 16.9991 31.9441 17.5631 31.9441 17.5631H32.4907ZM33.584 13.267H33.0373C33.0373 13.267 32.8222 13.831 33.2127 14.5888C33.5647 15.2692 34.0523 15.6772 34.209 15.541C34.3651 15.4055 34.3452 15.2692 33.857 14.647C33.3887 14.0248 33.584 13.267 33.584 13.267ZM38.6997 17.5631C38.6997 17.5631 38.4851 16.8047 38.9733 16.1831C39.4608 15.5609 39.4808 15.4246 39.3247 15.2884C39.1679 15.1528 38.6605 15.541 38.3284 16.2413C37.9577 16.9991 38.153 17.5631 38.153 17.5631H38.6997ZM36.63 17.5631C36.63 17.5631 36.4148 16.8047 36.903 16.1831C37.3912 15.5609 37.4111 15.4246 37.255 15.2884C37.0983 15.1528 36.5908 15.541 36.2587 16.2413C35.8881 16.9991 36.0834 17.5631 36.0834 17.5631H36.63ZM37.7233 13.267H37.1766C37.1766 13.267 36.9621 13.831 37.3526 14.5888C37.704 15.2692 38.1922 15.6772 38.3483 15.541C38.5044 15.4055 38.4851 15.2692 37.9969 14.647C37.528 14.0248 37.7233 13.267 37.7233 13.267ZM34.5604 17.5631C34.5604 17.5631 34.3452 16.8047 34.8334 16.1831C35.3215 15.5609 35.3414 15.4246 35.1847 15.2884C35.0286 15.1528 34.5212 15.541 34.1891 16.2413C33.8184 16.9991 34.0137 17.5631 34.0137 17.5631H34.5604ZM35.6536 13.267H35.107C35.107 13.267 34.8924 13.831 35.2824 14.5888C35.6344 15.2692 36.1225 15.6772 36.2786 15.541C36.4347 15.4055 36.4148 15.2692 35.9273 14.647C35.4584 14.0248 35.6536 13.267 35.6536 13.267Z" fill="#161616"/>
<path d="M23.0793 13.2667H21.9076C21.81 13.1887 21.6732 13.1305 21.537 13.1305H11.2465C11.1104 13.1305 10.9735 13.1887 10.8759 13.2667H9.70426C9.46981 13.2667 9.29443 14.2189 9.29443 15.4051C9.29443 16.5908 9.46981 17.543 9.70426 17.543H10.8759C10.9735 17.621 11.1104 17.6792 11.2465 17.6792H21.5562C21.6931 17.6792 21.8299 17.621 21.9275 17.543H23.0985C23.333 17.543 23.509 16.5908 23.509 15.4051C23.4891 14.2189 23.3137 13.2667 23.0793 13.2667Z" fill="#272626"/>
<path d="M11.5788 17.5631C11.5788 17.5631 11.3643 16.8047 11.8524 16.1831C12.3406 15.5609 12.3599 15.4246 12.2038 15.2884C12.0477 15.1528 11.5402 15.541 11.2082 16.2413C10.8369 16.9991 11.0322 17.5631 11.0322 17.5631H11.5788ZM22.9625 13.267H22.5135C22.5135 13.267 22.2399 13.831 22.4743 14.5888C22.6889 15.2692 22.8064 15.5027 22.9818 15.3466C23.1578 15.211 23.2554 15.0166 22.9625 14.5108C22.748 14.1808 22.9625 13.267 22.9625 13.267ZM10.2125 17.5433C10.2125 17.5433 9.99734 16.6301 10.2125 16.2803C10.5054 15.7745 10.4078 15.58 10.2318 15.4438C10.0564 15.3082 9.9196 15.5218 9.72433 16.2023C9.48987 16.9601 9.7635 17.5241 9.7635 17.5241L10.2125 17.5433ZM10.544 13.267H10.095C10.095 13.267 9.82196 13.831 10.0564 14.5888C10.271 15.2692 10.3879 15.5027 10.5639 15.3466C10.7393 15.211 10.8369 15.0166 10.544 14.5108C10.3487 14.1808 10.544 13.267 10.544 13.267ZM12.6727 13.267H12.1261C12.1261 13.267 11.9109 13.831 12.3014 14.5888C12.6528 15.2692 13.141 15.6772 13.2971 15.541C13.4538 15.4055 13.4339 15.2692 12.9457 14.647C12.4774 14.0248 12.6727 13.267 12.6727 13.267ZM13.6491 17.5631C13.6491 17.5631 13.4339 16.8047 13.9221 16.1831C14.4103 15.5609 14.4295 15.4246 14.2735 15.2884C14.1174 15.1528 13.6099 15.541 13.2778 16.2413C12.9065 16.9991 13.1018 17.5631 13.1018 17.5631H13.6491ZM14.7424 13.267H14.1957C14.1957 13.267 13.9805 13.831 14.3711 14.5888C14.7225 15.2692 15.2106 15.6772 15.3674 15.541C15.5235 15.4055 15.5036 15.2692 15.0154 14.647C14.5471 14.0248 14.7424 13.267 14.7424 13.267ZM15.7187 17.5631C15.7187 17.5631 15.5036 16.8047 15.9917 16.1831C16.4799 15.5609 16.4998 15.4246 16.3431 15.2884C16.187 15.1528 15.6795 15.541 15.3475 16.2413C14.9768 16.9991 15.1721 17.5631 15.1721 17.5631H15.7187ZM16.812 13.267H16.2654C16.2654 13.267 16.0502 13.831 16.4407 14.5888C16.7927 15.2692 17.2803 15.6772 17.437 15.541C17.5931 15.4055 17.5732 15.2692 17.085 14.647C16.6167 14.0248 16.812 13.267 16.812 13.267ZM21.9084 17.5631C21.9084 17.5631 21.6932 16.8047 22.1814 16.1831C22.6696 15.5609 22.6889 15.4246 22.5328 15.2884C22.3767 15.1528 21.8692 15.541 21.5371 16.2413C21.1659 16.9991 21.3611 17.5631 21.3611 17.5631H21.9084ZM19.8381 17.5631C19.8381 17.5631 19.6236 16.8047 20.1118 16.1831C20.5999 15.5609 20.6192 15.4246 20.4631 15.2884C20.307 15.1528 19.7996 15.541 19.4675 16.2413C19.0962 16.9991 19.2915 17.5631 19.2915 17.5631H19.8381ZM20.9513 13.267H20.4047C20.4047 13.267 20.1901 13.831 20.5807 14.5888C20.932 15.2692 21.4202 15.6772 21.5763 15.541C21.7324 15.4055 21.7131 15.2692 21.2249 14.647C20.7368 14.0248 20.9513 13.267 20.9513 13.267ZM17.7884 17.5631C17.7884 17.5631 17.5732 16.8047 18.0614 16.1831C18.5496 15.5609 18.5695 15.4246 18.4128 15.2884C18.2567 15.1528 17.7492 15.541 17.4171 16.2413C17.0465 16.9991 17.2417 17.5631 17.2417 17.5631H17.7884ZM18.8817 13.267H18.335C18.335 13.267 18.1205 13.831 18.5104 14.5888C18.8624 15.2692 19.3506 15.6772 19.5067 15.541C19.6628 15.4055 19.6429 15.2692 19.1553 14.647C18.6671 14.0248 18.8817 13.267 18.8817 13.267Z" fill="#161616"/>
<path d="M55.0627 35.8159L52.8369 39.509C52.8369 39.509 52.544 40.0148 52.5241 40.034C52.5048 40.0538 52.4657 40.112 52.4657 40.112L52.2511 40.1702C52.2511 40.1702 52.2704 40.1702 52.2903 40.2092C52.3096 40.2482 52.3096 40.3256 52.3096 40.3256V41.1224V41.492C52.3096 41.492 52.3096 41.5701 52.2312 41.6283C52.1535 41.6864 52.0558 41.6673 52.0558 41.6673H2.18768H1.77723C1.77723 41.6673 1.60186 41.6673 1.50422 41.6283C1.40658 41.5892 1.42586 41.5502 1.42586 41.5502V41.0252L0.586309 40.073L0.000488281 40.151L0.000488281 27.8267L0.000488281 27.7877L0.000488281 15.4633L0.586309 15.5414L1.42586 14.5885V14.0641C1.42586 14.0641 1.42586 14.0251 1.50422 13.9861C1.60186 13.9471 1.77723 13.9471 1.77723 13.9471H2.18768L52.0558 13.9471C52.0558 13.9471 52.1535 13.9279 52.2312 13.9861C52.3096 14.0443 52.3096 14.1223 52.3096 14.1223V14.4913V15.2887C52.3096 15.2887 52.3096 15.386 52.2903 15.4051C52.2704 15.4442 52.2511 15.4442 52.2511 15.4442L52.4657 15.5023C52.4657 15.5023 52.5048 15.5605 52.5241 15.5804C52.544 15.5996 52.8369 16.1048 52.8369 16.1048L55.0627 19.7985V27.7877V27.8267V35.8159Z" fill="#FFC500"/>
<g opacity="0.199997">
<mask id="mask25_2587_158" style="mask-type:alpha" maskUnits="userSpaceOnUse" x="51" y="35" width="5" height="6">
<rect width="3.55367" height="4.25711" transform="matrix(1 0 0 -1 51.4692 40.1311)" fill="#D9D9D9"/>
</mask>
<g mask="url(#mask25_2587_158)">
<path d="M55.0227 35.874L52.8362 39.5089C52.8362 39.5089 52.5432 40.0147 52.5233 40.0339C52.5041 40.0531 52.4649 40.1119 52.4649 40.1119L52.3865 40.1311H51.4692L52.4257 35.874H55.0227Z" fill="white"/>
</g>
</g>
<g opacity="0.199997">
<mask id="mask26_2587_158" style="mask-type:alpha" maskUnits="userSpaceOnUse" x="51" y="15" width="5" height="5">
<rect width="3.55367" height="4.2571" transform="matrix(1 0 0 -1 51.4692 19.7786)" fill="#D9D9D9"/>
</mask>
<g mask="url(#mask26_2587_158)">
<path d="M55.0227 19.7786L52.8362 16.1437C52.8362 16.1437 52.5432 15.6378 52.5233 15.6187C52.5041 15.5995 52.4649 15.5406 52.4649 15.5406L52.3865 15.5215H51.4692L52.4257 19.7786H55.0227Z" fill="#050605"/>
</g>
</g>
<g opacity="0.199997">
<mask id="mask27_2587_158" style="mask-type:alpha" maskUnits="userSpaceOnUse" x="0" y="33" width="50" height="8">
<rect width="49.6535" height="6.97855" transform="matrix(1 0 0 -1 0.175781 40.131)" fill="#D9D9D9"/>
</mask>
<g mask="url(#mask27_2587_158)">
<path d="M49.8294 40.131H1.52342L0.175781 37.8953L19.9942 33.1522H47.1155L49.8294 40.131Z" fill="#050605"/>
</g>
</g>
<g opacity="0.199997">
<mask id="mask28_2587_158" style="mask-type:alpha" maskUnits="userSpaceOnUse" x="0" y="15" width="50" height="8">
<rect width="49.6535" height="6.97853" transform="matrix(1 0 0 -1 0.175781 22.5002)" fill="#D9D9D9"/>
</mask>
<g mask="url(#mask28_2587_158)">
<path d="M49.8294 15.5214L1.52342 15.5214L0.175781 17.7571L19.9942 22.5002L47.1155 22.5002L49.8294 15.5214Z" fill="white"/>
</g>
</g>
<g opacity="0.149002">
<mask id="mask29_2587_158" style="mask-type:alpha" maskUnits="userSpaceOnUse" x="0" y="38" width="2" height="4">
<rect width="1.09342" height="2.62429" transform="matrix(1 0 0 -1 0.353027 41.0245)" fill="#D9D9D9"/>
</mask>
<g mask="url(#mask29_2587_158)">
<path d="M1.44631 40.1497C1.42703 40.1689 1.42703 40.1887 1.42703 40.2079V41.0245L0.58748 40.0717H0.548301C0.5284 40.0525 0.5284 40.0333 0.509122 40.0333C0.372306 39.9163 0.353027 39.7999 0.353027 39.6829C0.353027 39.5857 0.372306 38.6527 0.372306 38.4001L1.44631 40.1497Z" fill="white"/>
</g>
</g>
<g opacity="0.149002">
<mask id="mask30_2587_158" style="mask-type:alpha" maskUnits="userSpaceOnUse" x="0" y="14" width="2" height="4">
<rect width="1.09342" height="2.60479" transform="matrix(1 0 0 -1 0.353027 17.2125)" fill="#D9D9D9"/>
</mask>
<g mask="url(#mask30_2587_158)">
<path d="M1.44631 15.4827C1.42703 15.4635 1.42703 15.4437 1.42703 15.4245L1.42703 14.6079L0.58748 15.5409H0.548301C0.5284 15.5607 0.5284 15.5799 0.509122 15.5799C0.372306 15.6963 0.353027 15.8133 0.353027 15.9297C0.353027 16.0269 0.372306 16.9599 0.372306 17.2125L1.44631 15.4827Z" fill="#050605"/>
</g>
</g>
<g opacity="0.102005">
<mask id="mask31_2587_158" style="mask-type:alpha" maskUnits="userSpaceOnUse" x="52" y="19" width="4" height="17">
<rect width="2.63595" height="16.0953" transform="matrix(1 0 0 -1 52.4263 35.8733)" fill="#D9D9D9"/>
</mask>
<g mask="url(#mask31_2587_158)">
<rect width="2.63619" height="16.0954" transform="matrix(1 0 0 -1 52.4263 35.8745)" fill="white"/>
</g>
</g>
<g opacity="0.0509949">
<mask id="mask32_2587_158" style="mask-type:alpha" maskUnits="userSpaceOnUse" x="47" y="15" width="6" height="26">
<rect width="5.33054" height="24.6095" transform="matrix(1 0 0 -1 47.1152 40.1309)" fill="#D9D9D9"/>
</mask>
<g mask="url(#mask32_2587_158)">
<path d="M51.489 40.1309H49.8292L47.1152 33.1521V22.5L49.8292 15.5212H51.489L52.4455 19.7783V35.8737L51.489 40.1309Z" fill="white"/>
</g>
</g>
<g opacity="0.0509949">
<mask id="mask33_2587_158" style="mask-type:alpha" maskUnits="userSpaceOnUse" x="20" y="22" width="28" height="12">
<rect width="27.1014" height="10.6524" transform="matrix(1 0 0 -1 20.0151 33.1526)" fill="#D9D9D9"/>
</mask>
<g mask="url(#mask33_2587_158)">
<rect width="27.1014" height="10.6527" transform="matrix(1 0 0 -1 20.0151 33.1526)" fill="#050605"/>
</g>
</g>
</g>
<defs>
<linearGradient id="paint0_linear_2587_158" x1="0.287935" y1="1.30729" x2="0.287935" y2="1.30729" gradientUnits="userSpaceOnUse">
<stop offset="1" stop-color="#696868"/>
<stop offset="0.9556" stop-color="#050605"/>
<stop offset="0.4722" stop-color="#494949"/>
<stop offset="0.3167" stop-color="#696868"/>
<stop offset="0.005556" stop-color="#363636"/>
<stop stop-color="#363636"/>
</linearGradient>
<linearGradient id="paint1_linear_2587_158" x1="1.74269" y1="0.26251" x2="1.74269" y2="0.26251" gradientUnits="userSpaceOnUse">
<stop offset="1" stop-color="#CECECE"/>
<stop offset="0.9556" stop-color="#222222"/>
<stop offset="0.3833" stop-color="white"/>
<stop offset="0.3167" stop-color="white"/>
<stop offset="0.005556" stop-color="#7F7E7E"/>
<stop stop-color="#7F7E7E"/>
</linearGradient>
</defs>
</svg>
