<svg width="100" height="40" viewBox="0 0 100 40" fill="none" xmlns="http://www.w3.org/2000/svg">
<g clip-path="url(#clip0_6560_1913)">
<path d="M38.2542 3.69365L38.5472 3.86997C38.7034 3.75242 38.801 3.67406 38.801 3.67406H39.3478L39.5431 3.47815H40.949C41.0271 3.32141 41.1443 3.20387 41.3005 3.20387H43.6633C43.9953 3.20387 44.3273 3.18428 44.6397 3.47815H57.7036C57.7817 3.32141 57.8988 3.20387 58.0551 3.20387H60.4179C60.7499 3.20387 61.0818 3.18428 61.3943 3.47815H68.8733C68.3656 2.73368 67.1744 0.735382 67.1158 0.637424L66.9596 0.323963V0.245602C66.9596 0.226009 66.9986 0.186825 67.0182 0.186825C67.604 -0.0286751 68.2289 -0.146221 68.9514 0.402332C69.6739 0.950886 70.7284 2.28308 71.0408 2.73368C71.3337 3.18428 71.3533 3.39978 71.3533 3.43896V3.47815H74.3214L74.38 3.55651L76.899 3.61528C77.2505 3.3606 77.6997 3.20387 78.2074 3.20387H87.6196C88.3421 3.20387 88.9865 3.51733 89.299 4.00711C89.4552 4.00711 89.5528 4.0267 89.5919 4.0267C89.6309 4.0267 89.67 4.04629 89.709 4.04629C89.8067 4.0267 89.8848 4.0267 89.9629 4.00711C90.0605 3.94833 90.4316 3.8112 91.6423 3.88956C93.0873 3.98751 94.5323 4.47729 95.9188 6.20132C97.3052 7.92534 97.7543 8.98327 97.7543 8.98327C97.7543 8.98327 98.3011 9.29673 98.4378 9.45346C98.5745 9.61019 100 14.6255 100 19.9935C100 25.3615 98.555 30.3768 98.4378 30.5336C98.3206 30.6903 97.7543 31.0038 97.7543 31.0038C97.7543 31.0038 97.3247 32.0617 95.9188 33.7857C94.5128 35.5097 93.0873 35.9995 91.6423 36.0975C90.1972 36.1954 89.9434 35.9603 89.9434 35.9603C89.9434 35.9603 90.0215 35.9407 90.1386 35.9211C90.1191 35.9211 90.0801 35.9016 90.041 35.9016C89.8653 35.9211 89.709 35.9407 89.5919 35.9603C89.5528 35.9603 89.4552 35.9799 89.299 35.9799C88.9865 36.4501 88.3421 36.7832 87.6196 36.7832H78.2074C77.6997 36.7832 77.231 36.6264 76.899 36.3717L74.3995 36.4501L74.341 36.5285H71.3728V36.5677C71.3728 36.5872 71.3728 36.8223 71.0603 37.2729C70.7479 37.7235 69.6934 39.0557 68.9709 39.6043C68.2484 40.1528 67.6235 40.0353 67.0377 39.8198C67.0182 39.8002 66.9791 39.7806 66.9791 39.761V39.6827L67.1353 39.3692C67.1939 39.2712 68.3851 37.2729 68.8928 36.5285H61.4138C61.1013 36.8223 60.7694 36.8027 60.4374 36.8027H58.0746C57.9184 36.8027 57.8012 36.6852 57.7231 36.5285H44.6592C44.3468 36.8223 44.0148 36.8027 43.6829 36.8027H41.3201C41.1638 36.8027 41.0467 36.6852 40.9686 36.5285H39.5626L39.3673 36.3326H38.8205C38.8205 36.3326 38.7229 36.2542 38.5667 36.1366L38.2933 36.2934C38.3128 36.5089 38.1761 36.744 38.0199 36.9399C37.8051 37.2142 34.2706 37.2533 31.7126 37.3513C29.1545 37.4493 24.8975 37.3513 21.4021 37.3513C17.9067 37.3513 5.25288 36.8027 5.25288 36.8027C5.25288 36.8027 4.08123 36.8419 3.14392 36.2542H3.08534C2.12849 36.2542 1.93322 36.1954 1.38645 35.6469C0.83968 35.0983 0.605351 34.7457 0.566296 34.1579C0.507713 33.531 0 23.6375 0 19.9935C0 16.3496 0.507713 6.41682 0.546768 5.82909C0.585823 5.22176 0.820152 4.86912 1.36692 4.34016C1.91369 3.8112 2.08944 3.73283 3.06581 3.73283H3.12439C4.06171 3.1451 5.23335 3.18428 5.23335 3.18428C5.23335 3.18428 17.8871 2.63572 21.3825 2.63572C24.878 2.63572 29.1349 2.53777 31.693 2.63572C34.2511 2.73368 37.7661 2.77287 38.0004 3.04714C38.1371 3.22346 38.2933 3.47815 38.2542 3.69365Z" fill="black"/>
<path d="M37.9809 3.02749C37.7466 2.75321 34.2317 2.71403 31.6736 2.61607C29.1155 2.51812 24.839 2.61607 21.3631 2.61607C17.8872 2.61607 5.23341 3.16463 5.23341 3.16463C5.23341 3.16463 3.88601 3.12545 2.92917 3.85032C2.89011 3.8797 2.85496 3.91301 2.81982 3.94436C2.26914 3.97766 2.05629 4.10305 1.62083 4.53993C1.07406 5.08848 0.839733 5.44112 0.800678 6.02886C0.761623 6.61464 0.294918 16.183 0.273438 20.017C0.294918 23.8333 0.781151 33.3566 0.800678 33.9424C0.839733 34.5301 1.07406 34.8828 1.62083 35.4313C2.05825 35.8701 2.27109 35.9955 2.82567 36.0269C2.85887 36.0563 2.89207 36.0876 2.92917 36.117C3.90554 36.8615 5.23341 36.8027 5.23341 36.8027C5.23341 36.8027 17.8872 37.3512 21.3826 37.3512C24.878 37.3512 29.135 37.4492 31.6931 37.3512C34.2512 37.2533 37.7856 37.2141 38.0004 36.9398C38.2152 36.6655 38.43 36.2933 38.1371 36.0582C37.8442 35.8231 37.356 35.4509 37.2584 35.0395C37.1608 34.6281 37.1803 34.295 37.1803 34.295L4.00318 33.4526V33.7856L3.72979 33.7974V33.6681H3.86649V6.29922H3.71027V6.15228L4.00318 6.16208V6.49513L37.1608 5.6723C37.1608 5.6723 37.1412 5.33925 37.2389 4.92783C37.3365 4.51642 37.8247 4.14419 38.1176 3.90909C38.4105 3.674 38.2152 3.30177 37.9809 3.02749ZM99.9805 19.9935C99.9805 14.6255 98.5355 9.61013 98.4183 9.4534C98.3012 9.29667 97.7349 8.98321 97.7349 8.98321C97.7349 8.98321 97.3053 7.92528 95.8993 6.20126C94.5128 4.47724 93.0678 3.98746 91.6228 3.8895C90.1778 3.79155 89.9434 4.00705 89.9434 4.00705C89.9434 4.00705 89.7189 4.02664 89.5919 4.00705C88.9866 3.92868 74.2629 3.53686 74.2629 3.53686L38.8011 3.674C38.8011 3.674 37.8442 4.3401 37.649 4.82988C37.4732 5.30007 37.4537 6.45595 37.4537 6.45595C37.4537 6.45595 38.02 7.98406 38.2738 8.43466C38.5277 8.88525 38.4691 9.04198 38.4691 9.04198L38.4496 9.72767L38.3519 19.9935L38.4496 30.2592L38.4691 30.9645C38.4691 30.9645 38.5277 31.1212 38.2738 31.5718C38.02 32.0224 37.4537 33.5506 37.4537 33.5506C37.4537 33.5506 37.4732 34.7064 37.649 35.1766C37.8247 35.6468 38.8011 36.3325 38.8011 36.3325H39.5431L39.6017 36.2933L74.2629 36.45C74.2629 36.45 88.9866 36.0582 89.5919 35.9799C89.6818 35.9661 89.7892 35.9524 89.9063 35.9368C89.9259 35.9642 89.9434 35.9799 89.9434 35.9799C89.9434 35.9799 90.1973 36.1954 91.6228 36.117C93.0678 36.019 94.4933 35.5293 95.8993 33.8033C97.3053 32.0773 97.7349 31.0174 97.7349 31.0174C97.7349 31.0174 98.3012 30.704 98.4183 30.5472C98.5355 30.3905 99.9805 25.3693 99.9805 19.9935ZM80.1602 20.1306C80.1602 24.4798 79.3596 29.6323 78.5394 31.278C78.0376 32.2869 77.5943 32.6983 77.3248 32.8668C77.1315 32.9256 76.9772 32.9824 76.9772 32.9824C76.9772 32.9824 76.5867 33.3546 75.4931 33.3155C74.3996 33.2959 66.987 31.5033 65.0342 31.1506C65.0342 31.0899 65.0459 31.0233 65.0459 31.0233C65.0459 31.0233 67.0768 27.5361 67.0768 20.1306V19.8563C67.0768 12.4508 65.0459 8.98321 65.0459 8.98321C65.0459 8.98321 65.0557 8.89309 65.0459 8.86566C66.9987 8.49343 74.3996 6.71063 75.4931 6.67145C76.5867 6.63227 76.9772 7.0045 76.9772 7.0045C76.9772 7.0045 77.1041 7.0476 77.235 7.06915C77.4869 7.19649 77.977 7.57852 78.5394 8.70893C79.3596 10.3546 80.1602 15.5071 80.1602 19.8563V20.1306Z" fill="#0098FF"/>
<path d="M3.53467 34.5498H37.2566V5.34719L3.53467 5.56661V34.5498Z" fill="url(#paint0_linear_6560_1913)"/>
<path d="M39.0745 9.31628C39.0745 9.31628 38.7815 9.31628 38.6058 9.45342C38.4105 9.57097 38.4496 9.7277 38.4496 9.7277L38.3519 19.9935L38.4496 30.2593C38.4496 30.2593 38.4105 30.3964 38.6058 30.5335C38.7815 30.6707 39.0745 30.6707 39.0745 30.6707C39.0745 30.6707 39.2678 30.6707 39.6154 30.6707L39.5919 31.1624H39.2092L38.4671 30.9665C38.4671 30.9665 38.5257 31.1232 38.2719 31.5738C38.018 32.0244 37.4517 33.5525 37.4517 33.5525C37.4517 33.5525 37.4576 33.8817 37.4888 34.2578L35.2646 32.044V7.96645L37.4908 5.73305C37.4576 6.119 37.4517 6.45793 37.4517 6.45793C37.4517 6.45793 38.018 7.98604 38.2719 8.43664C38.5257 8.88723 38.4671 9.04396 38.4671 9.04396L39.2092 8.84805H39.5919L39.6134 9.3202C39.2658 9.3202 39.0725 9.31824 39.0725 9.31824L39.0745 9.31628Z" fill="#0D0F0F"/>
<path opacity="0.5" d="M29.0375 34.2168H29.02C29.0317 34.2168 29.0375 34.2168 29.0375 34.2168ZM15.3879 30.6316C16.9696 30.4161 17.3992 30.4945 17.3992 30.4945H24.4486C24.4486 30.4945 25.5617 30.4553 26.6942 32.3556C27.7468 34.1032 28.8657 34.2109 29.02 34.2168L12.4783 33.8054C12.4783 33.8054 13.8061 30.8275 15.3879 30.6316ZM29.02 5.28062C29.0317 5.28062 29.0375 5.28062 29.0375 5.28062H29.02ZM26.6942 7.14178C25.5617 9.04213 24.4486 9.00295 24.4486 9.00295H17.3992C17.3992 9.00295 16.9696 9.08131 15.3879 8.86581C13.8061 8.6699 12.4783 5.69204 12.4783 5.69204L29.02 5.28062C28.8677 5.2865 27.7468 5.39425 26.6942 7.14178Z" fill="url(#paint1_linear_6560_1913)"/>
<path d="M3.18319 34.2168L2.34351 19.9936L3.18319 5.7704L5.48742 8.02339V19.9936V31.9638L3.18319 34.2168Z" fill="#0D0F0F"/>
<path d="M42.1989 32.7082C41.9255 33.1784 41.6912 34.0796 41.6912 34.3931V34.491C41.6912 34.7653 41.7107 34.8437 41.9255 34.8632C42.0427 34.8632 52.3531 34.9808 55.8486 34.922V34.7653C55.8095 34.6282 55.419 33.531 55.1651 32.3164H54.2278C50.8691 32.336 45.3818 32.3164 43.3315 32.3164C42.7652 32.3164 42.4137 32.336 42.1989 32.7082ZM60.7695 34.8828C58.9339 34.8828 57.1959 34.9024 55.9852 34.922V34.7065C55.9852 34.6869 55.5947 33.5702 55.3213 32.2968H56.4148C63.5228 32.1988 69.8107 33.8053 69.9474 34.589V34.7653C67.9946 34.8632 64.1672 34.8828 60.7695 34.8828ZM56.4148 7.69028H55.3213C55.5947 6.41685 55.9852 5.30015 55.9852 5.26097V5.06506C57.1959 5.08465 58.9339 5.10424 60.7695 5.10424C64.1672 5.10424 67.9946 5.12383 69.9474 5.22179V5.39811C69.8107 6.18176 63.5228 7.78823 56.4148 7.69028ZM54.2278 7.69028C50.8691 7.67069 45.3818 7.69028 43.3315 7.69028C42.7652 7.69028 42.4137 7.65109 42.1989 7.27886C41.9255 6.80867 41.6912 5.90748 41.6912 5.59402V5.49607C41.6912 5.22179 41.7107 5.14342 41.9255 5.12383C42.0427 5.12383 52.3531 5.00628 55.8486 5.06506V5.24138C55.8095 5.37852 55.419 6.47563 55.1651 7.69028H54.2278Z" fill="#151515"/>
<path d="M42.9215 34.6085H54.2084C54.1693 34.2951 54.0522 33.1392 54.0522 32.2968H43.8589C43.5074 32.2968 43.0192 32.6102 42.9215 32.8845C42.902 32.9629 42.8434 33.0804 42.7848 33.198C42.6286 33.4918 42.4529 33.8836 42.4138 34.2559C42.4138 34.3147 42.4333 34.393 42.4919 34.4518C42.5896 34.5497 42.7458 34.6085 42.9215 34.6085ZM57.5671 34.5497C57.2156 34.0208 56.7079 33.0216 56.5907 32.3164H61.375C62.7224 32.3164 63.7964 32.5514 64.636 32.7474C64.7923 32.7865 64.929 32.8061 65.0852 32.8453C66.042 33.0412 68.854 33.7269 69.6351 33.9228L69.9085 34.4322C67.1746 34.5106 58.2701 34.5497 57.5671 34.5497Z" fill="url(#paint2_linear_6560_1913)"/>
<path d="M54.0522 7.69031C54.0522 6.84789 54.1693 5.69201 54.2084 5.35896H42.9215C42.7458 5.35896 42.5896 5.41773 42.4919 5.51569C42.4333 5.57446 42.4138 5.65282 42.4138 5.7116C42.4529 6.08383 42.6286 6.47565 42.7848 6.76952C42.8434 6.88707 42.902 7.00462 42.9215 7.08298C43.0192 7.35726 43.5074 7.67072 43.8589 7.67072H43.8784L54.0522 7.69031Z" fill="url(#paint3_linear_6560_1913)"/>
<path d="M72.154 34.6086L69.5178 33.8642L69.5959 34.1384L69.9279 34.7458L70.2013 34.8829L71.8221 35.2159L72.154 34.6086ZM69.5959 5.84876L69.9279 5.24143L70.2013 5.1043L71.8221 4.77124L72.154 5.37857L69.5178 6.12304L69.5959 5.84876Z" fill="#151515"/>
<path d="M69.8889 36.0779C69.8303 36.215 69.7913 36.313 69.7913 36.313L71.1387 36.5873L71.2558 36.3914L71.8416 35.2159C71.744 35.0592 71.5487 34.8437 71.2558 34.7457C70.9434 34.6282 70.5528 34.6478 70.1623 34.8241C70.2013 35.1179 70.1818 35.6077 70.0451 36.1171C70.0451 36.1563 69.9865 36.1955 69.9475 36.1759C69.9084 36.1759 69.8889 36.1367 69.8889 36.0975V36.0779ZM71.2558 5.24139C70.9434 5.35894 70.5528 5.33934 70.1623 5.16302C70.2013 4.86916 70.1818 4.37938 70.0451 3.87001C70.0451 3.83083 69.9865 3.79164 69.9475 3.81123C69.9084 3.81123 69.8889 3.85041 69.8889 3.8896V3.90919C69.8303 3.77205 69.7913 3.6741 69.7913 3.6741L71.1387 3.39982L71.2558 3.59573L71.8416 4.7712C71.744 4.92793 71.5487 5.12384 71.2558 5.24139Z" fill="#040203"/>
<path d="M72.1932 34.589H70.1428C70.1428 34.6282 70.1623 34.687 70.1623 34.7457C70.6701 34.5498 71.0411 34.589 71.2949 34.687C71.5879 34.7849 71.7831 34.9808 71.9003 35.1376L72.0956 34.7457C72.1346 34.687 72.1737 34.6282 72.1932 34.589ZM70.1623 5.24143C70.6701 5.43734 71.0411 5.37857 71.2949 5.30021C71.5879 5.20225 71.7831 5.00633 71.9003 4.8496L72.0956 5.24143C72.1346 5.3002 72.1737 5.35898 72.1932 5.39816H70.1428C70.1428 5.35898 70.1623 5.3002 70.1623 5.24143Z" fill="#040203"/>
<path d="M98.9651 22.9911C98.8675 24.1469 98.4965 26.3803 98.0083 28.4962C97.5982 30.2006 96.7195 30.1222 96.7195 30.1222L98.184 19.9936L96.7195 9.86496C96.7195 9.86496 97.5982 9.7866 98.0083 11.491C98.4965 13.6069 98.8675 15.8403 98.9651 16.9962C99.0432 17.9365 99.0823 19.4451 99.1018 19.9936C99.0823 20.5422 99.0432 22.0507 98.9651 22.9911Z" fill="url(#paint4_linear_6560_1913)"/>
<path opacity="0.1" d="M80.5118 30.3377C80.297 31.1801 80.0432 31.807 79.7698 32.2772L90.3146 26.5958C89.1625 26.6546 88.0885 26.6937 87.3074 26.7133C84.8664 26.7917 82.777 26.7525 82.0154 26.9876C81.2539 27.2227 81.1562 27.6929 80.5118 30.3377ZM82.0154 13.4285C81.2539 13.1935 81.1562 12.7233 80.5118 10.0785C80.297 9.23603 80.0432 8.60911 79.7698 8.13893L90.3146 13.8204C89.1625 13.7616 88.0885 13.7224 87.3074 13.7028C84.8664 13.6245 82.777 13.6636 82.0154 13.4285Z" fill="url(#paint5_linear_6560_1913)"/>
<path d="M91.7791 35.6077C91.7791 35.6077 92.5602 35.5489 93.2046 35.1179C93.849 34.6869 96.5633 31.5523 96.9344 30.9254C97.3054 30.2985 97.3444 29.8479 97.3444 29.8479C97.3444 29.8479 97.3054 29.9066 97.0125 30.2593C96.7196 30.6119 94.22 33.5506 93.7319 34.0012C93.2437 34.4518 92.3845 35.1767 91.9744 35.353C91.5643 35.5293 91.7791 35.6077 91.7791 35.6077ZM93.7514 5.96621C93.2632 5.51561 92.404 4.79074 91.9939 4.61442C91.5448 4.4381 91.7791 4.37932 91.7791 4.37932C91.7791 4.37932 92.5602 4.43809 93.2046 4.8691C93.849 5.3001 96.5633 8.4347 96.9344 9.06161C97.3054 9.68853 97.3444 10.1195 97.3444 10.1195C97.3444 10.1195 97.3054 10.0608 97.0125 9.70812C96.7196 9.35548 94.2396 6.4168 93.7514 5.96621Z" fill="white"/>
<path d="M91.7791 35.6077C91.7791 35.6077 92.4431 35.5489 93.0484 35.2158C93.2632 35.0199 93.4194 34.8044 93.3218 34.6869C93.2827 34.6281 93.2046 34.5889 93.107 34.5693C92.6969 34.922 92.2478 35.255 91.9744 35.3726C91.5643 35.5489 91.7791 35.6077 91.7791 35.6077ZM93.107 5.41765C92.6969 5.06501 92.2478 4.73196 91.9744 4.61442C91.5643 4.4381 91.7791 4.37932 91.7791 4.37932C91.7791 4.37932 92.4431 4.43809 93.0484 4.77114C93.2632 4.96705 93.4194 5.18256 93.3218 5.30011C93.2827 5.35888 93.2046 5.39806 93.107 5.41765Z" fill="#FF8040"/>
<path d="M69.9085 5.55487C67.1746 5.4765 58.2701 5.43732 57.5671 5.43732C57.2156 5.96628 56.7079 6.96543 56.5907 7.67072H61.375C62.7224 7.67072 63.7964 7.43562 64.636 7.23971C64.7923 7.20053 64.929 7.18094 65.0852 7.14175C66.042 6.94584 68.854 6.26015 69.6351 6.06424L69.9085 5.55487ZM43.8784 7.67072H43.8589C43.5074 7.67072 43.0192 7.35726 42.9215 7.08298C42.902 7.00462 42.8434 6.88707 42.7848 6.76952C42.6286 6.47565 42.4529 6.08383 42.4138 5.7116C42.4138 5.65282 42.4333 5.57446 42.4919 5.51569C42.5896 5.41773 42.7458 5.35896 42.9215 5.35896H54.2084C54.1693 5.69201 54.0522 6.84789 54.0522 7.69031L43.8784 7.67072Z" fill="url(#paint6_linear_6560_1913)"/>
<path d="M65.2607 31.0038C65.2607 31.0038 65.4951 30.7295 66.0809 29.1034C66.6472 27.4774 67.3111 23.5591 67.3111 19.9935C67.3111 16.4279 66.6667 12.5097 66.0809 10.8836C65.5146 9.25757 65.2607 8.98329 65.2607 8.98329C65.2607 8.98329 73.7942 7.06335 74.2824 7.00458C74.7706 6.9654 76.0789 6.94581 76.7233 8.02332C77.3677 9.10084 78.8323 13.7244 78.8323 19.9935C78.8323 26.2627 77.3873 30.8862 76.7233 31.9637C76.0594 33.0413 74.7706 33.0217 74.2824 32.9825C73.7747 32.9433 65.2607 31.0038 65.2607 31.0038Z" fill="url(#paint7_linear_6560_1913)"/>
<path d="M38.1353 36.0623L38.5434 36.1387C38.2407 35.9016 37.7662 35.4902 37.6471 35.1767C37.5592 34.9397 37.5104 34.5283 37.4831 34.1795C37.4518 34.2324 37.2292 33.9503 37.2292 33.9699C37.2292 34.0483 37.1843 34.303 37.1843 34.303C37.2077 34.7124 36.9246 35.1376 38.1353 36.0642V36.0623ZM37.649 4.83C37.5612 5.06313 37.5124 5.46475 37.487 5.81152C37.3561 5.91339 37.1999 6.04857 37.1999 6.02898C37.1999 5.95061 37.153 5.69397 37.153 5.69397C37.153 5.69397 37.0144 4.63213 37.8619 4.13059C38.2798 3.96407 38.561 3.85632 38.561 3.85632C38.2642 4.08749 37.7838 4.49891 37.651 4.83196L37.649 4.83ZM87.6393 36.8028H78.2271C77.7096 36.8028 77.2409 36.6422 76.8953 36.3796C80.8027 36.2719 87.8385 36.074 89.3284 35.9976C89.0062 36.4737 88.3696 36.8028 87.6393 36.8028ZM78.2271 3.18434H87.6393C88.3696 3.18434 89.0062 3.51347 89.3284 3.98954C87.8385 3.91313 80.8027 3.71526 76.8953 3.60751C77.2409 3.34499 77.7096 3.18434 78.2271 3.18434ZM88.3032 5.84874C90.9414 6.25428 94.0091 7.19857 94.9797 7.51007L94.8976 7.41016C94.3372 7.18682 93.517 6.89099 92.5602 6.65198C90.7637 6.20138 88.0884 5.55487 84.0072 5.16305C79.926 4.77122 79.9845 4.81041 79.5354 4.96714C79.0667 5.12386 78.9691 5.30019 78.7934 5.30019C78.6176 5.30019 78.5005 5.31978 78.188 5.43732C77.856 5.55487 77.2897 6.29934 77.1726 6.53443C77.1589 6.56186 77.1472 6.58929 77.1335 6.61671C77.1335 6.61671 77.1277 6.62847 77.1257 6.63435C77.1199 6.6461 77.116 6.65786 77.1101 6.66961C77.1003 6.69312 77.0886 6.71663 77.0808 6.74014C77.0769 6.74797 77.0749 6.75581 77.071 6.76365C77.0593 6.79304 77.0496 6.8185 77.0398 6.84397C77.0359 6.85181 77.0339 6.85965 77.03 6.86748C77.0222 6.88903 77.0144 6.91058 77.0066 6.92822C77.0066 6.92822 77.0066 6.92822 77.0066 6.93017C76.989 6.97719 76.9793 7.00658 76.9793 7.00658C76.9793 7.00658 76.5887 6.63435 75.4952 6.67353C74.4016 6.71271 66.5907 8.55428 64.6379 8.92651C62.6852 9.27916 60.1661 9.25956 60.1661 9.25956V8.84815H39.2132L38.4712 9.04406C38.4712 9.04406 38.5297 8.88733 38.2759 8.43674C38.022 7.98614 37.4557 6.45802 37.4557 6.45802C37.4557 6.45802 37.4577 6.31305 37.4694 6.10538C37.2155 7.08298 37.2409 9.1812 37.2409 9.1812L36.9871 19.9955L37.2409 30.8099C37.2409 30.8099 37.2155 32.9747 37.4713 33.9307C37.4596 33.7094 37.4557 33.5526 37.4557 33.5526C37.4557 33.5526 38.022 32.0245 38.2759 31.5739C38.5297 31.1233 38.4712 30.9666 38.4712 30.9666L39.2132 31.1625H60.1661V30.7511C60.1661 30.7511 62.6852 30.7315 64.6379 31.0841C66.5907 31.4368 74.4016 33.2979 75.4952 33.3175C76.5887 33.3567 76.9793 32.9845 76.9793 32.9845C76.9793 32.9845 76.9988 33.0452 77.03 33.1295C77.032 33.1353 77.0339 33.1412 77.0378 33.1471C77.0476 33.1726 77.0593 33.2019 77.071 33.2313C77.073 33.2392 77.0769 33.245 77.0808 33.2529C77.0906 33.2764 77.1023 33.3019 77.114 33.3273C77.1179 33.3371 77.1218 33.3469 77.1277 33.3548C77.1296 33.3606 77.1316 33.3646 77.1335 33.3704C77.1472 33.3979 77.1609 33.4272 77.1765 33.4547C77.2937 33.6702 77.8599 34.4146 78.1919 34.5322C78.5044 34.6497 78.6215 34.6693 78.7973 34.6693C78.973 34.6693 79.0706 34.8456 79.5393 35.0024C79.9884 35.1591 79.9299 35.1983 84.0111 34.8065C88.0923 34.4146 90.7676 33.7485 92.5641 33.3175C93.521 33.0883 94.3431 32.7984 94.9035 32.577L94.9836 32.479C94.0111 32.7905 90.9453 33.7348 88.3071 34.1404C85.1242 34.6301 80.6914 35.022 80.1056 35.022C79.5198 35.022 78.8754 34.5518 78.8754 34.5518H78.5434C78.3677 34.5518 78.1333 34.3951 77.8599 34.1404C77.6959 33.9876 77.4421 33.6036 77.2644 33.3215C77.1902 33.2039 77.1296 33.104 77.0945 33.0452C77.0945 33.0452 77.0945 33.0413 77.0925 33.0413C77.071 33.006 77.0593 32.9864 77.0593 32.9864C77.0593 32.9864 77.7233 32.9277 78.5434 31.282C79.3636 29.6364 80.1642 24.4839 80.1642 20.1346V19.8604C80.1642 15.5111 79.3636 10.3586 78.5434 8.71297C77.7233 7.06731 77.0593 7.00854 77.0593 7.00854C77.0593 7.00854 77.1472 6.8616 77.2683 6.66961C77.4499 6.38162 77.7076 5.99371 77.8599 5.85266C78.1333 5.59797 78.3677 5.44125 78.5434 5.44125H78.8754C78.8754 5.44125 79.5198 4.97105 80.1056 4.97105C80.6914 4.97105 85.1437 5.36288 88.3071 5.85266L88.3032 5.84874ZM65.046 8.98333C65.046 8.98333 67.0769 12.451 67.0769 19.8564V20.1307C67.0769 27.5362 65.046 31.0234 65.046 31.0234C65.046 31.0234 62.4098 30.612 60.711 30.612C59.0121 30.612 39.0746 30.6708 39.0746 30.6708C39.0746 30.6708 38.7816 30.6708 38.6059 30.5336C38.4106 30.3965 38.4497 30.2594 38.4497 30.2594L38.352 19.9936L38.4497 9.72779C38.4497 9.72779 38.4106 9.57106 38.6059 9.45352C38.7816 9.31638 39.0746 9.31638 39.0746 9.31638C39.0746 9.31638 59.0121 9.39474 60.711 9.39474C62.4098 9.39474 65.046 8.98333 65.046 8.98333ZM78.8324 19.9936C78.8324 26.2628 77.3874 30.8863 76.7234 31.9638C76.0595 33.0413 74.7707 33.0217 74.2825 32.9825C73.7748 32.9433 65.2608 31.0038 65.2608 31.0038C65.2608 31.0038 65.4952 30.7295 66.081 29.1035C66.6473 27.4774 67.3112 23.5592 67.3112 19.9936C67.3112 16.428 66.6668 12.5097 66.081 10.8837C65.5147 9.25761 65.2608 8.98333 65.2608 8.98333C65.2608 8.98333 73.7943 7.06339 74.2825 7.00462C74.7707 6.96544 76.079 6.94585 76.7234 8.02336C77.3679 9.10088 78.8324 13.7244 78.8324 19.9936ZM74.263 3.53698C74.263 3.53698 74.3118 3.53698 74.4016 3.5409L74.3411 3.45861H71.3729V3.41943C71.3729 3.38025 71.3534 3.16475 71.0605 2.71415C70.7481 2.26355 69.6936 0.931355 68.9711 0.382801C68.2485 -0.165752 67.6237 -0.0482063 67.0378 0.167294C67.0183 0.167294 66.9793 0.206478 66.9793 0.22607V0.265251C66.9793 0.284843 66.9793 0.304436 66.9988 0.304436L67.155 0.617893C67.2214 0.717808 68.4048 2.71415 68.9164 3.45861H61.3964C61.3964 3.45861 61.3905 3.45078 61.3866 3.44882C61.1093 3.21177 60.8066 3.20393 60.5118 3.20393C60.4864 3.20393 60.463 3.20393 60.4376 3.20393H58.0552C57.901 3.19413 57.7975 3.30188 57.7154 3.45861H44.6164C44.3333 3.21177 44.0228 3.20393 43.7221 3.20393C43.6947 3.20393 43.6694 3.20393 43.642 3.20393H41.2792C41.1152 3.19413 41.0058 3.30188 40.9218 3.45861H39.5432L39.3284 3.67412H39.5432C39.5432 3.67412 39.2308 3.88962 39.7385 5.37855C40.2657 6.86748 40.5196 7.86663 41.164 8.10172C41.3964 8.18009 41.7596 8.22319 42.1794 8.25062C42.7594 8.28588 43.4487 8.28784 44.0619 8.29176C44.1068 8.29176 44.1517 8.29176 44.1966 8.29176C44.2357 8.29176 44.2728 8.29176 44.3099 8.29176C44.3958 8.29176 44.4817 8.29372 44.5618 8.29568C45.6748 8.31527 59.6955 8.37404 61.453 8.37404C61.5584 8.37404 61.6619 8.37404 61.7635 8.37208C61.7967 8.37208 61.8279 8.37209 61.8611 8.37012C61.9275 8.37012 61.992 8.36817 62.0564 8.36621C62.0955 8.36621 62.1326 8.36425 62.1716 8.36229C62.2263 8.36033 62.2829 8.35837 62.3356 8.35641C62.3747 8.35641 62.4137 8.35249 62.4528 8.35053C62.5036 8.34857 62.5543 8.34466 62.6032 8.3427C62.6422 8.34074 62.6813 8.33682 62.7184 8.33486C62.7652 8.33094 62.8121 8.32703 62.857 8.32507C62.8961 8.32115 62.9332 8.31919 62.9722 8.31527C63.0152 8.31135 63.0582 8.30743 63.1011 8.30352C63.1402 8.2996 63.1773 8.29568 63.2144 8.29176C63.2554 8.28784 63.2964 8.28197 63.3354 8.27805C63.3725 8.27413 63.4077 8.27021 63.4448 8.26433C63.4838 8.25845 63.5229 8.25454 63.562 8.24866C63.5971 8.24474 63.6342 8.23886 63.6694 8.23299C63.7065 8.22711 63.7436 8.22123 63.7807 8.21535C63.8158 8.20948 63.851 8.20556 63.8842 8.19968C63.9213 8.1938 63.9564 8.18793 63.9916 8.18205C64.0267 8.17617 64.0619 8.1703 64.0951 8.16442C64.1283 8.15854 64.1595 8.15266 64.1927 8.14679C64.2298 8.14091 64.2649 8.13307 64.3021 8.12719C64.3294 8.12132 64.3567 8.11544 64.386 8.11152C64.4251 8.10368 64.4661 8.09585 64.5051 8.08801C64.7766 8.03316 65.0441 7.97242 65.3175 7.90973C66.4305 7.61586 72.3669 6.10734 72.9137 5.9898C73.4604 5.87225 73.8314 5.77429 73.9877 5.16697C74.1439 4.55964 74.261 3.5409 74.261 3.5409L74.263 3.53698ZM44.0326 3.94839H42.3337C42.3337 3.94839 42.2751 3.98758 42.2556 3.75248C42.2575 3.72114 42.2634 3.69567 42.2712 3.67216C42.2712 3.66824 42.2751 3.66824 42.2751 3.66432L43.9545 3.65845C44.0306 3.70351 44.0872 3.7564 44.1087 3.81126C44.1868 3.94839 44.0306 3.94839 44.0306 3.94839H44.0326ZM56.3173 3.61535C56.0439 3.98758 55.79 4.94754 55.79 4.98673V5.261C55.7529 5.39422 55.2882 6.71663 55.0304 8.08801L47.5787 8.18205C44.4094 8.15854 41.8299 8.1272 41.5741 8.08213C40.9101 7.96459 40.8125 7.84704 40.4805 7.14176C40.1681 6.43647 39.6213 4.77122 39.6018 4.41858C39.5823 4.06594 39.6018 3.67412 39.6018 3.67412L40.8281 3.6702C40.7949 3.76228 40.7637 3.85632 40.7324 3.94839C40.6738 4.10513 41.0644 4.08553 41.3378 4.08553H44.7941C44.9172 4.08553 45.0109 4.05811 44.9172 3.87003H44.9308C44.9113 3.81126 44.8722 3.75248 44.8137 3.67412C44.8078 3.66628 44.8039 3.66236 44.798 3.65649L56.3173 3.61535ZM60.8281 3.94839H59.1292C59.1292 3.94839 59.0706 3.98758 59.0511 3.75444C59.0648 3.75444 59.0765 3.75444 59.0902 3.75248V3.73289C59.0843 3.67412 59.096 3.63298 59.1136 3.60359L60.6211 3.59771C60.7617 3.65061 60.8711 3.73093 60.9062 3.81126C60.9648 3.94839 60.8281 3.94839 60.8281 3.94839ZM74.2239 3.53698C74.2239 3.53698 74.0677 4.61449 73.9506 5.02591C73.8334 5.43732 73.9506 5.43732 73.6772 5.63324C73.4331 5.8076 66.6336 7.49048 64.5735 7.96655L55.2101 8.08409C55.4717 6.68137 55.9658 5.31782 55.9658 5.30019C55.9658 5.28255 55.9658 5.28059 55.9658 5.28059V5.00632C55.9853 5.02591 56.2392 3.96799 56.493 3.67412C56.5126 3.65453 56.5126 3.63494 56.5126 3.61535L57.6471 3.60947C57.6041 3.71722 57.567 3.83477 57.528 3.94839C57.4694 4.10513 57.86 4.08553 58.1333 4.08553H61.5897C61.7283 4.08553 61.8338 4.05419 61.6658 3.78775C61.6463 3.75444 61.6209 3.71722 61.5897 3.67412C61.5682 3.64473 61.5467 3.61926 61.5252 3.5938L68.9867 3.56049C69.0375 3.63298 69.0804 3.68587 69.1077 3.7133C69.4007 4.04635 69.7522 4.08553 70.4942 3.88962C70.9824 3.7564 71.203 3.63494 71.3007 3.55069L74.2239 3.53698ZM39.5432 36.3326H39.3479L39.5432 36.5285H40.9668C41.0507 36.6774 41.1601 36.7832 41.3202 36.7832H43.683C43.7104 36.7832 43.7357 36.7832 43.7631 36.7832C44.0638 36.7832 44.3743 36.7754 44.6574 36.5285H57.7193C57.8014 36.6774 57.9049 36.7832 58.0552 36.7832H60.4376C60.461 36.7832 60.4864 36.7832 60.5118 36.7832C60.8066 36.7832 61.1093 36.7754 61.3866 36.5383C61.3905 36.5364 61.3925 36.5324 61.3964 36.5285H68.9027C68.3852 37.2867 67.2214 39.2497 67.155 39.3497L66.9988 39.6631C66.9793 39.6827 66.9793 39.7023 66.9793 39.7023V39.7415C66.9793 39.7611 67.0183 39.8003 67.0378 39.8003C67.6237 40.0158 68.2485 40.1333 68.9711 39.5848C69.6936 39.0362 70.7481 37.704 71.0605 37.2534C71.3534 36.8028 71.3729 36.5873 71.3729 36.5481V36.5285H74.3411L74.4016 36.4462C74.3118 36.4482 74.263 36.4502 74.263 36.4502C74.263 36.4502 74.1458 35.4314 73.9896 34.8241C73.8334 34.2168 73.4624 34.1188 72.9156 34.0013C72.3688 33.8837 66.4325 32.3556 65.3194 32.1205C65.0851 32.0676 64.8547 32.0167 64.6223 31.9677C64.5871 31.9599 64.554 31.954 64.5188 31.9462C64.4876 31.9403 64.4563 31.9344 64.4251 31.9285C64.3899 31.9226 64.3548 31.9148 64.3196 31.9089C64.2884 31.9031 64.2571 31.8972 64.2259 31.8913C64.1888 31.8854 64.1536 31.8776 64.1165 31.8717C64.0853 31.8658 64.056 31.8619 64.0248 31.856C63.9877 31.8502 63.9486 31.8443 63.9095 31.8384C63.8803 31.8345 63.849 31.8286 63.8178 31.8247C63.7768 31.8188 63.7338 31.8129 63.6908 31.8071C63.6635 31.8031 63.6342 31.7992 63.6069 31.7953C63.5541 31.7875 63.5014 31.7816 63.4467 31.7738C63.4272 31.7718 63.4077 31.7679 63.3882 31.7659C63.3159 31.7581 63.2417 31.7483 63.1656 31.7404C63.1402 31.7385 63.1148 31.7346 63.0894 31.7326C63.0367 31.7267 62.9839 31.7228 62.9293 31.7169C62.898 31.715 62.8668 31.7111 62.8355 31.7091C62.7848 31.7052 62.734 31.7013 62.6832 31.6973C62.65 31.6954 62.6149 31.6934 62.5797 31.6895C62.529 31.6856 62.4762 31.6836 62.4235 31.6797C62.3884 31.6778 62.3532 31.6758 62.3161 31.6738C62.2614 31.6719 62.2048 31.668 62.1482 31.666C62.113 31.666 62.0779 31.6621 62.0408 31.6621C61.9783 31.6601 61.9119 31.6582 61.8475 31.6562C61.8162 31.6562 61.785 31.6542 61.7537 31.6542C61.6561 31.6523 61.5545 31.6503 61.451 31.6484C59.6936 31.6288 45.6533 31.6875 44.5598 31.7071C44.4856 31.7071 44.4094 31.7091 44.3313 31.7111C44.2903 31.7111 44.2474 31.7111 44.2044 31.7111C44.1693 31.7111 44.1341 31.7111 44.099 31.7111C43.9213 31.7111 43.7377 31.713 43.5522 31.715C43.5463 31.715 43.5405 31.715 43.5346 31.715C43.4565 31.715 43.3784 31.715 43.2983 31.7169C43.2847 31.7169 43.271 31.7169 43.2554 31.7169C43.1812 31.7169 43.107 31.7189 43.0347 31.7209C43.0191 31.7209 43.0035 31.7209 42.9879 31.7209C42.9136 31.7209 42.8394 31.7248 42.7672 31.7267C42.7535 31.7267 42.7418 31.7267 42.7281 31.7267C42.0818 31.7463 41.492 31.7894 41.162 31.8991C40.5176 32.1342 40.2638 33.1334 39.7365 34.6223C39.2288 36.1112 39.5413 36.3267 39.5413 36.3267L39.5432 36.3326ZM59.0511 36.2327C59.0706 36.0015 59.1292 36.0388 59.1292 36.0388H60.8281C60.8281 36.0388 60.9648 36.0388 60.9062 36.1759C60.8711 36.2562 60.7617 36.3365 60.6211 36.3894L59.1136 36.3836C59.096 36.3542 59.0863 36.313 59.0902 36.2543V36.2347C59.0765 36.2347 59.0648 36.2347 59.0511 36.2327ZM56.493 36.313C56.2392 36.0192 55.9853 34.9612 55.9658 34.9808V34.7066C55.9658 34.7066 55.9658 34.7066 55.9658 34.687C55.9658 34.6674 55.4717 33.3058 55.2101 31.9031L64.5754 32.0206C66.6375 32.4967 73.435 34.1795 73.6772 34.3539C73.9506 34.5498 73.8334 34.5498 73.9506 34.9612C74.0482 35.3727 74.2239 36.4502 74.2239 36.4502L71.3222 36.4365C71.2362 36.3522 71.0214 36.2209 70.4942 36.0779C69.7522 35.882 69.4007 35.9212 69.1077 36.2543C69.0785 36.2836 69.0316 36.3444 68.973 36.4267L61.5252 36.3934C61.5467 36.3679 61.5682 36.3424 61.5897 36.313C61.6209 36.2699 61.6463 36.2347 61.6658 36.1994C61.8338 35.933 61.7283 35.9016 61.5897 35.9016H58.1333C57.86 35.9016 57.4694 35.882 57.528 36.0388C57.5651 36.1524 57.6041 36.2699 57.6471 36.3777L56.5126 36.3718C56.5126 36.3522 56.5126 36.3326 56.493 36.313ZM42.2966 36.2307C42.3161 36.0015 42.3747 36.0388 42.3747 36.0388H44.0736C44.0736 36.0388 44.2103 36.0388 44.1517 36.1759C44.1322 36.2229 44.0853 36.268 44.0267 36.3091L42.3552 36.3032C42.3552 36.2876 42.3552 36.2719 42.3552 36.2543V36.2347C42.3337 36.2327 42.3161 36.2327 42.2966 36.2307ZM39.6018 35.549C39.6213 35.1963 40.1681 33.5507 40.4805 32.8258C40.8125 32.1401 40.9101 32.0226 41.5741 31.8854C41.8025 31.8462 43.8939 31.8149 46.6024 31.7933L55.0343 31.8991C55.294 33.2627 55.7529 34.5733 55.79 34.7046V34.9789C55.79 35.0181 56.0439 35.978 56.3173 36.3503L44.8547 36.3091C44.9133 36.2307 44.9523 36.172 44.9718 36.1152C44.9718 36.1152 44.966 36.1152 44.9582 36.1152C45.0519 35.9271 44.9582 35.8997 44.8351 35.8997H41.3788C41.1054 35.8997 40.7149 35.8801 40.7734 36.0368C40.8027 36.123 40.8301 36.2112 40.8613 36.2954L39.6018 36.2915C39.6018 36.2915 39.5823 35.8997 39.6018 35.547V35.549ZM2.03491 33.6761L3.84901 33.6565L3.97008 33.8152L2.05444 33.872L2.03491 33.6741V33.6761ZM2.04467 6.06424L3.99937 6.17591L3.85877 6.30717L2.01733 6.28758L2.04467 6.06228V6.06424Z" fill="black"/>
<path d="M3.86647 6.29927H2.51907C2.51907 6.29927 1.46459 13.8811 1.42554 19.9935C1.46459 26.0864 2.51907 33.6682 2.51907 33.6682H3.86647V6.29927ZM37.2389 4.92789C37.1217 5.31971 37.1607 5.67235 37.1607 5.67235L4.00316 6.49518V6.16213L2.57766 6.10336C2.57766 6.10336 2.59718 5.5744 3.35875 5.28053C4.08127 4.96707 4.68662 4.92789 5.93637 4.86911C7.18613 4.81034 14.919 4.39893 20.0352 4.26179C25.1514 4.12465 37.8637 4.12465 37.8637 4.12465C37.5903 4.34015 37.317 4.63402 37.2389 4.92789ZM4.00316 33.4722L37.1803 34.2951C37.1803 34.2951 37.1412 34.6477 37.2584 35.0395C37.3365 35.3334 37.6099 35.6273 37.8833 35.8428C37.8833 35.8428 25.1709 35.8428 20.0547 35.7056C14.9385 35.5685 7.18613 35.1571 5.93637 35.0983C4.68662 35.0395 4.04221 34.9808 3.3197 34.6869C2.59718 34.3734 2.57766 33.8641 2.57766 33.8641L4.00316 33.8053V33.4722Z" fill="#393939"/>
<path d="M39.6213 22.9322V17.0548C39.6213 17.0548 39.3675 16.8001 38.9379 16.6434C38.5083 16.4867 38.1177 16.5455 38.1177 16.5455L37.981 16.9569V23.0497L38.1177 23.4611C38.1177 23.4611 38.5083 23.5003 38.9379 23.3436C39.3675 23.1869 39.6213 22.9322 39.6213 22.9322ZM2.92929 36.117C2.40205 35.7252 2.20677 35.1179 2.12866 34.6477L2.38252 34.6673C2.48016 35.0983 2.69496 35.5881 3.12456 35.9211C3.8666 36.4697 4.82345 36.5872 5.23352 36.6068V36.8027C5.23352 36.8027 3.88613 36.8615 2.92929 36.117ZM2.38252 5.30012L2.12866 5.31971C2.20677 4.82993 2.40205 4.2422 2.92929 3.83078C3.88613 3.08632 5.23352 3.14509 5.23352 3.14509V3.36059C4.82345 3.38018 3.8666 3.49773 3.12456 4.04628C2.69496 4.37933 2.48016 4.86912 2.38252 5.30012Z" fill="#ED2939"/>
<path opacity="0.2" d="M38.1177 23.3436V16.6434L38.5278 17.0549C38.5278 17.0549 38.6644 18.7985 38.6644 19.9935C38.6644 21.1886 38.5278 22.9322 38.5278 22.9322L38.1177 23.3436Z" fill="black"/>
<path d="M38.3325 29.358C38.2934 30.1221 37.3757 31.7482 37.3757 31.7482C37.3757 31.7482 37.1042 25.4281 37.0027 21.1689H36.9656C36.9656 20.8104 36.9695 20.3892 36.9773 19.9249C36.9695 19.4606 36.9656 19.0394 36.9656 18.6809H37.0027C37.1042 14.4217 37.3757 8.10161 37.3757 8.10161C37.3757 8.10161 38.2934 9.72768 38.3325 10.4917C38.3501 10.9188 38.3188 15.7657 38.2993 19.9249C38.3188 24.0841 38.3501 28.931 38.3325 29.358Z" fill="url(#paint8_linear_6560_1913)"/>
<path opacity="0.1" d="M84.8468 33.2568C82.3668 33.6878 79.8868 33.9621 77.856 34.1384C78.1293 34.3931 78.3637 34.5498 78.5394 34.5498H78.8714C78.8714 34.5498 79.5158 35.02 80.1016 35.02C80.6874 35.02 85.1202 34.6282 88.3031 34.1384C91.4861 33.6486 95.294 32.3752 95.294 32.3752L97.3248 29.8675C97.3248 29.8675 97.3209 29.8675 97.315 29.8636C96.9987 30.1477 96.7195 30.1222 96.7195 30.1222L96.8483 29.2347C96.3289 29.5854 95.5888 30.0262 94.6105 30.4749C92.4234 31.4936 90.4902 32.2577 84.8468 33.2568ZM96.7195 9.86494L96.8483 10.7524C96.3289 10.4017 95.5888 9.96094 94.6105 9.5123C92.4234 8.49356 90.4902 7.7295 84.8468 6.73035C82.3668 6.29935 79.8868 6.02507 77.856 5.84875C78.1293 5.59406 78.3637 5.43734 78.5394 5.43734H78.8714C78.8714 5.43734 79.5158 4.96715 80.1016 4.96715C80.6874 4.96715 85.1397 5.35897 88.3031 5.84875C91.4861 6.33853 95.294 7.61196 95.294 7.61196L97.3248 10.1196C97.3248 10.1196 97.3209 10.1196 97.315 10.1235C96.9987 9.83947 96.7195 9.86494 96.7195 9.86494Z" fill="url(#paint9_linear_6560_1913)"/>
<path opacity="0.2" d="M97.3054 29.1035C97.0906 29.7892 97.3054 29.8479 97.3054 29.8479L95.294 32.3752C95.294 32.3752 91.4862 33.6486 88.3032 34.1384C85.1203 34.6282 80.6875 35.02 80.1017 35.02C79.5159 35.02 78.8715 34.5498 78.8715 34.5498H78.5395C78.3638 34.5498 78.1294 34.3931 77.856 34.1384C77.5827 33.8837 77.0554 32.9825 77.0554 32.9825C77.0554 32.9825 77.7194 32.9238 78.5395 31.2781C79.3597 29.6324 80.1603 24.48 80.1603 20.1307V19.8564C80.1603 15.5072 79.3597 10.3547 78.5395 8.70906C77.7194 7.0634 77.0554 7.00463 77.0554 7.00463C77.0554 7.00463 77.6022 6.08384 77.856 5.84875C78.1294 5.59406 78.3638 5.43734 78.5395 5.43734H78.8715C78.8715 5.43734 79.5159 4.96715 80.1017 4.96715C80.6875 4.96715 85.1398 5.35897 88.3032 5.84875C91.4862 6.33853 95.294 7.61196 95.294 7.61196L97.3054 10.1392C97.3054 10.1392 97.1101 10.198 97.3054 10.8837C97.5202 11.5694 98.5356 14.6648 98.5356 19.8564V20.1307C98.5356 25.3224 97.5202 28.4178 97.3054 29.1035Z" fill="url(#paint10_radial_6560_1913)"/>
<path opacity="0.2" d="M65.0461 31.0234C65.0461 31.0234 62.4099 30.612 60.711 30.612C59.0121 30.612 39.0746 30.6708 39.0746 30.6708C39.0746 30.6708 38.7817 30.6708 38.6059 30.5337C38.4106 30.3965 38.4497 30.2594 38.4497 30.2594L38.3521 19.9936L38.4497 9.72783C38.4497 9.72783 38.4106 9.5711 38.6059 9.45355C38.7817 9.31641 39.0746 9.31641 39.0746 9.31641C39.0746 9.31641 59.0121 9.39478 60.711 9.39478C62.4099 9.39478 65.0461 8.98336 65.0461 8.98336C65.0461 8.98336 67.0769 12.451 67.0769 19.8565V20.1307C67.0769 27.5362 65.0461 31.0234 65.0461 31.0234Z" fill="url(#paint11_radial_6560_1913)"/>
<path opacity="0.2" d="M39.6017 35.5489C39.5822 35.9015 39.6017 36.2933 39.6017 36.2933L56.3172 36.3521C56.0438 35.9799 55.7899 35.0199 55.7899 34.9807V34.7065C55.7509 34.5693 55.2627 33.1783 55.0088 31.7678V31.7482C49.6193 31.7678 42.0231 31.807 41.574 31.8853C40.91 32.0225 40.8124 32.14 40.4804 32.8257C40.168 33.5506 39.6212 35.1962 39.6017 35.5489ZM55.9657 34.7065C55.9657 34.7065 55.9657 34.7065 55.9657 34.6869C55.9657 34.6673 55.4384 33.2175 55.1846 31.7678H60.3203C61.3748 31.7678 63.2299 31.7482 64.05 31.9049C64.8702 32.0616 73.4037 34.1579 73.6771 34.3538C73.9505 34.5497 73.8333 34.5497 73.9505 34.9611C74.0481 35.3726 74.2238 36.4501 74.2238 36.4501L56.5125 36.3717C56.5125 36.3521 56.5125 36.3325 56.4929 36.3129C56.2391 36.0191 55.9852 34.9611 55.9657 34.9807V34.7065ZM55.7899 5.26091C55.7509 5.39804 55.2627 6.78902 55.0088 8.19958V8.21918C49.6193 8.19958 42.0231 8.1604 41.574 8.08204C40.91 7.96449 40.8124 7.84694 40.4804 7.14166C40.168 6.43638 39.6212 4.77113 39.6017 4.41849C39.5822 4.06585 39.6017 3.67402 39.6017 3.67402L56.3172 3.61525C56.0438 3.98748 55.7899 4.94745 55.7899 4.98663V5.26091ZM73.6771 5.63314C73.4037 5.82905 64.8702 7.92531 64.05 8.08204C63.2299 8.23877 61.3748 8.21918 60.3203 8.21918H55.1846C55.4384 6.76943 55.9657 5.31968 55.9657 5.30009C55.9657 5.2805 55.9657 5.2805 55.9657 5.2805V5.00622C55.9852 5.02581 56.2391 3.96789 56.4929 3.67402C56.5125 3.65443 56.5125 3.63484 56.5125 3.61525L74.2238 3.53688C74.2238 3.53688 74.0676 4.6144 73.9505 5.02581C73.8333 5.43723 73.9505 5.43723 73.6771 5.63314Z" fill="url(#paint12_linear_6560_1913)"/>
<path opacity="0.2" d="M2.10903 33.8641C2.10903 33.8641 1.95281 35.3727 2.92919 36.1171C3.90556 36.8616 5.23342 36.8028 5.23342 36.8028C5.23342 36.8028 17.8872 37.3514 21.3826 37.3514C24.878 37.3514 29.135 37.4493 31.6931 37.3514C34.2512 37.2534 37.7857 37.2142 38.0005 36.9399C38.2153 36.6657 38.4301 36.2934 38.1372 36.0583C37.8442 35.8232 37.3561 35.451 37.2584 35.0396C37.1608 34.6282 37.1803 34.2951 37.1803 34.2951L4.0032 33.4527V33.7858L2.10903 33.8641ZM38.1176 3.90921C37.8247 4.14431 37.3365 4.51654 37.2389 4.92796C37.1413 5.33937 37.1608 5.67242 37.1608 5.67242L4.0032 6.49525V6.1622L2.10903 6.10343C2.10903 6.10343 1.95281 4.57531 2.92919 3.85044C3.88603 3.12557 5.23342 3.16475 5.23342 3.16475C5.23342 3.16475 17.8872 2.6162 21.3631 2.6162C24.839 2.6162 29.1155 2.51824 31.6736 2.6162C34.2317 2.71415 37.7466 2.75333 37.9809 3.02761C38.2153 3.30189 38.4105 3.67412 38.1176 3.90921Z" fill="url(#paint13_linear_6560_1913)"/>
<path d="M2.00552 33.68L2.11292 34.6713L2.74561 36.0192C1.78877 36.0192 2.1676 35.9819 1.62083 35.4334C1.07406 34.8848 0.839733 34.5322 0.800678 33.9445C0.781151 33.3587 0.294918 23.8354 0.273438 20.019C0.294918 16.1851 0.761623 6.61672 0.800678 6.03094C0.839733 5.44321 1.07406 5.09056 1.62083 4.54201C2.1676 3.99346 1.7751 3.95624 2.73194 3.95624L2.09925 5.3335L2.03677 6.26212C2.03677 6.26212 0.941276 11.4107 0.941276 19.9799C0.941276 28.549 2.00552 33.6819 2.00552 33.6819V33.68Z" fill="#393939"/>
<path d="M98.4185 30.5473C98.3013 30.7041 97.7351 31.0175 97.7351 31.0175C97.7351 31.0175 97.3054 32.0774 95.8995 33.8034C94.4935 35.5294 93.068 36.0192 91.623 36.1171C90.1975 36.1955 89.9436 35.98 89.9436 35.98C89.9436 35.98 91.7792 35.6861 92.6579 35.3727C93.5367 35.0592 94.8059 33.6075 96.251 31.7052C97.696 29.8029 98.1647 28.0377 98.5552 25.5065C98.9458 22.9754 98.9653 21.8978 98.9653 20.0543V19.9172C98.9653 18.0756 98.9458 16.9981 98.5552 14.4708C98.1647 11.9436 97.696 10.1804 96.251 8.28001C94.8059 6.37966 93.5367 4.92992 92.6579 4.61646C91.7792 4.303 89.9436 4.00913 89.9436 4.00913C89.9436 4.00913 90.1779 3.79363 91.623 3.89158C93.068 3.98954 94.513 4.47932 95.8995 6.20334C97.3054 7.92737 97.7351 8.98529 97.7351 8.98529C97.7351 8.98529 98.3013 9.29875 98.4185 9.45548C98.5357 9.61221 99.9807 14.6276 99.9807 19.9955C99.9807 25.3635 98.5357 30.3906 98.4185 30.5493V30.5473Z" fill="#393939"/>
<path opacity="0.1" d="M2.03104 33.6682C2.03104 33.6682 0.976555 26.0864 0.9375 19.9936C0.976555 13.8811 2.03104 6.29933 2.03104 6.29933H3.86662V33.6682H2.03104Z" fill="url(#paint14_linear_6560_1913)"/>
<path opacity="0.1" d="M2.81214 19.9935L3.45655 34.4126L5.15543 36.2542H4.60867C3.65182 36.2542 3.45655 36.1954 2.90978 35.6468C2.36301 35.0983 2.12868 34.7456 2.08963 34.1579C2.0701 33.531 0.976562 23.6374 0.976562 19.9935C0.976562 16.3495 2.0701 6.41678 2.08963 5.80946C2.12868 5.22172 2.32981 4.79268 2.87658 4.24412C3.42335 3.69557 4.02675 3.58194 4.39191 3.48006L5.22378 3.37819L3.4585 5.55477L2.81409 19.9935H2.81214Z" fill="url(#paint15_linear_6560_1913)"/>
<path opacity="0.2" d="M3.99742 6.22086L3.9115 6.21498L3.96812 6.14054L2.05248 6.08372V6.10723H2.04272L2.01538 6.33253L3.85682 6.35212L3.99742 6.22086ZM3.97008 33.8601L2.05444 33.9169V33.8934H2.04467L2.01733 33.6681L3.85877 33.6485L3.99937 33.7798L3.91345 33.7857L3.97008 33.8601ZM38.4692 31.0076L39.2113 31.2035H60.1642V30.7921C60.1642 30.7921 62.6832 30.7725 64.636 31.1252C66.5887 31.4778 74.3997 33.339 75.4932 33.3586C76.5868 33.3978 76.9773 33.0255 76.9773 33.0255C76.9773 33.0255 76.9968 33.0863 77.0281 33.1705C77.03 33.1764 77.032 33.1822 77.0359 33.1881C77.0457 33.2136 77.0574 33.243 77.0691 33.2724C77.0711 33.2802 77.075 33.2861 77.0789 33.2939C77.0886 33.3174 77.1003 33.3429 77.1121 33.3684C77.116 33.3782 77.1199 33.388 77.1257 33.3958C77.1277 33.4017 77.1296 33.4056 77.1316 33.4115C77.1452 33.4389 77.1589 33.4683 77.1745 33.4957C77.2917 33.7112 77.858 34.4557 78.19 34.5732C78.5024 34.6908 78.6196 34.7104 78.7953 34.7104C78.9711 34.7104 79.0687 34.8867 79.5374 35.0434C79.9865 35.2001 79.9279 35.2393 84.0091 34.8475C88.0904 34.4557 90.7656 33.7896 92.5622 33.3586C93.519 33.1294 94.3411 32.8394 94.9016 32.618C94.9016 32.618 94.2943 33.6211 92.9742 34.6849C91.6522 35.7487 91.783 35.2765 91.7186 35.6429C91.2206 35.7742 90.3966 35.972 89.4163 36.023C88.4341 36.0759 80.4024 36.311 79.9299 36.3384C79.4593 36.3639 74.265 36.4951 74.265 36.4951C74.265 36.4951 74.0931 35.0532 73.9896 34.7515C73.8861 34.4498 73.8197 34.2656 73.2046 34.1089C72.5895 33.9522 65.7334 32.1792 64.386 31.9421C63.0386 31.7051 61.7166 31.6796 60.4864 31.6659C59.2562 31.6522 43.5424 31.7188 42.9273 31.7443C42.3122 31.7697 41.3046 31.7188 40.8086 32.138C40.3106 32.5573 39.9572 33.9365 39.7483 34.5536C39.5393 35.1708 39.4202 35.7742 39.4612 36.3913C39.1214 36.405 38.7816 36.3658 38.7816 36.3658C38.7816 36.3658 37.774 35.6566 37.6686 35.2628C37.5631 34.869 37.4987 34.1598 37.4987 34.1598L37.4694 33.9737C37.4577 33.7524 37.4538 33.5956 37.4538 33.5956C37.4538 33.5956 38.0201 32.0675 38.2739 31.6169C38.5278 31.1663 38.4692 31.0096 38.4692 31.0096V31.0076ZM84.0072 5.15314C79.926 4.76132 79.9845 4.8005 79.5354 4.95723C79.0667 5.11396 78.9691 5.29028 78.7934 5.29028C78.6176 5.29028 78.5005 5.30987 78.188 5.42742C77.856 5.54496 77.2898 6.28943 77.1726 6.50493C77.157 6.53236 77.1433 6.56175 77.1296 6.58918C77.1296 6.58918 77.1257 6.59897 77.1238 6.60289C77.1199 6.61268 77.116 6.62248 77.1101 6.63032C77.0984 6.65578 77.0886 6.67929 77.0769 6.70476C77.073 6.7126 77.071 6.71848 77.0671 6.72631C77.0554 6.7557 77.0437 6.78313 77.0339 6.81055C77.032 6.81643 77.03 6.82231 77.0261 6.82819C76.9949 6.91439 76.9754 6.97316 76.9754 6.97316C76.9754 6.97316 76.5848 6.60093 75.4913 6.64011C74.3977 6.6597 66.5868 8.52086 64.634 8.87351C62.6813 9.22615 60.1622 9.20656 60.1622 9.20656V8.79514H39.2093L38.4673 8.99105C38.4673 8.99105 38.5258 8.83432 38.272 8.38373C38.0181 7.93313 37.4518 6.40502 37.4518 6.40502C37.4518 6.40502 37.4538 6.24829 37.4674 6.02691L37.4967 5.84079C37.4967 5.84079 37.5612 5.13159 37.6666 4.73781C37.7721 4.34402 38.7797 3.63483 38.7797 3.63483C38.7797 3.63483 39.1195 3.59564 39.4592 3.60936C39.4202 4.22648 39.5374 4.82989 39.7463 5.44701C39.9552 6.06413 40.3087 7.44139 40.8066 7.8626C41.3046 8.28185 42.3122 8.23092 42.9254 8.25638C43.5405 8.28185 59.2542 8.34846 60.4844 8.33475C61.7147 8.32104 63.0367 8.29557 64.3841 8.05852C65.7315 7.82146 72.5875 6.05042 73.2027 5.89173C73.8178 5.735 73.8822 5.55084 73.9877 5.24914C74.0931 4.94743 74.263 3.50552 74.263 3.50552C74.263 3.50552 79.4553 3.63483 79.9279 3.66225C80.3985 3.68772 88.4321 3.92477 89.4143 3.97767C90.3966 4.03057 91.2206 4.22648 91.7166 4.35774C91.783 4.72606 91.6502 4.25195 92.9722 5.31575C94.2942 6.37955 94.8996 7.38262 94.8996 7.38262C94.3392 7.16124 93.5171 6.87129 92.5602 6.64207C90.7637 6.21106 88.0884 5.54497 84.0072 5.15314Z" fill="url(#paint16_linear_6560_1913)"/>
</g>
<defs>
<linearGradient id="paint0_linear_6560_1913" x1="36.95" y1="19.8917" x2="5.24175" y2="19.8917" gradientUnits="userSpaceOnUse">
<stop stop-color="#101415"/>
<stop offset="1" stop-color="#0B0B0B"/>
</linearGradient>
<linearGradient id="paint1_linear_6560_1913" x1="26.124" y1="19.7487" x2="13.4898" y2="19.7487" gradientUnits="userSpaceOnUse">
<stop stop-color="#262626"/>
<stop offset="1" stop-color="#333333"/>
</linearGradient>
<linearGradient id="paint2_linear_6560_1913" x1="56.1611" y1="28.0749" x2="56.1611" y2="37.7901" gradientUnits="userSpaceOnUse">
<stop stop-color="#707070"/>
<stop offset="1"/>
</linearGradient>
<linearGradient id="paint3_linear_6560_1913" x1="45.3883" y1="1.73121" x2="45.3883" y2="11.1256" gradientUnits="userSpaceOnUse">
<stop/>
<stop offset="1" stop-color="#707070"/>
</linearGradient>
<linearGradient id="paint4_linear_6560_1913" x1="99.9825" y1="19.9936" x2="93.7415" y2="19.9936" gradientUnits="userSpaceOnUse">
<stop stop-color="white"/>
<stop offset="1" stop-color="#8C8C8C"/>
</linearGradient>
<linearGradient id="paint5_linear_6560_1913" x1="79.7698" y1="20.2091" x2="90.3146" y2="20.2091" gradientUnits="userSpaceOnUse">
<stop/>
<stop offset="1" stop-color="white"/>
</linearGradient>
<linearGradient id="paint6_linear_6560_1913" x1="0.00022198" y1="11.6928" x2="0.196773" y2="2.30667" gradientUnits="userSpaceOnUse">
<stop stop-color="#707070"/>
<stop offset="1"/>
</linearGradient>
<linearGradient id="paint7_linear_6560_1913" x1="85.2522" y1="19.917" x2="64.9183" y2="19.917" gradientUnits="userSpaceOnUse">
<stop stop-color="#707070"/>
<stop offset="1"/>
</linearGradient>
<linearGradient id="paint8_linear_6560_1913" x1="39.3401" y1="19.9249" x2="34.3216" y2="19.9249" gradientUnits="userSpaceOnUse">
<stop/>
<stop offset="1" stop-color="#707070"/>
</linearGradient>
<linearGradient id="paint9_linear_6560_1913" x1="90.293" y1="19.9936" x2="81.7966" y2="19.9936" gradientUnits="userSpaceOnUse">
<stop/>
<stop offset="1" stop-color="white"/>
</linearGradient>
<radialGradient id="paint10_radial_6560_1913" cx="0" cy="0" r="1" gradientUnits="userSpaceOnUse" gradientTransform="translate(87.7955 19.9936) scale(13.0326 13.0752)">
<stop offset="0.21" stop-color="white"/>
<stop offset="1"/>
</radialGradient>
<radialGradient id="paint11_radial_6560_1913" cx="0" cy="0" r="1" gradientUnits="userSpaceOnUse" gradientTransform="translate(52.7145 20.0034) scale(12.7846 12.8263)">
<stop offset="0.21" stop-color="white"/>
<stop offset="1"/>
</radialGradient>
<linearGradient id="paint12_linear_6560_1913" x1="56.9089" y1="3.53688" x2="56.9089" y2="36.4501" gradientUnits="userSpaceOnUse">
<stop/>
<stop offset="0.15" stop-color="white"/>
<stop offset="0.88" stop-color="white"/>
<stop offset="1"/>
</linearGradient>
<linearGradient id="paint13_linear_6560_1913" x1="2.09927" y1="19.9838" x2="38.2797" y2="19.9838" gradientUnits="userSpaceOnUse">
<stop stop-color="white"/>
<stop offset="1"/>
</linearGradient>
<linearGradient id="paint14_linear_6560_1913" x1="0.9375" y1="19.9838" x2="3.86662" y2="19.9838" gradientUnits="userSpaceOnUse">
<stop stop-color="white"/>
<stop offset="1"/>
</linearGradient>
<linearGradient id="paint15_linear_6560_1913" x1="0.976563" y1="19.8152" x2="5.22183" y2="19.8152" gradientUnits="userSpaceOnUse">
<stop stop-color="white"/>
<stop offset="1"/>
</linearGradient>
<linearGradient id="paint16_linear_6560_1913" x1="48.4575" y1="3.50748" x2="48.4575" y2="36.4932" gradientUnits="userSpaceOnUse">
<stop/>
<stop offset="0.17" stop-color="white"/>
<stop offset="0.85" stop-color="white"/>
<stop offset="1"/>
</linearGradient>
<clipPath id="clip0_6560_1913">
<rect width="100" height="40" fill="white" transform="matrix(1 0 0 -1 0 40)"/>
</clipPath>
</defs>
</svg>
