<svg width="100" height="51" viewBox="0 0 100 51" fill="none" xmlns="http://www.w3.org/2000/svg">
<g clip-path="url(#clip0_6561_3820)">
<path d="M100 36.5587H99.5898V37.9156C99.5898 38.1676 99.3945 38.3615 99.1406 38.3615H98.3984C98.1445 38.3615 97.9492 38.1676 97.9492 37.9156V36.5587H90V40.4743H83.6523V44.6613C83.6523 45.1052 83.4473 45.4987 83.125 45.7527V48.6545L82.4219 51H20.7422L20.0586 48.6545V44.9327H7.91016C7.85547 44.9599 7.79883 44.9812 7.74414 45.0044C7.71875 45.0161 7.69141 45.0277 7.66406 45.0393C7.62109 45.0568 7.57813 45.0704 7.53516 45.0859C7.47461 45.1072 7.41211 45.1266 7.34961 45.1421C7.31641 45.1518 7.2832 45.1595 7.24805 45.1673C7.17578 45.1847 7.10352 45.1964 7.0293 45.208C6.99805 45.2119 6.96875 45.2177 6.9375 45.2216C6.83203 45.2332 6.72656 45.2409 6.61914 45.2409C6.51172 45.2409 6.4043 45.2332 6.30078 45.2216C6.26953 45.2177 6.24023 45.2119 6.20898 45.208C6.13477 45.1964 6.0625 45.1847 5.99023 45.1673C5.95508 45.1595 5.92188 45.1498 5.88867 45.1421C5.82617 45.1246 5.76562 45.1072 5.70508 45.0859C5.66016 45.0704 5.61719 45.0548 5.57227 45.0374C5.54688 45.0277 5.52344 45.0161 5.49805 45.0064C5.44141 44.9812 5.38281 44.9599 5.32812 44.9327H2.57422L1.95312 42.8276L1.35938 43.0059L0.460937 40.0556L1.07812 39.8696L0 36.2098V14.8096L1.08984 11.1246L0.470703 10.9385L1.36914 7.98825L1.96484 8.16659L2.58008 6.08665H5.30859C5.60547 5.9277 5.93555 5.82109 6.28516 5.78038C6.28711 5.78038 6.29102 5.78038 6.29297 5.78038C6.40234 5.76682 6.51172 5.75906 6.62305 5.75906C6.73438 5.75906 6.83984 5.76682 6.94531 5.78038C6.95703 5.78038 6.9668 5.78426 6.97852 5.7862C7.30273 5.82884 7.60938 5.92577 7.88672 6.07115H20.0586V2.36875L20.7422 0.0232544H22.9102V0.00387573H23.8672V0.0232544H26.4453V0.00387573H27.4023V0.0232544H29.9609V0.00387573H30.918V0.0232544H33.4961V0.00387573H34.4531V0.0232544H37.0117V0.00387573H37.9688V0.0232544H40.5469V0.00387573H41.5039V0.0232544H44.0625V0.00387573H45.0195V0.0232544H47.5781V0.00387573H48.5352V0.0232544H51.1133V0.00387573H52.0703V0.0232544H54.6289V0.00387573H55.5859V0.0232544H58.1641V0.00387573H59.1211V0.0232544H61.6797V0.00387573H62.6367V0.0232544H65.2148V0.00387573H66.1719V0.0232544H68.7305V0.00387573H69.6875V0.0232544H72.2461V0.00387573H73.2031V0.0232544H75.7812V0.00387573H76.7383V0.0232544H79.2969V0.00387573H80.2539V0.0232544H82.4219L83.125 2.36875V5.25119C83.4473 5.50706 83.6523 5.89863 83.6523 6.34253V12.875C83.6523 13.6504 83.0273 14.2707 82.2461 14.2707H80.4297V18.2445H80.4102V18.2639H78.7305V34.2365H90V36.1168H100V36.5626V36.5587Z" fill="#222222"/>
<path d="M88.7891 40.4643H78.7305V44.9226H7.91016C7.51953 45.1165 7.08984 45.2328 6.62109 45.2328C6.15234 45.2328 5.72266 45.1165 5.33203 44.9226H2.57812L0 36.1997V14.7995L2.57812 6.07658H5.37109C5.74219 5.86335 6.17188 5.74704 6.62109 5.74704C7.07031 5.74704 7.5 5.86335 7.87109 6.05719H80.4102V18.2499H78.7305V34.2225H89.9805V40.4643H88.7891Z" fill="#FED100"/>
<path d="M20.7419 50.9904H22.9099V46.0474H21.4646C20.7771 46.0474 20.2107 45.5666 20.0857 44.9231H20.0583V48.6449L20.7419 50.9904ZM45.0193 46.0474H47.5779V50.9904H45.0193V46.0474ZM30.9177 46.0474H33.4959V50.9904H30.9177V46.0474ZM55.5857 46.0474H58.1638V50.9904H55.5857V46.0474ZM27.4021 46.0474H29.9607V50.9904H27.4021V46.0474ZM73.2029 46.0474H75.781V50.9904H73.2029V46.0474ZM76.738 46.0474H79.2966V50.9904H76.738V46.0474ZM23.8669 46.0474H26.4451V50.9904H23.8669V46.0474ZM62.6365 46.0474H65.2146V50.9904H62.6365V46.0474ZM59.1209 46.0474H61.6794V50.9904H59.1209V46.0474ZM41.5037 46.0474H44.0623V50.9904H41.5037V46.0474ZM48.5349 46.0474H51.113V50.9904H48.5349V46.0474ZM82.4216 50.9904H80.2537V46.0474H82.2459C82.5798 46.0474 82.8845 45.933 83.1248 45.743V48.6449L82.4216 50.9904ZM37.9685 46.0474H40.5466V50.9904H37.9685V46.0474ZM52.0701 46.0474H54.6287V50.9904H52.0701V46.0474ZM34.4529 46.0474H37.0115V50.9904H34.4529V46.0474ZM69.6873 46.0474H72.2459V50.9904H69.6873V46.0474ZM66.1716 46.0474H68.7302V50.9904H66.1716V46.0474ZM59.1209 0.00973892H61.6794V4.93335H59.1209V0.00973892ZM62.6365 0.00973892H65.2146V4.93335H62.6365V0.00973892ZM55.5857 0.00973892H58.1638V4.93335H55.5857V0.00973892ZM52.0701 0.00973892H54.6287V4.93335H52.0701V0.00973892ZM66.1716 0.00973892H68.7302V4.93335H66.1716V0.00973892ZM34.4529 0.00973892H37.0115V4.93335H34.4529V0.00973892ZM41.5037 0.00973892H44.0623V4.93335H41.5037V0.00973892ZM69.6873 0.00973892H72.2459V4.93335H69.6873V0.00973892ZM37.9685 0.00973892H40.5466V4.93335H37.9685V0.00973892ZM80.2537 4.93335V0.00973892H82.4216L83.1248 2.35524V5.23767C82.8845 5.04771 82.5798 4.93335 82.2459 4.93335H80.2537ZM30.9177 0.00973892H33.4959V4.93335H30.9177V0.00973892ZM27.4021 0.00973892H29.9607V4.93335H27.4021V0.00973892ZM76.738 0.00973892H79.2966V4.93335H76.738V0.00973892ZM20.0857 6.05763H20.0583V2.35524L20.7419 0.00973892H22.9099V4.93335H21.4646C20.7771 4.93335 20.2107 5.41407 20.0857 6.05763ZM73.2029 0.00973892H75.781V4.93335H73.2029V0.00973892ZM48.5349 0.00973892H51.113V4.93335H48.5349V0.00973892ZM23.8669 0.00973892H26.4451V4.93335H23.8669V0.00973892ZM45.0193 0.00973892H47.5779V4.93335H45.0193V0.00973892Z" fill="black"/>
<path d="M80.2537 50.9904V46.0474H79.2966V50.9904H80.2537ZM75.781 46.0474H76.738V50.9904H75.781V46.0474ZM72.2458 46.0474H73.2029V50.9904H72.2458V46.0474ZM68.7302 46.0474H69.6873V50.9904H68.7302V46.0474ZM65.2146 46.0474H66.1716V50.9904H65.2146V46.0474ZM61.6794 46.0474H62.6365V50.9904H61.6794V46.0474ZM58.1638 46.0474H59.1208V50.9904H58.1638V46.0474ZM54.6287 46.0474H55.5857V50.9904H54.6287V46.0474ZM51.113 46.0474H52.0701V50.9904H51.113V46.0474ZM47.5779 46.0474H48.5349V50.9904H47.5779V46.0474ZM44.0623 46.0474H45.0193V50.9904H44.0623V46.0474ZM40.5466 46.0474H41.5037V50.9904H40.5466V46.0474ZM37.0115 46.0474H37.9685V50.9904H37.0115V46.0474ZM33.4958 46.0474H34.4529V50.9904H33.4958V46.0474ZM29.9607 46.0474H30.9177V50.9904H29.9607V46.0474ZM26.4451 46.0474H27.4021V50.9904H26.4451V46.0474ZM22.9099 46.0474H23.8669V50.9904H22.9099V46.0474ZM79.2966 0.00974274V-0.00964355H80.2537V4.93335H79.2966V0.00974274ZM75.781 0.00974274V-0.00964355H76.738V4.93335H75.781V0.00974274ZM72.2458 0.00974274V-0.00964355H73.2029V4.93335H72.2458V0.00974274ZM68.7302 0.00974274V-0.00964355H69.6873V4.93335H68.7302V0.00974274ZM65.2146 0.00974274V-0.00964355H66.1716V4.93335H65.2146V0.00974274ZM61.6794 0.00974274V-0.00964355H62.6365V4.93335H61.6794V0.00974274ZM58.1638 0.00974274V-0.00964355H59.1208V4.93335H58.1638V0.00974274ZM54.6287 0.00974274V-0.00964355H55.5857V4.93335H54.6287V0.00974274ZM51.113 0.00974274V-0.00964355H52.0701V4.93335H51.113V0.00974274ZM47.5779 0.00974274V-0.00964355H48.5349V4.93335H47.5779V0.00974274ZM44.0623 0.00974274V-0.00964355H45.0193V4.93335H44.0623V0.00974274ZM40.5466 0.00974274V-0.00964355H41.5037V4.93335H40.5466V0.00974274ZM37.0115 0.00974274V-0.00964355H37.9685V4.93335H37.0115V0.00974274ZM33.4958 0.00974274V-0.00964355H34.4529V4.93335H33.4958V0.00974274ZM29.9607 0.00974274V-0.00964355H30.9177V4.93335H29.9607V0.00974274ZM26.4451 0.00974274V-0.00964355H27.4021V4.93335H26.4451V0.00974274ZM22.9099 0.00974274V-0.00964355H23.8669V4.93335H22.9099V0.00974274Z" fill="#222222"/>
<path d="M83.6521 44.6517V40.4647H78.7302V44.9231H20.0857C20.2126 45.5666 20.7771 46.0474 21.4646 46.0474H82.2458C82.5798 46.0474 82.8845 45.933 83.1248 45.743C83.447 45.4872 83.6521 45.0956 83.6521 44.6517ZM82.2458 14.2572H80.4099V6.05763H20.0857C20.2126 5.41407 20.7771 4.93334 21.4646 4.93334H82.2458C82.5798 4.93334 82.8845 5.04771 83.1248 5.23767C83.447 5.49355 83.6521 5.88511 83.6521 6.32901V12.8615C83.6521 13.6369 83.0271 14.2572 82.2458 14.2572Z" fill="#444444"/>
<path opacity="0.25" d="M89.9998 40.4647H77.9099V34.223H89.9998V40.4647Z" fill="black"/>
<path opacity="0.46" d="M80.4294 18.231H73.4177V6.05764H80.4294V18.231Z" fill="black"/>
<path d="M89.9998 40.4647H88.8083V34.223H89.9998V40.4647Z" fill="black"/>
<path opacity="0.5" d="M10.7224 34.0873C10.5662 34.0873 10.4294 34.223 10.4294 34.3781V43.4305C10.4294 43.5856 10.5662 43.7213 10.7224 43.7213H18.3787C18.5349 43.7213 18.6716 43.5856 18.6716 43.4305V34.3975C18.6716 34.2424 18.5349 34.1067 18.3787 34.1067H10.7224V34.0873Z" fill="#EEEEEE"/>
<path opacity="0.5" d="M18.3982 43.5468C18.4568 43.5468 18.5154 43.4887 18.5154 43.4305V34.3975C18.5154 34.3393 18.4568 34.2812 18.3982 34.2812H10.7419C10.6833 34.2812 10.6248 34.3393 10.6248 34.3975V43.4305C10.6248 43.4887 10.6833 43.5468 10.7419 43.5468H18.3982ZM18.3982 43.8958H10.7419C10.4685 43.8958 10.2537 43.6825 10.2537 43.4111V34.3781C10.2537 34.1067 10.4685 33.9129 10.7419 33.9129H18.3982C18.6716 33.9129 18.8669 34.1261 18.8669 34.3781V43.4305C18.8669 43.6825 18.6521 43.8958 18.3982 43.8958Z" fill="black"/>
<path opacity="0.5" d="M30.9373 6.81359C30.7615 6.81359 30.6443 6.94928 30.6443 7.10435V16.3894C30.6443 16.5639 30.781 16.6802 30.9373 16.6802H49.5896C49.7654 16.6802 49.8826 16.5445 49.8826 16.3894V7.10435C49.8826 6.92989 49.7458 6.81359 49.5896 6.81359H30.9373Z" fill="#EEEEEE"/>
<path opacity="0.5" d="M49.5896 16.5058C49.6482 16.5058 49.7068 16.4477 49.7068 16.3895V7.10448C49.7068 7.04632 49.6482 6.98817 49.5896 6.98817H30.9373C30.8787 6.98817 30.8201 7.04632 30.8201 7.10448V16.3895C30.8201 16.4477 30.8787 16.5058 30.9373 16.5058H49.5896ZM49.5896 16.8741H30.9373C30.6638 16.8741 30.4685 16.6609 30.4685 16.4089V7.12386C30.4685 6.85248 30.6833 6.65864 30.9373 6.65864H49.5896C49.863 6.65864 50.0779 6.87187 50.0779 7.12386V16.3895C50.0779 16.6609 49.863 16.8741 49.5896 16.8741Z" fill="black"/>
<path opacity="0.5" d="M10.7615 6.81359C10.6052 6.81359 10.4685 6.94928 10.4685 7.10435V16.3894C10.4685 16.5639 10.6052 16.6802 10.7615 16.6802H29.4138C29.5896 16.6802 29.7068 16.5445 29.7068 16.3894V7.10435C29.7068 6.92989 29.5701 6.81359 29.4138 6.81359H10.7615Z" fill="#EEEEEE"/>
<path opacity="0.5" d="M29.4138 16.5058C29.4724 16.5058 29.531 16.4477 29.531 16.3895V7.10448C29.531 7.04632 29.4724 6.98817 29.4138 6.98817H10.7615C10.7029 6.98817 10.6443 7.04632 10.6443 7.10448V16.3895C10.6443 16.4477 10.7029 16.5058 10.7615 16.5058H29.4138ZM29.4138 16.8741H10.7615C10.488 16.8741 10.2732 16.6609 10.2732 16.4089V7.12386C10.2732 6.85248 10.488 6.65864 10.7615 6.65864H29.4138C29.6873 6.65864 29.8826 6.87187 29.8826 7.12386V16.3895C29.9021 16.6609 29.6677 16.8741 29.4138 16.8741Z" fill="black"/>
<path d="M22.4998 44.2058H21.3083V43.0234H22.4998V44.2058Z" fill="#777777"/>
<path opacity="0.5" d="M14.4724 39.0884C13.9646 39.0884 13.5544 39.4955 13.5544 39.9995C13.5544 40.5035 13.9646 40.9105 14.4724 40.9105C14.9802 40.9105 15.3904 40.5035 15.3904 39.9995C15.3904 39.4955 14.9802 39.0884 14.4724 39.0884Z" fill="#EEEEEE"/>
<path opacity="0.5" d="M14.4724 40.736C14.8826 40.736 15.2146 40.4065 15.2146 39.9994C15.2146 39.5924 14.8826 39.2628 14.4724 39.2628C14.0623 39.2628 13.7302 39.5924 13.7302 39.9994C13.7302 40.4065 14.0623 40.736 14.4724 40.736ZM14.4724 41.085C13.8669 41.085 13.3787 40.6004 13.3787 39.9994C13.3787 39.3985 13.8669 38.9139 14.4724 38.9139C15.0779 38.9139 15.5662 39.3985 15.5662 39.9994C15.5662 40.6004 15.0779 41.085 14.4724 41.085Z" fill="black"/>
<path opacity="0.5" d="M71.0349 25.0154H40.0583V18.289H71.0349V25.0154Z" fill="#666666"/>
<path opacity="0.5" d="M70.8591 24.8409V18.4829H40.2341V24.8409H70.8591ZM71.2107 25.1898H39.8826V18.1146H71.2107V25.1898Z" fill="black"/>
<path opacity="0.5" d="M71.0349 32.6722H40.0583V25.9459H71.0349V32.6722Z" fill="#666666"/>
<path opacity="0.5" d="M70.8591 32.4978V26.1397H40.2341V32.4978H70.8591ZM71.2107 32.8467H39.8826V25.7714H71.2107V32.8467Z" fill="black"/>
<path opacity="0.5" d="M78.1638 43.7213H72.7341V34.0873H78.1638V43.7213Z" fill="#EEEEEE"/>
<path opacity="0.5" d="M77.9685 43.5468V34.2812H72.9099V43.5468H77.9685ZM78.3396 43.8958H72.5583V33.9129H78.3396V43.8958Z" fill="black"/>
<path opacity="0.5" d="M66.2302 34.0873C66.0544 34.0873 65.9373 34.223 65.9373 34.3781V43.4305C65.9373 43.5856 66.074 43.7213 66.2302 43.7213H71.3279C71.5037 43.7213 71.6209 43.5856 71.6209 43.4305V34.3975C71.6209 34.2424 71.4841 34.1067 71.3279 34.1067H66.2302V34.0873Z" fill="#EEEEEE"/>
<path opacity="0.5" d="M71.3279 43.5468C71.3865 43.5468 71.4451 43.4887 71.4451 43.4305V34.3975C71.4451 34.3393 71.3865 34.2812 71.3279 34.2812H66.2302C66.1716 34.2812 66.113 34.3393 66.113 34.3975V43.4305C66.113 43.4887 66.1716 43.5468 66.2302 43.5468H71.3279ZM71.3279 43.8958H66.2302C65.9568 43.8958 65.7419 43.6825 65.7419 43.4111V34.3781C65.7419 34.1067 65.9568 33.9129 66.2302 33.9129H71.3279C71.6013 33.9129 71.8162 34.1261 71.8162 34.3781V43.4305C71.8162 43.6825 71.6013 43.8958 71.3279 43.8958Z" fill="black"/>
<path d="M76.9919 43.2367H76.6013V34.5913H76.9919V43.2367Z" fill="#888888"/>
<path d="M76.0154 32.0713V35.3666L74.3748 38.3324H72.1677V32.0713H76.0154Z" fill="#888888"/>
<path d="M73.7693 36.491C73.4763 36.491 73.2419 36.7236 73.2419 37.0143C73.2419 37.3051 73.4763 37.5377 73.7693 37.5377C74.0623 37.5377 74.2966 37.3051 74.2966 37.0143C74.2966 36.7236 74.0623 36.491 73.7693 36.491Z" fill="#DDDDDD"/>
<path d="M73.7693 37.3437C73.9646 37.3437 74.1013 37.1887 74.1013 37.0142C74.1013 36.8397 73.9451 36.6847 73.7693 36.6847C73.5935 36.6847 73.4373 36.8397 73.4373 37.0142C73.4373 37.1887 73.5935 37.3437 73.7693 37.3437ZM73.7693 37.712C73.3787 37.712 73.0662 37.4019 73.0662 37.0142C73.0662 36.6265 73.3787 36.3164 73.7693 36.3164C74.1599 36.3164 74.4724 36.6265 74.4724 37.0142C74.4724 37.4019 74.1599 37.712 73.7693 37.712Z" fill="#555555"/>
<path d="M43.1638 15.9823H36.5818V11.175H43.1638V15.9823Z" fill="#DDDDDD"/>
<path d="M72.3435 30.9276H75.6248V28.9891H77.0896V32.4008H70.6052V28.9891H72.3435V30.9276Z" fill="#666666"/>
<path opacity="0.5" d="M74.5701 7.20137C74.3943 7.20137 74.2771 7.33706 74.2771 7.49214V13.7145C74.2771 13.8889 74.4138 14.0052 74.5701 14.0052H75.7419C75.9177 14.0052 76.0349 13.8696 76.0349 13.7145V7.49214C76.0349 7.31768 75.8982 7.20137 75.7419 7.20137H74.5701Z" fill="#EEEEEE"/>
<path opacity="0.5" d="M75.7419 13.8306C75.8005 13.8306 75.8591 13.7725 75.8591 13.7143V7.49199C75.8591 7.43384 75.8005 7.37569 75.7419 7.37569H74.5701C74.5115 7.37569 74.4529 7.43384 74.4529 7.49199V13.7143C74.4529 13.7725 74.5115 13.8306 74.5701 13.8306H75.7419ZM75.7419 14.1796H74.5701C74.2966 14.1796 74.0818 13.9663 74.0818 13.7143V7.49199C74.0818 7.22061 74.2966 7.02677 74.5701 7.02677H75.7419C76.0154 7.02677 76.2302 7.24 76.2302 7.49199V13.7143C76.2302 13.9663 76.0154 14.1796 75.7419 14.1796Z" fill="black"/>
<path d="M71.0349 17.6494H70.3318H69.3162H67.7185H65.2165H64.2966H61.3591H60.4099H56.8591H55.2341H50.5076V6.85238H55.2341H56.8591H60.4099H61.3591H64.2966H65.2165H67.7185H69.3162H70.3318H71.0349H73.1248V17.6494H71.0349Z" fill="#CCCCCC"/>
<path d="M69.2966 17.6494H68.1248V6.85238H69.2966V17.6494Z" fill="#BBBBBB"/>
<path d="M72.6951 6.85242H54.3748V6.42596H72.6951V6.85242Z" fill="#DDDDDD"/>
<path d="M68.9255 30.6951H42.2068V20.2857H68.9255V30.6951Z" fill="#424242"/>
<path d="M6.62085 41.589C6.11304 41.589 5.70288 41.9961 5.70288 42.5001C5.70288 43.0041 6.11304 43.4111 6.62085 43.4111C7.12866 43.4111 7.53882 43.0041 7.53882 42.5001C7.53882 41.9961 7.12866 41.589 6.62085 41.589Z" fill="#DDDDDD"/>
<path d="M6.62085 43.2367C7.03101 43.2367 7.36304 42.9071 7.36304 42.5001C7.36304 42.093 7.03101 41.7635 6.62085 41.7635C6.21069 41.7635 5.87866 42.093 5.87866 42.5001C5.87866 42.9071 6.21069 43.2367 6.62085 43.2367ZM6.62085 43.5856C6.01538 43.5856 5.5271 43.101 5.5271 42.5001C5.5271 41.8991 6.01538 41.4145 6.62085 41.4145C7.22632 41.4145 7.7146 41.8991 7.7146 42.5001C7.7146 43.101 7.22632 43.5856 6.62085 43.5856Z" fill="#555555"/>
<path d="M6.62085 7.5696C6.11304 7.5696 5.70288 7.97667 5.70288 8.48066C5.70288 8.98465 6.11304 9.39172 6.62085 9.39172C7.12866 9.39172 7.53882 8.98465 7.53882 8.48066C7.53882 7.97667 7.12866 7.5696 6.62085 7.5696Z" fill="#DDDDDD"/>
<path d="M6.62085 9.23665C7.03101 9.23665 7.36304 8.90712 7.36304 8.50005C7.36304 8.09298 7.03101 7.76345 6.62085 7.76345C6.21069 7.76345 5.87866 8.09298 5.87866 8.50005C5.87866 8.90712 6.21069 9.23665 6.62085 9.23665ZM6.62085 9.58557C6.01538 9.58557 5.5271 9.10096 5.5271 8.50005C5.5271 7.89914 6.01538 7.41453 6.62085 7.41453C7.22632 7.41453 7.7146 7.89914 7.7146 8.50005C7.7146 9.10096 7.22632 9.58557 6.62085 9.58557Z" fill="#555555"/>
<path d="M2.46069 30.9663C2.88138 30.9663 3.22241 31.3048 3.22241 31.7223C3.22241 32.1398 2.88138 32.4783 2.46069 32.4783C2.04001 32.4783 1.69897 32.1398 1.69897 31.7223C1.69897 31.3048 2.04001 30.9663 2.46069 30.9663Z" fill="#111111"/>
<path d="M2.46069 36.1227C2.88138 36.1227 3.22241 36.4611 3.22241 36.8787C3.22241 37.2962 2.88138 37.6346 2.46069 37.6346C2.04001 37.6346 1.69897 37.2962 1.69897 36.8787C1.69897 36.4611 2.04001 36.1227 2.46069 36.1227Z" fill="#111111"/>
<path d="M1.36148 42.995L0.463379 40.0446L1.26734 39.8035L2.16543 42.7539L1.36148 42.995Z" fill="#111111"/>
<path d="M2.46069 18.5217C2.88138 18.5217 3.22241 18.8602 3.22241 19.2777C3.22241 19.6952 2.88138 20.0337 2.46069 20.0337C2.04001 20.0337 1.69897 19.6952 1.69897 19.2777C1.69897 18.8602 2.04001 18.5217 2.46069 18.5217Z" fill="#111111"/>
<path d="M2.46069 13.3655C2.88138 13.3655 3.22241 13.7039 3.22241 14.1215C3.22241 14.539 2.88138 14.8774 2.46069 14.8774C2.04001 14.8774 1.69897 14.539 1.69897 14.1215C1.69897 13.7039 2.04001 13.3655 2.46069 13.3655Z" fill="#111111"/>
<path d="M1.27417 11.1692L0.470215 10.9281L1.36831 7.9777L2.17227 8.21876L1.27417 11.1692Z" fill="#111111"/>
<path d="M7.7146 11.0007V9.89576H7.12866V13.3655C7.54858 13.3655 7.89038 13.7048 7.89038 14.1215C7.89038 14.5383 7.54858 14.8775 7.12866 14.8775V36.1227C7.54858 36.1227 7.89038 36.4619 7.89038 36.8787C7.89038 37.2954 7.54858 37.6346 7.12866 37.6346V41.085H7.73413V39.9801C8.71069 40.4066 9.39429 41.3758 9.39429 42.5001C9.37476 44.0121 8.14429 45.2333 6.62085 45.2333C5.09741 45.2333 3.86694 44.0121 3.86694 42.5001C3.86694 41.3758 4.55054 40.4066 5.5271 39.9801V41.085H6.32788V9.89576H5.5271V11.0007C4.55054 10.5742 3.86694 9.605 3.86694 8.48071C3.86694 6.96874 5.09741 5.74753 6.62085 5.74753C8.14429 5.74753 9.37476 6.98812 9.37476 8.5001C9.37476 9.62439 8.69116 10.5936 7.7146 11.0007ZM5.5271 41.434H5.42163C5.42749 41.4592 5.42944 41.4844 5.42944 41.5115C5.42944 41.7247 5.25366 41.8992 5.03882 41.8992C4.82397 41.8992 4.64819 41.7247 4.64819 41.5115C4.64819 41.2983 4.82397 41.1238 5.03882 41.1238C5.08765 41.1238 5.13257 41.1335 5.17554 41.149V40.6004C4.5896 41.0463 4.23804 41.7441 4.23804 42.5001C4.21851 43.7988 5.29272 44.8844 6.62085 44.8844C7.94898 44.8844 9.02319 43.8182 9.02319 42.5001C9.02319 41.7441 8.67163 41.0463 8.08569 40.6004V41.1374C8.11694 41.1296 8.15015 41.1238 8.18335 41.1238C8.39819 41.1238 8.57398 41.2983 8.57398 41.5115C8.57398 41.7247 8.39819 41.8992 8.18335 41.8992C7.96851 41.8992 7.79273 41.7247 7.79273 41.5115C7.79273 41.4844 7.79468 41.4592 7.80054 41.434H5.5271ZM6.62085 6.09645C5.29272 6.09645 4.21851 7.16258 4.21851 8.48071C4.21851 9.2367 4.57007 9.93453 5.15601 10.3804V9.83761C5.1189 9.84924 5.07983 9.85699 5.03882 9.85699C4.82397 9.85699 4.64819 9.68254 4.64819 9.46931C4.64819 9.25608 4.82397 9.08163 5.03882 9.08163C5.25366 9.08163 5.42944 9.25608 5.42944 9.46931C5.42944 9.49645 5.42749 9.52165 5.42163 9.54684H7.80054C7.79468 9.52165 7.79273 9.49645 7.79273 9.46931C7.79273 9.25608 7.96851 9.08163 8.18335 9.08163C8.39819 9.08163 8.57398 9.25608 8.57398 9.46931C8.57398 9.68254 8.39819 9.85699 8.18335 9.85699C8.14233 9.85699 8.10327 9.84924 8.06616 9.83761V10.3804H8.08569C8.67163 9.93453 9.02319 9.2367 9.02319 8.48071C9.02319 7.16258 7.94898 6.09645 6.62085 6.09645Z" fill="#111111"/>
<path d="M14.7263 43.7988H14.4333V42.849H14.7263V43.7988Z" fill="#111111"/>
<path d="M14.7263 34.9984H14.4333V34.0486H14.7263V34.9984Z" fill="#111111"/>
<path d="M32.5583 7.95728H32.0896V6.83299H32.5583V7.95728Z" fill="#111111"/>
<path d="M28.5349 7.95722C28.5349 8.24604 28.2986 8.48059 28.0076 8.48059C27.7166 8.48059 27.4802 8.24604 27.4802 7.95722C27.4802 7.74399 27.6091 7.56178 27.7927 7.48037V6.83293H28.2615V7.50169C28.4236 7.59086 28.5349 7.76144 28.5349 7.95722Z" fill="#111111"/>
<path d="M18.7498 40.4647H17.7927V40.174H18.7498V40.4647Z" fill="#111111"/>
<path d="M11.3083 40.4647H10.3513V40.174H11.3083V40.4647Z" fill="#111111"/>
<path d="M23.6521 38.0804H20.8005C19.9412 38.0804 19.2576 38.7589 19.2576 39.6118V41.085C19.2576 41.9379 19.9412 42.6163 20.8005 42.6163H23.6521" stroke="#333333" stroke-width="1.78646" stroke-miterlimit="10"/>
<path d="M23.4177 38.7976H20.7029V40.9105H23.4177" stroke="#333333" stroke-width="1.78646" stroke-miterlimit="10"/>
<path d="M39.199 37.8866V37.5958C39.199 37.3051 38.9646 37.0725 38.6716 37.0725H21.9919C21.699 37.0725 21.4646 37.3051 21.4646 37.5958V37.8866" stroke="#333333" stroke-width="1.78646" stroke-miterlimit="10"/>
<path d="M26.0349 37.8866V37.0918" stroke="#333333" stroke-width="1.78646" stroke-miterlimit="10"/>
<path d="M30.4685 37.8866V37.0918" stroke="#333333" stroke-width="1.78646" stroke-miterlimit="10"/>
<path d="M34.9021 37.8866V37.0918" stroke="#333333" stroke-width="1.78646" stroke-miterlimit="10"/>
<path d="M40.1755 44.264H22.8708V37.6734H40.1755V44.264Z" fill="black"/>
<path d="M39.6677 44.012H38.3591V37.8865H39.6677V44.012Z" fill="#222222"/>
<path d="M63.4177 44.3221H44.1013V33.5057H63.4177V44.3221Z" fill="black"/>
<path d="M55.488 40.93C54.9802 40.93 54.5701 41.337 54.5701 41.841C54.5701 42.345 54.9802 42.7521 55.488 42.7521C55.9959 42.7521 56.406 42.345 56.406 41.841C56.406 41.337 55.9959 40.93 55.488 40.93Z" fill="#FED100"/>
<path d="M55.488 42.5776C55.8982 42.5776 56.2302 42.2481 56.2302 41.841C56.2302 41.4339 55.8982 41.1044 55.488 41.1044C55.0779 41.1044 54.7458 41.4339 54.7458 41.841C54.7458 42.2481 55.0779 42.5776 55.488 42.5776ZM55.488 42.9265C54.8826 42.9265 54.3943 42.4419 54.3943 41.841C54.3943 41.2401 54.8826 40.7555 55.488 40.7555C56.0935 40.7555 56.5818 41.2401 56.5818 41.841C56.5818 42.4419 56.0935 42.9265 55.488 42.9265Z" fill="#555555"/>
<path d="M63.4373 44.3221H60.6248V33.5057H63.4373V44.3221Z" fill="#666666"/>
<path d="M60.2341 44.012H57.6169V33.7965H60.2341V44.012Z" fill="#666666"/>
<path d="M44.1013 37.6733V44.3221H54.1013V38.0804" stroke="#111111" stroke-width="2.04167" stroke-miterlimit="10"/>
<path d="M42.3435 33.4475L41.5037 34.0291V37.4988L42.3435 38.0222H45.2146V33.4475H42.3435Z" fill="#333333"/>
<path d="M50.7615 41.24V38.6619C50.7615 38.061 50.2732 37.5764 49.6677 37.5764C49.0623 37.5764 48.574 38.061 48.574 38.6619V41.24" stroke="#333333" stroke-width="1.78646" stroke-miterlimit="10"/>
<path d="M47.8123 40.2515H42.4021C41.8748 40.2515 41.4451 40.6779 41.4451 41.2013C41.4451 41.7247 41.8748 42.1511 42.4021 42.1511H47.8123" stroke="#333333" stroke-width="1.78646" stroke-miterlimit="10"/>
<path d="M47.2458 38.9139V43.5468H53.2029L53.7693 42.9265V39.5342L53.2029 38.9139H47.2458Z" fill="#878787"/>
<path d="M50.7555 40.3907C51.189 41.4293 50.6921 42.6199 49.6457 43.0501C48.5993 43.4802 47.3996 42.9871 46.9662 41.9485C46.5328 40.91 47.0297 39.7194 48.0761 39.2892C49.1225 38.8591 50.3221 39.3522 50.7555 40.3907Z" fill="#AAAAAA"/>
<path d="M52.5388 43.5468H51.2302V38.8945H52.5388V43.5468Z" fill="#222222"/>
<path d="M73.0662 16.6996H50.5076V15.9048H73.0662V16.6996Z" fill="#333333"/>
<path d="M73.0662 15.3428H50.5076V14.548H73.0662V15.3428Z" fill="#333333"/>
<path d="M73.0662 13.9858H50.5076V13.1911H73.0662V13.9858Z" fill="#333333"/>
<path d="M73.0662 12.6482H50.5076V11.8534H73.0662V12.6482Z" fill="#333333"/>
<path d="M73.0662 11.2914H50.5076V10.4966H73.0662V11.2914Z" fill="#333333"/>
<path d="M73.0662 9.93445H50.5076V9.1397H73.0662V9.93445Z" fill="#333333"/>
<path d="M73.0662 8.59692H50.5076V7.80217H73.0662V8.59692Z" fill="#333333"/>
<path d="M72.7732 17.2811V7.2013H50.8787V17.2811H72.7732ZM73.1248 17.6494H50.5076V6.85238H73.1248V17.6494Z" fill="black"/>
<path d="M69.3162 17.6494V6.85238" stroke="black" stroke-width="1.53125" stroke-miterlimit="10"/>
<path d="M64.2966 17.6494V6.85238" stroke="black" stroke-width="1.53125" stroke-miterlimit="10"/>
<path d="M59.9021 17.6494V6.85238" stroke="black" stroke-width="1.53125" stroke-miterlimit="10"/>
<path d="M73.2615 6.4259H54.7263L53.7693 6.11575V3.55703H54.3748H54.7263H56.8357H57.4021H58.4568H59.0232H60.0779H60.6443H61.6794H62.2459H63.3005H63.8669H64.9216H65.488H66.5427H67.1091H68.1443H68.7107H69.7654H70.3318H71.3865H71.9529H72.3435H72.6951H72.8513H73.4177H74.0818V6.11575L73.2615 6.4259Z" fill="#333333"/>
<path d="M69.3943 43.7988H68.4373V43.3142H69.3943V43.7988Z" fill="#111111"/>
<path d="M66.8748 40.6392H65.9177V40.1546H66.8748V40.6392Z" fill="#111111"/>
<path d="M71.5623 40.6392H70.6052V40.1546H71.5623V40.6392Z" fill="#111111"/>
<path d="M77.7341 40.0964H74.3748V39.7475H77.7341V40.0964Z" fill="#222222"/>
<path d="M77.7341 39.5731H74.3748V39.2242H77.7341V39.5731Z" fill="#222222"/>
<path d="M78.1443 42.1898H76.2888V41.7634H78.1443V42.1898Z" fill="#222222"/>
<path d="M78.1443 41.5309H76.2888V41.0463H78.1443V41.5309Z" fill="#222222"/>
<path d="M76.0935 10.865H75.6833V10.3998H76.0935V10.865Z" fill="#222222"/>
<path d="M74.7263 10.865H74.3162V10.3998H74.7263V10.865Z" fill="#222222"/>
<path d="M99.9998 36.5491H89.5701V36.1032H99.9998V36.5491Z" fill="#333333"/>
<path d="M77.7146 38.5845H75.4685V37.9448H77.7146V38.5845Z" fill="#333333"/>
<path d="M77.7146 36.995H74.7458V36.1033H77.7146V36.995Z" fill="#333333"/>
<path d="M78.8669 38.817H76.4646V37.6927H78.8669V38.817Z" fill="#222222"/>
<path d="M78.8669 37.2275H76.4646V35.8706H78.8669V37.2275Z" fill="#222222"/>
<path d="M71.1912 32.8467H68.906V18.1146H71.1912V32.8467Z" fill="#222222"/>
<path d="M98.7693 37.1307H67.3044" stroke="black" stroke-width="1.78646" stroke-miterlimit="10"/>
<path d="M98.7693 37.712H67.3044" stroke="black" stroke-width="1.02083" stroke-miterlimit="10"/>
<path d="M97.949 36.3358V37.906C97.949 38.158 98.1443 38.3518 98.3982 38.3518H99.1404C99.3943 38.3518 99.5896 38.158 99.5896 37.906V36.3358H97.949Z" fill="#222222"/>
</g>
<defs>
<clipPath id="clip0_6561_3820">
<rect width="100" height="51" fill="white" transform="matrix(1 0 0 -1 0 51)"/>
</clipPath>
</defs>
</svg>
