<svg width="100" height="44" viewBox="0 0 100 44" fill="none" xmlns="http://www.w3.org/2000/svg">
<g clip-path="url(#clip0_6561_2930)">
<path d="M0.351627 7.48287C0.351627 7.46323 0.371162 7.42396 0.371162 7.36505C0.410233 7.20796 0.527443 6.91342 0.722794 6.67779C0.996284 6.26543 1.58234 5.42108 1.75815 5.22472C1.99257 4.96945 2.07071 4.98909 2.3442 4.98909C2.61769 4.98909 2.94979 4.85163 3.18421 4.87127C3.32096 4.8909 3.86794 5.00872 4.25864 5.1069C4.41492 5.1069 6.8568 5.00872 8.16565 4.87127C8.59542 4.832 9.39636 4.75345 10.3145 4.67491C10.7052 4.28218 11.3303 4.04655 11.9945 4.04655H22.7193C23.1295 4.04655 23.5007 4.1251 23.8328 4.28218H25.2588C26.47 4.28218 29.2049 4.47855 30.0059 4.51782C30.6505 4.53746 31.9008 4.59636 32.4673 4.616C32.604 4.616 32.7212 4.63564 32.7408 4.63564C32.8384 4.65527 33.0338 4.91054 33.2096 5.12654V4.87127C33.2291 4.75345 33.3073 4.69455 33.3659 4.65527C33.405 4.45891 33.5026 4.40001 34.0301 4.40001H35.925C36.1985 4.30182 36.511 4.22328 36.8822 4.20364C37.9371 4.1251 39.1483 4.16437 39.4999 4.32146C39.5585 4.34109 39.5976 4.38037 39.6562 4.40001H56.847C57.1205 4.30182 57.4331 4.22328 57.8042 4.20364C58.8591 4.1251 60.0703 4.16437 60.4219 4.32146C60.4806 4.34109 60.5196 4.38037 60.5782 4.40001H70.2286C70.1309 4.30182 70.0137 4.16437 69.9355 3.94837C69.7792 3.53601 68.9783 0.963688 68.8611 0.610237C68.7439 0.256786 68.8611 0.138973 68.8611 0.138973C68.8611 0.138973 70.0332 -0.0573921 70.5216 0.49242C71.01 1.04223 71.5765 1.67059 72.0648 2.75057C72.1625 2.9862 72.2602 3.22184 72.3579 3.4182C72.5532 3.71274 72.7486 4.04655 72.9049 4.38037H74.4481C74.8193 4.14473 75.2881 4.00728 75.796 4.00728H86.5208C87.0482 4.00728 87.5171 4.14473 87.9078 4.40001C89.9785 4.40001 92.8697 4.59636 93.9637 5.02836C94.3739 4.94981 94.8818 4.93018 95.253 5.08727C95.9562 5.42108 96.2102 5.65671 96.7962 6.40289C97.3823 7.14906 98.9451 9.15194 98.9451 9.15194C98.9451 9.15194 99.3163 10.2516 99.2381 10.7817C99.3944 11.2726 99.5507 12.0974 99.6484 13.4522C99.8633 16.2013 100 20.5409 100 21.9939V22.0136V22.0332C100 23.4863 99.8437 27.8259 99.6484 30.5749C99.5507 31.9298 99.3749 32.7545 99.2381 33.2454C99.3163 33.7756 98.9451 34.8752 98.9451 34.8752C98.9451 34.8752 97.3823 36.8781 96.7962 37.6243C96.2102 38.3704 95.9562 38.6061 95.253 38.9399C94.9209 39.097 94.4325 39.0773 94.0223 39.0184C92.9674 39.4504 89.9785 39.6664 87.8687 39.6664C87.4976 39.8824 87.0482 40.0199 86.5403 40.0199H75.8156C75.3077 40.0199 74.8388 39.8824 74.4677 39.6468H72.9439C72.7876 39.9806 72.5923 40.3341 72.3774 40.6482C72.2993 40.8446 72.2016 41.0802 72.0844 41.3159C71.596 42.3958 71.0295 43.0242 70.5411 43.574C70.0527 44.1238 68.8806 43.9275 68.8806 43.9275C68.8806 43.9275 68.7634 43.8096 68.8806 43.4562C68.9978 43.1027 69.7988 40.5304 69.9551 40.1181C70.0332 39.9021 70.17 39.745 70.2676 39.6468H60.6368C60.5782 39.6861 60.5196 39.7253 60.4415 39.7646C60.0899 39.9217 58.8787 39.9806 57.8238 39.8824C57.4136 39.8432 57.0619 39.745 56.7689 39.6468H39.7148C39.6562 39.6861 39.5976 39.7253 39.5194 39.7646C39.1678 39.9217 37.9566 39.9806 36.9017 39.8824C36.4915 39.8432 36.1399 39.745 35.8468 39.6468H34.0496C33.5222 39.6468 33.405 39.5879 33.3854 39.3915C33.3268 39.3719 33.2291 39.2933 33.2291 39.1755V38.9203C33.0533 39.1363 32.858 39.3915 32.7603 39.4112C32.7212 39.4112 32.5454 39.4308 32.3305 39.4308C31.7249 39.4504 30.6114 39.5093 30.0254 39.529C29.2245 39.5682 26.4895 39.7646 25.2784 39.7646H23.8523C23.5202 39.9217 23.149 40.0002 22.7388 40.0002H11.9945C11.3108 40.0002 10.7052 39.745 10.3145 39.3719C9.37683 39.2933 8.59542 39.2148 8.16565 39.1755C6.83727 39.0381 4.39539 38.9399 4.25864 38.9399C3.86794 39.0381 3.32096 39.1755 3.18421 39.1755C2.94979 39.1952 2.63723 39.0577 2.3442 39.0577C2.07071 39.0577 1.97304 39.0773 1.75815 38.8221C1.58234 38.6257 0.996284 37.7814 0.722794 37.369C0.527443 37.153 0.429768 36.8585 0.390697 36.6817C0.371162 36.6228 0.371162 36.5836 0.371162 36.5639V36.3283C0.371162 36.3283 0.0195312 28.0615 0.0195312 22.9757V21.0514C0.0195312 15.9657 0.371162 7.69887 0.371162 7.69887V7.58105C0.351627 7.60069 0.351627 7.50251 0.351627 7.48287Z" fill="black"/>
<path d="M34.4403 10.6834L33.8543 10.8012V32.99L34.4403 33.1078C34.4403 33.1078 60.9494 33.2256 62.3559 33.2256C63.7624 33.2256 66.2825 33.8147 66.2825 33.8147C66.2825 33.8147 67.2983 29.9464 67.3569 21.8956C67.2788 13.8448 66.2825 9.97651 66.2825 9.97651C66.2825 9.97651 63.7624 10.5656 62.3559 10.5656C60.9494 10.5656 34.4403 10.6834 34.4403 10.6834ZM1.88709 8.89653V36.23H0.294979V36.2103C0.294979 36.2103 0 27.9435 0 22.8578V20.9335C0 15.8477 0.294979 7.58091 0.294979 7.58091H1.88709V8.89653ZM35.8664 35.366C36.1008 35.15 36.3743 35.0125 36.7064 35.0125C37.0189 35.0125 54.1707 34.8947 54.1707 34.8947C54.1707 34.8947 54.1707 35.9943 54.2879 36.5638C54.4052 37.1332 55.3624 39.5485 55.3624 39.5485L34.8115 39.3128V37.7616C34.8115 37.7616 34.7724 37.5063 35.1631 36.6816C35.5538 35.8569 35.6515 35.582 35.8664 35.366ZM54.1707 8.95543C54.1707 8.95543 37.0189 8.83762 36.7064 8.83762C36.3743 8.83762 36.1008 8.70017 35.8664 8.48417C35.6515 8.26817 35.5538 7.99327 35.1631 7.16855C34.7724 6.34383 34.8115 6.08856 34.8115 6.08856V4.53731L55.3624 4.30168C55.3624 4.30168 54.4052 6.71692 54.2879 7.28637C54.1707 7.85581 54.1707 8.95543 54.1707 8.95543ZM99.1346 11.1939H99.1991L98.359 9.05362L96.4641 6.18674L95.2725 5.22458L94.4325 4.98895L94.2176 5.03214C94.2039 5.02429 94.1942 5.01643 94.1785 5.00858C93.2799 4.51768 89.8808 4.28204 87.6538 4.30168C85.755 4.31936 77.0033 4.39201 74.4598 4.4136L74.37 4.39986L55.4796 4.30168C55.4796 4.30168 54.9521 5.44057 54.6396 6.67765C54.327 7.91472 54.2879 8.9358 54.2879 8.9358C54.2879 8.9358 63.6452 8.91616 64.8564 8.81798C66.0676 8.7198 73.823 6.93291 74.6044 6.67765C75.3467 6.42238 75.8742 6.16711 75.9133 5.8333C75.9328 5.67228 75.9328 5.38756 75.9289 5.13622C75.9562 5.13818 75.9836 5.14014 76.0109 5.14211V5.85293C76.0109 6.24565 75.5421 6.52056 73.6277 7.05074C71.7132 7.58091 66.4388 8.85725 64.4852 8.95543C62.5317 9.05362 54.2684 9.07325 54.2684 9.07325H42.5083C42.5083 9.07325 37.1166 9.07325 36.5696 8.95543C36.0227 8.83762 35.6515 8.52344 35.378 7.99327C35.1045 7.46309 34.7138 6.50092 34.6747 5.85293C34.6357 5.20494 34.6747 4.53731 34.6747 4.53731H33.4831C33.4831 4.53731 33.2682 4.57658 33.2487 4.77295C33.2448 4.80633 33.2311 4.8672 33.2096 4.94378C33.0533 4.72975 32.8717 4.50786 32.7798 4.49804C32.604 4.4784 30.8459 4.41949 30.0449 4.38022C29.244 4.34095 26.5091 4.14459 25.2979 4.14459H16.1555C14.5536 4.14459 9.57218 4.59622 8.20473 4.73367C6.83727 4.87113 4.27818 4.96931 4.27818 4.96931L4.16097 5.32276C4.16097 5.32276 1.68002 5.97075 1.07443 6.28492C0.468842 6.5991 0.351631 7.40418 0.351631 7.36491C0.371166 7.32564 0.351631 7.48273 0.351631 7.50237H2.14886V7.38455C2.14886 7.24709 2.38328 7.26673 2.38328 7.26673H31.9594L32.4282 7.38455L32.5806 7.4356C32.5571 7.89116 32.5454 8.34671 32.5454 8.34671L33.8543 10.3692L34.4403 10.2514C34.4403 10.2514 56.8861 10.0354 59.7382 10.0158C62.5903 9.99615 63.6452 9.99615 67.689 9.17143C71.7327 8.36635 75.4835 7.44345 76.2453 7.26673C77.0072 7.09 77.3198 7.14891 77.3198 7.14891C77.3198 7.14891 77.5737 6.91328 78.023 6.91328C78.4919 6.89365 79.8203 7.12928 79.8203 7.12928C79.8203 7.12928 80.0156 6.97219 80.2891 6.77583C80.5626 6.57946 80.7579 6.46165 81.1291 6.42238C81.4807 6.38311 81.8324 6.42238 81.8324 6.42238H94.6669C94.6669 6.42238 94.5634 5.96682 93.5886 5.78224C93.7488 5.73708 93.8894 5.68799 94.0086 5.63694L95.7394 7.14695L96.3723 9.10271C96.3372 9.18518 96.388 9.37761 96.5462 9.74284C96.5462 9.74284 96.5462 9.74677 96.5462 9.74873C96.4915 9.70357 96.261 9.49739 96.0891 9.16947C95.8937 8.79638 94.663 6.53823 94.663 6.53823C94.663 6.53823 82.4145 6.47932 81.7113 6.53823C80.9885 6.5775 80.5587 6.81314 80.4024 6.89168C80.2461 6.97023 80.0508 7.24513 80.0508 7.24513C80.0508 7.24513 80.6564 8.12876 81.4768 10.4655C82.1996 12.488 82.5513 18.0843 82.6489 21.9133C82.5513 25.7423 82.1801 31.3386 81.4768 33.3611C80.6564 35.6978 80.0508 36.5815 80.0508 36.5815C80.0508 36.5815 80.2657 36.8367 80.4024 36.9153C80.5587 36.9938 80.9885 37.2098 81.7113 37.2687C82.4341 37.3276 94.663 37.2687 94.663 37.2687C94.663 37.2687 95.8937 35.0106 96.0891 34.6571C96.2844 34.3037 96.5579 34.068 96.5579 34.068C96.5579 34.068 96.5423 34.0818 96.5169 34.1053C96.3587 34.4686 96.3118 34.663 96.3626 34.7474L95.7374 36.6796L93.991 38.2034C93.864 38.1504 93.7136 38.0993 93.5436 38.0542C94.5595 37.8774 94.663 37.4062 94.663 37.4062H81.8285C81.8285 37.4062 81.4768 37.4454 81.1252 37.4062C80.754 37.3669 80.5587 37.2491 80.2852 37.0527C80.0117 36.8564 79.8164 36.6993 79.8164 36.6993C79.8164 36.6993 78.488 36.9349 78.0191 36.9153C77.5698 36.9153 77.3159 36.6796 77.3159 36.6796C77.3159 36.6796 77.0033 36.7385 76.2414 36.5618C75.4796 36.3851 71.7288 35.4622 67.6851 34.6571C63.6413 33.852 62.5864 33.8324 59.7343 33.8128C56.8822 33.7931 34.4364 33.5771 34.4364 33.5771L33.8504 33.4593L32.5415 35.4818C32.5415 35.4818 32.5532 35.9374 32.5767 36.393L32.4243 36.444L31.9555 36.5618H2.38328C2.38328 36.5618 2.14886 36.5815 2.14886 36.444V36.3262H0.351631C0.351631 36.3262 0.371166 36.5029 0.351631 36.4636C0.351631 36.4244 0.468842 37.2294 1.07443 37.5436C1.68002 37.8578 4.16097 38.5058 4.16097 38.5058L4.27818 38.8592C4.27818 38.8592 6.83727 38.9574 8.20473 39.0949C9.57218 39.2323 14.5536 39.684 16.1555 39.684H25.2979C26.5091 39.684 29.244 39.4876 30.0449 39.4483C30.8459 39.4091 32.604 39.3501 32.7798 39.3305C32.8697 39.3207 33.0514 39.0988 33.2096 38.8848C33.2311 38.9614 33.2467 39.0222 33.2487 39.0556C33.2682 39.252 33.4831 39.2912 33.4831 39.2912H34.6747C34.6747 39.2912 34.6357 38.6236 34.6747 37.9756C34.7138 37.3276 35.1045 36.3655 35.378 35.8353C35.6515 35.3051 36.0227 34.9909 36.5696 34.8731C37.1166 34.7553 42.5083 34.7553 42.5083 34.7553H54.2684C54.2684 34.7553 62.5317 34.7749 64.4852 34.8731C66.4388 34.9713 71.7132 36.2476 73.6277 36.7778C75.5421 37.308 76.0109 37.5829 76.0109 37.9756V38.7061C75.9797 38.708 75.9504 38.71 75.9211 38.712C75.923 38.4606 75.9211 38.1759 75.9133 38.0129C75.8742 37.6791 75.3467 37.4238 74.6044 37.1686C73.823 36.9133 66.0676 35.1264 64.8564 35.0282C63.6452 34.9301 54.2879 34.9104 54.2879 34.9104C54.2879 34.9104 54.327 35.9315 54.6396 37.1686C54.9521 38.4057 55.4796 39.5445 55.4796 39.5445L74.37 39.4464L74.4598 39.4326C77.0033 39.4542 85.755 39.5269 87.6538 39.5445C89.8808 39.5642 93.2799 39.3285 94.1785 38.8376C94.202 38.8259 94.2215 38.8121 94.2411 38.8003L94.4325 38.8376L95.2725 38.602L96.4641 37.6398L98.359 34.773L99.1991 32.6326H99.1443C99.4491 31.0657 99.9043 24.8626 99.9219 21.9506C99.9043 18.9875 99.451 12.6215 99.1346 11.19V11.1939Z" fill="#BF1919"/>
<path d="M33.2486 4.76903C33.231 4.79652 33.2154 4.8299 33.2095 4.87113V4.93986C33.231 4.86524 33.2447 4.80437 33.2486 4.77295C33.2486 4.77295 33.2486 4.77099 33.2486 4.76903ZM16.1554 4.1446C15.083 4.1446 12.4926 4.34685 10.4903 4.52161C10.879 4.22118 11.4221 4.04642 11.9945 4.04642H22.7192C22.979 4.04642 23.2213 4.08176 23.4498 4.1446H16.1554ZM4.1609 5.32276C4.1609 5.32276 1.67995 5.97075 1.07436 6.28493C1.01771 6.31438 0.968871 6.34777 0.920033 6.38507C1.21501 5.95112 1.61743 5.38167 1.75809 5.22458C1.99251 4.96931 2.07065 4.98895 2.34414 4.98895C2.61763 4.98895 2.94973 4.85149 3.18415 4.87113C3.31894 4.89077 3.84639 5.00466 4.23513 5.10087L4.1609 5.32276ZM1.07436 37.5456C1.67995 37.8598 4.1609 38.5078 4.1609 38.5078L4.27811 38.8612C4.27811 38.8612 6.8372 38.9594 8.20466 39.0968C9.57211 39.2343 14.5536 39.6859 16.1554 39.6859H25.2978C26.509 39.6859 29.2439 39.4896 30.0449 39.4503C30.8458 39.411 32.604 39.3521 32.7798 39.3325C32.8696 39.3227 33.0513 39.1008 33.2095 38.8867C33.2134 38.9024 33.2174 38.9162 33.2213 38.9299C33.0474 39.144 32.8579 39.3914 32.7602 39.411C32.7212 39.411 32.5453 39.4307 32.3305 39.4307C31.7249 39.4503 30.6114 39.5092 30.0253 39.5288C29.2244 39.5681 26.4895 39.7645 25.2783 39.7645H23.8522C23.5201 39.9216 23.149 40.0001 22.7387 40.0001H11.9945C11.3107 40.0001 10.7051 39.7448 10.3144 39.3718C9.37676 39.2932 8.59536 39.2147 8.16559 39.1754C6.8372 39.0379 4.39532 38.9398 4.25858 38.9398C3.86787 39.0379 3.32089 39.1754 3.18415 39.1754C2.94973 39.195 2.63717 39.0576 2.34414 39.0576C2.07065 39.0576 1.97297 39.0772 1.75809 38.8219C1.58227 38.6256 0.99622 37.7812 0.722729 37.3689C0.527378 37.1529 0.429703 36.8583 0.390633 36.6816C0.371098 36.6227 0.371098 36.5834 0.371098 36.5638V36.5422C0.423842 36.7444 0.595751 37.2982 1.07436 37.5456ZM81.8323 37.4081H94.6669C94.6669 37.4081 94.5633 37.8774 93.5475 38.0561C93.7175 38.1033 93.8679 38.1523 93.9949 38.2054L95.7413 36.6816L96.3664 34.7494C96.3156 34.6669 96.3625 34.4706 96.5207 34.1073C96.5461 34.0838 96.5618 34.07 96.5618 34.07C96.5618 34.07 96.2883 34.3056 96.0929 34.6591C95.8976 35.0125 94.6669 37.2707 94.6669 37.2707C94.6669 37.2707 82.4379 37.3296 81.7151 37.2707C80.9923 37.2118 80.5625 36.9958 80.4063 36.9172C80.2695 36.8387 80.0546 36.5834 80.0546 36.5834C80.0546 36.5834 80.6602 35.6998 81.4807 33.3631C82.184 31.3406 82.5551 25.7443 82.6528 21.9153C82.5551 18.0862 82.2035 12.4899 81.4807 10.4674C80.6602 8.13072 80.0546 7.2471 80.0546 7.2471C80.0546 7.2471 80.25 6.97219 80.4063 6.89365C80.5625 6.81511 80.9923 6.57947 81.7151 6.5402C82.4184 6.48129 94.6669 6.5402 94.6669 6.5402C94.6669 6.5402 95.8976 8.79835 96.0929 9.17144C96.2648 9.49936 96.4953 9.70554 96.55 9.7507C96.55 9.7507 96.55 9.74678 96.55 9.74481C96.3918 9.37958 96.341 9.18715 96.3762 9.10467L95.7432 7.14892L94.0124 5.6389C93.8933 5.68996 93.7526 5.73905 93.5924 5.78421C94.5672 5.96683 94.6708 6.42435 94.6708 6.42435H81.8362C81.8362 6.42435 81.4846 6.38507 81.133 6.42435C80.7618 6.46362 80.5664 6.58144 80.293 6.7778C80.0195 6.97416 79.8241 7.13125 79.8241 7.13125C79.8241 7.13125 78.4957 6.89561 78.0269 6.91525C77.5776 6.91525 77.3236 7.15088 77.3236 7.15088C77.3236 7.15088 77.0111 7.09198 76.2492 7.2687C75.4873 7.44542 71.7366 8.36832 67.6928 9.1734C63.6491 9.99812 62.5942 9.99812 59.7421 10.0178C56.8899 10.0374 34.4442 10.2534 34.4442 10.2534L33.8581 10.3712L32.5493 8.34869C32.5493 8.34869 32.561 7.89313 32.5844 7.43757L32.432 7.38651L31.9632 7.2687H2.38321C2.38321 7.2687 2.14879 7.24906 2.14879 7.38651V7.50433H0.351562C0.351562 7.53771 0.35547 7.59858 0.371098 7.58287H1.88702V36.23H0.367191C0.369144 36.2948 0.371098 36.3282 0.371098 36.3282H2.14879V36.446C2.14879 36.5834 2.38321 36.5638 2.38321 36.5638H31.9593L32.4281 36.446L32.5805 36.3949C32.5571 35.9394 32.5453 35.4838 32.5453 35.4838L33.8542 33.4613L34.4403 33.5791C34.4403 33.5791 56.886 33.7951 59.7382 33.8147C62.5903 33.8344 63.6452 33.854 67.6889 34.6591C71.7327 35.4642 75.4834 36.3871 76.2453 36.5638C77.0072 36.7405 77.3197 36.6816 77.3197 36.6816C77.3197 36.6816 77.5737 36.9172 78.023 36.9172C78.4918 36.9369 79.8202 36.7012 79.8202 36.7012C79.8202 36.7012 80.0156 36.8583 80.289 37.0547C80.5625 37.2511 80.7579 37.3689 81.1291 37.4081C81.4807 37.4474 81.8323 37.4081 81.8323 37.4081ZM67.3568 21.8956C67.2982 29.9464 66.2824 33.8147 66.2824 33.8147C66.2824 33.8147 63.7624 33.2257 62.3559 33.2257C60.9493 33.2257 34.4403 33.1078 34.4403 33.1078L33.8542 32.99V10.8012L34.4403 10.6834C34.4403 10.6834 60.9493 10.5656 62.3559 10.5656C63.7624 10.5656 66.2824 9.97652 66.2824 9.97652C66.2824 9.97652 67.2787 13.8448 67.3568 21.8956ZM0.351562 7.49844C0.351562 7.49844 0.351562 7.4847 0.351562 7.48273C0.351562 7.48077 0.351562 7.47488 0.353516 7.47292C0.353516 7.4847 0.353516 7.49451 0.351562 7.5004V7.49844ZM87.6538 4.30169C85.755 4.31936 77.0033 4.39201 74.4598 4.41361L74.3699 4.39987L70.209 4.37827C70.1152 4.28205 70.0097 4.15049 69.9355 3.94823C69.7792 3.53588 68.9782 0.963551 68.861 0.6101C68.7438 0.256649 68.861 0.138836 68.861 0.138836C68.861 0.138836 70.0331 -0.0575294 70.5215 0.492283C71.0099 1.04209 71.5764 1.67045 72.0648 2.75043C72.1625 2.98606 72.2601 3.2217 72.3578 3.41806C72.5532 3.7126 72.7485 4.04642 72.9048 4.38023H74.4481C74.8192 4.1446 75.2881 4.00714 75.796 4.00714H86.5207C86.9759 4.00714 87.3861 4.10925 87.7417 4.30169C87.7124 4.30169 87.6831 4.30169 87.6538 4.30169ZM99.9999 22.0331V21.9938C99.9999 20.5407 99.8632 16.2012 99.6483 13.4521C99.5506 12.0972 99.3943 11.2725 99.2381 10.7816C99.3162 10.2514 98.945 9.1518 98.945 9.1518C98.945 9.1518 97.3822 7.14892 96.7962 6.40275C96.2101 5.65657 95.9562 5.42094 95.2529 5.08713C94.9384 4.95361 94.5242 4.94771 94.157 4.9968C94.1648 5.00073 94.1726 5.00466 94.1785 5.00858C94.1922 5.01644 94.2039 5.0243 94.2175 5.03215L94.4324 4.98895L95.2724 5.22458L96.4641 6.18675L98.359 9.05362L99.199 11.194H99.1345C99.451 12.6254 99.9042 18.9914 99.9218 21.9545C99.9042 24.8666 99.451 31.0696 99.1443 32.6366H99.199L98.359 34.7769L96.4641 37.6438L95.2724 38.6059L94.4324 38.8416L94.241 38.8043C94.2215 38.816 94.2019 38.8298 94.1785 38.8416C93.2799 39.3325 89.8808 39.5681 87.6538 39.5485C85.755 39.5308 77.0033 39.4581 74.4598 39.4365L74.3699 39.4503L55.4795 39.5485C55.4795 39.5485 54.9521 38.4096 54.6395 37.1725C54.327 35.9354 54.2879 34.9144 54.2879 34.9144C54.2879 34.9144 63.6452 34.934 64.8563 35.0322C66.0675 35.1304 73.8229 36.9172 74.6043 37.1725C75.3467 37.4278 75.8741 37.683 75.9132 38.0169C75.923 38.1779 75.923 38.4626 75.921 38.7159C75.9503 38.7139 75.9816 38.712 76.0109 38.71V37.9796C76.0109 37.5868 75.542 37.3119 73.6276 36.7818C71.7132 36.2516 66.4387 34.9752 64.4852 34.877C62.5317 34.7789 54.2683 34.7592 54.2683 34.7592H42.5082C42.5082 34.7592 37.1166 34.7592 36.5696 34.877C36.0226 34.9949 35.6514 35.309 35.3779 35.8392C35.1044 36.3694 34.7137 37.3316 34.6747 37.9796C34.6356 38.6275 34.6747 39.2952 34.6747 39.2952H33.483C33.483 39.2952 33.2681 39.2559 33.2486 39.0595C33.2486 39.0379 33.2388 39.0046 33.2291 38.9653V39.1774C33.2291 39.2952 33.3268 39.3737 33.3854 39.3934C33.4049 39.5897 33.5221 39.6486 34.0495 39.6486H35.8468C36.1398 39.7468 36.4914 39.845 36.9017 39.8843C37.9566 39.9824 39.1677 39.9235 39.5194 39.7664C39.5975 39.7272 39.6561 39.6879 39.7147 39.6486H56.7688C57.0619 39.7468 57.4135 39.845 57.8237 39.8843C58.8786 39.9824 60.0898 39.9235 60.4414 39.7664C60.5196 39.7272 60.5782 39.6879 60.6368 39.6486H70.2676C70.1699 39.7468 70.0331 39.9039 69.955 40.1199C69.7987 40.5322 68.9978 43.1046 68.8806 43.458C68.7634 43.8115 68.8806 43.9293 68.8806 43.9293C68.8806 43.9293 70.0527 44.1256 70.5411 43.5758C71.0294 43.026 71.5959 42.3977 72.0843 41.3177C72.2015 41.0821 72.2992 40.8464 72.3773 40.6501C72.5922 40.3359 72.7876 39.9824 72.9439 39.6486H74.4676C74.8388 39.8843 75.3076 40.0217 75.8155 40.0217H86.5403C87.0482 40.0217 87.4975 39.8843 87.8687 39.6683C89.9784 39.6683 92.9673 39.4523 94.0222 39.0203C94.4324 39.0792 94.9208 39.0988 95.2529 38.9417C95.9562 38.6079 96.2101 38.3723 96.7962 37.6261C97.3822 36.8799 98.945 34.877 98.945 34.877C98.945 34.877 99.3162 33.7774 99.2381 33.2473C99.3748 32.7564 99.5506 31.9316 99.6483 30.5767C99.8437 27.8277 99.9999 23.4881 99.9999 22.035V22.0331ZM55.3623 39.5485L34.8114 39.3128V37.7616C34.8114 37.7616 34.7723 37.5063 35.163 36.6816C35.5537 35.8569 35.6514 35.582 35.8663 35.366C36.1007 35.15 36.3742 35.0125 36.7063 35.0125C37.0189 35.0125 54.1707 34.8947 54.1707 34.8947C54.1707 34.8947 54.1707 35.9943 54.2879 36.5638C54.4051 37.1332 55.3623 39.5485 55.3623 39.5485ZM57.14 4.30954C57.3412 4.25652 57.558 4.21529 57.8042 4.20351C58.8591 4.12496 60.0703 4.16423 60.4219 4.32132C60.4258 4.32132 60.4297 4.32525 60.4336 4.32721L57.138 4.30954H57.14ZM34.8114 4.53732V6.08857C34.8114 6.08857 34.7723 6.34384 35.163 7.16855C35.5537 7.99327 35.6514 8.26818 35.8663 8.48417C36.1007 8.70017 36.3742 8.83762 36.7063 8.83762C37.0189 8.83762 54.1707 8.95544 54.1707 8.95544C54.1707 8.95544 54.1707 7.85582 54.2879 7.28637C54.3914 6.78565 55.1435 4.85739 55.3232 4.39987H55.4346C55.3017 4.69833 54.8974 5.65461 54.6395 6.67765C54.327 7.91473 54.2879 8.9358 54.2879 8.9358C54.2879 8.9358 63.6452 8.91617 64.8563 8.81799C66.0675 8.71981 73.8229 6.93292 74.6043 6.67765C75.3467 6.42238 75.8741 6.16711 75.9132 5.8333C75.9327 5.67229 75.9327 5.38756 75.9288 5.13622C75.9562 5.13818 75.9835 5.14015 76.0109 5.14211V5.85294C76.0109 6.24566 75.542 6.52057 73.6276 7.05074C71.7132 7.58091 66.4387 8.85726 64.4852 8.95544C62.5317 9.05362 54.2683 9.07326 54.2683 9.07326H42.5082C42.5082 9.07326 37.1166 9.07326 36.5696 8.95544C36.0226 8.83762 35.6514 8.52345 35.3779 7.99327C35.1044 7.4631 34.7137 6.50093 34.6747 5.85294C34.6356 5.20494 34.6747 4.53732 34.6747 4.53732H33.483C33.483 4.53732 33.4401 4.54517 33.3912 4.5707C33.4479 4.4411 33.5866 4.39987 34.03 4.39987H35.9249C36.1984 4.30169 36.511 4.22314 36.8821 4.20351C37.937 4.12496 39.1482 4.16423 39.4998 4.32132C39.5584 4.34096 39.5975 4.38023 39.6561 4.39987H46.8001L34.8114 4.53732Z" fill="black"/>
<path d="M74.2996 39.4345C74.6883 39.735 75.2197 39.9215 75.8155 39.9215H86.5403C87.0423 39.9215 87.5053 39.7801 87.8726 39.5504C87.7983 39.5504 87.7261 39.5504 87.6538 39.5504C85.7139 39.5327 76.6126 39.4561 74.2996 39.4365V39.4345ZM23.8737 39.6859C23.5514 39.8351 23.1783 39.9215 22.7778 39.9215H12.0335C11.3518 39.9215 10.752 39.68 10.3574 39.2971C12.3773 39.4738 15.0595 39.6859 16.1554 39.6859H23.8737ZM87.6538 4.30164C85.71 4.31931 76.5872 4.39589 74.2898 4.41552C74.6825 4.10331 75.2217 3.90891 75.8155 3.90891H86.5403C87.0697 3.90891 87.5502 4.05618 87.9253 4.29967C87.8335 4.29967 87.7436 4.29967 87.6538 4.29967V4.30164ZM10.375 4.53138C10.7755 4.1524 11.3772 3.90891 12.0531 3.90891H22.7778C23.1822 3.90891 23.5573 3.99531 23.8815 4.14455H16.1554C15.0615 4.14455 12.3949 4.35465 10.375 4.53138Z" fill="black"/>
<path d="M1.63281 37.5613H32.5178V7.28242H1.63281V37.5613Z" fill="url(#paint0_linear_6561_2930)"/>
<path opacity="0.2" d="M99.9216 21.9545C99.904 24.8665 99.4508 31.0696 99.1441 32.6365H99.1988L98.3588 34.7769L96.4639 37.6438L95.2723 38.6059L94.4323 38.8416L93.2406 38.6059L93.9634 38.2328L95.7411 36.6816L96.3662 34.7494C96.3154 34.6669 96.3623 34.4706 96.5206 34.1073C96.5459 34.0837 96.5616 34.07 96.5616 34.07C96.5616 34.07 96.2881 34.3056 96.0927 34.6591C95.8974 35.0125 94.6667 37.2707 94.6667 37.2707C94.6667 37.2707 82.4377 37.3296 81.7149 37.2707C80.9921 37.2118 80.5624 36.9958 80.4061 36.9172C80.2693 36.8387 80.0544 36.5834 80.0544 36.5834C80.0544 36.5834 80.66 35.6998 81.4805 33.3631C82.1838 31.3406 82.5549 25.7443 82.6526 21.9152C82.5549 18.0862 82.2033 12.4899 81.4805 10.4674C80.66 8.1307 80.0544 7.24708 80.0544 7.24708C80.0544 7.24708 80.2498 6.97217 80.4061 6.89363C80.5624 6.81508 80.9921 6.57945 81.7149 6.54018C82.4182 6.48127 94.6667 6.54018 94.6667 6.54018C94.6667 6.54018 95.8974 8.79833 96.0927 9.17142C96.2646 9.49934 96.4952 9.70552 96.5499 9.75068C96.5499 9.75068 96.5499 9.74675 96.5499 9.74479C96.3916 9.37956 96.3408 9.18712 96.376 9.10465L95.7431 7.1489L93.9654 5.59764L93.2426 5.22456L94.4342 4.98893L95.2742 5.22456L96.4659 6.18673L98.3608 9.0536L99.2008 11.1939H99.1363C99.4528 12.6254 99.906 18.9914 99.9236 21.9545H99.9216Z" fill="url(#paint1_linear_6561_2930)"/>
<path d="M2.38305 36.2103L1.19141 34.1878L1.36722 21.9153L1.19141 9.62305L2.38305 7.60054L3.08631 8.68052V21.9153V35.15L2.38305 36.2103Z" fill="#121212"/>
<path opacity="0.5" d="M26.5088 37.1921H26.4717C26.4951 37.1921 26.5088 37.1921 26.5088 37.1921ZM12.0919 33.4024C13.7719 33.1864 14.2212 33.2649 14.2212 33.2649H21.6641C21.6641 33.2649 22.8362 33.2256 24.0278 35.2285C25.1023 37.035 26.2568 37.1804 26.4717 37.1921L9.0249 36.7601C9.0249 36.7601 10.4119 33.6184 12.0919 33.4024ZM24.0278 8.60198C22.8362 10.6049 21.6641 10.5656 21.6641 10.5656H14.2212C14.2212 10.5656 13.7719 10.6441 12.0919 10.4281C10.4119 10.2121 9.0249 7.07037 9.0249 7.07037L26.4717 6.63837C26.2548 6.65016 25.1023 6.79546 24.0278 8.60198ZM26.5088 6.63837H26.4717C26.4951 6.63837 26.5088 6.63837 26.5088 6.63837Z" fill="url(#paint2_linear_6561_2930)"/>
<path d="M0.585938 37.0547C0.585938 37.0547 1.54316 38.4685 1.77758 38.7237C2.012 38.979 2.09014 38.9594 2.36363 38.9594C2.63712 38.9594 2.96922 39.0968 3.20364 39.0772C3.43806 39.0575 4.27416 38.871 4.27416 38.871L4.16867 38.5038L1.44353 37.7144L0.585938 37.0547ZM0.585938 6.77581C0.585938 6.77581 1.54316 5.36201 1.77758 5.10674C2.012 4.85147 2.09014 4.87111 2.36363 4.87111C2.63712 4.87111 2.96922 4.73365 3.20364 4.75329C3.43806 4.77293 4.74691 5.10674 4.74691 5.10674L4.6336 5.49553L1.71116 6.12585L0.585938 6.77581Z" fill="#ED2939"/>
<path opacity="0.3" d="M4.17453 38.5136L1.44353 37.7066L0.585938 37.0527C0.585938 37.0527 1.54316 38.4665 1.77758 38.7218C2.012 38.977 2.09014 38.9574 2.36363 38.9574C2.63712 38.9574 2.96922 39.0949 3.20364 39.0752C3.43806 39.0556 4.28002 38.8514 4.28002 38.8514L4.17453 38.5136ZM0.585938 6.77581C0.585938 6.77581 1.54316 5.36201 1.77758 5.10674C2.012 4.85147 2.09014 4.87111 2.36363 4.87111C2.63712 4.87111 2.96922 4.73366 3.20364 4.7533C3.43806 4.77293 4.74691 5.10674 4.74691 5.10674L4.65119 5.50928L1.75804 6.11015L0.585938 6.77581Z" fill="black"/>
<path opacity="0.7" d="M32.4281 36.446L31.9788 36.5638C31.9983 36.7012 32.0374 36.878 32.0764 37.0351C32.2132 37.683 32.6625 38.115 32.6625 38.115L32.7719 38.6511C32.8149 38.8612 32.7738 39.0772 32.6586 39.2579L32.5902 39.3639C32.8051 39.3639 32.7406 39.3344 32.7797 39.3344C32.936 39.2952 33.2212 38.8671 33.2212 38.8671L32.8539 37.742L32.5257 37.0429L32.4281 36.4479V36.446ZM32.559 6.7935L32.4281 7.40418L31.9788 7.28637C31.9983 7.14891 32.2562 6.97416 32.2952 6.81707C32.432 6.16908 32.6625 5.73512 32.6625 5.73512L32.7289 5.61534C32.8813 5.34043 32.8735 5.00465 32.7113 4.73564L32.5902 4.53535C32.8051 4.53535 32.7406 4.51768 32.7797 4.51768C32.936 4.55695 33.231 4.96146 33.231 4.96146L32.9262 6.23976L32.559 6.7935Z" fill="black"/>
<path d="M81.0116 21.9153C80.953 26.6869 80.3084 32.6759 79.6637 34.6002C78.98 36.6227 77.9056 36.7406 77.3 36.6817C76.6944 36.6227 75.4051 36.2497 74.0962 35.9551C72.8069 35.6606 66.3994 34.2468 66.3994 34.2468V9.58385C66.3994 9.58385 72.8069 8.17005 74.0962 7.87551C75.3855 7.58097 76.6749 7.20788 77.3 7.14897C77.9251 7.09007 78.9995 7.18824 79.6637 9.2304C80.3084 11.1547 80.953 17.1437 81.0116 21.9153Z" fill="url(#paint3_linear_6561_2930)"/>
<path opacity="0.15" d="M33.854 32.99V10.8012L34.4401 10.6834V33.1274L33.854 32.99Z" fill="black"/>
<path d="M34.3229 25.2533L33.9712 25.7246H33.7368V18.1058H33.9712L34.3229 18.5771C34.3229 18.5771 34.4401 20.5603 34.4401 21.9152C34.4401 23.2701 34.3229 25.2533 34.3229 25.2533Z" fill="#ED2939"/>
<path d="M33.0337 34.0699V33.8343V31.694V21.9152V12.1561V10.0157V9.76046L33.6197 10.487V10.9583V21.9152V32.8721V33.3434L33.0337 34.0699Z" fill="#3A3A3A"/>
<path d="M32.7798 34.0699V21.9388V21.9152V9.76046H33.0142V21.9152V21.9388V34.0699H32.7798Z" fill="black"/>
<path opacity="0.15" d="M84.0984 30.0249C84.0984 30.0249 92.2445 27.3544 92.6547 27.158C93.065 26.9617 93.3189 26.6671 93.4948 26.3137C93.651 25.9799 93.612 24.5857 93.612 22.7399V21.0512C93.612 19.2054 93.651 17.8113 93.4948 17.4774C93.3385 17.1436 93.0845 16.8294 92.6547 16.6331C92.2445 16.4367 84.0984 13.7662 84.0984 13.7662C84.0984 13.7662 93.3971 15.828 94.0808 16.2796C94.745 16.7116 94.6669 17.2418 94.6669 17.2418C94.6669 17.2418 94.7841 19.5392 94.7841 21.169V22.6221C94.7841 24.2715 94.6669 26.5493 94.6669 26.5493C94.6669 26.5493 94.745 27.0599 94.0808 27.5115C93.4166 27.9631 84.0984 30.0249 84.0984 30.0249Z" fill="url(#paint4_linear_6561_2930)"/>
<path d="M80.6602 18.5966C80.6602 18.5966 80.6407 24.0358 80.6602 25.7442C80.6798 27.4525 80.7774 33.2451 80.7774 33.2451H80.797C80.836 33.4022 80.9532 33.5004 81.0705 33.5004C81.2267 33.5004 81.3635 33.3237 81.3635 33.0881V33.0291C81.6565 32.9113 81.6565 31.7921 81.3635 31.7135C81.0705 31.6153 81.0119 32.4204 81.0119 32.4204C81.0119 32.4204 81.1486 27.0598 81.1291 26.0976C81.1095 25.1354 81.0119 18.7144 81.0119 18.7144L80.6602 18.5966ZM82.2035 23.7216C81.9105 23.5842 81.6956 23.6627 81.6174 22.8773C81.5393 22.0918 81.5979 21.9544 81.7346 21.7973C81.8714 21.6402 81.9691 21.7973 81.9691 21.7973L81.6174 18.2235L80.0742 11.7829L78.9997 7.97349H79.4686L80.7774 13.2163L81.9691 17.9879C81.9691 17.9879 82.1644 19.441 82.2035 20.2461C82.2426 21.0511 82.3207 21.5617 82.3207 21.5617C82.3207 21.5617 82.7895 21.6795 82.7895 22.7595C82.7895 23.8395 82.477 23.8591 82.2035 23.7216ZM32.3109 6.76587C32.3715 6.50668 32.5688 5.93134 32.5688 5.93134C32.5688 5.93134 5.74324 6.26515 4.51253 6.28479C3.28182 6.30442 1.81669 6.30443 1.30878 6.52042C0.894638 6.69715 0.765706 7.22536 0.732497 7.41386H0.718822C0.718822 7.41386 0.349609 15.769 0.349609 20.9215V22.8714C0.349609 28.0043 0.718822 36.3791 0.718822 36.3791H0.72859C0.755939 36.5479 0.877056 37.1095 1.30683 37.2921C1.81474 37.5081 3.27987 37.4885 4.51058 37.5278C5.74129 37.567 32.4633 37.8812 32.4633 37.8812C32.4633 37.8812 32.391 37.7457 32.309 37.5769V6.7698L32.3109 6.76587ZM32.184 7.24696L30.7677 9.62292V34.1877L31.9593 36.5636H2.266C2.266 36.5636 2.14879 36.5636 2.14879 36.4458V36.328H2.13902V7.48259H2.14879V7.36477C2.14879 7.24696 2.266 7.24696 2.266 7.24696H32.184Z" fill="#262626"/>
<path opacity="0.2" d="M33.854 33.4612L32.5452 35.4837C32.5452 35.4837 32.5842 36.9957 32.6624 37.2706C32.7405 37.5455 33.2289 38.8415 33.2484 39.0575C33.268 39.2538 33.4828 39.2931 33.4828 39.2931H34.6745C34.6745 39.2931 34.6354 38.6255 34.6745 37.9775C34.7136 37.3295 35.1043 36.3673 35.3778 35.8371C35.6512 35.307 36.0224 34.9928 36.5694 34.875C37.1164 34.7572 42.508 34.7572 42.508 34.7572H54.2682C54.2682 34.7572 62.5315 34.7768 64.485 34.875C66.4385 34.9731 71.713 36.2495 73.6274 36.7797C75.5418 37.3098 76.0107 37.5848 76.0107 37.9775V39.1753L91.5801 38.8218C91.5801 38.8218 91.4825 38.1935 93.0062 38.1149C94.5299 38.0364 94.6667 37.408 94.6667 37.408H81.8321C81.8321 37.408 81.4805 37.4473 81.1289 37.408C80.7577 37.3688 80.5624 37.2509 80.2889 37.0546C80.0154 36.8582 79.82 36.7011 79.82 36.7011C79.82 36.7011 78.4916 36.9368 78.0228 36.9171C77.5735 36.9171 77.3195 36.6815 77.3195 36.6815C77.3195 36.6815 77.007 36.7404 76.2451 36.5637C75.4832 36.3869 71.7325 35.4641 67.6887 34.659C63.645 33.8539 62.5901 33.8343 59.738 33.8146C56.8859 33.795 34.4401 33.579 34.4401 33.579L33.854 33.4612ZM81.1289 6.42227C80.7577 6.46154 80.5624 6.57935 80.2889 6.77571C80.0154 6.97208 79.82 7.12917 79.82 7.12917C79.82 7.12917 78.4916 6.89353 78.0228 6.91317C77.5735 6.91317 77.3195 7.1488 77.3195 7.1488C77.3195 7.1488 77.007 7.08989 76.2451 7.26662C75.4832 7.44334 71.7325 8.36624 67.6887 9.17132C63.645 9.99604 62.5901 9.99603 59.738 10.0157C56.8859 10.0353 34.4401 10.2513 34.4401 10.2513L33.854 10.3691L32.5452 8.3466C32.5452 8.3466 32.5842 6.83463 32.6624 6.55972C32.7405 6.28481 33.2289 4.98883 33.2484 4.77283C33.268 4.57647 33.4828 4.5372 33.4828 4.5372H34.6745C34.6745 4.5372 34.6354 5.20483 34.6745 5.85282C34.7136 6.50081 35.1043 7.46298 35.3778 7.99315C35.6512 8.52333 36.0224 8.83751 36.5694 8.95532C37.1164 9.07314 42.508 9.07314 42.508 9.07314H54.2682C54.2682 9.07314 62.5315 9.0535 64.485 8.95532C66.4385 8.85714 71.713 7.5808 73.6274 7.05062C75.5418 6.52045 76.0107 6.24554 76.0107 5.85282V4.65502L91.5801 5.00846C91.5801 5.00846 91.4825 5.63682 93.0062 5.71537C94.5299 5.79391 94.6667 6.42227 94.6667 6.42227H81.8321C81.8321 6.42227 81.4805 6.383 81.1289 6.42227Z" fill="url(#paint5_linear_6561_2930)"/>
<path opacity="0.2" d="M33.854 32.99V10.8012L34.4401 10.6834C34.4401 10.6834 60.9491 10.5656 62.3557 10.5656C63.7622 10.5656 66.2822 9.97648 66.2822 9.97648C66.2822 9.97648 67.2785 13.8448 67.3566 21.8956C67.298 29.9464 66.2822 33.8147 66.2822 33.8147C66.2822 33.8147 63.7622 33.2256 62.3557 33.2256C60.9491 33.2256 34.4401 33.1078 34.4401 33.1078L33.854 32.99Z" fill="url(#paint6_radial_6561_2930)"/>
<path opacity="0.2" d="M54.6395 37.1725C54.952 38.4096 55.4795 39.5485 55.4795 39.5485L74.3699 39.4503L75.9132 39.2146C75.9132 39.2146 75.9327 38.3507 75.9132 38.0168C75.8741 37.683 75.3466 37.4278 74.6043 37.1725C73.8229 36.9172 66.0675 35.1303 64.8563 35.0322C63.6451 34.934 54.2878 34.9143 54.2878 34.9143C54.2878 34.9143 54.3269 35.9354 54.6395 37.1725ZM35.8663 35.366C36.1007 35.15 36.3742 35.0125 36.7063 35.0125C37.0188 35.0125 54.1706 34.8947 54.1706 34.8947C54.1706 34.8947 54.1706 35.9943 54.2878 36.5638C54.4051 37.1332 55.3623 39.5485 55.3623 39.5485L34.8114 39.3128V37.7616C34.8114 37.7616 34.7723 37.5063 35.163 36.6816C35.5537 35.8569 35.6514 35.582 35.8663 35.366ZM75.9132 5.83329C75.8741 6.16711 75.3466 6.42237 74.6043 6.67764C73.8229 6.93291 66.0675 8.7198 64.8563 8.81798C63.6451 8.91616 54.2878 8.93579 54.2878 8.93579C54.2878 8.93579 54.3269 7.91472 54.6395 6.67764C54.952 5.44057 55.4795 4.30168 55.4795 4.30168L74.3699 4.39986L75.9132 4.63549C75.9132 4.63549 75.9522 5.49948 75.9132 5.83329ZM54.1706 8.95543C54.1706 8.95543 37.0188 8.83761 36.7063 8.83761C36.3742 8.83761 36.1007 8.70016 35.8663 8.48417C35.6514 8.26817 35.5537 7.99326 35.163 7.16854C34.7723 6.34383 34.8114 6.08856 34.8114 6.08856V4.53731L55.3623 4.30168C55.3623 4.30168 54.4051 6.71692 54.2878 7.28636C54.1706 7.85581 54.1706 8.95543 54.1706 8.95543Z" fill="url(#paint7_linear_6561_2930)"/>
<path d="M38.2494 37.8793C38.4447 38.115 54.8737 38.2328 54.8737 38.2328C54.8737 38.2328 54.7175 37.7222 54.5221 37.035C54.3268 36.3477 54.1705 35.2481 54.1705 35.2481H42.0587C42.0587 35.2481 40.1834 35.2677 39.3238 35.3659C38.4643 35.4641 38.4447 35.7586 38.2494 36.4459C38.054 37.1332 38.054 37.6633 38.2494 37.8793ZM56.5147 39.0771C57.2179 39.0379 57.3938 39.136 57.4719 39.3128C57.55 39.4895 57.7063 39.4306 58.7807 39.4306C59.8552 39.4306 59.738 39.1949 59.738 39.1949C59.738 39.1949 59.7184 39.0771 60.0896 39.0771C60.4803 39.0771 60.9296 39.1949 60.9296 39.1949C60.9296 39.1949 60.8124 39.5091 60.4608 39.6662C60.1091 39.8233 58.898 39.8822 57.8431 39.784C56.8077 39.7055 56.0654 39.1949 56.0654 39.1949C56.0654 39.1949 56.0458 39.0968 56.5147 39.0771ZM35.6122 39.0771C36.3154 39.0379 36.4912 39.136 36.5694 39.3128C36.6475 39.4895 36.8038 39.4306 37.8782 39.4306C38.9527 39.4306 38.8354 39.1949 38.8354 39.1949C38.8354 39.1949 38.8159 39.0771 39.1871 39.0771C39.5778 39.0771 40.0271 39.1949 40.0271 39.1949C40.0271 39.1949 39.9099 39.5091 39.5582 39.6662C39.2066 39.8233 37.9954 39.8822 36.9405 39.784C35.9052 39.7055 35.1629 39.1949 35.1629 39.1949C35.1629 39.1949 35.1238 39.0968 35.6122 39.0771ZM54.4049 35.2677C54.4049 35.2677 60.5584 35.2874 63.8989 35.3855C67.1632 35.5014 70.2088 36.4459 70.2088 36.4459C70.2088 36.4459 74.7409 37.7026 74.8386 37.8793C74.8698 37.9481 74.7253 37.9775 74.526 37.9913C74.5651 38.0089 74.5846 38.0168 74.5846 38.0168L73.5707 38.0286C73.4809 38.0914 73.4106 38.2406 73.3617 38.3702C73.3422 38.4704 73.3148 38.5803 73.2777 38.6982C73.2875 38.7139 73.2953 38.7237 73.2953 38.7237L73.2425 38.812C73.0863 39.2755 72.8225 39.8331 72.5217 40.328C72.4143 40.6205 72.2756 40.972 72.1037 41.3549C71.6153 42.4349 71.0488 43.0633 70.5604 43.6131C70.072 44.1629 68.8999 43.9665 68.8999 43.9665C68.8999 43.9665 68.7827 43.8487 68.8804 43.4953C68.9976 43.1418 69.7985 40.5695 69.9548 40.1571C70.1111 39.7448 70.4236 39.568 70.4236 39.568C70.4236 39.568 70.7675 39.5523 71.0136 39.5189C71.0195 39.4954 71.0214 39.4757 71.0292 39.4502C71.1464 38.979 71.4395 38.3702 71.2636 38.1346C71.2441 38.1071 71.2285 38.0816 71.2148 38.058L55.1082 38.2524C55.1082 38.2524 54.9909 37.9579 54.7565 37.2902C54.5221 36.6226 54.4049 35.2677 54.4049 35.2677ZM74.8386 5.97068C74.7409 6.1474 70.2088 7.40411 70.2088 7.40411C70.2088 7.40411 67.1535 8.37021 63.8989 8.4841C60.5584 8.60191 54.4049 8.60191 54.4049 8.60191C54.4049 8.60191 54.5221 7.24702 54.7565 6.57939C54.9909 5.91177 55.1082 5.61723 55.1082 5.61723L71.2129 5.81162C71.2265 5.78806 71.2441 5.76254 71.2636 5.73504C71.4336 5.50726 71.1679 4.93585 71.0449 4.47244C70.7968 4.4371 70.4236 4.41942 70.4236 4.41942C70.4236 4.41942 70.1111 4.2427 69.9548 3.83034C69.7985 3.41798 68.9976 0.845654 68.8804 0.492203C68.7827 0.138756 68.8999 0.0209389 68.8999 0.0209389C68.8999 0.0209389 70.072 -0.175423 70.5604 0.37439C71.0488 0.924198 71.6153 1.55256 72.1037 2.63254C72.2267 2.90352 72.3303 3.15682 72.4201 3.38657C72.76 3.9187 73.0648 4.54313 73.2406 5.05367L73.2953 5.14596C73.2953 5.14596 73.2894 5.15578 73.2777 5.17149C73.309 5.27359 73.3363 5.36981 73.3559 5.45818C73.4086 5.60741 73.4946 5.79199 73.6059 5.84108L74.5846 5.85286C74.5846 5.85286 74.5768 5.85678 74.5651 5.86268C74.7448 5.87642 74.8679 5.90588 74.8386 5.97068ZM54.1705 8.60191H42.0587C42.0587 8.60191 40.1834 8.58228 39.3238 8.4841C38.4643 8.38592 38.4447 8.09137 38.2494 7.40411C38.054 6.71685 38.054 6.18667 38.2494 5.97068C38.4447 5.75468 54.8737 5.61723 54.8737 5.61723C54.8737 5.61723 54.7175 6.12777 54.5221 6.81503C54.3268 7.50229 54.1705 8.60191 54.1705 8.60191ZM59.738 4.65506C59.738 4.65506 59.8552 4.41942 58.7807 4.41942C57.7063 4.41942 57.55 4.36052 57.4719 4.53724C57.3938 4.71397 57.2179 4.81215 56.5147 4.77287C56.0458 4.77287 56.0654 4.65506 56.0654 4.65506C56.0654 4.65506 56.8077 4.14452 57.8431 4.06598C58.898 3.98743 60.1091 4.0267 60.4608 4.18379C60.8124 4.34088 60.9296 4.65506 60.9296 4.65506C60.9296 4.65506 60.4803 4.77287 60.0896 4.77287C59.6989 4.77287 59.738 4.65506 59.738 4.65506ZM38.8354 4.65506C38.8354 4.65506 38.9527 4.41942 37.8782 4.41942C36.8038 4.41942 36.6475 4.36052 36.5694 4.53724C36.4912 4.71397 36.3154 4.81215 35.6122 4.77287C35.1238 4.77287 35.1629 4.65506 35.1629 4.65506C35.1629 4.65506 35.9052 4.14452 36.9405 4.06598C37.9954 3.98743 39.2066 4.0267 39.5582 4.18379C39.9099 4.34088 40.0271 4.65506 40.0271 4.65506C40.0271 4.65506 39.5778 4.77287 39.1871 4.77287C38.7964 4.77287 38.8354 4.65506 38.8354 4.65506Z" fill="#111111"/>
<path d="M56.1828 35.739C56.1632 35.955 56.5344 36.819 56.5344 36.819C56.5344 36.819 56.6711 37.1331 56.7688 37.4277C56.8665 37.7026 57.1204 37.7811 57.1204 37.7811L71.1466 37.6633L71.0294 37.192L70.2714 36.6305C70.2714 36.6305 66.8216 35.7782 65.4541 35.6212C64.0866 35.4641 57.1986 35.3855 56.6516 35.3855C56.1046 35.3855 56.2023 35.523 56.1828 35.739ZM38.6207 36.5833C38.7379 35.9942 38.6793 35.8764 39.2068 35.6212C39.7342 35.3659 52.6469 35.4052 52.8618 35.5033C52.9595 35.955 53.3697 37.6437 53.3697 37.6437L38.6012 37.5259C38.6012 37.5259 38.484 37.1528 38.6207 36.5833ZM70.2714 7.18613C70.2714 7.18613 66.7083 8.14044 65.3408 8.29753C63.9733 8.43498 57.1986 8.50371 56.6516 8.48408C56.1242 8.48408 56.2023 8.34662 56.1828 8.13063C56.1632 7.91463 56.5344 7.05064 56.5344 7.05064C56.5344 7.05064 56.6711 6.73646 56.7688 6.44192C56.8665 6.16702 57.1204 6.08847 57.1204 6.08847L71.1466 6.20629L71.0294 6.67756L70.2714 7.18613ZM39.2068 8.22881C38.6793 7.97354 38.7379 7.85572 38.6207 7.26664C38.484 6.71683 38.6012 6.32411 38.6012 6.32411L53.3697 6.20629C53.3697 6.20629 52.9595 7.89499 52.8618 8.34662C52.6469 8.4448 39.7342 8.48408 39.2068 8.22881Z" fill="url(#paint8_linear_6561_2930)"/>
<path opacity="0.2" d="M0.351562 36.3281C0.351562 36.3281 0.371098 36.5049 0.351562 36.4656C0.351562 36.4263 0.468773 37.2314 1.07436 37.5456C1.67995 37.8598 4.1609 38.5077 4.1609 38.5077L4.27811 38.8612C4.27811 38.8612 6.8372 38.9594 8.20466 39.0968C9.57211 39.2343 14.5536 39.6859 16.1554 39.6859H25.2978C26.509 39.6859 29.2439 39.4896 30.0449 39.4503C30.8458 39.411 32.604 39.3521 32.7798 39.3325C32.9556 39.3128 33.2213 38.8553 33.2213 38.8553L32.5141 37.0409L32.5063 36.6325L32.4301 36.444L31.9613 36.5618H2.38321C2.38321 36.5618 2.14879 36.5814 2.14879 36.444V36.3262H0.351562V36.3281ZM32.5121 7.27654L32.4281 7.38454L31.9593 7.26672H2.38321C2.38321 7.26672 2.14879 7.24709 2.14879 7.38454V7.50235H0.351562C0.351562 7.48272 0.371098 7.32563 0.351562 7.3649C0.351562 7.40417 0.468773 6.59909 1.07436 6.28492C1.67995 5.97074 4.1609 5.32275 4.1609 5.32275L4.27811 4.9693C4.27811 4.9693 6.8372 4.87112 8.20466 4.73367C9.57211 4.59621 14.5536 4.14458 16.1554 4.14458H25.2978C26.509 4.14458 29.2439 4.34094 30.0449 4.38021C30.8458 4.41949 32.604 4.4784 32.7798 4.49803C32.9556 4.51767 33.2291 5.0125 33.2291 5.0125L32.9185 6.23582L32.5121 7.27654Z" fill="url(#paint9_linear_6561_2930)"/>
<path d="M91.5608 38.7238C91.5608 38.7238 93.4947 38.8809 94.2566 38.7238C95.1943 38.5078 95.3896 38.1936 95.9562 37.1529C96.4856 36.1809 97.1849 33.9424 97.2748 33.6498C97.2474 33.695 97.1517 33.7892 96.8157 33.9718C96.3078 34.2467 95.9562 34.502 95.1552 36.1122C94.3543 37.7027 94.0026 37.8009 92.6547 38.1347C91.3068 38.4685 91.5608 38.7238 91.5608 38.7238ZM97.2748 33.6498C97.2806 33.6302 97.2845 33.6184 97.2845 33.6184C97.2845 33.6184 97.2885 33.6282 97.2748 33.6498ZM96.8157 9.85871C96.3078 9.5838 95.9562 9.30889 95.1552 7.71837C94.3543 6.12785 94.0026 6.02966 92.6547 5.69585C91.3068 5.36204 91.5608 5.10677 91.5608 5.10677C91.5608 5.10677 93.4947 4.94968 94.2566 5.10677C95.1943 5.32277 95.3896 5.63694 95.9562 6.67765C96.4856 7.64964 97.1849 9.88816 97.2748 10.1807C97.2474 10.1356 97.1517 10.0413 96.8157 9.85871ZM97.2845 10.2122C97.2845 10.2122 97.2806 10.2004 97.2748 10.1807C97.2885 10.2043 97.2845 10.2122 97.2845 10.2122Z" fill="#F4F4F4"/>
<path opacity="0.2" d="M99.0427 32.2417C98.7302 32.6089 97.7339 33.4376 97.0697 33.7498C96.8665 33.8323 96.7024 33.8951 96.5813 33.9226V34.0699C96.5813 34.0699 96.3078 34.3055 96.1125 34.6589C95.9171 35.0124 94.6864 37.2705 94.6864 37.2705C94.6864 37.2705 88.4528 37.3 84.6239 37.2961C84.5985 37.3 84.5731 37.3059 84.5477 37.3098C83.0435 37.3098 81.93 37.3098 81.7347 37.2902C81.0314 37.2313 80.5821 37.0153 80.4258 36.9367C80.3867 36.9171 80.3477 36.8778 80.3086 36.8385C80.3145 36.8385 80.3203 36.8385 80.3262 36.8366C80.3203 36.8307 80.3145 36.8248 80.3086 36.8189C81.2072 36.6815 82.9458 36.3869 84.5868 36.0727C86.8919 35.6407 94.4715 33.3041 95.1552 32.9702C95.839 32.6364 96.1125 32.499 96.1125 32.499L96.2687 32.3419L96.5618 32.01V31.69C96.5618 31.69 96.8353 25.8757 96.9134 21.8621C96.8157 17.8504 96.5618 12.0342 96.5618 12.0342V11.8182L96.1125 11.3097C96.1125 11.3097 96.0949 11.3018 96.0597 11.2822C95.9503 11.2272 95.669 11.0878 95.1552 10.8384C94.7059 10.6185 91.2873 9.53849 88.3395 8.69806C88.0582 8.61756 87.7827 8.54097 87.5131 8.46635C87.2435 8.39174 86.9818 8.32105 86.7298 8.25232C85.8487 8.01669 85.0908 7.83015 84.5868 7.7359C84.3817 7.69662 84.1746 7.65734 83.9695 7.62004C83.8659 7.6004 83.7624 7.58273 83.6608 7.5631C83.2506 7.48848 82.8442 7.41582 82.4575 7.3471C82.3617 7.32943 82.266 7.31372 82.1722 7.29801C81.7952 7.23321 81.4436 7.1743 81.1291 7.12128C81.0509 7.10754 80.9747 7.09576 80.9005 7.08397C80.6798 7.04863 80.4805 7.01721 80.3125 6.99169C80.332 6.97205 80.3516 6.95241 80.3711 6.93474C80.3906 6.91707 80.4102 6.90332 80.4297 6.89351C80.586 6.81496 81.0158 6.59896 81.7386 6.54005C81.8128 6.5322 82.016 6.52827 82.3227 6.52435C84.9032 6.49293 94.6903 6.54005 94.6903 6.54005C94.6903 6.54005 95.921 8.81784 96.1164 9.17129C96.3117 9.52474 96.5852 9.76038 96.5852 9.76038V9.83695C96.7044 9.87426 96.8685 9.95281 97.0736 10.049C97.7378 10.3612 98.7341 11.1899 99.0466 11.5571C99.3592 11.9243 99.9062 18.844 99.9257 21.8994C99.9062 24.9548 99.3397 31.8726 99.0466 32.2417H99.0427Z" fill="url(#paint10_linear_6561_2930)"/>
<path d="M92.8892 38.3702C91.932 38.4488 91.5803 38.7237 91.5803 38.7237C91.5803 38.7237 91.9515 38.9004 93.0064 38.8415C94.0613 38.7826 94.7841 38.3702 94.7841 38.3702C94.7841 38.3702 93.8464 38.2917 92.8892 38.3702ZM92.8892 5.46013C91.932 5.38159 91.5803 5.10668 91.5803 5.10668C91.5803 5.10668 91.9515 4.92996 93.0064 4.98886C94.0613 5.04778 94.7841 5.46013 94.7841 5.46013C94.7841 5.46013 93.8464 5.53868 92.8892 5.46013Z" fill="#FF8040"/>
</g>
<defs>
<linearGradient id="paint0_linear_6561_2930" x1="31.5734" y1="22.428" x2="2.54158" y2="22.428" gradientUnits="userSpaceOnUse">
<stop stop-color="#101415"/>
<stop offset="1" stop-color="#0B0B0B"/>
</linearGradient>
<linearGradient id="paint1_linear_6561_2930" x1="80.0544" y1="21.9152" x2="99.9216" y2="21.9152" gradientUnits="userSpaceOnUse">
<stop stop-color="#AEAEAE"/>
<stop offset="0.51"/>
<stop offset="0.56" stop-color="#0C0C0C"/>
<stop offset="0.63" stop-color="#2C2C2C"/>
<stop offset="0.74" stop-color="#606060"/>
<stop offset="0.86" stop-color="#A8A8A8"/>
<stop offset="1" stop-color="white"/>
</linearGradient>
<linearGradient id="paint2_linear_6561_2930" x1="23.4242" y1="21.9153" x2="10.0876" y2="21.9153" gradientUnits="userSpaceOnUse">
<stop stop-color="#262626"/>
<stop offset="1" stop-color="#333333"/>
</linearGradient>
<linearGradient id="paint3_linear_6561_2930" x1="61.3677" y1="22.0497" x2="87.374" y2="22.0497" gradientUnits="userSpaceOnUse">
<stop/>
<stop offset="1" stop-color="#707070"/>
</linearGradient>
<linearGradient id="paint4_linear_6561_2930" x1="82.4042" y1="21.9474" x2="93.0957" y2="21.9474" gradientUnits="userSpaceOnUse">
<stop stop-color="white"/>
<stop offset="0.44"/>
<stop offset="0.56" stop-color="#020202"/>
<stop offset="0.64" stop-color="#0B0B0B"/>
<stop offset="0.7" stop-color="#191919"/>
<stop offset="0.76" stop-color="#2E2E2E"/>
<stop offset="0.81" stop-color="#494949"/>
<stop offset="0.86" stop-color="#6A6A6A"/>
<stop offset="0.9" stop-color="#919191"/>
<stop offset="0.95" stop-color="#BEBEBE"/>
<stop offset="0.99" stop-color="#F0F0F0"/>
<stop offset="1" stop-color="white"/>
</linearGradient>
<linearGradient id="paint5_linear_6561_2930" x1="32.5452" y1="21.9151" x2="94.6667" y2="21.9151" gradientUnits="userSpaceOnUse">
<stop/>
<stop offset="0.07" stop-color="#B9B9B9"/>
<stop offset="0.41" stop-color="white"/>
<stop offset="0.69" stop-color="#A8A8A8"/>
<stop offset="0.81" stop-color="white"/>
<stop offset="0.83" stop-color="#EAEAEA"/>
<stop offset="0.87" stop-color="#B4B4B4"/>
<stop offset="0.94" stop-color="#5D5D5D"/>
<stop offset="1"/>
</linearGradient>
<radialGradient id="paint6_radial_6561_2930" cx="0" cy="0" r="1" gradientUnits="userSpaceOnUse" gradientTransform="translate(50.6053 21.8956) scale(18.5153 18.6111)">
<stop stop-color="white"/>
<stop offset="0.1" stop-color="#F9F9F9"/>
<stop offset="0.22" stop-color="#EAEAEA"/>
<stop offset="0.36" stop-color="#D2D2D2"/>
<stop offset="0.5" stop-color="#AFAFAF"/>
<stop offset="0.65" stop-color="#838383"/>
<stop offset="0.81" stop-color="#4C4C4C"/>
<stop offset="0.97" stop-color="#0D0D0D"/>
<stop offset="1"/>
</radialGradient>
<linearGradient id="paint7_linear_6561_2930" x1="34.8094" y1="21.9251" x2="75.9307" y2="21.9251" gradientUnits="userSpaceOnUse">
<stop/>
<stop offset="0.25" stop-color="white"/>
<stop offset="0.76" stop-color="white"/>
<stop offset="0.79" stop-color="#FAFAFA"/>
<stop offset="0.82" stop-color="#EEEEEE"/>
<stop offset="0.85" stop-color="#D8D8D8"/>
<stop offset="0.88" stop-color="#BBBBBB"/>
<stop offset="0.91" stop-color="#949494"/>
<stop offset="0.94" stop-color="#666666"/>
<stop offset="0.98" stop-color="#2F2F2F"/>
<stop offset="1"/>
</linearGradient>
<linearGradient id="paint8_linear_6561_2930" x1="54.8505" y1="6.1788" x2="54.8505" y2="37.2136" gradientUnits="userSpaceOnUse">
<stop stop-color="#272727"/>
<stop offset="0.04" stop-color="#444444"/>
<stop offset="0.08" stop-color="#585858"/>
<stop offset="0.11" stop-color="#646464"/>
<stop offset="0.15" stop-color="#696969"/>
<stop offset="0.89" stop-color="#707070"/>
<stop offset="0.91" stop-color="#6A6A6A"/>
<stop offset="0.94" stop-color="#5A5A5A"/>
<stop offset="0.97" stop-color="#404040"/>
<stop offset="1" stop-color="#1E1E1E"/>
</linearGradient>
<linearGradient id="paint9_linear_6561_2930" x1="0.351562" y1="21.9152" x2="33.2291" y2="21.9152" gradientUnits="userSpaceOnUse">
<stop/>
<stop offset="0.25" stop-color="white"/>
<stop offset="0.76" stop-color="white"/>
<stop offset="0.79" stop-color="#FAFAFA"/>
<stop offset="0.82" stop-color="#EEEEEE"/>
<stop offset="0.85" stop-color="#D8D8D8"/>
<stop offset="0.88" stop-color="#BBBBBB"/>
<stop offset="0.91" stop-color="#949494"/>
<stop offset="0.94" stop-color="#666666"/>
<stop offset="0.98" stop-color="#2F2F2F"/>
<stop offset="1"/>
</linearGradient>
<linearGradient id="paint10_linear_6561_2930" x1="80.3086" y1="21.9112" x2="99.9218" y2="21.9112" gradientUnits="userSpaceOnUse">
<stop stop-color="white"/>
<stop offset="0.45"/>
<stop offset="1" stop-color="white"/>
</linearGradient>
<clipPath id="clip0_6561_2930">
<rect width="100" height="44" fill="white" transform="matrix(1 0 0 -1 0 44)"/>
</clipPath>
</defs>
</svg>
