<svg width="100" height="22" viewBox="0 0 100 22" fill="none" xmlns="http://www.w3.org/2000/svg">
<g clip-path="url(#clip0_6560_2167)">
<path d="M46.935 12.7343L44.6093 15.0783H43.215V19.0901L40.8624 20.8982H36.6579L36.5969 21.2673L36.3385 21.6062L35.9114 21.8723H35.7804L35.7571 21.7623L35.714 21.7534L35.7302 21.8723H34.9047L34.867 21.7623L34.7845 21.7534L34.806 21.8723H33.7347L33.6845 21.7623L33.5804 21.7534L33.6037 21.8723H32.4409L32.387 21.7623L32.2812 21.7534L32.3045 21.8723H31.1076L31.0519 21.7623L30.9461 21.7534L30.9712 21.8723H29.7079L29.6504 21.7623L29.5374 21.7534L29.5607 21.8723H28.3494L28.2938 21.7623L28.2256 21.7534L28.2453 21.8723H27.1956L27.1471 21.7623L27.0915 21.7534L27.1094 21.8723H26.1853L25.559 21.6771L25.1965 21.4057C25.114 21.3063 25.0224 21.1129 25.0224 21.1129C25.017 21.0987 24.9381 20.845 24.9381 20.7225V18.1355L24.1916 19.5781H18.0167V20.7012H7.92808L2.74558 18.5489V17.4861H2.52485V14.3543H2.74558V13.5363C1.22743 13.5363 0 12.3227 0 10.8269C0 9.33107 1.22743 8.1174 2.74019 8.1174V7.29942H2.51947V4.16766H2.74019V3.48097L7.76657 1.32866H18.0113V2.55298H24.1037L24.9309 3.97248V2.3507V2.35248V1.27898C24.9309 1.17607 24.9524 1.07848 24.983 0.986212C24.9919 0.952499 25.1642 0.656179 25.1642 0.656179L25.4693 0.329695L26.0256 0.127417H26.1763L26.1655 0.267591L26.1817 0.264044L26.2265 0.127417H27.0987L27.0825 0.267591L27.1525 0.264044L27.2063 0.127417H28.2364L28.2166 0.267591L28.2992 0.264044L28.362 0.127417H29.5499L29.5284 0.267591L29.6576 0.264044L29.7222 0.127417H30.9622L30.9389 0.267591L31.0609 0.264044L31.1219 0.127417H32.2955L32.274 0.267591L32.396 0.264044L32.4552 0.127417H33.5947L33.5732 0.267591L33.6898 0.264044L33.7455 0.127417H34.797L34.7773 0.267591L34.8706 0.264044L34.9137 0.127417H35.723L35.7104 0.2463C35.7284 0.244526 35.7445 0.244524 35.7625 0.24275L35.7858 0.125643H35.915L36.3888 0.430834L36.4229 0.496485C36.4713 0.560362 36.6131 0.865555 36.6131 0.865555L36.6597 1.0838L36.6651 1.27188L36.6149 1.4369H40.8176L43.2168 3.28579V6.64113H44.6111L46.9368 9.0312C46.9368 9.0312 47.7174 9.77111 47.7174 10.8428C47.7174 11.9146 46.9368 12.7308 46.9368 12.7308L46.935 12.7343ZM1.92908 10.6618H0.69088C0.570649 10.6618 0.470158 10.7594 0.470158 10.8801C0.470158 11.0008 0.568855 11.0983 0.69088 11.0983H1.92908C2.04931 11.0983 2.1498 11.0008 2.1498 10.8801C2.1498 10.7594 2.05111 10.6618 1.92908 10.6618Z" fill="#231F20"/>
<path d="M46.9347 12.7202L44.609 15.0641H43.2147V19.076L40.8621 20.884H36.0816L36.0368 20.6622V18.1196H24.9342L24.1877 19.5621H18.0128V20.6622H7.9242L2.7417 18.5099V3.46505L7.76808 1.31274H18.0128V2.53705H24.1052L24.9324 3.95655H36.035V1.42452H40.8155L43.2147 3.27342V6.66246H44.609L46.9347 9.01882C46.9347 9.01882 47.7153 9.68954 47.7153 10.8447C47.7153 11.9998 46.9347 12.7184 46.9347 12.7184V12.7202Z" fill="#FBB040"/>
<path d="M0 10.8127C0 9.31515 1.22743 8.10325 2.74019 8.10325V13.524C1.22564 13.524 0 12.3103 0 10.8145V10.8127ZM2.1498 10.8642C2.1498 10.7453 2.05111 10.6459 1.92908 10.6459H0.69088C0.570649 10.6459 0.470158 10.7435 0.470158 10.8642C0.470158 10.9848 0.568855 11.0824 0.69088 11.0824H1.92908C2.04931 11.0824 2.1498 10.9848 2.1498 10.8642ZM2.74019 17.4719V14.3402H2.51947V17.4719H2.74019ZM2.52126 7.28527H2.74199V4.15351H2.52126V7.28527Z" fill="#231F20"/>
<path opacity="0.2" d="M17.3008 3.6229L16.2546 4.85254V10.967V17.0797L17.3008 18.3094H18.0114V20.687H7.92273L2.74023 18.5347V3.48982L7.76661 1.33751H18.0114V3.6229H17.3008Z" fill="white"/>
<path opacity="0.15" d="M37.3777 15.4969H18.645V6.42637H37.3777V15.4969Z" fill="url(#paint0_radial_6560_2167)"/>
<path opacity="0.2" d="M40.8537 14.0154H37.9609V7.54071H40.8537V14.0154Z" fill="white"/>
<path opacity="0.15" d="M44.3025 14.0154H42.8525V7.54071H44.3025V14.0154Z" fill="white"/>
<path opacity="0.2" d="M46.9351 9.07014L44.6094 6.63039H43.2151V15.064H44.6094L46.9351 12.6686C46.9351 12.6686 47.7157 11.9624 47.7157 10.8463C47.7157 9.73021 46.9351 9.07014 46.9351 9.07014ZM42.8526 14.0135H40.8535V7.53886H42.8526V14.0135Z" fill="#231F20"/>
<path d="M43.6063 13.8611C43.6063 13.8611 43.9329 13.8008 43.9329 13.5222C43.9329 13.2436 43.6063 13.1833 43.6063 13.1833H40.8535V13.8611H43.6063ZM40.8535 12.0991H43.6063C43.6063 12.0991 43.9329 12.0974 43.9329 12.4363C43.9329 12.7752 43.6063 12.7769 43.6063 12.7769H40.8535V12.0991ZM40.8535 11.015H43.6063C43.6063 11.015 43.9329 11.015 43.9329 11.3521C43.9329 11.6893 43.6063 11.691 43.6063 11.691H40.8535V11.0132V11.015ZM40.8535 9.93086H43.6063C43.6063 9.93086 43.9329 9.91311 43.9329 10.268C43.9329 10.6229 43.6063 10.6087 43.6063 10.6087H40.8535V9.93086ZM40.8535 8.84849H43.6063C43.6063 8.84849 43.9329 8.82365 43.9329 9.17852C43.9329 9.5334 43.6063 9.5263 43.6063 9.5263H40.8535V8.84849ZM40.8535 7.76435H43.6063C43.6063 7.76435 43.9329 7.76258 43.9329 8.10148C43.9329 8.44038 43.6063 8.44216 43.6063 8.44216H40.8535V7.76435Z" fill="#231F20"/>
<path opacity="0.35" d="M10.8584 8.10317C12.3717 8.10317 13.5985 9.31624 13.5985 10.8126C13.5985 12.309 12.3717 13.5221 10.8584 13.5221C9.34499 13.5221 8.11816 12.309 8.11816 10.8126C8.11816 9.31624 9.34499 8.10317 10.8584 8.10317Z" fill="white"/>
<path opacity="0.35" d="M10.8584 8.98861C11.8772 8.98861 12.7032 9.80527 12.7032 10.8127C12.7032 11.8201 11.8772 12.6367 10.8584 12.6367C9.83959 12.6367 9.01367 11.8201 9.01367 10.8127C9.01367 9.80527 9.83959 8.98861 10.8584 8.98861Z" fill="white"/>
<path opacity="0.1" d="M16.2547 16.7231H3.72559V15.1599H16.2547V16.7231Z" fill="black"/>
<path opacity="0.1" d="M16.2547 6.64111H3.72559V5.07789H16.2547V6.64111Z" fill="black"/>
<path opacity="0.5" d="M40.8535 13.1583L40.8481 13.8503L43.6458 13.868C43.6458 13.868 43.9275 13.8556 43.9275 13.5203C43.9275 13.1849 43.6494 13.176 43.6494 13.176L40.8517 13.1583H40.8535Z" fill="url(#paint1_linear_6560_2167)"/>
<path opacity="0.5" d="M40.8535 12.0813L40.8481 12.7733L43.6458 12.791C43.6458 12.791 43.9275 12.7697 43.9275 12.4344C43.9275 12.099 43.6494 12.099 43.6494 12.099L40.8517 12.0813H40.8535Z" fill="url(#paint2_linear_6560_2167)"/>
<path opacity="0.5" d="M40.855 11.006L40.8496 11.698L43.6472 11.7157C43.6472 11.7157 43.929 11.7033 43.929 11.359C43.929 11.0148 43.6508 11.0237 43.6508 11.0237L40.8532 11.006H40.855Z" fill="url(#paint3_linear_6560_2167)"/>
<path opacity="0.5" d="M40.855 9.91476L40.8496 10.6068L43.6472 10.6245C43.6472 10.6245 43.929 10.6032 43.929 10.2679C43.929 9.93251 43.6508 9.93251 43.6508 9.93251L40.8532 9.91476H40.855Z" fill="url(#paint4_linear_6560_2167)"/>
<path opacity="0.5" d="M40.8569 8.82187L40.8516 9.51387L43.6492 9.53162C43.6492 9.53162 43.9309 9.52807 43.9309 9.17497C43.9309 8.82187 43.6528 8.83961 43.6528 8.83961L40.8552 8.82187H40.8569Z" fill="url(#paint5_linear_6560_2167)"/>
<path opacity="0.5" d="M40.8569 7.74655L40.8516 8.43856L43.6492 8.4563C43.6492 8.4563 43.9309 8.45098 43.9309 8.10852C43.9309 7.76607 43.6528 7.76429 43.6528 7.76429L40.8552 7.74655H40.8569Z" fill="url(#paint6_linear_6560_2167)"/>
<path opacity="0.25" d="M21.2649 19.1558V16.4002H23.6246V19.1558H21.2649ZM23.6246 2.9256V5.6812H21.2649V2.9256H23.6246ZM40.2345 17.7789H37.4476V15.4456H40.2345V17.7789ZM40.2345 6.35723H37.4476V4.02394H40.2345V6.35723ZM18.6934 19.1558V16.4002H21.0531V19.1558H18.6934ZM21.0549 2.9256V5.6812H18.6952V2.9256H21.0549Z" fill="white"/>
<path d="M21.6648 16.8917H21.776V17.935H23.0483V16.8917H23.1829V18.8843H21.6648V16.8917ZM22.5656 18.7654V18.2082H22.9012V18.1213H21.8729V18.2082H22.1941V18.7654H22.5674H22.5656ZM23.2242 5.18969H23.1129V4.14637H21.8406V5.18969H21.706V3.19708H23.2242V5.18969ZM22.3234 3.31596V3.87311H21.9878V3.96006H23.016V3.87311H22.6948V3.31596H22.3216H22.3234ZM37.9444 17.3832V17.2731H38.9996V16.0151H37.9444V15.882H39.9596V17.3832H37.9444ZM39.8412 16.4924H39.2777V16.1606H39.1898V17.1773H39.2777V16.8597H39.8412V16.4907V16.4924ZM37.9444 5.96154V5.85153H38.9996V4.59351H37.9444V4.46043H39.9596V5.96154H37.9444ZM39.8412 5.07081H39.2777V4.73901H39.1898V5.75572H39.2777V5.43811H39.8412V5.06904V5.07081ZM19.0933 16.8917H19.2045V17.935H20.4768V16.8917H20.6114V18.8843H19.0933V16.8917ZM19.9941 18.7654V18.2082H20.3297V18.1213H19.3014V18.2082H19.6226V18.7654H19.9959H19.9941ZM20.6545 5.18969H20.5432V4.14637H19.2709V5.18969H19.1363V3.19708H20.6545V5.18969ZM19.7536 3.31596V3.87311H19.4181V3.96006H20.4463V3.87311H20.1251V3.31596H19.7518H19.7536Z" fill="#231F20"/>
<path opacity="0.25" d="M43.2133 19.028H36.0264V20.8857L40.8159 20.8751L43.2151 19.0298L43.2133 19.028ZM40.8141 1.54511H36.0264V3.23077H43.1379L40.8141 1.54511Z" fill="white"/>
<path opacity="0.15" d="M40.8535 13.1833V13.8611H41.2698C41.2698 13.8611 41.0617 13.7475 41.0617 13.5222C41.0617 13.2968 41.2698 13.1833 41.2698 13.1833H40.8535ZM41.2698 12.0991C41.2698 12.0991 41.0617 12.2127 41.0617 12.438C41.0617 12.6634 41.2698 12.7769 41.2698 12.7769H40.8535V12.0991H41.2698ZM41.2698 11.015C41.2698 11.015 41.0617 11.1286 41.0617 11.3539C41.0617 11.5792 41.2698 11.6928 41.2698 11.6928H40.8535V11.015H41.2698ZM41.2698 9.93086C41.2698 9.93086 41.0617 10.0444 41.0617 10.2698C41.0617 10.4951 41.2698 10.6087 41.2698 10.6087H40.8535V9.93086H41.2698ZM41.2698 8.83962C41.2698 8.83962 41.0617 8.95318 41.0617 9.17852C41.0617 9.40387 41.2698 9.51743 41.2698 9.51743H40.8535V8.83962H41.2698ZM41.2698 7.76435C41.2698 7.76435 41.0617 7.87791 41.0617 8.10325C41.0617 8.3286 41.2698 8.44216 41.2698 8.44216H40.8535V7.76435H41.2698Z" fill="black"/>
<path opacity="0.2" d="M39.8954 13.5221H38.9533C38.5975 13.5221 38.3091 13.2369 38.3091 12.8851V8.61064C38.3091 8.25884 38.5975 7.97364 38.9533 7.97364H39.8954C40.2512 7.97364 40.5396 8.25884 40.5396 8.61064V12.8851C40.5396 13.2369 40.2512 13.5221 39.8954 13.5221Z" fill="white"/>
<path opacity="0.35" d="M29.8838 6.63051H24.4536L22.0347 7.83531V13.6783L24.4536 15.1138H29.8838V11.542L29.3993 10.8854L29.8838 10.2289V6.63051ZM36.4606 13.5239L34.9801 15.1138H30.0202V11.542L29.5357 10.8854L30.0202 10.2289V6.63051H34.9801L36.4606 8.20437V13.5239Z" fill="white"/>
<path d="M35.6188 15.9423V15.9778C35.6188 16.1925 35.6224 16.5527 35.3712 16.8011C35.2079 16.9626 34.9692 17.046 34.6587 17.046H32.0155C31.513 17.046 31.2187 16.8614 31.129 16.503H30.779C30.7432 16.6095 30.6857 16.7124 30.596 16.8029C30.4327 16.9643 30.194 17.0477 29.8836 17.0477H27.2403C26.763 17.0477 26.4723 16.8809 26.3682 16.558H25.6019C24.8106 16.558 24.5091 16.3894 24.2417 16.2404C24.0389 16.1268 23.8792 16.0381 23.5006 16.0381C22.5836 16.0381 20.2095 16.0186 19.8595 16.0133C19.7268 16.0133 19.6137 15.9654 19.5329 15.8766C19.3786 15.7116 19.3876 15.4774 19.3894 15.449L19.6998 15.4543C19.6998 15.4827 19.7034 15.6069 19.7608 15.6655C19.7752 15.6815 19.8039 15.7028 19.8649 15.7028C20.2149 15.7081 22.5872 15.7276 23.5024 15.7276C23.9618 15.7276 24.1825 15.85 24.396 15.9689C24.6401 16.1055 24.8931 16.2457 25.6019 16.2457H26.3215V15.9689C25.6432 15.9636 25.051 15.9583 24.8913 15.9565C24.7585 15.9565 24.6455 15.9086 24.5647 15.8199C24.4104 15.6548 24.4194 15.4739 24.4212 15.4455L24.7334 15.4419C24.7334 15.4703 24.7352 15.5502 24.7926 15.6105C24.807 15.6265 24.8357 15.6478 24.8967 15.6478C25.0564 15.6495 25.6468 15.6548 26.3233 15.6602V15.4419H26.6338V15.6619C27.348 15.6673 28.1017 15.6708 28.5341 15.6708C28.692 15.6708 28.8195 15.6868 28.9307 15.7099C28.9487 15.5981 28.9469 15.4898 28.9433 15.4437H29.2519C29.2573 15.5235 29.2591 15.6531 29.2286 15.8092C29.2986 15.8412 29.3632 15.8766 29.4278 15.9121C29.6593 16.0417 29.9033 16.173 30.5278 16.1872C30.535 16.1109 30.5368 16.0363 30.5368 15.9742V15.937V15.4437H30.8472V15.937V15.9725C30.8472 16.0346 30.8472 16.1091 30.8419 16.1889H31.0985V15.4402H31.4089V16.1889H33.3452C33.5426 16.1889 33.6933 16.1339 33.7974 16.0239C33.9858 15.8234 33.9804 15.5395 33.9732 15.4437H34.2801C34.2927 15.6034 34.2909 15.9494 34.0235 16.2333C33.8584 16.409 33.6305 16.4977 33.3434 16.4977H31.4538C31.522 16.6449 31.6781 16.7337 32.0155 16.7337H34.6587C34.8831 16.7337 35.0481 16.6822 35.1504 16.5793C35.3101 16.4196 35.3101 16.1517 35.3083 15.9742V15.937V15.4472H35.6188V15.937V15.9423ZM28.5305 15.9813C28.0999 15.9813 27.3444 15.9778 26.6302 15.9725V16.2475H28.3116C28.509 16.2475 28.6597 16.1925 28.7638 16.0825C28.7854 16.0594 28.8051 16.0328 28.823 16.0062C28.7405 15.992 28.6472 15.9813 28.5305 15.9813ZM29.2717 16.1836C29.2196 16.1552 29.1712 16.1286 29.1227 16.1038C29.0886 16.1694 29.0474 16.2333 28.9917 16.2901C28.8266 16.4657 28.5987 16.5545 28.3116 16.5545H26.7073C26.7881 16.668 26.9442 16.7372 27.2385 16.7372H29.8818C30.1061 16.7372 30.2712 16.6858 30.3735 16.5828C30.3986 16.558 30.4148 16.5261 30.4327 16.4941C29.7903 16.4675 29.5139 16.3185 29.2699 16.1818L29.2717 16.1836Z" fill="#231F20"/>
<path opacity="0.2" d="M25.6 16.4586H26.3394C26.3358 16.4373 26.3304 16.4089 26.3268 16.3823H25.6C24.8607 16.3823 24.5826 16.2262 24.3367 16.0895C24.1268 15.9724 23.9294 15.8624 23.5005 15.8624C22.5853 15.8624 20.2112 15.8429 19.8612 15.8376C19.7823 15.8376 19.7195 15.811 19.6728 15.7631C19.5705 15.6548 19.5777 15.4543 19.5795 15.4508H19.5041C19.5041 15.4596 19.4934 15.6832 19.6172 15.8145C19.6782 15.8784 19.7608 15.9121 19.8612 15.9139C20.2112 15.9192 22.5853 15.9387 23.5005 15.9387C23.9096 15.9387 24.0909 16.0399 24.299 16.1552C24.5539 16.2971 24.841 16.4568 25.6018 16.4568L25.6 16.4586ZM29.8835 16.8561C30.1401 16.8561 30.3321 16.7922 30.4577 16.668C30.5062 16.6201 30.5385 16.5651 30.5654 16.5083H30.648C30.6174 16.5846 30.578 16.6591 30.5134 16.723C30.3734 16.8632 30.1616 16.9324 29.8835 16.9324H27.2402C26.7952 16.9324 26.5421 16.778 26.465 16.4693L26.4452 16.3663C26.4399 16.3291 26.4363 16.2918 26.4363 16.2492V15.4472H26.5134V16.2492C26.5134 16.2954 26.517 16.3397 26.5224 16.3805L26.5439 16.4675C26.6157 16.7319 26.8364 16.8561 27.2384 16.8561H29.8817H29.8835ZM24.6472 15.7613C24.5233 15.63 24.5341 15.4543 24.5341 15.4455H24.6131C24.6131 15.4774 24.6023 15.5998 24.7046 15.7081C24.7494 15.756 24.8141 15.7826 24.893 15.7826C25.0545 15.7844 25.6449 15.7897 26.3214 15.795V15.8713C25.6431 15.866 25.0527 15.8607 24.8912 15.8589C24.7907 15.8589 24.7082 15.8234 24.6472 15.7595V15.7613ZM28.5304 15.8855C28.0998 15.8855 27.3443 15.8819 26.6301 15.8766V15.8003C27.3443 15.8056 28.098 15.8092 28.5304 15.8092C28.674 15.8092 28.7889 15.8216 28.8893 15.8429L28.8624 15.9157C28.7691 15.8979 28.6632 15.8855 28.5304 15.8855ZM35.5021 15.944V15.9795C35.5021 16.1765 35.5039 16.5065 35.2867 16.7212C35.1468 16.8614 34.935 16.9306 34.6569 16.9306H32.0136C31.5865 16.9306 31.3352 16.7904 31.2473 16.5065H31.3263C31.4088 16.7443 31.6295 16.8543 32.0118 16.8543H34.6551C34.9117 16.8543 35.1037 16.7904 35.2293 16.6662C35.4231 16.4728 35.4231 16.1747 35.4213 15.9778V15.9423V15.4508H35.4985V15.9423L35.5021 15.944ZM33.3433 16.4036H31.3998H30.5959C29.8656 16.3983 29.5802 16.2421 29.3308 16.102C29.2734 16.07 29.2177 16.0416 29.1585 16.0132L29.189 15.9423C29.2518 15.9707 29.3111 16.0026 29.3685 16.0345C29.6036 16.1658 29.8727 16.3113 30.5385 16.3238H30.5959C30.6067 16.3238 30.6157 16.3238 30.6264 16.3238H30.7036H31.2168H31.294H33.3415C33.5712 16.3238 33.7524 16.2563 33.8798 16.1215C34.1006 15.8873 34.0952 15.5466 34.0862 15.4401H34.1652C34.1741 15.5555 34.1795 15.9157 33.9373 16.1747C33.7955 16.3255 33.5945 16.4018 33.3433 16.4018V16.4036ZM31.2114 16.2049V15.4472H31.2886V16.2049H31.2114ZM30.7179 16.2049H30.6408C30.648 16.125 30.6497 16.047 30.6497 15.9813V15.9458V15.449H30.7269V15.9458V15.9813C30.7269 16.0452 30.7251 16.1233 30.7179 16.2049ZM29.0562 15.9866C29.0221 16.0736 28.9773 16.1587 28.9073 16.2315C28.7655 16.3823 28.5645 16.4586 28.3133 16.4586H26.6642L26.6391 16.3823H28.3151C28.5448 16.3823 28.726 16.3149 28.8535 16.18C28.9181 16.1108 28.9629 16.0292 28.9934 15.9476L29.0293 15.8252C29.0652 15.6726 29.0634 15.5093 29.0598 15.4508H29.137C29.1424 15.52 29.1442 15.7045 29.0957 15.8837L29.058 15.9902L29.0562 15.9866Z" fill="white"/>
<path d="M35.6187 6.36784H35.3083V5.87989V5.84262C35.3083 5.66519 35.3101 5.39548 35.1504 5.23756C35.0481 5.13642 34.883 5.08319 34.6587 5.08319H32.0154C31.6762 5.08319 31.5201 5.17191 31.4537 5.31918H33.3433C33.6304 5.31918 33.8583 5.4079 34.0234 5.58357C34.2908 5.86747 34.2908 6.21347 34.28 6.37494H33.9732C33.9804 6.27735 33.9857 5.99345 33.7973 5.79294C33.6932 5.68293 33.5407 5.62793 33.3451 5.62793H31.4088V6.37671H31.0984V5.62793H30.8418C30.8472 5.70777 30.8472 5.7823 30.8472 5.8444V5.87989V6.37316H30.5367V5.87989V5.84262C30.5367 5.78052 30.5349 5.706 30.5277 5.6297C29.9033 5.64389 29.6592 5.7752 29.4277 5.90473C29.3649 5.94021 29.3003 5.9757 29.2285 6.00764C29.259 6.16379 29.2572 6.29331 29.2519 6.37316H28.9432C28.9468 6.32703 28.9486 6.21879 28.9306 6.10701C28.8194 6.13007 28.692 6.14604 28.5341 6.14604C28.1034 6.14604 27.3479 6.14959 26.6337 6.15491V6.37494H26.3232V6.15669C25.6467 6.16201 25.0581 6.16733 24.8966 6.16911C24.8356 6.16911 24.8087 6.1904 24.7925 6.20637C24.7369 6.2667 24.7315 6.34655 24.7333 6.37494L24.4211 6.37139C24.4211 6.343 24.4085 6.16201 24.5646 5.99699C24.6472 5.91005 24.7602 5.86214 24.8912 5.86037C25.0527 5.85859 25.6431 5.85327 26.3215 5.84795V5.57115H25.6019C24.893 5.57115 24.64 5.7131 24.396 5.84795C24.1824 5.96683 23.9617 6.08926 23.5023 6.08926C22.5871 6.08926 20.2148 6.10878 19.8649 6.1141C19.8038 6.1141 19.7769 6.1354 19.7608 6.15136C19.7052 6.21169 19.698 6.3359 19.6998 6.36252L19.3893 6.36784C19.3893 6.33945 19.3786 6.10523 19.5329 5.94021C19.6154 5.85327 19.7285 5.80536 19.8595 5.80359C20.2094 5.79827 22.5853 5.77875 23.5005 5.77875C23.8791 5.77875 24.0389 5.69003 24.2416 5.57647C24.5072 5.42742 24.8105 5.25886 25.6019 5.25886H26.3681C26.474 4.93415 26.7647 4.76913 27.2402 4.76913H29.8835C30.194 4.76913 30.4326 4.85075 30.5959 5.01399C30.6857 5.10271 30.7431 5.2074 30.779 5.31386H31.1289C31.2186 4.95544 31.5147 4.77091 32.0154 4.77091H34.6587C34.9691 4.77091 35.2078 4.85253 35.3711 5.01577C35.6223 5.26595 35.6205 5.62438 35.6205 5.83908V5.87456V6.36252L35.6187 6.36784ZM28.823 5.81423C28.805 5.78762 28.7871 5.76278 28.7638 5.73794C28.6597 5.62793 28.5071 5.57292 28.3115 5.57292H26.6301V5.84795C27.3443 5.84262 28.098 5.83908 28.5305 5.83908C28.6471 5.83908 28.7404 5.8302 28.823 5.81423ZM30.4344 5.32451C30.4165 5.29434 30.4003 5.2624 30.3752 5.23579C30.2729 5.13465 30.1078 5.08142 29.8835 5.08142H27.2402C26.9459 5.08142 26.7898 5.14885 26.7091 5.26418H28.3133C28.6005 5.26418 28.8284 5.3529 28.9935 5.52856C29.0473 5.58711 29.0886 5.65099 29.1245 5.71487C29.1747 5.69003 29.2232 5.66341 29.2734 5.63502C29.5157 5.50017 29.792 5.34935 30.4362 5.32273L30.4344 5.32451Z" fill="#231F20"/>
<path opacity="0.2" d="M24.299 5.66519C24.0909 5.7823 23.9096 5.88166 23.5005 5.88166C22.5853 5.88166 20.2094 5.90118 19.8612 5.9065C19.7608 5.9065 19.6782 5.94199 19.6172 6.00587C19.4934 6.13717 19.5041 6.36074 19.5041 6.36961H19.5795C19.5795 6.36961 19.5723 6.16556 19.6728 6.05732C19.7177 6.00942 19.7823 5.9828 19.8612 5.9828C20.2112 5.97748 22.5853 5.95796 23.5005 5.95796C23.9294 5.95796 24.1286 5.84795 24.3367 5.73084C24.5826 5.59421 24.8607 5.43807 25.6 5.43807H26.3268C26.3304 5.41145 26.334 5.38306 26.3394 5.36177H25.6C24.8392 5.36177 24.5521 5.52324 24.2972 5.66341L24.299 5.66519ZM27.2402 4.96431C26.8382 4.96431 26.6175 5.08852 26.5457 5.3529L26.5242 5.43984C26.5188 5.48065 26.5152 5.52324 26.5152 5.57115V6.37316H26.4381V5.57115C26.4381 5.53034 26.4417 5.4913 26.447 5.45404L26.4668 5.35112C26.5439 5.04238 26.797 4.88801 27.242 4.88801H29.8853C30.1634 4.88801 30.3752 4.95899 30.5152 5.09739C30.5798 5.16127 30.6192 5.23579 30.6497 5.31209H30.5672C30.5403 5.25531 30.508 5.2003 30.4595 5.1524C30.3339 5.02819 30.1401 4.96431 29.8853 4.96431H27.242H27.2402ZM24.8912 5.95973C25.0527 5.95796 25.6431 5.95263 26.3214 5.94731V6.02361C25.6431 6.02893 25.0527 6.03426 24.893 6.03603C24.8141 6.03603 24.7512 6.06265 24.7046 6.11055C24.6023 6.21879 24.6131 6.34122 24.6131 6.37494H24.5341C24.5341 6.36429 24.5233 6.1904 24.6472 6.0591C24.7082 5.99522 24.7907 5.96151 24.8912 5.95973ZM28.8624 5.9065L28.8893 5.97925C28.7889 6.00054 28.674 6.01296 28.5305 6.01296C28.0998 6.01296 27.3443 6.01651 26.6301 6.02184V5.94554C27.3443 5.94021 28.098 5.93667 28.5305 5.93667C28.6632 5.93667 28.7691 5.92602 28.8624 5.9065ZM35.5021 6.36784H35.4249V5.87634V5.84085C35.4249 5.64389 35.4267 5.3458 35.2329 5.1524C35.1073 5.02819 34.9135 4.96431 34.6587 4.96431H32.0154C31.6313 4.96431 31.4124 5.07432 31.3299 5.31209H31.2509C31.3388 5.02819 31.5901 4.88801 32.0172 4.88801H34.6604C34.9386 4.88801 35.1503 4.95899 35.2903 5.09739C35.5074 5.31386 35.5057 5.64212 35.5057 5.83908V5.87456V6.36606L35.5021 6.36784ZM33.9373 5.64212C34.1795 5.8994 34.1741 6.26137 34.1652 6.37671H34.0862C34.0934 6.27025 34.1006 5.92957 33.8798 5.69535C33.7542 5.5605 33.573 5.49307 33.3415 5.49307H31.294H31.2168H30.7036H30.6264C30.6157 5.49307 30.6067 5.49307 30.5959 5.49307H30.5385C29.8727 5.50727 29.6036 5.65454 29.3685 5.78407C29.3093 5.81601 29.25 5.84795 29.189 5.87634L29.1585 5.80536C29.2177 5.77697 29.2734 5.74858 29.3308 5.71664C29.5802 5.57824 29.8656 5.42032 30.5959 5.415H31.3998H33.3433C33.5963 5.415 33.7955 5.4913 33.9373 5.64212ZM31.2904 5.61551V6.37316H31.2132V5.61551H31.2904ZM30.7269 5.84085V5.87634V6.37316H30.6497V5.87634V5.84085C30.6497 5.7752 30.648 5.69713 30.6408 5.61728H30.7179C30.7251 5.6989 30.7269 5.77875 30.7269 5.84085ZM29.0921 5.94021C29.1406 6.11943 29.1388 6.30396 29.1334 6.37316H29.0562C29.0598 6.31283 29.0616 6.15136 29.0257 5.99877C29.0257 5.99877 28.988 5.87634 28.9898 5.87634C28.9593 5.79294 28.9145 5.7131 28.8499 5.64389C28.7243 5.50904 28.543 5.44162 28.3115 5.44162H26.6355L26.6606 5.36532H28.3097C28.5627 5.36532 28.7619 5.44162 28.9037 5.59244C28.9737 5.66519 29.0186 5.75036 29.0526 5.8373L29.0903 5.94376L29.0921 5.94021Z" fill="white"/>
<path d="M2.69723 13.1583C1.41597 13.1583 0.376953 12.131 0.376953 10.8641C0.376953 9.59717 1.41597 8.56981 2.69723 8.56981C2.71159 8.56981 2.72595 8.57158 2.7403 8.57158V13.1548C2.72595 13.1548 2.71159 13.1566 2.69723 13.1566V13.1583ZM1.92919 10.6476H0.69099C0.570759 10.6476 0.470267 10.7452 0.470267 10.8658C0.470267 10.9865 0.568964 11.0841 0.69099 11.0841H1.92919C2.04942 11.0841 2.14991 10.9865 2.14991 10.8658C2.14991 10.7452 2.05122 10.6476 1.92919 10.6476Z" fill="url(#paint7_radial_6560_2167)"/>
<path opacity="0.3" d="M4.52952 9.91477H7.68604C7.68604 9.91477 7.48685 10.2696 7.48685 10.8126C7.48685 11.3556 7.68604 11.8719 7.68604 11.8719H4.52952L3.72559 15.0871H15.964V6.60558H3.72559L4.52952 9.91477ZM8.11671 19.7572L3.72559 18.0094V16.723H13.0928V18.6234H16.8631V19.7572H8.11851H8.11671ZM13.0911 5.07784H3.72559V3.79142L8.11671 2.04367H16.8613V3.17749H13.0911V5.07784Z" fill="white"/>
<path d="M26.0274 0.114902L25.9897 0.121999C25.4245 0.219589 24.983 0.673828 24.9346 1.23808C24.9346 1.24872 24.9346 1.25937 24.9346 1.26647V3.95996H36.0371V1.42793H36.78C36.7549 1.07306 36.6795 0.350893 35.9169 0.116676" fill="#171717"/>
<path d="M35.9653 21.8386L35.9097 21.8617H26.1297C25.4909 21.8617 24.9597 21.3666 24.9346 20.7367C24.9346 20.7261 24.9346 20.7172 24.9346 20.7119V18.1249H36.0371L36.082 20.8893H36.6149C36.6149 21.3081 36.3583 21.6843 35.9671 21.8422L35.9653 21.8386Z" fill="#171717"/>
<path d="M46.73 5.28362V5.28007L48.9067 3.03549H50.9022V1.84844L54.8034 0.231987V0.0066433H62.4067V0.132624H62.561L62.5395 0.272799L62.6615 0.269249L62.7207 0.132624H63.8602L63.8387 0.272799L63.9553 0.269249L64.011 0.132624H65.0625L65.0428 0.272799L65.1361 0.269249L65.1792 0.132624H65.9885L65.9759 0.255053C65.9939 0.253279 66.01 0.253279 66.028 0.251505L66.0513 0.130848H66.1805L66.6543 0.436039L66.8804 0.87076L66.927 1.08901L66.9324 1.27532C66.9324 1.27532 66.9324 1.28241 66.9324 1.28596L66.9162 1.32323L66.8624 1.48292L67.0024 2.32929V3.25729L66.8786 3.97236L66.9306 4.13383L66.9198 4.35385L66.8606 4.66791L66.6022 5.00681L66.1751 5.27297H66.0441L66.0208 5.16296L65.9777 5.15409L65.9939 5.27297H65.1684L65.1307 5.16296L65.0482 5.15409L65.0697 5.27297H63.9984L63.9482 5.16296L63.8441 5.15409L63.8674 5.27297H62.7046L62.6507 5.16296L62.5449 5.15409L62.5682 5.27297L62.3277 5.27652V5.88158L65.2402 6.63569V5.87448H67.7076V4.22077H67.1621V1.78456H69.6403V4.22077H68.7233V5.87448H70.2971V9.53323H70.5501V9.65389H88.7032V10.046H88.7768V9.25466H93.1033L93.0997 8.58927L94.39 8.60346V7.25494H95.2495V8.55201L97.3724 8.55378V9.25288H98.5765V7.8529H99.2943V9.25288H100.001V12.7519H97.3724V13.5522H93.1248V12.7519H88.7768V11.8683H88.7032V12.3527H70.5501V12.4272H70.2971V16.4H68.7233V18.2081H69.6403V20.6621H67.1621V18.2117H67.7076V16.4018H65.2402V15.3407L62.3277 16.0949V16.7354H62.5628L62.5413 16.8756L62.6633 16.872L62.7225 16.7354H63.862L63.8405 16.8756L63.9571 16.872L64.0128 16.7354H65.0643L65.0446 16.8756L65.1379 16.872L65.181 16.7354H65.9903L65.9777 16.8543C65.9957 16.8525 66.0118 16.8525 66.0298 16.8507L66.0531 16.7336H66.1823L66.656 17.0388L66.8822 17.4735L66.9288 17.6918L66.9342 17.8781C66.9342 17.8781 66.9342 17.8816 66.9342 17.8834L66.9252 17.9065L66.866 18.0857L67.006 18.9321V19.8601L66.8822 20.5751L66.9342 20.7366L66.9234 20.9566L66.8642 21.2707L66.6058 21.6096L66.1787 21.8757H66.0477L66.0244 21.7657L65.9813 21.7569L65.9975 21.8757H65.172L65.1343 21.7657L65.0518 21.7569L65.0733 21.8757H64.002L63.9517 21.7657L63.8477 21.7569L63.871 21.8757H62.4121V21.9946H54.8088V21.7906L50.9076 20.1741V19.0545H48.9121L46.7354 16.3787V5.27652L46.73 5.28362ZM61.2259 16.7372L61.2026 16.8773L61.3246 16.8738L61.3856 16.7372H61.2259ZM93.4658 13.5593H93.464V13.7651H93.4658V13.7828H94.1405V13.978V13.9958H96.2329V13.7828H96.9094V13.5593H93.4658Z" fill="#231F20"/>
<path d="M97.3706 12.7414V13.5416H93.123V12.7414H88.775V11.1923H88.7014V12.3404H70.5483V12.4149H70.2953V16.3842H68.7215V18.1976H69.6385V20.648H67.1603V18.1976H67.7058V16.3842H65.2384V12.4149H62.2847L60.788 14.0686V16.0612L59.767 19.0493H62.4067V21.9858H54.8034V21.7818L50.9022 20.1653V19.0457H48.9067L46.73 16.37V5.26595L48.9067 3.02138H50.9022V1.87159L54.8034 0.255135V0.0067234H62.4067V3.05864H60.2371L60.7898 6.10701V7.85831L62.2954 9.52267H65.2384V5.88166H67.7058V4.22263H67.1603V1.77222H69.6385V4.22263H68.7215V5.88166H70.2953V9.52267H70.5483V9.64332H88.7014V10.8002H88.775V9.24409H93.1015L93.0979 8.5929L94.3882 8.58225V7.24438H95.2477V8.57338L97.3706 8.55741V9.24232H98.5837V7.84234H99.2907V9.24232L99.9655 9.24941V12.7485L97.3688 12.7414H97.3706ZM61.7014 10.1401C61.2151 10.1401 60.8221 10.5287 60.8221 11.0096C60.8221 11.4904 61.2151 11.879 61.7014 11.879C62.1878 11.879 62.5807 11.4904 62.5807 11.0096C62.5807 10.5287 62.1878 10.1401 61.7014 10.1401ZM99.1525 10.9439H97.3365V10.7771H97.0673C96.9471 10.3477 96.5487 10.0319 96.075 10.0319C95.5061 10.0319 95.045 10.4879 95.045 11.0504C95.045 11.6129 95.5061 12.0689 96.075 12.0689C96.5308 12.0689 96.9148 11.7761 97.0512 11.3716H97.3347V11.1959H99.1508C99.2207 11.1959 99.2782 11.1391 99.2782 11.0699C99.2782 11.0007 99.2207 10.9439 99.1508 10.9439H99.1525Z" fill="#FBB040"/>
<path opacity="0.35" d="M48.9067 19.0457L46.73 16.3699V5.26945L48.9067 3.0231H58.3834L59.7149 5.95791V16.0825L58.3834 19.0457H48.9067Z" fill="url(#paint8_radial_6560_2167)"/>
<path d="M65.237 12.4166H62.2833L60.7866 14.0703V16.063L60.5605 16.723H62.3227V16.0825L65.2352 15.3284V12.4166H65.237ZM65.237 9.52086H62.294L60.7884 7.8565V6.1052L60.6359 5.26592H62.3245V5.87098L65.237 6.62508V9.52263V9.52086ZM60.8225 11.0078C60.8225 10.5269 61.2155 10.1383 61.7018 10.1383C62.1882 10.1383 62.5811 10.5269 62.5811 11.0078C62.5811 11.4886 62.1882 11.8772 61.7018 11.8772C61.2155 11.8772 60.8225 11.4886 60.8225 11.0078Z" fill="#231F20"/>
<path opacity="0.1" d="M70.2937 16.3895H65.2368V12.4167H70.2937V16.3895Z" fill="#231F20"/>
<path opacity="0.1" d="M70.2937 9.52087H65.2368V5.86212H70.2937V9.52087Z" fill="#231F20"/>
<path opacity="0.5" d="M68.7199 18.1976H67.7114V16.3895H68.7199V18.1976Z" fill="url(#paint9_linear_6560_2167)"/>
<path opacity="0.5" d="M62.2848 16.0825H60.8223V16.723H62.2848V16.0825ZM62.2848 5.90647H60.8223V5.26592H62.2848V5.90647Z" fill="url(#paint10_linear_6560_2167)"/>
<path opacity="0.5" d="M65.1472 14.1271H60.8225V15.3319H65.1472V14.1271ZM65.1472 7.86181H60.7866L60.8207 6.65702H65.1455V7.86181H65.1472Z" fill="url(#paint11_linear_6560_2167)"/>
<path opacity="0.5" d="M65.0519 13.6889H61.348L61.0376 13.9622H65.0519V13.6889ZM65.0519 8.29837H61.348L61.0376 8.02512H65.0519V8.29837Z" fill="url(#paint12_linear_6560_2167)"/>
<path opacity="0.5" d="M65.0521 13.2152H61.6587V13.4884H65.0521V13.2152ZM65.0521 13.1016H61.9709V12.8283H65.0521V13.1016ZM65.0521 8.7739H61.7018V8.50065H65.0521V8.7739ZM65.0521 9.15894H62.0427V8.88569H65.0521V9.15894Z" fill="url(#paint13_linear_6560_2167)"/>
<path opacity="0.5" d="M68.7199 5.87451H67.7114V4.24032H68.7199V5.87451Z" fill="url(#paint14_linear_6560_2167)"/>
<path opacity="0.25" d="M88.5491 9.82076H85.7622V12.1541H88.5491V9.82076Z" fill="white"/>
<path d="M86.2593 11.7601V11.6501H87.3144V10.3921H86.2593V10.259H88.2745V11.7601H86.2593ZM88.1561 10.8694H87.5926V10.5376H87.5047V11.5543H87.5926V11.2367H88.1561V10.8676V10.8694Z" fill="#231F20"/>
<path opacity="0.3" d="M63.0671 10.9687C63.0671 11.6803 62.2847 12.4166 62.2847 12.4166H62.6795C62.6795 12.4166 63.4367 11.7406 63.4367 10.9687C63.4367 10.1969 62.7064 9.52085 62.7064 9.52085H62.2936C62.2936 9.52085 63.0671 10.2572 63.0671 10.9687Z" fill="black"/>
<path d="M76.9207 12.1186H62.5791V12.2268H76.9207V12.1186ZM76.9207 9.83496H62.5791V9.72672H76.9207V9.83496Z" fill="#231F20"/>
<path opacity="0.5" d="M68.6805 18.8345H68.0237L67.8496 19.1415V19.4537V19.7643L68.0237 20.073H68.6805V19.4537V18.8345Z" fill="url(#paint15_linear_6560_2167)"/>
<path d="M69.0323 19.7643V19.1415L68.8762 18.8346H68.7201V20.0713H68.8762L69.0323 19.7643ZM68.8744 3.66192H68.7183V2.42519H68.8744L69.0305 2.73215V3.35496L68.8744 3.66192Z" fill="white"/>
<path opacity="0.5" d="M68.6785 2.42525H68.0199L67.8477 2.73222V3.04451V3.35502L68.0199 3.66199H68.6785V3.04451V2.42525Z" fill="url(#paint16_linear_6560_2167)"/>
<path opacity="0.3" d="M67.8493 19.4999V19.1433L68.0234 18.8363H68.8775L69.0337 19.1433L68.7752 18.5098H68.0216C67.8026 18.5098 67.7847 18.7795 67.7847 18.7795L67.8511 19.5017L67.8493 19.4999ZM67.7811 2.3684C67.7811 2.3684 67.799 2.09869 68.018 2.09869H68.7717L69.0301 2.73214L68.8739 2.42518H68.0198L67.8457 2.73214V3.08879L67.7793 2.36662L67.7811 2.3684Z" fill="black"/>
<path d="M68.72 18.8346H68.6805V20.0713H68.72V18.8346ZM68.7182 3.66192H68.6787V2.42519H68.7182V3.66192Z" fill="black"/>
<path opacity="0.2" d="M68.5511 18.8346H68.4901V20.0713H68.5511V18.8346ZM68.5493 3.66192H68.4883V2.42519H68.5493V3.66192Z" fill="black"/>
<path opacity="0.5" d="M58.5645 16.7248H50.0371V17.2252H58.5645V16.7248ZM58.5645 5.87987H50.0371V5.3795H58.5645V5.87987ZM59.6897 6.06973L59.6969 15.9743L58.3564 19.0049H48.9335L46.9272 16.2901V5.3866L48.9371 3.10298H58.3564L59.6897 6.0715V6.06973ZM47.1516 5.45048V16.2333L49.0107 18.8434H58.2523L59.5354 15.9565V6.11941L58.2523 3.26268H49.0071L47.1533 5.45048H47.1516Z" fill="white"/>
<path opacity="0.4" d="M50.9023 20.1653L54.8036 21.7818V21.9858H54.9489V19.0457H50.9023V20.1653ZM50.9023 1.83255L54.8036 0.216101V0.00495148H54.9489V3.01783H50.9023V1.83255Z" fill="url(#paint17_linear_6560_2167)"/>
<path opacity="0.5" d="M62.4051 21.6274V21.4731H54.9634L51.0029 20.0163L54.9185 21.6203L54.949 21.6257H62.4069L62.4051 21.6274ZM51.0029 1.9692L54.9185 0.365173L54.949 0.35985H62.4069V0.514221H54.9652L51.0047 1.97098L51.0029 1.9692Z" fill="#231F20"/>
<path d="M61.7016 10.1934C62.1565 10.1934 62.5253 10.558 62.5253 11.0078C62.5253 11.4576 62.1565 11.8223 61.7016 11.8223C61.2467 11.8223 60.8779 11.4576 60.8779 11.0078C60.8779 10.558 61.2467 10.1934 61.7016 10.1934Z" fill="url(#paint18_radial_6560_2167)"/>
<path opacity="0.1" d="M50.9023 19.2942L54.983 19.8638H58.694L60.2355 16.0826L60.2463 6.02546L58.694 2.09878H54.9489L50.9023 2.68965V3.01791L58.3836 3.02323L59.7151 5.95804V16.0826L58.4751 19.0032L50.9023 19.0458V19.2942Z" fill="#231F20"/>
<path opacity="0.5" d="M96.0753 10.0799C95.537 10.0799 95.0991 10.5128 95.0991 11.0451C95.0991 11.5774 95.537 12.0104 96.0753 12.0104C96.6137 12.0104 97.0515 11.5774 97.0515 11.0451C97.0515 10.5128 96.6137 10.0799 96.0753 10.0799Z" fill="url(#paint19_linear_6560_2167)"/>
<path opacity="0.5" d="M96.0754 10.1916C95.5981 10.1916 95.2104 10.5749 95.2104 11.0469C95.2104 11.5188 95.5981 11.9021 96.0754 11.9021C96.5527 11.9021 96.9403 11.5188 96.9403 11.0469C96.9403 10.5749 96.5527 10.1916 96.0754 10.1916ZM96.0754 11.7672C95.6734 11.7672 95.345 11.4443 95.345 11.0451C95.345 10.6458 95.6716 10.3229 96.0754 10.3229C96.4792 10.3229 96.8058 10.6458 96.8058 11.0451C96.8058 11.4443 96.4774 11.7672 96.0754 11.7672Z" fill="url(#paint20_linear_6560_2167)"/>
<path opacity="0.3" d="M92.2598 12.7502V12.0866H89.2827V11.5969H92.2598V11.1373H89.7529V10.9439H92.2598V10.5358H89.2827V10.0213H92.2598V9.25829H93.0996V12.7502H92.2598Z" fill="black"/>
<path d="M93.1001 12.0121H89.1396V11.9021H93.1001V12.0121Z" fill="black"/>
<path d="M93.1001 10.337H89.1396V10.2572H93.1001V10.337Z" fill="black"/>
<path d="M92.2602 11.0538H90.3652V10.9456H92.2602V11.0538Z" fill="black"/>
<path opacity="0.3" d="M98.9138 11.7672H97.4548C97.1946 12.2569 96.6742 12.5923 96.0767 12.5923C95.2171 12.5923 94.519 11.9021 94.519 11.0521C94.519 10.2022 95.2171 9.51198 96.0767 9.51198C96.676 9.51198 97.1946 9.84556 97.4548 10.3353H98.9138C99.3121 10.3353 99.6369 10.6564 99.6369 11.0504C99.6369 11.4443 99.3121 11.7654 98.9138 11.7654V11.7672ZM99.1524 10.9439H97.3364V10.7771H97.1803C97.0565 10.2874 96.6096 9.92541 96.0767 9.92541C95.4468 9.92541 94.9372 10.4293 94.9372 11.0521C94.9372 11.6749 95.4468 12.1789 96.0767 12.1789C96.5935 12.1789 97.0295 11.8382 97.1695 11.3733H97.3382V11.1959H99.1542C99.2242 11.1959 99.2816 11.1391 99.2816 11.0699C99.2816 11.0007 99.2242 10.9439 99.1542 10.9439H99.1524Z" fill="white"/>
<path opacity="0.2" d="M94.0024 12.7484V9.24048H99.9996V12.7484H94.0024ZM99.1526 10.9439H97.3366V10.7771H97.0638C96.9454 10.3477 96.5488 10.0319 96.0769 10.0319C95.5116 10.0319 95.0522 10.4861 95.0522 11.045C95.0522 11.6039 95.5116 12.0582 96.0769 12.0582C96.5345 12.0582 96.9221 11.7619 97.0531 11.352V11.3733H97.3366V11.1958H99.1526C99.2226 11.1958 99.28 11.1391 99.28 11.0699C99.28 11.0007 99.2226 10.9439 99.1526 10.9439Z" fill="white"/>
<path opacity="0.3" d="M95.2463 7.24441L94.3867 7.24086V8.57874L95.2463 8.57164V7.24441Z" fill="url(#paint21_linear_6560_2167)"/>
<path opacity="0.6" d="M97.3692 13.5593H93.1001V12.752H97.3692V13.5593Z" fill="url(#paint22_linear_6560_2167)"/>
<path opacity="0.3" d="M96.233 13.9941V13.783H94.1406V13.9941" fill="url(#paint23_linear_6560_2167)"/>
<path opacity="0.3" d="M96.9113 13.7776H93.4551V13.5593H96.9113V13.7776Z" fill="url(#paint24_linear_6560_2167)"/>
<path opacity="0.3" d="M99.2928 9.24048H98.5786V7.8405H99.2928V9.24048Z" fill="url(#paint25_linear_6560_2167)"/>
<path d="M97.1663 10.7789H97.0532V11.3751H97.1663C97.1663 11.3751 97.0783 11.3379 97.0783 11.077C97.0783 10.8162 97.1663 10.7789 97.1663 10.7789Z" fill="#231F20"/>
<path opacity="0.6" d="M93.1052 9.28137L97.3743 9.24589L97.3653 8.55388L93.0962 8.58937L93.1052 9.28137Z" fill="url(#paint26_linear_6560_2167)"/>
<path d="M99.1618 11.1976H97.3367V11.3733H97.0532V10.7789H97.3367V10.9457H99.1618C99.2281 10.9457 99.2802 10.9989 99.2802 11.0628V11.0787C99.2802 11.1444 99.2264 11.1959 99.1618 11.1959V11.1976Z" fill="#595A5A"/>
<path d="M67.0006 3.26789L66.8768 3.98296L66.9288 4.14442L66.918 4.36445L66.8588 4.67851L66.6004 5.01741L66.1733 5.28357H60.6355L60.2354 3.05496H62.4049V0.139672H66.1769L66.6507 0.444863L66.7583 0.652465C66.7817 0.689727 66.8014 0.728762 66.8193 0.769573L66.8768 0.879584L66.9234 1.09783L66.927 1.24156C66.927 1.25043 66.927 1.26107 66.927 1.27172V1.28591L66.8588 1.49352L66.9988 2.33989V3.26789H67.0006ZM66.5879 4.96951L66.6058 4.94466C66.6058 4.94466 66.5897 4.95886 66.5807 4.96596L66.5879 4.96951ZM66.1985 5.13275C66.1985 5.13275 66.1913 5.13275 66.1895 5.13275V5.1363L66.1985 5.13097V5.13275ZM66.8211 4.63415V4.6306L66.8247 4.62705C66.8247 4.62883 66.8229 4.63238 66.8211 4.63415Z" fill="#171717"/>
<path d="M67.0005 19.8725L66.8767 20.5876L66.9288 20.749L66.918 20.9691L66.8588 21.2831L66.6004 21.622L66.1733 21.8882H62.4048V19.0474H59.7651L60.5529 16.7425H66.1769L66.6506 17.0477L66.7493 17.2358C66.7798 17.2837 66.8049 17.3352 66.8283 17.3866L66.8767 17.4806L66.9234 17.6989L66.927 17.832C66.927 17.8444 66.927 17.8568 66.927 17.8692V17.887L66.8588 18.0946L66.9987 18.941V19.869L67.0005 19.8725ZM66.8175 21.2441L66.8229 21.2352V21.2246C66.8229 21.2246 66.8193 21.237 66.8175 21.2441Z" fill="#171717"/>
</g>
<defs>
<radialGradient id="paint0_radial_6560_2167" cx="0" cy="0" r="1" gradientUnits="userSpaceOnUse" gradientTransform="translate(28.0105 10.9617) scale(7.37537 7.29266)">
<stop offset="0.78" stop-color="white"/>
<stop offset="1" stop-color="#8A8A8A"/>
</radialGradient>
<linearGradient id="paint1_linear_6560_2167" x1="42.3348" y1="14.4254" x2="42.339" y2="13.7537" gradientUnits="userSpaceOnUse">
<stop stop-color="#020202"/>
<stop offset="0.5" stop-color="white"/>
<stop offset="1"/>
</linearGradient>
<linearGradient id="paint2_linear_6560_2167" x1="42.3352" y1="13.3818" x2="42.3395" y2="12.7101" gradientUnits="userSpaceOnUse">
<stop stop-color="#020202"/>
<stop offset="0.5" stop-color="white"/>
<stop offset="1"/>
</linearGradient>
<linearGradient id="paint3_linear_6560_2167" x1="42.3354" y1="12.3381" x2="42.3396" y2="11.6664" gradientUnits="userSpaceOnUse">
<stop stop-color="#020202"/>
<stop offset="0.5" stop-color="white"/>
<stop offset="1"/>
</linearGradient>
<linearGradient id="paint4_linear_6560_2167" x1="42.3423" y1="11.279" x2="42.3466" y2="10.6073" gradientUnits="userSpaceOnUse">
<stop stop-color="#020202"/>
<stop offset="0.5" stop-color="white"/>
<stop offset="1"/>
</linearGradient>
<linearGradient id="paint5_linear_6560_2167" x1="42.343" y1="10.2199" x2="42.3473" y2="9.54816" gradientUnits="userSpaceOnUse">
<stop stop-color="#020202"/>
<stop offset="0.5" stop-color="white"/>
<stop offset="1"/>
</linearGradient>
<linearGradient id="paint6_linear_6560_2167" x1="42.3435" y1="9.17618" x2="42.3477" y2="8.50448" gradientUnits="userSpaceOnUse">
<stop stop-color="#020202"/>
<stop offset="0.5" stop-color="white"/>
<stop offset="1"/>
</linearGradient>
<radialGradient id="paint7_radial_6560_2167" cx="0" cy="0" r="1" gradientUnits="userSpaceOnUse" gradientTransform="translate(2.72774 10.8641) scale(2.35797 2.33152)">
<stop stop-color="white"/>
<stop offset="0.31" stop-color="#ABADAF"/>
<stop offset="0.41" stop-color="#231F20"/>
<stop offset="0.83" stop-color="#7B7C7F"/>
<stop offset="0.95" stop-color="#231F20"/>
</radialGradient>
<radialGradient id="paint8_radial_6560_2167" cx="0" cy="0" r="1" gradientUnits="userSpaceOnUse" gradientTransform="translate(53.2225 11.0344) scale(7.34128 7.25894)">
<stop offset="0.68" stop-color="white"/>
<stop offset="1" stop-color="#C0C2C4"/>
</radialGradient>
<linearGradient id="paint9_linear_6560_2167" x1="67.7114" y1="17.2927" x2="68.7199" y2="17.2927" gradientUnits="userSpaceOnUse">
<stop stop-color="#020202"/>
<stop offset="0.5" stop-color="white"/>
<stop offset="1"/>
</linearGradient>
<linearGradient id="paint10_linear_6560_2167" x1="60.8223" y1="10.9936" x2="62.2848" y2="10.9936" gradientUnits="userSpaceOnUse">
<stop stop-color="#020202"/>
<stop offset="0.5" stop-color="white"/>
<stop offset="1"/>
</linearGradient>
<linearGradient id="paint11_linear_6560_2167" x1="60.7884" y1="10.9936" x2="65.1472" y2="10.9936" gradientUnits="userSpaceOnUse">
<stop stop-color="#020202"/>
<stop offset="0.5" stop-color="white"/>
<stop offset="1"/>
</linearGradient>
<linearGradient id="paint12_linear_6560_2167" x1="61.0376" y1="10.9936" x2="65.0519" y2="10.9936" gradientUnits="userSpaceOnUse">
<stop stop-color="#020202"/>
<stop offset="0.5" stop-color="white"/>
<stop offset="1"/>
</linearGradient>
<linearGradient id="paint13_linear_6560_2167" x1="61.6587" y1="10.9936" x2="65.0521" y2="10.9936" gradientUnits="userSpaceOnUse">
<stop stop-color="#020202"/>
<stop offset="0.5" stop-color="white"/>
<stop offset="1"/>
</linearGradient>
<linearGradient id="paint14_linear_6560_2167" x1="67.7114" y1="5.05653" x2="68.7199" y2="5.05653" gradientUnits="userSpaceOnUse">
<stop stop-color="#020202"/>
<stop offset="0.5" stop-color="white"/>
<stop offset="1"/>
</linearGradient>
<linearGradient id="paint15_linear_6560_2167" x1="68.2659" y1="18.8345" x2="68.2659" y2="20.073" gradientUnits="userSpaceOnUse">
<stop stop-color="#808080"/>
<stop offset="0.14" stop-color="white"/>
<stop offset="0.86" stop-color="white"/>
<stop offset="1" stop-color="#808080"/>
</linearGradient>
<linearGradient id="paint16_linear_6560_2167" x1="68.2622" y1="2.42525" x2="68.2622" y2="3.66199" gradientUnits="userSpaceOnUse">
<stop stop-color="#808080"/>
<stop offset="0.14" stop-color="white"/>
<stop offset="0.86" stop-color="white"/>
<stop offset="1" stop-color="#808080"/>
</linearGradient>
<linearGradient id="paint17_linear_6560_2167" x1="54.9489" y1="10.9954" x2="50.9023" y2="10.9954" gradientUnits="userSpaceOnUse">
<stop stop-color="#B6B8BA"/>
<stop offset="1" stop-color="#231F20"/>
</linearGradient>
<radialGradient id="paint18_radial_6560_2167" cx="0" cy="0" r="1" gradientUnits="userSpaceOnUse" gradientTransform="translate(61.7016 11.0078) scale(0.823672 0.814436)">
<stop offset="0.32" stop-color="#020202"/>
<stop offset="0.64" stop-color="#888A8C"/>
<stop offset="1"/>
</radialGradient>
<linearGradient id="paint19_linear_6560_2167" x1="95.0991" y1="11.0469" x2="97.0533" y2="11.0469" gradientUnits="userSpaceOnUse">
<stop stop-color="white"/>
<stop offset="1" stop-color="#231F20"/>
</linearGradient>
<linearGradient id="paint20_linear_6560_2167" x1="96.9403" y1="22" x2="95.2122" y2="22" gradientUnits="userSpaceOnUse">
<stop stop-color="white"/>
<stop offset="1" stop-color="#231F20"/>
</linearGradient>
<linearGradient id="paint21_linear_6560_2167" x1="95.2463" y1="7.9098" x2="94.3867" y2="7.9098" gradientUnits="userSpaceOnUse">
<stop stop-color="#231F20"/>
<stop offset="0.53" stop-color="#7D7E81"/>
<stop offset="1" stop-color="#231F20"/>
</linearGradient>
<linearGradient id="paint22_linear_6560_2167" x1="97.371" y1="13.1548" x2="93.1001" y2="13.1548" gradientUnits="userSpaceOnUse">
<stop stop-color="#231F20"/>
<stop offset="0.53" stop-color="white"/>
<stop offset="1" stop-color="#231F20"/>
</linearGradient>
<linearGradient id="paint23_linear_6560_2167" x1="96.233" y1="13.8877" x2="94.1406" y2="13.8877" gradientUnits="userSpaceOnUse">
<stop stop-color="#231F20"/>
<stop offset="0.53" stop-color="#7D7E81"/>
<stop offset="1" stop-color="#231F20"/>
</linearGradient>
<linearGradient id="paint24_linear_6560_2167" x1="96.9095" y1="13.6676" x2="93.4551" y2="13.6676" gradientUnits="userSpaceOnUse">
<stop stop-color="#231F20"/>
<stop offset="0.53" stop-color="#7D7E81"/>
<stop offset="1" stop-color="#231F20"/>
</linearGradient>
<linearGradient id="paint25_linear_6560_2167" x1="99.291" y1="8.54138" x2="98.5786" y2="8.54138" gradientUnits="userSpaceOnUse">
<stop stop-color="#231F20"/>
<stop offset="0.53" stop-color="#7D7E81"/>
<stop offset="1" stop-color="#231F20"/>
</linearGradient>
<linearGradient id="paint26_linear_6560_2167" x1="93.1" y1="8.93744" x2="97.3707" y2="8.89372" gradientUnits="userSpaceOnUse">
<stop stop-color="#231F20"/>
<stop offset="0.53" stop-color="white"/>
<stop offset="1" stop-color="#231F20"/>
</linearGradient>
<clipPath id="clip0_6560_2167">
<rect width="100" height="22" fill="white" transform="matrix(1 0 0 -1 0 22)"/>
</clipPath>
</defs>
</svg>
