<svg width="100" height="56" viewBox="0 0 100 56" fill="none" xmlns="http://www.w3.org/2000/svg">
<g clip-path="url(#clip0_6561_2813)">
<path d="M99.9609 43.142V43.2992H96.875V43.5942H98.2031V45.6782H96.875V45.7372H92.2852V49.8659L92.1289 50.0192V50.2394C92.1289 50.3181 92.0117 50.613 91.9727 50.6523C91.5039 51.1635 90.957 51.7336 90.4492 52.1858C90.293 52.3235 90.1367 52.3038 89.9609 52.3235H89.7852L89.7461 52.3628H84.375V54.3288H84.668V55.4888H84.375V55.5871H84.1406V56H82.9883V55.5871H82.7539V52.3628H81.9727V54.6631L82.0312 54.7221L82.1484 54.899L81.9727 55.2529H81.8359L81.4844 55.076H81.1914L80.6836 55.1743L80.4297 55.8624C80.4102 55.9017 80.3516 55.941 80.3125 55.9214C80.2734 55.9017 80.2344 55.8624 80.2539 55.8034L81.2305 53.2475C81.25 53.2082 81.3086 53.1689 81.3477 53.1885C81.3867 53.2082 81.4258 53.2475 81.4062 53.3065L81.1328 54.0339L81.5625 54.6238H81.6797V52.3628H80.9961C80.9961 52.3628 78.5527 53.8196 77.5117 54.3996C77.5078 54.4016 77.5039 54.4036 77.5 54.4075C77.2852 54.5255 76.9922 54.7221 76.6992 54.7221C76.6016 54.7221 76.5039 54.7614 76.4062 54.5844C76.0742 54.0536 75.8398 53.4245 75.5273 52.874C75.4434 52.7206 75.3867 52.4218 75.1836 52.3431H74.6289C74.5996 52.3549 74.5664 52.3628 74.5312 52.3628C74.498 52.3628 74.4668 52.3549 74.4395 52.3431H70.0195C69.9902 52.3549 69.957 52.3628 69.9219 52.3628C69.8887 52.3628 69.8574 52.3549 69.8301 52.3431H65.4102C65.3809 52.3549 65.3477 52.3628 65.3125 52.3628C65.2793 52.3628 65.248 52.3549 65.2207 52.3431H59.375V52.2448H36.8828C36.8203 52.2625 36.7598 52.2802 36.6992 52.3038C36.3867 52.4218 36.0156 52.6577 36.0156 52.6577H35.1562L34.8047 52.8936H16.9336L16.582 52.6577H15.7227C15.7227 52.6577 15.332 52.4218 15.0391 52.3038C14.9629 52.2743 14.8789 52.2527 14.7969 52.235L5.17578 52.2252C4.64844 52.2252 4.21875 51.7926 4.21875 51.2618V48.47H1.17188V50.0232C1.17188 50.3574 0.898438 50.613 0.585938 50.613C0.253906 50.613 0 50.3574 0 50.0232V5.96373C0 5.64916 0.273438 5.39358 0.585938 5.39358C0.917969 5.39358 1.17188 5.64916 1.17188 5.96373V7.41862H4.21875V4.74477C4.21875 4.21394 4.64844 3.7814 5.17578 3.7814H14.248C14.2637 3.76371 14.2812 3.74798 14.2969 3.74012C14.3164 3.71849 14.3359 3.70276 14.3555 3.70276C14.3555 3.72242 14.375 3.72242 14.375 3.72242C14.4531 3.72242 14.7656 3.6831 15.0195 3.5848C15.332 3.46683 15.7031 3.23091 15.7031 3.23091H16.5625L16.9141 2.99498H34.7656L35.1172 3.23091H35.9766C35.9766 3.23091 36.3672 3.46683 36.6602 3.5848C36.8535 3.65361 37.0664 3.68507 37.1953 3.70276C37.2324 3.70276 37.2695 3.70276 37.3047 3.72242C37.3242 3.72242 37.3242 3.70276 37.3438 3.70276C37.3457 3.70276 37.3496 3.70669 37.3516 3.70669C37.3555 3.70669 37.3594 3.70276 37.3633 3.70276C37.4004 3.7067 37.4375 3.73422 37.4746 3.7814H58.5977C58.5801 3.57103 58.5547 3.37246 58.5176 3.23091C58.3809 2.71973 58.1074 2.24788 58.1074 2.24788C58.1074 2.24788 57.9316 1.89399 58.6152 1.44179C59.2988 0.969936 59.6504 1.32383 59.6504 1.32383C59.6504 1.32383 60.0996 1.93331 60.2754 2.66075C60.3379 2.88881 60.3789 3.20338 60.4043 3.52582H62.4238V3.36853H62.4824V3.42751H62.541V3.52582H62.6543C62.6406 3.41375 62.623 3.31348 62.5996 3.23091C62.4629 2.71973 62.1895 2.24788 62.1895 2.24788C62.1895 2.24788 62.0137 1.89399 62.6973 1.44179C63.3809 0.969936 63.7324 1.32383 63.7324 1.32383C63.7324 1.32383 64.1816 1.93331 64.3574 2.66075C64.3984 2.81214 64.4316 3.00481 64.4551 3.21125H68.4785V3.52582H69.5137V3.21125H74.9238V3.52582H75.4512V3.42751H75.5098V3.36853H75.5684V3.52582H82.7559V0.39978H82.9902V-0.013092H84.1426V0.39978H84.377V0.517738H84.6699V1.67772H84.377V3.52582H88.9863V1.36315H88.8691L88.4395 1.95297L88.7324 2.66075C88.752 2.71973 88.7129 2.75905 88.6738 2.77871C88.6348 2.79837 88.5762 2.75905 88.5566 2.71973L87.5801 0.163849C87.5605 0.10487 87.5996 0.0655479 87.6387 0.045887C87.6777 0.026226 87.7363 0.0655518 87.7559 0.10487L88.0098 0.792992L88.5176 0.891296H88.8105L89.1621 0.714344H89.2793L89.4551 1.06824L89.3379 1.24519L89.2793 1.30416V3.52582H89.748L89.9043 3.6831H90.1582C90.2168 3.6831 90.4316 3.74208 90.4512 3.76174C90.998 4.25326 91.584 4.84308 92.1113 5.41324C92.1699 5.47222 92.1699 5.55086 92.1895 5.6295V5.98339L92.2871 6.0817V10.0728H95.373L95.4707 10.1908H96.877V10.2497H98.2051V12.3338H96.877V37.2831V38.8953H99.9824V39.0722L100.002 39.5047V42.7094L99.9629 43.142H99.9609ZM4.21875 7.77251H1.17188V12.3534H4.21875V7.77251ZM4.21875 13.2775H1.17188V20.9844H4.21875V13.2775ZM4.21875 34.1374H3.55469C3.28125 34.1374 3.04688 33.9211 3.04688 33.6262V22.341C3.04688 22.0461 3.28125 21.8298 3.55469 21.8298H4.21875V21.3383H1.17188V34.5503H4.21875V34.1374ZM4.21875 34.9042H1.17188V42.7291H4.21875V34.9042ZM4.21875 43.6531H1.17188V48.1161H4.21875V43.6531ZM90.293 52.0089C90.8398 51.537 91.3281 51.0062 91.7969 50.495C91.8555 50.436 91.8555 50.3377 91.875 50.2984V50.2689L90.0254 52.0875C90.0879 52.0875 90.2246 52.0757 90.291 52.0089H90.293ZM91.9922 5.55086C91.4648 5.02002 90.918 4.44987 90.3906 3.93869C90.3516 3.89937 90.293 3.8797 90.2344 3.86004H90.0781L91.9922 5.78679V5.55086Z" fill="black"/>
<path d="M3.04688 35.3465V35.7004H4.19922V35.3465H3.04688ZM3.04688 20.6207V20.2668H4.19922V20.6207H3.04688ZM96.875 38.8854V12.3239H98.2031V10.2399H96.875V10.1809H95.4688L95.3711 10.0629H92.2461V6.07184L89.707 3.51596H84.375V0.389919H82.7539V3.51596H74.9219V3.20139H69.5117V3.51596H68.4766V3.20139H63.0664V3.51596H62.5391V3.41765H62.4805V3.35867H62.4219V3.51596H59.375V3.77155H5.17578C4.64844 3.77155 4.21875 4.20408 4.21875 4.73492V7.40876H1.17188V5.95387C1.17188 5.63931 0.917969 5.38371 0.585938 5.38371C0.273438 5.38371 0 5.63931 0 5.95387V50.0133C0 50.3475 0.253906 50.6031 0.585938 50.6031C0.898438 50.6031 1.17188 50.3475 1.17188 50.0133V48.4601H4.21875V51.2519C4.21875 51.7828 4.64844 52.2153 5.17578 52.2153L24.9414 52.235H59.375V52.3333H75.3906C75.3906 52.3333 76.2695 54.1027 76.4258 54.3583C76.582 54.6139 76.6406 54.7712 77.0508 54.5942C77.4609 54.4173 80.957 52.3333 80.957 52.3333H82.7539V55.5773H84.375V52.3333H89.707L92.2461 49.8364V45.7273H96.875V45.6683H98.2031V43.5843H96.875V43.2894H99.9609V38.8854H96.875ZM1.17188 48.1062V43.6433H4.21875V48.1062H1.17188ZM4.21875 34.5404H1.17188V21.3285H4.21875V34.5404ZM1.17188 13.2676H4.21875V20.9746H1.17188V13.2676ZM4.21875 42.7192H1.17188V34.8943H4.21875V42.7192ZM4.21875 7.76265V12.3436H1.17188V7.76265H4.21875ZM86.7383 17.4357V38.3939L86.7188 38.3546V17.4357H86.7383Z" fill="#FED100"/>
<path opacity="0.32" d="M97.8516 42.8961H97.6758V39.2982H97.8516V42.8961Z" fill="#232323"/>
<path opacity="0.32" d="M98.1445 42.8961H97.9688V39.2982H98.1445V42.8961Z" fill="#232323"/>
<path opacity="0.32" d="M98.418 42.8961H98.2422V39.2982H98.418V42.8961Z" fill="#232323"/>
<path opacity="0.32" d="M98.7109 42.8961H98.5352V39.2982H98.7109V42.8961Z" fill="#232323"/>
<path opacity="0.32" d="M99.0039 42.8961H98.8281V39.2982H99.0039V42.8961Z" fill="#232323"/>
<path opacity="0.32" d="M99.2969 42.8961H99.1211V39.2982H99.2969V42.8961Z" fill="#232323"/>
<path opacity="0.32" d="M99.5703 42.8961H99.3945V39.2982H99.5703V42.8961Z" fill="#232323"/>
<path opacity="0.32" d="M99.6094 42.9944C99.7656 43.0141 100 42.8961 100 42.6995V39.4949C99.9805 39.2983 99.8047 39.1803 99.6484 39.1803H96.5625C96.4844 39.1999 96.4844 39.2589 96.4844 39.2983C96.4844 39.3376 96.5039 39.3966 96.5625 39.3966H99.5703C99.6484 39.4359 99.7656 39.4555 99.7656 39.5538V42.6602C99.7852 42.7389 99.6289 42.7978 99.5508 42.7978H96.6211C96.543 42.8175 96.543 42.8765 96.543 42.9158C96.543 42.9551 96.5625 43.0338 96.6406 43.0141L99.6094 42.9944Z" fill="#232323"/>
<path d="M81.1329 54.0241L81.5626 54.6139H81.6798V52.176H81.9727V54.6532L82.0313 54.7122L82.1485 54.8892L81.9727 55.2431H81.836L81.4844 55.0661H81.1915L80.6837 55.1644L80.4298 55.8525C80.4102 55.8919 80.3516 55.9312 80.3126 55.9115C80.2735 55.8919 80.2344 55.8525 80.254 55.7936L81.2305 53.2377C81.2501 53.1984 81.3087 53.159 81.3477 53.1787C81.3868 53.1984 81.4258 53.2377 81.4063 53.2967L81.1329 54.0241Z" fill="#111111"/>
<path d="M88.4376 1.94304L88.8673 1.35322H88.9844V3.79114H89.2774V1.29424L89.336 1.23526L89.4532 1.05831L89.2774 0.704419H89.1602L88.8087 0.881363H88.5157L88.0079 0.78306L87.754 0.0949383C87.7344 0.0556171 87.6759 0.0162983 87.6368 0.0359588C87.5977 0.0556195 87.5587 0.0949419 87.5782 0.153924L88.5548 2.7098C88.5743 2.74913 88.6329 2.78844 88.6719 2.76878C88.711 2.74912 88.7501 2.7098 88.7305 2.65082L88.4376 1.94304Z" fill="#111111"/>
<path opacity="0.3" d="M84.375 3.86975H82.7539V0.389819H84.375V3.86975Z" fill="url(#paint0_linear_6561_2813)"/>
<path opacity="0.15" d="M84.375 1.84473H82.7539V0.389842H84.375V1.84473Z" fill="url(#paint1_linear_6561_2813)"/>
<path d="M84.2578 0.507872H84.668V1.66785H84.2578L83.9648 1.43192V0.743801L84.2578 0.507872Z" fill="#111111"/>
<path d="M82.9883 0.389905V-0.0229688H84.1406V0.389905L83.9063 0.684814H83.2227L82.9883 0.389905Z" fill="#111111"/>
<path d="M84.2578 55.4789H84.668V54.3189H84.2578L83.9648 54.5352V55.243L84.2578 55.4789Z" fill="#111111"/>
<path d="M82.9883 55.5772V55.9901H84.1406V55.5772L83.9063 55.2823H83.2227L82.9883 55.5772Z" fill="#111111"/>
<path opacity="0.3" d="M84.375 55.5773H82.7539V52.0973H84.375V55.5773Z" fill="url(#paint2_linear_6561_2813)"/>
<path opacity="0.15" d="M84.375 55.5773H82.7539V54.1224H84.375V55.5773Z" fill="url(#paint3_linear_6561_2813)"/>
<path opacity="0.05" d="M96.8164 17.4357H92.3242V12.7958H96.8164V17.4357Z" fill="black"/>
<path opacity="0.15" d="M96.7969 24.8673H92.7734V17.4553H96.7969V24.8673Z" fill="url(#paint4_linear_6561_2813)"/>
<path opacity="0.2" d="M96.7969 43.1714H92.7734V24.9067H96.7969V43.1714Z" fill="url(#paint5_linear_6561_2813)"/>
<path opacity="0.1" d="M92.7344 38.4332H86.7969V17.4947H92.7344V38.4332Z" fill="url(#paint6_linear_6561_2813)"/>
<path opacity="0.32" d="M96.4648 35.8183H93.2422V36.6833H92.8906V17.5536H93.2422V18.4776H96.4648V17.5536H96.6406C96.6348 17.5418 96.627 17.5319 96.6211 17.5142V13.1693C96.6016 13.0906 96.5039 13.071 96.4258 13.012H92.5586C92.2852 13.012 91.9727 12.835 91.9922 12.4615V5.54094C91.4648 5.0101 90.918 4.43994 90.3906 3.92876C90.3516 3.88944 90.293 3.86978 90.2344 3.85012H75.8984C75.8789 3.85012 75.8008 3.85012 75.8008 3.77148C75.8008 3.7125 75.8398 3.7125 75.8984 3.67318H90.1562C90.2148 3.67318 90.4297 3.73216 90.4492 3.75182C90.9961 4.24333 91.582 4.83315 92.1094 5.40331C92.168 5.46229 92.168 5.54093 92.1875 5.61958V12.5401C92.1875 12.6777 92.3828 12.8547 92.4805 12.835H96.3281C96.5625 12.835 96.8164 12.9726 96.7969 13.3069V17.5142C96.7969 17.528 96.7969 17.5418 96.793 17.5536H96.8164V36.6833H96.4648V35.8183ZM96.4648 18.5956H93.2422V19.1264H96.4648V18.5956ZM96.4648 19.2444H93.2422V19.7556H96.4648V19.2444ZM96.4648 19.8735H93.2422V20.4044H96.4648V19.8735ZM96.4648 20.5223H93.2422V21.0335H96.4648V20.5223ZM96.4648 21.1515H93.2422V21.6626H96.4648V21.1515ZM96.4648 21.7806H93.2422V22.3114H96.4648V21.7806ZM96.4648 22.4294H93.2422V22.9406H96.4648V22.4294ZM96.4648 23.0585H93.2422V23.5894H96.4648V23.0585ZM96.4648 23.7073H93.2422V24.2185H96.4648V23.7073ZM96.4648 24.3365H93.2422V24.8673H96.4648V24.3365ZM96.4648 24.9853H93.2422V25.4965H96.4648V24.9853ZM96.4648 25.6144H93.2422V26.1256H96.4648V25.6144ZM96.4648 26.2436H93.2422V26.7744H96.4648V26.2436ZM96.4648 26.8924H93.2422V27.4035H96.4648V26.8924ZM96.4648 27.5215H93.2422V28.0523H96.4648V27.5215ZM96.4648 28.1703H93.2422V28.6815H96.4648V28.1703ZM96.4648 28.7994H93.2422V29.3303H96.4648V28.7994ZM96.4648 29.4482H93.2422V29.9594H96.4648V29.4482ZM96.4648 30.0774H93.2422V30.6082H96.4648V30.0774ZM96.4648 30.7262H93.2422V31.2374H96.4648V30.7262ZM96.4648 31.3553H93.2422V31.8665H96.4648V31.3553ZM96.4648 31.9845H93.2422V32.5153H96.4648V31.9845ZM96.4648 32.6333H93.2422V33.1444H96.4648V32.6333ZM96.4648 33.2624H93.2422V33.7932H96.4648V33.2624ZM96.4648 33.9112H93.2422V34.4224H96.4648V33.9112ZM96.4648 34.5403H93.2422V35.0712H96.4648V34.5403ZM96.4648 35.1891H93.2422V35.7003H96.4648V35.1891Z" fill="#232323"/>
<path opacity="0.32" d="M96.7969 39.0623V39.2785C96.7969 39.3375 96.6992 39.3572 96.6797 39.3572C96.6602 39.3572 96.6016 39.3572 96.582 39.2785V39.0623H96.5234V38.8853H96.582V37.2535C96.582 37.2142 96.6406 37.1748 96.6797 37.1748C96.7187 37.1748 96.7773 37.1748 96.7969 37.2535V38.8853H99.9805V39.0623H96.7969Z" fill="#232323"/>
<path opacity="0.2" d="M87.4805 34.7764H86.7969V21.2105H87.4805V34.7764Z" fill="url(#paint7_linear_6561_2813)"/>
<path opacity="0.15" d="M0.585938 50.6031C0.898438 50.6031 1.17188 50.3476 1.17188 50.0133V5.95389C1.17188 5.63932 0.917969 5.38373 0.585938 5.38373C0.273438 5.38373 0 5.63932 0 5.95389V50.0133C0 50.3476 0.253906 50.6031 0.585938 50.6031Z" fill="black"/>
<path d="M4.29688 32.3187H8.22266V23.6681H4.29688V32.3187Z" fill="url(#paint8_linear_6561_2813)"/>
<path opacity="0.32" d="M84.6094 49.2073H71.8164C72.3867 46.5393 72.8379 42.2848 73.0859 37.1553H84.6074C84.7051 37.1553 84.7832 37.234 84.7832 37.3323V49.0303C84.7832 49.1286 84.7051 49.2073 84.6074 49.2073H84.6094Z" fill="#232323"/>
<path opacity="0.2" d="M30 27.9934C30 31.6699 32.9687 34.6583 36.6211 34.6583C40.2734 34.6583 43.2422 31.6699 43.2422 27.9934C43.2422 24.3168 40.2734 21.3284 36.6211 21.3284C32.9687 21.3284 30 24.3168 30 27.9934Z" fill="url(#paint9_radial_6561_2813)"/>
<path d="M34.3164 27.9934C34.3164 29.2713 35.3516 30.3134 36.6211 30.3134C37.8906 30.3134 38.9258 29.2713 38.9258 27.9934C38.9258 26.7155 37.8906 25.6734 36.6211 25.6734C35.3516 25.6734 34.3164 26.7155 34.3164 27.9934Z" fill="url(#paint10_linear_6561_2813)"/>
<path d="M36.8828 52.235C36.8203 52.2527 36.7598 52.2704 36.6992 52.294C36.3867 52.4119 36.0156 52.6479 36.0156 52.6479H35.1562L34.8047 52.8838H16.9336L16.582 52.6479H15.7227C15.7227 52.6479 15.332 52.4119 15.0391 52.294C14.9766 52.2704 14.9102 52.2507 14.8438 52.235H36.8828Z" fill="#040404"/>
<path d="M14.2656 3.77148C14.2949 3.72037 14.3242 3.69284 14.3555 3.69284C14.3555 3.7125 14.375 3.7125 14.375 3.7125C14.4531 3.7125 14.7656 3.67318 15.0195 3.57488C15.332 3.45691 15.7031 3.22098 15.7031 3.22098H16.5625L16.9141 2.98506H34.7656L35.1172 3.22098H35.9766C35.9766 3.22098 36.3672 3.45691 36.6602 3.57488C36.9336 3.67318 37.2461 3.69284 37.3047 3.7125C37.3242 3.7125 37.3242 3.69284 37.3438 3.69284C37.3711 3.69284 37.4004 3.72037 37.4277 3.77148H14.2676H14.2656Z" fill="#040404"/>
<path d="M4.21875 34.1274H3.55469C3.28125 34.1274 3.04688 33.9112 3.04688 33.6163V22.3311C3.04688 22.0362 3.28125 21.8199 3.55469 21.8199H4.21875V34.1274Z" fill="black"/>
<path opacity="0.2" d="M27.748 43.0121C27.748 41.1836 26.2832 39.7091 24.4668 39.7091H15.9512C14.1348 39.7091 12.6699 41.1836 12.6699 43.0121C12.6699 44.8405 14.1348 46.3151 15.9512 46.3151H24.4668C26.2832 46.3151 27.748 44.8405 27.748 43.0121ZM48.7832 39.7091H57.2988C59.1152 39.7091 60.5801 41.1836 60.5801 43.0121C60.5801 44.8405 59.1152 46.3151 57.2988 46.3151H48.7832C46.9668 46.3151 45.502 44.8405 45.502 43.0121C45.502 41.1836 46.9668 39.7091 48.7832 39.7091ZM24.4668 17.9055H15.9512C14.1348 17.9055 12.6699 16.4309 12.6699 14.6025C12.6699 12.7741 14.1348 11.2995 15.9512 11.2995H24.4668C26.2832 11.2995 27.748 12.7741 27.748 14.6025C27.748 16.4309 26.2832 17.9055 24.4668 17.9055ZM57.2988 17.9055H48.7832C46.9668 17.9055 45.502 16.4309 45.502 14.6025C45.502 12.7741 46.9668 11.2995 48.7832 11.2995H57.2988C59.1152 11.2995 60.5801 12.7741 60.5801 14.6025C60.5801 16.4309 59.1152 17.9055 57.2988 17.9055Z" fill="black"/>
<path d="M58.5957 3.76758C58.5781 3.55721 58.5527 3.36257 58.5156 3.22101C58.3789 2.70984 58.1055 2.23798 58.1055 2.23798C58.1055 2.23798 57.9297 1.8841 58.6133 1.4319C59.2969 0.960047 59.6484 1.31394 59.6484 1.31394C59.6484 1.31394 60.0977 1.92341 60.2735 2.65086C60.3535 2.9379 60.3965 3.36257 60.4199 3.76758H58.5957Z" fill="url(#paint11_radial_6561_2813)"/>
<path d="M62.6777 3.76172C62.6602 3.55332 62.6348 3.36064 62.5977 3.22105C62.4609 2.70988 62.1875 2.23802 62.1875 2.23802C62.1875 2.23802 62.0117 1.88413 62.6953 1.43194C63.3789 0.960086 63.7305 1.31398 63.7305 1.31398C63.7305 1.31398 64.1797 1.92345 64.3555 2.6509C64.4336 2.93597 64.4785 3.35868 64.502 3.76172H62.6777Z" fill="url(#paint12_radial_6561_2813)"/>
<path opacity="0.32" d="M92.3437 42.6603C92.2851 42.6603 92.2656 42.6013 92.2656 42.562C92.2656 42.5226 92.2656 42.4637 92.3437 42.444H93.5352C93.5742 42.444 93.6133 42.503 93.6328 42.5423V43.1321H99.9609V43.2894H93.6328V43.5057C93.6328 43.545 93.5156 43.5843 93.4961 43.5843H92.1289V50.2296C92.1289 50.3082 92.0117 50.6032 91.9727 50.6425C91.5039 51.1536 90.957 51.7238 90.4492 52.176C90.293 52.3136 90.1367 52.294 89.9609 52.3136H80.9961C80.957 52.3136 78.6523 53.6899 77.5 54.3976C77.2851 54.5156 76.9922 54.7122 76.6992 54.7122C76.6016 54.7122 76.5039 54.7515 76.4062 54.5746C76.0742 54.0438 75.8398 53.4146 75.5273 52.8641C75.4297 52.6872 75.3711 52.3136 75.0781 52.3136H62.9883C62.7969 52.3136 62.5684 52.2605 62.332 52.1662H70.4102C70.4922 52.1662 70.5742 52.1347 70.6543 52.0777H75.0391C75.1562 52.0777 75.4492 52.1563 75.5078 52.2743C75.7617 52.8051 76.0547 53.336 76.3086 53.8472C76.3672 53.9258 76.582 54.496 76.7187 54.496C76.7578 54.496 76.9531 54.437 77.0703 54.3583C78.3594 53.5916 79.6484 52.8248 80.9375 52.0777H90C90.0391 52.0777 90.2148 52.0777 90.293 51.9991C90.8398 51.5272 91.3281 50.9964 91.7969 50.4852C91.8555 50.4262 91.8555 50.3279 91.875 50.2886V40.2813C91.875 40.124 92.168 39.6915 92.2266 39.5932C92.2852 39.4752 92.3633 39.3573 92.4023 39.2786V38.9444H92.3828C92.3047 38.9641 92.2852 38.8854 92.2852 38.8461C92.2852 38.8068 92.2852 38.7478 92.3633 38.7281H92.4023V13.3463C92.4023 13.2873 92.4805 13.2676 92.5195 13.2676C92.5586 13.2676 92.5781 13.2873 92.6367 13.3659V37.8041H93.8281C93.8672 37.8041 93.9062 37.8631 93.9258 37.9024V38.8658C93.9258 38.9051 93.8086 38.9444 93.7891 38.9444H92.6367V39.259C92.6367 39.4163 92.3437 39.8685 92.2852 39.9471C92.2266 40.0454 92.168 40.1634 92.1289 40.2813V43.368H93.418V43.2894H92.7148V43.1321H93.418V42.6603H92.3437ZM92.6367 38.7281H93.7109V38.0204H92.6367V38.7281Z" fill="#232323"/>
<path opacity="0.1" d="M92.0371 38.4843C92.1738 38.4843 92.2832 38.5944 92.2832 38.732V49.7439C92.2832 49.8108 92.2559 49.8737 92.209 49.9209L89.8164 52.2743C89.7695 52.3195 89.709 52.345 89.6445 52.345H81.0625C81.0176 52.345 80.9746 52.3568 80.9375 52.3785C80.4824 52.6498 77.4688 54.4409 77.0898 54.606C76.6797 54.7829 76.6211 54.6257 76.4648 54.3701C76.3359 54.1577 75.707 52.8995 75.498 52.4807C75.457 52.3961 75.3711 52.345 75.2793 52.345H59.416V52.2369H70.4512C72.0332 52.2369 73.3223 41.3646 73.3223 27.9954C73.3223 14.6261 72.0332 3.77348 70.4512 3.77348H59.416V3.52772H89.6465C89.7109 3.52772 89.7754 3.55328 89.8203 3.60047L92.2148 6.01086C92.2617 6.05804 92.2871 6.12096 92.2871 6.18584V17.416C92.2871 17.4376 92.2852 17.4573 92.2793 17.4789L92.041 38.4843H92.0371Z" fill="black"/>
<path opacity="0.2" d="M72.7871 14.402C72.4238 9.88593 71.8828 6.45909 71.252 4.82333H75.1152V14.402H72.7871Z" fill="white"/>
<path opacity="0.3" d="M91.1719 34.7665H87.4805V21.2007H91.1719V34.7665Z" fill="white"/>
<path opacity="0.2" d="M92.1484 36.8604H90.1953V34.7763H92.1484V36.8604Z" fill="white"/>
<path opacity="0.2" d="M92.1484 21.2007H90.1953V19.1167H92.1484V21.2007Z" fill="white"/>
<path opacity="0.2" d="M5.17578 52.2153C4.64844 52.2153 4.21875 51.7828 4.21875 51.252V4.73493C4.21875 4.20409 4.64844 3.77156 5.17578 3.77156H70.4297C72.0117 3.77156 73.3008 14.6242 73.3008 27.9934C73.3008 41.3627 72.0117 52.235 70.4297 52.235H24.9414L5.17578 52.2153Z" fill="url(#paint13_linear_6561_2813)"/>
<path opacity="0.25" d="M84.8437 48.8632C84.8242 48.8632 84.7852 48.8435 84.7852 48.8042V37.5386C84.7852 37.519 84.8047 37.4797 84.8437 37.4797H86.6992C86.7187 37.4797 86.7578 37.4993 86.7578 37.5386V39.1705H86.8555V39.4457H86.9531C86.9531 39.4457 86.9727 39.4457 86.9727 39.4654V41.9033C86.9727 41.9033 86.9727 41.923 86.9531 41.923H86.8555V42.1982H86.7578V44.1643H86.8555V44.4395H86.9531C86.9531 44.4395 86.9727 44.4395 86.9727 44.4592V46.8774C86.9727 46.8774 86.9727 46.8971 86.9531 46.8971H86.8555V47.1723H86.7578V48.8042C86.7578 48.8238 86.7383 48.8632 86.6992 48.8632H84.8437Z" fill="#F9F9F9"/>
</g>
<defs>
<linearGradient id="paint0_linear_6561_2813" x1="83.5469" y1="3.87565" x2="83.5469" y2="0.336735" gradientUnits="userSpaceOnUse">
<stop/>
<stop offset="1" stop-opacity="0.5"/>
</linearGradient>
<linearGradient id="paint1_linear_6561_2813" x1="84.3672" y1="0.413435" x2="82.9499" y2="1.99038" gradientUnits="userSpaceOnUse">
<stop stop-opacity="0.5"/>
<stop offset="1"/>
</linearGradient>
<linearGradient id="paint2_linear_6561_2813" x1="83.5469" y1="52.0836" x2="83.5469" y2="55.6225" gradientUnits="userSpaceOnUse">
<stop/>
<stop offset="1" stop-opacity="0.5"/>
</linearGradient>
<linearGradient id="paint3_linear_6561_2813" x1="84.3672" y1="55.5615" x2="82.9499" y2="53.9846" gradientUnits="userSpaceOnUse">
<stop stop-opacity="0.5"/>
<stop offset="1"/>
</linearGradient>
<linearGradient id="paint4_linear_6561_2813" x1="92.6758" y1="24.71" x2="98.7807" y2="21.6145" gradientUnits="userSpaceOnUse">
<stop/>
<stop offset="1" stop-opacity="0.5"/>
</linearGradient>
<linearGradient id="paint5_linear_6561_2813" x1="92.9492" y1="33.9034" x2="96.7773" y2="33.9034" gradientUnits="userSpaceOnUse">
<stop/>
<stop offset="1" stop-opacity="0.5"/>
</linearGradient>
<linearGradient id="paint6_linear_6561_2813" x1="86.9785" y1="28.2746" x2="92.8125" y2="28.2746" gradientUnits="userSpaceOnUse">
<stop/>
<stop offset="1" stop-opacity="0.5"/>
</linearGradient>
<linearGradient id="paint7_linear_6561_2813" x1="87.5391" y1="28.1724" x2="86.6719" y2="28.1724" gradientUnits="userSpaceOnUse">
<stop/>
<stop offset="1" stop-opacity="0"/>
</linearGradient>
<linearGradient id="paint8_linear_6561_2813" x1="3.23238" y1="27.9517" x2="6.96973" y2="27.9517" gradientUnits="userSpaceOnUse">
<stop stop-opacity="0.35"/>
<stop offset="0.21" stop-opacity="0.08"/>
<stop offset="1" stop-opacity="0"/>
</linearGradient>
<radialGradient id="paint9_radial_6561_2813" cx="0" cy="0" r="1" gradientUnits="userSpaceOnUse" gradientTransform="translate(36.4258 27.8046) scale(6.73828 6.78291)">
<stop/>
<stop offset="0.63" stop-opacity="0.1"/>
<stop offset="1" stop-opacity="0.5"/>
</radialGradient>
<linearGradient id="paint10_linear_6561_2813" x1="36.5625" y1="30.3075" x2="36.5625" y2="25.7462" gradientUnits="userSpaceOnUse">
<stop/>
<stop offset="0.48" stop-color="#242424"/>
<stop offset="1"/>
</linearGradient>
<radialGradient id="paint11_radial_6561_2813" cx="0" cy="0" r="1" gradientUnits="userSpaceOnUse" gradientTransform="translate(58.3379 3.49626) scale(1.23242 1.24058)">
<stop/>
<stop offset="0.58" stop-color="#5C5C5C"/>
<stop offset="1" stop-color="#3A3A3A"/>
</radialGradient>
<radialGradient id="paint12_radial_6561_2813" cx="0" cy="0" r="1" gradientUnits="userSpaceOnUse" gradientTransform="translate(62.4258 3.4904) scale(1.23047 1.23862)">
<stop/>
<stop offset="0.58" stop-color="#5C5C5C"/>
<stop offset="1" stop-color="#3A3A3A"/>
</radialGradient>
<linearGradient id="paint13_linear_6561_2813" x1="39.2578" y1="52.1504" x2="39.2578" y2="4.48524" gradientUnits="userSpaceOnUse">
<stop/>
<stop offset="0.1" stop-opacity="0.2"/>
<stop offset="0.9" stop-opacity="0.2"/>
<stop offset="1"/>
</linearGradient>
<clipPath id="clip0_6561_2813">
<rect width="100" height="56" fill="white" transform="matrix(1 0 0 -1 0 56)"/>
</clipPath>
</defs>
</svg>
