<svg width="100" height="56" viewBox="0 0 100 56" fill="none" xmlns="http://www.w3.org/2000/svg">
<mask id="mask0_2587_191" style="mask-type:alpha" maskUnits="userSpaceOnUse" x="0" y="3" width="100" height="50">
<rect width="100" height="48.9999" transform="matrix(1 0 0 -1 0 52.474)" fill="#D9D9D9"/>
</mask>
<g mask="url(#mask0_2587_191)">
<path d="M42.4024 49.0135C43.0472 49.0135 43.5548 48.4883 43.5548 47.8663V8.86082C43.5548 8.21952 43.0272 7.71357 42.4024 7.71357C41.7576 7.71357 41.25 8.23877 41.25 8.86082V47.8663C41.2307 48.4883 41.7576 49.0135 42.4024 49.0135Z" fill="#050605"/>
<path d="M41.4646 43.1219H58.027C58.7104 43.1219 59.2772 41.9747 59.2772 40.5555V15.4332C59.2772 14.0134 58.7104 12.8668 58.027 12.8668H41.4646C40.7812 12.8668 40.2144 14.0134 40.2144 15.4332V40.5357C40.2144 41.9554 40.7612 43.1219 41.4646 43.1219Z" fill="#050605"/>
<path d="M59.1604 16.5598C59.1604 16.5598 58.9845 18.6991 66.1133 18.2906C73.2421 17.8821 76.9143 20.2933 77.0509 20.4876C77.2074 20.6819 58.008 30.2486 57.8515 26.5349C57.6956 22.8212 59.1604 16.5598 59.1604 16.5598ZM59.1604 39.1932C59.1604 39.1932 57.7348 32.9324 57.8714 29.2181C58.008 25.5044 77.2074 35.0711 77.0702 35.2654C76.9143 35.4597 73.262 37.8709 66.1332 37.4624C58.9845 37.0347 59.1604 39.1932 59.1604 39.1932Z" fill="#050605"/>
<path d="M40.6836 50.2964H42.5587C42.8318 50.2964 43.0469 50.0822 43.0469 49.8103V6.39086C43.0469 6.11895 42.8318 5.90477 42.5587 5.90477H40.6836C40.4098 5.90477 40.1953 6.11895 40.1953 6.39086V49.8103C40.2146 50.0822 40.4298 50.2964 40.6836 50.2964Z" fill="#050605"/>
<path d="M18.0473 52.474C17.9107 52.474 17.7935 52.3573 17.7935 52.2213C17.7935 52.0854 17.9107 51.9687 18.0473 51.9687H18.8479C18.8286 51.9295 18.8286 51.8904 18.8286 51.8321C18.8286 51.7737 18.8286 51.7352 18.8479 51.6961H18.5548C18.2624 51.6961 18.0473 51.4627 18.0473 51.1908C18.0473 50.9182 18.2817 50.6848 18.5548 50.6848H22.4223C22.7154 50.6848 22.9299 50.9182 22.9299 51.1908C22.9299 51.4627 22.6954 51.6961 22.4223 51.6961H22.1485C22.1685 51.7352 22.1685 51.7737 22.1685 51.8321C22.1685 51.8904 22.1685 51.9295 22.1485 51.9687H22.9499C23.0864 51.9687 23.2036 52.0854 23.2036 52.2213C23.2036 52.3573 23.0864 52.474 22.9299 52.474H18.0473Z" fill="#050605"/>
<path d="M18.0473 3.47413C17.9107 3.47413 17.7935 3.59084 17.7935 3.7268C17.7935 3.86276 17.9107 3.97947 18.0473 3.97947H18.8479C18.8286 4.01858 18.8286 4.05769 18.8286 4.11605C18.8286 4.15454 18.8286 4.21289 18.8479 4.252H18.5548C18.2624 4.252 18.0473 4.48543 18.0473 4.75734C18.0473 5.04913 18.2817 5.26331 18.5548 5.26331H22.4223C22.7154 5.26331 22.9299 5.02988 22.9299 4.75734C22.9299 4.46556 22.6954 4.252 22.4223 4.252H22.1485C22.1685 4.21289 22.1685 4.1744 22.1685 4.11605C22.1685 4.05769 22.1685 4.01858 22.1485 3.97947H22.9499C23.0864 3.97947 23.2036 3.86276 23.2036 3.7268C23.2036 3.59084 23.0864 3.47413 22.9499 3.47413H18.0473Z" fill="#050605"/>
<path d="M9.27693 15.3941L12.363 16.2881L13.261 19.8857L8.74938 19.633L6.42529 18.8552L9.27693 15.3941ZM9.27693 40.5549L6.44462 37.0747L8.76933 36.2968L13.2809 36.0634L12.363 39.6411L9.27693 40.5549Z" fill="#161616"/>
<path d="M4.64795 36.9184L13.5346 38.6101L13.5346 16.7936L4.64795 18.4853L4.64795 36.9184Z" fill="#050605"/>
<path d="M53.535 44.5211C54.2185 44.5211 54.7653 43.9767 54.7653 43.2963V37.5209C54.7653 36.8405 54.2185 36.296 53.535 36.296C52.8516 36.296 52.3047 36.8405 52.3047 37.5209V43.2963C52.324 43.9767 52.8709 44.5211 53.535 44.5211Z" fill="#050605"/>
<path d="M61.0743 20.411L60.5468 20.7803C60.5468 20.7803 60.6253 19.5946 60.5081 19.0502C58.5158 19.0303 52.8711 19.0694 52.8711 19.0694L52.6953 18.6025C52.6953 18.6025 58.7303 18.5641 60.293 18.5833C60.0785 18.3108 59.7268 18.1556 59.2971 18.0773C58.6523 17.9612 53.1056 17.6887 53.1056 17.6887L52.3242 17.1834C52.3242 17.1834 58.1447 17.4752 58.7696 17.572C59.3944 17.6695 60.293 17.7471 60.8398 18.3499C60.9178 18.4275 60.9764 18.5249 61.0157 18.6417C61.5819 18.7 62.2267 18.7969 62.6757 19.2445C63.2225 19.7889 63.0667 21.2081 63.0667 21.2081L62.5784 21.6166C62.5784 21.6166 62.5584 20.3917 62.4025 19.9056C62.2267 19.4195 61.797 19.1662 61.1722 19.0886H61.1523C61.2109 19.7107 61.0743 20.411 61.0743 20.411Z" fill="#E9E9E9"/>
<path d="M94.7266 32.5828H92.6563V23.347H94.7266V32.5828ZM87.3634 32.7187H85.9379V31.4939C85.5275 32.4661 85.0393 33.1856 84.6483 33.6133C83.8476 34.5271 82.969 34.5079 82.969 34.5079C82.969 34.5079 81.8166 35.0908 80.7815 35.2852C79.7463 35.4602 79.2581 35.5968 78.9843 35.7911C78.7112 35.9854 75.2347 36.3356 73.8285 36.4324C73.0858 36.4908 67.1288 36.6273 61.6993 36.7434C61.0351 37.6188 59.9414 39.0771 59.5317 39.6408C58.9262 40.477 58.1056 41.1773 58.1056 41.1773C58.1056 41.1773 56.8166 41.7993 56.4262 41.5659C56.0353 41.3325 55.3125 39.9325 54.8829 38.8629C54.4726 37.8714 54.2188 37.327 54.4339 36.8993L52.4222 36.9384L52.0312 27.9546L52.4222 18.9715L54.4726 19.0106V16.6578C54.4726 16.0158 55.0001 16.0158 55.3711 16.1518C55.6449 16.2493 55.7621 17.9602 55.8208 19.0491C61.602 19.1658 72.7734 19.4185 73.7892 19.4967C75.1954 19.5936 78.6526 19.9245 78.9456 20.138C79.2381 20.3522 79.7264 20.4689 80.7422 20.644C81.7773 20.819 82.9297 21.4212 82.9297 21.4212C82.9297 21.4212 83.8089 21.402 84.6096 22.3158C85 22.7634 85.4883 23.4829 85.8986 24.4551V23.2296H87.3241L87.3634 32.7187Z" fill="#050605"/>
<path d="M92.012 32.7184V23.2293H87.3638V32.7184H92.012Z" fill="#161616"/>
<path d="M11.0742 19.4961C11.4259 19.4961 11.719 19.7878 11.719 20.138C11.719 20.4881 11.4259 20.7799 11.0742 20.7799C10.9177 20.7799 10.7618 20.7215 10.6445 20.6241L8.45701 21.5187L8.53496 21.6354L8.76942 21.6937L9.02322 22.0824L16.5037 24.7854L17.285 25.4267L9.16041 22.6076H8.37906L8.20321 22.5293L11.6017 23.735L11.2107 24.2409L6.60123 22.6461C6.50395 22.6852 6.40605 22.7044 6.30877 22.7044C6.03502 22.7044 5.80055 22.5492 5.70327 22.335L4.43366 21.888C4.2971 21.9849 4.08196 22.0631 3.8475 22.0631C3.41785 22.0631 3.06615 21.8297 3.06615 21.5572C3.06615 21.5187 3.06615 21.4796 3.0861 21.4411H3.06615H1.79716L0 20.9159L0.507595 20.0213L2.18752 20.4099L2.69512 20.9159L3.45713 21.1102C3.57437 21.0711 3.71093 21.0326 3.8475 21.0326C4.1992 21.0326 4.51161 21.1878 4.58956 21.4019H4.60951C4.60951 21.4019 6.50395 21.5572 6.9336 21.266C7.16807 21.1102 7.55843 21.0909 7.83218 21.0909L10.4101 20.0989C10.4494 19.7878 10.7225 19.4961 11.0742 19.4961ZM11.0742 36.4324C10.7225 36.4324 10.4294 36.1605 10.4294 35.7905L7.85151 34.799C7.55843 34.8183 7.1874 34.799 6.95293 34.624C6.52328 34.3322 4.62884 34.488 4.62884 34.488H4.60951C4.51161 34.7016 4.21853 34.8574 3.86745 34.8574C3.71093 34.8574 3.57437 34.8381 3.47647 34.7798L2.71507 34.9741L2.20685 35.4794L0.52755 35.8687L0 35.0324L1.79716 34.5271H3.0861H3.10543C3.0861 34.488 3.0861 34.4489 3.0861 34.4104C3.0861 34.1186 3.43718 33.9044 3.86745 33.9044C4.10129 33.9044 4.2971 33.9628 4.45299 34.0795L5.7226 33.6325C5.82051 33.4183 6.05497 33.2631 6.3281 33.2631C6.426 33.2631 6.52328 33.2824 6.62119 33.3215L11.2307 31.7266L11.6211 32.2326L8.20321 33.4183L8.37906 33.36H9.16041L17.285 30.5409L16.5037 31.1822L9.02322 33.8659L8.76942 34.2546L8.55491 34.3129L8.47634 34.4296L10.6639 35.3242C10.7811 35.2268 10.9177 35.1684 11.0935 35.1684C11.4452 35.1684 11.7383 35.4602 11.7383 35.8103C11.719 36.1605 11.4452 36.4324 11.0742 36.4324Z" fill="#050605"/>
<path d="M99.9996 24.7665H88.144V23.9886H99.9996V24.7665ZM99.9996 25.797H88.144V25.0191H99.9996V25.797ZM99.9996 26.8276H88.144V26.0497H99.9996V26.8276ZM99.9996 27.8382H88.144V27.0604H99.9996V27.8382ZM99.9996 28.8688H88.144V28.0909H99.9996V28.8688ZM99.9996 29.8993H88.144V29.1214H99.9996V29.8993ZM99.9996 30.9299H88.144V30.152H99.9996V30.9299ZM99.9996 31.9412H88.144V31.1633H99.9996V31.9412Z" fill="#272626"/>
<path d="M97.285 24.6288H91.4845V24.7648H90.7031V23.9875H91.4845V24.1235H97.285V24.6288ZM97.285 25.6594H91.4845V25.7953H90.7031V25.0181H91.4845V25.154H97.285V25.6594ZM97.285 26.6899H91.4845V26.8265H90.7031V26.0486H91.4845V26.1846H97.285V26.6899ZM97.285 27.7205H91.4845V27.857H90.7031V27.0792H91.4845V27.1959H97.285V27.7205ZM97.285 28.751H91.4845V28.8876H90.7031V28.1097H91.4845V28.2457H97.285V28.751ZM97.285 29.7623H91.4845V29.8983H90.7031V29.1204H91.4845V29.257H97.285V29.7623ZM97.285 30.7928H91.4845V30.9288H90.7031V30.1509H91.4845V30.2875H97.285V30.7928ZM97.285 31.8234H91.4845V31.9594H90.7031V31.1815H91.4845V31.3181H97.285V31.8234Z" fill="#050605"/>
<path d="M16.8749 38.1045H11.2109V27.9741L11.2109 17.8437H16.8749V27.9741V38.1045Z" fill="#161616"/>
<path d="M80.4105 13.4682L79.5119 15.2574C79.5119 15.2574 79.5319 15.8018 79.3754 16.0346C79.2188 16.2488 78.985 16.5406 78.985 16.5406L79.1216 21.4208L75.6451 20.9154L76.0355 16.5598C76.0355 16.5598 75.5665 15.9763 75.5279 15.7819C75.4886 15.5876 75.5279 15.3933 75.5279 15.3933L74.3755 13.4682H80.4105ZM80.4105 42.4792L79.5119 40.6901C79.5119 40.6901 79.5319 40.1456 79.3754 39.9128C79.2188 39.6794 78.985 39.4069 78.985 39.4069L79.1216 34.5267L75.6451 35.032L76.0355 39.3876C76.0355 39.3876 75.5665 39.9712 75.5279 40.1655C75.4886 40.3598 75.5279 40.5541 75.5279 40.5541L74.3755 42.4792H80.4105Z" fill="#050605"/>
<path d="M77.8319 14.3829C77.8319 14.3829 75.3513 15.8412 74.9996 16.1721C74.6485 16.5024 73.4569 17.9607 73.4569 17.9607L73.3203 20.6637H74.1017V18.3499L75.781 16.4248L79.0036 14.3637H77.8319V14.3829ZM77.8319 41.5663C77.8319 41.5663 75.3513 40.108 74.9996 39.7772C74.6485 39.4469 73.4569 37.9886 73.4569 37.9886L73.3203 35.2856H74.1017V37.6L75.781 39.5245L79.0036 41.5856C78.9843 41.5663 77.8319 41.5663 77.8319 41.5663Z" fill="#161616"/>
<path d="M38.2033 50.8218H35.1172C34.8441 51.0552 34.5117 51.1912 34.1407 51.1912H6.83594C6.46491 51.1912 6.11384 51.0552 5.85942 50.8218H2.77394C2.16844 50.8218 1.68018 48.2938 1.68018 45.1637C1.68018 42.033 2.16844 39.505 2.77394 39.505H5.85942C6.13317 39.2716 6.46491 39.1357 6.83594 39.1357H34.1407C34.5117 39.1357 34.8634 39.2716 35.1172 39.505H38.2033C38.8088 39.505 39.2971 42.033 39.2971 45.1637C39.2971 48.2938 38.8088 50.8218 38.2033 50.8218Z" fill="#272626"/>
<path d="M38.2033 5.1265C38.8088 5.1265 39.2971 7.65444 39.2971 10.7846C39.2971 13.9153 38.8088 16.4432 38.2033 16.4432H35.1172C34.8441 16.6767 34.5117 16.8126 34.1407 16.8126L6.83594 16.8126C6.46491 16.8126 6.11384 16.6767 5.85942 16.4432H2.77394C2.16844 16.4432 1.68018 13.9153 1.68018 10.7846C1.68018 7.65444 2.16844 5.1265 2.77394 5.1265H5.85942C6.13317 4.89308 6.46491 4.75712 6.83594 4.75712L34.1407 4.75712C34.5117 4.75712 34.8634 4.89308 35.1172 5.1265H38.2033Z" fill="#272626"/>
<path d="M7.69531 16.5218H6.24985C6.24985 16.5218 5.70297 15.0052 6.69883 13.0025C7.61674 11.1742 8.94497 10.1244 9.35529 10.4938C9.7656 10.8632 9.72632 11.2325 8.43738 12.8659C7.14843 14.4992 7.69531 16.5218 7.69531 16.5218ZM37.8511 5.10764C37.8511 5.10764 37.3042 7.51886 37.8511 8.4718C38.6324 9.83261 38.3786 10.3187 37.9097 10.6881C37.4408 11.0581 37.0897 10.4745 36.5428 8.64687C35.9373 6.64414 36.6401 5.1275 36.6401 5.1275L37.8511 5.10764ZM4.06233 16.4436L2.85134 16.4244C2.85134 16.4244 2.1286 14.9077 2.75343 12.905C3.30031 11.0966 3.65201 10.4938 4.12095 10.8632C4.60921 11.2325 4.86301 11.7186 4.06233 13.0801C3.51545 14.033 4.06233 16.4436 4.06233 16.4436ZM4.98024 5.10764C4.98024 5.10764 4.43336 7.51886 4.98024 8.4718C5.76159 9.83261 5.50779 10.3187 5.03886 10.6881C4.56993 11.0581 4.21823 10.4745 3.67134 8.64687C3.06585 6.64414 3.76925 5.1275 3.76925 5.1275L4.98024 5.10764ZM10.6249 5.1275C10.6249 5.1275 10.078 7.13023 11.3476 8.78283C12.6366 10.4354 12.6752 10.7856 12.2655 11.1549C11.8552 11.5243 10.527 10.4745 9.60909 8.64687C8.59327 6.64414 9.16011 5.1275 9.16011 5.1275H10.6249ZM13.1835 16.5218H11.7187C11.7187 16.5218 11.1718 15.0052 12.1676 13.0025C13.0856 11.1742 14.3944 10.1244 14.8241 10.4938C15.2537 10.8632 15.1951 11.2325 13.9062 12.8659C12.6366 14.4992 13.1835 16.5218 13.1835 16.5218ZM16.113 5.1275C16.113 5.1275 15.5662 7.13023 16.8358 8.78283C18.1247 10.4354 18.164 10.7856 17.7537 11.1549C17.3434 11.5243 16.0151 10.4745 15.0972 8.64687C14.082 6.64414 14.6482 5.1275 14.6482 5.1275H16.113ZM18.6716 16.5218H17.2068C17.2068 16.5218 16.6599 15.0052 17.6558 13.0025C18.5737 11.1742 19.8826 10.1244 20.3122 10.4938C20.7419 10.8632 20.6833 11.2325 19.3943 12.8659C18.1247 14.4992 18.6716 16.5218 18.6716 16.5218ZM21.5818 5.1275C21.5818 5.1275 21.035 7.13023 22.3046 8.78283C23.5935 10.4354 23.6328 10.7856 23.2225 11.1549C22.8122 11.5243 21.4839 10.4745 20.566 8.64687C19.5502 6.64414 20.1171 5.1275 20.1171 5.1275H21.5818ZM35.0973 16.5218H33.6326C33.6326 16.5218 33.0857 15.0052 34.0815 13.0025C34.9994 11.1742 36.3083 10.1244 36.738 10.4938C37.1483 10.8632 37.109 11.2325 35.8201 12.8659C34.5505 14.4992 35.0973 16.5218 35.0973 16.5218ZM29.6285 16.5218H28.1637C28.1637 16.5218 27.6169 15.0052 28.6127 13.0025C29.5306 11.1742 30.8395 10.1244 31.2692 10.4938C31.6795 10.8632 31.6402 11.2325 30.3513 12.8659C29.0817 14.4992 29.6285 16.5218 29.6285 16.5218ZM32.5388 5.1275C32.5388 5.1275 31.9919 7.13023 33.2615 8.78283C34.5505 10.4354 34.5897 10.7856 34.1794 11.1549C33.7691 11.5243 32.4409 10.4745 31.523 8.64687C30.5271 6.64414 31.074 5.1275 31.074 5.1275H32.5388ZM24.1404 16.5218H22.6756C22.6756 16.5218 22.1287 15.0052 23.1246 13.0025C24.0425 11.1742 25.3707 10.1244 25.781 10.4938C26.1914 10.8632 26.1521 11.2325 24.8631 12.8659C23.5935 14.4992 24.1404 16.5218 24.1404 16.5218ZM27.07 5.1275C27.07 5.1275 26.5231 7.13023 27.7927 8.78283C29.0817 10.4354 29.1209 10.7856 28.7106 11.1549C28.3003 11.5243 26.9721 10.4745 26.0542 8.64687C25.0583 6.64414 25.6052 5.1275 25.6052 5.1275H27.07ZM7.69531 39.4272C7.69531 39.4272 7.14843 41.43 8.41742 43.0826C9.68703 44.7358 9.74565 45.0853 9.33596 45.4547C8.92564 45.8247 7.61674 44.7743 6.69883 42.9466C5.68302 40.9439 6.24985 39.4272 6.24985 39.4272H7.69531ZM37.8511 50.8408L36.6401 50.8216C36.6401 50.8216 35.9174 49.3049 36.5428 47.3022C37.0897 45.4938 37.4408 44.891 37.9097 45.2604C38.3786 45.6297 38.6518 46.1158 37.8511 47.4773C37.3042 48.4302 37.8511 50.8408 37.8511 50.8408ZM4.06233 39.5048C4.06233 39.5048 3.51545 41.9161 4.06233 42.869C4.84368 44.2298 4.58988 44.7159 4.12095 45.0853C3.63268 45.4547 3.30031 44.8717 2.75343 43.0441C2.14794 41.0413 2.85134 39.5247 2.85134 39.5247L4.06233 39.5048ZM4.98024 50.8408L3.76925 50.8216C3.76925 50.8216 3.04652 49.3049 3.67134 47.3022C4.21823 45.4938 4.56993 44.891 5.03886 45.2604C5.50779 45.6297 5.78092 46.1158 4.98024 47.4773C4.43336 48.4302 4.98024 50.8408 4.98024 50.8408ZM10.6249 50.8216H9.16011C9.16011 50.8216 8.61323 49.3049 9.60909 47.3022C10.5463 45.4745 11.8552 44.4241 12.2655 44.7935C12.6752 45.1635 12.6366 45.5329 11.3476 47.1662C10.0581 48.7996 10.6249 50.8216 10.6249 50.8216ZM13.1835 39.4272C13.1835 39.4272 12.6366 41.43 13.9062 43.0826C15.1951 44.7358 15.2338 45.0853 14.8241 45.4547C14.4138 45.8247 13.0856 44.7743 12.187 42.9466C11.1718 40.9439 11.7187 39.4272 11.7187 39.4272H13.1835ZM16.113 50.8216H14.6482C14.6482 50.8216 14.1014 49.3049 15.0972 47.3022C16.0151 45.4745 17.3434 44.4241 17.7537 44.7935C18.164 45.1635 18.1247 45.5329 16.8358 47.1662C15.5662 48.8188 16.113 50.8216 16.113 50.8216ZM18.6716 39.4272C18.6716 39.4272 18.1247 41.43 19.3943 43.0826C20.6833 44.7358 20.7225 45.0853 20.3122 45.4547C19.9019 45.8247 18.5737 44.7743 17.6558 42.9466C16.6406 40.9439 17.2068 39.4272 17.2068 39.4272H18.6716ZM21.5818 50.8216H20.1171C20.1171 50.8216 19.5702 49.3049 20.566 47.3022C21.4839 45.4745 22.7928 44.4241 23.2225 44.7935C23.6521 45.1635 23.5935 45.5329 22.3046 47.1662C21.035 48.8188 21.5818 50.8216 21.5818 50.8216ZM35.0973 39.4272C35.0973 39.4272 34.5505 41.43 35.8201 43.0826C37.109 44.7358 37.1483 45.0853 36.738 45.4547C36.3277 45.8247 34.9994 44.7743 34.0815 42.9466C33.0857 40.9439 33.6326 39.4272 33.6326 39.4272H35.0973ZM29.6285 39.4272C29.6285 39.4272 29.0817 41.43 30.3513 43.0826C31.6402 44.7358 31.6795 45.0853 31.2692 45.4547C30.8589 45.8247 29.5306 44.7743 28.6127 42.9466C27.6169 40.9439 28.1637 39.4272 28.1637 39.4272H29.6285ZM32.5388 50.8216H31.074C31.074 50.8216 30.5271 49.3049 31.523 47.3022C32.4409 45.4745 33.7498 44.4241 34.1794 44.7935C34.5897 45.1635 34.5505 45.5329 33.2615 47.1662C31.9919 48.8188 32.5388 50.8216 32.5388 50.8216ZM24.1404 39.4272C24.1404 39.4272 23.5935 41.43 24.8631 43.0826C26.1327 44.7358 26.1914 45.0853 25.781 45.4547C25.3707 45.8247 24.0425 44.7743 23.1246 42.9466C22.1088 40.9439 22.6756 39.4272 22.6756 39.4272H24.1404ZM27.07 50.8216H25.6052C25.6052 50.8216 25.0583 49.3049 26.0542 47.3022C26.9721 45.4745 28.281 44.4241 28.7106 44.7935C29.1209 45.1635 29.0817 45.5329 27.7927 47.1662C26.5038 48.7996 27.07 50.8216 27.07 50.8216Z" fill="#161616"/>
<path d="M18.047 19.5542V19.7684L11.8554 19.5157L11.1134 18.7764C9.62923 18.2127 8.41824 17.2405 8.24239 15.5488C7.81274 11.3291 12.4609 9.34626 13.9064 9.13208C15.3518 8.91852 33.9452 9.26804 35.1755 9.38475C36.4064 9.50146 37.0506 9.87084 37.8906 10.532C38.7305 11.2124 40.5857 13.1959 40.7229 13.3517C40.8594 13.5069 20.8793 20.157 20.8793 20.157C20.8793 20.157 19.4924 19.7101 18.047 19.5542ZM14.1795 29.8988H10.1761V27.9737V26.0485H14.1795V27.9737V29.8988ZM11.1134 37.1709L11.8554 36.4322L18.047 36.1795V36.3931C19.4924 36.2379 20.8793 35.7903 20.8793 35.7903C20.8793 35.7903 40.8594 42.4211 40.7229 42.5962C40.5857 42.7707 38.7112 44.7349 37.8906 45.4153C37.0506 46.0957 36.4064 46.4458 35.1755 46.5626C33.9452 46.6793 15.3712 47.0294 13.9064 46.8152C12.4416 46.6017 7.81274 44.6374 8.24239 40.4184C8.41824 38.7267 9.62923 37.7346 11.1134 37.1709Z" fill="#004384"/>
<g opacity="0.102005">
<mask id="mask1_2587_191" style="mask-type:alpha" maskUnits="userSpaceOnUse" x="8" y="9" width="33" height="38">
<rect width="32.5091" height="37.8189" transform="matrix(1 0 0 -1 8.21484 46.8831)" fill="#D9D9D9"/>
</mask>
<g mask="url(#mask1_2587_191)">
<path d="M18.0479 19.5541V19.7683L11.8564 19.5156L11.1143 18.7762C9.63021 18.2125 8.41922 17.2404 8.24337 15.5486C7.81372 11.329 12.4619 9.34613 13.9074 9.13195C15.3528 8.9184 33.9461 9.26791 35.1765 9.38463C36.4074 9.50134 37.0516 9.87072 37.8915 10.5319C38.7315 11.2123 40.5867 13.1958 40.7238 13.3516C40.8604 13.5068 20.8802 20.1569 20.8802 20.1569C20.8802 20.1569 19.4934 19.7099 18.0479 19.5541ZM14.1805 29.8987H10.1771V27.9735V26.0484H14.1805V27.9735V29.8987ZM11.1143 37.1708L11.8564 36.4321L18.0479 36.1794V36.393C19.4934 36.2377 20.8802 35.7901 20.8802 35.7901C20.8802 35.7901 40.8604 42.421 40.7238 42.5961C40.5867 42.7705 38.7122 44.7348 37.8915 45.4152C37.0516 46.0956 36.4074 46.4457 35.1765 46.5624C33.9461 46.6791 15.3721 47.0293 13.9074 46.8151C12.4426 46.6015 7.81372 44.6373 8.24337 40.4183C8.41922 38.7266 9.63021 37.7345 11.1143 37.1708Z" fill="#050605"/>
</g>
</g>
<path d="M17.5195 41.5662C17.5195 41.5662 16.0547 41.5469 15.7224 40.7883C15.4099 40.0688 14.2775 35.0328 14.512 27.9549C14.2576 20.8771 15.3906 15.8411 15.7224 15.1215C16.0547 14.3635 17.5195 14.3443 17.5195 14.3443L18.7112 27.9357L17.5195 41.5662Z" fill="#272626"/>
<path d="M51.679 12.9235V13.2737C52.2066 13.3122 52.7335 13.3705 52.968 13.468C52.9879 13.468 53.0072 13.4872 53.0266 13.5263L54.6479 11.7372C53.71 12.0873 52.2845 12.6125 51.679 12.9235ZM51.679 43.0235C52.3038 43.3538 53.71 43.879 54.6479 44.2092L53.0266 42.4207C53.0072 42.4399 52.9879 42.4598 52.968 42.4791C52.7335 42.5759 52.2066 42.6343 51.679 42.6734V43.0235ZM55.8782 45.8817C55.8589 46.1927 55.6051 46.387 55.3507 46.3094C55.0969 46.2318 54.9603 45.9593 54.9996 45.6675L55.1162 44.7928L52.441 43.8597C52.2066 43.7815 51.9328 43.6648 51.6597 43.5096V45.3565V45.7842L51.5225 45.8625C51.3666 46.1344 51.0542 46.3094 50.7218 46.3094H50.6245H42.1089H41.8938C41.3862 46.3094 40.9565 45.8817 40.9565 45.3764V43.6263V41.4485V40.0678C40.9565 39.5625 41.3662 39.1347 41.8938 39.1347H42.773L47.4405 27.9732L42.773 16.8123H41.8938C41.3862 16.8123 40.9565 16.4038 40.9565 15.8792V14.4985V12.3207V10.5514C40.9565 10.0455 41.3662 9.61773 41.8938 9.61773H42.1089H50.6245H50.7218C51.0542 9.61773 51.3666 9.7928 51.5225 10.0653L51.6597 10.1429V10.5707V12.4182C51.9135 12.2624 52.1866 12.1457 52.441 12.0681L55.1162 11.1344L54.9996 10.2596C54.9603 9.98711 55.1162 9.69595 55.3507 9.61773C55.6045 9.54013 55.8589 9.73444 55.8782 10.0455L56.0934 12.4182C56.1127 12.6318 55.9368 12.7876 55.7217 12.7876C55.5265 12.7876 55.3313 12.6125 55.312 12.4182L55.2141 11.6987C54.7452 12.2624 53.9445 13.2346 53.7493 13.468C53.5928 13.6431 53.3589 13.8181 53.2024 13.9541C53.71 15.8594 54.1397 22.7038 54.1397 22.7038L54.5307 27.9732L54.1397 33.2426C54.1397 33.2426 53.71 40.1069 53.2024 41.993C53.3783 42.1097 53.5928 42.304 53.7493 42.4791C53.9445 42.6926 54.7452 43.6648 55.2141 44.2484L55.312 43.5288C55.3313 43.3345 55.5265 43.1787 55.7217 43.1595C55.9368 43.1595 56.0934 43.3153 56.0934 43.5288L55.8782 45.8817Z" fill="#101010"/>
<path d="M15.7225 35.9268C15.586 35.9268 13.4957 34.8571 13.2812 34.5076C13.2033 34.3909 13.1247 34.2742 13.0468 34.1767L11.9923 34.1183C11.9923 34.1183 11.2109 33.9048 11.2109 33.3405C11.2109 32.796 11.9923 32.5626 11.9923 32.5626H15.9957L15.5274 33.1654C15.6053 34.0016 15.8398 35.9268 15.7225 35.9268Z" fill="#050605"/>
<path d="M54.7649 14.9657C55.1946 15.0048 55.5463 15.6076 55.5463 16.3073C55.5463 17.0076 55.1946 17.5712 54.7649 17.5321L52.9678 17.3962V14.8298L54.7649 14.9657Z" fill="#050605"/>
<path d="M53.6325 15.1213C53.9842 15.1405 54.2573 15.6266 54.2573 16.1909C54.2573 16.7546 53.9842 17.2016 53.6325 17.1631L52.187 17.0464V14.9853L53.6325 15.1213Z" fill="#161616"/>
<path d="M12.1095 11.6798C12.1095 11.6798 12.0509 15.3351 11.9729 15.3934C11.895 15.4717 11.3281 15.3934 11.3281 15.3934C11.3281 15.3934 11.2895 15.4326 11.0743 15.2575C10.8598 15.1023 11.0743 13.0213 11.0743 12.3018C11.0743 11.6022 11.3281 11.6605 11.3281 11.6605L12.1095 11.6798ZM24.7464 12.7103L23.8478 13.9935H17.2659C17.2659 13.9935 16.9142 13.2939 16.7583 12.5743C16.6018 11.8548 17.2659 11.7965 17.2659 11.7965V10.3773H24.7464V12.7103ZM17.2659 14.1102L16.8755 15.53C16.8755 15.53 15.5666 15.4518 15.3322 15.0241C15.0977 14.5963 15.4494 13.9159 15.9769 13.7409C16.5039 13.5465 17.2659 14.1102 17.2659 14.1102ZM12.1095 44.2685H11.3281C11.3281 44.2685 11.0743 44.3269 11.0743 43.6272C11.0743 42.927 10.8598 40.8466 11.0743 40.6716C11.2895 40.4965 11.3281 40.5356 11.3281 40.5356C11.3281 40.5356 11.895 40.4574 11.9729 40.5356C12.0509 40.6132 12.1095 44.2685 12.1095 44.2685ZM24.7464 43.238V45.5518H17.2659V44.1326C17.2659 44.1326 16.5824 44.0742 16.7583 43.3547C16.9341 42.6352 17.2659 41.9355 17.2659 41.9355H23.8478L24.7464 43.238ZM17.2659 41.8381C17.2659 41.8381 16.5039 42.4018 15.9769 42.2267C15.4494 42.0523 15.0784 41.3911 15.3322 40.9435C15.586 40.4965 16.8755 40.4381 16.8755 40.4381L17.2659 41.8381Z" fill="#161616"/>
<path d="M90.0772 49.0514C90.5069 49.0514 90.8586 46.6209 90.8586 43.6261C90.8586 40.6319 90.5069 38.2015 90.0772 38.2015H87.909C87.7139 37.9873 87.4794 37.8513 87.2063 37.8513H67.9482C67.6751 37.8513 67.4406 37.9873 67.2461 38.2015H65.0772C64.6482 38.2015 64.2959 40.6319 64.2959 43.6261C64.2959 46.6209 64.6482 49.0514 65.0772 49.0514H67.2461C67.4406 49.2655 67.6751 49.4015 67.9482 49.4015H87.2063C87.4794 49.4015 87.7139 49.2655 87.909 49.0514H90.0772Z" fill="#272626"/>
<path d="M82.2258 49.051C82.2258 49.051 81.8354 47.1259 82.7334 45.5509C83.632 43.9759 83.6712 43.6258 83.3782 43.2763C83.0851 42.9261 82.1478 43.9374 81.503 45.6869C80.8003 47.612 81.1906 49.051 81.1906 49.051H82.2258Z" fill="#161616"/>
<path d="M80.1555 38.1246H79.1203C79.1203 38.1246 78.73 39.5636 79.4327 41.4887C80.0775 43.2382 81.0148 44.2495 81.3079 43.8993C81.6009 43.5498 81.5616 43.1997 80.6631 41.6247C79.7651 40.0497 80.1555 38.1246 80.1555 38.1246Z" fill="#161616"/>
<path d="M86.0744 49.051C86.0744 49.051 85.6841 47.1259 86.582 45.5509C87.4806 43.9759 87.5199 43.6258 87.2268 43.2763C86.9337 42.9261 85.9965 43.9374 85.3517 45.6869C84.6489 47.612 85.0393 49.051 85.0393 49.051H86.0744Z" fill="#161616"/>
<path d="M84.0236 38.1246H82.9885C82.9885 38.1246 82.5981 39.5636 83.3009 41.4887C83.9457 43.2382 84.8829 44.2495 85.176 43.8993C85.4691 43.5498 85.4298 43.1997 84.5312 41.6247C83.6333 40.0497 84.0236 38.1246 84.0236 38.1246Z" fill="#161616"/>
<path d="M87.8907 38.1246H86.8555C86.8555 38.1246 86.4645 39.5636 87.1673 41.4887C87.8127 43.2382 88.7493 44.2495 89.0424 43.8993C89.3355 43.5498 89.2962 43.1997 88.3976 41.6247C87.4997 40.0497 87.8907 38.1246 87.8907 38.1246Z" fill="#161616"/>
<path d="M78.34 49.051C78.34 49.051 77.9497 47.1259 78.8476 45.5509C79.7462 43.9759 79.7855 43.6258 79.4924 43.2763C79.1993 42.9261 78.2621 43.9374 77.6173 45.6869C76.9145 47.612 77.3049 49.051 77.3049 49.051H78.34Z" fill="#161616"/>
<path d="M76.2893 38.1246H75.2541C75.2541 38.1246 74.8637 39.5636 75.5665 41.4887C76.2113 43.2382 77.1486 44.2495 77.4416 43.8993C77.7347 43.5498 77.6954 43.1997 76.7969 41.6247C75.8989 40.0497 76.2893 38.1246 76.2893 38.1246Z" fill="#161616"/>
<path d="M74.4919 49.051C74.4919 49.051 74.1015 47.1259 74.9995 45.5509C75.8981 43.9759 75.9374 43.6258 75.6443 43.2763C75.3512 42.9261 74.4139 43.9374 73.7692 45.6869C73.0664 47.612 73.4567 49.051 73.4567 49.051H74.4919Z" fill="#161616"/>
<path d="M72.4216 38.1246H71.3864C71.3864 38.1246 70.9961 39.5636 71.6988 41.4887C72.3436 43.2382 73.2809 44.2495 73.574 43.8993C73.867 43.5498 73.8278 43.1997 72.9292 41.6247C72.0312 40.0497 72.4216 38.1246 72.4216 38.1246Z" fill="#161616"/>
<path d="M70.6252 49.051C70.6252 49.051 70.2348 47.1259 71.1328 45.5509C72.0314 43.9759 72.0707 43.6258 71.7776 43.2763C71.4845 42.9261 70.5472 43.9374 69.9025 45.6869C69.1997 47.612 69.59 49.051 69.59 49.051H70.6252Z" fill="#161616"/>
<path d="M66.6402 49.051C66.6402 49.051 66.2498 46.7373 66.6402 45.8427C67.2064 44.5402 67.0112 44.0734 66.6794 43.7232C66.3471 43.3731 66.1126 43.9374 65.7029 45.6676C65.2733 47.5735 65.7809 49.0318 65.7809 49.0318L66.6402 49.051Z" fill="#161616"/>
<path d="M65.9966 38.202L65.1373 38.2213C65.1373 38.2213 64.6297 39.6795 65.0594 41.5854C65.4497 43.3156 65.6842 43.8799 66.0359 43.5298C66.3676 43.1797 66.5435 42.7128 65.9966 41.4104C65.6062 40.5158 65.9966 38.202 65.9966 38.202Z" fill="#161616"/>
<path d="M89.8242 49.051C89.8242 49.051 89.4339 46.7373 89.8242 45.8427C90.3905 44.5402 90.1953 44.0734 89.8635 43.7232C89.5312 43.3731 89.2967 43.9374 88.887 45.6676C88.4574 47.5735 88.965 49.0318 88.965 49.0318L89.8242 49.051Z" fill="#161616"/>
<path d="M68.5544 38.1246H67.5192C67.5192 38.1246 67.1289 39.5636 67.8317 41.4887C68.4764 43.2382 69.4137 44.2495 69.7068 43.8993C69.9999 43.5498 69.9606 43.1997 69.062 41.6247C68.164 40.0497 68.5544 38.1246 68.5544 38.1246Z" fill="#161616"/>
<path d="M90.0772 6.89665C90.5069 6.89665 90.8586 9.32712 90.8586 12.3219C90.8586 15.3161 90.5069 17.7465 90.0772 17.7465H87.909C87.7139 17.9607 87.4794 18.0967 87.2063 18.0967H67.9482C67.6751 18.0967 67.4406 17.9607 67.2461 17.7465H65.0772C64.6482 17.7465 64.2959 15.3161 64.2959 12.3219C64.2959 9.32712 64.6482 6.89665 65.0772 6.89665H67.2461C67.4406 6.68247 67.6751 6.54651 67.9482 6.54651L87.2063 6.54651C87.4794 6.54651 87.7139 6.68247 87.909 6.89665H90.0772Z" fill="#272626"/>
<path d="M82.2258 6.89605C82.2258 6.89605 81.8354 8.82118 82.7334 10.3962C83.632 11.9712 83.6712 12.3213 83.3782 12.6708C83.0851 13.021 82.1478 12.0097 81.503 10.2602C80.8003 8.33509 81.1906 6.89605 81.1906 6.89605H82.2258Z" fill="#161616"/>
<path d="M80.1555 17.8044H79.1203C79.1203 17.8044 78.73 16.3654 79.4327 14.4403C80.0775 12.6908 81.0148 11.6795 81.3079 12.0297C81.6009 12.3792 81.5616 12.7293 80.6631 14.3043C79.7651 15.8992 80.1555 17.8044 80.1555 17.8044Z" fill="#161616"/>
<path d="M86.0744 6.89605C86.0744 6.89605 85.6841 8.82118 86.582 10.3962C87.4806 11.9712 87.5199 12.3213 87.2268 12.6708C86.9337 13.021 85.9965 12.0097 85.3517 10.2602C84.6489 8.33509 85.0393 6.89605 85.0393 6.89605H86.0744Z" fill="#161616"/>
<path d="M84.0236 17.8044H82.9885C82.9885 17.8044 82.5981 16.3654 83.3009 14.4403C83.9457 12.6908 84.8829 11.6795 85.176 12.0297C85.4691 12.3792 85.4298 12.7293 84.5312 14.3043C83.6333 15.8992 84.0236 17.8044 84.0236 17.8044Z" fill="#161616"/>
<path d="M87.8907 17.8044H86.8555C86.8555 17.8044 86.4645 16.3654 87.1673 14.4403C87.8127 12.6908 88.7493 11.6795 89.0424 12.0297C89.3355 12.3792 89.2962 12.7293 88.3976 14.3043C87.4997 15.8992 87.8907 17.8044 87.8907 17.8044Z" fill="#161616"/>
<path d="M78.34 6.89605C78.34 6.89605 77.9497 8.82118 78.8476 10.3962C79.7462 11.9712 79.7855 12.3213 79.4924 12.6708C79.1993 13.021 78.2621 12.0097 77.6173 10.2602C76.9145 8.33509 77.3049 6.89605 77.3049 6.89605H78.34Z" fill="#161616"/>
<path d="M76.2893 17.8044H75.2541C75.2541 17.8044 74.8637 16.3654 75.5665 14.4403C76.2113 12.6908 77.1486 11.6795 77.4416 12.0297C77.7347 12.3792 77.6954 12.7293 76.7969 14.3043C75.8989 15.8992 76.2893 17.8044 76.2893 17.8044Z" fill="#161616"/>
<path d="M74.4919 6.89605C74.4919 6.89605 74.1015 8.82118 74.9995 10.3962C75.8981 11.9712 75.9374 12.3213 75.6443 12.6708C75.3512 13.021 74.4139 12.0097 73.7692 10.2602C73.0664 8.33509 73.4567 6.89605 73.4567 6.89605H74.4919Z" fill="#161616"/>
<path d="M72.4216 17.8044H71.3864C71.3864 17.8044 70.9961 16.3654 71.6988 14.4403C72.3436 12.6908 73.2809 11.6795 73.574 12.0297C73.867 12.3792 73.8278 12.7293 72.9292 14.3043C72.0312 15.8992 72.4216 17.8044 72.4216 17.8044Z" fill="#161616"/>
<path d="M70.6252 6.89605C70.6252 6.89605 70.2348 8.82118 71.1328 10.3962C72.0314 11.9712 72.0707 12.3213 71.7776 12.6708C71.4845 13.021 70.5472 12.0097 69.9025 10.2602C69.1997 8.33509 69.59 6.89605 69.59 6.89605H70.6252Z" fill="#161616"/>
<path d="M66.6402 6.89721C66.6402 6.89721 66.2498 9.21097 66.6402 10.1056C67.2064 11.408 67.0112 11.8749 66.6794 12.225C66.3471 12.5751 66.1126 12.0108 65.7029 10.2806C65.2733 8.37474 65.7809 6.91646 65.7809 6.91646L66.6402 6.89721Z" fill="#161616"/>
<path d="M65.9966 17.7463L65.1373 17.7271C65.1373 17.7271 64.6297 16.2688 65.0594 14.3629C65.4497 12.6327 65.6842 12.0684 66.0359 12.4185C66.3676 12.7687 66.5435 13.2355 65.9966 14.538C65.6062 15.4326 65.9966 17.7463 65.9966 17.7463Z" fill="#161616"/>
<path d="M89.8242 6.89721C89.8242 6.89721 89.4339 9.21097 89.8242 10.1056C90.3905 11.408 90.1953 11.8749 89.8635 12.225C89.5312 12.5751 89.2967 12.0108 88.887 10.2806C88.4574 8.37474 88.965 6.91646 88.965 6.91646L89.8242 6.89721Z" fill="#161616"/>
<path d="M68.5544 17.8044H67.5192C67.5192 17.8044 67.1289 16.3654 67.8317 14.4403C68.4764 12.6908 69.4137 11.6795 69.7068 12.0297C69.9999 12.3792 69.9606 12.7293 69.062 14.3043C68.164 15.8992 68.5544 17.8044 68.5544 17.8044Z" fill="#161616"/>
<path d="M86.1914 27.9744C86.0348 30.9102 85.0196 32.3492 84.4141 33.1079C83.75 33.9441 82.3046 34.663 81.4453 34.8964C80.586 35.1299 79.0432 35.0715 78.8674 35.2857C78.6915 35.4992 78.6329 35.7327 77.9688 35.791C77.3047 35.8494 73.0076 36.3355 72.4221 36.2964C71.8359 36.2579 54.3557 36.6465 53.8674 36.8023C53.3791 36.9575 53.2619 37.0159 52.9688 36.6657C52.6757 36.3162 52.2068 34.8772 52.4612 32.5634C52.6564 30.7743 52.715 29.4519 52.715 27.9353C52.6951 26.4187 52.6365 25.0963 52.4612 23.3078C52.2268 20.994 52.6757 19.5357 52.9688 19.2048C53.2812 18.8746 53.3791 18.9131 53.8674 19.0689C54.3557 19.244 71.8359 19.6133 72.4221 19.5742C73.0076 19.5357 77.2854 20.0411 77.9688 20.0802C78.6329 20.1385 78.6915 20.3912 78.8674 20.5855C79.0626 20.7997 80.586 20.7413 81.4453 20.9742C82.3046 21.2076 83.75 21.9463 84.4141 22.7633C85.0196 23.5996 86.0348 25.0386 86.1914 27.9744Z" fill="#004384"/>
<path d="M46.27 12.963V19.769H49.3555V12.963C49.3555 12.7495 48.6714 12.5744 47.8128 12.5744C46.9528 12.5744 46.27 12.7495 46.27 12.963ZM46.27 42.9854V36.1801H49.3555V42.9854C49.3555 43.1996 48.6714 43.374 47.8128 43.374C46.9528 43.374 46.27 43.1996 46.27 42.9854Z" fill="#050605"/>
<path d="M16.6798 16.1706C17.0701 16.2488 17.266 17.0068 17.1288 17.8431C16.9922 18.6402 16.6018 19.1846 16.2308 19.1263C15.8791 19.0487 15.664 18.3875 15.7812 17.5904C15.8791 16.7542 16.2894 16.093 16.6798 16.1706ZM16.6798 39.7763C17.0701 39.6987 17.266 38.94 17.1288 38.1038C16.9922 37.3067 16.6018 36.7622 16.2308 36.8206C15.8791 36.8982 15.664 37.5594 15.7812 38.3571C15.8791 39.1927 16.2894 39.8539 16.6798 39.7763Z" fill="#121212"/>
<path d="M49.8048 27.974C49.8241 31.0265 49.7462 34.2547 49.6289 35.6739C49.4144 38.1044 49.16 39.3683 48.8476 40.4181C48.5352 41.4685 48.2421 41.8187 47.5586 41.8379C46.8752 41.8379 44.5704 41.9348 43.9456 42.0906C43.3202 42.2656 42.6174 42.771 42.2657 43.1211C41.914 43.4713 41.5429 43.5296 41.1133 43.6265C40.6836 43.7239 26.9337 43.899 25.2538 43.8797C23.5745 43.8599 20.4297 43.9766 19.4532 43.7432C18.4767 43.5097 17.3436 43.2186 16.8753 42.2073C16.4064 41.196 16.2305 40.0295 16.2305 40.0295L16.6215 39.6409L16.2305 37.0738H15.8402C15.8402 37.0738 15.4691 32.8349 15.5278 27.974C15.4691 23.113 15.8402 18.8543 15.8402 18.8543H16.2305L16.6215 16.2879L16.2305 15.8992C16.2305 15.8992 16.4064 14.7321 16.8753 13.7214C17.3436 12.7101 18.4767 12.3991 19.4532 12.1849C20.4297 11.9714 23.5938 12.0881 25.2538 12.049C26.9144 12.0297 40.6643 12.2048 41.1133 12.3016C41.5629 12.3991 41.914 12.4575 42.2657 12.8076C42.6174 13.1571 43.3202 13.6631 43.9456 13.8382C44.5704 14.0132 46.8752 14.0908 47.5586 14.0908C48.2421 14.0908 48.5352 14.4602 48.8476 15.51C49.16 16.5604 49.4144 17.8237 49.6289 20.2548C49.7462 21.6933 49.8048 24.9215 49.8048 27.974Z" fill="#004384"/>
<path d="M49.0234 39.6408C49.2772 39.6991 49.5896 39.213 49.7068 38.5326C49.8241 37.8715 49.7068 37.2686 49.453 37.2103C49.1992 37.1519 48.8868 37.638 48.7696 38.3184C48.633 38.9796 48.7503 39.5824 49.0234 39.6408Z" fill="#161616"/>
<path d="M49.0234 16.3075C49.2772 16.2492 49.5896 16.7353 49.7068 17.3964C49.8241 18.0576 49.7068 18.6604 49.453 18.7188C49.1992 18.7771 48.8868 18.291 48.7696 17.6299C48.633 16.9687 48.7503 16.3659 49.0234 16.3075Z" fill="#161616"/>
<path d="M85.3118 24.7654C85.3118 24.7654 81.894 23.8323 81.4444 23.6181C80.9954 23.4046 80.4485 23.1904 80.2926 22.9768C80.1361 22.7626 79.921 22.5876 80.9368 22.5876H83.7691C83.7691 22.5876 84.4918 23.2487 84.8042 23.7348C85.0967 24.2402 85.3118 24.7654 85.3118 24.7654ZM85.3118 31.1821C85.3118 31.1821 81.894 32.1151 81.4444 32.3293C80.9954 32.5429 80.4485 32.7571 80.2926 32.9712C80.1361 33.1848 79.921 33.3599 80.9368 33.3599H83.7691C83.7691 33.3599 84.4918 32.6987 84.8042 32.2126C85.0967 31.7073 85.3118 31.1821 85.3118 31.1821Z" fill="white"/>
<path d="M51.1523 15.9762C51.1523 15.451 51.5627 15.0232 52.0896 15.0232C52.5585 14.6346 53.1054 14.2845 53.2226 14.2454C53.4178 14.2069 53.613 13.9542 53.613 14.3819C53.613 14.7898 53.7302 15.1791 53.4764 15.4125C53.3006 15.5677 53.164 15.7043 53.0661 15.8204C53.0661 15.8787 53.0861 15.9371 53.0861 15.9954C53.0861 16.5206 52.6564 16.9484 52.1095 16.9484C51.5627 16.9484 51.1523 16.5014 51.1523 15.9762Z" fill="#050605"/>
<path d="M82.4802 33.8657L79.5114 33.613C79.5114 33.613 75.039 34.682 73.457 34.6435C71.875 34.6044 71.3867 35.9268 71.3867 35.9268C71.3867 35.9268 76.2887 35.8492 77.3238 35.5381C78.359 35.2265 79.0431 34.8186 79.9023 34.6435C80.7616 34.4685 82.4802 33.8657 82.4802 33.8657Z" fill="#050605"/>
<path d="M82.4802 22.0636L79.5114 22.3163C79.5114 22.3163 75.039 21.2472 73.457 21.2857C71.875 21.3249 71.3867 20.0025 71.3867 20.0025C71.3867 20.0025 76.2887 20.0801 77.3238 20.3912C78.359 20.6829 79.0431 21.1107 79.9023 21.2857C80.7616 21.4801 82.4802 22.0636 82.4802 22.0636Z" fill="#050605"/>
<path d="M84.5703 30.8911C84.082 31.0271 83.0861 31.3381 82.7931 31.4163L82.7145 31.4355C82.3634 31.4355 82.0703 29.8798 82.0703 27.9745C82.0703 26.0686 82.3634 24.5135 82.7145 24.5135L82.7931 24.5328C83.0662 24.6104 84.0627 24.9214 84.5703 25.058C85.1365 25.233 85.4882 25.4273 85.7226 25.9718C85.8785 26.3412 85.9571 27.1774 85.9571 27.9745C85.9764 28.7524 85.8791 29.6079 85.7226 29.9773C85.4882 30.5217 85.1564 30.716 84.5703 30.8911Z" fill="#050605"/>
<path d="M84.5308 28.1102C84.5308 28.5379 84.7652 28.8881 85.0384 28.8881C85.3121 28.8881 85.5466 28.5379 85.5466 28.1102C85.5466 27.6825 85.3121 27.3323 85.0384 27.3323C84.7652 27.3323 84.5308 27.6825 84.5308 28.1102Z" fill="#F2F3F4"/>
<g opacity="0.501999">
<mask id="mask2_2587_191" style="mask-type:alpha" maskUnits="userSpaceOnUse" x="65" y="20" width="6" height="16">
<rect width="4.9026" height="15.9055" transform="matrix(1 0 0 -1 65.5864 35.9266)" fill="#D9D9D9"/>
</mask>
<g mask="url(#mask2_2587_191)">
<path d="M65.8596 21.1296H67.1684L66.8947 21.6933H65.5864L65.8596 21.1296ZM66.1333 20.5653H67.4416L67.2464 20.9738H65.9381L66.1333 20.5653ZM66.4064 20.0209H67.7153L67.5201 20.4294H66.2113L66.4064 20.0209ZM67.2464 21.1296H68.5553L68.2815 21.6933H66.9733L67.2464 21.1296ZM67.5201 20.5653H68.8284L68.6332 20.9738H67.325L67.5201 20.5653ZM67.7933 20.0209H69.1022L68.907 20.4294H67.5981L67.7933 20.0209ZM68.6332 21.1296H69.9421L69.6684 21.6933H68.3601L68.6332 21.1296ZM68.9064 20.5653H70.2153L70.0201 20.9738H68.7112L68.9064 20.5653ZM69.1801 20.0209H70.489L70.2932 20.4294H68.9849L69.1801 20.0209ZM65.8596 34.8185L65.5864 34.2542H66.8947L67.1684 34.8185H65.8596ZM66.1333 35.3629L65.9381 34.9544H67.2464L67.4416 35.3629H66.1333ZM66.4064 35.9266L66.2113 35.5181H67.5201L67.7153 35.9266H66.4064ZM67.2464 34.8185L66.9733 34.2542H68.2815L68.5553 34.8185H67.2464ZM67.5201 35.3629L67.325 34.9544H68.6332L68.8284 35.3629H67.5201ZM67.7933 35.9266L67.5981 35.5181H68.907L69.1022 35.9266H67.7933ZM68.6332 34.8185L68.3601 34.2542H69.6684L69.9421 34.8185H68.6332ZM68.9064 35.3629L68.7112 34.9544H70.0201L70.2153 35.3629H68.9064ZM69.1801 35.9266L68.9849 35.5181H70.2932L70.489 35.9266H69.1801Z" fill="#050605"/>
</g>
</g>
<path d="M0.156519 36.3159H1.38684C1.46542 36.3159 1.54336 36.2383 1.54336 36.1601L1.54336 33.652C1.54336 33.5744 1.46542 33.4962 1.38684 33.4962H0.156519C0.0785712 33.4962 0 33.5546 0 33.652L0 36.1601C0 36.2383 0.0785712 36.3159 0.156519 36.3159Z" fill="#050605"/>
<path d="M0.156519 22.5878H1.38684C1.46542 22.5878 1.54336 22.5102 1.54336 22.4319L1.54336 19.9239C1.54336 19.8463 1.46542 19.7681 1.38684 19.7681H0.156519C0.0785712 19.7681 0 19.8463 0 19.9239L0 22.4319C0 22.5102 0.0785712 22.5878 0.156519 22.5878Z" fill="#050605"/>
<rect width="1.54274" height="17.189" transform="matrix(1 0 0 -1 1.42578 36.5681)" fill="#050605"/>
<rect width="2.96887" height="1.14726" transform="matrix(1 0 0 -1 2.44141 33.8655)" fill="#050605"/>
<rect width="2.96887" height="1.14726" transform="matrix(1 0 0 -1 2.44141 23.2294)" fill="#050605"/>
<g opacity="0.102005">
<mask id="mask3_2587_191" style="mask-type:alpha" maskUnits="userSpaceOnUse" x="16" y="14" width="4" height="28">
<rect width="3.35936" height="27.2027" transform="matrix(1 0 0 -1 16.23 41.5857)" fill="#D9D9D9"/>
</mask>
<g mask="url(#mask3_2587_191)">
<path d="M16.23 28.111V27.8583C16.2493 24.4557 16.3865 20.4111 16.6596 19.6525C17.0307 18.6027 17.6754 15.8997 17.5969 15.1609C17.5189 14.4222 19.023 14.3831 19.3161 14.3831C19.472 14.3831 19.5699 21.0915 19.5892 27.8583V28.111C19.5506 34.858 19.4526 41.5857 19.3161 41.5857C19.023 41.5857 17.5189 41.5472 17.5969 40.8084C17.6754 40.0691 17.0307 37.3667 16.6596 36.3163C16.3865 35.5583 16.2493 31.5137 16.23 28.111Z" fill="#050605"/>
</g>
</g>
<g opacity="0.102005">
<mask id="mask4_2587_191" style="mask-type:alpha" maskUnits="userSpaceOnUse" x="46" y="16" width="4" height="24">
<rect width="3.35936" height="23.0805" transform="matrix(1 0 0 -1 46.1318 39.5243)" fill="#D9D9D9"/>
</mask>
<g mask="url(#mask4_2587_191)">
<path d="M49.4911 28.0908V27.8767C49.4717 24.98 49.3345 21.5574 49.0614 20.9161C48.6904 20.0408 48.0456 17.727 48.1242 17.105C48.2021 16.4823 46.698 16.4438 46.405 16.4438C46.2491 16.4438 46.1512 22.141 46.1318 27.8767V28.0908C46.1705 33.8271 46.2684 39.5243 46.405 39.5243C46.698 39.5243 48.2021 39.4852 48.1242 38.8631C48.0456 38.2411 48.6904 35.9267 49.0614 35.052C49.3345 34.4101 49.4717 30.9689 49.4911 28.0908Z" fill="#050605"/>
</g>
</g>
</g>
</svg>
