<svg width="100" height="56" viewBox="0 0 100 56" fill="none" xmlns="http://www.w3.org/2000/svg">
<mask id="mask0_2585_154925" style="mask-type:alpha" maskUnits="userSpaceOnUse" x="0" y="5" width="100" height="46">
<rect width="100" height="45.8788" transform="matrix(1 0 0 -1 0 50.9186)" fill="#D9D9D9"/>
</mask>
<g mask="url(#mask0_2585_154925)">
<mask id="mask1_2585_154925" style="mask-type:alpha" maskUnits="userSpaceOnUse" x="0" y="5" width="100" height="46">
<rect width="100" height="45.814" transform="matrix(1 0 0 -1 0 50.9186)" fill="#D9D9D9"/>
</mask>
<g mask="url(#mask1_2585_154925)">
<path d="M97.0131 44.8582C96.3258 46.689 94.9512 46.9627 92.8885 47.0908C90.8266 47.2196 84.1239 47.7378 70.0318 47.7378C66.1677 47.7378 61.6051 47.6793 56.8769 47.5866C57.21 49.0317 55.8491 50.4531 55.028 50.6814C54.1964 50.9122 52.4287 50.45 52.4287 50.45C52.0513 49.5101 53.2478 48.2417 54.0501 47.5282C42.3624 47.27 30.3092 46.8346 25.6935 46.5739C18.8189 46.1845 2.49302 46.1067 1.80569 42.5504C1.11837 38.994 0.946533 27.9436 0.946533 27.9436V27.9001C0.946533 27.9001 1.11837 16.8509 1.80569 13.2933C2.49302 9.73761 18.8189 9.65984 25.6935 9.27105C30.3173 9.00854 42.4062 8.57247 54.1145 8.31493C53.3134 7.61262 52.0406 6.30193 52.4287 5.33585C52.4287 5.33585 54.1964 4.87366 55.028 5.10507C55.8597 5.33585 57.2456 6.79087 56.8644 8.25459L56.8632 8.25708C61.5964 8.16502 66.164 8.10592 70.0318 8.10592C84.1239 8.10592 90.8266 8.6241 92.8885 8.75287C94.9512 8.88226 96.3258 9.15472 97.0131 10.9861C97.7005 12.8168 99.9999 23.4803 99.9999 27.7296V28.1141C99.9999 32.3634 97.7005 43.0275 97.0131 44.8582Z" fill="#1A1818"/>
</g>
<path d="M99.9997 27.7295C99.9997 23.4802 97.7009 12.8161 97.0129 10.9853C96.3256 9.15461 94.9509 8.88152 92.8889 8.75275C90.8263 8.62399 84.1242 8.1058 70.0322 8.1058C55.94 8.1058 32.5678 8.88152 25.6932 9.27031C18.8193 9.6591 2.49278 9.73686 1.80545 13.2938C1.11812 16.8502 0.946289 27.9 0.946289 27.9V27.9435C0.946289 27.9435 1.11812 38.9939 1.80545 42.5503C2.49278 46.1072 18.8193 46.185 25.6932 46.5738C32.5678 46.9626 55.94 47.7377 70.0322 47.7377C84.1242 47.7377 90.8263 47.2195 92.8889 47.0913C94.9509 46.9626 96.3256 46.6889 97.0129 44.8581C97.7009 43.0274 99.9997 32.3633 99.9997 28.1146V27.7295Z" fill="#FFA400"/>
<mask id="mask2_2585_154925" style="mask-type:alpha" maskUnits="userSpaceOnUse" x="51" y="10" width="21" height="36">
<path d="M62.9046 44.8835C59.4792 44.213 55.0984 43.0391 53.0771 42.5918C51.0551 42.1446 51.4481 41.4174 51.6162 40.5782C51.7849 39.7397 53.0771 35.435 53.0771 27.9223V27.8234C53.0771 20.3107 51.7849 16.0047 51.6162 15.1668C51.4481 14.3276 51.0551 13.601 53.0771 13.1538C55.0984 12.7065 59.4792 11.5321 62.9046 10.8615C66.3306 10.1903 67.9596 12.6095 68.5207 13.4412C69.0831 14.2723 71.8905 18.6062 71.8905 27.7332V28.0118C71.8905 37.1394 69.0831 41.4734 68.5207 42.3045C68.0265 43.0366 66.7043 45.0005 64.0562 45.0005C63.6975 45.0005 63.3133 44.9638 62.9046 44.8835Z" fill="black"/>
</mask>
<g mask="url(#mask2_2585_154925)">
<rect width="20.8354" height="34.8102" transform="matrix(1 0 0 -1 51.0554 45.0005)" fill="url(#paint0_linear_2585_154925)"/>
</g>
<mask id="mask3_2585_154925" style="mask-type:alpha" maskUnits="userSpaceOnUse" x="12" y="13" width="9" height="29">
<path d="M12.9773 27.9215V27.8226C12.9773 16.5482 15.1118 13.8771 15.1118 13.8771C15.1118 13.8771 16.8526 14.0475 18.8746 14.8263C20.8959 15.6052 20.7279 16.4518 20.6716 17.6263C20.6154 18.8001 20.2224 22.4902 20.2224 27.7324V28.0111C20.2224 33.2532 20.6154 36.9433 20.6716 38.1178C20.7279 39.2916 20.8959 40.1389 18.8746 40.9177C16.8526 41.6965 15.1118 41.8657 15.1118 41.8657C15.1118 41.8657 12.9773 39.1946 12.9773 27.9215Z" fill="black"/>
</mask>
<g mask="url(#mask3_2585_154925)">
<rect width="7.91865" height="27.9886" transform="matrix(1 0 0 -1 12.9773 41.8657)" fill="url(#paint1_linear_2585_154925)"/>
</g>
<mask id="mask4_2585_154925" style="mask-type:alpha" maskUnits="userSpaceOnUse" x="27" y="10" width="33" height="4">
<path d="M30.1465 13.0634C29.4479 12.87 28.1819 12.2958 27.4646 11.9586C27.324 11.8921 27.3653 11.683 27.5202 11.675C29.0942 11.586 33.5075 11.265 36.811 10.3363C41.6355 10.1154 48.0482 9.94748 58.9468 10.0595C59.1523 10.0619 59.183 10.3549 58.9824 10.3991C55.7676 11.102 52.7371 12.0096 51.673 12.2031C50.4376 12.4264 48.7531 12.8737 41.1706 13.209C38.3563 13.3334 36.2512 13.3844 34.6653 13.3844C31.9791 13.3844 30.7819 13.2388 30.1465 13.0634Z" fill="black"/>
</mask>
<g mask="url(#mask4_2585_154925)">
<rect width="31.8589" height="3.43692" transform="matrix(1 0 0 -1 27.324 13.3844)" fill="url(#paint2_linear_2585_154925)"/>
</g>
<mask id="mask5_2585_154925" style="mask-type:alpha" maskUnits="userSpaceOnUse" x="0" y="5" width="100" height="46">
<rect width="100" height="45.814" transform="matrix(1 0 0 -1 0 50.9186)" fill="#D9D9D9"/>
</mask>
<g mask="url(#mask5_2585_154925)">
<g opacity="0.300003">
<mask id="mask6_2585_154925" style="mask-type:alpha" maskUnits="userSpaceOnUse" x="95" y="8" width="5" height="39">
<rect width="4.0315" height="37.7763" transform="matrix(1 0 0 -1 95.1846 46.7609)" fill="#D9D9D9"/>
</mask>
<g mask="url(#mask6_2585_154925)">
<mask id="mask7_2585_154925" style="mask-type:alpha" maskUnits="userSpaceOnUse" x="95" y="8" width="5" height="39">
<rect width="4.03149" height="37.7762" transform="matrix(1 0 0 -1 95.1848 46.7609)" fill="#D9D9D9"/>
</mask>
<g mask="url(#mask7_2585_154925)">
<path d="M95.3254 8.98414L95.1848 9.08243C95.1911 9.09114 95.7934 9.95145 95.9009 10.4864C95.9165 10.5654 95.9821 10.7844 96.0908 11.1483C98.0504 17.7142 99.0445 23.2612 99.0445 27.6349V28.1096C99.0445 32.4833 98.0504 38.0303 96.0908 44.5962C95.9821 44.9595 95.9165 45.1791 95.9009 45.2575C95.7934 45.7931 95.1911 46.6534 95.1848 46.6621L95.3254 46.7598C95.351 46.7237 95.9546 45.8609 96.0696 45.2911C96.0833 45.2202 96.1521 44.9912 96.2552 44.6447C98.2203 38.0627 99.2163 32.5001 99.2163 28.1096V27.6349C99.2163 23.2444 98.2203 17.6813 96.2552 11.0998C96.1521 10.7527 96.0833 10.5238 96.0696 10.4528C95.9546 9.8824 95.351 9.02085 95.3254 8.98414Z" fill="black"/>
</g>
</g>
</g>
</g>
<mask id="mask8_2585_154925" style="mask-type:alpha" maskUnits="userSpaceOnUse" x="27" y="42" width="33" height="4">
<path d="M36.811 45.4492C33.5075 44.5211 29.0942 44.2001 27.5202 44.1111C27.3653 44.1024 27.324 43.8934 27.4646 43.8275C28.1819 43.4903 29.4479 42.9155 30.1465 42.722C31.1575 42.4427 33.5887 42.2412 41.1706 42.5765C48.7531 42.9124 50.4376 43.3597 51.673 43.5836C52.7371 43.7758 55.7676 44.6834 58.9824 45.387C59.183 45.4311 59.1523 45.7235 58.9468 45.726C56.5505 45.7503 54.3704 45.7621 52.3771 45.7621C45.3045 45.7621 40.5751 45.6215 36.811 45.4492Z" fill="black"/>
</mask>
<g mask="url(#mask8_2585_154925)">
<rect width="31.8589" height="3.52089" transform="matrix(1 0 0 -1 27.324 45.7609)" fill="url(#paint3_linear_2585_154925)"/>
</g>
<mask id="mask9_2585_154925" style="mask-type:alpha" maskUnits="userSpaceOnUse" x="0" y="5" width="100" height="46">
<rect width="100" height="45.814" transform="matrix(1 0 0 -1 0 50.9186)" fill="#D9D9D9"/>
</mask>
<g mask="url(#mask9_2585_154925)">
<path d="M94.887 44.0885C94.6845 44.7093 94.5939 44.7585 94.1728 44.7479C94.1265 44.7466 94.0759 44.7454 94.0191 44.7454C93.5198 44.7454 68.3836 45.0819 68.1299 45.0851L68.1024 45.0857L66.9052 44.2801C65.9673 44.9339 64.6533 45.4004 62.8718 45.0515C60.6474 44.616 58.0156 43.9672 55.9011 43.4459C54.7464 43.161 53.7491 42.9153 53.0399 42.7579C52.1808 42.5682 51.6746 42.3125 51.4459 41.9523C51.2229 41.6015 51.2979 41.2133 51.3841 40.8351C36.8308 40.4164 22.5763 39.3098 20.8542 39.1736C20.7749 39.8827 20.3906 40.5172 18.9366 41.0771C16.9164 41.8559 15.2006 42.0301 15.1288 42.0369L15.0357 42.0456L14.9769 41.9735C14.9701 41.9641 14.9501 41.938 14.9194 41.8926L14.9201 41.8938C9.40457 42.1987 4.59015 41.2027 3.79535 41.0273C3.84034 41.4609 3.88783 41.8559 3.93719 42.1999C3.93719 42.7846 3.58728 42.8052 3.24861 42.8251C3.17551 42.8294 3.09803 42.8338 3.0193 42.8437C2.59503 42.8966 2.21262 43.1287 2.20887 43.1305L2.1189 42.985C2.13577 42.975 2.53567 42.7318 2.99805 42.6739C3.08053 42.664 3.16176 42.659 3.23862 42.6546C3.58915 42.6341 3.76536 42.6235 3.76598 42.2123C3.20987 38.3381 2.92557 28.028 2.92245 27.9216V27.8208C2.92557 27.7169 3.20987 17.4068 3.76536 13.545C3.76536 13.1208 3.58915 13.1108 3.23862 13.0903C3.16176 13.0859 3.08053 13.081 2.99805 13.0704C2.53567 13.0132 2.13577 12.7699 2.1189 12.76L2.20887 12.6138C2.21262 12.6163 2.59378 12.8477 3.0193 12.9012C3.09803 12.9111 3.17551 12.9149 3.24861 12.9198C3.58728 12.9391 3.93719 12.9597 3.93594 13.5568C3.8872 13.8971 3.84034 14.2884 3.79598 14.717C4.49518 14.5627 8.21737 13.7932 12.7931 13.7932C13.4848 13.7932 14.1965 13.8106 14.9201 13.8511L14.9194 13.8517C14.9501 13.8063 14.9701 13.7808 14.9769 13.7715L15.0357 13.6987L15.1288 13.708C15.2006 13.7149 16.9164 13.889 18.9366 14.6672C20.3906 15.2277 20.7749 15.8616 20.8542 16.5714C22.5763 16.4345 36.8315 15.3285 51.3841 14.9092C51.2979 14.5316 51.2229 14.1435 51.4459 13.792C51.6746 13.4324 52.1808 13.1768 53.0399 12.9864C53.7491 12.8297 54.7464 12.5839 55.9017 12.299C58.0162 11.7777 60.6474 11.1289 62.8718 10.6928C63.2917 10.6107 63.6848 10.574 64.0534 10.574C65.2506 10.574 66.1879 10.9641 66.9052 11.4642L68.1024 10.6593H68.1299C68.3836 10.663 93.5198 10.9995 94.0191 10.9995C94.0759 10.9995 94.1265 10.9983 94.1728 10.997C94.5927 10.9858 94.6845 11.0356 94.887 11.6564C95.1163 12.3587 97.1376 20.5283 97.1376 27.6305V28.1144C97.1376 35.2166 95.1163 43.3856 94.887 44.0885ZM3.77786 14.8962C3.32734 19.3837 3.09678 27.7319 3.0949 27.8227V27.9197C3.09678 28.0124 3.32734 36.35 3.77723 40.8482C4.35646 40.9788 9.214 42.022 14.8176 41.7278C14.3127 40.855 12.8056 37.4529 12.8056 27.9216V27.8227C12.8056 18.292 14.3127 14.8893 14.8176 14.0172C9.21462 13.7229 4.35771 14.7661 3.77786 14.8962ZM18.8128 14.9864C17.1089 14.3301 15.5899 14.1092 15.1944 14.0601C14.872 14.5633 13.1493 17.7247 13.1493 27.8227V27.9216C13.1493 37.9829 14.8745 41.1779 15.1956 41.6848C15.5918 41.6351 17.1076 41.4149 18.8128 40.7586C20.6049 40.0681 20.5668 39.3732 20.5099 38.3219L20.4999 38.1266C20.4874 37.8666 20.4581 37.4753 20.4206 36.9801C20.2912 35.2713 20.0507 32.0907 20.0507 28.0118V27.7331C20.0507 23.6536 20.2912 20.473 20.4206 18.7642C20.4581 18.269 20.4874 17.8777 20.4999 17.6183L20.5099 17.4224C20.5668 16.3711 20.6049 15.6762 18.8128 14.9864ZM51.4753 15.3223L51.4778 15.4255C36.8315 15.8442 22.4638 16.9639 20.8698 17.0902C20.8661 17.2053 20.8598 17.3222 20.8536 17.441L20.8436 17.6345C20.8305 17.8989 20.8011 18.292 20.7636 18.7903C20.6343 20.4941 20.3943 23.6667 20.3943 27.7331V28.0118C20.3943 32.0783 20.6343 35.2502 20.7636 36.9546C20.8011 37.4523 20.8305 37.8461 20.8436 38.1104L20.8536 38.3039C20.8598 38.4221 20.8661 38.539 20.8698 38.6541C22.4638 38.781 36.8315 39.9007 51.4778 40.3194L51.4753 40.4227C51.4959 40.3312 51.5228 40.2192 51.5559 40.0824C51.9252 38.5571 52.905 34.5056 52.905 27.9216V27.8227C52.905 21.2387 51.9252 17.1878 51.5559 15.6625C51.5228 15.5257 51.4959 15.4131 51.4753 15.3223ZM62.9387 11.0288C60.7224 11.463 58.0949 12.1105 55.9842 12.6312C54.827 12.9161 53.8279 13.1625 53.1143 13.3205C52.3613 13.4872 51.9102 13.7012 51.7365 13.9749C51.579 14.2231 51.6496 14.5316 51.7321 14.8893C51.7502 14.9696 51.769 15.0504 51.7852 15.1325C51.8052 15.2327 51.8421 15.3826 51.8902 15.5823C52.262 17.1182 53.2486 21.1983 53.2486 27.8227V27.9216C53.2486 34.546 52.262 38.6268 51.8902 40.1626C51.8421 40.3623 51.8052 40.5116 51.7852 40.6118C51.769 40.6939 51.7502 40.7754 51.7321 40.855C51.6496 41.2127 51.579 41.5212 51.7365 41.7701C51.9102 42.0438 52.3613 42.2578 53.1143 42.4245C53.8272 42.5819 54.827 42.8282 55.9836 43.1137C58.0949 43.6338 60.7218 44.2813 62.9387 44.7155C63.3398 44.7945 63.7148 44.83 64.0653 44.83C66.6084 44.83 67.865 42.9694 68.3786 42.2086C69.3833 40.7225 71.7196 36.3637 71.7196 28.0118V27.7331C71.7196 19.3813 69.3833 15.0224 68.3767 13.5326C67.7944 12.6704 66.2472 10.3812 62.9387 11.0288ZM96.9658 27.6305C96.9658 20.5495 94.9519 12.4091 94.7233 11.7087C94.5439 11.1594 94.5145 11.16 94.1765 11.1681C94.1296 11.1694 94.0772 11.1706 94.0191 11.1706C93.526 11.1706 69.1122 10.844 68.1543 10.8309L67.0533 11.5712C67.8881 12.197 68.4011 12.9559 68.6641 13.3447C69.6864 14.8576 72.0633 19.2867 72.0633 27.7331V28.0118C72.0633 36.4576 69.6864 40.8873 68.6616 42.4033C68.3998 42.7902 67.8881 43.5485 67.0533 44.1737L68.1543 44.914C69.1096 44.9009 93.526 44.5743 94.0191 44.5743C94.0772 44.5743 94.1296 44.5756 94.1771 44.5768C94.5145 44.5843 94.5439 44.5849 94.7233 44.0356C94.9519 43.3352 96.9658 35.1954 96.9658 28.1144V27.6305Z" fill="#1A1818"/>
<path d="M62.2169 9.76817C62.2513 10.3909 61.3115 10.5961 60.1225 10.8555C59.9475 10.8935 59.7676 10.9327 59.5863 10.975L59.3208 11.0359C51.604 12.8244 47.6387 13.2667 45.6717 13.3233C40.5655 13.4688 35.8048 13.4707 35.7573 13.4707H35.6367L35.6392 13.4632C31.9789 13.5043 30.7361 13.3158 30.1231 13.1466C29.4158 12.9513 28.1311 12.3672 27.4275 12.0368C27.3288 11.9902 27.2763 11.8869 27.2969 11.7799C27.3182 11.6729 27.4056 11.5964 27.515 11.5902C29.2002 11.495 33.4429 11.1772 36.6914 10.2814C36.5915 10.0425 36.3797 9.38684 36.7364 8.76416L36.8858 8.84876C36.5515 9.43225 36.7877 10.073 36.8652 10.249C40.1849 10.0979 44.8263 9.93986 52.3775 9.93986C54.3577 9.93986 56.539 9.95044 58.9471 9.97532C59.0834 9.97718 59.1883 10.0717 59.2021 10.2061C59.2158 10.3405 59.1327 10.4543 59.0002 10.4835C57.1994 10.8773 55.4711 11.3314 54.0827 11.6966C53.008 11.9796 52.1588 12.2023 51.6883 12.2875C51.5659 12.3099 51.4384 12.3348 51.3015 12.3609C50.1656 12.5787 48.3198 12.9326 42.6762 13.2238C43.636 13.2045 44.6445 13.1814 45.6667 13.1522C47.6262 13.0962 51.579 12.6546 59.2821 10.8692L59.5476 10.8083C59.7294 10.7666 59.91 10.7268 60.0856 10.6888C61.1516 10.4556 62.072 10.2546 62.0457 9.7775C62.0107 9.13304 62.3475 8.12218 62.3619 8.07926L62.525 8.134C62.5212 8.14396 62.1838 9.15668 62.2169 9.76817ZM27.525 11.7613C27.4788 11.7638 27.4681 11.8011 27.4656 11.8123C27.4631 11.8241 27.4594 11.8627 27.5012 11.882C28.1992 12.2104 29.4745 12.7896 30.1693 12.9818C30.7767 13.1497 32.0164 13.3363 35.6986 13.2922L36.6771 10.4624C33.4204 11.3507 29.2052 11.6661 27.525 11.7613ZM51.6577 12.1196C52.1213 12.0356 52.9674 11.8129 54.039 11.5311C55.4293 11.166 57.1588 10.7112 58.9634 10.3162C59.0352 10.3007 59.0327 10.2366 59.0309 10.2235C59.0296 10.2111 59.0196 10.147 58.9459 10.1464C47.3569 10.0276 41.0616 10.2291 36.8733 10.4201L35.881 13.2903C37.2744 13.271 39.0034 13.2206 41.1672 13.1248C47.988 12.8225 50.0419 12.4287 51.2691 12.193C51.4065 12.1662 51.5346 12.142 51.6577 12.1196ZM27.4275 43.7498C28.1311 43.4195 29.4164 42.8354 30.1231 42.64C30.6786 42.4864 31.7514 42.3178 34.6757 42.3178C34.9763 42.3178 35.2974 42.3197 35.6392 42.3234L35.6367 42.3166H35.7573C35.8048 42.3166 40.5655 42.3178 45.6717 42.464C47.64 42.52 51.6058 42.9623 59.3227 44.7513L59.5863 44.8123C59.7676 44.854 59.9469 44.8932 60.1218 44.9311C61.3115 45.1911 62.2513 45.3964 62.2169 46.0185C62.1838 46.63 62.5212 47.6427 62.525 47.6533L62.3619 47.7074C62.3475 47.6651 62.0107 46.6536 62.0457 46.0098C62.072 45.532 61.151 45.3311 60.085 45.0984C59.9094 45.0599 59.7294 45.0207 59.5476 44.979L59.2839 44.9181C51.5802 43.1327 47.6268 42.6911 45.6667 42.6351C44.6451 42.6058 43.6378 42.5822 42.6787 42.5635C48.3204 42.8547 50.1662 43.208 51.3022 43.4263C51.439 43.4525 51.5659 43.4767 51.6883 43.4991C52.1588 43.5843 53.0086 43.8077 54.084 44.0907C55.4724 44.4559 57.1994 44.91 59.0002 45.3037C59.1333 45.333 59.2158 45.4468 59.2021 45.5812C59.1877 45.7155 59.0834 45.8101 58.9471 45.812C47.3557 45.9314 41.0566 45.7286 36.8645 45.5376C36.7877 45.7143 36.5509 46.3532 36.8858 46.9379L36.7364 47.0225C36.379 46.3998 36.5921 45.7442 36.6914 45.5059C33.4429 44.6095 29.2002 44.2916 27.515 44.1965C27.4056 44.1902 27.3182 44.1143 27.2969 44.0073C27.2763 43.8997 27.3288 43.7965 27.4275 43.7498ZM58.9459 45.6409C59.019 45.6396 59.0296 45.5762 59.0309 45.5638C59.0327 45.5507 59.0352 45.4866 58.9634 45.4711C57.1588 45.0761 55.4299 44.6213 54.0402 44.2562C52.968 43.9744 52.1213 43.7517 51.6577 43.6677C51.5346 43.6453 51.4071 43.621 51.2697 43.5943C50.0425 43.3585 47.9886 42.9641 41.1672 42.6624C39.0034 42.5666 37.2744 42.5163 35.881 42.497L36.8733 45.3666C41.0629 45.5575 47.3588 45.7597 58.9459 45.6409ZM27.4656 43.9744C27.4681 43.9856 27.4788 44.0229 27.525 44.026C29.2052 44.1206 33.4198 44.4366 36.6771 45.3243L35.6986 42.4945C32.0164 42.4509 30.7767 42.6369 30.1693 42.8049C29.4745 42.9971 28.1998 43.5763 27.5012 43.9047C27.4594 43.9246 27.4631 43.9632 27.4656 43.9744Z" fill="#1A1818"/>
<path d="M2.13893 12.7719C2.01146 12.9418 1.92711 13.1209 1.89024 13.31C1.21229 16.8185 1.03421 27.7911 1.03296 27.9V27.9423C1.03421 28.053 1.21229 39.0257 1.89024 42.5347C1.92149 42.6965 1.99022 42.8507 2.08832 42.9982C2.19892 42.936 2.59757 42.7245 2.99809 42.6741C3.08057 42.6641 3.1618 42.6591 3.23866 42.6548C3.58919 42.6343 3.7654 42.6237 3.76603 42.2119C3.20991 38.3383 2.92561 28.0281 2.92249 27.9218V27.821C2.92561 27.7171 3.20991 17.407 3.7654 13.5452C3.7654 13.1209 3.58919 13.111 3.23866 13.0904C3.1618 13.0861 3.08057 13.0811 2.99809 13.0705C2.58507 13.0195 2.22391 12.8211 2.13893 12.7719Z" fill="black"/>
<g opacity="0.25">
<mask id="mask10_2585_154925" style="mask-type:alpha" maskUnits="userSpaceOnUse" x="4" y="9" width="33" height="6">
<rect width="31.9935" height="5.08709" transform="matrix(1 0 0 -1 4.02271 14.3527)" fill="#D9D9D9"/>
</mask>
<g mask="url(#mask10_2585_154925)">
<mask id="mask11_2585_154925" style="mask-type:alpha" maskUnits="userSpaceOnUse" x="4" y="9" width="33" height="6">
<rect width="31.9933" height="5.08726" transform="matrix(1 0 0 -1 4.02295 14.3525)" fill="#D9D9D9"/>
</mask>
<g mask="url(#mask11_2585_154925)">
<path d="M4.13042 12.872C4.11543 12.7507 4.19478 12.6394 4.3135 12.6095C5.58568 12.2904 11.0931 11.0898 22.0678 11.0898C34.7278 11.0898 36.0118 9.26528 36.0118 9.26528C36.0118 9.26528 36.6985 11.0326 22.1484 11.8089C18.7112 11.8089 17.0272 12.3688 15.2514 13.44C13.3031 13.4281 7.8095 13.4972 4.02295 14.3525C4.14542 13.4984 4.15542 13.0773 4.13042 12.872Z" fill="white"/>
</g>
</g>
</g>
<g opacity="0.25">
<mask id="mask12_2585_154925" style="mask-type:alpha" maskUnits="userSpaceOnUse" x="4" y="41" width="33" height="6">
<rect width="31.9935" height="5.08726" transform="matrix(1 0 0 -1 4.02271 46.4791)" fill="#D9D9D9"/>
</mask>
<g mask="url(#mask12_2585_154925)">
<mask id="mask13_2585_154925" style="mask-type:alpha" maskUnits="userSpaceOnUse" x="4" y="41" width="33" height="6">
<rect width="31.9933" height="5.08726" transform="matrix(1 0 0 -1 4.02295 46.479)" fill="#D9D9D9"/>
</mask>
<g mask="url(#mask13_2585_154925)">
<path d="M4.13042 42.8723C4.11543 42.9936 4.19478 43.1049 4.3135 43.1348C5.58568 43.4545 11.0931 44.6545 22.0678 44.6545C34.7278 44.6545 36.0118 46.479 36.0118 46.479C36.0118 46.479 36.6985 44.7117 22.1484 43.9354C18.7112 43.9354 17.0272 43.3755 15.2514 42.3043C13.3031 42.3161 7.8095 42.2471 4.02295 41.3917C4.14542 42.2458 4.15542 42.667 4.13042 42.8723Z" fill="white"/>
</g>
</g>
</g>
<g opacity="0.350006">
<mask id="mask14_2585_154925" style="mask-type:alpha" maskUnits="userSpaceOnUse" x="3" y="13" width="12" height="29">
<rect width="11.7228" height="28.299" transform="matrix(1 0 0 -1 3.01929 41.9689)" fill="#D9D9D9"/>
</mask>
<g mask="url(#mask14_2585_154925)">
<mask id="mask15_2585_154925" style="mask-type:alpha" maskUnits="userSpaceOnUse" x="3" y="13" width="12" height="29">
<path d="M3.702 40.7958C3.25211 36.2977 3.02217 27.9607 3.01904 27.8674V27.771C3.02217 27.6795 3.25211 19.3314 3.70262 14.8444C4.28248 14.7138 9.13939 13.6706 14.7424 13.9648C14.2369 14.837 12.7304 18.2391 12.7304 27.771V27.8699C12.7304 37.4006 14.2369 40.8027 14.7424 41.6748C14.0544 41.7115 13.3771 41.7271 12.7185 41.7271C8.01029 41.7271 4.21 40.9103 3.702 40.7958Z" fill="black"/>
</mask>
<g mask="url(#mask15_2585_154925)">
<rect width="11.7233" height="28.0565" transform="matrix(1 0 0 -1 3.01904 41.7271)" fill="url(#paint4_linear_2585_154925)"/>
</g>
</g>
</g>
<g opacity="0.300003">
<mask id="mask16_2585_154925" style="mask-type:alpha" maskUnits="userSpaceOnUse" x="20" y="15" width="33" height="26">
<rect width="32.5108" height="25.1008" transform="matrix(1 0 0 -1 20.3945 40.472)" fill="#D9D9D9"/>
</mask>
<g mask="url(#mask16_2585_154925)">
<mask id="mask17_2585_154925" style="mask-type:alpha" maskUnits="userSpaceOnUse" x="20" y="15" width="33" height="26">
<path d="M51.4783 40.3688C36.8319 39.9501 22.4643 38.8304 20.8697 38.7041C20.8665 38.589 20.8609 38.4715 20.854 38.3533L20.844 38.1592C20.8315 37.8948 20.8015 37.5023 20.7641 37.004C20.6353 35.2996 20.3948 32.1276 20.3948 28.0612V27.7825C20.3948 23.7161 20.6353 20.5435 20.7641 18.8391C20.8015 18.3414 20.8315 17.9476 20.844 17.6845L20.854 17.4904C20.8609 17.3716 20.8665 17.2546 20.8697 17.1402C22.4643 17.0127 36.8319 15.8936 51.4783 15.4749L51.4758 15.3717C51.4964 15.4625 51.5232 15.5744 51.5564 15.7119C51.9256 17.2366 52.9054 21.2888 52.9054 27.8727V27.971C52.9054 34.5549 51.9256 38.6065 51.5564 40.1318C51.5232 40.2693 51.4964 40.3812 51.4758 40.472L51.4783 40.3688Z" fill="black"/>
</mask>
<g mask="url(#mask17_2585_154925)">
<rect width="32.5106" height="25.1004" transform="matrix(1 0 0 -1 20.3948 40.472)" fill="url(#paint5_radial_2585_154925)"/>
</g>
</g>
</g>
<g opacity="0.300003">
<mask id="mask18_2585_154925" style="mask-type:alpha" maskUnits="userSpaceOnUse" x="16" y="40" width="37" height="3">
<rect width="35.4969" height="2.57131" transform="matrix(1 0 0 -1 16.5425 42.9678)" fill="#D9D9D9"/>
</mask>
<g mask="url(#mask18_2585_154925)">
<mask id="mask19_2585_154925" style="mask-type:alpha" maskUnits="userSpaceOnUse" x="16" y="40" width="37" height="3">
<rect width="35.4968" height="2.571" transform="matrix(1 0 0 -1 16.5425 42.9679)" fill="#D9D9D9"/>
</mask>
<g mask="url(#mask19_2585_154925)">
<path d="M16.7306 42.5468C16.49 42.5064 16.4763 42.1649 16.7119 42.102C17.2992 41.9447 18.1303 41.7039 19.0094 41.3923C20.6709 40.8032 21.6444 40.2707 23.0197 40.4231C24.3943 40.5755 27.5635 40.843 32.0886 41.0315C36.6144 41.2199 40.1466 41.3549 46.1051 41.3923C49.488 41.4134 49.6655 41.3574 50.4915 41.3923C51.3176 41.4277 51.0295 42.2445 51.6606 42.5505C52.2923 42.8566 52.3667 43.3424 50.0179 42.4877C47.6691 41.633 43.9288 41.8669 39.7467 41.8669C38.1428 41.8669 26.342 41.4756 24.165 41.3923C22.218 41.3182 19.25 42.9742 16.7306 42.5468Z" fill="white"/>
</g>
</g>
</g>
<g opacity="0.300003">
<mask id="mask20_2585_154925" style="mask-type:alpha" maskUnits="userSpaceOnUse" x="16" y="12" width="37" height="4">
<rect width="35.4969" height="2.57125" transform="matrix(1 0 0 -1 16.5425 15.3452)" fill="#D9D9D9"/>
</mask>
<g mask="url(#mask20_2585_154925)">
<mask id="mask21_2585_154925" style="mask-type:alpha" maskUnits="userSpaceOnUse" x="16" y="12" width="37" height="4">
<rect width="35.4968" height="2.571" transform="matrix(1 0 0 -1 16.5425 15.3451)" fill="#D9D9D9"/>
</mask>
<g mask="url(#mask21_2585_154925)">
<path d="M16.7306 13.195C16.49 13.2354 16.4763 13.577 16.7119 13.6398C17.2992 13.7972 18.1303 14.0373 19.0094 14.3489C20.6709 14.938 21.6444 15.4711 23.0197 15.3187C24.3943 15.1663 27.5635 14.8988 32.0886 14.7104C36.6144 14.5219 40.1466 14.3869 46.1051 14.3489C49.488 14.3278 49.6655 14.3844 50.4915 14.3489C51.3176 14.3141 51.0295 13.4973 51.6606 13.1913C52.2923 12.8852 52.3667 12.3994 50.0179 13.2541C47.6691 14.1088 43.9288 13.8749 39.7467 13.8749C38.1428 13.8749 26.342 14.2662 24.165 14.3489C22.218 14.4236 19.25 12.7676 16.7306 13.195Z" fill="white"/>
</g>
</g>
</g>
<g opacity="0.25">
<mask id="mask22_2585_154925" style="mask-type:alpha" maskUnits="userSpaceOnUse" x="71" y="32" width="25" height="9">
<rect width="23.5835" height="8.67926" transform="matrix(1 0 0 -1 71.6624 40.8828)" fill="#D9D9D9"/>
</mask>
<g mask="url(#mask22_2585_154925)">
<mask id="mask23_2585_154925" style="mask-type:alpha" maskUnits="userSpaceOnUse" x="71" y="32" width="25" height="9">
<path d="M71.8564 40.866C72.0357 40.5065 71.8258 39.9634 71.6633 39.5024H76.0141C77.9905 39.5024 79.5376 33.9598 82.3725 33.9598C84.7782 33.9598 92.3788 33.5903 94.6288 33.4777C94.9288 33.4634 95.1793 32.4862 95.2174 32.4837C95.2224 32.4843 95.2243 32.5017 95.2218 32.5415C95.1256 33.8603 94.7444 34.6802 94.3164 34.6435C93.6466 34.5875 85.5524 35.0715 83.1892 35.3284C82.933 35.3564 81.2016 35.5561 80.9404 35.5915C80.3024 35.6767 80.0687 35.8733 79.8931 36.1103C79.7551 36.2969 78.6397 37.8776 78.5147 38.0742C78.143 38.6595 79.4595 38.7578 79.8919 38.7578C79.0821 39.8987 78.1698 40.8828 76.8733 40.8828L71.8564 40.866Z" fill="black"/>
</mask>
<g mask="url(#mask23_2585_154925)">
<rect width="23.561" height="8.39914" transform="matrix(1 0 0 -1 71.6633 40.8828)" fill="url(#paint6_radial_2585_154925)"/>
</g>
</g>
</g>
<path d="M81.8233 35.4716C82.0951 35.4392 81.9502 35.3826 81.8839 35.3826H80.7467C80.135 35.3826 79.8132 36.0924 79.5933 36.3928C79.3733 36.6939 78.7735 37.4703 78.4985 37.8808C78.2242 38.2908 78.4523 38.7579 78.7547 38.7579H79.3789C79.4258 38.7579 79.4333 38.692 79.3877 38.6814C79.0247 38.5968 78.7653 38.3088 78.9778 37.9598C79.2696 37.4815 80.075 36.4078 80.4674 35.9599C80.8136 35.5661 81.2916 35.5344 81.8233 35.4716Z" fill="black"/>
<g opacity="0.25">
<mask id="mask24_2585_154925" style="mask-type:alpha" maskUnits="userSpaceOnUse" x="71" y="14" width="25" height="10">
<rect width="23.5835" height="8.67926" transform="matrix(1 0 0 -1 71.6624 23.3435)" fill="#D9D9D9"/>
</mask>
<g mask="url(#mask24_2585_154925)">
<mask id="mask25_2585_154925" style="mask-type:alpha" maskUnits="userSpaceOnUse" x="71" y="14" width="25" height="10">
<path d="M95.2174 23.0629C95.1787 23.0591 94.9281 22.0837 94.6288 22.0682C92.3788 21.9562 84.7782 21.5867 82.3725 21.5867C79.5376 21.5867 77.9905 16.0435 76.0141 16.0435H71.6633C71.8258 15.5831 72.0357 15.0407 71.8564 14.6811L76.8733 14.6643C78.1698 14.6643 79.0821 15.6485 79.8919 16.7887C79.4595 16.7887 78.143 16.887 78.5147 17.473C78.6397 17.6689 79.7551 19.2496 79.8931 19.4362C80.0687 19.6738 80.3024 19.8698 80.9404 19.9556C81.2016 19.9905 82.933 20.1908 83.1892 20.2188C85.5524 20.4751 93.6466 20.9597 94.3164 20.9031C94.7444 20.867 95.1256 21.6869 95.2218 23.005C95.2243 23.0448 95.2224 23.0622 95.2174 23.0629Z" fill="black"/>
</mask>
<g mask="url(#mask25_2585_154925)">
<rect width="23.561" height="8.39852" transform="matrix(1 0 0 -1 71.6633 23.0629)" fill="url(#paint7_radial_2585_154925)"/>
</g>
</g>
</g>
<path d="M81.8233 20.075C82.0951 20.1067 81.9502 20.1639 81.8839 20.1639H80.7467C80.135 20.1639 79.8132 19.4542 79.5933 19.1537C79.3733 18.8526 78.7735 18.0763 78.4985 17.6657C78.2242 17.2558 78.4523 16.7886 78.7547 16.7886H79.3789C79.4258 16.7886 79.4333 16.8545 79.3877 16.8651C79.0247 16.9497 78.7653 17.2377 78.9778 17.5867C79.2696 18.0651 80.075 19.1388 80.4674 19.5867C80.8136 19.9804 81.2916 20.0122 81.8233 20.075Z" fill="black"/>
<path d="M2.94565 37.6938C3.17435 37.6938 3.36242 38.4701 3.39054 39.4742V39.4822C3.39304 39.5656 3.39492 39.6502 3.39492 39.7367C3.39492 40.8651 3.19372 41.7795 2.94565 41.7795C2.69822 41.7795 2.49702 40.8651 2.49702 39.7367C2.49702 38.6082 2.69822 37.6938 2.94565 37.6938ZM3.02626 41.0138C3.18059 41.0138 3.30806 40.4832 3.32431 39.8007H2.86317V39.4742H3.32368C3.30431 38.8036 3.17872 38.2854 3.02626 38.2854C2.8613 38.2854 2.72696 38.8963 2.72696 39.6496C2.72696 40.4029 2.8613 41.0138 3.02626 41.0138ZM2.72696 33.2647C2.95503 33.2647 3.1431 34.041 3.17185 35.0457V35.0538C3.17435 35.1371 3.1756 35.2217 3.1756 35.3082C3.1756 36.436 2.97502 37.351 2.72696 37.351C2.4789 37.351 2.27832 36.436 2.27832 35.3082C2.27832 34.1798 2.4789 33.2647 2.72696 33.2647ZM2.80756 36.5853C2.9619 36.5853 3.08874 36.054 3.10499 35.3723H2.64385V35.0457H3.10436C3.08562 34.3751 2.96002 33.8569 2.80756 33.8569C2.64198 33.8569 2.50764 34.4678 2.50764 35.2211C2.50764 35.9744 2.64198 36.5853 2.80756 36.5853ZM3.39054 16.5249C3.36242 17.5289 3.17435 18.3052 2.94565 18.3052C2.69822 18.3052 2.49702 17.3908 2.49702 16.2624C2.49702 15.1339 2.69822 14.2195 2.94565 14.2195C3.19372 14.2195 3.39492 15.1339 3.39492 16.2624C3.39492 16.3488 3.39304 16.4334 3.39054 16.5168V16.5249ZM3.02626 14.9853C2.8613 14.9853 2.72696 15.5955 2.72696 16.3495C2.72696 17.1028 2.8613 17.7136 3.02626 17.7136C3.17872 17.7136 3.30431 17.1948 3.32368 16.5249H2.86317V16.1983H3.32431C3.30806 15.5159 3.18059 14.9853 3.02626 14.9853ZM2.72696 18.648C2.97502 18.648 3.1756 19.563 3.1756 20.6909C3.1756 20.7773 3.17435 20.8619 3.17185 20.9453V20.9534C3.1431 21.9574 2.95503 22.7337 2.72696 22.7337C2.4789 22.7337 2.27832 21.8193 2.27832 20.6909C2.27832 19.563 2.4789 18.648 2.72696 18.648ZM2.80756 22.1421C2.96002 22.1421 3.08562 21.624 3.10436 20.9534H2.64385V20.6268H3.10499C3.08874 19.9444 2.9619 19.4138 2.80756 19.4138C2.64198 19.4138 2.50764 20.0246 2.50764 20.7779C2.50764 21.5313 2.64198 22.1421 2.80756 22.1421Z" fill="#870D17"/>
</g>
<mask id="mask26_2585_154925" style="mask-type:alpha" maskUnits="userSpaceOnUse" x="52" y="5" width="6" height="6">
<path d="M55.2358 10.477C54.7503 10.0303 55.1315 9.77899 55.4439 9.26517C55.7551 8.75196 54.7153 8.80608 54.7153 8.80608C54.7153 8.80608 51.8741 6.71656 52.4284 5.33619C52.4284 5.33619 52.9795 5.19187 53.6106 5.10478H55.0277C55.8594 5.33619 57.2453 6.78996 56.8641 8.25431C56.6567 8.80608 57.1422 9.40762 57.1422 9.40762C57.1422 9.40762 57.4403 10.0975 57.1422 10.477C56.9866 10.6748 56.6086 10.7867 56.2131 10.7867C55.8482 10.7867 55.4683 10.6916 55.2358 10.477Z" fill="black"/>
</mask>
<g mask="url(#mask26_2585_154925)">
<rect width="5.56611" height="5.68196" transform="matrix(1 0 0 -1 51.8743 10.7867)" fill="url(#paint8_radial_2585_154925)"/>
</g>
<mask id="mask27_2585_154925" style="mask-type:alpha" maskUnits="userSpaceOnUse" x="52" y="44" width="6" height="7">
<path d="M52.4284 50.4505C51.8741 49.0707 54.7153 46.98 54.7153 46.98C54.7153 46.98 55.7551 47.0347 55.4439 46.5209C55.1315 46.0071 54.7503 45.7558 55.2358 45.3091C55.7207 44.8631 56.8435 44.9296 57.1422 45.3091C57.4403 45.6886 57.1422 46.3791 57.1422 46.3791C57.1422 46.3791 56.6567 46.98 56.8641 47.5324C57.2453 48.9961 55.8594 50.4505 55.0277 50.6813C54.8609 50.7279 54.6578 50.746 54.4385 50.746C53.56 50.746 52.4284 50.4505 52.4284 50.4505Z" fill="black"/>
</mask>
<g mask="url(#mask27_2585_154925)">
<rect width="5.56611" height="5.88289" transform="matrix(1 0 0 -1 51.8743 50.746)" fill="url(#paint9_radial_2585_154925)"/>
</g>
<mask id="mask28_2585_154925" style="mask-type:alpha" maskUnits="userSpaceOnUse" x="0" y="5" width="100" height="46">
<rect width="100" height="45.814" transform="matrix(1 0 0 -1 0 50.9186)" fill="#D9D9D9"/>
</mask>
<g mask="url(#mask28_2585_154925)">
<g opacity="0.25">
<mask id="mask29_2585_154925" style="mask-type:alpha" maskUnits="userSpaceOnUse" x="2" y="8" width="98" height="40">
<rect width="97.7202" height="39.4606" transform="matrix(1 0 0 -1 2.11865 47.6528)" fill="#D9D9D9"/>
</mask>
<g mask="url(#mask29_2585_154925)">
<mask id="mask30_2585_154925" style="mask-type:alpha" maskUnits="userSpaceOnUse" x="2" y="8" width="98" height="40">
<path d="M37.9426 10.2834L36.736 13.3583C37.9595 13.3322 39.3972 13.2837 41.0955 13.209C48.6774 12.8737 50.3626 12.4265 51.5979 12.2031C52.662 12.0097 55.6925 11.1021 58.9073 10.3985C59.1073 10.355 59.0773 10.062 58.8711 10.0595C56.4792 10.0352 54.3022 10.024 52.3121 10.024C45.9687 10.024 41.5104 10.1366 37.9426 10.2834ZM27.4452 11.675C27.2896 11.6831 27.249 11.8927 27.3896 11.958C28.1069 12.2958 29.3735 12.87 30.0714 13.0635C30.7194 13.2426 31.9528 13.3894 34.7478 13.3838L35.0408 10.745C32.0634 11.3633 28.7618 11.6003 27.4452 11.675ZM30.0714 42.7211C29.3735 42.9146 28.1069 43.4887 27.3896 43.8265C27.249 43.8925 27.2896 44.1015 27.4452 44.1096C28.7618 44.1848 32.0634 44.4218 35.0408 45.0396L34.7478 42.4014H34.594C31.9072 42.4014 30.7075 42.5457 30.0714 42.7211ZM37.9426 45.5011C42.6302 45.6946 48.8555 45.8283 58.8711 45.7251C59.0773 45.7232 59.1073 45.4302 58.9073 45.386C55.6925 44.6831 52.662 43.7749 51.5979 43.5827C50.3626 43.3587 48.6774 42.9115 41.0955 42.5755C39.3972 42.5009 37.9595 42.4524 36.736 42.4263L37.9426 45.5011ZM25.6238 46.4877C24.6209 46.4311 23.3925 46.3801 22.0922 46.326C15.2545 46.0405 4.1454 45.5776 2.11841 43.1391C2.22213 43.0807 2.58392 42.8884 2.94445 42.8437C3.02318 42.8331 3.10066 42.8287 3.17377 42.825C3.51181 42.8051 3.86172 42.7846 3.86172 42.1998C3.81298 41.8558 3.7655 41.4608 3.72051 41.0272C4.51531 41.2026 9.32973 42.1986 14.8446 41.8931C14.8752 41.9385 14.8952 41.9641 14.9021 41.9728L14.9608 42.0455L15.0533 42.0368C15.1252 42.0294 16.841 41.8552 18.8617 41.077C20.3157 40.5171 20.6994 39.8826 20.7794 39.1728C22.5014 39.3097 36.756 40.4157 51.3092 40.8344C51.223 41.2132 51.148 41.6008 51.3711 41.9522C51.5992 42.3118 52.1053 42.5681 52.9651 42.7578C53.6743 42.9146 54.6709 43.1609 55.8262 43.4452C57.9407 43.9665 60.5726 44.6153 62.797 45.0508C64.5784 45.3997 65.8925 44.9332 66.8297 44.28L68.0276 45.085H68.0544C68.3081 45.0819 93.4443 44.7447 93.9442 44.7447C94.0011 44.7447 94.0517 44.7466 94.0979 44.7472C94.5191 44.7578 94.6091 44.7086 94.8121 44.0878C95.0414 43.3855 97.0628 35.2159 97.0628 28.1137V27.6298C97.0628 20.5276 95.0414 12.3587 94.8121 11.6557C94.6091 11.0349 94.5184 10.9857 94.0979 10.9963C94.0517 10.9976 94.0011 10.9988 93.9442 10.9988C93.4443 10.9988 68.3081 10.6623 68.0544 10.6585H68.0276L66.8304 11.4635C66.1137 10.964 65.1758 10.5733 63.9786 10.5733C63.6099 10.5733 63.2169 10.6106 62.797 10.6928C60.5726 11.1282 57.9413 11.777 55.8269 12.2983C54.6715 12.5832 53.6743 12.8289 52.9651 12.9863C52.1053 13.176 51.5992 13.4323 51.3711 13.7919C51.148 14.1427 51.223 14.5315 51.3092 14.9091C36.7566 15.3278 22.5014 16.4344 20.7794 16.5707C20.6994 15.8615 20.3157 15.227 18.8617 14.6665C16.841 13.8883 15.1252 13.7141 15.0533 13.7073L14.9608 13.698L14.9021 13.7707C14.8952 13.7801 14.8752 13.8056 14.8446 13.8516V13.8504C14.1217 13.8099 13.41 13.7931 12.7183 13.7931C8.14253 13.7931 4.41971 14.5626 3.72051 14.7169C3.7655 14.2877 3.81236 13.897 3.8611 13.5568C3.86172 12.9589 3.51181 12.939 3.17377 12.9191C3.10004 12.9142 3.02256 12.9104 2.94445 12.9005C2.59641 12.8569 2.28274 12.6964 2.17589 12.6373C4.34723 10.2561 15.3164 9.79947 22.0915 9.51705C23.3918 9.46293 24.6209 9.41192 25.6238 9.35531C32.852 8.94599 55.9987 8.19143 69.9577 8.19143C82.9463 8.19143 89.6978 8.63434 92.2396 8.80043C92.4583 8.81536 92.6477 8.82718 92.8089 8.83775C94.7465 8.95843 96.1712 9.18549 96.8579 11.015C97.5839 12.9477 99.839 23.6181 99.839 27.7287V28.1137C99.839 32.225 97.5839 42.8947 96.8579 44.8274C96.1712 46.6569 94.7465 46.8846 92.8089 47.0053C92.6477 47.0152 92.4583 47.0277 92.2396 47.0426C89.6978 47.2087 82.9463 47.6516 69.9577 47.6516C55.9968 47.6516 32.8507 46.897 25.6238 46.4877Z" fill="black"/>
</mask>
<g mask="url(#mask30_2585_154925)">
<rect width="97.7206" height="39.4602" transform="matrix(1 0 0 -1 2.11841 47.6516)" fill="url(#paint10_linear_2585_154925)"/>
</g>
</g>
</g>
<g opacity="0.25">
<mask id="mask31_2585_154925" style="mask-type:alpha" maskUnits="userSpaceOnUse" x="68" y="10" width="29" height="35">
<rect width="28.6541" height="34.0763" transform="matrix(1 0 0 -1 68.2363 44.8594)" fill="#D9D9D9"/>
</mask>
<g mask="url(#mask31_2585_154925)">
<mask id="mask32_2585_154925" style="mask-type:alpha" maskUnits="userSpaceOnUse" x="68" y="10" width="29" height="35">
<path d="M68.2361 44.8593C69.5814 44.0008 70.8279 42.6721 71.8558 40.8656C72.1014 40.4345 71.6115 39.3894 71.6115 39.3894C72.8612 36.559 73.6391 32.826 73.6391 28.1848C73.6391 23.2225 72.943 19.1978 71.6846 16.1882C71.6846 16.1882 72.2307 15.1406 72.0001 14.7158C71.036 12.9373 69.8301 11.6216 68.426 10.7824C71.5646 10.8247 93.4766 11.1171 93.9434 11.1171C94.0015 11.1171 94.054 11.1171 94.1015 11.1159C94.4389 11.1072 94.4683 11.1072 94.6476 11.6564C94.8763 12.3569 96.8902 20.4966 96.8902 27.5776V28.0616C96.8902 35.1426 94.8763 43.2823 94.6476 43.9828C94.4683 44.5327 94.4389 44.532 94.1015 44.524C94.054 44.5227 94.0015 44.5221 93.9434 44.5221C93.466 44.5221 70.5393 44.8281 68.2361 44.8593Z" fill="black"/>
</mask>
<g mask="url(#mask32_2585_154925)">
<rect width="28.6541" height="34.0768" transform="matrix(1 0 0 -1 68.2361 44.8593)" fill="url(#paint11_linear_2585_154925)"/>
</g>
</g>
</g>
</g>
<mask id="mask33_2585_154925" style="mask-type:alpha" maskUnits="userSpaceOnUse" x="0" y="5" width="100" height="46">
<rect width="100" height="45.814" transform="matrix(1 0 0 -1 0 50.9186)" fill="#D9D9D9"/>
</mask>
<g mask="url(#mask33_2585_154925)">
<g opacity="0.5">
<mask id="mask34_2585_154925" style="mask-type:alpha" maskUnits="userSpaceOnUse" x="52" y="12" width="15" height="32">
<rect width="13.7014" height="31.8279" transform="matrix(1 0 0 -1 52.3604 43.9059)" fill="#D9D9D9"/>
</mask>
<g mask="url(#mask34_2585_154925)">
<mask id="mask35_2585_154925" style="mask-type:alpha" maskUnits="userSpaceOnUse" x="52" y="12" width="15" height="32">
<path d="M53.5468 41.7263C52.8769 41.5384 52.4539 40.8859 52.5514 40.201C53.0588 36.6564 53.2331 31.6084 53.2331 27.9861C53.2331 24.3837 52.9825 19.1652 52.462 15.5814C52.3602 14.8804 52.8032 14.216 53.4937 14.0424L61.3055 12.078C64.5528 14.2658 63.8573 20.9934 63.8573 27.9861C63.8573 28.9459 65.9893 29.9008 66.0024 30.8401V30.8575L66.0018 30.8874C65.9824 30.8849 63.7292 30.8768 63.7099 30.8787C61.0218 31.112 59.8664 33.6755 59.8664 36.5476C59.8664 39.6243 61.3961 40.6843 63.6249 40.9611C63.6499 40.9636 63.6749 40.9655 63.6999 40.968C63.0425 42.2582 62.2458 43.2721 61.3055 43.906L53.5468 41.7263Z" fill="black"/>
</mask>
<g mask="url(#mask35_2585_154925)">
<rect width="13.6422" height="31.828" transform="matrix(1 0 0 -1 52.3604 43.906)" fill="url(#paint12_linear_2585_154925)"/>
</g>
</g>
</g>
<g opacity="0.149994">
<mask id="mask36_2585_154925" style="mask-type:alpha" maskUnits="userSpaceOnUse" x="52" y="13" width="7" height="30">
<rect width="6.24332" height="29.4605" transform="matrix(1 0 0 -1 52.199 42.5497)" fill="#D9D9D9"/>
</mask>
<g mask="url(#mask36_2585_154925)">
<mask id="mask37_2585_154925" style="mask-type:alpha" maskUnits="userSpaceOnUse" x="52" y="13" width="7" height="30">
<path d="M53.4238 41.738C52.8927 41.5663 52.509 41.3946 52.3466 41.0506C52.2135 40.7533 52.2428 40.3781 52.4647 39.7063C52.907 38.3938 53.4832 35.8302 53.7637 33.299C53.8668 31.6574 54.1761 31.4073 54.4717 31.1728C54.7966 30.9227 55.1359 30.6571 55.1359 27.9225V27.8441C55.1359 25.1089 54.7966 24.8433 54.4717 24.5932C54.1761 24.3587 53.8668 24.1086 53.7637 22.4676C53.4832 19.9358 52.8927 17.3723 52.4647 16.0597C52.2428 15.4034 52.1991 15.0128 52.3466 14.716C52.509 14.3714 52.8927 14.1997 53.4238 14.028C54.4823 13.6989 58.0776 13.1565 58.4163 13.0949C58.0814 13.1652 54.5373 13.903 53.4832 14.2153C52.907 14.387 52.6415 14.5599 52.5234 14.7938C52.4053 15.0439 52.4353 15.3879 52.6415 15.9975C53.0695 17.31 53.66 19.8891 53.9399 22.452C54.0436 24.0147 54.3098 24.2343 54.5748 24.4364C54.959 24.7338 55.3127 24.9994 55.3127 27.8441V27.9063C55.3127 30.7349 54.959 31.0167 54.5748 31.3134C54.3098 31.5168 54.0286 31.7358 53.9399 33.299C53.6744 35.8464 53.0845 38.4404 52.6415 39.7536C52.4497 40.3626 52.4053 40.7221 52.5234 40.9567C52.6415 41.1912 52.907 41.3473 53.4832 41.5352C54.5829 41.8923 58.3901 42.5423 58.4419 42.551C58.3813 42.5473 54.526 42.0801 53.4238 41.738Z" fill="black"/>
</mask>
<g mask="url(#mask37_2585_154925)">
<rect width="6.24281" height="29.4611" transform="matrix(1 0 0 -1 52.1992 42.5498)" fill="url(#paint13_radial_2585_154925)"/>
</g>
</g>
</g>
</g>
<mask id="mask38_2585_154925" style="mask-type:alpha" maskUnits="userSpaceOnUse" x="34" y="10" width="5" height="4">
<path d="M34.823 13.3844L35.1161 10.7443L36.8106 10.3363L38.0172 10.2834L36.8106 13.3583L34.823 13.3844Z" fill="black"/>
</mask>
<g mask="url(#mask38_2585_154925)">
<rect width="3.1942" height="3.101" transform="matrix(1 0 0 -1 34.823 13.3844)" fill="url(#paint14_linear_2585_154925)"/>
</g>
<mask id="mask39_2585_154925" style="mask-type:alpha" maskUnits="userSpaceOnUse" x="34" y="42" width="5" height="4">
<path d="M36.8106 45.4481L35.1161 45.04L34.823 42.4006L36.8106 42.4261L38.0172 45.501L36.8106 45.4481Z" fill="black"/>
</mask>
<g mask="url(#mask39_2585_154925)">
<rect width="3.1942" height="3.10038" transform="matrix(1 0 0 -1 34.823 45.501)" fill="url(#paint15_linear_2585_154925)"/>
</g>
<mask id="mask40_2585_154925" style="mask-type:alpha" maskUnits="userSpaceOnUse" x="52" y="5" width="3" height="4">
<path d="M52.6763 6.60576C52.3639 5.88043 52.5151 5.42881 52.5151 5.42881C52.5151 5.42881 53.9447 5.87608 54.9882 8.3351L54.7408 8.79419C54.7408 8.79419 52.9887 7.33171 52.6763 6.60576Z" fill="black"/>
</mask>
<g mask="url(#mask40_2585_154925)">
<rect width="2.62434" height="3.36538" transform="matrix(1 0 0 -1 52.364 8.79419)" fill="url(#paint16_linear_2585_154925)"/>
</g>
<mask id="mask41_2585_154925" style="mask-type:alpha" maskUnits="userSpaceOnUse" x="0" y="5" width="100" height="46">
<rect width="100" height="45.814" transform="matrix(1 0 0 -1 0 50.9186)" fill="#D9D9D9"/>
</mask>
<g mask="url(#mask41_2585_154925)">
<g opacity="0.600006">
<mask id="mask42_2585_154925" style="mask-type:alpha" maskUnits="userSpaceOnUse" x="52" y="5" width="3" height="4">
<rect width="2.51956" height="3.22588" transform="matrix(1 0 0 -1 52.4678 8.6543)" fill="#D9D9D9"/>
</mask>
<g mask="url(#mask42_2585_154925)">
<mask id="mask43_2585_154925" style="mask-type:alpha" maskUnits="userSpaceOnUse" x="52" y="5" width="3" height="4">
<rect width="2.51937" height="3.22604" transform="matrix(1 0 0 -1 52.4678 8.6543)" fill="#D9D9D9"/>
</mask>
<g mask="url(#mask43_2585_154925)">
<path d="M52.5149 5.42826C52.5149 5.42826 53.9439 5.87553 54.9874 8.33518L54.8162 8.6543C54.8162 8.6543 53.8383 5.48176 52.543 6.22202C52.3937 5.73618 52.5149 5.42826 52.5149 5.42826Z" fill="#1A1818"/>
</g>
</g>
</g>
</g>
<mask id="mask44_2585_154925" style="mask-type:alpha" maskUnits="userSpaceOnUse" x="52" y="47" width="3" height="4">
<path d="M52.6763 49.2193C52.9887 48.4933 54.7408 47.0309 54.7408 47.0309L54.9882 47.4899C53.9447 49.949 52.5151 50.3962 52.5151 50.3962C52.5151 50.3962 52.3639 49.944 52.6763 49.2193Z" fill="black"/>
</mask>
<g mask="url(#mask44_2585_154925)">
<rect width="2.62434" height="3.36538" transform="matrix(1 0 0 -1 52.364 50.3961)" fill="url(#paint17_linear_2585_154925)"/>
</g>
<mask id="mask45_2585_154925" style="mask-type:alpha" maskUnits="userSpaceOnUse" x="0" y="5" width="100" height="46">
<rect width="100" height="45.814" transform="matrix(1 0 0 -1 0 50.9186)" fill="#D9D9D9"/>
</mask>
<g mask="url(#mask45_2585_154925)">
<g opacity="0.600006">
<mask id="mask46_2585_154925" style="mask-type:alpha" maskUnits="userSpaceOnUse" x="52" y="47" width="3" height="4">
<rect width="2.51956" height="3.22597" transform="matrix(1 0 0 -1 52.4678 50.3973)" fill="#D9D9D9"/>
</mask>
<g mask="url(#mask46_2585_154925)">
<mask id="mask47_2585_154925" style="mask-type:alpha" maskUnits="userSpaceOnUse" x="52" y="47" width="3" height="4">
<rect width="2.51937" height="3.22604" transform="matrix(1 0 0 -1 52.4678 50.3973)" fill="#D9D9D9"/>
</mask>
<g mask="url(#mask47_2585_154925)">
<path d="M52.5149 50.3961C52.5149 50.3961 53.9439 49.9489 54.9874 47.4892L54.8162 47.1701C54.8162 47.1701 53.8383 50.3426 52.543 49.6024C52.3937 50.0882 52.5149 50.3961 52.5149 50.3961Z" fill="#1A1818"/>
</g>
</g>
</g>
</g>
<mask id="mask48_2585_154925" style="mask-type:alpha" maskUnits="userSpaceOnUse" x="0" y="5" width="100" height="46">
<rect width="100" height="45.814" transform="matrix(1 0 0 -1 0 50.9186)" fill="#D9D9D9"/>
</mask>
<g mask="url(#mask48_2585_154925)">
<g opacity="0.0200043">
<mask id="mask49_2585_154925" style="mask-type:alpha" maskUnits="userSpaceOnUse" x="71" y="16" width="26" height="24">
<rect width="24.8313" height="23.4234" transform="matrix(1 0 0 -1 71.6199 39.5319)" fill="#D9D9D9"/>
</mask>
<g mask="url(#mask49_2585_154925)">
<mask id="mask50_2585_154925" style="mask-type:alpha" maskUnits="userSpaceOnUse" x="71" y="16" width="26" height="24">
<path d="M71.7612 39.532L71.6194 39.43C72.8691 36.5996 73.6476 32.8665 73.6476 28.2247C73.6476 23.2631 72.9515 19.2383 71.6925 16.2281L71.7612 16.1087H76.112C78.089 16.1087 79.6355 21.6519 82.471 21.6519C84.7517 21.6519 91.7031 21.9841 94.335 22.1135C94.573 22.1253 94.7792 22.2783 94.8592 22.501L95.7996 25.1199C96.1176 26.0033 96.2782 26.927 96.2801 27.8508V27.895C96.2776 28.8499 96.107 29.8041 95.7677 30.7129L94.8617 33.1458C94.7798 33.3654 94.5749 33.5147 94.34 33.5265C91.7112 33.6566 84.7536 33.9887 82.471 33.9887C79.6355 33.9887 78.089 39.532 76.112 39.532H71.7612Z" fill="black"/>
</mask>
<g mask="url(#mask50_2585_154925)">
<rect width="24.6607" height="23.4233" transform="matrix(1 0 0 -1 71.6194 39.532)" fill="url(#paint18_linear_2585_154925)"/>
</g>
</g>
</g>
<g opacity="0.199997">
<mask id="mask51_2585_154925" style="mask-type:alpha" maskUnits="userSpaceOnUse" x="64" y="9" width="10" height="38">
<rect width="8.85091" height="36.3026" transform="matrix(1 0 0 -1 64.79 46.0135)" fill="#D9D9D9"/>
</mask>
<g mask="url(#mask51_2585_154925)">
<mask id="mask52_2585_154925" style="mask-type:alpha" maskUnits="userSpaceOnUse" x="64" y="9" width="10" height="37">
<path d="M65.081 45.5297C68.309 44.1151 71.9805 38.84 71.9805 28.0751C71.9805 17.1765 68.7276 11.7993 65.0148 10.1757C64.7899 10.0768 64.9629 9.71107 65.2079 9.73408C68.0328 9.99722 70.3635 11.6961 72.0012 14.7162C72.2317 15.1411 71.6856 16.1886 71.6856 16.1886C72.9441 19.1982 73.6401 23.223 73.6401 28.1852C73.6401 32.8264 72.8622 36.5595 71.6125 39.3899C71.6125 39.3899 72.1024 40.4349 71.8568 40.866C70.0854 43.9782 67.6698 45.6821 65.2085 45.9807C65.1972 45.9819 65.1866 45.9832 65.1754 45.9832C64.9311 45.9832 64.8436 45.6336 65.081 45.5297Z" fill="black"/>
</mask>
<g mask="url(#mask52_2585_154925)">
<rect width="8.85028" height="36.2721" transform="matrix(1 0 0 -1 64.79 45.9832)" fill="url(#paint19_linear_2585_154925)"/>
</g>
</g>
</g>
<g opacity="0.100006">
<mask id="mask53_2585_154925" style="mask-type:alpha" maskUnits="userSpaceOnUse" x="33" y="17" width="19" height="22">
<rect width="18.2154" height="21.296" transform="matrix(1 0 0 -1 33.3413 38.7616)" fill="#D9D9D9"/>
</mask>
<g mask="url(#mask53_2585_154925)">
<mask id="mask54_2585_154925" style="mask-type:alpha" maskUnits="userSpaceOnUse" x="33" y="17" width="19" height="22">
<rect width="18.2154" height="21.2958" transform="matrix(1 0 0 -1 33.3418 38.7617)" fill="#D9D9D9"/>
</mask>
<g mask="url(#mask54_2585_154925)">
<path d="M49.8839 17.4659H42.3739H34.8639C34.6165 17.4659 34.3928 17.5654 34.2309 17.7265C34.0691 17.8883 33.9685 18.111 33.9685 18.3567L33.7429 20.4929C33.2074 25.5596 33.2074 30.668 33.7429 35.7347L33.9685 37.8709C33.9685 38.1166 34.0691 38.3393 34.2309 38.5011C34.3928 38.6622 34.6165 38.7617 34.8639 38.7617H42.3739H49.8839C50.1313 38.7617 50.355 38.6622 50.5169 38.5011C50.6787 38.3393 50.7787 38.1166 50.7787 37.8709L51.1348 34.9845C51.6972 30.421 51.6972 25.8066 51.1348 21.2431L50.7787 18.3567C50.7787 18.111 50.6787 17.8883 50.5169 17.7265C50.355 17.5654 50.1313 17.4659 49.8839 17.4659Z" fill="white"/>
</g>
</g>
</g>
</g>
</g>
<defs>
<linearGradient id="paint0_linear_2585_154925" x1="5.20886" y1="8.70256" x2="5.20886" y2="8.70256" gradientUnits="userSpaceOnUse">
<stop offset="1" stop-color="#424244"/>
<stop offset="0.993163" stop-color="#414143"/>
<stop offset="0.701648" stop-color="#313032"/>
<stop offset="0.385385" stop-color="#282728"/>
<stop stop-color="#252425"/>
</linearGradient>
<linearGradient id="paint1_linear_2585_154925" x1="1.97966" y1="6.99716" x2="1.97966" y2="6.99716" gradientUnits="userSpaceOnUse">
<stop offset="1" stop-color="#252425"/>
<stop offset="0.747027" stop-color="#282729"/>
<stop offset="0.488048" stop-color="#343335"/>
<stop offset="0.227231" stop-color="#464749"/>
<stop stop-color="#5D5F62"/>
</linearGradient>
<linearGradient id="paint2_linear_2585_154925" x1="7.96473" y1="0.85923" x2="7.96473" y2="0.85923" gradientUnits="userSpaceOnUse">
<stop offset="1" stop-color="#252425"/>
<stop offset="0.747027" stop-color="#282729"/>
<stop offset="0.488048" stop-color="#343335"/>
<stop offset="0.227231" stop-color="#464749"/>
<stop stop-color="#5D5F62"/>
</linearGradient>
<linearGradient id="paint3_linear_2585_154925" x1="7.96473" y1="0.880223" x2="7.96473" y2="0.880223" gradientUnits="userSpaceOnUse">
<stop offset="1" stop-color="#252425"/>
<stop offset="0.747027" stop-color="#282729"/>
<stop offset="0.488048" stop-color="#343335"/>
<stop offset="0.227231" stop-color="#464749"/>
<stop stop-color="#5D5F62"/>
</linearGradient>
<linearGradient id="paint4_linear_2585_154925" x1="2.93083" y1="7.01411" x2="2.93083" y2="7.01411" gradientUnits="userSpaceOnUse">
<stop offset="1" stop-color="#818386"/>
<stop offset="0.994595" stop-color="#818386"/>
<stop offset="0.905405" stop-color="#818386"/>
<stop offset="0.904643" stop-color="#7E8083"/>
<stop offset="0.898916" stop-color="#6D6F72"/>
<stop offset="0.891815" stop-color="#626366"/>
<stop offset="0.881815" stop-color="#5B5C5F"/>
<stop offset="0.854054" stop-color="#5A5B5E"/>
<stop offset="0.817816" stop-color="#808083"/>
<stop offset="0.77397" stop-color="#A6A7A8"/>
<stop offset="0.728441" stop-color="#C6C7C8"/>
<stop offset="0.68148" stop-color="#DFDFE0"/>
<stop offset="0.632512" stop-color="#F1F1F1"/>
<stop offset="0.580244" stop-color="#FBFBFB"/>
<stop offset="0.518919" stop-color="white"/>
<stop offset="0.448957" stop-color="#FBFBFB"/>
<stop offset="0.390736" stop-color="#F1F1F1"/>
<stop offset="0.336712" stop-color="#E0E0E0"/>
<stop offset="0.285253" stop-color="#C7C8C9"/>
<stop offset="0.235582" stop-color="#A8A8AA"/>
<stop offset="0.187918" stop-color="#828285"/>
<stop offset="0.145946" stop-color="#5A5B5E"/>
<stop offset="0.11234" stop-color="#5B5C5F"/>
<stop offset="0.100235" stop-color="#626366"/>
<stop offset="0.0916394" stop-color="#6D6F72"/>
<stop offset="0.0847065" stop-color="#7E8083"/>
<stop offset="0.0837838" stop-color="#818386"/>
<stop stop-color="#818386"/>
</linearGradient>
<radialGradient id="paint5_radial_2585_154925" cx="0" cy="0" r="1" gradientUnits="userSpaceOnUse" gradientTransform="scale(16.2553 12.5502)">
<stop offset="1" stop-color="#9B9DA0"/>
<stop offset="0.769767" stop-color="#B4B6B8"/>
<stop offset="0.252192" stop-color="#EAEAEB"/>
<stop stop-color="white"/>
</radialGradient>
<radialGradient id="paint6_radial_2585_154925" cx="0" cy="0" r="1" gradientUnits="userSpaceOnUse" gradientTransform="scale(11.7805 4.19957)">
<stop offset="1" stop-color="#D3D5D6"/>
<stop offset="0.310433" stop-color="#504F4F"/>
<stop stop-color="#1A1818"/>
</radialGradient>
<radialGradient id="paint7_radial_2585_154925" cx="0" cy="0" r="1" gradientUnits="userSpaceOnUse" gradientTransform="scale(11.7805 4.19926)">
<stop offset="1" stop-color="#D3D5D6"/>
<stop offset="0.310433" stop-color="#504F4F"/>
<stop stop-color="#1A1818"/>
</radialGradient>
<radialGradient id="paint8_radial_2585_154925" cx="0" cy="0" r="1" gradientUnits="userSpaceOnUse" gradientTransform="translate(-0.158366 -0.0320931) scale(2.78306 2.84098)">
<stop offset="1" stop-color="#1A1818"/>
<stop offset="0.377908" stop-color="#404042"/>
<stop stop-color="#545557"/>
</radialGradient>
<radialGradient id="paint9_radial_2585_154925" cx="0" cy="0" r="1" gradientUnits="userSpaceOnUse" gradientTransform="translate(-0.158366 0.0681334) scale(2.78306 2.94144)">
<stop offset="1" stop-color="#1A1818"/>
<stop offset="0.377908" stop-color="#404042"/>
<stop stop-color="#545557"/>
</radialGradient>
<linearGradient id="paint10_linear_2585_154925" x1="24.4301" y1="9.86505" x2="24.4301" y2="9.86505" gradientUnits="userSpaceOnUse">
<stop offset="1" stop-color="#1A1818"/>
<stop offset="0.886486" stop-color="#D3D5D6"/>
<stop offset="0.113514" stop-color="#D3D5D6"/>
<stop offset="0.0726001" stop-color="#858586"/>
<stop offset="0.0383593" stop-color="#4B4A4A"/>
<stop offset="0.0132743" stop-color="#272525"/>
<stop stop-color="#1A1818"/>
</linearGradient>
<linearGradient id="paint11_linear_2585_154925" x1="7.16352" y1="8.5192" x2="7.16352" y2="8.5192" gradientUnits="userSpaceOnUse">
<stop offset="1" stop-color="#818386"/>
<stop offset="0.994595" stop-color="#818386"/>
<stop offset="0.905405" stop-color="#818386"/>
<stop offset="0.904643" stop-color="#7E8083"/>
<stop offset="0.898916" stop-color="#6D6F72"/>
<stop offset="0.891815" stop-color="#626366"/>
<stop offset="0.881815" stop-color="#5B5C5F"/>
<stop offset="0.854054" stop-color="#5A5B5E"/>
<stop offset="0.817816" stop-color="#808083"/>
<stop offset="0.77397" stop-color="#A6A7A8"/>
<stop offset="0.728441" stop-color="#C6C7C8"/>
<stop offset="0.68148" stop-color="#DFDFE0"/>
<stop offset="0.632512" stop-color="#F1F1F1"/>
<stop offset="0.580244" stop-color="#FBFBFB"/>
<stop offset="0.518919" stop-color="white"/>
<stop offset="0.448957" stop-color="#FBFBFB"/>
<stop offset="0.390736" stop-color="#F1F1F1"/>
<stop offset="0.336712" stop-color="#E0E0E0"/>
<stop offset="0.285253" stop-color="#C7C8C9"/>
<stop offset="0.235582" stop-color="#A8A8AA"/>
<stop offset="0.187918" stop-color="#828285"/>
<stop offset="0.145946" stop-color="#5A5B5E"/>
<stop offset="0.11234" stop-color="#5B5C5F"/>
<stop offset="0.100235" stop-color="#626366"/>
<stop offset="0.0916394" stop-color="#6D6F72"/>
<stop offset="0.0847065" stop-color="#7E8083"/>
<stop offset="0.0837838" stop-color="#818386"/>
<stop stop-color="#818386"/>
</linearGradient>
<linearGradient id="paint12_linear_2585_154925" x1="3.41055" y1="7.95701" x2="3.41055" y2="7.95701" gradientUnits="userSpaceOnUse">
<stop offset="1" stop-color="#252425"/>
<stop offset="0.555926" stop-color="#1D1B1C"/>
<stop stop-color="#1A1818"/>
</linearGradient>
<radialGradient id="paint13_radial_2585_154925" cx="0" cy="0" r="1" gradientUnits="userSpaceOnUse" gradientTransform="translate(22.9765 0.90755) scale(3.1214 14.7305)">
<stop offset="1" stop-color="#737679"/>
<stop offset="0.9362" stop-color="#696A6B"/>
<stop offset="0.7533" stop-color="#48494B"/>
<stop offset="0.5679" stop-color="#313132"/>
<stop offset="0.3814" stop-color="#212021"/>
<stop offset="0.1931" stop-color="#181818"/>
<stop stop-color="#151515"/>
</radialGradient>
<linearGradient id="paint14_linear_2585_154925" x1="0.79855" y1="0.775251" x2="0.79855" y2="0.775251" gradientUnits="userSpaceOnUse">
<stop offset="1" stop-color="#1A1818"/>
<stop offset="0.886486" stop-color="#373739"/>
<stop offset="0.673806" stop-color="#2C2B2C"/>
<stop offset="0.362094" stop-color="#232122"/>
<stop stop-color="#211E1F"/>
</linearGradient>
<linearGradient id="paint15_linear_2585_154925" x1="0.79855" y1="0.775095" x2="0.79855" y2="0.775095" gradientUnits="userSpaceOnUse">
<stop offset="1" stop-color="#1A1818"/>
<stop offset="0.886486" stop-color="#373739"/>
<stop offset="0.673806" stop-color="#2C2B2C"/>
<stop offset="0.362094" stop-color="#232122"/>
<stop stop-color="#211E1F"/>
</linearGradient>
<linearGradient id="paint16_linear_2585_154925" x1="0.656085" y1="0.841345" x2="0.656085" y2="0.841345" gradientUnits="userSpaceOnUse">
<stop offset="1" stop-color="#1A1818"/>
<stop offset="0.559492" stop-color="#404042"/>
<stop offset="0.291892" stop-color="#545557"/>
<stop stop-color="#C2C4C6"/>
</linearGradient>
<linearGradient id="paint17_linear_2585_154925" x1="0.656085" y1="0.841345" x2="0.656085" y2="0.841345" gradientUnits="userSpaceOnUse">
<stop offset="1" stop-color="#1A1818"/>
<stop offset="0.559492" stop-color="#404042"/>
<stop offset="0.291892" stop-color="#545557"/>
<stop stop-color="#C2C4C6"/>
</linearGradient>
<linearGradient id="paint18_linear_2585_154925" x1="6.16518" y1="5.85583" x2="6.16518" y2="5.85583" gradientUnits="userSpaceOnUse">
<stop offset="1" stop-color="#1A1818"/>
<stop offset="0.990832" stop-color="#1A1818"/>
<stop offset="0.935135" stop-color="#1A1818"/>
<stop offset="0.931962" stop-color="#1D1C1C"/>
<stop offset="0.886994" stop-color="#525050"/>
<stop offset="0.840219" stop-color="#807F7F"/>
<stop offset="0.792491" stop-color="#A7A6A6"/>
<stop offset="0.743622" stop-color="#C7C6C6"/>
<stop offset="0.693247" stop-color="#DFDFDF"/>
<stop offset="0.64073" stop-color="#F1F1F1"/>
<stop offset="0.584665" stop-color="#FBFBFB"/>
<stop offset="0.518919" stop-color="white"/>
<stop offset="0.446928" stop-color="#FBFBFB"/>
<stop offset="0.387017" stop-color="#F1F1F1"/>
<stop offset="0.331405" stop-color="#E0E0E0"/>
<stop offset="0.278392" stop-color="#C8C7C7"/>
<stop offset="0.227238" stop-color="#A8A8A8"/>
<stop offset="0.177448" stop-color="#828181"/>
<stop offset="0.128774" stop-color="#555353"/>
<stop offset="0.0821565" stop-color="#211F1F"/>
<stop offset="0.0756757" stop-color="#1A1818"/>
<stop stop-color="#1A1818"/>
</linearGradient>
<linearGradient id="paint19_linear_2585_154925" x1="2.21257" y1="9.06802" x2="2.21257" y2="9.06802" gradientUnits="userSpaceOnUse">
<stop offset="1" stop-color="#4E4F51"/>
<stop offset="0.994595" stop-color="#4E4F51"/>
<stop offset="0.913057" stop-color="#6E7073"/>
<stop offset="0.856757" stop-color="#818386"/>
<stop offset="0.855513" stop-color="#7E8083"/>
<stop offset="0.846169" stop-color="#6D6F72"/>
<stop offset="0.834584" stop-color="#626366"/>
<stop offset="0.818268" stop-color="#5B5C5F"/>
<stop offset="0.772973" stop-color="#5A5B5E"/>
<stop offset="0.745503" stop-color="#808083"/>
<stop offset="0.712264" stop-color="#A6A7A8"/>
<stop offset="0.67775" stop-color="#C6C7C8"/>
<stop offset="0.642151" stop-color="#DFDFE0"/>
<stop offset="0.60503" stop-color="#F1F1F1"/>
<stop offset="0.565408" stop-color="#FBFBFB"/>
<stop offset="0.518919" stop-color="white"/>
<stop offset="0.463152" stop-color="#FBFBFB"/>
<stop offset="0.416744" stop-color="#F1F1F1"/>
<stop offset="0.373681" stop-color="#E0E0E0"/>
<stop offset="0.332664" stop-color="#C7C8C9"/>
<stop offset="0.293071" stop-color="#A8A8AA"/>
<stop offset="0.255078" stop-color="#828285"/>
<stop offset="0.221622" stop-color="#5A5B5E"/>
<stop offset="0.173404" stop-color="#5B5C5F"/>
<stop offset="0.156036" stop-color="#626366"/>
<stop offset="0.143703" stop-color="#6D6F72"/>
<stop offset="0.133756" stop-color="#7E8083"/>
<stop offset="0.132432" stop-color="#818386"/>
<stop offset="0.0988323" stop-color="#7B7D80"/>
<stop offset="0.056947" stop-color="#6D6E71"/>
<stop offset="0.0108309" stop-color="#545558"/>
<stop stop-color="#4E4F51"/>
</linearGradient>
</defs>
</svg>
