<svg width="100" height="27" viewBox="0 0 100 27" fill="none" xmlns="http://www.w3.org/2000/svg">
<g clip-path="url(#clip0_6561_4849)">
<path d="M98.5314 22.6455H86.5859C85.7753 22.6455 85.1162 21.9862 85.1162 21.1761V16.4494H84.4739V15.8451H84.2072V14.1634C84.1606 14.1726 84.114 14.1765 84.0647 14.1765H83.8511C83.8019 14.1765 83.7553 14.1713 83.7086 14.1634V15.8451H83.2256V13.8567C83.1298 13.7256 83.0728 13.5657 83.0728 13.39V12.8054H81.9023C81.9023 13.0204 81.73 13.1947 81.5177 13.1947H81.1331V10.3372H81.5177C81.73 10.3372 81.9023 10.5115 81.9023 10.7265V10.7409H82.4876V9.62935H83.4665V8.89269H82.8152V9.0159C82.8152 9.14174 82.7142 9.24398 82.5899 9.24398H81.1318V9.78403C81.1318 9.86923 81.0632 9.9387 80.979 9.9387H80.6151V10.2179H80.3302V10.4027C80.3302 10.4919 80.259 10.5626 80.1723 10.5626H80.0907C80.0026 10.5626 79.9327 10.4905 79.9327 10.4027V10.2179H79.6401V9.9387H76.3484L75.96 9.67523H66.2482L65.7302 9.9387H55.1988V10.2179H54.9139V10.4027C54.9139 10.4919 54.8427 10.5626 54.756 10.5626H54.6744C54.5863 10.5626 54.5164 10.4905 54.5164 10.4027V10.2179H54.2238V9.9387H53.9712C53.8677 9.9387 53.7835 9.8535 53.7835 9.74864V9.62935H53.8677L53.8741 9.51794H53.2241V8.94905C53.6074 8.66592 53.8573 8.20976 53.8573 7.69331C53.8573 7.17686 53.6074 6.7207 53.2241 6.43757V6.36679H52.8771V9.93739H51.5809V9.20466H51.2571V9.93739H51.0318V10.8431H51.9693V12.5144H53.3665L53.9337 13.4975H53.6708C53.8456 13.4975 54.0192 13.5211 54.1875 13.567L62.2754 15.7639C62.48 15.8189 62.6212 16.0064 62.6212 16.22V17.2333H63.0381C63.7089 17.2333 64.1738 17.6947 64.2398 18.4628L64.4276 20.2494C64.4742 20.6951 64.4742 21.1447 64.4276 21.5917L64.2398 23.3783C64.1634 24.1005 63.7076 24.6078 63.0381 24.6078H62.6212V26.5268C62.6212 26.7877 62.4127 27 62.1537 27H47.7622L43.7674 26.7641C43.7674 26.7641 43.7674 26.7641 43.7661 26.7641L43.0112 26.7195V26.8689H1.31023V22.2484H0.728818C0.662779 22.2484 0.599328 22.2222 0.552712 22.175L0.0930223 21.7096C0.0464058 21.6624 0.0205078 21.5982 0.0205078 21.5314V20.9677C0.0205078 20.9009 0.0464058 20.8366 0.0930223 20.7895L0.552712 20.3241C0.599328 20.2769 0.662779 20.2507 0.728818 20.2507H1.31023V6.296H0.728818C0.662779 6.296 0.599328 6.26979 0.552712 6.2226L0.0930223 5.75727C0.0464058 5.71008 0.0205078 5.64585 0.0205078 5.579V5.01536C0.0205078 4.94851 0.0464058 4.88428 0.0930223 4.83709L0.552712 4.37176C0.599328 4.32457 0.662779 4.29835 0.728818 4.29835H1.31023V-0.0207138H43.0125V0.107742H60.9456V0.225716H63.7244V3.98245H60.9456V4.10042H54.5151L55.8994 5.42695H65.7302L66.2482 5.69041H75.96L76.3484 5.42695H79.6401V5.14775H79.9249V4.96293C79.9249 4.87379 79.9962 4.80301 80.0829 4.80301H80.1645C80.2526 4.80301 80.3225 4.8751 80.3225 4.96293V5.14775H80.6151V5.42695H80.979C81.0632 5.42695 81.1318 5.49642 81.1318 5.58162V6.09414H82.5899C82.7142 6.09414 82.8152 6.19638 82.8152 6.32222V6.37203H83.2334V4.5225H83.7164V6.22784H83.7514V4.71781H84.1774V6.22784H84.2124V4.5225H84.6954V6.22784H89.2159V7.3643H89.5435C89.5435 7.3643 89.6237 8.2635 90.9976 8.5663V9.73291H89.401V10.4132H90.1547V11.0752H91.3486V9.86005C91.3486 9.68441 91.4534 9.53366 91.6049 9.46943V5.26441L92.1877 4.54478H93.5369C93.7881 4.54478 93.9914 4.75058 93.9914 5.00487V5.98272L93.6224 6.18065V4.97603H92.3715V10.2546H92.1864V10.6138L93.0501 10.6767V10.5194C93.0501 10.307 93.0967 10.1065 93.177 9.92428H93.0811V7.96858H93.12V7.93974H92.9115V7.3643H93.3375V6.70235H96.7198V9.04998H98.5301C99.3407 9.04998 99.9998 9.70931 99.9998 10.5194V21.1761C99.9998 21.9862 99.3407 22.6455 98.5301 22.6455H98.5314ZM0.714575 20.8445C0.494441 20.8445 0.315745 21.0254 0.315745 21.2482C0.315745 21.4711 0.494441 21.652 0.714575 21.652C0.934708 21.652 1.1134 21.4711 1.1134 21.2482C1.1134 21.0254 0.934708 20.8445 0.714575 20.8445ZM0.714575 4.89083C0.494441 4.89083 0.315745 5.07172 0.315745 5.29456C0.315745 5.51739 0.494441 5.69828 0.714575 5.69828C0.934708 5.69828 1.1134 5.51739 1.1134 5.29456C1.1134 5.07172 0.934708 4.89083 0.714575 4.89083ZM85.7636 21.1761C85.7636 21.6257 86.1327 21.9901 86.5859 21.9901H86.8501L85.7636 20.8904V21.1748V21.1761ZM99.3523 10.5154C99.3523 10.0658 98.9833 9.70145 98.5301 9.70145H97.5861C98.2957 9.97934 98.9056 10.4578 99.351 11.0673V10.5154H99.3523ZM99.3523 13.9694C99.1775 15.098 98.4343 16.0352 97.4281 16.473C97.7234 16.549 97.9435 16.8177 97.9435 17.1402C97.9435 17.4627 97.7234 17.7314 97.4281 17.8074C97.5809 17.8729 97.6871 18.0263 97.6871 18.2046C97.6871 18.4431 97.4967 18.6358 97.2611 18.6358C97.2533 18.6358 97.2468 18.6345 97.2404 18.6332V19.0828H96.8907V18.628H95.7137V19.0828H95.364V18.628H95.0649V17.9896C95.0028 17.9214 94.9484 17.8454 94.9056 17.7628C94.8668 17.7812 94.8267 17.7956 94.7852 17.8061C94.938 17.8716 95.0442 18.025 95.0442 18.2033C95.0442 18.4418 94.8539 18.6345 94.6182 18.6345C94.3825 18.6345 94.1922 18.4418 94.1922 18.2033C94.1922 18.025 94.2996 17.8716 94.4511 17.8061C94.1559 17.7301 93.9358 17.4613 93.9358 17.1389C93.9358 17.034 93.9604 16.9344 94.0031 16.8453C93.7623 16.6893 93.5408 16.5071 93.3388 16.3026V16.4481H92.558V13.2838H90.1572V13.4857C91.5557 13.9799 92.558 15.3248 92.558 16.9082C92.558 18.9098 90.9549 20.5325 88.9776 20.5325C87.5662 20.5325 86.3464 19.7054 85.7636 18.5061V19.653L88.0712 21.9888H98.5314C98.9846 21.9888 99.3536 21.6231 99.3536 21.1748V13.9694H99.3523ZM84.1709 17.831H83.7449V15.8465H84.1709V17.831Z" fill="#231F20"/>
<path d="M43.0124 13.7793V-0.0246429H11.3974V0.335825H31.0281V26.5085H11.3132V26.8689H43.0124V26.7195L41.5569 26.633C41.1892 26.6186 41.1607 26.4115 41.1607 26.1611V14.3377C41.1607 14.0874 41.1892 13.8803 41.5569 13.8658L43.0124 13.7793ZM62.6237 16.2213V16.8387L53.6565 14.3508H52.5714C52.2399 14.3508 51.9718 14.6222 51.9718 14.9577V15.6944H47.7647V13.4988H53.6733C53.8481 13.4988 54.0216 13.5224 54.19 13.5683L62.2779 15.7652C62.4825 15.8202 62.6237 16.0077 62.6237 16.2213ZM51.0343 10.8445H51.9718V12.5157H51.0343V10.8445ZM51.9718 24.9027V25.5739C51.9718 25.9094 52.2399 26.1808 52.5714 26.1808H62.6237V26.5268C62.6237 26.7877 62.4152 27 62.1562 27H47.7647V24.9027H51.9718ZM93.9926 15.9015C94.3073 16.1873 94.6802 16.4088 95.0868 16.5517C95.272 16.3642 95.5284 16.2476 95.8107 16.2476C96.3753 16.2476 96.8336 16.7116 96.8336 17.2831C96.8336 17.8546 96.3753 18.3186 95.8107 18.3186C95.2461 18.3186 94.7877 17.8546 94.7877 17.2831C94.7877 17.2687 94.789 17.2556 94.7903 17.2411C94.2141 17.0288 93.7013 16.6867 93.2843 16.2476L93.9926 15.9002V15.9015ZM86.6324 14.1778H85.8374V13.099H86.6324V10.4093H90.1558V14.5802H86.6324V14.1778ZM72.7809 7.595H60.7176V7.68938H60.4146C60.3369 7.68938 60.2734 7.62515 60.2734 7.5465V7.2542H60.153C60.0973 7.2542 60.052 7.20832 60.052 7.15195V6.5018C60.052 6.44543 60.0973 6.39956 60.153 6.39956H60.2734V6.10856C60.2734 6.02991 60.3369 5.96568 60.4146 5.96568H60.7176V6.06006H72.7809C72.8728 6.06006 72.9479 6.13609 72.9479 6.22915V7.42591C72.9479 7.51898 72.8728 7.595 72.7809 7.595ZM93.0836 7.96334H93.766V7.35906H93.34V6.69711H96.7223V9.91904H93.0849V7.96334H93.0836ZM96.1525 14.3207C95.6812 14.3207 95.3005 13.934 95.3005 13.4582C95.3005 12.9824 95.6825 12.5957 96.1525 12.5957C96.6226 12.5957 97.0046 12.9824 97.0046 13.4582C97.0046 13.934 96.6226 14.3207 96.1525 14.3207ZM72.7809 9.39472H60.7176V9.4891H60.4146C60.3369 9.4891 60.2734 9.42487 60.2734 9.34622V9.05523H60.153C60.0973 9.05523 60.052 9.00935 60.052 8.95299V8.30283C60.052 8.24647 60.0973 8.20059 60.153 8.20059H60.2734V7.90959C60.2734 7.83095 60.3369 7.76672 60.4146 7.76672H60.7176V7.8611H72.7809C72.8728 7.8611 72.9479 7.93712 72.9479 8.03019V9.22694C72.9479 9.32001 72.8728 9.39603 72.7809 9.39603V9.39472Z" fill="#FBB040"/>
<path d="M98.9239 11.7581C98.3555 10.8117 97.3273 10.1785 96.1528 10.1785C95.3629 10.1785 94.6404 10.4643 94.0784 10.9401L93.554 10.4092C94.2506 9.79973 95.1596 9.4314 96.1528 9.4314C97.4892 9.4314 98.6714 10.0986 99.3927 11.121L98.9226 11.7581H98.9239Z" fill="url(#paint0_linear_6561_4849)"/>
<path d="M93.9929 5.97876V5.00091C93.9929 4.74662 93.7896 4.54082 93.5384 4.54082H92.1892L91.6064 5.26045V10.252H92.3743V4.97338H93.6252V6.178L93.9942 5.98007L93.9929 5.97876Z" fill="#B7BAC4"/>
<path d="M81.3416 8.94251H82.6068C82.722 8.94251 82.8152 8.84814 82.8152 8.73148V9.01723C82.8152 9.14306 82.7142 9.24531 82.5899 9.24531H81.1319V9.78535C81.1319 9.87055 81.0632 9.94003 80.9791 9.94003H80.6152V10.2192H80.3303V10.404C80.3303 10.4932 80.2591 10.564 80.1723 10.564H80.0908C80.0027 10.564 79.9328 10.4919 79.9328 10.404V10.2192H79.6401V9.94003H76.3485L75.96 9.67656H66.2483L65.7303 9.94003H55.1989V10.2192H54.914V10.404C54.914 10.4932 54.8428 10.564 54.756 10.564H54.6745C54.5864 10.564 54.5165 10.4919 54.5165 10.404V10.2192H54.2238V9.94003H53.9713C53.8677 9.94003 53.7836 9.85482 53.7836 9.74996V9.63068H56.1144V5.7468H54.6408L54.6382 5.87001H55.6948V9.52057H53.2255V8.95169C53.6088 8.66856 53.8587 8.2124 53.8587 7.69595C53.8587 7.17949 53.6088 6.72334 53.2255 6.44021V6.36942H52.8784L52.0859 4.54742C52.06 4.49892 52.038 4.4478 52.0199 4.39537L51.9707 4.28133L51.9888 4.27215C51.9785 4.2171 51.972 4.15942 51.972 4.10175C51.972 3.59447 52.3773 3.18419 52.8784 3.18419C53.1607 3.18419 53.4132 3.31527 53.579 3.51976H53.9105L55.8981 5.42434H65.729L66.247 5.68781H75.9587L76.3472 5.42434H79.6388V5.14514H79.9237V4.96032C79.9237 4.87119 79.9949 4.8004 80.0817 4.8004H80.1633C80.2513 4.8004 80.3213 4.8725 80.3213 4.96032V5.14514H80.6139V5.42434H80.9778C81.0619 5.42434 81.1306 5.49381 81.1306 5.57901V6.09154H82.5886C82.7129 6.09154 82.8139 6.19378 82.8139 6.31961V6.72727C82.8139 6.61061 82.7207 6.51623 82.6055 6.51623H72.9455V6.23179C72.9455 6.13872 72.8704 6.0627 72.7785 6.0627H60.7152V5.96832H60.4122C60.3345 5.96832 60.271 6.03255 60.271 6.1112V6.40219H60.1506C60.0949 6.40219 60.0496 6.44807 60.0496 6.50444V7.15459C60.0496 7.21095 60.0949 7.25683 60.1506 7.25683H60.271V7.54914C60.271 7.62779 60.3345 7.69201 60.4122 7.69201H60.7152V7.59764H72.7785C72.8704 7.59764 72.9455 7.52161 72.9455 7.42855V7.1441H82.6055C82.7207 7.1441 82.8139 7.04973 82.8139 6.93307V8.52568C82.8139 8.40902 82.7207 8.31464 82.6055 8.31464H72.9455V8.0302C72.9455 7.93713 72.8704 7.86111 72.7785 7.86111H60.7152V7.76673H60.4122C60.3345 7.76673 60.271 7.83096 60.271 7.90961V8.2006H60.1506C60.0949 8.2006 60.0496 8.24648 60.0496 8.30284V8.953C60.0496 9.00936 60.0949 9.05524 60.1506 9.05524H60.271V9.34624C60.271 9.42489 60.3345 9.48911 60.4122 9.48911H60.7152V9.39474H72.7785C72.8704 9.39474 72.9455 9.31871 72.9455 9.22564V8.9412H81.3403L81.3416 8.94251Z" fill="#707382"/>
<path d="M53.2269 6.36816H52.8799L52.0874 4.54616C52.0615 4.49766 52.0395 4.44654 52.0214 4.39411L51.9722 4.28007L51.9903 4.27089C51.9799 4.21584 51.9735 4.15816 51.9735 4.10049C51.9735 3.59321 52.3788 3.18293 52.8799 3.18293C53.1622 3.18293 53.4147 3.31401 53.5804 3.5185H53.9119L55.8996 5.42308L54.988 5.74554H54.6423L54.6397 5.86875L53.2269 6.36816ZM52.8799 3.67317C52.6546 3.67317 52.472 3.85799 52.472 4.08607C52.472 4.31415 52.6546 4.49897 52.8799 4.49897C53.1052 4.49897 53.2878 4.31415 53.2878 4.08607C53.2878 3.85799 53.1052 3.67317 52.8799 3.67317Z" fill="#707382"/>
<path opacity="0.39" d="M53.2269 6.36816H52.8799L52.0874 4.54616C52.0615 4.49766 52.0395 4.44654 52.0214 4.39411L51.9722 4.28007L51.9903 4.27089C51.9799 4.21584 51.9735 4.15816 51.9735 4.10049C51.9735 3.59321 52.3788 3.18293 52.8799 3.18293C53.1622 3.18293 53.4147 3.31401 53.5804 3.5185H53.9119L55.8996 5.42308H55.2004V5.14388H54.2253V5.42308H53.9728C53.785 5.42308 53.785 5.61315 53.785 5.61315V5.74554H54.6423L54.6397 5.86875H53.2269V6.36816ZM52.8799 3.67317C52.6546 3.67317 52.472 3.85799 52.472 4.08607C52.472 4.31415 52.6546 4.49897 52.8799 4.49897C53.1052 4.49897 53.2878 4.31415 53.2878 4.08607C53.2878 3.85799 53.1052 3.67317 52.8799 3.67317Z" fill="url(#paint1_linear_6561_4849)"/>
<path d="M60.947 3.97969V4.09766H54.5165L53.9131 3.5196H53.5816C53.4159 3.31511 53.1633 3.18403 52.8811 3.18403C52.3812 3.18403 51.9772 3.593 51.9746 4.09766H51.893L51.1653 2.42246H48.1223L47.4839 4.09766H43.3092V3.91283H43.0139V0.104978H60.947V0.222949H63.7258V3.97969H60.947Z" fill="#707382"/>
<path opacity="0.5" d="M81.3417 8.94243H82.6068C82.7221 8.94243 82.8153 8.84805 82.8153 8.73139V9.01714C82.8153 9.14298 82.7143 9.24522 82.59 9.24522H81.1319V9.78527C81.1319 9.87047 81.0633 9.93994 80.9791 9.93994H76.3486L75.9601 9.67647H66.2483L65.7304 9.93994H53.9727C53.8691 9.93994 53.7849 9.85474 53.7849 9.74987V9.63059H56.1157V5.74671H53.7849V5.61432C53.7849 5.50946 53.8691 5.42425 53.9727 5.42425H65.7304L66.2483 5.68772H75.9601L76.3486 5.42425H80.9791C81.0633 5.42425 81.1319 5.49373 81.1319 5.57893V6.09145H82.59C82.7143 6.09145 82.8153 6.19369 82.8153 6.31953V6.72718C82.8153 6.61052 82.7221 6.51614 82.6068 6.51614H72.9469V6.2317C72.9469 6.13864 72.8717 6.06261 72.7798 6.06261H60.7165V5.96823H60.4135C60.3358 5.96823 60.2724 6.03246 60.2724 6.11111V6.40211H60.1519C60.0963 6.40211 60.0509 6.44798 60.0509 6.50435V7.1545C60.0509 7.21087 60.0963 7.25674 60.1519 7.25674H60.2724V7.54905C60.2724 7.6277 60.3358 7.69193 60.4135 7.69193H60.7165V7.59755H72.7798C72.8717 7.59755 72.9469 7.52153 72.9469 7.42846V7.14402H82.6068C82.7221 7.14402 82.8153 7.04964 82.8153 6.93298V8.52559C82.8153 8.40893 82.7221 8.31456 82.6068 8.31456H72.9469V8.03011C72.9469 7.93705 72.8717 7.86102 72.7798 7.86102H60.7165V7.76664H60.4135C60.3358 7.76664 60.2724 7.83087 60.2724 7.90952V8.20052H60.1519C60.0963 8.20052 60.0509 8.24639 60.0509 8.30276V8.95291C60.0509 9.00928 60.0963 9.05516 60.1519 9.05516H60.2724V9.34615C60.2724 9.4248 60.3358 9.48903 60.4135 9.48903H60.7165V9.39465H72.7798C72.8717 9.39465 72.9469 9.31862 72.9469 9.22556V8.94111H81.3417V8.94243Z" fill="url(#paint2_linear_6561_4849)"/>
<path d="M47.2146 9.20581H46.8262L43.0127 7.86094V3.91282H43.3079V4.09764L47.2146 4.08585V9.20581Z" fill="#707382"/>
<path opacity="0.5" d="M47.2146 9.20581H46.8262L43.0127 7.86094V3.91282H43.3079V4.09764L47.2146 4.08585V9.20581Z" fill="url(#paint3_radial_6561_4849)"/>
<path d="M11.3976 26.8689H1.3103V-0.0233612H11.3976V26.8689Z" fill="#707382"/>
<path d="M31.0283 26.574H1.3103V0.337114H31.0283V26.574Z" fill="#707382"/>
<path opacity="0.3" d="M41.5572 13.8658C41.1894 13.8802 41.1609 14.0873 41.1609 14.3377V26.1611C41.1609 26.4114 41.1894 26.6185 41.5572 26.633L43.0126 26.7195V26.8689H11.3135V26.5084H31.0283V0.337107H11.3976V-0.0233612H43.0126V13.7806L41.5572 13.8671V13.8658Z" fill="white"/>
<path opacity="0.3" d="M31.0283 26.574H1.3103V0.337114H31.0283V26.574Z" fill="url(#paint4_radial_6561_4849)"/>
<path d="M9.14715 25.2827H3.56095C3.42293 25.2827 3.31104 25.1695 3.31104 25.0297V15.4688C3.31104 15.3291 3.42293 15.2158 3.56095 15.2158H9.14715C9.28518 15.2158 9.39707 15.3291 9.39707 15.4688V25.0297C9.39707 25.1695 9.28518 25.2827 9.14715 25.2827Z" fill="#414042"/>
<path d="M19.0416 15.4335H15.6347C15.4612 15.4335 15.3201 15.5764 15.3201 15.752V18.6226C15.3201 18.7983 15.4612 18.9412 15.6347 18.9412H19.0416C19.2151 18.9412 19.3563 18.7983 19.3563 18.6226V15.752C19.3563 15.5764 19.2151 15.4335 19.0416 15.4335ZM15.6347 18.8088C15.5324 18.8088 15.4496 18.7249 15.4496 18.6213V15.7507C15.4496 15.6471 15.5324 15.5632 15.6347 15.5632H19.0416C19.1439 15.5632 19.2268 15.6471 19.2268 15.7507V18.6213C19.2268 18.7249 19.1439 18.8088 19.0416 18.8088H15.6347Z" fill="#231F20"/>
<path d="M88.9779 13.2852C90.9553 13.2852 92.5583 14.9079 92.5583 16.9096C92.5583 18.9113 90.9553 20.5339 88.9779 20.5339C87.0005 20.5339 85.3975 18.9113 85.3975 16.9096C85.3975 14.9079 87.0005 13.2852 88.9779 13.2852Z" fill="url(#paint5_radial_6561_4849)"/>
<path opacity="0.2" d="M86.6327 14.1777H85.8376V13.099H86.6327V14.1777Z" fill="url(#paint6_radial_6561_4849)"/>
<path d="M94.3918 13.2852H89.9866V11.0699H94.3918V13.2852Z" fill="url(#paint7_linear_6561_4849)"/>
<path opacity="0.2" d="M93.084 9.92041V7.96339H93.7664V7.35912H93.3404V6.69848H96.7214V9.92041H93.084Z" fill="url(#paint8_radial_6561_4849)"/>
<path d="M86.3194 16.4495H84.4729V14.5803H86.3194V16.4495Z" fill="url(#paint9_linear_6561_4849)"/>
<path d="M93.993 11.0698H91.3501V9.85472C91.3501 9.62009 91.5379 9.43002 91.7696 9.43002C92.0014 9.43002 92.1892 9.62009 92.1892 9.85472V10.6097L93.9943 10.7408V11.0698H93.993Z" fill="#484A50"/>
<path d="M93.7651 7.93457H92.9131V7.35913H93.7651V7.93457Z" fill="#231F20"/>
<path d="M98.5316 22.6455H86.5862C85.7756 22.6455 85.1165 21.9862 85.1165 21.1761V13.023C85.1165 12.2129 85.7756 11.5536 86.5862 11.5536H92.2319C92.6852 11.5536 93.0542 11.1879 93.0542 10.7396V10.5167C93.0542 9.70666 93.7133 9.04733 94.5239 9.04733H98.5329C99.3435 9.04733 100.003 9.70666 100.003 10.5167V21.1761C100.003 21.9862 99.3435 22.6455 98.5329 22.6455H98.5316ZM86.5849 21.9901H86.849L85.7626 20.8904V21.1748C85.7626 21.6244 86.1317 21.9888 86.5849 21.9888V21.9901ZM99.3526 10.5154C99.3526 10.0658 98.9835 9.70141 98.5303 9.70141H94.5213C94.0681 9.70141 93.6991 10.0671 93.6991 10.5154V10.7383C93.6991 11.5483 93.04 12.2077 92.2293 12.2077H86.5836C86.1304 12.2077 85.7613 12.5734 85.7613 13.0217V19.653L88.0688 21.9888H98.529C98.9823 21.9888 99.3513 21.6231 99.3513 21.1748V10.5141L99.3526 10.5154Z" fill="url(#paint10_radial_6561_4849)"/>
<path d="M93.3389 16.4495H92.5581V13.2852H93.3389V16.4495Z" fill="#231F20"/>
<path d="M94.6184 17.7732C94.8537 17.7732 95.0444 17.9663 95.0444 18.2045C95.0444 18.4427 94.8537 18.6357 94.6184 18.6357C94.3831 18.6357 94.1924 18.4427 94.1924 18.2045C94.1924 17.9663 94.3831 17.7732 94.6184 17.7732Z" fill="#4A494A"/>
<path d="M97.2612 17.7732C97.4965 17.7732 97.6873 17.9663 97.6873 18.2045C97.6873 18.4427 97.4965 18.6357 97.2612 18.6357C97.0259 18.6357 96.8352 18.4427 96.8352 18.2045C96.8352 17.9663 97.0259 17.7732 97.2612 17.7732Z" fill="#4A494A"/>
<path d="M97.2613 16.4495C97.6382 16.4495 97.9437 16.7588 97.9437 17.1403C97.9437 17.5218 97.6382 17.8311 97.2613 17.8311C96.8844 17.8311 96.5789 17.5218 96.5789 17.1403C96.5789 16.7588 96.8844 16.4495 97.2613 16.4495Z" fill="url(#paint11_radial_6561_4849)"/>
<path d="M91.6703 17.2892L87.0156 18.5747L86.4022 16.2985L91.0568 15.013L91.6703 17.2892Z" fill="#707382"/>
<path d="M84.206 17.8311H83.7087V14.1779H84.206V17.8311Z" fill="url(#paint12_linear_6561_4849)"/>
<path d="M83.2258 15.845H83.7088V13.8172H83.2258V15.845ZM84.2061 15.845V13.8172H84.6891V15.845H84.2061Z" fill="url(#paint13_linear_6561_4849)"/>
<path d="M83.7529 4.71265H84.179V6.36818H83.7529V4.71265Z" fill="url(#paint14_linear_6561_4849)"/>
<path d="M84.6969 6.54639V4.51859H84.2139V6.54639H84.6969ZM83.2336 4.51859H83.7166V6.54639H83.2336V4.51859Z" fill="url(#paint15_linear_6561_4849)"/>
<path d="M83.8514 14.1777H84.0651C84.4937 14.1777 84.842 13.8251 84.842 13.3913V11.796H83.0745V13.3913C83.0745 13.8251 83.4228 14.1777 83.8514 14.1777Z" fill="url(#paint16_linear_6561_4849)"/>
<path d="M83.468 12.0977V7.93457H89.2187V7.35914H89.5463C89.5463 7.35914 89.6266 8.25834 91.0005 8.56113V9.72774H85.3974C84.6982 9.72774 84.4483 10.3792 84.4483 10.6243V12.0963H83.468V12.0977Z" fill="url(#paint17_radial_6561_4849)"/>
<path d="M89.4025 10.4094H87.4783V8.98066H89.4025V10.4094Z" fill="url(#paint18_linear_6561_4849)"/>
<path d="M89.1319 10.741H87.7205V8.98057H89.1319V10.741Z" fill="url(#paint19_linear_6561_4849)"/>
<path d="M86.6329 9.72892H85.3056C85.0492 9.72892 84.842 9.93864 84.842 10.1982V13.0977H85.9207L86.6342 12.3754V9.7276L86.6329 9.72892Z" fill="url(#paint20_linear_6561_4849)"/>
<path d="M81.1333 13.1946H81.5179C81.7303 13.1946 81.9025 13.0202 81.9025 12.8053V10.7264C81.9025 10.5114 81.7303 10.337 81.5179 10.337H81.1333V13.1946Z" fill="url(#paint21_linear_6561_4849)"/>
<path d="M83.0744 12.8054H81.9038V10.7409H83.0744V12.8054Z" fill="url(#paint22_radial_6561_4849)"/>
<path d="M83.2505 11.6794H83.4667V9.62936H82.4878V10.9074C82.4878 11.3334 82.8296 11.6794 83.2505 11.6794Z" fill="url(#paint23_linear_6561_4849)"/>
<path d="M89.2187 7.93457H83.468V6.22398H89.2187V7.93457Z" fill="url(#paint24_linear_6561_4849)"/>
<path d="M83.4745 8.89404H82.8154V6.36814H83.4745V8.89404Z" fill="url(#paint25_linear_6561_4849)"/>
<path opacity="0.39" d="M53.2268 9.5192V8.95031C53.6101 8.66718 53.86 8.21103 53.86 7.69457C53.86 7.17812 53.6101 6.72196 53.2268 6.43883V5.86995H55.6962V9.52051H53.2268V9.5192Z" fill="url(#paint26_linear_6561_4849)"/>
<path opacity="0.5" d="M55.2004 9.93882H54.2253V10.218H55.2004V9.93882ZM54.2266 5.14524H55.2017V5.42444H54.2266V5.14524Z" fill="url(#paint27_linear_6561_4849)"/>
<path d="M54.9169 10.218H54.5193V10.4028C54.5193 10.492 54.5905 10.5627 54.6773 10.5627H54.7589C54.8469 10.5627 54.9169 10.4907 54.9169 10.4028V10.218ZM54.5103 4.9591C54.5103 4.86997 54.5815 4.79918 54.6682 4.79918H54.7498C54.8379 4.79918 54.9078 4.87128 54.9078 4.9591V5.14392H54.5103V4.9591Z" fill="url(#paint28_linear_6561_4849)"/>
<path opacity="0.5" d="M80.6062 9.93882H79.6311V10.218H80.6062V9.93882ZM79.6324 5.14524H80.6075V5.42444H79.6324V5.14524Z" fill="url(#paint29_linear_6561_4849)"/>
<path d="M80.3226 10.218H79.9251V10.4028C79.9251 10.492 79.9963 10.5627 80.0831 10.5627H80.1646C80.2527 10.5627 80.3226 10.4907 80.3226 10.4028V10.218ZM79.916 4.9591C79.916 4.86997 79.9872 4.79918 80.074 4.79918H80.1556C80.2436 4.79918 80.3136 4.87128 80.3136 4.9591V5.14392H79.916V4.9591Z" fill="url(#paint30_linear_6561_4849)"/>
<path d="M51.5836 9.93872V9.20599H51.2599V9.93872H48.3476V9.20599H48.0239V9.93872H47.2146V4.7991L48.121 2.42263H51.164L52.8798 6.36812V9.93872H51.5836Z" fill="#D1D3D4"/>
<path opacity="0.5" d="M43.8832 6.23211L44.2136 6.18224L43.9381 4.31144L43.6077 4.36131C43.4591 4.38374 43.3567 4.52377 43.3788 4.67416L43.5742 6.00045C43.5963 6.15084 43.7346 6.25454 43.8832 6.23211Z" fill="url(#paint31_linear_6561_4849)"/>
<path d="M43.0127 7.86103L46.8262 9.2059V12.5157H44.9201V13.3677H43.0127V7.86103Z" fill="#707382"/>
<path d="M53.3694 12.5159L53.9366 13.499H47.7651L44.9202 13.6667L44.9344 12.5159H53.3694Z" fill="#707382"/>
<path d="M51.0346 12.5156H46.8262V9.9386H51.0346V12.5156Z" fill="#707382"/>
<path opacity="0.3" d="M51.9722 12.5156H51.0347V10.8444H51.9722V12.5156Z" fill="url(#paint32_linear_6561_4849)"/>
<path d="M63.041 17.2344H62.624V24.6077H63.041C63.7117 24.6077 64.1662 24.1004 64.2426 23.3781L64.4304 21.5915C64.477 21.1459 64.477 20.6963 64.4304 20.2493L64.2426 18.4627C64.1766 17.6945 63.7104 17.2331 63.041 17.2331V17.2344Z" fill="#707382"/>
<path d="M43.0127 24.0115L41.7307 23.8804C41.6518 23.8725 41.5896 23.7572 41.5896 23.6169V16.8821C41.5896 16.7431 41.6518 16.6278 41.7307 16.6186L43.0127 16.4875V24.0115Z" fill="url(#paint33_linear_6561_4849)"/>
<path opacity="0.45" d="M31.5967 17.5583H40.5924C40.7931 17.5583 40.9549 17.3945 40.9549 17.1913V9.65295C40.9549 9.44977 40.7931 9.28593 40.5924 9.28593H31.5967C31.396 9.28593 31.2341 9.44977 31.2341 9.65295V17.1913C31.2341 17.3945 31.396 17.5583 31.5967 17.5583Z" fill="#231F20"/>
<path opacity="0.45" d="M31.5967 9.00537H40.5924C40.7931 9.00537 40.9549 8.84152 40.9549 8.63835V1.09997C40.9549 0.896796 40.7931 0.732947 40.5924 0.732947H31.5967C31.396 0.732947 31.2341 0.896796 31.2341 1.09997V8.63835C31.2341 8.84152 31.396 9.00537 31.5967 9.00537Z" fill="#231F20"/>
<path opacity="0.8" d="M25.5096 24.5672H25.2985V24.9487L24.5915 25.3616L23.8832 24.9487V24.5672H23.2564V24.9487L22.5494 25.3616L21.8424 24.9487V24.5672H21.2157V24.9487L20.5074 25.3616L19.8003 24.9487V24.5672H19.1736V24.9487L18.4666 25.3616L17.7596 24.9487V24.5672H17.1316V24.9487L16.4245 25.3616L15.7175 24.9487V24.5672H15.0908V24.9487L14.3838 25.3616L13.6768 24.9487V24.1216L14.3838 23.7087L15.0908 24.1216V24.5043H15.7175V24.1216L16.4245 23.7087L17.1316 24.1216V24.5043H17.7596V24.1216L18.4666 23.7087L19.1736 24.1216V24.5043H19.8003V24.1216L20.5074 23.7087L21.2157 24.1216V24.5043H21.8424V24.1216L22.5494 23.7087L23.2564 24.1216V24.5043H23.8832V24.1216L24.5915 23.7087L25.2985 24.1216V24.5043H25.5096V24.5672Z" fill="#231F20"/>
<path opacity="0.8" d="M25.3309 25.8047H12.3172C12.1838 25.8047 12.0737 25.6946 12.0737 25.5583V23.4938C12.0737 23.3587 12.1825 23.2473 12.3172 23.2473H25.3309C25.4643 23.2473 25.5744 23.3574 25.5744 23.4938V25.5583C25.5744 25.6933 25.4656 25.8047 25.3309 25.8047ZM25.4449 23.4938C25.4449 23.4308 25.3944 23.3784 25.3309 23.3784H12.3172C12.255 23.3784 12.2032 23.4295 12.2032 23.4938V23.9171H12.5528C12.5632 23.8031 12.6564 23.714 12.7717 23.714C12.8934 23.714 12.9931 23.8136 12.9931 23.9381C12.9931 24.0626 12.8947 24.1623 12.7717 24.1623C12.6564 24.1623 12.5632 24.0731 12.5528 23.9591H12.2032V25.1244H12.5528C12.5632 25.0103 12.6564 24.9212 12.7717 24.9212C12.8934 24.9212 12.9931 25.0208 12.9931 25.1454C12.9931 25.2699 12.8947 25.3695 12.7717 25.3695C12.6564 25.3695 12.5632 25.2804 12.5528 25.1663H12.2032V25.5622C12.2032 25.6251 12.2537 25.6775 12.3172 25.6775H25.3309C25.3931 25.6775 25.4449 25.6264 25.4449 25.5622V23.4977V23.4938Z" fill="#231F20"/>
<path opacity="0.8" d="M25.3153 10.9126H12.4038C12.2251 10.9126 12.0801 10.7658 12.0801 10.5849V1.37133C12.0801 1.19044 12.2251 1.04363 12.4038 1.04363H25.3153C25.494 1.04363 25.639 1.19044 25.639 1.37133V10.5849C25.639 10.7658 25.494 10.9126 25.3153 10.9126ZM25.3153 1.17471H24.37V1.55353L23.663 1.96643L22.9559 1.55353V1.17471H20.2872V1.55353L19.5801 1.96643L18.8731 1.55353V1.17471H16.2043V1.55353L15.4973 1.96643L14.7903 1.55353V1.17471H12.4038C12.2963 1.17471 12.2096 1.26253 12.2096 1.37133V10.5849C12.2096 10.6937 12.2963 10.7815 12.4038 10.7815H14.7903V10.4027L15.4973 9.9898L16.2043 10.4027V10.7815H18.8731V10.4027L19.5801 9.9898L20.2872 10.4027V10.7815H22.9559V10.4027L23.663 9.9898L24.37 10.4027V10.7815H25.3153C25.4227 10.7815 25.5095 10.6937 25.5095 10.5849V9.33965H22.3292V9.72109L21.6222 10.134L20.9152 9.72109V9.33965H18.2464V9.72109L17.5394 10.134L16.8324 9.72109V9.33965H14.1636V9.72109L13.4566 10.134L12.7495 9.72109V8.89397L13.4566 8.48107L14.1636 8.89397V9.27542H16.8324V8.89397L17.5394 8.48107L18.2464 8.89397V9.27542H20.9152V8.89397L21.6222 8.48107L22.3292 8.89397V9.27542H25.5095V8.22809H24.37V8.60953L23.663 9.02243L22.9559 8.60953V8.22809H20.2872V8.60953L19.5801 9.02243L18.8731 8.60953V8.22809H16.2043V8.60953L15.4973 9.02243L14.7903 8.60953V8.22809H14.1636V8.16517H14.7903V7.78373L15.4973 7.37083L16.2043 7.78373V8.16517H18.8731V7.78373L19.5801 7.37083L20.2872 7.78373V8.16517H22.9559V7.78373L23.663 7.37083L24.37 7.78373V8.16517H25.5095V7.11785H22.3292V7.49929L21.6222 7.91219L20.9152 7.49929V7.11785H18.2464V7.49929L17.5394 7.91219L16.8324 7.49929V7.11785H14.1636V7.49929L13.4566 7.91219L12.7495 7.49929V6.67218L13.4566 6.25928L14.1636 6.67218V7.05362H16.8324V6.67218L17.5394 6.25928L18.2464 6.67218V7.05362H20.9152V6.67218L21.6222 6.25928L22.3292 6.67218V7.05362H25.5095V6.00629H24.37V6.38774L23.663 6.80064L22.9559 6.38774V6.00629H20.2872V6.38774L19.5801 6.80064L18.8731 6.38774V6.00629H16.2043V6.38774L15.4973 6.80064L14.7903 6.38774V6.00629H14.1636V5.94338H14.7903V5.56193L15.4973 5.14904L16.2043 5.56193V5.94338H18.8731V5.56193L19.5801 5.14904L20.2872 5.56193V5.94338H22.9559V5.56193L23.663 5.14904L24.37 5.56193V5.94338H25.5095V4.89605H22.3292V5.27749L21.6222 5.69039L20.9152 5.27749V4.89605H18.2464V5.27749L17.5394 5.69039L16.8324 5.27749V4.89605H14.1636V5.27749L13.4566 5.69039L12.7495 5.27749V4.45038L13.4566 4.03748L14.1636 4.45038V4.83182H16.8324V4.45038L17.5394 4.03748L18.2464 4.45038V4.83182H20.9152V4.45038L21.6222 4.03748L22.3292 4.45038V4.83182H25.5095V3.7845H24.37V4.16594L23.663 4.57884L22.9559 4.16594V3.7845H20.2872V4.16594L19.5801 4.57884L18.8731 4.16594V3.7845H16.2043V4.16594L15.4973 4.57884L14.7903 4.16594V3.7845H14.1636V3.72158H14.7903V3.34014L15.4973 2.92724L16.2043 3.34014V3.72158H18.8731V3.34014L19.5801 2.92724L20.2872 3.34014V3.72158H22.9559V3.34014L23.663 2.92724L24.37 3.34014V3.72158H25.5095V2.67426H22.3292V3.0557L21.6222 3.4686L20.9152 3.0557V2.67426H18.2464V3.0557L17.5394 3.4686L16.8324 3.0557V2.67426H14.1636V3.0557L13.4566 3.4686L12.7495 3.0557V2.22859L13.4566 1.81568L14.1636 2.22859V2.61003H16.8324V2.22859L17.5394 1.81568L18.2464 2.22859V2.61003H20.9152V2.22859L21.6222 1.81568L22.3292 2.22859V2.61003H25.5095V1.36477C25.5095 1.25597 25.4227 1.16815 25.3153 1.16815V1.17471Z" fill="#231F20"/>
<path d="M96.1529 16.7379V17.4863C95.0263 17.4863 94.0085 17.0118 93.2847 16.2502L93.993 15.9029C94.5666 16.422 95.3228 16.7392 96.1529 16.7392V16.7379Z" fill="url(#paint34_linear_6561_4849)"/>
<path d="M9.14715 11.7175H3.56095C3.42293 11.7175 3.31104 11.6043 3.31104 11.4645V1.90361C3.31104 1.76389 3.42293 1.65063 3.56095 1.65063H9.14715C9.28518 1.65063 9.39707 1.76389 9.39707 1.90361V11.4645C9.39707 11.6043 9.28518 11.7175 9.14715 11.7175Z" fill="#414042"/>
<path opacity="0.3" d="M31.0283 26.574L30.3381 26.1807H26.1077V21.9862L27.163 20.9205V14.3508L26.1077 13.2851V0.676609H30.2941L31.0283 0.337114V26.574Z" fill="url(#paint35_linear_6561_4849)"/>
<path opacity="0.39" d="M27.163 20.9204H13.1587V14.3507H27.163V20.9204Z" fill="url(#paint36_linear_6561_4849)"/>
<path opacity="0.5" d="M19.0428 18.8743H15.6359C15.4979 18.8743 15.386 18.761 15.386 18.6213V15.7506C15.386 15.6109 15.4979 15.4977 15.6359 15.4977H19.0428C19.1808 15.4977 19.2927 15.6109 19.2927 15.7506V18.6213C19.2927 18.761 19.1808 18.8743 19.0428 18.8743Z" fill="url(#paint37_radial_6561_4849)"/>
<path d="M14.4951 18.2937H17.8658C18.4757 18.2937 18.9703 17.793 18.9703 17.1756C18.9703 16.5582 18.4757 16.0575 17.8658 16.0575H14.4951C14.0432 16.0575 13.6768 16.4284 13.6768 16.8859V17.4627C13.6768 17.9201 14.0432 18.2911 14.4951 18.2911V18.2937Z" fill="url(#paint38_linear_6561_4849)"/>
<path opacity="0.39" d="M26.1077 21.9861H11.6423L13.1587 20.9204H27.163L26.1077 21.9861Z" fill="url(#paint39_linear_6561_4849)"/>
<path opacity="0.4" d="M11.6423 21.9861L13.1587 20.9204V14.3507L11.6423 13.285V21.9861Z" fill="url(#paint40_linear_6561_4849)"/>
<path opacity="0.39" d="M20.4038 13.8186H23.3976V11.5929C23.3976 11.3976 23.2409 11.239 23.048 11.239H20.7534C20.5605 11.239 20.4038 11.3976 20.4038 11.5929V13.8186Z" fill="url(#paint41_linear_6561_4849)"/>
<path opacity="0.39" d="M13.1587 14.3508L11.6423 13.2865H20.4036V13.8186H23.3961V13.2865H26.1077L27.163 14.3508H13.1587Z" fill="url(#paint42_linear_6561_4849)"/>
<path opacity="0.9" d="M11.3135 26.5086V26.6396H2.43305C2.31391 26.6396 2.2168 26.5413 2.2168 26.4207V0.490612C2.2168 0.370018 2.31391 0.271709 2.43305 0.271709H11.3135V0.402788H11.0234C10.9043 0.402788 10.8072 0.501097 10.8072 0.621691V26.2897C10.8072 26.4103 10.9043 26.5086 11.0234 26.5086H11.3135ZM10.4601 0.402788H2.56254C2.4434 0.402788 2.34629 0.501097 2.34629 0.621691V13.1975C2.34629 13.318 2.4434 13.4164 2.56254 13.4164H10.4601C10.5793 13.4164 10.6764 13.318 10.6764 13.1975V0.621691C10.6764 0.501097 10.5793 0.402788 10.4601 0.402788ZM10.4601 13.5474H2.56254C2.4434 13.5474 2.34629 13.6457 2.34629 13.7663V26.2897C2.34629 26.4103 2.4434 26.5086 2.56254 26.5086H10.4601C10.5793 26.5086 10.6764 26.4103 10.6764 26.2897V13.7663C10.6764 13.6457 10.5793 13.5474 10.4601 13.5474Z" fill="#231F20"/>
<path d="M0.707016 22.2484C0.640976 22.2484 0.577526 22.2209 0.530909 22.1737L0.0725144 21.7071C0.025898 21.6599 0 21.5957 0 21.5288V20.9652C0.0012949 20.8983 0.0284878 20.8341 0.0751042 20.7869L0.536089 20.3229C0.582705 20.2757 0.646155 20.2495 0.712195 20.2495H1.29361L1.28843 22.2498H0.707016V22.2484ZM0.695362 20.8446C0.475228 20.8446 0.295237 21.0242 0.295237 21.2483C0.295237 21.4725 0.472639 21.6533 0.694067 21.6533C0.915495 21.6533 1.09419 21.4738 1.09419 21.2496C1.09419 21.0255 0.91679 20.8446 0.695362 20.8446ZM0.745863 6.29477C0.679823 6.29477 0.616373 6.26724 0.569756 6.22005L0.111361 5.75341C0.064745 5.70622 0.038847 5.64199 0.038847 5.57514V5.0115C0.0401419 4.94465 0.0673348 4.88042 0.113951 4.83323L0.574936 4.36921C0.621552 4.32202 0.685002 4.2958 0.751042 4.2958H1.33245L1.32727 6.29608H0.745863V6.29477ZM0.735503 4.89091C0.51537 4.89091 0.335379 5.07049 0.335379 5.29463C0.335379 5.51878 0.512781 5.69967 0.734209 5.69967C0.955637 5.69967 1.13433 5.52009 1.13433 5.29594C1.13433 5.0718 0.956931 4.89091 0.735503 4.89091Z" fill="url(#paint43_linear_6561_4849)"/>
<path opacity="0.5" d="M47.4827 4.09786H46.7783L43.9709 4.52125L44.1846 5.97754L47.2147 5.52138L47.2017 4.82666L47.4827 4.09786Z" fill="url(#paint44_linear_6561_4849)"/>
<path opacity="0.9" d="M43.0127 7.86104L46.8262 9.20591V12.5157H44.9201V13.6665L43.0127 13.7832V7.86104Z" fill="url(#paint45_radial_6561_4849)"/>
<path opacity="0.39" d="M51.0346 12.5156H46.8262V9.9386H51.0346V12.5156Z" fill="url(#paint46_linear_6561_4849)"/>
<path d="M48.3477 9.20609H48.0239V9.67798H48.3477V9.20609ZM51.5797 9.67798H51.256V9.20609H51.5797V9.67798Z" fill="#58595B"/>
<path opacity="0.39" d="M60.947 3.97969V4.09766H54.5165L53.9131 3.5196H53.5816C53.4159 3.31511 53.1633 3.18403 52.8811 3.18403C52.3812 3.18403 51.9772 3.593 51.9746 4.09766H51.893L51.1653 2.42246H48.1223L47.5098 4.02949H46.7173L46.4169 4.09635H43.3092V3.91152H43.0139V0.103665H60.947V0.221638H63.7258V3.97837H60.947V3.97969Z" fill="url(#paint47_linear_6561_4849)"/>
<path opacity="0.5" d="M60.2751 9.43921H56.0408V5.94988H60.2751V9.43921Z" fill="url(#paint48_linear_6561_4849)"/>
<path opacity="0.39" d="M55.0176 9.43921V9.08923H54.7651V6.29855H55.0176V5.94856H55.7065V9.43921H55.0176Z" fill="url(#paint49_linear_6561_4849)"/>
<path opacity="0.5" d="M60.1416 9.05786H60.2737V8.2006H60.1416C60.0924 8.2006 60.0522 8.24124 60.0522 8.29105V8.96742C60.0522 9.01723 60.0924 9.05786 60.1416 9.05786Z" fill="url(#paint50_linear_6561_4849)"/>
<path opacity="0.5" d="M60.1416 7.25684H60.2737V6.39958H60.1416C60.0924 6.39958 60.0522 6.44021 60.0522 6.49002V7.16639C60.0522 7.2162 60.0924 7.25684 60.1416 7.25684Z" fill="url(#paint51_linear_6561_4849)"/>
<path opacity="0.5" d="M60.4005 9.48901H60.7178V7.76794H60.4005C60.3306 7.76794 60.2749 7.82561 60.2749 7.89509V9.36055C60.2749 9.43134 60.3319 9.4877 60.4005 9.4877V9.48901Z" fill="url(#paint52_linear_6561_4849)"/>
<path opacity="0.5" d="M60.4005 7.68945H60.7178V5.96838H60.4005C60.3306 5.96838 60.2749 6.02606 60.2749 6.09553V7.561C60.2749 7.63178 60.3319 7.68814 60.4005 7.68814V7.68945Z" fill="url(#paint53_linear_6561_4849)"/>
<path opacity="0.5" d="M60.7178 9.39478H72.7655C72.8665 9.39478 72.9481 9.31219 72.9481 9.20995V8.04597C72.9481 7.94372 72.8665 7.86115 72.7655 7.86115H60.7178V9.39478Z" fill="url(#paint54_linear_6561_4849)"/>
<path opacity="0.5" d="M60.7178 7.59497H72.7655C72.8665 7.59497 72.9481 7.51239 72.9481 7.41015V6.24616C72.9481 6.14392 72.8665 6.06134 72.7655 6.06134H60.7178V7.59497Z" fill="url(#paint55_linear_6561_4849)"/>
<path d="M55.1951 9.5192H54.2266V9.63062H55.1951V9.5192ZM55.1951 5.86863H54.2266V5.75722H55.1951V5.86863ZM56.1171 9.43924H55.7066V5.96957H56.1171V9.43924Z" fill="#595A5A"/>
<path d="M53.2269 9.93872H52.8799V6.36812H53.2269V9.93872Z" fill="#707382"/>
<path d="M59.5201 14.5112L55.4137 13.3529C55.3786 13.343 55.358 13.3061 55.3678 13.2706L55.7522 11.874C55.762 11.8385 55.7984 11.8177 55.8336 11.8276L59.94 12.9858C59.9751 12.9957 59.9956 13.0326 59.9859 13.0682L59.6014 14.4647C59.5916 14.5003 59.5552 14.5211 59.5201 14.5112Z" fill="url(#paint56_linear_6561_4849)"/>
<path d="M58.6174 14.7681L55.943 14.0138C55.9079 14.0039 55.8873 13.967 55.8971 13.9315L55.992 13.5867C56.0018 13.5512 56.0382 13.5304 56.0734 13.5403L58.7477 14.2946C58.7829 14.3045 58.8034 14.3414 58.7936 14.377L58.6987 14.7217C58.6889 14.7572 58.6525 14.778 58.6174 14.7681Z" fill="url(#paint57_linear_6561_4849)"/>
<path d="M59.309 13.9262L59.2624 14.0966C59.2377 14.1858 59.1458 14.2382 59.0578 14.2133L55.9966 13.3495C55.9086 13.3246 55.8568 13.2315 55.8814 13.1424L55.928 12.972L56.0083 12.8592L56.0911 12.5578L56.0808 12.4188L56.1248 12.2615C56.1494 12.1724 56.2414 12.1199 56.3294 12.1449L59.3905 13.0087C59.4786 13.0336 59.5304 13.1266 59.5058 13.2158L59.4618 13.3731L59.3685 13.4832L59.2857 13.7847L59.309 13.9275V13.9262Z" fill="url(#paint58_linear_6561_4849)"/>
<path d="M56.6624 12.5223C56.8626 12.5223 57.0249 12.6866 57.0249 12.8893C57.0249 13.092 56.8626 13.2563 56.6624 13.2563C56.4621 13.2563 56.2998 13.092 56.2998 12.8893C56.2998 12.6866 56.4621 12.5223 56.6624 12.5223Z" fill="url(#paint59_radial_6561_4849)"/>
<path d="M61.0947 25.802H53.8445C53.6322 25.802 53.46 25.6277 53.46 25.4127V25.0299C53.873 25.0299 54.2084 24.6904 54.2084 24.2723C54.2084 23.8542 53.873 23.5147 53.46 23.5147V17.641C53.873 17.641 54.2084 17.3015 54.2084 16.8834C54.2084 16.4652 53.873 16.1257 53.46 16.1257V15.2855C53.46 15.0705 53.6322 14.8962 53.8445 14.8962L61.1931 16.8847C61.3614 16.9305 61.478 17.0839 61.478 17.2609V25.4127C61.478 25.6277 61.3058 25.802 61.0934 25.802H61.0947Z" fill="#231F20"/>
<path opacity="0.9" d="M62.624 16.8389L53.6568 14.351H52.5717C52.2402 14.351 51.9722 14.6223 51.9722 14.9579V25.574C51.9722 25.9096 52.2402 26.1809 52.5717 26.1809H62.624V16.8389Z" fill="url(#paint60_linear_6561_4849)"/>
<path d="M51.9723 24.9027H47.7651V27L41.5574 26.633C41.1896 26.6186 41.1611 26.4115 41.1611 26.1611V14.3377C41.1611 14.0874 41.1896 13.8803 41.5574 13.8658L47.7651 13.4988V15.6944H51.9723V24.9027Z" fill="#707382"/>
<path opacity="0.8" d="M43.7676 13.7349L41.5559 13.8659C41.1882 13.8804 41.1597 14.0875 41.1597 14.3378V26.1612C41.1597 26.4116 41.1882 26.6187 41.5559 26.6331L43.7676 26.7642C43.5216 26.7484 43.3299 26.5426 43.3299 26.2923V14.2067C43.3299 13.9564 43.5216 13.7506 43.7676 13.7349ZM43.3299 14.2067V26.2923C43.3299 26.5426 43.5216 26.7484 43.7676 26.7642L41.5559 26.6331C41.1882 26.6187 41.1597 26.4116 41.1597 26.1612V14.3378C41.1597 14.0875 41.1882 13.8804 41.5559 13.8659L43.7676 13.7349C43.5216 13.7506 43.3299 13.9564 43.3299 14.2067ZM43.3299 14.2067V26.2923C43.3299 26.5426 43.5216 26.7484 43.7676 26.7642L41.5559 26.6331C41.1882 26.6187 41.1597 26.4116 41.1597 26.1612V14.3378C41.1597 14.0875 41.1882 13.8804 41.5559 13.8659L43.7676 13.7349C43.5216 13.7506 43.3299 13.9564 43.3299 14.2067Z" fill="#231F20"/>
<path opacity="0.3" d="M51.9723 24.9027H47.7651V27L41.5574 26.633C41.1896 26.6186 41.1611 26.4115 41.1611 26.1611V14.3377C41.1611 14.0874 41.1896 13.8803 41.5574 13.8658L47.7651 13.4988V15.6944H51.9723V24.9027Z" fill="url(#paint61_linear_6561_4849)"/>
<path d="M53.675 14.2197H52.573C52.1716 14.2197 51.844 14.5513 51.844 14.9577V25.5738C51.844 25.9801 52.1716 26.3118 52.573 26.3118H62.6253V16.7076L53.675 14.2197ZM52.5717 26.0496C52.3127 26.0496 52.1017 25.8359 52.1017 25.5738V14.9577C52.1017 14.6955 52.3127 14.4818 52.5717 14.4818H53.64L62.3651 16.9068V26.0496H52.5717Z" fill="#231F20"/>
<path opacity="0.7" d="M51.199 15.9959H47.2081C46.9621 15.9959 46.7627 16.1977 46.7627 16.4468V24.2224C46.7627 24.4715 46.9621 24.6733 47.2081 24.6733H51.199C51.4451 24.6733 51.6445 24.4715 51.6445 24.2224V16.4481C51.6445 16.1991 51.4451 15.9972 51.199 15.9972V15.9959ZM47.2068 24.5423C47.032 24.5423 46.8909 24.3981 46.8909 24.2224V16.4481C46.8909 16.2711 47.0333 16.1283 47.2068 16.1283H51.1977C51.3725 16.1283 51.5137 16.2725 51.5137 16.4481V24.2224C51.5137 24.3994 51.3712 24.5423 51.1977 24.5423H47.2068Z" fill="#231F20"/>
<path opacity="0.5" d="M43.0775 16.414L41.7243 16.553C41.6091 16.5648 41.5249 16.7024 41.5249 16.8807V23.6169C41.5249 23.7951 41.6091 23.9328 41.7243 23.9446L43.0775 24.0835V16.414ZM42.948 23.9393L41.7373 23.8148C41.7036 23.8109 41.6544 23.7322 41.6544 23.6169V16.882C41.6544 16.7666 41.7036 16.688 41.7373 16.6841L42.948 16.5595V23.9393Z" fill="#231F20"/>
<path opacity="0.3" d="M52.5716 26.1808H62.6239V26.5268C62.6239 26.7877 62.4154 27 62.1564 27H47.7649V24.4269L47.2923 24.4243C47.1408 24.4243 47.019 24.2998 47.019 24.1464V16.5451C47.019 16.3931 47.1408 16.2685 47.291 16.2672L47.7649 16.262V13.5001H53.6735C53.8484 13.5001 54.0219 13.5237 54.1902 13.5696L62.2782 15.7665C62.4827 15.8215 62.6239 16.009 62.6239 16.2226V16.84L53.6567 14.3521H52.5716C52.2401 14.3521 51.972 14.6235 51.972 14.959V25.5739C51.972 25.9094 52.2401 26.1808 52.5716 26.1808Z" fill="url(#paint62_linear_6561_4849)"/>
<path d="M53.192 14.3599C53.192 14.2825 53.1298 14.2196 53.0534 14.2196C52.977 14.2196 52.9149 14.2825 52.9149 14.3599C52.9149 14.4123 52.9447 14.4569 52.9874 14.4804V26.0482C52.9434 26.0718 52.9136 26.1177 52.9136 26.1714C52.9136 26.2501 52.9757 26.313 53.0534 26.313C53.1311 26.313 53.1933 26.2501 53.1933 26.1714C53.1933 26.1177 53.1622 26.0731 53.1195 26.0482V14.4804C53.1622 14.4569 53.192 14.4123 53.192 14.3599ZM58.6241 26.0482C58.6681 26.0718 58.6979 26.1177 58.6979 26.1714C58.6979 26.2501 58.6357 26.313 58.558 26.313C58.4804 26.313 58.4182 26.2501 58.4182 26.1714C58.4182 26.1177 58.4493 26.0731 58.492 26.0482V15.8371C58.4493 15.8135 58.4195 15.769 58.4195 15.7165C58.4195 15.6392 58.4816 15.5763 58.558 15.5763C58.6344 15.5763 58.6966 15.6392 58.6966 15.7165C58.6966 15.769 58.6668 15.8135 58.6241 15.8371M62.0569 16.8097V26.0482C62.1009 26.0718 62.1307 26.1177 62.1307 26.1714C62.1307 26.2501 62.0685 26.313 61.9908 26.313C61.9131 26.313 61.851 26.2501 61.851 26.1714C61.851 26.1177 61.8821 26.0731 61.9248 26.0482V16.8097C61.8821 16.7861 61.8523 16.7416 61.8523 16.6891C61.8523 16.6118 61.9144 16.5489 61.9908 16.5489C62.0672 16.5489 62.1294 16.6118 62.1294 16.6891C62.1294 16.7416 62.0996 16.7861 62.0569 16.8097Z" fill="url(#paint63_linear_6561_4849)"/>
<path d="M62.6239 25.5215H52.2803V25.6526H62.6239V25.5215ZM62.6239 23.8476H52.2803V23.7165H62.6239V23.8476ZM62.6239 22.0413H52.2803V21.9103H62.6239V22.0413ZM62.6239 20.2364H52.2803V20.1053H62.6239V20.2364ZM62.6239 18.4301H52.2803V18.299H62.6239V18.4301ZM60.0341 16.6251H52.2803V16.4941H60.0341V16.6251Z" fill="url(#paint64_linear_6561_4849)"/>
<path d="M53.1389 26.1808C53.1389 26.1336 53.1014 26.0943 53.0535 26.0943C53.0056 26.0943 52.968 26.1323 52.968 26.1808C52.968 26.2293 53.0056 26.2673 53.0535 26.2673C53.1014 26.2673 53.1389 26.2293 53.1389 26.1808ZM53.0535 14.4374C53.0069 14.4374 52.968 14.3994 52.968 14.3509C52.968 14.3024 53.0056 14.2644 53.0535 14.2644C53.1014 14.2644 53.1389 14.3024 53.1389 14.3509C53.1389 14.3994 53.1014 14.4374 53.0535 14.4374ZM55.5695 14.8975C55.5695 14.8503 55.607 14.811 55.6549 14.811C55.7028 14.811 55.7404 14.849 55.7404 14.8975M58.5581 15.8033C58.5115 15.8033 58.4726 15.7652 58.4726 15.7167C58.4726 15.6683 58.5102 15.6302 58.5581 15.6302C58.606 15.6302 58.6436 15.6683 58.6436 15.7167C58.6436 15.7652 58.606 15.8033 58.5581 15.8033ZM61.9909 16.7706C61.9443 16.7706 61.9054 16.7326 61.9054 16.6841C61.9054 16.6356 61.943 16.5976 61.9909 16.5976C62.0388 16.5976 62.0764 16.6356 62.0764 16.6841C62.0764 16.7326 62.0388 16.7706 61.9909 16.7706ZM58.5581 26.2673C58.5115 26.2673 58.4726 26.2293 58.4726 26.1808C58.4726 26.1323 58.5102 26.0943 58.5581 26.0943C58.606 26.0943 58.6436 26.1323 58.6436 26.1808C58.6436 26.2293 58.606 26.2673 58.5581 26.2673ZM61.9909 26.2673C61.9443 26.2673 61.9054 26.2293 61.9054 26.1808C61.9054 26.1323 61.943 26.0943 61.9909 26.0943C62.0388 26.0943 62.0764 26.1323 62.0764 26.1808C62.0764 26.2293 62.0388 26.2673 61.9909 26.2673Z" fill="#A7A9AC"/>
<path opacity="0.5" d="M79.6429 8.94258H72.9482V9.12085H79.6429V8.94258ZM79.6429 7.14286V8.3134H72.9482V7.14286H79.6429ZM72.9482 6.51499V6.36818H79.6429V6.51499H72.9482Z" fill="url(#paint65_linear_6561_4849)"/>
<path opacity="0.5" d="M80.6062 9.12085H82.4877V8.94258H80.6062V9.12085ZM82.489 7.14286V8.3134H80.6075V7.14286H82.489ZM80.6062 6.51499V6.36818H82.4877V6.51499H80.6062Z" fill="url(#paint66_linear_6561_4849)"/>
<path opacity="0.5" d="M80.6062 8.94258H79.6428V9.12085H80.6062V8.94258ZM80.6062 7.14286V8.3134H79.6428V7.14286H80.6062ZM79.6428 6.51499V6.36818H80.6062V6.51499H79.6428Z" fill="url(#paint67_linear_6561_4849)"/>
<path d="M72.9482 8.94254H82.6224C82.6911 8.94254 82.7455 8.88617 82.7455 8.81801V8.43919C82.7455 8.36972 82.6898 8.31467 82.6224 8.31467H72.9482V8.94385V8.94254Z" fill="url(#paint68_linear_6561_4849)"/>
<path opacity="0.9" d="M81.0285 8.32131H80.9819V8.94263H81.0285L81.0221 8.90986C81.0169 8.88626 81.013 8.83907 81.0117 8.78009C81.0091 8.68309 81.0091 8.58085 81.0117 8.48385C81.013 8.42486 81.0169 8.37898 81.0221 8.35408L81.0285 8.32131ZM82.5902 8.90986C82.5954 8.88626 82.5993 8.83907 82.6006 8.78009C82.6031 8.68309 82.6031 8.58085 82.6006 8.48385C82.5993 8.42486 82.5954 8.37898 82.5902 8.35408L82.5837 8.32131H82.7547V8.94263H82.5837L82.5902 8.90986Z" fill="black"/>
<path d="M72.9482 7.14273H82.6224C82.6911 7.14273 82.7455 7.08637 82.7455 7.01821V6.63939C82.7455 6.56991 82.6898 6.51486 82.6224 6.51486H72.9482V7.14404V7.14273Z" fill="url(#paint69_linear_6561_4849)"/>
<path opacity="0.9" d="M81.0285 6.52151H80.9819V7.14282H81.0285L81.0221 7.11005C81.0169 7.08646 81.013 7.03927 81.0117 6.98029C81.0091 6.88329 81.0091 6.78104 81.0117 6.68404C81.013 6.62506 81.0169 6.57918 81.0221 6.55428L81.0285 6.52151ZM82.5902 7.11005C82.5954 7.08646 82.5993 7.03927 82.6006 6.98029C82.6031 6.88329 82.6031 6.78104 82.6006 6.68404C82.5993 6.62506 82.5954 6.57918 82.5902 6.55428L82.5837 6.52151H82.7547V7.14282H82.5837L82.5902 7.11005Z" fill="black"/>
<path opacity="0.3" d="M67.7737 8.0382H63.2001L62.9955 8.24793H60.7178V8.31347H63.0227L63.2273 8.10374H67.7491L67.9783 8.31347H72.8264L72.9481 8.36328V8.29774L72.8432 8.24793H68.0029L67.7737 8.0382Z" fill="black"/>
<path opacity="0.3" d="M67.7737 6.23962H63.2001L62.9955 6.44935H60.7178V6.51489H63.0227L63.2273 6.30516H67.7491L67.9783 6.51489H72.8264L72.9481 6.5647V6.50047L72.8432 6.44935H68.0029L67.7737 6.23962Z" fill="black"/>
<path opacity="0.5" d="M80.3226 9.93872V9.67525H75.9614L76.3499 9.93872H80.3226ZM80.3226 5.42303V5.6865H75.9614L76.3499 5.42303H80.3226Z" fill="url(#paint70_linear_6561_4849)"/>
<path opacity="0.5" d="M60.7178 9.93872V9.67525H66.2561L65.7627 9.93872H60.7178ZM60.7178 5.42303V5.6865H66.2561L65.7627 5.42303H60.7178Z" fill="url(#paint71_linear_6561_4849)"/>
<path d="M96.1529 10.1786C97.9422 10.1786 99.3928 11.6469 99.3928 13.4582C99.3928 15.2695 97.9422 16.7378 96.1529 16.7378C94.3636 16.7378 92.9131 15.2695 92.9131 13.4582C92.9131 11.6469 94.3636 10.1786 96.1529 10.1786Z" fill="url(#paint72_radial_6561_4849)"/>
<path d="M94.6185 16.4495C94.9953 16.4495 95.3009 16.7588 95.3009 17.1403C95.3009 17.5218 94.9953 17.8311 94.6185 17.8311C94.2416 17.8311 93.936 17.5218 93.936 17.1403C93.936 16.7588 94.2416 16.4495 94.6185 16.4495Z" fill="url(#paint73_radial_6561_4849)"/>
<path d="M97.006 18.4302H94.7192V17.9491H97.006V18.4302Z" fill="url(#paint74_linear_6561_4849)"/>
<path d="M12.7715 24.9878C12.8566 24.9878 12.9256 25.0577 12.9256 25.1438C12.9256 25.23 12.8566 25.2998 12.7715 25.2998C12.6864 25.2998 12.6174 25.23 12.6174 25.1438C12.6174 25.0577 12.6864 24.9878 12.7715 24.9878Z" fill="#BCBEC0"/>
<path d="M12.7715 23.7808C12.8566 23.7808 12.9256 23.8506 12.9256 23.9368C12.9256 24.0229 12.8566 24.0928 12.7715 24.0928C12.6864 24.0928 12.6174 24.0229 12.6174 23.9368C12.6174 23.8506 12.6864 23.7808 12.7715 23.7808Z" fill="#BCBEC0"/>
<path d="M96.1528 12.5956C96.6234 12.5956 97.0049 12.9817 97.0049 13.4581C97.0049 13.9344 96.6234 14.3206 96.1528 14.3206C95.6823 14.3206 95.3008 13.9344 95.3008 13.4581C95.3008 12.9817 95.6823 12.5956 96.1528 12.5956Z" fill="#707382"/>
<path d="M96.1529 13.0991C96.3488 13.0991 96.5077 13.2599 96.5077 13.4582C96.5077 13.6566 96.3488 13.8174 96.1529 13.8174C95.9569 13.8174 95.7981 13.6566 95.7981 13.4582C95.7981 13.2599 95.9569 13.0991 96.1529 13.0991Z" fill="url(#paint75_radial_6561_4849)"/>
<path opacity="0.2" d="M88.9779 13.285C88.0805 13.285 87.2621 13.6193 86.6328 14.1711V10.4079H90.1562V13.4869C89.7872 13.3558 89.3897 13.285 88.9766 13.285H88.9779Z" fill="url(#paint76_radial_6561_4849)"/>
<path opacity="0.45" d="M31.5967 26.1125H40.5924C40.7931 26.1125 40.9549 25.9487 40.9549 25.7455V18.2071C40.9549 18.004 40.7931 17.8401 40.5924 17.8401H31.5967C31.396 17.8401 31.2341 18.004 31.2341 18.2071V25.7455C31.2341 25.9487 31.396 26.1125 31.5967 26.1125Z" fill="#231F20"/>
</g>
<defs>
<linearGradient id="paint0_linear_6561_4849" x1="93.554" y1="10.5941" x2="99.3927" y2="10.5941" gradientUnits="userSpaceOnUse">
<stop stop-color="#BCBEC0"/>
<stop offset="0.19" stop-color="#B7B9BC"/>
<stop offset="0.4" stop-color="#A9ACB1"/>
<stop offset="0.62" stop-color="#93959E"/>
<stop offset="0.85" stop-color="#747785"/>
<stop offset="0.87" stop-color="#707382"/>
<stop offset="1" stop-color="#67696F"/>
</linearGradient>
<linearGradient id="paint1_linear_6561_4849" x1="51.9722" y1="4.77555" x2="55.9009" y2="4.77555" gradientUnits="userSpaceOnUse">
<stop stop-color="white"/>
<stop offset="1" stop-color="#0D0D0D"/>
</linearGradient>
<linearGradient id="paint2_linear_6561_4849" x1="53.7862" y1="7.68144" x2="82.8153" y2="7.68144" gradientUnits="userSpaceOnUse">
<stop stop-color="#0D0D0D"/>
<stop offset="0.01" stop-color="#151515"/>
<stop offset="0.11" stop-color="#505050"/>
<stop offset="0.2" stop-color="#818181"/>
<stop offset="0.29" stop-color="#A7A7A7"/>
<stop offset="0.37" stop-color="#C2C2C2"/>
<stop offset="0.44" stop-color="#D3D3D3"/>
<stop offset="0.5" stop-color="#D9D9D9"/>
<stop offset="1" stop-color="#0D0D0D"/>
</linearGradient>
<radialGradient id="paint3_radial_6561_4849" cx="0" cy="0" r="1" gradientUnits="userSpaceOnUse" gradientTransform="translate(45.1143 6.55932) scale(2.37226 2.40138)">
<stop stop-color="#757575"/>
<stop offset="0.19" stop-color="#696969"/>
<stop offset="0.53" stop-color="#4B4B4B"/>
<stop offset="0.97" stop-color="#1B1B1B"/>
<stop offset="1" stop-color="#171717"/>
</radialGradient>
<radialGradient id="paint4_radial_6561_4849" cx="0" cy="0" r="1" gradientUnits="userSpaceOnUse" gradientTransform="translate(16.1693 13.4555) scale(13.9422 14.1133)">
<stop stop-color="white"/>
<stop offset="0.1" stop-color="#E9E9E9"/>
<stop offset="0.42" stop-color="#A6A6A6"/>
<stop offset="0.68" stop-color="#767676"/>
<stop offset="0.89" stop-color="#585858"/>
<stop offset="1" stop-color="#4D4D4D"/>
</radialGradient>
<radialGradient id="paint5_radial_6561_4849" cx="0" cy="0" r="1" gradientUnits="userSpaceOnUse" gradientTransform="translate(88.9779 16.9096) scale(3.5804 3.62435)">
<stop stop-color="#BCBEC0"/>
<stop offset="0.51" stop-color="#B1B3B5"/>
<stop offset="0.87" stop-color="#A7A9AC"/>
<stop offset="1" stop-color="#67696F"/>
</radialGradient>
<radialGradient id="paint6_radial_6561_4849" cx="0" cy="0" r="1" gradientUnits="userSpaceOnUse" gradientTransform="translate(86.2352 13.6377) scale(0.47005 0.475819)">
<stop stop-color="#757575"/>
<stop offset="0.19" stop-color="#696969"/>
<stop offset="0.53" stop-color="#4B4B4B"/>
<stop offset="0.97" stop-color="#1B1B1B"/>
<stop offset="1" stop-color="#171717"/>
</radialGradient>
<linearGradient id="paint7_linear_6561_4849" x1="89.9866" y1="12.1775" x2="94.3905" y2="12.1775" gradientUnits="userSpaceOnUse">
<stop stop-color="#BCBEC0"/>
<stop offset="0.19" stop-color="#B7B9BC"/>
<stop offset="0.4" stop-color="#A9ACB1"/>
<stop offset="0.62" stop-color="#93959E"/>
<stop offset="0.85" stop-color="#747785"/>
<stop offset="0.87" stop-color="#707382"/>
<stop offset="1" stop-color="#67696F"/>
</linearGradient>
<radialGradient id="paint8_radial_6561_4849" cx="0" cy="0" r="1" gradientUnits="userSpaceOnUse" gradientTransform="translate(94.9033 8.30944) scale(1.70927 1.73025)">
<stop stop-color="#757575"/>
<stop offset="0.19" stop-color="#696969"/>
<stop offset="0.53" stop-color="#4B4B4B"/>
<stop offset="0.97" stop-color="#1B1B1B"/>
<stop offset="1" stop-color="#171717"/>
</radialGradient>
<linearGradient id="paint9_linear_6561_4849" x1="84.4729" y1="15.5149" x2="86.3207" y2="15.5149" gradientUnits="userSpaceOnUse">
<stop stop-color="#BCBEC0"/>
<stop offset="0.19" stop-color="#B7B9BC"/>
<stop offset="0.4" stop-color="#A9ACB1"/>
<stop offset="0.62" stop-color="#93959E"/>
<stop offset="0.85" stop-color="#747785"/>
<stop offset="0.87" stop-color="#707382"/>
<stop offset="1" stop-color="#67696F"/>
</linearGradient>
<radialGradient id="paint10_radial_6561_4849" cx="0" cy="0" r="1" gradientUnits="userSpaceOnUse" gradientTransform="translate(92.5582 15.8451) scale(11.6722 11.8155)">
<stop offset="0.42" stop-color="#737584"/>
<stop offset="0.43" stop-color="#676875"/>
<stop offset="0.47" stop-color="#52525B"/>
<stop offset="0.52" stop-color="#403F45"/>
<stop offset="0.58" stop-color="#333034"/>
<stop offset="0.64" stop-color="#292628"/>
<stop offset="0.74" stop-color="#242021"/>
<stop offset="1" stop-color="#231F20"/>
</radialGradient>
<radialGradient id="paint11_radial_6561_4849" cx="0" cy="0" r="1" gradientUnits="userSpaceOnUse" gradientTransform="translate(97.2613 17.1403) scale(0.682411 0.690789)">
<stop offset="0.27" stop-color="#737584"/>
<stop offset="0.49" stop-color="#61626C"/>
<stop offset="0.82" stop-color="#49494D"/>
<stop offset="1" stop-color="#414042"/>
</radialGradient>
<linearGradient id="paint12_linear_6561_4849" x1="83.9574" y1="14.1779" x2="83.9574" y2="17.8311" gradientUnits="userSpaceOnUse">
<stop stop-color="#67696F"/>
<stop offset="0.14" stop-color="#898B8F"/>
<stop offset="0.28" stop-color="#A4A6AA"/>
<stop offset="0.4" stop-color="#B5B7BA"/>
<stop offset="0.49" stop-color="#BCBEC0"/>
<stop offset="0.58" stop-color="#B7B9BC"/>
<stop offset="0.67" stop-color="#A9ACB1"/>
<stop offset="0.76" stop-color="#93959E"/>
<stop offset="0.86" stop-color="#747785"/>
<stop offset="0.87" stop-color="#707382"/>
<stop offset="1" stop-color="#67696F"/>
</linearGradient>
<linearGradient id="paint13_linear_6561_4849" x1="83.9575" y1="13.8172" x2="83.9575" y2="15.845" gradientUnits="userSpaceOnUse">
<stop stop-color="#67696F"/>
<stop offset="0.14" stop-color="#898B8F"/>
<stop offset="0.28" stop-color="#A4A6AA"/>
<stop offset="0.4" stop-color="#B5B7BA"/>
<stop offset="0.49" stop-color="#BCBEC0"/>
<stop offset="0.58" stop-color="#B7B9BC"/>
<stop offset="0.67" stop-color="#A9ACB1"/>
<stop offset="0.76" stop-color="#93959E"/>
<stop offset="0.86" stop-color="#747785"/>
<stop offset="0.87" stop-color="#707382"/>
<stop offset="1" stop-color="#67696F"/>
</linearGradient>
<linearGradient id="paint14_linear_6561_4849" x1="83.9653" y1="4.71265" x2="83.9653" y2="6.36818" gradientUnits="userSpaceOnUse">
<stop offset="0.27" stop-color="#737584"/>
<stop offset="0.49" stop-color="#61626C"/>
<stop offset="0.82" stop-color="#49494D"/>
<stop offset="1" stop-color="#414042"/>
</linearGradient>
<linearGradient id="paint15_linear_6561_4849" x1="83.9653" y1="4.51859" x2="83.9653" y2="6.54639" gradientUnits="userSpaceOnUse">
<stop stop-color="#67696F"/>
<stop offset="0.14" stop-color="#898B8F"/>
<stop offset="0.28" stop-color="#A4A6AA"/>
<stop offset="0.4" stop-color="#B5B7BA"/>
<stop offset="0.49" stop-color="#BCBEC0"/>
<stop offset="0.58" stop-color="#B7B9BC"/>
<stop offset="0.67" stop-color="#A9ACB1"/>
<stop offset="0.76" stop-color="#93959E"/>
<stop offset="0.86" stop-color="#747785"/>
<stop offset="0.87" stop-color="#707382"/>
<stop offset="1" stop-color="#67696F"/>
</linearGradient>
<linearGradient id="paint16_linear_6561_4849" x1="83.0745" y1="12.9862" x2="84.842" y2="12.9862" gradientUnits="userSpaceOnUse">
<stop stop-color="#BCBEC0"/>
<stop offset="0.19" stop-color="#B7B9BC"/>
<stop offset="0.4" stop-color="#A9ACB1"/>
<stop offset="0.62" stop-color="#93959E"/>
<stop offset="0.85" stop-color="#747785"/>
<stop offset="0.87" stop-color="#707382"/>
<stop offset="1" stop-color="#67696F"/>
</linearGradient>
<radialGradient id="paint17_radial_6561_4849" cx="0" cy="0" r="1" gradientUnits="userSpaceOnUse" gradientTransform="translate(87.2336 9.72905) scale(3.13495 3.17343)">
<stop stop-color="#BCBEC0"/>
<stop offset="0.19" stop-color="#B7B9BC"/>
<stop offset="0.4" stop-color="#A9ACB1"/>
<stop offset="0.62" stop-color="#93959E"/>
<stop offset="0.85" stop-color="#747785"/>
<stop offset="0.87" stop-color="#707382"/>
<stop offset="1" stop-color="#67696F"/>
</radialGradient>
<linearGradient id="paint18_linear_6561_4849" x1="88.4404" y1="8.98066" x2="88.4404" y2="10.4094" gradientUnits="userSpaceOnUse">
<stop offset="0.27" stop-color="#737584"/>
<stop offset="0.49" stop-color="#61626C"/>
<stop offset="0.82" stop-color="#49494D"/>
<stop offset="1" stop-color="#414042"/>
</linearGradient>
<linearGradient id="paint19_linear_6561_4849" x1="87.7205" y1="9.86142" x2="89.1319" y2="9.86142" gradientUnits="userSpaceOnUse">
<stop offset="0.27" stop-color="#737584"/>
<stop offset="0.49" stop-color="#61626C"/>
<stop offset="0.82" stop-color="#49494D"/>
<stop offset="1" stop-color="#414042"/>
</linearGradient>
<linearGradient id="paint20_linear_6561_4849" x1="84.842" y1="11.4133" x2="86.6329" y2="11.4133" gradientUnits="userSpaceOnUse">
<stop stop-color="#BCBEC0"/>
<stop offset="0.19" stop-color="#B7B9BC"/>
<stop offset="0.4" stop-color="#A9ACB1"/>
<stop offset="0.62" stop-color="#93959E"/>
<stop offset="0.85" stop-color="#747785"/>
<stop offset="0.87" stop-color="#707382"/>
<stop offset="1" stop-color="#67696F"/>
</linearGradient>
<linearGradient id="paint21_linear_6561_4849" x1="81.5179" y1="10.337" x2="81.5179" y2="13.1946" gradientUnits="userSpaceOnUse">
<stop stop-color="#67696F"/>
<stop offset="0.14" stop-color="#898B8F"/>
<stop offset="0.28" stop-color="#A4A6AA"/>
<stop offset="0.4" stop-color="#B5B7BA"/>
<stop offset="0.49" stop-color="#BCBEC0"/>
<stop offset="0.58" stop-color="#B7B9BC"/>
<stop offset="0.67" stop-color="#A9ACB1"/>
<stop offset="0.76" stop-color="#93959E"/>
<stop offset="0.86" stop-color="#747785"/>
<stop offset="0.87" stop-color="#707382"/>
<stop offset="1" stop-color="#67696F"/>
</linearGradient>
<radialGradient id="paint22_radial_6561_4849" cx="0" cy="0" r="1" gradientUnits="userSpaceOnUse" gradientTransform="translate(82.4891 11.7738) scale(0.831324 1.68306)">
<stop stop-color="#BCBEC0"/>
<stop offset="0.19" stop-color="#B1B3B7"/>
<stop offset="0.52" stop-color="#9497A0"/>
<stop offset="0.87" stop-color="#707382"/>
<stop offset="1" stop-color="#67696F"/>
</radialGradient>
<linearGradient id="paint23_linear_6561_4849" x1="82.4891" y1="10.6544" x2="83.468" y2="10.6544" gradientUnits="userSpaceOnUse">
<stop stop-color="#BCBEC0"/>
<stop offset="0.19" stop-color="#B7B9BC"/>
<stop offset="0.4" stop-color="#A9ACB1"/>
<stop offset="0.62" stop-color="#93959E"/>
<stop offset="0.85" stop-color="#747785"/>
<stop offset="0.87" stop-color="#707382"/>
<stop offset="1" stop-color="#67696F"/>
</linearGradient>
<linearGradient id="paint24_linear_6561_4849" x1="86.3427" y1="6.22398" x2="86.3427" y2="7.93457" gradientUnits="userSpaceOnUse">
<stop offset="0.27" stop-color="#737584"/>
<stop offset="0.49" stop-color="#61626C"/>
<stop offset="0.82" stop-color="#49494D"/>
<stop offset="1" stop-color="#414042"/>
</linearGradient>
<linearGradient id="paint25_linear_6561_4849" x1="82.8154" y1="7.63044" x2="83.4758" y2="7.63044" gradientUnits="userSpaceOnUse">
<stop stop-color="#BCBEC0"/>
<stop offset="0.19" stop-color="#B7B9BC"/>
<stop offset="0.4" stop-color="#A9ACB1"/>
<stop offset="0.62" stop-color="#93959E"/>
<stop offset="0.85" stop-color="#747785"/>
<stop offset="0.87" stop-color="#707382"/>
<stop offset="1" stop-color="#67696F"/>
</linearGradient>
<linearGradient id="paint26_linear_6561_4849" x1="53.2268" y1="7.69457" x2="55.6962" y2="7.69457" gradientUnits="userSpaceOnUse">
<stop stop-color="white"/>
<stop offset="1" stop-color="#0D0D0D"/>
</linearGradient>
<linearGradient id="paint27_linear_6561_4849" x1="54.2266" y1="7.68163" x2="55.2004" y2="7.68163" gradientUnits="userSpaceOnUse">
<stop/>
<stop offset="0.11" stop-color="#070707"/>
<stop offset="0.27" stop-color="#1C1C1C"/>
<stop offset="0.43" stop-color="#363636"/>
<stop offset="0.45" stop-color="#3D3D3D"/>
<stop offset="0.49" stop-color="#505050"/>
<stop offset="0.54" stop-color="#717171"/>
<stop offset="0.59" stop-color="#9E9E9E"/>
<stop offset="0.61" stop-color="#B5B5B5"/>
<stop offset="0.65" stop-color="#ADADAD"/>
<stop offset="0.72" stop-color="#9A9A9A"/>
<stop offset="0.79" stop-color="#797979"/>
<stop offset="0.88" stop-color="#4C4C4C"/>
<stop offset="0.97" stop-color="#131313"/>
<stop offset="1"/>
</linearGradient>
<linearGradient id="paint28_linear_6561_4849" x1="54.5103" y1="7.68162" x2="54.9169" y2="7.68162" gradientUnits="userSpaceOnUse">
<stop offset="0.06" stop-color="#4D4D4D"/>
<stop offset="0.57" stop-color="white"/>
<stop offset="0.62" stop-color="#F2F2F2"/>
<stop offset="0.71" stop-color="#D0D0D1"/>
<stop offset="0.83" stop-color="#9A999B"/>
<stop offset="0.97" stop-color="#504F51"/>
<stop offset="1" stop-color="#414042"/>
</linearGradient>
<linearGradient id="paint29_linear_6561_4849" x1="79.6324" y1="27.0001" x2="80.6062" y2="27.0001" gradientUnits="userSpaceOnUse">
<stop/>
<stop offset="0.11" stop-color="#070707"/>
<stop offset="0.27" stop-color="#1C1C1C"/>
<stop offset="0.43" stop-color="#363636"/>
<stop offset="0.45" stop-color="#3D3D3D"/>
<stop offset="0.49" stop-color="#505050"/>
<stop offset="0.54" stop-color="#717171"/>
<stop offset="0.59" stop-color="#9E9E9E"/>
<stop offset="0.61" stop-color="#B5B5B5"/>
<stop offset="0.65" stop-color="#ADADAD"/>
<stop offset="0.72" stop-color="#9A9A9A"/>
<stop offset="0.79" stop-color="#797979"/>
<stop offset="0.88" stop-color="#4C4C4C"/>
<stop offset="0.97" stop-color="#131313"/>
<stop offset="1"/>
</linearGradient>
<linearGradient id="paint30_linear_6561_4849" x1="79.916" y1="27.0001" x2="80.3226" y2="27.0001" gradientUnits="userSpaceOnUse">
<stop offset="0.06" stop-color="#4D4D4D"/>
<stop offset="0.57" stop-color="white"/>
<stop offset="0.62" stop-color="#F2F2F2"/>
<stop offset="0.71" stop-color="#D0D0D1"/>
<stop offset="0.83" stop-color="#9A999B"/>
<stop offset="0.97" stop-color="#504F51"/>
<stop offset="1" stop-color="#414042"/>
</linearGradient>
<linearGradient id="paint31_linear_6561_4849" x1="43.6202" y1="4.36245" x2="43.953" y2="6.23157" gradientUnits="userSpaceOnUse">
<stop/>
<stop offset="0.11" stop-color="#070707"/>
<stop offset="0.27" stop-color="#1C1C1C"/>
<stop offset="0.43" stop-color="#363636"/>
<stop offset="0.45" stop-color="#3D3D3D"/>
<stop offset="0.49" stop-color="#505050"/>
<stop offset="0.54" stop-color="#717171"/>
<stop offset="0.59" stop-color="#9E9E9E"/>
<stop offset="0.61" stop-color="#B5B5B5"/>
<stop offset="0.65" stop-color="#ADADAD"/>
<stop offset="0.72" stop-color="#9A9A9A"/>
<stop offset="0.79" stop-color="#797979"/>
<stop offset="0.88" stop-color="#4C4C4C"/>
<stop offset="0.97" stop-color="#131313"/>
<stop offset="1"/>
</linearGradient>
<linearGradient id="paint32_linear_6561_4849" x1="51.0347" y1="11.6793" x2="51.9722" y2="11.6793" gradientUnits="userSpaceOnUse">
<stop stop-color="#D1D3D4"/>
<stop offset="0.26" stop-color="#CED0D1"/>
<stop offset="0.37" stop-color="#C7C9CA"/>
<stop offset="0.46" stop-color="#BBBCBD"/>
<stop offset="0.54" stop-color="#AAAAAB"/>
<stop offset="0.6" stop-color="#939394"/>
<stop offset="0.66" stop-color="#777677"/>
<stop offset="0.71" stop-color="#565354"/>
<stop offset="0.76" stop-color="#302D2E"/>
<stop offset="0.78" stop-color="#231F20"/>
</linearGradient>
<linearGradient id="paint33_linear_6561_4849" x1="41.5909" y1="20.2495" x2="43.0127" y2="20.2495" gradientUnits="userSpaceOnUse">
<stop stop-color="#58595B"/>
<stop offset="0.27" stop-color="#231F20"/>
<stop offset="0.55" stop-color="#383638"/>
<stop offset="1" stop-color="#58595B"/>
</linearGradient>
<linearGradient id="paint34_linear_6561_4849" x1="93.2847" y1="16.6933" x2="96.1529" y2="16.6933" gradientUnits="userSpaceOnUse">
<stop offset="0.27" stop-color="#737584"/>
<stop offset="0.49" stop-color="#61626C"/>
<stop offset="0.82" stop-color="#49494D"/>
<stop offset="1" stop-color="#414042"/>
</linearGradient>
<linearGradient id="paint35_linear_6561_4849" x1="26.1077" y1="13.4555" x2="31.0283" y2="13.4555" gradientUnits="userSpaceOnUse">
<stop stop-color="white"/>
<stop offset="1" stop-color="#4D4D4D"/>
</linearGradient>
<linearGradient id="paint36_linear_6561_4849" x1="13.1587" y1="17.6356" x2="27.163" y2="17.6356" gradientUnits="userSpaceOnUse">
<stop stop-color="white"/>
<stop offset="1" stop-color="#4D4D4D"/>
</linearGradient>
<radialGradient id="paint37_radial_6561_4849" cx="0" cy="0" r="1" gradientUnits="userSpaceOnUse" gradientTransform="translate(17.3387 17.1873) scale(1.81545 1.83773)">
<stop stop-color="#171717"/>
<stop offset="0.31" stop-color="#191919"/>
<stop offset="0.5" stop-color="#222222"/>
<stop offset="0.65" stop-color="#303030"/>
<stop offset="0.79" stop-color="#444444"/>
<stop offset="0.92" stop-color="#5F5F5F"/>
<stop offset="1" stop-color="#757575"/>
</radialGradient>
<linearGradient id="paint38_linear_6561_4849" x1="16.3235" y1="16.0588" x2="16.3235" y2="18.2937" gradientUnits="userSpaceOnUse">
<stop/>
<stop offset="0.11" stop-color="#070707"/>
<stop offset="0.27" stop-color="#1C1C1C"/>
<stop offset="0.43" stop-color="#363636"/>
<stop offset="0.45" stop-color="#3D3D3D"/>
<stop offset="0.49" stop-color="#505050"/>
<stop offset="0.54" stop-color="#717171"/>
<stop offset="0.59" stop-color="#9E9E9E"/>
<stop offset="0.61" stop-color="#B5B5B5"/>
<stop offset="0.65" stop-color="#ADADAD"/>
<stop offset="0.72" stop-color="#9A9A9A"/>
<stop offset="0.79" stop-color="#797979"/>
<stop offset="0.88" stop-color="#4C4C4C"/>
<stop offset="0.97" stop-color="#131313"/>
<stop offset="1"/>
</linearGradient>
<linearGradient id="paint39_linear_6561_4849" x1="19.4027" y1="20.9204" x2="19.4027" y2="21.9861" gradientUnits="userSpaceOnUse">
<stop stop-color="white"/>
<stop offset="1" stop-color="#0D0D0D"/>
</linearGradient>
<linearGradient id="paint40_linear_6561_4849" x1="13.1587" y1="17.6356" x2="11.6423" y2="17.6356" gradientUnits="userSpaceOnUse">
<stop stop-color="white"/>
<stop offset="1" stop-color="#4D4D4D"/>
</linearGradient>
<linearGradient id="paint41_linear_6561_4849" x1="21.8994" y1="13.8186" x2="21.8994" y2="11.239" gradientUnits="userSpaceOnUse">
<stop stop-color="white"/>
<stop offset="1" stop-color="#0D0D0D"/>
</linearGradient>
<linearGradient id="paint42_linear_6561_4849" x1="19.4027" y1="14.3508" x2="19.4027" y2="13.2865" gradientUnits="userSpaceOnUse">
<stop stop-color="white"/>
<stop offset="1" stop-color="#0D0D0D"/>
</linearGradient>
<linearGradient id="paint43_linear_6561_4849" x1="0.018893" y1="13.2709" x2="1.30991" y2="13.274" gradientUnits="userSpaceOnUse">
<stop stop-color="#414042"/>
<stop offset="0.31" stop-color="#3A393A"/>
<stop offset="0.43" stop-color="#363636"/>
<stop offset="0.57" stop-color="#2E2E2E"/>
<stop offset="0.78" stop-color="#1B1B1B"/>
<stop offset="1"/>
</linearGradient>
<linearGradient id="paint44_linear_6561_4849" x1="45.71" y1="4.24205" x2="45.9474" y2="5.72366" gradientUnits="userSpaceOnUse">
<stop/>
<stop offset="0.11" stop-color="#070707"/>
<stop offset="0.27" stop-color="#1C1C1C"/>
<stop offset="0.43" stop-color="#363636"/>
<stop offset="0.45" stop-color="#3D3D3D"/>
<stop offset="0.49" stop-color="#505050"/>
<stop offset="0.54" stop-color="#717171"/>
<stop offset="0.59" stop-color="#9E9E9E"/>
<stop offset="0.61" stop-color="#B5B5B5"/>
<stop offset="0.65" stop-color="#ADADAD"/>
<stop offset="0.72" stop-color="#9A9A9A"/>
<stop offset="0.79" stop-color="#797979"/>
<stop offset="0.88" stop-color="#4C4C4C"/>
<stop offset="0.97" stop-color="#131313"/>
<stop offset="1"/>
</linearGradient>
<radialGradient id="paint45_radial_6561_4849" cx="0" cy="0" r="1" gradientUnits="userSpaceOnUse" gradientTransform="translate(44.9201 10.8221) scale(2.46937 2.49968)">
<stop stop-color="#757575"/>
<stop offset="0.19" stop-color="#696969"/>
<stop offset="0.53" stop-color="#4B4B4B"/>
<stop offset="0.97" stop-color="#1B1B1B"/>
<stop offset="1" stop-color="#171717"/>
</radialGradient>
<linearGradient id="paint46_linear_6561_4849" x1="46.8262" y1="11.2271" x2="51.0346" y2="11.2271" gradientUnits="userSpaceOnUse">
<stop stop-color="#D1D3D4"/>
<stop offset="0.85" stop-color="white"/>
<stop offset="0.86" stop-color="#C3C3C3"/>
<stop offset="0.87" stop-color="#888888"/>
<stop offset="0.88" stop-color="#727272"/>
<stop offset="0.89" stop-color="#616161"/>
<stop offset="0.9" stop-color="#555555"/>
<stop offset="0.92" stop-color="#4E4E4E"/>
<stop offset="0.96" stop-color="#4D4D4D"/>
<stop offset="1" stop-color="#414042"/>
</linearGradient>
<linearGradient id="paint47_linear_6561_4849" x1="43.0126" y1="2.10132" x2="63.7258" y2="2.10132" gradientUnits="userSpaceOnUse">
<stop stop-color="#D1D3D4"/>
<stop offset="0.85" stop-color="white"/>
<stop offset="0.86" stop-color="#C3C3C3"/>
<stop offset="0.87" stop-color="#888888"/>
<stop offset="0.88" stop-color="#727272"/>
<stop offset="0.89" stop-color="#616161"/>
<stop offset="0.9" stop-color="#555555"/>
<stop offset="0.92" stop-color="#4E4E4E"/>
<stop offset="0.96" stop-color="#4D4D4D"/>
<stop offset="1" stop-color="#414042"/>
</linearGradient>
<linearGradient id="paint48_linear_6561_4849" x1="56.0408" y1="7.69454" x2="60.2751" y2="7.69454" gradientUnits="userSpaceOnUse">
<stop stop-color="#0D0D0D"/>
<stop offset="1" stop-color="white"/>
</linearGradient>
<linearGradient id="paint49_linear_6561_4849" x1="54.7651" y1="7.69454" x2="55.7065" y2="7.69454" gradientUnits="userSpaceOnUse">
<stop stop-color="white"/>
<stop offset="1" stop-color="#0D0D0D"/>
</linearGradient>
<linearGradient id="paint50_linear_6561_4849" x1="60.1636" y1="8.20191" x2="60.1636" y2="9.05786" gradientUnits="userSpaceOnUse">
<stop stop-color="#0D0D0D"/>
<stop offset="0.07" stop-color="#101010"/>
<stop offset="0.12" stop-color="#1B1B1B"/>
<stop offset="0.18" stop-color="#2E2E2E"/>
<stop offset="0.24" stop-color="#484848"/>
<stop offset="0.29" stop-color="#6A6A6A"/>
<stop offset="0.35" stop-color="#949494"/>
<stop offset="0.4" stop-color="#C5C5C5"/>
<stop offset="0.46" stop-color="white"/>
<stop offset="1" stop-color="#231F20"/>
</linearGradient>
<linearGradient id="paint51_linear_6561_4849" x1="0.000237036" y1="6.40089" x2="0.132851" y2="7.25635" gradientUnits="userSpaceOnUse">
<stop stop-color="#0D0D0D"/>
<stop offset="0.07" stop-color="#101010"/>
<stop offset="0.12" stop-color="#1B1B1B"/>
<stop offset="0.18" stop-color="#2E2E2E"/>
<stop offset="0.24" stop-color="#484848"/>
<stop offset="0.29" stop-color="#6A6A6A"/>
<stop offset="0.35" stop-color="#949494"/>
<stop offset="0.4" stop-color="#C5C5C5"/>
<stop offset="0.46" stop-color="white"/>
<stop offset="1" stop-color="#231F20"/>
</linearGradient>
<linearGradient id="paint52_linear_6561_4849" x1="60.4963" y1="7.76794" x2="60.4963" y2="9.48901" gradientUnits="userSpaceOnUse">
<stop stop-color="#0D0D0D"/>
<stop offset="0.07" stop-color="#101010"/>
<stop offset="0.12" stop-color="#1B1B1B"/>
<stop offset="0.18" stop-color="#2E2E2E"/>
<stop offset="0.24" stop-color="#484848"/>
<stop offset="0.29" stop-color="#6A6A6A"/>
<stop offset="0.35" stop-color="#949494"/>
<stop offset="0.4" stop-color="#C5C5C5"/>
<stop offset="0.46" stop-color="white"/>
<stop offset="1" stop-color="#231F20"/>
</linearGradient>
<linearGradient id="paint53_linear_6561_4849" x1="60.4963" y1="5.96838" x2="60.4963" y2="7.68945" gradientUnits="userSpaceOnUse">
<stop stop-color="#0D0D0D"/>
<stop offset="0.07" stop-color="#101010"/>
<stop offset="0.12" stop-color="#1B1B1B"/>
<stop offset="0.18" stop-color="#2E2E2E"/>
<stop offset="0.24" stop-color="#484848"/>
<stop offset="0.29" stop-color="#6A6A6A"/>
<stop offset="0.35" stop-color="#949494"/>
<stop offset="0.4" stop-color="#C5C5C5"/>
<stop offset="0.46" stop-color="white"/>
<stop offset="1" stop-color="#231F20"/>
</linearGradient>
<linearGradient id="paint54_linear_6561_4849" x1="66.8323" y1="7.86115" x2="66.8323" y2="9.39478" gradientUnits="userSpaceOnUse">
<stop stop-color="#0D0D0D"/>
<stop offset="0.07" stop-color="#101010"/>
<stop offset="0.12" stop-color="#1B1B1B"/>
<stop offset="0.18" stop-color="#2E2E2E"/>
<stop offset="0.24" stop-color="#484848"/>
<stop offset="0.29" stop-color="#6A6A6A"/>
<stop offset="0.35" stop-color="#949494"/>
<stop offset="0.4" stop-color="#C5C5C5"/>
<stop offset="0.46" stop-color="white"/>
<stop offset="1" stop-color="#231F20"/>
</linearGradient>
<linearGradient id="paint55_linear_6561_4849" x1="66.8323" y1="6.06265" x2="66.8323" y2="7.59497" gradientUnits="userSpaceOnUse">
<stop stop-color="#0D0D0D"/>
<stop offset="0.07" stop-color="#101010"/>
<stop offset="0.12" stop-color="#1B1B1B"/>
<stop offset="0.18" stop-color="#2E2E2E"/>
<stop offset="0.24" stop-color="#484848"/>
<stop offset="0.29" stop-color="#6A6A6A"/>
<stop offset="0.35" stop-color="#949494"/>
<stop offset="0.4" stop-color="#C5C5C5"/>
<stop offset="0.46" stop-color="white"/>
<stop offset="1" stop-color="#231F20"/>
</linearGradient>
<linearGradient id="paint56_linear_6561_4849" x1="57.8877" y1="12.4083" x2="57.4586" y2="13.9297" gradientUnits="userSpaceOnUse">
<stop stop-color="#363636"/>
<stop offset="0.01" stop-color="#2E2E2E"/>
<stop offset="0.03" stop-color="#1B1B1B"/>
<stop offset="0.05"/>
<stop offset="0.08" stop-color="#080708"/>
<stop offset="0.18" stop-color="#202021"/>
<stop offset="0.29" stop-color="#323233"/>
<stop offset="0.4" stop-color="#3D3C3E"/>
<stop offset="0.53" stop-color="#414042"/>
<stop offset="0.62" stop-color="#39383A"/>
<stop offset="0.76" stop-color="#252425"/>
<stop offset="0.92" stop-color="#030303"/>
<stop offset="0.94"/>
<stop offset="0.95" stop-color="#151515"/>
<stop offset="0.97" stop-color="#272727"/>
<stop offset="0.98" stop-color="#323232"/>
<stop offset="1" stop-color="#363636"/>
</linearGradient>
<linearGradient id="paint57_linear_6561_4849" x1="57.2122" y1="13.925" x2="57.0797" y2="14.3946" gradientUnits="userSpaceOnUse">
<stop stop-color="#363636"/>
<stop offset="0.01" stop-color="#2E2E2E"/>
<stop offset="0.03" stop-color="#1B1B1B"/>
<stop offset="0.05"/>
<stop offset="0.08" stop-color="#080708"/>
<stop offset="0.18" stop-color="#202021"/>
<stop offset="0.29" stop-color="#323233"/>
<stop offset="0.4" stop-color="#3D3C3E"/>
<stop offset="0.53" stop-color="#414042"/>
<stop offset="0.62" stop-color="#39383A"/>
<stop offset="0.76" stop-color="#252425"/>
<stop offset="0.92" stop-color="#030303"/>
<stop offset="0.94"/>
<stop offset="0.95" stop-color="#151515"/>
<stop offset="0.97" stop-color="#272727"/>
<stop offset="0.98" stop-color="#323232"/>
<stop offset="1" stop-color="#363636"/>
</linearGradient>
<linearGradient id="paint58_linear_6561_4849" x1="57.8585" y1="12.5748" x2="57.5186" y2="13.7798" gradientUnits="userSpaceOnUse">
<stop stop-color="#631417"/>
<stop offset="0.02" stop-color="#83181F"/>
<stop offset="0.04" stop-color="#9D1A25"/>
<stop offset="0.05" stop-color="#AF1C29"/>
<stop offset="0.07" stop-color="#BA1D2C"/>
<stop offset="0.09" stop-color="#BE1E2D"/>
<stop offset="0.2" stop-color="#C51D2B"/>
<stop offset="0.37" stop-color="#D81C27"/>
<stop offset="0.51" stop-color="#ED1C24"/>
<stop offset="0.62" stop-color="#E51C25"/>
<stop offset="0.79" stop-color="#D01D29"/>
<stop offset="0.9" stop-color="#BE1E2D"/>
<stop offset="0.92" stop-color="#B61D2B"/>
<stop offset="0.94" stop-color="#A31B26"/>
<stop offset="0.96" stop-color="#82171E"/>
<stop offset="0.99" stop-color="#551314"/>
<stop offset="1" stop-color="#491211"/>
</linearGradient>
<radialGradient id="paint59_radial_6561_4849" cx="0" cy="0" r="1" gradientTransform="matrix(0.349267 0.0985145 0.0973201 -0.353554 56.6615 12.8903)" gradientUnits="userSpaceOnUse">
<stop offset="0.69" stop-color="#491211"/>
<stop offset="0.72" stop-color="#5A1314"/>
<stop offset="0.81" stop-color="#87181E"/>
<stop offset="0.89" stop-color="#A81B26"/>
<stop offset="0.95" stop-color="#BB1D2A"/>
<stop offset="1" stop-color="#C31E2C"/>
</radialGradient>
<linearGradient id="paint60_linear_6561_4849" x1="51.9722" y1="20.2653" x2="62.624" y2="20.2653" gradientUnits="userSpaceOnUse">
<stop stop-color="#6E6E6E"/>
<stop offset="0.1" stop-color="#575757"/>
<stop offset="0.38" stop-color="#181818"/>
<stop offset="0.52"/>
<stop offset="0.67" stop-color="#1F1E1F"/>
<stop offset="0.81" stop-color="#414042"/>
<stop offset="0.85" stop-color="#39383A"/>
<stop offset="0.91" stop-color="#252425"/>
<stop offset="0.99" stop-color="#030303"/>
<stop offset="1"/>
</linearGradient>
<linearGradient id="paint61_linear_6561_4849" x1="41.1611" y1="20.2494" x2="51.9723" y2="20.2494" gradientUnits="userSpaceOnUse">
<stop offset="0.22" stop-color="#231F20"/>
<stop offset="0.24" stop-color="#302D2E"/>
<stop offset="0.29" stop-color="#565354"/>
<stop offset="0.34" stop-color="#777677"/>
<stop offset="0.4" stop-color="#939394"/>
<stop offset="0.46" stop-color="#AAAAAB"/>
<stop offset="0.54" stop-color="#BBBCBD"/>
<stop offset="0.63" stop-color="#C7C9CA"/>
<stop offset="0.74" stop-color="#CED0D1"/>
<stop offset="1" stop-color="#D1D3D4"/>
</linearGradient>
<linearGradient id="paint62_linear_6561_4849" x1="47.019" y1="20.2494" x2="62.6239" y2="20.2494" gradientUnits="userSpaceOnUse">
<stop stop-color="#D1D3D4"/>
<stop offset="0.26" stop-color="#CED0D1"/>
<stop offset="0.37" stop-color="#C7C9CA"/>
<stop offset="0.46" stop-color="#BBBCBD"/>
<stop offset="0.54" stop-color="#AAAAAB"/>
<stop offset="0.6" stop-color="#939394"/>
<stop offset="0.66" stop-color="#777677"/>
<stop offset="0.71" stop-color="#565354"/>
<stop offset="0.76" stop-color="#302D2E"/>
<stop offset="0.78" stop-color="#231F20"/>
</linearGradient>
<linearGradient id="paint63_linear_6561_4849" x1="57.5221" y1="14.2209" x2="57.5221" y2="26.313" gradientUnits="userSpaceOnUse">
<stop stop-color="#1C1C1C"/>
<stop offset="0.13" stop-color="#6D6E71"/>
<stop offset="0.21" stop-color="#231F20"/>
<stop offset="0.28" stop-color="#1C1C1C"/>
<stop offset="0.35" stop-color="#231F20"/>
<stop offset="0.43" stop-color="#1C1C1C"/>
<stop offset="0.5" stop-color="#231F20"/>
<stop offset="0.59" stop-color="#1C1C1C"/>
<stop offset="0.67" stop-color="#231F20"/>
<stop offset="0.73" stop-color="#1C1C1C"/>
<stop offset="0.8" stop-color="#231F20"/>
<stop offset="0.86" stop-color="#1C1C1C"/>
<stop offset="0.93" stop-color="#231F20"/>
<stop offset="1" stop-color="#1C1C1C"/>
</linearGradient>
<linearGradient id="paint64_linear_6561_4849" x1="52.2803" y1="21.074" x2="62.6239" y2="21.074" gradientUnits="userSpaceOnUse">
<stop/>
<stop offset="0.06" stop-color="#1F1F1F"/>
<stop offset="0.1" stop-color="#363636"/>
<stop offset="0.23" stop-color="#828282"/>
<stop offset="0.53" stop-color="#7F7F7F"/>
<stop offset="0.68" stop-color="#787778"/>
<stop offset="0.8" stop-color="#6A6A6B"/>
<stop offset="0.91" stop-color="#585758"/>
<stop offset="1" stop-color="#414042"/>
</linearGradient>
<linearGradient id="paint65_linear_6561_4849" x1="72.9482" y1="7.74452" x2="79.6429" y2="7.74452" gradientUnits="userSpaceOnUse">
<stop stop-color="white"/>
<stop offset="1" stop-color="#0D0D0D"/>
</linearGradient>
<linearGradient id="paint66_linear_6561_4849" x1="80.6062" y1="7.74452" x2="82.489" y2="7.74452" gradientUnits="userSpaceOnUse">
<stop stop-color="#0D0D0D"/>
<stop offset="1" stop-color="white"/>
</linearGradient>
<linearGradient id="paint67_linear_6561_4849" x1="79.6428" y1="7.74452" x2="80.6062" y2="7.74452" gradientUnits="userSpaceOnUse">
<stop stop-color="#0D0D0D"/>
<stop offset="0.11" stop-color="#525252"/>
<stop offset="0.21" stop-color="#8F8F8F"/>
<stop offset="0.31" stop-color="#BFBFBF"/>
<stop offset="0.4" stop-color="#E2E2E2"/>
<stop offset="0.46" stop-color="#F7F7F7"/>
<stop offset="0.51" stop-color="white"/>
<stop offset="0.55" stop-color="#F7F7F7"/>
<stop offset="0.62" stop-color="#E2E2E2"/>
<stop offset="0.7" stop-color="#BFBFBF"/>
<stop offset="0.79" stop-color="#909090"/>
<stop offset="0.9" stop-color="#525252"/>
<stop offset="1" stop-color="#0D0D0D"/>
</linearGradient>
<linearGradient id="paint68_linear_6561_4849" x1="77.8469" y1="8.31336" x2="77.8469" y2="8.94254" gradientUnits="userSpaceOnUse">
<stop stop-color="#0D0D0D"/>
<stop offset="0.04" stop-color="#262626"/>
<stop offset="0.15" stop-color="#676767"/>
<stop offset="0.26" stop-color="#9D9D9D"/>
<stop offset="0.36" stop-color="#C7C7C7"/>
<stop offset="0.45" stop-color="#E5E5E5"/>
<stop offset="0.52" stop-color="#F8F8F8"/>
<stop offset="0.58" stop-color="white"/>
<stop offset="0.6" stop-color="#F7F7F7"/>
<stop offset="0.62" stop-color="#E2E2E2"/>
<stop offset="0.66" stop-color="#C0C0C0"/>
<stop offset="0.7" stop-color="#909090"/>
<stop offset="0.74" stop-color="#535353"/>
<stop offset="0.79" stop-color="#0D0D0D"/>
<stop offset="0.84" stop-color="#0D0D0D"/>
<stop offset="0.91" stop-color="#A8A8A8"/>
<stop offset="1" stop-color="#0D0D0D"/>
</linearGradient>
<linearGradient id="paint69_linear_6561_4849" x1="-1.54974e-05" y1="6.51486" x2="0.132536" y2="7.14209" gradientUnits="userSpaceOnUse">
<stop stop-color="#0D0D0D"/>
<stop offset="0.04" stop-color="#262626"/>
<stop offset="0.15" stop-color="#676767"/>
<stop offset="0.26" stop-color="#9D9D9D"/>
<stop offset="0.36" stop-color="#C7C7C7"/>
<stop offset="0.45" stop-color="#E5E5E5"/>
<stop offset="0.52" stop-color="#F8F8F8"/>
<stop offset="0.58" stop-color="white"/>
<stop offset="0.6" stop-color="#F7F7F7"/>
<stop offset="0.62" stop-color="#E2E2E2"/>
<stop offset="0.66" stop-color="#C0C0C0"/>
<stop offset="0.7" stop-color="#909090"/>
<stop offset="0.74" stop-color="#535353"/>
<stop offset="0.79" stop-color="#0D0D0D"/>
<stop offset="0.84" stop-color="#0D0D0D"/>
<stop offset="0.91" stop-color="#A8A8A8"/>
<stop offset="1" stop-color="#0D0D0D"/>
</linearGradient>
<linearGradient id="paint70_linear_6561_4849" x1="75.9614" y1="7.68153" x2="80.3226" y2="7.68153" gradientUnits="userSpaceOnUse">
<stop stop-color="white"/>
<stop offset="1" stop-color="#6D6E71"/>
</linearGradient>
<linearGradient id="paint71_linear_6561_4849" x1="66.249" y1="27" x2="60.7095" y2="27" gradientUnits="userSpaceOnUse">
<stop stop-color="white"/>
<stop offset="1" stop-color="#6D6E71"/>
</linearGradient>
<radialGradient id="paint72_radial_6561_4849" cx="0" cy="0" r="1" gradientUnits="userSpaceOnUse" gradientTransform="translate(96.1529 13.4582) scale(3.23984 3.27961)">
<stop stop-color="#BCBEC0"/>
<stop offset="0.51" stop-color="#B1B3B5"/>
<stop offset="0.87" stop-color="#A7A9AC"/>
<stop offset="1" stop-color="#67696F"/>
</radialGradient>
<radialGradient id="paint73_radial_6561_4849" cx="0" cy="0" r="1" gradientUnits="userSpaceOnUse" gradientTransform="translate(94.6184 26.9345) scale(0.0647449 0.0655397)">
<stop offset="0.27" stop-color="#737584"/>
<stop offset="0.49" stop-color="#61626C"/>
<stop offset="0.82" stop-color="#49494D"/>
<stop offset="1" stop-color="#414042"/>
</radialGradient>
<linearGradient id="paint74_linear_6561_4849" x1="94.7192" y1="18.1903" x2="97.006" y2="18.1903" gradientUnits="userSpaceOnUse">
<stop offset="0.27" stop-color="#737584"/>
<stop offset="0.49" stop-color="#61626C"/>
<stop offset="0.82" stop-color="#49494D"/>
<stop offset="1" stop-color="#414042"/>
</linearGradient>
<radialGradient id="paint75_radial_6561_4849" cx="0" cy="0" r="1" gradientUnits="userSpaceOnUse" gradientTransform="translate(96.1529 13.4582) scale(0.354801 0.359158)">
<stop stop-color="#BCBEC0"/>
<stop offset="0.51" stop-color="#B1B3B5"/>
<stop offset="0.87" stop-color="#A7A9AC"/>
<stop offset="1" stop-color="#67696F"/>
</radialGradient>
<radialGradient id="paint76_radial_6561_4849" cx="0" cy="0" r="1" gradientUnits="userSpaceOnUse" gradientTransform="translate(88.3952 12.2902) scale(1.81027 1.83249)">
<stop stop-color="#757575"/>
<stop offset="0.19" stop-color="#696969"/>
<stop offset="0.53" stop-color="#4B4B4B"/>
<stop offset="0.97" stop-color="#1B1B1B"/>
<stop offset="1" stop-color="#171717"/>
</radialGradient>
<clipPath id="clip0_6561_4849">
<rect width="100" height="27" fill="white" transform="matrix(1 0 0 -1 0 27)"/>
</clipPath>
</defs>
</svg>
