<svg width="100" height="56" viewBox="0 0 100 56" fill="none" xmlns="http://www.w3.org/2000/svg">
<g clip-path="url(#clip0_6561_5008)">
<path d="M2.79605 47.5301L1.53589 33.0437V22.9507L2.79605 8.46427L4.15467 5.9905H65.0167V50.0039H4.15467L2.79605 47.5301Z" fill="white"/>
<path d="M5.19809 45.3926L4.03638 32.4894V23.5047L5.19809 10.6015L6.43857 8.40475H62.4962V47.5894H6.45826L5.19809 45.3926Z" fill="#92D400"/>
<path d="M99.553 39.4554H100V39.8116H99.5333V42.8197H99.8878V42.9978H99.3364V43.0968H99.6121V43.2749H96.698C96.6783 43.3541 96.5995 43.4134 96.5405 43.4332V43.5322H97.8991V45.6299H96.5405V45.808H95.6347V45.907H93.1341V52.6357H86.9908V52.9127H84.9233V54.6345H84.4704V55.3667L84.1948 55.3073V55.5448H83.7616L83.9388 56H82.7574L82.8755 55.5448H82.4817V54.6345H81.7532V55.0501C81.7532 55.1292 81.6941 55.1886 81.6154 55.1886H81.5366L81.3791 55.1094L80.6112 55.2084L80.1977 56L80.0402 55.9208L80.7096 54.6345H65.7649V54.2783L64.3275 53.3679V53.269C63.3824 53.2096 62.5554 52.8336 62.0041 52.2794H42.6093L42.314 52.9127L41.8217 54.1001H41.7627L41.743 54.1793H21.1471L21.0881 54.0012H20.3399V53.269H18.5087C17.4651 53.269 16.5397 52.8731 15.949 52.2794H3.24886L2.73692 50.8743L1.26017 47.3715L0 33.0829V22.8712L1.26017 8.60247L2.73692 5.0996L3.24886 3.6945H15.9293C16.52 3.081 17.4454 2.70499 18.489 2.70499H20.3202V1.97275H21.0684L21.1275 1.79464H41.7233L41.7627 1.89359H41.8217L42.314 3.081L42.6093 3.71428H58.3811C58.2629 3.17995 58.066 2.78414 57.9873 2.62582C57.9085 2.42792 57.8494 1.99253 58.3417 1.63631C58.834 1.2603 59.2081 1.31967 59.4247 1.4582C59.6412 1.59673 59.9366 2.05191 60.1532 3.00184C60.2123 3.29869 60.2516 3.53617 60.2713 3.73407H62.0041C62.0828 3.65491 62.1419 3.59554 62.2206 3.53617C62.1025 3.10079 61.9253 2.78415 61.8859 2.64561C61.8072 2.44771 61.7481 2.01233 62.2403 1.6561C62.7326 1.28009 63.1067 1.33946 63.3233 1.47799C63.5202 1.61652 63.7762 1.99254 63.9928 2.78415C64.0912 2.76436 64.2094 2.76435 64.3275 2.74456V2.64561L65.7649 1.73526V1.37904H82.462V0.468693H82.8559L82.7377 0.0135193H83.9191L83.7419 0.468693H84.1751V0.725967L84.4507 0.666592V1.39883H84.9036V3.12057H86.9711V3.39764H88.6841V3.00184L88.5857 3.04142L87.2271 0.409321L87.3846 0.330162L87.7981 1.12177L88.566 1.22072L88.7235 1.14156H88.8023C88.881 1.14156 88.9401 1.20093 88.9401 1.28009V3.43722H93.1341V10.1659H95.6544V10.1857H96.5601V10.3638H97.9188V12.4616H96.5601V16.8946C96.6192 16.9539 96.6586 17.0133 96.6586 17.0925C96.6586 17.1716 96.6192 17.2508 96.5601 17.2904V37.0212C96.6586 37.0608 96.7374 37.1597 96.7374 37.2785C96.7374 37.3972 96.6586 37.4962 96.5601 37.5357V38.7429C96.6389 38.7627 96.6783 38.8221 96.7177 38.8815C96.7767 38.8419 96.8555 38.8221 96.9146 38.8221C97.013 38.8221 97.0918 38.8617 97.1508 38.9211H99.6318V39.0794H99.3561V39.1783H99.9075V39.3564H99.553V39.4554ZM81.4775 54.6345H81.4579L81.4775 54.6741V54.6345ZM88.7038 1.59673L88.3691 2.13107L88.7038 2.78415V1.59673ZM98.923 43.0968H99.1002V42.9978H98.923V43.0968ZM98.4701 43.0968H98.6473V42.9978H98.4701V43.0968ZM98.0172 43.0968H98.1944V42.9978H98.0172V43.0968ZM97.5643 43.0968H97.7415V42.9978H97.5643V43.0968ZM97.2887 39.9501C97.2296 39.9897 97.1705 40.0095 97.1115 40.0095C97.0524 40.0095 96.9933 39.9897 96.9343 39.9501V40.0095H96.5798V42.9187C96.6586 42.9385 96.7177 42.9978 96.7374 43.077H96.8358V42.978H96.7374V42.7999H97.2887V39.9501ZM97.2887 42.9978H97.1115V43.0968H97.2887V42.9978ZM97.3871 42.8197H98.0172V39.8116H97.4265C97.4068 39.8314 97.4068 39.8512 97.3871 39.871V42.8197ZM97.3871 39.396C97.4068 39.4158 97.4068 39.4356 97.4265 39.4554H98.0172V39.3564H97.3871V39.396ZM97.7415 39.0794H97.5643V39.1783H97.7415V39.0794ZM98.1944 39.0794H98.0172V39.1783H98.1944V39.0794ZM98.6473 39.0794H98.4701V39.1783H98.6473V39.0794ZM98.7261 39.3564H98.096V39.4554H98.7261V39.3564ZM98.7261 39.8116H98.096V42.8197H98.7261V39.8116ZM99.1002 39.0794H98.923V39.1783H99.1002V39.0794ZM99.4546 39.3564H98.8245V39.4554H99.4546V39.3564ZM99.4546 39.8116H98.8245V42.8197H99.4546V39.8116Z" fill="black"/>
<path d="M100 38.8754V43.2748H96.5798V43.532H97.9188V45.6298H96.5798V45.8079H93.1341V52.6355H86.9908V52.9126H84.9036V54.6343H84.1948V55.5447H82.4817V54.6343H65.7452V54.2781L64.3078 53.3678V52.9126H65.7649V52.7345H63.2248V52.2793H42.5936L42.314 52.8928L41.8217 54.0802H41.7627L41.7233 54.1792H21.1275L21.0684 54.001H20.3202V52.6157L20.0189 52.2793H3.24886L2.73692 50.8742L1.26017 47.3515L0 33.0828V28.254V27.6999V22.8711L1.26017 8.60231L2.73692 5.09945L3.24886 3.69434H20.0504L20.3202 3.3777V1.99239H21.0684L21.1275 1.81427H41.7233L41.7627 1.91323H41.8217L42.314 3.10064L42.5837 3.69434H63.2248V3.23917H65.7649V3.08084H64.3078V2.62567L65.7452 1.71532V1.3591H82.4817V0.448746H84.1948V1.3591H84.9036V3.08084H86.9908V3.35791H93.1341V10.1855H96.5798V10.3439H97.9188V12.4416H96.5798V38.8754H100Z" fill="#FED100"/>
<path opacity="0.1" d="M84.8247 9.80957H86.6362V3.45692H84.8247V9.80957ZM84.8247 16.0831H86.6362V10.1856H84.8247V16.0831ZM84.8247 22.3566H86.6362V16.4393H84.8247V22.3566ZM84.8247 33.261H86.6362V22.7128H84.8247V33.261ZM84.8247 39.5345H86.6362V33.6172H84.8247V39.5345ZM84.8247 45.808H86.6362V39.8907H84.8247V45.808ZM84.8247 52.5366H86.6362V46.1642H84.8247V52.5366Z" fill="url(#paint0_linear_6561_5008)"/>
<path opacity="0.08" d="M1.81143 8.46403L0.55127 22.9505V33.0435L1.81143 47.5299L3.17005 50.0037H52.218L51.6667 28.9073V27.0668L52.218 5.97046H3.17005L1.81143 8.46403Z" fill="url(#paint1_linear_6561_5008)"/>
<path opacity="0.05" d="M51.6667 28.9073V27.0668L52.2181 5.97047H53.5373H53.4782L52.9072 23.9598H52.8482V31.9946H52.9072L53.4782 49.9839H53.5373H52.2181L51.6667 28.9073Z" fill="black"/>
<path opacity="0.05" d="M3.07144 5.99015H53.6159L66.2175 5.91099L65.5087 5.27771L3.16989 5.37666L1.81128 8.38477L3.07144 5.99015Z" fill="black"/>
<path opacity="0.05" d="M3.07144 50.0036H53.6159L66.2175 50.1026L65.5087 50.7358L3.16989 50.6369L1.81128 47.6288L3.07144 50.0036Z" fill="black"/>
<path opacity="0.15" d="M53.4782 50.0036L52.9072 32.0143H52.8481V23.9795H52.9072L53.4782 5.9902L66.2177 5.89124V50.0828L53.4782 50.0036Z" fill="url(#paint2_linear_6561_5008)"/>
<path opacity="0.04" d="M2.61865 5.45585L3.24873 3.7341H63.2247V5.00067H3.16997L2.61865 5.73291V5.45585Z" fill="black"/>
<path opacity="0.04" d="M2.61865 50.538L3.24873 52.2598H63.2247V50.9932H3.16997L2.61865 50.261V50.538Z" fill="black"/>
<path opacity="0.08" d="M1.81143 47.5299L0.55127 33.0434V22.9504L1.81143 8.46401L3.17005 5.99024H52.218L51.6667 27.0866V28.9271L52.218 50.0234H3.17005L1.81143 47.5299Z" fill="url(#paint3_linear_6561_5008)"/>
<path opacity="0.08" d="M1.81143 47.5299L0.55127 33.0434V22.9504L1.81143 8.46401L3.17005 5.99024H52.218L51.6667 27.0866V28.9271L52.218 50.0234H3.17005L1.81143 47.5299Z" fill="url(#paint4_linear_6561_5008)"/>
<path opacity="0.04" d="M84.6475 52.9128H86.9906V3.08112H84.6475V52.9128Z" fill="black"/>
<path opacity="0.04" d="M83.6433 3.53613H84.9034V3.27886L84.6278 3.43718L83.6433 3.53613ZM64.3076 3.08096H65.745V3.53613H78.6223L66.5523 3.25907L66.1979 3.08096L66.0207 1.43837L65.9813 1.33942H65.7647V1.69565L64.3273 2.606L64.3076 3.08096Z" fill="black"/>
<path opacity="0.04" d="M64.3076 3.08096V2.62578L65.745 1.71544V1.35921H84.9034V3.53613H65.7647V3.08096H64.3076Z" fill="black"/>
<path opacity="0.04" d="M83.6433 52.4576H84.9034V52.7149L84.6278 52.5565L83.6433 52.4576ZM64.3076 52.9128H65.745V52.4576H78.6223L66.572 52.7346L66.2176 52.9128L66.0403 54.5553L66.001 54.6543H65.7647V54.2981L64.3273 53.3877L64.3076 52.9128Z" fill="black"/>
<path opacity="0.04" d="M64.3076 52.9128V53.3679L65.745 54.2783V54.6345H84.9034V52.4576H65.7647V52.9128H64.3076Z" fill="black"/>
<path opacity="0.1" d="M86.6362 52.6357H93.134V3.35814H86.6362V52.6357Z" fill="url(#paint5_linear_6561_5008)"/>
<path opacity="0.03" d="M20.3201 52.0023L21.1274 54.1792H41.7429L42.7274 52.0023H20.3201Z" fill="black"/>
<path opacity="0.03" d="M19.6113 51.8242L21.6985 54.1001H41.8414L42.7472 51.9232L19.6113 51.8242Z" fill="black"/>
<path opacity="0.03" d="M20.3201 3.99146L21.1274 1.81453H41.7429L42.7471 3.99146H20.3201Z" fill="black"/>
<path opacity="0.03" d="M19.6113 4.16943L21.6985 1.89356H41.8414L42.7472 4.07048L19.6113 4.16943Z" fill="black"/>
<path opacity="0.08" d="M82.4817 0.449016H84.1947V2.34888H82.4817V0.449016Z" fill="black"/>
<path opacity="0.08" d="M82.4817 55.5449H84.1947V53.6451H82.4817V55.5449Z" fill="black"/>
<path d="M84.4506 0.62701L83.7221 0.805122V1.53736L84.4506 1.81442V0.62701ZM82.7376 -0.00627518L82.9148 0.725964H83.6433L83.919 -0.00627518H82.7376ZM84.4506 55.3667L83.7221 55.1886V54.4564L84.4506 54.1793V55.3667ZM82.7376 56L82.9148 55.2678H83.6433L83.919 56H82.7376ZM81.7531 54.9709V55.0501C81.7531 55.1292 81.694 55.1886 81.6152 55.1886H81.5956C81.6152 55.1886 81.6546 55.1688 81.6743 55.1292L81.7531 54.9709ZM81.7531 54.8917V54.9709L81.6743 55.1292C81.6546 55.1688 81.6349 55.1688 81.5956 55.1886H81.5365L81.379 55.1094L80.6111 55.2084L80.1976 56L80.04 55.9208L81.3987 53.2887L81.4971 53.3283V52.695C81.4971 52.6159 81.5562 52.5565 81.6349 52.5565C81.7137 52.5565 81.7728 52.6159 81.7728 52.695V54.8917H81.7531ZM81.4774 53.5064L81.1427 54.1595L81.4774 54.6938V53.5064ZM88.7037 1.59673L88.3689 2.13106L88.7037 2.78414V1.59673ZM87.2663 0.349945L87.4238 0.270786L87.8373 1.06239L88.6052 1.16134L88.7627 1.08218H88.8415C88.9203 1.08218 88.9793 1.14156 88.9793 1.22072V3.59554C88.9793 3.6747 88.9203 3.73407 88.8415 3.73407C88.7627 3.73407 88.7037 3.6747 88.7037 3.59554V2.96225L88.6052 3.00183L87.2663 0.349945Z" fill="black"/>
<path opacity="0.1" d="M92.9568 45.8081H96.5798V10.1857H92.9568V45.8081Z" fill="black"/>
<path d="M15.825 52.2456H20.46L21.0625 53.2688H17.9101C17.0635 53.2688 16.3093 52.8671 15.825 52.2456Z" fill="black"/>
<path d="M20.5682 3.73413H15.9253C16.518 3.12261 17.4473 2.72483 18.487 2.72483H20.8242L20.5682 3.73413Z" fill="black"/>
<path d="M64.3077 52.2596V53.259C63.3704 53.1997 62.5434 52.8217 62.002 52.2596H64.3077Z" fill="black"/>
<path d="M58.3749 3.73413C58.2607 3.18594 58.05 2.7842 57.987 2.62588C57.9082 2.42798 57.8492 1.99259 58.3414 1.63637C58.8337 1.26035 59.2078 1.31973 59.4244 1.45826C59.641 1.59679 59.9363 2.05197 60.1529 3.0019C60.2199 3.29677 60.2553 3.53821 60.271 3.73413H58.3749Z" fill="#414242"/>
<path d="M62.254 3.73413C62.1398 3.18594 61.9292 2.7842 61.8661 2.62588C61.7874 2.42798 61.7283 1.99259 62.2206 1.63637C62.7128 1.26035 63.0869 1.31973 63.3035 1.45826C63.5201 1.59679 63.8155 2.05197 64.0321 3.0019C64.099 3.29677 64.1344 3.53821 64.1502 3.73413H62.254Z" fill="#414242"/>
<path d="M93.6853 39.0002H92.9568V37.7337H93.6853V39.0002ZM93.4884 37.9118H93.134V38.8221H93.4884V37.9118Z" fill="black"/>
<path d="M96.5404 17.2309V36.8232H96.3632V36.19H92.9568V36.091H96.3632V35.4577H92.9568V35.3588H96.3632V34.7255H92.9568V34.6265H96.3632V33.9932H92.9568V33.8943H96.3632V33.261H92.9568V33.1621H96.3632V32.5288H92.9568V32.4298H96.3632V31.7965H92.9568V31.6976H96.3632V31.0643H92.9568V30.9653H96.3632V30.3321H92.9568V30.2331H96.3632V29.5998H92.9568V29.5009H96.3632V28.8676H92.9568V28.7686H96.3632V28.1353H92.9568V28.0364H96.3632V27.4031H92.9568V27.3042H96.3632V26.6709H92.9568V26.5719H96.3632V25.9386H92.9568V25.8397H96.3632V25.2064H92.9568V25.1074H96.3632V24.4742H92.9568V24.3752H96.3632V23.7419H92.9568V23.643H96.3632V23.0097H92.9568V22.9107H96.3632V22.2774H92.9568V22.1785H96.3632V21.5452H92.9568V21.4463H96.3632V20.813H92.9568V20.714H96.3632V20.0807H92.9568V19.9818H96.3632V19.3485H92.9568V19.2495H96.3632V18.6163H92.9568H96.3829V17.3497C96.2253 17.3497 96.1072 17.2309 96.1072 17.0726C96.1072 16.9143 96.2253 16.7956 96.3829 16.7956V13.7083C96.3829 13.4114 96.1466 13.1542 95.8315 13.1542C95.8315 13.3125 95.7134 13.4312 95.5559 13.4312C95.3984 13.4312 95.2802 13.3125 95.2802 13.1542H92.9568V12.9563H95.359C95.418 12.8969 95.4771 12.8573 95.5559 12.8573C95.6346 12.8573 95.7134 12.8969 95.7528 12.9563H95.9103C96.2647 12.9563 96.5404 13.2333 96.5404 13.5895V16.8351C96.5994 16.8945 96.6388 16.9539 96.6388 17.033C96.6388 17.1122 96.5994 17.1914 96.5404 17.2309Z" fill="black"/>
<path d="M99.9074 42.8197V42.9978H99.3561V43.0968H99.6317V43.2749H96.7176C96.6782 43.3738 96.5798 43.453 96.4616 43.453C96.3435 43.453 96.245 43.3738 96.2057 43.2749H93.7444C93.7444 43.2947 93.7641 43.3343 93.7641 43.3738C93.7641 43.453 93.7247 43.5322 93.6656 43.5717V43.6311H92.9568V42.3645H93.6656V43.0968H96.2057C96.245 42.9978 96.3435 42.9187 96.4616 42.9187C96.5798 42.9187 96.6782 42.9978 96.7176 43.0968H96.816V42.9978H96.7176V42.8197H97.2689V39.3564H96.7176V39.1783H96.816V39.0794H96.7176C96.6782 39.1783 96.5798 39.2575 96.4616 39.2575C96.3041 39.2575 96.186 39.1387 96.186 38.9804C96.186 38.8617 96.2647 38.7627 96.3632 38.7231V37.5159C96.2647 37.4764 96.186 37.3774 96.186 37.2587C96.186 37.1003 96.3041 36.9816 96.4616 36.9816C96.6191 36.9816 96.7373 37.1003 96.7373 37.2587C96.7373 37.3774 96.6585 37.4764 96.5601 37.5159V38.7231C96.6388 38.7429 96.6979 38.8023 96.7176 38.8815H99.6317V39.0794H99.3561V39.1783H99.9074V39.3564H99.553V42.8197H99.9074ZM93.134 43.4332H93.2324C93.2324 43.4332 93.2128 43.3936 93.2128 43.354C93.2128 43.3145 93.2128 43.2947 93.2324 43.2551H93.134V43.4332ZM93.4884 42.5426H93.134V43.0968H93.4884V42.5426ZM98.9229 43.0968H99.1001V42.9978H98.9229V43.0968ZM98.47 43.0968H98.6472V42.9978H98.47V43.0968ZM98.0171 43.0968H98.1943V42.9978H98.0171V43.0968ZM97.5643 43.0968H97.7415V42.9978H97.5643V43.0968ZM97.2886 39.0794H97.1114V39.1783H97.2886V39.0794ZM97.2886 42.9978H97.1114V43.0968H97.2886V42.9978ZM97.3871 42.8197H98.0171V39.3564H97.3871V42.8197ZM97.7415 39.0794H97.5643V39.1783H97.7415V39.0794ZM98.1943 39.0794H98.0171V39.1783H98.1943V39.0794ZM98.6472 39.0794H98.47V39.1783H98.6472V39.0794ZM98.726 39.3564H98.0959V42.8197H98.726V39.3564ZM99.1001 39.0794H98.9229V39.1783H99.1001V39.0794ZM99.4545 39.3564H98.8244V42.8197H99.4545V39.3564Z" fill="black"/>
</g>
<defs>
<linearGradient id="paint0_linear_6561_5008" x1="81.849" y1="27.5274" x2="83.9277" y2="27.5274" gradientUnits="userSpaceOnUse">
<stop stop-opacity="0"/>
<stop offset="1"/>
</linearGradient>
<linearGradient id="paint1_linear_6561_5008" x1="29.4528" y1="20.0115" x2="30.2033" y2="7.23332" gradientUnits="userSpaceOnUse">
<stop stop-opacity="0"/>
<stop offset="1"/>
</linearGradient>
<linearGradient id="paint2_linear_6561_5008" x1="53.0726" y1="28.6728" x2="66.0411" y2="28.6728" gradientUnits="userSpaceOnUse">
<stop/>
<stop offset="1" stop-color="#D2D2D2"/>
</linearGradient>
<linearGradient id="paint3_linear_6561_5008" x1="29.4528" y1="36.7336" x2="30.2033" y2="49.5118" gradientUnits="userSpaceOnUse">
<stop stop-opacity="0"/>
<stop offset="1"/>
</linearGradient>
<linearGradient id="paint4_linear_6561_5008" x1="3.10074" y1="28.3726" x2="53.2213" y2="28.3726" gradientUnits="userSpaceOnUse">
<stop stop-opacity="0.5"/>
<stop offset="1"/>
</linearGradient>
<linearGradient id="paint5_linear_6561_5008" x1="94.3096" y1="27.7139" x2="87.4157" y2="27.7139" gradientUnits="userSpaceOnUse">
<stop stop-opacity="0"/>
<stop offset="1"/>
</linearGradient>
<clipPath id="clip0_6561_5008">
<rect width="100" height="56" fill="white" transform="matrix(1 0 0 -1 0 56)"/>
</clipPath>
</defs>
</svg>
