<svg width="100" height="34" viewBox="0 0 100 34" fill="none" xmlns="http://www.w3.org/2000/svg">
<g clip-path="url(#clip0_6560_2601)">
<path d="M46.733 13.6472H50.3807V10.4812L52.8021 10.1705V9.71428L52.9388 9.69462L54.6963 8.90804L54.8916 8.99653V4.01155L55.4383 3.51994H56.1706C56.4772 2.80808 57.1333 2.285 57.9222 2.17095C57.9242 2.17095 58.0257 2.15718 58.0765 2.15325C58.1156 2.14932 58.2698 2.14342 58.2698 2.14342H71.0798C71.3552 2.14342 71.8609 2.28107 71.8609 2.28107C72.0328 2.344 72.3491 2.53671 72.353 2.53868C72.3979 2.57014 72.5873 2.72549 72.5971 2.73532C73.054 3.15221 73.345 3.75395 73.345 4.42451L73.3645 7.35453C73.345 7.80682 73.2767 8.13325 73.0423 8.48721L73.0052 8.55211C72.6049 9.203 71.8941 9.63759 71.0798 9.63759H66.2956V9.99156H69.1857V10.4242H70.0839C70.2226 10.4242 70.3378 10.5382 70.3378 10.6798V11.0141H71.4899C71.5758 11.0141 71.6461 11.0849 71.6461 11.1714V11.4861L79.0275 11.4664V10.4242H79.2989L81.4879 8.77235V1.43746L82.4057 -0.0177231L90.0214 1.43746H94.0441L94.1749 1.55545H94.1808L96.0945 1.57511L97.3833 1.81108V2.26337L96.0945 2.53868H94.9189L95.4696 4.83943H96.7779L98.0277 5.09507V5.54736L96.7779 5.803L95.7039 5.82266L96.2487 8.10375H97.3833L98.6916 8.37906V8.83134L97.4419 9.12631H96.5046L97.0513 11.4271H98.0863L99.3556 11.6827V12.135L98.1058 12.3906H97.3052L97.8519 14.6914H98.7697L99.9765 14.947V15.419L98.7697 15.6746H97.9886V17.9754H98.7697L99.9765 18.231V18.6833L98.7697 18.9389H97.9301L97.3833 21.2397H98.1058L99.3556 21.4953L99.336 21.9673L98.0863 22.2033H97.149L96.6022 24.504H97.4614L98.7112 24.7597L98.6916 25.2513L97.4419 25.4676H96.3874L95.8016 27.7683H96.7975L98.0472 28.024L98.0277 28.5353L96.7779 28.7319H95.743L95.5497 28.8106L95.0244 31.0327H96.155L97.4048 31.2883L97.3852 31.8193L96.1355 32.0749L95.081 32.0946H94.5518L94.046 32.5665H89.4551L82.4663 33.884L81.6246 32.5665H81.5094V25.1962L81.3727 25.151L79.3009 23.5601H79.0294V22.5179H78.7756V22.3999H71.6676V22.6359C71.6676 22.7224 71.5973 22.7932 71.5114 22.7932H70.3593V22.9899C70.3593 23.1295 70.246 23.2455 70.1054 23.2455H69.1876V23.9927H66.3171V24.2287H71.0818C72.3315 24.2287 73.347 25.2513 73.347 26.5098L73.3665 29.5382C73.347 30.0101 73.2474 30.3877 73.013 30.7416L73.0072 30.7534C72.6069 31.4043 71.8961 31.8389 71.0818 31.8389H58.2523C58.182 31.8389 57.7953 31.7917 57.7797 31.7878C57.7582 31.7839 57.5297 31.719 57.5297 31.719C57.477 31.7013 57.3696 31.658 57.3677 31.658C56.8287 31.4279 56.3971 30.9992 56.1628 30.4624H55.4208L54.874 29.9708V24.9937L54.6983 25.0743L52.9213 24.2877H52.7846V23.8158L50.3827 23.5011V20.3548H46.735C44.9658 20.3548 43.5325 18.9114 43.5325 17.1298V16.8761C43.5325 15.0945 44.9658 13.6511 46.735 13.6511L46.733 13.6472ZM81.5075 17.2655H78.5784V18.1111H81.5075V17.2655ZM81.5075 15.889H78.5784V16.7149H81.5075V15.889ZM71.4899 21.3164C71.568 21.3164 71.6461 21.3951 71.6461 21.4737L71.6656 21.7883H79.0275V21.0608H79.0861V21.0018H79.0275V20.6675H79.2989L81.3708 19.0766V19.0156H81.5075V18.642H78.5784V18.7797H77.9144V19.1533H77.8559V19.5466H77.4067V20.2152H74.5362V19.8219H73.4817L72.0367 21.2574H70.3378V21.3164H71.4899ZM71.6656 12.192V12.428C71.6656 12.5067 71.5875 12.5853 71.5094 12.5853H70.3573V12.723H72.0562L73.5012 14.1585H74.5362V13.7652H74.5557H77.4262V14.4338H77.8754V14.8271H77.934V15.181H78.5979L78.5784 15.358H81.5075V14.9647H81.3708V14.9038L79.2989 13.3129H79.0275V12.9786H79.0861V12.9196H79.0275V12.192H71.6656Z" fill="black"/>
<path d="M50.1855 22.3586L48.0375 24.502L47.7446 24.5217L46.6706 27.4911L48.76 29.9295C48.7991 29.9885 48.8186 30.0868 48.8186 30.1851V30.3228C48.7991 30.6177 48.6624 31.011 48.428 31.424C48.018 32.1319 47.4517 32.5645 47.1588 32.4072C47.0455 32.3462 46.9908 32.2047 46.9908 32.0119C46.983 31.7032 47.1158 31.2588 47.3736 30.8144C47.4321 30.7141 47.4946 30.6197 47.5571 30.5312L46.0066 29.3395L45.6942 30.2244H44.7764V30.2834H44.5226V30.2244H42.8237V30.2834H42.5698L42.5503 30.2244H40.8709V30.2834H40.6171L40.5975 30.2244H38.9182V30.2834H38.6643L38.6448 30.2244H36.9654V30.2834H36.7116L36.6921 30.2244H35.3447C35.0713 31.1683 34.1925 31.8763 33.1576 31.8763H20.3281C19.8203 31.8763 19.3322 31.6993 18.9611 31.424H18.844V31.365H17.1451V31.424H16.8912V31.365H15.1923V31.424H14.9385V31.365H13.2396V31.424H12.9857V31.365H12.8491L12.068 29.4772V30.775H9.21695L9.19742 30.716V29.7328H7.32279L6.97129 29.0249L6.34642 28.3563H4.00312C2.72212 28.2875 0.617067 26.8343 0.111306 25.0605C0.0937317 24.9995 0.0781097 24.9366 0.0644405 24.8737V24.8698C0.0566296 24.8324 0.0507713 24.7931 0.0429604 24.7557C0.0273384 24.6653 0.0136692 24.5748 0.00781097 24.4824C0.00390549 24.4175 0 24.3506 0 24.2857V9.6946C0 7.59049 2.53857 5.68302 3.9836 5.68302H6.32689L6.95177 5.01443L7.30326 4.3065H9.19742V3.26428H12.068V4.6408H12.7709V4.50315H13.0443V4.54247L14.3331 3.24461H14.3917V3.18562H14.6456L14.6846 3.20528V3.24461H16.3445V3.18562H16.5983L16.6374 3.20528V3.24461H16.735L16.7741 3.26428V3.83455L16.8326 3.85421V4.10985H16.7741V5.80101L16.8326 5.82067V6.07631H16.7741V7.76747L16.8326 7.78713V8.04277H16.7741V9.26198L16.8326 9.30131V9.49795L17.438 10.1076L17.6919 10.1371V10.0879H17.9457V10.1685L19.6446 10.3711V10.3455H19.8985V10.4025L21.6169 10.607V10.5421H21.8707V10.6365L22.7299 10.7388V9.63757H20.3476C20.2714 9.63757 20.1113 9.62381 20.1035 9.62381C19.9317 9.60611 19.6036 9.50975 19.6036 9.50975C19.2697 9.39176 18.969 9.19905 18.7268 8.94931C18.305 8.53439 18.0434 7.95821 18.0434 7.31715V4.38713C18.0434 3.12859 19.0588 2.10603 20.3085 2.10603H33.1381C33.802 2.10603 34.3917 2.3892 34.8077 2.84739C35.0498 3.10106 35.2373 3.41176 35.3427 3.75786H36.653V3.69886H36.9069L36.9459 3.75786H38.6057V3.69886H38.8596L38.8987 3.75786H39.0549V2.97128H43.5657L43.6048 3.0106V3.75786H44.4835V3.69886H44.7374V3.71853H44.7764V3.75786H45.6551L45.9676 4.64277L47.5298 3.44322C47.4712 3.3449 47.3931 3.24658 47.3345 3.14826C46.9244 2.44033 46.8268 1.7324 47.1197 1.57509C47.231 1.51609 47.3814 1.54166 47.5454 1.63211C47.8266 1.77173 48.1605 2.11587 48.428 2.57798C48.6585 2.97521 48.7893 3.37047 48.8088 3.67134C48.8088 3.67134 48.8186 3.75786 48.8186 3.79719C48.8186 3.89551 48.7991 3.99383 48.76 4.05283L46.6706 6.49124L47.7446 9.46059L48.0375 9.48025L50.1855 11.6237V22.3606V22.3586ZM9.33412 30.5784H11.9313V29.7918H9.33412V30.5784ZM48.5042 4.18851H48.4866L47.4868 5.35266L46.612 6.37522L46.6198 6.39291L48.5022 4.19048L48.5042 4.18851ZM47.6352 3.55531C47.6352 3.55531 47.6216 3.53761 47.6138 3.52975L46.0437 4.73912L46.0594 4.77058L47.6333 3.55531H47.6352ZM9.33412 29.4772V29.6542H11.9313V29.4772H11.6969L11.6774 29.3395H9.58797V29.4772H9.33412ZM46.0262 29.2019L47.6255 30.4388C47.6255 30.4388 47.6313 30.4309 47.6352 30.427L46.032 29.1881L46.0242 29.2019H46.0262ZM46.6139 27.6071L47.4888 28.6296L48.4886 29.7938H48.5062L46.6237 27.5913L46.6159 27.609L46.6139 27.6071ZM48.3831 29.8134L46.5886 27.7152L46.0848 29.1035L47.7036 30.3405C47.8832 30.1261 48.0707 29.9649 48.2406 29.8764C48.2914 29.8488 48.3382 29.8272 48.3831 29.8134ZM11.9313 4.32617H9.33412V4.50315H9.58797V4.6408H11.9313V4.32617ZM47.7036 3.63987L46.0848 4.89644L46.5847 6.27099L48.3831 4.16688C48.3382 4.15311 48.2894 4.13148 48.2406 4.10395C48.0707 4.01546 47.8832 3.85618 47.7036 3.63987ZM9.33412 3.40193V4.18851H11.9313V3.40193H9.33412ZM48.7385 4.05676C48.7385 4.05676 48.7385 4.05873 48.7366 4.06069C48.7366 4.06069 48.7366 4.05873 48.7385 4.05676Z" fill="black"/>
<path d="M61.0231 7.98375H61.1402V4.56211H61.0231V3.51989H55.4382L54.8915 4.0115V10.3435H61.0231V7.98375ZM61.0231 23.6368V25.9768H61.1402V29.3985H61.0231V30.4604H55.4382L54.8915 29.9688V23.6368H61.0231ZM97.9495 17.9734V15.6726H98.7501L99.9998 15.417V14.945L98.7501 14.6894H97.8225L97.2719 12.3847L98.1057 12.369L99.3554 12.1133V11.661L98.1057 11.4054H97.0375L96.4869 9.10266L97.4398 9.08496L98.6896 8.82932V8.37704L97.4398 8.1214H96.2506L95.6999 5.82064L96.7934 5.80098L98.0432 5.54534V5.09305L96.7934 4.83741H95.4656L94.9149 2.53666L96.1295 2.51699L97.3793 2.26135V1.80907L96.1295 1.55342H94.1709L94.0401 1.43544H90.0936L82.4212 -0.0197411L81.5035 1.43544V8.78606L79.2949 10.4222H79.0235V11.4644H71.6421V11.1694C71.6616 11.0908 71.5835 11.0121 71.4859 11.0121H70.3338V10.6778C70.3533 10.5401 70.2361 10.4222 70.0799 10.4222H67.7366C67.5999 10.4222 67.4827 10.5401 67.4827 10.6778V11.0121H66.8383C66.7602 11.0121 66.6821 11.0908 66.6821 11.1694V11.4644H55.9752C55.9381 11.25 55.7292 11.0711 55.4929 11.0711H54.7118C54.4716 11.0711 54.2783 11.2382 54.2334 11.4644H54.165V12.192H54.2236V13.1949C54.2236 13.4702 54.4384 13.6865 54.7118 13.6865H55.4929C55.7663 13.6865 55.9811 13.4702 55.9811 13.1949V12.192H66.6821V12.4279C66.6821 12.5066 66.7602 12.5853 66.8383 12.5853H67.4827V12.7819C67.4827 12.9196 67.5999 13.0375 67.7366 13.0375H67.9709V16.4553C67.8811 15.8201 67.6409 15.358 67.3656 15.358H65.6862C65.5066 15.358 65.3406 15.5546 65.2234 15.8692H55.2586C54.9657 15.8692 54.7509 16.1249 54.7509 16.4592V17.6391C54.7509 17.9734 54.9852 18.229 55.2586 18.229H65.2547C65.3699 18.4964 65.5202 18.6616 65.6862 18.6616H67.3656C67.6546 18.6616 67.8831 18.2074 67.9709 17.5801V20.7264H67.7366C67.5999 20.7264 67.4827 20.8444 67.4827 20.982V21.3163H66.8383C66.7602 21.3163 66.6821 21.395 66.6821 21.4737V21.7686H55.9811V20.8247C56.0006 20.5691 55.7663 20.3331 55.4929 20.3331H54.7118C54.4384 20.3331 54.2236 20.5494 54.2236 20.8247V21.7686H54.165V22.4962H54.2275C54.2471 22.7519 54.4521 22.9485 54.7118 22.9485H55.4929C55.7526 22.9485 55.9577 22.7519 55.9772 22.4962H66.6821V22.7322C66.6821 22.8108 66.7602 22.8895 66.8383 22.8895H67.4827V23.1058C67.4827 23.2435 67.5999 23.3615 67.7366 23.3615H70.0799C70.2166 23.3615 70.3338 23.2435 70.3338 23.1058V22.8895H71.4859C71.564 22.8895 71.6421 22.8108 71.6421 22.7322V22.4962H79.0235V23.5581H79.2949L81.5035 25.1942V32.5645L82.4212 34L89.9901 32.5645H94.0401L94.5458 32.0925L96.1295 32.0729L97.3793 31.8172V31.3649L96.1295 31.1093H94.995L95.5456 28.8085L96.7934 28.7889L98.0432 28.5332V28.081L96.7934 27.8253H95.78L96.3306 25.5246L97.4398 25.5049L98.6896 25.2493V24.797L97.4398 24.5413H96.5669L97.1176 22.2386L98.1057 22.2209L99.3554 21.9653V21.513L98.1057 21.2573H97.3519L97.9026 18.9527L98.7501 18.9369L99.9998 18.6813V18.229L98.7501 17.9734H97.9495ZM81.5074 18.111H78.5782V17.2654H81.5074V18.111ZM73.6378 19.1532H72.4466V18.0697L73.3254 18.0717V18.7993H73.6378V19.1532ZM71.9975 19.1532H71.1969V14.827H71.9975V16.1465C71.9018 16.2684 71.8413 16.4258 71.8413 16.5968V17.3834C71.8413 17.5506 71.9018 17.7059 71.9975 17.8259V19.1532ZM72.4466 14.827H73.6378V15.181H73.3254V15.9086C73.3254 15.9086 72.4525 15.9086 72.4466 15.9105V14.827ZM78.5782 15.8889H81.5074V16.7345H78.5782V15.8889ZM69.869 20.7264V19.5465H77.8557V19.1532H77.9143V18.7993H78.5782V18.642H81.5074V19.0313L79.2988 20.6674H79.0274V21.0017H79.086V21.0607H79.0274V21.7686H71.646V21.4737C71.6655 21.395 71.5874 21.3163 71.4898 21.3163H70.3377V21.0017C70.3572 20.8444 70.24 20.7264 70.0838 20.7264H69.869ZM79.0274 12.192V12.9196H79.086V12.9786H79.0274V13.3129H79.2988L81.5074 14.9489V15.358H78.5782V15.181H77.9143V14.827H77.8557V14.4337H69.869V13.0375H70.0838C70.2205 13.0375 70.3377 12.9196 70.3377 12.7819V12.5853H71.4898C71.5679 12.5853 71.646 12.5066 71.646 12.4279V12.192H79.0274Z" fill="#FC4D00"/>
<path d="M47.7309 24.5237L45.6747 30.2048H32.8061L31.1853 31.3257H12.8491L12.0289 29.3592H7.30326L6.32689 28.317H3.9836C2.53857 28.2777 0 26.3899 0 24.2858V9.69464C0 7.59052 2.53857 5.68306 3.9836 5.68306H6.32689L7.30326 4.64083H12.9857L14.3527 3.26431H16.7741V9.43899L17.4927 10.1627L28.6663 11.4998V4.24754L29.1154 3.79526H45.6747L47.7231 9.45669L48.0375 9.47832L50.1855 11.6218V22.3586L48.0375 24.5021L47.7309 24.5237Z" fill="#FC4D00"/>
<path d="M28.9789 18.111C28.9789 16.8722 27.983 15.8693 26.7527 15.8693C25.5225 15.8693 24.5266 16.8722 24.5266 18.111C24.5266 19.3499 25.542 20.3331 26.7527 20.3331C27.9634 20.3331 28.9789 19.3302 28.9789 18.111Z" fill="#202020"/>
<path d="M31.3143 31.3355H18.932C19.3206 31.6481 19.8107 31.8369 20.3477 31.8369H33.1772C34.1887 31.8369 35.048 31.1664 35.337 30.2421H32.8667L31.3143 31.3335V31.3355ZM29.1292 3.75195L28.6703 4.23963V9.63559H20.3477C19.0979 9.63559 18.0825 8.61303 18.0825 7.3545V4.42448C18.0825 3.16594 19.0979 2.14338 20.3477 2.14338H33.1772C34.1946 2.14338 35.0558 2.82181 35.3428 3.75195H29.1292Z" fill="url(#paint0_linear_6560_2601)"/>
<path opacity="0.5" d="M26.4403 7.9641L26.1669 8.98666L26.2255 9.63559H27.4947L27.3776 8.967L28.022 7.90511L28.2954 6.3516L27.651 5.76167L26.5965 6.29261L26.4403 7.9641ZM25.3467 31.8369H24.0774L24.0267 31.2647H25.2471L25.3467 31.8369ZM23.1206 31.8369H21.8513L21.8005 31.2647H23.021L23.1206 31.8369ZM27.4947 31.8369H26.2255L26.1747 31.2647H27.3952L27.4947 31.8369ZM24.4485 6.29261L25.5029 5.76167L26.1474 6.3516L25.874 7.90511L25.2296 8.967L25.3467 9.63559H24.0774L24.0189 8.98666L24.2922 7.9641L24.4485 6.29261ZM35.3331 30.2421C35.2706 30.4407 35.1827 30.6256 35.0714 30.7947L35.2257 30.2421H35.3331ZM34.5988 30.2421L34.0364 31.1683L34.1145 31.6206C33.8216 31.7583 33.5092 31.8172 33.1772 31.8172H32.8843L32.8257 31.1683L33.0737 30.2421H34.5988ZM32.0974 30.6944L31.8103 31.1683L31.9275 31.8369H30.6582L30.6074 31.2647H31.1268L32.0974 30.6944ZM29.7209 31.8369H28.4516L28.4008 31.2647H29.6213L29.7209 31.8369ZM23.3159 5.48636L23.1597 3.81487L22.8863 2.79231L22.9449 2.14338H24.2141L24.097 2.81198L24.7414 3.87387L25.0148 5.42737L24.3899 6.03697L23.3159 5.48636ZM18.8831 5.48636L18.7269 3.81487L18.5121 3.06762C18.8246 2.65466 19.2542 2.35969 19.7619 2.22204L19.6642 2.81198L20.3086 3.87387L20.582 5.42737L19.9572 6.03697L18.8831 5.48636ZM21.0897 5.48636L20.9335 3.81487L20.6601 2.79231L20.7187 2.14338H21.988L21.8708 2.81198L22.5152 3.87387L22.7886 5.42737L22.1638 6.03697L21.0897 5.48636ZM25.542 5.48636L25.3858 3.81487L25.1124 2.79231L25.171 2.14338H26.4403L26.3231 2.81198L26.9675 3.87387L27.2409 5.42737L26.616 6.03697L25.542 5.48636ZM29.1233 3.75195L28.6625 4.24946V9.64346L28.5863 9.63559H28.4535L28.395 8.98666L28.5863 8.2689V5.94455L27.692 5.48636L27.5358 3.81487L27.2624 2.79231L27.321 2.14338H28.5902L28.4731 2.81198L29.0433 3.75195H29.7248L29.469 2.79231L29.5276 2.14338H30.7968L30.6797 2.81198L31.2499 3.75195H31.9509L31.6951 2.79231L31.7537 2.14338H33.023L32.9058 2.81198L33.476 3.75195H34.177L33.9212 2.79231L33.9603 2.28103C34.6144 2.52094 35.1222 3.06958 35.3252 3.75195H29.1253H29.1233ZM19.9767 6.31227L21.0507 5.76167L21.6951 6.3516L21.4217 7.90511L20.7773 8.967L20.8945 9.63559H20.3477C20.0938 9.63559 19.84 9.59626 19.6057 9.5176L19.5471 9.00632L19.8205 7.98377L19.9767 6.31227ZM20.8945 31.8369H20.3477C20.0938 31.8369 19.84 31.7976 19.6057 31.7189L19.5529 31.2647H20.7929L20.8925 31.8369H20.8945ZM22.2223 6.29261L23.2768 5.76167L23.9212 6.3516L23.6478 7.90511L23.0034 8.967L23.1206 9.63559H21.8513L21.7927 8.98666L22.0661 7.9641L22.2223 6.29261ZM19.4885 6.3516L19.2151 7.90511L18.6488 8.84901C18.2973 8.45572 18.102 7.92477 18.102 7.3545V6.15496L18.8441 5.76167L19.4885 6.3516ZM18.0825 4.42448C18.0825 4.22783 18.102 4.05085 18.1411 3.8542L18.1606 3.87387L18.434 5.42737L18.0825 5.76167V4.42448Z" fill="url(#paint1_linear_6560_2601)"/>
<path d="M28.639 11.4565L26.6941 11.2304V11.2284L24.7218 11.0023V10.9394L22.7886 10.7054V9.59627H28.6038V9.6592H28.639V11.4565Z" fill="#161616"/>
<path d="M43.6048 3.00853H39.094V3.80298H43.6048V3.00853Z" fill="black"/>
<path opacity="0.05" d="M28.9787 19.6251V29.7917H28.1976V26.6454H25.3271V29.7917H23.2376V19.6055L28.9787 19.6251ZM36.4772 30.185H32.8061L31.1853 31.3059H12.8491L12.0289 29.3394H7.30326L6.32689 28.2972H3.9836C2.53857 28.2776 0 26.3898 0 24.2856V9.69452C0 7.59041 2.53857 5.68295 3.9836 5.68295H6.32689L7.30326 4.64072H12.9857L14.3527 3.2642H16.7741V9.43888L17.6919 10.3631L28.6663 11.6806V4.2671L29.1154 3.81481H36.4968V29.7917H29.1154V19.6055H23.101V29.7917H21.3435V29.9294H36.4772V30.185Z" fill="black"/>
<path opacity="0.05" d="M21.3436 22.4962H15.4658V31.3059H21.3436V22.4962Z" fill="black"/>
<path opacity="0.1" d="M15.4657 31.3059H12.8491L12.0289 29.3394H7.30326L6.32689 28.2972H3.9836C2.53857 28.2776 0 26.3898 0 24.2856V22.9091H15.4657V31.3059Z" fill="black"/>
<path d="M1.89428 11.2087H0.585938V22.7715H1.89428V11.2087Z" fill="#222222"/>
<path d="M5.74107 10.8744H0.83968V23.1058H5.74107V23.8137L7.45948 29.3395H7.32279L6.34642 28.2973H4.00312C2.53857 28.2776 0 26.3898 0 24.2857V9.69455C0 7.59044 2.53857 5.68297 3.9836 5.68297H6.32689L7.30326 4.64075H7.36184L5.74107 9.1636V10.8744Z" fill="#222222"/>
<path d="M7.3032 5.89922V5.87955H9.33406V4.30639H7.3032L4.70605 9.55683H7.3032V9.5765H12.3218L12.3413 5.89922H7.3032ZM7.3032 24.4036H12.3218L12.3413 28.0809H7.3032V28.1005H9.33406V29.6737H7.3032L4.70605 24.4233H7.3032V24.4036Z" fill="#333333"/>
<path opacity="0.1" d="M12.5952 10.8745L31.322 12.7033V21.2574L12.5952 23.1058V10.8745Z" fill="white"/>
<path opacity="0.05" d="M35.3642 14.0404H31.322V19.9398H35.3642V14.0404Z" fill="black"/>
<path opacity="0.05" d="M31.3219 13.5095H29.623V20.3331H31.3219V13.5095Z" fill="black"/>
<path opacity="0.1" d="M29.623 13.9027H28.3147V20.0774H29.623V13.9027Z" fill="black"/>
<path opacity="0.1" d="M36.2818 15.1614L35.364 14.0405V19.8809L36.2818 18.76V15.1614Z" fill="black"/>
<path d="M1.8941 22.7715V11.2087H1.56213V22.7715H1.8941ZM0.917725 11.2087H1.23016L1.24969 22.7715H0.917725V11.2087Z" fill="black"/>
<path opacity="0.03" d="M8.49435 20.8641H5.81909V22.4962H8.49435V20.8641ZM10.5447 20.3331V20.7854H7.47892V20.3331H6.75641V19.2319H7.40081L7.92805 18.7009V16.4789L7.59609 16.1446H6.75641V11.4644H7.59609V11.0711H10.7205V11.4054H11.1696L11.2672 11.661V20.3331H10.5447Z" fill="black"/>
<path d="M36.2819 22.5552V21.9062H31.0681V20.687H30.6776V21.9062H30.4042V20.687H29.8769V21.9062H28.5881V22.5552H36.2819ZM31.0681 13.2145H30.6776V12.0543H30.4042V13.2145H29.8769V12.0543H28.5881V11.4054H36.2819V12.0543H31.0681V13.2145Z" fill="#333333"/>
<path d="M30.4041 13.2145H30.7947V11.7987H30.4041V13.2145ZM29.623 11.7987H30.1503V13.2145H29.623V11.7987ZM30.4041 22.1029V20.6871H30.7947V22.1029H30.4041ZM29.623 20.6871H30.1503V22.1029H29.623V20.6871Z" fill="black"/>
<path opacity="0.05" d="M12.5366 10.8745L11.3064 11.2678V22.7125L12.5366 23.1058V10.8745Z" fill="black"/>
<path opacity="0.1" d="M15.329 18.5633H12.5366V21.454H15.3486L15.329 18.5633Z" fill="black"/>
<path opacity="0.2" d="M7.63528 17.2458H6.52222V17.9734H7.63528V17.2458Z" fill="black"/>
<path d="M13.1224 20.7263V20.746L12.3413 20.6083V19.2908L13.1224 19.1531H13.7668V20.7263H13.1224Z" fill="#2D2D2D"/>
<path d="M7.69385 18.3666V17.9733H6.46362V18.3666H7.69385ZM7.0885 17.639C6.79559 17.639 6.54173 17.3833 6.54173 17.0884C6.54173 16.7934 6.79559 16.5378 7.0885 16.5378C7.38141 16.5378 7.63527 16.7737 7.63527 17.0884C7.63527 17.403 7.38141 17.639 7.0885 17.639Z" fill="black"/>
<path opacity="0.04" d="M21.3436 25.0722H19.3909V29.7917H21.3436V25.0722Z" fill="black"/>
<path opacity="0.08" d="M19.3907 25.0722H17.438V29.7917H19.3907V25.0722Z" fill="black"/>
<path opacity="0.12" d="M17.4186 25.0722H15.4658V29.7917H17.4186V25.0722Z" fill="black"/>
<path opacity="0.1" d="M15.4657 25.0722V29.7917H13.7668V29.1428H14.8018V25.7998H14.216V25.0722H15.4657Z" fill="black"/>
<path d="M20.6209 28.4546C20.6209 28.3956 20.5819 28.3563 20.5233 28.3563C20.4647 28.3563 20.4256 28.3956 20.4256 28.4546C20.4256 28.5136 20.4647 28.5529 20.5233 28.5529C20.5819 28.5529 20.6209 28.5136 20.6209 28.4546ZM20.5233 28.9462C20.4647 28.9462 20.4256 28.9069 20.4256 28.8479C20.4256 28.7889 20.4647 28.7496 20.5233 28.7496C20.5819 28.7496 20.6209 28.7889 20.6209 28.8479C20.6209 28.9069 20.5819 28.9462 20.5233 28.9462ZM20.5233 28.1596C20.4647 28.1596 20.4256 28.1203 20.4256 28.0613C20.4256 28.0023 20.4647 27.963 20.5233 27.963C20.5819 27.963 20.6209 28.0023 20.6209 28.0613C20.6209 28.1007 20.5819 28.1596 20.5233 28.1596ZM20.328 29.2805C20.3866 29.2805 20.4256 29.3199 20.4256 29.3788C20.4256 29.4182 20.3866 29.4772 20.328 29.4772C20.2694 29.4772 20.2304 29.4378 20.2304 29.3788C20.2304 29.3199 20.2694 29.2805 20.328 29.2805ZM20.5233 26.5865C20.4647 26.5865 20.4256 26.5471 20.4256 26.4882C20.4256 26.4292 20.4647 26.3898 20.5233 26.3898C20.5819 26.3898 20.6209 26.4292 20.6209 26.4882C20.6209 26.5275 20.5819 26.5865 20.5233 26.5865ZM20.5233 26.9798C20.4647 26.9798 20.4256 26.9404 20.4256 26.8814C20.4256 26.8225 20.4647 26.7831 20.5233 26.7831C20.5819 26.7831 20.6209 26.8225 20.6209 26.8814C20.6209 26.9208 20.5819 26.9798 20.5233 26.9798ZM20.1327 29.1429C20.1913 29.1429 20.2304 29.1822 20.2304 29.2412C20.2304 29.3002 20.1913 29.3395 20.1327 29.3395C20.0741 29.3395 20.0351 29.3002 20.0351 29.2412C20.0351 29.1822 20.0741 29.1429 20.1327 29.1429ZM20.5233 27.3731C20.4647 27.3731 20.4256 27.3337 20.4256 27.2747C20.4256 27.2157 20.4647 27.1764 20.5233 27.1764C20.5819 27.1764 20.6209 27.2157 20.6209 27.2747C20.6209 27.3141 20.5819 27.3731 20.5233 27.3731ZM20.5233 27.7664C20.4647 27.7664 20.4256 27.727 20.4256 27.668C20.4256 27.609 20.4647 27.5697 20.5233 27.5697C20.5819 27.5697 20.6209 27.609 20.6209 27.668C20.6209 27.7074 20.5819 27.7664 20.5233 27.7664ZM19.9375 26.9798C19.996 26.9798 20.0351 27.0191 20.0351 27.0781C20.0351 27.1174 19.996 27.1764 19.9375 27.1764C19.8789 27.1764 19.8398 27.1371 19.8398 27.0781C19.8398 27.0191 19.8789 26.9798 19.9375 26.9798ZM19.9375 26.5865C19.996 26.5865 20.0351 26.6258 20.0351 26.6848C20.0351 26.7241 19.996 26.7831 19.9375 26.7831C19.8789 26.7831 19.8398 26.7438 19.8398 26.6848C19.8398 26.6258 19.8789 26.5865 19.9375 26.5865ZM20.5233 25.9965C20.5819 25.9965 20.6209 26.0359 20.6209 26.0949C20.6209 26.1342 20.5819 26.1932 20.5233 26.1932C20.4647 26.1932 20.4256 26.1539 20.4256 26.0949C20.4256 26.0359 20.4647 25.9965 20.5233 25.9965ZM19.9375 29.2805C19.996 29.2805 20.0351 29.3199 20.0351 29.3788C20.0351 29.4182 19.996 29.4772 19.9375 29.4772C19.8789 29.4772 19.8398 29.4378 19.8398 29.3788C19.8398 29.3199 19.8789 29.2805 19.9375 29.2805ZM19.9375 25.7802C19.996 25.7802 20.0351 25.8196 20.0351 25.8786C20.0351 25.9375 19.996 25.9769 19.9375 25.9769C19.8789 25.9769 19.8398 25.9375 19.8398 25.8786C19.8398 25.8196 19.8789 25.7802 19.9375 25.7802ZM19.9375 26.1932C19.996 26.1932 20.0351 26.2325 20.0351 26.2915C20.0351 26.3308 19.996 26.3898 19.9375 26.3898C19.8789 26.3898 19.8398 26.3505 19.8398 26.2915C19.8398 26.2325 19.8789 26.1932 19.9375 26.1932ZM19.9375 28.5529C19.996 28.5529 20.0351 28.5923 20.0351 28.6513C20.0351 28.7103 19.996 28.7496 19.9375 28.7496C19.8789 28.7496 19.8398 28.7103 19.8398 28.6513C19.8398 28.5923 19.8789 28.5529 19.9375 28.5529ZM19.9375 28.9462C19.996 28.9462 20.0351 28.9856 20.0351 29.0446C20.0351 29.1035 19.996 29.1429 19.9375 29.1429C19.8789 29.1429 19.8398 29.1035 19.8398 29.0446C19.8398 28.9856 19.8789 28.9462 19.9375 28.9462ZM19.9375 27.7664C19.996 27.7664 20.0351 27.8057 20.0351 27.8647C20.0351 27.904 19.996 27.963 19.9375 27.963C19.8789 27.963 19.8398 27.9237 19.8398 27.8647C19.8398 27.8057 19.8789 27.7664 19.9375 27.7664ZM19.9375 28.1596C19.996 28.1596 20.0351 28.199 20.0351 28.258C20.0351 28.2973 19.996 28.3563 19.9375 28.3563C19.8789 28.3563 19.8398 28.317 19.8398 28.258C19.8398 28.199 19.8789 28.1596 19.9375 28.1596ZM19.9375 27.3731C19.996 27.3731 20.0351 27.4124 20.0351 27.4714C20.0351 27.5107 19.996 27.5697 19.9375 27.5697C19.8789 27.5697 19.8398 27.5304 19.8398 27.4714C19.8398 27.4124 19.8789 27.3731 19.9375 27.3731ZM20.328 28.3563C20.2694 28.3563 20.2304 28.317 20.2304 28.258C20.2304 28.199 20.2694 28.1596 20.328 28.1596C20.3866 28.1596 20.4256 28.199 20.4256 28.258C20.4256 28.2973 20.3866 28.3563 20.328 28.3563ZM20.328 26.7831C20.2694 26.7831 20.2304 26.7438 20.2304 26.6848C20.2304 26.6258 20.2694 26.5865 20.328 26.5865C20.3866 26.5865 20.4256 26.6258 20.4256 26.6848C20.4256 26.7241 20.3866 26.7831 20.328 26.7831ZM20.328 27.1764C20.2694 27.1764 20.2304 27.1371 20.2304 27.0781C20.2304 27.0191 20.2694 26.9798 20.328 26.9798C20.3866 26.9798 20.4256 27.0191 20.4256 27.0781C20.4256 27.1174 20.3866 27.1764 20.328 27.1764ZM20.328 27.963C20.2694 27.963 20.2304 27.9237 20.2304 27.8647C20.2304 27.8057 20.2694 27.7664 20.328 27.7664C20.3866 27.7664 20.4256 27.8057 20.4256 27.8647C20.4256 27.904 20.3866 27.963 20.328 27.963ZM20.328 27.5697C20.2694 27.5697 20.2304 27.5304 20.2304 27.4714C20.2304 27.4124 20.2694 27.3731 20.328 27.3731C20.3866 27.3731 20.4256 27.4124 20.4256 27.4714C20.4256 27.5107 20.3866 27.5697 20.328 27.5697ZM20.7185 29.2805C20.7771 29.2805 20.8162 29.3199 20.8162 29.3788C20.8162 29.4182 20.7771 29.4772 20.7185 29.4772C20.66 29.4772 20.6209 29.4378 20.6209 29.3788C20.6209 29.3199 20.66 29.2805 20.7185 29.2805ZM20.328 28.9462C20.3866 28.9462 20.4256 28.9856 20.4256 29.0446C20.4256 29.1035 20.3866 29.1429 20.328 29.1429C20.2694 29.1429 20.2304 29.1035 20.2304 29.0446C20.2304 28.9856 20.2694 28.9462 20.328 28.9462ZM20.5233 29.1429C20.5819 29.1429 20.6209 29.1822 20.6209 29.2412C20.6209 29.3002 20.5819 29.3395 20.5233 29.3395C20.4647 29.3395 20.4256 29.3002 20.4256 29.2412C20.4256 29.1822 20.4647 29.1429 20.5233 29.1429ZM20.328 28.5529C20.3866 28.5529 20.4256 28.5923 20.4256 28.6513C20.4256 28.7103 20.3866 28.7496 20.328 28.7496C20.2694 28.7496 20.2304 28.7103 20.2304 28.6513C20.2304 28.5923 20.2694 28.5529 20.328 28.5529ZM20.1327 28.9462C20.0741 28.9462 20.0351 28.9069 20.0351 28.8479C20.0351 28.7889 20.0741 28.7496 20.1327 28.7496C20.1913 28.7496 20.2304 28.7889 20.2304 28.8479C20.2304 28.9069 20.1913 28.9462 20.1327 28.9462ZM20.1327 25.9965C20.1913 25.9965 20.2304 26.0359 20.2304 26.0949C20.2304 26.1342 20.1913 26.1932 20.1327 26.1932C20.0741 26.1932 20.0351 26.1539 20.0351 26.0949C20.0351 26.0359 20.0741 25.9965 20.1327 25.9965ZM20.328 26.3898C20.2694 26.3898 20.2304 26.3505 20.2304 26.2915C20.2304 26.2325 20.2694 26.1932 20.328 26.1932C20.3866 26.1932 20.4256 26.2325 20.4256 26.2915C20.4256 26.3308 20.3866 26.3898 20.328 26.3898ZM20.1327 26.7831C20.1913 26.7831 20.2304 26.8225 20.2304 26.8814C20.2304 26.9208 20.1913 26.9798 20.1327 26.9798C20.0741 26.9798 20.0351 26.9404 20.0351 26.8814C20.0351 26.8225 20.0741 26.7831 20.1327 26.7831ZM20.328 25.7802C20.3866 25.7802 20.4256 25.8196 20.4256 25.8786C20.4256 25.9375 20.3866 25.9769 20.328 25.9769C20.2694 25.9769 20.2304 25.9375 20.2304 25.8786C20.2304 25.8196 20.2694 25.7802 20.328 25.7802ZM20.1327 26.3898C20.1913 26.3898 20.2304 26.4292 20.2304 26.4882C20.2304 26.5275 20.1913 26.5865 20.1327 26.5865C20.0741 26.5865 20.0351 26.5471 20.0351 26.4882C20.0351 26.4292 20.0741 26.3898 20.1327 26.3898ZM20.1327 28.3563C20.1913 28.3563 20.2304 28.3956 20.2304 28.4546C20.2304 28.5136 20.1913 28.5529 20.1327 28.5529C20.0741 28.5529 20.0351 28.5136 20.0351 28.4546C20.0351 28.3956 20.0741 28.3563 20.1327 28.3563ZM20.1327 27.963C20.1913 27.963 20.2304 28.0023 20.2304 28.0613C20.2304 28.1007 20.1913 28.1596 20.1327 28.1596C20.0741 28.1596 20.0351 28.1203 20.0351 28.0613C20.0351 28.0023 20.0741 27.963 20.1327 27.963ZM20.1327 27.5697C20.1913 27.5697 20.2304 27.609 20.2304 27.668C20.2304 27.7074 20.1913 27.7664 20.1327 27.7664C20.0741 27.7664 20.0351 27.727 20.0351 27.668C20.0351 27.609 20.0741 27.5697 20.1327 27.5697ZM20.1327 27.1764C20.1913 27.1764 20.2304 27.2157 20.2304 27.2747C20.2304 27.3141 20.1913 27.3731 20.1327 27.3731C20.0741 27.3731 20.0351 27.3337 20.0351 27.2747C20.0351 27.2157 20.0741 27.1764 20.1327 27.1764ZM19.9375 25.5836C19.8789 25.5836 19.8398 25.5443 19.8398 25.4853C19.8398 25.4263 19.8789 25.3869 19.9375 25.3869C19.996 25.3869 20.0351 25.4263 20.0351 25.4853C20.0351 25.5443 19.996 25.5836 19.9375 25.5836ZM20.7185 25.9769C20.66 25.9769 20.6209 25.9375 20.6209 25.8786C20.6209 25.8196 20.66 25.7802 20.7185 25.7802C20.7771 25.7802 20.8162 25.8196 20.8162 25.8786C20.8162 25.9375 20.7771 25.9769 20.7185 25.9769ZM20.7185 25.5836C20.66 25.5836 20.6209 25.5443 20.6209 25.4853C20.6209 25.4263 20.66 25.3869 20.7185 25.3869C20.7771 25.3869 20.8162 25.4263 20.8162 25.4853C20.8162 25.5443 20.7771 25.5836 20.7185 25.5836ZM20.7185 26.7831C20.66 26.7831 20.6209 26.7438 20.6209 26.6848C20.6209 26.6258 20.66 26.5865 20.7185 26.5865C20.7771 26.5865 20.8162 26.6258 20.8162 26.6848C20.8162 26.7241 20.7771 26.7831 20.7185 26.7831ZM20.7185 26.3898C20.66 26.3898 20.6209 26.3505 20.6209 26.2915C20.6209 26.2325 20.66 26.1932 20.7185 26.1932C20.7771 26.1932 20.8162 26.2325 20.8162 26.2915C20.8162 26.3308 20.7771 26.3898 20.7185 26.3898ZM20.1327 25.7802C20.0741 25.7802 20.0351 25.7409 20.0351 25.6819C20.0351 25.6229 20.0741 25.5836 20.1327 25.5836C20.1913 25.5836 20.2304 25.6229 20.2304 25.6819C20.2304 25.7409 20.1913 25.7802 20.1327 25.7802ZM20.5233 25.7802C20.4647 25.7802 20.4256 25.7409 20.4256 25.6819C20.4256 25.6229 20.4647 25.5836 20.5233 25.5836C20.5819 25.5836 20.6209 25.6229 20.6209 25.6819C20.6209 25.7409 20.5819 25.7802 20.5233 25.7802ZM20.328 25.5836C20.2694 25.5836 20.2304 25.5443 20.2304 25.4853C20.2304 25.4263 20.2694 25.3869 20.328 25.3869C20.3866 25.3869 20.4256 25.4263 20.4256 25.4853C20.4256 25.5443 20.3866 25.5836 20.328 25.5836ZM20.7185 27.5697C20.66 27.5697 20.6209 27.5304 20.6209 27.4714C20.6209 27.4124 20.66 27.3731 20.7185 27.3731C20.7771 27.3731 20.8162 27.4124 20.8162 27.4714C20.8162 27.5107 20.7771 27.5697 20.7185 27.5697ZM20.7185 28.7496C20.66 28.7496 20.6209 28.7103 20.6209 28.6513C20.6209 28.5923 20.66 28.5529 20.7185 28.5529C20.7771 28.5529 20.8162 28.5923 20.8162 28.6513C20.8162 28.7103 20.7771 28.7496 20.7185 28.7496ZM20.7185 27.1764C20.66 27.1764 20.6209 27.1371 20.6209 27.0781C20.6209 27.0191 20.66 26.9798 20.7185 26.9798C20.7771 26.9798 20.8162 27.0191 20.8162 27.0781C20.8162 27.1174 20.7771 27.1764 20.7185 27.1764ZM20.7185 28.3563C20.66 28.3563 20.6209 28.317 20.6209 28.258C20.6209 28.199 20.66 28.1596 20.7185 28.1596C20.7771 28.1596 20.8162 28.199 20.8162 28.258C20.8162 28.2973 20.7771 28.3563 20.7185 28.3563ZM20.7185 29.1429C20.66 29.1429 20.6209 29.1035 20.6209 29.0446C20.6209 28.9856 20.66 28.9462 20.7185 28.9462C20.7771 28.9462 20.8162 28.9856 20.8162 29.0446C20.8162 29.1035 20.7771 29.1429 20.7185 29.1429ZM20.7185 27.963C20.66 27.963 20.6209 27.9237 20.6209 27.8647C20.6209 27.8057 20.66 27.7664 20.7185 27.7664C20.7771 27.7664 20.8162 27.8057 20.8162 27.8647C20.8162 27.904 20.7771 27.963 20.7185 27.963ZM18.18 27.1764C18.2386 27.1764 18.2776 27.2157 18.2776 27.2747C18.2776 27.3141 18.2386 27.3731 18.18 27.3731C18.1214 27.3731 18.0823 27.3337 18.0823 27.2747C18.0823 27.2157 18.1214 27.1764 18.18 27.1764ZM18.18 27.5697C18.2386 27.5697 18.2776 27.609 18.2776 27.668C18.2776 27.7074 18.2386 27.7664 18.18 27.7664C18.1214 27.7664 18.0823 27.727 18.0823 27.668C18.0823 27.609 18.1214 27.5697 18.18 27.5697ZM18.18 26.3898C18.2386 26.3898 18.2776 26.4292 18.2776 26.4882C18.2776 26.5275 18.2386 26.5865 18.18 26.5865C18.1214 26.5865 18.0823 26.5471 18.0823 26.4882C18.0823 26.4292 18.1214 26.3898 18.18 26.3898ZM18.18 26.7831C18.2386 26.7831 18.2776 26.8225 18.2776 26.8814C18.2776 26.9208 18.2386 26.9798 18.18 26.9798C18.1214 26.9798 18.0823 26.9404 18.0823 26.8814C18.0823 26.8225 18.1214 26.7831 18.18 26.7831ZM18.18 27.963C18.2386 27.963 18.2776 28.0023 18.2776 28.0613C18.2776 28.1007 18.2386 28.1596 18.18 28.1596C18.1214 28.1596 18.0823 28.1203 18.0823 28.0613C18.0823 28.0023 18.1214 27.963 18.18 27.963ZM18.18 28.9462C18.1214 28.9462 18.0823 28.9069 18.0823 28.8479C18.0823 28.7889 18.1214 28.7496 18.18 28.7496C18.2386 28.7496 18.2776 28.7889 18.2776 28.8479C18.2776 28.9069 18.2386 28.9462 18.18 28.9462ZM18.18 28.3563C18.2386 28.3563 18.2776 28.3956 18.2776 28.4546C18.2776 28.5136 18.2386 28.5529 18.18 28.5529C18.1214 28.5529 18.0823 28.5136 18.0823 28.4546C18.0823 28.3956 18.1214 28.3563 18.18 28.3563ZM18.3753 27.963C18.3167 27.963 18.2776 27.9237 18.2776 27.8647C18.2776 27.8057 18.3167 27.7664 18.3753 27.7664C18.4338 27.7664 18.4729 27.8057 18.4729 27.8647C18.4729 27.904 18.4338 27.963 18.3753 27.963ZM18.3753 28.3563C18.3167 28.3563 18.2776 28.317 18.2776 28.258C18.2776 28.199 18.3167 28.1596 18.3753 28.1596C18.4338 28.1596 18.4729 28.199 18.4729 28.258C18.4729 28.2973 18.4338 28.3563 18.3753 28.3563ZM18.18 25.9965C18.2386 25.9965 18.2776 26.0359 18.2776 26.0949C18.2776 26.1342 18.2386 26.1932 18.18 26.1932C18.1214 26.1932 18.0823 26.1539 18.0823 26.0949C18.0823 26.0359 18.1214 25.9965 18.18 25.9965ZM18.5705 27.7664C18.5119 27.7664 18.4729 27.727 18.4729 27.668C18.4729 27.609 18.5119 27.5697 18.5705 27.5697C18.6291 27.5697 18.6682 27.609 18.6682 27.668C18.6682 27.7074 18.6291 27.7664 18.5705 27.7664ZM18.3753 27.5697C18.3167 27.5697 18.2776 27.5304 18.2776 27.4714C18.2776 27.4124 18.3167 27.3731 18.3753 27.3731C18.4338 27.3731 18.4729 27.4124 18.4729 27.4714C18.4729 27.5107 18.4338 27.5697 18.3753 27.5697ZM18.5705 28.1596C18.5119 28.1596 18.4729 28.1203 18.4729 28.0613C18.4729 28.0023 18.5119 27.963 18.5705 27.963C18.6291 27.963 18.6682 28.0023 18.6682 28.0613C18.6682 28.1007 18.6291 28.1596 18.5705 28.1596ZM18.3753 25.7802C18.4338 25.7802 18.4729 25.8196 18.4729 25.8786C18.4729 25.9375 18.4338 25.9769 18.3753 25.9769C18.3167 25.9769 18.2776 25.9375 18.2776 25.8786C18.2776 25.8196 18.3167 25.7802 18.3753 25.7802ZM18.5705 27.3731C18.5119 27.3731 18.4729 27.3337 18.4729 27.2747C18.4729 27.2157 18.5119 27.1764 18.5705 27.1764C18.6291 27.1764 18.6682 27.2157 18.6682 27.2747C18.6682 27.3141 18.6291 27.3731 18.5705 27.3731ZM18.5705 28.5529C18.5119 28.5529 18.4729 28.5136 18.4729 28.4546C18.4729 28.3956 18.5119 28.3563 18.5705 28.3563C18.6291 28.3563 18.6682 28.3956 18.6682 28.4546C18.6682 28.5136 18.6291 28.5529 18.5705 28.5529ZM18.5705 26.9798C18.5119 26.9798 18.4729 26.9404 18.4729 26.8814C18.4729 26.8225 18.5119 26.7831 18.5705 26.7831C18.6291 26.7831 18.6682 26.8225 18.6682 26.8814C18.6682 26.9208 18.6291 26.9798 18.5705 26.9798ZM18.3753 26.3898C18.3167 26.3898 18.2776 26.3505 18.2776 26.2915C18.2776 26.2325 18.3167 26.1932 18.3753 26.1932C18.4338 26.1932 18.4729 26.2325 18.4729 26.2915C18.4729 26.3308 18.4338 26.3898 18.3753 26.3898ZM18.5705 25.9965C18.6291 25.9965 18.6682 26.0359 18.6682 26.0949C18.6682 26.1342 18.6291 26.1932 18.5705 26.1932C18.5119 26.1932 18.4729 26.1539 18.4729 26.0949C18.4729 26.0359 18.5119 25.9965 18.5705 25.9965ZM18.5705 26.5865C18.5119 26.5865 18.4729 26.5471 18.4729 26.4882C18.4729 26.4292 18.5119 26.3898 18.5705 26.3898C18.6291 26.3898 18.6682 26.4292 18.6682 26.4882C18.6682 26.5275 18.6291 26.5865 18.5705 26.5865ZM18.3753 28.5529C18.4338 28.5529 18.4729 28.5923 18.4729 28.6513C18.4729 28.7103 18.4338 28.7496 18.3753 28.7496C18.3167 28.7496 18.2776 28.7103 18.2776 28.6513C18.2776 28.5923 18.3167 28.5529 18.3753 28.5529ZM18.7658 27.1764C18.7072 27.1764 18.6682 27.1371 18.6682 27.0781C18.6682 27.0191 18.7072 26.9798 18.7658 26.9798C18.8244 26.9798 18.8634 27.0191 18.8634 27.0781C18.8634 27.1174 18.8244 27.1764 18.7658 27.1764ZM18.7658 27.5697C18.7072 27.5697 18.6682 27.5304 18.6682 27.4714C18.6682 27.4124 18.7072 27.3731 18.7658 27.3731C18.8244 27.3731 18.8634 27.4124 18.8634 27.4714C18.8634 27.5107 18.8244 27.5697 18.7658 27.5697ZM18.7658 26.7831C18.7072 26.7831 18.6682 26.7438 18.6682 26.6848C18.6682 26.6258 18.7072 26.5865 18.7658 26.5865C18.8244 26.5865 18.8634 26.6258 18.8634 26.6848C18.8634 26.7241 18.8244 26.7831 18.7658 26.7831ZM18.7658 27.963C18.7072 27.963 18.6682 27.9237 18.6682 27.8647C18.6682 27.8057 18.7072 27.7664 18.7658 27.7664C18.8244 27.7664 18.8634 27.8057 18.8634 27.8647C18.8634 27.904 18.8244 27.963 18.7658 27.963ZM18.7658 26.3898C18.7072 26.3898 18.6682 26.3505 18.6682 26.2915C18.6682 26.2325 18.7072 26.1932 18.7658 26.1932C18.8244 26.1932 18.8634 26.2325 18.8634 26.2915C18.8634 26.3308 18.8244 26.3898 18.7658 26.3898ZM18.7658 29.4772C18.7072 29.4772 18.6682 29.4378 18.6682 29.3788C18.6682 29.3199 18.7072 29.2805 18.7658 29.2805C18.8244 29.2805 18.8634 29.3199 18.8634 29.3788C18.8634 29.4182 18.8244 29.4772 18.7658 29.4772ZM18.7658 28.3563C18.7072 28.3563 18.6682 28.317 18.6682 28.258C18.6682 28.199 18.7072 28.1596 18.7658 28.1596C18.8244 28.1596 18.8634 28.199 18.8634 28.258C18.8634 28.2973 18.8244 28.3563 18.7658 28.3563ZM18.7658 25.9769C18.7072 25.9769 18.6682 25.9375 18.6682 25.8786C18.6682 25.8196 18.7072 25.7802 18.7658 25.7802C18.8244 25.7802 18.8634 25.8196 18.8634 25.8786C18.8634 25.9375 18.8244 25.9769 18.7658 25.9769ZM18.7658 29.1429C18.7072 29.1429 18.6682 29.1035 18.6682 29.0446C18.6682 28.9856 18.7072 28.9462 18.7658 28.9462C18.8244 28.9462 18.8634 28.9856 18.8634 29.0446C18.8634 29.1035 18.8244 29.1429 18.7658 29.1429ZM18.7658 28.7496C18.7072 28.7496 18.6682 28.7103 18.6682 28.6513C18.6682 28.5923 18.7072 28.5529 18.7658 28.5529C18.8244 28.5529 18.8634 28.5923 18.8634 28.6513C18.8634 28.7103 18.8244 28.7496 18.7658 28.7496ZM18.18 25.7802C18.1214 25.7802 18.0823 25.7409 18.0823 25.6819C18.0823 25.6229 18.1214 25.5836 18.18 25.5836C18.2386 25.5836 18.2776 25.6229 18.2776 25.6819C18.2776 25.7409 18.2386 25.7802 18.18 25.7802ZM18.5705 29.1429C18.6291 29.1429 18.6682 29.1822 18.6682 29.2412C18.6682 29.3002 18.6291 29.3395 18.5705 29.3395C18.5119 29.3395 18.4729 29.3002 18.4729 29.2412C18.4729 29.1822 18.5119 29.1429 18.5705 29.1429ZM18.5705 28.9462C18.5119 28.9462 18.4729 28.9069 18.4729 28.8479C18.4729 28.7889 18.5119 28.7496 18.5705 28.7496C18.6291 28.7496 18.6682 28.7889 18.6682 28.8479C18.6682 28.9069 18.6291 28.9462 18.5705 28.9462ZM18.3753 28.9462C18.4338 28.9462 18.4729 28.9856 18.4729 29.0446C18.4729 29.1035 18.4338 29.1429 18.3753 29.1429C18.3167 29.1429 18.2776 29.1035 18.2776 29.0446C18.2776 28.9856 18.3167 28.9462 18.3753 28.9462ZM18.3753 27.1764C18.3167 27.1764 18.2776 27.1371 18.2776 27.0781C18.2776 27.0191 18.3167 26.9798 18.3753 26.9798C18.4338 26.9798 18.4729 27.0191 18.4729 27.0781C18.4729 27.1174 18.4338 27.1764 18.3753 27.1764ZM18.7658 25.5836C18.7072 25.5836 18.6682 25.5443 18.6682 25.4853C18.6682 25.4263 18.7072 25.3869 18.7658 25.3869C18.8244 25.3869 18.8634 25.4263 18.8634 25.4853C18.8634 25.5443 18.8244 25.5836 18.7658 25.5836ZM18.3753 25.5836C18.3167 25.5836 18.2776 25.5443 18.2776 25.4853C18.2776 25.4263 18.3167 25.3869 18.3753 25.3869C18.4338 25.3869 18.4729 25.4263 18.4729 25.4853C18.4729 25.5443 18.4338 25.5836 18.3753 25.5836ZM18.5705 25.7802C18.5119 25.7802 18.4729 25.7409 18.4729 25.6819C18.4729 25.6229 18.5119 25.5836 18.5705 25.5836C18.6291 25.5836 18.6682 25.6229 18.6682 25.6819C18.6682 25.7409 18.6291 25.7802 18.5705 25.7802ZM18.3753 26.7831C18.3167 26.7831 18.2776 26.7438 18.2776 26.6848C18.2776 26.6258 18.3167 26.5865 18.3753 26.5865C18.4338 26.5865 18.4729 26.6258 18.4729 26.6848C18.4729 26.7241 18.4338 26.7831 18.3753 26.7831ZM17.9847 25.5836C17.9261 25.5836 17.8871 25.5443 17.8871 25.4853C17.8871 25.4263 17.9261 25.3869 17.9847 25.3869C18.0433 25.3869 18.0823 25.4263 18.0823 25.4853C18.0823 25.5443 18.0433 25.5836 17.9847 25.5836ZM17.9847 27.3731C18.0433 27.3731 18.0823 27.4124 18.0823 27.4714C18.0823 27.5107 18.0433 27.5697 17.9847 27.5697C17.9261 27.5697 17.8871 27.5304 17.8871 27.4714C17.8871 27.4124 17.9261 27.3731 17.9847 27.3731ZM17.9847 26.9798C18.0433 26.9798 18.0823 27.0191 18.0823 27.0781C18.0823 27.1174 18.0433 27.1764 17.9847 27.1764C17.9261 27.1764 17.8871 27.1371 17.8871 27.0781C17.8871 27.0191 17.9261 26.9798 17.9847 26.9798ZM17.9847 27.7664C18.0433 27.7664 18.0823 27.8057 18.0823 27.8647C18.0823 27.904 18.0433 27.963 17.9847 27.963C17.9261 27.963 17.8871 27.9237 17.8871 27.8647C17.8871 27.8057 17.9261 27.7664 17.9847 27.7664ZM18.3753 29.2805C18.4338 29.2805 18.4729 29.3199 18.4729 29.3788C18.4729 29.4182 18.4338 29.4772 18.3753 29.4772C18.3167 29.4772 18.2776 29.4378 18.2776 29.3788C18.2776 29.3199 18.3167 29.2805 18.3753 29.2805ZM17.9847 25.7802C18.0433 25.7802 18.0823 25.8196 18.0823 25.8786C18.0823 25.9375 18.0433 25.9769 17.9847 25.9769C17.9261 25.9769 17.8871 25.9375 17.8871 25.8786C17.8871 25.8196 17.9261 25.7802 17.9847 25.7802ZM17.9847 26.1932C18.0433 26.1932 18.0823 26.2325 18.0823 26.2915C18.0823 26.3308 18.0433 26.3898 17.9847 26.3898C17.9261 26.3898 17.8871 26.3505 17.8871 26.2915C17.8871 26.2325 17.9261 26.1932 17.9847 26.1932ZM17.9847 26.5865C18.0433 26.5865 18.0823 26.6258 18.0823 26.6848C18.0823 26.7241 18.0433 26.7831 17.9847 26.7831C17.9261 26.7831 17.8871 26.7438 17.8871 26.6848C17.8871 26.6258 17.9261 26.5865 17.9847 26.5865ZM17.9847 29.2805C18.0433 29.2805 18.0823 29.3199 18.0823 29.3788C18.0823 29.4182 18.0238 29.4772 17.9847 29.4772C17.9261 29.4772 17.8871 29.4378 17.8871 29.3788C17.8871 29.3199 17.9261 29.2805 17.9847 29.2805ZM17.9847 28.9462C18.0433 28.9462 18.0823 28.9856 18.0823 29.0446C18.0823 29.1035 18.0238 29.1429 17.9847 29.1429C17.9261 29.1429 17.8871 29.1035 17.8871 29.0446C17.8871 28.9856 17.9261 28.9462 17.9847 28.9462ZM18.18 29.1429C18.2386 29.1429 18.2776 29.1822 18.2776 29.2412C18.2776 29.3002 18.2386 29.3395 18.18 29.3395C18.1214 29.3395 18.0823 29.3002 18.0823 29.2412C18.0823 29.1822 18.1214 29.1429 18.18 29.1429ZM17.9847 28.1596C18.0433 28.1596 18.0823 28.199 18.0823 28.258C18.0823 28.2973 18.0433 28.3563 17.9847 28.3563C17.9261 28.3563 17.8871 28.317 17.8871 28.258C17.8871 28.199 17.9261 28.1596 17.9847 28.1596ZM17.9847 28.5529C18.0433 28.5529 18.0823 28.5923 18.0823 28.6513C18.0823 28.7103 18.0433 28.7496 17.9847 28.7496C17.9261 28.7496 17.8871 28.7103 17.8871 28.6513C17.8871 28.5923 17.9261 28.5529 17.9847 28.5529ZM16.6178 27.3731C16.5592 27.3731 16.5201 27.3337 16.5201 27.2747C16.5201 27.2157 16.5592 27.1764 16.6178 27.1764C16.6764 27.1764 16.7154 27.2157 16.7154 27.2747C16.7154 27.3141 16.6764 27.3731 16.6178 27.3731ZM16.6178 27.7664C16.5592 27.7664 16.5201 27.727 16.5201 27.668C16.5201 27.609 16.5592 27.5697 16.6178 27.5697C16.6764 27.5697 16.7154 27.609 16.7154 27.668C16.7154 27.7074 16.6764 27.7664 16.6178 27.7664ZM16.6178 28.1596C16.5592 28.1596 16.5201 28.1203 16.5201 28.0613C16.5201 28.0023 16.5592 27.963 16.6178 27.963C16.6764 27.963 16.7154 28.0023 16.7154 28.0613C16.7154 28.1007 16.6764 28.1596 16.6178 28.1596ZM16.4225 29.2805C16.4811 29.2805 16.5201 29.3199 16.5201 29.3788C16.5201 29.4182 16.4811 29.4772 16.4225 29.4772C16.3639 29.4772 16.3249 29.4378 16.3249 29.3788C16.3249 29.3199 16.3639 29.2805 16.4225 29.2805ZM16.6178 28.5529C16.5592 28.5529 16.5201 28.5136 16.5201 28.4546C16.5201 28.3956 16.5592 28.3563 16.6178 28.3563C16.6764 28.3563 16.7154 28.3956 16.7154 28.4546C16.7154 28.5136 16.6764 28.5529 16.6178 28.5529ZM16.6178 28.9462C16.5592 28.9462 16.5201 28.9069 16.5201 28.8479C16.5201 28.7889 16.5592 28.7496 16.6178 28.7496C16.6764 28.7496 16.7154 28.7889 16.7154 28.8479C16.7154 28.9069 16.6764 28.9462 16.6178 28.9462ZM16.4225 25.7802C16.4811 25.7802 16.5201 25.8196 16.5201 25.8786C16.5201 25.9375 16.4811 25.9769 16.4225 25.9769C16.3639 25.9769 16.3249 25.9375 16.3249 25.8786C16.3249 25.8196 16.3639 25.7802 16.4225 25.7802ZM16.4225 26.3898C16.3639 26.3898 16.3249 26.3505 16.3249 26.2915C16.3249 26.2325 16.3639 26.1932 16.4225 26.1932C16.4811 26.1932 16.5201 26.2325 16.5201 26.2915C16.5201 26.3308 16.4811 26.3898 16.4225 26.3898ZM16.6178 26.9798C16.5592 26.9798 16.5201 26.9404 16.5201 26.8814C16.5201 26.8225 16.5592 26.7831 16.6178 26.7831C16.6764 26.7831 16.7154 26.8225 16.7154 26.8814C16.7154 26.9208 16.6764 26.9798 16.6178 26.9798ZM16.2272 26.3898C16.2858 26.3898 16.3249 26.4292 16.3249 26.4882C16.3249 26.5275 16.2858 26.5865 16.2272 26.5865C16.1687 26.5865 16.1296 26.5471 16.1296 26.4882C16.1296 26.4292 16.1687 26.3898 16.2272 26.3898ZM16.6178 25.9965C16.6764 25.9965 16.7154 26.0359 16.7154 26.0949C16.7154 26.1342 16.6764 26.1932 16.6178 26.1932C16.5592 26.1932 16.5201 26.1539 16.5201 26.0949C16.5201 26.0359 16.5592 25.9965 16.6178 25.9965ZM16.6178 26.5865C16.5592 26.5865 16.5201 26.5471 16.5201 26.4882C16.5201 26.4292 16.5592 26.3898 16.6178 26.3898C16.6764 26.3898 16.7154 26.4292 16.7154 26.4882C16.7154 26.5275 16.6764 26.5865 16.6178 26.5865ZM16.2272 25.9965C16.2858 25.9965 16.3249 26.0359 16.3249 26.0949C16.3249 26.1342 16.2858 26.1932 16.2272 26.1932C16.1687 26.1932 16.1296 26.1539 16.1296 26.0949C16.1296 26.0359 16.1687 25.9965 16.2272 25.9965ZM16.032 26.5865C16.0905 26.5865 16.1296 26.6258 16.1296 26.6848C16.1296 26.7241 16.071 26.7831 16.032 26.7831C15.9734 26.7831 15.9343 26.7438 15.9343 26.6848C15.9343 26.6258 15.9734 26.5865 16.032 26.5865ZM16.032 26.1932C16.0905 26.1932 16.1296 26.2325 16.1296 26.2915C16.1296 26.3308 16.071 26.3898 16.032 26.3898C15.9734 26.3898 15.9343 26.3505 15.9343 26.2915C15.9343 26.2325 15.9734 26.1932 16.032 26.1932ZM16.032 25.5836C15.9734 25.5836 15.9343 25.5443 15.9343 25.4853C15.9343 25.4263 15.9734 25.3869 16.032 25.3869C16.0905 25.3869 16.1296 25.4263 16.1296 25.4853C16.1296 25.5443 16.071 25.5836 16.032 25.5836ZM16.032 29.2805C16.0905 29.2805 16.1296 29.3199 16.1296 29.3788C16.1296 29.4182 16.071 29.4772 16.032 29.4772C15.9734 29.4772 15.9343 29.4378 15.9343 29.3788C15.9343 29.3199 15.9734 29.2805 16.032 29.2805ZM16.2272 25.7802C16.1687 25.7802 16.1296 25.7409 16.1296 25.6819C16.1296 25.6229 16.1687 25.5836 16.2272 25.5836C16.2858 25.5836 16.3249 25.6229 16.3249 25.6819C16.3249 25.7409 16.2858 25.7802 16.2272 25.7802ZM16.4225 25.5836C16.3639 25.5836 16.3249 25.5443 16.3249 25.4853C16.3249 25.4263 16.3639 25.3869 16.4225 25.3869C16.4811 25.3869 16.5201 25.4263 16.5201 25.4853C16.5201 25.5443 16.4811 25.5836 16.4225 25.5836ZM16.032 25.7802C16.0905 25.7802 16.1296 25.8196 16.1296 25.8786C16.1296 25.9375 16.071 25.9769 16.032 25.9769C15.9734 25.9769 15.9343 25.9375 15.9343 25.8786C15.9343 25.8196 15.9734 25.7802 16.032 25.7802ZM16.032 28.5529C16.0905 28.5529 16.1296 28.5923 16.1296 28.6513C16.1296 28.7103 16.071 28.7496 16.032 28.7496C15.9734 28.7496 15.9343 28.7103 15.9343 28.6513C15.9343 28.5923 15.9734 28.5529 16.032 28.5529ZM16.032 28.9462C16.0905 28.9462 16.1296 28.9856 16.1296 29.0446C16.1296 29.1035 16.071 29.1429 16.032 29.1429C15.9734 29.1429 15.9343 29.1035 15.9343 29.0446C15.9343 28.9856 15.9734 28.9462 16.032 28.9462ZM16.032 28.1596C16.0905 28.1596 16.1296 28.199 16.1296 28.258C16.1296 28.2973 16.071 28.3563 16.032 28.3563C15.9734 28.3563 15.9343 28.317 15.9343 28.258C15.9343 28.199 15.9734 28.1596 16.032 28.1596ZM16.032 27.7664C16.0905 27.7664 16.1296 27.8057 16.1296 27.8647C16.1296 27.904 16.071 27.963 16.032 27.963C15.9734 27.963 15.9343 27.9237 15.9343 27.8647C15.9343 27.8057 15.9734 27.7664 16.032 27.7664ZM16.032 26.9798C16.0905 26.9798 16.1296 27.0191 16.1296 27.0781C16.1296 27.1174 16.071 27.1764 16.032 27.1764C15.9734 27.1764 15.9343 27.1371 15.9343 27.0781C15.9343 27.0191 15.9734 26.9798 16.032 26.9798ZM16.032 27.3731C16.0905 27.3731 16.1296 27.4124 16.1296 27.4714C16.1296 27.5107 16.071 27.5697 16.032 27.5697C15.9734 27.5697 15.9343 27.5304 15.9343 27.4714C15.9343 27.4124 15.9734 27.3731 16.032 27.3731ZM16.2272 29.1429C16.2858 29.1429 16.3249 29.1822 16.3249 29.2412C16.3249 29.3002 16.2858 29.3395 16.2272 29.3395C16.1687 29.3395 16.1296 29.3002 16.1296 29.2412C16.1296 29.1822 16.1687 29.1429 16.2272 29.1429ZM16.4225 28.3563C16.3639 28.3563 16.3249 28.317 16.3249 28.258C16.3249 28.199 16.3639 28.1596 16.4225 28.1596C16.4811 28.1596 16.5201 28.199 16.5201 28.258C16.5201 28.2973 16.4811 28.3563 16.4225 28.3563ZM16.4225 27.963C16.3639 27.963 16.3249 27.9237 16.3249 27.8647C16.3249 27.8057 16.3639 27.7664 16.4225 27.7664C16.4811 27.7664 16.5201 27.8057 16.5201 27.8647C16.5201 27.904 16.4811 27.963 16.4225 27.963ZM16.2272 28.9462C16.1687 28.9462 16.1296 28.9069 16.1296 28.8479C16.1296 28.7889 16.1687 28.7496 16.2272 28.7496C16.2858 28.7496 16.3249 28.7889 16.3249 28.8479C16.3249 28.9069 16.2858 28.9462 16.2272 28.9462ZM16.2272 27.963C16.2858 27.963 16.3249 28.0023 16.3249 28.0613C16.3249 28.1007 16.2858 28.1596 16.2272 28.1596C16.1687 28.1596 16.1296 28.1203 16.1296 28.0613C16.1296 28.0023 16.1687 27.963 16.2272 27.963ZM16.4225 27.5697C16.3639 27.5697 16.3249 27.5304 16.3249 27.4714C16.3249 27.4124 16.3639 27.3731 16.4225 27.3731C16.4811 27.3731 16.5201 27.4124 16.5201 27.4714C16.5201 27.5107 16.4811 27.5697 16.4225 27.5697ZM16.2272 28.3563C16.2858 28.3563 16.3249 28.3956 16.3249 28.4546C16.3249 28.5136 16.2858 28.5529 16.2272 28.5529C16.1687 28.5529 16.1296 28.5136 16.1296 28.4546C16.1296 28.3956 16.1687 28.3563 16.2272 28.3563ZM16.4225 26.7831C16.3639 26.7831 16.3249 26.7438 16.3249 26.6848C16.3249 26.6258 16.3639 26.5865 16.4225 26.5865C16.4811 26.5865 16.5201 26.6258 16.5201 26.6848C16.5201 26.7241 16.4811 26.7831 16.4225 26.7831ZM16.2272 27.5697C16.2858 27.5697 16.3249 27.609 16.3249 27.668C16.3249 27.7074 16.2858 27.7664 16.2272 27.7664C16.1687 27.7664 16.1296 27.727 16.1296 27.668C16.1296 27.609 16.1687 27.5697 16.2272 27.5697ZM16.6178 29.1429C16.6764 29.1429 16.7154 29.1822 16.7154 29.2412C16.7154 29.3002 16.6764 29.3395 16.6178 29.3395C16.5592 29.3395 16.5201 29.3002 16.5201 29.2412C16.5201 29.1822 16.5592 29.1429 16.6178 29.1429ZM16.6178 25.7802C16.5592 25.7802 16.5201 25.7409 16.5201 25.6819C16.5201 25.6229 16.5592 25.5836 16.6178 25.5836C16.6764 25.5836 16.7154 25.6229 16.7154 25.6819C16.7154 25.7409 16.6764 25.7802 16.6178 25.7802ZM16.4225 28.5529C16.4811 28.5529 16.5201 28.5923 16.5201 28.6513C16.5201 28.7103 16.4811 28.7496 16.4225 28.7496C16.3639 28.7496 16.3249 28.7103 16.3249 28.6513C16.3249 28.5923 16.3639 28.5529 16.4225 28.5529ZM16.4225 28.9462C16.4811 28.9462 16.5201 28.9856 16.5201 29.0446C16.5201 29.1035 16.4811 29.1429 16.4225 29.1429C16.3639 29.1429 16.3249 29.1035 16.3249 29.0446C16.3249 28.9856 16.3639 28.9462 16.4225 28.9462ZM16.2272 26.7831C16.2858 26.7831 16.3249 26.8225 16.3249 26.8814C16.3249 26.9208 16.2858 26.9798 16.2272 26.9798C16.1687 26.9798 16.1296 26.9404 16.1296 26.8814C16.1296 26.8225 16.1687 26.7831 16.2272 26.7831ZM16.4225 27.1764C16.3639 27.1764 16.3249 27.1371 16.3249 27.0781C16.3249 27.0191 16.3639 26.9798 16.4225 26.9798C16.4811 26.9798 16.5201 27.0191 16.5201 27.0781C16.5201 27.1174 16.4811 27.1764 16.4225 27.1764ZM16.8131 28.7496C16.7545 28.7496 16.7154 28.7103 16.7154 28.6513C16.7154 28.5923 16.7545 28.5529 16.8131 28.5529C16.8716 28.5529 16.9107 28.5923 16.9107 28.6513C16.9107 28.7103 16.8521 28.7496 16.8131 28.7496ZM16.8131 28.3563C16.7545 28.3563 16.7154 28.317 16.7154 28.258C16.7154 28.199 16.7545 28.1596 16.8131 28.1596C16.8716 28.1596 16.9107 28.199 16.9107 28.258C16.9107 28.2973 16.8521 28.3563 16.8131 28.3563ZM16.8131 27.963C16.7545 27.963 16.7154 27.9237 16.7154 27.8647C16.7154 27.8057 16.7545 27.7664 16.8131 27.7664C16.8716 27.7664 16.9107 27.8057 16.9107 27.8647C16.9107 27.904 16.8521 27.963 16.8131 27.963ZM16.8131 27.5697C16.7545 27.5697 16.7154 27.5304 16.7154 27.4714C16.7154 27.4124 16.7545 27.3731 16.8131 27.3731C16.8716 27.3731 16.9107 27.4124 16.9107 27.4714C16.9107 27.5107 16.8521 27.5697 16.8131 27.5697ZM16.8131 29.1429C16.7545 29.1429 16.7154 29.1035 16.7154 29.0446C16.7154 28.9856 16.7545 28.9462 16.8131 28.9462C16.8716 28.9462 16.9107 28.9856 16.9107 29.0446C16.9107 29.1035 16.8521 29.1429 16.8131 29.1429ZM16.8131 29.4772C16.7545 29.4772 16.7154 29.4378 16.7154 29.3788C16.7154 29.3199 16.7545 29.2805 16.8131 29.2805C16.8716 29.2805 16.9107 29.3199 16.9107 29.3788C16.9107 29.4182 16.8521 29.4772 16.8131 29.4772ZM16.8131 26.3898C16.7545 26.3898 16.7154 26.3505 16.7154 26.2915C16.7154 26.2325 16.7545 26.1932 16.8131 26.1932C16.8716 26.1932 16.9107 26.2325 16.9107 26.2915C16.9107 26.3308 16.8521 26.3898 16.8131 26.3898ZM16.8131 25.5836C16.7545 25.5836 16.7154 25.5443 16.7154 25.4853C16.7154 25.4263 16.7545 25.3869 16.8131 25.3869C16.8716 25.3869 16.9107 25.4263 16.9107 25.4853C16.9107 25.5443 16.8521 25.5836 16.8131 25.5836ZM16.8131 25.9769C16.7545 25.9769 16.7154 25.9375 16.7154 25.8786C16.7154 25.8196 16.7545 25.7802 16.8131 25.7802C16.8716 25.7802 16.9107 25.8196 16.9107 25.8786C16.9107 25.9375 16.8521 25.9769 16.8131 25.9769ZM16.8131 26.7831C16.7545 26.7831 16.7154 26.7438 16.7154 26.6848C16.7154 26.6258 16.7545 26.5865 16.8131 26.5865C16.8716 26.5865 16.9107 26.6258 16.9107 26.6848C16.9107 26.7241 16.8521 26.7831 16.8131 26.7831ZM16.2272 27.1764C16.2858 27.1764 16.3249 27.2157 16.3249 27.2747C16.3249 27.3141 16.2858 27.3731 16.2272 27.3731C16.1687 27.3731 16.1296 27.3337 16.1296 27.2747C16.1296 27.2157 16.1687 27.1764 16.2272 27.1764ZM16.8131 27.1764C16.7545 27.1764 16.7154 27.1371 16.7154 27.0781C16.7154 27.0191 16.7545 26.9798 16.8131 26.9798C16.8716 26.9798 16.9107 27.0191 16.9107 27.0781C16.9107 27.1174 16.8521 27.1764 16.8131 27.1764Z" fill="#333333"/>
<path d="M4.56955 11.9363V11.0121L4.04231 11.1498V11.7987L4.56955 11.9363ZM3.18311 12.3296L3.71035 12.192V13.1162L3.18311 12.9786V12.3296Z" fill="#333333"/>
<path d="M48.8089 3.80704L48.8186 3.79523V3.65758L48.8089 3.66938C48.7893 3.37048 48.6565 2.97326 48.4281 2.57603C48.018 1.8681 47.4517 1.43548 47.1588 1.5928C46.8659 1.75012 46.9635 2.45804 47.3736 3.16597C47.4341 3.27019 47.4986 3.36851 47.563 3.45897L45.0889 5.3684L45.0694 5.48639L47.6118 3.52386C47.6196 3.5337 47.6274 3.54549 47.6353 3.55533L45.1084 5.50606L45.0889 5.62404L47.686 3.62022C47.9243 3.91125 48.1781 4.10594 48.3851 4.16493L46.3953 6.49125V6.6289L48.4886 4.18066C48.4886 4.18066 48.5042 4.18066 48.5101 4.18066L46.3172 6.74492V6.88258L48.6761 4.12363C48.7561 4.06071 48.7991 3.95058 48.8069 3.80507L48.8089 3.80704ZM48.8089 30.311C48.7893 30.6099 48.6565 31.0071 48.4281 31.4043C48.018 32.1122 47.4517 32.5449 47.1588 32.3875C46.8659 32.2302 46.9635 31.5223 47.3736 30.8144C47.4341 30.7102 47.4986 30.6138 47.563 30.5214L45.0889 28.6119L45.0694 28.494L47.6118 30.4565C47.6196 30.4467 47.6274 30.4349 47.6353 30.425L45.1084 28.4743L45.0889 28.3563L47.686 30.3601C47.9243 30.0691 48.1781 29.8744 48.3851 29.8154L46.3953 27.4891V27.3514L48.4886 29.7997C48.4886 29.7997 48.5042 29.7997 48.5101 29.7997L46.3172 27.2354V27.0978L48.6761 29.8567C48.7561 29.9196 48.7991 30.0298 48.8069 30.1753L48.8167 30.1871V30.3247L48.8069 30.3129L48.8089 30.311ZM16.6374 9.55696H16.8327V9.30132H16.6374V8.04279H16.8327V7.78715H16.6374V6.07633H16.8327V5.82069H16.6374V4.10987H16.8327V3.85423H16.6374V3.5396H16.6569V3.40194H16.6374V3.2053H16.3835V3.40194H14.6847V3.2053H14.4308V3.40194L13.1225 4.77846H13.0444V4.50316H12.7905V4.77846H12.068V3.26429H9.19745V4.91612H13.1225L14.4308 3.5396H16.5007V9.96992H16.6374V9.55696ZM11.9313 4.18853H9.33414V3.40194H11.9313V4.18853ZM11.9313 4.77846H9.588V4.50316H9.33414V4.32618H11.9313V4.77846ZM44.5226 4.05087H29.1545V3.91322H30.8143V3.71658H31.0682V3.91322H32.7671V3.71658H33.0209V3.91322H34.7198V3.71658H34.9737V3.91322H36.6921V3.71658H36.9459V3.91322H38.6448V3.71658H38.8987V3.91322H40.5976V3.71658H40.8514V3.91322H42.5503V3.71658H42.8042V3.91322H44.5226V3.71658H44.7764V3.91322H45.4794V4.05087H44.5226ZM30.619 31.0504H28.9202V31.0307H28.6663V31.0504H26.9479V31.0307H26.694V31.0504H24.9951V31.0307H24.7413V31.0504H23.0424V31.0307H22.7885V31.0504H21.0701V31.0307H20.8163V31.0504H19.1174V31.0307H18.8635V31.0504H17.1646V31.0307H16.9108V31.0504H15.2119V31.0307H14.958V31.0504H13.2396V31.0307H12.9858V31.0504L12.0758 29.0996C12.0777 29.0839 12.0817 29.0701 12.0875 29.0642H9.19745V30.7161H12.068V29.2215L12.9858 31.188V31.365H13.2396V31.188H14.958V31.365H15.2119V31.188H16.9108V31.365H17.1646V31.188H18.8635V31.365H19.1174V31.188H20.8163V31.365H21.0701V31.188H22.7885V31.365H23.0424V31.188H24.7413V31.365H24.9951V31.188H26.694V31.365H26.9479V31.188H28.6663V31.365H28.9202V31.188H30.619V31.365H30.8729V31.188H31.1268L32.7671 30.0671V30.2638H33.0209V30.0671H34.7198V30.2638H34.9737V30.0671H36.6921V30.2638H36.9459V30.0671H38.6448V30.2638H38.8987V30.0671H40.5976V30.2638H40.8514V30.0671H42.5503V30.2638H42.8042V30.0671H44.5226V30.2638H44.7764V30.0671H45.4794V29.9295H32.7475V29.9432L31.1268 31.0504H30.8729V31.0307H30.619V31.0504ZM11.9313 29.6542H9.33414V29.4772H9.588V29.2019H11.697V29.4772H11.9313V29.6542ZM11.9313 30.5784H9.33414V29.7918H11.9313V30.5784ZM28.7835 10.6778H28.5882V10.4222H28.7835V8.71138H28.5882V8.45574H28.7835V6.74492H28.5882V6.48928H28.7835V4.7588H28.5882V4.50316H28.7835V4.30651H28.9202V11.4054H28.7835V10.6778ZM28.6468 11.7397L16.6374 10.3632V10.2256L17.6919 10.3455V10.0879H17.9457V10.375L19.6446 10.5697V10.3435H19.8985V10.5992L21.6169 10.7958V10.5402H21.8708V10.8253L23.5696 11.02V10.7368H23.8235V11.0495L25.5224 11.2442V10.9335H25.7762V11.2678H25.7294L27.4751 11.4684V11.2088H27.729V11.4959L28.6468 11.6001V11.7378V11.7397ZM0.84947 13.1398L3.31969 12.546V12.6836L0.937344 13.2559C1.35718 13.2696 1.69891 13.7337 1.69891 14.2961C1.69891 14.8861 1.34742 15.358 0.917816 15.3383C0.488213 15.3383 0.136719 14.8664 0.136719 14.2961C0.136719 13.8261 0.376906 13.427 0.703014 13.2991V13.1752L0.722542 13.1713V12.192L4.23748 11.3464V11.4841L0.841659 12.3021L0.84947 13.1418V13.1398Z" fill="#333333"/>
<path d="M48.6233 21.7883C48.6233 21.6506 48.5061 21.5326 48.3694 21.5326C48.2327 21.5326 48.1156 21.6506 48.1156 21.7883C48.1156 21.9259 48.2327 22.0439 48.3694 22.0439C48.5061 22.0439 48.6233 21.9259 48.6233 21.7883ZM48.7404 21.5916C48.6623 21.5916 48.6037 21.5326 48.6037 21.454C48.6037 21.3753 48.6623 21.3163 48.7404 21.3163C48.8185 21.3163 48.8771 21.3753 48.8771 21.454C48.8771 21.5326 48.8185 21.5916 48.7404 21.5916ZM10.701 22.5159C10.1933 22.5159 9.7832 22.1029 9.7832 21.5916C9.7832 21.0804 10.1933 20.6674 10.701 20.6674C11.2087 20.6674 11.6188 21.0804 11.6188 21.5916C11.6188 22.1029 11.2087 22.4962 10.701 22.5159ZM26.7721 19.8808C25.7957 19.8808 25.0146 19.0942 25.0146 18.111C25.0146 17.1278 25.7957 16.3412 26.7721 16.3412C27.7484 16.3412 28.5295 17.1278 28.5295 18.111C28.5295 19.0942 27.7484 19.8808 26.7721 19.8808ZM13.7668 21.0607C13.1419 21.0607 12.6537 20.5691 12.6537 19.9398C12.6537 19.3105 13.1419 18.8189 13.7668 18.8189C14.3917 18.8189 14.8799 19.3302 14.8799 19.9398C14.8799 20.5494 14.3917 21.0607 13.7668 21.0607Z" fill="#222222"/>
<path opacity="0.05" d="M44.6396 4.05083H38.2346V8.65234H44.6396V4.05083Z" fill="black"/>
<path d="M49.0725 12.1919H49.2678V13.5094H49.0725V12.1919ZM49.0725 20.4117H49.2678V21.7292H49.0725V20.4117Z" fill="white"/>
<path opacity="0.1" d="M12.5951 10.8745H0.8396V23.1058H12.5951V10.8745Z" fill="white"/>
<path d="M46.4558 11.1497V9.69452H45.1123L44.7765 10.1527H37.2974L36.4773 9.69452V24.2856L36.8854 23.8786H44.7882L45.1924 24.2856H46.4558V22.8816H37.6099V11.1831H37.6489V11.1497H46.4558ZM47.979 24.2463V24.2856H46.6706V22.8305H48.0961L49.2092 21.8276V12.1329L48.0961 11.13V11.1497H46.6706V9.69452H47.9594L49.9903 11.661V22.2995L47.979 24.2463Z" fill="#333333"/>
<path d="M37.6489 22.4175L36.5164 23.5581V24.2856H36.946L38.1176 23.1058H41.1248V23.8786H41.9059V23.1058H46.4754V24.2856H47.3931V23.8334H46.944V22.8501H46.4949V22.8305H38.0043C37.8071 22.8305 37.6489 22.6692 37.6489 22.4726V22.4175ZM46.944 11.13H46.4949V11.1497H38.0043C37.8071 11.1497 37.6489 11.3109 37.6489 11.5076V11.5627L36.5164 10.4221V9.69452H36.946L38.1176 10.8744H41.1248V10.1153H41.9059V10.8744H46.4754V9.69452H47.3931V10.1468H46.944V11.13Z" fill="black"/>
<path opacity="0.2" d="M48.1098 11.1399H37.6177V22.8226H48.0941L49.2053 21.8296V12.1212L48.1098 11.1399Z" fill="white"/>
<path d="M73.345 7.3545V4.42448C73.345 3.16594 72.3296 2.14338 71.0799 2.14338H58.2503C57.3189 2.14338 56.5202 2.71169 56.1707 3.51991H61.0232V9.63559H71.0799C72.3296 9.63559 73.345 8.61303 73.345 7.3545ZM71.0799 31.8369H58.2503C57.3189 31.8369 56.5202 31.2686 56.1707 30.4604H61.0232V24.3447H71.0799C72.3296 24.3447 73.345 25.3673 73.345 26.6258V29.5558C73.345 30.8144 72.3296 31.8369 71.0799 31.8369Z" fill="url(#paint2_linear_6560_2601)"/>
<path opacity="0.5" d="M68.717 24.325H67.4478L67.3892 24.974L67.6626 25.9965L67.8188 27.668L68.8928 28.2186L69.5177 27.609L69.2443 26.0555L68.5999 24.9936L68.717 24.325ZM68.9514 6.29261L70.0058 5.76167L70.6502 6.3516L70.3769 7.90511L69.7325 8.967L69.8496 9.63559H68.5803L68.5218 8.98666L68.7951 7.9641L68.9514 6.29261ZM66.7252 6.29261L67.7797 5.76167L68.4241 6.3516L68.1507 7.90511L67.5063 8.967L67.6235 9.63559H66.3542L66.2956 8.98666L66.569 7.9641L66.7252 6.29261ZM68.9514 28.4939L70.0058 27.963L70.6502 28.5529L70.3769 30.1064L69.7325 31.1683L69.8496 31.8369H68.5803L68.5218 31.188L68.7951 30.1654L68.9514 28.4939ZM70.826 24.9936L71.4704 26.0555L71.7438 27.609L71.1189 28.2186L70.0449 27.668L69.8887 25.9965L69.6153 24.974L69.6739 24.325H70.9432L70.826 24.9936ZM73.3255 28.199V28.2186L72.2515 27.668L72.0953 25.9965L71.8219 24.974L71.861 24.4824C72.7202 24.8167 73.3255 25.6426 73.3255 26.6258V28.199ZM71.1775 6.27295L72.232 5.76167L72.8764 6.3516L72.603 7.90511L71.9586 8.967L72.0367 9.41928C71.7438 9.55693 71.4313 9.61593 71.0994 9.61593H70.8065L70.7479 8.967L71.0213 7.94444L71.1775 6.27295ZM66.3933 24.9936L67.0377 26.0555L67.3111 27.609L66.6862 28.2186L65.6122 27.668L65.456 25.9965L65.1826 24.974L65.2412 24.325H66.5104L66.3933 24.9936ZM61.0232 9.63559V9.5235L61.0428 9.63559H61.0232ZM71.1775 28.4743L72.232 27.963L72.8764 28.5529L72.603 30.1064L71.9586 31.1683L72.0367 31.6206C71.7438 31.7583 71.4313 31.8172 71.0994 31.8172H70.8065L70.7479 31.1683L71.0213 30.1458L71.1775 28.4743ZM61.8434 6.3516L61.57 7.90511L61.0232 8.80575V5.84819L61.199 5.76167L61.8434 6.3516ZM62.0191 24.9936L62.6635 26.0555L62.9369 27.609L62.312 28.2186L61.238 27.668L61.0818 25.9965L61.0232 25.7783V24.325H62.1363L62.0191 24.9936ZM64.5186 6.29261L65.5731 5.76167L66.2175 6.3516L65.9441 7.90511L65.2997 8.967L65.4169 9.63559H64.1476L64.089 8.98666L64.3624 7.9641L64.5186 6.29261ZM64.2257 24.9936L64.8701 26.0555L65.1435 27.609L64.5186 28.2186L63.4446 27.668L63.2884 25.9965L63.015 24.974L63.0736 24.325H64.3429L64.2257 24.9936ZM62.3511 6.29261L63.4056 5.76167L64.05 6.3516L63.7766 7.90511L63.1322 8.967L63.2494 9.63559H61.9801L61.9215 8.98666L62.1949 7.9641L62.3511 6.29261ZM60.2226 3.51991H58.7776L58.5823 2.79231L58.6409 2.14338H59.9102L59.793 2.81198L60.2226 3.51991ZM67.8188 5.48636L67.6626 3.81487L67.3892 2.79231L67.4478 2.14338H68.717L68.5999 2.81198L69.2443 3.87387L69.5177 5.42737L68.8928 6.03697L67.8188 5.48636ZM70.0449 5.48636L69.8887 3.81487L69.6153 2.79231L69.6739 2.14338H70.9432L70.826 2.81198L71.4704 3.87387L71.7438 5.42737L71.1189 6.03697L70.0449 5.48636ZM65.6122 5.48636L65.456 3.81487L65.1826 2.79231L65.2412 2.14338H66.5104L66.3933 2.81198L67.0377 3.87387L67.3111 5.42737L66.6862 6.03697L65.6122 5.48636ZM72.9935 30.7947L73.1693 30.1654L73.3255 28.4939L73.3646 28.4743V29.5362C73.345 30.0081 73.2279 30.4407 72.9935 30.7947ZM66.7252 28.4939L67.7797 27.963L68.4241 28.5529L68.1507 30.1064L67.5063 31.1683L67.6235 31.8369H66.3542L66.2956 31.188L66.569 30.1654L66.7252 28.4939ZM72.2515 5.48636L72.0953 3.81487L71.8219 2.79231L71.861 2.28103C72.7202 2.59567 73.3255 3.44125 73.3255 4.42448V6.03697L72.2515 5.48636ZM73.1693 7.9641L73.3255 6.29261L73.3646 6.27295V7.3545C73.345 7.80679 73.2279 8.23941 72.9935 8.59337L73.1693 7.9641ZM63.4446 5.48636L63.2884 3.81487L63.015 2.79231L63.0736 2.14338H64.3429L64.2257 2.81198L64.8701 3.87387L65.1435 5.42737L64.5186 6.03697L63.4446 5.48636ZM62.3511 28.4939L63.4056 27.963L64.05 28.5529L63.7766 30.1064L63.1322 31.1683L63.2494 31.8369H61.9801L61.9215 31.188L62.1949 30.1654L62.3511 28.4939ZM61.238 5.48636L61.0818 3.81487L61.0232 3.5966V3.51991H61.0037L60.8084 2.79231L60.867 2.14338H62.1363L62.0191 2.81198L62.6635 3.87387L62.9369 5.42737L62.312 6.03697L61.238 5.48636ZM64.5186 28.4939L65.5731 27.963L66.2175 28.5529L65.9441 30.1064L65.2997 31.1683L65.4169 31.8369H64.1476L64.089 31.188L64.3624 30.1654L64.5186 28.4939ZM61.0232 30.4604V28.0495L61.199 27.963L61.8434 28.5529L61.57 30.1064L60.9256 31.1683L61.0428 31.8369H59.7539L59.6954 31.188L59.8906 30.4604H61.0232ZM58.016 3.51991H56.5534L56.4343 3.06762C56.7467 2.65466 57.1763 2.35969 57.684 2.22204L57.5864 2.81198L58.016 3.51991ZM59.1291 30.4604L58.6995 31.1683L58.8166 31.8369H58.2699C58.016 31.8369 57.7621 31.7976 57.5278 31.7189L57.4692 31.2076L57.6684 30.4604H59.1291ZM56.9049 30.4604L56.5514 31.0503C56.3972 30.8773 56.2722 30.6767 56.1765 30.4604H56.9049Z" fill="url(#paint3_linear_6560_2601)"/>
<path d="M72.0073 17.8357H67.7094C67.7094 17.8357 67.1313 17.8416 67.1313 16.9901C67.1313 16.1386 67.7094 16.1249 67.7094 16.1249H72.0073L71.982 16.1563C71.8921 16.2684 71.8433 16.4061 71.8433 16.5496V17.4129C71.8433 17.5702 71.9019 17.7197 72.0073 17.8357Z" fill="#333333"/>
<path opacity="0.02" d="M54.8916 10.3435H61.0232V3.51984H55.4384L54.8916 4.01145V10.3435ZM55.4384 30.4603L54.8916 29.9687V23.6367H61.0232V30.4603H55.4384Z" fill="black"/>
<path d="M53.4467 10.0879L50.3809 10.4812V23.4992L53.4467 23.8925V10.0879Z" fill="black"/>
<path d="M54.1985 9.69452H52.8022V24.2856H54.1985V9.69452Z" fill="#121212"/>
<path d="M54.2784 9.70638L53.7004 10.7427V23.2396L54.2784 24.2759V9.70835V9.70638Z" fill="#333333"/>
<path opacity="0.2" d="M65.2763 17.0098C65.2763 17.4916 65.3622 17.9262 65.495 18.229H55.2743C54.9951 18.229 54.7549 17.9734 54.7549 17.6391V16.4592C54.7549 16.1249 54.9736 15.8693 55.2743 15.8693H65.4637C65.3485 16.1662 65.2782 16.5693 65.2782 17.0098H65.2763Z" fill="url(#paint4_linear_6560_2601)"/>
<path opacity="0.04" d="M57.6059 5.48641H61.0232V3.51995L57.2935 3.50028V4.75882L57.6059 5.48641ZM54.8916 5.50607V4.03123L55.4384 3.53961H56.4538V4.79815L56.3171 5.50607H54.8916ZM54.8916 29.9688V28.494H56.3171L56.4538 29.2019V30.4604H55.4384L54.8916 29.9688ZM57.2935 30.4801V29.2216L57.6059 28.494H61.0232V30.4801H57.2935Z" fill="black"/>
<path opacity="0.04" d="M54.8916 4.77837H56.4538V3.51984H55.4384L54.8916 4.01145V4.77837ZM57.313 3.51984H61.0232V4.77837H57.313V3.51984ZM57.313 30.4603V29.2018H61.0232V30.4603H57.313ZM54.8916 29.9687V29.2018H56.4538V30.4603H55.4384L54.8916 29.9687Z" fill="black"/>
<path opacity="0.1" d="M59.6758 7.9837H60.91C61.0369 7.9837 61.1404 7.87947 61.1404 7.75165V4.7941C61.1404 4.66628 61.0369 4.56206 60.91 4.56206H59.6758C59.4024 4.56206 59.1876 4.8177 59.1876 5.15199V6.78416L56.1804 9.8125L56.7077 10.3434L59.2853 7.74772C59.3829 7.88537 59.5196 7.9837 59.6758 7.9837ZM59.2853 26.2128C59.3829 26.0751 59.5196 25.9768 59.6758 25.9768H60.8943C61.031 25.9768 61.1404 26.0869 61.1404 26.2246V29.1507C61.1404 29.2883 61.031 29.3984 60.8943 29.3984H59.6758C59.4024 29.3984 59.1876 29.1428 59.1876 28.8085V27.1763L56.1804 24.148L56.7077 23.617L59.2853 26.2128Z" fill="white"/>
<path d="M52.939 10.7368H58.3481L58.0161 10.4221L54.6964 8.90797L52.939 9.69456V10.7368ZM58.0161 23.5581L54.6964 25.0723L52.939 24.2857V23.2435H58.3481L58.0161 23.5581Z" fill="#121212"/>
<path opacity="0.1" d="M77.9126 18.6223H74.1145V15.3777H77.9126V18.6223Z" fill="url(#paint5_linear_6560_2601)"/>
<path opacity="0.15" d="M94.8253 2.14333L97.9497 15.2203V18.7599L94.8253 31.8369L94.0442 32.5645H81.5076V1.43541H94.0442L94.8253 2.14333Z" fill="url(#paint6_linear_6560_2601)"/>
<path opacity="0.1" d="M79.2229 10.4812H81.449V8.77036L79.2229 10.4812ZM81.449 13.2539V14.9647L79.2229 13.2539H81.449ZM81.449 19.0156V20.7264H79.2229L81.449 19.0156ZM79.2229 23.4991H81.449V25.21L79.2229 23.4991Z" fill="black"/>
<path opacity="0.05" d="M96.778 5.80099L98.0277 5.54535V5.09306L96.778 4.83742V5.80099ZM97.4419 8.1214L98.6916 8.37704V8.82933L97.4419 9.08497V8.1214ZM98.0863 11.4054L99.336 11.661V12.1133L98.0863 12.369V11.4054ZM98.7307 14.6894L99.9805 14.945V15.417L98.7307 15.6726V14.6894ZM98.7307 18.9369V17.9734L99.9805 18.229V18.6813L98.7307 18.9369ZM98.0863 21.2574L99.336 21.513V21.9653L98.0863 22.2209V21.2574ZM97.4419 24.5413L98.6916 24.797V25.2493L97.4419 25.5049V24.5413ZM96.778 27.8253L98.0277 28.081V28.5332L96.778 28.7889V27.8253ZM97.3833 31.8172L96.1335 32.0729V31.1093L97.3833 31.365V31.8172ZM96.1335 1.55343L97.3833 1.80907V2.26136L96.1335 2.517V1.55343Z" fill="black"/>
<path opacity="0.15" d="M94.8253 5.82063H95.7431V4.8374H94.8253V5.82063ZM95.4697 8.12139H96.3875V9.10462H95.4697V8.12139ZM96.1336 11.4054H97.0514V12.3886H96.1336V11.4054ZM96.7781 14.6894H97.6958V15.6726H96.7781V14.6894ZM96.7781 18.9566V17.9734H97.6958V18.9566H96.7781ZM96.1336 21.2573H97.0514V22.2406H96.1336V21.2573ZM95.4697 24.5413H96.3875V25.5246H95.4697V24.5413ZM94.8253 27.8253H95.7431V28.8085H94.8253V27.8253ZM95.0792 32.0925H94.1614V31.1093H95.0792V32.0925ZM94.1614 1.55342H95.0792V2.53665H94.1614V1.55342Z" fill="white"/>
<path opacity="0.2" d="M79.0862 10.8154H81.5076V10.4811H79.0862V10.8154ZM79.0862 13.2538V12.9195H81.5076V13.2538H79.0862Z" fill="black"/>
<path opacity="0.05" d="M79.0276 12.9195H81.5076V10.8154H79.0276V12.9195ZM79.0276 23.1648V21.0607H81.5076V23.1648H79.0276Z" fill="black"/>
<path opacity="0.2" d="M79.301 10.4812H81.5272V8.77036L79.301 10.4812ZM81.5272 13.2539V14.9647L79.301 13.2539H81.5272ZM81.5272 19.0156V20.7264H79.301L81.5272 19.0156ZM79.301 23.4991H81.5272V25.21L79.301 23.4991Z" fill="black"/>
<path opacity="0.2" d="M79.75 10.4222H80.9998V10.2255H79.75V10.4222ZM79.75 13.3129H80.9998V13.5095H79.75V13.3129ZM79.75 20.4708H80.9998V20.6674H79.75V20.4708ZM79.75 23.7548V23.5581H80.9998V23.7548H79.75Z" fill="black"/>
<path opacity="0.1" d="M79.0276 10.7565H81.449V10.4222H79.0276V10.7565ZM79.0276 12.9786H81.449V13.3129H79.0276V12.9786ZM79.0862 21.0017H79.0276V20.6674H81.449V20.7264H81.5076V21.0607H79.0862V21.0017ZM81.449 23.4991V23.5581H79.0276V23.2238H79.0862V23.1648H81.5076V23.4991H81.449Z" fill="url(#paint7_linear_6560_2601)"/>
<path opacity="0.2" d="M78.5627 15.8888H81.5251V15.3579H78.5627V15.8888ZM78.5627 16.7344H81.5251V17.2654H78.5627V16.7344ZM78.5627 18.6419V18.1109H81.5251V18.6419H78.5627ZM79.0275 22.5158H78.7736V21.7882H79.0275V22.5158ZM78.7736 11.4643H79.0275V12.1919H78.7736V11.4643ZM81.5075 25.1902H81.3708V19.0155H81.5075V25.1902ZM81.3708 8.77025H81.5075V14.9646H81.3708V8.77025Z" fill="black"/>
<path opacity="0.1" d="M84.5791 5.68305H88.137V1.55348H84.5791V5.68305ZM88.508 1.55348H89.7285V5.68305H88.508V1.55348ZM84.5791 5.8207H88.137V9.95026H84.5791V5.8207ZM88.508 5.8207H89.7285V9.95026H88.508V5.8207ZM84.5791 10.0879H88.137V14.2175H84.5791V10.0879ZM88.508 10.0879H89.7285V14.2175H88.508V10.0879ZM84.5791 14.3551H88.137V19.6252H84.5791V14.3551ZM88.508 14.3551H89.7285V19.6252H88.508V14.3551ZM84.5791 19.7432H88.137V23.8728H84.5791V19.7432ZM88.508 19.7432H89.7285V23.8728H88.508V19.7432ZM84.5791 24.0104H88.137V28.14H84.5791V24.0104ZM88.508 24.0104H89.7285V28.14H88.508V24.0104ZM84.5791 28.2777H88.137V32.4072H84.5791V28.2777ZM88.508 32.4072V28.2777H89.7285V32.4072H88.508Z" fill="white"/>
<path opacity="0.15" d="M90.0605 5.68305H91.7594V1.55348H90.0605V5.68305ZM90.0605 5.8207H91.7594V9.95026H90.0605V5.8207ZM90.0605 10.0879H91.7594V14.2175H90.0605V10.0879ZM90.0605 14.3551H91.7594V19.6252H90.0605V14.3551ZM90.0605 19.7432H91.7594V23.8728H90.0605V19.7432ZM90.0605 24.0104H91.7594V28.14H90.0605V24.0104ZM90.0605 32.4072V28.2777H91.7594V32.4072H90.0605Z" fill="white"/>
<path d="M60.7949 5.04189V7.52159C60.7949 7.63565 60.8867 7.7261 60.998 7.7261C61.0761 7.7261 61.1405 7.66121 61.1405 7.58255V4.97699C61.1405 4.89833 61.0761 4.83344 60.998 4.83344C60.8847 4.83344 60.7949 4.92587 60.7949 5.03795V5.04189ZM60.7246 28.9009V26.494C60.7246 26.3603 60.832 26.2521 60.9648 26.2521C61.0605 26.2521 61.1405 26.3308 61.1405 26.4291V28.9678C61.1405 29.0642 61.0624 29.1448 60.9648 29.1448C60.832 29.1448 60.7246 29.0366 60.7246 28.9029V28.9009Z" fill="white"/>
<path opacity="0.06" d="M55.4189 23.6171L56.4734 29.2018H56.4539V30.4603H57.2936V29.2018H57.3131L58.4672 26.4507L56.1805 24.148L56.7078 23.6171H55.4189ZM58.7796 25.7035L56.7078 23.6171H59.6564L58.7796 25.7035ZM56.1805 9.81251L56.7078 10.3435L58.7757 8.26097L59.6564 10.3631H55.4189L56.4734 4.77837H56.4539V3.51984H57.2936V4.77837H57.3131L58.4613 7.51568L56.1805 9.81251Z" fill="black"/>
<path opacity="0.2" d="M94.6104 30.0671H95.2548L95.2938 29.9295H94.6494L94.6104 30.0671ZM95.0576 5.82069H95.702L95.7235 5.89935H95.079L95.0576 5.82069ZM95.743 27.8254H95.782L95.7625 27.963H95.743V27.8254ZM94.9033 28.8676H95.5477L95.5086 29.0052H94.8642L94.9033 28.8676ZM94.8252 29.1429H95.4696L95.4305 29.2805H94.7861L94.8252 29.1429ZM95.5868 25.9769H96.2312L96.1921 26.1145H95.5477L95.5868 25.9769ZM94.708 29.6542H95.3524L95.3134 29.7918H94.669L94.708 29.6542ZM95.3915 26.7635H96.0359L95.9968 26.9011H95.3524L95.3915 26.7635ZM95.4696 26.5078H96.114L96.0749 26.6455H95.4305L95.4696 26.5078ZM95.5282 26.2522H96.1726L96.1335 26.3899H95.4891L95.5282 26.2522ZM95.3329 27.0388H95.9773L95.9382 27.1764H95.2938L95.3329 27.0388ZM95.2157 27.5501H95.8601L95.8211 27.6877H95.1767L95.2157 27.5501ZM95.2743 27.2944H95.9187L95.8797 27.4321H95.2353L95.2743 27.2944ZM94.7666 29.3985H95.411L95.372 29.5362H94.7276L94.7666 29.3985ZM95.0009 31.1094H94.3565L94.3956 30.9717H95.04L95.0009 31.1094ZM93.966 32.0139H94.1613V32.0926H94.5323L94.4737 32.1516H93.8293L93.966 32.0139ZM93.8293 1.80911H94.1613V1.94677H93.966L93.8293 1.80911ZM94.337 2.871H94.9814L95.0205 3.00865H94.3761L94.337 2.871ZM93.6731 1.69113L93.5364 1.55347H94.1613V1.69113H93.6731ZM94.3175 32.2892L94.1808 32.4269H93.5364L93.6731 32.2892H94.3175ZM94.9619 2.73335H94.3175L94.2784 2.5957H94.9228L94.9619 2.73335ZM94.5127 30.4408H95.1572L95.1181 30.5784H94.4737L94.5127 30.4408ZM94.4151 30.8537L94.4542 30.7161H95.0986L95.0595 30.8537H94.4151ZM94.5909 30.1851H95.2353L95.1962 30.3228H94.5518L94.5909 30.1851ZM94.1613 2.10408V2.14734L94.1027 2.10408H94.1613ZM94.1613 31.8527V31.8959H94.1027L94.1613 31.8527ZM94.4151 3.12664H95.0595L95.0986 3.26429H94.4542L94.4151 3.12664ZM96.7779 20.9821H97.4223L97.3833 21.1197H96.7389L96.7779 20.9821ZM95.6453 25.7213H96.2897L96.2507 25.8589H95.6063L95.6453 25.7213ZM97.0513 21.513H97.3052L97.2661 21.6507H97.0513V21.513ZM96.8951 20.4708H97.5395L97.52 20.6085H96.856L96.8951 20.4708ZM96.4655 22.2996H97.1099L97.0708 22.4373H96.4264L96.4655 22.2996ZM97.0513 22.044H97.188L97.149 22.1816H97.0513V22.044ZM97.0513 21.7687H97.2466L97.2075 21.9063H97.0513V21.7687ZM97.2271 19.1533H97.8715L97.8324 19.2909H97.188L97.2271 19.1533ZM97.1685 19.4089H97.8129L97.7738 19.5466H97.1294L97.1685 19.4089ZM97.2642 18.9566H97.6957V18.878H97.9301L97.891 19.0156H97.2466L97.2642 18.9566ZM96.9732 20.1955H97.6176L97.5786 20.3332H96.9341L96.9732 20.1955ZM97.0904 19.6842H97.7348L97.7152 19.8219H97.0513L97.0904 19.6842ZM97.0318 19.9399H97.6762L97.6371 20.0775H96.9927L97.0318 19.9399ZM96.856 20.7264H97.5004L97.4614 20.8641H96.817L96.856 20.7264ZM96.3874 24.6594H96.5436L96.5045 24.797H96.3874V24.6594ZM96.0359 24.1481H96.6803L96.6412 24.2857H95.9968L96.0359 24.1481ZM96.3874 24.9347H96.485L96.446 25.0723H96.3874V24.9347ZM95.9187 24.5414L95.9578 24.4037H96.6022L96.5631 24.5414H95.9187ZM96.3874 25.1903H96.4264L96.3874 25.328V25.1903ZM95.702 25.5246H96.3464L96.3288 25.5836H95.6844L95.702 25.5246ZM96.3483 22.8306H96.9927L96.9537 22.9682H96.3093L96.3483 22.8306ZM96.0945 23.8728H96.7389L96.6998 24.0104H96.0554L96.0945 23.8728ZM96.2897 23.0862H96.9341L96.8951 23.2239H96.2507L96.2897 23.0862ZM96.4069 22.5749H97.0513L97.0123 22.7126H96.3679L96.4069 22.5749ZM96.2116 23.3615H96.856L96.817 23.4992H96.1726L96.2116 23.3615ZM96.1531 23.6171H96.7975L96.7584 23.7548H96.114L96.1531 23.6171ZM97.0513 21.2574H97.3638L97.3247 21.395H97.0513V21.2574ZM96.9927 13.9028H97.6371L97.6762 14.0405H97.0318L96.9927 13.9028ZM97.0513 14.1585H97.6957L97.7348 14.2961H97.0904L97.0513 14.1585ZM97.6957 14.6894H97.8324L97.8715 14.8271H97.6957V14.6894ZM97.1099 14.4141H97.7543L97.7934 14.5518H97.149L97.1099 14.4141ZM97.6957 14.9451H97.891L97.9301 15.0827H97.6957V14.9451ZM97.6957 15.2204H97.9496V15.358H97.6957V15.2204ZM96.7389 12.8409H97.3833L97.4223 12.9786H96.7779L96.7389 12.8409ZM96.6803 12.5853H97.3247L97.3638 12.723H96.7193L96.6803 12.5853ZM97.6957 15.476H97.9496V15.6137H97.6957V15.476ZM96.6393 12.3887H97.0513V12.3297H97.2661L97.3052 12.4673H96.6608L96.6393 12.3887ZM96.856 13.3719H97.5004L97.5395 13.5095H96.8951L96.856 13.3719ZM97.0513 12.0544H97.188L97.2271 12.192H97.0513V12.0544ZM96.9341 13.6275H97.5786L97.6176 13.7652H96.9732L96.9341 13.6275ZM96.7975 13.1163H97.4419L97.4809 13.2539H96.8365L96.7975 13.1163ZM97.3052 17.9734V17.8358H97.9496V17.9734H97.3052ZM97.6957 18.0914H97.9496V18.229H97.6957V18.0914ZM97.3052 17.3048H97.9496V17.4425H97.3052V17.3048ZM97.3052 17.5801H97.9496V17.7178H97.3052V17.5801ZM97.6957 18.76V18.6223H97.9496V18.76H97.6957ZM97.6957 18.3667H97.9496V18.5043H97.6957V18.3667ZM97.3052 16.2626H97.9496V16.4002H97.3052V16.2626ZM97.3052 17.0492H97.9496V17.1868H97.3052V17.0492ZM97.3052 16.0069H97.9496V16.1446H97.3052V16.0069ZM97.3052 15.7316H97.9496V15.8693H97.3052V15.7316ZM97.3052 16.5182H97.9496V16.6559H97.3052V16.5182ZM97.3052 16.7935H97.9496V16.9312H97.3052V16.7935ZM95.2353 6.54828H95.8797L95.9187 6.68593H95.2743L95.2353 6.54828ZM95.3524 7.05956H95.9968L96.0359 7.19721H95.3915L95.3524 7.05956ZM95.2938 6.80392H95.9382L95.9773 6.94157H95.3329L95.2938 6.80392ZM94.4737 3.38228H95.1181L95.1572 3.51993H94.5127L94.4737 3.38228ZM95.4891 7.5905H96.1335L96.1726 7.72815H95.5282L95.4891 7.5905ZM95.5477 7.84614H96.1921L96.2312 7.98379H95.5868L95.5477 7.84614ZM95.1572 6.27298H95.8016L95.8406 6.41063H95.1962L95.1572 6.27298ZM95.411 7.33486H96.0554L96.0945 7.47252H95.4501L95.411 7.33486ZM94.5909 3.91323H95.2353L95.2743 4.05088H94.6299L94.5909 3.91323ZM95.0986 6.01733H95.743L95.782 6.15499H95.1376L95.0986 6.01733ZM94.5323 3.65758H95.1767L95.2157 3.79523H94.5713L94.5323 3.65758ZM94.669 4.16887H95.3134L95.3524 4.30652H94.708L94.669 4.16887ZM94.7861 4.69981H95.4305L95.4696 4.83746H94.8252L94.7861 4.69981ZM94.7276 4.44417H95.372L95.411 4.58182H94.7666L94.7276 4.44417ZM95.8601 9.16367H96.5045L96.5436 9.30132H95.8992L95.8601 9.16367ZM96.2897 11.0121H96.9341L96.9732 11.1498H96.3288L96.2897 11.0121ZM96.2312 10.7368H96.8756L96.9146 10.8745H96.2702L96.2312 10.7368ZM96.1726 10.4812H96.817L96.856 10.6188H96.2116L96.1726 10.4812ZM96.114 10.2256H96.7584L96.7975 10.3632H96.1531L96.114 10.2256ZM97.0513 11.5234H97.0708L97.1099 11.6611H97.0513V11.5234ZM96.3679 11.2678H97.0123L97.0513 11.4054H96.4069L96.3679 11.2678ZM95.9773 9.69461H96.6217L96.6608 9.83227H96.0164L95.9773 9.69461ZM96.0359 9.95025H96.6803L96.7389 10.0879H96.0749L96.0359 9.95025ZM96.3874 8.90803H96.446L96.485 9.04568H96.3874V8.90803ZM97.0513 11.7987H97.1294L97.1685 11.9364H97.0513V11.7987ZM95.9187 9.43897H96.5631L96.6022 9.57663H95.9578L95.9187 9.43897ZM96.3874 8.70155L96.4069 8.77038H96.3874V8.70155Z" fill="black"/>
<path d="M67.2055 15.358V13.4505H61.1911V13.8635H55.8406V15.8693H65.4149C65.532 15.5546 65.698 15.358 65.8777 15.358H67.2055ZM65.4481 18.229C65.5633 18.4965 65.7136 18.6616 65.8796 18.6616H67.2075V20.5298H61.193V20.1168H55.8425V18.229H65.4481Z" fill="black"/>
<path d="M66.2956 24.3486V23.5817H63.425V24.3486H66.2956ZM63.425 9.42321H66.2956V10.1901H63.425V9.42321Z" fill="black"/>
<path opacity="0.2" d="M65.8602 18.6616C65.5439 18.6616 65.2803 17.9143 65.2803 17.0098C65.2803 16.1052 65.5439 15.358 65.8602 15.358H67.3697C67.3697 15.358 66.9596 15.3068 66.9596 16.996C66.9596 18.6852 67.3697 18.6616 67.3697 18.6616H65.8602Z" fill="url(#paint8_linear_6560_2601)"/>
<path opacity="0.2" d="M72.3451 18.0658C72.0327 18.0658 71.771 17.5781 71.771 16.9882C71.771 16.3982 72.0307 15.9105 72.3451 15.9105H73.7647C73.7647 15.9105 73.6808 16.2134 73.6808 16.9803C73.6808 17.7472 73.7647 18.0677 73.7647 18.0677H72.3451V18.0658Z" fill="url(#paint9_linear_6560_2601)"/>
<path opacity="0.2" d="M74.1652 18.6163C73.7668 18.6163 73.6809 17.8828 73.6809 16.994C73.6809 16.1051 73.7668 15.3717 74.1652 15.3717H77.9047C77.9047 15.3717 77.7426 15.3205 77.7426 16.9802C77.7426 18.6399 77.9047 18.6163 77.9047 18.6163H74.1652Z" fill="url(#paint10_linear_6560_2601)"/>
<path d="M51.4353 20.3331V13.6472L49.9902 13.6275V20.3331H51.4353Z" fill="#333333"/>
<path d="M54.2317 22.4962H54.1692V23.9907H69.1858V23.3615H67.7408C67.6041 23.3615 67.4869 23.2435 67.4869 23.1058V22.8895H66.8425C66.7644 22.8895 66.6863 22.8108 66.6863 22.7322V22.4962H55.9813C55.9618 22.7519 55.7568 22.9485 55.4971 22.9485H54.716C54.4562 22.9485 54.2512 22.7519 54.2317 22.4962ZM54.2278 13.1949C54.2278 13.4702 54.4426 13.6865 54.716 13.6865H55.4971C55.7704 13.6865 55.9852 13.4702 55.9852 13.1949V12.192H66.6863V12.4279C66.6863 12.5066 66.7644 12.5853 66.8425 12.5853H67.4869V12.7819C67.4869 12.9196 67.6041 13.0375 67.7408 13.0375H68.0337V16.1249H67.7212C67.7212 15.3206 67.3697 15.358 67.3697 15.358H65.8778C65.6982 15.358 65.5322 15.5546 65.415 15.8692H55.2627C54.9698 15.8692 54.755 16.1249 54.755 16.4592V17.6391C54.755 17.9734 54.9893 18.229 55.2627 18.229H65.4463C65.5615 18.4964 65.7119 18.6616 65.8778 18.6616H67.3697C67.3697 18.6616 67.7212 18.7521 67.7212 17.8357H68.0337V20.7264H67.7408C67.6041 20.7264 67.4869 20.8444 67.4869 20.982V21.3163H66.8425C66.7644 21.3163 66.6863 21.395 66.6863 21.4737V21.7686H55.9852V20.8247C56.0048 20.5691 55.7704 20.3331 55.4971 20.3331H54.716C54.4426 20.3331 54.2278 20.5494 54.2278 20.8247V21.7686H54.1692V12.192H54.2278V13.1949ZM67.7408 10.4222C67.6041 10.4222 67.4869 10.5401 67.4869 10.6778V11.0121H66.8425C66.7644 11.0121 66.6863 11.0908 66.6863 11.1694V11.4644H55.9794C55.9423 11.25 55.7333 11.0711 55.4971 11.0711H54.716C54.4758 11.0711 54.2824 11.2382 54.2375 11.4644H54.1692V9.98954H69.1858V10.4222H67.7408Z" fill="#121212"/>
<path opacity="0.2" d="M55.5049 22.9642H54.7316C54.4782 22.9642 54.2727 22.7573 54.2727 22.5021V20.7834C54.2727 20.5282 54.4782 20.3213 54.7316 20.3213H55.5049C55.7583 20.3213 55.9638 20.5282 55.9638 20.7834V22.5021C55.9638 22.7573 55.7583 22.9642 55.5049 22.9642Z" fill="url(#paint11_linear_6560_2601)"/>
<path opacity="0.2" d="M71.4822 22.8895H66.8386C66.7491 22.8895 66.6765 22.8165 66.6765 22.7263V21.4756C66.6765 21.3855 66.7491 21.3124 66.8386 21.3124H71.4822C71.5717 21.3124 71.6443 21.3855 71.6443 21.4756V22.7263C71.6443 22.8165 71.5717 22.8895 71.4822 22.8895Z" fill="url(#paint12_linear_6560_2601)"/>
<path opacity="0.2" d="M70.0683 23.3496H67.7543C67.6023 23.3496 67.479 23.2255 67.479 23.0723V21.0017C67.479 20.8485 67.6023 20.7244 67.7543 20.7244H70.0683C70.2204 20.7244 70.3437 20.8485 70.3437 21.0017V23.0723C70.3437 23.2255 70.2204 23.3496 70.0683 23.3496Z" fill="url(#paint13_linear_6560_2601)"/>
<path opacity="0.2" d="M71.4822 12.597H66.8386C66.7491 12.597 66.6765 12.524 66.6765 12.4338V11.1832C66.6765 11.093 66.7491 11.0199 66.8386 11.0199H71.4822C71.5717 11.0199 71.6443 11.093 71.6443 11.1832V12.4338C71.6443 12.524 71.5717 12.597 71.4822 12.597Z" fill="url(#paint14_linear_6560_2601)"/>
<path opacity="0.2" d="M70.0664 13.0415H67.7563C67.6032 13.0415 67.479 12.9165 67.479 12.7623V10.6601C67.479 10.5059 67.6032 10.3809 67.7563 10.3809H70.0664C70.2195 10.3809 70.3437 10.5059 70.3437 10.6601V12.7623C70.3437 12.9165 70.2195 13.0415 70.0664 13.0415Z" fill="url(#paint15_linear_6560_2601)"/>
<path opacity="0.2" d="M69.8165 20.7224H68.022V17.8317H69.8165V20.7224Z" fill="url(#paint16_linear_6560_2601)"/>
<path opacity="0.2" d="M69.8497 16.1229H68.022V13.0415H69.8497V16.1229Z" fill="url(#paint17_linear_6560_2601)"/>
<path d="M55.9716 22.4943V22.4589H54.2903V22.4943H55.9716ZM54.2922 21.7391H55.9736V21.7745H54.2922V21.7391Z" fill="url(#paint18_linear_6560_2601)"/>
<path opacity="0.2" d="M54.7197 11.0829H55.5145C55.7669 11.0829 55.9714 11.2889 55.9714 11.543V13.2342C55.9714 13.4883 55.7669 13.6943 55.5145 13.6943H54.7197C54.4674 13.6943 54.2628 13.4883 54.2628 13.2342V11.543C54.2628 11.2889 54.4674 11.0829 54.7197 11.0829Z" fill="url(#paint19_linear_6560_2601)"/>
<path d="M54.2727 11.4466V11.482H55.954V11.4466H54.2727ZM55.954 12.2037H54.2727V12.1683H55.954V12.2037Z" fill="url(#paint20_linear_6560_2601)"/>
<path d="M71.6326 22.4943V22.4589H66.7292V22.4943H71.6326ZM66.7292 21.7391H71.6326V21.7745H66.7292V21.7391Z" fill="url(#paint21_linear_6560_2601)"/>
<path d="M66.6765 11.4466V11.482H71.5799V11.4466H66.6765ZM71.5799 12.2037H66.6765V12.1683H71.5799V12.2037Z" fill="url(#paint22_linear_6560_2601)"/>
<path opacity="0.2" d="M69.8302 19.9654C69.8302 19.9654 69.8107 20.5868 68.9339 20.5868C68.0571 20.5868 68.0376 19.9654 68.0376 19.9654V20.7264H69.8283V19.9654H69.8302Z" fill="black"/>
<path opacity="0.2" d="M68.0376 13.8025C68.0376 13.8025 68.0571 13.1752 68.9456 13.1752C69.8341 13.1752 69.8536 13.8025 69.8536 13.8025V13.0336H68.0395V13.8025H68.0376Z" fill="black"/>
<path opacity="0.2" d="M71.8414 16.5968V17.3834C71.8414 17.5584 71.9078 17.7177 72.0093 17.8416H67.7152C67.393 17.8416 67.1333 17.58 67.1333 17.2555V16.7246C67.1333 16.4001 67.393 16.1386 67.7152 16.1386H72.0034C71.9039 16.2605 71.8414 16.4218 71.8414 16.5968Z" fill="url(#paint23_linear_6560_2601)"/>
<path d="M73.8918 14.8271H72.4468V15.9106C72.4468 15.9106 72.4604 15.9087 72.4663 15.9087H73.3255V15.7317L73.8918 15.4839V14.8271ZM77.4067 20.2152H74.5362V19.8219H73.4817L72.0367 21.2574H70.3378V21.0018C70.3573 20.8445 70.2402 20.7265 70.0839 20.7265H69.8379V19.5466H77.4067V20.2152ZM69.8555 13.0376H70.0839C70.2206 13.0376 70.3378 12.9197 70.3378 12.782V12.6601H72.0367L73.4817 14.1585H74.5362V13.7652H77.4067V14.4338H69.8516L69.8555 13.0376ZM72.4468 19.1533V18.0698C72.4468 18.0698 72.4604 18.0718 72.4663 18.0718H73.3255V18.2488L73.8918 18.5162V19.1533H72.4468Z" fill="#333333"/>
</g>
<defs>
<linearGradient id="paint0_linear_6560_2601" x1="35.4658" y1="16.9901" x2="18.0728" y2="16.9901" gradientUnits="userSpaceOnUse">
<stop/>
<stop offset="0.57" stop-color="#1C1C1C"/>
<stop offset="1"/>
</linearGradient>
<linearGradient id="paint1_linear_6560_2601" x1="18.0825" y1="16.9901" x2="35.3331" y2="16.9901" gradientUnits="userSpaceOnUse">
<stop/>
<stop offset="0.1" stop-color="#343434"/>
<stop offset="0.52" stop-color="#757575"/>
<stop offset="0.92" stop-color="#323232"/>
<stop offset="1"/>
</linearGradient>
<linearGradient id="paint2_linear_6560_2601" x1="73.4817" y1="34" x2="56.1746" y2="34" gradientUnits="userSpaceOnUse">
<stop/>
<stop offset="0.57" stop-color="#1C1C1C"/>
<stop offset="1"/>
</linearGradient>
<linearGradient id="paint3_linear_6560_2601" x1="56.1765" y1="34" x2="73.3646" y2="34" gradientUnits="userSpaceOnUse">
<stop/>
<stop offset="0.1" stop-color="#343434"/>
<stop offset="0.52" stop-color="#757575"/>
<stop offset="0.92" stop-color="#323232"/>
<stop offset="1"/>
</linearGradient>
<linearGradient id="paint4_linear_6560_2601" x1="60.1249" y1="15.6628" x2="60.1249" y2="18.0225" gradientUnits="userSpaceOnUse">
<stop/>
<stop offset="0.51" stop-color="white"/>
<stop offset="1"/>
</linearGradient>
<linearGradient id="paint5_linear_6560_2601" x1="88.2657" y1="16.9337" x2="73.641" y2="16.9337" gradientUnits="userSpaceOnUse">
<stop/>
<stop offset="1"/>
</linearGradient>
<linearGradient id="paint6_linear_6560_2601" x1="81.5076" y1="16.9999" x2="97.9497" y2="16.9999" gradientUnits="userSpaceOnUse">
<stop offset="0.1"/>
<stop offset="0.13" stop-color="#202020"/>
<stop offset="0.2" stop-color="#5A5A5A"/>
<stop offset="0.28" stop-color="#8C8C8C"/>
<stop offset="0.34" stop-color="#B5B5B5"/>
<stop offset="0.41" stop-color="#D5D5D5"/>
<stop offset="0.48" stop-color="#ECECEC"/>
<stop offset="0.54" stop-color="#FAFAFA"/>
<stop offset="0.59" stop-color="white"/>
<stop offset="0.61" stop-color="#F6F6F6"/>
<stop offset="0.62" stop-color="#C3C3C3"/>
<stop offset="0.63"/>
<stop offset="0.67" stop-color="#121212"/>
<stop offset="0.74" stop-color="#414141"/>
<stop offset="0.84" stop-color="#8C8C8C"/>
<stop offset="0.9" stop-color="#C0C0C0"/>
</linearGradient>
<linearGradient id="paint7_linear_6560_2601" x1="79.0276" y1="16.9901" x2="81.5076" y2="16.9901" gradientUnits="userSpaceOnUse">
<stop/>
<stop offset="1"/>
</linearGradient>
<linearGradient id="paint8_linear_6560_2601" x1="66.3701" y1="15.3119" x2="66.3701" y2="18.6136" gradientUnits="userSpaceOnUse">
<stop/>
<stop offset="0.51" stop-color="white"/>
<stop offset="1"/>
</linearGradient>
<linearGradient id="paint9_linear_6560_2601" x1="72.8067" y1="15.9062" x2="72.8067" y2="18.0523" gradientUnits="userSpaceOnUse">
<stop/>
<stop offset="0.51" stop-color="white"/>
<stop offset="1"/>
</linearGradient>
<linearGradient id="paint10_linear_6560_2601" x1="75.851" y1="15.3118" x2="75.851" y2="18.5805" gradientUnits="userSpaceOnUse">
<stop/>
<stop offset="0.51" stop-color="white"/>
<stop offset="1"/>
</linearGradient>
<linearGradient id="paint11_linear_6560_2601" x1="54.2727" y1="21.6428" x2="55.9657" y2="21.6428" gradientUnits="userSpaceOnUse">
<stop/>
<stop offset="0.03" stop-color="#181818"/>
<stop offset="0.13" stop-color="#5D5D5D"/>
<stop offset="0.23" stop-color="#979797"/>
<stop offset="0.32" stop-color="#C4C4C4"/>
<stop offset="0.39" stop-color="#E4E4E4"/>
<stop offset="0.46" stop-color="#F7F7F7"/>
<stop offset="0.5" stop-color="white"/>
<stop offset="0.56" stop-color="#FAFAFA"/>
<stop offset="0.62" stop-color="#ECECEC"/>
<stop offset="0.68" stop-color="#D5D5D5"/>
<stop offset="0.75" stop-color="#B5B5B5"/>
<stop offset="0.82" stop-color="#8B8B8B"/>
<stop offset="0.89" stop-color="#595959"/>
<stop offset="0.97" stop-color="#1E1E1E"/>
<stop offset="1"/>
</linearGradient>
<linearGradient id="paint12_linear_6560_2601" x1="66.6765" y1="22.101" x2="71.6443" y2="22.101" gradientUnits="userSpaceOnUse">
<stop/>
<stop offset="0.03" stop-color="#181818"/>
<stop offset="0.13" stop-color="#5D5D5D"/>
<stop offset="0.23" stop-color="#979797"/>
<stop offset="0.32" stop-color="#C4C4C4"/>
<stop offset="0.39" stop-color="#E4E4E4"/>
<stop offset="0.46" stop-color="#F7F7F7"/>
<stop offset="0.5" stop-color="white"/>
<stop offset="0.56" stop-color="#FAFAFA"/>
<stop offset="0.62" stop-color="#ECECEC"/>
<stop offset="0.68" stop-color="#D5D5D5"/>
<stop offset="0.75" stop-color="#B5B5B5"/>
<stop offset="0.82" stop-color="#8B8B8B"/>
<stop offset="0.89" stop-color="#595959"/>
<stop offset="0.97" stop-color="#1E1E1E"/>
<stop offset="1"/>
</linearGradient>
<linearGradient id="paint13_linear_6560_2601" x1="67.479" y1="22.036" x2="70.3437" y2="22.036" gradientUnits="userSpaceOnUse">
<stop/>
<stop offset="0.03" stop-color="#181818"/>
<stop offset="0.13" stop-color="#5D5D5D"/>
<stop offset="0.23" stop-color="#979797"/>
<stop offset="0.32" stop-color="#C4C4C4"/>
<stop offset="0.39" stop-color="#E4E4E4"/>
<stop offset="0.46" stop-color="#F7F7F7"/>
<stop offset="0.5" stop-color="white"/>
<stop offset="0.56" stop-color="#FAFAFA"/>
<stop offset="0.62" stop-color="#ECECEC"/>
<stop offset="0.68" stop-color="#D5D5D5"/>
<stop offset="0.75" stop-color="#B5B5B5"/>
<stop offset="0.82" stop-color="#8B8B8B"/>
<stop offset="0.89" stop-color="#595959"/>
<stop offset="0.97" stop-color="#1E1E1E"/>
<stop offset="1"/>
</linearGradient>
<linearGradient id="paint14_linear_6560_2601" x1="66.6765" y1="11.8085" x2="71.6443" y2="11.8085" gradientUnits="userSpaceOnUse">
<stop/>
<stop offset="0.03" stop-color="#181818"/>
<stop offset="0.13" stop-color="#5D5D5D"/>
<stop offset="0.23" stop-color="#979797"/>
<stop offset="0.32" stop-color="#C4C4C4"/>
<stop offset="0.39" stop-color="#E4E4E4"/>
<stop offset="0.46" stop-color="#F7F7F7"/>
<stop offset="0.5" stop-color="white"/>
<stop offset="0.56" stop-color="#FAFAFA"/>
<stop offset="0.62" stop-color="#ECECEC"/>
<stop offset="0.68" stop-color="#D5D5D5"/>
<stop offset="0.75" stop-color="#B5B5B5"/>
<stop offset="0.82" stop-color="#8B8B8B"/>
<stop offset="0.89" stop-color="#595959"/>
<stop offset="0.97" stop-color="#1E1E1E"/>
<stop offset="1"/>
</linearGradient>
<linearGradient id="paint15_linear_6560_2601" x1="67.479" y1="11.7102" x2="70.3437" y2="11.7102" gradientUnits="userSpaceOnUse">
<stop/>
<stop offset="0.03" stop-color="#181818"/>
<stop offset="0.13" stop-color="#5D5D5D"/>
<stop offset="0.23" stop-color="#979797"/>
<stop offset="0.32" stop-color="#C4C4C4"/>
<stop offset="0.39" stop-color="#E4E4E4"/>
<stop offset="0.46" stop-color="#F7F7F7"/>
<stop offset="0.5" stop-color="white"/>
<stop offset="0.56" stop-color="#FAFAFA"/>
<stop offset="0.62" stop-color="#ECECEC"/>
<stop offset="0.68" stop-color="#D5D5D5"/>
<stop offset="0.75" stop-color="#B5B5B5"/>
<stop offset="0.82" stop-color="#8B8B8B"/>
<stop offset="0.89" stop-color="#595959"/>
<stop offset="0.97" stop-color="#1E1E1E"/>
<stop offset="1"/>
</linearGradient>
<linearGradient id="paint16_linear_6560_2601" x1="68.022" y1="19.2771" x2="69.8165" y2="19.2771" gradientUnits="userSpaceOnUse">
<stop/>
<stop offset="0.03" stop-color="#181818"/>
<stop offset="0.13" stop-color="#5D5D5D"/>
<stop offset="0.23" stop-color="#979797"/>
<stop offset="0.32" stop-color="#C4C4C4"/>
<stop offset="0.39" stop-color="#E4E4E4"/>
<stop offset="0.46" stop-color="#F7F7F7"/>
<stop offset="0.5" stop-color="white"/>
<stop offset="0.56" stop-color="#FAFAFA"/>
<stop offset="0.62" stop-color="#ECECEC"/>
<stop offset="0.68" stop-color="#D5D5D5"/>
<stop offset="0.75" stop-color="#B5B5B5"/>
<stop offset="0.82" stop-color="#8B8B8B"/>
<stop offset="0.89" stop-color="#595959"/>
<stop offset="0.97" stop-color="#1E1E1E"/>
<stop offset="1"/>
</linearGradient>
<linearGradient id="paint17_linear_6560_2601" x1="68.022" y1="14.5832" x2="69.8497" y2="14.5832" gradientUnits="userSpaceOnUse">
<stop/>
<stop offset="0.03" stop-color="#181818"/>
<stop offset="0.13" stop-color="#5D5D5D"/>
<stop offset="0.23" stop-color="#979797"/>
<stop offset="0.32" stop-color="#C4C4C4"/>
<stop offset="0.39" stop-color="#E4E4E4"/>
<stop offset="0.46" stop-color="#F7F7F7"/>
<stop offset="0.5" stop-color="white"/>
<stop offset="0.56" stop-color="#FAFAFA"/>
<stop offset="0.62" stop-color="#ECECEC"/>
<stop offset="0.68" stop-color="#D5D5D5"/>
<stop offset="0.75" stop-color="#B5B5B5"/>
<stop offset="0.82" stop-color="#8B8B8B"/>
<stop offset="0.89" stop-color="#595959"/>
<stop offset="0.97" stop-color="#1E1E1E"/>
<stop offset="1"/>
</linearGradient>
<linearGradient id="paint18_linear_6560_2601" x1="54.2922" y1="22.1167" x2="55.9716" y2="22.1167" gradientUnits="userSpaceOnUse">
<stop/>
<stop offset="0.1" stop-color="#151515"/>
<stop offset="0.26" stop-color="#353535"/>
<stop offset="0.4" stop-color="#484848"/>
<stop offset="0.5" stop-color="#505050"/>
<stop offset="0.6" stop-color="#4B4B4B"/>
<stop offset="0.72" stop-color="#3D3D3D"/>
<stop offset="0.85" stop-color="#262626"/>
<stop offset="0.98" stop-color="#060606"/>
<stop offset="1"/>
</linearGradient>
<linearGradient id="paint19_linear_6560_2601" x1="55.9734" y1="12.3866" x2="54.2647" y2="12.3866" gradientUnits="userSpaceOnUse">
<stop/>
<stop offset="0.03" stop-color="#181818"/>
<stop offset="0.13" stop-color="#5D5D5D"/>
<stop offset="0.23" stop-color="#979797"/>
<stop offset="0.32" stop-color="#C4C4C4"/>
<stop offset="0.39" stop-color="#E4E4E4"/>
<stop offset="0.46" stop-color="#F7F7F7"/>
<stop offset="0.5" stop-color="white"/>
<stop offset="0.56" stop-color="#FAFAFA"/>
<stop offset="0.62" stop-color="#ECECEC"/>
<stop offset="0.68" stop-color="#D5D5D5"/>
<stop offset="0.75" stop-color="#B5B5B5"/>
<stop offset="0.82" stop-color="#8B8B8B"/>
<stop offset="0.89" stop-color="#595959"/>
<stop offset="0.97" stop-color="#1E1E1E"/>
<stop offset="1"/>
</linearGradient>
<linearGradient id="paint20_linear_6560_2601" x1="55.954" y1="11.8262" x2="54.2747" y2="11.8262" gradientUnits="userSpaceOnUse">
<stop/>
<stop offset="0.1" stop-color="#151515"/>
<stop offset="0.26" stop-color="#353535"/>
<stop offset="0.4" stop-color="#484848"/>
<stop offset="0.5" stop-color="#505050"/>
<stop offset="0.6" stop-color="#4B4B4B"/>
<stop offset="0.72" stop-color="#3D3D3D"/>
<stop offset="0.85" stop-color="#262626"/>
<stop offset="0.98" stop-color="#060606"/>
<stop offset="1"/>
</linearGradient>
<linearGradient id="paint21_linear_6560_2601" x1="66.7292" y1="34" x2="71.6326" y2="34" gradientUnits="userSpaceOnUse">
<stop/>
<stop offset="0.1" stop-color="#151515"/>
<stop offset="0.26" stop-color="#353535"/>
<stop offset="0.4" stop-color="#484848"/>
<stop offset="0.5" stop-color="#505050"/>
<stop offset="0.6" stop-color="#4B4B4B"/>
<stop offset="0.72" stop-color="#3D3D3D"/>
<stop offset="0.85" stop-color="#262626"/>
<stop offset="0.98" stop-color="#060606"/>
<stop offset="1"/>
</linearGradient>
<linearGradient id="paint22_linear_6560_2601" x1="71.5799" y1="11.8262" x2="66.6765" y2="11.8262" gradientUnits="userSpaceOnUse">
<stop/>
<stop offset="0.1" stop-color="#151515"/>
<stop offset="0.26" stop-color="#353535"/>
<stop offset="0.4" stop-color="#484848"/>
<stop offset="0.5" stop-color="#505050"/>
<stop offset="0.6" stop-color="#4B4B4B"/>
<stop offset="0.72" stop-color="#3D3D3D"/>
<stop offset="0.85" stop-color="#262626"/>
<stop offset="0.98" stop-color="#060606"/>
<stop offset="1"/>
</linearGradient>
<linearGradient id="paint23_linear_6560_2601" x1="69.5703" y1="16.1386" x2="69.5703" y2="17.8416" gradientUnits="userSpaceOnUse">
<stop/>
<stop offset="0.03" stop-color="#181818"/>
<stop offset="0.13" stop-color="#5D5D5D"/>
<stop offset="0.23" stop-color="#979797"/>
<stop offset="0.32" stop-color="#C4C4C4"/>
<stop offset="0.39" stop-color="#E4E4E4"/>
<stop offset="0.46" stop-color="#F7F7F7"/>
<stop offset="0.5" stop-color="white"/>
<stop offset="0.56" stop-color="#FAFAFA"/>
<stop offset="0.62" stop-color="#ECECEC"/>
<stop offset="0.68" stop-color="#D5D5D5"/>
<stop offset="0.75" stop-color="#B5B5B5"/>
<stop offset="0.82" stop-color="#8B8B8B"/>
<stop offset="0.89" stop-color="#595959"/>
<stop offset="0.97" stop-color="#1E1E1E"/>
<stop offset="1"/>
</linearGradient>
<clipPath id="clip0_6560_2601">
<rect width="100" height="34" fill="white" transform="matrix(1 0 0 -1 0 34)"/>
</clipPath>
</defs>
</svg>
