<svg width="100" height="43" viewBox="0 0 100 43" fill="none" xmlns="http://www.w3.org/2000/svg">
<g clip-path="url(#clip0_6561_5223)">
<path d="M99.0994 22.5718V37.0933H88.6451V36.6125H88.4483V36.2081H88.6451V30.7678L91.6712 29.0302V23.9116C91.6712 23.9116 91.6761 23.9107 91.6794 23.9099C88.8811 24.3628 85.8754 24.8271 83.723 24.9625C83.4511 24.9797 83.1522 24.9994 82.8338 25.0216L83.0256 27.3319L82.0433 32.0707L81.4146 32.8607L81.257 33.5745H86.1849C86.4894 33.5745 86.7695 33.6754 86.9965 33.8444C86.9965 33.8428 86.9957 33.842 86.9957 33.842C86.9957 33.842 87.0112 33.8534 87.0365 33.8739C87.1231 33.9429 87.1998 34.0224 87.2676 34.1102C87.3493 34.2128 87.4309 34.3408 87.4824 34.4884H87.7861V35.0988H87.5518V35.6789H87.7861V36.2893H87.5518V36.8693H87.7861V37.4797H87.5518V38.0597H87.7861V38.6701H87.5518V39.2502H87.7861V39.8606H87.515C87.3746 40.4685 86.8332 40.9214 86.1857 40.9214H75.2325C74.585 40.9214 74.0436 40.4677 73.9032 39.8606H73.6321V39.2502H73.8664V38.6701H73.6321V38.0597H73.8664V37.4797H73.6321V36.8693H73.8664V36.2893H73.6321V35.6789H73.8664V35.0988H73.6321V34.4884H73.9358C73.984 34.3695 74.0396 34.2702 74.0934 34.1882C74.0975 34.1824 74.1008 34.1767 74.1049 34.1709C74.2453 33.9642 74.3784 33.8748 74.3784 33.8748C74.3784 33.8748 74.3784 33.8748 74.3784 33.8756C74.6128 33.6869 74.9092 33.5737 75.2325 33.5737H79.646L79.4492 33.0576L79.0172 32.5834L78.4946 31.9181L77.9165 31.8721L76.8158 29.2263L74.7932 25.5385H74.7981C74.6765 25.5426 74.5564 25.5475 74.4413 25.5508C73.245 25.5893 70.5121 25.6632 67.6803 25.7706L66.5167 25.824C66.5167 25.824 66.52 25.8215 66.5298 25.8158C65.3049 25.8658 64.0989 25.9224 63.026 25.9848C63.0154 25.9889 63.0105 25.9913 63.0105 25.9913L61.1193 26.1152C60.5575 26.162 60.0872 26.2104 59.7443 26.2621V28.3131C60.7241 29.1335 60.3975 30.1181 60.1256 30.7744C59.8537 31.4307 59.091 31.5948 59.091 31.5948H58.0026C58.0026 31.5948 53.456 33.8329 53.4536 33.8928C53.4364 34.3719 53.4079 34.7961 53.3483 35.2047C53.2119 36.1342 52.8853 36.6814 51.6335 37.0096C50.3817 37.3378 48.5306 37.7751 45.2644 37.803C42.4204 37.8267 39.3086 37.6011 36.1804 37.0916L35.6839 37.3968H27.8451V37.4887H18.0808V32.5096H13.0427V32.1429H21.4409C21.8769 32.252 22.3138 32.3742 22.7384 32.5055C22.7367 32.5055 22.7351 32.5038 22.7335 32.5038C22.3105 32.3726 21.8753 32.2512 21.4417 32.1429C21.0073 32.0346 20.5745 31.9386 20.1556 31.859C19.8543 31.8016 19.5604 31.7523 19.2787 31.713C18.9006 31.6621 18.6017 31.6342 18.525 31.6268C18.2808 31.6063 18.053 31.5956 17.8448 31.5956H12.7937C12.7937 31.5956 12.2025 31.1854 11.902 30.9336L11.9052 30.9368V30.9426C11.9689 30.9975 12.0253 31.0336 12.0253 31.0336L11.7795 32.2175L11.1508 33.0076L10.9932 33.7213H15.921C16.602 33.7213 17.1646 34.2226 17.2683 34.8773H17.5215V35.6477H17.2871V36.3803H17.5215V37.1507H17.2871V37.8834H17.5215V38.6537H17.2871V39.3864H17.5215V40.1567H17.2871V40.8894H17.5215V41.6598H17.2855C17.2675 42.4022 16.6641 42.9995 15.921 42.9995H4.96787C4.224 42.9995 3.62057 42.4022 3.60342 41.6598H3.36744V40.8894H3.60179V40.1567H3.36744V39.3864H3.60179V38.6537H3.36744V37.8834H3.60179V37.1507H3.36744V36.3803H3.60179V35.6477H3.36744V34.8773H3.62057C3.72427 34.2226 4.28769 33.7213 4.96787 33.7213H9.3813L9.18452 33.2053L8.75256 32.7311L8.22997 32.0657L7.67472 32.0214V33.0716H0V32.6614H0.707946V10.5099H0V10.0997H7.67554V10.9759L8.23079 10.9316L8.75338 10.2663L9.18533 9.79208L9.38212 9.27603H4.96869C4.28769 9.27603 3.72509 8.77475 3.62138 8.12006H3.36825V7.34968H3.6026V6.61704H3.36825V5.84666H3.6026V5.11403H3.36825V4.34365H3.6026V3.61101H3.36825V2.84063H3.6026V2.108H3.36825V1.33762H3.60424C3.6222 0.595139 4.22563 -0.00213242 4.96869 -0.00213242H15.9218C16.6657 -0.00213242 17.2691 0.595139 17.2863 1.33762H17.5223V2.108H17.2879V2.84063H17.5223V3.61101H17.2879V4.34365H17.5223V5.11403H17.2879V5.84666H17.5223V6.61704H17.2879V7.34968H17.5223V8.12006H17.2691C17.1654 8.77475 16.602 9.27603 15.9218 9.27603H10.994L11.1516 9.9898L11.7803 10.7799L12.0261 11.9637C12.0261 11.9637 11.9698 11.9998 11.9044 12.0548V12.0605L11.8203 12.1352C11.7836 12.1746 11.7362 12.2443 11.7101 12.3485C11.7052 12.3797 11.7011 12.4199 11.697 12.4658C11.7191 12.3379 11.7485 12.2451 11.7877 12.2058C12.0057 11.9867 12.7945 11.4403 12.7945 11.4403H15.7267C15.7022 11.4321 15.6883 11.428 15.6883 11.428H17.2896C17.3067 11.4321 17.3239 11.4362 17.341 11.4403H17.8456C18.0596 11.4403 18.2955 11.4288 18.5479 11.4075C18.5217 11.4017 18.5062 11.3985 18.5062 11.3985C18.5062 11.3985 19.3742 11.3254 20.1565 11.1646C20.1663 11.1671 20.1752 11.1696 20.1842 11.172C20.6015 11.0924 21.0318 10.9965 21.4637 10.8882C21.4401 10.8939 21.4164 10.9005 21.3927 10.9062H13.0443V10.5395H18.0824V5.56034H27.8467V5.65222H35.6855L36.1665 5.94757C39.3004 5.43563 42.418 5.21002 45.2661 5.23381C48.5323 5.26088 50.3834 5.69899 51.6351 6.02716C52.8869 6.35533 53.2135 6.90255 53.3499 7.83209C53.4863 8.76163 53.4585 9.77403 53.5132 11.3328C53.5679 12.8916 53.6218 14.2043 54.2211 14.8057C54.5339 15.1199 55.3308 15.5391 56.385 15.9223C56.3834 15.9206 56.3825 15.919 56.3825 15.919L56.5009 15.9567C55.3896 15.5629 54.5461 15.1248 54.222 14.7991C53.6234 14.1977 53.5687 12.8851 53.514 11.3263C53.483 10.4386 53.4789 9.72808 53.4552 9.10949V9.11687C53.4585 9.17676 58.005 11.4149 58.005 11.4149H59.0935C59.0935 11.4149 59.8553 11.579 60.128 12.2353C60.4 12.8916 60.7266 13.8761 59.7467 14.6966V16.7681C58.9816 16.6533 58.2345 16.4851 57.5461 16.2898L57.6784 16.3317C57.6784 16.3317 57.6784 16.3325 57.6784 16.3341C58.33 16.5138 59.0314 16.668 59.7475 16.7755C60.0962 16.828 60.5755 16.8772 61.1495 16.924C61.1308 16.9158 61.1218 16.9117 61.1218 16.9117L63.0137 17.0356C63.0137 17.0356 63.0268 17.0422 63.0603 17.0536C64.1316 17.1152 65.3343 17.1718 66.5551 17.2218C66.5281 17.2095 66.52 17.203 66.52 17.203L68.0763 17.2743C68.0763 17.2743 68.091 17.2776 68.118 17.2825C70.7913 17.381 73.3096 17.4499 74.4454 17.486C74.5621 17.4901 74.6846 17.4942 74.8087 17.4991L76.8199 13.8318L77.9206 11.186L78.4987 11.14L79.0213 10.4747L79.4532 10.0005L79.65 9.48442H75.2366C74.9133 9.48442 74.6168 9.3712 74.3825 9.1825V9.18332C74.3825 9.18332 74.2494 9.0939 74.109 8.88715C74.1049 8.88141 74.1016 8.87566 74.0975 8.86992C74.0428 8.78788 73.9881 8.68861 73.9399 8.56964H73.6362V7.95926H73.8705V7.37922H73.6362V6.76882H73.8705V6.18878H73.6362V5.57838H73.8705V4.99834H73.6362V4.38795H73.8705V3.80791H73.6362V3.19752H73.9073C74.0477 2.58958 74.5891 2.13671 75.2366 2.13671H86.1898C86.8373 2.13671 87.3786 2.5904 87.5191 3.19752H87.7902V3.80791H87.5558V4.38795H87.7902V4.99834H87.5558V5.57838H87.7902V6.18878H87.5558V6.76882H87.7902V7.37922H87.5558V7.95926H87.7902V8.56964H87.4864C87.435 8.71732 87.3533 8.84531 87.2717 8.94786C87.2039 9.03565 87.1272 9.11523 87.0406 9.18414C87.0153 9.20465 86.9998 9.21614 86.9998 9.21614C86.9998 9.21614 86.9998 9.21532 87.0006 9.21368C86.7736 9.38269 86.4935 9.4836 86.1889 9.4836H81.2611L81.4187 10.1974L82.0474 10.9874L83.0297 15.7262L82.8395 18.016C83.1571 18.0381 83.456 18.0578 83.7271 18.0751C85.8795 18.2104 88.8852 18.6748 91.6835 19.1277C91.681 19.1277 91.6786 19.1268 91.6753 19.126V14.2609L88.6492 12.4445V6.83691H88.4524V6.43245H88.6492V6.02388H99.1034V20.465C99.9633 20.8391 100.003 21.4774 100.003 21.4774V21.5578C100.003 21.5578 99.9624 22.196 99.1034 22.5702L99.0994 22.5718ZM80.9034 15.5695C80.9034 15.5695 80.4772 12.6299 80.3588 11.8399C80.4151 11.711 80.5956 11.483 80.376 11.3804C80.2331 11.314 80.1171 11.6996 80.1171 11.6996L80.1955 12.0942L79.2916 14.4242L77.5719 17.6501C78.6865 17.7215 79.855 17.8051 80.9394 17.8831L80.9034 15.5695ZM11.635 13.4856H10.7588H10.6853H10.3669C10.3669 13.4856 10.2134 12.4232 10.0958 11.6331C10.1521 11.5043 10.3326 11.2762 10.1129 11.1737C9.97003 11.1072 9.85408 11.4928 9.85408 11.4928L9.93247 11.8874L9.29883 13.5209H7.89519V13.5718H11.635C11.635 13.5406 11.635 13.5086 11.635 13.4766C11.635 13.4815 11.635 13.4848 11.635 13.4848V13.4856ZM79.2924 28.6355L80.1963 30.9655L80.1179 31.3602C80.1179 31.3602 80.2339 31.7458 80.3768 31.6793C80.5972 31.5776 80.416 31.3487 80.3596 31.2199C80.4772 30.4298 80.9043 27.4902 80.9043 27.4902L80.9402 25.1561L81.5444 25.1135C80.2959 25.2021 78.8906 25.3046 77.5621 25.39L79.2924 28.6355ZM11.7085 30.6497C11.7117 30.6628 11.7158 30.6743 11.7191 30.6858C11.7142 30.6669 11.7093 30.6472 11.7052 30.6259C11.706 30.6341 11.7076 30.6423 11.7085 30.6497ZM11.8187 30.863L11.8228 30.8671C11.8228 30.8671 11.8187 30.8638 11.8171 30.8614C11.8171 30.8614 11.8179 30.8622 11.8179 30.863H11.8187ZM11.635 29.5159V29.5167C11.635 29.5044 11.635 29.4921 11.635 29.4798H9.29883L9.93247 31.1132L9.85408 31.5078C9.85408 31.5078 9.97003 31.8934 10.1129 31.827C10.3334 31.7253 10.1521 31.4964 10.0958 31.3676C10.2134 30.5775 10.3669 29.515 10.3669 29.515H11.635V29.5159ZM11.6472 28.3886C11.6472 28.3886 11.6472 28.3943 11.6472 28.3968C11.6472 28.3943 11.6472 28.3911 11.6472 28.3886ZM24.1306 32.9953C24.1575 33.0059 24.1845 33.0166 24.2106 33.0273C24.1845 33.0166 24.1567 33.0059 24.1306 32.9953ZM24.3331 33.0781C24.3543 33.0872 24.3764 33.0962 24.3976 33.1044C24.3764 33.0954 24.3551 33.0863 24.3331 33.0781ZM23.7272 32.841C23.7615 32.8533 23.795 32.8665 23.8285 32.8788C23.795 32.8665 23.7607 32.8533 23.7272 32.841ZM23.9289 32.9165C23.9599 32.928 23.991 32.9403 24.0212 32.9518C23.991 32.9395 23.9599 32.928 23.9289 32.9165ZM11.3206 23.7311C11.5427 24.0026 11.7297 24.2627 11.7297 24.2627V25.4064H11.9493V27.5862C12.1919 27.2531 12.494 26.8134 12.494 25.9634C12.494 25.1135 11.8481 24.2783 11.3214 23.7319L11.3206 23.7311ZM11.6546 28.1334C11.6546 28.1285 11.6562 28.1236 11.657 28.1187C11.657 28.1236 11.6554 28.1285 11.6546 28.1334ZM11.6725 28.0506C11.6725 28.0506 11.675 28.0432 11.6766 28.0391C11.6758 28.0432 11.6742 28.0465 11.6725 28.0506ZM11.6987 27.9784C11.6987 27.9784 11.7011 27.9718 11.7027 27.9685C11.7011 27.9718 11.7003 27.9751 11.6987 27.9784ZM11.8865 27.6716C11.8938 27.6617 11.9004 27.6519 11.9077 27.6428C11.9004 27.6527 11.8938 27.6625 11.8865 27.6716ZM11.7354 27.9029C11.7379 27.898 11.7403 27.8931 11.7436 27.889C11.7411 27.8939 11.7387 27.8988 11.7354 27.9029ZM11.7819 27.8233C11.7819 27.8233 11.7836 27.8209 11.7844 27.8192C11.7844 27.8209 11.7828 27.8217 11.7819 27.8233ZM7.89519 26.6575V25.4055H7.67554V26.2457L7.89519 26.6567V26.6575ZM7.89519 17.6452V16.3423L7.67554 16.7534V17.6443H7.89519V17.6452ZM11.6472 14.6391C11.6472 14.6441 11.6472 14.6482 11.6472 14.6531C11.6472 14.649 11.6472 14.6441 11.6472 14.6391ZM11.6489 14.7622C11.6489 14.7688 11.6489 14.7745 11.6489 14.7811C11.6489 14.7753 11.6489 14.7688 11.6489 14.7622ZM11.7297 17.6452V18.7888C11.7297 18.7888 11.6121 18.9587 11.4521 19.1662C11.9485 18.6215 12.4932 17.8486 12.4932 17.0758C12.4932 16.225 12.191 15.7861 11.9485 15.453V17.6452H11.7289H11.7297ZM11.7844 15.22C11.7844 15.22 11.7828 15.2175 11.7819 15.2167C11.7819 15.2175 11.7836 15.2192 11.7844 15.22ZM11.7428 15.1503C11.7403 15.1453 11.737 15.1404 11.7346 15.1363C11.737 15.1412 11.7395 15.1462 11.7428 15.1503ZM11.7027 15.0707C11.7027 15.0707 11.7003 15.0641 11.6987 15.0608C11.7003 15.0641 11.7011 15.0674 11.7027 15.0707ZM11.6758 15.0001C11.6758 15.0001 11.6734 14.9927 11.6717 14.9886C11.6725 14.9927 11.6742 14.996 11.6758 15.0001ZM11.657 14.9214C11.657 14.9164 11.6554 14.9115 11.6546 14.9066C11.6546 14.9115 11.6562 14.9164 11.657 14.9214ZM23.4218 10.3081C23.3834 10.3213 23.3443 10.3352 23.3059 10.3483C23.3451 10.3352 23.3834 10.3213 23.4218 10.3081ZM23.2193 10.377C23.1777 10.391 23.1352 10.4049 23.0936 10.4189C23.136 10.4049 23.1777 10.391 23.2193 10.377ZM23.016 10.4443C22.9703 10.4591 22.9254 10.4739 22.8796 10.4886C22.9254 10.4739 22.9711 10.4591 23.016 10.4443ZM24.209 10.0128C24.182 10.0234 24.1551 10.0341 24.1273 10.0456C24.1543 10.0349 24.182 10.0243 24.209 10.0128ZM24.0171 10.0882C23.9869 10.0997 23.9558 10.112 23.9256 10.1235C23.9558 10.112 23.9869 10.1006 24.0171 10.0882ZM24.396 9.93565C24.3747 9.94468 24.3527 9.9537 24.3306 9.96273C24.3519 9.9537 24.3739 9.94468 24.396 9.93565ZM98.8773 22.6563C98.8691 22.6588 98.8609 22.6621 98.8519 22.6645C98.8601 22.6621 98.8691 22.6588 98.8773 22.6563ZM98.7515 22.694C98.7409 22.6973 98.7311 22.6998 98.7205 22.7031C98.7311 22.7006 98.7409 22.6973 98.7515 22.694ZM82.6296 25.0364L82.8207 25.0232C82.7578 25.0273 82.6941 25.0323 82.6296 25.0364ZM35.4904 36.976C35.4904 36.976 35.4847 36.9751 35.4814 36.9743C35.4847 36.9743 35.4871 36.9751 35.4904 36.976ZM22.8012 32.526C22.8282 32.5342 22.8551 32.5424 22.8821 32.5514C22.8551 32.5432 22.8282 32.5342 22.8021 32.526H22.8012ZM23.4349 32.736C23.3949 32.7221 23.354 32.7081 23.314 32.6942C23.3549 32.7081 23.3949 32.7221 23.4349 32.736ZM23.2381 32.6687C23.1932 32.6532 23.1475 32.6384 23.1017 32.6228C23.1475 32.6376 23.1932 32.6532 23.2381 32.6687ZM21.801 10.8028C21.9961 10.7512 22.1905 10.6962 22.3832 10.6396C22.3848 10.6396 22.3864 10.6388 22.3889 10.6379C22.1888 10.6962 21.988 10.7528 21.7855 10.8069C21.7904 10.8053 21.7961 10.8045 21.801 10.8028ZM35.4741 6.06572C35.4741 6.06572 35.4757 6.06572 35.4765 6.06572C35.4765 6.06572 35.4749 6.06572 35.4741 6.06572ZM98.7205 20.337C98.7311 20.3394 98.7409 20.3427 98.7515 20.346C98.7409 20.3427 98.7311 20.3403 98.7205 20.337Z" fill="#231F20"/>
<path d="M18.08 32.1431H13.0419V32.5099H18.08V32.1431ZM27.8442 37.4898H18.08V37.398H27.8442V37.4898ZM13.0427 10.9081V10.5414H18.0808V10.9081H13.0427ZM99.0993 22.5713V37.0928H88.6451V36.612H88.4483V36.2075H88.6451V30.7673L91.6712 29.0296V23.911C88.8754 24.3639 85.8729 24.8266 83.723 24.9628C81.355 25.1121 77.0003 25.4698 74.4413 25.5519C71.883 25.6339 62.3017 25.88 59.7434 26.2632V26.2558C57.1852 26.6389 54.8172 27.6234 54.2179 28.2248C53.6193 28.8262 53.5646 30.1389 53.5099 31.6977C53.4797 32.5657 53.4748 33.2638 53.4528 33.8726C53.4356 34.3599 53.407 34.7915 53.3466 35.205C53.2103 36.1345 52.8836 36.6817 51.6319 37.0099C50.3801 37.3381 48.529 37.7753 45.2628 37.8032C42.4082 37.827 39.2832 37.5998 36.142 37.0862C35.6896 37.0124 35.2364 36.9328 34.7832 36.8466C31.1904 36.1632 26.5631 34.0572 24.5764 33.1818C23.6741 32.7847 22.553 32.4213 21.4384 32.1423C20.0993 31.8076 18.7691 31.5951 17.8424 31.5951H12.7912C12.7912 31.5951 12.0016 31.0479 11.7844 30.8297C11.5664 30.6106 11.648 28.7515 11.648 28.2043C11.648 27.6571 12.4915 27.3839 12.4915 25.9621C12.4915 24.5403 10.6502 23.1177 10.6502 23.1177H7.6739V33.0719H0V32.6617H0.707946V10.5102H0V10.1H7.67554V19.932L10.6518 19.9197C10.6518 19.9197 12.4932 18.4979 12.4932 17.0753C12.4932 15.6527 11.6497 15.3794 11.6497 14.833C11.6497 14.2866 11.568 12.4267 11.786 12.2077C12.004 11.9886 12.7928 11.4422 12.7928 11.4422H17.844C18.7602 11.4422 20.0683 11.2355 21.3911 10.9073C22.522 10.6276 23.6627 10.2592 24.578 9.85554C26.5647 8.98015 31.1921 6.87495 34.7849 6.19071C35.2446 6.10293 35.7043 6.02253 36.164 5.94705C39.2979 5.4351 42.4155 5.20949 45.2636 5.23328C48.5298 5.26036 50.3809 5.69846 51.6327 6.02663C52.8844 6.3548 53.2111 6.90202 53.3474 7.83156C53.4119 8.27048 53.4397 8.72828 53.4568 9.25253C53.4756 9.83749 53.4822 10.5045 53.5107 11.3249C53.5654 12.8837 53.6193 14.1964 54.2187 14.7978C54.8115 15.3934 57.1354 16.3623 59.6626 16.7537V16.761C59.6895 16.7651 59.7173 16.7701 59.7443 16.7742C62.3025 17.1573 71.8839 17.4034 74.4421 17.4855C77.0003 17.5675 81.3558 17.9252 83.7238 18.0745C85.8737 18.2099 88.8762 18.6734 91.672 19.1263V14.2612L88.6459 12.4448V6.83721H88.4491V6.43274H88.6459V6.02417H99.1002V20.4652C99.96 20.8394 100 21.4777 100 21.4777V21.5581C100 21.5581 99.9592 22.1963 99.1002 22.5705L99.0993 22.5713ZM18.08 5.56145H27.8442V5.65334H18.08V5.56145Z" fill="#FFF200"/>
<path d="M7.89527 29.4795H9.29892L9.93256 31.113L9.85417 31.5076C9.85417 31.5076 9.97012 31.8932 10.113 31.8267C10.3335 31.725 10.1522 31.4961 10.0959 31.3673C10.2134 30.5772 10.367 29.5148 10.367 29.5148H11.6351C11.6351 29.5148 11.6751 30.5001 11.7159 30.6905C11.7518 30.8603 12.0245 31.0342 12.0245 31.0342L11.7788 32.2181L11.15 33.0082L10.9924 33.7219H9.38139L9.1846 33.2059L8.75265 32.7317L8.23006 32.0663L7.6748 32.022V26.2454L7.89446 26.6564V29.4779L7.89527 29.4795Z" fill="url(#paint0_linear_6561_5223)"/>
<path opacity="0.25" d="M99.0994 36.2076H88.4492V36.6121H99.0994V36.2076ZM99.0994 6.83809H88.4492V6.43362H99.0994V6.83809Z" fill="url(#paint1_linear_6561_5223)"/>
<path d="M82.8345 25.0218L83.0264 27.3321L82.0441 32.0709L81.4153 32.8609L81.2577 33.5747H79.6467L79.4499 33.0587L79.0179 32.5845L78.4954 31.9191L77.9172 31.8732L76.8165 29.2273L74.7939 25.5395L77.5408 25.35L79.2923 28.6349L80.1962 30.9649L80.1178 31.3596C80.1178 31.3596 80.2338 31.7452 80.3767 31.6787C80.5971 31.577 80.4159 31.3481 80.3595 31.2193C80.4771 30.4292 80.9042 27.4896 80.9042 27.4896L80.9401 25.1555L82.8345 25.021V25.0218Z" fill="url(#paint2_linear_6561_5223)"/>
<path opacity="0.35" d="M7.67554 32.6625H0V33.0728H7.67554V32.6625ZM7.67554 10.5111H0V10.1009H7.67554V10.5111Z" fill="url(#paint3_linear_6561_5223)"/>
<path opacity="0.3" d="M10.6518 23.1184H7.67554V19.9327H10.6518V23.1184Z" fill="url(#paint4_linear_6561_5223)"/>
<path d="M56.0471 17.7162H45.187C44.7183 17.7162 44.3386 18.0977 44.3386 18.5686V24.6102C44.3386 25.0811 44.7183 25.4626 45.187 25.4626H56.0471C57.8141 25.4626 60.0653 24.7571 60.0653 23.8866V19.2922C60.0653 18.4218 57.632 17.7162 56.0471 17.7162Z" fill="#231F20"/>
<path opacity="0.35" d="M21.2303 32.1433H13.042V32.51H21.2303V32.1433ZM21.2303 10.9083H13.042V10.5415H21.2303V10.9083Z" fill="url(#paint5_linear_6561_5223)"/>
<path opacity="0.35" d="M27.8443 37.0363H18.0801V37.49H27.8443V37.0363ZM27.8443 6.01447H18.0801V5.56077H27.8443V6.01447Z" fill="url(#paint6_linear_6561_5223)"/>
<path d="M49.3406 18.7004L52.7292 18.9006C52.8525 18.908 52.9758 18.9211 53.0983 18.9408L56.585 19.4133L58.8419 19.6734L60.0651 19.4133V20.7293L58.9995 20.6333L58.5986 20.9434L56.6633 21.0583L54.319 21.1313L53.0803 21.0468C52.9064 21.0353 52.7317 21.0509 52.5626 21.0927L51.2023 21.4357L50.999 21.1313L51.1141 21.4964L50.9238 21.6752L50.9638 21.9501L50.7793 22.4694L51.0635 22.0124L53.1122 22.3373C53.1489 22.3431 53.1857 22.3463 53.2224 22.3463H54.1108C54.1696 22.3463 54.2276 22.3513 54.2856 22.3603L54.7347 22.4317C54.8955 22.4571 55.0498 22.5162 55.1862 22.6056L55.4932 22.8066C55.6239 22.8919 55.6949 23.0445 55.6761 23.2004L55.6255 23.6155C55.5945 23.8682 55.4777 24.1029 55.294 24.2784C55.1405 24.4253 54.9323 24.5016 54.7208 24.4876L53.2453 24.3917C53.2265 24.3908 53.2085 24.39 53.1898 24.3917L50.8275 24.5098L49.1258 24.7781L47.8536 24.5541L47.0232 21.8377L47.5556 18.9211L49.3406 18.7012V18.7004Z" fill="url(#paint7_linear_6561_5223)"/>
<path d="M54.7558 24.802C54.7583 24.8217 54.7763 24.8365 54.7959 24.8348L55.6524 24.7495C55.7659 24.738 55.8704 24.6847 55.9472 24.6002L56.1734 24.35C56.2681 24.245 56.2991 24.0981 56.255 23.9644C56.2526 23.9578 56.2485 23.9512 56.2436 23.9471L56.1489 23.8659C56.1334 23.8528 56.1097 23.8544 56.0966 23.8708L55.9937 23.9955C55.9023 24.0899 55.8369 23.9857 55.8369 23.9857C55.7708 23.8946 55.7888 23.7962 55.832 23.7141C55.8451 23.6895 55.8092 23.6436 55.7822 23.6436H55.5854C55.5691 23.6436 55.5528 23.6452 55.5373 23.6485C55.3005 23.7084 55.0441 23.9964 54.9681 24.0407L54.7068 24.2048C54.6946 24.2121 54.6881 24.2261 54.6897 24.24L54.755 24.802H54.7558ZM54.8285 18.6669C54.831 18.6472 54.8489 18.6324 54.8685 18.6341L55.7251 18.7194C55.8386 18.7309 55.9431 18.7842 56.0199 18.8687L56.246 19.119C56.3408 19.224 56.3718 19.3708 56.3277 19.5045C56.3252 19.5111 56.3212 19.5177 56.3163 19.5218L56.2215 19.603C56.206 19.6161 56.1823 19.6145 56.1693 19.5981L56.0664 19.4734C55.9749 19.379 55.9096 19.4832 55.9096 19.4832C55.8435 19.5743 55.8614 19.6727 55.9047 19.7548C55.9178 19.7794 55.8819 19.8253 55.8549 19.8253H55.6581C55.6418 19.8253 55.6255 19.8237 55.6099 19.8204C55.3731 19.7605 55.1168 19.4726 55.0408 19.4282L54.7795 19.2642C54.7673 19.2568 54.7607 19.2428 54.7624 19.2289L54.8277 18.6669H54.8285Z" fill="white"/>
<path d="M44.0452 23.2007V19.9739C44.0452 19.4267 43.5054 18.9345 42.2104 18.9345H30.395C26.6184 18.9345 23.2192 19.4267 21.7085 19.6458C20.4707 19.8255 14.6283 20.161 12.5616 20.2767C11.8896 20.3144 11.3458 20.8649 11.3335 21.5475C11.3335 21.5565 11.3335 21.5656 11.3335 21.5746C11.3311 22.2637 11.879 22.8274 12.5575 22.8676C14.6421 22.9923 20.4739 23.35 21.7094 23.5297C23.22 23.7487 26.6193 24.241 30.3958 24.241H42.2112C43.5063 24.241 44.046 23.7487 44.046 23.2015" fill="url(#paint8_linear_6561_5223)"/>
<path d="M54.752 24.8735L55.6698 24.78C55.7825 24.7685 55.8854 24.716 55.9613 24.6323L56.1965 24.3714C56.2798 24.2795 56.3173 24.1573 56.3034 24.0367C56.2969 23.9826 56.2708 23.9325 56.2308 23.8964L56.1385 23.8135L55.9923 23.976C55.9229 24.0482 55.8437 23.9333 55.8421 23.9325C55.8421 23.9325 55.7653 23.8324 55.8584 23.6962L55.918 23.6101H55.58C55.5628 23.6101 55.5473 23.6117 55.5334 23.615C55.3554 23.6585 55.1717 23.8209 55.0509 23.9292C55.0076 23.9678 54.9708 24.0006 54.9521 24.0113L54.6875 24.2164L54.7512 24.8735H54.752ZM56.194 23.9325C56.2259 23.9653 56.2577 24.0137 56.2643 24.0597C56.2773 24.1589 56.2193 24.25 56.1491 24.328C56.1491 24.328 55.9744 24.4658 55.914 24.5847C55.8535 24.7037 55.7621 24.7193 55.6633 24.7152C55.5645 24.7111 55.0615 24.7759 54.9602 24.7841C54.859 24.7923 54.7055 24.4568 54.7504 24.3124C54.7953 24.168 54.8606 24.2008 54.948 24.1286C55.0353 24.0564 55.1872 23.8636 55.237 23.8193C55.3538 23.7159 55.4763 23.6733 55.5375 23.6675C55.5988 23.6618 55.6355 23.6577 55.6878 23.6585C55.74 23.6593 55.8152 23.6109 55.8152 23.7053C55.8152 23.7996 55.6118 23.8045 55.6118 23.8915C55.6118 23.9785 55.6812 23.976 55.7613 23.9973C55.8413 24.0187 55.8854 24.0465 55.9752 24.0334C56.065 24.0203 56.1238 23.8866 56.1238 23.8866L56.1932 23.9325H56.194ZM54.761 19.2528L55.0256 19.4579C55.0443 19.4686 55.0819 19.5022 55.1244 19.54C55.246 19.6483 55.4289 19.8107 55.6069 19.8542C55.6208 19.8575 55.6363 19.8591 55.6535 19.8591H55.9915L55.927 19.741C55.8339 19.6056 55.9156 19.5375 55.9156 19.5375C55.9172 19.5367 55.9964 19.4218 56.0658 19.494L56.212 19.6565L56.3043 19.5736C56.3443 19.5375 56.3712 19.4875 56.3769 19.4333C56.3908 19.3127 56.3533 19.1905 56.27 19.0986L56.0348 18.8377C55.9589 18.754 55.8552 18.7015 55.7433 18.69L54.8663 18.553L54.761 19.2536V19.2528ZM56.1973 19.5826C56.1973 19.5826 56.1393 19.4497 56.0487 19.4358C55.958 19.4218 55.9156 19.4505 55.8347 19.4719C55.7539 19.4932 55.6845 19.4907 55.6853 19.5777C55.6861 19.6647 55.8886 19.6696 55.8886 19.7639C55.8886 19.8583 55.8135 19.8099 55.7613 19.8107C55.709 19.8115 55.6723 19.8074 55.611 19.8017C55.5498 19.7959 55.4265 19.7533 55.3105 19.6499C55.2607 19.6056 55.1097 19.4136 55.0215 19.3406C54.9333 19.2676 54.8696 19.3012 54.8239 19.1568C54.7781 19.0124 54.9325 18.6769 55.0337 18.6851C55.135 18.6933 55.638 18.7581 55.7368 18.754C55.8356 18.7499 55.927 18.7655 55.9874 18.8844C56.0479 19.0034 56.2226 19.1412 56.2226 19.1412C56.292 19.2184 56.3508 19.3102 56.3377 19.4095C56.332 19.4555 56.3002 19.5039 56.2675 19.5367L56.1981 19.5826H56.1973Z" fill="url(#paint9_linear_6561_5223)"/>
<path opacity="0.75" d="M43.9049 19.7188C43.9049 19.5982 43.8143 19.4973 43.6942 19.4858L43.0777 19.4242C42.8352 19.4242 42.6384 19.622 42.6384 19.8656V23.1966C42.6384 23.4402 42.8352 23.6379 43.0777 23.6379L43.6942 23.5764C43.8134 23.5649 43.9049 23.464 43.9049 23.3434V19.7188Z" fill="url(#paint10_linear_6561_5223)"/>
<path d="M82.8345 18.037L83.0264 15.7267L82.0441 10.9879L81.4153 10.1979L81.2577 9.48411H79.6467L79.4499 10.0002L79.0179 10.4744L78.4954 11.1397L77.9172 11.1857L76.8165 13.8315L74.7939 17.5193L77.5408 17.7089L79.2923 14.4239L80.1962 12.0939L80.1178 11.6993C80.1178 11.6993 80.2338 11.3137 80.3767 11.3801C80.5971 11.4818 80.4159 11.7107 80.3595 11.8395C80.4771 12.6296 80.9042 15.5692 80.9042 15.5692L80.9401 17.9033L82.8345 18.0378V18.037Z" fill="url(#paint11_linear_6561_5223)"/>
<path opacity="0.2" d="M91.6721 24.7544C93.76 23.4901 99.1002 23.1185 99.1002 23.1185V22.5712C98.9533 22.6352 98.7834 22.691 98.585 22.7353C97.2238 23.0364 95.5368 23.2826 92.5156 23.7748C92.2372 23.8199 91.9563 23.8659 91.6729 23.9118V24.7544H91.6721ZM98.5842 20.3028C97.223 20.0017 95.536 19.7556 92.5148 19.2633C92.2363 19.2182 91.9555 19.1722 91.6721 19.1263V18.1172C93.7747 19.6637 99.1002 19.8212 99.1002 19.8212V20.4669C98.9533 20.4029 98.7834 20.3471 98.585 20.3028H98.5842Z" fill="#231F20"/>
<path d="M54.7568 24.9185C54.7593 24.9423 54.7446 24.9644 54.7225 24.9726L52.0328 25.912C51.9103 25.9604 51.7821 25.9891 51.6515 25.9982C51.5935 26.0023 51.5307 26.0072 51.4768 26.0129C50.9158 26.0695 48.2253 26.0884 47.2291 25.8095C47.1205 25.7791 46.8527 25.7455 46.642 25.7381C46.4705 25.7323 46.2451 25.7963 46.0786 25.6725C45.2702 25.0719 45.0171 23.6526 45.0514 22.047C45.0873 20.3389 45.173 18.6127 46.1537 17.7907C46.2525 17.7078 46.7432 17.6618 46.9939 17.7119C47.0911 17.7316 47.2699 17.693 47.372 17.6635C48.8728 17.227 49.7138 17.3419 50.5394 17.2656C50.6782 17.2525 50.8456 17.1245 50.986 17.1319C51.1583 17.1401 51.4155 17.236 51.6001 17.2582C52.5383 17.369 54.0023 18.0532 54.5511 18.3297C54.5911 18.3502 54.8899 18.3805 54.8867 18.4166C54.8809 18.4749 54.8662 18.5528 54.8662 18.5528L54.8009 19.0016L54.7609 19.3232C54.7609 19.3232 53.0805 18.753 52.2917 18.6529C51.9822 18.6135 51.6417 18.6373 51.4555 18.6185C51.3878 18.6119 51.3379 18.4412 51.2865 18.4486C51.2187 18.4593 51.2351 18.5955 51.1305 18.6004C51.0203 18.6062 51.0954 18.4954 51.0032 18.5069C50.9444 18.5143 50.9207 18.5881 50.8815 18.6234C50.8235 18.6759 50.7255 18.6562 50.6904 18.6628L48.9545 19.0139C48.5494 19.0959 48.2588 19.4528 48.2588 19.868V23.7092C48.2588 24.1038 48.5111 24.3458 48.8973 24.418L50.5769 24.82C50.6325 24.8332 50.6814 24.8643 50.7174 24.9086C50.7582 24.9587 50.8284 24.9726 50.8848 24.9423C50.9329 24.916 50.9925 24.9259 51.0293 24.9669L51.0734 25.0161C51.1273 25.0752 51.2212 25.0711 51.2694 25.0071C51.3061 24.9587 51.3616 24.9283 51.4221 24.9242L54.5331 23.9512C54.5658 23.9414 54.6009 23.9586 54.6115 23.9914L54.6866 24.217L54.7552 24.9185H54.7568Z" fill="url(#paint12_linear_6561_5223)"/>
<path d="M47.1931 19.4833C48.6105 19.4833 49.7595 20.3854 49.7595 21.4982C49.7595 22.6111 48.6105 23.5132 47.1931 23.5132C45.7757 23.5132 44.6267 22.6111 44.6267 21.4982C44.6267 20.3854 45.7757 19.4833 47.1931 19.4833Z" fill="url(#paint13_radial_6561_5223)"/>
<path d="M48.8441 21.5196C48.8441 20.3784 48.0815 20.1109 48.0815 20.1109L47.9753 19.7721C47.9753 19.7721 49.5096 19.9944 49.5096 21.4556C49.5096 22.9168 47.9753 23.2556 47.9753 23.2556L48.0725 22.9348C48.0725 22.9348 48.8441 22.6337 48.8441 21.5196Z" fill="url(#paint14_linear_6561_5223)"/>
<path d="M48.6508 21.6943H44.6391L44.6799 21.9084H48.5691L48.6508 21.6943ZM48.6508 21.3218H44.6375L44.675 21.1077H48.5691L48.6508 21.3218Z" fill="url(#paint15_radial_6561_5223)"/>
<path opacity="0.5" d="M53.4519 9.10917C53.4756 9.72777 53.4797 10.4383 53.5107 11.326C53.5654 12.8848 53.6193 14.1974 54.2186 14.7988C54.8172 15.4002 57.1852 16.3847 59.7442 16.7678V16.7473C59.7442 16.7473 59.7442 15.6881 59.7442 14.6963C60.7241 13.8758 60.3975 12.8913 60.1255 12.235C59.8536 11.5786 59.091 11.4146 59.091 11.4146H58.0025C58.0025 11.4146 53.456 9.17645 53.4535 9.11656V9.10917H53.4519Z" fill="url(#paint16_radial_6561_5223)"/>
<path opacity="0.5" d="M53.4537 33.894C53.4553 33.8342 58.0027 31.596 58.0027 31.596H59.0911C59.0911 31.596 59.853 31.432 60.1257 30.7756C60.3984 30.1193 60.7242 29.1348 59.7444 28.3143V26.2559C57.1861 26.639 54.8181 27.6236 54.2188 28.2249C53.6203 28.8263 53.5656 30.139 53.5109 31.6978C53.4806 32.5723 53.4757 33.2738 53.4529 33.8867V33.894H53.4537Z" fill="url(#paint17_radial_6561_5223)"/>
<path d="M7.89527 13.521H9.29892L9.93256 11.8876L9.85417 11.4929C9.85417 11.4929 9.97012 11.1073 10.113 11.1738C10.3335 11.2755 10.1522 11.5044 10.0959 11.6332C10.2134 12.4233 10.367 13.4857 10.367 13.4857H11.6351C11.6351 13.4857 11.6751 12.5004 11.7159 12.3101C11.7518 12.1402 12.0245 11.9663 12.0245 11.9663L11.7788 10.7824L11.15 9.99238L10.9924 9.27862H9.38139L9.1846 9.79466L8.75265 10.2689L8.23006 10.9342L7.6748 10.9785V16.7551L7.89446 16.3441V13.5227L7.89527 13.521Z" fill="url(#paint18_linear_6561_5223)"/>
<path d="M10.8869 19.9329H7.89429V13.5721H11.6341C11.6324 14.0791 11.6488 14.5886 11.6488 14.8339C11.6488 15.0538 11.7851 15.2294 11.9484 15.4534V18.7892C11.9484 18.7892 11.1556 19.9329 10.8869 19.9329Z" fill="url(#paint19_linear_6561_5223)"/>
<path d="M11.6497 28.2051C11.6497 28.4521 11.6334 28.9681 11.635 29.4792H7.89526V23.1185H10.8879C11.1231 23.1185 11.9494 24.2622 11.9494 24.2622V27.5857C11.7861 27.8097 11.6497 27.9853 11.6497 28.2051Z" fill="url(#paint20_linear_6561_5223)"/>
<path opacity="0.35" d="M21.4402 32.1431H18.0801V37.3979H35.6832L36.1796 37.0928C35.715 37.0165 35.2496 36.9352 34.785 36.8466C31.1922 36.1632 26.5648 34.0572 24.5782 33.1818C23.6759 32.7847 22.5548 32.4213 21.4402 32.1423V32.1431ZM34.785 6.19153C31.1922 6.87494 26.5648 8.98096 24.5782 9.85635C23.6628 10.26 22.5213 10.6276 21.3912 10.9081H18.0809V5.65333H35.684L36.1649 5.94868C35.7052 6.02334 35.2455 6.10456 34.7858 6.19234L34.785 6.19153Z" fill="url(#paint21_linear_6561_5223)"/>
<path d="M70.6494 21.4443C70.6494 21.4443 66.4074 18.3833 62.016 17.6236C57.6246 16.8638 57.6744 16.3322 57.6744 16.3322L56.3794 15.9204C56.3794 15.9204 57.6344 17.5235 60.0645 18.0075C62.4945 18.4916 65.3181 19.6443 66.7348 21.441V21.5895C65.3173 23.3862 62.4945 24.5381 60.0645 25.023C57.6344 25.5078 56.3794 27.1101 56.3794 27.1101L57.6744 26.6983C57.6744 26.6983 57.6246 26.1666 62.016 25.4069C66.4074 24.6472 70.6494 21.6141 70.6494 21.6141V21.4451V21.4443ZM75.1404 21.5805C75.1404 21.5805 70.9352 24.9065 66.507 25.4061C63.5144 25.7441 63.0106 25.9935 63.0106 25.9935L61.1186 26.1174C61.1186 26.1174 62.1475 25.6457 64.5783 25.1608C67.0084 24.6759 69.36 23.4051 71.7166 21.5895V21.441C69.36 19.6254 67.0084 18.3537 64.5783 17.8697C62.1483 17.3856 61.1186 16.9131 61.1186 16.9131L63.0106 17.037C63.0106 17.037 63.5152 17.2864 66.507 17.6244C70.9352 18.124 75.1404 21.45 75.1404 21.45V21.5813V21.5805ZM79.7367 21.5805C79.7367 21.5805 75.5527 25.1616 71.1034 25.4061C69.3045 25.5054 68.0732 25.7548 68.0732 25.7548L66.5168 25.8261C66.5168 25.8261 66.7446 25.6457 69.1747 25.1608C71.6047 24.6759 73.9564 23.4051 76.3129 21.5895V21.441C73.9564 19.6254 71.6047 18.3537 69.1747 17.8697C66.7446 17.3856 66.5168 17.2043 66.5168 17.2043L68.0732 17.2757C68.0732 17.2757 69.3045 17.5251 71.1034 17.6244C75.5527 17.8689 79.7367 21.45 79.7367 21.45V21.5813V21.5805Z" fill="url(#paint22_linear_6561_5223)"/>
<path d="M35.1931 21.4949C35.1931 21.4949 34.1046 19.3847 31.9269 17.9441C29.7492 16.5034 28.3202 16.7766 25.1904 15.3409C22.0606 13.9051 21.992 12.6122 21.6523 12.1642C21.3126 11.7163 21.0383 11.3684 20.1547 11.1666C19.3733 11.3274 18.5045 11.4004 18.5045 11.4004C18.5045 11.4004 19.7963 11.6531 20.1082 12.2922C20.6251 13.3514 21.5706 14.9192 23.2715 15.916C24.9724 16.9128 27.0015 17.2205 29.0902 18.8096C31.1789 20.3988 31.0426 21.4941 31.0426 21.4941V21.5302C31.0426 21.5302 31.1789 22.6246 29.0902 24.2146C27.0015 25.8046 24.9732 26.1114 23.2715 27.1082C21.5698 28.105 20.6251 29.6728 20.1082 30.732C19.7963 31.3711 18.5045 31.6238 18.5045 31.6238C18.5045 31.6238 19.3725 31.6968 20.1547 31.8576C21.0391 31.6558 21.3118 31.3071 21.6523 30.86C21.9928 30.4129 22.0606 29.1191 25.1904 27.6833C28.3202 26.2476 29.7492 26.5208 31.9269 25.0801C34.1046 23.6395 35.1931 21.5293 35.1931 21.5293V21.4932V21.4949ZM30.1991 21.531C30.1991 21.531 30.1378 22.8215 27.9601 24.2622C25.7824 25.7028 23.8096 25.3952 21.0921 27.8039C19.4215 29.2848 19.4591 30.2234 19.1186 30.6713C18.7781 31.1193 18.1714 31.3949 17.287 31.5967H15.6858C15.6858 31.5967 17.2087 31.1242 17.5206 30.4851C18.0374 29.4259 18.4441 28.6481 19.8257 27.2239C21.3224 25.6815 24.0774 24.8824 25.0989 23.9447C25.9449 23.1677 26.0469 21.5326 26.0469 21.5326V21.4965C26.0469 21.4965 25.9449 19.8614 25.0989 19.0845C24.0783 18.1467 21.3224 17.3468 19.8257 15.8052C18.4433 14.381 18.0374 13.6032 17.5206 12.5441C17.2087 11.9049 15.6858 11.4324 15.6858 11.4324H17.287C18.1714 11.6342 18.7781 11.9107 19.1186 12.3578C19.4591 12.805 19.4215 13.7443 21.0921 15.2252C23.8096 17.6331 25.7832 17.3255 27.9601 18.767C30.137 20.2084 30.1991 21.4982 30.1991 21.4982V21.5343V21.531ZM40.3112 21.531C40.3112 21.531 38.8341 24.0382 36.5567 25.5658C32.8251 28.0681 29.2503 27.8884 27.3134 28.6424C24.0121 29.928 24.498 30.988 24.1575 31.5065C23.817 32.025 23.6806 32.2933 22.7963 32.5271C22.0687 32.2588 21.44 32.1431 21.44 32.1431C21.44 32.1431 22.4762 31.8593 22.962 30.7566C23.2797 30.0355 23.5271 29.2684 25.4051 28.4357C28.201 27.196 30.8948 27.0016 33.5771 24.6018C35.6528 22.746 36.1599 21.5318 36.1599 21.5318V21.4957C36.1599 21.4957 35.6528 20.2815 33.5771 18.4257C30.894 16.0268 28.201 15.8315 25.4051 14.5918C23.5271 13.7591 23.2797 12.992 22.962 12.2709C22.4762 11.1682 21.44 10.8843 21.44 10.8843C21.44 10.8843 22.0687 10.7678 22.7963 10.5004C23.6806 10.7342 23.817 11.0033 24.1575 11.521C24.498 12.0387 24.0121 13.0995 27.3134 14.3851C29.2503 15.1391 32.8251 14.9594 36.5567 17.4617C38.8341 18.9893 40.3112 21.4965 40.3112 21.4965V21.5326V21.531Z" fill="url(#paint23_linear_6561_5223)"/>
</g>
<defs>
<linearGradient id="paint0_linear_6561_5223" x1="9.85008" y1="26.2462" x2="9.85008" y2="33.7219" gradientUnits="userSpaceOnUse">
<stop offset="0.14"/>
<stop offset="0.18" stop-color="#070707"/>
<stop offset="0.24" stop-color="#1B1B1B"/>
<stop offset="0.32" stop-color="#3B3B3B"/>
<stop offset="0.41" stop-color="#686868"/>
<stop offset="0.42" stop-color="#737373"/>
<stop offset="0.49" stop-color="#575757"/>
<stop offset="0.58" stop-color="#373737"/>
<stop offset="0.67" stop-color="#1F1F1F"/>
<stop offset="0.77" stop-color="#0D0D0D"/>
<stop offset="0.88" stop-color="#030303"/>
<stop offset="1"/>
</linearGradient>
<linearGradient id="paint1_linear_6561_5223" x1="88.4492" y1="21.5228" x2="99.0994" y2="21.5228" gradientUnits="userSpaceOnUse">
<stop stop-color="#B5B5B5"/>
<stop offset="0.25" stop-color="#4F4F4F"/>
<stop offset="1" stop-color="#0F0F0F"/>
</linearGradient>
<linearGradient id="paint2_linear_6561_5223" x1="78.9093" y1="25.0218" x2="78.9093" y2="33.5739" gradientUnits="userSpaceOnUse">
<stop offset="0.14"/>
<stop offset="0.18" stop-color="#070707"/>
<stop offset="0.24" stop-color="#1B1B1B"/>
<stop offset="0.32" stop-color="#3B3B3B"/>
<stop offset="0.41" stop-color="#686868"/>
<stop offset="0.42" stop-color="#737373"/>
<stop offset="0.49" stop-color="#575757"/>
<stop offset="0.58" stop-color="#373737"/>
<stop offset="0.67" stop-color="#1F1F1F"/>
<stop offset="0.77" stop-color="#0D0D0D"/>
<stop offset="0.88" stop-color="#030303"/>
<stop offset="1"/>
</linearGradient>
<linearGradient id="paint3_linear_6561_5223" x1="0" y1="21.5868" x2="7.67554" y2="21.5868" gradientUnits="userSpaceOnUse">
<stop offset="0.22" stop-color="#B5B5B5"/>
<stop offset="0.5" stop-color="#4F4F4F"/>
<stop offset="0.52" stop-color="#414141"/>
<stop offset="0.56" stop-color="#303030"/>
<stop offset="0.6" stop-color="#242424"/>
<stop offset="0.67" stop-color="#1D1D1D"/>
<stop offset="0.84" stop-color="#1C1C1C"/>
</linearGradient>
<linearGradient id="paint4_linear_6561_5223" x1="7.67554" y1="21.5251" x2="10.6518" y2="21.5251" gradientUnits="userSpaceOnUse">
<stop offset="0.16"/>
<stop offset="0.32" stop-color="#010101"/>
<stop offset="0.38" stop-color="#080808"/>
<stop offset="0.42" stop-color="#141414"/>
<stop offset="0.45" stop-color="#252525"/>
<stop offset="0.48" stop-color="#3B3B3B"/>
<stop offset="0.5" stop-color="#4F4F4F"/>
<stop offset="0.78" stop-color="#B5B5B5"/>
</linearGradient>
<linearGradient id="paint5_linear_6561_5223" x1="13.0428" y1="21.5254" x2="21.2303" y2="21.5254" gradientUnits="userSpaceOnUse">
<stop offset="0.22" stop-color="#B5B5B5"/>
<stop offset="0.5" stop-color="#4F4F4F"/>
<stop offset="0.52" stop-color="#414141"/>
<stop offset="0.56" stop-color="#303030"/>
<stop offset="0.6" stop-color="#242424"/>
<stop offset="0.67" stop-color="#1D1D1D"/>
<stop offset="0.84" stop-color="#1C1C1C"/>
</linearGradient>
<linearGradient id="paint6_linear_6561_5223" x1="18.0801" y1="21.5254" x2="27.8443" y2="21.5254" gradientUnits="userSpaceOnUse">
<stop offset="0.22" stop-color="#B5B5B5"/>
<stop offset="0.5" stop-color="#4F4F4F"/>
<stop offset="0.52" stop-color="#414141"/>
<stop offset="0.56" stop-color="#303030"/>
<stop offset="0.6" stop-color="#242424"/>
<stop offset="0.67" stop-color="#1D1D1D"/>
<stop offset="0.84" stop-color="#1C1C1C"/>
</linearGradient>
<linearGradient id="paint7_linear_6561_5223" x1="60.0643" y1="21.7392" x2="47.0232" y2="21.7392" gradientUnits="userSpaceOnUse">
<stop/>
<stop offset="0.33" stop-color="#1A1A1A"/>
<stop offset="0.62" stop-color="#3D3D3D"/>
<stop offset="0.88"/>
</linearGradient>
<linearGradient id="paint8_linear_6561_5223" x1="11.3327" y1="21.5869" x2="44.0452" y2="21.5869" gradientUnits="userSpaceOnUse">
<stop stop-color="#BABABA"/>
<stop offset="0.26" stop-color="#D7D7D7"/>
<stop offset="0.52" stop-color="#EDEDED"/>
<stop offset="0.77" stop-color="#FAFAFA"/>
<stop offset="1" stop-color="white"/>
</linearGradient>
<linearGradient id="paint9_linear_6561_5223" x1="56.3802" y1="21.7133" x2="54.6883" y2="21.7133" gradientUnits="userSpaceOnUse">
<stop stop-color="#515151"/>
<stop offset="0.33"/>
<stop offset="0.61" stop-color="#242424"/>
<stop offset="0.84" stop-color="#515151"/>
<stop offset="1"/>
</linearGradient>
<linearGradient id="paint10_linear_6561_5223" x1="42.6392" y1="21.5311" x2="43.9049" y2="21.5311" gradientUnits="userSpaceOnUse">
<stop/>
<stop offset="0.37" stop-color="#1C1C1C"/>
<stop offset="1" stop-color="white"/>
</linearGradient>
<linearGradient id="paint11_linear_6561_5223" x1="78.9093" y1="18.037" x2="78.9093" y2="9.48493" gradientUnits="userSpaceOnUse">
<stop offset="0.14"/>
<stop offset="0.18" stop-color="#070707"/>
<stop offset="0.24" stop-color="#1B1B1B"/>
<stop offset="0.32" stop-color="#3B3B3B"/>
<stop offset="0.41" stop-color="#686868"/>
<stop offset="0.42" stop-color="#737373"/>
<stop offset="0.49" stop-color="#575757"/>
<stop offset="0.58" stop-color="#373737"/>
<stop offset="0.67" stop-color="#1F1F1F"/>
<stop offset="0.77" stop-color="#0D0D0D"/>
<stop offset="0.88" stop-color="#030303"/>
<stop offset="1"/>
</linearGradient>
<linearGradient id="paint12_linear_6561_5223" x1="45.0481" y1="21.5892" x2="54.8867" y2="21.5892" gradientUnits="userSpaceOnUse">
<stop stop-color="#2B2B2B"/>
<stop offset="0.05" stop-color="#2F2F2F"/>
<stop offset="0.1" stop-color="#3C3D3D"/>
<stop offset="0.16" stop-color="#525354"/>
<stop offset="0.23" stop-color="#707374"/>
<stop offset="0.27" stop-color="#8D9092"/>
<stop offset="0.39" stop-color="#5F6162"/>
<stop offset="0.5" stop-color="#383939"/>
<stop offset="0.59" stop-color="#1F2020"/>
<stop offset="0.65" stop-color="#171717"/>
<stop offset="1" stop-color="#515151"/>
</linearGradient>
<radialGradient id="paint13_radial_6561_5223" cx="0" cy="0" r="1" gradientUnits="userSpaceOnUse" gradientTransform="translate(47.1931 21.4982) rotate(180) scale(2.30266 2.31359)">
<stop offset="0.4" stop-color="white"/>
<stop offset="0.48" stop-color="#FAFAFA"/>
<stop offset="0.57" stop-color="#EDEDED"/>
<stop offset="0.67" stop-color="#D7D7D7"/>
<stop offset="0.77" stop-color="#B8B8B8"/>
<stop offset="0.84" stop-color="#9E9E9E"/>
<stop offset="1" stop-color="#5C5C5C"/>
</radialGradient>
<linearGradient id="paint14_linear_6561_5223" x1="48.7421" y1="19.7721" x2="48.7421" y2="23.2556" gradientUnits="userSpaceOnUse">
<stop/>
<stop offset="0.06" stop-color="#040404"/>
<stop offset="0.12" stop-color="#121212"/>
<stop offset="0.19" stop-color="#292929"/>
<stop offset="0.26" stop-color="#494949"/>
<stop offset="0.27" stop-color="#515151"/>
<stop offset="0.34" stop-color="#393939"/>
<stop offset="0.44" stop-color="#202020"/>
<stop offset="0.5" stop-color="#171717"/>
<stop offset="0.65" stop-color="#BAB5B4"/>
<stop offset="0.85" stop-color="#515151"/>
<stop offset="1"/>
</linearGradient>
<radialGradient id="paint15_radial_6561_5223" cx="0" cy="0" r="1" gradientUnits="userSpaceOnUse" gradientTransform="translate(46.7882 21.5163) scale(2.11159 2.12162)">
<stop offset="0.38" stop-color="#B8B8B8"/>
<stop offset="0.43" stop-color="#AEAEAE"/>
<stop offset="0.53" stop-color="#939393"/>
<stop offset="0.65" stop-color="#676767"/>
<stop offset="0.79" stop-color="#2B2B2B"/>
<stop offset="0.82" stop-color="#1C1C1C"/>
<stop offset="1" stop-color="#4D4D4D"/>
</radialGradient>
<radialGradient id="paint16_radial_6561_5223" cx="0" cy="0" r="1" gradientUnits="userSpaceOnUse" gradientTransform="translate(57.7804 11.8683) scale(4.81518 4.83803)">
<stop offset="0.38" stop-color="#9C9C9C"/>
<stop offset="0.91"/>
</radialGradient>
<radialGradient id="paint17_radial_6561_5223" cx="0" cy="0" r="1" gradientUnits="userSpaceOnUse" gradientTransform="translate(56.9289 30.075) scale(3.6418 3.65909)">
<stop offset="0.38" stop-color="#9C9C9C"/>
<stop offset="0.91"/>
</radialGradient>
<linearGradient id="paint18_linear_6561_5223" x1="9.85008" y1="16.7535" x2="9.85008" y2="9.2778" gradientUnits="userSpaceOnUse">
<stop offset="0.14"/>
<stop offset="0.18" stop-color="#070707"/>
<stop offset="0.24" stop-color="#1B1B1B"/>
<stop offset="0.32" stop-color="#3B3B3B"/>
<stop offset="0.41" stop-color="#686868"/>
<stop offset="0.42" stop-color="#737373"/>
<stop offset="0.49" stop-color="#575757"/>
<stop offset="0.58" stop-color="#373737"/>
<stop offset="0.67" stop-color="#1F1F1F"/>
<stop offset="0.77" stop-color="#0D0D0D"/>
<stop offset="0.88" stop-color="#030303"/>
<stop offset="1"/>
</linearGradient>
<linearGradient id="paint19_linear_6561_5223" x1="7.8951" y1="16.7521" x2="11.9484" y2="16.7521" gradientUnits="userSpaceOnUse">
<stop offset="0.16"/>
<stop offset="0.23" stop-color="#070707"/>
<stop offset="0.34" stop-color="#1B1B1B"/>
<stop offset="0.47" stop-color="#3B3B3B"/>
<stop offset="0.62" stop-color="#686868"/>
<stop offset="0.65" stop-color="#737373"/>
<stop offset="0.98"/>
</linearGradient>
<linearGradient id="paint20_linear_6561_5223" x1="7.73278e-05" y1="26.2985" x2="0.081732" y2="26.2985" gradientUnits="userSpaceOnUse">
<stop offset="0.16"/>
<stop offset="0.23" stop-color="#070707"/>
<stop offset="0.34" stop-color="#1B1B1B"/>
<stop offset="0.47" stop-color="#3B3B3B"/>
<stop offset="0.62" stop-color="#686868"/>
<stop offset="0.65" stop-color="#737373"/>
<stop offset="0.98"/>
</linearGradient>
<linearGradient id="paint21_linear_6561_5223" x1="18.0801" y1="21.5252" x2="36.1796" y2="21.5252" gradientUnits="userSpaceOnUse">
<stop offset="0.03" stop-color="#1C1C1C"/>
<stop offset="0.13" stop-color="#232323"/>
<stop offset="0.29" stop-color="#373737"/>
<stop offset="0.42" stop-color="#4F4F4F"/>
<stop offset="0.75" stop-color="#CCCCCC"/>
</linearGradient>
<linearGradient id="paint22_linear_6561_5223" x1="68.0585" y1="15.9195" x2="68.0585" y2="27.1093" gradientUnits="userSpaceOnUse">
<stop stop-color="white"/>
<stop offset="0.04" stop-color="#E5E5E5"/>
<stop offset="0.14" stop-color="#B1B1B1"/>
<stop offset="0.18" stop-color="#9E9E9E"/>
<stop offset="0.21" stop-color="#B1B1B1"/>
<stop offset="0.25" stop-color="#CDCDCD"/>
<stop offset="0.3" stop-color="#E3E3E3"/>
<stop offset="0.35" stop-color="#F3F3F3"/>
<stop offset="0.41" stop-color="#FCFCFC"/>
<stop offset="0.5" stop-color="white"/>
<stop offset="0.6" stop-color="#FCFCFC"/>
<stop offset="0.68" stop-color="#F3F3F3"/>
<stop offset="0.74" stop-color="#E3E4E5"/>
<stop offset="0.79" stop-color="#CECFD0"/>
<stop offset="0.85" stop-color="#AFB1B3"/>
<stop offset="1" stop-color="white"/>
</linearGradient>
<linearGradient id="paint23_linear_6561_5223" x1="27.9993" y1="10.4987" x2="27.9993" y2="32.5271" gradientUnits="userSpaceOnUse">
<stop stop-color="white"/>
<stop offset="0.08" stop-color="#E5E5E5"/>
<stop offset="0.26" stop-color="#B1B1B1"/>
<stop offset="0.35" stop-color="#9E9E9E"/>
<stop offset="0.36" stop-color="#B1B1B1"/>
<stop offset="0.38" stop-color="#CDCDCD"/>
<stop offset="0.41" stop-color="#E3E3E3"/>
<stop offset="0.43" stop-color="#F3F3F3"/>
<stop offset="0.46" stop-color="#FCFCFC"/>
<stop offset="0.5" stop-color="white"/>
<stop offset="0.54" stop-color="#FCFCFC"/>
<stop offset="0.57" stop-color="#F3F3F3"/>
<stop offset="0.6" stop-color="#E3E4E5"/>
<stop offset="0.62" stop-color="#CECFD0"/>
<stop offset="0.64" stop-color="#AFB1B3"/>
<stop offset="1" stop-color="white"/>
</linearGradient>
<clipPath id="clip0_6561_5223">
<rect width="100" height="43" fill="white" transform="matrix(1 0 0 -1 0 43)"/>
</clipPath>
</defs>
</svg>
