<svg width="100" height="56" viewBox="0 0 100 56" fill="none" xmlns="http://www.w3.org/2000/svg">
<mask id="mask0_2587_195" style="mask-type:alpha" maskUnits="userSpaceOnUse" x="0" y="1" width="100" height="54">
<rect width="100" height="52.0332" transform="matrix(1 0 0 -1 0 54.0297)" fill="#D9D9D9"/>
</mask>
<g mask="url(#mask0_2587_195)">
<path d="M82.2272 50.0239C82.2272 50.0239 68.145 49.9066 67.4619 49.2648C66.7781 48.6236 65.6841 47.7484 65.6841 47.7484L65.9576 36.7044L81.9537 35.7702L82.2272 39.2121V50.0239Z" fill="black"/>
<path d="M82.2272 6.00183C82.2272 6.00183 68.145 6.11853 67.4619 6.76034C66.7781 7.40154 65.6841 8.27674 65.6841 8.27674L65.9576 19.3213L81.9537 20.2549L82.2272 16.813V6.00183Z" fill="black"/>
<path d="M92.9102 29.5101H99.1409C99.2386 29.5101 99.3167 29.4323 99.3167 29.3545V26.6906C99.3167 26.5933 99.2386 26.5155 99.1409 26.5155H92.9102C92.8125 26.5155 92.7344 26.5933 92.7344 26.6906V29.3545C92.7539 29.4323 92.8321 29.5101 92.9102 29.5101Z" fill="black"/>
<path d="M45.0003 50.3547C45.684 50.3547 46.2311 49.8102 46.2311 49.1294V7.73235C46.2311 7.05163 45.684 6.50768 45.0003 6.50768C44.3165 6.50768 43.7695 7.05163 43.7695 7.73235V49.1294C43.7695 49.7907 44.3165 50.3547 45.0003 50.3547Z" fill="black"/>
<path d="M44.0042 44.0747H61.5821C62.3245 44.0747 62.9106 42.8494 62.9106 41.3525V14.6746C62.9106 13.1582 62.3245 11.9329 61.5821 11.9329H44.0042C43.2619 11.9329 42.6758 13.1582 42.6758 14.6746V41.3525C42.6764 42.8689 43.2814 44.0747 44.0042 44.0747Z" fill="black"/>
<path d="M43.1837 51.7161H45.1757C45.4493 51.7161 45.6837 51.4827 45.6837 51.2104V5.10793C45.6837 4.83564 45.4493 4.60225 45.1757 4.60225H43.1837C42.9102 4.60225 42.6758 4.83564 42.6758 5.10793V51.191C42.6758 51.4827 42.9102 51.7161 43.1837 51.7161Z" fill="black"/>
<path d="M19.1607 54.0297C19.0044 54.0297 18.8872 53.913 18.8872 53.7574C18.8872 53.6018 19.0044 53.4851 19.1607 53.4851H20.0008C19.9812 53.4462 19.9812 53.3878 19.9812 53.3489C19.9812 53.31 19.9812 53.2517 20.0008 53.2128H19.7077C19.3951 53.2128 19.1607 52.96 19.1607 52.6689C19.1607 52.3771 19.4147 52.1243 19.7077 52.1243H23.809C24.1216 52.1243 24.356 52.3771 24.356 52.6689C24.356 52.96 24.102 53.2128 23.809 53.2128H23.516C23.5355 53.2517 23.5355 53.31 23.5355 53.3489C23.5355 53.3878 23.5355 53.4462 23.516 53.4851H24.356C24.5123 53.4851 24.6295 53.6018 24.6295 53.7574C24.6295 53.913 24.5123 54.0297 24.356 54.0297H19.1607Z" fill="black"/>
<path d="M19.1607 1.9969C19.0044 1.9969 18.8872 2.11359 18.8872 2.26919C18.8872 2.42478 19.0044 2.54147 19.1607 2.54147H20.0008C19.9812 2.58037 19.9812 2.63872 19.9812 2.67762C19.9812 2.71652 19.9812 2.77486 20.0008 2.81376H19.7077C19.3951 2.81376 19.1607 3.0666 19.1607 3.35771C19.1607 3.64944 19.4147 3.90228 19.7077 3.90228L23.809 3.90228C24.1216 3.90228 24.356 3.64944 24.356 3.35771C24.356 3.0666 24.102 2.81376 23.809 2.81376H23.516C23.5355 2.77486 23.5355 2.71652 23.5355 2.67762C23.5355 2.63872 23.5355 2.58037 23.516 2.54147L24.356 2.54147C24.5123 2.54147 24.6295 2.42478 24.6295 2.26919C24.6295 2.11359 24.5123 1.9969 24.356 1.9969L19.1607 1.9969Z" fill="black"/>
<path d="M9.84384 14.674L13.1252 15.627L14.0819 19.4378L9.29683 19.1655L6.83594 18.3493L9.84384 14.674ZM9.84384 41.3519L6.83594 37.6767L9.29683 36.8604L14.0819 36.5882L13.1252 40.3989L9.84384 41.3519Z" fill="black"/>
<path d="M4.92236 37.5207L14.3557 39.3289L14.3557 16.1706L4.92236 17.9788L4.92236 37.5207Z" fill="black"/>
<path d="M56.8362 45.5709C57.5591 45.5709 58.1256 44.9875 58.1256 44.2678V38.1433C58.1256 37.4236 57.5395 36.8402 56.8362 36.8402C56.1134 36.8402 55.5469 37.4236 55.5469 38.1433V44.2873C55.5469 45.0069 56.1134 45.5709 56.8362 45.5709Z" fill="black"/>
<path d="M11.7581 19.0292C12.1293 19.0292 12.4419 19.3403 12.4419 19.7099C12.4419 20.0788 12.1293 20.39 11.7581 20.39C11.5823 20.39 11.426 20.3316 11.3088 20.2149L8.98464 21.1679L9.06278 21.2846L9.29721 21.343L9.57071 21.7514L17.5004 24.6098L18.3209 25.2899L9.70746 22.296H8.88696L8.6916 22.2376L12.3051 23.5206L11.8949 24.0652L7.01214 22.3738C6.91446 22.4127 6.81678 22.4321 6.69956 22.4321C6.40652 22.4321 6.15256 22.2765 6.05488 22.0431L4.70753 21.5764C4.55124 21.693 4.33635 21.7514 4.10191 21.7514C3.65259 21.7514 3.28141 21.4986 3.28141 21.2068C3.28141 21.1679 3.28141 21.129 3.30094 21.0707H3.28141H1.91452L0 20.5261L0.547006 19.5737L2.32477 19.9815L2.87115 20.5261L3.67212 20.74C3.78934 20.6817 3.94563 20.6622 4.10191 20.6622C4.4731 20.6622 4.80521 20.8373 4.90289 21.0707H4.92242C4.92242 21.0707 6.93399 21.2457 7.38332 20.9345C7.63729 20.7595 8.02738 20.74 8.33995 20.7595L11.0743 19.7099C11.0939 19.3209 11.3869 19.0292 11.7581 19.0292ZM11.7581 36.9957C11.3869 36.9957 11.0743 36.704 11.0743 36.3345L8.33995 35.2848C8.04691 35.3043 7.63729 35.2848 7.38332 35.1098C6.93399 34.7986 4.92242 34.9736 4.92242 34.9736H4.90289C4.80521 35.207 4.49263 35.3626 4.10191 35.3626C3.94563 35.3626 3.80888 35.3237 3.67212 35.2848L2.87115 35.4988L2.32477 36.0427L0.547006 36.4512L0 35.4988L1.91452 34.9542H3.28141H3.30094C3.28141 34.9153 3.28141 34.8764 3.28141 34.8181C3.28141 34.5069 3.65259 34.2735 4.10191 34.2735C4.35588 34.2735 4.57078 34.3513 4.70753 34.4485L6.05488 33.9817C6.15256 33.7484 6.40652 33.5928 6.69956 33.5928C6.81678 33.5928 6.91446 33.6122 7.01214 33.6511L11.8949 31.9597L12.3051 32.5042L8.6916 33.7873L8.88696 33.7289H9.70746L18.3405 30.7344L17.5199 31.4151L9.57071 34.2735L9.29721 34.6819L9.06278 34.7403L8.98464 34.857L11.3088 35.7899C11.426 35.6738 11.5823 35.6155 11.7581 35.6155C12.1293 35.6155 12.4419 35.926 12.4419 36.2956C12.4419 36.704 12.1488 36.9957 11.7581 36.9957Z" fill="black"/>
<path d="M17.9304 38.7651H11.895V28.0123L11.895 17.2595H17.9108V28.0123L17.9304 38.7651Z" fill="black"/>
<path d="M85.3709 12.6324L84.4136 14.5378C84.4136 14.5378 84.4332 15.1213 84.2769 15.3547C84.1206 15.5874 83.8672 15.8986 83.8672 15.8986L84.004 21.0708L80.3123 20.5269L80.7226 15.8986C80.7226 15.8986 80.2342 15.2963 80.1756 15.0824C80.117 14.8684 80.1756 14.674 80.1756 14.674L78.9448 12.6324H85.3709ZM85.3709 43.3934L84.4136 41.488C84.4136 41.488 84.4332 40.9045 84.2769 40.6711C84.1206 40.4377 83.8672 40.1265 83.8672 40.1265L84.004 34.9543L80.3123 35.4989L80.7226 40.1265C80.7226 40.1265 80.2342 40.7489 80.1756 40.9434C80.117 41.1574 80.1756 41.3518 80.1756 41.3518L78.9448 43.3934H85.3709Z" fill="black"/>
<path d="M40.5662 52.2793H37.2848C37.0113 52.5321 36.6401 52.6683 36.2501 52.6683H7.26567C6.87496 52.6683 6.50377 52.5127 6.23027 52.2793H2.94886C2.30418 52.2793 1.79688 49.5765 1.79688 46.2708C1.79688 42.9657 2.32371 40.2629 2.94886 40.2629H6.23027C6.50377 40.01 6.87496 39.8739 7.26567 39.8739H36.2501C36.6597 39.8739 37.0113 40.0295 37.2848 40.2629H40.5662C41.2109 40.2629 41.7189 42.9462 41.7189 46.2708C41.7189 49.5959 41.2109 52.2793 40.5662 52.2793Z" fill="black"/>
<path d="M40.5662 3.74695C41.2109 3.74695 41.7189 6.44975 41.7189 9.75547C41.7189 13.0606 41.1914 15.7634 40.5662 15.7634H37.2848C37.0113 16.0162 36.6401 16.1523 36.2501 16.1523L7.26567 16.1523C6.87496 16.1523 6.50377 15.9968 6.23027 15.7634H2.94886C2.30418 15.7634 1.79688 13.0606 1.79688 9.75547C1.79688 6.44975 2.32371 3.74695 2.94886 3.74695H6.23027C6.50377 3.49411 6.87496 3.35797 7.26567 3.35797L36.2501 3.35797C36.6597 3.35797 37.0113 3.51357 37.2848 3.74695H40.5662Z" fill="black"/>
<path d="M54.864 12.0496V12.4192C55.4299 12.4581 55.9769 12.5164 56.2309 12.6137C56.2504 12.6137 56.2699 12.6331 56.2895 12.672L58.008 10.7861C57.0123 11.1362 55.508 11.6996 54.864 12.0496ZM54.864 43.9775C55.5276 44.3276 57.0123 44.8916 58.008 45.2417L56.2895 43.3357L56.2309 43.3941C55.9769 43.4913 55.4299 43.5497 54.864 43.5886V43.9775ZM59.3169 47.0304C59.2974 47.361 59.0239 47.5555 58.7504 47.4777C58.4964 47.3999 58.3206 47.0888 58.3596 46.797L58.4964 45.8829L55.6643 44.9111C55.4103 44.8138 55.1179 44.6971 54.8444 44.5416V46.5053V46.9526L54.6881 47.0304C54.5123 47.3222 54.1997 47.4972 53.8481 47.4972H53.7504H44.7267H44.4929C43.9459 47.4972 43.4966 47.0499 43.4966 46.5053V44.6388V42.325V40.8469C43.4966 40.3029 43.9459 39.8556 44.4929 39.8556H45.43L50.3909 28.0136L45.43 16.1722H44.4929C43.9459 16.1722 43.4966 15.7249 43.4966 15.1803V13.7223V11.4078V9.54133C43.4966 8.99676 43.9459 8.55006 44.4929 8.55006H44.7267H53.7504H53.8481C54.1997 8.55006 54.5319 8.74392 54.6881 9.01621L54.8444 9.09401V9.54133V11.4856C55.1179 11.33 55.4103 11.214 55.6643 11.1167L58.4964 10.1443L58.3596 9.23015C58.3206 8.93841 58.4769 8.62723 58.7504 8.56951C59.0239 8.49171 59.2778 8.68557 59.3169 9.01621L59.5318 11.5245C59.5513 11.7579 59.3755 11.9135 59.1411 11.9135C58.9262 11.894 58.7308 11.7385 58.6918 11.5245L58.5745 10.7666C58.0861 11.3689 57.2272 12.3997 57.0123 12.6331C56.8365 12.8082 56.602 13.0026 56.4262 13.1388C56.9732 15.1609 57.4225 22.433 57.4225 22.433L57.8523 28.0136L57.4225 33.5942C57.4225 33.5942 56.9732 40.8663 56.4262 42.889C56.602 43.0252 56.8365 43.219 57.0123 43.3941C57.2272 43.6274 58.0666 44.6583 58.5745 45.2612L58.6918 44.5027C58.7113 44.2887 58.9066 44.1137 59.1411 44.1137C59.3755 44.1137 59.5513 44.2693 59.5318 44.5027L59.3169 47.0304Z" fill="black"/>
<path d="M95.6248 50.3932C96.0741 50.3932 96.4453 47.8071 96.4453 44.6375C96.4453 41.468 96.0741 38.8819 95.6248 38.8819H93.3201C93.1248 38.6485 92.8708 38.5123 92.5778 38.5123H72.1287C71.8552 38.5123 71.5817 38.6485 71.3863 38.8819H69.0817C68.6324 38.8819 68.2612 41.468 68.2612 44.6375C68.2612 47.8071 68.6324 50.3932 69.0817 50.3932H71.3863C71.5817 50.6266 71.8357 50.7628 72.1287 50.7628H92.5778C92.8513 50.7628 93.1248 50.6266 93.3201 50.3932H95.6248Z" fill="black"/>
<path d="M95.6248 5.63284C96.0741 5.63284 96.4453 8.21895 96.4453 11.3885C96.4453 14.5581 96.0741 17.1442 95.6248 17.1442H93.3201C93.1248 17.3776 92.8708 17.5137 92.5778 17.5137H72.1287C71.8552 17.5137 71.5817 17.3776 71.3863 17.1442H69.0817C68.6324 17.1442 68.2612 14.5581 68.2612 11.3885C68.2612 8.21895 68.6324 5.63284 69.0817 5.63284H71.3863C71.5817 5.39945 71.8357 5.26331 72.1287 5.26331L92.5778 5.26331C92.8513 5.26331 93.1248 5.39945 93.3201 5.63284H95.6248Z" fill="black"/>
<path d="M0.156287 36.8597H1.46519C1.56224 36.8597 1.62085 36.7819 1.62085 36.7041L1.62085 34.0402C1.62085 33.943 1.54271 33.8847 1.46519 33.8847H0.156287C0.0586078 33.8847 0 33.9625 0 34.0402L0 36.7041C0 36.8014 0.0781437 36.8597 0.156287 36.8597Z" fill="black"/>
<path d="M0.156287 22.2963H1.46519C1.56224 22.2963 1.62085 22.2185 1.62085 22.1407L1.62085 19.4574C1.62085 19.3601 1.54271 19.3018 1.46519 19.3018H0.156287C0.0586078 19.3018 0 19.3796 0 19.4574L0 22.1213C0 22.2185 0.0781437 22.2963 0.156287 22.2963Z" fill="black"/>
<rect width="1.64039" height="18.2389" transform="matrix(1 0 0 -1 1.50391 37.133)" fill="black"/>
<rect width="3.14465" height="1.22529" transform="matrix(1 0 0 -1 2.59766 34.2742)" fill="black"/>
<rect width="3.14465" height="1.22529" transform="matrix(1 0 0 -1 2.59766 22.9764)" fill="black"/>
<path d="M85.7817 36.9961C85.7817 36.9961 83.9655 32.5046 83.1255 28.0709V28.0514V28.032C83.9655 23.5794 85.7817 19.1073 85.7817 19.1073C85.7817 19.1073 96.0942 18.1154 96.0942 24.688V31.4349C96.0747 38.0075 85.7817 36.9961 85.7817 36.9961Z" fill="black"/>
<path d="M98.7313 28.0707C98.7313 27.8574 98.7313 27.6629 98.7509 27.5656C98.7313 27.7407 98.7313 27.9151 98.7313 28.0707ZM98.7509 28.5764C98.7313 28.4986 98.7313 28.3041 98.7313 28.0707C98.7313 28.2457 98.7313 28.4208 98.7509 28.5764ZM98.7704 29.1793C98.7704 29.1793 98.7509 28.907 98.7509 28.5958C98.7509 28.4402 98.7313 28.2457 98.7313 28.0901C98.7313 27.9345 98.7313 27.7601 98.7509 27.5851C98.7704 27.2739 98.7704 27.0016 98.7704 27.0016L96.583 22.2378L96.8565 22.1017H98.0866L100.001 26.846V27.5267V28.6153V29.296L98.0866 34.0598H96.8565L96.583 33.9236L98.7704 29.1793Z" fill="black"/>
<path d="M19.1606 19.0679V19.2819L12.5984 19.0096L11.817 18.2316C10.2352 17.6293 8.96537 16.5985 8.77001 14.7904C8.30114 10.3177 13.2425 8.21783 14.7858 7.98444C16.3285 7.75105 36.0554 8.14003 37.3637 8.25673C38.6726 8.37342 39.3563 8.7624 40.2348 9.48202C41.1139 10.201 43.0864 12.3015 43.2427 12.4766C43.399 12.651 22.1685 19.6903 22.1685 19.6903C22.1685 19.6903 20.6844 19.2235 19.1606 19.0679ZM15.0593 30.0541H10.8011L10.8011 28.0126V25.9705H15.0398L15.0398 28.0126L15.0593 30.0541ZM11.7974 37.793L12.5789 37.015L19.1411 36.7428V36.9567C20.6649 36.8011 22.149 36.3155 22.149 36.3155C22.149 36.3155 43.3795 43.3736 43.2232 43.5292C43.0669 43.7043 41.0944 45.8042 40.2153 46.5238C39.3368 47.2428 38.6335 47.6317 37.3441 47.7484C36.0359 47.8651 16.309 48.2541 14.7663 48.0207C13.2229 47.7873 8.28161 45.6875 8.75047 41.2154C8.94583 39.4261 10.2157 38.3765 11.7974 37.793Z" fill="black"/>
<path d="M92.7154 28.0325C92.7154 32.2323 93.5946 36.1215 87.1099 37.3072C77.4617 38.1241 57.1096 33.7688 52.813 32.7963C52.8521 31.3383 52.8716 29.6656 52.8521 28.0131V27.9742C52.8521 26.3411 52.8521 24.649 52.813 23.191C57.1096 22.238 77.4617 17.8826 87.1099 18.68C93.5946 19.8658 92.7154 23.7744 92.7154 27.9547V28.0325Z" fill="black"/>
<path d="M52.8711 28.0127C52.8907 31.2601 52.8125 34.6819 52.6758 36.1794C52.4413 38.7655 52.1874 40.1069 51.8553 41.2155C51.5231 42.3241 51.2112 42.7124 50.4884 42.7124C49.7655 42.7124 47.3046 42.8097 46.66 42.9847C45.9964 43.1598 45.254 43.7044 44.8828 44.0739C44.5116 44.4434 44.1209 44.5018 43.652 44.6185C43.1838 44.7352 28.5936 44.9102 26.8165 44.8907C25.0387 44.8713 21.6993 44.988 20.6639 44.7546C19.6285 44.5212 18.4375 44.21 17.9295 43.1209C17.4216 42.0324 17.2458 40.8071 17.2458 40.8071L17.656 40.3986L17.2458 37.6764H16.8361C16.8361 37.6764 16.4454 33.1655 16.504 28.0127C16.4454 22.8405 16.8361 18.349 16.8361 18.349H17.2458L17.656 15.6268L17.2458 15.2183C17.2458 15.2183 17.4216 13.993 17.9295 12.9045C18.4375 11.8154 19.6285 11.5042 20.6639 11.2708C21.6993 11.0374 25.0583 11.1541 26.8165 11.1346C28.5741 11.1152 43.1838 11.2902 43.6325 11.4069C44.1014 11.5236 44.4921 11.582 44.8633 11.9515C45.2345 12.321 45.9768 12.8656 46.6404 13.0407C47.3046 13.2157 49.746 13.3129 50.4688 13.3129C51.1917 13.3129 51.5042 13.7013 51.8357 14.8099C52.1678 15.9185 52.4218 17.2599 52.6562 19.846C52.793 21.3435 52.8711 24.7653 52.8711 28.0127Z" fill="black"/>
<mask id="mask1_2587_195" style="mask-type:alpha" maskUnits="userSpaceOnUse" x="0" y="1" width="100" height="54">
<rect width="100" height="52.0335" transform="matrix(1 0 0 -1 0 54.0297)" fill="#D9D9D9"/>
</mask>
<g mask="url(#mask1_2587_195)">
<path d="M93.7112 33.8074H97.2661L98.086 32.5821L92.7539 32.4466L93.7112 33.8074Z" fill="#161616"/>
<path d="M93.7112 22.3545H97.2661L98.086 23.5798L92.7539 23.7153L93.7112 22.3545Z" fill="#161616"/>
</g>
<path d="M40.5662 52.2792H37.2848C37.0113 52.5321 36.6401 52.6682 36.2501 52.6682H7.26567C6.87496 52.6682 6.50377 52.5126 6.23027 52.2792H2.94886C2.30418 52.2792 1.79688 49.5764 1.79688 46.2707C1.79688 42.9656 2.32371 40.2628 2.94886 40.2628H6.23027C6.50377 40.01 6.87496 39.8738 7.26567 39.8738H36.2501C36.6597 39.8738 37.0113 40.0294 37.2848 40.2628H40.5662C41.2109 40.2628 41.7189 42.9462 41.7189 46.2707C41.7189 49.5959 41.2109 52.2792 40.5662 52.2792Z" fill="#2C2C2C"/>
<path d="M40.5662 3.74689C41.2109 3.74689 41.7189 6.44969 41.7189 9.75541C41.7189 13.0605 41.1914 15.7633 40.5662 15.7633H37.2848C37.0113 16.0161 36.6401 16.1523 36.2501 16.1523L7.26567 16.1523C6.87496 16.1523 6.50377 15.9967 6.23027 15.7633H2.94886C2.30418 15.7633 1.79688 13.0605 1.79688 9.75541C1.79688 6.44969 2.32371 3.74689 2.94886 3.74689H6.23027C6.50377 3.49405 6.87496 3.35791 7.26567 3.35791L36.2501 3.35791C36.6597 3.35791 37.0113 3.51351 37.2848 3.74689H40.5662Z" fill="#2C2C2C"/>
<path d="M8.18332 15.8604H6.63998C6.63998 15.8604 6.05454 14.2656 7.12838 12.1268C8.10518 10.1825 9.51114 9.07393 9.94093 9.4629C10.3707 9.85189 10.3316 10.2409 8.96413 11.9907C7.59725 13.7216 8.18332 15.8604 8.18332 15.8604ZM40.1951 3.74612C40.1951 3.74612 39.6091 6.31278 40.1951 7.30468C41.0346 8.74329 40.7611 9.26841 40.2537 9.6574C39.7458 10.0464 39.3942 9.42401 38.8081 7.49917C38.1634 5.37985 38.9253 3.76558 38.9253 3.76558L40.1951 3.74612ZM4.31584 15.7826L3.0271 15.7632C3.0271 15.7632 2.2652 14.1489 2.90988 12.0296C3.49533 10.1047 3.84698 9.48236 4.37445 9.87133C4.88238 10.2603 5.15588 10.7854 4.31584 12.224C3.72976 13.216 4.31584 15.7826 4.31584 15.7826ZM5.29264 3.74612C5.29264 3.74612 4.70656 6.31278 5.29264 7.30468C6.13205 8.74329 5.85918 9.26841 5.35124 9.6574C4.84331 10.0464 4.49166 9.42401 3.88605 7.49917C3.24199 5.37985 4.00327 3.76558 4.00327 3.76558L5.29264 3.74612ZM11.2889 3.74612C11.2889 3.74612 10.7028 5.88552 12.0697 7.61587C13.4372 9.36566 13.4763 9.75464 13.0465 10.1436C12.6167 10.5326 11.2108 9.42401 10.234 7.47972C9.15949 5.34095 9.74557 3.74612 9.74557 3.74612H11.2889ZM14.0038 15.8604H12.4604C12.4604 15.8604 11.8744 14.2656 12.9488 12.1268C13.9256 10.1825 15.3316 9.07393 15.7614 9.4629C16.1912 9.85189 16.1521 10.2409 14.7846 11.9907C13.4177 13.7216 14.0038 15.8604 14.0038 15.8604ZM17.0892 3.74612C17.0892 3.74612 16.5037 5.88552 17.8706 7.61587C19.2186 9.36566 19.2772 9.75464 18.8474 10.1436C18.4176 10.5326 17.011 9.42401 16.0349 7.47972C14.9604 5.34095 15.5465 3.74612 15.5465 3.74612H17.0892ZM19.804 15.8604H18.2613C18.2613 15.8604 17.6753 14.2656 18.7497 12.1268C19.7259 10.1825 21.1325 9.07393 21.5623 9.4629C21.9921 9.85189 21.953 10.2409 20.5855 11.9907C19.2381 13.7216 19.804 15.8604 19.804 15.8604ZM22.9096 3.74612C22.9096 3.74612 22.3236 5.88552 23.6911 7.61587C25.058 9.36566 25.097 9.75464 24.6679 10.1436C24.2381 10.5326 22.8315 9.42401 21.8553 7.47972C20.7808 5.34095 21.3669 3.74612 21.3669 3.74612H22.9096ZM37.2654 15.8604H35.722C35.722 15.8604 35.1366 14.2656 36.2104 12.1268C37.1872 10.1825 38.5932 9.07393 39.023 9.4629C39.4528 9.85189 39.4137 10.2409 38.0462 11.9907C36.6793 13.7216 37.2654 15.8604 37.2654 15.8604ZM31.4449 15.8604H29.9022C29.9022 15.8604 29.3162 14.2656 30.39 12.1268C31.3668 10.1825 32.7728 9.07393 33.2025 9.4629C33.6323 9.85189 33.5933 10.2409 32.2264 11.9907C30.8589 13.7216 31.4449 15.8604 31.4449 15.8604ZM34.5505 3.74612C34.5505 3.74612 33.9644 5.88552 35.332 7.61587C36.6793 9.36566 36.7379 9.75464 36.3081 10.1436C35.8783 10.5326 34.4724 9.42401 33.4956 7.47972C32.4217 5.34095 33.0072 3.74612 33.0072 3.74612H34.5505ZM25.6245 15.8604H24.0818C24.0818 15.8604 23.4957 14.2656 24.5702 12.1268C25.5463 10.1825 26.9529 9.07393 27.3827 9.4629C27.8119 9.85189 27.7728 10.2409 26.4059 11.9907C25.058 13.7216 25.6245 15.8604 25.6245 15.8604ZM28.7301 3.74612C28.7301 3.74612 28.144 5.88552 29.5115 7.61587C30.8589 9.36566 30.9175 9.75464 30.4877 10.1436C30.0579 10.5326 28.6519 9.42401 27.6751 7.47972C26.6013 5.34095 27.1874 3.74612 27.1874 3.74612H28.7301ZM8.18332 40.1661C8.18332 40.1661 7.59725 42.3049 8.96413 44.0547C10.3316 45.8045 10.3707 46.1935 9.94093 46.5825C9.51114 46.9714 8.10518 45.8628 7.12838 43.9186C6.05454 41.7798 6.63998 40.1856 6.63998 40.1856L8.18332 40.1661ZM40.1951 52.2798L38.9058 52.2603C38.9058 52.2603 38.1439 50.6467 38.7886 48.5267C39.3746 46.6019 39.7263 45.9795 40.2342 46.3685C40.7415 46.7575 41.015 47.2826 40.1756 48.7212C39.6091 49.7131 40.1951 52.2798 40.1951 52.2798ZM4.31584 40.2439C4.31584 40.2439 3.72976 42.8106 4.31584 43.8019C5.15588 45.2411 4.88238 45.7656 4.37445 46.1546C3.86651 46.5436 3.51487 45.9212 2.92942 43.9964C2.2652 41.877 3.0271 40.2634 3.0271 40.2634L4.31584 40.2439ZM5.29264 52.2798L4.00327 52.2603C4.00327 52.2603 3.24199 50.6467 3.88605 48.5267C4.47213 46.6019 4.82377 45.9795 5.33171 46.3685C5.83964 46.7575 6.11251 47.2826 5.2731 48.7212C4.70656 49.7131 5.29264 52.2798 5.29264 52.2798ZM11.2889 52.2798H9.74557C9.74557 52.2798 9.15949 50.6856 10.234 48.5462C11.2108 46.6019 12.6167 45.4939 13.0465 45.8823C13.4763 46.2713 13.4372 46.6602 12.0697 48.41C10.7028 50.1605 11.2889 52.2798 11.2889 52.2798ZM14.0038 40.1661C14.0038 40.1661 13.4177 42.3049 14.7846 44.0547C16.1326 45.8045 16.1912 46.1935 15.7614 46.5825C15.3316 46.9714 13.9256 45.8628 12.9488 43.9186C11.8744 41.7798 12.4604 40.1856 12.4604 40.1856L14.0038 40.1661ZM17.0892 52.2798H15.5465C15.5465 52.2798 14.9604 50.6856 16.0349 48.5462C17.011 46.6019 18.4176 45.4939 18.8474 45.8823C19.2772 46.2713 19.2381 46.6602 17.8706 48.41C16.5233 50.141 17.0892 52.2798 17.0892 52.2798ZM19.804 40.1661C19.804 40.1661 19.2186 42.3049 20.5855 44.0547C21.9335 45.8045 21.9921 46.1935 21.5623 46.5825C21.1325 46.9714 19.7259 45.8628 18.7497 43.9186C17.6753 41.7798 18.2613 40.1856 18.2613 40.1856L19.804 40.1661ZM22.9096 52.2798H21.3669C21.3669 52.2798 20.7808 50.6856 21.8553 48.5462C22.8315 46.6019 24.2381 45.4939 24.6679 45.8823C25.097 46.2713 25.058 46.6602 23.6911 48.41C22.3236 50.141 22.9096 52.2798 22.9096 52.2798ZM37.2654 40.1661C37.2654 40.1661 36.6793 42.3049 38.0462 44.0547C39.3942 45.8045 39.4528 46.1935 39.023 46.5825C38.5932 46.9714 37.1872 45.8628 36.2104 43.9186C35.1366 41.7798 35.722 40.1856 35.722 40.1856L37.2654 40.1661ZM31.4449 40.1661C31.4449 40.1661 30.8589 42.3049 32.2264 44.0547C33.5737 45.8045 33.6323 46.1935 33.2025 46.5825C32.7728 46.9714 31.3668 45.8628 30.39 43.9186C29.3162 41.7798 29.9022 40.1856 29.9022 40.1856L31.4449 40.1661ZM34.5505 52.2798H33.0072C33.0072 52.2798 32.4217 50.6856 33.4956 48.5462C34.4724 46.6019 35.8783 45.4939 36.3081 45.8823C36.7379 46.2713 36.6988 46.6602 35.332 48.41C33.9644 50.1605 34.5505 52.2798 34.5505 52.2798ZM25.6245 40.1661C25.6245 40.1661 25.0384 42.3049 26.4059 44.0547C27.7533 45.8045 27.8119 46.1935 27.3827 46.5825C26.9529 46.9714 25.5463 45.8628 24.5702 43.9186C23.4957 41.7798 24.0818 40.1856 24.0818 40.1856L25.6245 40.1661ZM28.7301 52.2798H27.1874C27.1874 52.2798 26.6013 50.6856 27.6751 48.5462C28.6519 46.6019 30.0579 45.4939 30.4877 45.8823C30.9175 46.2713 30.8784 46.6602 29.5115 48.41C28.144 50.1605 28.7301 52.2798 28.7301 52.2798Z" fill="#161616"/>
<path d="M95.6248 50.3932C96.0741 50.3932 96.4453 47.8071 96.4453 44.6375C96.4453 41.468 96.0741 38.8819 95.6248 38.8819H93.3201C93.1248 38.6485 92.8708 38.5123 92.5778 38.5123H72.1287C71.8552 38.5123 71.5817 38.6485 71.3863 38.8819H69.0817C68.6324 38.8819 68.2612 41.468 68.2612 44.6375C68.2612 47.8071 68.6324 50.3932 69.0817 50.3932H71.3863C71.5817 50.6266 71.8357 50.7628 72.1287 50.7628H92.5778C92.8513 50.7628 93.1248 50.6266 93.3201 50.3932H95.6248Z" fill="#2C2C2C"/>
<path d="M95.6248 5.63284C96.0741 5.63284 96.4453 8.21895 96.4453 11.3885C96.4453 14.5581 96.0741 17.1442 95.6248 17.1442H93.3201C93.1248 17.3776 92.8708 17.5137 92.5778 17.5137H72.1287C71.8552 17.5137 71.5817 17.3776 71.3863 17.1442H69.0817C68.6324 17.1442 68.2612 14.5581 68.2612 11.3885C68.2612 8.21895 68.6324 5.63284 69.0817 5.63284H71.3863C71.5817 5.39945 71.8357 5.26331 72.1287 5.26331L92.5778 5.26331C92.8513 5.26331 93.1248 5.39945 93.3201 5.63284H95.6248Z" fill="#2C2C2C"/>
<path d="M87.2851 50.3927C87.2851 50.3927 86.8749 48.3512 87.8321 46.6785C88.7888 45.0066 88.8278 44.637 88.5159 44.2675C88.2033 43.898 87.2265 44.9677 86.5232 46.8147C85.762 48.8568 86.1716 50.3927 86.1716 50.3927H87.2851Z" fill="#161616"/>
<path d="M85.0981 38.8045H84.0041C84.0041 38.8045 83.5945 40.3403 84.3557 42.3825C85.0395 44.2295 86.0358 45.2992 86.3484 44.9297C86.6604 44.5602 86.6213 44.1906 85.6647 42.5186C84.6683 40.846 85.0981 38.8045 85.0981 38.8045Z" fill="#161616"/>
<path d="M91.3867 50.3927C91.3867 50.3927 90.9764 48.3512 91.9337 46.6785C92.8903 45.0066 92.9294 44.637 92.6175 44.2675C92.3049 43.898 91.3281 44.9677 90.6248 46.8147C89.8635 48.8568 90.2731 50.3927 90.2731 50.3927H91.3867Z" fill="#161616"/>
<path d="M89.1996 38.8045H88.1049C88.1049 38.8045 87.6959 40.3403 88.4566 42.3825C89.141 44.2295 90.1367 45.2992 90.4492 44.9297C90.7612 44.5602 90.7221 44.1906 89.7655 42.5186C88.7893 40.846 89.1996 38.8045 89.1996 38.8045Z" fill="#161616"/>
<path d="M93.3003 38.8045H92.2062C92.2062 38.8045 91.7966 40.3403 92.5579 42.3825C93.2417 44.2295 94.238 45.2992 94.5506 44.9297C94.8625 44.5602 94.8234 44.1906 93.8668 42.5186C92.89 40.846 93.3003 38.8045 93.3003 38.8045Z" fill="#161616"/>
<path d="M83.1841 50.3927C83.1841 50.3927 82.7738 48.3512 83.7311 46.6785C84.6877 45.0066 84.7268 44.637 84.4148 44.2675C84.1022 43.898 83.1254 44.9677 82.4222 46.8147C81.6609 48.8568 82.0705 50.3927 82.0705 50.3927H83.1841Z" fill="#161616"/>
<path d="M80.977 38.8045H79.883C79.883 38.8045 79.4734 40.3403 80.2347 42.3825C80.9184 44.2295 81.9147 45.2992 82.2273 44.9297C82.5393 44.5602 82.5002 44.1906 81.5436 42.5186C80.5668 40.846 80.977 38.8045 80.977 38.8045Z" fill="#161616"/>
<path d="M79.062 50.3927C79.062 50.3927 78.6517 48.3512 79.609 46.6785C80.5656 45.0066 80.6047 44.637 80.2927 44.2675C79.9802 43.898 79.0034 44.9677 78.3001 46.8147C77.5388 48.8568 77.9484 50.3927 77.9484 50.3927H79.062Z" fill="#161616"/>
<path d="M76.875 38.8045H75.781C75.781 38.8045 75.3713 40.3403 76.1326 42.3825C76.8164 44.2295 77.8127 45.2992 78.1253 44.9297C78.4372 44.5602 78.3981 44.1906 77.4415 42.5186C76.4647 40.846 76.875 38.8045 76.875 38.8045Z" fill="#161616"/>
<path d="M74.9604 50.3927C74.9604 50.3927 74.5502 48.3512 75.5074 46.6785C76.4641 45.0066 76.5031 44.637 76.1912 44.2675C75.8786 43.898 74.9018 44.9677 74.1985 46.8147C73.4372 48.8568 73.8469 50.3927 73.8469 50.3927H74.9604Z" fill="#161616"/>
<path d="M70.7418 50.3927C70.7418 50.3927 70.3315 47.9427 70.7418 46.9703C71.3279 45.59 71.1325 45.0844 70.7809 44.7148C70.4292 44.3453 70.1752 44.9482 69.7455 46.7758C69.2968 48.7985 69.8236 50.3538 69.8236 50.3538L70.7418 50.3927Z" fill="#161616"/>
<path d="M70.0587 38.863L69.1405 38.9019C69.1405 38.9019 68.6137 40.4378 69.0623 42.4799C69.4726 44.327 69.7266 44.9104 70.0978 44.5604C70.4494 44.1908 70.6448 43.6851 70.0587 42.3049C69.6484 41.313 70.0587 38.863 70.0587 38.863Z" fill="#161616"/>
<path d="M95.3712 50.3927C95.3712 50.3927 94.9609 47.9427 95.3712 46.9703C95.9573 45.59 95.7619 45.0844 95.4103 44.7148C95.0586 44.3453 94.8046 44.9482 94.3748 46.7758C93.9262 48.7985 94.453 50.3538 94.453 50.3538L95.3712 50.3927Z" fill="#161616"/>
<path d="M72.7739 38.8045H71.6799C71.6799 38.8045 71.2703 40.3403 72.0315 42.3825C72.7153 44.2295 73.7116 45.2992 74.0242 44.9297C74.3361 44.5602 74.2971 44.1906 73.3404 42.5186C72.3636 40.846 72.7739 38.8045 72.7739 38.8045Z" fill="#161616"/>
<path d="M87.2851 5.63261C87.2851 5.63261 86.8749 7.67413 87.8321 9.34676C88.7888 11.0188 88.8278 11.3883 88.5159 11.7578C88.2033 12.1273 87.2265 11.0576 86.5232 9.21061C85.762 7.16846 86.1716 5.63261 86.1716 5.63261H87.2851Z" fill="#161616"/>
<path d="M85.0981 17.2208H84.0041C84.0041 17.2208 83.5945 15.685 84.3557 13.6428C85.0395 11.7763 86.0358 10.7261 86.3484 11.0956C86.6604 11.4651 86.6213 11.8347 85.6647 13.5067C84.6683 15.1793 85.0981 17.2208 85.0981 17.2208Z" fill="#161616"/>
<path d="M91.3867 5.63261C91.3867 5.63261 90.9764 7.67413 91.9337 9.34676C92.8903 11.0188 92.9294 11.3883 92.6175 11.7578C92.3049 12.1273 91.3281 11.0576 90.6248 9.21061C89.8635 7.16846 90.2731 5.63261 90.2731 5.63261H91.3867Z" fill="#161616"/>
<path d="M89.1996 17.2208H88.1049C88.1049 17.2208 87.6959 15.685 88.4566 13.6428C89.141 11.7763 90.1367 10.7261 90.4492 11.0956C90.7612 11.4651 90.7221 11.8347 89.7655 13.5067C88.7893 15.1793 89.1996 17.2208 89.1996 17.2208Z" fill="#161616"/>
<path d="M93.3003 17.2208H92.2062C92.2062 17.2208 91.7966 15.685 92.5579 13.6428C93.2417 11.7763 94.238 10.7261 94.5506 11.0956C94.8625 11.4651 94.8234 11.8347 93.8668 13.5067C92.89 15.1793 93.3003 17.2208 93.3003 17.2208Z" fill="#161616"/>
<path d="M83.1841 5.63261C83.1841 5.63261 82.7738 7.67413 83.7311 9.34676C84.6877 11.0188 84.7268 11.3883 84.4148 11.7578C84.1022 12.1273 83.1254 11.0576 82.4222 9.21061C81.6609 7.16846 82.0705 5.63261 82.0705 5.63261H83.1841Z" fill="#161616"/>
<path d="M80.977 17.2208H79.883C79.883 17.2208 79.4734 15.685 80.2347 13.6428C80.9184 11.7763 81.9147 10.7261 82.2273 11.0956C82.5393 11.4651 82.5002 11.8347 81.5436 13.5067C80.5668 15.1793 80.977 17.2208 80.977 17.2208Z" fill="#161616"/>
<path d="M79.062 5.63261C79.062 5.63261 78.6517 7.67413 79.609 9.34676C80.5656 11.0188 80.6047 11.3883 80.2927 11.7578C79.9802 12.1273 79.0034 11.0576 78.3001 9.21061C77.5388 7.16846 77.9484 5.63261 77.9484 5.63261H79.062Z" fill="#161616"/>
<path d="M76.875 17.2208H75.781C75.781 17.2208 75.3713 15.685 76.1326 13.6428C76.8164 11.7763 77.8127 10.7261 78.1253 11.0956C78.4372 11.4651 78.3981 11.8347 77.4415 13.5067C76.4647 15.1793 76.875 17.2208 76.875 17.2208Z" fill="#161616"/>
<path d="M74.9604 5.63261C74.9604 5.63261 74.5502 7.67413 75.5074 9.34676C76.4641 11.0188 76.5031 11.3883 76.1912 11.7578C75.8786 12.1273 74.9018 11.0576 74.1985 9.21061C73.4372 7.16846 73.8469 5.63261 73.8469 5.63261H74.9604Z" fill="#161616"/>
<path d="M70.7418 5.63229C70.7418 5.63229 70.3315 8.08225 70.7418 9.0547C71.3279 10.435 71.1325 10.9406 70.7809 11.3102C70.4292 11.6797 70.1752 11.0768 69.7455 9.24919C69.2968 7.22649 69.8236 5.67119 69.8236 5.67119L70.7418 5.63229Z" fill="#161616"/>
<path d="M70.0587 17.1633L69.16 17.1438C69.16 17.1438 68.6332 15.608 69.0819 13.5658C69.4921 11.7188 69.7461 11.1159 70.1173 11.5048C70.4689 11.8744 70.6643 12.38 70.0782 13.7603C69.6484 14.7133 70.0587 17.1633 70.0587 17.1633Z" fill="#161616"/>
<path d="M95.3712 5.63229C95.3712 5.63229 94.9609 8.08225 95.3712 9.0547C95.9573 10.435 95.7619 10.9406 95.4103 11.3102C95.0586 11.6797 94.8046 11.0768 94.3748 9.24919C93.9262 7.22649 94.453 5.67119 94.453 5.67119L95.3712 5.63229Z" fill="#161616"/>
<path d="M72.7739 17.2208H71.6799C71.6799 17.2208 71.2703 15.685 72.0315 13.6428C72.7153 11.7763 73.7116 10.7261 74.0242 11.0956C74.3361 11.4651 74.2971 11.8347 73.3404 13.5067C72.3636 15.1793 72.7739 17.2208 72.7739 17.2208Z" fill="#161616"/>
<path d="M98.7313 28.0707C98.7313 27.8574 98.7313 27.6629 98.7509 27.5656C98.7313 27.7407 98.7313 27.9151 98.7313 28.0707ZM98.7509 28.5764C98.7313 28.4986 98.7313 28.3041 98.7313 28.0707C98.7313 28.2457 98.7313 28.4208 98.7509 28.5764ZM98.7704 29.1793C98.7704 29.1793 98.7509 28.907 98.7509 28.5958C98.7509 28.4402 98.7313 28.2457 98.7313 28.0901C98.7313 27.9345 98.7313 27.7601 98.7509 27.5851C98.7704 27.2739 98.7704 27.0016 98.7704 27.0016L96.583 22.2378L96.8565 22.1017H98.0866L100.001 26.846V27.5267V28.6153V29.296L98.0866 34.0598H96.8565L96.583 33.9236L98.7704 29.1793Z" fill="#E3102B"/>
<path d="M19.1606 19.0679V19.2819L12.5984 19.0096L11.817 18.2316C10.2352 17.6293 8.96537 16.5985 8.77001 14.7904C8.30114 10.3177 13.2425 8.21783 14.7858 7.98444C16.3285 7.75105 36.0554 8.14003 37.3637 8.25673C38.6726 8.37342 39.3563 8.7624 40.2348 9.48202C41.1139 10.201 43.0864 12.3015 43.2427 12.4766C43.399 12.651 22.1685 19.6903 22.1685 19.6903C22.1685 19.6903 20.6844 19.2235 19.1606 19.0679ZM15.0593 30.0541H10.8011L10.8011 28.0126V25.9705H15.0398L15.0398 28.0126L15.0593 30.0541ZM11.7974 37.793L12.5789 37.015L19.1411 36.7428V36.9567C20.6649 36.8011 22.149 36.3155 22.149 36.3155C22.149 36.3155 43.3795 43.3736 43.2232 43.5292C43.0669 43.7043 41.0944 45.8042 40.2153 46.5238C39.3368 47.2428 38.6335 47.6317 37.3441 47.7484C36.0359 47.8651 16.309 48.2541 14.7663 48.0207C13.2229 47.7873 8.28161 45.6875 8.75047 41.2154C8.94583 39.4261 10.2157 38.3765 11.7974 37.793Z" fill="#E3102B"/>
<path d="M92.7154 28.0325C92.7154 32.2323 93.5946 36.1215 87.1099 37.3072C77.4617 38.1241 57.1096 33.7688 52.813 32.7963C52.8521 31.3383 52.8716 29.6656 52.8521 28.0131V27.9742C52.8521 26.3411 52.8521 24.649 52.813 23.191C57.1096 22.238 77.4617 17.8826 87.1099 18.68C93.5946 19.8658 92.7154 23.7744 92.7154 27.9547V28.0325Z" fill="#E3102B"/>
<path d="M52.8716 28.0127C52.8911 31.2601 52.813 34.6819 52.6762 36.1794C52.4418 38.7655 52.1878 40.1069 51.8557 41.2155C51.5236 42.3241 51.2117 42.7124 50.4888 42.7124C49.766 42.7124 47.3051 42.8097 46.6604 42.9847C45.9968 43.1598 45.2545 43.7044 44.8833 44.0739C44.5121 44.4434 44.1214 44.5018 43.6525 44.6185C43.1843 44.7352 28.5941 44.9102 26.817 44.8907C25.0392 44.8713 21.6998 44.988 20.6644 44.7546C19.629 44.5212 18.438 44.21 17.93 43.1209C17.4221 42.0324 17.2463 40.8071 17.2463 40.8071L17.6565 40.3986L17.2463 37.6764H16.8366C16.8366 37.6764 16.4459 33.1655 16.5045 28.0127C16.4459 22.8405 16.8366 18.349 16.8366 18.349H17.2463L17.6565 15.6268L17.2463 15.2183C17.2463 15.2183 17.4221 13.993 17.93 12.9045C18.438 11.8154 19.629 11.5042 20.6644 11.2708C21.6998 11.0374 25.0587 11.1541 26.817 11.1346C28.5746 11.1152 43.1843 11.2902 43.633 11.4069C44.1019 11.5236 44.4926 11.582 44.8638 11.9515C45.2349 12.321 45.9773 12.8656 46.6409 13.0407C47.3051 13.2157 49.7465 13.3129 50.4693 13.3129C51.1921 13.3129 51.5047 13.7013 51.8362 14.8099C52.1683 15.9185 52.4223 17.2599 52.6567 19.846C52.7935 21.3435 52.8716 24.7653 52.8716 28.0127Z" fill="#E3102B"/>
<g opacity="0.102005">
<mask id="mask2_2587_195" style="mask-type:alpha" maskUnits="userSpaceOnUse" x="8" y="7" width="36" height="42">
<rect width="34.5243" height="40.1826" transform="matrix(1 0 0 -1 8.71924 48.0939)" fill="#D9D9D9"/>
</mask>
<g mask="url(#mask2_2587_195)">
<path d="M19.1606 19.0679V19.2818L12.5984 19.0095L11.817 18.2315C10.2352 17.6292 8.96537 16.5984 8.77001 14.7903C8.30114 10.3176 13.2425 8.21777 14.7858 7.98438C16.3285 7.75099 36.0554 8.13997 37.3637 8.25666C38.6726 8.37336 39.3563 8.76234 40.2348 9.48196C41.1139 10.2009 43.0864 12.3014 43.2427 12.4765C43.399 12.6509 22.1685 19.6902 22.1685 19.6902C22.1685 19.6902 20.6844 19.2234 19.1606 19.0679ZM15.0593 30.0541H10.8011L10.8011 28.0126V25.9704H15.0398L15.0398 28.0126L15.0593 30.0541ZM11.7974 37.7929L12.5789 37.015L19.1411 36.7427V36.9566C20.6649 36.801 22.149 36.3154 22.149 36.3154C22.149 36.3154 43.3795 43.3736 43.2232 43.5292C43.0669 43.7042 41.0944 45.8041 40.2153 46.5237C39.3368 47.2427 38.6335 47.6317 37.3441 47.7484C36.0359 47.8651 16.309 48.2541 14.7663 48.0207C13.2229 47.7873 8.28161 45.6874 8.75047 41.2154C8.94583 39.426 10.2157 38.3764 11.7974 37.7929Z" fill="#050605"/>
</g>
</g>
<g opacity="0.102005">
<mask id="mask3_2587_195" style="mask-type:alpha" maskUnits="userSpaceOnUse" x="57" y="19" width="36" height="18">
<rect width="34.5695" height="17.467" transform="matrix(1 0 0 -1 57.5005 36.7371)" fill="#D9D9D9"/>
</mask>
<g mask="url(#mask3_2587_195)">
<path d="M92.0318 28.0326C92.0318 31.9218 92.8523 35.5381 86.8561 36.6467C79.1217 37.2885 64.0047 34.3523 57.5005 32.9714C57.5982 32.7769 57.6959 32.563 57.7935 32.3296C62.8325 33.4187 78.731 36.6856 86.5435 36.0243C92.149 34.9935 91.3871 31.63 91.3871 28.0131V27.9742C91.3871 24.3573 92.149 20.9939 86.5435 19.9825C78.731 19.3213 62.8325 22.5881 57.7935 23.6772L57.5005 23.0354C64.0047 21.6545 79.1413 18.719 86.8561 19.3602C92.8523 20.4493 92.0318 24.085 92.0318 27.9742V28.0326Z" fill="#050605"/>
</g>
</g>
<g opacity="0.102005">
<mask id="mask4_2587_195" style="mask-type:alpha" maskUnits="userSpaceOnUse" x="16" y="11" width="37" height="34">
<rect width="36.3763" height="33.8192" transform="matrix(1 0 0 -1 16.4976 44.903)" fill="#D9D9D9"/>
</mask>
<g mask="url(#mask4_2587_195)">
<path d="M19.9211 38.357L25.2922 35.3625H44.1009L49.6088 36.9573C49.472 37.9292 49.3157 38.5904 49.1399 39.1934C48.867 40.1263 48.5935 40.4569 47.9879 40.4569C47.3823 40.4569 45.3121 40.5347 44.7651 40.6903C44.2181 40.8459 43.593 41.2932 43.2615 41.6044C42.9489 41.9156 42.6168 41.9739 42.2261 42.0712C41.8354 42.1684 29.5504 42.324 28.0461 42.3046C26.562 42.2851 23.73 42.3824 22.8508 42.1879C21.9919 41.9934 20.976 41.7211 20.5462 40.807C20.1164 39.8935 19.9797 38.8433 19.9797 38.8433L19.9211 38.357ZM19.3552 28.5572L49.9995 28.5572C49.9995 31.1433 49.9409 33.7489 49.8237 34.9346C49.8041 35.2458 49.765 35.557 49.7455 35.8293L43.9055 34.1573H25.0187L19.7843 37.3068L19.6476 36.1988C19.6476 36.1988 19.3552 32.6986 19.3552 28.5572ZM49.6088 19.0679L44.1204 20.6628H25.3117L19.9211 17.6682L19.9797 17.182C19.9797 17.182 20.136 16.1317 20.5462 15.2183C20.9565 14.3042 21.9724 14.0319 22.8508 13.8374C23.7104 13.6429 26.5425 13.7401 28.0461 13.7207C29.5309 13.7012 41.8354 13.8568 42.2261 13.9541C42.6168 14.0513 42.9489 14.1097 43.2615 14.4208C43.5734 14.732 44.1986 15.1988 44.7651 15.335C45.3316 15.4711 47.3823 15.5683 47.9879 15.5683C48.5935 15.5683 48.867 15.899 49.1399 16.8319C49.3157 17.4348 49.472 18.0961 49.6088 19.0679ZM49.9995 27.4681L19.3552 27.4681C19.3356 23.3267 19.6476 19.8264 19.6476 19.8264L19.7843 18.7185L25.0187 21.868H43.9055L49.7455 20.196C49.765 20.4683 49.8041 20.76 49.8237 21.0906C49.9409 22.2764 49.9995 24.882 49.9995 27.4681ZM17.4016 41.6239C17.2844 41.1571 17.2453 40.8265 17.2453 40.8265L17.6555 40.418L17.2453 37.6958H16.8357C16.8357 37.6958 16.4449 33.1848 16.5035 28.0321C16.4449 22.8599 16.8357 18.3684 16.8357 18.3684H17.2453L17.6555 15.6461L17.2453 15.2377C17.2453 15.2377 17.3039 14.9071 17.4016 14.4403L19.1012 15.4322C18.9449 15.9962 18.8668 16.4429 18.8668 16.4429L18.4956 19.2819C18.4956 19.2819 18.1439 23.3656 18.183 28.0515C18.1439 32.7375 18.4956 36.8212 18.4956 36.8212L18.8668 39.6601C18.8668 39.6601 18.9254 40.1068 19.1012 40.6709L17.4016 41.6239ZM52.8706 28.0126C52.8902 31.26 52.812 34.6818 52.6753 36.1794C52.4408 38.7655 52.1869 40.1068 51.8548 41.2154C51.5227 42.324 51.2107 42.7124 50.4879 42.7124C49.765 42.7124 47.3041 42.8096 46.6595 42.9847C45.9959 43.1597 45.2535 43.7043 44.8823 44.0738C44.5111 44.4434 44.1204 44.5017 43.6516 44.6184C43.1833 44.7351 28.5931 44.9101 26.816 44.8907C25.0382 44.8712 21.6988 44.9879 20.6634 44.7545C19.628 44.5212 18.437 44.21 17.929 43.1208L17.8118 42.8291L19.4919 41.6628L19.5115 41.7211C19.9601 42.6929 21.0542 43.0041 21.9919 43.1986C22.929 43.3931 25.976 43.2959 27.5779 43.3153C29.1792 43.3348 42.4019 43.1792 42.8317 43.0625C43.2419 42.9652 43.6125 42.9069 43.9446 42.5769C44.2767 42.2462 44.9605 41.76 45.5661 41.585C46.1717 41.4099 48.3786 41.3516 49.0422 41.3321C49.7064 41.3127 49.9799 40.982 50.273 39.9707C50.4293 39.4462 50.566 38.8627 50.7028 38.0848L51.4842 37.9292L51.6203 36.9768L50.8981 36.7434C50.9372 36.335 50.9958 35.9071 51.0349 35.4014C51.1521 34.0406 51.2302 30.9488 51.2107 27.9932C51.2302 25.057 51.1521 21.9458 51.0349 20.585C50.9958 20.0987 50.9372 19.6514 50.8981 19.243L51.6203 19.0096L51.4842 18.0572L50.7028 17.9016C50.5856 17.1236 50.4293 16.5402 50.273 16.0157C49.9799 15.0043 49.6869 14.6542 49.0227 14.6542C48.3591 14.6542 46.1522 14.5764 45.5465 14.4014C44.9409 14.2458 44.2767 13.7596 43.9251 13.4101C43.5734 13.06 43.2224 13.0211 42.8121 12.9239C42.4019 12.8072 29.1597 12.6516 27.5584 12.6711C25.9564 12.6905 22.9094 12.5933 21.9724 12.7878C21.0346 13.0017 19.9601 13.2934 19.4919 14.2653L19.4724 14.3236L17.7923 13.1573L17.9095 12.8655C18.4174 11.7764 19.6085 11.4652 20.6439 11.2318C21.6793 10.9984 25.0382 11.1151 26.7965 11.0957C28.5541 11.0762 43.1638 11.2513 43.632 11.368C44.1009 11.4847 44.4916 11.543 44.8628 11.9125C45.234 12.2821 45.9763 12.8266 46.6399 13.0017C47.3041 13.1767 49.7455 13.274 50.4683 13.274C51.1912 13.274 51.5037 13.6623 51.8352 14.7709C52.1673 15.8795 52.4213 17.2209 52.6557 19.807C52.7925 21.3435 52.8706 24.7653 52.8706 28.0126Z" fill="#050605"/>
</g>
</g>
<g opacity="0.102005">
<mask id="mask5_2587_195" style="mask-type:alpha" maskUnits="userSpaceOnUse" x="53" y="23" width="4" height="10">
<rect width="2.7344" height="8.77299" transform="matrix(1 0 0 -1 53.9062 32.5378)" fill="#D9D9D9"/>
</mask>
<g mask="url(#mask5_2587_195)">
<path d="M54.4337 32.2125L55.996 32.5237C56.3476 32.6015 56.6406 32.3486 56.6406 31.9791V24.318C56.6406 23.9485 56.3476 23.7151 55.996 23.7735L54.4337 24.0847C54.1407 24.143 53.9062 24.4542 53.9062 24.7848V31.5123C53.9062 31.843 54.1407 32.1347 54.4337 32.2125Z" fill="#050605"/>
</g>
</g>
<g opacity="0.102005">
<mask id="mask6_2587_195" style="mask-type:alpha" maskUnits="userSpaceOnUse" x="77" y="28" width="2" height="7">
<rect width="0.531253" height="5.46388" transform="matrix(1 0 0 -1 77.8477 34.0023)" fill="#D9D9D9"/>
</mask>
<g mask="url(#mask6_2587_195)">
<path d="M77.9492 34.001H78.2813C78.3399 34.001 78.379 33.9427 78.379 33.8843V28.6538C78.379 28.5954 78.3203 28.5371 78.2813 28.5371H77.9492C77.8906 28.5371 77.8515 28.5954 77.8515 28.6538V33.8843C77.8319 33.9621 77.8906 34.001 77.9492 34.001Z" fill="#050605"/>
</g>
</g>
<g opacity="0.102005">
<mask id="mask7_2587_195" style="mask-type:alpha" maskUnits="userSpaceOnUse" x="78" y="28" width="2" height="7">
<rect width="0.531253" height="5.46388" transform="matrix(1 0 0 -1 78.668 34.0022)" fill="#D9D9D9"/>
</mask>
<g mask="url(#mask7_2587_195)">
<path d="M78.7695 34.001H79.1016C79.1602 34.001 79.1993 33.9426 79.1993 33.8843V28.6537C79.1993 28.5954 79.1407 28.537 79.1016 28.537H78.7695C78.7109 28.537 78.6718 28.5954 78.6718 28.6537V33.8843C78.6523 33.9621 78.7109 34.001 78.7695 34.001Z" fill="#050605"/>
</g>
</g>
<g opacity="0.102005">
<mask id="mask8_2587_195" style="mask-type:alpha" maskUnits="userSpaceOnUse" x="79" y="28" width="2" height="7">
<rect width="0.531248" height="5.46388" transform="matrix(1 0 0 -1 79.4893 34.0023)" fill="#D9D9D9"/>
</mask>
<g mask="url(#mask8_2587_195)">
<path d="M79.5908 34.001H79.9229C79.9815 34.001 80.0206 33.9427 80.0206 33.8843V28.6538C80.0206 28.5954 79.962 28.5371 79.9229 28.5371H79.5908C79.5322 28.5371 79.4931 28.5954 79.4931 28.6538V33.8843C79.4736 33.9621 79.5322 34.001 79.5908 34.001Z" fill="#050605"/>
</g>
</g>
<g opacity="0.102005">
<mask id="mask9_2587_195" style="mask-type:alpha" maskUnits="userSpaceOnUse" x="80" y="28" width="1" height="7">
<rect width="0.531257" height="5.46388" transform="matrix(1 0 0 -1 80.3086 34.0021)" fill="#D9D9D9"/>
</mask>
<g mask="url(#mask9_2587_195)">
<path d="M80.4101 34.0009H80.7422C80.8008 34.0009 80.8399 33.9426 80.8399 33.8842V28.6537C80.8399 28.5953 80.7813 28.537 80.7422 28.537H80.4101C80.3515 28.537 80.3124 28.5953 80.3124 28.6537V33.8842C80.2929 33.962 80.3515 34.0009 80.4101 34.0009Z" fill="#050605"/>
</g>
</g>
<g opacity="0.102005">
<mask id="mask10_2587_195" style="mask-type:alpha" maskUnits="userSpaceOnUse" x="81" y="28" width="1" height="7">
<rect width="0.531253" height="5.46388" transform="matrix(1 0 0 -1 81.1279 34.0021)" fill="#D9D9D9"/>
</mask>
<g mask="url(#mask10_2587_195)">
<path d="M81.2294 34.0009H81.5616C81.6202 34.0009 81.6592 33.9426 81.6592 33.8842V28.6537C81.6592 28.5953 81.6006 28.537 81.5616 28.537H81.2294C81.1708 28.537 81.1318 28.5953 81.1318 28.6537V33.8842C81.1122 33.962 81.1708 34.0009 81.2294 34.0009Z" fill="#050605"/>
</g>
</g>
<g opacity="0.102005">
<mask id="mask11_2587_195" style="mask-type:alpha" maskUnits="userSpaceOnUse" x="77" y="22" width="2" height="6">
<rect width="0.531253" height="5.46394" transform="matrix(1 0 0 -1 77.8477 27.4686)" fill="#D9D9D9"/>
</mask>
<g mask="url(#mask11_2587_195)">
<path d="M77.9492 27.4686H78.2813C78.3399 27.4686 78.379 27.4103 78.379 27.3519V22.1214C78.379 22.063 78.3203 22.0047 78.2813 22.0047H77.9492C77.8906 22.0047 77.8515 22.063 77.8515 22.1214V27.3519C77.8319 27.4103 77.8906 27.4686 77.9492 27.4686Z" fill="#050605"/>
</g>
</g>
<g opacity="0.102005">
<mask id="mask12_2587_195" style="mask-type:alpha" maskUnits="userSpaceOnUse" x="78" y="22" width="2" height="6">
<rect width="0.531253" height="5.46394" transform="matrix(1 0 0 -1 78.668 27.4686)" fill="#D9D9D9"/>
</mask>
<g mask="url(#mask12_2587_195)">
<path d="M78.7695 27.4686H79.1016C79.1602 27.4686 79.1993 27.4103 79.1993 27.3519V22.1214C79.1993 22.063 79.1407 22.0047 79.1016 22.0047H78.7695C78.7109 22.0047 78.6718 22.063 78.6718 22.1214V27.3519C78.6523 27.4103 78.7109 27.4686 78.7695 27.4686Z" fill="#050605"/>
</g>
</g>
<g opacity="0.102005">
<mask id="mask13_2587_195" style="mask-type:alpha" maskUnits="userSpaceOnUse" x="79" y="22" width="2" height="6">
<rect width="0.531248" height="5.46394" transform="matrix(1 0 0 -1 79.4893 27.4686)" fill="#D9D9D9"/>
</mask>
<g mask="url(#mask13_2587_195)">
<path d="M79.5908 27.4686H79.9229C79.9815 27.4686 80.0206 27.4103 80.0206 27.3519V22.1214C80.0206 22.063 79.962 22.0047 79.9229 22.0047H79.5908C79.5322 22.0047 79.4931 22.063 79.4931 22.1214V27.3519C79.4736 27.4103 79.5322 27.4686 79.5908 27.4686Z" fill="#050605"/>
</g>
</g>
<g opacity="0.102005">
<mask id="mask14_2587_195" style="mask-type:alpha" maskUnits="userSpaceOnUse" x="80" y="22" width="1" height="6">
<rect width="0.531257" height="5.46394" transform="matrix(1 0 0 -1 80.3086 27.4686)" fill="#D9D9D9"/>
</mask>
<g mask="url(#mask14_2587_195)">
<path d="M80.4101 27.4686H80.7422C80.8008 27.4686 80.8399 27.4103 80.8399 27.3519V22.1214C80.8399 22.063 80.7813 22.0047 80.7422 22.0047H80.4101C80.3515 22.0047 80.3124 22.063 80.3124 22.1214V27.3519C80.2929 27.4103 80.3515 27.4686 80.4101 27.4686Z" fill="#050605"/>
</g>
</g>
<g opacity="0.102005">
<mask id="mask15_2587_195" style="mask-type:alpha" maskUnits="userSpaceOnUse" x="81" y="22" width="1" height="6">
<rect width="0.531253" height="5.46394" transform="matrix(1 0 0 -1 81.1279 27.4686)" fill="#D9D9D9"/>
</mask>
<g mask="url(#mask15_2587_195)">
<path d="M81.2294 27.4686H81.5616C81.6202 27.4686 81.6592 27.4103 81.6592 27.3519V22.1214C81.6592 22.063 81.6006 22.0047 81.5616 22.0047H81.2294C81.1708 22.0047 81.1318 22.063 81.1318 22.1214V27.3519C81.1122 27.4103 81.1708 27.4686 81.2294 27.4686Z" fill="#050605"/>
</g>
</g>
<path d="M18.613 42.4401C18.613 42.4401 17.0507 42.4206 16.6991 41.6232C16.367 40.8653 15.1557 35.5181 15.4097 28.012C15.1557 20.5065 16.3474 15.1592 16.6991 14.4014C17.0507 13.6039 18.613 13.5845 18.613 13.5845L19.8633 28.012L18.613 42.4401Z" fill="#272626"/>
<path d="M16.6804 36.4517C16.5241 36.4517 14.3172 35.3042 14.0827 34.9548L13.8483 34.6047L12.7152 34.5463C12.7152 34.5463 11.8758 34.3129 11.8954 33.7295C11.8954 33.146 12.7152 32.9126 12.7152 32.9126H16.9539L16.446 33.5544C16.5632 34.4296 16.8171 36.4517 16.6804 36.4517Z" fill="#050605"/>
<path d="M58.1453 14.188C58.5947 14.2269 58.9658 14.8687 58.9658 15.6072C58.9658 16.3462 58.5947 16.9492 58.1453 16.9103L56.2314 16.7547V14.0324L58.1453 14.188Z" fill="#050605"/>
<path d="M56.9348 14.3829C57.306 14.4024 57.599 14.9275 57.599 15.5304C57.599 16.1327 57.306 16.5995 56.9348 16.5606L55.4116 16.4439V14.2662L56.9348 14.3829Z" fill="#161616"/>
<path d="M12.8513 10.7266C12.8513 10.7266 12.7927 14.5964 12.7146 14.6742C12.6364 14.752 12.0308 14.6742 12.0308 14.6742C12.0308 14.6742 11.9722 14.7131 11.7573 14.538C11.5431 14.363 11.7378 12.1659 11.7573 11.4074C11.7769 10.6488 12.0308 10.7266 12.0308 10.7266H12.8513ZM26.2694 11.7963L25.3121 13.1572H18.3201C18.3201 13.1572 17.9489 12.4181 17.7731 11.6602C17.5973 10.9017 18.3201 10.8433 18.3201 10.8433L18.3201 9.34638H26.2498L26.2694 11.7963ZM18.3201 13.3127L17.9099 14.8103C17.9099 14.8103 16.5235 14.7325 16.2695 14.2657C16.0155 13.799 16.4062 13.0988 16.9532 12.9043C17.4996 12.7098 18.3201 13.3127 18.3201 13.3127ZM12.8513 45.299H12.0308C12.0308 45.299 11.7769 45.3768 11.7573 44.6183C11.7378 43.8604 11.5235 41.6626 11.7573 41.4876C11.9917 41.3132 12.0308 41.3521 12.0308 41.3521C12.0308 41.3521 12.6364 41.2743 12.7146 41.3521C12.7927 41.4292 12.8513 45.299 12.8513 45.299ZM26.2694 44.2098V46.6799H18.3201V45.1823C18.3201 45.1823 17.5973 45.1239 17.7731 44.3654C17.9489 43.6075 18.3201 42.8685 18.3201 42.8685H25.2926L26.2694 44.2098ZM18.3201 42.7129C18.3201 42.7129 17.4996 43.3158 16.9532 43.1213C16.4062 42.9268 16.0155 42.2267 16.2695 41.7599C16.5235 41.2937 17.9099 41.2159 17.9099 41.2159L18.3201 42.7129Z" fill="#161616"/>
<path d="M82.2272 50.0239C82.2272 50.0239 68.145 49.9066 67.4619 49.2648C66.7781 48.6236 65.6841 47.7484 65.6841 47.7484L65.9576 36.7044L81.9537 35.7702L82.2272 39.2121V50.0239Z" fill="#050605"/>
<path d="M82.2272 6.00183C82.2272 6.00183 68.145 6.11853 67.4619 6.76034C66.7781 7.40154 65.6841 8.27674 65.6841 8.27674L65.9576 19.3213L81.9537 20.2549L82.2272 16.813V6.00183Z" fill="#050605"/>
<path d="M49.1021 12.0882V19.3019H52.3835V12.0882C52.3835 11.8548 51.6411 11.6798 50.7424 11.6798C49.8444 11.6603 49.1021 11.8548 49.1021 12.0882ZM49.1021 43.9383V36.7246H52.3835V43.9383C52.3835 44.1717 51.6411 44.3467 50.7424 44.3467C49.8444 44.3467 49.1021 44.1717 49.1021 43.9383Z" fill="#050605"/>
<path d="M17.7152 15.4899C18.1254 15.5677 18.3403 16.3846 18.184 17.2598C18.0278 18.0955 17.6175 18.6984 17.2463 18.6206C16.8751 18.5428 16.6407 17.8238 16.7579 16.9875C16.8556 16.0928 17.3049 15.4121 17.7152 15.4899ZM17.7152 40.5347C18.1254 40.4569 18.3403 39.6401 18.184 38.7655C18.0278 37.9292 17.6175 37.3262 17.2463 37.404C16.8751 37.4818 16.6407 38.2014 16.7579 39.0378C16.8556 39.9318 17.3049 40.6125 17.7152 40.5347Z" fill="#121212"/>
<path d="M54.3174 15.2772C54.3174 14.7326 54.7667 14.2658 55.3137 14.2464C55.8015 13.8386 56.3876 13.4496 56.5048 13.4301C56.7001 13.3912 56.915 13.119 56.915 13.5663C56.915 14.013 57.0518 14.4214 56.7783 14.6548C56.6025 14.8299 56.4462 14.966 56.3485 15.0827C56.368 15.141 56.368 15.1994 56.368 15.2772C56.368 15.8412 55.8992 16.308 55.3333 16.308C54.7667 16.308 54.3174 15.8412 54.3174 15.2772Z" fill="#050605"/>
<path d="M85.3716 36.9961C85.3716 36.9961 83.5554 32.5046 82.7153 28.0709V28.0514V28.032C83.5554 23.5794 85.3716 19.1073 85.3716 19.1073C85.3716 19.1073 95.684 18.1154 95.684 24.688V31.4349C95.6645 38.0075 85.3716 36.9961 85.3716 36.9961Z" fill="white"/>
<path d="M84.5508 36.9961C84.5508 36.9961 82.7346 32.5046 81.8945 28.0709V28.0514V28.032C82.7346 23.5794 84.5508 19.1073 84.5508 19.1073C84.5508 19.1073 94.8632 18.1154 94.8632 24.688V31.4349C94.8437 38.0075 84.5508 36.9961 84.5508 36.9961Z" fill="#050605"/>
<path d="M52.0317 40.3989C52.3052 40.4573 52.6373 39.9516 52.7545 39.232C52.8717 38.513 52.7545 37.8906 52.481 37.8128C52.2075 37.7545 51.8754 38.2602 51.7581 38.9798C51.6409 39.6988 51.7581 40.3406 52.0317 40.3989Z" fill="#161616"/>
<path d="M52.0317 15.627C52.3052 15.5492 52.6373 16.0743 52.7545 16.794C52.8717 17.513 52.7545 18.1353 52.481 18.2131C52.2075 18.2909 51.8754 17.7658 51.7581 17.0462C51.6409 16.3272 51.7581 15.6854 52.0317 15.627Z" fill="#161616"/>
<g opacity="0.501999">
<mask id="mask16_2587_195" style="mask-type:alpha" maskUnits="userSpaceOnUse" x="77" y="28" width="2" height="7">
<rect width="0.630191" height="5.42498" transform="matrix(1 0 0 -1 77.8438 34.0021)" fill="#D9D9D9"/>
</mask>
<g mask="url(#mask16_2587_195)">
<path d="M77.8714 34.0009H77.9495C77.9691 34.0009 77.9691 33.9815 77.9691 33.9815V28.5953C77.9691 28.5759 77.9495 28.5759 77.9495 28.5759H77.8714C77.8518 28.5759 77.8518 28.5953 77.8518 28.5953V33.9815C77.8323 34.0009 77.8518 34.0009 77.8714 34.0009Z" fill="#050605"/>
</g>
</g>
<g opacity="0.501999">
<mask id="mask17_2587_195" style="mask-type:alpha" maskUnits="userSpaceOnUse" x="78" y="28" width="2" height="7">
<rect width="0.630191" height="5.42498" transform="matrix(1 0 0 -1 78.6641 34.0023)" fill="#D9D9D9"/>
</mask>
<g mask="url(#mask17_2587_195)">
<path d="M78.6912 34.001H78.7693C78.7889 34.001 78.7889 33.9816 78.7889 33.9816V28.5954C78.7889 28.576 78.7693 28.576 78.7693 28.576H78.6912C78.6717 28.576 78.6717 28.5954 78.6717 28.5954V33.9816C78.6521 34.001 78.6717 34.001 78.6912 34.001Z" fill="#050605"/>
</g>
</g>
<g opacity="0.501999">
<mask id="mask18_2587_195" style="mask-type:alpha" maskUnits="userSpaceOnUse" x="79" y="28" width="2" height="7">
<rect width="0.630191" height="5.42498" transform="matrix(1 0 0 -1 79.4834 34.0023)" fill="#D9D9D9"/>
</mask>
<g mask="url(#mask18_2587_195)">
<path d="M79.511 34.001H79.5892C79.6087 34.001 79.6087 33.9816 79.6087 33.9816V28.5954C79.6087 28.576 79.5892 28.576 79.5892 28.576H79.511C79.4915 28.576 79.4915 28.5954 79.4915 28.5954V33.9816C79.472 34.001 79.4915 34.001 79.511 34.001Z" fill="#050605"/>
</g>
</g>
<g opacity="0.501999">
<mask id="mask19_2587_195" style="mask-type:alpha" maskUnits="userSpaceOnUse" x="80" y="28" width="1" height="7">
<rect width="0.630191" height="5.42498" transform="matrix(1 0 0 -1 80.3052 34.0023)" fill="#D9D9D9"/>
</mask>
<g mask="url(#mask19_2587_195)">
<path d="M80.3328 34.001H80.4109C80.4305 34.001 80.4305 33.9816 80.4305 33.9816V28.5954C80.4305 28.576 80.4109 28.576 80.4109 28.576H80.3328C80.3133 28.576 80.3133 28.5954 80.3133 28.5954V33.9816C80.2937 34.001 80.3133 34.001 80.3328 34.001Z" fill="#050605"/>
</g>
</g>
<g opacity="0.501999">
<mask id="mask20_2587_195" style="mask-type:alpha" maskUnits="userSpaceOnUse" x="81" y="28" width="1" height="7">
<rect width="0.630191" height="5.42498" transform="matrix(1 0 0 -1 81.1245 34.0023)" fill="#D9D9D9"/>
</mask>
<g mask="url(#mask20_2587_195)">
<path d="M81.1523 34.001H81.2298C81.2499 34.001 81.2499 33.9816 81.2499 33.9816V28.5954C81.2499 28.576 81.2298 28.576 81.2298 28.576H81.1523C81.1321 28.576 81.1321 28.5954 81.1321 28.5954V33.9816C81.1126 34.001 81.1321 34.001 81.1523 34.001Z" fill="#050605"/>
</g>
</g>
<g opacity="0.501999">
<mask id="mask21_2587_195" style="mask-type:alpha" maskUnits="userSpaceOnUse" x="77" y="22" width="2" height="6">
<rect width="0.630191" height="5.42504" transform="matrix(1 0 0 -1 77.8438 27.4686)" fill="#D9D9D9"/>
</mask>
<g mask="url(#mask21_2587_195)">
<path d="M77.8714 27.4686H77.9495C77.9691 27.4686 77.9691 27.4492 77.9691 27.4492V22.063C77.9691 22.0436 77.9495 22.0436 77.9495 22.0436H77.8714C77.8518 22.0436 77.8518 22.063 77.8518 22.063V27.4492C77.8323 27.4492 77.8518 27.4686 77.8714 27.4686Z" fill="#050605"/>
</g>
</g>
<g opacity="0.501999">
<mask id="mask22_2587_195" style="mask-type:alpha" maskUnits="userSpaceOnUse" x="78" y="22" width="2" height="6">
<rect width="0.630191" height="5.42504" transform="matrix(1 0 0 -1 78.6641 27.4686)" fill="#D9D9D9"/>
</mask>
<g mask="url(#mask22_2587_195)">
<path d="M78.6912 27.4686H78.7693C78.7889 27.4686 78.7889 27.4492 78.7889 27.4492V22.063C78.7889 22.0436 78.7693 22.0436 78.7693 22.0436H78.6912C78.6717 22.0436 78.6717 22.063 78.6717 22.063V27.4492C78.6521 27.4492 78.6717 27.4686 78.6912 27.4686Z" fill="#050605"/>
</g>
</g>
<g opacity="0.501999">
<mask id="mask23_2587_195" style="mask-type:alpha" maskUnits="userSpaceOnUse" x="79" y="22" width="2" height="6">
<rect width="0.630191" height="5.42504" transform="matrix(1 0 0 -1 79.4834 27.4686)" fill="#D9D9D9"/>
</mask>
<g mask="url(#mask23_2587_195)">
<path d="M79.511 27.4686H79.5892C79.6087 27.4686 79.6087 27.4492 79.6087 27.4492V22.063C79.6087 22.0436 79.5892 22.0436 79.5892 22.0436H79.511C79.4915 22.0436 79.4915 22.063 79.4915 22.063V27.4492C79.472 27.4492 79.4915 27.4686 79.511 27.4686Z" fill="#050605"/>
</g>
</g>
<g opacity="0.501999">
<mask id="mask24_2587_195" style="mask-type:alpha" maskUnits="userSpaceOnUse" x="80" y="22" width="1" height="6">
<rect width="0.630191" height="5.42504" transform="matrix(1 0 0 -1 80.3052 27.4686)" fill="#D9D9D9"/>
</mask>
<g mask="url(#mask24_2587_195)">
<path d="M80.3328 27.4686H80.4109C80.4305 27.4686 80.4305 27.4492 80.4305 27.4492V22.063C80.4305 22.0436 80.4109 22.0436 80.4109 22.0436H80.3328C80.3133 22.0436 80.3133 22.063 80.3133 22.063V27.4492C80.2937 27.4492 80.3133 27.4686 80.3328 27.4686Z" fill="#050605"/>
</g>
</g>
<g opacity="0.501999">
<mask id="mask25_2587_195" style="mask-type:alpha" maskUnits="userSpaceOnUse" x="81" y="22" width="1" height="6">
<rect width="0.630191" height="5.42504" transform="matrix(1 0 0 -1 81.1245 27.4686)" fill="#D9D9D9"/>
</mask>
<g mask="url(#mask25_2587_195)">
<path d="M81.1523 27.4686H81.2298C81.2499 27.4686 81.2499 27.4492 81.2499 27.4492V22.063C81.2499 22.0436 81.2298 22.0436 81.2298 22.0436H81.1523C81.1321 22.0436 81.1321 22.063 81.1321 22.063V27.4492C81.1126 27.4492 81.1321 27.4686 81.1523 27.4686Z" fill="#050605"/>
</g>
</g>
<rect width="0.547004" height="2.44996" transform="matrix(1 0 0 -1 98.3599 29.2381)" fill="#F2F3F4"/>
<g opacity="0.102005">
<mask id="mask26_2587_195" style="mask-type:alpha" maskUnits="userSpaceOnUse" x="86" y="20" width="5" height="16">
<rect width="4.10128" height="14.4278" transform="matrix(1 0 0 -1 86.3286 35.2263)" fill="#D9D9D9"/>
</mask>
<g mask="url(#mask26_2587_195)">
<path d="M90.4299 31.0064C90.3328 33.6703 88.3011 34.7789 86.3286 35.2263V31.0064H90.4299ZM90.4299 30.4619H86.3286V25.5619H90.4299V30.4619ZM86.3286 20.7982C88.3011 21.2455 90.3328 22.3535 90.4299 25.0174H86.3286V20.7982Z" fill="#050605"/>
</g>
</g>
</g>
</svg>
