<svg width="100" height="76" viewBox="0 0 100 76" fill="none" xmlns="http://www.w3.org/2000/svg">
<g clip-path="url(#clip0_6560_1848)">
<path d="M100 45.447C100 45.7213 99.785 45.9565 99.4918 45.9565V46.0741C99.7654 46.0741 100 46.2897 100 46.5837C100 46.858 99.785 47.0932 99.4918 47.0932L99.4722 47.1912H93.0022V42.9972H90.2187C90.2187 42.9972 89.906 42.9384 89.906 43.0952C89.906 43.252 90.2187 43.5068 90.2187 43.5068L92.924 45.8997L92.9279 46.8737C92.4373 46.421 89.3704 43.5911 89.3 43.5264C89.0459 43.3108 88.8895 43.2128 88.6745 43.2128H88.2621C88.0842 44.4612 87.8242 45.4372 87.4509 45.7409C86.9994 46.1035 78.6782 46.5699 78.1387 46.5758L77.6716 50.8678C78.0899 50.9716 78.4007 51.3479 78.4007 51.7967L79.7005 51.8359C79.6458 51.7516 79.4347 51.3949 79.4171 50.8168C79.3976 50.1505 79.7299 49.7977 79.7299 49.1706C79.7299 48.9119 79.7299 47.0618 79.7299 46.5621H80.3554C80.3554 47.0716 80.3554 48.9315 80.3554 49.1706C80.3554 49.7389 80.0426 50.2485 80.0426 50.8168C80.0426 51.3185 80.2733 51.7418 80.328 51.8359H88.7801C89.0733 51.8359 89.2883 54.0505 89.2883 56.7942C89.2883 59.5379 89.0537 61.7524 88.7801 61.7524H78.4007V61.8308C78.4007 62.36 77.9706 62.7911 77.4429 62.7911H60.2221C59.8898 62.7911 58.541 61.8896 58.541 56.8138C58.541 51.7379 59.8898 50.8364 60.2221 50.8364H71.7899C71.9248 50.5777 72.7653 46.5464 72.7653 46.5464C71.4029 46.5111 70.0483 46.4465 68.7641 46.3485C67.1202 46.225 65.1694 46.0173 63.158 45.7743C63.1639 45.8095 63.0896 45.9565 62.9 45.9369L57.4659 45.7605C57.2509 45.7605 57.0946 45.5842 57.1141 45.3686L57.1415 44.9766C53.1441 44.4102 49.9795 43.8987 49.9795 43.8987C49.9795 43.8987 49.1253 44.3417 48.6698 44.7218V44.9962H51.856C53.1461 44.9962 53.928 46.2309 54.0257 46.956C54.0472 47.1089 54.057 47.4597 54.057 47.9359H54.4362L54.0257 54.0113H53.625C53.5585 54.4189 53.4842 54.7913 53.4002 55.1087C53.148 56.069 52.4013 56.7119 51.5667 57.1352L52.3818 58.2346L53.0092 57.8133L53.5175 58.4404L52.8607 58.8813C52.8607 58.8813 53.6152 59.7534 53.7325 60.0866C53.8068 60.3081 53.539 61.5271 53.3298 62.3992L53.9084 62.5755L53.8107 63.3007L52.2567 62.9812L51.856 64.4765C51.7973 64.7313 51.4846 64.8685 51.1718 64.7901L50.605 64.6333L51.7582 59.9886L52.3642 60.1454C52.716 60.2238 52.9115 60.5374 52.8333 60.8313L52.4834 62.1405L52.9741 62.2894L53.324 60.3022L52.4287 59.1733L51.9752 59.4791L51.467 58.8519L51.9107 58.5541L50.9549 57.4076C49.9619 57.7858 48.9826 57.9034 48.6718 57.9132C48.0267 57.9328 47.8704 57.4429 47.6358 56.267C47.7824 57.0548 48.2046 59.5594 48.2046 59.5594L40.0321 61.0293L39.7095 59.1871H39.3088C39.3088 59.1871 39.2033 58.7128 39.0664 58.1405C38.9824 60.7941 38.7166 62.7539 38.4097 62.7539C38.4097 62.7539 39.0938 66.0855 39.0938 69.5936C39.0938 73.1016 38.8006 76.0021 38.4097 76.0021H1.11222C1.01253 76.0001 0.322524 74.64 0.322524 74.64L0.559041 73.3407C0.476944 72.2883 0.428077 69.4466 0.428077 69.3721H0.160285L0 66.938L0.562951 65.7876C0.688051 64.2159 0.905022 62.5168 0.813151 62.1013L0.320569 61.3624L0.557087 60.0905C0.47499 59.0381 0.426123 56.265 0.426123 56.216H0.160285L0 53.8388L0.551223 52.7394C0.676323 51.0735 0.88352 49.9741 1.11222 49.9741H2.74048C3.53408 47.8771 4.7108 47.4068 5.09979 47.4068L7.76208 47.4362L6.44852 46.6229L6.52867 46.4935L6.01654 46.2172L6.18855 45.9016L6.73586 46.1584L6.80037 46.0545L9.75391 47.4577C9.75391 47.4577 13.7845 47.4087 13.7982 47.4107V46.272H13.3799C13.3642 46.3289 13.3154 46.37 13.2508 46.37H12.1953C12.1171 46.37 12.0585 46.3112 12.0585 46.2329V44.9982C11.6441 45.0825 11.5014 45.2334 11.2375 45.3509C10.8857 45.5077 6.80037 45.4489 6.80037 45.4489V44.9394C6.80037 44.9394 6.35079 44.814 6.3117 44.8042C6.21592 44.9022 6.08691 44.9688 5.9403 44.9786L5.43795 45.0217L5.45163 45.1354L6.2726 45.5469L5.76438 46.4876L4.55247 45.8801L4.33746 45.5665V45.1197L3.81751 45.1648C3.79601 45.2 3.34057 45.4881 3.34057 45.4881L2.07002 45.7625H1.5618V46.1741H0.213061V43.6851H1.5618V43.9007L3.34057 43.8223C3.34057 43.8223 3.81556 44.081 3.85465 44.1496L4.33746 44.0967V43.6067C4.33746 43.6067 4.49383 43.3912 4.74794 43.3912C4.98251 43.3912 5.25616 43.4891 5.25616 43.4891L5.3148 43.9889L6.80037 43.8223V43.2736H11.3352V42.4309L11.5307 42.2349V41.8018C11.3001 41.6352 10.7078 41.3138 10.7058 41.3138L10.0842 41.4137V41.0825C9.92201 41.0316 9.78714 41.0022 9.67376 41.0022C9.4392 41.0022 9.04826 41.4137 9.04826 41.4137H5.68619L5.66665 41.7273H4.65021V40.473H3.82924V40.1987H3.20374L1.97228 38.7484V38.4152H0.310796V37.5921H1.97228V37.2786L3.20374 35.8283H3.82924V35.5344H4.65021L4.63066 34.2997H5.66665L5.68619 34.6133H9.04826C9.04826 34.6133 9.4392 35.0248 9.67376 35.0248C9.78714 35.0248 9.92201 34.9974 10.0842 34.9445V34.5937L10.7391 34.6975C11.003 34.5858 11.3079 34.384 11.5307 34.2233V33.7686L11.3352 33.5726V32.7299H6.80037V32.1811L5.3148 32.0302L5.25616 32.5339C5.25616 32.5339 4.98251 32.6319 4.74794 32.6319C4.49383 32.6319 4.33746 32.4163 4.33746 32.4163V31.9146L3.85269 31.8578C3.81556 31.9244 3.77842 31.9754 3.75105 32.0048C3.55558 32.1811 3.34057 32.1811 3.34057 32.1811L1.5618 32.1028V32.3379H0.213061V29.849H1.5618V30.241H2.07002V30.4369C2.08175 30.4369 3.34057 30.5153 3.34057 30.5153C3.34057 30.5153 3.55558 30.5349 3.75105 30.7505C3.77255 30.7721 3.79405 30.8034 3.81751 30.8387L4.33746 30.8838V30.4565L4.55247 30.143L5.76438 29.5158L6.2726 30.4565L5.45163 30.8681L5.43795 30.9818L5.9403 31.0249C6.08691 31.0347 6.21592 31.1013 6.3117 31.1993C6.34883 31.1895 6.80037 31.0641 6.80037 31.0641V30.5545C6.80037 30.5545 10.8857 30.4957 11.2375 30.6525C11.5014 30.7701 11.6441 30.919 12.0585 31.0053V29.7706C12.0585 29.6922 12.1171 29.6334 12.1953 29.6334H13.2508C13.3154 29.6334 13.3642 29.6746 13.3799 29.7314H13.7982V28.5928C13.7845 28.5928 9.79691 28.5438 9.79691 28.5438L6.80037 29.9666L6.72609 29.847L6.18073 30.1782L5.99504 29.8333L6.51889 29.5119L6.44852 29.3963L7.79531 28.5634L5.09979 28.5928C4.7108 28.5928 3.53408 28.1224 2.74048 26.0254H1.11222C0.9793 26.0254 0.8542 25.6531 0.746692 25.0142L0.322524 24.3773L0.545359 23.1818C0.47108 22.1646 0.428077 19.3661 0.430032 19.2328H0.160285L0 16.8556L0.572724 15.7111C0.699779 14.202 0.895248 13.228 1.11026 13.228C1.11026 13.228 0.881565 12.5088 0.783831 12.0051L0.320569 11.3113L0.551223 10.0688C0.473035 9.02818 0.426123 6.2394 0.426123 6.16492H0.160285L0 3.78769L0.555132 2.67845C0.680232 1.0479 0.885475 -0.0201797 1.11026 -0.0201797H38.4058C38.7771 -0.0201797 39.0899 2.84111 39.0899 6.38834C39.0899 9.93555 38.7771 12.7969 38.4058 12.7969V13.228C38.7126 13.228 38.9785 15.1819 39.0625 17.859C39.1994 17.2867 39.3049 16.8144 39.3049 16.8144H39.7056L40.0281 14.9722L48.1597 16.4225C48.1597 16.4225 47.6553 19.5679 47.6319 19.7149C47.7765 19.1172 48.0228 18.0491 48.6679 18.0491C48.9826 18.0589 49.9658 18.1765 50.9646 18.5586L51.897 17.4396L51.4631 17.1476L51.9713 16.5205L52.415 16.8183L53.32 15.6777L52.9819 13.6866L52.4815 13.8395L52.8314 15.1486C52.9096 15.4426 52.7141 15.7561 52.3622 15.8345L51.7563 15.9913L50.603 11.327L51.1699 11.1702C51.4826 11.0918 51.7954 11.229 51.854 11.4838L52.2586 12.9987L53.8087 12.6793L53.9065 13.4044L53.3474 13.5749C53.5566 14.447 53.8244 15.6699 53.7501 15.8933C53.6328 16.2461 52.8626 17.1202 52.8626 17.1202L53.5155 17.5591L53.0073 18.1863L52.3837 17.7669L51.5921 18.8389C52.415 19.2642 53.15 19.9031 53.3982 20.8516C53.4842 21.1789 53.5605 21.565 53.6289 21.9883H54.0237L54.4342 28.0832H54.055C54.055 28.5301 54.0452 28.8573 54.0237 29.0043C53.926 29.7295 53.1441 30.9641 51.854 30.9641H48.6679V31.2777C49.1018 31.6402 49.9775 32.1204 49.9775 32.1204C49.9775 32.1204 53.1441 31.6089 57.1415 31.0425L57.1121 30.631C57.0926 30.4154 57.249 30.239 57.464 30.239L62.898 30.0626C63.0915 30.043 63.2518 30.1626 63.2753 30.2312C65.2456 29.994 67.1514 29.7922 68.7621 29.6707C70.0502 29.5727 71.4087 29.508 72.7751 29.4727C72.7751 29.4727 71.9228 25.4218 71.788 25.1631H60.2221C59.8898 25.1631 58.541 24.2616 58.541 19.1662C58.541 14.0707 59.8898 13.1888 60.2221 13.1888H77.4429C77.9706 13.1888 78.4007 13.62 78.4007 14.1491V14.2275H88.7801C89.0537 14.2275 89.2883 16.4421 89.2883 19.1858C89.2883 21.9295 89.0733 24.1636 88.7801 24.1636H80.3045C80.2948 24.1813 80.0426 24.6262 80.0426 25.1827C80.0426 25.7393 80.3554 26.2802 80.3554 26.829V29.4786H79.7299V26.829C79.7299 26.2018 79.4171 25.8687 79.4171 25.1827C79.4367 24.5144 79.6673 24.1813 79.679 24.1636L78.4007 24.2028C78.4007 24.6418 78.1036 25.0083 77.7029 25.122L78.4183 29.461C78.8639 29.4668 87.0052 29.9215 87.4528 30.2978C87.8321 30.6074 88.0979 31.6089 88.2777 32.8847H88.6765C88.8915 32.8847 89.0479 32.7867 89.302 32.5711C89.3724 32.5124 92.492 29.6256 92.924 29.2277L92.9143 30.1959L90.2207 32.5907C90.2207 32.5907 89.9079 32.8455 89.9079 33.0023C89.9079 33.1591 90.2207 33.1003 90.2207 33.1003H93.0042V28.8083H99.4742L99.4937 28.9259C99.7674 28.9259 100.002 29.1415 100.002 29.4355C100.002 29.7099 99.7869 29.945 99.4937 29.945V30.0626C99.7674 30.0626 100.002 30.2782 100.002 30.5722C100.002 30.8465 99.7869 31.0817 99.4937 31.0817V31.1993C99.7674 31.1993 100.002 31.4149 100.002 31.7088C100.002 31.9832 99.7869 32.2184 99.4937 32.2184V32.336C99.7674 32.336 100.002 32.5515 100.002 32.8455C100.002 33.1199 99.7869 33.3551 99.4937 33.3551V33.4727C99.7674 33.4727 100.002 33.7078 100.002 33.9822C100.002 34.2566 99.7869 34.4917 99.4937 34.4917V34.6093C99.7674 34.6093 100.002 34.8249 100.002 35.1189C100.002 35.3932 99.7869 35.6284 99.4937 35.6284L99.4742 35.746H99.6892V40.2731H99.4742L99.4937 40.3907C99.7674 40.3907 100.002 40.6063 100.002 40.9003C100.002 41.1746 99.7869 41.4098 99.4937 41.4098V41.5274C99.7674 41.5274 100.002 41.743 100.002 42.0369C100.002 42.3113 99.7869 42.5465 99.4937 42.5465V42.6641C99.7674 42.6641 100.002 42.8796 100.002 43.1736C100.002 43.448 99.7869 43.6832 99.4937 43.6832V43.8008C99.7674 43.8008 100.002 44.0163 100.002 44.3103C100.002 44.5847 99.7869 44.8198 99.4937 44.8198V44.9374C99.7674 44.9374 100.002 45.153 100.002 45.447H100Z" fill="black"/>
<path d="M47.6145 38.0192C47.6145 38.0192 47.6145 38.0055 47.6145 37.9996C47.6145 37.9937 47.6145 37.9859 47.6145 37.98C47.6145 36.8512 47.5754 35.5126 47.5363 33.982C47.4386 30.8464 46.9108 26.7896 46.0899 25.7117C45.2689 24.6338 43.6269 23.8891 40.1281 22.9092C39.8876 22.8426 39.6433 22.7818 39.399 22.7211C39.1898 21.898 38.7989 20.8514 38.7989 20.8514C38.7989 20.8514 36.4337 20.1067 34.7722 19.4012C33.1107 18.6957 30.6674 18.3625 28.4976 18.3625H13.7984C13.7984 18.3625 13.6713 18.3958 13.4661 18.4526C12.1838 18.486 11.0403 18.7074 9.79126 19.0876C7.85612 19.656 7.48473 21.0866 7.21107 22.4977C6.93741 23.9283 6.70285 25.1434 8.03204 26.3388C8.83542 27.0601 10.276 27.6323 11.271 27.9694C11.3707 28.0595 11.4645 28.1399 11.5505 28.2006C12.2581 28.7298 13.6772 28.5906 15.6358 28.5338V47.4674C13.6772 47.4105 12.2581 47.2714 11.5505 47.8005C11.4547 47.8691 11.3492 47.9612 11.2358 48.0631C10.2408 48.4002 8.82565 48.9686 8.03204 49.6819C6.70285 50.8774 6.93741 52.0925 7.21107 53.5035C7.48473 54.9146 7.85612 56.3256 9.79126 56.9135C11.0403 57.2918 12.1818 57.5152 13.4661 57.5485C13.6733 57.6054 13.7984 57.6387 13.7984 57.6387H28.4976C30.6674 57.6387 33.1107 57.3055 34.7722 56.6C36.4337 55.8945 38.7989 55.1497 38.7989 55.1497C38.7989 55.1497 39.1957 54.0856 39.4048 53.2585C39.6472 53.1978 39.8896 53.137 40.1281 53.0724C43.6269 52.0925 45.2689 51.3477 46.0899 50.2699C46.9108 49.2116 47.4386 45.1548 47.5363 42.0191C47.5754 40.4689 47.6126 39.15 47.6145 38.0212V38.0192ZM85.5355 45.7408C84.7341 46.4267 75.7034 46.8775 68.7643 46.3483C61.9815 45.8388 49.9797 43.8986 49.9797 43.8986L49.491 43.3694V32.6298L49.9797 32.1202C49.9797 32.1202 61.9815 30.18 68.7643 29.6705C75.7034 29.1413 84.7341 29.5921 85.5355 30.278C86.3369 30.964 86.6106 35.0599 86.6106 38.0192C86.591 40.9785 86.3369 45.0745 85.5355 45.7408Z" fill="#ED2939"/>
<path d="M39.092 6.38821C39.092 2.84099 38.7792 -0.0203018 38.4079 -0.0203018H1.11236C0.740973 -0.0203018 0.428223 2.86059 0.428223 6.38821C0.428223 9.91583 0.740973 12.7967 1.11236 12.7967H38.4079C38.7792 12.7967 39.092 9.91583 39.092 6.38821ZM1.11236 63.2026H38.4079C38.7792 63.2026 39.092 66.0835 39.092 69.5915C39.092 73.0995 38.7988 76 38.4079 76H1.11236C0.740973 76 0.428223 73.1387 0.428223 69.5915C0.428223 66.0443 0.740973 63.2026 1.11236 63.2026ZM38.4079 62.7518H1.11236C0.740973 62.7518 0.428223 59.8709 0.428223 56.3629C0.428223 52.8549 0.740973 49.974 1.11236 49.974H7.74072C6.74578 51.0754 6.9608 52.2062 7.211 53.5016C7.48465 54.9126 7.85605 56.3237 9.79119 56.9116C11.0402 57.2899 12.1818 57.5133 13.466 57.5466C13.6732 57.6034 13.7983 57.6368 13.7983 57.6368H28.4976C30.6673 57.6368 33.1106 57.3036 34.7721 56.5981C36.4336 55.8925 38.7988 55.1478 38.7988 55.1478C38.7988 55.1478 38.918 54.8303 39.0588 54.409C39.0803 55.0263 39.092 55.6828 39.092 56.3629C39.092 59.8709 38.7792 62.7518 38.4079 62.7518ZM38.7988 20.8515C38.7988 20.8515 36.4336 20.1068 34.7721 19.4012C33.1106 18.6957 30.6673 18.3625 28.4976 18.3625H13.7983C13.7983 18.3625 13.6712 18.3959 13.466 18.4527C12.1837 18.486 11.0402 18.7075 9.79119 19.0877C7.85605 19.656 7.48465 21.0866 7.211 22.4977C6.9608 23.8029 6.74774 24.9298 7.72313 26.0253H1.11236C0.740973 26.0253 0.428223 23.1444 0.428223 19.6364C0.428223 16.1284 0.740973 13.2279 1.11236 13.2279H38.4079C38.7792 13.2279 39.092 16.0892 39.092 19.6364C39.092 20.3164 39.0803 20.973 39.0588 21.5903C38.918 21.169 38.7988 20.8515 38.7988 20.8515Z" fill="url(#paint0_linear_6560_1848)"/>
<path d="M19.1286 75.2788C19.025 75.4591 19.1599 75.6825 19.3729 75.6825H20.3425C20.4441 75.6825 20.5379 75.6296 20.5868 75.5433L23.6283 70.2676C23.7319 70.0873 23.597 69.8639 23.384 69.8639H22.4144C22.3128 69.8639 22.219 69.9168 22.1701 70.003L19.1286 75.2788ZM20.6103 69.3759H19.7854C19.6603 69.3759 19.5469 69.3112 19.4863 69.2054L16.5171 64.0511C16.3901 63.8297 16.5543 63.5573 16.8162 63.5573H17.6411C17.7662 63.5573 17.8796 63.6219 17.9401 63.7278L20.9093 68.882C21.0364 69.1035 20.8722 69.3759 20.6103 69.3759ZM17.0488 70.0207C17.1055 69.9227 17.2111 69.8639 17.3264 69.8639H18.2119C18.4542 69.8639 18.6067 70.1147 18.4894 70.3205L15.4909 75.5257C15.4342 75.6237 15.3287 75.6825 15.2134 75.6825H14.3279C14.0855 75.6825 13.933 75.4316 14.0503 75.2259L17.0488 70.0207ZM15.4518 69.3759H14.6915C14.5566 69.3759 14.4334 69.3053 14.367 69.1917L11.4291 64.0923C11.2903 63.8532 11.4701 63.5573 11.7536 63.5573H12.5139C12.6488 63.5573 12.7719 63.6278 12.8384 63.7415L15.7763 68.8409C15.9151 69.08 15.7353 69.3759 15.4518 69.3759ZM12.0409 70.052C12.1034 69.9364 12.2266 69.8639 12.3615 69.8639H13.0456C13.3173 69.8639 13.4913 70.1422 13.3662 70.3754L10.6179 75.4944C10.5573 75.61 10.4341 75.6805 10.3012 75.6805H9.6073C9.33951 75.6805 9.16554 75.4042 9.29064 75.1749L12.0409 70.052ZM10.4107 69.3759H9.93374C9.76368 69.3759 9.60926 69.2838 9.53107 69.1388L6.78473 64.0257C6.6694 63.812 6.82969 63.5573 7.07793 63.5573H7.83244C7.95559 63.5573 8.06896 63.6239 8.12565 63.7297L10.8114 68.7331C10.9678 69.0251 10.7488 69.3759 10.4087 69.3759H10.4107ZM7.61938 70.0481C7.66825 69.9344 7.78162 69.8619 7.90868 69.8619H8.43449C8.65732 69.8619 8.80979 70.0814 8.72378 70.2813L6.47589 75.4983C6.42898 75.608 6.31756 75.6805 6.19441 75.6805H5.65297C5.43404 75.6805 5.28744 75.465 5.37149 75.2709L7.62134 70.0481H7.61938ZM6.36252 69.3759H5.95203C5.80348 69.3759 5.67056 69.2897 5.61387 69.1583L3.42657 64.0805C3.31906 63.8316 3.50867 63.5573 3.78624 63.5573H4.14394C4.30227 63.5573 4.44301 63.6494 4.50361 63.7885L6.69872 68.884C6.79841 69.1172 6.62249 69.3739 6.36056 69.3739L6.36252 69.3759ZM3.92111 70.1539C3.97584 69.9815 4.14199 69.8639 4.32768 69.8639C4.61502 69.8639 4.81831 70.1324 4.73426 70.3969L3.11773 75.4708C3.07864 75.5963 2.9594 75.6805 2.82453 75.6805H2.57628C2.36909 75.6805 2.22248 75.4865 2.28308 75.2964L3.92306 70.1539H3.92111ZM2.85385 69.3759C2.6662 69.3759 2.502 69.2583 2.44727 69.0858L0.856154 64.0962C0.770148 63.8297 0.977345 63.5592 1.26664 63.5592C1.45038 63.5592 1.61262 63.6749 1.66735 63.8454L3.26042 68.8448C3.34448 69.1094 3.13923 69.3778 2.85385 69.3778V69.3759ZM1.41324 69.8619C1.57548 69.8619 1.70058 70.0011 1.67712 70.1559L0.869837 75.4826L0.322524 74.6399L1.15131 70.0755C1.17281 69.9521 1.28423 69.8619 1.41324 69.8619ZM0.160285 69.37L0 66.9379L0.580543 65.7522L0.842472 69.3759L0.162239 69.37H0.160285ZM26.619 70.0011C26.6659 69.9148 26.7578 69.8619 26.8574 69.8619H27.7781C27.9814 69.8619 28.1124 70.0716 28.0166 70.246L25.1119 75.5414C25.065 75.6276 24.9731 75.6805 24.8734 75.6805H23.9528C23.7495 75.6805 23.6185 75.4708 23.7143 75.2964L26.619 70.0011ZM25.1158 69.3759H24.3672C24.2382 69.3759 24.1209 69.3073 24.0622 69.1975L21.2397 64.0492C21.1165 63.8258 21.2846 63.5573 21.5446 63.5573H22.2932C22.4223 63.5573 22.5395 63.6259 22.5982 63.7356L25.4208 68.884C25.5439 69.1074 25.3758 69.3759 25.1158 69.3759ZM31.7539 70.2617L29.4357 75.5061C29.3888 75.6119 29.2813 75.6805 29.164 75.6805H28.5737C28.3606 75.6805 28.2179 75.4708 28.302 75.2807L30.6202 70.0363C30.6671 69.9305 30.7746 69.8619 30.8919 69.8619H31.4822C31.6953 69.8619 31.838 70.0716 31.7539 70.2617ZM29.4025 69.3759H28.8591C28.732 69.3759 28.6167 69.3014 28.5658 69.1897L26.2652 63.9865C26.1753 63.7826 26.3297 63.5573 26.5584 63.5573H27.1018C27.2288 63.5573 27.3442 63.6298 27.395 63.7434L29.6957 68.9467C29.7856 69.1505 29.6312 69.3759 29.4025 69.3759ZM34.8189 70.1108L33.2082 75.5394C33.1828 75.6237 33.1046 75.6805 33.0147 75.6805H32.6042C32.4713 75.6805 32.3736 75.5571 32.4107 75.4316L34.0214 70.003C34.0468 69.9187 34.125 69.8619 34.2149 69.8619H34.6254C34.7583 69.8619 34.856 69.9854 34.8189 70.1108ZM33.2082 69.3759H32.8701C32.7645 69.3759 32.6727 69.3093 32.6433 69.2113L31.0522 63.8493C31.0092 63.7043 31.1226 63.5592 31.279 63.5592H31.6171C31.7227 63.5592 31.8145 63.6259 31.8439 63.7238L33.435 69.0858C33.478 69.2309 33.3646 69.3759 33.2082 69.3759ZM36.971 70.1912L35.8803 75.461C35.8529 75.5884 35.7376 75.6825 35.6027 75.6825C35.4229 75.6825 35.29 75.5238 35.3252 75.3533L36.4159 70.0834C36.4432 69.956 36.5586 69.8619 36.6935 69.8619C36.8733 69.8619 37.0062 70.0207 36.971 70.1912ZM35.7337 69.3759C35.5988 69.3759 35.4815 69.2838 35.4561 69.1544L34.3654 63.8846C34.3302 63.7141 34.4651 63.5553 34.643 63.5553C34.7779 63.5553 34.8951 63.6474 34.9205 63.7768L36.0113 69.0466C36.0464 69.2171 35.9116 69.3759 35.7337 69.3759ZM37.6845 75.5238C37.6727 75.6139 37.5926 75.6805 37.4988 75.6805C37.3854 75.6805 37.2994 75.5845 37.3131 75.4767L38.0461 70.0187C38.0578 69.9285 38.138 69.8619 38.2318 69.8619C38.3452 69.8619 38.4312 69.9579 38.4175 70.0657L37.6845 75.5238ZM37.6122 69.3759C37.5183 69.3759 37.4401 69.3093 37.4265 69.2191L36.6935 63.7611C36.6798 63.6533 36.7658 63.5573 36.8791 63.5573C36.973 63.5573 37.0512 63.6239 37.0648 63.7141L37.7978 69.1721C37.8115 69.2799 37.7255 69.3759 37.6122 69.3759Z" fill="url(#paint1_linear_6560_1848)"/>
<path d="M19.1286 11.9343C19.025 12.1107 19.1599 12.3282 19.3729 12.3282H20.3425C20.4441 12.3282 20.5379 12.2753 20.5868 12.193L23.6283 7.04073C23.7319 6.86435 23.597 6.64681 23.384 6.64681H22.4144C22.3128 6.64681 22.219 6.69973 22.1701 6.78204L19.1286 11.9343ZM20.6103 6.16862H19.7854C19.6603 6.16862 19.5469 6.10395 19.4863 6.00204L16.5171 0.969298C16.3901 0.753721 16.5543 0.487191 16.8162 0.487191H17.6411C17.7662 0.487191 17.8796 0.551866 17.9401 0.653774L20.9093 5.68652C21.0364 5.90209 20.8722 6.16862 20.6103 6.16862ZM17.0488 6.79772C17.1055 6.70365 17.2111 6.64485 17.3264 6.64485H18.2119C18.4542 6.64485 18.6067 6.88983 18.4894 7.08973L15.4909 12.1734C15.4342 12.2675 15.3287 12.3263 15.2134 12.3263H14.3279C14.0855 12.3263 13.933 12.0813 14.0503 11.8814L17.0488 6.79772ZM15.4518 6.16862H14.6915C14.5566 6.16862 14.4334 6.10004 14.367 5.98833L11.4291 1.0085C11.2903 0.775281 11.4701 0.487191 11.7536 0.487191H12.5139C12.6488 0.487191 12.7719 0.55578 12.8384 0.667489L15.7763 5.64732C15.9151 5.88053 15.7353 6.16862 15.4518 6.16862ZM12.0409 6.82907C12.1034 6.7154 12.2266 6.64485 12.3615 6.64485H13.0456C13.3173 6.64485 13.4913 6.91727 13.3662 7.1446L10.6179 12.146C10.5573 12.2577 10.4341 12.3282 10.3012 12.3282H9.6073C9.33951 12.3282 9.16554 12.0598 9.29064 11.8344L12.0409 6.83103V6.82907ZM10.4107 6.16862H9.93374C9.76368 6.16862 9.60926 6.07848 9.53107 5.93737L6.78473 0.94382C6.6694 0.736082 6.82969 0.487191 7.07793 0.487191H7.83244C7.95559 0.487191 8.06896 0.551862 8.12565 0.65573L10.8114 5.54345C10.9678 5.82958 10.7488 6.17059 10.4087 6.17059L10.4107 6.16862ZM7.61938 6.82712C7.66825 6.71737 7.78162 6.64485 7.90868 6.64485H8.43449C8.65732 6.64485 8.80979 6.86043 8.72378 7.05445L6.47784 12.1499C6.43093 12.2577 6.31951 12.3282 6.19637 12.3282H5.65492C5.43599 12.3282 5.28939 12.1186 5.37344 11.9285L7.62329 6.82907L7.61938 6.82712ZM6.36252 6.16862H5.95203C5.80348 6.16862 5.67056 6.08435 5.61387 5.95501L3.42657 0.994777C3.31906 0.751762 3.50867 0.485229 3.78624 0.485229H4.14394C4.30227 0.485229 4.44301 0.57538 4.50361 0.712566L6.69872 5.69043C6.79841 5.91777 6.62249 6.16862 6.36056 6.16862H6.36252ZM3.92111 6.92902C3.97584 6.76048 4.14199 6.64485 4.32768 6.64485C4.61502 6.64485 4.81831 6.90746 4.73426 7.16616L3.11578 12.1225C3.07668 12.244 2.95745 12.3263 2.82257 12.3263H2.57433C2.36713 12.3263 2.22053 12.1362 2.28112 11.95L3.92111 6.92706V6.92902ZM2.85385 6.16862C2.6662 6.16862 2.502 6.053 2.44727 5.88446L0.856154 1.01045C0.770148 0.7498 0.977345 0.485229 1.26664 0.485229C1.45038 0.485229 1.61262 0.5989 1.66735 0.763522L3.26042 5.64536C3.34448 5.90406 3.13923 6.16667 2.85385 6.16667V6.16862ZM1.41324 6.64485C1.57548 6.64485 1.70058 6.78008 1.67712 6.93294L0.869837 12.1342L0.322524 11.3111L1.15131 6.8526C1.17281 6.73305 1.28423 6.64485 1.41324 6.64485ZM0.160285 6.16274L0 3.78748L0.580543 2.62924L0.842472 6.16862L0.162239 6.16274H0.160285ZM26.619 6.78008C26.6659 6.69581 26.7578 6.64485 26.8574 6.64485H27.7781C27.9814 6.64485 28.1124 6.85063 28.0166 7.01917L25.1119 12.1911C25.065 12.2753 24.9731 12.3263 24.8734 12.3263H23.9528C23.7495 12.3263 23.6185 12.1205 23.7143 11.952L26.619 6.78008ZM25.1158 6.16862H24.3672C24.2382 6.16862 24.1209 6.10199 24.0622 5.99421L21.2397 0.965381C21.1165 0.747844 21.2846 0.485229 21.5446 0.485229H22.2932C22.4223 0.485229 22.5395 0.551866 22.5982 0.659654L25.4208 5.68848C25.5439 5.90602 25.3758 6.16862 25.1158 6.16862ZM31.7539 7.03485L29.4357 12.1577C29.3888 12.2616 29.2813 12.3282 29.164 12.3282H28.5737C28.3606 12.3282 28.2179 12.1225 28.302 11.9383L30.6202 6.81536C30.6671 6.71149 30.7746 6.64485 30.8919 6.64485H31.4822C31.6953 6.64485 31.838 6.85063 31.7539 7.03485ZM29.4025 6.16862H28.8591C28.732 6.16862 28.6167 6.09611 28.5658 5.98637L26.2652 0.904628C26.1753 0.706689 26.3297 0.485229 26.5584 0.485229H27.1018C27.2288 0.485229 27.3442 0.55774 27.395 0.667489L29.6957 5.74923C29.7856 5.94717 29.6312 6.16862 29.4025 6.16862ZM34.8189 6.88787L33.2082 12.1911C33.1828 12.2734 33.1046 12.3282 33.0147 12.3282H32.6042C32.4713 12.3282 32.3736 12.2067 32.4107 12.0852L34.0214 6.78204C34.0468 6.69973 34.125 6.64485 34.2149 6.64485H34.6254C34.7583 6.64485 34.856 6.76636 34.8189 6.88787ZM33.2082 6.16862H32.8701C32.7645 6.16862 32.6727 6.10199 32.6433 6.00792L31.0522 0.771363C31.0092 0.628299 31.1226 0.487191 31.279 0.487191H31.6171C31.7227 0.487191 31.8145 0.553825 31.8439 0.647896L33.435 5.88446C33.478 6.02752 33.3646 6.16862 33.2082 6.16862ZM36.971 6.96626L35.8803 12.1127C35.8529 12.2381 35.7376 12.3282 35.6027 12.3282C35.4229 12.3282 35.29 12.1734 35.3252 12.0068L36.4159 6.86043C36.4432 6.735 36.5586 6.64485 36.6935 6.64485C36.8733 6.64485 37.0062 6.79968 36.971 6.96626ZM35.7337 6.16862C35.5988 6.16862 35.4815 6.07847 35.4561 5.95305L34.3654 0.806638C34.3302 0.640056 34.4651 0.485229 34.643 0.485229C34.7779 0.485229 34.8951 0.575381 34.9205 0.700808L36.0113 5.84722C36.0464 6.0138 35.9116 6.16862 35.7337 6.16862ZM37.6845 12.1734C37.6727 12.2616 37.5926 12.3263 37.4988 12.3263C37.3854 12.3263 37.2994 12.2322 37.3131 12.1284L38.0461 6.79772C38.0578 6.70953 38.138 6.64485 38.2318 6.64485C38.3452 6.64485 38.4312 6.73892 38.4175 6.84279L37.6845 12.1734ZM37.6122 6.16862C37.5183 6.16862 37.4401 6.10395 37.4265 6.01576L36.6935 0.685132C36.6798 0.579304 36.7658 0.487191 36.8791 0.487191C36.973 0.487191 37.0512 0.551864 37.0648 0.640055L37.7978 5.97069C37.8115 6.07652 37.7255 6.16862 37.6122 6.16862Z" fill="url(#paint2_linear_6560_1848)"/>
<path d="M2.85385 19.2367C2.6662 19.2367 2.502 19.121 2.44727 18.9525L0.856154 14.0785C0.770148 13.8178 0.977345 13.5533 1.26664 13.5533C1.45038 13.5533 1.61262 13.6669 1.66735 13.8316L3.26042 18.7134C3.34448 18.9721 3.13923 19.2347 2.85385 19.2347V19.2367ZM1.41324 19.7109C1.57548 19.7109 1.70058 19.8462 1.67712 19.999L0.869837 25.2003L0.322524 24.3772L1.15131 19.9187C1.17281 19.7991 1.28423 19.7109 1.41324 19.7109ZM0.160285 19.2308L0 16.8555L0.580543 15.6973L0.842472 19.2367L0.162239 19.2308H0.160285Z" fill="url(#paint3_linear_6560_1848)"/>
<path d="M2.85385 56.2198C2.6662 56.2198 2.502 56.1042 2.44727 55.9356L0.856154 51.0616C0.770148 50.801 0.977345 50.5364 1.26664 50.5364C1.45038 50.5364 1.61262 50.6501 1.66735 50.8147L3.26042 55.6966C3.34448 55.9552 3.13923 56.2179 2.85385 56.2179V56.2198ZM1.41324 56.696C1.57548 56.696 1.70058 56.8313 1.67712 56.9841L0.869837 62.1854L0.322524 61.3623L1.15131 56.9038C1.17281 56.7842 1.28423 56.696 1.41324 56.696ZM0.160285 56.2139L0 53.8387L0.580543 52.6804L0.842472 56.2198L0.162239 56.2139H0.160285Z" fill="url(#paint4_linear_6560_1848)"/>
<path d="M1.97217 55.2066C1.97217 61.8503 4.49372 62.9086 5.09967 62.889L21.4018 62.1443L35.886 61.4584C36.3337 61.4388 38.1164 60.4354 38.2766 55.3164C37.4869 55.577 35.9525 56.0964 34.7719 56.5981C33.1104 57.3036 30.667 57.6368 28.4973 57.6368H13.798C13.798 57.6368 13.671 57.6035 13.4657 57.5466C12.1835 57.5133 11.04 57.2919 9.79093 56.9117C7.85579 56.3237 7.4844 54.9127 7.21074 53.5016C6.93708 52.0906 6.70252 50.8755 8.03171 49.68C8.82531 48.9686 10.2425 48.4003 11.2354 48.0612C11.3469 47.9574 11.4544 47.8672 11.5502 47.7986C11.7613 47.6418 12.0369 47.5439 12.3692 47.4851L5.09967 47.4067C4.49372 47.4067 1.97217 48.5433 1.97217 55.2066ZM34.7719 19.4013C33.1104 18.6957 30.667 18.3626 28.4973 18.3626H13.798C13.798 18.3626 13.671 18.3959 13.4657 18.4527C12.1835 18.486 11.04 18.7075 9.79093 19.0877C7.85579 19.656 7.4844 21.0867 7.21074 22.4977C6.93708 23.9284 6.70252 25.1434 8.03171 26.3389C8.83509 27.0601 10.2757 27.6324 11.2706 27.9695C11.3703 28.0596 11.4641 28.14 11.5502 28.2007C11.7613 28.3575 12.0369 28.4555 12.3692 28.5143L5.09967 28.5927C4.49372 28.5927 1.97217 27.456 1.97217 20.7927C1.97217 14.1294 4.49372 13.0711 5.09967 13.0907L21.4018 13.8354L35.886 14.5018C36.3337 14.5214 38.1203 15.5444 38.2786 20.683C37.4889 20.4243 35.9525 19.903 34.7719 19.4013Z" fill="#292929"/>
<path d="M17.5903 63.5945C17.5903 63.7121 17.6881 63.8101 17.8053 63.8101H21.7343C21.832 63.8101 21.9297 63.7121 21.9297 63.5945C21.9297 63.4769 21.8516 63.3789 21.7343 63.3789H21.0892C21.1088 63.3593 21.1088 63.3201 21.1088 63.2809C21.1088 63.2417 21.1088 63.2221 21.0892 63.1829H21.3238C21.5388 63.1829 21.7343 63.0065 21.7343 62.7714C21.7343 62.5362 21.5584 62.3598 21.3238 62.3598H18.2354C18.0008 62.3598 17.8249 62.5362 17.8249 62.7714C17.8249 63.0065 18.0008 63.1829 18.2354 63.1829H18.4504C18.4308 63.2025 18.4308 63.2417 18.4308 63.2809C18.4308 63.3201 18.4308 63.3397 18.4504 63.3789H17.8053C17.6881 63.3789 17.5903 63.4769 17.5903 63.5945ZM21.7343 12.6007H21.0892C21.1088 12.6203 21.1088 12.6595 21.1088 12.6987C21.1088 12.7379 21.1088 12.7575 21.0892 12.7967H21.3238C21.5388 12.7967 21.7343 12.9731 21.7343 13.2082C21.7343 13.4434 21.5584 13.6198 21.3238 13.6198H18.2354C18.0008 13.6198 17.8249 13.4434 17.8249 13.2082C17.8249 12.9731 18.0008 12.7967 18.2354 12.7967H18.4504C18.4308 12.7771 18.4308 12.7379 18.4308 12.6987C18.4308 12.6595 18.4308 12.6399 18.4504 12.6007H17.8053C17.6881 12.6007 17.5903 12.5027 17.5903 12.3851C17.5903 12.2871 17.6881 12.1892 17.8053 12.1892H21.7343C21.832 12.1892 21.9297 12.2675 21.9297 12.3851C21.9297 12.5027 21.8516 12.6007 21.7343 12.6007Z" fill="black"/>
<path d="M51.8561 61.9484L51.6216 62.8499L53.8108 63.3007L53.9086 62.5755L51.8561 61.9484ZM51.6216 13.13L53.8108 12.6793L53.9086 13.4044L51.8561 14.0315L51.6216 13.13Z" fill="#303030"/>
<path d="M53.3026 47.9358L52.8921 54.0111H54.0258L54.4363 47.9358H53.3026ZM52.8921 21.9881H54.0258L54.4363 28.0831H53.3026L52.8921 21.9881Z" fill="#1B1B1B"/>
<path d="M51.8559 44.996H45.894L46.5977 48.7392C46.5977 48.7392 47.3992 55.089 47.6337 56.2648C47.8683 57.4407 48.0247 57.9307 48.6697 57.9111C49.3148 57.8915 52.7941 57.4211 53.4001 55.1086C54.006 52.8156 54.1233 47.6809 54.0256 46.9558C53.9278 46.2307 53.1459 44.996 51.8559 44.996ZM51.8559 30.9639H45.894L46.5977 27.2599C46.5977 27.2599 47.3992 20.8906 47.6337 19.7147C47.8683 18.5389 48.0247 18.0489 48.6697 18.0489C49.3148 18.0685 52.7941 18.5389 53.4001 20.8514C54.006 23.1444 54.1233 28.279 54.0256 29.0041C53.9278 29.7293 53.1459 30.9639 51.8559 30.9639Z" fill="url(#paint5_linear_6560_1848)"/>
<path d="M15.5768 44.4278C15.5768 44.4278 15.3227 44.4944 15.0295 44.6257V45.3489H15.049V45.7604H15.0295V47.4321H13.798V45.7604H12.8793V45.3489H13.798V44.9765C13.4403 44.9628 13.024 44.9177 12.5861 44.9373C11.7261 44.9765 11.5892 45.1921 11.2374 45.3489C10.8856 45.5057 9.79093 45.4469 9.79093 45.4469L10.5337 44.4082L11.3547 44.0946V43.3656L11.3351 43.3695V42.4288L11.7691 42.2798C11.8238 42.2602 11.8824 42.2387 11.9509 42.2132H11.5501V41.8134C11.3175 41.6449 10.9892 41.4254 10.7096 41.3117C10.221 41.1157 9.90821 40.9981 9.67365 40.9981C9.43909 40.9981 9.04815 41.4097 9.04815 41.4097H5.68608V41.7233H4.63055V40.9001H4.65009V40.469H3.82912V40.1946H3.20362L1.97217 38.7444V38.1172H3.20362L4.65009 38.7052V37.3157L3.20362 37.9036H1.97217V37.2765L3.20362 35.8262H3.82912V35.5323H4.65009V35.1207H4.63055V34.2976H5.66653V34.5132H5.68608V34.6112H9.04815C9.04815 34.6112 9.43909 35.0227 9.67365 35.0227C9.90821 35.0227 10.221 34.9051 10.7096 34.7092C11.1983 34.5132 11.8434 33.984 11.8434 33.984L13.798 34.2388V34.1604C13.1217 34.0703 12.4552 33.9644 12.1757 33.8665C11.4915 33.6313 11.3547 33.5529 11.3547 33.5529V31.9067L10.5337 31.5931L9.79093 30.5544C9.79093 30.5544 10.8856 30.4956 11.2374 30.6524C11.5892 30.8092 11.7261 31.0248 12.5861 31.064C13.024 31.0836 13.4403 31.0385 13.798 31.0248V30.6524H12.8793V30.2408H13.798V28.5887H15.0295V30.2408H15.049V30.6524H15.0295V31.3756C15.3227 31.5069 15.5768 31.5735 15.5768 31.5735V44.4297V44.4278ZM9.79093 38.0193H9.77138V35.8439H9.45863V37.1961L9.3609 37.2941H6.99572C6.29203 37.2941 5.95974 37.0786 5.95974 37.0786V35.3147H5.68608V40.6846H5.95974V38.9208C5.95974 38.9208 6.29203 38.7052 6.99572 38.7052H9.3609L9.47818 38.8228V40.175H9.79093V38.0193ZM13.798 41.7723L13.5811 41.8016H13.798V41.7723ZM5.95974 44.3494C5.95974 44.6042 6.17475 44.8197 6.42886 44.8197H8.34446V43.879H6.99572H6.42886C6.17475 43.879 5.95974 44.0946 5.95974 44.3494ZM6.99572 32.1203H8.34446V31.1796H6.42886C6.17475 31.1796 5.95974 31.3952 5.95974 31.6499C5.95974 31.9047 6.17475 32.1203 6.42886 32.1203H6.99572Z" fill="black"/>
<path d="M48.6696 31.2187V27.3383C48.6696 25.4177 47.1058 23.8499 45.1902 23.8499H43.0909C44.6448 24.4339 45.5479 25.0003 46.0894 25.7117C46.8947 26.768 47.4166 30.6837 47.53 33.7919C48.2278 33.153 48.6696 32.2378 48.6696 31.2187ZM45.1902 52.1493H43.0381C44.6253 51.5574 45.542 50.9871 46.0894 50.2679C46.8947 49.2292 47.4166 45.3096 47.53 42.2014C48.2278 42.8383 48.6696 43.7535 48.6696 44.7805V48.6413C48.6696 50.5815 47.1058 52.1493 45.1902 52.1493Z" fill="#363636"/>
<path d="M15.2253 45.9563H12.4497V46.2699H15.2253V45.9563ZM5.94054 44.9764L3.26262 45.2116C2.98896 45.2508 2.77394 45.0352 2.77394 44.7609C2.77394 44.4865 2.98896 44.2317 3.26262 44.2121L5.94054 43.9181C6.23375 43.879 6.48786 44.0945 6.48786 44.3885C6.48786 44.6825 6.25329 44.9568 5.94054 44.9764ZM12.4497 29.7293H15.2253V30.0428H12.4497V29.7293ZM5.94054 32.1006L3.26262 31.787C2.98896 31.7478 2.77394 31.5127 2.77394 31.2383C2.77394 30.9639 2.98896 30.7484 3.26262 30.7875L5.94054 31.0227C6.25329 31.0423 6.48786 31.3167 6.48786 31.6107C6.48786 31.9046 6.23375 32.1202 5.94054 32.1006ZM4.02495 38.4111H0.311035V37.588H4.02495V38.4111ZM15.4403 38.2152V38.4111H11.8242V38.2152H8.22753V37.8036H11.8242V37.588H15.4403V37.8036H15.5185V38.2152H15.4403Z" fill="#484848"/>
<path d="M7.934 44.8198L10.9247 44.4082V43.5851L7.934 43.9967V44.8198ZM10.5142 47.8183L8.53995 47.9163L6.44843 46.6228L6.80028 46.0545L10.5142 47.8183ZM4.55238 45.8781L4.33737 45.5645V43.6047C4.33737 43.6047 4.49374 43.3891 4.74785 43.3891C4.98241 43.3891 5.25607 43.4871 5.25607 43.4871L5.45154 45.1334L6.27251 45.5449L5.76429 46.4856L4.55238 45.8781ZM15.6453 47.4577L14.5702 47.4322L14.2086 45.8585C14.2086 45.8585 14.2867 45.5841 14.5018 45.5253C14.5995 45.5096 14.7598 45.49 14.9552 45.4959C14.9416 45.0687 14.9279 44.6375 14.9142 44.2064C14.8028 44.3769 14.6444 44.6062 14.5409 44.7218C14.3454 44.8982 13.5049 45.1334 13.5049 45.1334L13.3876 44.957V46.2308C13.3876 46.3092 13.3289 46.368 13.2508 46.368H12.1952C12.117 46.368 12.0584 46.3092 12.0584 46.2308V44.0359C12.0584 43.9575 12.117 43.8987 12.1952 43.8987H13.2508C13.2801 43.8987 13.3035 43.9085 13.325 43.9222L14.9064 43.9908C14.8223 41.3529 14.7461 38.813 14.7363 37.9997C14.7363 37.9997 14.7363 37.9938 14.7363 37.9899C14.7363 37.986 14.7363 37.984 14.7363 37.9801C14.7422 37.4059 14.7832 35.9459 14.838 34.1977H11.5502V33.7862H11.9607L11.3352 33.5706V32.6299L12.5666 32.8651L14.8771 32.9533C14.8868 32.6416 14.8966 32.3261 14.9064 32.0086L13.325 32.0772C13.3035 32.0909 13.2801 32.1007 13.2508 32.1007H12.1952C12.117 32.1007 12.0584 32.042 12.0584 31.9636V29.7686C12.0584 29.6902 12.117 29.6314 12.1952 29.6314H13.2508C13.3289 29.6314 13.3876 29.6902 13.3876 29.7686V31.0425L13.5049 30.8661C13.5049 30.8661 14.3454 31.1012 14.5409 31.2776C14.6444 31.3933 14.8008 31.6226 14.9142 31.7931C14.9279 31.356 14.9416 30.917 14.9572 30.4839C14.7617 30.4898 14.5995 30.4702 14.5037 30.4545C14.2887 30.4153 14.2105 30.141 14.2105 30.141L14.3122 28.579L15.6394 28.5378L15.7938 37.9899L15.6472 47.4577H15.6453ZM0.115234 45.2509H2.06992V45.7605H0.115234V45.2509ZM0.115234 43.8987H2.06992V44.4082H0.115234V43.8987ZM13.2703 40.1751V40.9002L10.0842 41.4098V39.9419L13.2703 39.352V40.1751ZM12.0584 39.45H8.24675V38.8228H12.0584V39.45ZM7.934 31.1796L10.9247 31.5912V32.4143L7.934 32.0028V31.1796ZM6.44843 29.3962L8.53995 28.1028L10.5142 28.2008L6.80028 29.9646L6.44843 29.3962ZM5.25607 32.5319C5.25607 32.5319 4.98241 32.6299 4.74785 32.6299C4.49374 32.6299 4.33737 32.4143 4.33737 32.4143V30.4545L4.55238 30.141L5.76429 29.5138L6.27251 30.4545L5.45154 30.8661L5.25607 32.5319ZM0.115234 30.2389H2.06992V30.7485H0.115234V30.2389ZM0.115234 31.5912H2.06992V32.1007H0.115234V31.5912ZM13.2703 35.7068V36.6671L10.0842 35.9929V34.5897L13.2703 35.0992V35.7068ZM12.0584 37.1962H8.24675V36.5691H12.0584V37.1962ZM7.52351 37.3726H9.4782V38.6073H7.52351V37.3726Z" fill="#272727"/>
<path d="M1.56163 43.683H0.212891V46.1719H1.56163V45.3959C1.59681 45.4311 1.63591 45.4645 1.67891 45.486C1.87438 45.584 2.08939 45.5644 2.08939 45.5644L3.3404 45.486C3.3404 45.486 3.55541 45.4664 3.75088 45.2508C3.84861 45.1529 3.9659 44.8785 4.04408 44.6041C3.9659 44.3297 3.82907 44.075 3.75088 43.9966C3.55541 43.8202 3.3404 43.8202 3.3404 43.8202L2.08939 43.8986C2.08939 43.8986 1.87438 43.9182 1.67891 44.0358C1.63591 44.0612 1.59681 44.0985 1.56163 44.1377V43.683ZM6.8002 45.4468H7.30842V45.5448H7.93392V45.4468H9.65405L9.71269 45.4272L9.77133 45.4468C9.77133 45.4468 9.98634 45.4076 10.3968 45.1333C10.8073 44.8589 11.3351 44.6237 11.3351 44.6237H13.368C13.368 44.6237 15.694 44.0358 15.7331 43.9966C15.7722 43.9574 15.2249 42.5463 15.2249 42.5463L12.8597 43.2715H6.8002V43.8202H7.30842V44.9373H6.8002V45.4468ZM7.93392 43.8202H9.69314C10.045 43.8202 10.2014 43.879 10.2014 44.3297C10.2014 44.4865 10.0841 44.6433 9.94725 44.8001L9.67359 44.9373H7.93392V43.8202ZM6.95657 46.2895L6.70246 46.5835L5.72512 46.074L5.86195 45.6428L6.95657 46.2895ZM15.3422 42.2328H11.5305V41.4096H13.2898V39.3323H11.6283V38.9207H13.2898V38.1956H13.5048V39.5478H14.9317V41.4096H15.3422V42.2328ZM15.2249 33.4529C15.2249 33.4529 15.7722 32.0418 15.7331 32.0027C15.7136 31.9831 13.3875 31.3951 13.3875 31.3951H11.3351C11.3351 31.3951 10.8073 31.1599 10.3968 30.866C9.98634 30.5916 9.77133 30.5524 9.77133 30.5524L9.71269 30.572L9.65405 30.5524H7.93392V30.4544H7.30842V30.5524H6.8002V31.062H7.30842V32.179H6.8002V32.7278H12.8597L15.2249 33.4529ZM10.2014 31.6695C10.2014 32.1202 10.045 32.179 9.69314 32.179H7.93392V31.062H9.67359L9.94725 31.1991C10.0841 31.3559 10.2014 31.5127 10.2014 31.6695ZM5.72512 29.9253L6.70246 29.4157L6.95657 29.7097L5.86195 30.3564L5.72512 29.9253ZM3.3404 32.179L2.08939 32.1006C2.08939 32.1006 1.87438 32.081 1.67891 31.9635C1.63591 31.938 1.59681 31.9007 1.56163 31.8615V32.3358H0.212891V29.8469H1.56163V30.6034C1.59681 30.5681 1.63591 30.5348 1.67891 30.5132C1.87438 30.4152 2.08939 30.4348 2.08939 30.4348L3.3404 30.5132C3.3404 30.5132 3.55541 30.5328 3.75088 30.7484C3.84861 30.8464 3.9659 31.1207 4.04408 31.3951C3.9659 31.6695 3.82907 31.9243 3.75088 32.0027C3.55541 32.179 3.3404 32.179 3.3404 32.179ZM13.2898 36.0908V34.5896H11.5305V33.7665H15.3422V34.5896H14.9317V36.4514H13.5048V37.8036H13.2898V37.0785H11.6283V36.667H13.2898V36.0908ZM7.23023 36.9805C7.79709 36.9805 8.26622 37.4509 8.26622 38.0192C8.26622 38.5875 7.79709 39.0579 7.23023 39.0579H3.51632C2.94946 39.0579 2.48033 38.5875 2.48033 38.0192C2.48033 37.4509 2.94946 36.9805 3.51632 36.9805H7.23023Z" fill="#383838"/>
<path d="M60.3003 56.794C60.3003 59.5378 60.5153 61.7523 60.8085 61.7523H88.7801C89.0538 61.7523 89.2884 59.5378 89.2884 56.794C89.2884 54.0503 89.0733 51.8358 88.7801 51.8358H60.8085C60.5153 51.8358 60.3003 54.0503 60.3003 56.794ZM88.7801 24.1635H60.8085C60.5153 24.1635 60.3003 21.9294 60.3003 19.1857C60.3003 16.4419 60.5153 14.2274 60.8085 14.2274H88.7801C89.0538 14.2274 89.2884 16.4419 89.2884 19.1857C89.2884 21.9294 89.0733 24.1635 88.7801 24.1635Z" fill="url(#paint6_linear_6560_1848)"/>
<path d="M80.9204 18.6173L79.5345 14.78C79.5072 14.7017 79.4524 14.6527 79.3938 14.6527H79.0087C78.8856 14.6527 78.8094 14.8565 78.868 15.0211L80.2539 18.8584C80.2812 18.9368 80.336 18.9858 80.3946 18.9858H80.7797C80.9028 18.9858 80.9791 18.7819 80.9204 18.6173ZM78.4771 18.4527L78.5259 18.586C78.5709 18.7094 78.5435 18.8525 78.4771 18.9289V18.4527ZM82.8829 18.9858H82.533C82.4724 18.9858 82.4177 18.9348 82.3903 18.8525L81.0729 15.0191C81.0162 14.8526 81.0944 14.6527 81.2156 14.6527H81.5655C81.6261 14.6527 81.6808 14.7036 81.7082 14.7859L83.0256 18.6193C83.0823 18.7859 83.0041 18.9858 82.8829 18.9858ZM81.5068 19.4502C81.5303 19.3856 81.5733 19.3464 81.6202 19.3464H82.0717C82.1714 19.3464 82.234 19.511 82.1851 19.6462L80.766 23.5736C80.7425 23.6383 80.6995 23.6775 80.6526 23.6775H80.2011C80.1014 23.6775 80.0388 23.5129 80.0877 23.3776L81.5068 19.4502ZM79.2472 19.3483H79.6596C79.773 19.3483 79.8434 19.5365 79.7886 19.6874L78.4751 23.3228V21.2415L79.1162 19.4639C79.1416 19.3914 79.1925 19.3464 79.2452 19.3464L79.2472 19.3483ZM84.8845 18.9858H84.6304C84.5718 18.9858 84.517 18.9309 84.4936 18.8466L83.4205 14.9741C83.3794 14.8232 83.4498 14.6546 83.5573 14.6546H83.8114C83.87 14.6546 83.9248 14.7095 83.9482 14.7938L85.0214 18.6663C85.0624 18.8172 84.992 18.9858 84.8845 18.9858ZM83.5847 19.4502C83.6062 19.3875 83.6492 19.3464 83.6961 19.3464H84.1261C84.2219 19.3464 84.2825 19.5031 84.2375 19.6325L82.8829 23.5756C82.8614 23.6383 82.8184 23.6795 82.7715 23.6795H82.3415C82.2457 23.6795 82.1851 23.5227 82.2301 23.3933L83.5847 19.4502ZM87.41 19.5325L86.6594 23.5736C86.6477 23.6363 86.6105 23.6795 86.5695 23.6795H86.3779C86.3154 23.6795 86.2704 23.5873 86.288 23.4952L87.0386 19.4541C87.0503 19.3914 87.0875 19.3483 87.1285 19.3483H87.3201C87.3826 19.3483 87.4276 19.4404 87.41 19.5325ZM88.7138 18.9858C88.6708 18.9858 88.6336 18.9348 88.6278 18.8682L88.2857 14.8055C88.2798 14.7252 88.3189 14.6546 88.3717 14.6546C88.4147 14.6546 88.4518 14.7056 88.4577 14.7722L88.7998 18.8349C88.8056 18.9152 88.7665 18.9858 88.7138 18.9858ZM85.9811 19.6442L84.9002 23.5481C84.8787 23.6265 84.8278 23.6775 84.7731 23.6775H84.4975C84.3978 23.6775 84.3314 23.5207 84.3704 23.3796L85.4514 19.4757C85.4729 19.3973 85.5237 19.3464 85.5784 19.3464H85.8541C85.9537 19.3464 86.0202 19.5031 85.9811 19.6442ZM88.4147 19.5913L87.9045 23.5148C87.8928 23.6109 87.8381 23.6795 87.7755 23.6795C87.6915 23.6795 87.6289 23.5619 87.6465 23.4345L88.1567 19.511C88.1684 19.415 88.2231 19.3464 88.2857 19.3464C88.3697 19.3464 88.4323 19.464 88.4147 19.5913ZM88.661 23.6795C88.6082 23.6795 88.5672 23.6089 88.575 23.5286L88.9171 19.4659C88.9229 19.3993 88.9601 19.3483 89.0031 19.3483C89.0558 19.3483 89.0969 19.4189 89.0891 19.4992L88.747 23.5619C88.7411 23.6285 88.704 23.6795 88.661 23.6795ZM86.6594 18.9858H86.5011C86.4522 18.9858 86.4092 18.9348 86.3955 18.8623L85.6527 14.8702C85.6332 14.7624 85.686 14.6546 85.7583 14.6546H85.9166C85.9655 14.6546 86.0085 14.7056 86.0222 14.7781L86.7649 18.7702C86.7845 18.878 86.7317 18.9858 86.6594 18.9858ZM87.8381 18.9858C87.7755 18.9858 87.7208 18.9172 87.7091 18.8211L87.1989 14.8976C87.1832 14.7702 87.2458 14.6527 87.3279 14.6527C87.3904 14.6527 87.4452 14.7213 87.4569 14.8173L87.9671 18.7408C87.9827 18.8682 87.9202 18.9858 87.8381 18.9858ZM86.5011 56.5883C86.4522 56.5883 86.4092 56.5373 86.3955 56.4648L85.6527 52.4727C85.6332 52.3649 85.686 52.2571 85.7583 52.2571H85.9166C85.9655 52.2571 86.0085 52.3081 86.0222 52.3806L86.7649 56.3727C86.7845 56.4805 86.7317 56.5883 86.6594 56.5883H86.5011ZM87.0386 57.0547C87.0503 56.992 87.0875 56.9489 87.1285 56.9489H87.3201C87.3826 56.9489 87.4276 57.041 87.41 57.1331L86.6594 61.1742C86.6477 61.2369 86.6105 61.28 86.5695 61.28H86.3779C86.3154 61.28 86.2704 61.1879 86.288 61.0958L87.0386 57.0547ZM89.005 56.9508C89.0578 56.9508 89.0988 57.0214 89.091 57.1017L88.749 61.1644C88.7431 61.231 88.7059 61.282 88.6629 61.282C88.6102 61.282 88.5691 61.2114 88.5769 61.1311L88.919 57.0684C88.9249 57.0018 88.962 56.9508 89.005 56.9508ZM87.7071 56.4237L87.1969 52.5001C87.1813 52.3728 87.2438 52.2552 87.3259 52.2552C87.3885 52.2552 87.4432 52.3238 87.4549 52.4198L87.9651 56.3433C87.9808 56.4707 87.9182 56.5883 87.8361 56.5883C87.7736 56.5883 87.7188 56.5197 87.7071 56.4237ZM88.2857 56.9508C88.3697 56.9508 88.4323 57.0684 88.4147 57.1958L87.9045 61.1193C87.8928 61.2153 87.8381 61.2839 87.7755 61.2839C87.6915 61.2839 87.6289 61.1663 87.6465 61.039L88.1567 57.1155C88.1684 57.0194 88.2231 56.9508 88.2857 56.9508ZM88.6278 56.4707L88.2857 52.408C88.2798 52.3277 88.3189 52.2571 88.3717 52.2571C88.4147 52.2571 88.4518 52.3081 88.4577 52.3747L88.7998 56.4374C88.8056 56.5177 88.7665 56.5883 88.7138 56.5883C88.6708 56.5883 88.6336 56.5373 88.6278 56.4707ZM85.4494 57.0802C85.4709 57.0018 85.5218 56.9508 85.5765 56.9508H85.8521C85.9518 56.9508 86.0182 57.1076 85.9792 57.2487L84.8982 61.1526C84.8767 61.231 84.8259 61.282 84.7712 61.282H84.4955C84.3959 61.282 84.3294 61.1252 84.3685 60.9841L85.4494 57.0802ZM83.5847 57.0527C83.6062 56.99 83.6492 56.9489 83.6961 56.9489H84.1261C84.2219 56.9489 84.2825 57.1057 84.2375 57.235L82.8829 61.1781C82.8614 61.2408 82.8184 61.282 82.7715 61.282H82.3415C82.2457 61.282 82.1851 61.1252 82.2301 60.9958L83.5847 57.0527ZM81.5068 57.0547C81.5303 56.99 81.5733 56.9508 81.6202 56.9508H82.0717C82.1714 56.9508 82.234 57.1155 82.1851 57.2507L80.766 61.1781C80.7425 61.2428 80.6995 61.282 80.6526 61.282H80.2011C80.1014 61.282 80.0388 61.1174 80.0877 60.9821L81.5068 57.0547ZM78.4771 56.5334V56.0572L78.5259 56.1904C78.5709 56.3139 78.5435 56.457 78.4771 56.5334ZM79.2472 56.9508H79.6596C79.773 56.9508 79.8434 57.139 79.7886 57.2899L78.4751 60.9253V58.844L79.1162 57.0665C79.1416 56.994 79.1925 56.9489 79.2452 56.9489L79.2472 56.9508ZM84.8845 56.5883H84.6304C84.5718 56.5883 84.517 56.5334 84.4936 56.4491L83.4205 52.5766C83.3794 52.4257 83.4498 52.2571 83.5573 52.2571H83.8114C83.87 52.2571 83.9248 52.312 83.9482 52.3963L85.0214 56.2688C85.0624 56.4197 84.992 56.5883 84.8845 56.5883ZM80.7797 56.5883H80.3946C80.336 56.5883 80.2832 56.5393 80.2539 56.4609L78.868 52.6236C78.8094 52.459 78.8856 52.2552 79.0087 52.2552H79.3938C79.4524 52.2552 79.5052 52.3042 79.5345 52.3826L80.9204 56.2198C80.9791 56.3845 80.9028 56.5883 80.7797 56.5883ZM82.8829 56.5883H82.533C82.4724 56.5883 82.4177 56.5373 82.3903 56.455L81.0729 52.6217C81.0162 52.4551 81.0944 52.2552 81.2156 52.2552H81.5655C81.6261 52.2552 81.6808 52.3061 81.7082 52.3884L83.0256 56.2218C83.0823 56.3884 83.0041 56.5883 82.8829 56.5883Z" fill="url(#paint7_linear_6560_1848)"/>
<path d="M71.501 51.4242C71.501 51.4242 72.6542 51.1303 72.8693 50.6991C73.0452 50.2679 73.6902 49.7584 73.6902 49.7584V51.5222H77.5996L78.1391 46.5679H75.1074L75.2129 48.9549H73.7665C73.3755 48.9549 73.5124 49.2685 72.9455 49.3664C72.3786 49.4644 71.499 51.4242 71.499 51.4242H71.501ZM75.2149 27.064H73.7684C73.3775 27.064 73.5143 26.7505 72.9474 26.6525C72.3806 26.5349 71.501 24.5751 71.501 24.5751C71.501 24.5751 72.6542 24.8691 72.8693 25.3198C73.0452 25.751 73.6902 26.2605 73.6902 26.2605V24.4967H77.5996L78.4206 29.4804L75.1191 29.4256L75.2149 27.0621V27.064Z" fill="#2D2D2D"/>
<path d="M76.0569 46.5561H75.1186L75.3903 52.2473L76.0158 51.9337L76.0569 46.5561ZM72.126 49.974L72.7671 46.5345L74.2449 46.5678L73.4747 50.2875L72.126 49.974ZM75.1186 29.4373L75.3903 23.7323L76.0158 24.0459L76.0569 29.4373H75.1186ZM72.126 26.0253L73.4747 25.7117L74.2449 29.4589L72.7788 29.4804L72.126 26.0253Z" fill="#1E1E1E"/>
<path d="M80.0428 50.8167C80.0428 50.2483 80.3556 49.7388 80.3556 49.1704C80.3556 48.6021 80.3497 46.5032 80.3497 46.5032H79.7242C79.7242 46.5032 79.7301 48.5433 79.7301 49.1704C79.7301 49.7976 79.3978 50.1503 79.4173 50.8167C79.4369 51.483 79.7144 51.8553 79.7144 51.8553H80.3399C80.3399 51.8553 80.0428 51.385 80.0428 50.8167ZM79.7301 26.8288C79.7301 26.2017 79.4173 25.8685 79.4173 25.1826C79.4369 24.4967 79.6812 24.1596 79.6812 24.1596H80.3067C80.3067 24.1596 80.0428 24.6142 80.0428 25.1826C80.0428 25.7509 80.3556 26.2801 80.3556 26.8288V29.5235H79.7301V26.8288Z" fill="#414141"/>
<path d="M78.4007 61.8307V51.7966C78.4007 51.2674 77.9706 50.8363 77.4429 50.8363H60.2221C59.8898 50.8363 58.541 51.7378 58.541 56.8137C58.541 61.8895 59.8898 62.791 60.2221 62.791H77.4429C77.9706 62.791 78.4007 62.3599 78.4007 61.8307ZM77.4429 25.163H60.2221C59.8898 25.163 58.541 24.2615 58.541 19.1661C58.541 14.0706 59.8898 13.1887 60.2221 13.1887H77.4429C77.9706 13.1887 78.4007 13.6199 78.4007 14.149V24.2027C78.4007 24.7319 77.9706 25.163 77.4429 25.163Z" fill="url(#paint8_linear_6560_1848)"/>
<path opacity="0.5" d="M70.1595 57.2448H58.7422L69.9543 57.8229C70.9668 57.8759 71.8308 58.5735 72.0986 59.5534L72.9802 62.791H74.6025L73.6467 59.7945C73.1619 58.2757 71.7526 57.2448 70.1634 57.2448H70.1595ZM70.1595 18.7584H58.7422L69.9543 18.1803C70.9668 18.1274 71.8308 17.4297 72.0986 16.4498L72.9802 13.2122H74.6025L73.6467 16.2087C73.1619 17.7276 71.7526 18.7584 70.1634 18.7584H70.1595Z" fill="url(#paint9_linear_6560_1848)"/>
<path d="M93.0024 47.191V46.9323C92.4043 46.3816 89.5113 43.7183 89.3002 43.5262C89.0461 43.3107 88.8897 43.2127 88.6747 43.2127H88.1665V32.8846H88.6747C88.8897 32.8846 89.0461 32.7866 89.3002 32.571C89.527 32.377 92.4062 29.7175 93.0024 29.1649V28.8082H99.4724V47.191H93.0024ZM90.2189 43.5066L93.0024 45.9956V42.9971H90.2189C90.2189 42.9971 89.9062 42.9383 89.9062 43.0951C89.9062 43.2519 90.2189 43.5066 90.2189 43.5066ZM88.8702 41.5076H89.1712C89.2494 41.5076 89.308 41.5664 89.308 41.6448V41.8996C89.308 41.978 89.2494 42.0368 89.1712 42.0368H88.8702V42.1544C88.8702 42.3504 89.1829 42.37 89.1829 42.37H93.0024V41.1157H89.1829C88.9679 41.1157 88.8702 41.2333 88.8702 41.4293V41.5076ZM88.8702 39.4303H89.1634C89.2416 39.4303 89.3002 39.4891 89.3002 39.5675V39.8222C89.3002 39.9006 89.2416 39.9594 89.1634 39.9594H88.8702V40.0966C88.8702 40.2534 89.1829 40.4102 89.1829 40.4102H93.0024V39.1559H89.1829C88.9484 39.1559 88.8702 39.1755 88.8702 39.3715V39.4303ZM88.8702 38.1172C88.8702 38.4308 89.1829 38.4308 89.1829 38.4308H93.0024V37.6861H89.1829C89.1829 37.6861 88.8702 37.6861 88.8702 38.0192V38.1172ZM88.8702 36.0398H89.1634C89.2416 36.0398 89.3002 36.0986 89.3002 36.177V36.4318C89.3002 36.5102 89.2416 36.569 89.1634 36.569H88.8702V36.7454C88.8702 36.9217 88.9484 36.9609 89.1829 36.9609H93.0024V35.7067H89.1829C89.1829 35.7067 88.8702 35.8439 88.8702 36.0202V36.0398ZM89.1829 33.7273C89.1829 33.7273 88.8702 33.7273 88.8702 33.9429V33.982H89.1634C89.2416 33.982 89.3002 34.0408 89.3002 34.1192V34.374C89.3002 34.4524 89.2416 34.5112 89.1634 34.5112H88.8702V34.668C88.8702 34.864 88.9679 34.9815 89.1829 34.9815H93.0024V33.7273H89.1829ZM90.2189 32.5906C90.2189 32.5906 89.9062 32.8454 89.9062 33.0022C89.9062 33.1589 90.2189 33.1001 90.2189 33.1001H93.0024V30.1017L90.2189 32.5906ZM98.5537 37.5097C98.2801 37.4901 98.0455 37.7252 98.0455 38.0192C98.0455 38.3132 98.2801 38.5288 98.5537 38.5288C98.8469 38.5288 99.062 38.2936 99.062 38.0192C99.062 37.7252 98.8274 37.5097 98.5537 37.5097Z" fill="#2C2C2C"/>
<path d="M99.9999 45.4469C99.9999 45.1529 99.7653 44.9374 99.4917 44.9374H93.5299C93.2367 44.9374 93.0216 45.1725 93.0216 45.4469C93.0021 45.7213 93.2367 45.9565 93.5299 45.9565H99.4917C99.7849 45.9565 99.9999 45.7213 99.9999 45.4469ZM93.5299 46.074H99.4917C99.7653 46.074 99.9999 46.2896 99.9999 46.5836C99.9999 46.858 99.7849 47.0931 99.4917 47.0931H93.5299C93.2367 47.0931 93.0021 46.858 93.0216 46.5836C93.0216 46.3092 93.2367 46.074 93.5299 46.074ZM99.4917 44.8198H93.5299C93.2367 44.8198 93.0021 44.5846 93.0216 44.3102C93.0216 44.0359 93.2367 43.8007 93.5299 43.8007H99.4917C99.7653 43.8007 99.9999 44.0163 99.9999 44.3102C99.9999 44.5846 99.7849 44.8198 99.4917 44.8198ZM99.4917 43.6831H93.5299C93.2367 43.6831 93.0021 43.4479 93.0216 43.1736C93.0216 42.8992 93.2367 42.664 93.5299 42.664H99.4917C99.7653 42.664 99.9999 42.8796 99.9999 43.1736C99.9999 43.4479 99.7849 43.6831 99.4917 43.6831ZM99.4917 42.5464H93.5299C93.2367 42.5464 93.0021 42.3112 93.0216 42.0369C93.0216 41.7625 93.2367 41.5273 93.5299 41.5273H99.4917C99.7653 41.5273 99.9999 41.7429 99.9999 42.0369C99.9999 42.3112 99.7849 42.5464 99.4917 42.5464ZM99.4917 41.4097H93.5299C93.2367 41.4097 93.0021 41.1746 93.0216 40.9002C93.0216 40.6258 93.2367 40.3907 93.5299 40.3907H99.4917C99.7653 40.3907 99.9999 40.6062 99.9999 40.9002C99.9999 41.1746 99.7849 41.4097 99.4917 41.4097ZM99.4917 34.4917H93.5299C93.2367 34.4917 93.0021 34.2565 93.0216 33.9821C93.0216 33.7078 93.2367 33.4726 93.5299 33.4726H99.4917C99.7653 33.4726 99.9999 33.7078 99.9999 33.9821C99.9999 34.2565 99.7849 34.4917 99.4917 34.4917ZM99.4917 35.6284H93.5299C93.2367 35.6284 93.0021 35.3932 93.0216 35.1188C93.0216 34.8444 93.2367 34.6093 93.5299 34.6093H99.4917C99.7653 34.6093 99.9999 34.8248 99.9999 35.1188C99.9999 35.3932 99.7849 35.6284 99.4917 35.6284ZM99.4917 33.355H93.5299C93.2367 33.355 93.0021 33.1198 93.0216 32.8455C93.0216 32.5711 93.2367 32.3359 93.5299 32.3359H99.4917C99.7653 32.3359 99.9999 32.5515 99.9999 32.8455C99.9999 33.1198 99.7849 33.355 99.4917 33.355ZM99.4917 32.2183H93.5299C93.2367 32.2183 93.0021 31.9831 93.0216 31.7088C93.0216 31.4344 93.2367 31.1992 93.5299 31.1992H99.4917C99.7653 31.1992 99.9999 31.4148 99.9999 31.7088C99.9999 31.9831 99.7849 32.2183 99.4917 32.2183ZM99.4917 31.0816H93.5299C93.2367 31.0816 93.0021 30.8465 93.0216 30.5721C93.0216 30.2977 93.2367 30.0626 93.5299 30.0626H99.4917C99.7653 30.0626 99.9999 30.2781 99.9999 30.5721C99.9999 30.8465 99.7849 31.0816 99.4917 31.0816ZM99.4917 29.945H93.5299C93.2367 29.945 93.0021 29.7098 93.0216 29.4354C93.0216 29.161 93.2367 28.9259 93.5299 28.9259H99.4917C99.7653 28.9259 99.9999 29.1414 99.9999 29.4354C99.9999 29.7098 99.7849 29.945 99.4917 29.945ZM99.6871 35.7459H93.5299V40.2731H99.6871V35.7459ZM99.0616 38.0193C99.0616 38.2937 98.8466 38.5289 98.5534 38.5289C98.2798 38.5289 98.0452 38.3133 98.0452 38.0193C98.0452 37.7253 98.2798 37.4902 98.5534 37.5098C98.8271 37.5098 99.0616 37.7253 99.0616 38.0193Z" fill="#444444"/>
<path d="M96.0903 40.2729H97.1263V35.7458H96.0903V40.2729Z" fill="#4D4D4D"/>
<path d="M47.4971 46.172V29.8273H48.6699V46.172H47.4971Z" fill="#363636"/>
<path d="M49.5062 43.0559H48.4741V43.0755C48.4741 43.2519 48.5523 43.3891 48.6892 43.4871C48.5719 43.5459 48.4741 43.5851 48.3569 43.5851C48.0832 43.5851 47.8486 43.3499 47.8486 43.0755V32.9238C47.8486 32.6494 48.0832 32.4143 48.3569 32.4143C48.4741 32.4143 48.5719 32.4535 48.6892 32.4927C48.5523 32.5907 48.4741 32.7278 48.4741 32.9042V32.9434H49.4964L49.5062 43.0559Z" fill="#585858"/>
<path d="M9.48804 54.7127L9.20265 54.9322C9.39812 55.7749 9.59359 56.4804 9.67178 56.5784C9.71087 56.6176 9.80861 56.696 9.94543 56.7744L10.2738 56.4021C10.0979 56.3707 9.93957 56.11 9.88679 55.9395L9.48804 54.7127ZM9.18506 21.0474C9.38053 20.2047 9.576 19.4992 9.65419 19.4012C9.69328 19.3424 9.79101 19.2836 9.92784 19.2052L10.2504 19.5619C10.2504 19.5619 9.83793 19.85 9.51345 21.2748L9.18311 21.0455L9.18506 21.0474ZM15.3423 53.3056C15.2251 53.1096 15.2055 52.3257 15.2251 51.7769L15.9678 51.4242V52.4433C15.9678 53.0704 16.3979 53.5408 17.3361 53.7955C18.118 54.0111 18.8412 54.7362 18.8412 54.7362C18.8412 54.7362 17.2775 54.6186 16.6129 54.3835C15.9483 54.1679 15.5574 53.6975 15.3423 53.3056ZM45.0732 49.2488C45.7769 48.6217 46.0505 47.3282 46.1092 46.9755C46.1678 46.6227 46.7151 46.3483 46.8324 46.3483C46.9497 46.3483 46.6174 48.3865 46.2069 49.4448C45.7964 50.5031 44.0958 51.3458 43.8417 51.5222C43.5876 51.6986 42.923 51.4242 42.923 51.4242C42.923 51.4242 44.3695 49.8759 45.0732 49.2488ZM15.9678 23.556V24.575L15.2251 24.2223C15.2055 23.6735 15.2251 22.8896 15.3423 22.6936C15.5574 22.3017 15.9483 21.8509 16.6129 21.6158C17.2775 21.3806 18.8412 21.263 18.8412 21.263C18.8412 21.263 18.118 21.9881 17.3361 22.2037C16.3979 22.4585 15.9678 22.9288 15.9678 23.556ZM46.8324 29.6705C46.7151 29.6705 46.1678 29.3961 46.1092 29.0434C46.0505 28.7102 45.7769 27.3971 45.0732 26.77C44.3695 26.1233 42.923 24.575 42.923 24.575C42.923 24.575 43.5876 24.3007 43.8417 24.4771C44.0958 24.6534 45.7964 25.4961 46.2069 26.5544C46.6174 27.6127 46.9497 29.6509 46.8324 29.6705Z" fill="#FF8000"/>
<path d="M9.95119 56.7804C10.5767 57.1116 12.0623 57.6172 13.8958 57.6172C11.9821 57.2723 10.7819 56.7588 10.2698 56.406L9.95119 56.7804ZM9.20059 54.9656C8.88979 53.6819 8.55163 52.0671 8.5399 51.8162C8.50081 51.4046 8.81356 50.7383 9.36087 50.17C9.90818 49.6016 9.04812 50.9186 9.04812 50.9186C9.04812 50.9186 8.83115 51.4419 8.83897 51.7555C8.84679 52.069 9.08917 53.1155 9.21622 53.7701C9.21622 53.7701 9.33546 54.2091 9.48988 54.7206L9.20059 54.9676V54.9656ZM9.90037 19.2366C10.1154 18.9819 11.5892 18.3626 13.8958 18.3626C13.0572 18.5742 12.4473 18.437 10.2131 19.562L9.90037 19.2366ZM9.50161 21.2885L8.88393 23.6873C8.76665 24.14 8.82724 24.6182 9.05007 25.0298L9.45079 25.7686C9.45079 25.7686 9.90623 26.3997 9.35892 25.8313C8.8116 25.263 8.49885 24.5967 8.53795 24.1655C8.5614 23.9088 8.88197 22.3645 9.18299 21.1024L9.49965 21.2905L9.50161 21.2885ZM15.8504 50.0916L15.9482 51.4438V51.4634L15.2249 51.7966C15.2445 51.3067 15.2836 50.8167 15.3422 50.6011C15.4791 50.1308 15.8504 50.0916 15.8504 50.0916ZM46.8127 46.3484C46.93 46.3484 46.6173 48.3278 46.2068 49.4057L45.5617 48.6413L45.5226 48.6609C45.894 48.0142 46.0504 47.2303 46.0895 46.9755C46.1481 46.6228 46.6955 46.3484 46.8127 46.3484ZM15.9482 24.5359V24.5555L15.8504 25.9078C15.8504 25.9078 15.4791 25.8686 15.3422 25.3982C15.2836 25.1826 15.2445 24.6927 15.2249 24.2027L15.9482 24.5359ZM46.8127 29.651C46.6955 29.651 46.1481 29.3766 46.0895 29.0238C46.0504 28.7691 45.894 27.9851 45.5226 27.3384L45.5617 27.358L46.2068 26.5937C46.6173 27.6716 46.93 29.651 46.8127 29.651Z" fill="#E0E6E6"/>
<path d="M87.4509 45.7408C86.8645 46.2111 82.0951 46.5835 76.8174 46.5835C81.2741 46.5247 85.0467 46.1915 85.5549 45.7604C86.3563 45.0745 86.63 40.9785 86.63 38.0388C86.6104 35.0795 86.3563 30.9836 85.5549 30.2976C85.0271 29.8469 80.8832 29.4941 76.1528 29.4549C81.7042 29.4157 86.845 29.7881 87.4509 30.2976C88.2915 30.9836 88.5847 35.0795 88.5847 38.0192C88.5651 40.9589 88.2915 45.0549 87.4509 45.7408Z" fill="#E0E6E6"/>
<path d="M86.8251 45.7408C86.2583 46.1915 81.958 46.5443 77.0126 46.5835C81.3911 46.5247 85.0464 46.1915 85.5546 45.7604C86.356 45.0745 86.6297 40.9785 86.6297 38.0388C86.6101 35.0795 86.356 30.9836 85.5546 30.2976C85.0073 29.8469 80.7656 29.4745 75.918 29.4549C81.3129 29.4353 86.2387 29.8077 86.8251 30.2976C87.6657 30.9836 87.9589 35.0795 87.9589 38.0192C87.9589 40.9589 87.6657 45.0549 86.8251 45.7408Z" fill="#1E1E1E"/>
<path opacity="0.1" d="M52.1686 42.3308V33.6686C52.1686 33.257 51.9536 32.9826 51.68 33.061L50.5071 33.4138C50.2921 33.4726 50.1162 33.8253 50.1162 34.1977V41.8017C50.1162 42.174 50.2921 42.5268 50.5071 42.5856L51.68 42.9384C51.9536 43.0168 52.1686 42.7424 52.1686 42.3308ZM83.3264 45.2313V40.9982H85.6916C85.6329 43.6635 84.4601 44.7806 83.3264 45.2313ZM85.6916 40.469H83.3264V35.55H85.6916V40.469ZM83.3459 35.0012V30.7681C84.4992 31.2188 85.672 32.3359 85.7111 35.0012H83.3459Z" fill="black"/>
<path opacity="0.2" d="M79.0068 42.3699V38.2347H75.4277V42.3699H79.0068ZM75.4277 33.4822H79.0068V37.6174H75.4277V33.4822Z" fill="black"/>
<path opacity="0.2" d="M8.87249 51.4242C8.71612 52.2669 9.71301 55.6573 10.0062 56.1865C10.2799 56.7156 13.7983 57.6367 13.7983 57.6367H28.4976C30.6673 57.6367 33.1107 57.3036 34.7721 56.598C36.4336 55.8925 38.7988 55.1478 38.7988 55.1478C38.7988 55.1478 39.1956 54.0836 39.4048 53.2566C36.0759 54.0777 32.4089 54.4129 28.3998 54.8342C24.0995 55.285 18.6655 54.8538 17.8054 54.7362C16.9454 54.599 15.2252 54.5794 15.2252 52.5609C15.2252 50.5423 15.6357 50.0719 15.6357 50.0719V47.4654C13.6771 47.4086 12.258 47.2694 11.5504 47.7986C10.6904 48.4257 9.00932 50.5815 8.87249 51.4242ZM28.3998 21.1454C24.1191 20.6947 18.6655 21.1258 17.8054 21.2434C16.9454 21.3806 15.2252 21.4002 15.2252 23.4188C15.2448 25.4569 15.6357 25.9273 15.6357 25.9273V28.5338C13.6771 28.5907 12.258 28.7298 11.5504 28.2007C10.6904 27.5735 9.00932 25.4178 8.87249 24.575C8.71612 23.7323 9.71301 20.3419 10.0062 19.8127C10.2799 19.2836 13.7983 18.3625 13.7983 18.3625H28.4976C30.6673 18.3625 33.1107 18.6957 34.7721 19.4012C36.4336 20.1067 38.7988 20.8514 38.7988 20.8514C38.7988 20.8514 39.1897 21.896 39.3989 22.7211C36.072 21.9019 32.405 21.5648 28.3998 21.1454Z" fill="black"/>
<path opacity="0.1" d="M46.3048 42.9384H44.0374C44.0374 42.9384 43.7442 46.368 43.6269 47.1715C43.5096 47.9751 43.1382 48.2494 42.3954 48.6218C41.6527 48.9941 39.2093 49.7389 37.2546 50.1504C35.2999 50.562 33.2475 50.9343 28.6149 51.3851C23.9627 51.8554 20.9525 51.4635 19.7797 51.2871C18.6069 51.1107 18.5482 50.464 18.5482 50.1504V48.6022L16.2612 48.6218V47.8967H18.5287V28.1028H16.2612V27.358H18.5482V25.8098C18.5482 25.4962 18.6069 24.8495 19.7797 24.6731C20.9525 24.4968 23.9627 24.1048 28.6149 24.5751C33.2475 25.0259 35.2999 25.3983 37.2546 25.8098C39.2093 26.2214 41.6527 26.9661 42.3954 27.3384C43.1382 27.7108 43.5096 27.9852 43.6269 28.7887C43.7442 29.5922 44.0374 33.0414 44.0374 33.0414H46.3048V33.551L44.0765 33.5706C44.0765 33.5706 44.2328 37.4314 44.2328 37.7057V38.2937C44.2328 38.5681 44.0765 42.4092 44.0765 42.4092L46.3048 42.4288V42.9384ZM43.3337 29.1415C43.236 28.4947 43.0796 28.2008 42.7082 27.9068C42.3368 27.6128 41.2226 27.2209 38.4861 26.4565C35.7495 25.6922 32.5633 25.2219 28.3999 24.8299C24.8228 24.4772 20.9134 24.6535 19.3887 25.0651C18.9587 25.2219 18.8414 25.6138 18.8414 25.9274V27.4364L43.7051 33.0806C43.7051 33.0806 43.4119 29.7882 43.3337 29.1415ZM43.7442 33.5314L18.8414 28.0832V37.5294H43.881L43.7442 33.5314ZM18.8414 50.072C18.8414 50.3856 18.9587 50.7776 19.3887 50.9343C20.9134 51.3459 24.8228 51.5223 28.3999 51.1695C32.5633 50.7776 35.7495 50.3268 38.4861 49.5429C41.2226 48.7786 42.3368 48.3866 42.7082 48.0926C43.0796 47.7987 43.236 47.5047 43.3337 46.858C43.4119 46.2112 43.7051 42.9188 43.7051 42.9188L18.8414 48.563V50.072ZM18.8414 47.9359L43.7442 42.4876L43.881 38.5093H18.8414V47.9359Z" fill="url(#paint10_linear_6560_1848)"/>
<path d="M43.2161 57.1077L43.7243 57.0097L42.8564 52.218C42.1019 52.4904 41.2028 52.7706 40.1277 53.0705C39.8658 53.141 39.4357 53.2488 39.4045 53.2567C39.1953 54.0837 38.7985 55.1479 38.7985 55.1479C38.7985 55.1479 38.1965 55.338 37.3872 55.6163L42.3756 54.8343L42.4303 53.1469L43.2161 57.1077ZM57.4619 45.0197L57.4443 45.1529C57.4248 45.3097 57.5616 45.4665 57.7571 45.4665L61.7837 45.5998L63.1559 45.7703C63.1676 45.7997 63.0934 45.9565 62.8979 45.9369L57.4639 45.7605C57.2488 45.7605 57.0925 45.5841 57.112 45.3685L57.1394 44.9726L57.4599 45.0197H57.4619ZM40.1277 22.9093C39.8658 22.8388 39.6019 22.7702 39.3361 22.7055C39.3576 22.7114 39.3771 22.7153 39.3986 22.7212C39.1894 21.8981 38.7985 20.8515 38.7985 20.8515C38.7985 20.8515 38.1847 20.6575 37.3657 20.3753L37.3716 20.3616L42.3756 21.1455L42.4303 22.8427L43.2161 18.8721L43.7243 18.9701L42.8584 23.7638C42.1039 23.4894 41.2047 23.2111 40.1277 22.9093ZM45.3858 24.8926L45.3682 25.0082C45.1395 24.8338 44.8737 24.6672 44.5668 24.5026L44.6802 24.0656L45.4777 24.1616L45.9898 21.3611L46.9085 21.5766L46.283 24.9867L45.3858 24.8926ZM61.8502 30.4114L57.759 30.5329C57.5635 30.5329 57.4267 30.6897 57.4267 30.8465L57.4365 31.0072L57.1433 31.0483L57.114 30.6309C57.0944 30.4153 57.2508 30.2389 57.4658 30.2389L62.8998 30.0625C63.0953 30.0429 63.2576 30.1645 63.2791 30.233L61.8521 30.4114H61.8502ZM48.6697 44.7218C48.2006 45.1333 48.3569 46.074 48.3569 46.074H47.8487L47.4128 44.1397C47.4422 43.7948 47.4656 43.4518 47.4852 43.1128C47.7256 44.1789 48.0442 45.5684 48.0442 45.4449C48.0442 45.249 48.2397 44.7394 48.5524 44.4063C48.8652 44.0731 49.4965 43.3539 49.4965 43.3539L49.9774 43.8889C49.9774 43.8889 49.1388 44.3298 48.6697 44.7218ZM45.4836 51.8378L44.6821 51.9338L44.5629 51.4791C44.8698 51.3145 45.1356 51.1479 45.3663 50.9735L45.3839 51.0872L46.285 50.9931L46.9105 54.4032L45.9918 54.6187L45.4836 51.8378ZM48.0442 30.5525C48.0442 30.431 47.7275 31.8244 47.4871 32.8964C47.4676 32.5554 47.4422 32.2085 47.4148 31.8597L47.8507 29.9254H48.3589C48.3589 29.9254 48.2025 30.8661 48.6717 31.2776C49.1408 31.6696 49.9891 32.136 49.9891 32.136L49.5083 32.6299C49.5083 32.6299 48.8671 31.9067 48.5544 31.5931C48.2416 31.26 48.0462 30.7504 48.0462 30.5545L48.0442 30.5525Z" fill="#4B4B4B"/>
<path d="M51.7582 59.9885L50.6049 64.6332L51.1717 64.79C51.4845 64.8684 51.7972 64.7312 51.8559 64.4764L52.8332 60.8312C52.9114 60.5373 52.716 60.2237 52.3641 60.1453L51.7582 59.9885ZM52.3641 15.8344L51.7582 15.9912L50.6049 11.3269L51.1717 11.1701C51.4845 11.0917 51.7972 11.2289 51.8559 11.4837L52.8332 15.1485C52.9114 15.4425 52.716 15.756 52.3641 15.8344ZM37.3149 55.6397L37.3501 55.775C37.3501 55.775 38.2688 55.9513 38.4838 56.1865C38.6989 56.4413 39.3048 59.185 39.3048 59.185H39.7055L40.0281 61.0272L48.1596 59.577L46.9086 52.4394L47.3386 53.0705L51.9067 58.5539L51.463 58.8518L51.9712 59.479L52.4247 59.1732L52.499 59.2634L53.3199 60.3021L52.7922 63.3006H53.1049C53.1049 63.3006 53.8477 60.4393 53.7304 60.0865C53.6132 59.7533 52.9095 58.9498 52.9095 58.9498L52.8586 58.8812L53.5154 58.4403L53.0072 57.8131L52.3797 58.2345L47.8664 52.1494L46.5 50.1092L46.4179 49.6447C46.3143 49.9054 46.2029 50.119 46.0856 50.268C45.9762 50.411 45.8511 50.5482 45.7123 50.6815L46.1032 51.2557L44.4183 51.5555C44.2013 51.6653 43.9648 51.775 43.7068 51.8848L46.2264 51.4379L46.6212 52.02L46.6525 52.2101L39.3341 53.5114C39.3126 53.5898 39.2892 53.6682 39.2657 53.7466L46.6916 52.4276L46.8284 53.2312L39.1074 54.6226L39.0663 54.3757C38.9197 54.8166 38.7946 55.1518 38.7946 55.1518C38.7946 55.1518 38.1574 55.3516 37.313 55.6437L37.3149 55.6397ZM40.03 59.8513L47.751 58.4795L47.9074 59.4006L40.1864 60.7724L40.03 59.8513ZM39.8541 58.8518L47.5751 57.48L47.7119 58.3031L39.9909 59.6749L39.8541 58.8518ZM39.6782 57.8327L47.3992 56.4609L47.536 57.284L39.815 58.6559L39.6782 57.8327ZM39.5022 56.8333L47.2233 55.4614L47.3601 56.2649L39.6391 57.6564L39.5022 56.8333ZM39.3263 55.7946L47.0473 54.4227L47.1842 55.2458L39.4631 56.6177L39.3263 55.7946ZM39.1504 54.7755L46.8714 53.4036L47.0083 54.2267L39.2872 55.579L39.1504 54.7755ZM53.1264 12.6792H52.8137L53.3219 15.6776L52.5009 16.7163L52.4169 16.8182L51.9732 16.5203L51.4649 17.1475L51.8989 17.4395L47.3406 22.9093L46.9183 23.5305L48.1615 16.4224L40.03 14.9721L39.7075 16.8143H39.3068C39.3068 16.8143 38.7008 19.558 38.4858 19.8128C38.2708 20.048 37.3521 20.2244 37.3521 20.2244L37.3169 20.3596C38.1613 20.6516 38.7986 20.8515 38.7986 20.8515C38.7986 20.8515 38.9256 21.1905 39.0722 21.6334L39.1113 21.4002L46.8323 22.7721L46.6955 23.5952L39.2755 22.2763C39.297 22.3488 39.3165 22.4193 39.3361 22.4899L46.6545 23.7912L46.6271 23.9558L46.2146 24.5614L43.785 24.1302C44.0352 24.238 44.2658 24.3458 44.4769 24.4555L46.0915 24.7417L45.7123 25.2983C45.853 25.4315 45.9781 25.5687 46.0856 25.7118C46.2029 25.8666 46.3163 26.0841 46.4218 26.3526L46.4961 25.9254L47.884 23.85L52.3817 17.7668L53.0052 18.1862L53.5135 17.559L52.8606 17.12L52.9271 17.0299C52.9271 17.0299 53.6307 16.246 53.748 15.8932C53.8653 15.5405 53.1225 12.6792 53.1225 12.6792H53.1264ZM47.751 17.5002L40.03 16.1284L40.1864 15.2073L47.9074 16.5791L47.751 17.5002ZM47.5751 18.4997L39.8541 17.1279L39.9909 16.3048L47.7119 17.6962L47.5751 18.4997ZM47.3992 19.5188L39.6782 18.147L39.815 17.3435L47.536 18.6957L47.3992 19.5188ZM47.2233 20.5379L39.5022 19.1661L39.6391 18.343L47.3601 19.7148L47.2233 20.5379ZM47.0473 21.557L39.3263 20.1852L39.4631 19.362L47.1842 20.7339L47.0473 21.557ZM46.8714 22.5761L39.1504 21.2042L39.2872 20.3811L47.0083 21.753L46.8714 22.5761Z" fill="#464646"/>
</g>
<defs>
<linearGradient id="paint0_linear_6560_1848" x1="0.428223" y1="37.9899" x2="39.092" y2="37.9899" gradientUnits="userSpaceOnUse">
<stop/>
<stop offset="0.15" stop-color="#474747"/>
<stop offset="0.2" stop-color="#2D2D2D"/>
<stop offset="0.25" stop-color="#191919"/>
<stop offset="0.3" stop-color="#0A0A0A"/>
<stop offset="0.37" stop-color="#020202"/>
<stop offset="0.48"/>
<stop offset="0.58" stop-color="#030303"/>
<stop offset="0.67" stop-color="#0E0E0E"/>
<stop offset="0.76" stop-color="#212121"/>
<stop offset="0.84" stop-color="#3A3A3A"/>
<stop offset="0.88" stop-color="#494949"/>
<stop offset="1"/>
</linearGradient>
<linearGradient id="paint1_linear_6560_1848" x1="0" y1="69.6189" x2="38.4194" y2="69.6189" gradientUnits="userSpaceOnUse">
<stop stop-color="#474747"/>
<stop offset="0.1" stop-color="#202020"/>
<stop offset="0.16" stop-color="#0D0D0D"/>
<stop offset="0.2" stop-color="#222222"/>
<stop offset="0.25" stop-color="#363636"/>
<stop offset="0.31" stop-color="#454545"/>
<stop offset="0.37" stop-color="#4D4D4D"/>
<stop offset="0.48" stop-color="#505050"/>
<stop offset="0.57" stop-color="#4C4C4C"/>
<stop offset="0.66" stop-color="#414141"/>
<stop offset="0.73" stop-color="#2E2E2E"/>
<stop offset="0.81" stop-color="#151515"/>
<stop offset="0.84" stop-color="#0B0B0B"/>
<stop offset="0.93" stop-color="#2E2E2E"/>
<stop offset="1" stop-color="#494949"/>
</linearGradient>
<linearGradient id="paint2_linear_6560_1848" x1="0" y1="6.40772" x2="0.195469" y2="6.40772" gradientUnits="userSpaceOnUse">
<stop stop-color="#474747"/>
<stop offset="0.1" stop-color="#202020"/>
<stop offset="0.16" stop-color="#0D0D0D"/>
<stop offset="0.2" stop-color="#222222"/>
<stop offset="0.25" stop-color="#363636"/>
<stop offset="0.31" stop-color="#454545"/>
<stop offset="0.37" stop-color="#4D4D4D"/>
<stop offset="0.48" stop-color="#505050"/>
<stop offset="0.57" stop-color="#4C4C4C"/>
<stop offset="0.66" stop-color="#414141"/>
<stop offset="0.73" stop-color="#2E2E2E"/>
<stop offset="0.81" stop-color="#151515"/>
<stop offset="0.84" stop-color="#0B0B0B"/>
<stop offset="0.93" stop-color="#2E2E2E"/>
<stop offset="1" stop-color="#494949"/>
</linearGradient>
<linearGradient id="paint3_linear_6560_1848" x1="0" y1="19.3778" x2="3.27997" y2="19.3778" gradientUnits="userSpaceOnUse">
<stop stop-color="#474747"/>
<stop offset="0.1" stop-color="#202020"/>
<stop offset="0.16" stop-color="#0D0D0D"/>
<stop offset="0.2" stop-color="#222222"/>
<stop offset="0.25" stop-color="#363636"/>
<stop offset="0.31" stop-color="#454545"/>
<stop offset="0.37" stop-color="#4D4D4D"/>
<stop offset="0.48" stop-color="#505050"/>
<stop offset="0.57" stop-color="#4C4C4C"/>
<stop offset="0.66" stop-color="#414141"/>
<stop offset="0.73" stop-color="#2E2E2E"/>
<stop offset="0.81" stop-color="#151515"/>
<stop offset="0.84" stop-color="#0B0B0B"/>
<stop offset="0.93" stop-color="#2E2E2E"/>
<stop offset="1" stop-color="#494949"/>
</linearGradient>
<linearGradient id="paint4_linear_6560_1848" x1="0" y1="56.3609" x2="3.27997" y2="56.3609" gradientUnits="userSpaceOnUse">
<stop stop-color="#474747"/>
<stop offset="0.1" stop-color="#202020"/>
<stop offset="0.16" stop-color="#0D0D0D"/>
<stop offset="0.2" stop-color="#222222"/>
<stop offset="0.25" stop-color="#363636"/>
<stop offset="0.31" stop-color="#454545"/>
<stop offset="0.37" stop-color="#4D4D4D"/>
<stop offset="0.48" stop-color="#505050"/>
<stop offset="0.57" stop-color="#4C4C4C"/>
<stop offset="0.66" stop-color="#414141"/>
<stop offset="0.73" stop-color="#2E2E2E"/>
<stop offset="0.81" stop-color="#151515"/>
<stop offset="0.84" stop-color="#0B0B0B"/>
<stop offset="0.93" stop-color="#2E2E2E"/>
<stop offset="1" stop-color="#494949"/>
</linearGradient>
<linearGradient id="paint5_linear_6560_1848" x1="45.894" y1="37.98" x2="54.0549" y2="37.98" gradientUnits="userSpaceOnUse">
<stop/>
<stop offset="0.4" stop-color="#272727"/>
<stop offset="0.63" stop-color="#2F2F2F"/>
<stop offset="0.74" stop-color="#363636"/>
<stop offset="1" stop-color="#363636"/>
</linearGradient>
<linearGradient id="paint6_linear_6560_1848" x1="60.3003" y1="37.9898" x2="89.2884" y2="37.9898" gradientUnits="userSpaceOnUse">
<stop/>
<stop offset="0.15" stop-color="#474747"/>
<stop offset="0.2" stop-color="#2D2D2D"/>
<stop offset="0.25" stop-color="#191919"/>
<stop offset="0.3" stop-color="#0A0A0A"/>
<stop offset="0.37" stop-color="#020202"/>
<stop offset="0.48"/>
<stop offset="0.58" stop-color="#030303"/>
<stop offset="0.67" stop-color="#0E0E0E"/>
<stop offset="0.76" stop-color="#212121"/>
<stop offset="0.84" stop-color="#3A3A3A"/>
<stop offset="0.88" stop-color="#494949"/>
<stop offset="1"/>
</linearGradient>
<linearGradient id="paint7_linear_6560_1848" x1="78.4771" y1="37.9683" x2="89.091" y2="37.9683" gradientUnits="userSpaceOnUse">
<stop offset="0.05" stop-color="#0D0D0D"/>
<stop offset="0.1" stop-color="#222222"/>
<stop offset="0.17" stop-color="#363636"/>
<stop offset="0.24" stop-color="#454545"/>
<stop offset="0.33" stop-color="#4D4D4D"/>
<stop offset="0.48" stop-color="#505050"/>
<stop offset="0.57" stop-color="#4C4C4C"/>
<stop offset="0.66" stop-color="#414141"/>
<stop offset="0.73" stop-color="#2E2E2E"/>
<stop offset="0.81" stop-color="#151515"/>
<stop offset="0.84" stop-color="#0B0B0B"/>
<stop offset="0.93" stop-color="#2E2E2E"/>
<stop offset="1" stop-color="#494949"/>
</linearGradient>
<linearGradient id="paint8_linear_6560_1848" x1="78.4007" y1="37.9899" x2="58.541" y2="37.9899" gradientUnits="userSpaceOnUse">
<stop stop-color="#5C5C5C"/>
<stop offset="0.5" stop-color="#484848"/>
<stop offset="1" stop-color="#0E0E0E"/>
</linearGradient>
<linearGradient id="paint9_linear_6560_1848" x1="74.6006" y1="38.0016" x2="58.7422" y2="38.0016" gradientUnits="userSpaceOnUse">
<stop stop-color="#0E0E0E"/>
<stop offset="0.5" stop-color="#484848"/>
<stop offset="1" stop-color="#5C5C5C"/>
</linearGradient>
<linearGradient id="paint10_linear_6560_1848" x1="16.2612" y1="37.9801" x2="46.3048" y2="37.9801" gradientUnits="userSpaceOnUse">
<stop stop-opacity="0"/>
<stop offset="0.05"/>
<stop offset="0.94"/>
<stop offset="1" stop-opacity="0"/>
</linearGradient>
<clipPath id="clip0_6560_1848">
<rect width="100" height="76" fill="white" transform="matrix(1 0 0 -1 0 76)"/>
</clipPath>
</defs>
</svg>
