<svg width="100" height="56" viewBox="0 0 100 56" fill="none" xmlns="http://www.w3.org/2000/svg">
<path d="M99.9844 9.83429V8.05049C99.9844 7.99345 99.9375 7.94678 99.8802 7.94678H96.953C96.8957 7.94678 96.8488 7.99345 96.8488 8.05049V8.14383L2.50534 8.14383V8.05049C2.50534 7.99345 2.45846 7.94678 2.40117 7.94678H0.104172C0.0468774 7.95197 0 7.99864 0 8.05049L0 9.83429C0 9.89133 0.0468774 9.938 0.104172 9.938H0.312516L0.312516 46.0806H0.104172C0.0468774 46.0806 0 46.1273 0 46.1843L0 47.9629C0 48.02 0.0468774 48.0667 0.104172 48.0667H2.40638C2.45846 48.0667 2.50534 48.02 2.50534 47.9629V47.8644L96.854 47.8644V47.9629C96.854 48.02 96.9009 48.0667 96.9582 48.0667H99.8854C99.9427 48.0667 99.9896 48.02 99.9896 47.9629V46.1791C99.9896 46.1221 99.9427 46.0754 99.8854 46.0754H99.0885V9.93281H99.8854C99.9427 9.93281 99.9896 9.88614 99.9896 9.8291L99.9844 9.83429ZM99.3437 41.2374H99.0885V39.4744H99.3437C99.7083 39.4744 100.005 39.7699 100.005 40.1329V40.5789C100.005 40.9418 99.7083 41.2374 99.3437 41.2374ZM99.3437 31.3902H99.0885V29.6272H99.3437C99.7083 29.6272 100.005 29.9227 100.005 30.2857V30.7317C100.005 31.0947 99.7083 31.3902 99.3437 31.3902ZM99.3437 16.6791H99.0885V14.916H99.3437C99.7083 14.916 100.005 15.2116 100.005 15.5746V16.0205C100.005 16.3835 99.7083 16.6791 99.3437 16.6791ZM99.3437 26.3863H99.0885V24.6232H99.3437C99.7083 24.6232 100.005 24.9188 100.005 25.2818V25.7277C100.005 26.0907 99.7083 26.3863 99.3437 26.3863Z" fill="black"/>
<path d="M99.9844 9.83429V8.05049C99.9844 7.99345 99.9375 7.94678 99.8802 7.94678H96.953C96.8957 7.94678 96.8488 7.99345 96.8488 8.05049V8.14383L2.50534 8.14383V8.05049C2.50534 7.99345 2.45846 7.94678 2.40117 7.94678H0.104172C0.0468774 7.95197 0 7.99864 0 8.05049L0 9.83429C0 9.89133 0.0468774 9.938 0.104172 9.938H0.312516L0.312516 46.0806H0.104172C0.0468774 46.0806 0 46.1273 0 46.1843L0 47.9629C0 48.02 0.0468774 48.0667 0.104172 48.0667H2.40638C2.45846 48.0667 2.50534 48.02 2.50534 47.9629V47.8644L96.854 47.8644V47.9629C96.854 48.02 96.9009 48.0667 96.9582 48.0667H99.8854C99.9427 48.0667 99.9896 48.02 99.9896 47.9629V46.1791C99.9896 46.1221 99.9427 46.0754 99.8854 46.0754H99.0885V9.93281H99.8854C99.9427 9.93281 99.9896 9.88614 99.9896 9.8291L99.9844 9.83429ZM99.3437 41.2374H99.0885V39.4744H99.3437C99.7083 39.4744 100.005 39.7699 100.005 40.1329V40.5789C100.005 40.9418 99.7083 41.2374 99.3437 41.2374ZM99.3437 31.3902H99.0885V29.6272H99.3437C99.7083 29.6272 100.005 29.9227 100.005 30.2857V30.7317C100.005 31.0947 99.7083 31.3902 99.3437 31.3902ZM99.3437 16.6791H99.0885V14.916H99.3437C99.7083 14.916 100.005 15.2116 100.005 15.5746V16.0205C100.005 16.3835 99.7083 16.6791 99.3437 16.6791ZM99.3437 26.3863H99.0885V24.6232H99.3437C99.7083 24.6232 100.005 24.9188 100.005 25.2818V25.7277C100.005 26.0907 99.7083 26.3863 99.3437 26.3863Z" fill="#FF0049"/>
<path opacity="0.1" d="M96.8335 46.1016L2.50049 46.1016L2.50049 9.89152L96.8335 9.89152V46.1016Z" fill="url(#paint0_linear_2587_184)"/>
<path opacity="0.6" d="M99.0934 9.13453V8.79748C99.0934 8.66266 98.984 8.55895 98.8538 8.55895H97.9266C97.7912 8.55895 97.687 8.66784 97.687 8.79748V9.13453C97.687 9.26936 97.7964 9.37307 97.9266 9.37307H98.8538C98.9892 9.37307 99.0934 9.26417 99.0934 9.13453ZM98.8538 47.5225H97.9266C97.7912 47.5225 97.687 47.4136 97.687 47.2839V46.9469C97.687 46.8121 97.7964 46.7083 97.9266 46.7083H98.8538C98.9892 46.7083 99.0934 46.8172 99.0934 46.9469V47.2839C99.0934 47.4188 98.984 47.5225 98.8538 47.5225ZM1.74974 9.37825H0.822604C0.68718 9.37825 0.583008 9.26936 0.583008 9.13972L0.583008 8.80267C0.583008 8.66784 0.692389 8.56414 0.822604 8.56414H1.74974C1.88516 8.56414 1.98933 8.67303 1.98933 8.80267V9.13972C1.98933 9.27454 1.87995 9.37825 1.74974 9.37825ZM1.74974 47.5225H0.822604C0.68718 47.5225 0.583008 47.4136 0.583008 47.2839L0.583008 46.9469C0.583008 46.8121 0.692389 46.7083 0.822604 46.7083H1.74974C1.88516 46.7083 1.98933 46.8172 1.98933 46.9469V47.2839C1.98933 47.4188 1.87995 47.5225 1.74974 47.5225Z" fill="black"/>
<path opacity="0.2" d="M2.42198 46.0808H0.3125L0.3125 9.94337H2.42198L2.42198 46.0808Z" fill="url(#paint1_linear_2587_184)"/>
<path opacity="0.2" d="M99.0836 46.0652H96.9585V9.94331H99.0836V46.0652Z" fill="url(#paint2_linear_2587_184)"/>
<path opacity="0.2" d="M96.854 46.112V47.8699L2.50534 47.8699V46.112L96.854 46.112Z" fill="url(#paint3_linear_2587_184)"/>
<path opacity="0.2" d="M96.854 8.14398V9.90186L2.50534 9.90186V8.14398L96.854 8.14398Z" fill="url(#paint4_linear_2587_184)"/>
<path opacity="0.6" d="M99.2707 39.9047C99.203 39.9047 99.1457 39.9203 99.0884 39.9462V40.7551C99.1457 40.7811 99.2082 40.7966 99.2707 40.7966C99.5155 40.7966 99.7186 40.5996 99.7186 40.3507C99.7186 40.1018 99.5207 39.9047 99.2707 39.9047ZM99.2707 30.9443C99.203 30.9443 99.1457 30.9287 99.0884 30.9028V30.0939C99.1457 30.0679 99.2082 30.0524 99.2707 30.0524C99.5155 30.0524 99.7186 30.2494 99.7186 30.4983C99.7186 30.7472 99.5207 30.9443 99.2707 30.9443ZM99.2707 25.9455C99.203 25.9455 99.1457 25.9299 99.0884 25.904V25.0951C99.1457 25.0691 99.2082 25.0536 99.2707 25.0536C99.5155 25.0536 99.7186 25.2506 99.7186 25.4995C99.7186 25.7484 99.5207 25.9455 99.2707 25.9455ZM99.2707 16.2383C99.203 16.2383 99.1457 16.2228 99.0884 16.1968V15.3879C99.1457 15.362 99.2082 15.3464 99.2707 15.3464C99.5155 15.3464 99.7186 15.5435 99.7186 15.7924C99.7186 16.0413 99.5207 16.2383 99.2707 16.2383Z" fill="url(#paint5_linear_2587_184)"/>
<path opacity="0.1" d="M2.71372 44.8674H2.48975V46.1016L96.828 46.1016V44.8674H96.6144L96.4269 45.7749H94.8748L94.6768 44.8674H93.8799L93.6507 45.9201H92.1038L91.8746 44.8674H91.1089L90.8693 45.9719H89.3276L89.088 44.8674H88.3015L88.1036 45.7749H86.5254L86.3274 44.8674H85.5409L85.3118 45.9201H83.7388L83.5096 44.8674H82.7596L82.52 45.9719H80.9574L80.7178 44.8674H79.9469L79.7281 45.9045H78.1968L77.9833 44.8674H77.1707L76.9415 45.9201H75.3737L75.1446 44.8674H74.3997L74.1601 45.9719H72.6028L72.3632 44.8674H71.5923L71.384 45.8993H69.8214L69.6026 44.8674H68.8317L68.6026 45.9201H67.0296L66.8004 44.8674H66.0451L65.8055 45.9719H64.2638L64.0242 44.8674H63.2012L63.0033 45.7749H61.4512L61.2532 44.8674H60.4459L60.2167 45.9201H58.6698L58.4406 44.8674H57.6957L57.4562 45.9719H55.8623L55.6227 44.8674H54.8414L54.6539 45.9201H53.0861L52.8726 44.8674H52.0913L51.8621 45.9201H50.2995L50.0704 44.8674H49.3203L49.0807 45.9719H47.5233L47.2837 44.8674H46.5025L46.2889 45.9408H44.7367L44.518 44.8674H43.7367L43.5075 45.9201H41.9553L41.7262 44.8674H40.9605L40.7209 45.9719H39.174L38.9344 44.8674H38.1479L37.9343 45.946H36.3769L36.1634 44.8674H35.3821L35.1529 45.9201H33.606L33.3768 44.8674H32.6111L32.3715 45.9719H30.8246L30.585 44.8674H29.7776L29.5797 45.7749H28.0327L27.84 44.8674H27.0171L26.7879 45.9201H25.2513L25.0222 44.8674H24.2461L24.0065 45.9719H22.4439L22.2043 44.8674H21.4334L21.2251 45.889H19.6625L19.4646 44.8674H18.6573L18.4281 45.9201H16.8811L16.6519 44.8674H15.8602L15.6467 45.7645H14.0945L13.881 44.8674H13.0528L12.8549 45.7749H11.3079L11.11 44.8674H10.3235L10.0839 45.8838H8.52652L8.28692 44.8674H7.54209L7.29208 45.9045H5.73471L5.48469 44.8674H4.7034L4.47943 45.8993H2.95331L2.72413 44.8674H2.71372ZM96.9582 11.5198H96.5936L96.4269 10.3582H94.8748L94.6977 11.5198H93.8591L93.6507 10.1456H92.1038L91.8954 11.5198H91.0881L90.8693 10.0782H89.3276L89.1088 11.5198H88.2807L88.1036 10.3582H86.5254L86.3483 11.5198H85.5201L85.3118 10.1456H83.7388L83.5304 11.5198H82.7387L82.52 10.0782H80.9574L80.7386 11.5198H79.9261L79.7281 10.1715H78.1968L78.0041 11.5198H77.1551L76.9468 10.1456H75.379L75.1706 11.5198H74.3841L74.1654 10.0782H72.608L72.3892 11.5198H71.5767L71.3892 10.1819H69.8266L69.6287 11.5198L68.8213 11.5198L68.613 10.1456H67.04L66.8316 11.5198H66.0347L65.816 10.0782H64.2742L64.0555 11.5198H63.1908L63.0137 10.3582H61.4616L61.2845 11.5198H60.4355L60.2271 10.1456H58.6802L58.4718 11.5198H57.6853L57.4666 10.0782H55.8727L55.654 11.5198H54.8362L54.6695 10.1508H53.1018L52.9038 11.5198H52.0809L51.8725 10.1456H50.3099L50.1016 11.5198H49.3099L49.0911 10.0782H47.5338L47.315 11.5198H46.4972L46.2993 10.1197H44.7472L44.5492 11.5198H43.7315L43.5231 10.1456H41.971L41.7626 11.5198H40.9553L40.7365 10.0782H39.1896L38.9708 11.5198H38.1426L37.9447 10.1145H36.3873L36.1946 11.5198H35.3717L35.1633 10.1456H33.6164L33.408 11.5198H32.6007L32.3819 10.0782H30.835L30.6162 11.5198H29.7672L29.5901 10.3582H28.0432L27.8713 11.5198H27.0119L26.8035 10.1456H25.267L25.0586 11.5198L24.2409 11.5198L24.0221 10.0782H22.4595L22.2408 11.5198H21.4282L21.2355 10.1923H19.6729L19.4958 11.5198H18.652L18.4437 10.1456H16.8967L16.6884 11.5198H15.8498L15.6571 10.3738H14.1049L13.9122 11.5198H13.0424L12.8653 10.3582H11.3183L11.1412 11.5198H10.3131L10.0943 10.2026H8.53694L8.31817 11.5198H7.52647L7.3025 10.1767H5.74512L5.52115 11.5198H4.69299L4.48985 10.1767H2.96373L2.75539 11.5198H2.51058V9.89152L96.979 9.89152V11.5198H96.9582Z" fill="#231F20"/>
<path opacity="0.3" d="M2.35461 47.9995H0.15658C0.114911 47.9995 0.0836594 47.9684 0.0836594 47.9269L0.0836594 46.2261C0.0836594 46.1846 0.114911 46.1535 0.15658 46.1535H2.35461C2.39628 46.1535 2.42753 46.1846 2.42753 46.2261L2.42753 47.9269C2.42753 47.9684 2.39628 47.9995 2.35461 47.9995ZM1.84938 46.9728C1.84938 46.8898 1.78166 46.8224 1.69833 46.8224H0.875367C0.79203 46.8224 0.724318 46.8898 0.724318 46.9728L0.724318 47.2632C0.724318 47.3461 0.79203 47.4136 0.875367 47.4136H1.69833C1.78166 47.4136 1.84938 47.3461 1.84938 47.2632V46.9728ZM2.3494 9.8916H0.146163C0.104494 9.8916 0.0732422 9.86049 0.0732422 9.819L0.0732422 8.09224C0.0732422 8.05076 0.104494 8.01965 0.146163 8.01965H2.3494C2.39107 8.01965 2.42232 8.05076 2.42232 8.09224L2.42232 9.819C2.42232 9.86049 2.39107 9.8916 2.3494 9.8916ZM1.84938 8.80265C1.84938 8.71968 1.78166 8.65228 1.69833 8.65228H0.875367C0.79203 8.65228 0.724318 8.71968 0.724318 8.80265V9.09304C0.724318 9.17601 0.79203 9.24342 0.875367 9.24342H1.69833C1.78166 9.24342 1.84938 9.17601 1.84938 9.09304L1.84938 8.80265ZM99.8389 47.9995H97.0054C96.9637 47.9995 96.9324 47.9684 96.9324 47.9269V46.2209C96.9324 46.1794 96.9637 46.1483 97.0054 46.1483H99.8389C99.8805 46.1483 99.9118 46.1794 99.9118 46.2209V47.9269C99.9118 47.9684 99.8805 47.9995 99.8389 47.9995ZM98.9534 46.9728C98.9534 46.8898 98.8857 46.8224 98.8023 46.8224H97.9794C97.896 46.8224 97.8283 46.8898 97.8283 46.9728V47.2632C97.8283 47.3461 97.896 47.4136 97.9794 47.4136H98.8023C98.8857 47.4136 98.9534 47.3461 98.9534 47.2632V46.9728ZM99.8284 9.86049H97.0106C96.9689 9.86049 96.9377 9.82937 96.9377 9.78789V8.09743C96.9377 8.05595 96.9689 8.02483 97.0106 8.02483H99.8284C99.8701 8.02483 99.9014 8.05595 99.9014 8.09743V9.78789C99.9014 9.82937 99.8701 9.86049 99.8284 9.86049ZM98.9638 8.83895C98.9638 8.75599 98.8961 8.68857 98.8128 8.68857H97.9898C97.9065 8.68857 97.8387 8.75599 97.8387 8.83895V9.12934C97.8387 9.2123 97.9065 9.27972 97.9898 9.27972H98.8128C98.8961 9.27972 98.9638 9.2123 98.9638 9.12934V8.83895Z" fill="white"/>
<path opacity="0.2" d="M0.3125 46.0756H2.42198V45.5208L2.27614 45.7386C2.22406 45.8164 2.14072 45.863 2.04697 45.863H0.68752C0.593765 45.863 0.510427 45.8164 0.458341 45.7386L0.3125 45.5208L0.3125 46.0756ZM2.83867 47.7505L3.05743 47.875H2.50011L2.50011 46.1171H3.05743L2.83867 46.2416C2.76054 46.2831 2.71367 46.3557 2.71367 46.4334L2.71367 47.5587C2.71367 47.6365 2.76054 47.7091 2.83867 47.7505ZM2.04697 10.1456H0.68752C0.593765 10.1456 0.510427 10.1923 0.458341 10.2701L0.3125 10.4879L0.3125 9.93302H2.42198V10.4879L2.27614 10.2701C2.22406 10.1923 2.14072 10.1456 2.04697 10.1456ZM2.83867 9.77746L3.05743 9.90191H2.50011L2.50011 8.14404H3.05743L2.83867 8.26849C2.76054 8.30997 2.71367 8.38257 2.71367 8.46035V9.59078C2.71367 9.66856 2.76054 9.74116 2.83867 9.78265V9.77746ZM96.9738 46.0756V45.5208L97.1196 45.7386C97.1717 45.8164 97.2551 45.863 97.3488 45.863H98.7083C98.802 45.863 98.8853 45.8164 98.9374 45.7386L99.0833 45.5208V46.0756H96.9738ZM96.5258 47.7505C96.604 47.7091 96.6509 47.6365 96.6509 47.5587V46.4283C96.6509 46.3505 96.604 46.2779 96.5258 46.2364L96.3071 46.1119H96.8644V47.875H96.3071L96.5258 47.7505ZM98.703 10.1456H97.3436C97.2498 10.1456 97.1665 10.1923 97.1144 10.2701L96.9686 10.4879V9.93302H99.0781V10.4879L98.9322 10.2701C98.8801 10.1923 98.7968 10.1456 98.703 10.1456ZM96.5206 9.78783C96.5988 9.74635 96.6456 9.67375 96.6456 9.59597V8.46554C96.6456 8.38776 96.5988 8.31516 96.5206 8.27368L96.3019 8.14923H96.8592V9.90709H96.3019L96.5206 9.78265V9.78783Z" fill="#231F20"/>
<defs>
<linearGradient id="paint0_linear_2587_184" x1="2.50049" y1="27.9939" x2="96.8335" y2="27.9939" gradientUnits="userSpaceOnUse">
<stop stop-color="white"/>
<stop offset="0.1"/>
<stop offset="0.2" stop-color="white"/>
<stop offset="0.3" stop-color="#C8C8C8"/>
<stop offset="0.4" stop-color="white"/>
<stop offset="0.5" stop-color="#C8C8C8"/>
<stop offset="0.6"/>
<stop offset="0.7" stop-color="white"/>
<stop offset="0.8" stop-color="white"/>
<stop offset="0.9"/>
<stop offset="1"/>
</linearGradient>
<linearGradient id="paint1_linear_2587_184" x1="0.3125" y1="28.0095" x2="2.42198" y2="28.0095" gradientUnits="userSpaceOnUse">
<stop stop-color="#4D4D4D"/>
<stop offset="0.1" stop-color="#878787"/>
<stop offset="0.2" stop-color="white"/>
<stop offset="0.8" stop-color="white"/>
<stop offset="0.9" stop-color="#494949"/>
<stop offset="1"/>
</linearGradient>
<linearGradient id="paint2_linear_2587_184" x1="96.9585" y1="28.0042" x2="99.0836" y2="28.0042" gradientUnits="userSpaceOnUse">
<stop stop-color="#4D4D4D"/>
<stop offset="0.1" stop-color="#878787"/>
<stop offset="0.2" stop-color="white"/>
<stop offset="0.8" stop-color="white"/>
<stop offset="0.9" stop-color="#494949"/>
<stop offset="1"/>
</linearGradient>
<linearGradient id="paint3_linear_2587_184" x1="49.6797" y1="47.8699" x2="49.6797" y2="46.112" gradientUnits="userSpaceOnUse">
<stop stop-color="#4D4D4D"/>
<stop offset="0.1" stop-color="#878787"/>
<stop offset="0.2" stop-color="white"/>
<stop offset="0.8" stop-color="white"/>
<stop offset="0.9" stop-color="#494949"/>
<stop offset="1"/>
</linearGradient>
<linearGradient id="paint4_linear_2587_184" x1="49.6797" y1="9.90186" x2="49.6797" y2="8.14398" gradientUnits="userSpaceOnUse">
<stop stop-color="#4D4D4D"/>
<stop offset="0.1" stop-color="#878787"/>
<stop offset="0.2" stop-color="white"/>
<stop offset="0.8" stop-color="white"/>
<stop offset="0.9" stop-color="#494949"/>
<stop offset="1"/>
</linearGradient>
<linearGradient id="paint5_linear_2587_184" x1="99.0832" y1="28.0715" x2="99.7134" y2="28.0715" gradientUnits="userSpaceOnUse">
<stop stop-color="#616161"/>
<stop offset="0.2" stop-color="#575757"/>
<stop offset="0.6" stop-color="#3D3D3D"/>
<stop offset="1" stop-color="#212121"/>
</linearGradient>
</defs>
</svg>
