<svg width="100" height="42" viewBox="0 0 100 42" fill="none" xmlns="http://www.w3.org/2000/svg">
<g clip-path="url(#clip0_6561_2711)">
<path d="M100 21.0375C100 21.6279 99.8789 22.1373 99.707 22.4137C99.6152 25.9341 99.2383 29.5078 99.2383 29.5078L99.2324 29.5295C99.2324 29.5295 99.2363 29.5295 99.2383 29.5295L98.9453 30.6155L98.752 31.346C98.752 31.346 98.4609 31.9897 98.1504 32.734C98.1562 32.7261 98.1602 32.7162 98.166 32.7064C98.0488 32.9828 97.9512 33.2592 97.834 33.5356C97.6172 34.122 97.2617 34.975 96.8066 35.7272C96.8105 35.7272 96.8145 35.7272 96.8184 35.7272L96.7598 35.826H96.7461C96.4336 36.3255 96.0762 36.7717 95.6855 37.0501C95.1621 37.4233 94.5488 37.6385 94.082 37.7589C93.7305 37.8537 93.4648 37.8932 93.3809 37.8991C93.2695 37.988 93.1445 38.061 93.0098 38.1183C92.8477 38.1972 92.6758 38.2565 92.4922 38.292C92.4395 38.3019 92.3848 38.3098 92.332 38.3177L92.3262 38.3355C92.248 38.3355 92.1504 38.3552 92.0723 38.3552H91.4863L91.3691 38.3749C91.0762 38.4342 90.7832 38.4737 90.4512 38.5132C88.6348 38.7303 86.4082 38.6711 83.9082 38.4539C83.5801 38.4263 83.2461 38.3947 82.9102 38.3552C82.9082 38.3552 82.9043 38.3552 82.9023 38.3552H82.6582L82.6641 38.3355H82.0781L82.0703 38.3552H81.6602C81.5039 38.3552 81.3477 38.3355 81.2109 38.3157L81.2188 38.29C81.2188 38.29 81.2109 38.2881 81.2051 38.2861C80.9648 38.2367 80.7422 38.1518 80.5449 38.0393C79.1855 37.8221 78.0684 37.595 77.6445 37.5062H76.4316L76.459 37.4667H75.8086C75.8086 37.4667 75.8027 37.4805 75.8008 37.4865H75.7227C75.7227 37.4865 75.7285 37.4726 75.7305 37.4667H73.5938L73.3438 38.2821L73.5938 38.296C73.5938 38.296 73.5898 38.3039 73.5859 38.3157H73.5938C73.5938 38.3157 72.793 40.2309 72.1875 41.1589C71.582 42.0869 71.5625 41.9684 71.3672 41.9881C71.2441 42.0059 70.7676 42.0079 70.418 41.9921C70.2266 41.9901 70.0684 41.9881 70.0195 41.9881C69.8828 41.9881 69.8438 41.8697 70.0195 41.4945C70.1953 41.1194 71.582 37.9801 71.582 37.9801H71.5938C71.5996 37.9682 71.6016 37.9603 71.6016 37.9603H71.9336L71.9629 38.0018L72.0898 37.4667H59.5234C59.5059 37.6365 59.4395 37.751 59.3281 37.8201C59.2031 37.9307 58.9863 37.9801 58.7676 37.9801H56.209C55.877 37.9801 55.9746 37.9998 55.7988 37.9011C55.6816 37.8221 55.6426 37.6049 55.6426 37.4865H42.293C42.2852 37.5536 42.2695 37.6148 42.2441 37.6642C42.2051 37.9011 41.8926 37.9998 41.5801 37.9998H39.0215C38.6895 37.9998 38.7871 38.0196 38.6113 37.9208C38.5781 37.9011 38.5527 37.8734 38.5312 37.8419C38.4805 37.7806 38.4512 37.6859 38.4355 37.597C38.4297 37.5674 38.4238 37.5378 38.4199 37.5062H37.8691C37.8691 37.5062 37.6016 37.5101 37.2617 37.4865H37.2441C36.7871 37.4549 36.207 37.3739 35.9746 37.1725C35.9395 37.1548 35.9062 37.1212 35.8848 37.0856C35.877 37.0777 35.8711 37.0718 35.8633 37.0659C35.8457 37.056 35.8281 37.0442 35.8105 37.0284C35.7891 37.0146 35.7656 36.9988 35.7383 36.979L35.4082 37.4292H29.0215C28.5918 37.5082 28.123 37.6069 27.6738 37.6859C27.2832 38.1202 26.7363 38.3769 26.1113 38.3769H15.6426C15.0762 38.3769 14.5684 38.1597 14.1973 37.8043C13.7285 37.6661 13.4355 37.5279 13.2402 37.4292L7.84961 37.4055C6.22852 37.4055 5.00977 37.3996 4.41016 37.3956L4.25586 37.4687C4.25586 37.4687 2.94727 37.4884 2.43945 37.3897C1.93945 37.293 1.46094 36.5091 1.44531 36.3887V36.3828V36.0471H1.62109C1.60156 35.8891 1.60156 35.7904 1.60156 35.7904V34.5663C1.50391 34.2701 1.38672 33.9542 1.26953 33.6186C0.859375 32.4734 0.351562 29.6105 0.351562 29.6105C0.351562 29.6105 0.078125 28.5443 0.0195312 25.2667C0 24.1611 0 22.621 0 21.002H0.0195312C0.0195312 19.3829 0.0195312 17.8429 0.0390625 16.7372C0.0976562 13.4399 0.371094 12.3935 0.371094 12.3935C0.371094 12.3935 0.859375 9.53055 1.28906 8.38538C1.40625 8.04973 1.52344 7.73382 1.62109 7.43765V6.21351C1.62109 6.21351 1.62109 6.11479 1.64062 5.95683H1.44531V5.62118C1.44531 5.55997 1.63672 5.22827 1.90234 4.95975C1.95508 4.90644 2.01172 4.85511 2.07031 4.80772C2.09961 4.78403 2.12891 4.76231 2.16016 4.74257C2.25 4.68135 2.3457 4.63594 2.44141 4.61422C2.69531 4.55499 3.14844 4.53525 3.53906 4.5313C3.92969 4.52538 4.25586 4.53722 4.25586 4.53722L4.41016 4.61028C5.45703 4.60238 8.48633 4.59843 12.2695 4.59843H13.2598C13.4746 4.47799 13.8066 4.33978 14.2949 4.20157C14.3008 4.20157 14.3066 4.19762 14.3125 4.19762C14.5645 4.00018 14.8652 3.85802 15.1934 3.79089V3.78694C15.3223 3.74943 15.4707 3.74745 15.6191 3.74745C15.6191 3.74745 15.6191 3.74745 15.6211 3.74745H26.0312C26.0312 3.74745 26.0449 3.74745 26.0508 3.74745C26.1211 3.74745 26.1797 3.74745 26.2363 3.75535C26.2402 3.75535 26.2441 3.75535 26.2461 3.75535C26.2539 3.75535 26.2617 3.75732 26.2695 3.7593C26.5117 3.78694 26.7422 3.85407 26.9531 3.95477L26.9492 3.94292C27.0273 3.98241 27.1035 4.02782 27.1777 4.07718C27.1816 4.07915 27.1875 4.0831 27.1914 4.08705C27.2402 4.11864 27.2871 4.15221 27.334 4.18577C27.3398 4.18972 27.3457 4.19565 27.3516 4.1996C27.4023 4.23909 27.4531 4.27857 27.502 4.32004C27.9766 4.41678 28.4863 4.51155 28.9609 4.6083C32.748 4.61225 35.4238 4.6162 35.4238 4.6162L35.7383 5.0486C35.7383 5.0486 35.75 5.03873 35.7559 5.03478C35.7656 5.02688 35.7734 5.01898 35.7832 5.01306C35.8281 4.95185 35.8789 4.89657 35.9316 4.85313C36.3613 4.49773 37.8262 4.51748 37.8262 4.51748H38.416C38.4199 4.48194 38.4258 4.44837 38.4336 4.41481C38.4434 4.36742 38.457 4.32201 38.4746 4.27857C38.5 4.20947 38.5352 4.14826 38.5859 4.12259C38.7617 4.02387 38.6641 4.04361 38.9961 4.04361H41.5547C41.8105 4.04361 42.0645 4.11075 42.1699 4.26475C42.2305 4.32596 42.2695 4.40889 42.2871 4.51748H55.6191C55.623 4.39507 55.6641 4.17788 55.7754 4.12259C55.9512 4.02387 55.8731 4.04361 56.1856 4.04361H58.7441C58.9473 4.04361 59.1484 4.08508 59.2754 4.17985C59.4023 4.24303 59.4883 4.34768 59.5137 4.51748H72.0586L71.9414 4.02387L71.9277 4.04361H71.5957C71.5957 4.04361 71.5918 4.03572 71.5879 4.02387H71.5566C71.5566 4.02387 70.1504 0.904278 69.9941 0.509392C69.8184 0.114506 69.8574 0.0157852 69.9941 0.0157852C70.1309 0.0157852 71.127 -0.0237045 71.3223 0.0157852C71.3906 0.0296059 71.4395 0.0217056 71.5 0.0453987C71.6133 0.0710678 71.7441 0.195457 72.1816 0.864788C72.7871 1.79277 73.5879 3.70796 73.5879 3.70796L73.332 3.72179L73.5762 4.51748H76.4414L76.4141 4.47799H77.625C78.0781 4.38519 79.3066 4.14036 80.7578 3.90936C81.0215 3.80076 81.3184 3.72771 81.6152 3.72771H81.9844C82.6172 3.64083 83.2617 3.56383 83.8809 3.51052C86.8105 3.27359 89.3691 3.2341 91.3223 3.5895C91.6074 3.64083 91.8496 3.68822 92.0586 3.72968C92.3457 3.73363 92.6074 3.79879 92.8574 3.90145C92.8711 3.90738 92.8848 3.91133 92.8984 3.91725C93.1484 3.98241 93.25 4.0219 93.2891 4.04361C93.3086 4.05151 93.3242 4.05941 93.332 4.06533C93.4043 4.07521 93.709 4.12062 94.1094 4.23316C94.5703 4.35558 95.168 4.56881 95.6777 4.93211C96.6738 5.6429 97.4551 7.43963 97.8262 8.44659C98.2168 9.45354 98.7441 10.6185 98.7441 10.6185L99.2324 12.4547C99.2324 12.4547 99.6191 16.1153 99.7031 19.6771C99.8789 19.9516 99.9941 20.461 99.9941 21.0434L100 21.0375Z" fill="#0B0B0B"/>
<path d="M1.69922 21.0197L1.66406 7.36657C1.55859 7.67458 1.4375 8.02011 1.30859 8.37945C0.878906 9.52462 0.390625 12.3875 0.390625 12.3875C0.390625 12.3875 0.117188 13.434 0.0585938 16.7313C0.0390625 17.837 0.0390625 19.377 0.0390625 20.996H0.0195312C0.0195312 22.6151 0.0195312 24.1551 0.0390625 25.2608C0.0976562 28.5383 0.371094 29.6045 0.371094 29.6045C0.371094 29.6045 0.878906 32.4675 1.28906 33.6126C1.41016 33.9522 1.52539 34.28 1.62695 34.5742L1.67969 21.0197H1.69922ZM35.3516 20.9763V35.7845C35.3516 35.7845 35.4609 36.4736 35.748 36.9079L35.3711 37.4272C35.3711 37.4272 32.7012 37.4312 28.9199 37.4351C28.4688 37.518 27.9922 37.6148 27.5332 37.7056C26.7793 37.8537 26.0703 37.984 25.6055 38.0018C24.5703 38.0413 19.9609 38.2782 18.8281 38.2584C17.7031 38.2387 15.6152 38.2387 14.3047 37.8517C14.2969 37.8497 14.2871 37.8478 14.2773 37.8438C13.7852 37.6957 13.4629 37.5575 13.25 37.447C8.29102 37.447 4.37109 37.443 4.02344 37.4292C3.02734 37.3897 2.48047 37.212 2.03125 36.9356C1.58203 36.6394 1.62109 35.8299 1.62109 35.8299L1.62695 34.5761C1.86719 35.2771 2.03125 35.7865 2.03125 35.7865C2.03125 35.7865 2.03125 36.438 2.44141 36.5565C2.85156 36.6552 4.17969 36.6355 4.17969 36.6355L35.1953 36.5367V35.7075H2.69531V20.998H2.71484V6.28854H35.2344V5.45927L4.19922 5.3803C4.19922 5.3803 2.87109 5.34081 2.46094 5.45927C2.05078 5.55799 2.05078 6.20956 2.05078 6.20956C2.05078 6.20956 1.89453 6.69329 1.66406 7.36855L1.66016 6.23325C1.66016 6.23325 1.62109 5.44348 2.07031 5.14732C2.51953 4.85115 3.06641 4.6932 4.0625 4.65371C4.4082 4.63989 8.2793 4.63594 13.1934 4.63594C13.4004 4.51748 13.7402 4.36347 14.2969 4.19564C14.3027 4.19564 14.3086 4.19169 14.3145 4.19169C15.625 3.8205 17.7188 3.80075 18.8477 3.78101C19.9805 3.76127 24.6094 3.9982 25.625 4.03769C26.0781 4.05546 26.7578 4.17788 27.4863 4.32003C28.0488 4.4306 28.6406 4.55104 29.1816 4.64581C32.8555 4.64976 35.4297 4.65371 35.4297 4.65371L35.7402 5.08018C35.459 5.51456 35.3516 6.18982 35.3516 6.18982V20.9783V20.9763ZM99.1992 29.488L98.7109 31.3243C98.7109 31.3243 98.1836 32.4892 97.793 33.4961C97.4219 34.5031 96.6406 36.2998 95.6445 37.0106C94.6484 37.7214 93.3203 37.8596 93.3203 37.8596C93.3203 37.8596 93.3008 37.9781 91.3281 38.3335C89.375 38.6889 86.8164 38.6494 83.8867 38.4125C80.9961 38.2348 77.4805 37.4647 77.4805 37.4647H37.832C37.832 37.4647 36.3477 37.4845 35.9375 37.1291C35.8672 37.0718 35.8047 36.9948 35.748 36.9099L35.8594 36.7579V28.3073L35.8984 21.0415H35.957L35.918 13.7756V5.32502L35.7402 5.08018C35.7988 4.98936 35.8633 4.90841 35.9375 4.8472C36.3672 4.49181 37.832 4.51155 37.832 4.51155H77.4414C77.4414 4.51155 80.957 3.76127 83.8867 3.50459C86.8164 3.26766 89.375 3.22817 91.3281 3.58357C93.2812 3.93896 93.3203 4.05743 93.3203 4.05743C93.3203 4.05743 94.6289 4.21539 95.6445 4.90644C96.6406 5.61723 97.4219 7.41396 97.793 8.42091C98.1641 9.42787 98.7109 10.5928 98.7109 10.5928L99.1992 12.429C99.1992 12.429 99.6875 17.0294 99.6875 20.9585C99.6875 24.8876 99.1992 29.488 99.1992 29.488Z" fill="#17E0DB"/>
<path d="M1.69922 36.0431H1.44531V36.3788C1.44531 36.4775 1.93359 37.2673 2.44141 37.3857C2.94922 37.4844 4.25781 37.4647 4.25781 37.4647L4.58984 37.3067L3.10547 37.129L2.1875 36.6354L1.69922 36.0431ZM1.69922 5.95285H1.44531V5.6172C1.44531 5.51848 1.93359 4.72871 2.44141 4.61024C2.94922 4.49178 4.25781 4.53127 4.25781 4.53127L4.58984 4.68922L3.10547 4.86692L2.1875 5.36053L1.69922 5.95285Z" fill="#ED2939"/>
<path d="M25.625 4.03575C26.0781 4.05352 26.7578 4.17593 27.4863 4.31809C27.1094 3.96072 26.5996 3.73959 26.0352 3.73959H15.625C15.1289 3.73959 14.6738 3.90741 14.3145 4.18976C15.625 3.81857 17.7188 3.79882 18.8477 3.77908C19.9805 3.75933 24.6094 3.99627 25.625 4.03575ZM25.6055 37.9998C26.0723 37.9821 26.7793 37.8518 27.5332 37.7037C27.1484 38.0907 26.6191 38.3315 26.0352 38.3315H15.6445C15.1328 38.3315 14.668 38.1479 14.3047 37.8498C15.6152 38.2368 17.7031 38.2368 18.8281 38.2565C19.9609 38.2763 24.5703 38.0393 25.6055 37.9998Z" fill="black"/>
<path opacity="0.2" d="M35.8983 21.0395L35.8593 28.3054V36.7559L35.371 37.4272C35.371 37.4272 32.7011 37.4312 28.9198 37.4351C28.4686 37.5181 27.9921 37.6148 27.5331 37.7056C26.7792 37.8537 26.0702 37.984 25.6054 38.0018C24.5702 38.0413 19.9608 38.2782 18.828 38.2585C17.703 38.2387 15.6151 38.2387 14.3046 37.8517C14.2968 37.8498 14.287 37.8478 14.2772 37.8438C13.785 37.6958 13.4628 37.5576 13.2499 37.447C8.2909 37.447 4.37097 37.443 4.02332 37.4292C3.02722 37.3897 2.48035 37.212 2.03113 36.9356C1.58191 36.6394 1.62097 35.8299 1.62097 35.8299L1.67957 21.0217H1.6991L1.66004 6.23328C1.66004 6.23328 1.62097 5.44351 2.07019 5.14735C2.51941 4.85118 3.06629 4.69323 4.06238 4.65374C4.40808 4.63992 8.27918 4.63597 13.1932 4.63597C13.4003 4.5175 13.7401 4.3635 14.2968 4.19567C14.3026 4.19567 14.3085 4.19172 14.3143 4.19172C15.6249 3.82053 17.7186 3.80079 18.8475 3.78104C19.9804 3.7613 24.6093 3.99823 25.6249 4.03772C26.078 4.05548 26.7577 4.1779 27.4862 4.32006C28.0487 4.43063 28.6405 4.55107 29.1815 4.64584C32.8554 4.64979 35.4296 4.65374 35.4296 4.65374L35.9179 5.32504V13.7756L35.9569 21.0415H35.8983V21.0395Z" fill="#D9E0E0"/>
<path d="M2.96875 35.6482H35.1953V6.32796H2.96875V35.6482Z" fill="url(#paint0_linear_6561_2711)"/>
<path opacity="0.5" d="M14.7656 35.9641H26.8359C27.8516 35.9641 28.6719 35.1349 28.6719 34.1082V32.3707C28.6719 31.344 27.8516 30.5147 26.8359 30.5147H14.7656C13.75 30.5147 12.9297 31.344 12.9297 32.3707V34.1082C12.9492 35.1349 13.7695 35.9641 14.7656 35.9641ZM14.7656 6.28849H26.8359C27.8516 6.28849 28.6719 7.11774 28.6719 8.14445V9.88194C28.6719 10.9086 27.8516 11.7379 26.8359 11.7379H14.7656C13.75 11.7379 12.9297 10.9086 12.9297 9.88194V8.14445C12.9492 7.098 13.7695 6.28849 14.7656 6.28849Z" fill="url(#paint1_linear_6561_2711)"/>
<path opacity="0.2" d="M2.03125 35.7865C2.03125 35.7865 1.69922 34.7598 1.28906 33.6146C0.878906 32.4694 0.371094 29.6065 0.371094 29.6065C0.371094 29.6065 0.0976562 28.5403 0.0390625 25.2628C0.0195312 24.1571 0.0195312 22.617 0.0195312 20.998H0.0390625C0.0390625 19.379 0.0390625 17.8389 0.0585938 16.7333C0.117188 13.436 0.390625 12.3895 0.390625 12.3895C0.390625 12.3895 0.878906 9.5266 1.30859 8.38143C1.71875 7.23626 2.05078 6.20956 2.05078 6.20956C2.05078 6.20956 2.05078 5.558 2.46094 5.45928C2.87109 5.34081 4.19922 5.3803 4.19922 5.3803L35.2344 5.45928V6.28854H2.71484V20.998H2.69531V35.7075H35.1953V36.5368L4.17969 36.6355C4.17969 36.6355 2.85156 36.6552 2.44141 36.5565C2.03125 36.438 2.03125 35.7865 2.03125 35.7865Z" fill="#D9E0E0"/>
<path d="M35.1758 36.5959C35.1953 36.5762 35.1758 35.8259 35.1758 35.7864H1.99219C1.875 35.7667 1.77734 35.7075 1.66016 35.7272C1.69922 35.8062 1.95313 35.8457 1.97266 35.8457H35.1367V36.5367H2.46094C2.12891 36.4972 2.03125 36.1221 2.03125 35.8852C2.03125 35.8852 1.97266 35.8852 1.97266 35.9246C1.97266 36.1616 2.16797 36.5959 2.46094 36.5959H35.1758ZM35.2148 5.37829C35.2344 5.39803 35.2148 6.14831 35.2148 6.1878H2.01172C1.89453 6.20754 1.79688 6.26678 1.67969 6.24703C1.71875 6.16806 1.97266 6.12857 1.99219 6.12857H35.1758V5.43752H2.5C2.16797 5.47701 2.07031 5.85215 2.07031 6.08908C2.07031 6.08908 2.01172 6.08908 2.01172 6.04959C2.01172 5.81266 2.1875 5.37829 2.5 5.37829H35.2148Z" fill="black"/>
<path opacity="0.2" d="M35.5645 37.0698C35.5645 37.0698 35.2734 36.8131 35.2734 35.9839V6.03182C35.2734 5.22231 35.5645 4.94588 35.5645 4.94588L35.8379 5.83043C35.8867 5.99035 35.9238 6.17003 35.9414 6.35958L36.082 7.72785C36.1406 8.29846 36.2637 8.82761 36.4395 9.26593L36.6211 9.71807L36.625 20.9999L36.6211 32.2325L36.4219 32.6886C36.2715 33.0321 36.168 33.4566 36.1191 33.9206L35.9766 35.3165L35.5645 37.0718V37.0698Z" fill="black"/>
<path opacity="0.2" d="M77.4805 37.4647H37.832C37.832 37.4647 36.3477 37.4845 35.9375 37.1291C35.5078 36.7737 35.3516 35.7865 35.3516 35.7865V20.9783V6.18982C35.3516 6.18982 35.5078 5.2026 35.9375 4.8472C36.3672 4.49181 37.832 4.51155 37.832 4.51155H77.4414C77.4414 4.51155 80.957 3.76127 83.8867 3.50459C86.8164 3.26766 89.375 3.22817 91.3281 3.58357C93.2812 3.93896 93.3203 4.05743 93.3203 4.05743C93.3203 4.05743 94.6289 4.21539 95.6445 4.90644C96.6406 5.61723 97.4219 7.41396 97.793 8.42091C98.1641 9.42787 98.7109 10.5928 98.7109 10.5928L99.1992 12.429C99.1992 12.429 99.6875 17.0294 99.6875 20.9585C99.6875 24.8876 99.1992 29.488 99.1992 29.488L98.7109 31.3243C98.7109 31.3243 98.1836 32.4892 97.793 33.4961C97.4219 34.5031 96.6406 36.2998 95.6445 37.0106C94.6484 37.7214 93.3203 37.8596 93.3203 37.8596C93.3203 37.8596 93.3008 37.9781 91.3281 38.3335C89.375 38.6889 86.8164 38.6494 83.8867 38.4125C80.9961 38.2348 77.4805 37.4647 77.4805 37.4647Z" fill="#D9E0E0"/>
<path d="M75.2148 35.8655C75.7617 36.0629 75.9375 36.517 75.9375 36.8724C75.9375 37.0896 75.8984 37.2871 75.8008 37.4845H75.7227C75.8008 37.3068 75.8789 37.0896 75.8789 36.8724C75.8789 36.1814 75.1758 35.8655 74.5508 35.7273C73.9844 35.6285 73.4766 35.4311 72.9297 35.3126C72.5977 35.2337 72.2266 35.1152 71.9141 35.056C71.5234 34.977 71.1133 34.8585 70.7422 34.7598C70.0977 34.6216 69.4531 34.4044 68.8477 34.2662C67.6758 33.97 66.3867 33.6541 65.2148 33.5356H38.7305C38.6719 33.5356 38.5742 33.5949 38.4766 33.6146C37.7539 33.8121 37.3047 34.9177 37.1875 35.7273C37.168 35.9247 37.1289 36.2406 37.1289 36.3196C37.1289 36.3591 37.2852 37.2476 37.3242 37.4845H37.2461C37.1875 37.1094 37.0703 36.3788 37.0703 36.3196C37.0703 35.6878 37.4219 34.2464 38.0469 33.7923C38.1836 33.6739 38.3789 33.5949 38.5156 33.5554C38.6133 33.5356 38.7305 33.4962 38.8086 33.4764H64.8633C66.1914 33.4764 69.8633 34.5229 70.5664 34.6808C72.1289 35.0362 73.6523 35.3126 75.2148 35.8655Z" fill="black"/>
<path d="M54.4141 37.4647C54.4141 37.3068 54.4141 37.1686 54.3945 37.0303V33.5356H54.4336L54.4531 36.9711C54.4727 37.1093 54.4727 37.287 54.4922 37.4647H54.4141Z" fill="black"/>
<path d="M35.3711 32.035C35.3711 32.035 35.8203 32.193 36.2891 32.2917C36.7383 32.3904 37.1289 32.4694 37.8516 32.4694H62.9883C64.4922 32.4694 67.8906 32.884 67.8906 32.884L67.6562 32.2522C67.6562 32.2522 66.543 32.1535 65.4687 32.0548C64.3945 31.9561 64.1211 31.8968 63.0664 31.8968H37.832C36.7383 31.8968 36.543 31.9166 36.2695 31.8178C35.7227 31.6204 35.3516 31.6204 35.3516 31.6204L35.3711 32.035Z" fill="#222222"/>
<path d="M89.1211 36.0826L84.668 36.1616L82.9102 36.1419C82.4609 36.1221 81.9922 36.0826 81.543 35.9247C81.4258 35.8852 81.2695 35.8062 81.1523 35.7865C80.6055 35.6483 80.0781 35.3126 79.5313 34.819C79.3555 34.6611 79.1602 34.4834 79.0234 34.3254C79.0625 34.3057 79.1016 34.3451 79.1211 34.3649C79.8047 34.9967 80.4883 35.6088 81.1719 35.7272C81.2305 35.7272 81.2891 35.7865 81.3867 35.8062C81.7773 35.9839 82.207 36.0432 82.6172 36.0629H87.5977L93.7695 35.8062C94.9219 35.8062 93.2031 35.747 96.8164 35.7272L96.7578 35.826H94.8438L89.1211 36.0826Z" fill="black"/>
<path opacity="0.14" d="M80.957 29.1919L97.5781 26.4277L98.1641 25.5984L80.8789 28.2639L80.957 29.1919Z" fill="url(#paint2_linear_6561_2711)"/>
<path d="M77.4023 33.3185L77.3047 20.998L77.4023 8.67761C77.4023 8.67761 77.5977 7.45347 77.5195 6.86114C78.5352 6.82165 78.9648 7.17705 79.4727 7.63116C79.9805 8.06554 80.0977 8.63812 80.3906 9.54636C80.6641 10.4546 81.2109 12.8831 81.2109 12.8831L81.2891 13.6334C81.2891 13.6334 81.9727 17.4243 82.0313 20.9783C81.9727 24.552 81.2891 28.3429 81.2891 28.3429L81.2109 29.0932C81.2109 29.0932 80.6641 31.5217 80.3906 32.43C80.0977 33.3382 79.9805 33.9108 79.4727 34.3452C78.9648 34.7795 78.5352 35.1547 77.5195 35.1152C77.5977 34.5426 77.4023 33.3185 77.4023 33.3185Z" fill="#222222"/>
<path d="M39.336 36.2999C39.336 36.2999 40.1759 36.2801 40.6642 36.3788C41.1524 36.4776 41.2501 36.4578 41.7384 36.4578H61.9142C63.0079 36.4578 64.5313 36.9514 65.547 36.9514C66.5626 36.9514 66.5431 36.9514 66.5431 36.9514H75.0001C75.0001 36.9514 75.547 36.4776 73.5157 35.9445C71.4845 35.4114 69.0626 34.7993 67.6368 34.4439C66.211 34.0885 64.6681 33.9503 64.0821 33.9503H40.7618C39.9415 33.9503 39.7267 34.0095 39.5118 34.7006C39.297 35.4114 39.336 36.2999 39.336 36.2999Z" fill="#222222"/>
<path d="M72.0703 35.7667L71.6601 36.8132C69.4726 36.8132 67.1874 36.9514 64.9999 36.7737C63.9648 36.6947 62.9687 36.2998 61.914 36.2998H41.3476C40.7421 36.2998 40.1171 36.1814 39.5117 36.1221V36.0234C39.5117 35.7075 39.4921 35.3718 39.5507 35.0559C39.707 34.3057 40.039 34.1082 40.7421 34.1082H64.0624C66.8164 34.128 69.4531 35.0757 72.0703 35.7667Z" fill="url(#paint3_linear_6561_2711)"/>
<path d="M52.2461 36.4578L52.3047 33.9502H56.3672V36.4578H52.2461Z" fill="#222222"/>
<path d="M67.9688 27.0199L68.5547 26.0129C68.5547 26.0129 68.75 23.8213 68.7305 21.5902C68.7305 21.3928 68.7305 21.1953 68.7109 20.9979H79.4336C79.4531 22.7946 79.3945 25.1245 79.1406 27.5135C78.75 31.1662 77.5391 35.1545 77.5391 35.1545L67.4609 32.805L67.9688 27.0199Z" fill="#222222"/>
<path opacity="0.5" d="M41.582 37.9386C42.0117 37.9189 42.3047 37.8201 42.3047 37.3858C42.3047 37.3068 42.2461 37.0699 42.0703 37.0304C41.9922 37.0106 41.875 37.0106 41.7969 36.9909L38.8477 37.0106C38.5352 37.0501 38.418 37.1488 38.418 37.4055C38.418 37.6622 38.4961 37.8794 38.8281 37.9189L41.582 37.9386ZM41.7383 37.8399C42.1094 37.7806 42.207 37.7017 42.207 37.4252C42.207 37.1488 42.1094 37.1093 41.8945 37.1093H41.7383C41.8164 37.1291 41.8945 37.2475 41.8945 37.3265C41.8945 37.4647 41.7383 37.6424 41.6016 37.6424H39.2188C39.0234 37.5832 38.9648 37.4647 38.9648 37.3265C38.9648 37.2673 38.9453 37.2081 39.0625 37.1291C38.9453 37.1488 38.4766 37.0699 38.4766 37.4055C38.4766 37.524 38.5156 37.8596 38.75 37.8399H41.7383ZM41.6016 37.5042C41.6797 37.5042 41.7969 37.3858 41.7969 37.3068C41.7969 37.2673 41.7773 37.2475 41.7578 37.2081H39.1406C39.1211 37.2278 39.1016 37.2673 39.1016 37.3068C39.1016 37.4055 39.1211 37.4845 39.2383 37.5042H41.6016Z" fill="black"/>
<path opacity="0.5" d="M58.8086 37.9386C59.2383 37.9189 59.5312 37.8201 59.5312 37.3858C59.5312 37.3068 59.4727 37.0699 59.2969 37.0304C59.2188 37.0106 59.1211 37.0106 59.0234 36.9909L56.0742 37.0106C55.7617 37.0501 55.6445 37.1488 55.6445 37.4055C55.6445 37.6622 55.7227 37.8794 56.0547 37.9189L58.8086 37.9386ZM58.9453 37.8399C59.3164 37.7806 59.4141 37.7017 59.4141 37.4252C59.4141 37.1488 59.3164 37.1093 59.1016 37.1093H58.9258C59.0039 37.1291 59.1016 37.2475 59.1016 37.3265C59.1016 37.4647 58.9258 37.6424 58.8086 37.6424H56.4258C56.2305 37.5832 56.1719 37.4647 56.1719 37.3265C56.1719 37.2673 56.1523 37.2081 56.2695 37.1291C56.1523 37.1488 55.6836 37.0699 55.6836 37.4055C55.6836 37.524 55.7227 37.8596 55.957 37.8399H58.9453ZM58.8281 37.5042C58.9063 37.5042 59.0234 37.3858 59.0234 37.3068C59.0234 37.2673 59.0039 37.2475 58.9844 37.2081H56.3672C56.3477 37.2278 56.3281 37.2673 56.3281 37.3068C56.3281 37.4055 56.3477 37.4845 56.4648 37.5042H58.8281Z" fill="black"/>
<path d="M71.9336 37.9584H71.6015C71.6015 37.9584 70.2148 41.0977 70.039 41.4728C69.8632 41.848 69.9023 41.9664 70.039 41.9664C70.1757 41.9664 71.1718 41.9862 71.3672 41.9664C71.5625 41.9467 71.582 42.0652 72.1875 41.1372C72.7929 40.2092 73.5937 38.294 73.5937 38.294L72.1093 38.215L71.9336 37.9584ZM71.9336 4.03771H71.6015C71.6015 4.03771 70.2148 0.918114 70.039 0.523228C69.8632 0.148087 69.9023 0.0296211 70.039 0.0296211C70.1757 0.0296211 71.1718 0.00988007 71.3672 0.0296211C71.5625 0.049366 71.582 -0.0690956 72.1875 0.858883C72.7929 1.78687 73.5937 3.70206 73.5937 3.70206L72.1093 3.78103L71.9336 4.03771Z" fill="#222222"/>
<path d="M72.5977 36.6355L72.1875 37.1291L71.9336 38.215L71.8555 38.4717L73.2617 38.5507L73.8477 36.6355H72.5977ZM72.5977 5.37831L72.1875 4.88471L71.9336 3.79877L71.8555 3.5421L73.2617 3.46312L73.8477 5.37831H72.5977Z" fill="#222222"/>
<path d="M73.8477 36.6157H72.6172L72.1094 38.373L72.0703 38.4717L73.2617 38.5507L73.8477 36.6355V36.6157ZM73.8477 5.37831L72.6172 5.39806L72.1094 3.64082L72.0703 3.5421L73.2617 3.46312L73.8477 5.37831Z" fill="#222222"/>
<path d="M70.7031 41.2359C71.0742 40.4066 71.8555 38.7481 72.1094 38.2348L73.5937 38.3137C73.5937 38.3137 72.793 40.2289 72.1875 41.1569C71.582 42.0849 71.5625 41.9664 71.3672 41.9862C71.2305 42.0059 70.6641 42.0059 70.3125 41.9862C70.4297 41.769 70.5664 41.5123 70.7031 41.2359Z" fill="url(#paint4_linear_6561_2711)"/>
<path d="M39.2188 37.6424H41.6016C41.6992 37.6424 41.7969 37.5635 41.8164 37.445C41.8359 37.3265 41.7773 37.2278 41.6797 37.2278H39.1602C39.0625 37.2278 39.0039 37.3265 39.0234 37.445C39.0234 37.5437 39.1211 37.6424 39.2188 37.6424ZM38.418 37.3858C38.418 37.3858 38.4961 37.1291 38.8281 37.1291C39.1602 37.1291 41.875 37.0699 42.0508 37.1291C42.2266 37.1883 42.2656 37.4055 42.207 37.6227C42.168 37.8596 41.8555 37.9583 41.543 37.9583H38.9844C38.6523 37.9583 38.75 37.9781 38.5742 37.8794C38.418 37.7807 38.418 37.3858 38.418 37.3858Z" fill="url(#paint5_linear_6561_2711)"/>
<path d="M56.4453 37.6424H58.8281C58.9258 37.6424 59.0234 37.5635 59.043 37.445C59.0625 37.3265 59.0039 37.2278 58.9063 37.2278H56.3867C56.2891 37.2278 56.2305 37.3265 56.25 37.445C56.25 37.5437 56.3477 37.6424 56.4453 37.6424ZM55.6445 37.3858C55.6445 37.3858 55.7227 37.1291 56.0547 37.1291C56.3867 37.1291 59.1016 37.0699 59.2773 37.1291C59.4531 37.1883 59.4922 37.4055 59.4336 37.6227C59.3945 37.8596 59.082 37.9583 58.7695 37.9583H56.2305C55.8984 37.9583 55.9961 37.9781 55.8203 37.8794C55.6445 37.7807 55.6445 37.3858 55.6445 37.3858Z" fill="url(#paint6_linear_6561_2711)"/>
<path opacity="0.1" d="M73.2422 37.4647L73.457 36.7539L76.8164 36.6157C76.8164 36.6157 90.4492 36.3985 92.2852 36.359C94.1211 36.3196 94.375 36.2603 95.0977 35.9444C95.8203 35.6285 96.5039 33.3974 96.9141 32.5089C97.3242 31.6402 97.168 31.6994 97.168 31.344C97.1484 30.9886 97.5781 30.1001 97.5781 30.1001L97.6562 26.5067L98.3203 25.7564C98.3203 25.7564 98.457 24.0386 98.4766 23.0711C98.4961 22.6368 98.4766 21.768 98.457 20.9783H99.7266C99.7266 24.8876 99.2383 29.5078 99.2383 29.5078L98.75 31.344C98.75 31.344 98.2227 32.5089 97.832 33.5159C97.4609 34.5228 96.6797 36.3196 95.6836 37.0303C94.6875 37.7411 93.3594 37.8793 93.3594 37.8793C93.3594 37.8793 93.3398 37.9978 91.3672 38.3532C91.0742 38.4124 90.7812 38.4519 90.4492 38.4914C88.6328 38.7086 86.4062 38.6494 83.9062 38.4322C80.9766 38.1953 77.4609 37.4252 77.4609 37.4252H73.2422V37.4647Z" fill="url(#paint7_linear_6561_2711)"/>
<path opacity="0.1" d="M73.2422 37.4647L73.457 36.7539L76.8164 36.6157C76.8164 36.6157 90.4492 36.3985 92.2852 36.359C94.1211 36.3196 94.375 36.2603 95.0977 35.9444C95.8203 35.6285 96.5039 33.3974 96.9141 32.5089C97.3242 31.6402 97.168 31.6994 97.168 31.344C97.1484 30.9886 97.5781 30.1001 97.5781 30.1001L97.6562 26.5067L98.3203 25.7564C98.3203 25.7564 98.457 24.0386 98.4766 23.0711C98.4961 22.6368 98.4766 21.768 98.457 20.9783H99.7266C99.7266 24.8876 99.2383 29.5078 99.2383 29.5078L98.75 31.344C98.75 31.344 98.2227 32.5089 97.832 33.5159C97.4609 34.5228 96.6797 36.3196 95.6836 37.0303C94.6875 37.7411 93.3594 37.8793 93.3594 37.8793C93.3594 37.8793 93.3398 37.9978 91.3672 38.3532C91.0742 38.4124 90.7812 38.4519 90.4492 38.4914C88.6328 38.7086 86.4062 38.6494 83.9062 38.4322C80.9766 38.1953 77.4609 37.4252 77.4609 37.4252H73.2422V37.4647Z" fill="url(#paint8_linear_6561_2711)"/>
<path opacity="0.1" d="M98.164 29.8631C98.6328 29.7051 98.9843 29.6064 99.2383 29.5274L98.9453 30.6134C98.7109 30.7516 98.4765 30.8898 98.2422 31.028C97.207 31.6598 83.4375 35.2138 83.4375 35.2138L76.9922 36.5564L74.2578 36.7144C74.2578 36.7144 73.3008 36.2405 74.082 36.3787C74.8828 36.5169 76.7187 35.9838 79.1211 35.3717C81.5429 34.7794 96.8359 30.2777 98.164 29.8631Z" fill="url(#paint9_linear_6561_2711)"/>
<path d="M75.2148 6.15028C75.7617 5.95284 75.9375 5.49872 75.9375 5.14332C75.9375 4.92614 75.8984 4.72869 75.8008 4.53125H75.7227C75.8008 4.70895 75.8789 4.92614 75.8789 5.14332C75.8789 5.83437 75.1758 6.15028 74.5508 6.28849C73.9844 6.38721 73.4766 6.58465 72.9297 6.70312C72.5977 6.7821 72.2266 6.90056 71.9141 6.9598C71.5234 7.03877 71.1133 7.13749 70.7422 7.25596C70.0977 7.39417 69.4531 7.61136 68.8477 7.74957C67.6758 8.04573 66.3867 8.36164 65.2148 8.4801H38.7305C38.6719 8.4801 38.5547 8.42087 38.4766 8.40113C37.7539 8.22343 37.3047 7.09801 37.1875 6.28849C37.168 6.11079 37.1289 5.77514 37.1289 5.69616C37.1289 5.65668 37.2852 4.76818 37.3242 4.53125H37.2656C37.207 4.90639 37.0898 5.65667 37.0898 5.71591C37.0898 6.34772 37.4414 7.78905 38.0664 8.24317C38.2031 8.36164 38.3984 8.44061 38.5352 8.4801C38.6328 8.49985 38.75 8.53934 38.8281 8.55908H64.8828C66.2109 8.55908 69.8828 7.51263 70.5859 7.35468C72.1289 6.9598 73.6523 6.68337 75.2148 6.15028Z" fill="black"/>
<path d="M54.4141 4.53122C54.4141 4.68917 54.4141 4.82738 54.3945 4.96559V8.46033H54.4336L54.4531 5.02482C54.4531 4.88661 54.4727 4.70892 54.4922 4.53122H54.4141Z" fill="black"/>
<path d="M35.3711 9.96092C35.3711 9.96092 35.8203 9.80297 36.2891 9.70424C36.7383 9.60552 37.1289 9.54629 37.8516 9.54629H62.9883C64.4922 9.54629 67.8906 9.13166 67.8906 9.13166L67.6562 9.76348C67.6562 9.76348 66.543 9.8622 65.4687 9.96092C64.375 10.0596 64.1211 10.1386 63.0664 10.1386H37.832C36.7383 10.1386 36.543 10.1189 36.2695 10.2176C35.7227 10.415 35.3516 10.415 35.3516 10.415L35.3711 9.96092Z" fill="#222222"/>
<path d="M89.1211 5.91328L84.668 5.83431L82.9102 5.85405C82.4609 5.87379 81.9922 5.91328 81.543 6.07124C81.4258 6.11072 81.2695 6.1897 81.1523 6.20944C80.6055 6.3674 80.0781 6.68331 79.5313 7.17692C79.3555 7.33487 79.1602 7.51257 79.0234 7.67052C79.0625 7.69027 79.1016 7.65078 79.1211 7.63103C79.8047 6.99921 80.4883 6.40689 81.1719 6.26868C81.2305 6.26868 81.2891 6.20945 81.3867 6.1897C81.7773 6.012 82.207 5.95277 82.5977 5.93303H87.5781L93.7305 6.1897C94.8828 6.1897 93.1641 6.24893 96.7773 6.26868L96.7188 6.16996H94.8047L89.1211 5.91328Z" fill="black"/>
<path opacity="0.14" d="M80.957 12.8041L97.5781 15.5683L98.1641 16.3976L80.8789 13.7321L80.957 12.8041Z" fill="url(#paint10_linear_6561_2711)"/>
<path d="M39.336 5.71598C39.336 5.71598 40.1759 5.73573 40.6642 5.63701C41.1524 5.53829 41.2501 5.55803 41.7384 5.55803H61.9142C63.0274 5.55803 64.5118 5.06442 65.547 5.06442C66.5821 5.06442 66.5431 5.06442 66.5431 5.06442H75.0001C75.0001 5.06442 75.547 5.53828 73.5157 6.07138C71.4845 6.60447 69.0626 7.21655 67.6368 7.57195C66.211 7.92734 64.6681 8.06555 64.0821 8.06555H40.7618C39.9415 8.06555 39.7267 8.00632 39.5118 7.31527C39.297 6.60448 39.336 5.71598 39.336 5.71598Z" fill="#222222"/>
<path d="M72.0703 6.24904L71.6601 5.2026C69.4726 5.2026 67.1874 5.06439 65.0195 5.24209C63.9843 5.32106 62.9687 5.71595 61.9335 5.71595H41.3476C40.7421 5.71595 40.1171 5.83441 39.5117 5.8739V5.97262C39.5117 6.28853 39.4921 6.62418 39.5507 6.94009C39.707 7.69037 40.039 7.88782 40.7421 7.88782H64.0624C66.8164 7.88782 69.4726 6.94009 72.0703 6.24904Z" fill="url(#paint11_linear_6561_2711)"/>
<path d="M52.2461 5.5363L52.3047 8.04382H56.3672V5.5363H52.2461Z" fill="#222222"/>
<path d="M67.9688 14.9759L68.5547 15.9829C68.5547 15.9829 68.75 18.1745 68.7305 20.4056C68.7305 20.5833 68.7305 20.7807 68.7109 20.9979H79.4336C79.4531 19.2012 79.3945 16.8714 79.1406 14.4823C78.75 10.8296 77.5391 6.84129 77.5391 6.84129L67.4609 9.19086L67.9688 14.9759Z" fill="#222222"/>
<path d="M67.9688 27.02L68.5547 26.013C68.5547 26.013 68.75 23.8214 68.7305 21.5903C68.7305 21.3928 68.7305 21.1954 68.7109 20.998C68.7109 20.8005 68.7109 20.6031 68.7305 20.4056C68.75 18.1745 68.5547 15.9829 68.5547 15.9829L67.9688 14.976L67.4805 9.30936L77.5781 6.97954C77.793 7.71007 78.7891 11.2443 79.1406 14.4824C79.3945 16.8714 79.4531 19.2012 79.4336 20.998C79.4531 22.7947 79.3945 25.1245 79.1406 27.5136C78.7891 30.7714 77.793 34.3056 77.5781 35.0361L67.4805 32.7063L67.9688 27.02Z" fill="url(#paint12_linear_6561_2711)"/>
<path opacity="0.5" d="M41.582 4.07718C42.0117 4.09692 42.3047 4.19564 42.3047 4.63002C42.3047 4.70899 42.2461 4.94593 42.0703 4.98541C41.9922 5.00516 41.8945 5.00516 41.7969 5.0249L38.8477 5.00516C38.5352 4.96567 38.418 4.86695 38.418 4.61027C38.418 4.3536 38.4961 4.13641 38.8281 4.09692L41.582 4.07718ZM41.7383 4.1759C42.1094 4.23513 42.207 4.31411 42.207 4.59053C42.207 4.86695 42.1094 4.90644 41.8945 4.90644H41.7188C41.7969 4.88669 41.8945 4.76823 41.8945 4.68925C41.8945 4.55104 41.7188 4.37334 41.6016 4.37334H39.2188C39.043 4.43257 38.9648 4.5313 38.9648 4.68925C38.9648 4.74848 38.9453 4.80771 39.0625 4.86695C38.9453 4.8472 38.4766 4.92618 38.4766 4.59053C38.4766 4.47206 38.5156 4.13641 38.75 4.15616L41.7383 4.1759Z" fill="black"/>
<path opacity="0.5" d="M58.8086 4.07718C59.2383 4.09692 59.5312 4.19564 59.5312 4.63002C59.5312 4.70899 59.4727 4.94593 59.2969 4.98541C59.2188 5.00516 59.1016 5.00516 59.0234 5.0249L56.0742 5.00516C55.7617 4.96567 55.6445 4.86695 55.6445 4.61027C55.6445 4.3536 55.7227 4.13641 56.0547 4.09692L58.8086 4.07718ZM58.9648 4.1759C59.3359 4.23513 59.4336 4.31411 59.4336 4.59053C59.4336 4.86695 59.3359 4.90644 59.1211 4.90644H58.9648C59.043 4.88669 59.1211 4.76823 59.1211 4.68925C59.1211 4.55104 58.9648 4.37334 58.8281 4.37334H56.4453C56.25 4.43257 56.1914 4.5313 56.1914 4.68925C56.1914 4.74848 56.1719 4.80771 56.2891 4.86695C56.1719 4.8472 55.7031 4.92618 55.7031 4.59053C55.7031 4.47206 55.7422 4.13641 55.9766 4.15616L58.9648 4.1759ZM58.8281 4.51155C58.9063 4.51155 59.0039 4.63002 59.0039 4.68925C59.0039 4.72874 58.9844 4.74848 58.9648 4.78797H56.3281C56.3086 4.76823 56.2891 4.72874 56.2891 4.68925C56.2891 4.59053 56.3086 4.5313 56.4258 4.51155H58.8281Z" fill="black"/>
<path d="M70.7031 0.779878C71.0742 1.60914 71.8555 3.26766 72.1094 3.78101L73.5937 3.70203C73.5937 3.70203 72.793 1.78684 72.1875 0.858857C71.582 -0.0691233 71.5625 0.0493398 71.3672 0.0295954C71.2305 0.00985122 70.6641 0.00985122 70.3125 0.0295954C70.4297 0.227038 70.5664 0.483714 70.7031 0.779878Z" fill="url(#paint13_linear_6561_2711)"/>
<path d="M39.2188 4.37329H41.6016C41.6992 4.37329 41.7969 4.45226 41.8164 4.57073C41.8359 4.68919 41.7773 4.78792 41.6797 4.78792H39.1602C39.0625 4.78792 39.0039 4.68919 39.0234 4.57073C39.0234 4.45226 39.1211 4.37329 39.2188 4.37329ZM38.418 4.62996C38.418 4.62996 38.4961 4.88664 38.8281 4.88664C39.1602 4.88664 41.875 4.94587 42.0508 4.88664C42.2266 4.82741 42.2656 4.61022 42.2266 4.39303C42.1875 4.1561 41.875 4.05738 41.5625 4.05738H39.0039C38.6719 4.05738 38.7695 4.03763 38.5938 4.13636C38.418 4.21533 38.418 4.62996 38.418 4.62996Z" fill="url(#paint14_linear_6561_2711)"/>
<path d="M56.4453 4.37329H58.8281C58.9258 4.37329 59.0234 4.45226 59.043 4.57073C59.0625 4.68919 59.0039 4.78792 58.9063 4.78792H56.3867C56.2891 4.78792 56.2305 4.68919 56.25 4.57073C56.25 4.45226 56.3477 4.37329 56.4453 4.37329ZM55.6445 4.62996C55.6445 4.62996 55.7227 4.88664 56.0547 4.88664C56.3867 4.88664 59.1016 4.94587 59.2773 4.88664C59.4531 4.82741 59.4922 4.61022 59.4336 4.39303C59.3945 4.1561 59.082 4.05738 58.7695 4.05738H56.2305C55.8984 4.05738 55.9961 4.03763 55.8203 4.13636C55.6445 4.21533 55.6445 4.62996 55.6445 4.62996Z" fill="url(#paint15_linear_6561_2711)"/>
<path opacity="0.1" d="M73.2422 4.53118L73.457 5.24197L76.8164 5.38018C76.8164 5.38018 90.4492 5.59737 92.2852 5.63686C94.1211 5.67634 94.375 5.73557 95.0977 6.05148C95.8203 6.36739 96.5039 8.59849 96.9141 9.46724C97.3242 10.336 97.168 10.2768 97.168 10.6322C97.1484 10.9876 97.5781 11.876 97.5781 11.876L97.6562 15.4695L98.3203 16.2198C98.3203 16.2198 98.457 17.9375 98.4766 18.8853C98.4961 19.3196 98.4766 20.1884 98.457 20.9781H99.7266C99.7266 17.0688 99.2383 12.4486 99.2383 12.4486L98.75 10.6124C98.75 10.6124 98.2227 9.4475 97.832 8.44054C97.4609 7.43358 96.6797 5.63685 95.6836 4.92606C94.6875 4.21527 93.3594 4.07706 93.3594 4.07706C93.3594 4.07706 93.3398 3.95859 91.3672 3.6032C91.0742 3.54396 90.7812 3.50447 90.4492 3.46498C88.6328 3.2478 86.4062 3.30703 83.9062 3.52422C80.9766 3.76115 77.4609 4.53118 77.4609 4.53118H73.2422Z" fill="url(#paint16_linear_6561_2711)"/>
<path opacity="0.1" d="M73.2422 4.53118L73.457 5.24197L76.8164 5.38018C76.8164 5.38018 90.4492 5.59737 92.2852 5.63686C94.1211 5.67634 94.375 5.73557 95.0977 6.05148C95.8203 6.36739 96.5039 8.59849 96.9141 9.46724C97.3242 10.336 97.168 10.2768 97.168 10.6322C97.1484 10.9876 97.5781 11.876 97.5781 11.876L97.6562 15.4695L98.3203 16.2198C98.3203 16.2198 98.457 17.9375 98.4766 18.8853C98.4961 19.3196 98.4766 20.1884 98.457 20.9781H99.7266C99.7266 17.0688 99.2383 12.4486 99.2383 12.4486L98.75 10.6124C98.75 10.6124 98.2227 9.4475 97.832 8.44054C97.4609 7.43358 96.6797 5.63685 95.6836 4.92606C94.6875 4.21527 93.3594 4.07706 93.3594 4.07706C93.3594 4.07706 93.3398 3.95859 91.3672 3.6032C91.0742 3.54396 90.7812 3.50447 90.4492 3.46498C88.6328 3.2478 86.4062 3.30703 83.9062 3.52422C80.9766 3.76115 77.4609 4.53118 77.4609 4.53118H73.2422Z" fill="url(#paint17_linear_6561_2711)"/>
<path opacity="0.1" d="M98.1642 12.1329C98.6329 12.2908 98.9845 12.3895 99.2384 12.4685L98.9454 11.3826C98.7111 11.2444 98.4767 11.1062 98.2423 10.9679C97.2072 10.3361 83.4376 6.78216 83.4376 6.78216L76.9923 5.43955L74.2579 5.28159C74.2579 5.28159 73.3009 5.73571 74.1017 5.61725C74.8829 5.47904 76.7384 6.03188 79.1408 6.6242C81.5431 7.21653 96.8361 11.7182 98.1642 12.1329Z" fill="url(#paint18_linear_6561_2711)"/>
<path d="M35.3711 24.1571L35.2734 23.7819V18.2141L35.3711 17.8389C35.3711 17.8389 35.6445 17.7994 35.957 17.9376C36.2695 18.0759 36.4453 18.3128 36.4453 18.3128V23.6832C36.4453 23.6832 36.2695 23.9202 35.957 24.0584C35.6445 24.2163 35.3711 24.1571 35.3711 24.1571Z" fill="url(#paint19_linear_6561_2711)"/>
<path d="M35.7578 23.5864L35.4688 23.9774V23.9813L35.4668 23.9774H35.2754L35.2715 18.0186H35.4668V17.8409L35.7598 18.216C35.7598 18.216 35.8574 19.8153 35.8574 20.9012C35.8574 21.9872 35.7598 23.5864 35.7598 23.5864H35.7578Z" fill="#ED2939"/>
<path opacity="0.1" d="M63.9453 29.4682C64.1992 29.4485 64.5508 29.409 64.7656 29.0536C64.8633 28.9154 64.9414 28.718 64.9609 28.56C65.0977 27.0989 65.2148 25.5786 65.293 24.0583C65.3125 23.6832 65.3125 23.2093 65.3125 22.9329C65.3906 20.7808 65.3125 19.4579 65.2734 17.8586C65.2148 16.3975 65.0586 14.9167 64.9414 13.4162C64.9023 12.8633 64.375 12.5277 63.9453 12.5277H39.6094C39.1211 12.5672 38.6914 13.0805 38.6914 13.4754V28.5403C38.6914 28.9746 39.1797 29.5275 39.6484 29.488L63.9453 29.4682ZM63.8867 29.3893C64.3945 29.4485 64.8633 28.9549 64.8828 28.5403C64.9609 27.1582 65.1172 25.7563 65.1953 24.3742L65.2734 22.1629L65.1758 17.5427C65.0977 16.1804 64.9609 14.7983 64.8633 13.4359C64.8242 12.8831 64.2773 12.6066 63.8867 12.6066H39.668C39.1016 12.6066 38.7695 13.12 38.7695 13.5346V28.481C38.7305 28.9351 39.2187 29.4485 39.6875 29.409L63.8867 29.3893Z" fill="black"/>
</g>
<defs>
<linearGradient id="paint0_linear_6561_2711" x1="34.2943" y1="20.9821" x2="4.00867" y2="20.9821" gradientUnits="userSpaceOnUse">
<stop stop-color="#101415"/>
<stop offset="1" stop-color="#0B0B0B"/>
</linearGradient>
<linearGradient id="paint1_linear_6561_2711" x1="12.9297" y1="21.1263" x2="28.8086" y2="21.1263" gradientUnits="userSpaceOnUse">
<stop stop-color="#0C0C0C"/>
<stop offset="0.22" stop-color="#262727"/>
<stop offset="0.72" stop-color="#282828"/>
<stop offset="1" stop-color="#0C0C0C"/>
</linearGradient>
<linearGradient id="paint2_linear_6561_2711" x1="89.6153" y1="27.7226" x2="89.6003" y2="26.2093" gradientUnits="userSpaceOnUse">
<stop stop-opacity="0.5"/>
<stop offset="1"/>
</linearGradient>
<linearGradient id="paint3_linear_6561_2711" x1="45.9842" y1="36.9502" x2="46.127" y2="33.5429" gradientUnits="userSpaceOnUse">
<stop stop-color="#707070"/>
<stop offset="1"/>
</linearGradient>
<linearGradient id="paint4_linear_6561_2711" x1="71.9636" y1="38.1289" x2="71.9636" y2="41.6775" gradientUnits="userSpaceOnUse">
<stop stop-color="#C1C1C1"/>
<stop offset="0.31" stop-color="white"/>
<stop offset="0.66" stop-color="#E0E6E6"/>
<stop offset="0.81" stop-color="#ACACAC"/>
<stop offset="1" stop-color="white"/>
</linearGradient>
<linearGradient id="paint5_linear_6561_2711" x1="38.6172" y1="38.075" x2="38.6172" y2="37.2102" gradientUnits="userSpaceOnUse">
<stop stop-color="#C1C1C1"/>
<stop offset="0.31" stop-color="white"/>
<stop offset="0.66" stop-color="#E0E6E6"/>
<stop offset="0.69" stop-color="#ACACAC"/>
<stop offset="1" stop-color="white"/>
</linearGradient>
<linearGradient id="paint6_linear_6561_2711" x1="55.7863" y1="-93.9452" x2="55.7863" y2="-93.9452" gradientUnits="userSpaceOnUse">
<stop stop-color="#C1C1C1"/>
<stop offset="0.31" stop-color="white"/>
<stop offset="0.66" stop-color="#E0E6E6"/>
<stop offset="0.69" stop-color="#ACACAC"/>
<stop offset="1" stop-color="white"/>
</linearGradient>
<linearGradient id="paint7_linear_6561_2711" x1="101.518" y1="28.0885" x2="94.6106" y2="30.6788" gradientUnits="userSpaceOnUse">
<stop stop-opacity="0.5"/>
<stop offset="1"/>
</linearGradient>
<linearGradient id="paint8_linear_6561_2711" x1="72.1207" y1="32.1497" x2="96.127" y2="24.9483" gradientUnits="userSpaceOnUse">
<stop/>
<stop offset="1" stop-opacity="0"/>
</linearGradient>
<linearGradient id="paint9_linear_6561_2711" x1="85.2672" y1="34.7953" x2="85.2468" y2="33.4983" gradientUnits="userSpaceOnUse">
<stop stop-opacity="0.5"/>
<stop offset="1"/>
</linearGradient>
<linearGradient id="paint10_linear_6561_2711" x1="89.6153" y1="14.3071" x2="89.6003" y2="15.8196" gradientUnits="userSpaceOnUse">
<stop stop-opacity="0.5"/>
<stop offset="1"/>
</linearGradient>
<linearGradient id="paint11_linear_6561_2711" x1="55.7104" y1="5.00111" x2="55.7104" y2="7.70443" gradientUnits="userSpaceOnUse">
<stop stop-color="#707070"/>
<stop offset="1"/>
</linearGradient>
<linearGradient id="paint12_linear_6561_2711" x1="80.2005" y1="21.045" x2="67.8807" y2="21.045" gradientUnits="userSpaceOnUse">
<stop stop-color="#707070"/>
<stop offset="1"/>
</linearGradient>
<linearGradient id="paint13_linear_6561_2711" x1="71.9675" y1="4.19232" x2="71.9675" y2="0.341713" gradientUnits="userSpaceOnUse">
<stop stop-color="#C1C1C1"/>
<stop offset="0.31" stop-color="white"/>
<stop offset="0.66" stop-color="#E0E6E6"/>
<stop offset="0.81" stop-color="#ACACAC"/>
<stop offset="1" stop-color="white"/>
</linearGradient>
<linearGradient id="paint14_linear_6561_2711" x1="38.6211" y1="4.08658" x2="38.6211" y2="4.94941" gradientUnits="userSpaceOnUse">
<stop stop-color="#C1C1C1"/>
<stop offset="0.31" stop-color="white"/>
<stop offset="0.66" stop-color="#E0E6E6"/>
<stop offset="0.69" stop-color="#ACACAC"/>
<stop offset="1" stop-color="white"/>
</linearGradient>
<linearGradient id="paint15_linear_6561_2711" x1="55.9347" y1="4.08658" x2="55.9347" y2="4.94941" gradientUnits="userSpaceOnUse">
<stop stop-color="#C1C1C1"/>
<stop offset="0.31" stop-color="white"/>
<stop offset="0.66" stop-color="#E0E6E6"/>
<stop offset="0.69" stop-color="#ACACAC"/>
<stop offset="1" stop-color="white"/>
</linearGradient>
<linearGradient id="paint16_linear_6561_2711" x1="101.464" y1="12.8913" x2="94.558" y2="10.2998" gradientUnits="userSpaceOnUse">
<stop stop-opacity="0.5"/>
<stop offset="1"/>
</linearGradient>
<linearGradient id="paint17_linear_6561_2711" x1="72.0686" y1="8.65686" x2="96.0703" y2="15.862" gradientUnits="userSpaceOnUse">
<stop/>
<stop offset="1" stop-opacity="0"/>
</linearGradient>
<linearGradient id="paint18_linear_6561_2711" x1="86.6496" y1="7.27022" x2="86.6293" y2="8.56647" gradientUnits="userSpaceOnUse">
<stop stop-opacity="0.5"/>
<stop offset="1"/>
</linearGradient>
<linearGradient id="paint19_linear_6561_2711" x1="35.2901" y1="21.515" x2="36.4463" y2="21.515" gradientUnits="userSpaceOnUse">
<stop stop-color="#F36F79"/>
<stop offset="0.59" stop-color="white"/>
<stop offset="1" stop-color="#C5C5C5"/>
</linearGradient>
<clipPath id="clip0_6561_2711">
<rect width="100" height="42" fill="white" transform="matrix(1 0 0 -1 0 42)"/>
</clipPath>
</defs>
</svg>
