<svg width="100" height="55" viewBox="0 0 100 55" fill="none" xmlns="http://www.w3.org/2000/svg">
<g clip-path="url(#clip0_6561_2897)">
<path d="M22.2457 26.0276C21.9722 25.7952 21.816 25.5628 21.7574 25.3304C21.6597 25.466 21.3472 25.7177 21.3472 25.8146C21.3472 26.047 21.9136 26.0276 22.0504 26.047L22.2457 26.0276ZM22.2457 28.6615C22.2261 28.6615 22.1871 28.6421 22.148 28.6421C22.0894 28.6421 21.3472 28.7196 21.3472 28.8745C21.3472 29.0101 21.6597 29.2618 21.7574 29.3587C21.816 29.1263 21.9722 28.8939 22.2457 28.6615ZM24.4331 25.9501V22.8321L23.6128 22.6772L22.8902 22.5803L22.5777 22.4835L22.3238 22.2705H22.2652V23.6068H22.1871C22.2066 24.0522 22.2066 24.1878 22.2066 24.2265C22.2066 24.304 22.1871 24.6526 22.1285 24.8075C22.1089 24.9624 21.9722 25.1367 21.9722 25.1948C21.9722 25.6209 22.6167 26.1825 23.0269 26.0082L24.4331 25.9501ZM24.4331 31.8763V28.7583L23.0464 28.7196C22.8706 28.7196 22.6363 28.7196 22.5386 28.797C22.2066 29.0294 21.9918 29.3006 21.9918 29.533C21.9918 29.6104 22.2261 29.959 22.2261 30.5013C22.2261 30.5206 22.2261 30.8305 22.1871 31.121H22.2652V32.4573H22.3238L22.5777 32.2443L22.8902 32.1474L23.6128 32.0506L24.4331 31.8763ZM18.4762 28.3129C18.6324 29.0488 19.0035 30.0946 19.902 31.0242C20.566 31.702 21.0543 32.1474 21.3668 32.4573H21.855V31.121H21.9527V31.1016C21.9527 31.0435 21.816 30.2689 21.7379 29.8622C21.6597 29.4555 21.0933 29.2425 21.0933 28.8551C21.0933 28.3903 21.9332 28.3903 22.1675 28.3903C22.2457 28.3903 22.6363 28.4097 22.8316 28.4484H24.0425C24.0816 28.4484 24.2378 28.4678 24.4331 28.4872V28.0805L19.8824 28.0998C19.4137 28.1773 18.9254 28.216 18.4762 28.3129ZM18.4371 26.6667C18.3785 27.0928 18.3785 27.3445 18.3785 27.3445C18.3785 27.3445 18.359 27.6157 18.4371 28.0417C19.2184 27.9062 19.9801 27.8287 20.7613 27.7706H24.1402C24.1792 27.7706 24.2964 27.79 24.4331 27.8093V26.8991C24.2964 26.9185 24.1792 26.9185 24.1206 26.9185H20.8004C20.6051 26.9185 18.8668 26.7635 18.4371 26.6667ZM21.3863 22.2511C21.0738 22.5416 20.6051 22.987 19.9215 23.6842C19.0035 24.6138 18.6324 25.679 18.4762 26.4343C18.9449 26.5311 19.4137 26.5699 19.8824 26.5892L24.4331 26.6086V26.2213C24.3159 26.2213 24.1987 26.2213 24.0816 26.2406H22.8706C22.7925 26.2406 22.2457 26.2987 22.1675 26.2987C22.0113 26.2987 21.0933 26.3181 21.0933 25.8727C21.0933 25.6015 21.6402 25.2917 21.7379 24.9818C21.8941 24.5945 21.8746 24.1684 21.9527 23.8004V23.5874H21.8746V22.2511H21.3863ZM11.6209 21.7476H11.7966C11.7576 21.7476 11.7381 21.7476 11.7185 21.7282C11.6795 21.7476 11.6404 21.7476 11.6209 21.7476ZM9.62872 26.1825C9.62872 24.5364 9.58966 23.1226 9.5506 22.9677C9.47247 22.7353 8.9842 22.6385 8.51546 22.5997C8.43734 22.6965 8.30062 22.774 8.1639 22.774H7.24595C6.99205 22.774 6.77721 22.561 6.77721 22.3092V22.1543H6.01551C5.93738 22.2511 5.85926 22.3092 5.74208 22.3673V25.9889H6.8358C6.97252 25.9889 7.0897 26.0663 7.1483 26.2019L9.62872 26.1825ZM9.5506 31.7214C9.60919 31.5664 9.62872 30.0946 9.62872 28.4097H7.16783C7.10924 28.5259 6.99205 28.6227 6.85533 28.6227H5.76161V32.2443C5.89832 32.3024 6.03504 32.4186 6.09363 32.5541H6.77721V32.3992C6.77721 32.1474 6.99205 31.9344 7.24595 31.9344H8.1639C8.30062 31.9344 8.43734 31.9925 8.51546 32.1087C8.9842 32.0506 9.47247 31.9538 9.5506 31.7214ZM82.5375 16.1894H81.5609L82.5375 21.3603V16.1894ZM80.7601 11.9094L81.0336 13.3425H82.557V12.4323L81.9906 10.4956H81.7367L81.3265 10.7086V11.1153L80.9359 11.2896C80.9945 11.3671 81.014 11.4446 81.014 11.522C81.014 11.677 80.9164 11.8125 80.7601 11.9094ZM82.5375 41.4628H81.014L80.7406 42.8959C80.8969 42.9927 80.9945 43.1283 80.9945 43.3026C80.9945 43.3801 80.975 43.4769 80.9164 43.535L81.307 43.7093V44.116L81.7172 44.3096H82.0296L82.5375 42.586V41.4628ZM82.5375 33.4256L81.5609 38.5965H82.5375V33.4256ZM64.1589 35.4398V36.0595H66.4245V35.7884C66.2487 35.7884 66.0925 35.769 66.0143 35.7496C65.8776 35.6915 65.7214 35.556 65.6042 35.4398H64.1589ZM64.1589 18.7458V19.3655H65.5847C65.7018 19.2493 65.8581 19.1137 65.9948 19.0556C66.0729 19.0363 66.2292 19.0169 66.405 19.0169V18.7458H64.1589ZM59.1004 11.8125H63.8659C63.9636 11.8125 64.0417 11.89 64.0417 11.9868V12.2192H66.5026C66.5221 12.103 66.6198 12.0062 66.737 12.0062H71.7955C71.9127 12.0062 72.0103 12.103 72.0298 12.2192H76.2485L77.0688 12.839V14.582C77.8305 14.3689 78.9242 14.0591 78.9242 14.0591C78.9242 14.0591 79.6664 14.0397 80.018 14.6013L80.4672 14.5239V14.0591H80.6234L80.5844 13.9041C80.5062 13.846 80.4672 13.7492 80.4672 13.6524C80.4672 13.5943 80.4867 13.5362 80.5062 13.4974L80.2328 12.0256C80.0375 12.0062 79.8422 11.9094 79.7445 11.7932L79.432 11.9287L79.2367 11.7157V11.6189H78.6313C78.6313 11.6189 78.3383 10.9991 77.9086 10.8055C77.479 10.6118 76.4633 10.3988 76.4633 10.3988V10.1857H50.2529L50.9365 11.6189H53.495V11.8125H55.9559C56.0731 11.8125 56.1512 11.9094 56.1512 12.0256V12.2386H58.9246V12.0062C58.9246 11.89 59.0028 11.8125 59.1004 11.8125ZM45.6827 43.1864V42.9927H43.2218C43.1046 42.9927 43.007 42.8959 43.007 42.7991V42.6054H41.6789L41.5617 43.0121H40.4289V43.322H39.3938V43.5156H38.6321C38.5149 43.6318 38.1828 43.7093 37.8118 43.7093C37.4407 43.7093 37.1087 43.6318 36.9915 43.5156H36.2298V43.322H35.1946V43.0121H33.554L33.4368 42.6054H21.4449L20.6246 41.9857V36.5824L21.4449 36.0789H26.1714V35.7109L24.9409 35.2267V35.7303H24.2183V35.4204C24.2183 35.4204 23.4761 35.4398 22.9878 35.3236C22.6167 35.2267 22.2457 34.8781 22.0504 34.7038H17.2262C17.1286 34.8975 16.9919 35.0137 16.8551 35.0137H15.2145C14.9606 35.0137 14.7653 34.6845 14.6677 34.2003H11.7966C11.7576 34.2003 11.6599 34.1616 11.6404 34.1616H11.0955V34.5876H8.63264V34.8588C8.63264 35.1105 8.4178 35.3236 8.1639 35.3236H7.24595C6.99205 35.3236 6.77721 35.1105 6.77721 34.8588V34.607H6.01551C5.93738 34.7038 5.39052 35.1686 5.15615 35.1686H1.62106C1.38669 35.1686 0.839827 34.7232 0.761704 34.607H0V34.394H0.410148V32.7672H0V32.5541H0.68358C0.761704 32.4186 0.878889 32.3024 1.01561 32.2443V28.6227H0.742173C0.566395 28.6227 0.410148 28.4678 0.410148 28.2935V26.2987C0.410148 26.1244 0.566395 25.9695 0.742173 25.9695H1.03514V22.3479C0.917951 22.3092 0.839827 22.2318 0.761704 22.1349H0V21.9219H0.410148V20.2951H0V20.0821H0.68358C0.800766 19.869 1.01561 19.7335 1.26951 19.7335C1.36716 19.6754 1.48435 19.6366 1.60153 19.6366H5.13662C5.2538 19.6366 5.37099 19.6754 5.46864 19.7335C5.72254 19.7335 5.95691 19.8884 6.05457 20.0821H6.73815V19.8303C6.73815 19.5785 6.95299 19.3655 7.20689 19.3655H8.12484C8.37874 19.3655 8.59358 19.5785 8.59358 19.8303V19.8884L8.63264 20.0976L10.8592 20.1014H11.0545V20.5275H11.5818C11.6209 20.5275 11.6404 20.5275 11.6599 20.5469C11.6795 20.5469 11.7185 20.5275 11.7381 20.5275H14.5896C14.6872 20.0433 14.9021 19.7141 15.1364 19.7141H16.777C16.9137 19.7141 17.0504 19.8303 17.1481 20.024H22.0699C22.2457 19.8497 22.6363 19.5011 23.0074 19.4042C23.5152 19.2687 24.2378 19.3074 24.2378 19.3074V18.9975H24.9605V19.5011L26.1909 19.0169V18.7458H21.4644L20.6441 18.2422V12.839L21.4644 12.2192H33.4564L33.5736 11.8125H35.2142V11.5027H36.2493V11.2896H37.011C37.1282 11.1734 37.4602 11.0766 37.8313 11.0766C38.2024 11.0766 38.5344 11.1541 38.6516 11.2896H39.4133V11.5027H40.4484V11.8125H41.5812L41.6984 12.2192H43.0265V12.0062C43.0265 11.89 43.1242 11.7932 43.2413 11.7932H45.7022V11.5801H48.2022L48.8467 10.147H47.3624V8.61705H47.6749L47.9873 8.21035L51.9912 7.59062L52.1865 7.37759H58.3387V7.16455L59.2567 6.25433H62.3425L63.2605 7.16455V7.37759H77.1274L77.2251 7.16455H79.0805L79.2758 7.37759H80.9164L81.014 7.28075H81.932V4.5307C81.932 4.5307 82.0101 3.67857 82.5375 3.00074C83.0648 2.32291 83.0453 2.28418 83.0453 2.28418L83.6507 0.754215H84.8812V0.347515L85.4886 0.000858307H100L98.3575 4.31767V50.6232L99.998 55H85.5061L84.9007 54.5933V54.1866H83.6702L83.0648 52.6566C83.0648 52.6566 83.1039 52.6179 82.557 51.9401C82.0101 51.2623 81.9515 50.4101 81.9515 50.4101V47.447H81.0336L80.9359 47.3502H79.2953L79.1 47.5439H77.2446L77.1469 47.3502H63.28V47.5439L62.3621 48.4541H59.2762L58.3582 47.5439V47.3502H52.1474L51.9521 47.1565L47.9483 46.5368L47.6358 46.1301H47.3233V44.6001H48.8076L48.1631 43.167L45.6827 43.1864ZM59.1004 42.9734C59.0028 42.9734 58.9246 42.8959 58.9246 42.7991V42.5667H56.1512V42.7603C56.1512 42.8765 56.0536 42.954 55.9559 42.954H53.495V43.1477H50.9365L50.2529 44.5808H76.4829V44.3871C76.4829 44.3871 77.4985 44.1741 77.9282 43.9804C78.3578 43.7868 78.6508 43.167 78.6508 43.167H79.2563V43.0702L79.4516 42.8765L79.7641 43.0121C79.8617 42.8765 80.0375 42.7991 80.2523 42.7797L80.5258 41.3078C80.5062 41.2691 80.4867 41.211 80.4867 41.1529C80.4867 41.0561 80.5453 40.9592 80.6039 40.9011L80.643 40.7462H80.4867V40.2814L80.0375 40.2039C79.6859 40.7656 78.9438 40.7462 78.9438 40.7462C78.9438 40.7462 77.8696 40.4363 77.0883 40.2233V41.9663L76.268 42.586H72.0689C72.0494 42.7022 71.9517 42.7797 71.8345 42.7797H66.776C66.6589 42.7797 66.5612 42.6829 66.5417 42.586H64.0612V42.7991C64.0612 42.8959 63.9831 42.9734 63.8855 42.9734H59.1004ZM74.8423 19.3461V18.8426H75.7602V18.7458H72.1666V19.2493L72.4009 19.3461H74.8423ZM78.436 34.3165H79.5688V35.9433H78.436V36.6599H79.6664V38.306C79.9398 38.4609 80.1547 38.7514 80.2133 39.1775L80.7601 39.3131H80.9164L80.9359 39.2162H80.8969C80.7211 39.2162 80.5844 39.0807 80.5844 38.9064C80.5844 38.7321 80.7211 38.5965 80.8969 38.5965H81.0531L82.5375 30.7143V29.4361L81.4047 28.7196L80.7406 27.4995L81.4047 26.2794L82.5375 25.5628V24.0716L81.0531 16.1894H80.8969C80.7211 16.1894 80.5844 16.0538 80.5844 15.8795C80.5844 15.7052 80.7211 15.5696 80.8969 15.5696H80.9359L80.9164 15.4728H80.7601L80.2133 15.589C80.1547 15.9957 79.9398 16.2862 79.6664 16.4605V18.1067H78.436V18.8232H79.5688V20.45H78.436V34.3165ZM74.8423 34.3165H75.7602V20.4694H74.8423V34.3165ZM74.8423 35.9627V35.4591H72.4205L72.1861 35.556V36.0595H75.7798V35.9627H74.8423Z" fill="black"/>
<path d="M59.1004 41.5596C59.0028 41.5596 58.9246 41.6371 58.9246 41.7339V42.7991C58.9246 42.8959 59.0028 42.9734 59.1004 42.9734H63.8659C63.9636 42.9734 64.0417 42.8959 64.0417 42.7991V41.7339C64.0417 41.6371 63.9636 41.5596 63.8659 41.5596H59.1004ZM71.8345 40.8237C71.9712 40.8237 72.0884 40.9399 72.0884 41.0754V42.5279C72.0884 42.6635 71.9712 42.7797 71.8345 42.7797H66.776C66.6393 42.7797 66.5221 42.6635 66.5221 42.5279V41.0754C66.5221 40.9399 66.6393 40.8237 66.776 40.8237H71.8345ZM66.776 13.9816C66.6393 13.9816 66.5221 13.8654 66.5221 13.7298V12.2773C66.5221 12.1224 66.6393 12.0256 66.776 12.0256H71.8345C71.9712 12.0256 72.0884 12.1418 72.0884 12.2773V13.7298C72.0884 13.8654 71.9712 13.9816 71.8345 13.9816H66.776ZM40.4484 12.7228H39.4328V13.1488H36.2493V12.7228H35.2142V12.5291H33.3783L33.5736 11.8125H35.2142V11.5027H36.2493V11.309H36.9993C37.1126 11.1851 37.4387 11.096 37.8313 11.096C38.2239 11.096 38.55 11.1851 38.6633 11.309H39.4328V11.5027H40.4484V11.8125H41.5812L41.7961 12.5291H40.4484V12.7228ZM34.0814 13.9429H26.3081C26.2495 13.9429 26.1909 13.9816 26.1909 14.0591V14.1133C26.1792 14.1443 26.1714 14.1791 26.1714 14.214V19.0246L24.9605 19.5049V18.9975H24.2378V19.3074C24.2378 19.3074 23.5152 19.2687 23.0074 19.4042C22.6421 19.5011 22.2691 19.8284 22.0875 20.0046H17.2262C17.1208 19.8109 16.986 19.6947 16.8356 19.6947H15.195C14.8435 19.6947 14.57 20.3338 14.57 21.1279C14.57 21.3506 14.5935 21.5597 14.6345 21.7476H11.6013C11.8162 21.7476 11.992 21.5733 11.992 21.3603V20.9148C11.992 20.7018 11.8162 20.5275 11.6013 20.5275H11.0935V20.1208H8.63264V19.869C8.63264 19.6173 8.4178 19.4042 8.1639 19.4042H7.24595C6.99205 19.4042 6.77721 19.5979 6.77721 19.869V20.1208H6.07215C5.96473 19.9174 5.75379 19.7799 5.5038 19.7741C5.40419 19.7005 5.2831 19.656 5.1542 19.656H1.62106C1.48825 19.656 1.36716 19.7005 1.27146 19.7741C1.02342 19.7799 0.812484 19.9174 0.705064 20.1208H0V20.3338H0.410148V21.9412H0V22.1543H0.767563C0.837874 22.2434 0.927716 22.3131 1.03514 22.3576V25.9695H0.742173C0.566395 25.9695 0.410148 26.1244 0.410148 26.2987V28.2935C0.410148 28.4678 0.566395 28.6227 0.742173 28.6227H1.03514V32.254C0.89842 32.3082 0.787094 32.4089 0.71483 32.5348H0V32.7478H0.410148V34.3746H0V34.5876H0.773422C0.855452 34.6883 0.964825 34.7658 1.09373 34.8065C1.18748 35.0001 1.38279 35.1299 1.61911 35.1299H5.1542C5.39052 35.1299 5.58583 35.0001 5.67958 34.8084C5.81239 34.7697 5.92567 34.6922 6.0077 34.5876H6.77526V34.82C6.77526 35.0912 6.9901 35.2848 7.244 35.2848H8.16195C8.41585 35.2848 8.63069 35.0718 8.63069 34.82V34.5876H11.0916V34.1616H11.5994C11.8142 34.1616 11.99 33.9873 11.99 33.7742V33.3288C11.99 33.1158 11.8142 32.9415 11.5994 32.9415H14.6325C14.5915 33.1293 14.5681 33.3385 14.5681 33.5612C14.5681 34.3552 14.8415 34.9943 15.1931 34.9943H16.8337C16.9821 34.9943 17.1188 34.8781 17.2243 34.6845H22.064C22.2378 34.8549 22.6265 35.2035 23.0054 35.3042C23.5132 35.4398 24.2359 35.401 24.2359 35.401V35.7109H24.9585V35.2035L26.1694 35.6838V40.5719C26.1694 40.6087 26.1772 40.6416 26.1889 40.6726V40.7075C26.1889 40.7849 26.228 40.843 26.3061 40.843L34.4896 40.8624C34.5091 40.8624 34.5267 40.8547 34.5442 40.843H34.5872V41.0367L34.6439 41.1355L34.8021 42.0631H35.2122V42.2568H33.3763L33.5716 42.9734H35.2122V43.2832H36.2473V43.4963H37.0149C37.1438 43.6105 37.4583 43.6899 37.8293 43.6899C38.2004 43.6899 38.5149 43.6105 38.6438 43.4963H39.4309V43.2832H40.4465V42.9734H41.5793L41.7941 42.2568H40.4465V42.0631H40.0363L42.2218 40.843H55.4657C55.622 40.843 55.7391 40.7268 55.7391 40.5719V38.2866H55.4462V37.1227H56.0516V35.4398H56.2665V37.1227H56.7743V35.4398H56.9891V37.1227H58.1219V35.4398H58.4149V37.1227H58.825V35.4398H59.0399V37.1227H64.1765V35.4398H65.5944C65.7136 35.5637 65.8698 35.7051 66.0124 35.7496C66.0944 35.7748 66.2487 35.7825 66.4225 35.7845V37.1227H67.4577V37.4539C67.3932 37.4887 67.3405 37.5604 67.3405 37.6456V38.0523H67.7311V37.6456C67.7311 37.5798 67.6979 37.5217 67.653 37.4829V37.1227H68.278V37.4539C68.2135 37.4887 68.1608 37.5604 68.1608 37.6456V38.0523H68.5514V37.6456C68.5514 37.5798 68.5182 37.5217 68.4733 37.4829V37.1227H72.1646V35.5366L72.3912 35.4398H74.8403V35.9627H75.7583V36.6599H74.4302V36.6792C74.4302 36.6792 74.4107 37.1343 74.3989 37.6863H74.1372C74.1372 37.6863 73.8247 37.9768 73.8247 38.5965C73.8247 39.2356 74.02 39.4099 74.02 39.4099H74.4146C74.4185 39.4544 74.4243 39.4932 74.4302 39.5261C74.5278 40.049 74.938 40.0296 74.938 40.0296C74.938 40.0296 75.4946 39.8844 75.7524 39.7353C76.0102 39.8708 76.2759 40.0025 76.3833 40.0296C76.6176 40.0877 78.9418 40.7462 78.9418 40.7462C78.9418 40.7462 79.977 40.7656 80.1723 39.836C80.3285 39.0768 80.059 38.5771 79.6645 38.3389V36.6405H78.434V35.9627H79.5668V34.3359H78.434V20.4694H79.5668V18.8426H78.434V18.0892H79.6078V16.3889C80.0023 16.1468 80.2719 15.6394 80.1156 14.8938C79.9203 13.9642 78.8852 13.9835 78.8852 13.9835C78.8852 13.9835 76.561 14.642 76.3266 14.7001C76.2134 14.7272 75.9243 14.8724 75.6548 15.0158C75.3755 14.8899 74.938 14.7756 74.938 14.7756C74.938 14.7756 74.5278 14.7562 74.4302 15.2791C74.4282 15.2908 74.4263 15.3063 74.4243 15.3198H73.9653C73.9653 15.3198 73.77 15.5135 73.77 16.1332C73.77 16.7529 74.0825 17.0434 74.0825 17.0434H74.3989C74.4028 17.1945 74.4067 17.3378 74.4107 17.4695H74.3775V18.0892H74.4321C74.4321 18.1125 74.4321 18.126 74.4321 18.126H75.1548V18.0892H75.7602V18.8426H74.8423V19.3461H72.3482L72.1666 19.2687V17.4656H68.4752V17.4346C68.5201 17.3959 68.5533 17.3378 68.5533 17.272V16.8653H68.1627V17.272C68.1627 17.3552 68.2155 17.4288 68.2799 17.4637L67.6549 17.4656V17.4346C67.6999 17.3959 67.733 17.3378 67.733 17.272V16.8653H67.3424V17.272C67.3424 17.3552 67.3952 17.4288 67.4596 17.4637L66.4245 17.4656V19.013C66.2507 19.013 66.0964 19.0246 66.0143 19.0556C65.8815 19.106 65.737 19.2319 65.6218 19.3461H64.1784V17.4656H59.0418V19.3461H58.827V17.4656H58.4168V19.3461H58.1239V17.4656H56.9911V19.3461H56.7762V17.4656H56.2684V19.3461H56.0536V17.4656H55.4481V16.4992H55.7411V14.214C55.7411 14.0591 55.6239 13.9429 55.4677 13.9429H34.0814ZM75.8774 37.2796H78.1235V37.8974C77.4868 37.7405 76.8208 37.5894 76.5805 37.5894H75.9751C75.9751 37.5894 75.9497 37.5623 75.8774 37.5507V37.2796ZM75.8774 17.1655C75.9087 17.1538 75.9184 17.1403 75.9184 17.1403H76.5239C76.7641 17.1403 77.4301 16.9892 78.0668 16.8323V17.4695H75.8774V17.1655ZM74.8618 20.4694H75.6626V34.3359H74.8618V20.4694ZM41.9718 40.8624L42.0168 40.843H42.05L41.9718 40.8624ZM9.63458 26.1632H7.15416C7.09947 26.0508 6.98229 25.9695 6.85533 25.9695H5.74208V22.3576C5.84949 22.315 5.93934 22.2434 6.00965 22.1543H6.77721V22.3092C6.77721 22.561 6.99205 22.774 7.24595 22.774H8.1639C8.31038 22.774 8.44319 22.7024 8.52913 22.5939C8.98811 22.6384 9.48028 22.7392 9.5506 22.9677C9.59747 23.1168 9.62677 24.5209 9.63458 26.1632ZM9.63653 28.4097C9.62872 30.0965 9.59942 31.5606 9.5506 31.7214C9.48028 31.9518 8.98811 32.0525 8.52913 32.0951C8.44319 31.9867 8.31038 31.915 8.1639 31.915H7.24595C6.99205 31.915 6.77721 32.1281 6.77721 32.3798V32.5348H6.06238C5.99012 32.4089 5.87879 32.3101 5.74208 32.254V28.6227H6.85533C6.9901 28.6227 7.11314 28.5317 7.16392 28.4097H9.63653ZM24.4331 31.8821L23.6128 32.0506L22.8902 32.1474L22.5777 32.2443L22.3355 32.4379H22.2847V32.1281H21.8746V32.4379H21.3883C21.0699 32.1455 20.5992 31.6943 19.9215 31.0048C18.32 29.378 18.3785 27.3445 18.3785 27.3445C18.3785 27.3445 18.32 25.311 19.9215 23.6842C20.5992 22.9948 21.0699 22.5435 21.3883 22.2511H21.8746V22.561H22.2847V22.2511H22.3121L22.5777 22.4641L22.8902 22.561L23.6128 22.6578L24.4331 22.8263C24.4331 25.4679 24.4331 29.2386 24.4331 31.8821ZM98.3575 4.37576L99.998 -0.00108337H85.5061L84.9007 0.405617V0.831676H83.6702L83.0648 2.36164C83.0648 2.36164 83.0843 2.40037 82.557 3.0782C82.0296 3.75603 81.9515 4.60816 81.9515 4.60816V7.31948H80.975L80.8773 7.41632H79.2367L79.0414 7.20328H77.186L77.0883 7.41632H63.241V7.22265L62.323 6.31242H59.2371L58.3192 7.22265V7.41632H52.1474L51.9521 7.62935L47.9483 8.24908L47.6358 8.65578H47.3233V10.1857H48.8155L48.1768 11.6189H45.6847V11.8125H43.2238C43.1066 11.8125 43.0285 11.9094 43.0089 12.0256V13.2457C43.0089 13.3619 43.1066 13.4587 43.2238 13.4587H55.9579C56.0555 13.4587 56.1532 13.3619 56.1532 13.2457V12.0256C56.1532 11.9094 56.0751 11.8125 55.9579 11.8125H53.4775V11.6189H50.9306L50.251 10.1838L76.4848 10.1664V10.3794C76.4848 10.3794 77.5004 10.5924 77.9301 10.7861C78.3598 10.9798 78.6528 11.5995 78.6528 11.5995H79.2582V11.6963L79.4535 11.9094L81.309 11.096V10.6893L81.7191 10.4762H81.9984L82.5785 12.4323V13.3425H81.0101L80.684 11.6189H80.1762L80.5316 13.4955C80.5043 13.542 80.4887 13.5943 80.4887 13.6524C80.4887 13.7531 80.5355 13.8383 80.6058 13.8944L80.6371 14.0591H80.4887V15.4922H80.9086L80.9262 15.589H80.8988C80.7426 15.589 80.5863 15.7246 80.5863 15.8989C80.5863 16.0732 80.723 16.2087 80.8988 16.2087H81.0433L82.5785 24.3233V25.5628L81.4457 26.2794L80.7816 27.4995L81.4457 28.7196L82.5785 29.4361V30.4819L81.0433 38.5965H80.8988C80.723 38.5965 80.5863 38.7321 80.5863 38.9064C80.5863 39.0807 80.7426 39.2162 80.8988 39.2162H80.9262L80.9086 39.3131H80.4887V40.7462H80.6371L80.6058 40.9108C80.5336 40.967 80.4887 41.0541 80.4887 41.1529C80.4887 41.2052 80.5043 41.2575 80.5316 41.302L80.1762 43.1864H80.684L81.0101 41.4628H82.5785V42.586L82.0687 44.3096H81.7191L81.309 44.116V43.7093L79.4535 42.8959L79.2582 43.0896V43.1864H78.6528C78.6528 43.1864 78.3598 43.8061 77.9301 43.9998C77.5004 44.1934 76.4848 44.4065 76.4848 44.4065V44.6001L50.2432 44.6176L50.9209 43.1864H53.4775V42.9734H55.9579C56.0751 42.9734 56.1532 42.8765 56.1532 42.7797V41.5596C56.1532 41.4434 56.0555 41.3466 55.9579 41.3466H43.2238C43.1066 41.3466 43.0089 41.4434 43.0089 41.5596V42.7797C43.0285 42.8959 43.1066 42.9734 43.2238 42.9734H45.6847V43.1864H48.1866L48.8252 44.6176H47.3252V46.1495H47.6377L47.9502 46.5562L51.9541 47.1759L52.1494 47.3696H58.3211V47.5632L59.2391 48.4735H62.325L63.2429 47.5632V47.3696H77.0903L77.1879 47.5632H79.0434L79.2387 47.3696H80.8793L80.9769 47.4664H81.9535V50.4101C81.9535 50.4101 82.0121 51.2623 82.5589 51.9401C83.1058 52.6179 83.0667 52.6566 83.0667 52.6566L83.6722 54.1866H84.9026V54.5933L85.5081 55H100L98.3594 50.6232V4.37576H98.3575ZM82.5765 14.0591H81.1429L81.1254 13.9622H82.5765V14.0591ZM82.5765 15.589H81.432L81.4144 15.4922H82.5765V15.589ZM82.5765 21.6372L81.5492 16.2087H82.5765V16.7762L82.5179 16.9059L82.5765 17.0047V21.6372ZM82.5765 38.5965H81.5492L82.5765 33.1681V38.5965ZM82.5765 39.3131H81.4144L81.432 39.2162H82.5765V39.3131ZM82.5765 40.843H81.1254L81.1429 40.7462H82.5765V40.843ZM59.1004 13.2263C59.0028 13.2263 58.9246 13.1488 58.9246 13.052V11.9868C58.9246 11.89 59.0028 11.8125 59.1004 11.8125H63.8659C63.9636 11.8125 64.0417 11.89 64.0417 11.9868V13.052C64.0417 13.1488 63.9636 13.2263 63.8659 13.2263H59.1004Z" fill="#FED100"/>
<path d="M76.2875 18.7458L77.1078 18.2423V18.0893H74.3754V17.4695H77.1078V17.0532C76.85 17.1055 76.639 17.1403 76.5238 17.1403H75.9184C75.9184 17.1403 75.8402 17.2371 75.5082 17.1403C75.1762 17.0435 74.9028 17.0435 74.9028 17.0435H74.0825C74.0825 17.0435 73.77 16.753 73.77 16.1333C73.77 15.5135 73.9653 15.3199 73.9653 15.3199H75.0981C75.0981 15.3199 76.0941 14.7582 76.3285 14.7001C76.4066 14.6808 76.723 14.5936 77.1078 14.4852V12.839L76.2875 12.2193H21.4643L20.644 12.839V18.2423L21.4643 18.7458H26.1713V14.214C26.1713 14.0591 26.2885 13.9429 26.4447 13.9429H55.4676C55.6238 13.9429 55.741 14.0591 55.741 14.214V16.4993H53.3778V18.7458H67.4595V17.4637C67.3951 17.4289 67.3424 17.3572 67.3424 17.272V16.8653H67.733V17.272C67.733 17.3379 67.6998 17.396 67.6548 17.4347V18.7458H68.2798V17.4637C68.2154 17.4289 68.1627 17.3572 68.1627 17.272V16.8653H68.5533V17.272C68.5533 17.3379 68.5201 17.396 68.4751 17.4347V18.7458H76.2875ZM75.1547 39.4099C75.1547 39.4099 76.1508 39.9716 76.3852 40.0297C76.4594 40.049 76.7504 40.1284 77.1078 40.2291V41.9663L76.2875 42.5861H21.4643L20.644 41.9663V36.5631L21.4643 36.0595H26.1713V40.5719C26.1713 40.7269 26.2885 40.8431 26.4447 40.8431H34.5891V41.0367L34.9992 41.7533H39.921L42.0167 40.8431H55.4676C55.6238 40.8431 55.741 40.7269 55.741 40.5719V38.2867H53.3778V36.0595H67.4595V37.4539C67.3951 37.4888 67.3424 37.5604 67.3424 37.6456V38.0523H67.733V37.6456C67.733 37.5798 67.6998 37.5217 67.6548 37.483V36.0595H68.2798V37.4539C68.2154 37.4888 68.1627 37.5604 68.1627 37.6456V38.0523H68.5533V37.6456C68.5533 37.5798 68.5201 37.5217 68.4751 37.483V36.0595H76.2875L77.1078 36.5631V36.6599H74.4321V37.2796H77.1078V37.665C76.8754 37.6185 76.6859 37.5895 76.5805 37.5895H75.975C75.975 37.5895 75.8969 37.4926 75.5649 37.5895C75.2328 37.6863 74.9594 37.6863 74.9594 37.6863H74.1391C74.1391 37.6863 73.8266 37.9768 73.8266 38.5965C73.8266 39.2356 74.0219 39.4099 74.0219 39.4099H75.1547Z" fill="url(#paint0_linear_6561_2897)"/>
<path opacity="0.3" d="M59.0419 19.6095V18.7574H64.1785V19.6095H59.0419ZM58.4169 19.6095V18.7574H58.8271V19.6095H58.4169ZM56.9912 19.6095V18.7574H58.124V19.6095H56.9912ZM56.2685 19.6095V18.7574H56.7763V19.6095H56.2685ZM55.2334 19.6095V18.7574H56.0537V19.6095H55.2334Z" fill="black"/>
<path opacity="0.3" d="M59.0419 36.0382V35.1106H64.1785V36.0382H59.0419ZM58.4169 36.0382V35.1106H58.8271V36.0382H58.4169ZM56.9912 36.0382V35.1106H58.124V36.0382H56.9912ZM56.2685 36.0382V35.1106H56.7763V36.0382H56.2685ZM55.2334 36.0382V35.1106H56.0537V36.0382H55.2334Z" fill="black"/>
<path opacity="0.2" d="M79.5688 35.9626V34.3359H74.8423V35.9626H79.5688ZM74.8423 18.8426H79.5688V20.4694H74.8423V18.8426Z" fill="black"/>
<path opacity="0.1" d="M75.7603 36.6676H78.436V17.9324H75.7603V36.6676Z" fill="black"/>
<path opacity="0.05" d="M75.6626 35.9626H78.1235V18.8426H75.6626V35.9626Z" fill="black"/>
<path opacity="0.5" d="M50.9306 43.1825L48.167 43.1708L48.8076 44.6272L50.2255 44.6156L50.9287 43.1844L50.9306 43.1825ZM48.8213 10.176L50.2392 10.1876L50.9169 11.6072H48.165L48.8193 10.176H48.8213Z" fill="url(#paint1_linear_6561_2897)"/>
<path opacity="0.02" d="M35.2141 43.2832H40.4484V42.0631H35.2141V43.2832Z" fill="black"/>
<path opacity="0.4" d="M40.4484 11.797V11.5026H35.2141V11.797H40.4484ZM40.4464 43.2948H35.2122V43.0004H40.4464V43.2948Z" fill="url(#paint2_linear_6561_2897)"/>
<path opacity="0.4" d="M53.4852 11.8087V11.6209H45.6904V11.8087H53.4852ZM53.4813 43.293H45.6865V43.0974H53.4813V43.293Z" fill="url(#paint3_linear_6561_2897)"/>
<path opacity="0.5" d="M39.4152 11.4988V11.2955H36.2512V11.4988H39.4152ZM39.4113 43.5021H36.2473V43.2987H39.4113V43.5021Z" fill="url(#paint4_linear_6561_2897)"/>
<path opacity="0.3" d="M33.4661 12.196H41.6788L41.5909 11.8164H33.5754L33.468 12.196H33.4661ZM41.5811 42.9811H33.5657L33.4778 42.6015H41.6905L41.5831 42.9811H41.5811Z" fill="url(#paint5_linear_6561_2897)"/>
<path opacity="0.2" d="M75.1548 37.9652H75.8774V37.2428H75.1548V37.9652Z" fill="black"/>
<path opacity="0.1" d="M74.022 39.41H75.1548C75.1548 39.41 76.1508 39.9716 76.3852 40.0297C76.6196 40.0878 78.9437 40.7463 78.9437 40.7463C78.9437 40.7463 79.9789 40.7657 80.1742 39.8361C80.3695 38.8871 79.9008 38.3449 79.3539 38.2093C78.807 38.0737 77.0102 37.5896 76.5805 37.5896H75.9751C75.9751 37.5896 75.8969 37.4927 75.5649 37.5896C75.2329 37.6864 74.9594 37.6864 74.9594 37.6864H74.1392C74.1392 37.6864 73.8267 37.9769 73.8267 38.5966C73.8267 39.2357 74.022 39.41 74.022 39.41Z" fill="black"/>
<path opacity="0.2" d="M83.0454 28.003L80.1743 43.1864H80.6821L83.5532 28.003H83.0454ZM80.1743 11.6189H80.6821L83.5532 26.8023H83.0454L80.1743 11.6189Z" fill="black"/>
<path opacity="0.1" d="M82.6352 39.3131H80.4868V40.7462H82.6352V39.3131ZM82.6352 15.4922H80.4868V14.0591H82.6352V15.4922ZM80.7993 40.843H84.393C84.5688 40.843 84.7055 40.9786 84.7055 41.1529C84.7055 41.3272 84.5688 41.4628 84.393 41.4628H80.7993C80.6235 41.4628 80.4868 41.3078 80.4868 41.1529C80.4868 40.9786 80.6235 40.843 80.7993 40.843ZM80.897 39.2162C80.7407 39.2162 80.5845 39.0807 80.5845 38.9064C80.5845 38.7321 80.7212 38.5965 80.897 38.5965H84.4906C84.6664 38.5965 84.8031 38.7321 84.8031 38.9064C84.8031 39.0807 84.6664 39.2162 84.4906 39.2162H80.897ZM84.393 13.9622H80.7993C80.6235 13.9622 80.4868 13.8267 80.4868 13.6524C80.4868 13.4781 80.6235 13.3425 80.7993 13.3425H84.393C84.5688 13.3425 84.7055 13.4781 84.7055 13.6524C84.7055 13.8267 84.5688 13.9622 84.393 13.9622ZM84.4906 16.2088H80.897C80.7212 16.2088 80.5845 16.0732 80.5845 15.8989C80.5845 15.7246 80.7407 15.589 80.897 15.589H84.4906C84.6664 15.589 84.8031 15.7246 84.8031 15.8989C84.8031 16.0732 84.6664 16.2088 84.4906 16.2088Z" fill="black"/>
<path d="M80.1977 39.1931L79.9829 40.2001L81.3071 40.4364C81.3071 40.4364 81.6782 40.3783 81.7172 39.9329C81.7563 39.4874 81.2094 39.4293 81.2094 39.4293L80.1977 39.1931ZM81.2094 15.3567L80.1763 15.593L79.9614 14.5665L81.3071 14.3496C81.3071 14.3496 81.6782 14.4077 81.7172 14.8532C81.7563 15.2986 81.2094 15.3567 81.2094 15.3567Z" fill="#222222"/>
<path opacity="0.2" d="M75.1548 16.7896H75.8774V17.4578H75.1548V16.7896Z" fill="black"/>
<path opacity="0.1" d="M74.022 15.376H75.1548C75.1548 15.376 76.1508 14.8144 76.3852 14.7563C76.6196 14.6982 78.9437 14.0397 78.9437 14.0397C78.9437 14.0397 79.9789 14.0203 80.1742 14.9499C80.3695 15.8795 79.9008 16.4412 79.3539 16.5767C78.807 16.7123 77.0102 17.1965 76.5805 17.1965H75.9751C75.9751 17.1965 75.8969 17.2933 75.5649 17.1965C75.2329 17.0996 74.9594 17.0996 74.9594 17.0996H74.1392C74.1392 17.0996 73.8267 16.8091 73.8267 16.1894C73.8267 15.5697 74.022 15.376 74.022 15.376Z" fill="black"/>
<path opacity="0.2" d="M34.6008 40.8353L34.5891 41.0367L34.9993 41.7533H39.921L42.0011 40.8353H34.6028H34.6008Z" fill="black"/>
<path opacity="0.2" d="M46.6006 35.4398V19.3462H51.952V15.4729H55.4481V19.3462H74.8617V35.4398H55.4481V39.3131H51.952V35.4398H46.6006Z" fill="url(#paint6_linear_6561_2897)"/>
<path opacity="0.04" d="M26.4448 40.843C26.2886 40.843 26.1714 40.7268 26.1714 40.5719V14.214C26.1714 14.059 26.2886 13.9428 26.4448 13.9428H55.4677C55.6239 13.9428 55.7411 14.059 55.7411 14.214V16.4992H53.3779V38.2866H55.7411V40.5719C55.7411 40.7268 55.6239 40.843 55.4677 40.843H26.4448Z" fill="black"/>
<path opacity="0.1" d="M40.0012 36.2531H50.917V20.1594H40.0012V36.2531Z" fill="url(#paint7_linear_6561_2897)"/>
<path opacity="0.04" d="M47.2256 39.2162V36.2531H50.9169V34.5295H53.3778V39.2162H47.2256Z" fill="black"/>
<path opacity="0.02" d="M49.0811 20.0627H53.3974V13.9429H49.0811V20.0627Z" fill="black"/>
<path d="M50.3115 34.6264V27.8094L61.6004 21.3215V20.1789H66.6393V34.6458C66.6393 34.6264 50.3115 34.6264 50.3115 34.6264Z" fill="#111111"/>
<path d="M52.9678 31.6827C52.9678 32.5929 53.7099 33.3094 54.6084 33.3094C55.5068 33.3094 56.249 32.5735 56.249 31.6827C56.249 30.7918 55.5068 30.0559 54.6084 30.0559C53.7099 30.0365 52.9678 30.7724 52.9678 31.6827Z" fill="url(#paint8_radial_6561_2897)"/>
<path d="M56.7764 31.6827C56.7764 32.5929 57.5185 33.3094 58.417 33.3094C59.3154 33.3094 60.0576 32.5735 60.0576 31.6827C60.0576 30.7918 59.3154 30.0559 58.417 30.0559C57.5185 30.0559 56.7764 30.7724 56.7764 31.6827Z" fill="url(#paint9_radial_6561_2897)"/>
<path d="M60.5652 31.6827C60.5652 32.5929 61.3074 33.3094 62.2058 33.3094C63.1042 33.3094 63.8464 32.5735 63.8464 31.6827C63.8464 30.7918 63.1042 30.0559 62.2058 30.0559C61.3074 30.0559 60.5652 30.7724 60.5652 31.6827Z" fill="url(#paint10_radial_6561_2897)"/>
<path d="M60.8777 23.1225C60.8777 24.1877 61.7566 25.0592 62.8308 25.0592C63.905 25.0592 64.7839 24.1877 64.7839 23.1225C64.7839 22.0574 63.905 21.1859 62.8308 21.1859C61.7566 21.1859 60.8777 22.0574 60.8777 23.1225Z" fill="url(#paint11_radial_6561_2897)"/>
<path d="M69.6081 31.7795V28.526H67.1472V31.7795H69.6081ZM67.1472 23.2195H69.6081V26.4731H67.1472V23.2195Z" fill="#111111"/>
<path opacity="0.05" d="M86.6584 50.72L85.8186 52.5404V53.5669L87.1467 53.9736H92.1856L86.9709 51.6302L86.6584 50.72ZM92.2052 1.02534L86.9709 3.3687L86.6584 4.27893L85.8381 2.45847V1.43204L87.1662 1.02534H92.2052ZM92.4005 53.9736C92.4005 53.9736 94.6856 53.7024 94.959 53.6637C95.2325 53.6443 95.2715 53.47 95.2715 53.47V50.0034L97.3223 55H85.5061L84.9006 54.5933V53.7799L86.7561 54.0704L92.4005 53.9736ZM95.2715 1.52887C95.2715 1.52887 95.2325 1.35458 94.959 1.33521C94.6856 1.29647 92.4005 1.02534 92.4005 1.02534L86.7561 0.928509L84.9006 1.21901V0.405617L85.5061 -0.00108337H97.3223L95.2715 4.99549V1.52887Z" fill="black"/>
<path opacity="0.15" d="M86.385 51.3009L86.5413 50.9523L86.4436 50.933L86.385 51.3009ZM94.9591 53.6636C94.6856 53.7024 92.4005 53.9735 92.4005 53.9735H92.2052L86.9709 51.6302L86.7366 51.0104L95.2716 53.2569V53.47C95.2716 53.47 95.2325 53.6443 94.9591 53.6636ZM86.385 3.69788L86.5413 4.04647L86.4436 4.06584L86.385 3.69788ZM86.9514 3.34927L92.1857 1.00592H92.381C92.381 1.00592 94.6856 1.27705 94.9395 1.31578C95.213 1.35452 95.252 1.50945 95.252 1.50945V1.74185L86.7366 3.98837L86.9514 3.34927Z" fill="white"/>
<path opacity="0.1" d="M81.014 47.4664L80.9163 47.3696H79.2757L79.0804 47.5632H77.225L77.1273 47.3696H52.1474L51.9521 47.1759L47.9482 46.5562L47.6357 46.1495H47.3232V44.6195H76.4828V44.4258C76.4828 44.4258 77.4984 44.2128 77.9281 44.0191C78.3578 43.8255 78.6508 43.2058 78.6508 43.2058H79.2562V43.1089L79.4515 42.9153L81.3069 43.7287V44.1353L81.7171 44.329H83.9827V47.4664H81.014ZM78.8461 45.6072C78.8461 45.3554 78.6312 45.1424 78.3773 45.1424H58.7879C58.534 45.1424 58.3191 45.3554 58.3191 45.6072V46.4787C58.3191 46.7498 58.534 46.9629 58.7879 46.9629H78.3773C78.6312 46.9629 78.8461 46.7498 78.8461 46.4981V45.6072ZM82.9475 44.6001H79.2562V47.2534H82.9475V44.6001ZM81.3069 10.7086V11.1153L79.4515 11.9287L79.2562 11.7157V11.6189H78.6508C78.6508 11.6189 78.3578 10.9991 77.9281 10.8055C77.4984 10.6118 76.4828 10.3988 76.4828 10.3988V10.1857H47.3232V8.67514H47.6357L47.9482 8.26844L51.9521 7.64871L52.1474 7.43568H77.1273L77.225 7.22265H79.0804L79.2757 7.43568H80.9163L81.014 7.33884H83.9827V10.4956H81.7171L81.3069 10.7086ZM78.8461 8.30717C78.8461 8.05541 78.6312 7.84238 78.3773 7.84238H58.7879C58.534 7.84238 58.3191 8.05541 58.3191 8.30717V9.19804C58.3191 9.4498 58.534 9.66283 58.7879 9.66283H78.3773C78.6312 9.66283 78.8461 9.4498 78.8461 9.19804V8.30717ZM82.9475 7.53251H79.2562V10.1857H82.9475V7.53251Z" fill="black"/>
<path opacity="0.3" d="M81.9516 7.53256V7.86179L81.854 9.99212L81.9106 10.1858H82.9477V7.53256H81.9516ZM87.6937 1.14159L86.5609 2.36169L86.3656 2.55536L87.4007 14.8725V40.1265L86.3656 52.4437L86.5609 52.6567L87.6937 53.8768H97.9669L98.1623 54.1866H83.6704L83.0649 52.6567C83.0649 52.6567 83.104 52.618 82.5571 51.9401C82.0102 51.2623 81.9516 50.4102 81.9516 50.4102V47.4664H83.9828V44.3291H82.061L82.5766 42.5861V29.4362L81.4438 28.7196L80.7798 27.4995L81.4438 26.2794L82.5766 25.5628V12.4323L82.0024 10.4956H83.9828V7.33889H81.9516V4.60821C81.9516 4.60821 82.0298 3.75608 82.5571 3.07825C83.0844 2.40042 83.0649 2.36169 83.0649 2.36169L83.6704 0.831726H98.1623L97.9669 1.14159H87.6937ZM82.9477 47.2534H81.9516V47.1566L81.854 45.0263L81.9809 44.6002H82.9477V47.2534Z" fill="url(#paint12_linear_6561_2897)"/>
<path opacity="0.12" d="M26.1909 35.1299H32.3431V34.9169H26.1714L26.1909 35.1299ZM26.1714 20.7599H32.3431V20.9729H26.1909L26.1714 20.7599ZM95.2716 39.3131V39.6229H88.1819V51.2235H87.9866V39.6229H87.3616V39.3131H87.9866V27.7125H87.3616V27.3058H87.9866V15.6858H87.3616V15.376H87.9866V3.77539H88.1819V15.376H95.2716V15.6858H88.1819V27.3058H95.2716V27.7125H88.1819V39.3131H95.2716Z" fill="black"/>
<path d="M78.1234 35.343V31.702C78.1234 31.5278 77.9867 31.3922 77.811 31.3922H76.8149C76.6391 31.3922 76.5024 31.5278 76.5024 31.702V35.343C76.4829 35.4979 76.6391 35.6528 76.8149 35.6528H77.811C77.9867 35.6528 78.1234 35.5173 78.1234 35.343ZM77.811 23.4325H76.8149C76.6391 23.4325 76.4829 23.2776 76.5024 23.1227V19.4817C76.5024 19.3074 76.6391 19.1719 76.8149 19.1719H77.811C77.9867 19.1719 78.1234 19.3074 78.1234 19.4817V23.1227C78.1234 23.297 77.9867 23.4325 77.811 23.4325Z" fill="white"/>
<path opacity="0.1" d="M11.9411 32.9318C12.0857 32.9318 12.2126 33.2087 12.2126 33.5515C12.2126 33.8943 12.0935 34.1713 11.9411 34.1713H10.824C11.1775 33.8382 11.1814 33.2804 10.8298 32.9454L10.824 32.9396L11.9411 32.9318Z" fill="url(#paint13_linear_6561_2897)"/>
<path opacity="0.3" d="M10.1658 32.7711H0.410156V34.3727H10.1658C10.6775 34.3727 11.0935 34.0144 11.0935 33.5728C11.0935 33.1313 10.6775 32.773 10.1658 32.773V32.7711ZM10.1658 21.9316H0.410156V20.33H10.1658C10.6775 20.33 11.0935 20.6883 11.0935 21.1298C11.0935 21.5714 10.6775 21.9297 10.1658 21.9297V21.9316Z" fill="url(#paint14_linear_6561_2897)"/>
<path d="M15.1951 31.8182H15.6052V30.7918H15.1951V31.8182ZM16.0154 30.7918H16.4255V31.8182H16.0154V30.7918ZM21.8746 31.1016H22.2848V32.1281H21.8746V31.1016ZM24.5308 28.8745V28.4678H25.566V28.8745H24.5308ZM24.5308 27.7512H25.566V28.1579H24.5308V27.7512ZM15.1951 22.8708H15.6052V23.8973H15.1951V22.8708ZM16.0154 22.8708H16.4255V23.8973H16.0154V22.8708ZM21.8746 22.561H22.2848V23.5874H21.8746V22.561ZM24.5308 25.8145H25.566V26.2212H24.5308V25.8145ZM24.5308 26.5311H25.566V26.9378H24.5308V26.5311Z" fill="#444444"/>
<path opacity="0.2" d="M5.7421 34.5818H1.03516C1.03516 34.9111 1.28906 35.1628 1.62108 35.1628H5.15617C5.48819 35.1628 5.7421 34.9111 5.7421 34.5818ZM1.03516 22.2163H5.7421V25.9637H1.03516V22.2163ZM1.62108 19.6521H5.15617C5.48819 19.6521 5.7421 19.9039 5.7421 20.2331H1.03516C1.03516 19.9039 1.28906 19.6521 1.62108 19.6521ZM1.03516 28.6266H5.7421V32.3741H1.03516V28.6266Z" fill="url(#paint15_linear_6561_2897)"/>
<path opacity="0.2" d="M8.61324 34.8123H6.77344C6.77344 34.8839 6.82422 35.2887 7.17968 35.2887H8.17771C8.61324 35.2887 8.61324 34.8839 8.61324 34.8123ZM7.24023 31.9034H8.12693C8.53317 31.9034 8.6152 32.2927 8.6152 32.3643H6.77539C6.77539 32.2927 6.8418 31.9034 7.24023 31.9034ZM6.77344 32.6355H8.61324V33.2804H6.77344V32.6355ZM6.77344 33.8614H8.61324V34.4598H6.77344V33.8614ZM7.24023 19.3694H8.12693C8.53317 19.3694 8.6152 19.7586 8.6152 19.8303H6.77539C6.77539 19.7586 6.8418 19.3694 7.24023 19.3694ZM6.77344 21.3273H8.61324V21.9258H6.77344V21.3273ZM6.77344 20.1014H8.61324V20.7463H6.77344V20.1014ZM8.17771 22.7527H7.17968C6.82422 22.7527 6.77344 22.3479 6.77344 22.2763H8.61324C8.61324 22.3479 8.61324 22.7527 8.17771 22.7527Z" fill="url(#paint16_linear_6561_2897)"/>
<path d="M14.902 34.1615H11.9939C12.1208 34.1053 12.2126 33.8555 12.2126 33.5534C12.2126 33.2513 12.1072 32.9859 11.9802 32.9414H14.904C15.1188 32.9414 15.2946 33.1157 15.2946 33.3287V33.7742C15.2946 33.9872 15.1188 34.1615 14.904 34.1615H14.902Z" fill="black"/>
<path d="M14.9099 21.7477H12.0017C12.1287 21.6915 12.2205 21.4417 12.2205 21.1396C12.2205 20.8375 12.115 20.5721 11.988 20.5276H14.9118C15.1266 20.5276 15.3024 20.7019 15.3024 20.9149V21.3603C15.3024 21.5734 15.1266 21.7477 14.9118 21.7477H14.9099Z" fill="black"/>
<path opacity="0.1" d="M11.9411 20.5216C12.0857 20.5216 12.2126 20.7986 12.2126 21.1414C12.2126 21.4842 12.0935 21.7611 11.9411 21.7611H10.824C11.1775 21.428 11.1814 20.8702 10.8298 20.5352L10.824 20.5294L11.9411 20.5216Z" fill="url(#paint17_linear_6561_2897)"/>
<path opacity="0.3" d="M15.1716 34.9828C14.9294 34.9828 14.7224 34.6458 14.6267 34.1616H14.9021C15.1169 34.1616 15.2927 33.9873 15.2927 33.7743V33.3289C15.2927 33.1158 15.1169 32.9416 14.9021 32.9416H14.6326C14.7302 32.4709 14.9353 32.1475 15.1716 32.1475C15.5036 32.1475 15.7732 32.7827 15.7732 33.5652C15.7732 34.3476 15.5036 34.9828 15.1716 34.9828Z" fill="url(#paint18_linear_6561_2897)"/>
<path opacity="0.4" d="M19.9215 23.6843C18.32 25.3111 18.3786 27.3446 18.3786 27.3446C18.3786 27.3446 18.32 29.3781 19.9215 31.0049C20.6031 31.6963 21.0738 32.1495 21.3922 32.4419H17.2185C17.111 32.2463 16.9782 32.1281 16.8356 32.1281L15.1951 32.1475V32.1514C15.1951 32.1514 15.1794 32.1495 15.1716 32.1495C14.9353 32.1495 14.7302 32.4729 14.6326 32.9435H10.8651L10.8299 32.9067C10.6502 32.7188 10.4022 32.6123 10.1405 32.6123H8.62096C8.62096 32.1611 8.52526 32.101 8.52526 32.101C8.52526 32.101 9.43345 32.0526 9.55258 31.7253C9.60922 31.5685 9.62875 30.1005 9.63852 28.4136H1.85547V28.22H5.95695V26.3801H1.85547V26.1671H9.63461C9.62485 24.5248 9.58774 23.1227 9.55063 22.9716C9.46665 22.6405 8.52917 22.5998 8.52917 22.5998C8.52917 22.5998 8.6112 22.4817 8.6112 22.0556C9.05845 22.0556 10.1053 22.0653 10.1053 22.0653C10.367 22.0653 10.619 21.9723 10.8123 21.798L10.8612 21.7535H14.6208C14.8103 22.6133 15.1931 22.5475 15.1931 22.5475L16.8337 22.5669C16.9743 22.5669 17.1071 22.4487 17.2145 22.2551H21.3863C21.068 22.5475 20.5973 22.9987 19.9176 23.6901L19.9215 23.6843Z" fill="url(#paint19_linear_6561_2897)"/>
<path opacity="0.3" d="M17.4606 33.5612C17.4606 32.7671 17.1677 32.128 16.8357 32.128L15.1951 32.1474V32.1513C15.5154 32.1803 15.7732 32.802 15.7732 33.567C15.7732 34.3319 15.5173 34.9517 15.1951 34.9827V34.9962H16.8357C17.1872 34.9962 17.4606 34.3571 17.4606 33.5631V33.5612Z" fill="url(#paint20_linear_6561_2897)"/>
<path opacity="0.3" d="M22.5133 32.6723V32.9628H23.2457C23.316 33.0751 23.3688 33.199 23.3942 33.3346H22.5114V34.2952H23.1461C23.0231 34.4385 22.8649 34.5489 22.6832 34.6147H22.5094V34.6651C22.4391 34.6787 22.3668 34.6864 22.2907 34.6864H17.2224C17.3669 34.425 17.4568 34.0202 17.4568 33.5631C17.4568 33.1061 17.3591 32.7013 17.2146 32.4399H22.2907C22.5485 32.4399 22.7868 32.527 22.9762 32.6742H22.5075L22.5133 32.6723Z" fill="url(#paint21_linear_6561_2897)"/>
<path opacity="0.3" d="M23.1617 20.4848H22.5133V21.4144L23.1383 21.4183V21.7262L22.5133 21.7301V22.0303H22.9957C22.8727 22.1736 22.8668 22.1232 22.6871 22.1891H22.5133V22.2394C22.443 22.253 22.3707 22.2607 22.2946 22.2607H17.2263C17.3708 21.9993 17.4607 21.5945 17.4607 21.1375C17.4607 20.6804 17.363 20.2757 17.2185 20.0142H22.2946C22.5524 20.0142 22.7907 20.1014 22.9801 20.2486C22.9801 20.2486 23.1344 20.3512 23.1617 20.4848Z" fill="url(#paint22_linear_6561_2897)"/>
<path opacity="0.3" d="M25.4819 33.3423H22.5054V34.2854H25.4819V33.3423ZM22.5054 32.6393H26.1713V32.9491H22.5054V32.6393ZM22.5054 34.9071V34.5972H26.1713V34.9071H22.5054ZM25.4819 21.4163H22.5054V20.4732H25.4819V21.4163ZM22.5054 21.7281H26.1713V22.038H22.5054V21.7281ZM22.5054 19.7702H26.1713V20.0801H22.5054V19.7702Z" fill="url(#paint23_linear_6561_2897)"/>
<path opacity="0.25" d="M23.396 33.3326H25.2729V32.9608H23.2456C23.3159 33.0731 23.3686 33.197 23.396 33.3326ZM22.687 34.6127C22.8667 34.5469 23.0268 34.4346 23.1499 34.2932H25.2748V34.6127H22.689H22.687ZM22.3335 32.4398L22.5776 32.2442L22.8901 32.1474L23.6128 32.0505L24.6479 31.8375L25.2729 32.1474V32.6722H22.98C22.8003 32.5347 22.5776 32.4495 22.3335 32.4398ZM22.5132 34.6631V34.9052H24.9604V35.7108H24.2377V35.401C24.2377 35.401 23.5151 35.4397 23.0073 35.3041C22.6284 35.2034 22.2397 34.8548 22.0659 34.6844H22.2944C22.3686 34.6844 22.4429 34.6766 22.5132 34.6631ZM22.5054 20.0355C22.437 20.022 22.3667 20.0142 22.2944 20.0142H22.0757C22.2534 19.8399 22.6343 19.5029 23.0073 19.4042C23.5151 19.2686 24.2377 19.3073 24.2377 19.3073V18.9975H24.9604V19.7702H22.5054V20.0355ZM23.1421 21.4163H25.2729V21.7262H23.1421V21.4163ZM23.6128 22.6577L22.8901 22.5609L22.5776 22.4641L22.3218 22.2588C22.3862 22.2588 22.4507 22.251 22.5132 22.2394V22.1891H22.687C22.7866 22.1523 22.8804 22.1 22.9643 22.038H25.2729V22.5609L24.6479 22.8708L23.6128 22.6577ZM23.1538 20.4732L22.98 20.2466C22.8882 20.1749 22.7847 20.1188 22.6733 20.0801H25.2729V20.4732H22.5132H23.1538Z" fill="black"/>
<path opacity="0.1" d="M17.7615 34.6844H17.2263C17.3708 34.423 17.4607 34.0182 17.4607 33.5612C17.4607 33.1041 17.363 32.6994 17.2185 32.4379H17.7615L17.7673 32.4534C18.0544 33.1642 18.0544 33.9543 17.7673 34.6651L17.7595 34.6844H17.7615Z" fill="black"/>
<path opacity="0.3" d="M15.1716 22.5571C14.9294 22.5571 14.7224 22.2202 14.6267 21.736H14.9021C15.1169 21.736 15.2927 21.5617 15.2927 21.3487V20.9032C15.2927 20.6902 15.1169 20.5159 14.9021 20.5159H14.6326C14.7302 20.0453 14.9353 19.7219 15.1716 19.7219C15.5036 19.7219 15.7732 20.3571 15.7732 21.1395C15.7732 21.9219 15.5036 22.5571 15.1716 22.5571Z" fill="url(#paint24_linear_6561_2897)"/>
<path opacity="0.1" d="M17.7615 22.2588H17.2263C17.3708 21.9973 17.4607 21.5926 17.4607 21.1355C17.4607 20.6785 17.363 20.2737 17.2185 20.0123H17.7615L17.7673 20.0278C18.0544 20.7385 18.0544 21.5287 17.7673 22.2394L17.7595 22.2588H17.7615Z" fill="black"/>
<path opacity="0.3" d="M24.4332 28.7427L23.0465 28.7001C22.8707 28.7001 22.6363 28.7001 22.5387 28.7776C22.2066 29.01 21.9918 29.2811 21.9918 29.5135C21.9918 29.591 22.2262 29.9396 22.2262 30.4818C22.2262 30.5399 22.2066 31.6826 22.0309 31.6826C21.9527 31.6826 21.9332 31.6051 21.9332 31.5276C21.9332 31.4889 21.9918 31.179 21.9918 31.1016C21.9918 31.0628 21.8551 30.2688 21.777 29.8621C21.6988 29.4554 21.1129 29.2617 21.1129 28.8744C21.1129 28.4096 21.9527 28.4096 22.1871 28.4096C22.2652 28.4096 22.6363 28.4483 22.8512 28.4677H24.0426C24.0836 28.4677 24.2476 28.4793 24.4332 28.4968V28.1017L19.8629 28.1191C19.3161 28.1966 18.7106 28.2353 18.2028 28.3709C17.7536 28.4871 17.1482 28.7388 16.7185 28.9906C16.5818 29.0487 16.4255 29.1262 16.3669 29.2617C16.2888 29.5135 16.3279 29.7653 16.3083 29.9977L16.2888 31.2371C16.2693 31.2952 16.2107 31.3921 16.0935 31.4502C16.0544 31.4502 16.0154 31.3727 15.9958 31.3146L16.0544 29.6297C16.074 29.4748 16.0544 29.3005 16.1325 29.1455C16.1521 29.0874 16.2888 29.0487 16.2888 28.9906C16.2888 28.9131 15.781 29.1262 15.7029 29.223C15.4294 29.4748 15.5076 29.8427 15.449 30.1139C15.4294 30.3075 15.4685 31.0241 15.2927 31.0241C15.1755 31.0241 15.1951 30.8498 15.1951 30.7723C15.1951 30.3075 15.2732 29.7653 15.3513 29.3392C15.3513 29.2811 15.4294 29.0874 15.5662 29.0293C17.2653 28.1385 19.0036 27.9448 20.7223 27.8093H24.1011C24.1422 27.8093 24.2808 27.8209 24.4332 27.8402C24.4332 27.5304 24.4332 27.2205 24.4332 26.9106C24.3121 26.9184 24.2086 26.9184 24.1793 26.9184H20.8786C20.6832 26.9184 18.9059 26.7635 18.4958 26.6666C17.8513 26.5311 17.1872 26.3568 16.5622 26.1244C16.2888 26.0469 16.0935 25.9113 15.8591 25.8145C15.7615 25.7564 15.6247 25.737 15.5466 25.6015C15.4685 25.5046 15.4294 25.3303 15.4099 25.1948C15.3513 24.7687 15.2732 23.9747 15.2732 23.8972C15.2732 23.8972 15.2341 23.6842 15.3708 23.6842C15.449 23.6842 15.4685 23.7229 15.4685 23.781C15.5076 23.994 15.5076 24.1877 15.5271 24.4007C15.5271 24.6331 15.5466 24.8849 15.6052 25.0979C15.6247 25.2141 15.6247 25.3884 15.7029 25.4465C15.8591 25.6208 16.2107 25.7564 16.2888 25.7564C16.3474 25.7564 16.3474 25.737 16.3474 25.737C16.0349 25.4272 16.1911 25.0786 16.113 24.7687L16.0935 23.4711C16.0935 23.4324 16.0935 23.2968 16.1911 23.2968C16.2497 23.2968 16.3279 23.4324 16.3279 23.4518L16.3474 24.8074C16.3669 24.9624 16.3669 25.1367 16.3669 25.2916C16.3669 25.3691 16.3669 25.4659 16.445 25.524C17.5583 26.3568 18.7497 26.5311 19.902 26.5892L24.4332 26.6066V26.2212C24.3199 26.2212 24.2144 26.2231 24.0816 26.2406H22.8707C22.7926 26.2406 22.2457 26.2987 22.1676 26.2987C22.0113 26.2987 21.0934 26.3374 21.0934 25.8726C21.0934 25.6015 21.6403 25.2916 21.7379 24.9817C21.8942 24.5944 21.8746 24.149 21.9527 23.8004V23.2194C21.9332 23.1613 21.9332 23.0063 22.0309 23.0063C22.109 23.0063 22.109 23.0451 22.109 23.0644C22.1481 23.2 22.1871 23.3356 22.2066 23.4711C22.2262 23.994 22.2262 24.149 22.2262 24.2071C22.2262 24.2845 22.2066 24.6331 22.1481 24.7881C22.1285 24.943 21.9918 25.1173 21.9918 25.1754C21.9918 25.6015 22.6363 26.1631 23.0465 25.9888L24.4332 25.9462C24.4332 25.6266 24.4332 23.0799 24.4332 23.0799L26.1929 22.2665V32.4805L24.4332 31.6671V28.7447V28.7427Z" fill="black"/>
<path opacity="0.2" d="M16.8278 22.5688H15.1873V22.5552C15.3083 22.5436 15.4177 22.4506 15.5095 22.2957C15.5095 22.2957 15.5095 22.2938 15.5095 22.2918C15.5232 22.2666 15.5388 22.2415 15.5525 22.2144C15.5525 22.2124 15.5544 22.2085 15.5564 22.2066C15.5681 22.1814 15.5818 22.1543 15.5935 22.1253C15.5954 22.1195 15.5974 22.1156 15.5994 22.1098C15.6111 22.0827 15.6208 22.0555 15.6306 22.0265C15.6326 22.0187 15.6345 22.011 15.6384 22.0033C15.6482 21.9761 15.656 21.949 15.6638 21.92C15.6677 21.9084 15.6697 21.8967 15.6716 21.8871C15.6794 21.8599 15.6853 21.8348 15.6912 21.8057C15.6951 21.7902 15.697 21.7747 15.7009 21.7612C15.7068 21.736 15.7107 21.7108 15.7165 21.6856C15.7204 21.6663 15.7224 21.6469 15.7263 21.6275C15.7302 21.6043 15.7341 21.5811 15.7361 21.5578C15.74 21.5346 15.7419 21.5113 15.7439 21.4881C15.7458 21.4668 15.7497 21.4455 15.7517 21.4242C15.7537 21.3971 15.7556 21.368 15.7576 21.3409C15.7576 21.3235 15.7595 21.3041 15.7615 21.2867C15.7634 21.2402 15.7654 21.1918 15.7654 21.1434C15.7654 21.095 15.7654 21.0465 15.7615 21.0001C15.7615 20.9807 15.7595 20.9633 15.7576 20.9458C15.7576 20.9168 15.7537 20.8897 15.7517 20.8626C15.7517 20.8413 15.7478 20.82 15.7439 20.7987C15.7419 20.7754 15.74 20.7522 15.7361 20.7289C15.7322 20.7057 15.7283 20.6825 15.7263 20.6592C15.7224 20.6398 15.7204 20.6205 15.7165 20.6011C15.7126 20.5759 15.7068 20.5508 15.7009 20.5256C15.697 20.5101 15.6951 20.4946 15.6912 20.4791C15.6853 20.452 15.6775 20.4249 15.6716 20.3978C15.6677 20.3861 15.6658 20.3745 15.6638 20.3629C15.656 20.3339 15.6462 20.3067 15.6384 20.2796C15.6365 20.2719 15.6345 20.2641 15.6306 20.2564C15.6208 20.2273 15.6111 20.2002 15.5994 20.1731C15.5974 20.1673 15.5954 20.1634 15.5935 20.1576C15.5818 20.1286 15.5701 20.1015 15.5564 20.0763C15.5564 20.0743 15.5544 20.0705 15.5525 20.0685C15.5388 20.0414 15.5251 20.0143 15.5095 19.9911C15.5095 19.9911 15.5095 19.9911 15.5095 19.9891C15.4177 19.8361 15.3064 19.7412 15.1873 19.7296V19.7257L16.8278 19.7064C17.1599 19.7064 17.4528 20.3455 17.4528 21.1395C17.4528 21.9335 17.1794 22.5726 16.8278 22.5726V22.5688Z" fill="url(#paint25_linear_6561_2897)"/>
<path opacity="0.5" d="M15.7849 22.559H15.0076C15.0095 22.7701 15.1833 22.9406 15.3962 22.9406C15.6091 22.9406 15.7829 22.7701 15.7849 22.559ZM16.2224 22.9406C16.0095 22.9406 15.8357 22.7701 15.8337 22.559H16.6111C16.6091 22.7701 16.4353 22.9406 16.2224 22.9406Z" fill="url(#paint26_linear_6561_2897)"/>
<path opacity="0.5" d="M16.6111 32.1377C16.6091 31.9266 16.4353 31.7562 16.2224 31.7562C16.0095 31.7562 15.8357 31.9266 15.8337 32.1377H16.6111ZM15.3962 31.7562C15.6091 31.7562 15.7829 31.9266 15.7849 32.1377H15.0076C15.0095 31.9266 15.1833 31.7562 15.3962 31.7562Z" fill="url(#paint27_linear_6561_2897)"/>
<path opacity="0.15" d="M6.95898 34.4714H10.1659C10.6777 34.4714 11.0937 34.0589 11.0937 33.5515C11.0937 33.0441 10.6777 32.6316 10.1659 32.6316H6.95898C6.73828 32.6316 6.55859 32.8098 6.55859 33.0286V34.0744C6.55859 34.2933 6.73828 34.4714 6.95898 34.4714Z" fill="url(#paint28_linear_6561_2897)"/>
<path opacity="0.15" d="M6.95898 34.4714H10.1659C10.6777 34.4714 11.0937 34.0589 11.0937 33.5515C11.0937 33.0441 10.6777 32.6316 10.1659 32.6316H6.95898C6.73828 32.6316 6.55859 32.8098 6.55859 33.0286V34.0744C6.55859 34.2933 6.73828 34.4714 6.95898 34.4714Z" fill="url(#paint29_linear_6561_2897)"/>
<path opacity="0.15" d="M6.95898 22.0322H10.1659C10.6777 22.0322 11.0937 21.6197 11.0937 21.1123C11.0937 20.6049 10.6777 20.1924 10.1659 20.1924H6.95898C6.73828 20.1924 6.55859 20.3706 6.55859 20.5894V21.6352C6.55859 21.8541 6.73828 22.0322 6.95898 22.0322Z" fill="url(#paint30_linear_6561_2897)"/>
<path d="M42.4016 28.5258H39.9075V28.8357H42.4016V28.5258Z" fill="url(#paint31_linear_6561_2897)"/>
<path opacity="0.2" d="M95.2364 49.4863V1.98008L86.6584 4.27889L87.5022 15.1668V40.1264L86.6584 50.7199L95.2716 53.257L95.2364 49.4863Z" fill="url(#paint32_linear_6561_2897)"/>
<path opacity="0.5" d="M99.8554 54.6726L97.9667 53.8766L96.9062 53.8457L95.293 49.707V4.90437L96.9062 1.20924L97.9667 1.14145L99.7441 0.326118L98.3535 4.24204V50.3694L99.8554 54.6726Z" fill="url(#paint33_linear_6561_2897)"/>
<path opacity="0.1" d="M55.741 38.2866V40.5719C55.741 40.7268 55.6238 40.843 55.4676 40.843H32.6946C32.5383 40.843 32.4211 40.7268 32.4211 40.5719V14.214C32.4211 14.059 32.5383 13.9428 32.6946 13.9428H55.4676C55.6238 13.9428 55.741 14.059 55.741 14.214V16.4992H53.3778V38.2866H55.741ZM39.0421 20.0104H36.3176V24.0929L35.4933 25.5008V40.5351H39.9132V25.557L39.0421 24.149V20.0104Z" fill="black"/>
<path d="M37.05 22.2124L37.1086 22.1543C36.9328 21.98 36.6985 22.0962 36.5618 21.98C36.3079 21.7476 36.1321 21.5539 36.1321 21.3602C36.1321 21.2828 36.2883 20.8955 36.3664 20.6437C36.425 20.4888 36.386 20.2951 36.386 20.1014C36.4641 20.024 36.8157 19.8497 36.8938 19.6754C36.8742 19.656 36.8938 19.656 36.8157 19.656C36.7571 19.656 36.4055 19.9271 36.2493 20.0433C36.2297 20.0627 36.2297 20.1208 36.2297 20.1789C36.2493 20.2564 36.2493 20.3338 36.2493 20.4113C36.2493 20.7986 35.9954 21.0504 35.9954 21.3796C35.9954 21.7863 36.5813 22.2898 36.9133 22.2124H37.05Z" fill="black"/>
<path d="M28.4369 42.16L28.847 42.4698V40.8431H28.4369V42.16ZM22.6948 36.4468L23.4174 36.137V42.4698L22.6948 42.16V36.4468ZM25.351 12.6259L25.9564 12.3161V18.6296L25.351 18.3197V12.6259ZM28.4369 12.6259L28.847 12.3161V13.9429H28.4369V12.6259ZM31.3079 40.8431H31.7181V42.4698L31.3079 42.16V40.8431ZM25.351 36.4468L25.9564 36.137V42.4698L25.351 42.16V36.4468ZM31.3079 12.6259L31.7181 12.3161V13.9429H31.3079V12.6259ZM37.0695 41.7533H37.4797V42.4698L37.0695 42.16V41.7533ZM39.9405 12.3161L40.3507 12.6259V13.9429H39.9405V12.3161ZM34.1985 12.6259L34.6086 12.3161V13.9429H34.1985V12.6259ZM37.0695 12.6259L37.4797 12.3161V13.9429H37.0695V12.6259ZM34.1985 40.8431H34.5891V41.0367L34.6086 41.0716V42.4698L34.1985 42.16V40.8431ZM39.9405 41.7455L40.3507 41.5674V42.16L39.9405 42.4698V41.7455ZM77.0101 18.3197L76.1898 18.6296V18.0893H77.0101V18.3197ZM22.6948 12.6259L23.4174 12.3161V18.6296L22.6948 18.3197V12.6259ZM74.5297 37.6863V37.2796H75.2524V37.6592C75.0785 37.6863 74.9594 37.6863 74.9594 37.6863H74.5297ZM76.1898 37.5895V37.2796H77.0101V37.6476C76.8226 37.6127 76.6703 37.5895 76.5805 37.5895H76.1898ZM75.2524 36.6599H74.5297V36.1563L75.2524 36.4662V36.6599ZM75.2524 18.3197L74.5297 18.6296V18.0893H75.2524V18.3197ZM76.1898 36.1563L77.0101 36.4662V36.6599H76.1898V36.1563ZM20.937 12.6259L21.7573 12.3161V18.6296L20.937 18.3197V12.6259ZM75.1547 39.4099C75.1547 39.4099 75.1918 39.4312 75.2524 39.4642V42.16L74.5297 42.4698V39.4099H75.1547ZM75.2524 17.0803V17.4695H74.5297V17.0435H74.9028C74.9028 17.0435 75.0473 17.0435 75.2524 17.0803ZM20.937 36.4468L21.7573 36.137V42.4698L20.937 42.16V36.4468ZM77.0101 17.0725V17.4695H76.1898V17.1403H76.5238C76.6234 17.1403 76.7972 17.1132 77.0101 17.0725ZM76.3852 40.0297C76.4535 40.0471 76.6976 40.1149 77.0101 40.202V42.16L76.1898 42.4698V39.9541C76.2738 39.9929 76.3422 40.02 76.3852 40.0297ZM45.6826 40.8431H46.0928V42.16L45.6826 42.4698V40.8431ZM65.8189 12.3161L66.2291 12.6259V18.3197L65.8189 18.6296V12.3161ZM65.8189 36.1563L66.2291 36.4662V42.16L65.8189 42.4698V36.1563ZM62.9284 36.1563L63.3385 36.4662V42.16L62.9284 42.4698V36.1563ZM60.0573 12.3161L60.4675 12.6259V18.3197L60.0573 18.6296V12.3161ZM68.69 12.3161L69.1001 12.6259V18.3197L68.69 18.6296V12.3161ZM62.9284 12.3161L63.3385 12.6259V18.3197L62.9284 18.6296V12.3161ZM60.0573 36.1563L60.4675 36.4662V42.16L60.0573 42.4698V36.1563ZM75.0981 15.3198H74.5297V12.3161L75.2524 12.6259V15.2346C75.1586 15.2869 75.0981 15.3198 75.0981 15.3198ZM76.3285 14.7001C76.2953 14.7079 76.2465 14.7272 76.1898 14.7524V12.3161L77.0101 12.6259V14.5142C76.6703 14.6091 76.4008 14.6846 76.3285 14.702V14.7001ZM71.9712 36.1563L72.5766 36.4662V42.16L71.9712 42.4698V36.1563ZM68.69 36.1563L69.1001 36.4662V42.16L68.69 42.4698V36.1563ZM42.8116 12.3161L43.2217 12.6259V13.9429H42.8116V12.3161ZM71.9712 12.3161L72.5766 12.6259V18.3197L71.9712 18.6296V12.3161ZM48.5537 12.3161L48.9638 12.6259V13.9429H48.5537V12.3161ZM48.5537 40.8431H48.9638V42.16L48.5537 42.4698V40.8431ZM51.4442 12.3161L51.8544 12.6259V13.9429H51.4442V12.3161ZM51.4442 40.8431H51.8544V42.16L51.4442 42.4698V40.8431ZM42.8116 40.8431H43.2217V42.16L42.8116 42.4698V40.8431ZM45.6826 12.3161L46.0928 12.6259V13.9429H45.6826V12.3161ZM57.1863 36.1563L57.5965 36.4662V42.16L57.1863 42.4698V36.1563ZM57.1863 12.3161L57.5965 12.6259V18.3197L57.1863 18.6296V12.3161ZM54.3153 40.8431H54.7254V42.16L54.3153 42.4698V40.8431ZM54.3153 12.3161L54.7254 12.6259V13.9429H54.3153V12.3161ZM54.3153 16.4993H54.7254V18.3197L54.3153 18.6296V16.4993ZM54.3153 36.1563L54.7254 36.4662V38.2867H54.3153V36.1563Z" fill="url(#paint34_linear_6561_2897)"/>
<path d="M33.8275 39.3131C34.1986 39.3131 34.4916 39.0226 34.4916 38.6546C34.4916 38.2866 34.1986 37.9961 33.8275 37.9961C33.4564 37.9961 33.1635 38.2866 33.1635 38.6546C33.1635 39.0226 33.4564 39.3131 33.8275 39.3131ZM31.5619 35.6721C31.6401 35.6721 31.6791 35.7302 31.6987 35.8077V39.2937C31.6987 39.3712 31.7963 39.6423 31.8549 39.7004H35.2923C35.3119 39.7198 35.3705 39.7391 35.3705 39.7972C35.3705 39.8747 35.3509 39.8747 35.3509 39.8941L31.8549 39.9328C31.5229 39.8941 31.5229 39.4486 31.4643 39.2356V35.769C31.4643 35.7302 31.5033 35.6721 31.5619 35.6721ZM24.4332 26.2213C24.3199 26.2213 24.2144 26.2232 24.0816 26.2406H22.8707C22.7926 26.2406 22.2457 26.2987 22.1676 26.2987C22.0113 26.2987 21.0934 26.3375 21.0934 25.8727C21.0934 25.6015 21.6403 25.2917 21.7379 24.9818C21.8942 24.5945 21.8746 24.149 21.9527 23.8004V23.2194C21.9332 23.1613 21.9332 23.0064 22.0309 23.0064C22.109 23.0064 22.109 23.0451 22.109 23.0645C22.1481 23.2001 22.1871 23.3356 22.2066 23.4712C22.2262 23.9941 22.2262 24.149 22.2262 24.2071C22.2262 24.2846 22.2067 24.6332 22.1481 24.7881C22.1285 24.9431 21.9918 25.1174 21.9918 25.1755C21.9918 25.6015 22.6363 26.1632 23.0465 25.9889L24.4332 25.9463V26.2213ZM24.4332 26.9107C24.3121 26.9185 24.2086 26.9185 24.1793 26.9185H20.8786C20.6832 26.9185 18.9059 26.7635 18.4958 26.6667C17.8513 26.5311 17.1872 26.3568 16.5622 26.1244C16.2888 26.047 16.0935 25.9114 15.8591 25.8146C15.7615 25.7565 15.6247 25.7371 15.5466 25.6015C15.4685 25.5047 15.4294 25.3304 15.4099 25.1948C15.3513 24.7688 15.2732 23.9747 15.2732 23.8973C15.2732 23.8973 15.2341 23.6842 15.3708 23.6842C15.449 23.6842 15.4685 23.723 15.4685 23.7811C15.5076 23.9941 15.5076 24.1878 15.5271 24.4008C15.5271 24.6332 15.5466 24.885 15.6052 25.098C15.6247 25.2142 15.6247 25.3885 15.7029 25.4466C15.8591 25.6209 16.2107 25.7565 16.2888 25.7565C16.3474 25.7565 16.3474 25.7371 16.3474 25.7371C16.0349 25.4272 16.1911 25.0786 16.113 24.7688L16.0935 23.4712C16.0935 23.4325 16.0935 23.2969 16.1911 23.2969C16.2497 23.2969 16.3279 23.4325 16.3279 23.4518L16.3474 24.8075C16.3669 24.9624 16.3669 25.1367 16.3669 25.2917C16.3669 25.3691 16.3669 25.466 16.445 25.5241C17.5583 26.3568 18.7497 26.5311 19.902 26.5892L24.4332 26.6067V26.9088V26.9107ZM24.4332 28.1018L19.8629 28.1192C19.3161 28.1966 18.7106 28.2354 18.2028 28.3709C17.7536 28.4871 17.1482 28.7389 16.7185 28.9907C16.5818 29.0488 16.4255 29.1262 16.3669 29.2618C16.2888 29.5136 16.3279 29.7653 16.3083 29.9977L16.2888 31.2372C16.2693 31.2953 16.2107 31.3921 16.0935 31.4502C16.0544 31.4502 16.0154 31.3728 15.9958 31.3147L16.0544 29.6298C16.074 29.4748 16.0544 29.3005 16.1325 29.1456C16.1521 29.0875 16.2888 29.0488 16.2888 28.9907C16.2888 28.9132 15.781 29.1262 15.7029 29.2231C15.4294 29.4748 15.5076 29.8428 15.449 30.1139C15.4294 30.3076 15.4685 31.0242 15.2927 31.0242C15.1755 31.0242 15.1951 30.8499 15.1951 30.7724C15.1951 30.3076 15.2732 29.7653 15.3513 29.3393C15.3513 29.2812 15.4294 29.0875 15.5662 29.0294C17.2653 28.1385 19.0036 27.9449 20.7223 27.8093H24.1011C24.1422 27.8093 24.2808 27.8209 24.4332 27.8403V28.1018ZM24.4332 28.7428L23.0465 28.7002C22.8707 28.7002 22.6363 28.7002 22.5387 28.7776C22.2067 29.01 21.9918 29.2812 21.9918 29.5136C21.9918 29.591 22.2262 29.9396 22.2262 30.4819C22.2262 30.54 22.2067 31.6826 22.0309 31.6826C21.9527 31.6826 21.9332 31.6052 21.9332 31.5277C21.9332 31.489 21.9918 31.1791 21.9918 31.1016C21.9918 31.0629 21.8551 30.2689 21.777 29.8622C21.6988 29.4555 21.1129 29.2618 21.1129 28.8745C21.1129 28.4097 21.9527 28.4097 22.1871 28.4097C22.2652 28.4097 22.6363 28.4484 22.8512 28.4678H24.0426C24.0836 28.4678 24.2476 28.4794 24.4332 28.4968V28.7428ZM35.7415 19.6173H32.2065C31.9721 19.6173 31.5619 19.8884 31.6596 20.1595L31.6791 34.2971C31.6791 34.3746 31.6401 34.4714 31.5424 34.4521C31.4643 34.4521 31.4643 34.394 31.4448 34.3746L31.4252 20.1402C31.4252 19.7141 31.7182 19.4623 32.226 19.3849H35.7415C35.7806 19.4236 35.8392 19.443 35.8392 19.5204C35.8392 19.5592 35.8001 19.5979 35.7415 19.6173ZM34.9017 38.8095V28.3128H35.4915V38.8095H34.9017ZM66.4831 33.8323H73.1236C73.3971 33.8323 73.4361 33.2707 73.4557 33.2707V27.8287C73.4752 27.7706 73.4752 27.7512 73.5533 27.7512C73.5924 27.7512 73.6314 27.8093 73.651 27.8287V33.4837C73.651 33.7355 73.3385 34.0647 73.0846 34.0647H66.5613C66.405 34.0647 66.405 33.9873 66.405 33.9292C66.405 33.8904 66.4636 33.8517 66.4831 33.8323ZM80.3305 42.7797C80.7016 42.7797 80.9946 43.0121 80.9946 43.2832C80.9946 43.5543 80.7016 43.7867 80.3305 43.7867C79.9594 43.7867 79.6665 43.5737 79.6665 43.2832C79.6665 43.0121 79.9594 42.7797 80.3305 42.7797ZM39.9114 28.3128H42.5188V27.8093L47.8507 31.8763V39.3131H42.4992V38.8095H39.9114V28.3128ZM48.0069 20.5662C47.6944 20.5662 47.4405 20.3145 47.4405 20.0046C47.4405 19.6947 47.6944 19.443 48.0069 19.443C48.3194 19.443 48.5733 19.6947 48.5733 20.0046C48.5733 20.3145 48.3194 20.5662 48.0069 20.5662ZM72.1275 17.0996C71.6979 17.0996 71.0924 17.0415 70.7409 16.964C70.4088 16.9059 69.8815 16.751 69.8229 16.751C69.7448 16.751 69.4518 16.8091 69.276 16.8285L67.5573 16.8478C67.5183 16.8478 67.3815 16.8478 67.3815 16.7123C67.3815 16.4799 68.0847 16.5767 68.4167 16.4992H68.9831C70.0573 16.4992 70.3698 16.383 71.6002 16.2862H72.3229C72.7135 16.2862 73.7291 16.1313 73.8658 15.8989C73.9635 15.7633 73.8658 15.589 74.0416 15.589C74.1197 15.589 74.1783 15.6665 74.1783 15.7633C74.1783 16.4605 72.7916 16.4799 72.733 16.4799L70.6237 16.5767L70.6432 16.6348C70.8971 16.7123 71.1315 16.7704 71.3854 16.7897C71.6393 16.8091 72.069 16.8091 72.1275 16.8091C72.4986 16.8091 73.1822 16.7704 73.5338 16.5961C73.7096 16.5186 74.022 16.1894 74.1002 16.1894C74.1392 16.1894 74.1783 16.2087 74.1978 16.2087V16.3443C73.6705 17.0221 72.733 17.0221 72.1275 17.0996ZM74.1002 38.5965C74.0416 38.5965 73.8463 38.4028 73.7096 38.3254C73.5924 38.2285 73.4557 38.1704 73.358 38.1511C72.9478 38.0155 72.5182 37.9961 72.1275 37.9961C71.8151 37.9961 70.7409 38.1123 70.6041 38.2092C70.9166 38.2479 71.2487 38.2866 71.5612 38.306L72.694 38.3254C72.7135 38.3447 74.1588 38.3835 74.1588 39.0419C74.1588 39.1 74.1197 39.2356 74.0025 39.2356C73.8463 39.2356 73.8853 38.9838 73.8267 38.9257C73.3385 38.5384 72.7525 38.6159 72.2447 38.5384H71.6002L69.569 38.3447C69.5104 38.3447 69.0807 38.4028 68.4167 38.3447C68.2604 38.3447 68.0847 38.306 67.9284 38.2866C67.8698 38.2866 67.362 38.3254 67.362 38.1511C67.362 38.0736 67.362 38.0155 67.5378 37.9961L69.237 38.0155C69.4323 38.0349 69.7253 38.093 69.7838 38.093C70.0182 38.093 71.2096 37.7637 72.1275 37.7637C72.6744 37.7637 73.4947 37.8218 74.0025 38.2479C74.1197 38.3641 74.1978 38.4222 74.1978 38.4997C74.1978 38.5771 74.1783 38.5965 74.1002 38.5965ZM80.3305 12.0062C79.9594 12.0062 79.6665 11.7932 79.6665 11.5027C79.6665 11.2315 79.9594 10.9991 80.3305 10.9991C80.7016 10.9991 80.9946 11.2315 80.9946 11.5027C80.9946 11.7738 80.7016 12.0062 80.3305 12.0062ZM73.651 21.3215V26.9572C73.6314 27.0153 73.5924 27.0347 73.5142 27.0153C73.4361 27.0153 73.4361 26.9572 73.4166 26.9378V21.5152C73.3775 21.399 73.3385 21.031 73.0846 20.9342H66.4441C66.3855 20.9148 66.3659 20.9148 66.3659 20.8374C66.3659 20.7793 66.4441 20.7211 66.5027 20.7018H73.1041C73.4166 20.7018 73.6314 21.1666 73.651 21.3215ZM36.6029 20.0104C36.5911 19.9968 36.5794 19.9852 36.5716 19.9697C36.5501 19.9833 36.5306 19.9968 36.5111 20.0104H36.2923C36.3646 19.9562 36.4603 19.8845 36.5521 19.8187C36.5736 19.7354 36.6439 19.6715 36.7318 19.6618C36.845 19.4217 37.0872 19.2493 37.3821 19.2493C37.7923 19.2493 38.1048 19.5592 38.1048 19.9659C38.1048 19.9813 38.1009 19.9949 38.1009 20.0104H36.6029ZM63.202 35.5172H52.8311C52.4014 35.5172 52.2451 35.0718 52.2451 34.8007C52.2451 34.7426 52.2451 34.4714 52.2647 34.3165C52.2647 34.2778 52.3428 34.2197 52.4014 34.2197C52.4795 34.2197 52.5381 34.2584 52.5576 34.3165V34.9556C52.5576 35.0912 52.7725 35.2267 52.8701 35.2267H55.956V34.2778C55.956 34.2197 56.0341 34.1422 56.1122 34.1422C56.3271 34.1422 56.2685 34.6845 56.2685 34.7813C56.2685 34.8161 56.29 35.0485 56.2587 35.2267H59.6473V33.9873C59.6473 33.9098 59.745 33.8517 59.8036 33.8517C60.0184 33.8517 59.9598 34.4908 59.9598 34.6457C59.9598 34.7464 59.9833 35.0311 59.9422 35.2267H63.1629C63.2605 35.2267 63.5144 34.9362 63.573 34.8781V34.1422C63.6121 34.1035 63.6512 34.0454 63.7098 34.0454C63.9246 34.0454 63.866 34.4133 63.866 34.5489C63.866 34.975 63.9637 35.2073 63.202 35.5172ZM46.796 19.8497L39.0423 19.8303C39.0227 19.8109 38.9641 19.8109 38.9641 19.7335C38.9641 19.6754 39.0423 19.6173 39.1009 19.5979H46.6398C46.9327 19.5979 46.9327 19.7722 47.1476 19.288V12.7228C47.1671 12.684 47.1866 12.6259 47.2452 12.6259C47.3233 12.6259 47.3624 12.6647 47.3819 12.7228V19.2493C47.3819 19.5979 47.128 19.869 46.796 19.8497ZM61.3465 21.5926C61.1707 21.5926 61.0731 21.1085 60.6629 21.1085C60.5848 21.1085 60.37 21.1278 60.2723 21.2053C59.4462 21.6682 58.6337 22.1678 57.8329 22.6462C57.8388 22.6559 57.8466 22.6656 57.8505 22.6772C58.0653 22.987 58.4559 23.5487 58.4559 23.6261C58.4559 23.6842 58.3974 23.7617 58.2997 23.7617C58.2138 23.7617 57.7001 23.02 57.5829 22.7953C57.4638 22.865 57.3446 22.9367 57.2255 23.0064C56.3818 23.5196 55.5302 24.0232 54.6787 24.5286C54.9384 24.945 55.3701 25.6422 55.3701 25.7177C55.3701 25.7758 55.3115 25.8339 55.1943 25.8533C55.1357 25.8533 55.0771 25.8533 55.0576 25.7758C54.8584 25.4873 54.5537 24.9392 54.4287 24.6777C53.5322 25.2123 52.6357 25.7487 51.7569 26.2987C51.6006 26.3762 51.5811 26.5505 51.5811 26.6473C51.5811 26.9766 51.9717 27.1896 51.9717 27.3639C51.9717 27.4026 51.9326 27.4801 51.7764 27.4995C51.5616 27.4995 51.2686 26.841 51.2686 26.6667C51.2686 26.0276 51.874 25.8727 52.4795 25.4853C54.6084 24.149 56.7568 22.8708 58.9442 21.6314C59.413 21.3602 60.0965 20.7986 60.6434 20.7986C60.7215 20.7986 60.8973 20.8373 61.034 20.8954C61.0731 20.8954 61.5028 21.244 61.5028 21.4571C61.5028 21.5152 61.4442 21.5926 61.3465 21.5926Z" fill="black"/>
<path d="M39.9133 38.5966V38.3835H42.3039V38.5966H39.9133Z" fill="url(#paint35_linear_6561_2897)"/>
<path d="M43.124 39.0032V38.3834H46.0927L46.913 39.0032H43.124Z" fill="url(#paint36_linear_6561_2897)"/>
<path d="M46.9131 37.8801V32.4768H47.6357V38.403L46.9131 37.8801Z" fill="url(#paint37_linear_6561_2897)"/>
<path d="M46.0927 31.3728H46.913L43.417 28.7196V29.4361L46.0927 31.3728Z" fill="url(#paint38_linear_6561_2897)"/>
<path d="M37.3625 22.3092C37.7532 22.3092 38.0852 21.9412 38.0852 21.5152V20.3725C38.0852 19.9271 37.7727 19.5785 37.3625 19.5785C36.9719 19.5785 36.6399 19.9465 36.6399 20.3725V21.4958C36.6594 21.9412 36.9719 22.3092 37.3625 22.3092Z" fill="#C3361E"/>
<path d="M36.6594 21.9995H37.1672C37.1672 21.9995 37.1672 21.5928 37.3821 21.5928C37.5969 21.5928 37.4797 22.0963 37.4797 22.0963H37.8899C37.8899 22.0963 38.3586 22.0188 38.3977 21.9995C38.4563 21.9607 38.4953 22.0963 38.4953 22.0963C38.4953 22.0963 37.5188 22.2512 37.8899 22.3093C38.261 22.3674 38.4953 22.3093 38.4953 22.3093L38.3977 22.5223C38.3977 22.5223 37.5188 22.5417 37.2649 22.4255C37.011 22.3093 37.0305 22.2706 36.9524 22.2125C36.8743 22.1544 36.6594 21.9995 36.6594 21.9995Z" fill="#444444"/>
<path d="M36.6594 20.7793C36.6594 20.5082 36.9719 20.2758 37.3821 20.2758C37.7922 20.2758 38.1047 20.5082 38.1047 20.7793V20.8374C38.0656 20.5856 37.7532 20.3726 37.3821 20.3726C37.011 20.3726 36.6985 20.5663 36.6594 20.8374V20.7793Z" fill="#FED100"/>
</g>
<defs>
<linearGradient id="paint0_linear_6561_2897" x1="20.644" y1="27.4027" x2="77.1078" y2="27.4027" gradientUnits="userSpaceOnUse">
<stop/>
<stop offset="0.19" stop-color="#323232"/>
<stop offset="0.84" stop-color="#323232"/>
<stop offset="1"/>
</linearGradient>
<linearGradient id="paint1_linear_6561_2897" x1="48.167" y1="27.4026" x2="50.9306" y2="27.4026" gradientUnits="userSpaceOnUse">
<stop/>
<stop offset="0.53" stop-color="#7C7C7C"/>
<stop offset="0.6" stop-color="#727272"/>
<stop offset="0.71" stop-color="#5A5A5A"/>
<stop offset="0.85" stop-color="#313131"/>
<stop offset="1"/>
</linearGradient>
<linearGradient id="paint2_linear_6561_2897" x1="35.2122" y1="27.3987" x2="40.4484" y2="27.3987" gradientUnits="userSpaceOnUse">
<stop/>
<stop offset="0.53" stop-color="#ACACAC"/>
<stop offset="0.58" stop-color="#A2A2A2"/>
<stop offset="0.67" stop-color="#8A8A8A"/>
<stop offset="0.78" stop-color="#616161"/>
<stop offset="0.91" stop-color="#2A2A2A"/>
<stop offset="1"/>
</linearGradient>
<linearGradient id="paint3_linear_6561_2897" x1="45.6865" y1="27.4569" x2="53.4852" y2="27.4569" gradientUnits="userSpaceOnUse">
<stop/>
<stop offset="0.53" stop-color="#ACACAC"/>
<stop offset="0.58" stop-color="#A2A2A2"/>
<stop offset="0.67" stop-color="#8A8A8A"/>
<stop offset="0.78" stop-color="#616161"/>
<stop offset="0.91" stop-color="#2A2A2A"/>
<stop offset="1"/>
</linearGradient>
<linearGradient id="paint4_linear_6561_2897" x1="36.2473" y1="27.3988" x2="39.4152" y2="27.3988" gradientUnits="userSpaceOnUse">
<stop/>
<stop offset="0.53" stop-color="#7C7C7C"/>
<stop offset="0.6" stop-color="#727272"/>
<stop offset="0.71" stop-color="#5A5A5A"/>
<stop offset="0.85" stop-color="#313131"/>
<stop offset="1"/>
</linearGradient>
<linearGradient id="paint5_linear_6561_2897" x1="33.4661" y1="27.3987" x2="41.6905" y2="27.3987" gradientUnits="userSpaceOnUse">
<stop/>
<stop offset="0.53" stop-color="white"/>
<stop offset="0.57" stop-color="#F5F5F5"/>
<stop offset="0.63" stop-color="#DDDDDD"/>
<stop offset="0.72" stop-color="#B4B4B4"/>
<stop offset="0.82" stop-color="#7C7C7C"/>
<stop offset="0.92" stop-color="#353535"/>
<stop offset="1"/>
</linearGradient>
<linearGradient id="paint6_linear_6561_2897" x1="49.388" y1="27.8105" x2="76.2102" y2="27.8105" gradientUnits="userSpaceOnUse">
<stop/>
<stop offset="1" stop-opacity="0.2"/>
</linearGradient>
<linearGradient id="paint7_linear_6561_2897" x1="42.6179" y1="36.6987" x2="42.6179" y2="20.6051" gradientUnits="userSpaceOnUse">
<stop stop-opacity="0"/>
<stop offset="1"/>
</linearGradient>
<radialGradient id="paint8_radial_6561_2897" cx="0" cy="0" r="1" gradientUnits="userSpaceOnUse" gradientTransform="translate(55.4574 31.6955) scale(1.64254 1.6297)">
<stop/>
<stop offset="0.67"/>
<stop offset="1" stop-color="#222222"/>
</radialGradient>
<radialGradient id="paint9_radial_6561_2897" cx="0" cy="0" r="1" gradientUnits="userSpaceOnUse" gradientTransform="translate(59.3226 31.6955) scale(1.64254 1.6297)">
<stop/>
<stop offset="0.67"/>
<stop offset="1" stop-color="#222222"/>
</radialGradient>
<radialGradient id="paint10_radial_6561_2897" cx="0" cy="0" r="1" gradientUnits="userSpaceOnUse" gradientTransform="translate(63.1173 31.6955) scale(1.64254 1.6297)">
<stop/>
<stop offset="0.67"/>
<stop offset="1" stop-color="#222222"/>
</radialGradient>
<radialGradient id="paint11_radial_6561_2897" cx="0" cy="0" r="1" gradientUnits="userSpaceOnUse" gradientTransform="translate(59.8466 23.6741) scale(1.95113 1.93569)">
<stop/>
<stop offset="0.67"/>
<stop offset="1" stop-color="#222222"/>
</radialGradient>
<linearGradient id="paint12_linear_6561_2897" x1="80.7798" y1="27.5092" x2="98.1623" y2="27.5092" gradientUnits="userSpaceOnUse">
<stop/>
<stop offset="0.88" stop-color="white"/>
<stop offset="1"/>
</linearGradient>
<linearGradient id="paint13_linear_6561_2897" x1="14.4116" y1="34.6281" x2="14.4116" y2="33.3729" gradientUnits="userSpaceOnUse">
<stop stop-opacity="0"/>
<stop offset="1"/>
</linearGradient>
<linearGradient id="paint14_linear_6561_2897" x1="7.99075e-06" y1="27.3504" x2="12.6287" y2="27.3504" gradientUnits="userSpaceOnUse">
<stop/>
<stop offset="0.53" stop-color="white"/>
<stop offset="0.57" stop-color="#F5F5F5"/>
<stop offset="0.63" stop-color="#DDDDDD"/>
<stop offset="0.72" stop-color="#B4B4B4"/>
<stop offset="0.82" stop-color="#7C7C7C"/>
<stop offset="0.92" stop-color="#353535"/>
<stop offset="1"/>
</linearGradient>
<linearGradient id="paint15_linear_6561_2897" x1="1.33593" y1="27.4065" x2="5.64639" y2="27.4065" gradientUnits="userSpaceOnUse">
<stop stop-opacity="0"/>
<stop offset="1"/>
</linearGradient>
<linearGradient id="paint16_linear_6561_2897" x1="6.89062" y1="27.329" x2="8.57614" y2="27.329" gradientUnits="userSpaceOnUse">
<stop stop-opacity="0"/>
<stop offset="1"/>
</linearGradient>
<linearGradient id="paint17_linear_6561_2897" x1="14.4116" y1="22.1903" x2="14.4116" y2="20.9636" gradientUnits="userSpaceOnUse">
<stop stop-opacity="0"/>
<stop offset="1"/>
</linearGradient>
<linearGradient id="paint18_linear_6561_2897" x1="15.7888" y1="33.5652" x2="14.6482" y2="33.5652" gradientUnits="userSpaceOnUse">
<stop stop-color="white"/>
<stop offset="1"/>
</linearGradient>
<linearGradient id="paint19_linear_6561_2897" x1="11.6248" y1="21.7477" x2="11.6248" y2="32.9415" gradientUnits="userSpaceOnUse">
<stop/>
<stop offset="0.42" stop-color="#323232"/>
<stop offset="0.65" stop-color="#323232"/>
<stop offset="1"/>
</linearGradient>
<linearGradient id="paint20_linear_6561_2897" x1="16.3279" y1="32.128" x2="16.3279" y2="34.9943" gradientUnits="userSpaceOnUse">
<stop/>
<stop offset="0.53" stop-color="white"/>
<stop offset="0.57" stop-color="#F5F5F5"/>
<stop offset="0.63" stop-color="#DDDDDD"/>
<stop offset="0.72" stop-color="#B4B4B4"/>
<stop offset="0.82" stop-color="#7C7C7C"/>
<stop offset="0.92" stop-color="#353535"/>
<stop offset="1"/>
</linearGradient>
<linearGradient id="paint21_linear_6561_2897" x1="20.3063" y1="32.4418" x2="20.3063" y2="34.6825" gradientUnits="userSpaceOnUse">
<stop/>
<stop offset="0.53" stop-color="white"/>
<stop offset="0.57" stop-color="#F5F5F5"/>
<stop offset="0.63" stop-color="#DDDDDD"/>
<stop offset="0.72" stop-color="#B4B4B4"/>
<stop offset="0.82" stop-color="#7C7C7C"/>
<stop offset="0.92" stop-color="#353535"/>
<stop offset="1"/>
</linearGradient>
<linearGradient id="paint22_linear_6561_2897" x1="20.1911" y1="20.0181" x2="20.1911" y2="22.2588" gradientUnits="userSpaceOnUse">
<stop/>
<stop offset="0.53" stop-color="white"/>
<stop offset="0.57" stop-color="#F5F5F5"/>
<stop offset="0.63" stop-color="#DDDDDD"/>
<stop offset="0.72" stop-color="#B4B4B4"/>
<stop offset="0.82" stop-color="#7C7C7C"/>
<stop offset="0.92" stop-color="#353535"/>
<stop offset="1"/>
</linearGradient>
<linearGradient id="paint23_linear_6561_2897" x1="22.5054" y1="27.3386" x2="26.1713" y2="27.3386" gradientUnits="userSpaceOnUse">
<stop/>
<stop offset="0.53" stop-color="white"/>
<stop offset="0.57" stop-color="#F5F5F5"/>
<stop offset="0.63" stop-color="#DDDDDD"/>
<stop offset="0.72" stop-color="#B4B4B4"/>
<stop offset="0.82" stop-color="#7C7C7C"/>
<stop offset="0.92" stop-color="#353535"/>
<stop offset="1"/>
</linearGradient>
<linearGradient id="paint24_linear_6561_2897" x1="3.4015e-05" y1="21.1395" x2="0.195343" y2="21.1395" gradientUnits="userSpaceOnUse">
<stop stop-color="white"/>
<stop offset="1"/>
</linearGradient>
<linearGradient id="paint25_linear_6561_2897" x1="16.32" y1="19.7025" x2="16.32" y2="22.5688" gradientUnits="userSpaceOnUse">
<stop/>
<stop offset="0.53" stop-color="white"/>
<stop offset="0.57" stop-color="#F5F5F5"/>
<stop offset="0.63" stop-color="#DDDDDD"/>
<stop offset="0.72" stop-color="#B4B4B4"/>
<stop offset="0.82" stop-color="#7C7C7C"/>
<stop offset="0.92" stop-color="#353535"/>
<stop offset="1"/>
</linearGradient>
<linearGradient id="paint26_linear_6561_2897" x1="15.8083" y1="22.559" x2="15.8083" y2="22.9406" gradientUnits="userSpaceOnUse">
<stop stop-color="#6C6C6C"/>
<stop offset="0.16" stop-color="#626262"/>
<stop offset="0.42" stop-color="#4A4A4A"/>
<stop offset="0.75" stop-color="#222222"/>
<stop offset="1"/>
</linearGradient>
<linearGradient id="paint27_linear_6561_2897" x1="15.8083" y1="31.7562" x2="15.8083" y2="32.1377" gradientUnits="userSpaceOnUse">
<stop/>
<stop offset="0.25" stop-color="#222222"/>
<stop offset="0.58" stop-color="#4A4A4A"/>
<stop offset="0.84" stop-color="#626262"/>
<stop offset="1" stop-color="#6C6C6C"/>
</linearGradient>
<linearGradient id="paint28_linear_6561_2897" x1="8.38153" y1="32.8712" x2="8.38153" y2="35.0536" gradientUnits="userSpaceOnUse">
<stop/>
<stop offset="0.53" stop-color="white"/>
<stop offset="0.57" stop-color="#F5F5F5"/>
<stop offset="0.63" stop-color="#DDDDDD"/>
<stop offset="0.72" stop-color="#B4B4B4"/>
<stop offset="0.82" stop-color="#7C7C7C"/>
<stop offset="0.92" stop-color="#353535"/>
<stop offset="1"/>
</linearGradient>
<linearGradient id="paint29_linear_6561_2897" x1="8.38153" y1="32.8712" x2="8.38153" y2="35.0536" gradientUnits="userSpaceOnUse">
<stop/>
<stop offset="0.53" stop-color="white"/>
<stop offset="0.57" stop-color="#F5F5F5"/>
<stop offset="0.63" stop-color="#DDDDDD"/>
<stop offset="0.72" stop-color="#B4B4B4"/>
<stop offset="0.82" stop-color="#7C7C7C"/>
<stop offset="0.92" stop-color="#353535"/>
<stop offset="1"/>
</linearGradient>
<linearGradient id="paint30_linear_6561_2897" x1="8.38153" y1="20.4365" x2="8.38153" y2="22.6006" gradientUnits="userSpaceOnUse">
<stop/>
<stop offset="0.53" stop-color="white"/>
<stop offset="0.57" stop-color="#F5F5F5"/>
<stop offset="0.63" stop-color="#DDDDDD"/>
<stop offset="0.72" stop-color="#B4B4B4"/>
<stop offset="0.82" stop-color="#7C7C7C"/>
<stop offset="0.92" stop-color="#353535"/>
<stop offset="1"/>
</linearGradient>
<linearGradient id="paint31_linear_6561_2897" x1="42.2252" y1="28.26" x2="42.2252" y2="28.566" gradientUnits="userSpaceOnUse">
<stop stop-color="#171717"/>
<stop offset="1" stop-color="#5C5C5C"/>
</linearGradient>
<linearGradient id="paint32_linear_6561_2897" x1="86.6584" y1="27.6195" x2="95.2716" y2="27.6195" gradientUnits="userSpaceOnUse">
<stop stop-color="#8A8A8A"/>
<stop offset="1" stop-color="white"/>
</linearGradient>
<linearGradient id="paint33_linear_6561_2897" x1="95.293" y1="27.4994" x2="99.8554" y2="27.4994" gradientUnits="userSpaceOnUse">
<stop stop-color="white"/>
<stop offset="1" stop-color="white"/>
</linearGradient>
<linearGradient id="paint34_linear_6561_2897" x1="20.937" y1="27.393" x2="77.0101" y2="27.393" gradientUnits="userSpaceOnUse">
<stop stop-color="#323232"/>
<stop offset="0.37" stop-color="#707070"/>
<stop offset="0.7"/>
<stop offset="1" stop-color="#323232"/>
</linearGradient>
<linearGradient id="paint35_linear_6561_2897" x1="38.6478" y1="39.0222" x2="38.6478" y2="38.8189" gradientUnits="userSpaceOnUse">
<stop stop-color="#171717"/>
<stop offset="1" stop-color="#5C5C5C"/>
</linearGradient>
<linearGradient id="paint36_linear_6561_2897" x1="44.8132" y1="39.0555" x2="44.8132" y2="38.4436" gradientUnits="userSpaceOnUse">
<stop stop-color="#171717"/>
<stop offset="1" stop-color="#5C5C5C"/>
</linearGradient>
<linearGradient id="paint37_linear_6561_2897" x1="47.4879" y1="35.0264" x2="46.7692" y2="35.0264" gradientUnits="userSpaceOnUse">
<stop stop-color="#171717"/>
<stop offset="1" stop-color="#5C5C5C"/>
</linearGradient>
<linearGradient id="paint38_linear_6561_2897" x1="46.8565" y1="29.6843" x2="46.5115" y2="30.3815" gradientUnits="userSpaceOnUse">
<stop stop-color="#171717"/>
<stop offset="1" stop-color="#5C5C5C"/>
</linearGradient>
<clipPath id="clip0_6561_2897">
<rect width="100" height="55" fill="white" transform="matrix(1 0 0 -1 0 55)"/>
</clipPath>
</defs>
</svg>
