<svg width="100" height="56" viewBox="0 0 100 56" fill="none" xmlns="http://www.w3.org/2000/svg">
<path d="M98.9213 39.0382C98.8934 39.3442 98.7816 39.6391 98.5972 39.895L96.4064 42.9163C96.1269 43.3002 95.7022 43.5561 95.2327 43.6229L93.489 43.8733C93.1146 44.0457 92.6898 44.2015 92.2148 44.3184C89.5713 44.9749 85.8156 45.1084 82.3394 45.1251C79.7909 45.1363 77.9243 45.1307 77.1083 45.1307C76.8065 45.1307 76.5103 45.0806 76.2253 44.986L75.2473 44.6578C75.169 44.6299 75.1411 44.5409 75.1858 44.4742H75.102L75.0852 44.4964C75.0517 44.5409 74.9958 44.5687 74.9399 44.5687L72.3635 44.6077C72.2405 45.1196 71.989 45.9486 71.4972 47.0113C70.9551 48.1909 70.0106 49.6987 69.6473 50.1494C69.4517 50.3942 69.1555 50.5388 68.8425 50.5444L68.1439 50.5555L67.8813 50.4276C67.6801 50.3274 67.5851 50.0937 67.6689 49.8823C67.8924 49.3259 68.6581 47.5955 68.9487 46.9167C69.3623 45.9597 70.2677 45.1307 70.2677 45.1307L70.2789 44.6355L60.0514 44.7857L59.8614 45.2698C59.7664 45.459 59.5708 45.5814 59.3584 45.5814H56.9608C56.5696 45.5814 56.1839 45.4868 55.8319 45.3088L54.9488 44.8636H54.8762L54.0658 44.8024C54.0043 44.7969 53.954 44.7468 53.954 44.6856H53.9037C53.8646 44.769 53.7808 44.8247 53.6858 44.8247L48.6726 44.8136L48.4882 45.2698C48.3932 45.459 48.1976 45.5814 47.9852 45.5814H45.5876C45.1964 45.5814 44.8108 45.4868 44.4587 45.3088L43.5198 44.808H43.2068C43.123 44.808 43.0559 44.7524 43.0336 44.68H42.9889C42.9497 44.7468 42.8715 44.7857 42.7932 44.7802L40.3342 44.591C40.1553 44.5799 40.01 44.4519 39.9653 44.2794L39.9262 44.1292H39.3729C39.4064 44.3239 39.2556 44.5075 39.0488 44.5075H36.1538C33.9965 44.6967 32.7614 45.0862 30.375 45.2197C24.9315 45.5257 17.7891 45.3421 13.2007 45.3421C9.28295 45.3421 4.59397 44.3518 3.31414 44.0624C2.9844 44.029 2.68261 44.0012 2.41435 43.979C1.74369 43.9122 1.20158 43.4114 1.08422 42.7493L1.03392 42.4489C1.01156 42.3265 1.10657 42.2208 1.22953 42.2208H1.43072C0.793601 42.0427 0.257079 41.4752 0.240313 40.7964L0 27.9493L0.301794 15.3414C0.31856 14.6682 0.771251 14.1006 1.38602 13.9059V13.7501H1.24071C1.11776 13.7501 1.02275 13.6444 1.0451 13.522L1.0954 13.2215C1.21276 12.5594 1.75488 12.0587 2.42553 11.9919C2.6882 11.9641 2.98999 11.9363 3.32532 11.9084C4.60515 11.6191 9.29413 10.6287 13.2119 10.6287C17.8002 10.6287 24.9427 10.4451 30.3862 10.7511C32.7726 10.8847 34.0077 11.2742 36.165 11.4633H39.0599C39.2611 11.4633 39.4065 11.6358 39.3897 11.8194H39.943L39.9765 11.6803C40.0212 11.5078 40.1665 11.3854 40.3454 11.3687L42.8044 11.1796C42.8883 11.174 42.9721 11.2185 43.0056 11.2909H43.0503C43.0783 11.2296 43.1398 11.1851 43.218 11.1851H43.5142L44.4699 10.6844C44.8164 10.5063 45.2076 10.4117 45.5988 10.4117H47.9964C48.2088 10.4117 48.4044 10.5342 48.4994 10.7233L48.6838 11.1796L53.6969 11.1684C53.792 11.1684 53.8758 11.2241 53.9149 11.3075H53.9652C53.9484 11.2352 53.9987 11.1629 54.077 11.1573L54.8874 11.0961H55.0047L55.8486 10.651C56.1951 10.4729 56.5863 10.3784 56.9776 10.3784L59.3751 10.3784C59.5875 10.3784 59.7831 10.5008 59.8781 10.6899L60.124 11.174L70.29 11.3242L70.2789 10.868C70.2789 10.868 69.3735 10.039 68.9599 9.08197C68.6637 8.40316 67.9036 6.67278 67.6801 6.11639C67.5962 5.90496 67.6913 5.67127 67.8924 5.57112L68.1551 5.44315L68.8537 5.45428C69.1667 5.45984 69.4629 5.60451 69.6585 5.84932C70.0218 6.3 70.9663 7.80783 71.5084 8.98738C71.9834 10.0223 72.2349 10.8346 72.3635 11.3521L74.9511 11.391C75.007 11.391 75.0629 11.4188 75.0964 11.4633L75.1467 11.5245H75.2249L75.197 11.4911C75.1467 11.4244 75.1746 11.3298 75.2529 11.302L76.2309 10.9737C76.5159 10.8791 76.8121 10.829 77.1139 10.829C77.9299 10.8235 79.7965 10.8179 82.345 10.8346C85.8212 10.8513 89.5769 10.9848 92.2204 11.6414C92.8128 11.786 93.3214 11.9919 93.7573 12.22L95.2328 12.4315C95.7022 12.4982 96.127 12.7542 96.4064 13.1381L98.5972 16.1593C98.7816 16.4097 98.8934 16.7046 98.9213 17.0161L99.9888 28.016V28.0383L98.9213 39.0382ZM47.2363 10.8457C47.1972 10.7511 47.1022 10.6899 47.0016 10.6899H45.7944C45.6715 10.6899 45.5653 10.7734 45.5429 10.8958L45.487 11.1963L47.3816 11.1907L47.2363 10.8457ZM45.487 44.808L45.5429 45.1084C45.5653 45.2253 45.6715 45.3143 45.7944 45.3143H47.0016C47.1078 45.3143 47.1972 45.2531 47.2363 45.1585L47.376 44.8136L45.487 44.808ZM56.9217 45.114C56.944 45.2309 57.0502 45.3199 57.1732 45.3199H58.3803C58.4865 45.3199 58.576 45.2587 58.6151 45.1641L58.7436 44.8136L56.8714 44.8414L56.9217 45.114ZM58.6207 10.8123C58.5815 10.7178 58.4865 10.6566 58.3859 10.6566L57.1788 10.6566C57.0558 10.6566 56.9496 10.74 56.9273 10.8624L56.8714 11.1406L58.7604 11.1684L58.6207 10.8123Z" fill="#231F20"/>
<path d="M98.9213 39.0381C98.8934 39.3441 98.7816 39.639 98.5972 39.895L96.4064 42.9162C96.1269 43.3001 95.7022 43.556 95.2327 43.6228L93.489 43.8732C93.1146 44.0456 92.6898 44.2014 92.2148 44.3183C89.5713 44.9748 85.8156 45.1084 82.3394 45.1251C79.7909 45.1362 77.9243 45.1306 77.1083 45.1306C76.8065 45.1306 76.5103 45.0805 76.2253 44.986L75.2473 44.6577C75.169 44.6299 75.1411 44.5408 75.1858 44.4741H75.102L75.0852 44.4963C75.0517 44.5408 74.9958 44.5687 74.9399 44.5687L70.2844 44.6354L60.057 44.7857L54.9544 44.8635H54.8818L54.0714 44.8023C54.0099 44.7968 53.9596 44.7467 53.9596 44.6855H53.9093C53.8702 44.769 53.7864 44.8246 53.6914 44.8246L48.6782 44.8135L43.5254 44.8023H43.2124C43.1286 44.8023 43.0615 44.7467 43.0392 44.6744H42.9944C42.9553 44.7411 42.8771 44.7801 42.7988 44.7745L40.3398 44.5854C40.1609 44.5742 40.0156 44.4463 39.9709 44.2738L39.9318 44.1235L39.5741 42.6714L39.2388 28.0104H38.7693V40.8074C38.7693 41.5252 38.8643 42.2374 39.0544 42.9273L39.3785 44.1235C39.412 44.3183 39.2611 44.5019 39.0544 44.5019H36.1594C34.0021 44.6911 32.767 45.0805 30.3806 45.2141C24.9371 45.5201 17.7947 45.3365 13.2063 45.3365C9.28854 45.3365 4.59956 44.3461 3.31973 44.0568C2.98999 44.0234 2.6882 43.9956 2.41994 43.9733C1.74928 43.9066 1.20717 43.4058 1.08981 42.7437L1.03951 42.4432C1.01715 42.3208 1.11216 42.2151 1.23512 42.2151H1.43631C0.793606 42.0426 0.257084 41.4751 0.240317 40.7963L0 27.9492L0.301794 15.3413C0.31856 14.6681 0.771251 14.1005 1.38602 13.9058V13.75H1.24071C1.11775 13.75 1.02275 13.6443 1.0451 13.5219L1.0954 13.2214C1.21276 12.5593 1.75488 12.0586 2.42553 11.9918C2.6882 11.964 2.98999 11.9362 3.32532 11.9084C4.60515 11.619 9.29413 10.6287 13.2119 10.6287C17.8002 10.6287 24.9427 10.445 30.3862 10.7511C32.7726 10.8846 34.0077 11.2741 36.165 11.4632H39.0599C39.2611 11.4632 39.4064 11.6357 39.3897 11.8193H39.3841L39.0767 12.9544C38.8755 13.6833 38.7749 14.44 38.7749 15.1966V27.9381H39.2444L39.5797 13.3939L39.9374 11.8305H39.943L39.9765 11.6914C40.0212 11.5189 40.1665 11.3965 40.3454 11.3798L42.8044 11.1906C42.8883 11.1851 42.9721 11.2296 43.0056 11.3019H43.0503C43.0783 11.2407 43.1398 11.1962 43.218 11.1962H43.5142L48.6838 11.185L53.6969 11.1739C53.792 11.1739 53.8758 11.2296 53.9149 11.313H53.9652C53.9484 11.2407 53.9987 11.1684 54.077 11.1628L54.8874 11.1016H55.0047L60.1184 11.1795L74.9399 11.402C74.9958 11.402 75.0517 11.4299 75.0852 11.4744L75.1355 11.5356H75.2137L75.1858 11.5022C75.1355 11.4354 75.1634 11.3408 75.2417 11.313L76.2197 10.9847C76.5047 10.8902 76.8009 10.8401 77.1027 10.8401C77.9187 10.8345 79.7853 10.829 82.3338 10.8456C85.8101 10.8623 89.5657 10.9959 92.2092 11.6524C92.8016 11.7971 93.3102 12.0029 93.7461 12.2311L95.2216 12.4425C95.691 12.5093 96.1158 12.7652 96.3952 13.1491L98.586 16.1703C98.7704 16.4207 98.8822 16.7156 98.9101 17.0272L99.9776 28.0271V28.0493L98.9213 39.0381Z" fill="#FF0000"/>
<path d="M97.8481 39.7055C97.373 40.8238 96.0765 41.8698 96.0206 41.9143L96.0094 41.9255H95.9926C95.9926 41.9255 95.9311 41.9366 95.8026 41.9533C95.8362 42.0145 95.8306 42.0868 95.7914 42.1425C95.5008 42.5264 94.7799 43.3109 93.5224 43.8895C93.3045 43.9897 92.9132 44.1121 92.617 44.1956C94.4055 43.6447 95.389 42.582 95.7411 42.1258C95.7635 42.0924 95.7635 42.0312 95.7411 42.0034C95.7244 41.9755 95.6853 41.9589 95.6461 41.97C95.6461 41.97 95.6461 41.97 95.6405 41.97C94.8861 42.098 92.9132 42.4262 90.7839 42.6321C88.0342 42.9047 81.5009 43.1885 79.9026 43.2553C78.2595 43.322 76.0742 43.3276 75.4483 43.3276C75.426 43.3276 75.4036 43.3332 75.3812 43.3332C75.2807 43.3498 75.2862 43.3944 75.2918 43.4166L75.3198 44.101C75.3254 44.2178 75.2974 44.3513 75.2248 44.4404L75.18 44.5016C75.1689 44.5183 75.1689 44.535 75.1745 44.5517C75.18 44.5739 75.1968 44.5906 75.208 44.6073L75.2415 44.6351C75.1856 44.6184 75.1297 44.6017 75.113 44.5461L74.9174 44.5517C74.9565 44.5517 75.0012 44.5461 75.0683 44.5071L75.1689 44.3847C75.2192 44.3235 75.2248 44.1844 75.2248 44.1121V43.6002C75.2248 43.4667 75.1353 43.3554 75.0012 43.322C73.6152 42.9993 68.9933 41.9088 67.6408 41.7085C67.6129 41.7029 67.5793 41.6973 67.5514 41.6973C67.5402 41.6973 67.529 41.6973 67.5178 41.6973C67.2496 41.664 66.3722 41.5694 65.4053 41.4859C64.4384 41.4192 63.4324 41.3802 62.4767 41.358C61.4484 41.358 59.755 41.358 58.2293 41.3524C58.1455 41.3524 58.1007 41.3524 58.0952 41.3524H54.9319C54.876 41.3524 54.8257 41.3969 54.8257 41.4581V41.8921C54.8257 41.9422 54.8202 41.9922 54.8034 42.0368L53.9818 44.6574C53.9762 44.6796 53.9818 44.6963 53.9874 44.7186C54.0042 44.7742 54.088 44.7909 54.088 44.7909C54.0321 44.7853 53.965 44.7686 53.9483 44.6796C53.8477 44.8243 53.6912 44.8132 53.6912 44.8132C53.775 44.8132 53.8756 44.752 53.9036 44.6741L54.7195 42.0757C54.7307 42.0368 54.7363 41.9533 54.7363 41.9088V41.3913C54.7363 41.3301 54.6525 41.319 54.5966 41.3023L54.4233 41.2578L43.9723 41.2133C43.9276 41.2133 43.8885 41.2522 43.8885 41.2967L43.8717 41.881C43.8717 41.8977 43.8661 41.9088 43.8661 41.9255C43.8606 41.9589 43.855 41.9978 43.8494 42.0312L43.4246 43.4444L43.0614 44.6017C43.0502 44.6407 43.0446 44.7019 43.0725 44.7353C43.0781 44.7464 43.0949 44.7575 43.1061 44.7686L43.0055 44.7019C42.9496 44.7575 42.8993 44.7686 42.849 44.7742L42.7763 44.7686C42.849 44.7742 42.9664 44.752 43.0055 44.6407L43.3631 43.3999L43.7432 41.9978C43.7488 41.97 43.7544 41.9422 43.76 41.9143C43.76 41.9032 43.76 41.8921 43.76 41.881V41.5304C43.76 41.3579 43.6202 41.2189 43.447 41.2189H41.4853C41.3568 41.2189 41.2338 41.1799 41.1276 41.1076L40.5575 40.7125C40.4849 40.6625 40.3787 40.7125 40.3787 40.8016V40.8182L40.3732 41.2967C40.3787 41.4247 40.3396 41.5471 40.2669 41.6528L39.5516 42.6432L39.9931 44.3124C40.0322 44.4626 40.1608 44.5683 40.3117 44.5795L40.3173 44.585C40.1161 44.5683 40.0099 44.4738 39.9652 44.279L39.5181 42.5709L40.1999 41.6083C40.2614 41.5249 40.2893 41.4247 40.2837 41.3246L40.2725 41.0909C40.2669 40.9852 40.2781 40.3843 40.2781 40.1728V15.8195C40.2781 15.6081 40.2669 15.0071 40.2725 14.9014L40.2837 14.6677C40.2893 14.5676 40.2558 14.4674 40.1999 14.384L39.5181 13.4214L39.9652 11.7133C40.0154 11.5186 40.1161 11.424 40.3173 11.4073L40.3117 11.4128C40.1608 11.424 40.0322 11.5352 39.9931 11.6799L39.5516 13.3491L40.2669 14.3395C40.3396 14.4396 40.3787 14.5676 40.3732 14.6956L40.3787 15.1741V15.1908C40.3787 15.2798 40.4849 15.3298 40.5575 15.2798L41.1276 14.8847C41.2338 14.8124 41.3568 14.7735 41.4853 14.7735H43.447C43.6202 14.7735 43.7599 14.6344 43.7599 14.4619V14.1114C43.7599 14.1002 43.7599 14.0891 43.7599 14.078C43.7543 14.0502 43.7488 14.0223 43.7432 13.9945L43.3631 12.5924L43.0054 11.3516C42.9663 11.2404 42.849 11.2181 42.7763 11.2237L42.849 11.2181C42.8993 11.2237 42.9496 11.2348 43.0054 11.2904L43.106 11.2237C43.0949 11.2348 43.0837 11.2459 43.0725 11.2571C43.0502 11.2904 43.0502 11.3516 43.0613 11.3906L43.4246 12.5479L43.8494 13.9611C43.8605 13.9945 43.8661 14.0279 43.8661 14.0668C43.8661 14.0835 43.8717 14.0947 43.8717 14.1114L43.8885 14.6956C43.8885 14.7401 43.9276 14.779 43.9723 14.779L54.4233 14.7345L54.5966 14.69C54.6525 14.6733 54.7363 14.6622 54.7363 14.601V14.0835C54.7363 14.039 54.7363 13.9556 54.7195 13.9166L53.9036 11.3183C53.8812 11.2404 53.775 11.1792 53.6912 11.1792C53.6912 11.1792 53.8533 11.1625 53.9483 11.3127C53.9594 11.2237 54.0321 11.207 54.088 11.2014C54.088 11.2014 54.0042 11.2181 53.9874 11.2737C53.9818 11.296 53.9762 11.3127 53.9818 11.335L54.8034 13.9556C54.8201 14.0056 54.8257 14.0502 54.8257 14.1002V14.5342C54.8257 14.5898 54.8704 14.6399 54.9319 14.6399H58.0952C58.1007 14.6399 58.151 14.6399 58.2293 14.6399C59.755 14.6399 61.4484 14.6344 62.4767 14.6344C63.4268 14.6121 64.4384 14.5732 65.4053 14.5064C66.3721 14.4229 67.2496 14.3228 67.5178 14.295C67.529 14.295 67.5402 14.295 67.5514 14.295C67.5849 14.2894 67.6128 14.2838 67.6408 14.2838C68.9933 14.0835 73.6152 12.993 75.0012 12.6703C75.1297 12.6425 75.2247 12.5256 75.2247 12.3921V11.8802C75.2247 11.8023 75.2136 11.6632 75.1689 11.6076L75.0683 11.4852C75.0012 11.4462 74.9565 11.4407 74.9173 11.4407L75.1129 11.4462C75.1297 11.3906 75.1856 11.3795 75.2415 11.3572L75.208 11.385C75.1968 11.4017 75.18 11.424 75.1744 11.4407C75.1689 11.4629 75.1689 11.474 75.18 11.4907L75.2248 11.5519C75.2974 11.641 75.3253 11.7745 75.3197 11.8913L75.2918 12.5757C75.2918 12.598 75.2862 12.6425 75.3812 12.6592C75.4036 12.6647 75.426 12.6647 75.4483 12.6647C75.9736 12.6647 77.5888 12.6703 79.0642 12.7148L79.0251 12.648L79.1313 12.6536C79.1704 12.6536 83.2111 12.8984 85.3795 12.9819C87.6151 13.0709 91.1136 13.3324 92.7567 13.5828C92.835 13.5939 92.9188 13.605 92.997 13.6217C93.3324 13.6662 93.6565 13.7107 93.9527 13.7553C94.9643 13.8888 95.6797 13.9611 95.7467 13.9723C95.7579 13.9389 95.7579 13.8944 95.7356 13.8721C95.389 13.4159 94.3998 12.3587 92.6114 11.8023C92.9076 11.8913 93.3045 12.0137 93.5168 12.1083C94.7743 12.687 95.4952 13.4771 95.7858 13.8554C95.8194 13.8999 95.8306 13.95 95.8194 14.0001C96.015 14.1169 96.7359 14.6399 97.6637 16.5317C98.7646 18.7628 99.4353 25.1725 99.4353 28.789C99.4465 32.4779 98.3511 38.5259 97.8481 39.7055ZM58.0337 14.8736L54.5686 14.8792C54.5016 14.8903 54.4345 14.9014 54.3674 14.9014C54.3674 14.9014 54.3674 14.9014 54.3618 14.9014L41.6529 14.8903C41.5188 14.8903 41.3847 14.9293 41.2729 14.996L40.6414 15.3799C40.4849 15.4745 40.3899 15.6414 40.3899 15.8251V24.2043L40.6246 24.0819C40.8035 23.9873 41.0159 23.9929 41.1891 24.0986C41.3623 24.2043 41.4686 24.3879 41.4686 24.5882V27.9377V28.0435V31.3929C41.4686 31.5932 41.3623 31.7769 41.1891 31.8826C41.0159 31.9883 40.8035 31.9938 40.6246 31.8993L40.3899 31.7769V40.1728C40.3899 40.3509 40.4849 40.5234 40.6414 40.618L41.2729 41.0019C41.3903 41.0742 41.5188 41.1076 41.6529 41.1076L54.3674 41.102C54.3674 41.102 54.3674 41.102 54.373 41.102C54.4401 41.102 54.5071 41.1076 54.5742 41.1243L58.0392 41.1298C58.1175 41.1298 63.9913 40.9796 67.719 41.4637C67.9481 41.0575 68.4176 40.1172 68.6412 38.8653C68.9597 37.096 69.2 32.5224 69.2 28.2326V28.0601V27.9544V27.7819C69.2 23.4866 68.9597 18.9186 68.6412 17.1493C68.4176 15.8974 67.9481 14.9571 67.719 14.5509C63.9913 15.0238 58.1175 14.8736 58.0337 14.8736ZM75.4539 12.7649C75.398 12.7649 75.1241 12.7482 75.0292 12.7705C73.6878 13.082 69.323 14.128 67.8085 14.3617C67.7861 14.3673 67.7693 14.3729 67.7526 14.3896C67.7581 14.3951 67.7637 14.4062 67.7693 14.4118C67.9817 14.7735 68.507 15.7638 68.753 17.1214C69.0715 18.8963 69.3118 23.4755 69.3118 27.7764V27.9489V28.0546V28.2271C69.3118 32.528 69.0715 37.1071 68.753 38.882C68.507 40.2396 67.9873 41.23 67.7693 41.5916C67.7637 41.6028 67.7581 41.6083 67.7526 41.6139C67.7693 41.625 67.7861 41.6362 67.8085 41.6417C69.323 41.8754 73.6878 42.9214 75.0292 43.233C75.1241 43.2553 75.398 43.2386 75.4539 43.2386C76.0016 43.2386 77.7117 43.2274 79.2263 43.1885L79.2542 43.1495C79.2598 43.144 79.7349 42.5208 80.3385 41.2133C80.657 40.5289 81.6965 37.5467 81.6965 28.0156C81.6965 18.646 80.3329 15.1518 80.3217 15.1184C80.0311 14.3896 79.3213 13.1599 79.1257 12.8261C77.6447 12.776 75.9904 12.7649 75.4539 12.7649ZM97.5742 16.5706C96.6521 14.7011 95.9367 14.1892 95.7691 14.0835C95.7355 14.1114 95.702 14.1225 95.6573 14.1225C95.6461 14.1225 95.6349 14.1225 95.6294 14.1225C95.2885 14.0613 94.6904 13.9611 93.9416 13.8498C93.6454 13.8109 93.3268 13.7664 92.9859 13.7163C92.3041 13.6273 91.5496 13.5327 90.7783 13.4548C88.0286 13.1877 81.5009 12.8984 79.9081 12.8372C79.7014 12.8316 79.489 12.8205 79.2654 12.815C79.5002 13.2211 80.154 14.3673 80.4335 15.0628C80.6347 15.5691 80.9756 16.8599 81.255 18.8296C81.6295 21.4391 81.8139 24.5215 81.8139 27.9989C81.8139 31.6489 81.663 34.7257 81.3612 37.1405C81.065 39.533 80.6961 40.6903 80.4447 41.2411C79.964 42.276 79.5672 42.8825 79.4107 43.105C80.0087 43.0828 82.9037 42.9826 86.4079 42.7934C89.6661 42.6154 92.237 42.2927 93.6174 42.1146C93.9192 42.0757 94.1819 42.0423 94.3774 42.0201C94.9531 41.9533 95.3611 41.8976 95.6182 41.8587C95.8082 41.8309 95.9144 41.8142 95.9535 41.8086C96.0821 41.7029 97.2948 40.6903 97.7363 39.6498C98.2337 38.4814 99.3291 32.4557 99.3291 28.7668C99.3347 25.178 98.6641 18.7906 97.5742 16.5706Z" fill="#231F20"/>
<path opacity="0.2" d="M97.7478 39.6614C97.3062 40.6963 96.0935 41.7145 95.965 41.8202C95.9258 41.8257 95.8197 41.8424 95.6296 41.8703C95.3725 41.9092 94.9646 41.9648 94.3889 42.0316C94.1878 42.0539 93.9306 42.0873 93.6289 42.1262C92.2484 42.3042 89.6776 42.627 86.4194 42.805C82.9152 42.9942 80.0202 43.0943 79.4222 43.1166C79.5731 42.8996 79.9755 42.2876 80.4561 41.2527C80.7132 40.7018 81.0765 39.5445 81.3727 37.152C81.6745 34.7373 81.8254 31.6604 81.8254 28.0105C81.8254 24.533 81.6353 21.4451 81.2665 18.8411C80.9871 16.8715 80.6462 15.5807 80.445 15.0743C80.1655 14.3789 79.5116 13.2327 79.2769 12.8265C79.4949 12.8321 79.7128 12.8376 79.9196 12.8488C81.518 12.91 88.0457 13.1993 90.7898 13.4664C91.561 13.5443 92.3155 13.6333 92.9973 13.7279C93.3326 13.7779 93.6568 13.8225 93.953 13.8614C94.7019 13.9727 95.2999 14.0728 95.6409 14.134C95.6519 14.134 95.6632 14.134 95.6688 14.134C95.7079 14.134 95.747 14.1173 95.7806 14.0951C95.9482 14.1952 96.6635 14.7071 97.5857 16.5822C98.6755 18.7966 99.3462 25.1896 99.3462 28.7894C99.335 32.4672 98.2452 38.493 97.7478 39.6614Z" fill="url(#paint0_linear_2587_199)"/>
<path opacity="0.2" d="M68.6414 38.8603C68.4178 40.1122 67.9484 41.0525 67.7192 41.4587C63.9915 40.9746 58.1177 41.1248 58.0395 41.1248L54.5744 41.1193C54.5074 41.1082 54.4403 41.097 54.3733 41.097C54.3733 41.097 54.3733 41.097 54.3677 41.097L41.6532 41.1082C41.519 41.1082 41.385 41.0692 41.2732 41.0024L40.6416 40.6185C40.4851 40.5239 40.3901 40.357 40.3901 40.1734V31.7886L40.6249 31.911C40.8037 32.0056 41.016 32 41.1893 31.8943C41.3626 31.7886 41.4688 31.605 41.4688 31.4047V28.0552V27.9494V24.6C41.4688 24.3997 41.3626 24.2161 41.1893 24.1103C41.016 24.0046 40.8037 23.9991 40.6249 24.0936L40.3901 24.2161V15.8312C40.3901 15.6532 40.4851 15.4807 40.6416 15.3861L41.2732 15.0022C41.3905 14.9298 41.519 14.8965 41.6532 14.8965L54.3677 14.902C54.3677 14.902 54.3677 14.902 54.3733 14.902C54.4403 14.902 54.5074 14.8965 54.5744 14.8798L58.0395 14.8742C58.1177 14.8742 63.9915 15.0244 67.7192 14.5404C67.9484 14.9465 68.4178 15.8868 68.6414 17.1387C68.9599 18.908 69.2002 23.4816 69.2002 27.7714V27.9439V28.0496V28.2221C69.2003 32.5174 68.9599 37.0854 68.6414 38.8603Z" fill="url(#paint1_linear_2587_199)"/>
<path opacity="0.2" d="M40.7253 15.6978L40.9824 15.5531C41.2116 15.4251 41.491 15.5865 41.491 15.848V40.3571C41.491 40.6186 41.206 40.78 40.9824 40.652L40.7253 40.5074C40.5353 40.3961 40.418 40.1958 40.418 39.9788V16.2263C40.418 16.0038 40.5353 15.8035 40.7253 15.6978Z" fill="url(#paint2_linear_2587_199)"/>
<path d="M80.372 41.2024C79.7628 42.5099 79.2934 43.1331 79.2878 43.1387L79.2599 43.1776C77.7453 43.2221 76.0295 43.2277 75.4874 43.2277C75.4315 43.2277 75.1577 43.2444 75.0627 43.2221C73.7214 42.9106 69.3565 41.8645 67.842 41.6308C67.8197 41.6253 67.8028 41.6197 67.7861 41.603C67.7917 41.5975 67.7973 41.5863 67.8028 41.5808C68.0153 41.2191 68.5405 40.2287 68.7865 38.8711C69.105 37.0962 69.3454 32.5171 69.3454 28.2162V28.0437V27.938V27.7655C69.3454 23.4646 69.105 18.8855 68.7865 17.1106C68.5405 15.753 68.0208 14.7626 67.8028 14.4009C67.7973 14.3898 67.7917 14.3843 67.7861 14.3787C67.8028 14.3676 67.8197 14.3564 67.842 14.3509C69.3565 14.1172 73.7214 13.0712 75.0627 12.7596C75.1577 12.7373 75.4315 12.754 75.4874 12.754C76.024 12.754 77.6782 12.7596 79.1648 12.8041C79.3605 13.1435 80.0647 14.3676 80.3609 15.0964C80.372 15.1298 81.7357 18.6295 81.7357 27.9936C81.7301 37.5358 80.6906 40.5181 80.372 41.2024Z" fill="url(#paint3_linear_2587_199)"/>
<path opacity="0.25" d="M37.6682 40.4347V15.5695L28.7094 15.525L28.7038 15.5806V15.6808C28.7038 16.6322 27.927 17.4056 26.9713 17.4056H21.8072H16.5706C15.6093 17.4056 14.8269 16.6266 14.8269 15.6696V15.5806L14.8325 15.2245C14.8325 15.219 14.838 15.2134 14.838 15.2023C14.838 15.2078 14.8325 15.2134 14.8325 15.219L12.7534 15.2078C12.6417 15.2078 12.5355 15.1633 12.4516 15.091L12.2728 14.9296C12.189 14.8573 12.0828 14.8128 11.9766 14.8128L9.55106 14.8017C9.42252 14.8017 9.29957 14.8573 9.21574 14.9519L9.1375 15.0353C9.05366 15.1299 8.93071 15.1856 8.80217 15.1856L7.2429 15.18C7.18142 15.18 7.11995 15.1911 7.06406 15.2134L6.71756 15.3636C6.66167 15.3859 6.76786 15.4972 6.71197 15.4972L5.58862 15.4916L5.58862 40.6016L6.53871 40.5961C6.60019 40.5961 6.66167 40.6072 6.71756 40.6294L7.06406 40.7741C7.11995 40.7964 7.18142 40.8075 7.2429 40.8075L8.80217 40.8019C8.93071 40.8019 9.05366 40.8576 9.1375 40.9522L9.21574 41.0356C9.29957 41.1302 9.42252 41.1859 9.55106 41.1859L11.9766 41.1747C12.0884 41.1747 12.1946 41.1302 12.2728 41.0579L12.4516 40.8965C12.5355 40.8242 12.6417 40.7797 12.7534 40.7797L14.8269 40.7686C14.8269 40.763 14.8269 40.763 14.8213 40.7574L14.8157 40.4013V40.3123C14.8157 39.3553 15.5981 38.5764 16.5594 38.5764H21.7961H26.9601C27.9158 38.5764 28.6926 39.3497 28.6926 40.3012V40.4013L28.6982 40.457L28.7038 40.4681L37.6682 40.4347Z" fill="url(#paint4_radial_2587_199)"/>
<path opacity="0.3" d="M43.2179 44.8081L53.6968 44.8303C53.803 44.8303 53.898 44.7636 53.9316 44.6634L54.7363 42.1096C54.7531 42.065 54.7587 42.015 54.7587 41.9649V41.4475C54.7587 41.364 54.7028 41.2861 54.619 41.2638L54.4401 41.2138L43.9835 41.1692C43.9053 41.1692 43.8438 41.2305 43.8438 41.3084L43.8271 41.887C43.8271 41.9315 43.8159 41.976 43.8047 42.015L43.0446 44.5688C42.9999 44.6857 43.0893 44.8025 43.2179 44.8081Z" fill="url(#paint5_linear_2587_199)"/>
<path d="M1.84988 13.8339H2.07902L2.07902 42.299H1.90018C1.06187 42.299 0.262673 41.6369 0.240318 40.8023L0 27.9496L0.301794 15.3417C0.324149 14.5016 1.00598 13.8339 1.84988 13.8339Z" fill="url(#paint6_linear_2587_199)"/>
<path opacity="0.2" d="M2.98438 43.9902C2.98438 43.9902 8.62345 45.3478 13.2062 45.3478C17.789 45.3478 24.9371 45.5314 30.3806 45.2254C32.8564 45.0863 34.0915 44.6746 36.4108 44.491C27.3123 44.4854 2.98438 43.9902 2.98438 43.9902Z" fill="url(#paint7_linear_2587_199)"/>
<path opacity="0.2" d="M38.8475 27.4484L38.8363 14.8962C38.8363 13.5275 39.1493 12.4759 39.3617 11.9139C39.4455 11.7025 39.2834 11.4688 39.0543 11.4688H10.8198C8.10923 11.4688 4.29769 11.8082 2.42545 11.9918C1.7548 12.0586 1.21269 12.5593 1.09532 13.2214L1.04502 13.5219C1.02267 13.6443 1.11768 13.75 1.24063 13.75L37.6906 13.2548V27.4484V28.5278V42.7214L1.24063 42.2262C1.11768 42.2262 1.02267 42.3319 1.04502 42.4544L1.09532 42.7548C1.21269 43.4169 1.7548 43.9177 2.42545 43.9844C4.30328 44.168 8.10924 44.5074 10.8198 44.5074H39.0543C39.2834 44.5074 39.4455 44.2793 39.3617 44.0623C39.1493 43.5059 38.8363 42.4488 38.8363 41.0801L38.8475 28.5278V27.4484Z" fill="url(#paint8_linear_2587_199)"/>
<path opacity="0.2" d="M2.98438 11.9866C2.98438 11.9866 8.62345 10.629 13.2062 10.629C17.789 10.629 24.9371 10.4454 30.3806 10.7514C32.8564 10.8905 34.0915 11.3022 36.4108 11.4858C27.3123 11.4913 2.98438 11.9866 2.98438 11.9866Z" fill="url(#paint9_linear_2587_199)"/>
<path d="M4.87343 42.5545H3.92893C3.81156 42.5545 3.71655 42.6491 3.71655 42.7659V43.2333C3.71655 43.3502 3.81156 43.4447 3.92893 43.4447H4.87343C4.99079 43.4447 5.0858 43.3502 5.0858 43.2333V42.7659C5.0858 42.6491 4.99079 42.5545 4.87343 42.5545ZM36.1035 43.8398H35.159C35.0416 43.8398 34.9466 43.7452 34.9466 43.6284V43.161C34.9466 43.0441 35.0416 42.9496 35.159 42.9496H36.1035C36.2209 42.9496 36.3159 43.0441 36.3159 43.161V43.6284C36.3159 43.7452 36.2209 43.8398 36.1035 43.8398ZM36.1035 13.0267H35.159C35.0416 13.0267 34.9466 12.9321 34.9466 12.8153V12.3479C34.9466 12.2311 35.0416 12.1365 35.159 12.1365H36.1035C36.2209 12.1365 36.3159 12.2311 36.3159 12.3479V12.8153C36.3159 12.9321 36.2209 13.0267 36.1035 13.0267ZM5.16964 13.4718H4.22513C4.10777 13.4718 4.01276 13.3772 4.01276 13.2604V12.793C4.01276 12.6762 4.10777 12.5816 4.22513 12.5816H5.16964C5.287 12.5816 5.38201 12.6762 5.38201 12.793V13.2604C5.38201 13.3772 5.287 13.4718 5.16964 13.4718Z" fill="#231F20"/>
<path opacity="0.3" d="M5.54412 15.5135L2.02319 13.7942L2.02319 42.2593L5.54412 40.5902L5.54412 15.5135Z" fill="url(#paint10_linear_2587_199)"/>
<path opacity="0.2" d="M5.5049 40.6011L6.54442 40.5956C6.60589 40.5956 6.66737 40.6067 6.72326 40.6289L7.06976 40.7736C7.12565 40.7959 7.18712 40.807 7.2486 40.807L8.80787 40.8014C8.93641 40.8014 9.05936 40.8571 9.14319 40.9517L9.22144 41.0351C9.30527 41.1297 9.42822 41.1853 9.55676 41.1853L11.9823 41.1742C12.0941 41.1742 12.2003 41.1297 12.2785 41.0574L12.4573 40.896C12.5412 40.8237 12.6474 40.7792 12.7591 40.7792L14.8382 40.768C15.0394 41.5192 15.8944 41.9309 16.6825 41.9253L26.9882 41.981C27.7538 41.9754 28.4245 41.4691 28.6368 40.7347L28.7151 40.4676L37.7242 40.4231V42.7711L2.15723 42.2703L5.5049 40.6011Z" fill="url(#paint11_linear_2587_199)"/>
<path opacity="0.3" d="M6.67302 39.0382H5.99678C5.85147 39.0382 5.72852 39.1551 5.72852 39.3053V39.934C5.72852 40.0787 5.84588 40.2011 5.99678 40.2011H6.67302C6.81832 40.2011 6.94128 40.0843 6.94128 39.934V39.3053C6.93569 39.1551 6.81832 39.0382 6.67302 39.0382Z" fill="url(#paint12_linear_2587_199)"/>
<path opacity="0.3" d="M37.5453 38.8265H29.6093C29.5142 38.8265 29.436 38.9043 29.436 38.9989V39.6444C29.436 39.7389 29.5142 39.8168 29.6093 39.8168H37.5453V38.8265Z" fill="url(#paint13_linear_2587_199)"/>
<path opacity="0.3" d="M14.0501 38.8265H7.93036C7.81299 38.8265 7.7124 38.921 7.7124 39.0434V39.5998C7.7124 39.7167 7.80741 39.8168 7.93036 39.8168H14.0501C14.1674 39.8168 14.268 39.7223 14.268 39.5998V39.0434C14.268 38.921 14.1674 38.8265 14.0501 38.8265Z" fill="url(#paint14_linear_2587_199)"/>
<path opacity="0.3" d="M37.5064 36.8517H5.64478V37.9701H11.7198C11.8315 37.9701 11.9377 37.92 12.0048 37.8254L12.1836 37.5917C12.2507 37.5027 12.3513 37.4526 12.4631 37.4526H13.9273C14.0391 37.4526 14.1397 37.5027 14.2068 37.5917L14.3856 37.8254C14.4527 37.9145 14.5589 37.9701 14.6706 37.9701H20.4047C20.5109 37.9701 20.6059 37.9256 20.673 37.8421L20.9357 37.5138C21.0027 37.4304 21.1033 37.3803 21.2151 37.3803H22.5005C22.6123 37.3803 22.7185 37.436 22.7855 37.525L23.0091 37.8254C23.0762 37.9145 23.1768 37.9645 23.283 37.9645H29.1847C29.2965 37.9645 29.4027 37.9145 29.4753 37.831L29.7268 37.5361C29.7939 37.4582 29.8945 37.4081 30.0007 37.4081H31.1855C31.3084 37.4081 31.4258 37.4749 31.4929 37.5806L31.6214 37.7809C31.6885 37.8922 31.8114 37.959 31.9455 37.959H37.512V36.8517H37.5064Z" fill="url(#paint15_linear_2587_199)"/>
<path opacity="0.15" d="M5.54409 15.4972L6.71215 15.5028C6.77362 15.5028 6.66185 15.3915 6.71774 15.3692L7.06424 15.219C7.12013 15.1968 7.1816 15.1857 7.24308 15.1857L8.80235 15.1912C8.93089 15.1912 9.05384 15.1356 9.13768 15.041L9.21592 14.9575C9.29975 14.863 9.4227 14.8073 9.55124 14.8073L11.9768 14.8184C12.0885 14.8184 12.1947 14.863 12.273 14.9353L12.4518 15.0966C12.5357 15.169 12.6418 15.2135 12.7536 15.2135L14.8326 15.2246C15.0338 14.4734 15.8889 14.0617 16.6769 14.0673L26.9826 14.0116C27.7483 14.0172 28.419 14.5235 28.6313 15.258L28.7096 15.525L37.7187 15.5696V13.2272L2.01758 13.7279L5.54409 15.4972Z" fill="url(#paint16_linear_2587_199)"/>
<path opacity="0.3" d="M6.67302 16.9603H5.99678C5.85147 16.9603 5.72852 16.8435 5.72852 16.6932V16.0645C5.72852 15.9198 5.84588 15.7974 5.99678 15.7974H6.67302C6.81832 15.7974 6.94128 15.9143 6.94128 16.0645V16.6932C6.93569 16.8435 6.81832 16.9603 6.67302 16.9603Z" fill="url(#paint17_linear_2587_199)"/>
<path opacity="0.3" d="M37.5453 17.1774H29.6093C29.5142 17.1774 29.436 17.0995 29.436 17.0049V16.3595C29.436 16.265 29.5142 16.1871 29.6093 16.1871H37.5453V17.1774Z" fill="url(#paint18_linear_2587_199)"/>
<path opacity="0.3" d="M14.0501 17.1774H7.93036C7.81299 17.1774 7.7124 17.0828 7.7124 16.9605V16.4041C7.7124 16.2872 7.80741 16.1871 7.93036 16.1871H14.0501C14.1674 16.1871 14.268 16.2816 14.268 16.4041V16.9605C14.268 17.0828 14.1674 17.1774 14.0501 17.1774Z" fill="url(#paint19_linear_2587_199)"/>
<path opacity="0.3" d="M37.5064 19.1526L5.64478 19.1526V18.0342H11.7198C11.8315 18.0342 11.9377 18.0843 12.0048 18.1789L12.1836 18.4126C12.2507 18.5016 12.3513 18.5517 12.4631 18.5517H13.9273C14.0391 18.5517 14.1397 18.5016 14.2068 18.4126L14.3856 18.1789C14.4527 18.0898 14.5589 18.0342 14.6706 18.0342H20.4047C20.5109 18.0342 20.6059 18.0788 20.673 18.1622L20.9357 18.4905C21.0027 18.574 21.1033 18.624 21.2151 18.624H22.5005C22.6123 18.624 22.7185 18.5684 22.7855 18.4794L23.0091 18.1789C23.0762 18.0898 23.1768 18.0398 23.283 18.0398H29.1847C29.2965 18.0398 29.4027 18.0898 29.4753 18.1733L29.7268 18.4682C29.7939 18.5461 29.8945 18.5962 30.0007 18.5962H31.1855C31.3084 18.5962 31.4258 18.5294 31.4929 18.4237L31.6214 18.2234C31.6885 18.1122 31.8114 18.0454 31.9455 18.0454L37.512 18.0454V19.1526H37.5064Z" fill="url(#paint20_linear_2587_199)"/>
<rect opacity="0.3" width="31.9622" height="1.0794" transform="matrix(1 0 0 -1 5.6167 36.0223)" fill="url(#paint21_linear_2587_199)"/>
<rect opacity="0.3" width="31.9622" height="1.0794" transform="matrix(1 0 0 -1 5.6167 34.1973)" fill="url(#paint22_linear_2587_199)"/>
<rect opacity="0.3" width="31.9622" height="1.0794" transform="matrix(1 0 0 -1 5.6167 32.2949)" fill="url(#paint23_linear_2587_199)"/>
<rect opacity="0.3" width="31.9622" height="1.0794" transform="matrix(1 0 0 -1 5.6167 30.3915)" fill="url(#paint24_linear_2587_199)"/>
<rect opacity="0.3" width="31.9622" height="1.0794" transform="matrix(1 0 0 -1 5.6167 28.5052)" fill="url(#paint25_linear_2587_199)"/>
<rect opacity="0.3" width="31.9622" height="1.0794" transform="matrix(1 0 0 -1 5.6167 26.6358)" fill="url(#paint26_linear_2587_199)"/>
<rect opacity="0.3" width="31.9622" height="1.0794" transform="matrix(1 0 0 -1 5.6167 24.7721)" fill="url(#paint27_linear_2587_199)"/>
<rect opacity="0.3" width="31.9622" height="1.0794" transform="matrix(1 0 0 -1 5.6167 22.8526)" fill="url(#paint28_linear_2587_199)"/>
<rect opacity="0.3" width="31.9622" height="1.0794" transform="matrix(1 0 0 -1 5.6167 21.0002)" fill="url(#paint29_linear_2587_199)"/>
<path opacity="0.3" d="M14.8325 15.2296C15.0337 14.4784 15.8888 14.0667 16.6768 14.0723L26.9825 14.0166C27.7482 14.0222 28.4188 14.5285 28.6312 15.263L28.7094 15.53L28.7038 15.5857V15.6858C28.7038 16.6373 27.927 17.4106 26.9713 17.4106H21.8073H16.5706C15.6093 17.4106 14.8269 16.6317 14.8269 15.6747V15.5857L14.8325 15.2296Z" fill="url(#paint30_radial_2587_199)"/>
<path opacity="0.3" d="M14.8325 40.7688C15.0337 41.5199 15.8888 41.9317 16.6768 41.9261L26.9825 41.9818C27.7482 41.9762 28.4188 41.4699 28.6312 40.7354L28.7094 40.4684L28.7038 40.4127V40.3126C28.7038 39.3611 27.927 38.5877 26.9713 38.5877H21.8073H16.5706C15.6093 38.5877 14.8269 39.3667 14.8269 40.3237V40.4127L14.8325 40.7688Z" fill="url(#paint31_radial_2587_199)"/>
<path opacity="0.2" d="M12.8039 40.8857C12.8039 40.8412 12.7648 40.8023 12.7201 40.8079L12.6474 40.8134C12.6083 40.819 12.5804 40.8468 12.5804 40.8857C12.5748 40.9859 12.5412 41.1695 12.3792 41.303C12.1556 41.4866 11.7085 41.8761 11.5464 42.0152C11.5129 42.043 11.5129 42.0876 11.5408 42.1209L11.5911 42.1766C11.6191 42.21 11.6638 42.21 11.6973 42.1821C11.8538 42.043 12.3065 41.6536 12.5245 41.4755C12.7536 41.2808 12.7983 41.0193 12.8039 40.8857ZM32.4596 42.1376C32.4373 42.1766 32.3926 42.1877 32.359 42.1655L32.2976 42.1321C32.2584 42.1098 32.2472 42.0653 32.2696 42.0319C32.3534 41.8817 32.5602 41.5145 32.6664 41.3364C32.7502 41.1973 32.767 40.997 32.767 40.8913C32.767 40.8524 32.8005 40.819 32.8397 40.819L32.9123 40.8134C32.957 40.8134 32.9906 40.8468 32.9906 40.8913C32.985 41.0193 32.9682 41.2641 32.8564 41.4477C32.7502 41.6202 32.5434 41.9874 32.4596 42.1376ZM33.8233 42.1265C33.8065 42.1655 33.7618 42.1821 33.7227 42.1655L33.6556 42.1376C33.6165 42.1209 33.5997 42.0764 33.6165 42.0375C33.6836 41.8872 33.8512 41.52 33.9351 41.3476C34.0021 41.2029 34.0189 40.997 34.0189 40.8913C34.0189 40.8524 34.0524 40.819 34.0915 40.819H34.1642C34.2089 40.819 34.2424 40.8524 34.2424 40.8969C34.2424 41.0193 34.2201 41.2641 34.1363 41.4477C34.058 41.6091 33.8959 41.9707 33.8233 42.1265ZM35.1478 41.3642C35.1814 41.214 35.1925 40.997 35.1925 40.8857C35.1925 40.8468 35.2261 40.8134 35.2652 40.8134H35.3378C35.3825 40.8134 35.4161 40.8468 35.4161 40.8913C35.4161 41.0137 35.4049 41.2474 35.3658 41.4199C35.3267 41.5924 35.2428 41.9485 35.2093 42.1042C35.1981 42.1432 35.159 42.171 35.1199 42.1599L35.0472 42.1432C35.0081 42.1321 34.9802 42.0931 34.9913 42.0542C35.0193 41.8928 35.1031 41.5367 35.1478 41.3642ZM11.1943 41.4755C10.9596 41.6591 10.4734 42.0486 10.3057 42.1877C10.2722 42.2155 10.2275 42.21 10.1995 42.1766L10.1548 42.1209C10.1269 42.0876 10.1325 42.043 10.166 42.0152C10.3337 41.8817 10.8199 41.4866 11.0602 41.303C11.2335 41.1695 11.267 40.9859 11.2782 40.8857C11.2782 40.8468 11.3117 40.819 11.3452 40.819L11.4179 40.8134C11.4626 40.8079 11.5017 40.8468 11.5017 40.8913C11.4905 41.0193 11.4402 41.2864 11.1943 41.4755ZM8.55643 41.4811C8.27699 41.6758 7.69017 42.0931 7.52809 42.21C7.50575 42.2267 7.47222 42.2211 7.45544 42.1988L7.3828 42.0987C7.36603 42.0764 7.37162 42.043 7.39398 42.0263C7.55604 41.9095 8.14286 41.4866 8.42789 41.2975C8.63468 41.1528 8.6682 40.9525 8.6738 40.8635C8.6738 40.8412 8.69615 40.819 8.71851 40.8134L8.84146 40.8023C8.86941 40.7967 8.89735 40.8245 8.89735 40.8524C8.89176 40.9748 8.85823 41.2752 8.55643 41.4811ZM12.7201 15.4085L12.6474 15.4029C12.6083 15.3974 12.5804 15.3695 12.5804 15.3306C12.5748 15.2304 12.5412 15.0468 12.3792 14.9133C12.1556 14.7297 11.7085 14.3402 11.5464 14.2011C11.5129 14.1733 11.5129 14.1288 11.5408 14.0954L11.5911 14.0398C11.6191 14.0064 11.6638 14.0064 11.6973 14.0342C11.8538 14.1733 12.3065 14.5628 12.5245 14.7408C12.7536 14.93 12.7983 15.1915 12.8039 15.325C12.8039 15.3751 12.7648 15.414 12.7201 15.4085ZM32.9067 15.4085L32.8341 15.4029C32.795 15.4029 32.7614 15.3695 32.7614 15.3306C32.7558 15.2249 32.7391 15.0246 32.6608 14.8855C32.5546 14.7074 32.3478 14.3402 32.264 14.19C32.2417 14.151 32.2584 14.1065 32.292 14.0898L32.3534 14.0564C32.3926 14.0342 32.4373 14.0509 32.454 14.0843C32.5379 14.2345 32.7446 14.6017 32.8508 14.7742C32.957 14.9578 32.9794 15.2082 32.985 15.3306C32.9906 15.3751 32.9514 15.4085 32.9067 15.4085ZM34.1698 15.4085H34.0971C34.058 15.4085 34.0245 15.3751 34.0245 15.3361C34.0245 15.2304 34.0077 15.0246 33.9406 14.8799C33.8568 14.7019 33.6892 14.3402 33.6221 14.19C33.6053 14.151 33.6221 14.1065 33.6612 14.0898L33.7283 14.062C33.7674 14.0453 33.8121 14.062 33.8289 14.101C33.8959 14.2512 34.0636 14.6128 34.1474 14.7909C34.2313 14.9745 34.248 15.2137 34.2536 15.3417C34.248 15.3751 34.2145 15.4085 34.1698 15.4085ZM35.3378 15.4085H35.2652C35.2261 15.4085 35.1925 15.3751 35.1925 15.3361C35.1925 15.2249 35.1814 15.0079 35.1478 14.8577C35.1087 14.6852 35.0249 14.3235 34.9913 14.1677C34.9802 14.1288 35.0081 14.0898 35.0472 14.0787L35.1199 14.062C35.159 14.0509 35.2037 14.0787 35.2093 14.1177C35.2428 14.2734 35.3267 14.6295 35.3658 14.802C35.4049 14.9745 35.4161 15.2082 35.4161 15.3306C35.4161 15.3751 35.377 15.4085 35.3378 15.4085ZM11.4179 15.4085L11.3452 15.4029C11.3061 15.3974 11.2782 15.3695 11.2782 15.3361C11.2726 15.2416 11.2335 15.0524 11.0602 14.9189C10.8199 14.7353 10.3337 14.3402 10.166 14.2067C10.1325 14.1789 10.1269 14.1343 10.1548 14.101L10.1995 14.0453C10.2275 14.0119 10.2722 14.0064 10.3057 14.0342C10.4734 14.1677 10.9596 14.5628 11.1943 14.7464C11.4402 14.9355 11.4905 15.2026 11.4961 15.3361C11.5017 15.3751 11.4626 15.414 11.4179 15.4085ZM8.84146 15.414L8.71851 15.4029C8.69615 15.4029 8.6738 15.3807 8.6738 15.3528C8.6682 15.2638 8.64026 15.0635 8.42789 14.9188C8.14845 14.7241 7.55604 14.3013 7.39398 14.19C7.37162 14.1733 7.36603 14.1399 7.3828 14.1176L7.45544 14.0175C7.47222 13.9952 7.50575 13.9897 7.52809 14.0064C7.69017 14.1232 8.27699 14.5405 8.55643 14.7352C8.85823 14.9411 8.89735 15.236 8.89735 15.3584C8.89735 15.3918 8.86941 15.414 8.84146 15.414Z" fill="black"/>
<path opacity="0.1" d="M22.4501 39.8005H19.8178C19.3819 39.8005 19.0298 40.151 19.0298 40.585V40.7185C19.0298 41.1525 19.3819 41.5031 19.8178 41.5031H22.4501C22.886 41.5031 23.2381 41.1525 23.2381 40.7185V40.585C23.2381 40.1566 22.886 39.8005 22.4501 39.8005Z" fill="url(#paint32_radial_2587_199)"/>
<path opacity="0.1" d="M22.4501 14.3401H19.8178C19.3819 14.3401 19.0298 14.6906 19.0298 15.1246V15.2581C19.0298 15.6921 19.3819 16.0426 19.8178 16.0426H22.4501C22.886 16.0426 23.2381 15.6921 23.2381 15.2581V15.1246C23.2381 14.6906 22.886 14.3401 22.4501 14.3401Z" fill="url(#paint33_radial_2587_199)"/>
<path opacity="0.15" d="M39.9709 44.2792L39.5518 42.6322L40.3342 41.5361C40.4012 41.4416 40.4348 41.3303 40.4292 41.219L40.418 40.9686C40.4124 40.7961 40.6024 40.6904 40.7477 40.785L41.1557 41.0632C41.2507 41.13 41.3681 41.1634 41.4799 41.1634H43.4415C43.6427 41.1634 43.8104 41.3247 43.8104 41.5306V41.8811C43.8104 41.9312 43.8048 41.9757 43.788 42.0202L43.0056 44.6297C42.9777 44.7243 42.8882 44.7855 42.7876 44.7799L40.3286 44.5907C40.1665 44.5741 40.0156 44.4517 39.9709 44.2792Z" fill="url(#paint34_linear_2587_199)"/>
<path opacity="0.15" d="M54.0826 44.8021L54.8929 44.8633L74.9511 44.5629C75.007 44.5629 75.0628 44.5351 75.0964 44.4906L75.197 44.3682C75.2529 44.2958 75.2864 44.2124 75.2864 44.1233V43.6115C75.2864 43.4557 75.1746 43.3166 75.0237 43.2776C73.8389 43.005 69.0325 41.8978 67.6577 41.6641C66.0928 41.4026 58.1009 41.308 58.1009 41.308H54.9377C54.8482 41.308 54.7756 41.3803 54.7756 41.4693V41.9033C54.7756 41.9478 54.77 41.9924 54.7588 42.0369L53.9708 44.6463C53.9484 44.7187 54.0043 44.7966 54.0826 44.8021Z" fill="url(#paint35_linear_2587_199)"/>
<path d="M54.0547 44.3403L54.5856 42.6099H63.4606C64.8969 42.6099 69.8821 42.9104 73.0733 43.962C73.1516 44.0176 72.8442 44.1901 72.8442 44.1901L54.0547 44.3403Z" stroke="#231F20" stroke-width="2.37922"/>
<path opacity="0.25" d="M75.3087 43.4389C75.3031 43.3554 75.3702 43.2886 75.454 43.2886C76.0464 43.2886 78.254 43.2775 79.9083 43.2163C81.8364 43.1384 88.1014 42.8602 90.784 42.5987C92.9245 42.3873 94.9197 42.059 95.6407 41.9366C95.7469 41.9199 95.8195 42.0368 95.758 42.1258C95.3668 42.6321 94.2714 43.8228 92.2259 44.3291C89.5824 44.9856 85.8268 45.1192 82.3505 45.1359C79.8021 45.147 77.9354 45.1414 77.1195 45.1414C76.8177 45.1414 76.5215 45.0914 76.2364 44.9968L75.2584 44.6685C75.1801 44.6407 75.1522 44.5461 75.2025 44.4793L75.2472 44.4181C75.3087 44.3347 75.3422 44.2345 75.3367 44.1344L75.3087 43.4389Z" fill="url(#paint36_linear_2587_199)"/>
<path d="M55.3736 44.1297L55.871 42.989C55.9772 42.7498 56.212 42.5996 56.469 42.5996H63.4605C64.8969 42.5996 69.8821 42.9 73.0733 43.9516C73.1515 44.0073 72.8441 44.1797 72.8441 44.1797L55.4965 44.33C55.4016 44.3244 55.3289 44.2187 55.3736 44.1297Z" fill="url(#paint37_linear_2587_199)"/>
<path d="M80.372 41.2024C79.7628 42.5099 79.2934 43.1331 79.2878 43.1387L79.2599 43.1776C77.7453 43.2221 76.0295 43.2277 75.4874 43.2277C75.4315 43.2277 75.1577 43.2444 75.0627 43.2221C73.7214 42.9106 69.3565 41.8645 67.842 41.6308C67.8197 41.6253 67.8028 41.6197 67.7861 41.603C67.7917 41.5975 67.7973 41.5863 67.8028 41.5808C68.0153 41.2191 68.5405 40.2287 68.7865 38.8711C69.105 37.0962 69.3454 32.5171 69.3454 28.2162V28.0437V27.938V27.7655C69.3454 23.4646 69.105 18.8855 68.7865 17.1106C68.5405 15.753 68.0208 14.7626 67.8028 14.4009C67.7973 14.3898 67.7917 14.3843 67.7861 14.3787C67.8028 14.3676 67.8197 14.3564 67.842 14.3509C69.3565 14.1172 73.7214 13.0712 75.0627 12.7596C75.1577 12.7373 75.4315 12.754 75.4874 12.754C76.024 12.754 77.6782 12.7596 79.1648 12.8041C79.3605 13.1435 80.0647 14.3676 80.3609 15.0964C80.372 15.1298 81.7357 18.6295 81.7357 27.9936C81.7301 37.5358 80.6906 40.5181 80.372 41.2024ZM79.7349 27.4929C79.7349 21.2279 78.1812 15.6473 77.7509 14.7904C77.3205 13.9336 76.5437 13.5051 75.4204 13.5051C74.297 13.5051 71.6256 14.0226 70.4184 14.362C69.2113 14.707 69.2113 15.6473 69.4683 17.7115C69.7254 19.7701 69.7254 25.0058 69.7254 25.0058C69.7254 25.0058 70.4128 25.7792 71.0164 25.8627C71.62 25.9461 72.3969 26.2076 72.3969 27.5819V28.0994C72.3969 29.4736 71.62 29.7296 71.0164 29.8186C70.4128 29.9021 69.7254 30.6755 69.7254 30.6755C69.7254 30.6755 69.7254 35.9111 69.4683 37.9698C69.2113 40.0284 69.2113 40.9743 70.4184 41.3193C71.6256 41.6642 74.297 42.1761 75.4204 42.1761C76.5437 42.1761 77.315 41.7477 77.7509 40.8908C78.1868 40.034 79.7349 34.4534 79.7349 28.1884V27.4929Z" fill="#231F20"/>
<path opacity="0.2" d="M76.7115 33.1956H76.5215C76.3035 33.1956 76.1248 33.0176 76.1248 32.8006V28.266C76.1359 28.266 76.1415 28.2715 76.1526 28.2715C76.2868 28.2715 76.3986 28.1603 76.3986 28.0267V27.6373C76.3986 27.5037 76.2868 27.3924 76.1526 27.3924C76.1415 27.3924 76.1303 27.3924 76.1248 27.398V22.9023C76.1248 22.6854 76.3035 22.5073 76.5215 22.5073H76.7115C76.9295 22.5073 77.1083 22.6854 77.1083 22.9023V32.8062C77.1083 33.0176 76.9295 33.1956 76.7115 33.1956Z" fill="#231F20"/>
<path opacity="0.5" d="M71.1451 23.8759C72.6038 24.0596 73.6265 24.8163 74.096 26.0626C74.6157 27.448 75.0572 30.2745 75.2361 33.4459C75.4429 37.0291 74.7499 39.3826 74.2636 40.028C73.7159 40.7514 73.2968 41.0685 72.1008 41.1241C70.9048 41.1853 69.4797 40.5399 69.4629 40.5344L69.5076 40.4342C69.5188 40.4398 70.2509 40.7681 71.0948 40.9294C71.2737 40.1838 71.5251 39.1156 71.5308 39.0043L71.5252 38.9876L71.5363 38.9653C71.5587 38.9319 71.5867 38.9264 71.8213 38.8819C72.2852 38.7984 73.3694 38.6037 73.6545 38.0918C74.0121 37.4575 74.1799 36.3725 74.1575 34.8758C74.1407 33.5349 74.1239 32.7282 73.5036 32.4611C72.8665 32.194 71.7431 31.8825 71.4692 31.8212C71.2904 31.7823 71.3072 31.6265 71.3407 31.2815C71.3687 30.9755 71.419 30.4636 71.3687 29.6791C71.2737 28.1212 70.983 25.6397 70.6869 25.0277C70.413 24.4713 69.91 24.2487 69.72 24.1653L69.692 24.1541L69.7367 24.054L69.7647 24.0651C69.9659 24.1541 70.4968 24.3823 70.7874 24.9776C71.0892 25.6008 71.3854 28.1045 71.4804 29.668C71.5308 30.4636 71.4804 30.9811 71.4525 31.2871C71.419 31.6154 71.4245 31.6877 71.4972 31.7044C71.7711 31.7656 72.9056 32.0828 73.5483 32.3498C74.2357 32.6391 74.2525 33.5238 74.2692 34.8647C74.2916 36.3837 74.1183 37.4798 73.7495 38.1363C73.4365 38.6927 72.3579 38.893 71.8381 38.982C71.7543 38.9987 71.676 39.0099 71.6369 39.021C71.6201 39.1378 71.5419 39.5329 71.2066 40.935C71.4972 40.985 71.8046 41.0129 72.0952 41.0017C73.2968 40.9405 73.6657 40.6178 74.1742 39.9502C74.6493 39.3159 75.3312 36.9901 75.1243 33.4403C74.9455 30.3301 74.4984 27.4424 73.9898 26.0904C73.5371 24.8886 72.5479 24.1541 71.1284 23.9761C70.0442 23.837 69.7926 23.8481 69.7367 23.8537L69.6418 23.9984L69.6697 23.1638H74.8337C74.8784 22.5629 75.2473 16.8932 74.4425 15.569C73.5762 14.1391 71.7655 14.79 71.2346 15.0237C70.5751 15.3131 69.3288 16.0085 69.3176 16.0197L69.2617 15.9251C69.2729 15.9195 70.5303 15.2185 71.1898 14.9236C71.4749 14.8012 72.1064 14.5619 72.7771 14.5619C73.4142 14.5619 74.0904 14.7789 74.5375 15.5134C75.3982 16.9377 74.9567 22.969 74.9399 23.225L74.9343 23.275H69.7758L69.7591 23.7424C69.91 23.7424 70.2565 23.7647 71.1451 23.8759ZM71.6481 38.9876C71.6481 38.9932 71.6481 38.9987 71.6481 39.0099C71.6481 39.0043 71.6481 38.9987 71.6481 38.9876ZM70.4465 38.4312C70.2006 37.8637 70.0777 36.8733 70.0777 35.4823C70.0777 32.3387 70.6198 32.0215 70.8042 31.9158C70.8209 31.9047 70.8321 31.8992 70.8433 31.8936C70.9439 31.8212 71.2401 31.7934 71.3463 31.7879L71.3407 31.6766C71.3016 31.6766 70.9271 31.6988 70.7818 31.8046C70.7762 31.8101 70.7651 31.8157 70.7539 31.8212C70.5415 31.9437 69.9771 32.2775 69.9771 35.4823C69.9771 38.804 70.698 39.0043 70.9383 39.0655L70.9607 39.0711C71.1731 39.1323 71.4133 39.0544 71.4245 39.0488L71.391 38.9431C71.391 38.9431 71.1675 39.0154 70.9942 38.9598C70.9887 38.9598 70.9775 38.9542 70.9718 38.9542C70.8545 38.932 70.6365 38.8708 70.4465 38.4312Z" fill="#231F20"/>
<path opacity="0.1" d="M88.5152 41.403C84.2566 41.7535 80.0537 42.0261 80.0537 42.0261C80.0537 42.0261 85.5699 41.7535 88.5934 41.5365C91.6169 41.3195 95.015 40.8132 95.68 40.6963C96.345 40.5795 96.4233 40.7575 96.3282 40.969C96.2277 41.186 96.2668 41.3974 96.7809 40.713C97.2895 40.0287 96.3897 40.3625 95.6408 40.496C94.8919 40.6407 92.7738 41.0524 88.5152 41.403ZM95.6408 15.6252C94.8975 15.4861 92.7738 15.08 88.5152 14.7239C84.2566 14.3734 80.0537 14.1007 80.0537 14.1007C80.0537 14.1007 85.5699 14.3734 88.5934 14.5904C91.6169 14.8073 95.015 15.3137 95.68 15.4305C96.345 15.5473 96.4233 15.3693 96.3282 15.1579C96.2277 14.9409 96.2668 14.7295 96.7809 15.4138C97.2895 16.0982 96.3842 15.7643 95.6408 15.6252Z" fill="url(#paint38_linear_2587_199)"/>
<path opacity="0.15" d="M88.5149 41.4028C91.7954 41.2247 96.0709 40.3846 96.3503 40.329C96.6242 40.2677 96.9763 40.1509 96.9595 40.3902C96.9372 40.6238 95.7579 42.1205 95.7579 42.1205C95.7579 42.1205 96.6242 41.1524 96.9986 40.6684C97.3731 40.1787 97.7028 39.5166 97.2949 39.8282C96.8813 40.1398 95.3499 40.3957 95.3499 40.3957C90.7392 41.3527 80.4503 41.375 80.4503 41.375L80.0591 42.0371C80.0535 42.026 85.2343 41.5808 88.5149 41.4028ZM88.5149 14.7293C91.7954 14.9073 96.0709 15.7475 96.3503 15.8031C96.6298 15.8588 96.9763 15.9812 96.9595 15.7419C96.9372 15.5082 95.7579 14.0115 95.7579 14.0115C95.7579 14.0115 96.6242 14.9797 96.9986 15.4637C97.3731 15.9534 97.7028 16.6155 97.2949 16.3039C96.8813 15.9923 95.3499 15.7364 95.3499 15.7364C90.7392 14.7794 80.4503 14.7571 80.4503 14.7571L80.0591 14.095C80.0535 14.1006 85.2343 14.5512 88.5149 14.7293Z" fill="url(#paint39_linear_2587_199)"/>
<path opacity="0.15" d="M43.8496 38.7158C43.8496 38.8215 43.939 38.9105 44.0452 38.9105H64.6678C64.774 38.9105 64.8634 38.8215 64.8634 38.7158C64.8634 38.6101 64.774 38.5211 64.6678 38.5211H44.0452C43.939 38.5266 43.8496 38.6101 43.8496 38.7158ZM64.6678 17.4949H44.0452C43.939 17.4949 43.8496 17.4059 43.8496 17.3002C43.8496 17.1945 43.939 17.1055 44.0452 17.1055H64.6678C64.774 17.1055 64.8634 17.1945 64.8634 17.3002C64.8578 17.4059 64.774 17.4949 64.6678 17.4949Z" fill="url(#paint40_linear_2587_199)"/>
<path opacity="0.3" d="M86.749 36.5454L83.6584 36.818C83.4796 36.8347 83.351 36.9905 83.3623 37.1685C83.379 37.3466 83.5355 37.4746 83.7143 37.4634L86.8049 37.1908C86.9838 37.1741 87.1123 37.0183 87.1012 36.8403C87.0843 36.6567 86.9279 36.5287 86.749 36.5454Z" fill="url(#paint41_linear_2587_199)"/>
<path opacity="0.3" d="M83.7143 18.6521L86.8049 18.9248C86.9838 18.9415 87.1123 19.0972 87.1012 19.2753C87.0843 19.4533 86.9279 19.5813 86.749 19.5702L83.6584 19.2975C83.4796 19.2808 83.351 19.125 83.3623 18.947C83.379 18.769 83.5355 18.6354 83.7143 18.6521Z" fill="url(#paint42_linear_2587_199)"/>
<path opacity="0.2" d="M96.6355 27.9546C96.6355 27.9546 96.6579 20.9552 95.5681 20.0872C94.7241 19.414 93.6455 19.3472 92.5781 19.2415C90.6835 19.0468 82.3618 18.2567 82.3618 18.2567C82.3618 18.2567 93.1817 18.8576 95.5122 19.3305C97.8427 19.8035 97.798 27.9602 97.798 27.9602V28.1382C97.798 28.1382 97.8427 36.295 95.5122 36.7679C93.1817 37.2408 82.3618 37.8417 82.3618 37.8417C82.3618 37.8417 90.6835 37.0461 92.5781 36.8569C93.6455 36.7512 94.7241 36.6789 95.5681 36.0112C96.6579 35.1432 96.6355 28.1438 96.6355 28.1438V27.9546Z" fill="url(#paint43_linear_2587_199)"/>
<path opacity="0.3" d="M94.7745 19.637L94.8696 19.7371L94.6125 20.0153L94.4671 20.0042L94.6125 20.0988C94.7465 20.2045 94.8583 20.4048 94.959 20.6719C95.0596 20.9389 95.1434 21.2784 95.2217 21.6623C95.2999 22.0462 95.3557 22.4746 95.4061 22.9197C95.4564 23.3648 95.4955 23.8322 95.5291 24.294C95.5626 24.7558 95.5849 25.2065 95.6017 25.6294C95.6184 26.0522 95.6296 26.4417 95.6408 26.7811C95.6464 27.1149 95.652 27.3931 95.652 27.5934C95.652 27.7937 95.652 28.2166 95.652 28.4169C95.652 28.6116 95.6464 28.8954 95.6408 29.2292C95.6353 29.5631 95.624 29.9581 95.6017 30.381C95.5793 30.8038 95.557 31.2601 95.5291 31.7163C95.4955 32.1781 95.4564 32.6455 95.4061 33.0906C95.3557 33.5357 95.2943 33.9641 95.2217 34.348C95.149 34.732 95.0596 35.0714 94.959 35.3384C94.8583 35.6055 94.741 35.8058 94.6125 35.9115L94.4336 36.0339L94.6125 35.995L94.8305 36.3399L94.7298 36.4623L94.9646 36.3566L94.931 36.2898L94.7243 35.9616C94.8583 35.8392 94.9701 35.6277 95.0708 35.3496C95.1713 35.0714 95.2608 34.732 95.3335 34.3536C95.4061 33.9697 95.4675 33.5524 95.5179 33.1073C95.5682 32.6622 95.6073 32.2115 95.6408 31.7552C95.6743 31.299 95.6967 30.8539 95.7134 30.4366C95.7302 30.0193 95.7414 29.6298 95.7525 29.2904C95.7582 28.951 95.7638 28.6673 95.7638 28.4614C95.7638 28.2555 95.7638 27.7325 95.7638 27.5267C95.7638 27.3208 95.7582 27.037 95.7525 26.6976C95.7469 26.3638 95.7358 25.9743 95.7134 25.557C95.6967 25.1397 95.6688 24.6946 95.6408 24.2439C95.6073 23.7933 95.5682 23.337 95.5179 22.8975C95.4675 22.4579 95.4061 22.035 95.3335 21.6567C95.2608 21.2784 95.1713 20.9334 95.0763 20.6552C94.9814 20.377 94.8639 20.1656 94.7298 20.0376L95.0149 19.7427L94.7745 19.637Z" fill="#231F20"/>
<path opacity="0.4" d="M95.5568 20.0925C95.3779 19.9534 95.1935 19.8365 94.9979 19.742L94.7185 20.0424C95.7691 21.0606 95.758 27.6261 95.758 27.9098V28.0879C95.758 28.3716 95.7691 34.9705 94.7073 35.9664L94.9531 36.367C95.1656 36.2724 95.3612 36.15 95.5511 35.9998C96.641 35.1318 96.6187 28.1324 96.6187 28.1324V27.9543C96.6187 27.9543 96.641 20.9605 95.5568 20.0925Z" fill="url(#paint44_linear_2587_199)"/>
<path d="M54.5801 42.6043L45.4983 42.5876C45.2971 42.5876 45.1239 42.7211 45.068 42.9103L44.7327 44.0843C44.6991 44.2123 44.7885 44.3347 44.9226 44.3347H54.0435L54.5801 42.6043Z" fill="url(#paint45_linear_2587_199)"/>
<path d="M39.5517 42.6266L40.362 41.4582V14.6233L39.5517 13.3436L39.2722 28.0491L39.5517 42.6266Z" fill="url(#paint46_linear_2587_199)"/>
<path d="M41.1111 26.041H40.6137C40.4628 26.041 40.3398 26.1635 40.3398 26.3137V29.7299C40.3398 29.8802 40.4628 30.0026 40.6137 30.0026H41.1111C41.262 30.0026 41.385 29.8802 41.385 29.7299V26.3137C41.385 26.1635 41.262 26.041 41.1111 26.041Z" fill="url(#paint47_linear_2587_199)"/>
<path d="M41.2676 30.0575H40.4628C40.3958 30.0575 40.3455 30.1132 40.3455 30.1744V31.5487C40.3455 31.5987 40.3734 31.6433 40.4237 31.6655L40.7702 31.8157C41.0664 31.9437 41.3905 31.7267 41.3905 31.4096V30.18C41.385 30.1132 41.3291 30.0575 41.2676 30.0575Z" fill="url(#paint48_linear_2587_199)"/>
<path d="M41.2676 26.0183H40.4628C40.3958 26.0183 40.3455 25.9627 40.3455 25.9015V24.5272C40.3455 24.4771 40.3734 24.4326 40.4237 24.4103L40.7702 24.2601C41.0664 24.1321 41.3905 24.3491 41.3905 24.6663V25.8959C41.385 25.9627 41.3291 26.0183 41.2676 26.0183Z" fill="url(#paint49_linear_2587_199)"/>
<path d="M72.8888 44.2624L72.872 44.2736L54.1329 44.446H44.9226C44.822 44.446 44.7326 44.4015 44.6767 44.3236C44.6152 44.2457 44.5984 44.1456 44.6264 44.051L44.9617 42.877C45.0288 42.6378 45.2523 42.4764 45.4982 42.4764L54.7309 42.4931L63.4606 42.5265C64.556 42.5265 69.7144 42.7657 73.0956 43.8841L73.1068 43.8897L73.118 43.8952C73.1515 43.9175 73.1683 43.9564 73.1627 43.9898C73.1627 44.0677 73.0676 44.1623 72.8888 44.2624ZM45.4982 42.699C45.3473 42.699 45.2188 42.7991 45.1741 42.9382L44.7884 44.2012C44.7829 44.229 44.7829 44.2513 44.7997 44.2736C44.8164 44.2958 44.8443 44.3069 44.8723 44.3069H53.8255C53.8758 44.3069 53.9205 44.2736 53.9317 44.229L54.3844 42.8269C54.4012 42.7657 54.3565 42.7045 54.295 42.7045L45.4982 42.699ZM63.4606 42.6934H56.2734C56.1449 42.6934 56.0275 42.7713 55.9772 42.8881L55.3289 44.2402C55.3121 44.2736 55.3457 44.3292 55.3848 44.3292L69.7926 44.2068C69.7926 44.2068 69.8541 43.6059 69.8206 43.2887C67.0485 42.8158 64.2374 42.6934 63.4606 42.6934Z" fill="url(#paint50_linear_2587_199)"/>
<path d="M48.4939 45.2201L48.6895 44.7694L47.3817 44.7583L47.2364 45.1088C47.1973 45.2034 47.1023 45.2646 47.0016 45.2646H45.7889C45.666 45.2646 45.5598 45.1812 45.5374 45.0588L45.4871 44.7527L43.7043 44.7583C43.654 44.7583 43.6372 44.8251 43.6819 44.8473L44.4644 45.2535C44.8108 45.4315 45.2021 45.5261 45.5933 45.5261H47.9909C48.2032 45.5261 48.3933 45.4093 48.4939 45.2201ZM59.3752 45.5206H56.9776C56.5864 45.5206 56.2008 45.426 55.8487 45.2479L55.1445 44.8696C55.0998 44.8418 55.1166 44.775 55.1669 44.775H56.8547L56.9273 45.0532C56.9497 45.17 57.0559 45.2591 57.1788 45.2591H58.386C58.4922 45.2591 58.5816 45.1979 58.6207 45.1033L58.766 44.7527L60.0515 44.7583L59.8782 45.2145C59.7832 45.4037 59.5876 45.5206 59.3752 45.5206Z" fill="url(#paint51_linear_2587_199)"/>
<path opacity="0.15" d="M43.2179 11.1906L53.6968 11.1683C53.803 11.1683 53.898 11.2351 53.9316 11.3353L54.7363 13.8891C54.7531 13.9336 54.7587 13.9837 54.7587 14.0338V14.5512C54.7587 14.6347 54.7028 14.7126 54.619 14.7348L54.4401 14.7849L43.9835 14.8294C43.9053 14.8294 43.8438 14.7682 43.8438 14.6903L43.8271 14.1117C43.8271 14.0671 43.8159 14.0226 43.8047 13.9837L43.0446 11.4298C42.9999 11.313 43.0893 11.1906 43.2179 11.1906Z" fill="url(#paint52_linear_2587_199)"/>
<path opacity="0.15" d="M39.9709 11.7189L39.5518 13.3659L40.3342 14.462C40.4012 14.5566 40.4348 14.6678 40.4292 14.7791L40.418 15.0295C40.4124 15.202 40.6024 15.3077 40.7477 15.2131L41.1557 14.9349C41.2507 14.8681 41.3681 14.8348 41.4799 14.8348H43.4415C43.6427 14.8348 43.8104 14.6734 43.8104 14.4675V14.117C43.8104 14.0669 43.8048 14.0224 43.788 13.9779L43.0056 11.3684C42.9777 11.2738 42.8882 11.2126 42.7876 11.2182L40.3286 11.4074C40.1665 11.4241 40.0156 11.5465 39.9709 11.7189Z" fill="url(#paint53_linear_2587_199)"/>
<path opacity="0.15" d="M54.0826 11.1964L54.8929 11.1352L74.9511 11.4356C75.007 11.4356 75.0628 11.4635 75.0964 11.508L75.197 11.6304C75.2529 11.7027 75.2864 11.7862 75.2864 11.8752V12.3871C75.2864 12.5429 75.1746 12.682 75.0237 12.721C73.8389 12.9936 69.0325 14.1008 67.6577 14.3345C66.0928 14.596 58.1009 14.6906 58.1009 14.6906H54.9377C54.8482 14.6906 54.7756 14.6183 54.7756 14.5292V14.0952C54.7756 14.0507 54.77 14.0062 54.7588 13.9617L53.9708 11.3522C53.9484 11.2799 54.0043 11.202 54.0826 11.1964Z" fill="url(#paint54_linear_2587_199)"/>
<path d="M54.0547 11.6583L54.5856 13.3887H63.4606C64.8969 13.3887 69.8821 13.0882 73.0733 12.0367C73.1516 11.981 72.8442 11.8085 72.8442 11.8085L54.0547 11.6583Z" stroke="#231F20" stroke-width="2.37922"/>
<path opacity="0.25" d="M75.3087 12.5589C75.3031 12.6423 75.3702 12.7091 75.454 12.7091C76.0464 12.7091 78.254 12.7202 79.9083 12.7814C81.8364 12.8593 88.1014 13.1375 90.784 13.399C92.9245 13.6105 94.9197 13.9387 95.6407 14.0611C95.7469 14.0778 95.8195 13.961 95.758 13.872C95.3668 13.3656 94.2714 12.175 92.2259 11.6686C89.5824 11.0121 85.8268 10.8785 82.3505 10.8619C79.8021 10.8508 77.9354 10.8563 77.1195 10.8563C76.8177 10.8563 76.5215 10.9064 76.2364 11.001L75.2584 11.3292C75.1801 11.3571 75.1522 11.4516 75.2025 11.5184L75.2472 11.5796C75.3087 11.6631 75.3422 11.7632 75.3367 11.8634L75.3087 12.5589Z" fill="url(#paint55_linear_2587_199)"/>
<path d="M55.3736 11.869L55.871 13.0096C55.9772 13.2488 56.212 13.399 56.469 13.399H63.4605C64.8969 13.399 69.8821 13.0986 73.0733 12.047C73.1515 11.9914 72.8441 11.8189 72.8441 11.8189L55.4965 11.6687C55.4016 11.6743 55.3289 11.7744 55.3736 11.869Z" fill="url(#paint56_linear_2587_199)"/>
<path d="M54.5801 13.3937L45.4983 13.4104C45.2971 13.4104 45.1239 13.2769 45.068 13.0877L44.7327 11.9137C44.6991 11.7858 44.7885 11.6633 44.9226 11.6633H54.0435L54.5801 13.3937Z" fill="url(#paint57_linear_2587_199)"/>
<path d="M73.1682 12.0028C73.1682 12.0417 73.1515 12.0751 73.1236 12.0974L73.1124 12.1029L73.1012 12.1085C69.72 13.2269 64.5616 13.4661 63.4662 13.4661L54.7309 13.505L45.4982 13.5217C45.2523 13.5217 45.0288 13.3548 44.9617 13.1211L44.6264 11.9471C44.5984 11.8526 44.6152 11.7524 44.6767 11.6745C44.7382 11.5966 44.8276 11.5521 44.9226 11.5521H54.1273L72.8665 11.7246L72.8832 11.7357C73.0677 11.8359 73.1627 11.9249 73.1682 12.0028ZM54.3006 13.2825C54.3621 13.2825 54.4067 13.2213 54.39 13.1601L53.9373 11.758C53.9205 11.7134 53.8814 11.6801 53.8311 11.6801H44.8779C44.8499 11.6801 44.822 11.6967 44.8052 11.7134C44.7885 11.7357 44.7829 11.7635 44.794 11.7858L45.1797 13.0488C45.2188 13.1935 45.3529 13.288 45.5038 13.288L54.3006 13.2825ZM69.8206 12.715C69.8541 12.3978 69.7926 11.7969 69.7926 11.7969L55.3848 11.669C55.3456 11.669 55.3121 11.7246 55.3289 11.758L55.9772 13.11C56.0275 13.2269 56.1448 13.3047 56.2734 13.3047L63.4606 13.3047C64.2374 13.3047 67.0485 13.1823 69.8206 12.715Z" fill="url(#paint58_linear_2587_199)"/>
<path d="M47.9852 10.4674H45.5877C45.1964 10.4674 44.8108 10.562 44.4588 10.74L43.6763 11.1462C43.6316 11.1685 43.6484 11.2352 43.6987 11.2352L45.4815 11.2408L45.5318 10.9348C45.5542 10.8179 45.6604 10.729 45.7833 10.729H46.9905C47.0966 10.729 47.1861 10.7901 47.2252 10.8847L47.3705 11.2352L48.6783 11.2241L48.4827 10.7734C48.3933 10.5899 48.2032 10.4674 47.9852 10.4674ZM59.8782 10.7846L60.0515 11.2408L58.766 11.2464L58.6207 10.8958C58.5816 10.8013 58.4866 10.74 58.386 10.74H57.1788C57.0559 10.74 56.9497 10.8235 56.9273 10.9459L56.8547 11.2242H55.1669C55.111 11.2242 55.0942 11.1518 55.1445 11.1296L55.8487 10.7512C56.1952 10.5732 56.5864 10.4786 56.9776 10.4786L59.3752 10.4786C59.5876 10.473 59.7832 10.5954 59.8782 10.7846Z" fill="url(#paint59_linear_2587_199)"/>
<path d="M69.8429 12.348L72.4865 11.9919C72.4865 11.9919 72.3523 10.8457 71.5028 9.00407C70.9607 7.82451 70.0162 6.31668 69.653 5.866C69.4574 5.62119 69.1611 5.47653 68.8482 5.47097L68.1495 5.45984L67.8869 5.58781C67.6857 5.68796 67.5907 5.92164 67.6745 6.13307C67.898 6.68947 68.6637 8.41985 68.9543 9.09865C69.3679 10.0556 70.2733 10.8847 70.2733 10.8847L70.2901 11.5802H70.1335C69.9603 11.5802 69.8206 11.7193 69.8262 11.8917L69.8429 12.348ZM68.9543 46.9167C69.3679 45.9597 70.2732 45.1307 70.2732 45.1307L70.2901 44.4352H70.1335C69.9603 44.4352 69.8206 44.2961 69.8262 44.1236L69.8374 43.6674L72.4809 44.0235C72.4809 44.0235 72.3467 45.1697 71.4972 47.0113C70.9551 48.1909 70.0106 49.6987 69.6473 50.1494C69.4517 50.3942 69.1555 50.5389 68.8425 50.5444L68.144 50.5555L67.8813 50.4276C67.6801 50.3274 67.5851 50.0937 67.6689 49.8823C67.898 49.3259 68.6637 47.5955 68.9543 46.9167Z" fill="#231F20"/>
<path opacity="0.25" d="M70.5583 9.79957L68.401 5.82692C68.3451 5.72677 68.2334 5.66557 68.116 5.68226L67.8589 5.80467C67.6857 5.89369 67.8756 6.22196 67.9483 6.39444L69.1499 9.16528C69.1611 9.19866 69.312 9.42679 69.3399 9.44904L70.0385 10.1779C70.1335 10.2781 70.2956 10.2948 70.4074 10.2113L70.48 10.1557C70.5918 10.0778 70.6309 9.92754 70.5583 9.79957ZM69.1499 46.8443C69.1611 46.8109 69.312 46.5827 69.3399 46.5605L70.0385 45.8316C70.1335 45.7315 70.2956 45.7148 70.4074 45.7982L70.48 45.8539C70.5918 45.9373 70.6309 46.0931 70.5639 46.2155L68.4066 50.1882C68.3508 50.2883 68.239 50.3495 68.1216 50.3328L67.8645 50.2104C67.6913 50.1214 67.8813 49.7931 67.9539 49.6207L69.1499 46.8443Z" fill="white"/>
<path opacity="0.1" d="M68.3451 50.4447C68.6357 50.5003 69.0492 50.4725 69.2337 50.3835C69.664 50.1665 70.8935 48.1023 71.4971 46.8114C72.0057 45.732 72.084 44.8641 72.1007 44.6137C72.1007 44.5692 72.0728 44.5302 72.0336 44.5191L71.2847 44.4857C71.2345 44.469 71.1842 44.4968 71.1674 44.5413L70.8265 45.4817C70.8153 45.5095 70.8209 45.5429 70.8321 45.5651L71.2959 46.3385C71.3127 46.3663 71.3127 46.4053 71.2959 46.4331L69.2784 50.1108C69.2616 50.1442 69.0046 50.2945 68.971 50.2945C68.9766 50.2889 68.2333 50.4224 68.3451 50.4447ZM72.0336 11.4971L71.2847 11.5305C71.2345 11.5472 71.1842 11.5194 71.1674 11.4749L70.8265 10.5346C70.8153 10.5068 70.8209 10.4734 70.8321 10.4511L71.2959 9.67773C71.3127 9.64991 71.3127 9.61096 71.2959 9.58314L69.2784 5.90538C69.2616 5.872 69.0046 5.72177 68.971 5.72177C68.971 5.72177 68.2277 5.58823 68.3451 5.56598C68.6357 5.51035 69.0492 5.53816 69.2337 5.62718C69.664 5.84418 70.8935 7.9084 71.4971 9.19923C72.0057 10.2786 72.084 11.1466 72.1007 11.397C72.1007 11.4471 72.0728 11.486 72.0336 11.4971ZM72.2069 11.9534L70.2117 12.2316C70.1391 12.2427 70.072 12.1871 70.072 12.1147V11.8254C70.072 11.7642 70.1223 11.7086 70.1838 11.703L72.1566 11.5973C72.2181 11.5917 72.274 11.6362 72.2851 11.6974L72.302 11.8143C72.3187 11.881 72.274 11.9423 72.2069 11.9534ZM70.072 44.1908V43.9015C70.072 43.8292 70.1391 43.7735 70.2117 43.7847L72.2069 44.0628C72.274 44.074 72.3187 44.1352 72.3075 44.2019L72.2907 44.3188C72.2796 44.38 72.2293 44.4245 72.1622 44.4189L70.1894 44.3132C70.1223 44.3077 70.072 44.252 70.072 44.1908Z" fill="white"/>
<path opacity="0.3" d="M67.4006 36.7234H64.0361C63.8685 36.7234 63.7344 36.857 63.7344 37.0239C63.7344 37.1908 63.8685 37.3243 64.0361 37.3243H67.4006C67.5683 37.3243 67.7024 37.1908 67.7024 37.0239C67.7024 36.857 67.5683 36.7234 67.4006 36.7234Z" fill="url(#paint60_linear_2587_199)"/>
<path opacity="0.2" d="M67.8253 37.7086H64.9527C64.7404 37.7086 64.5615 37.5361 64.5559 37.3247H67.4006C67.5683 37.3247 67.7024 37.1912 67.7024 37.0243C67.7024 36.8573 67.5683 36.7238 67.4006 36.7238H64.5559C64.5615 36.5124 64.7347 36.3399 64.9527 36.3399H67.8253C68.0433 36.3399 68.2221 36.5179 68.2221 36.7349V37.3191C68.2221 37.5306 68.0433 37.7086 67.8253 37.7086Z" fill="url(#paint61_linear_2587_199)"/>
<path d="M98.9214 39.0384C98.8934 39.3445 98.7816 39.6394 98.5972 39.8953L96.4065 42.9165C96.127 43.3004 95.7023 43.5564 95.2328 43.6231L93.6121 43.8568C94.8136 43.2837 95.5122 42.5215 95.7973 42.1487C95.842 42.093 95.8476 42.0207 95.8084 41.9595C95.9314 41.9428 95.9929 41.9317 95.9985 41.9317H96.0152L96.0264 41.9206C96.0823 41.8761 97.3789 40.8245 97.8539 39.7117C98.3513 38.5377 99.4524 32.4841 99.4524 28.7897C99.4524 25.1731 98.7761 18.7635 97.6807 16.5323C96.753 14.6406 96.032 14.1176 95.8364 14.0007C95.8476 13.9507 95.8364 13.9006 95.8029 13.8561C95.5346 13.5055 94.8974 12.8045 93.8077 12.2425L95.2439 12.4484C95.7134 12.5152 96.1382 12.7711 96.4176 13.155L98.6084 16.1762C98.7929 16.4266 98.9047 16.7215 98.9325 17.0331L100 28.033V28.0552L98.9214 39.0384Z" fill="url(#paint62_linear_2587_199)"/>
<path opacity="0.5" d="M94.9197 12.5762C95.35 12.6374 95.7468 12.8767 95.9982 13.2272L98.1891 16.2484C98.3567 16.4821 98.4573 16.7492 98.4853 17.0329L99.7483 28.0273V28.0328L98.4853 39.0272C98.4573 39.3109 98.3567 39.5836 98.1891 39.8117L95.9982 42.8329C95.7412 43.1834 95.35 43.4227 94.9197 43.4839C94.9197 43.4839 95.9256 43.406 96.2275 42.9943L98.4182 39.973C98.6139 39.7004 98.7367 39.3833 98.7703 39.0494L99.8042 28.044V28.005L98.7647 17.0107C98.7312 16.6768 98.6139 16.3597 98.4126 16.0871L96.2218 13.0659C95.9312 12.6541 94.9197 12.5762 94.9197 12.5762Z" fill="white"/>
<path opacity="0.03" d="M94.4112 19.9981L94.5566 20.0927C94.6906 20.1984 94.8024 20.3987 94.9029 20.6658C95.0036 20.9329 95.0874 21.2723 95.1656 21.6562C95.2439 22.0401 95.2998 22.4685 95.3501 22.9136C95.4004 23.3587 95.4395 23.8261 95.473 24.2879C95.5066 24.7497 95.529 25.2004 95.5457 25.6233C95.5625 26.0461 95.5737 26.4356 95.5848 26.775C95.5904 27.1088 95.5961 27.387 95.5961 27.5873C95.5961 27.7877 95.5961 28.2105 95.5961 28.4108C95.5961 28.6055 95.5904 28.8893 95.5848 29.2231C95.5792 29.557 95.5681 29.952 95.5457 30.3749C95.5234 30.7977 95.501 31.254 95.473 31.7102C95.4395 32.172 95.4004 32.6394 95.3501 33.0845C95.2998 33.5296 95.2383 33.9581 95.1656 34.342C95.0931 34.7259 95.0036 35.0653 94.9029 35.3323C94.8024 35.5994 94.6851 35.7997 94.5566 35.9054L94.3777 36.0278L81.3726 36.9014L81.4564 36.0112C81.5906 35.8887 81.8309 28.1994 81.8309 27.9879C81.8309 27.7765 81.5291 20.2096 81.4006 20.0872L81.3167 19.1691L94.4112 19.9981Z" fill="url(#paint63_linear_2587_199)"/>
<path d="M80.2268 27.3873C80.5118 27.3316 80.5006 27.1146 80.4727 26.9644C80.4447 26.8142 78.9749 21.0444 78.9749 21.0444C78.9749 21.0444 78.6172 20.4268 78.6004 20.3377C78.5837 20.2487 78.4384 19.5254 78.4384 19.5254L78.3322 19.2973L78.0192 17.3109L77.628 15.7308L77.4939 15.7586C77.4939 15.7586 77.9913 18.535 78.1142 19.8648C78.2205 21.0332 78.3546 23.7651 78.3546 23.7651L78.4607 23.7429L78.5781 22.3018L78.4663 20.5547L78.2875 20.0874L78.7849 21.1167L78.9525 21.8344L79.6958 25.8683L79.7517 26.1409L80.0982 26.0741L79.7574 26.2633C79.7574 26.2633 79.858 26.7752 79.925 27.1202C79.9865 27.4373 80.2268 27.3873 80.2268 27.3873Z" fill="url(#paint64_linear_2587_199)"/>
<path d="M78.7011 40.2228C78.9917 40.2395 79.0364 40.0281 79.0476 39.8779C79.0588 39.7276 79.1091 33.7742 79.1091 33.7742C79.1091 33.7742 78.9191 33.0899 78.9246 32.9953C78.9302 32.9062 78.975 32.1718 78.975 32.1718L78.9302 31.9214L79.1314 29.924L79.1594 28.2993L79.0197 28.2882C79.0197 28.2882 78.7905 31.1035 78.5726 32.4222C78.377 33.5795 77.8069 36.2557 77.8069 36.2557L77.9131 36.2613L78.3937 34.8981L78.7347 33.1789L78.6787 32.6837L78.8967 33.802L78.8744 34.5365L78.5614 38.626L78.5446 38.9042L78.8967 38.9264L78.5223 39.0266C78.5223 39.0266 78.4887 39.544 78.4664 39.8946C78.4552 40.2061 78.7011 40.2228 78.7011 40.2228Z" fill="url(#paint65_linear_2587_199)"/>
<defs>
<linearGradient id="paint0_linear_2587_199" x1="84.2942" y1="35.5441" x2="84.2942" y2="35.5441" gradientUnits="userSpaceOnUse">
<stop offset="1" stop-color="#231F20"/>
<stop offset="0.9353" stop-color="#3C393A"/>
<stop offset="0.7473" stop-color="#817E7F"/>
<stop offset="0.5778" stop-color="#B7B6B6"/>
<stop offset="0.4329" stop-color="#DEDEDE"/>
<stop offset="0.3182" stop-color="#F6F6F6"/>
<stop offset="0.248" stop-color="white"/>
<stop stop-color="#231F20"/>
</linearGradient>
<linearGradient id="paint1_linear_2587_199" x1="47.5927" y1="34.7291" x2="47.5927" y2="34.7291" gradientUnits="userSpaceOnUse">
<stop offset="1" stop-color="#231F20"/>
<stop offset="0.9971" stop-color="#262223"/>
<stop offset="0.9397" stop-color="#535051"/>
<stop offset="0.879" stop-color="#7B7979"/>
<stop offset="0.8126" stop-color="#9F9D9D"/>
<stop offset="0.7413" stop-color="#BDBBBC"/>
<stop offset="0.6635" stop-color="#D5D4D4"/>
<stop offset="0.5766" stop-color="#E8E7E8"/>
<stop offset="0.4757" stop-color="#F5F5F5"/>
<stop offset="0.3478" stop-color="#FDFDFD"/>
<stop offset="0.1032" stop-color="white"/>
<stop stop-color="#231F20"/>
</linearGradient>
<linearGradient id="paint2_linear_2587_199" x1="40.6862" y1="34.3997" x2="40.6862" y2="34.3997" gradientUnits="userSpaceOnUse">
<stop offset="1" stop-color="#929497"/>
<stop offset="0.7159" stop-color="#949699"/>
<stop offset="0.5785" stop-color="#9C9EA0"/>
<stop offset="0.4726" stop-color="#A9ABAD"/>
<stop offset="0.3828" stop-color="#BBBDBF"/>
<stop offset="0.3041" stop-color="#D3D4D6"/>
<stop offset="0.2555" stop-color="#E6E7E8"/>
</linearGradient>
<linearGradient id="paint3_linear_2587_199" x1="71.2735" y1="35.6123" x2="71.2735" y2="35.6123" gradientUnits="userSpaceOnUse">
<stop offset="0.9931" stop-color="#212121"/>
<stop offset="0.5678" stop-color="#3B393A"/>
<stop stop-color="#231F20"/>
</linearGradient>
<radialGradient id="paint4_radial_2587_199" cx="0" cy="0" r="1" gradientUnits="userSpaceOnUse" gradientTransform="translate(5.58863 41.1858) scale(16.0398 13.1921)">
<stop offset="1"/>
<stop stop-color="white"/>
</radialGradient>
<linearGradient id="paint5_linear_2587_199" x1="45.9644" y1="43.9151" x2="45.9644" y2="43.9151" gradientUnits="userSpaceOnUse">
<stop offset="1" stop-color="#929497"/>
<stop offset="0.7159" stop-color="#949699"/>
<stop offset="0.5785" stop-color="#9C9EA0"/>
<stop offset="0.4726" stop-color="#A9ABAD"/>
<stop offset="0.3828" stop-color="#BBBDBF"/>
<stop offset="0.3041" stop-color="#D3D4D6"/>
<stop offset="0.2555" stop-color="#E6E7E8"/>
</linearGradient>
<linearGradient id="paint6_linear_2587_199" x1="0.519756" y1="35.1827" x2="0.519756" y2="35.1827" gradientUnits="userSpaceOnUse">
<stop offset="1"/>
<stop offset="0.3273" stop-color="#808184"/>
<stop stop-color="#231F20"/>
</linearGradient>
<linearGradient id="paint7_linear_2587_199" x1="11.341" y1="45.0494" x2="11.341" y2="45.0494" gradientUnits="userSpaceOnUse">
<stop offset="1"/>
<stop offset="0.4907" stop-color="#D0D2D3"/>
<stop offset="0.2683" stop-color="#D0D2D3"/>
<stop stop-color="#231F20"/>
</linearGradient>
<linearGradient id="paint8_linear_2587_199" x1="10.6273" y1="36.2478" x2="10.6273" y2="36.2478" gradientUnits="userSpaceOnUse">
<stop offset="1"/>
<stop offset="0.9612" stop-color="#D0D2D3"/>
<stop offset="0.03766" stop-color="#D0D2D3"/>
<stop stop-color="#231F20"/>
</linearGradient>
<linearGradient id="paint9_linear_2587_199" x1="11.341" y1="11.6335" x2="11.341" y2="11.6335" gradientUnits="userSpaceOnUse">
<stop offset="1"/>
<stop offset="0.4907" stop-color="#D0D2D3"/>
<stop offset="0.2683" stop-color="#D0D2D3"/>
<stop stop-color="#231F20"/>
</linearGradient>
<linearGradient id="paint10_linear_2587_199" x1="2.90342" y1="35.1431" x2="2.90342" y2="35.1431" gradientUnits="userSpaceOnUse">
<stop offset="1" stop-color="#505050"/>
<stop stop-color="#E6E7E8"/>
</linearGradient>
<linearGradient id="paint11_linear_2587_199" x1="11.049" y1="42.1841" x2="11.049" y2="42.1841" gradientUnits="userSpaceOnUse">
<stop offset="1" stop-color="#E6E7E8"/>
<stop stop-color="#6D6E70"/>
</linearGradient>
<linearGradient id="paint12_linear_2587_199" x1="6.03171" y1="39.9104" x2="6.03171" y2="39.9104" gradientUnits="userSpaceOnUse">
<stop offset="1" stop-color="#6D6E70"/>
<stop offset="0.748" stop-color="#D0D2D3"/>
<stop offset="0.259" stop-color="#D0D2D3"/>
<stop stop-color="#808184"/>
</linearGradient>
<linearGradient id="paint13_linear_2587_199" x1="33.4907" y1="24.1353" x2="33.4907" y2="24.1353" gradientUnits="userSpaceOnUse">
<stop offset="1" stop-color="#6D6E70"/>
<stop offset="0.748" stop-color="#D0D2D3"/>
<stop offset="0.259" stop-color="#D0D2D3"/>
<stop stop-color="#808184"/>
</linearGradient>
<linearGradient id="paint14_linear_2587_199" x1="10.9902" y1="24.1353" x2="10.9902" y2="25.1226" gradientUnits="userSpaceOnUse">
<stop offset="1" stop-color="#6D6E70"/>
<stop offset="0.748" stop-color="#D0D2D3"/>
<stop offset="0.259" stop-color="#D0D2D3"/>
<stop stop-color="#808184"/>
</linearGradient>
<linearGradient id="paint15_linear_2587_199" x1="13.6116" y1="37.6905" x2="13.6116" y2="37.6905" gradientUnits="userSpaceOnUse">
<stop offset="1" stop-color="#6D6E70"/>
<stop offset="0.748" stop-color="#D0D2D3"/>
<stop offset="0.259" stop-color="#D0D2D3"/>
<stop stop-color="#808184"/>
</linearGradient>
<linearGradient id="paint16_linear_2587_199" x1="10.9429" y1="14.984" x2="10.9429" y2="14.984" gradientUnits="userSpaceOnUse">
<stop offset="1" stop-color="#6D6E70"/>
<stop stop-color="#E6E7E8"/>
</linearGradient>
<linearGradient id="paint17_linear_2587_199" x1="6.03171" y1="16.6696" x2="6.03171" y2="16.6696" gradientUnits="userSpaceOnUse">
<stop offset="1" stop-color="#6D6E70"/>
<stop offset="0.748" stop-color="#D0D2D3"/>
<stop offset="0.259" stop-color="#D0D2D3"/>
<stop stop-color="#808184"/>
</linearGradient>
<linearGradient id="paint18_linear_2587_199" x1="33.4907" y1="1.50157" x2="33.4907" y2="1.50157" gradientUnits="userSpaceOnUse">
<stop offset="1" stop-color="#6D6E70"/>
<stop offset="0.748" stop-color="#D0D2D3"/>
<stop offset="0.259" stop-color="#D0D2D3"/>
<stop stop-color="#808184"/>
</linearGradient>
<linearGradient id="paint19_linear_2587_199" x1="10.9902" y1="1.50167" x2="10.9902" y2="1.50167" gradientUnits="userSpaceOnUse">
<stop offset="1" stop-color="#6D6E70"/>
<stop offset="0.748" stop-color="#D0D2D3"/>
<stop offset="0.259" stop-color="#D0D2D3"/>
<stop stop-color="#808184"/>
</linearGradient>
<linearGradient id="paint20_linear_2587_199" x1="13.6116" y1="18.873" x2="13.6116" y2="18.873" gradientUnits="userSpaceOnUse">
<stop offset="1" stop-color="#6D6E70"/>
<stop offset="0.748" stop-color="#D0D2D3"/>
<stop offset="0.259" stop-color="#D0D2D3"/>
<stop stop-color="#808184"/>
</linearGradient>
<linearGradient id="paint21_linear_2587_199" x1="7.99055" y1="0.269851" x2="7.99055" y2="0.269851" gradientUnits="userSpaceOnUse">
<stop offset="1" stop-color="#6D6E70"/>
<stop offset="0.748" stop-color="#D0D2D3"/>
<stop offset="0.259" stop-color="#D0D2D3"/>
<stop stop-color="#808184"/>
</linearGradient>
<linearGradient id="paint22_linear_2587_199" x1="7.99055" y1="0.269851" x2="7.99055" y2="0.269851" gradientUnits="userSpaceOnUse">
<stop offset="1" stop-color="#6D6E70"/>
<stop offset="0.748" stop-color="#D0D2D3"/>
<stop offset="0.259" stop-color="#D0D2D3"/>
<stop stop-color="#808184"/>
</linearGradient>
<linearGradient id="paint23_linear_2587_199" x1="15.9811" y1="15.771" x2="15.9811" y2="14.6916" gradientUnits="userSpaceOnUse">
<stop offset="1" stop-color="#6D6E70"/>
<stop offset="0.748" stop-color="#D0D2D3"/>
<stop offset="0.259" stop-color="#D0D2D3"/>
<stop stop-color="#808184"/>
</linearGradient>
<linearGradient id="paint24_linear_2587_199" x1="7.99055" y1="0.269851" x2="7.99055" y2="0.269851" gradientUnits="userSpaceOnUse">
<stop offset="1" stop-color="#6D6E70"/>
<stop offset="0.748" stop-color="#D0D2D3"/>
<stop offset="0.259" stop-color="#D0D2D3"/>
<stop stop-color="#808184"/>
</linearGradient>
<linearGradient id="paint25_linear_2587_199" x1="15.9811" y1="15.7697" x2="15.9811" y2="14.6903" gradientUnits="userSpaceOnUse">
<stop offset="1" stop-color="#6D6E70"/>
<stop offset="0.748" stop-color="#D0D2D3"/>
<stop offset="0.259" stop-color="#D0D2D3"/>
<stop stop-color="#808184"/>
</linearGradient>
<linearGradient id="paint26_linear_2587_199" x1="7.99055" y1="0.269851" x2="7.99055" y2="0.269851" gradientUnits="userSpaceOnUse">
<stop offset="1" stop-color="#6D6E70"/>
<stop offset="0.748" stop-color="#D0D2D3"/>
<stop offset="0.259" stop-color="#D0D2D3"/>
<stop stop-color="#808184"/>
</linearGradient>
<linearGradient id="paint27_linear_2587_199" x1="7.99055" y1="0.269851" x2="7.99055" y2="0.269851" gradientUnits="userSpaceOnUse">
<stop offset="1" stop-color="#6D6E70"/>
<stop offset="0.748" stop-color="#D0D2D3"/>
<stop offset="0.259" stop-color="#D0D2D3"/>
<stop stop-color="#808184"/>
</linearGradient>
<linearGradient id="paint28_linear_2587_199" x1="7.99055" y1="0.269851" x2="7.99055" y2="0.269851" gradientUnits="userSpaceOnUse">
<stop offset="1" stop-color="#6D6E70"/>
<stop offset="0.748" stop-color="#D0D2D3"/>
<stop offset="0.259" stop-color="#D0D2D3"/>
<stop stop-color="#808184"/>
</linearGradient>
<linearGradient id="paint29_linear_2587_199" x1="15.9811" y1="15.7662" x2="16.4129" y2="14.9027" gradientUnits="userSpaceOnUse">
<stop offset="1" stop-color="#6D6E70"/>
<stop offset="0.748" stop-color="#D0D2D3"/>
<stop offset="0.259" stop-color="#D0D2D3"/>
<stop stop-color="#808184"/>
</linearGradient>
<radialGradient id="paint30_radial_2587_199" cx="0" cy="0" r="1" gradientUnits="userSpaceOnUse" gradientTransform="translate(14.8269 17.4152) scale(6.94125 1.69701)">
<stop offset="1" stop-color="#6D6E70"/>
<stop offset="0.387" stop-color="#E6E7E8"/>
</radialGradient>
<radialGradient id="paint31_radial_2587_199" cx="0" cy="0" r="1" gradientUnits="userSpaceOnUse" gradientTransform="translate(14.8269 41.9818) scale(6.94125 1.697)">
<stop offset="1" stop-color="#6D6E70"/>
<stop offset="0.387" stop-color="#E6E7E8"/>
</radialGradient>
<radialGradient id="paint32_radial_2587_199" cx="0" cy="0" r="1" gradientUnits="userSpaceOnUse" gradientTransform="translate(19.0298 41.5031) scale(2.10418 0.851281)">
<stop offset="0.613" stop-color="#BBBDBF"/>
<stop stop-color="#6D6E70"/>
</radialGradient>
<radialGradient id="paint33_radial_2587_199" cx="0" cy="0" r="1" gradientUnits="userSpaceOnUse" gradientTransform="translate(19.0298 16.0426) scale(2.10418 0.85127)">
<stop offset="0.613" stop-color="#BBBDBF"/>
<stop stop-color="#6D6E70"/>
</radialGradient>
<linearGradient id="paint34_linear_2587_199" x1="40.6164" y1="43.7726" x2="40.6164" y2="43.7726" gradientUnits="userSpaceOnUse">
<stop offset="1" stop-color="#929497"/>
<stop offset="0.7159" stop-color="#949699"/>
<stop offset="0.5785" stop-color="#9C9EA0"/>
<stop offset="0.4726" stop-color="#A9ABAD"/>
<stop offset="0.3828" stop-color="#BBBDBF"/>
<stop offset="0.3041" stop-color="#D3D4D6"/>
<stop offset="0.2555" stop-color="#E6E7E8"/>
</linearGradient>
<linearGradient id="paint35_linear_2587_199" x1="59.296" y1="43.9745" x2="59.296" y2="43.9745" gradientUnits="userSpaceOnUse">
<stop offset="1" stop-color="#929497"/>
<stop offset="0.7159" stop-color="#949699"/>
<stop offset="0.5785" stop-color="#9C9EA0"/>
<stop offset="0.4726" stop-color="#A9ABAD"/>
<stop offset="0.3828" stop-color="#BBBDBF"/>
<stop offset="0.3041" stop-color="#D3D4D6"/>
<stop offset="0.2555" stop-color="#E6E7E8"/>
</linearGradient>
<linearGradient id="paint36_linear_2587_199" x1="85.4344" y1="27.7689" x2="85.4344" y2="30.3862" gradientUnits="userSpaceOnUse">
<stop offset="1" stop-color="#929497"/>
<stop offset="0.7159" stop-color="#949699"/>
<stop offset="0.5785" stop-color="#9C9EA0"/>
<stop offset="0.4726" stop-color="#A9ABAD"/>
<stop offset="0.3828" stop-color="#BBBDBF"/>
<stop offset="0.3041" stop-color="#D3D4D6"/>
<stop offset="0.2555" stop-color="#E6E7E8"/>
</linearGradient>
<linearGradient id="paint37_linear_2587_199" x1="59.7916" y1="43.8974" x2="59.7916" y2="43.8974" gradientUnits="userSpaceOnUse">
<stop offset="0.9827" stop-color="#5C5B5D"/>
<stop offset="0.2026" stop-color="#333032"/>
<stop stop-color="#231F20"/>
</linearGradient>
<linearGradient id="paint38_linear_2587_199" x1="84.2727" y1="35.0448" x2="84.2727" y2="35.0448" gradientUnits="userSpaceOnUse">
<stop offset="0.9405" stop-color="white"/>
<stop stop-color="#231F20"/>
</linearGradient>
<linearGradient id="paint39_linear_2587_199" x1="84.415" y1="35.0933" x2="84.415" y2="35.0933" gradientUnits="userSpaceOnUse">
<stop offset="1" stop-color="#231F20"/>
<stop offset="0.9971" stop-color="#262223"/>
<stop offset="0.9397" stop-color="#535051"/>
<stop offset="0.879" stop-color="#7B7979"/>
<stop offset="0.8126" stop-color="#9F9D9D"/>
<stop offset="0.7413" stop-color="#BDBBBC"/>
<stop offset="0.6635" stop-color="#D5D4D4"/>
<stop offset="0.5766" stop-color="#E8E7E8"/>
<stop offset="0.4757" stop-color="#F5F5F5"/>
<stop offset="0.3478" stop-color="#FDFDFD"/>
<stop offset="0.1032" stop-color="white"/>
<stop stop-color="#231F20"/>
</linearGradient>
<linearGradient id="paint40_linear_2587_199" x1="49.1031" y1="33.4593" x2="49.1031" y2="33.4593" gradientUnits="userSpaceOnUse">
<stop offset="1" stop-color="#929497"/>
<stop offset="0.7159" stop-color="#949699"/>
<stop offset="0.5785" stop-color="#9C9EA0"/>
<stop offset="0.4726" stop-color="#A9ABAD"/>
<stop offset="0.3828" stop-color="#BBBDBF"/>
<stop offset="0.3041" stop-color="#D3D4D6"/>
<stop offset="0.2555" stop-color="#E6E7E8"/>
</linearGradient>
<linearGradient id="paint41_linear_2587_199" x1="84.2966" y1="37.2341" x2="84.2966" y2="37.2341" gradientUnits="userSpaceOnUse">
<stop offset="1" stop-color="#6D6E70"/>
<stop offset="0.8569" stop-color="#CED0D1"/>
<stop offset="0.639" stop-color="#D0D2D3"/>
<stop offset="0.5331" stop-color="#CDCECF"/>
<stop offset="0.4385" stop-color="#C2C4C5"/>
<stop offset="0.3484" stop-color="#B0B1B2"/>
<stop offset="0.2609" stop-color="#989899"/>
<stop offset="0.1753" stop-color="#787778"/>
<stop offset="0.09239" stop-color="#514F50"/>
<stop offset="0.01091" stop-color="#242021"/>
<stop offset="0.00985" stop-color="#231F20"/>
</linearGradient>
<linearGradient id="paint42_linear_2587_199" x1="84.2966" y1="19.3408" x2="84.2966" y2="19.3408" gradientUnits="userSpaceOnUse">
<stop offset="1" stop-color="#6D6E70"/>
<stop offset="0.8569" stop-color="#CED0D1"/>
<stop offset="0.639" stop-color="#D0D2D3"/>
<stop offset="0.5331" stop-color="#CDCECF"/>
<stop offset="0.4385" stop-color="#C2C4C5"/>
<stop offset="0.3484" stop-color="#B0B1B2"/>
<stop offset="0.2609" stop-color="#989899"/>
<stop offset="0.1753" stop-color="#787778"/>
<stop offset="0.09239" stop-color="#514F50"/>
<stop offset="0.01091" stop-color="#242021"/>
<stop offset="0.00985" stop-color="#231F20"/>
</linearGradient>
<linearGradient id="paint43_linear_2587_199" x1="86.2209" y1="32.9455" x2="86.2209" y2="32.9455" gradientUnits="userSpaceOnUse">
<stop offset="0.9405" stop-color="white"/>
<stop stop-color="#231F20"/>
</linearGradient>
<linearGradient id="paint44_linear_2587_199" x1="95.1851" y1="32.2107" x2="95.1851" y2="32.2107" gradientUnits="userSpaceOnUse">
<stop offset="0.9405" stop-color="#A6A8AB"/>
<stop stop-color="#231F20"/>
</linearGradient>
<linearGradient id="paint45_linear_2587_199" x1="47.1892" y1="43.8979" x2="47.1892" y2="43.8979" gradientUnits="userSpaceOnUse">
<stop offset="0.9827" stop-color="#5C5B5D"/>
<stop offset="0.2026" stop-color="#333032"/>
<stop stop-color="#231F20"/>
</linearGradient>
<linearGradient id="paint46_linear_2587_199" x1="39.5447" y1="35.3058" x2="39.5447" y2="35.3058" gradientUnits="userSpaceOnUse">
<stop offset="0.9827" stop-color="#5C5B5D"/>
<stop offset="0.2026" stop-color="#333032"/>
<stop stop-color="#231F20"/>
</linearGradient>
<linearGradient id="paint47_linear_2587_199" x1="40.6011" y1="29.0122" x2="40.6011" y2="29.0122" gradientUnits="userSpaceOnUse">
<stop offset="0.7167" stop-color="#EC1C24"/>
<stop offset="0.5194" stop-color="#E61C25"/>
<stop offset="0.2602" stop-color="#D61D28"/>
<stop stop-color="#BE1E2D"/>
</linearGradient>
<linearGradient id="paint48_linear_2587_199" x1="40.6067" y1="31.4042" x2="40.6067" y2="31.4042" gradientUnits="userSpaceOnUse">
<stop offset="0.7167" stop-color="#E6E7E8"/>
<stop offset="0.5812" stop-color="#E0E1E2"/>
<stop offset="0.403" stop-color="#D0D1D2"/>
<stop offset="0.2015" stop-color="#B5B6B8"/>
<stop stop-color="#929497"/>
</linearGradient>
<linearGradient id="paint49_linear_2587_199" x1="40.6067" y1="25.5694" x2="40.6067" y2="25.5694" gradientUnits="userSpaceOnUse">
<stop offset="0.7167" stop-color="#E6E7E8"/>
<stop offset="0.5812" stop-color="#E0E1E2"/>
<stop offset="0.403" stop-color="#D0D1D2"/>
<stop offset="0.2015" stop-color="#B5B6B8"/>
<stop stop-color="#929497"/>
</linearGradient>
<linearGradient id="paint50_linear_2587_199" x1="51.7509" y1="43.9536" x2="51.7509" y2="43.9536" gradientUnits="userSpaceOnUse">
<stop offset="0.7445" stop-color="#231F20"/>
<stop offset="0.4925" stop-color="#3A3839"/>
<stop offset="0.1867" stop-color="#505052"/>
<stop stop-color="#58595B"/>
</linearGradient>
<linearGradient id="paint51_linear_2587_199" x1="47.7549" y1="45.3328" x2="47.7549" y2="45.3328" gradientUnits="userSpaceOnUse">
<stop offset="1" stop-color="#6D6E70"/>
<stop offset="0.8569" stop-color="#CED0D1"/>
<stop offset="0.639" stop-color="#D0D2D3"/>
<stop offset="0.5331" stop-color="#CDCECF"/>
<stop offset="0.4385" stop-color="#C2C4C5"/>
<stop offset="0.3484" stop-color="#B0B1B2"/>
<stop offset="0.2609" stop-color="#989899"/>
<stop offset="0.1753" stop-color="#787778"/>
<stop offset="0.09239" stop-color="#514F50"/>
<stop offset="0.01091" stop-color="#242021"/>
<stop offset="0.00985" stop-color="#231F20"/>
</linearGradient>
<linearGradient id="paint52_linear_2587_199" x1="45.9644" y1="13.9141" x2="45.9644" y2="13.9141" gradientUnits="userSpaceOnUse">
<stop offset="1" stop-color="#929497"/>
<stop offset="0.7159" stop-color="#949699"/>
<stop offset="0.5785" stop-color="#9C9EA0"/>
<stop offset="0.4726" stop-color="#A9ABAD"/>
<stop offset="0.3828" stop-color="#BBBDBF"/>
<stop offset="0.3041" stop-color="#D3D4D6"/>
<stop offset="0.2555" stop-color="#E6E7E8"/>
</linearGradient>
<linearGradient id="paint53_linear_2587_199" x1="40.6164" y1="14.2409" x2="40.6164" y2="14.2409" gradientUnits="userSpaceOnUse">
<stop offset="1" stop-color="#929497"/>
<stop offset="0.7159" stop-color="#949699"/>
<stop offset="0.5785" stop-color="#9C9EA0"/>
<stop offset="0.4726" stop-color="#A9ABAD"/>
<stop offset="0.3828" stop-color="#BBBDBF"/>
<stop offset="0.3041" stop-color="#D3D4D6"/>
<stop offset="0.2555" stop-color="#E6E7E8"/>
</linearGradient>
<linearGradient id="paint54_linear_2587_199" x1="59.296" y1="13.8018" x2="59.296" y2="13.8018" gradientUnits="userSpaceOnUse">
<stop offset="1" stop-color="#929497"/>
<stop offset="0.7159" stop-color="#949699"/>
<stop offset="0.5785" stop-color="#9C9EA0"/>
<stop offset="0.4726" stop-color="#A9ABAD"/>
<stop offset="0.3828" stop-color="#BBBDBF"/>
<stop offset="0.3041" stop-color="#D3D4D6"/>
<stop offset="0.2555" stop-color="#E6E7E8"/>
</linearGradient>
<linearGradient id="paint55_linear_2587_199" x1="85.4344" y1="19.6453" x2="85.4344" y2="22.2627" gradientUnits="userSpaceOnUse">
<stop offset="1" stop-color="#929497"/>
<stop offset="0.7159" stop-color="#949699"/>
<stop offset="0.5785" stop-color="#9C9EA0"/>
<stop offset="0.4726" stop-color="#A9ABAD"/>
<stop offset="0.3828" stop-color="#BBBDBF"/>
<stop offset="0.3041" stop-color="#D3D4D6"/>
<stop offset="0.2555" stop-color="#E6E7E8"/>
</linearGradient>
<linearGradient id="paint56_linear_2587_199" x1="59.7916" y1="12.9665" x2="59.7916" y2="12.9665" gradientUnits="userSpaceOnUse">
<stop offset="0.9827" stop-color="#5C5B5D"/>
<stop offset="0.2026" stop-color="#333032"/>
<stop stop-color="#231F20"/>
</linearGradient>
<linearGradient id="paint57_linear_2587_199" x1="47.1892" y1="12.9736" x2="47.1892" y2="12.9736" gradientUnits="userSpaceOnUse">
<stop offset="0.9827" stop-color="#5C5B5D"/>
<stop offset="0.2026" stop-color="#333032"/>
<stop stop-color="#231F20"/>
</linearGradient>
<linearGradient id="paint58_linear_2587_199" x1="51.752" y1="13.0293" x2="51.752" y2="13.0293" gradientUnits="userSpaceOnUse">
<stop offset="0.7445" stop-color="#231F20"/>
<stop offset="0.4925" stop-color="#3A3839"/>
<stop offset="0.1867" stop-color="#505052"/>
<stop stop-color="#58595B"/>
</linearGradient>
<linearGradient id="paint59_linear_2587_199" x1="47.7507" y1="11.0517" x2="47.7507" y2="11.0517" gradientUnits="userSpaceOnUse">
<stop offset="1" stop-color="#6D6E70"/>
<stop offset="0.8569" stop-color="#CED0D1"/>
<stop offset="0.639" stop-color="#D0D2D3"/>
<stop offset="0.5331" stop-color="#CDCECF"/>
<stop offset="0.4385" stop-color="#C2C4C5"/>
<stop offset="0.3484" stop-color="#B0B1B2"/>
<stop offset="0.2609" stop-color="#989899"/>
<stop offset="0.1753" stop-color="#787778"/>
<stop offset="0.09239" stop-color="#514F50"/>
<stop offset="0.01091" stop-color="#242021"/>
<stop offset="0.00985" stop-color="#231F20"/>
</linearGradient>
<linearGradient id="paint60_linear_2587_199" x1="64.7264" y1="37.1741" x2="64.7264" y2="37.1741" gradientUnits="userSpaceOnUse">
<stop offset="1" stop-color="#6D6E70"/>
<stop offset="0.8569" stop-color="#CED0D1"/>
<stop offset="0.639" stop-color="#D0D2D3"/>
<stop offset="0.5331" stop-color="#CDCECF"/>
<stop offset="0.4385" stop-color="#C2C4C5"/>
<stop offset="0.3484" stop-color="#B0B1B2"/>
<stop offset="0.2609" stop-color="#989899"/>
<stop offset="0.1753" stop-color="#787778"/>
<stop offset="0.09239" stop-color="#514F50"/>
<stop offset="0.01091" stop-color="#242021"/>
<stop offset="0.00985" stop-color="#231F20"/>
</linearGradient>
<linearGradient id="paint61_linear_2587_199" x1="65.4725" y1="37.3664" x2="65.4725" y2="37.3664" gradientUnits="userSpaceOnUse">
<stop offset="1" stop-color="#6D6E70"/>
<stop offset="0.8569" stop-color="#CED0D1"/>
<stop offset="0.639" stop-color="#D0D2D3"/>
<stop offset="0.5331" stop-color="#CDCECF"/>
<stop offset="0.4385" stop-color="#C2C4C5"/>
<stop offset="0.3484" stop-color="#B0B1B2"/>
<stop offset="0.2609" stop-color="#989899"/>
<stop offset="0.1753" stop-color="#787778"/>
<stop offset="0.09239" stop-color="#514F50"/>
<stop offset="0.01091" stop-color="#242021"/>
<stop offset="0.00985" stop-color="#231F20"/>
</linearGradient>
<linearGradient id="paint62_linear_2587_199" x1="95.2091" y1="35.9532" x2="95.2091" y2="35.9532" gradientUnits="userSpaceOnUse">
<stop offset="1" stop-color="#929497"/>
<stop offset="0.8064" stop-color="#B6B8BA"/>
<stop offset="0.562" stop-color="#DEDEDF"/>
<stop offset="0.3673" stop-color="#F6F6F6"/>
<stop offset="0.248" stop-color="white"/>
<stop stop-color="#231F20"/>
</linearGradient>
<linearGradient id="paint63_linear_2587_199" x1="84.8865" y1="32.4683" x2="84.8865" y2="32.4683" gradientUnits="userSpaceOnUse">
<stop offset="0.4504" stop-color="white"/>
<stop offset="0.3376" stop-color="#FCFCFC"/>
<stop offset="0.26" stop-color="#F3F3F4"/>
<stop offset="0.1929" stop-color="#E4E4E5"/>
<stop offset="0.1319" stop-color="#CECED0"/>
<stop offset="0.07484" stop-color="#B2B3B4"/>
<stop offset="0.02156" stop-color="#909194"/>
<stop stop-color="#808184"/>
</linearGradient>
<linearGradient id="paint64_linear_2587_199" x1="72.5596" y1="45.2562" x2="72.5596" y2="45.6324" gradientUnits="userSpaceOnUse">
<stop offset="1"/>
<stop offset="0.9242" stop-color="#19191A"/>
<stop offset="0.5199" stop-color="#5A595B"/>
<stop offset="0.4737" stop-color="#464445"/>
<stop offset="0.4198" stop-color="#363334"/>
<stop offset="0.3532" stop-color="#2B2729"/>
<stop offset="0.2597" stop-color="#252122"/>
<stop stop-color="#231F20"/>
</linearGradient>
<linearGradient id="paint65_linear_2587_199" x1="72.7176" y1="33.3919" x2="72.7176" y2="34.0464" gradientUnits="userSpaceOnUse">
<stop offset="1"/>
<stop offset="0.3273" stop-color="#505050"/>
<stop stop-color="#231F20"/>
</linearGradient>
</defs>
</svg>
