<svg width="100" height="56" viewBox="0 0 100 56" fill="none" xmlns="http://www.w3.org/2000/svg">
<path d="M70.9896 49.8814V45.1111L70.1562 43.3481H63.3334V19.4424L64.6914 19.4423V19.1965H64.8148V19.1966H65.679V20.7945L65.8025 21.7777V36.0351L66.7901 37.0183L68.5188 37.0183L68.5186 37.0183V42.9179L74.9382 42.9178L74.9383 42.9178V42.9179L76.4198 42.9178V38.0015H77.1605V36.7724H98.0247L99.3827 36.4037L100 35.9121V35.2976L99.3827 34.8059L98.0247 34.4372H77.1605V21.6547H98.0247L99.3827 21.286L100 20.7944V20.1799L99.3827 19.6882L98.0247 19.3195H77.1605V17.9674H76.4198V13.0511H68.5185V14.0344H64.6914V12.6H70.1562L70.9896 10.837V6.06663L70.1562 4.30367H12.5521L11.7188 6.06663V9.85551H10.7406L10.7408 9.85546L10.5494 8.31971C10.5179 8.06868 10.3001 7.88237 10.0461 7.88914L4.19657 8.36229C4.03865 8.36651 3.88836 8.43089 3.77665 8.5421L0.144704 12.158C0.0520998 12.2501 6.32206e-06 12.3751 0 12.5055V43.4399C8.72435e-06 43.5702 0.0521014 43.6952 0.144704 43.7874L3.77665 47.4033C3.88836 47.5145 4.03865 47.5788 4.19657 47.5831L10.0461 48.0562C10.3001 48.063 10.5179 47.8767 10.5494 47.6257L10.7392 46.1135H11.7188V49.8814L12.5521 51.6444H70.1562L70.9896 49.8814Z" fill="black"/>
<path fill-rule="evenodd" clip-rule="evenodd" d="M27.6546 46.1135V44.2699H15.9263V42.3034H7.65463C7.1092 42.3034 6.66703 41.8631 6.66698 41.3201V22.8839C6.66702 22.3409 7.1092 21.9007 7.65463 21.9007L27.4077 21.9008V23.6067L23.5019 23.9178C22.9886 23.9587 22.593 24.3853 22.5929 24.8979V42.8706C22.593 43.3832 22.9886 43.8099 23.5019 43.8507L28.7658 44.27L45.5559 44.2699V23.4984L28.7658 23.4985L27.6546 23.587V21.6549L62.8398 21.6548V23.4984H61.1115V44.2699H62.8398V46.1135H63.3337V19.4424H1.97562V13.7887H4.93862V13.7885H5.06206V13.7887H10.988V13.7885H11.1115V13.7887H22.5929V11.5764H27.1608C26.5197 11.2572 25.9999 10.7397 25.6793 10.1015V9.97852C25.6793 9.9107 25.624 9.85566 25.5559 9.85563H4.07426L1.48169 12.4367L1.48179 43.5326L4.07441 46.1136L27.6546 46.1135ZM24.9386 21.5319H26.4201V21.6548H24.9386V21.5319ZM8.74793 44.6769L9.62993 44.4417V44.2699H11.1115V45.7448H10.4686L9.13133 46.1015L8.74793 44.6769Z" fill="#E5A800"/>
<path d="M69.7532 19.1965V18.4591L68.6421 18.4592V19.1967L69.7532 19.1965Z" fill="url(#paint0_linear_2585_154904)"/>
<path d="M65.6791 19.1967V18.4592H64.8149V19.1967H65.6791Z" fill="url(#paint1_linear_2585_154904)"/>
<path d="M69.7531 37.0182V36.0349H67.284V35.4204H69.7531V19.1965L68.642 19.1966V20.7944L68.7655 21.7776L65.8025 21.7777V36.035L66.7901 37.0183L69.7531 37.0182Z" fill="url(#paint2_linear_2585_154904)"/>
<path d="M72.2224 17.9675L72.2223 13.0512H68.5186V14.0344H69.7531V14.8948H71.2346V15.3864H69.7531V15.8781H71.2346V16.3697H69.7531V16.8613H71.2346V17.353H69.7531V17.8446H71.2346V17.9675H72.2224Z" fill="url(#paint3_linear_2585_154904)"/>
<path fill-rule="evenodd" clip-rule="evenodd" d="M74.9384 13.0512H72.4692L72.4693 17.9675H74.9384V13.0512ZM74.5062 13.7886C74.4039 13.7886 74.321 13.7061 74.321 13.6043C74.321 13.5024 74.4039 13.4199 74.5062 13.4199C74.6085 13.4199 74.6914 13.5024 74.6914 13.6043C74.6914 13.7061 74.6085 13.7886 74.5062 13.7886ZM74.5062 15.7552C74.4039 15.7552 74.321 15.6726 74.321 15.5708C74.321 15.469 74.4039 15.3864 74.5062 15.3864C74.6085 15.3864 74.6914 15.469 74.6914 15.5708C74.6914 15.6726 74.6085 15.7552 74.5062 15.7552ZM74.5062 17.5988C74.4039 17.5988 74.321 17.5162 74.321 17.4144C74.321 17.3126 74.4039 17.2301 74.5062 17.2301C74.6085 17.2301 74.6914 17.3126 74.6914 17.4144C74.6914 17.5162 74.6085 17.5988 74.5062 17.5988Z" fill="url(#paint4_linear_2585_154904)"/>
<path fill-rule="evenodd" clip-rule="evenodd" d="M74.9383 42.9178V38.0016H72.4692V42.9178H72.2223V38.0016H71.2346V37.7558L75.4321 37.7557L75.4323 18.2133H71.2346V18.3362H69.7531V35.4205H70.4939V36.035H69.7531V37.0183L68.5187 37.0184V42.918L74.9383 42.9178ZM71.8519 32.4708C71.6537 32.4708 71.4919 32.3158 71.482 32.121L71.4815 32.1021V23.9901C71.4815 23.7865 71.6473 23.6214 71.8519 23.6214H74.0741C74.2786 23.6214 74.4444 23.7864 74.4445 23.99V32.1019L74.444 32.121C74.4341 32.3158 74.2723 32.4708 74.0741 32.4708H71.8519ZM74.5062 38.7391C74.404 38.7391 74.3211 38.6565 74.321 38.5547C74.321 38.4529 74.4039 38.3704 74.5062 38.3704C74.6085 38.3704 74.6914 38.4528 74.6914 38.5546C74.6914 38.6564 74.6085 38.7391 74.5062 38.7391ZM74.5062 40.5827C74.404 40.5827 74.3211 40.5001 74.321 40.3984C74.321 40.2965 74.4039 40.214 74.5062 40.214C74.6085 40.214 74.6914 40.2964 74.6914 40.3982C74.6914 40.5001 74.6085 40.5827 74.5062 40.5827ZM74.5062 42.5492C74.404 42.5492 74.3211 42.4667 74.321 42.3649C74.321 42.2631 74.4039 42.1805 74.5062 42.1805C74.6085 42.1805 74.6914 42.263 74.6914 42.3648C74.6914 42.4666 74.6085 42.5492 74.5062 42.5492Z" fill="url(#paint5_linear_2585_154904)"/>
<path d="M10.046 7.88922L4.19655 8.36237C4.03862 8.36659 3.88834 8.43096 3.77663 8.54217L0.144658 12.158C0.0520519 12.2502 -1.39112e-05 12.3752 -1.77144e-05 12.5056L-1.4998e-05 43.4399C-1.11718e-05 43.5703 0.0520537 43.6953 0.144661 43.7875L3.77663 47.4033C3.88834 47.5145 4.03863 47.5789 4.19655 47.5831L10.046 48.0563C10.3001 48.0631 10.5179 47.8768 10.5494 47.6257L10.7393 46.1134L4.07406 46.1134L1.48147 43.5323L1.48146 12.4366L4.07406 9.85551L10.7407 9.85551L10.5494 8.31976C10.5179 8.06873 10.3001 7.88243 10.046 7.88922Z" fill="#222222"/>
<path opacity="0.25" d="M4.19756 12.5595L1.72842 12.5595L1.97534 13.7886L4.9383 13.7886L4.9383 13.4198L5.43213 13.4198L5.43213 12.6824L6.41978 12.6824L6.41978 10.9617L7.53089 10.9617L7.53089 10.8388L8.51855 10.8388L8.51855 10.9617L9.62966 10.9617L9.62966 12.6824L16.7902 12.6824L16.7902 13.5427L11.1111 13.5427L11.1111 13.7886L18.8889 13.7886L18.8889 10.1013L4.19756 10.1013L4.19756 12.5595Z" fill="url(#paint6_linear_2585_154904)"/>
<path d="M6.66673 22.8839C6.66673 22.3409 7.10892 21.9006 7.65438 21.9006L27.4075 21.9006L27.4075 22.8839L8.14821 22.8839C7.87548 22.8839 7.65438 23.104 7.65438 23.3755L7.65439 40.8285C7.65439 41.1 7.87548 41.3201 8.14821 41.3201L22.5927 41.3201L22.5927 42.3034L7.65439 42.3034C7.10892 42.3034 6.66673 41.8632 6.66673 41.3201L6.66673 22.8839Z" fill="#111111"/>
<path d="M8.14821 22.8839C7.87548 22.8839 7.65438 23.104 7.65438 23.3755L7.65439 40.8285C7.65439 41.1 7.87548 41.3201 8.14821 41.3201L22.5927 41.3201L22.5927 41.0743L8.14821 41.0743C8.01185 41.0743 7.9013 40.9643 7.9013 40.8285L7.9013 23.3755C7.9013 23.2398 8.01184 23.1297 8.14821 23.1297L27.4075 23.1297L27.4075 22.8839L8.14821 22.8839Z" fill="#444444"/>
<path d="M7.9013 40.8284L22.5927 40.8284L22.5927 40.5826L7.9013 40.5826L7.9013 40.8284Z" fill="#333333"/>
<path d="M7.9013 40.3368L22.5927 40.3368L22.5927 40.091L7.9013 40.091L7.9013 40.3368Z" fill="#333333"/>
<path d="M7.9013 39.8452L22.5927 39.8452L22.5927 39.5994L7.9013 39.5994L7.9013 39.8452Z" fill="#333333"/>
<path d="M7.9013 39.3535L22.5927 39.3535L22.5927 39.1077L7.9013 39.1077L7.9013 39.3535Z" fill="#333333"/>
<path d="M7.9013 38.8619L22.5927 38.8619L22.5927 38.6161L7.9013 38.6161L7.9013 38.8619Z" fill="#333333"/>
<path d="M7.9013 38.3703L22.5927 38.3703L22.5927 38.1245L7.9013 38.1245L7.9013 38.3703Z" fill="#333333"/>
<path d="M7.9013 37.8786L22.5927 37.8786L22.5927 37.6328L7.9013 37.6328L7.9013 37.8786Z" fill="#333333"/>
<path d="M7.9013 37.387L22.5927 37.387L22.5927 37.1412L7.9013 37.1412L7.9013 37.387Z" fill="#333333"/>
<path d="M7.9013 36.8954L22.5927 36.8954L22.5927 36.6496L7.9013 36.6496L7.9013 36.8954Z" fill="#333333"/>
<path d="M7.9013 36.4037L22.5927 36.4037L22.5927 36.1579L7.9013 36.1579L7.9013 36.4037Z" fill="#333333"/>
<path d="M7.9013 35.9121L22.5927 35.9121L22.5927 35.6663L7.9013 35.6663L7.9013 35.9121Z" fill="#333333"/>
<path d="M7.9013 35.4205L22.5927 35.4205L22.5927 35.1747L7.9013 35.1747L7.9013 35.4205Z" fill="#333333"/>
<path d="M7.9013 34.9289L22.5927 34.9288L22.5927 34.683L7.9013 34.683L7.9013 34.9289Z" fill="#333333"/>
<path d="M7.9013 34.4372L22.5927 34.4372L22.5927 34.1914L7.9013 34.1914L7.9013 34.4372Z" fill="#333333"/>
<path d="M7.9013 33.9456L22.5927 33.9456L22.5927 33.6998L7.9013 33.6998L7.9013 33.9456Z" fill="#333333"/>
<path d="M7.9013 33.454L22.5927 33.454L22.5927 33.2081L7.9013 33.2081L7.9013 33.454Z" fill="#333333"/>
<path d="M7.9013 32.9623L22.5927 32.9623L22.5927 32.7165L7.9013 32.7165L7.9013 32.9623Z" fill="#333333"/>
<path d="M7.9013 32.4707L22.5927 32.4707L22.5927 32.2249L7.9013 32.2249L7.9013 32.4707Z" fill="#333333"/>
<path d="M7.9013 31.9791L22.5927 31.9791L22.5927 31.7332L7.9013 31.7332L7.9013 31.9791Z" fill="#333333"/>
<path d="M7.9013 31.4874L22.5927 31.4874L22.5927 31.2416L7.9013 31.2416L7.9013 31.4874Z" fill="#333333"/>
<path d="M7.9013 30.9958L22.5927 30.9958L22.5927 30.75L7.9013 30.75L7.9013 30.9958Z" fill="#333333"/>
<path d="M7.9013 30.5042L22.5927 30.5042L22.5927 30.2583L7.9013 30.2583L7.9013 30.5042Z" fill="#333333"/>
<path d="M7.9013 30.0125L22.5927 30.0125L22.5927 29.7667L7.9013 29.7667L7.9013 30.0125Z" fill="#333333"/>
<path d="M7.9013 29.5209L22.5927 29.5209L22.5927 29.2751L7.9013 29.2751L7.9013 29.5209Z" fill="#333333"/>
<path d="M7.9013 29.0293L22.5927 29.0293L22.5927 28.7834L7.9013 28.7834L7.9013 29.0293Z" fill="#333333"/>
<path d="M7.9013 28.5376L22.5927 28.5376L22.5927 28.2918L7.9013 28.2918L7.9013 28.5376Z" fill="#333333"/>
<path d="M7.9013 28.046L22.5927 28.046L22.5927 27.8002L7.9013 27.8002L7.9013 28.046Z" fill="#333333"/>
<path d="M7.9013 27.5544L22.5927 27.5544L22.5927 27.3085L7.9013 27.3085L7.9013 27.5544Z" fill="#333333"/>
<path d="M7.9013 27.0627L22.5927 27.0627L22.5927 26.8169L7.9013 26.8169L7.9013 27.0627Z" fill="#333333"/>
<path d="M7.9013 26.5711L22.5927 26.5711L22.5927 26.3253L7.9013 26.3253L7.9013 26.5711Z" fill="#333333"/>
<path d="M7.9013 26.0795L22.5927 26.0795L22.5927 25.8337L7.9013 25.8337L7.9013 26.0795Z" fill="#333333"/>
<path d="M7.9013 25.5878L22.5927 25.5878L22.5927 25.342L7.9013 25.342L7.9013 25.5878Z" fill="#333333"/>
<path d="M7.9013 25.0962L22.5927 25.0962L22.5927 24.8504L7.9013 24.8504L7.9013 25.0962Z" fill="#333333"/>
<path d="M7.9013 24.6046L22.6376 24.6046C22.6652 24.5168 22.7048 24.4342 22.7546 24.3588L7.9013 24.3588L7.9013 24.6046Z" fill="#333333"/>
<path d="M7.9013 24.1129L22.9855 24.1129C23.1308 24.0036 23.3078 23.9331 23.5016 23.9177L24.136 23.8671L7.9013 23.8671L7.9013 24.1129Z" fill="#333333"/>
<path d="M7.9013 23.6213L27.2222 23.6213L27.4075 23.6065L27.4075 23.3755L7.9013 23.3755L7.9013 23.6213Z" fill="#333333"/>
<path d="M7.90137 23.3756L27.4075 23.3755V23.1296L8.14828 23.1298C8.01191 23.1298 7.90137 23.2398 7.90137 23.3756Z" fill="#222222"/>
<path d="M27.2208 23.6214H7.90137V23.8672H24.1358L27.2208 23.6214Z" fill="#222222"/>
<path d="M22.7545 24.3588C22.8168 24.2644 22.8949 24.1812 22.9854 24.113H7.90137V24.3588H22.7545Z" fill="#222222"/>
<path d="M22.5927 24.8979C22.5927 24.796 22.6086 24.6974 22.6377 24.6047H7.90137V24.8505H22.5927V24.8979Z" fill="#222222"/>
<path d="M22.5927 25.0963H7.90137V25.3421H22.5927V25.0963Z" fill="#222222"/>
<path d="M22.5927 25.5879H7.90137V25.8337H22.5927V25.5879Z" fill="#222222"/>
<path d="M22.5927 26.0796H7.90137V26.3254H22.5927V26.0796Z" fill="#222222"/>
<path d="M22.5927 26.5712H7.90137V26.817H22.5927V26.5712Z" fill="#222222"/>
<path d="M22.5927 27.0628H7.90137V27.3086H22.5927V27.0628Z" fill="#222222"/>
<path d="M22.5927 27.5545H7.90137V27.8003H22.5927V27.5545Z" fill="#222222"/>
<path d="M22.5927 28.0461H7.90137V28.2919H22.5927V28.0461Z" fill="#222222"/>
<path d="M22.5927 28.5377H7.90137V28.7835H22.5927V28.5377Z" fill="#222222"/>
<path d="M22.5927 29.0293H7.90137V29.2752H22.5927V29.0293Z" fill="#222222"/>
<path d="M22.5927 29.521H7.90137V29.7668H22.5927V29.521Z" fill="#222222"/>
<path d="M22.5927 30.0126H7.90137V30.2584H22.5927V30.0126Z" fill="#222222"/>
<path d="M22.5927 30.5042H7.90137V30.7501H22.5927V30.5042Z" fill="#222222"/>
<path d="M22.5927 30.9959H7.90137V31.2417H22.5927V30.9959Z" fill="#222222"/>
<path d="M22.5927 31.4875H7.90137V31.7333H22.5927V31.4875Z" fill="#222222"/>
<path d="M22.5927 31.9791H7.90137V32.225H22.5927V31.9791Z" fill="#222222"/>
<path d="M22.5927 32.4708H7.90137V32.7166H22.5927V32.4708Z" fill="#222222"/>
<path d="M22.5927 32.9624H7.90137V33.2082H22.5927V32.9624Z" fill="#222222"/>
<path d="M22.5927 33.454H7.90137V33.6999H22.5927V33.454Z" fill="#222222"/>
<path d="M22.5927 33.9457H7.90137V34.1915H22.5927V33.9457Z" fill="#222222"/>
<path d="M22.5927 34.4373H7.90137V34.6831H22.5927V34.4373Z" fill="#222222"/>
<path d="M22.5927 34.9289H7.90137V35.1748H22.5927V34.9289Z" fill="#222222"/>
<path d="M22.5927 35.4206H7.90137V35.6664H22.5927V35.4206Z" fill="#222222"/>
<path d="M22.5927 35.9122H7.90137V36.158H22.5927V35.9122Z" fill="#222222"/>
<path d="M22.5927 36.4038H7.90137V36.6496H22.5927V36.4038Z" fill="#222222"/>
<path d="M22.5927 36.8955H7.90137V37.1413H22.5927V36.8955Z" fill="#222222"/>
<path d="M22.5927 37.3871H7.90137V37.6329H22.5927V37.3871Z" fill="#222222"/>
<path d="M22.5927 37.8787H7.90137V38.1245H22.5927V37.8787Z" fill="#222222"/>
<path d="M22.5927 38.3704H7.90137V38.6162H22.5927V38.3704Z" fill="#222222"/>
<path d="M22.5927 38.862H7.90137V39.1078H22.5927V38.862Z" fill="#222222"/>
<path d="M22.5927 39.3536H7.90137V39.5994H22.5927V39.3536Z" fill="#222222"/>
<path d="M22.5927 39.8453H7.90137V40.0911H22.5927V39.8453Z" fill="#222222"/>
<path d="M22.5927 40.3369H7.90137V40.5827H22.5927V40.3369Z" fill="#222222"/>
<path d="M22.5927 40.8285H7.90137C7.9014 40.9643 8.01193 41.0743 8.14828 41.0743H22.5927V40.8285Z" fill="#222222"/>
<path d="M15.9259 44.2699L28.7654 44.2699L23.5015 43.8506C22.9882 43.8097 22.5925 43.3831 22.5925 42.8705L22.5925 42.3033L15.9259 42.3033L15.9259 44.2699Z" fill="url(#paint7_linear_2585_154904)"/>
<path d="M62.8396 21.6548L27.6544 21.6548L27.6544 23.2526L62.8396 23.2526L62.8396 21.6548Z" fill="url(#paint8_linear_2585_154904)"/>
<path d="M45.8025 23.4984L45.8025 44.2699L60.8643 44.2699L60.8643 23.4984L45.8025 23.4984Z" fill="url(#paint9_linear_2585_154904)"/>
<path d="M45.8026 44.2699V23.4984L45.5557 23.4986V44.27L45.8026 44.2699Z" fill="#111111"/>
<path d="M61.1112 44.2699V23.4984L60.8643 23.4986V44.27L61.1112 44.2699Z" fill="#111111"/>
<rect opacity="0.25" width="6.41975" height="0.245816" transform="matrix(-1 8.70342e-08 8.78131e-08 1 11.4814 19.4425)" fill="#111111"/>
<path opacity="0.25" d="M16.79 19.8112L9.62955 19.8112L9.62955 20.057L16.79 20.057L16.79 19.8112Z" fill="url(#paint10_linear_2585_154904)"/>
<rect width="1.85185" height="5.16214" transform="matrix(-1 8.70342e-08 8.78131e-08 1 64.6914 14.0344)" fill="#333333"/>
<rect opacity="0.25" width="5.92593" height="0.245816" transform="matrix(-1 8.70342e-08 8.78131e-08 1 10.9878 13.5427)" fill="#111111"/>
<rect opacity="0.25" width="7.16049" height="0.61454" transform="matrix(-1 8.70342e-08 8.78131e-08 1 16.79 12.8054)" fill="url(#paint11_linear_2585_154904)"/>
<rect opacity="0.25" width="2.59259" height="24.09" transform="matrix(-1 8.70342e-08 8.78131e-08 1 4.07422 19.4425)" fill="url(#paint12_linear_2585_154904)"/>
<rect width="3.08642" height="5.16214" transform="matrix(-1 8.70342e-08 8.78131e-08 1 5.06177 14.0344)" fill="#222222"/>
<rect opacity="0.25" width="2.96296" height="0.245816" transform="matrix(-1 8.70342e-08 8.78131e-08 1 22.5928 21.6548)" fill="url(#paint13_linear_2585_154904)"/>
<path opacity="0.25" d="M4.07422 43.5325L1.48163 43.5325L4.07422 46.1135L4.07422 43.5325Z" fill="url(#paint14_linear_2585_154904)"/>
<path opacity="0.25" d="M4.19751 12.5596L1.72837 12.5596L4.19751 10.1014L4.19751 12.5596Z" fill="url(#paint15_linear_2585_154904)"/>
<rect opacity="0.25" width="0.493827" height="3.68724" transform="matrix(-1 8.70342e-08 8.78131e-08 1 19.5063 10.1013)" fill="#888888"/>
<path opacity="0.25" d="M25.6792 11.5762L25.6792 10.1013C25.9997 10.7396 26.5195 11.2571 27.1606 11.5762L25.6792 11.5762Z" fill="black"/>
<g opacity="0.5">
<path d="M19.0124 10.1013H18.8889V13.7886H19.0124V10.1013Z" fill="black"/>
<path d="M25.679 10.1013H25.5556V11.5762H25.679V10.1013Z" fill="black"/>
</g>
<rect width="4.93827" height="0.737449" transform="matrix(-1 8.70342e-08 8.78131e-08 1 69.7532 14.0344)" fill="url(#paint16_linear_2585_154904)"/>
<path d="M69.7531 18.3362L71.2346 18.3362L71.2346 17.8446L69.7531 17.8446L69.7531 18.3362Z" fill="url(#paint17_linear_2585_154904)"/>
<path d="M69.7531 17.3529L71.2346 17.3529L71.2346 16.8613L69.7531 16.8613L69.7531 17.3529Z" fill="url(#paint18_linear_2585_154904)"/>
<path d="M69.7531 16.3697L71.2346 16.3697L71.2346 15.878L69.7531 15.878L69.7531 16.3697Z" fill="url(#paint19_linear_2585_154904)"/>
<path d="M69.7531 15.3864L71.2346 15.3864L71.2346 14.8948L69.7531 14.8948L69.7531 15.3864Z" fill="url(#paint20_linear_2585_154904)"/>
<path d="M64.6914 13.7886H1.97534V14.0344H64.6914V13.7886Z" fill="#666666"/>
<path d="M64.6914 19.4424V19.1966L1.97534 19.1967V19.4425L64.6914 19.4424Z" fill="#666666"/>
<path fill-rule="evenodd" clip-rule="evenodd" d="M74.0742 32.225C74.1424 32.225 74.1976 32.1699 74.1977 32.1021V23.9901L74.197 23.9775C74.1907 23.9156 74.1381 23.8672 74.0742 23.8672H71.852C71.7838 23.8672 71.7285 23.9223 71.7285 23.9901V32.1021C71.7285 32.1699 71.7838 32.225 71.852 32.225H74.0742ZM72.099 24.3587C72.0308 24.3587 71.9754 24.3037 71.9754 24.2358C71.9755 24.168 72.0308 24.113 72.0989 24.1129C72.167 24.1129 72.2224 24.168 72.2225 24.2358C72.2225 24.3037 72.1672 24.3587 72.099 24.3587ZM73.8274 24.3587C73.7592 24.3587 73.7039 24.3037 73.7039 24.2358C73.704 24.168 73.7592 24.1129 73.8274 24.1129C73.8955 24.113 73.9508 24.168 73.9509 24.2358C73.9509 24.3037 73.8956 24.3587 73.8274 24.3587ZM72.099 26.8169C72.0308 26.8169 71.9755 26.7619 71.9755 26.694C71.9756 26.6261 72.0308 26.5711 72.099 26.5711C72.1671 26.5711 72.2224 26.6262 72.2225 26.694C72.2225 26.7619 72.1672 26.8169 72.099 26.8169ZM73.8274 26.8169C73.7592 26.8169 73.7039 26.7619 73.7039 26.694C73.704 26.6261 73.7592 26.5711 73.8274 26.5711C73.8955 26.5711 73.9508 26.6262 73.9509 26.694C73.9509 26.7619 73.8956 26.8169 73.8274 26.8169ZM72.099 29.5209C72.0308 29.5209 71.9755 29.4658 71.9755 29.398C71.9756 29.3301 72.0308 29.2751 72.099 29.2751C72.1671 29.2751 72.2224 29.3301 72.2225 29.398C72.2225 29.4658 72.1672 29.5208 72.099 29.5209ZM73.8274 29.5209C73.7592 29.5209 73.7039 29.4658 73.7039 29.398C73.704 29.3301 73.7592 29.2751 73.8274 29.2751C73.8955 29.2751 73.9508 29.3301 73.9509 29.398C73.9509 29.4658 73.8956 29.5208 73.8274 29.5209ZM72.099 31.979C72.0308 31.979 71.9756 31.9241 71.9755 31.8563C71.9755 31.7884 72.0308 31.7332 72.099 31.7332C72.1671 31.7333 72.2224 31.7883 72.2225 31.8561C72.2225 31.924 72.1672 31.979 72.099 31.979ZM73.8274 31.979C73.7592 31.979 73.7039 31.924 73.7039 31.8561C73.704 31.7883 73.7592 31.7332 73.8274 31.7332C73.8955 31.7333 73.9508 31.7883 73.9509 31.8561C73.9509 31.924 73.8956 31.979 73.8274 31.979Z" fill="#333333"/>
<path d="M75.4321 13.0512H74.9382V17.9675H75.4321V13.0512Z" fill="#666666"/>
<path d="M75.4321 42.9178V38.0015L74.9382 38.0016V42.918L75.4321 42.9178Z" fill="#666666"/>
<path d="M75.4322 17.9674H72.4692V18.2133H75.4322V17.9674Z" fill="url(#paint21_linear_2585_154904)"/>
<path d="M75.4322 38.0015V37.7557L72.4692 37.7558V38.0016L75.4322 38.0015Z" fill="url(#paint22_linear_2585_154904)"/>
<path d="M72.4692 13.0512H72.2223L72.2224 17.9675H71.2347V18.2133H72.4693L72.4692 13.0512Z" fill="#111111"/>
<path fill-rule="evenodd" clip-rule="evenodd" d="M74.0741 32.4708C74.2723 32.4708 74.4341 32.3158 74.444 32.121L74.4445 32.1019V23.99C74.4445 23.7864 74.2787 23.6214 74.0741 23.6214H71.8519C71.6474 23.6214 71.4815 23.7865 71.4815 23.9901V32.1021L71.482 32.121C71.492 32.3158 71.6538 32.4708 71.8519 32.4708H74.0741ZM71.8519 32.225C71.7837 32.225 71.7285 32.1699 71.7284 32.1021V23.9901C71.7284 23.9222 71.7837 23.8672 71.8519 23.8672H74.0741C74.138 23.8672 74.1906 23.9156 74.197 23.9775L74.1976 23.9901V32.1021C74.1975 32.1699 74.1423 32.225 74.0741 32.225H71.8519Z" fill="#111111"/>
<path d="M72.4692 37.7557L71.2346 37.7558V38.0016H72.2223V42.9178H72.4692V37.7557Z" fill="#111111"/>
<path d="M74.5062 13.7886C74.6085 13.7886 74.6914 13.706 74.6914 13.6042C74.6914 13.5024 74.6085 13.4199 74.5062 13.4199C74.4039 13.4199 74.321 13.5024 74.321 13.6042C74.321 13.706 74.4039 13.7886 74.5062 13.7886Z" fill="#BBBBBB"/>
<path d="M74.5062 15.7551C74.6085 15.7551 74.6914 15.6726 74.6914 15.5707C74.6914 15.4689 74.6085 15.3864 74.5062 15.3864C74.4039 15.3864 74.321 15.4689 74.321 15.5707C74.321 15.6726 74.4039 15.7551 74.5062 15.7551Z" fill="#BBBBBB"/>
<path d="M74.5062 17.5987C74.6085 17.5987 74.6914 17.5162 74.6914 17.4144C74.6914 17.3125 74.6085 17.23 74.5062 17.23C74.4039 17.23 74.321 17.3125 74.321 17.4144C74.321 17.5162 74.4039 17.5987 74.5062 17.5987Z" fill="#BBBBBB"/>
<path d="M72.0989 24.3587C72.1671 24.3586 72.2224 24.3036 72.2224 24.2358C72.2223 24.1679 72.167 24.1129 72.0988 24.1129C72.0307 24.1129 71.9754 24.1679 71.9753 24.2358C71.9753 24.3036 72.0307 24.3587 72.0989 24.3587Z" fill="#BBBBBB"/>
<path d="M73.8273 24.3587C73.8955 24.3586 73.9508 24.3036 73.9508 24.2358C73.9507 24.1679 73.8954 24.1129 73.8273 24.1129C73.7592 24.1129 73.7039 24.1679 73.7039 24.2358C73.7039 24.3036 73.7591 24.3587 73.8273 24.3587Z" fill="#BBBBBB"/>
<path d="M72.0989 26.8168C72.1671 26.8168 72.2224 26.7618 72.2224 26.6939C72.2223 26.6261 72.1671 26.5711 72.0989 26.571C72.0308 26.571 71.9755 26.6261 71.9755 26.6939C71.9755 26.7618 72.0307 26.8168 72.0989 26.8168Z" fill="#BBBBBB"/>
<path d="M73.8273 26.8168C73.8955 26.8168 73.9508 26.7618 73.9508 26.6939C73.9507 26.6261 73.8954 26.5711 73.8273 26.571C73.7592 26.571 73.7039 26.6261 73.7039 26.6939C73.7039 26.7618 73.7591 26.8168 73.8273 26.8168Z" fill="#BBBBBB"/>
<path d="M72.0989 29.5208C72.1671 29.5208 72.2224 29.4658 72.2224 29.3979C72.2223 29.3301 72.1671 29.275 72.0989 29.275C72.0308 29.275 71.9755 29.3301 71.9755 29.3979C71.9755 29.4658 72.0307 29.5208 72.0989 29.5208Z" fill="#BBBBBB"/>
<path d="M73.8273 29.5208C73.8955 29.5208 73.9508 29.4658 73.9508 29.3979C73.9507 29.3301 73.8954 29.275 73.8273 29.275C73.7592 29.275 73.7039 29.3301 73.7039 29.3979C73.7039 29.4658 73.7591 29.5208 73.8273 29.5208Z" fill="#BBBBBB"/>
<path d="M72.0989 31.979C72.1671 31.9789 72.2224 31.9239 72.2224 31.8561C72.2223 31.7882 72.1671 31.7332 72.0989 31.7332C72.0307 31.7332 71.9755 31.7883 71.9755 31.8562C71.9755 31.924 72.0308 31.979 72.0989 31.979Z" fill="#BBBBBB"/>
<path d="M73.8273 31.979C73.8955 31.9789 73.9508 31.9239 73.9508 31.8561C73.9507 31.7882 73.8954 31.7332 73.8273 31.7332C73.7592 31.7332 73.7039 31.7882 73.7039 31.8561C73.7039 31.924 73.7591 31.979 73.8273 31.979Z" fill="#BBBBBB"/>
<path d="M74.5062 38.739C74.6085 38.739 74.6914 38.6564 74.6914 38.5546C74.6914 38.4528 74.6085 38.3703 74.5062 38.3703C74.4039 38.3703 74.321 38.4529 74.321 38.5547C74.3211 38.6565 74.404 38.739 74.5062 38.739Z" fill="#BBBBBB"/>
<path d="M74.5062 40.5827C74.6085 40.5827 74.6914 40.5 74.6914 40.3982C74.6914 40.2964 74.6085 40.2139 74.5062 40.2139C74.4039 40.2139 74.321 40.2965 74.321 40.3983C74.3211 40.5001 74.404 40.5827 74.5062 40.5827Z" fill="#BBBBBB"/>
<path d="M74.5062 42.5492C74.6085 42.5492 74.6914 42.4665 74.6914 42.3647C74.6914 42.2629 74.6085 42.1805 74.5062 42.1805C74.4039 42.1805 74.321 42.263 74.321 42.3648C74.3211 42.4666 74.404 42.5492 74.5062 42.5492Z" fill="#BBBBBB"/>
<path fill-rule="evenodd" clip-rule="evenodd" d="M5.06169 13.5427H10.9876V13.7885H11.1111V13.5427H16.7901V13.4198H5.55552V12.8053H16.7901V12.6824H9.62959V10.9617H8.51848V10.8388H7.53083V10.9617H6.41971V12.6824H5.43206V13.4198H4.93823V13.7885H5.06169V13.5427ZM6.54317 11.0846H9.50613V12.6824H6.54317V11.0846Z" fill="#111111"/>
<path fill-rule="evenodd" clip-rule="evenodd" d="M8.51848 20.7944H9.62959V20.1799L16.7901 20.1798V20.0569L5.55552 20.057V19.8112L16.7901 19.811V19.6881L11.6049 19.6883V19.4424H11.4814V19.6883H5.06169V19.4424H4.93823V19.8112H5.43206V20.1799H6.41971V20.7944H7.53083V20.9173H8.51848V20.7944ZM6.54317 20.1799H9.50613V20.6715H6.54317V20.1799Z" fill="#111111"/>
<path d="M26.4197 21.6547V21.5318L24.9382 21.5319V21.6548L26.4197 21.6547Z" fill="#111111"/>
<rect width="0.987654" height="29.8667" transform="matrix(-1 8.70342e-08 8.78131e-08 1 76.4199 13.0511)" fill="black"/>
<path d="M98.0247 34.4373L77.1605 34.4373L77.1605 36.7725L98.0247 36.7725L99.3827 36.4038L100 35.9122L100 35.2976L99.3827 34.806L98.0247 34.4373Z" fill="url(#paint23_linear_2585_154904)"/>
<path d="M98.0247 19.3196L77.1605 19.3196L77.1605 21.6548L98.0247 21.6548L99.3827 21.2861L100 20.7945L100 20.1799L99.3827 19.6883L98.0247 19.3196Z" fill="url(#paint24_linear_2585_154904)"/>
<rect width="0.740741" height="20.034" transform="matrix(-1 8.70342e-08 8.78131e-08 1 77.1606 17.9675)" fill="#111111"/>
<rect width="3.20988" height="0.61454" transform="matrix(-1 8.70342e-08 8.78131e-08 1 70.4939 35.4204)" fill="#111111"/>
<path d="M10.3706 44.2699C10.3007 44.2699 10.233 44.2797 10.1689 44.2977L8.74793 44.6768L9.13132 46.1014L10.5518 45.7225C10.8733 45.642 11.1113 45.3524 11.1113 45.0073C11.1113 44.6001 10.7797 44.2699 10.3706 44.2699Z" fill="url(#paint25_linear_2585_154904)"/>
<path d="M11.1111 45.7448V44.2699L9.62964 44.27V44.4416L10.1687 44.2978C10.2328 44.2798 10.3004 44.27 10.3704 44.27C10.7795 44.27 11.1111 44.6001 11.1111 45.0073C11.1111 45.3523 10.8731 45.6421 10.5516 45.7225L10.468 45.7449L11.1111 45.7448Z" fill="#111111"/>
<path opacity="0.25" d="M27.6545 46.1134V44.2698L11.1113 44.2699V45.7447L10.4682 45.7448L9.13125 46.1014L8.74785 44.6768L9.62977 44.4415V44.2699H4.07422V46.1135L27.6545 46.1134Z" fill="url(#paint26_linear_2585_154904)"/>
<path fill-rule="evenodd" clip-rule="evenodd" d="M41.358 19.1966L42.5925 19.1966L42.5925 14.0344L41.358 14.0344L41.358 19.1966Z" fill="#888888"/>
<path d="M41.3581 19.1965V14.0344H5.06177V19.1965H41.3581Z" fill="url(#paint27_linear_2585_154904)"/>
<path d="M62.7161 14.0344H42.5926V19.1965H62.7161V14.0344Z" fill="url(#paint28_linear_2585_154904)"/>
<rect width="0.246914" height="2.21235" transform="matrix(-1 8.70342e-08 8.78131e-08 1 63.0864 11.5763)" fill="#333333"/>
<rect width="1.60494" height="2.21235" transform="matrix(-1 8.70342e-08 8.78131e-08 1 64.6914 11.5763)" fill="url(#paint29_linear_2585_154904)"/>
<path d="M62.8395 11.5762H62.7161V13.7886H62.8395V11.5762Z" fill="black"/>
<path d="M62.8395 14.0344H62.7161V19.1965H62.8395V14.0344Z" fill="black"/>
<path d="M64.8148 14.0344H64.6914V19.1965H64.8148V14.0344Z" fill="black"/>
<rect width="1.72839" height="1.72071" rx="0.860357" transform="matrix(-1 8.70342e-08 8.78131e-08 1 26.4197 11.822)" fill="black"/>
<path fill-rule="evenodd" clip-rule="evenodd" d="M62.7162 11.5762H22.5928V13.7886H62.7162V11.5762ZM25.0619 13.5428C24.8574 13.5428 24.6915 13.3777 24.6915 13.174V12.1908C24.6915 11.9871 24.8574 11.822 25.0619 11.822H26.0496C26.2541 11.822 26.4199 11.9871 26.4199 12.1908V13.174C26.4199 13.3777 26.2541 13.5428 26.0496 13.5428H25.0619Z" fill="#222222"/>
<path d="M62.8396 44.5157L27.6544 44.5158L27.6544 46.1136L62.8396 46.1136L62.8396 44.5157Z" fill="url(#paint30_linear_2585_154904)"/>
<rect width="35.1852" height="0.245816" transform="matrix(-1 8.70342e-08 8.78131e-08 1 62.8396 44.2699)" fill="black"/>
<path opacity="0.25" d="M11.6051 19.4425L11.6051 19.6883L16.7903 19.6883L16.7903 20.18L9.62979 20.18L9.62979 20.7945L8.51868 20.7945L8.51868 20.9174L7.53103 20.9174L7.53103 20.7945L6.66683 20.7945L6.66683 22.8839C6.66683 22.3409 7.10902 21.9007 7.65448 21.9007L19.6298 21.9007L19.6298 21.6549L24.9384 21.6549L24.9384 21.5319L26.4199 21.5319L26.4199 21.6549L27.4076 21.6549L27.4076 21.1632L28.6421 21.1632L28.6421 21.6549L63.3335 21.6549L63.3335 19.4425L11.6051 19.4425Z" fill="#111111"/>
<path d="M68.1483 17.9675L66.173 17.9675L66.173 17.4759L68.1483 17.4759L68.1483 17.9675ZM65.6791 18.2133L65.6805 18.2384C65.6922 18.3541 65.7846 18.4461 65.9008 18.4578L65.926 18.4592L68.3952 18.4592L68.4204 18.4578C68.5366 18.4461 68.629 18.3541 68.6408 18.2384L68.6421 18.2133L68.6421 17.2301C68.6421 17.0943 68.5315 16.9843 68.3952 16.9843L65.926 16.9843C65.7897 16.9843 65.6791 17.0943 65.6791 17.2301L65.6791 18.2133Z" fill="black"/>
<path d="M69.7532 14.7719H64.8149V18.4591H65.9261L65.9009 18.4578C65.7846 18.4461 65.6923 18.3541 65.6805 18.2384L65.6791 18.2133V17.23C65.6791 17.0943 65.7897 16.9842 65.9261 16.9842H68.3952C68.5316 16.9842 68.6421 17.0943 68.6421 17.23V18.2133L68.6408 18.2384C68.629 18.3541 68.5366 18.4461 68.4204 18.4578L68.3952 18.4591H69.7532V14.7719Z" fill="url(#paint31_linear_2585_154904)"/>
<path d="M68.1483 17.9675V17.4758H66.173V17.9675H68.1483Z" fill="url(#paint32_linear_2585_154904)"/>
<path d="M68.7656 21.7777L68.6422 20.7946V18.2135L68.6408 18.2385C68.6291 18.3542 68.5367 18.4461 68.4204 18.4579L68.3952 18.4592H65.9261L65.9009 18.4579C65.7847 18.4461 65.6923 18.3542 65.6805 18.2385L65.6792 18.2135V20.7946L65.8027 21.7778L68.7656 21.7777Z" fill="url(#paint33_linear_2585_154904)"/>
<path d="M62.8396 23.2526L27.6544 23.2526L27.6544 23.5869L28.7655 23.4984L62.8396 23.4984L62.8396 23.2526Z" fill="black"/>
<path opacity="0.25" d="M22.5928 13.7886V11.5762H25.5557V10.1013H19.5063V13.7886H22.5928Z" fill="url(#paint34_linear_2585_154904)"/>
<path d="M66.4062 43.3481H64.7396V51.6444H66.4062V43.3481Z" fill="black"/>
<path d="M68.8021 43.3481H67.1354V51.6444H68.8021V43.3481Z" fill="black"/>
<path d="M70.9896 49.8814V45.1111L70.1562 43.3481H69.5312V51.6444H70.1562L70.9896 49.8814Z" fill="black"/>
<path d="M64.0104 43.3481H63.3333V46.1134H62.3438V51.6444H64.0104V43.3481Z" fill="black"/>
<path d="M13.6979 46.1134H11.7188V49.8814L12.5521 51.6444H13.6979V46.1134Z" fill="black"/>
<path d="M16.0938 46.1134H14.4271V51.6444H16.0938V46.1134Z" fill="black"/>
<path d="M18.4896 46.1134H16.8229V51.6444H18.4896V46.1134Z" fill="black"/>
<path d="M20.8854 46.1134H19.2188V51.6444H20.8854V46.1134Z" fill="black"/>
<path d="M23.2812 46.1134H21.6146V51.6444H23.2812V46.1134Z" fill="black"/>
<path d="M25.6771 46.1134H24.0104V51.6444H25.6771V46.1134Z" fill="black"/>
<path d="M28.0729 46.1134H26.4062V51.6444H28.0729V46.1134Z" fill="black"/>
<path d="M30.4688 46.1134H28.8021V51.6444H30.4688V46.1134Z" fill="black"/>
<path d="M32.8646 46.1134H31.1979V51.6444H32.8646V46.1134Z" fill="black"/>
<path d="M35.2604 46.1134H33.5938V51.6444H35.2604V46.1134Z" fill="black"/>
<path d="M37.6562 46.1134H35.9896V51.6444H37.6562V46.1134Z" fill="black"/>
<path d="M40.0521 46.1134H38.3854V51.6444H40.0521V46.1134Z" fill="black"/>
<path d="M42.4479 46.1134H40.7812V51.6444H42.4479V46.1134Z" fill="black"/>
<path d="M44.8438 46.1134H43.1771V51.6444H44.8438V46.1134Z" fill="black"/>
<path d="M47.2396 46.1134H45.5729V51.6444H47.2396V46.1134Z" fill="black"/>
<path d="M49.6354 46.1134H47.9688V51.6444H49.6354V46.1134Z" fill="black"/>
<path d="M52.0312 46.1134H50.3646V51.6444H52.0312V46.1134Z" fill="black"/>
<path d="M54.4271 46.1134H52.7604V51.6444H54.4271V46.1134Z" fill="black"/>
<path d="M56.8229 46.1134H55.1562V51.6444H56.8229V46.1134Z" fill="black"/>
<path d="M59.2188 46.1134H57.5521V51.6444H59.2188V46.1134Z" fill="black"/>
<path d="M61.6146 46.1134H59.9479V51.6444H61.6146V46.1134Z" fill="black"/>
<path d="M64.7397 43.3481H64.0105V51.6444H64.7397V43.3481Z" fill="#222222"/>
<path d="M67.1355 43.3481H66.4063V51.6444H67.1355V43.3481Z" fill="#222222"/>
<path d="M69.5313 43.3481H68.8022V51.6444H69.5313V43.3481Z" fill="#222222"/>
<path d="M14.4272 46.1134H13.698V51.6444H14.4272V46.1134Z" fill="#222222"/>
<path d="M16.823 46.1134H16.0938V51.6444H16.823V46.1134Z" fill="#222222"/>
<path d="M19.2188 46.1134H18.4897V51.6444H19.2188V46.1134Z" fill="#222222"/>
<path d="M21.6147 46.1134H20.8855V51.6444H21.6147V46.1134Z" fill="#222222"/>
<path d="M24.0105 46.1134H23.2813V51.6444H24.0105V46.1134Z" fill="#222222"/>
<path d="M26.4063 46.1134H25.6772V51.6444H26.4063V46.1134Z" fill="#222222"/>
<path d="M28.8022 46.1134H28.073V51.6444H28.8022V46.1134Z" fill="#222222"/>
<path d="M31.198 46.1134H30.4688V51.6444H31.198V46.1134Z" fill="#222222"/>
<path d="M33.5938 46.1134H32.8647V51.6444H33.5938V46.1134Z" fill="#222222"/>
<path d="M35.9897 46.1134H35.2605V51.6444H35.9897V46.1134Z" fill="#222222"/>
<path d="M38.3855 46.1134H37.6563V51.6444H38.3855V46.1134Z" fill="#222222"/>
<path d="M40.7813 46.1134H40.0522V51.6444H40.7813V46.1134Z" fill="#222222"/>
<path d="M43.1772 46.1134H42.448V51.6444H43.1772V46.1134Z" fill="#222222"/>
<path d="M45.573 46.1134H44.8438V51.6444H45.573V46.1134Z" fill="#222222"/>
<path d="M47.9688 46.1134H47.2397V51.6444H47.9688V46.1134Z" fill="#222222"/>
<path d="M50.3647 46.1134H49.6355V51.6444H50.3647V46.1134Z" fill="#222222"/>
<path d="M52.7605 46.1134H52.0313V51.6444H52.7605V46.1134Z" fill="#222222"/>
<path d="M55.1563 46.1134H54.4272V51.6444H55.1563V46.1134Z" fill="#222222"/>
<path d="M57.5522 46.1134H56.823V51.6444H57.5522V46.1134Z" fill="#222222"/>
<path d="M59.948 46.1134H59.2188V51.6444H59.948V46.1134Z" fill="#222222"/>
<path d="M62.3438 46.1134H61.6147V51.6444H62.3438V46.1134Z" fill="#222222"/>
<path d="M13.6979 4.30368H12.5521L11.7188 6.06664V9.85552H13.6979V4.30368Z" fill="black"/>
<path d="M16.0938 4.30368H14.4271V9.85552H16.0938V4.30368Z" fill="black"/>
<path d="M18.4896 4.30368H16.8229V9.85552H18.4896V4.30368Z" fill="black"/>
<path d="M20.8854 4.30368H19.2188V9.85552H20.8854V4.30368Z" fill="black"/>
<path d="M23.2812 4.30368H21.6146V9.85552H23.2812V4.30368Z" fill="black"/>
<path d="M25.6771 4.30368H24.0104V9.85552H25.5557C25.6165 9.85555 25.6669 9.89939 25.6771 9.957V4.30368Z" fill="black"/>
<path d="M28.0729 4.30368H26.4062V11.0599C26.6311 11.2646 26.8846 11.4389 27.1606 11.5763L28.0729 11.5764V4.30368Z" fill="black"/>
<path d="M30.4688 4.30368H28.8021V11.5764H30.4688V4.30368Z" fill="black"/>
<path d="M32.8646 4.30368H31.1979V11.5764H32.8646V4.30368Z" fill="black"/>
<path d="M35.2604 4.30368H33.5938V11.5764H35.2604V4.30368Z" fill="black"/>
<path d="M37.6562 4.30368H35.9896V11.5764H37.6562V4.30368Z" fill="black"/>
<path d="M40.0521 4.30368H38.3854V11.5764H40.0521V4.30368Z" fill="black"/>
<path d="M42.4479 4.30368H40.7812V11.5764H42.4479V4.30368Z" fill="black"/>
<path d="M44.8438 4.30368H43.1771V11.5764H44.8438V4.30368Z" fill="black"/>
<path d="M47.2396 4.30368H45.5729V11.5764H47.2396V4.30368Z" fill="black"/>
<path d="M49.6354 4.30368H47.9688V11.5764H49.6354V4.30368Z" fill="black"/>
<path d="M52.0312 4.30368H50.3646V11.5764H52.0312V4.30368Z" fill="black"/>
<path d="M54.4271 4.30368H52.7604V11.5764H54.4271V4.30368Z" fill="black"/>
<path d="M56.8229 4.30368H55.1562V11.5764H56.8229V4.30368Z" fill="black"/>
<path d="M59.2188 4.30368H57.5521V11.5764H59.2188V4.30368Z" fill="black"/>
<path d="M61.6146 4.30368H59.9479V11.5764H61.6146V4.30368Z" fill="black"/>
<path d="M64.0104 4.30368H62.3438V11.5764H64.0104V4.30368Z" fill="black"/>
<path d="M66.4062 4.30368H64.7396V12.6H66.4062V4.30368Z" fill="black"/>
<path d="M68.8021 4.30368H67.1354V12.6H68.8021V4.30368Z" fill="black"/>
<path d="M70.9896 10.837V6.06664L70.1562 4.30368H69.5312V12.6H70.1562L70.9896 10.837Z" fill="black"/>
<path d="M14.4272 4.30368H13.698V9.85552H14.4272V4.30368Z" fill="#222222"/>
<path d="M16.823 4.30368H16.0938V9.85552H16.823V4.30368Z" fill="#222222"/>
<path d="M19.2188 4.30368H18.4897V9.85552H19.2188V4.30368Z" fill="#222222"/>
<path d="M21.6147 4.30368H20.8855V9.85552H21.6147V4.30368Z" fill="#222222"/>
<path d="M24.0105 4.30368H23.2813V9.85552H24.0105V4.30368Z" fill="#222222"/>
<path d="M26.4063 4.30368H25.6772V9.957C25.6784 9.96396 25.6792 9.9711 25.6792 9.97842V10.1014C25.8617 10.4648 26.109 10.789 26.4063 11.0599V4.30368Z" fill="#222222"/>
<path d="M28.8022 4.30368H28.073V11.5764H28.8022V4.30368Z" fill="#222222"/>
<path d="M31.198 4.30368H30.4688V11.5764H31.198V4.30368Z" fill="#222222"/>
<path d="M33.5938 4.30368H32.8647V11.5764H33.5938V4.30368Z" fill="#222222"/>
<path d="M35.9897 4.30368H35.2605V11.5764H35.9897V4.30368Z" fill="#222222"/>
<path d="M38.3855 4.30368H37.6563V11.5764H38.3855V4.30368Z" fill="#222222"/>
<path d="M40.7813 4.30368H40.0522V11.5764H40.7813V4.30368Z" fill="#222222"/>
<path d="M43.1772 4.30368H42.448V11.5764H43.1772V4.30368Z" fill="#222222"/>
<path d="M45.573 4.30368H44.8438V11.5764H45.573V4.30368Z" fill="#222222"/>
<path d="M47.9688 4.30368H47.2397V11.5764H47.9688V4.30368Z" fill="#222222"/>
<path d="M50.3647 4.30368H49.6355V11.5764H50.3647V4.30368Z" fill="#222222"/>
<path d="M52.7605 4.30368H52.0313V11.5764H52.7605V4.30368Z" fill="#222222"/>
<path d="M55.1563 4.30368H54.4272V11.5764H55.1563V4.30368Z" fill="#222222"/>
<path d="M57.5522 4.30368H56.823V11.5764H57.5522V4.30368Z" fill="#222222"/>
<path d="M59.948 4.30368H59.2188V11.5764H59.948V4.30368Z" fill="#222222"/>
<path d="M62.3438 4.30368H61.6147V11.5764H62.3438V4.30368Z" fill="#222222"/>
<path d="M64.7397 4.30368H64.0105V11.5764H64.6912V12.6H64.7397V4.30368Z" fill="#222222"/>
<path d="M67.1355 4.30368H66.4063V12.6H67.1355V4.30368Z" fill="#222222"/>
<path d="M69.5313 4.30368H68.8022V12.6H69.5313V4.30368Z" fill="#222222"/>
<defs>
<linearGradient id="paint0_linear_2585_154904" x1="64.8149" y1="18.8279" x2="69.7532" y2="18.8279" gradientUnits="userSpaceOnUse">
<stop stop-color="#222222"/>
<stop offset="1"/>
</linearGradient>
<linearGradient id="paint1_linear_2585_154904" x1="64.8149" y1="18.8279" x2="69.7532" y2="18.8279" gradientUnits="userSpaceOnUse">
<stop stop-color="#222222"/>
<stop offset="1"/>
</linearGradient>
<linearGradient id="paint2_linear_2585_154904" x1="67.7778" y1="19.1966" x2="67.7778" y2="37.0183" gradientUnits="userSpaceOnUse">
<stop/>
<stop offset="0.2" stop-color="#333333"/>
</linearGradient>
<linearGradient id="paint3_linear_2585_154904" x1="68.5186" y1="27.9846" x2="75.4321" y2="27.9846" gradientUnits="userSpaceOnUse">
<stop/>
<stop offset="0.25" stop-color="#222222"/>
<stop offset="1" stop-color="#333333"/>
</linearGradient>
<linearGradient id="paint4_linear_2585_154904" x1="68.5186" y1="27.9846" x2="75.4321" y2="27.9846" gradientUnits="userSpaceOnUse">
<stop/>
<stop offset="0.25" stop-color="#222222"/>
<stop offset="1" stop-color="#333333"/>
</linearGradient>
<linearGradient id="paint5_linear_2585_154904" x1="68.5186" y1="27.9846" x2="75.4321" y2="27.9846" gradientUnits="userSpaceOnUse">
<stop/>
<stop offset="0.25" stop-color="#222222"/>
<stop offset="1" stop-color="#333333"/>
</linearGradient>
<linearGradient id="paint6_linear_2585_154904" x1="4.19756" y1="11.9449" x2="18.8889" y2="11.9449" gradientUnits="userSpaceOnUse">
<stop stop-color="#BBBBBB"/>
<stop offset="1"/>
</linearGradient>
<linearGradient id="paint7_linear_2585_154904" x1="22.3456" y1="42.3033" x2="22.3456" y2="44.2699" gradientUnits="userSpaceOnUse">
<stop/>
<stop offset="0.504808" stop-color="#333333"/>
<stop offset="1" stop-color="#111111"/>
</linearGradient>
<linearGradient id="paint8_linear_2585_154904" x1="45.247" y1="21.6548" x2="45.247" y2="23.2526" gradientUnits="userSpaceOnUse">
<stop offset="0.2"/>
<stop offset="0.5" stop-color="#444444"/>
<stop offset="0.8"/>
</linearGradient>
<linearGradient id="paint9_linear_2585_154904" x1="45.8025" y1="33.8841" x2="60.8643" y2="33.8841" gradientUnits="userSpaceOnUse">
<stop stop-color="#222222"/>
<stop offset="0.5" stop-color="#444444"/>
<stop offset="1" stop-color="#222222"/>
</linearGradient>
<linearGradient id="paint10_linear_2585_154904" x1="16.79" y1="19.9341" x2="9.62955" y2="19.9341" gradientUnits="userSpaceOnUse">
<stop stop-color="#111111"/>
<stop offset="0.5" stop-color="#BBBBBB"/>
</linearGradient>
<linearGradient id="paint11_linear_2585_154904" x1="0" y1="0.30727" x2="7.16049" y2="0.30727" gradientUnits="userSpaceOnUse">
<stop stop-color="#111111"/>
<stop offset="0.5" stop-color="#BBBBBB"/>
</linearGradient>
<linearGradient id="paint12_linear_2585_154904" x1="2.59259" y1="12.045" x2="0" y2="12.045" gradientUnits="userSpaceOnUse">
<stop stop-color="#222222"/>
<stop offset="1" stop-color="#BBBBBB"/>
</linearGradient>
<linearGradient id="paint13_linear_2585_154904" x1="0" y1="0.122908" x2="2.96296" y2="0.122908" gradientUnits="userSpaceOnUse">
<stop stop-color="#BBBBBB"/>
<stop offset="0.45" stop-color="#AAAAAA"/>
<stop offset="0.55" stop-color="#333333"/>
<stop offset="1" stop-color="#111111"/>
</linearGradient>
<linearGradient id="paint14_linear_2585_154904" x1="4.07422" y1="43.5325" x2="2.7837" y2="44.8288" gradientUnits="userSpaceOnUse">
<stop stop-color="#BBBBBB"/>
<stop offset="1" stop-color="#222222"/>
</linearGradient>
<linearGradient id="paint15_linear_2585_154904" x1="4.19751" y1="12.5596" x2="2.90699" y2="11.2633" gradientUnits="userSpaceOnUse">
<stop stop-color="#BBBBBB"/>
<stop offset="1" stop-color="#222222"/>
</linearGradient>
<linearGradient id="paint16_linear_2585_154904" x1="4.93827" y1="0.368724" x2="0" y2="0.368724" gradientUnits="userSpaceOnUse">
<stop stop-color="#222222"/>
<stop offset="1"/>
</linearGradient>
<linearGradient id="paint17_linear_2585_154904" x1="69.7531" y1="16.6155" x2="71.2346" y2="16.6155" gradientUnits="userSpaceOnUse">
<stop offset="0.25" stop-color="#111111"/>
<stop offset="1" stop-color="#2A2A2A"/>
</linearGradient>
<linearGradient id="paint18_linear_2585_154904" x1="69.7531" y1="16.6155" x2="71.2346" y2="16.6155" gradientUnits="userSpaceOnUse">
<stop offset="0.25" stop-color="#111111"/>
<stop offset="1" stop-color="#2A2A2A"/>
</linearGradient>
<linearGradient id="paint19_linear_2585_154904" x1="69.7531" y1="16.6155" x2="71.2346" y2="16.6155" gradientUnits="userSpaceOnUse">
<stop offset="0.25" stop-color="#111111"/>
<stop offset="1" stop-color="#2A2A2A"/>
</linearGradient>
<linearGradient id="paint20_linear_2585_154904" x1="69.7531" y1="16.6155" x2="71.2346" y2="16.6155" gradientUnits="userSpaceOnUse">
<stop offset="0.25" stop-color="#111111"/>
<stop offset="1" stop-color="#2A2A2A"/>
</linearGradient>
<linearGradient id="paint21_linear_2585_154904" x1="75.4322" y1="37.8786" x2="72.4692" y2="37.8786" gradientUnits="userSpaceOnUse">
<stop stop-color="#333333"/>
<stop offset="1" stop-color="#111111"/>
</linearGradient>
<linearGradient id="paint22_linear_2585_154904" x1="75.4322" y1="37.8786" x2="72.4692" y2="37.8786" gradientUnits="userSpaceOnUse">
<stop stop-color="#333333"/>
<stop offset="1" stop-color="#111111"/>
</linearGradient>
<linearGradient id="paint23_linear_2585_154904" x1="100" y1="35.6049" x2="77.1605" y2="35.6049" gradientUnits="userSpaceOnUse">
<stop stop-color="#222222"/>
<stop offset="1" stop-color="#555555"/>
</linearGradient>
<linearGradient id="paint24_linear_2585_154904" x1="100" y1="20.4872" x2="77.1605" y2="20.4872" gradientUnits="userSpaceOnUse">
<stop stop-color="#222222"/>
<stop offset="1" stop-color="#555555"/>
</linearGradient>
<linearGradient id="paint25_linear_2585_154904" x1="9.46339" y1="44.4859" x2="9.84365" y2="45.9114" gradientUnits="userSpaceOnUse">
<stop stop-color="#555555"/>
<stop offset="0.5" stop-color="#BBBBBB"/>
<stop offset="1" stop-color="#555555"/>
</linearGradient>
<linearGradient id="paint26_linear_2585_154904" x1="15.8643" y1="44.2698" x2="15.8643" y2="46.1135" gradientUnits="userSpaceOnUse">
<stop stop-color="#BBBBBB"/>
<stop offset="1" stop-color="#222222"/>
</linearGradient>
<linearGradient id="paint27_linear_2585_154904" x1="62.7161" y1="16.6155" x2="5.06177" y2="16.6155" gradientUnits="userSpaceOnUse">
<stop stop-color="#333333"/>
<stop offset="1" stop-color="#444444"/>
</linearGradient>
<linearGradient id="paint28_linear_2585_154904" x1="62.7161" y1="16.6155" x2="5.06177" y2="16.6155" gradientUnits="userSpaceOnUse">
<stop stop-color="#333333"/>
<stop offset="1" stop-color="#444444"/>
</linearGradient>
<linearGradient id="paint29_linear_2585_154904" x1="1.60494" y1="1.10617" x2="0" y2="1.10617" gradientUnits="userSpaceOnUse">
<stop stop-color="#222222"/>
<stop offset="1" stop-color="#111111"/>
</linearGradient>
<linearGradient id="paint30_linear_2585_154904" x1="45.247" y1="44.5157" x2="45.247" y2="46.1136" gradientUnits="userSpaceOnUse">
<stop offset="0.2"/>
<stop offset="0.5" stop-color="#444444"/>
<stop offset="0.8"/>
</linearGradient>
<linearGradient id="paint31_linear_2585_154904" x1="64.8149" y1="16.6155" x2="69.7532" y2="16.6155" gradientUnits="userSpaceOnUse">
<stop stop-color="#333333"/>
<stop offset="1" stop-color="#111111"/>
</linearGradient>
<linearGradient id="paint32_linear_2585_154904" x1="64.8149" y1="16.6155" x2="69.7532" y2="16.6155" gradientUnits="userSpaceOnUse">
<stop stop-color="#333333"/>
<stop offset="1" stop-color="#111111"/>
</linearGradient>
<linearGradient id="paint33_linear_2585_154904" x1="67.2224" y1="18.2134" x2="67.2224" y2="21.7778" gradientUnits="userSpaceOnUse">
<stop/>
<stop offset="1" stop-color="#242424"/>
</linearGradient>
<linearGradient id="paint34_linear_2585_154904" x1="19.5063" y1="11.945" x2="25.5557" y2="11.945" gradientUnits="userSpaceOnUse">
<stop stop-color="#222222"/>
<stop offset="1"/>
</linearGradient>
</defs>
</svg>
