<svg width="100" height="49" viewBox="0 0 100 49" fill="none" xmlns="http://www.w3.org/2000/svg">
<g clip-path="url(#clip0_6561_4029)">
<path d="M99.3535 14.6897L99.4437 14.9662C99.4437 14.9662 100 21.6686 100 24.4986C100 27.3286 99.408 34.1471 99.408 34.1471L99.3115 34.4109L99.7313 35.0799L99.2905 37.5363L97.9575 38.1145L97.9344 38.18C97.9344 38.18 97.1871 40.1785 95.4468 41.7443C93.8871 43.1477 90.8852 43.1266 90.2786 43.1076C90.224 43.1055 90.2114 43.1055 90.1673 43.1034C89.9679 43.5065 89.483 43.7048 89.483 43.7048C89.483 43.7048 89.0253 43.9349 87.9443 44.2388C86.563 44.6271 85.6372 44.6102 81.655 44.7136C81.4997 44.7178 81.3401 44.722 81.1785 44.7263C81.0588 44.7305 80.9371 44.7326 80.8132 44.7368C71.8727 44.9858 70.1745 44.397 70.1745 44.397C70.1745 44.397 69.1123 44.3844 68.6252 44.397C68.1424 45.7519 67.1138 47.7377 67.1138 47.7377C67.0424 47.9023 66.9186 48.0374 66.7632 48.1218L65.2875 48.9343C65.1594 49.0039 64.9327 49.0103 64.7585 48.9934L64.5024 48.9659C64.3512 48.9216 64.2694 48.757 64.3261 48.6093L64.3743 48.4974C64.3261 48.4806 64.2967 48.4278 64.3156 48.3771L65.1762 46.3259C65.2014 46.2563 65.2665 46.2119 65.34 46.2119H65.3484L65.8102 45.1272C65.8312 45.0723 65.9466 44.7959 66.0306 44.6039C66.0537 44.5532 66.081 44.5068 66.1104 44.4625C61.8343 44.5764 55.0035 44.7663 54.4325 44.7663C54.0588 44.7663 51.9071 44.7853 49.6841 44.8086C49.4804 45.1589 48.9326 45.2855 48.1957 45.2855H46.5667V44.8402C46.5374 44.8402 46.5059 44.8402 46.4765 44.8402V45.2855C46.0147 45.2749 45.6662 45.0956 45.5046 44.8508C44.7824 44.8571 44.3206 44.8634 44.3206 44.8634H44.1862V44.8655C43.8714 44.8655 43.0737 44.8719 41.8939 44.8803C41.7449 45.3129 41.1634 45.4649 40.3573 45.4649H38.7283V44.893C38.6989 44.893 38.6674 44.893 38.638 44.893V45.4649C38.0943 45.4522 37.7081 45.2074 37.5968 44.893C35.04 44.8909 31.9017 44.8698 28.4401 44.8022C26.7817 45.5282 21.0383 45.4438 17.9272 45.3805C14.1613 45.3045 9.78231 44.8508 8.79359 44.1628C8.02947 44.1438 7.64112 44.1311 7.39971 44.1227C7.1646 44.5026 3.40072 44.3147 3.02706 44.0298C2.94099 43.9644 2.85073 43.8061 2.76256 43.6035L2.76466 43.6099L2.24196 43.4073L1.21964 40.6322V40.2249L1.08949 39.5622L0.862775 38.4058L1.02861 38.2623C1.02861 38.2623 0 32.9653 0 24.5282C0 16.8782 1.02231 10.7349 1.02231 10.7349L0.856477 10.5914L1.08319 9.43497L1.21334 8.77232V8.36502L2.23566 5.58992L2.77515 5.35145V5.35989C2.85492 5.17418 2.93889 5.03068 3.02076 4.96737C3.39862 4.68036 7.21078 4.49254 7.39971 4.88084C7.29895 4.88296 7.64532 4.87452 8.78729 4.84497C9.77602 4.157 14.155 3.70327 17.9209 3.6273C21.032 3.56399 26.7754 3.47958 28.4338 4.20554C31.8954 4.14012 35.0316 4.1169 37.5884 4.11479C37.6997 3.79824 38.0838 3.55344 38.6296 3.54078V4.11479C38.6611 4.11479 38.6905 4.11479 38.7199 4.11479V3.54078H40.3489C41.1571 3.54078 41.7386 3.69272 41.8876 4.12534C42.9708 4.13167 44.8727 4.23719 45.4668 4.24774C45.5969 3.95229 45.9706 3.73071 46.4912 3.71804V4.26674C46.5206 4.26674 46.5521 4.26674 46.5814 4.26674V3.71593H48.2104C49.0312 3.71593 49.6211 3.8721 49.7575 4.32372C51.6657 4.35748 53.4123 4.38703 53.7544 4.38703C54.3275 4.38703 61.595 4.54108 66.0831 4.63182C66.018 4.55796 65.9592 4.47777 65.9193 4.38703C65.8333 4.19709 65.7199 3.91853 65.6989 3.86366L65.2371 2.77894H65.2287C65.1552 2.77894 65.0902 2.73252 65.065 2.66499L64.2043 0.613731C64.1854 0.56097 64.2148 0.510323 64.2631 0.493439L64.2148 0.381592C64.1581 0.233868 64.24 0.0692596 64.3911 0.0249405L64.6472 -0.002491C64.8215 -0.0214844 65.0482 -0.0130424 65.1762 0.0565987L66.652 0.86908C66.8073 0.955605 66.9312 1.09067 67.0025 1.25316C67.0025 1.25316 68.0773 3.32763 68.5455 4.68247C69.0829 4.69302 70.1786 4.72679 70.1786 4.72679C70.1786 4.72679 71.7573 4.10002 78.7791 4.17599C79.5537 4.1781 80.3955 4.18865 81.3171 4.20975C82.0098 4.22453 82.6395 4.24774 83.2189 4.27729C86.0844 4.34904 86.945 4.37858 88.1542 4.71835C89.2353 5.02224 89.6404 5.27126 89.6404 5.27126C89.6404 5.27126 90.1946 5.6258 90.394 6.02887L90.4024 5.96556C92.6234 5.96556 93.6625 6.20825 95.0795 7.14102C96.4964 8.07169 97.8861 11.0072 97.8861 11.0072L99.2443 11.596L99.6851 14.0524L99.3283 14.6222L99.3535 14.6855V14.6897Z" fill="#231F20"/>
<path d="M92.8438 11.5586C92.8438 11.5586 93.4127 12.5716 94.9053 12.9409C95.3104 13.0443 96.1438 13.3102 96.1438 13.3102C96.1438 13.3102 97.2858 18.5101 97.2858 24.4401C97.2858 30.3702 96.2362 35.5258 96.2362 35.5258L96.9373 35.2493C96.9373 35.2493 97.0528 34.6922 97.2102 33.751C97.0884 34.6057 97.0003 35.0995 97.0003 35.0995L97.4768 34.956C97.4306 35.0721 97.3823 35.1776 97.3341 35.2704C97.0213 35.3928 95.0837 35.8592 93.9438 36.3678C93.1587 36.7181 90.8538 39.8499 90.1506 40.8966C90.0666 41.0211 90.1632 41.1899 90.3122 41.1773C91.303 41.0992 92.6297 40.9156 94.7982 40.5927C92.8522 42.988 90.7719 43.1146 90.2765 43.1104C90.2051 43.1082 90.1653 43.1061 90.1653 43.1061C90.1653 43.1061 90.2051 43.1104 90.2765 43.1104C90.4696 43.1167 90.9063 43.123 91.4626 43.0829C90.7845 43.1357 90.3206 43.1146 90.3206 43.1146L89.8567 43.4776C89.8567 43.4776 89.166 44.0537 88.001 44.2689C86.8359 44.4842 83.0993 44.9147 79.3879 44.8662C75.6765 44.8176 72.4626 44.8662 70.1556 44.2689C69.0136 44.2921 58.4966 44.5074 58.4966 44.5074L45.7187 44.7712L28.8474 44.8704C28.8474 44.8704 27.4913 45.1553 25.3501 45.227C23.2089 45.2988 16.4494 45.4655 14.1193 45.227C11.7871 44.9886 10.4541 44.5327 10.4541 44.5327L3.44275 44.0473C3.18875 44.0368 2.96203 43.8827 2.86127 43.6485L2.76681 43.6126C2.76681 43.6126 2.22731 42.167 2.16643 41.7006C2.10555 41.2343 2.49181 40.9641 2.49181 40.9641L2.50231 40.1728C2.50231 40.1728 1.27637 34.4073 1.27637 24.5035C1.27637 14.5996 2.42673 8.77928 2.42673 8.77928V8.06388L2.20212 7.7431C2.12235 7.60804 2.10975 7.44554 2.16643 7.29993L2.771 5.39218L2.86127 5.3563C2.96413 5.12206 3.18875 4.968 3.44275 4.95745L10.4541 4.47207C10.4541 4.47207 11.7871 4.01834 14.1193 3.77777C16.4515 3.5393 23.2089 3.70602 25.3501 3.77777C27.4913 3.84952 28.8474 4.13441 28.8474 4.13441L45.7187 4.2336L58.4966 4.49739C58.4966 4.49739 69.0136 4.71265 70.1556 4.73586C72.4647 4.13863 75.6765 4.18506 79.3879 4.13863C83.0993 4.0901 86.6365 4.39188 87.8036 4.60713C88.9708 4.82239 89.779 5.37741 89.779 5.37741L90.4004 6.04005C90.4004 6.04005 90.5515 6.0295 90.8034 6.02528C92.4156 6.26375 93.6017 7.00237 94.5715 8.1314C93.2448 8.0892 91.536 7.99424 90.4172 7.91615C90.2723 7.9056 90.1842 8.07232 90.2723 8.18839L92.846 11.5649L92.8438 11.5586ZM5.82325 10.3578L5.87993 10.3726C5.11792 9.54956 3.74923 7.86761 3.25382 7.2535C3.22443 7.21762 3.16775 7.22818 3.15306 7.2746C3.10268 7.44555 3.02291 7.71989 3.02291 7.71989C2.81089 8.69909 1.59545 14.7621 1.59545 24.4845V24.5457C1.59545 34.268 2.81299 40.331 3.02291 41.3102C3.02291 41.3102 3.10268 41.5846 3.15306 41.7555C3.16566 41.7998 3.22443 41.8125 3.25382 41.7766C3.76183 41.1477 5.18719 39.394 5.93661 38.5963L5.82535 38.628C5.81276 38.5837 4.59102 34.0422 4.59102 24.5267V24.4655C4.59102 14.9499 5.81486 10.4085 5.82535 10.3641L5.82325 10.3578ZM45.1351 43.4881H45.2149L65.1427 43.4375V43.1125C65.1427 43.1125 58.3601 41.6373 57.6359 41.4474C56.9117 41.2596 53.8259 40.5189 52.327 40.4999C50.8282 40.4809 44.7783 40.4999 44.7783 40.4999L45.1351 43.486V43.4881ZM65.1427 5.59266L45.2149 5.54412H45.1351L44.7783 8.52815C44.7783 8.52815 50.8282 8.54926 52.327 8.52815C53.8259 8.50705 56.9117 7.76842 57.6359 7.5806C58.3601 7.39278 65.1427 5.91554 65.1427 5.91554V5.59055V5.59266ZM77.9206 24.4676C77.9206 15.5873 75.624 10.668 74.4023 9.17813C73.1806 7.68823 71.8455 7.01714 69.0556 7.16698C66.2658 7.31681 60.77 9.17814 57.7703 10.1088C59.733 13.8694 60.0668 20.3883 60.0668 24.4676V24.5288C60.0668 28.6081 59.733 35.1269 57.7703 38.8876C60.77 39.8182 66.2658 41.6817 69.0556 41.8294C71.8476 41.9792 73.1806 41.3081 74.4023 39.8182C75.624 38.3283 77.9206 33.407 77.9206 24.5288V24.4676Z" fill="#DA1F26"/>
<path d="M2.76046 43.6058C2.76046 43.6058 2.22096 42.1602 2.16009 41.6938C2.09921 41.2274 2.48546 40.9573 2.48546 40.9573L2.49596 40.1659C2.49596 40.1659 1.27002 34.4005 1.27002 24.4966C1.27002 14.5928 2.42039 8.77246 2.42039 8.77246V8.05706L2.19577 7.73628C2.116 7.60122 2.10341 7.43872 2.16009 7.29311L2.77725 5.35159L2.23776 5.59007L1.21544 8.36517V8.77246L0.858576 10.5916L1.02441 10.7351C1.02441 10.7351 0 16.8783 0 24.5283C0 32.9654 1.02231 38.2603 1.02231 38.2603L0.856477 38.4038L1.21334 40.2229V40.6302L2.23566 43.4053L2.75836 43.6079L2.76046 43.6058Z" fill="url(#paint0_linear_6561_4029)"/>
<path d="M77.9206 24.467C77.9206 15.5867 75.624 10.6675 74.4023 9.1776C73.1806 7.68769 71.8455 7.01661 69.0556 7.16644C66.2637 7.31628 60.77 9.1776 57.7703 10.1083C59.733 13.8689 60.0668 20.3877 60.0668 24.467V24.5282C60.0668 28.6075 59.733 35.1264 57.7703 38.887C60.77 39.8177 66.2658 41.6811 69.0556 41.8288C71.8455 41.9766 73.1806 41.3076 74.4023 39.8177C75.624 38.3278 77.9206 33.4065 77.9206 24.5282V24.467Z" fill="url(#paint1_linear_6561_4029)"/>
<path d="M94.8086 40.5943C94.7772 40.5943 91.7207 41.0881 89.1786 41.259C86.6574 41.43 75.286 41.871 74.2595 41.8457C73.34 41.8225 71.7929 41.6895 71.7908 41.6874L71.2429 41.89C71.2576 41.909 73.191 42.0082 74.2154 42.0335C75.2482 42.0588 86.6112 41.66 89.1345 41.489C91.6724 41.3181 94.5168 40.9382 94.5462 40.9361L94.8086 40.5943Z" fill="url(#paint2_linear_6561_4029)"/>
<path d="M69.8366 43.8253C69.8639 44.1018 69.7421 44.3255 69.7296 44.3782L69.507 44.374C69.5238 44.3824 69.6498 44.0596 69.6267 43.8464C69.6015 43.5974 69.5259 42.7533 69.5028 42.4789C69.4881 42.3037 69.4902 42.1328 69.4965 42.0252C69.2341 42.0125 67.9704 41.9555 66.9859 41.7361C65.7327 41.4554 61.6119 40.2989 59.3867 39.6025C57.1826 38.9145 56.3576 38.8027 53.4964 38.8027C52.4363 38.8027 47.3772 38.8196 43.3425 38.8449C43.3572 39.0834 43.3782 39.3218 43.4013 39.5603C44.2389 39.5603 46.5459 39.5582 47.4066 39.5561C48.326 39.554 49.2602 39.5497 50.1838 39.5497C51.1075 39.5497 52.008 39.5519 52.8792 39.5603C55.3626 39.5835 56.1204 39.8072 56.9978 40.0647L57.1553 40.1111C57.5667 40.2314 58.1524 40.4234 58.8305 40.645C59.7079 40.9341 60.7009 41.2591 61.6119 41.525C62.6615 41.831 64.0344 42.1539 65.2456 42.4388C65.8733 42.5865 66.4674 42.7258 66.9082 42.8398C67.4288 42.9727 67.4267 43.0993 67.4183 43.2766C67.4141 43.3505 67.4897 43.7156 66.4527 43.8591C65.7327 43.9583 62.0506 43.9414 61.1774 43.9414C60.3902 43.9414 45.5845 44.1988 44.136 44.2263C44.1864 44.4479 44.2745 44.7433 44.3144 44.8594H44.0982C44.0919 44.8425 43.9828 44.5238 43.9219 44.2284C42.5679 44.2368 10.2737 43.8527 9.77614 43.8549C9.77405 43.8549 9.77824 43.8549 9.77614 43.8549C9.48855 43.8549 9.29333 43.7789 9.21146 43.629C9.12119 43.4623 9.17367 43.2239 9.3668 42.9221C9.50535 42.7089 9.71317 42.4409 10.0008 42.0737C10.2863 41.7086 10.3156 41.6896 10.8111 41.0164C11.8124 39.6574 12.3708 39.6553 14.0375 39.6574H14.132C14.915 39.6574 17.2577 39.6363 19.739 39.6152C22.8353 39.5877 41.6799 39.5582 43.1914 39.5582C43.1683 39.3197 43.1494 39.0834 43.1326 38.8449C37.259 38.8829 15.2173 38.942 14.1509 39.0011C12.417 39.0981 11.0483 39.1741 9.91889 40.7927C9.18207 41.8479 8.08418 43.1057 7.35786 43.9372C7.2487 43.9372 7.17942 43.9393 7.07446 43.9414C7.79869 43.112 9.01833 41.7171 9.74885 40.6703C10.937 38.9673 12.3519 38.8892 14.1509 38.7879C15.9562 38.6866 50.8808 38.5895 53.4985 38.5895C56.387 38.5895 57.2225 38.7035 59.4518 39.3999C61.6749 40.0942 65.7851 41.2486 67.0342 41.5293C68.2433 41.7994 69.6036 41.8184 69.612 41.8184H69.7253L69.7149 41.9323C69.7149 41.9344 69.6918 42.2003 69.7149 42.4599C69.74 42.7321 69.8135 43.5763 69.8387 43.8253H69.8366ZM61.1774 43.7303C62.0234 43.7303 65.7306 43.7451 66.4233 43.6501C66.5954 43.6269 66.7508 43.5868 66.8851 43.5425C67.1265 43.4623 67.1181 43.112 66.8704 43.0487C66.8662 43.0487 66.8599 43.0466 66.8557 43.0445C66.417 42.9326 65.825 42.7933 65.1974 42.6456C63.984 42.3607 62.609 42.0357 61.5531 41.7276C60.64 41.4617 59.6429 41.1346 58.7654 40.8455C58.0894 40.6239 57.5038 40.4319 57.0965 40.3137L56.9391 40.2673C56.0763 40.014 55.3332 39.7945 52.8771 39.7713C51.1285 39.7545 49.235 39.7608 47.4066 39.765C46.5543 39.7671 44.2347 39.7692 43.4034 39.7692C43.5272 40.9405 43.7329 42.0822 44.01 43.0698L44.0247 43.1247C44.0751 43.3104 44.1276 43.6649 44.1276 43.9519C44.1276 43.9688 44.1297 43.992 44.1318 44.0131C45.3829 43.9899 60.3797 43.7282 61.1753 43.7282L61.1774 43.7303ZM19.739 39.8283C17.1486 39.8515 14.9129 39.8705 14.1299 39.8705H14.0354C12.3645 39.8705 11.9173 39.8705 10.979 41.1431C10.4815 41.8184 10.4962 41.8289 10.2086 42.1961C9.92519 42.5612 9.71947 42.8229 9.58512 43.0297C9.44027 43.2555 9.38779 43.4286 9.43817 43.5193C9.48016 43.5953 9.6166 43.6375 9.81813 43.6354C10.3135 43.6333 42.337 44.0258 43.9219 44.0173C43.9219 43.9941 43.9177 43.973 43.9177 43.9519C43.9177 43.6924 43.8694 43.3547 43.8232 43.1774L43.8085 43.1247C43.5272 42.1223 43.3173 40.9573 43.1935 39.7671C41.6967 39.7671 22.85 39.7988 19.739 39.8241V39.8283Z" fill="black"/>
<path d="M2.48544 40.9361C2.48544 40.9361 2.11598 41.2844 2.16426 41.5313C2.21255 41.7782 2.64498 43.7366 3.02074 44.0236C3.3965 44.3106 7.21076 44.4984 7.39969 44.1101C5.22491 44.0552 4.33694 43.84 3.6694 43.4432C3.29364 43.2449 2.90948 41.736 2.83811 41.4827C2.40987 41.4279 2.48334 40.9361 2.48334 40.9361H2.48544Z" fill="#BE1E2D"/>
<path d="M4.79682 28.4241C4.62678 28.3861 4.64567 20.8564 4.79682 20.8374C4.94796 20.8184 5.59032 21.0083 5.59032 21.2362V28.0041C5.59032 28.213 4.79682 28.422 4.79682 28.422V28.4241Z" fill="#BE1E2D"/>
<path d="M45.215 43.4856L65.1427 43.4371V43.1121C65.1427 43.1121 58.3602 41.6369 57.636 41.447C56.9117 41.2571 53.8259 40.5185 52.3271 40.4995C50.8282 40.4805 44.7783 40.4995 44.7783 40.4995L45.1352 43.4856H45.215Z" fill="url(#paint3_linear_6561_4029)"/>
<path d="M45.215 5.5457L65.1427 5.59424V5.91923C65.1427 5.91923 58.3602 7.39437 57.636 7.5843C56.9117 7.77423 53.8259 8.51285 52.3271 8.53184C50.8282 8.55083 44.7783 8.53184 44.7783 8.53184L45.1352 5.5457H45.215Z" fill="url(#paint4_linear_6561_4029)"/>
<path d="M73.9069 7.00611C73.8629 7.00611 73.8272 7.00611 73.7978 7.00611C72.7734 7.03144 72.4018 7.4725 72.385 7.49149L72.5466 7.62656C72.5466 7.62656 72.8825 7.24247 73.802 7.21926C74.8285 7.18972 86.6533 7.6561 89.1724 7.82704C91.7124 8.00009 94.5338 8.1246 94.5653 8.12671L94.3364 7.91567C94.305 7.91567 91.7229 7.78905 89.185 7.61812C86.731 7.4514 75.4331 7.00823 73.9027 7.00823L73.9069 7.00611Z" fill="url(#paint5_linear_6561_4029)"/>
<path d="M2.48544 8.05908C2.48544 8.05908 2.11598 7.71087 2.16426 7.46396C2.21255 7.21705 2.64498 5.25865 3.02074 4.97165C3.3965 4.68464 7.21076 4.49682 7.39969 4.88513C5.22491 4.93999 4.33694 5.15525 3.6694 5.55199C3.29364 5.75036 2.90948 7.25926 2.83811 7.5125C2.40987 7.56737 2.48334 8.05908 2.48334 8.05908H2.48544Z" fill="#BE1E2D"/>
<path d="M8.399 17.3912C8.28564 19.2588 8.22687 21.8461 8.22687 24.4883V24.5495C8.22687 27.1895 8.28354 29.7789 8.399 31.6466C8.43679 32.2797 8.50606 34.7931 8.50606 35.2953C8.50606 36.0466 8.49766 36.7515 8.30664 37.0976C8.15549 37.3698 7.83851 37.5365 7.47115 37.7286C7.0849 37.9312 6.64616 38.1591 6.23472 38.5727C5.42442 39.3873 3.3567 41.964 3.33571 41.9915L3.0838 42.3059C3.0838 42.3059 2.91587 41.7847 2.8424 41.504H2.8361C2.8361 41.504 2.8361 41.4998 2.8361 41.4976C2.72694 41.485 2.69125 41.4765 2.61358 41.4048C2.50232 41.3035 2.49393 41.1368 2.48973 40.9574C2.48343 40.6873 2.50022 40.1702 2.50022 40.166L2.52541 40.1618C2.52751 40.1829 2.58839 40.6725 2.59469 40.9553C2.59679 41.0777 2.63667 41.179 2.70385 41.2423C2.72904 41.2655 2.75843 41.2782 2.78991 41.2908C2.54011 40.1112 1.37085 34.084 1.37085 24.5495V24.4883C1.37085 14.9559 2.54011 8.9266 2.78991 7.74692C2.75843 7.75958 2.72904 7.77224 2.70385 7.79546C2.63667 7.85876 2.59679 7.96006 2.59469 8.08246C2.58839 8.36314 2.52961 8.85485 2.52541 8.87595L2.50022 8.87173C2.50022 8.87173 2.48343 8.35048 2.48973 8.08035C2.49393 7.90097 2.50442 7.73425 2.61358 7.63296C2.69125 7.56121 2.72694 7.55276 2.8361 7.5401C2.8361 7.5401 2.8361 7.53377 2.8361 7.53166H2.8424C2.91587 7.2531 3.0838 6.73184 3.0838 6.73184L3.33571 7.04628C3.3588 7.07372 5.42442 9.65045 6.23472 10.465C6.64616 10.8787 7.0849 11.1087 7.47115 11.3092C7.83851 11.5012 8.15759 11.6679 8.30664 11.9402C8.49766 12.2863 8.50606 12.9911 8.50606 13.7424C8.50606 14.2447 8.43679 16.7581 8.399 17.3912ZM3.23705 7.26154C3.20766 7.22566 3.15098 7.23621 3.13628 7.28264C3.0859 7.45358 3.00613 7.72792 3.00613 7.72792C2.79411 8.70712 1.57867 14.7701 1.57867 24.4925V24.5537C1.57867 34.2761 2.79621 40.3391 3.00613 41.3183C3.00613 41.3183 3.0859 41.5926 3.13628 41.7635C3.14888 41.8079 3.20766 41.8205 3.23705 41.7847C3.74505 41.1558 5.17042 39.4021 5.91984 38.6044L5.80858 38.636C5.79598 38.5917 4.57424 34.0502 4.57424 24.5347V24.4735C4.57424 14.958 5.79808 10.4165 5.80858 10.3722L5.86526 10.387C5.10324 9.56392 3.73456 7.88198 3.23915 7.26787L3.23705 7.26154ZM8.12401 12.0436C8.00435 11.8262 7.72516 11.6806 7.37459 11.497C6.99463 11.2986 6.52021 11.0517 6.08567 10.6128C6.05418 10.5811 6.0206 10.5452 5.98701 10.5094C5.84636 11.0749 5.10324 14.308 4.85973 20.4364C4.85973 20.4807 4.83664 20.5483 4.79886 20.5673C4.6792 20.6306 4.6792 23.0554 4.6792 24.463V24.5242C4.6792 25.9317 4.6792 28.3586 4.79886 28.4198C4.83874 28.441 4.85973 28.5085 4.85973 28.5507C5.10954 34.8268 5.88205 38.0662 5.99541 38.5136C6.0269 38.482 6.05838 38.4482 6.08567 38.4208C6.52021 37.9839 6.99463 37.737 7.37459 37.5365C7.72725 37.3529 8.00435 37.2073 8.12401 36.99C8.32763 36.6206 8.30664 35.6625 8.28774 34.8184C8.28145 34.5736 8.27725 34.3373 8.27725 34.1178C8.27725 33.7928 8.24996 33.1365 8.21217 32.2269C8.1345 30.3339 8.01694 27.504 8.01694 24.5748V24.4819C8.01694 21.5528 8.1345 18.6933 8.21217 16.8003C8.24996 15.8907 8.27725 15.2344 8.27725 14.9094C8.27725 14.6899 8.28145 14.4536 8.28774 14.2088C8.30664 13.3647 8.32763 12.4066 8.12401 12.0372V12.0436Z" fill="#231F20"/>
<path d="M77.9206 24.467C77.9206 15.5867 75.624 10.6675 74.4023 9.1776C73.1806 7.6877 71.8455 7.01661 69.0556 7.16644C66.2637 7.31628 60.77 9.1776 57.7703 10.1083C59.733 13.8689 60.0668 20.3877 60.0668 24.467V24.5282C60.0668 28.6075 59.733 35.1264 57.7703 38.887C60.77 39.8177 66.2658 41.6811 69.0556 41.8288C71.8455 41.9766 73.1806 41.3076 74.4023 39.8177C75.624 38.3278 77.9206 33.4065 77.9206 24.5282V24.467Z" stroke="#231F20" stroke-width="0.255208" stroke-miterlimit="10"/>
<path d="M76.4197 23.4161C76.8017 23.2325 76.7073 22.9307 76.6107 22.7281C76.5141 22.5255 72.3724 14.8945 72.3724 14.8945C72.3724 14.8945 71.6482 14.1517 71.5915 14.0293L71.073 12.9382L70.84 12.6533L69.6833 9.96051L68.5665 7.86916L68.386 7.95568C68.386 7.95568 70.0884 11.7058 70.7413 13.5439C71.3144 15.1541 72.4878 18.978 72.4878 18.978L72.6285 18.9105L72.2695 16.8339L71.4844 14.4007L71.0667 13.8077L72.1352 15.0823L72.6285 16.0341L75.1265 21.4746L75.3029 21.8439L75.7647 21.6223L75.3596 22.0148L75.9054 23.1649C76.0964 23.568 76.4176 23.414 76.4176 23.414L76.4197 23.4161Z" fill="#232323"/>
<path d="M46.4702 45.2815V44.4627C46.4702 44.4627 45.832 44.4352 45.3933 44.5218C45.3933 44.9227 45.8215 45.2667 46.4702 45.2815ZM48.1895 45.2815H46.5605V44.4458C46.5605 44.4458 47.7549 44.4289 49.766 44.4585C49.766 45.0747 49.1299 45.2815 48.1895 45.2815Z" fill="#4A494A"/>
<path d="M38.6318 45.4609V44.6421C38.6318 44.6421 37.9937 44.6147 37.5549 44.7012C37.5549 45.1022 37.9832 45.4462 38.6318 45.4609ZM40.3511 45.4609H38.7221V44.6252C38.7221 44.6252 39.9165 44.6084 41.9276 44.6379C41.9276 45.2541 41.2915 45.4609 40.3511 45.4609Z" fill="#4A494A"/>
<path d="M45.4143 4.48417C45.853 4.5728 46.4912 4.54326 46.4912 4.54326V3.72444C45.8425 3.73922 45.4143 4.08109 45.4143 4.48417ZM49.7891 4.54748C47.778 4.57702 46.5836 4.56014 46.5836 4.56014V3.72444C46.5836 3.72444 47.2721 3.72444 48.2126 3.72444C49.153 3.72444 49.7891 3.93126 49.7891 4.54748Z" fill="#4A494A"/>
<path d="M37.5549 4.30472C37.9937 4.39336 38.6318 4.36381 38.6318 4.36381V3.545C37.9832 3.55977 37.5549 3.90165 37.5549 4.30472ZM41.9276 4.36803C39.9165 4.39758 38.7221 4.3807 38.7221 4.3807V3.545C38.7221 3.545 39.4106 3.545 40.3511 3.545C41.2915 3.545 41.9276 3.75181 41.9276 4.36803Z" fill="#4A494A"/>
<path d="M69.1625 43.0255L68.8057 43.8591C68.4488 45.1548 67.1095 47.7358 67.1095 47.7358C67.0381 47.9004 66.9143 48.0354 66.7589 48.1198L65.2832 48.9323C65.1551 49.002 64.9284 49.0083 64.7542 48.9914L64.4981 48.964C64.3469 48.9197 64.2651 48.7551 64.3217 48.6073L65.8017 45.1232C65.8227 45.0683 65.9381 44.7918 66.0221 44.5998C66.0704 44.4901 66.1397 44.393 66.2236 44.3086L66.5385 43.9983C66.5385 43.9983 66.7211 43.7409 66.4965 43.2175C66.4545 43.0846 66.3916 42.9643 66.3349 42.8693C66.2782 42.7743 66.3433 42.6562 66.4545 42.6562H68.919C69.0744 42.6562 69.236 42.8503 69.1604 43.0255H69.1625Z" fill="#232323"/>
<path d="M64.3996 48.5017H64.4689C64.5256 48.5017 64.5781 48.4658 64.599 48.4131L65.5143 46.3449C65.5395 46.2795 65.4912 46.2078 65.4219 46.2078H65.3359C65.2624 46.2078 65.1973 46.2542 65.1721 46.3217L64.3114 48.373C64.2884 48.4342 64.3345 48.5017 64.3996 48.5017Z" fill="#F7941D"/>
<path d="M3.25164 7.25292C3.22225 7.21705 3.16557 7.2276 3.15087 7.27403C3.10049 7.44497 3.02072 7.71931 3.02072 7.71931C2.8087 8.69851 1.59326 14.7615 1.59326 24.4839V24.5451C1.59326 34.2674 2.8108 40.3305 3.02072 41.3097C3.02072 41.3097 3.10049 41.584 3.15087 41.7549C3.16347 41.7993 3.22225 41.8119 3.25164 41.776C3.75965 41.1472 5.18501 39.3935 5.93443 38.5958L5.82317 38.6274C5.81057 38.5831 4.58883 34.0416 4.58883 24.5261V24.4649C4.58883 14.9493 5.81267 10.4079 5.82317 10.3636L5.87985 10.3783C5.11783 9.55531 3.74915 7.87337 3.25374 7.25926L3.25164 7.25292Z" fill="url(#paint6_linear_6561_4029)"/>
<path opacity="0.2" d="M5.64276 20.8923L4.89124 20.8057C4.76109 20.8057 5.59448 21.0041 5.59448 21.2067V28.0294C5.59448 28.2046 4.78418 28.4241 4.91643 28.4241L5.61967 28.327C5.95134 28.2785 6.071 27.9788 6.071 27.8479V21.3629C6.071 21.232 5.91985 20.9112 5.64276 20.8923Z" fill="url(#paint7_linear_6561_4029)"/>
<path opacity="0.25" d="M90.0583 43.1331C89.4726 43.8211 87.9738 44.5703 80.9792 44.7307C71.791 44.9396 70.1704 44.1166 70.1704 44.1166C70.1704 44.1166 74.9839 43.6439 80.8953 43.4898" fill="url(#paint8_linear_6561_4029)"/>
<path opacity="0.25" d="M70.5125 4.82833C70.5125 4.82833 75.3868 5.68301 81.3003 5.83707C87.2138 5.99112 89.1009 6.32034 90.1673 5.84973C89.2269 5.22296 88.3158 4.3746 81.3213 4.21421C72.133 4.00529 70.5125 4.82833 70.5125 4.82833Z" fill="url(#paint9_linear_6561_4029)"/>
<path opacity="0.5" d="M74.4023 39.8178C73.2246 41.2529 71.9378 41.9261 69.3474 41.8395C71.3899 41.7615 72.5193 41.0904 73.5626 39.8178C74.7844 38.3279 77.0809 33.4066 77.0809 24.5284V24.4672C77.0809 15.5868 74.7844 10.6676 73.5626 9.17773C72.5193 7.9052 71.392 7.23411 69.3474 7.15602C71.9378 7.0695 73.2225 7.7427 74.4023 9.17773C75.624 10.6676 77.9206 15.589 77.9206 24.4672V24.5284C77.9206 33.4087 75.624 38.3279 74.4023 39.8178Z" fill="#231F20"/>
<path d="M74.1209 39.2986C74.5428 39.2986 74.589 38.9863 74.589 38.7626C74.589 38.5389 74.1209 29.8569 74.1209 29.8569C74.1209 29.8569 73.7871 28.8714 73.7871 28.7384V27.5292L73.6989 27.1704L73.8102 24.2392L73.6989 21.8671H73.4995C73.4995 21.8671 73.4281 25.9886 73.2287 27.9302C73.0545 29.6311 72.4751 33.5901 72.4751 33.5901H72.6304L73.1972 31.5621L73.531 29.0254L73.4092 28.31L73.827 29.9223L73.8648 30.9944L73.7871 36.9856V37.3951H74.3014L73.7682 37.5723V38.847C73.7682 39.2944 74.1251 39.2944 74.1251 39.2944L74.1209 39.2986Z" fill="#232323"/>
<path d="M90.1651 43.1013C90.1651 43.1013 93.7023 43.3081 95.4425 41.7423C97.1828 40.1764 97.9301 38.1779 97.9301 38.1779L99.4058 34.1429C99.4058 34.1429 99.9978 27.3244 99.9978 24.4944C99.9978 21.6644 99.4415 14.962 99.4415 14.962L99.3512 14.6855L97.886 11.0051C97.886 11.0051 96.4984 8.07172 95.0793 7.13895C93.6603 6.20617 92.6233 5.96349 90.4023 5.96349C92.2874 6.14075 93.6015 6.91736 94.6532 8.17723C93.8723 8.11604 91.1307 7.90078 90.0811 7.91133C93.0704 12.0413 92.8017 12.5752 96.1415 13.3033C96.3347 13.3518 97.5144 13.8119 97.5879 14.0039C97.9888 15.8948 98.4654 24.4184 98.4654 24.4184C98.4654 24.4184 98.2303 32.5496 97.3297 35.2614C96.3872 35.5547 94.9639 35.7658 94.1074 36.2427C93.1817 36.7576 90.946 39.6994 89.9573 41.1936C91.3302 41.0817 93.5763 40.7968 94.6805 40.7209C92.4868 43.3187 90.163 43.095 90.163 43.095L90.1651 43.1013Z" fill="url(#paint10_linear_6561_4029)"/>
<path d="M97.8882 11.0116L99.2464 11.6004L99.6872 14.0569L99.2464 14.7617L97.8882 11.0116Z" fill="url(#paint11_linear_6561_4029)"/>
<path d="M97.9321 38.1252L99.2882 37.5343L99.7312 35.0779L99.2882 34.3731L97.9321 38.1252Z" fill="url(#paint12_linear_6561_4029)"/>
<path d="M97.3318 35.2678C97.3318 35.2678 98.4675 31.427 98.4675 24.4249C98.4675 19.0097 97.5628 13.8732 97.5628 13.8732L96.8469 13.5038C96.8469 13.5038 97.8881 18.6869 97.8881 24.4333C97.8881 30.1798 96.9309 35.3923 96.9309 35.3923L97.3318 35.2657V35.2678Z" fill="url(#paint13_linear_6561_4029)"/>
<path d="M96.931 35.3945C96.931 35.3945 98.031 30.0152 98.031 24.4291C98.031 18.843 97.0087 13.5862 97.0087 13.5862L96.1438 13.3076C96.1438 13.3076 97.2858 18.5075 97.2858 24.4376C97.2858 30.3676 96.2362 35.5232 96.2362 35.5232L96.931 35.3924V35.3945Z" fill="url(#paint14_linear_6561_4029)"/>
<path d="M96.6181 22.8443C96.8291 22.8443 97.0002 23.6049 97.0002 24.5431C97.0002 25.4814 96.8291 26.2419 96.6181 26.2419C96.4071 26.2419 96.2361 25.4814 96.2361 24.5431C96.2361 23.6049 96.4071 22.8443 96.6181 22.8443Z" fill="black"/>
<path d="M92.7243 40.6322C93.3015 39.8113 94.8697 37.5089 95.4133 35.9261C95.4301 35.8755 95.47 35.8375 95.5225 35.8227C96.0494 35.6708 96.6792 35.4745 97.0402 35.3627C97.1683 35.3226 97.2879 35.4407 97.2481 35.5695C97.0046 36.382 96.3076 38.7244 94.7962 40.59C94.7731 40.6195 94.6597 40.6005 94.624 40.609C94.1244 40.7356 93.3393 40.8411 92.8775 40.896C92.7348 40.9129 92.6382 40.7525 92.7222 40.6343L92.7243 40.6322Z" fill="#F7941D"/>
<path d="M92.7515 8.28087C93.3498 9.13345 94.8675 11.3767 95.407 12.9342C95.428 12.9933 95.4721 13.0355 95.5308 13.0524C96.0347 13.198 96.6329 13.3837 96.9982 13.4976C97.143 13.5441 97.2795 13.4069 97.2354 13.2613C96.9793 12.4171 96.2026 10.1612 94.7185 8.3273C94.6912 8.29564 94.5337 8.18801 94.4917 8.17746C94.011 8.05506 93.4002 8.12259 92.9362 8.06561C92.7746 8.04662 92.657 8.14792 92.7515 8.28087Z" fill="#F7941D"/>
<path d="M92.554 8.12469C92.8983 8.52988 94.5503 10.5706 95.3564 12.7907C95.4194 12.9616 95.0794 12.9911 94.9051 12.9426C94.2586 12.7569 93.633 12.6113 92.9025 11.6384C92.2265 10.7352 90.8956 9.00048 90.3141 8.24287C90.2008 8.09514 90.226 7.90732 90.4128 7.91366L92.3924 8.05083C92.4553 8.05083 92.512 8.08037 92.554 8.1268V8.12469Z" fill="url(#paint15_linear_6561_4029)"/>
<path d="M92.4428 40.9002C92.7703 40.5162 94.5001 38.4396 95.3103 36.2005C95.3712 36.0338 95.0857 35.9599 94.9157 36.0106C94.2649 36.1984 93.6352 36.3398 92.9026 37.3169C92.2266 38.2201 90.8138 40.0498 90.1925 40.8517C90.077 41.0015 90.1946 41.2168 90.3835 41.1978L92.3022 40.972C92.3568 40.9678 92.4071 40.9403 92.4449 40.8981L92.4428 40.9002Z" fill="url(#paint16_linear_6561_4029)"/>
<path d="M59.4496 9.5827C57.2203 10.2791 56.3848 10.3931 53.4963 10.3931C50.8786 10.3931 15.954 10.296 14.1487 10.1947C12.3497 10.0934 10.9348 10.0153 9.74666 8.31227C9.01823 7.26765 7.79649 5.8706 7.07227 5.04123C7.17723 5.04123 7.2465 5.04334 7.35566 5.04545C8.08199 5.87904 9.17987 7.1368 9.91669 8.18987C11.0461 9.8085 12.4148 9.88447 14.1487 9.98155C15.2151 10.0406 37.2547 10.0997 43.1304 10.1377C43.1451 9.89925 43.1661 9.66078 43.1892 9.42442C41.6798 9.42442 22.8331 9.39276 19.7368 9.36744C17.2555 9.34634 14.9107 9.32523 14.1298 9.32523H14.0353C12.3686 9.32734 11.8123 9.32523 10.8089 7.96617C10.3134 7.29297 10.2841 7.27609 9.99856 6.90889C9.71097 6.53958 9.50315 6.27367 9.3646 6.06053C9.17147 5.75875 9.11899 5.52239 9.20926 5.35356C9.29113 5.20373 9.48636 5.12776 9.77395 5.12776C9.77185 5.12776 9.77605 5.12776 9.77395 5.12776C10.2715 5.12987 42.5657 4.74579 43.9197 4.75423C43.9827 4.45878 44.0897 4.14012 44.096 4.12112H44.3122C44.2723 4.24141 44.1842 4.53475 44.1338 4.75634C45.5822 4.78377 60.3859 5.04123 61.1752 5.04123C62.0463 5.04123 65.7304 5.02435 66.4505 5.12354C67.4854 5.26704 67.4119 5.63213 67.4161 5.70599C67.4266 5.88115 67.4266 6.00777 66.906 6.14283C66.4652 6.25679 65.8711 6.39608 65.2434 6.5438C64.0322 6.8287 62.6593 7.15158 61.6097 7.45758C60.6986 7.72348 59.7057 8.05059 58.8283 8.33759C58.1502 8.56129 57.5645 8.75333 57.1531 8.87151L56.9956 8.91794C56.1182 9.1754 55.3604 9.3991 52.877 9.42231C52.0058 9.43075 51.099 9.43286 50.1816 9.43286C49.2643 9.43286 48.3217 9.43075 47.4044 9.42653C46.5437 9.42442 44.2367 9.42231 43.3991 9.42231C43.376 9.66078 43.355 9.89925 43.3403 10.1377C47.375 10.163 52.4341 10.1799 53.4942 10.1799C56.3554 10.1799 57.1825 10.0681 59.3845 9.3801C61.6097 8.68369 65.7305 7.52933 66.9837 7.24654C67.9682 7.02496 69.2319 6.97009 69.4943 6.95743C69.4901 6.8498 69.4859 6.67675 69.5006 6.5037C69.5258 6.22936 69.5993 5.38522 69.6245 5.1362C69.6455 4.92305 69.5216 4.60017 69.5048 4.60861L69.7273 4.60439C69.742 4.65715 69.8617 4.88296 69.8344 5.1573C69.8092 5.40632 69.7357 6.24835 69.7105 6.5227C69.6875 6.78227 69.7105 7.04817 69.7105 7.05028L69.7211 7.16213H69.6077C69.6077 7.16213 68.239 7.18323 67.0299 7.45336M43.4033 9.21338C44.2346 9.21338 46.5521 9.2155 47.4065 9.21761C49.237 9.22394 51.1284 9.22816 52.877 9.21128C55.331 9.18806 56.0762 8.96858 56.939 8.71534L57.0964 8.66892C57.5037 8.55074 58.0872 8.35869 58.7653 8.13711C59.6427 7.84799 60.6399 7.52089 61.553 7.25499C62.6068 6.94688 63.9839 6.62399 65.1973 6.33698C65.8249 6.18926 66.4169 6.04998 66.8556 5.93813C66.8598 5.93813 66.8661 5.93602 66.8703 5.93391C67.1159 5.8706 67.1264 5.52028 66.885 5.44009C66.7507 5.39577 66.5953 5.35568 66.4232 5.33246C65.7284 5.23539 62.0233 5.25227 61.1773 5.25227C60.3817 5.25227 45.3849 4.99059 44.1338 4.96737C44.1317 4.98848 44.1296 5.01169 44.1296 5.02857C44.1296 5.31558 44.0771 5.67012 44.0267 5.85583L44.012 5.9107M43.1933 9.21338C43.3172 8.02315 43.5271 6.86035 43.8084 5.85583L43.8231 5.80307C43.8693 5.62791 43.9176 5.29025 43.9176 5.02857C43.9176 5.00958 43.9176 4.98637 43.9218 4.96315C42.3369 4.95471 10.3134 5.34723 9.81803 5.34512C9.61651 5.34512 9.48006 5.38522 9.43807 5.46119C9.38769 5.55194 9.44017 5.72709 9.58502 5.95079C9.71727 6.15761 9.92299 6.41929 10.2085 6.78438C10.4961 7.15158 10.4814 7.16213 10.9789 7.83744C11.9172 9.11209 12.3644 9.10998 14.0353 9.10998H14.1298C14.9128 9.10998 17.1506 9.12897 19.7389 9.15218C22.8499 9.17962 41.6945 9.20916 43.1933 9.20916V9.21338Z" fill="black"/>
<path d="M68.8184 6.33911H66.354C66.2448 6.33911 66.1776 6.21882 66.2343 6.12596C66.291 6.031 66.3519 5.91071 66.3959 5.77776C66.6227 5.25228 66.4379 4.99693 66.4379 4.99693L66.123 4.68671C66.037 4.6023 65.9698 4.50522 65.9215 4.39548C65.8355 4.20555 65.7221 3.92699 65.7011 3.87212L64.2212 0.387939C64.1645 0.240215 64.2463 0.0756106 64.3975 0.0312934L64.6536 0.00385809C64.8278 -0.0151348 65.0545 -0.00669384 65.1826 0.0629473L66.6583 0.875431C66.8137 0.961955 66.9375 1.09702 67.0089 1.25951C67.0089 1.25951 68.3503 3.84046 68.7051 5.13621L69.0619 5.9698C69.1375 6.14496 68.9759 6.33911 68.8205 6.33911H68.8184Z" fill="#232323"/>
<path d="M64.2966 0.493651H64.3659C64.4225 0.493651 64.475 0.52953 64.496 0.582289L65.4113 2.65042C65.4365 2.71584 65.3882 2.7876 65.3189 2.7876H65.2328C65.1594 2.7876 65.0943 2.74117 65.0691 2.67364L64.2084 0.622382C64.1853 0.561182 64.2315 0.493651 64.2966 0.493651Z" fill="#F7941D"/>
</g>
<defs>
<linearGradient id="paint0_linear_6561_4029" x1="0" y1="24.4798" x2="2.77515" y2="24.4798" gradientUnits="userSpaceOnUse">
<stop stop-color="#1A1A1A"/>
<stop offset="1"/>
</linearGradient>
<linearGradient id="paint1_linear_6561_4029" x1="57.7682" y1="24.4966" x2="85.3119" y2="24.4966" gradientUnits="userSpaceOnUse">
<stop/>
<stop offset="0.24" stop-color="#020202"/>
<stop offset="0.41" stop-color="#0B0B0B"/>
<stop offset="0.55" stop-color="#1A1A1B"/>
<stop offset="0.68" stop-color="#2E2F30"/>
<stop offset="0.8" stop-color="#494A4C"/>
<stop offset="0.92" stop-color="#6A6B6E"/>
<stop offset="1" stop-color="#87898C"/>
</linearGradient>
<linearGradient id="paint2_linear_6561_4029" x1="71.2429" y1="41.3139" x2="94.8086" y2="41.3139" gradientUnits="userSpaceOnUse">
<stop/>
<stop offset="0.21" stop-color="#1A1A1A"/>
<stop offset="0.51"/>
<stop offset="0.79" stop-color="#1A1A1A"/>
<stop offset="1"/>
</linearGradient>
<linearGradient id="paint3_linear_6561_4029" x1="54.9616" y1="43.4877" x2="54.9616" y2="40.491" gradientUnits="userSpaceOnUse">
<stop stop-color="#1A1A1A"/>
<stop offset="1"/>
</linearGradient>
<linearGradient id="paint4_linear_6561_4029" x1="54.9616" y1="5.54148" x2="54.9616" y2="8.53817" gradientUnits="userSpaceOnUse">
<stop stop-color="#1A1A1A"/>
<stop offset="1"/>
</linearGradient>
<linearGradient id="paint5_linear_6561_4029" x1="72.3871" y1="7.56536" x2="94.5695" y2="7.56536" gradientUnits="userSpaceOnUse">
<stop/>
<stop offset="0.21" stop-color="#1A1A1A"/>
<stop offset="0.51"/>
<stop offset="0.79" stop-color="#1A1A1A"/>
<stop offset="1"/>
</linearGradient>
<linearGradient id="paint6_linear_6561_4029" x1="1.59326" y1="24.5113" x2="5.93443" y2="24.5113" gradientUnits="userSpaceOnUse">
<stop stop-color="#1A1A1A"/>
<stop offset="1"/>
</linearGradient>
<linearGradient id="paint7_linear_6561_4029" x1="4.87655" y1="24.6149" x2="6.0689" y2="24.6149" gradientUnits="userSpaceOnUse">
<stop/>
<stop offset="0.1" stop-color="#252525"/>
<stop offset="0.31" stop-color="#848484"/>
<stop offset="0.56" stop-color="white"/>
</linearGradient>
<linearGradient id="paint8_linear_6561_4029" x1="70.1704" y1="43.9477" x2="90.0583" y2="43.9477" gradientUnits="userSpaceOnUse">
<stop stop-color="#1A1A1A"/>
<stop offset="0.35" stop-color="white"/>
<stop offset="0.6" stop-color="white"/>
<stop offset="1" stop-color="#212121"/>
</linearGradient>
<linearGradient id="paint9_linear_6561_4029" x1="70.5125" y1="5.13643" x2="90.1652" y2="5.13643" gradientUnits="userSpaceOnUse">
<stop stop-color="#1A1A1A"/>
<stop offset="0.35" stop-color="white"/>
<stop offset="0.6" stop-color="white"/>
<stop offset="1" stop-color="#212121"/>
</linearGradient>
<linearGradient id="paint10_linear_6561_4029" x1="94.9786" y1="5.96982" x2="94.9786" y2="43.1098" gradientUnits="userSpaceOnUse">
<stop/>
<stop offset="0.21" stop-color="#333333"/>
<stop offset="0.49" stop-color="#1A1A1A"/>
<stop offset="0.79" stop-color="#333333"/>
<stop offset="1"/>
</linearGradient>
<linearGradient id="paint11_linear_6561_4029" x1="98.7887" y1="11.0116" x2="98.7887" y2="14.7617" gradientUnits="userSpaceOnUse">
<stop/>
<stop offset="0.21" stop-color="#ADADAD"/>
<stop offset="0.49" stop-color="#444444"/>
<stop offset="0.51" stop-color="#3D3D3D"/>
<stop offset="0.54" stop-color="#4F4F4F"/>
<stop offset="0.71" stop-color="#989898"/>
<stop offset="0.79" stop-color="#B5B5B5"/>
<stop offset="0.91" stop-color="#4C4C4C"/>
<stop offset="1"/>
</linearGradient>
<linearGradient id="paint12_linear_6561_4029" x1="98.8306" y1="38.1231" x2="98.8306" y2="34.3731" gradientUnits="userSpaceOnUse">
<stop/>
<stop offset="0.21" stop-color="#ADADAD"/>
<stop offset="0.49" stop-color="#444444"/>
<stop offset="0.51" stop-color="#3D3D3D"/>
<stop offset="0.54" stop-color="#4F4F4F"/>
<stop offset="0.71" stop-color="#989898"/>
<stop offset="0.79" stop-color="#B5B5B5"/>
<stop offset="0.91" stop-color="#4C4C4C"/>
<stop offset="1"/>
</linearGradient>
<linearGradient id="paint13_linear_6561_4029" x1="97.6572" y1="35.3944" x2="97.6572" y2="13.506" gradientUnits="userSpaceOnUse">
<stop/>
<stop offset="0.51" stop-color="#121212"/>
<stop offset="1"/>
</linearGradient>
<linearGradient id="paint14_linear_6561_4029" x1="97.0884" y1="35.5253" x2="97.0884" y2="13.3097" gradientUnits="userSpaceOnUse">
<stop/>
<stop offset="0.51" stop-color="#3D3D3D"/>
<stop offset="0.75" stop-color="#1C1C1C"/>
<stop offset="1"/>
</linearGradient>
<linearGradient id="paint15_linear_6561_4029" x1="90.247" y1="10.4355" x2="95.3627" y2="10.4355" gradientUnits="userSpaceOnUse">
<stop stop-color="white"/>
<stop offset="1" stop-color="#F8F4A8"/>
</linearGradient>
<linearGradient id="paint16_linear_6561_4029" x1="90.1463" y1="38.5957" x2="95.3187" y2="38.5957" gradientUnits="userSpaceOnUse">
<stop stop-color="white"/>
<stop offset="1" stop-color="#F8F4A8"/>
</linearGradient>
<clipPath id="clip0_6561_4029">
<rect width="100" height="49" fill="white" transform="matrix(1 0 0 -1 0 49)"/>
</clipPath>
</defs>
</svg>
