<svg width="100" height="22" viewBox="0 0 100 22" fill="none" xmlns="http://www.w3.org/2000/svg">
<g clip-path="url(#clip0_6561_5134)">
<path d="M37.1634 14.3386C36.7471 15.0634 35.9663 15.5555 35.0748 15.5555H34.9752L34.0725 19.0897C34.0543 19.1626 34.0277 19.2327 33.994 19.3013L33.4782 20.3331C33.2791 20.7313 32.846 20.9864 32.368 20.9864H23.2005C22.8725 20.9864 22.5599 20.8659 22.33 20.6514L21.8085 20.1649C21.5843 19.956 21.4581 19.6728 21.4581 19.3799V16.1877H17.7224V15.0718L16.2464 15.2695V17.2448L19.8124 17.2349V18.306H20.7558V22H15.7207V21.1939H9.81931C9.29365 21.1939 8.84088 20.8827 8.87733 20.2098L8.81845 19.5943L8.55773 19.6364V20.1887H4.31181V18.8121H6.75086C6.71722 18.7658 6.68638 18.7168 6.65695 18.6677H2.85958V20.9864H1.31625V13.8143H0.290164V8.34411H1.31485V3.59869H0V0.881811H3.65859V1.80146H8.04188V5.06507H5.04773L13.1485 6.30856V4.97115H9.81931C9.29365 4.97115 8.86471 4.54217 8.86471 4.01645V1.8365C8.86471 1.31079 9.29365 0.881811 9.81931 0.881811H15.7207V0.109367H20.7558V3.80477H19.8124V4.97115H16.2464V6.7838L17.7224 7.01091V6.08846H21.4581V2.48839C21.4581 2.19399 21.5843 1.91221 21.8085 1.70332L22.33 1.21687C22.5599 1.00237 22.8739 0.881811 23.2005 0.881811H32.2937C32.8095 0.881811 33.2693 1.17761 33.4431 1.62201L33.8637 2.69166C33.8763 2.72531 33.8889 2.76035 33.8987 2.7954L34.9612 6.62258H35.0762C35.9495 6.62258 36.7162 7.09502 37.1382 7.79737C37.1382 7.79737 38.2441 9.93807 38.2441 11.1507C38.2441 12.3634 37.1648 14.3386 37.1648 14.3386H37.1634ZM13.1485 15.6845L9.67353 16.1513C10.1095 16.5522 10.2314 16.949 10.2805 17.2602H13.1485V15.6845ZM6.54761 16.8438C6.59387 16.7415 6.64713 16.6433 6.70881 16.5508L4.47441 16.7373C3.81418 16.7373 3.2689 16.5522 2.85818 16.0924V16.8452H6.54761V16.8438ZM2.85818 5.06507V5.73658C3.14274 5.41695 3.51701 5.18003 3.94034 5.06507H2.85818Z" fill="#231F20"/>
<path d="M100 10.423H96.8096V11.4408H100V10.423ZM35.7336 9.21879L37.1564 7.74119L38.8217 6.01125C39.2324 5.6005 39.8057 5.44769 40.3384 5.55283V5.46171L42.3078 2.59763C42.483 2.34249 42.741 2.15743 43.0381 2.07192L49.3657 0.270481L58.393 -0.011301L72.7736 0.260666C73.1311 0.267675 73.4773 0.391043 73.7577 0.613945L75.971 2.36912C76.2724 2.60744 76.4476 2.97054 76.4476 3.35465V3.15979H76.7294V1.36256H77.5929V3.15979H84.3213V2.74623H85.203V9.59871H86.1534V10.0754H86.2697V9.50058H87.3V8.3342H88.3303V8.73514H88.8448V9.50058H89.8751V9.72208H90.3895V10.0641H92.3001V9.72208H92.8146V9.50058H93.8448V10.3249H95.7554V9.93096H96.7857V11.9343H95.7554V11.5403H93.8448V12.3647H92.8146V12.1432H92.3001V11.8011H90.3895V12.1432H89.8751V12.3647H88.8448V13.1301H88.3303V13.531H87.3V12.3647H86.2697V11.8333H86.1534V12.2553H85.203V19.2886H84.3213V18.6914H77.5929V20.4915H76.7294V18.6914H76.4476V18.39C76.4476 18.7615 76.2836 19.1148 75.9977 19.3531L73.7661 21.226C73.4801 21.4658 73.1199 21.6004 72.747 21.6074L58.3916 21.8779L49.3643 21.5961L42.8209 19.8424C42.6639 19.8003 42.5265 19.7022 42.4368 19.5662L40.337 16.4049V16.3138C39.8043 16.4175 39.231 16.2647 38.8203 15.8554L37.2265 14.1395L35.7336 12.5329C35.7336 12.5329 34.9402 11.8908 34.9402 10.9642C34.9402 10.0375 35.7308 9.21599 35.7308 9.21599L35.7336 9.21879Z" fill="#231F20"/>
<path d="M37.1634 14.3386C36.7471 15.0634 35.9663 15.5555 35.0748 15.5555H34.9752L34.0767 19.0742C34.0557 19.157 34.0263 19.2369 33.9884 19.3126L33.4782 20.3317C33.2791 20.7299 32.846 20.985 32.368 20.985H23.2005C22.8725 20.985 22.5599 20.8645 22.33 20.65L21.8085 20.1635C21.5843 19.9546 21.4581 19.6714 21.4581 19.3785V16.3139C21.4581 16.2424 21.4006 16.1849 21.3291 16.1849H17.85C17.7785 16.1849 17.721 16.1274 17.721 16.056V15.2148C17.721 15.1377 17.6523 15.0774 17.5752 15.0872L16.3557 15.2513C16.2912 15.2597 16.245 15.3143 16.245 15.3788V17.1032C16.245 17.1747 16.3024 17.2321 16.3739 17.2321H19.6835C19.755 17.2321 19.8124 17.2896 19.8124 17.3611V18.1742C19.8124 18.2457 19.8699 18.3032 19.9414 18.3032H20.6283C20.6998 18.3032 20.7572 18.3607 20.7572 18.4322V21.871C20.7572 21.9425 20.6998 22 20.6283 22H15.8511C15.7796 22 15.7221 21.9425 15.7221 21.871V21.3201C15.7221 21.25 15.6646 21.1925 15.5946 21.1911L13.4134 21.1771C12.8878 21.1771 8.96284 20.7046 8.96284 20.1789L8.89695 19.7093C8.88714 19.6364 8.81845 19.5873 8.74556 19.6014L8.66286 19.6168C8.60258 19.628 8.55773 19.6813 8.55773 19.7429V20.0598C8.55773 20.1313 8.50026 20.1887 8.42877 20.1887H4.43937C4.36788 20.1887 4.3104 20.1313 4.3104 20.0598V18.9411C4.3104 18.8696 4.36788 18.8121 4.43937 18.8121H6.74946C6.72984 18.784 6.71021 18.756 6.69199 18.728C6.66816 18.6901 6.62751 18.6677 6.58265 18.6677H2.98574C2.91425 18.6677 2.85678 18.7252 2.85678 18.7967V20.8575C2.85678 20.929 2.79931 20.9864 2.72782 20.9864H1.44241C1.37092 20.9864 1.31345 20.929 1.31345 20.8575V13.9419C1.31345 13.8704 1.25597 13.8129 1.18448 13.8129H0.417724C0.346234 13.8129 0.288762 13.7554 0.288762 13.6839V8.47169C0.288762 8.40019 0.346234 8.34271 0.417724 8.34271H1.18589C1.25738 8.34271 1.31485 8.28523 1.31485 8.21374V3.72626C1.31485 3.65476 1.25738 3.59729 1.18589 3.59729H0.128962C0.0574721 3.59869 0 3.54121 0 3.46972V1.00938C0 0.937887 0.0574721 0.880411 0.128962 0.880411H3.52962C3.60111 0.880411 3.65859 0.937887 3.65859 1.00938V1.67108C3.65859 1.74258 3.71606 1.80005 3.78755 1.80005H7.91292C7.98441 1.80005 8.04188 1.85753 8.04188 1.92903V4.9361C8.04188 5.0076 7.98441 5.06507 7.91292 5.06507H6.73124C6.57284 5.06507 6.55462 5.29639 6.71161 5.32022L12.9999 6.28613C13.0784 6.29875 13.1485 6.23846 13.1485 6.15856V5.08751C13.1485 5.01601 13.206 4.95853 13.2774 4.95853L16.1132 4.96975C16.1861 4.96975 16.2436 4.91087 16.2422 4.83797L16.2338 4.43422C16.2323 4.36412 16.1749 4.30805 16.1048 4.30805H11.3963C11.3262 4.30805 11.2687 4.25197 11.2673 4.18188L11.2561 3.51598C11.2561 3.48513 11.2659 3.45429 11.2869 3.43046L13.3335 1.0234C13.3573 0.995365 13.3938 0.978542 13.4316 0.978542H15.5931C15.6646 0.978542 15.7221 0.921064 15.7221 0.849567V0.236937C15.7221 0.165442 15.7796 0.107964 15.8511 0.107964H20.6283C20.6998 0.107964 20.7572 0.165442 20.7572 0.236937V3.67439C20.7572 3.74589 20.6998 3.80337 20.6283 3.80337H19.9414C19.8699 3.80337 19.8124 3.86084 19.8124 3.93234V4.84217C19.8124 4.91367 19.755 4.97115 19.6835 4.97115H16.3739C16.3024 4.97115 16.245 5.02863 16.245 5.10012V6.67445C16.245 6.73754 16.2912 6.79221 16.3543 6.80202L17.5738 6.98848C17.6523 7.00109 17.7224 6.94081 17.7224 6.86091V6.21743C17.7224 6.14594 17.7799 6.08846 17.8514 6.08846H21.3305C21.402 6.08846 21.4595 6.03098 21.4595 5.95949V2.48698C21.4595 2.19258 21.5857 1.9108 21.8099 1.70192L22.3314 1.21546C22.5613 1.00097 22.8753 0.880411 23.2019 0.880411H32.2951C32.8109 0.880411 33.2707 1.17621 33.4445 1.62061L33.8623 2.68465C33.8777 2.7225 34.9612 6.62118 34.9612 6.62118H35.0762C35.9481 6.62118 36.7134 7.09222 37.1368 7.79177C37.1382 7.79457 37.1396 7.79737 37.141 7.80018C37.1956 7.90111 38.2441 9.87218 38.2441 11.1493C38.2441 12.4264 37.1648 14.3372 37.1648 14.3372L37.1634 14.3386ZM13.0027 15.7041L9.93566 16.1162C9.83333 16.1303 9.78427 16.2522 9.85295 16.3293C10.0492 16.5494 10.1964 16.813 10.2805 17.1046L10.3197 17.2644L13.0181 17.2728C13.0896 17.2728 13.1471 17.2153 13.1471 17.1438V15.8316C13.1471 15.7545 13.0784 15.6943 13.0013 15.7041H13.0027ZM4.52207 16.8438H6.46631C6.58826 16.8438 6.58546 16.7653 6.58546 16.7064C6.58546 16.7064 6.56443 16.5592 6.39762 16.5887L4.52347 16.7359C4.51646 16.7359 4.40012 16.7359 4.39311 16.7359C3.84222 16.7331 3.45673 16.6349 3.06845 16.2985C2.98574 16.227 2.85818 16.2873 2.85818 16.3966V16.7148C2.85818 16.7863 2.91566 16.8438 2.98714 16.8438H4.52347H4.52207ZM2.85818 5.19405V5.43097C2.85818 5.53892 2.98574 5.6006 3.06845 5.5305C3.16657 5.44499 3.2731 5.36929 3.38384 5.30199C3.49458 5.2347 3.44552 5.06507 3.31656 5.06507H2.98714C2.91566 5.06507 2.85818 5.12255 2.85818 5.19405Z" fill="#FBB040"/>
<path d="M35.7336 9.21879L38.8217 6.01125C39.2324 5.6005 39.8057 5.44769 40.3384 5.55283V5.46171L42.3078 2.59763C42.483 2.34249 42.741 2.15743 43.0381 2.07192L49.3657 0.270481L58.393 -0.011301L72.7736 0.260666C73.1311 0.267675 73.4773 0.391043 73.7577 0.613945L75.971 2.36912C76.2724 2.60744 76.4476 3.15979 76.4476 3.15979H76.7294V1.36256H77.5929V3.15979H84.3213V2.74623H85.203V9.59871H60.9218V12.2553H85.203V19.2886H84.3213V18.6914H77.5929V20.4915H76.7294V18.6914H76.4476C76.4476 18.6914 76.2836 19.1148 75.9977 19.3531L73.7661 21.226C73.4801 21.4658 73.1199 21.6004 72.747 21.6074L58.3916 21.8779L49.3643 21.5961L42.8209 19.8424C42.6639 19.8003 42.5265 19.7022 42.4368 19.5662L40.337 16.4049V16.3138C39.8043 16.4175 39.231 16.2647 38.8203 15.8554L35.7336 12.5343C35.0804 11.881 34.9402 11.3735 34.9402 10.9656C34.9402 10.5576 35.107 9.84124 35.7308 9.21739L35.7336 9.21879Z" fill="#FBB040"/>
<path d="M36.4386 10.1344C36.8985 10.1344 37.2712 10.5072 37.2712 10.9671C37.2712 11.427 36.8985 11.7998 36.4386 11.7998C35.9787 11.7998 35.606 11.427 35.606 10.9671C35.606 10.5072 35.9787 10.1344 36.4386 10.1344Z" fill="#231F20"/>
<path opacity="0.2" d="M59.1429 13.5437H56.0113C55.7729 13.5437 55.5796 13.3504 55.5796 13.1119V8.91604C55.5796 8.67757 55.7729 8.48425 56.0113 8.48425H59.1429C59.3813 8.48425 59.5746 8.67757 59.5746 8.91604V13.1119C59.5746 13.3504 59.3813 13.5437 59.1429 13.5437Z" fill="url(#paint0_linear_6561_5134)"/>
<path opacity="0.5" d="M85.203 19.2888H84.3213V12.2555H85.203V19.2888Z" fill="#231F20"/>
<path opacity="0.5" d="M85.203 9.59888H84.3213V2.7464H85.203V9.59888Z" fill="#231F20"/>
<path opacity="0.5" d="M85.2044 8.93998V9.59888H60.9722V9.41943H76.4476L77.5928 8.93998H85.2044Z" fill="#231F20"/>
<path opacity="0.5" d="M85.2044 12.2556V12.8528H77.5928L76.4476 12.3649H60.9722V12.2556H85.2044Z" fill="#231F20"/>
<path opacity="0.6" d="M86.1533 12.2554H60.9722V9.59877H86.1533V12.2554Z" fill="url(#paint1_linear_6561_5134)"/>
<path opacity="0.6" d="M100.002 11.4409H96.7859V10.4231H100.002V11.4409Z" fill="url(#paint2_linear_6561_5134)"/>
<path opacity="0.6" d="M96.7857 11.9329H95.7554V9.92955H96.7857V11.9329Z" fill="url(#paint3_linear_6561_5134)"/>
<path opacity="0.6" d="M93.845 12.3647H92.8147V9.50067H93.845V12.3647Z" fill="url(#paint4_linear_6561_5134)"/>
<path opacity="0.6" d="M92.8145 12.1433H92.3V9.72223H92.8145V12.1433Z" fill="url(#paint5_linear_6561_5134)"/>
<path opacity="0.6" d="M88.8447 9.49927H89.875V12.3633H88.8447V9.49927Z" fill="url(#paint6_linear_6561_5134)"/>
<path opacity="0.6" d="M86.1534 9.49927H87.3V12.3633H86.1534V9.49927Z" fill="url(#paint7_linear_6561_5134)"/>
<path opacity="0.6" d="M89.8752 9.7207H90.3896V12.1418H89.8752V9.7207Z" fill="url(#paint8_linear_6561_5134)"/>
<path opacity="0.6" d="M87.3 8.33301H88.3303V13.5298H87.3V8.33301Z" fill="url(#paint9_linear_6561_5134)"/>
<path opacity="0.6" d="M88.3303 8.73535H88.8447V13.1303H88.3303V8.73535Z" fill="url(#paint10_linear_6561_5134)"/>
<path opacity="0.6" d="M95.7553 11.5405H93.8447V10.3251H95.7553V11.5405Z" fill="url(#paint11_linear_6561_5134)"/>
<path opacity="0.6" d="M92.3002 11.8013H90.3896V10.0629H92.3002V11.8013Z" fill="url(#paint12_linear_6561_5134)"/>
<path opacity="0.1" d="M74.8595 3.29304L71.3005 2.54303C71.2626 2.53462 71.2234 2.53041 71.1841 2.53041H43.0733C42.8896 2.53041 42.7172 2.61873 42.6121 2.76873L40.9889 5.05383C40.9174 5.15336 40.8809 5.27392 40.8837 5.39729L40.9118 6.43329C40.9146 6.56087 40.9622 6.68423 41.0449 6.78236L42.6485 8.69035C42.734 8.79269 42.7817 8.92166 42.7817 9.05484V12.8372C42.7817 12.9802 42.727 13.1189 42.6289 13.2241L41.0645 14.898C40.9706 14.9989 40.916 15.1307 40.9118 15.2681L40.8837 16.2396C40.8809 16.3531 40.9118 16.4653 40.9734 16.562L42.6149 19.1177C42.7186 19.2803 42.898 19.3784 43.0915 19.3784H71.1855C71.2248 19.3784 71.264 19.3742 71.3019 19.3658L74.8609 18.6158C75.1231 18.5611 75.3109 18.3298 75.3109 18.062V15.0704C75.3109 14.8461 75.1791 14.6428 74.9745 14.5531L72.5915 13.4989C72.5242 13.4694 72.4527 13.4526 72.3798 13.4512L60.6289 13.0797C60.3233 13.0699 60.0808 12.8189 60.0808 12.5133V9.39831C60.0808 9.09269 60.3233 8.84175 60.6289 8.83194L72.3798 8.46044C72.4527 8.45763 72.5242 8.44221 72.5915 8.41277L74.9745 7.35855C75.1791 7.26742 75.3109 7.06415 75.3109 6.84125V3.8496C75.3109 3.58183 75.1231 3.35052 74.8609 3.29585L74.8595 3.29304Z" fill="url(#paint13_linear_6561_5134)"/>
<path opacity="0.6" d="M58.634 12.8162H56.4094V9.09973H58.634V12.8162Z" fill="url(#paint14_linear_6561_5134)"/>
<path opacity="0.3" d="M77.593 20.4915H76.7295V12.2553H77.593V20.4915Z" fill="#231F20"/>
<path opacity="0.25" d="M80.2366 17.9597H77.3574V16.8732H80.2366V17.9597Z" fill="url(#paint15_linear_6561_5134)"/>
<path opacity="0.25" d="M83.5728 16.4807H77.3574V14.6751H83.5728V16.4807Z" fill="url(#paint16_linear_6561_5134)"/>
<path opacity="0.25" d="M82.4206 14.2827H77.3574V13.3925H82.4206V14.2827Z" fill="url(#paint17_linear_6561_5134)"/>
<path opacity="0.3" d="M77.593 9.59888H76.7295V1.36273H77.593V9.59888Z" fill="#231F20"/>
<path opacity="0.25" d="M80.2366 4.98096H77.3574V3.89449H80.2366V4.98096Z" fill="url(#paint18_linear_6561_5134)"/>
<path opacity="0.25" d="M83.5728 7.1792H77.3574V5.37356H83.5728V7.1792Z" fill="url(#paint19_linear_6561_5134)"/>
<path opacity="0.25" d="M82.4206 8.46191H77.3574V7.57171H82.4206V8.46191Z" fill="url(#paint20_linear_6561_5134)"/>
<path d="M78.1311 17.6331H77.8802C77.8121 17.6331 77.7568 17.5778 77.7568 17.5097V15.3746C77.7568 15.3065 77.8121 15.2512 77.8802 15.2512H78.1311C78.1992 15.2512 78.2545 15.3065 78.2545 15.3746V17.5097C78.2545 17.5778 78.1992 17.6331 78.1311 17.6331Z" fill="url(#paint21_linear_6561_5134)"/>
<path d="M78.9429 17.6331H78.692C78.6238 17.6331 78.5686 17.5778 78.5686 17.5097V15.3746C78.5686 15.3065 78.6238 15.2512 78.692 15.2512H78.9429C79.011 15.2512 79.0662 15.3065 79.0662 15.3746V17.5097C79.0662 17.5778 79.011 17.6331 78.9429 17.6331Z" fill="url(#paint22_linear_6561_5134)"/>
<path d="M79.7124 17.6331H79.4615C79.3934 17.6331 79.3381 17.5778 79.3381 17.5097V15.3746C79.3381 15.3065 79.3934 15.2512 79.4615 15.2512H79.7124C79.7805 15.2512 79.8358 15.3065 79.8358 15.3746V17.5097C79.8358 17.5778 79.7805 17.6331 79.7124 17.6331Z" fill="url(#paint23_linear_6561_5134)"/>
<path d="M78.1311 6.60303H77.8802C77.8121 6.60303 77.7568 6.54779 77.7568 6.47966V4.34457C77.7568 4.27644 77.8121 4.2212 77.8802 4.2212H78.1311C78.1992 4.2212 78.2545 4.27644 78.2545 4.34457V6.47966C78.2545 6.54779 78.1992 6.60303 78.1311 6.60303Z" fill="url(#paint24_linear_6561_5134)"/>
<path d="M78.9429 6.60303H78.692C78.6238 6.60303 78.5686 6.54779 78.5686 6.47966V4.34457C78.5686 4.27644 78.6238 4.2212 78.692 4.2212H78.9429C79.011 4.2212 79.0662 4.27644 79.0662 4.34457V6.47966C79.0662 6.54779 79.011 6.60303 78.9429 6.60303Z" fill="url(#paint25_linear_6561_5134)"/>
<path d="M79.7124 6.60303H79.4615C79.3934 6.60303 79.3381 6.54779 79.3381 6.47966V4.34457C79.3381 4.27644 79.3934 4.2212 79.4615 4.2212H79.7124C79.7805 4.2212 79.8358 4.27644 79.8358 4.34457V6.47966C79.8358 6.54779 79.7805 6.60303 79.7124 6.60303Z" fill="url(#paint26_linear_6561_5134)"/>
<path opacity="0.6" d="M39.011 14.5798H38.1699V7.47502H39.011V14.5798Z" fill="url(#paint27_linear_6561_5134)"/>
<path opacity="0.6" d="M40.016 15.4348H39.011V6.6337H40.016V15.4348Z" fill="url(#paint28_linear_6561_5134)"/>
<path opacity="0.6" d="M40.3383 14.5798H40.0117V7.48763H40.3383V14.5798Z" fill="url(#paint29_linear_6561_5134)"/>
<path opacity="0.25" d="M71.184 2.39151H43.0731C42.8446 2.39151 42.6288 2.50226 42.497 2.68871L40.8738 4.97381C40.7855 5.09858 40.7392 5.24998 40.7434 5.40279L40.7714 6.43879C40.7756 6.59721 40.8345 6.75282 40.9369 6.87478L42.5405 8.78277C42.6049 8.85987 42.64 8.9566 42.64 9.05754V12.8399C42.64 12.9478 42.5993 13.0515 42.525 13.1315L40.9607 14.8053C40.8429 14.9315 40.7756 15.0955 40.77 15.2679L40.742 16.2395C40.7378 16.3825 40.7771 16.5212 40.8541 16.6418L42.4956 19.1975C42.626 19.4007 42.8488 19.5227 43.0899 19.5227H71.184C71.233 19.5227 71.2821 19.5171 71.3298 19.5073L74.8888 18.7573C75.214 18.6886 75.4495 18.3984 75.4495 18.0661V15.0745C75.4495 14.7955 75.2841 14.5418 75.029 14.4282L72.646 13.374C72.5619 13.3375 72.4736 13.3165 72.3825 13.3137L60.6315 12.9422C60.4003 12.9352 60.2194 12.7473 60.2194 12.516V9.401C60.2194 9.16969 60.4003 8.98183 60.6315 8.97482L72.3825 8.60332C72.4736 8.60052 72.5633 8.58089 72.646 8.54304L75.029 7.48881C75.2841 7.37526 75.4495 7.12152 75.4495 6.84254V3.85089C75.4495 3.51864 75.214 3.22845 74.8888 3.15975L71.3298 2.40974C71.2821 2.39992 71.233 2.39432 71.184 2.39432V2.39151ZM43.0886 19.2395C42.9428 19.2395 42.8082 19.1666 42.7297 19.0433L41.0882 16.4876C41.042 16.4147 41.0182 16.332 41.021 16.2451L41.049 15.2736C41.0518 15.1698 41.0924 15.0703 41.1639 14.9946L42.7283 13.3207C42.8517 13.1889 42.9189 13.0179 42.9189 12.8385V9.05614C42.9189 8.89071 42.8601 8.72809 42.7535 8.60192L41.1499 6.69394C41.0882 6.62104 41.0532 6.52711 41.0504 6.43178L41.0224 5.39578C41.0196 5.30466 41.0476 5.21213 41.1009 5.13783L42.7241 2.85274C42.804 2.74059 42.9344 2.67329 43.0717 2.67329H71.1826C71.212 2.67329 71.2414 2.6761 71.2709 2.68311L74.8299 3.43312C75.0262 3.47378 75.1678 3.65042 75.1678 3.84949V6.84114C75.1678 7.00937 75.0682 7.16217 74.9141 7.23086L72.5311 8.28509C72.4806 8.30752 72.4273 8.32014 72.3727 8.32154L60.6217 8.69304C60.2376 8.70566 59.9377 9.01548 59.9377 9.3996V12.5146C59.9377 12.8987 60.2376 13.2086 60.6217 13.2212L72.3727 13.5927C72.4273 13.5941 72.4806 13.6067 72.5311 13.6291L74.9141 14.6834C75.0682 14.752 75.1678 14.9049 75.1678 15.0731V18.0647C75.1678 18.2652 75.0262 18.4404 74.8299 18.4825L71.2709 19.2325C71.2414 19.2381 71.212 19.2423 71.1826 19.2423H43.0886V19.2395Z" fill="url(#paint30_linear_6561_5134)"/>
<path opacity="0.3" d="M77.3112 18.6914H76.4478V12.2553H77.3112V18.6914Z" fill="#231F20"/>
<path opacity="0.3" d="M77.3112 9.59888H76.4478V3.16277H77.3112V9.59888Z" fill="#231F20"/>
<path opacity="0.6" d="M60.4577 9.23999H60.9722V12.6158H60.4577V9.23999Z" fill="url(#paint31_linear_6561_5134)"/>
<path opacity="0.5" d="M49.1764 14.776C50.0435 14.776 50.7464 15.479 50.7464 16.3461C50.7464 17.2133 50.0435 17.9163 49.1764 17.9163C48.3093 17.9163 47.6064 17.2133 47.6064 16.3461C47.6064 15.479 48.3093 14.776 49.1764 14.776Z" fill="url(#paint32_radial_6561_5134)"/>
<path opacity="0.5" d="M71.2851 14.776C72.1521 14.776 72.855 15.479 72.855 16.3461C72.855 17.2133 72.1521 17.9163 71.2851 17.9163C70.418 17.9163 69.7151 17.2133 69.7151 16.3461C69.7151 15.479 70.418 14.776 71.2851 14.776Z" fill="url(#paint33_radial_6561_5134)"/>
<path opacity="0.5" d="M49.1764 3.99549C50.0435 3.99549 50.7464 4.69846 50.7464 5.56562C50.7464 6.43277 50.0435 7.13574 49.1764 7.13574C48.3093 7.13574 47.6064 6.43277 47.6064 5.56562C47.6064 4.69846 48.3093 3.99549 49.1764 3.99549Z" fill="url(#paint34_radial_6561_5134)"/>
<path opacity="0.5" d="M71.2851 3.99549C72.1521 3.99549 72.855 4.69846 72.855 5.56562C72.855 6.43277 72.1521 7.13574 71.2851 7.13574C70.418 7.13574 69.7151 6.43277 69.7151 5.56562C69.7151 4.69846 70.418 3.99549 71.2851 3.99549Z" fill="url(#paint35_radial_6561_5134)"/>
<path opacity="0.25" d="M49.1765 14.2195C48.0046 14.2195 47.05 15.1728 47.05 16.3462C47.05 17.5196 48.0032 18.4729 49.1765 18.4729C50.3498 18.4729 51.303 17.5196 51.303 16.3462C51.303 15.1728 50.3498 14.2195 49.1765 14.2195ZM49.1765 18.0523C48.2359 18.0523 47.4706 17.2869 47.4706 16.3462C47.4706 15.4055 48.2359 14.6401 49.1765 14.6401C50.1171 14.6401 50.8825 15.4055 50.8825 16.3462C50.8825 17.2869 50.1171 18.0523 49.1765 18.0523Z" fill="url(#paint36_radial_6561_5134)"/>
<path opacity="0.25" d="M71.2849 14.2195C70.113 14.2195 69.1584 15.1728 69.1584 16.3462C69.1584 17.5196 70.1116 18.4729 71.2849 18.4729C72.4582 18.4729 73.4114 17.5196 73.4114 16.3462C73.4114 15.1728 72.4582 14.2195 71.2849 14.2195ZM71.2849 18.0523C70.3443 18.0523 69.579 17.2869 69.579 16.3462C69.579 15.4055 70.3443 14.6401 71.2849 14.6401C72.2255 14.6401 72.9909 15.4055 72.9909 16.3462C72.9909 17.2869 72.2255 18.0523 71.2849 18.0523Z" fill="url(#paint37_radial_6561_5134)"/>
<path opacity="0.25" d="M71.2849 3.44025C70.113 3.44025 69.1584 4.39354 69.1584 5.56692C69.1584 6.74031 70.1116 7.6936 71.2849 7.6936C72.4582 7.6936 73.4114 6.74031 73.4114 5.56692C73.4114 4.39354 72.4582 3.44025 71.2849 3.44025ZM71.2849 7.27163C70.3443 7.27163 69.579 6.5062 69.579 5.56552C69.579 4.62485 70.3443 3.85941 71.2849 3.85941C72.2255 3.85941 72.9909 4.62485 72.9909 5.56552C72.9909 6.5062 72.2255 7.27163 71.2849 7.27163Z" fill="url(#paint38_radial_6561_5134)"/>
<path opacity="0.25" d="M49.1765 3.44025C48.0046 3.44025 47.05 4.39354 47.05 5.56692C47.05 6.74031 48.0032 7.6936 49.1765 7.6936C50.3498 7.6936 51.303 6.74031 51.303 5.56692C51.303 4.39354 50.3498 3.44025 49.1765 3.44025ZM49.1765 7.27163C48.2359 7.27163 47.4706 6.5062 47.4706 5.56552C47.4706 4.62485 48.2359 3.85941 49.1765 3.85941C50.1171 3.85941 50.8825 4.62485 50.8825 5.56552C50.8825 6.5062 50.1171 7.27163 49.1765 7.27163Z" fill="url(#paint39_radial_6561_5134)"/>
<path opacity="0.2" d="M19.8112 3.80481V4.97119H16.2451V4.3123H11.2646V3.47817L13.3841 0.978587H15.7194V0.109411H20.7545V3.80481H19.8112Z" fill="url(#paint40_linear_6561_5134)"/>
<path opacity="0.2" d="M20.7545 22H15.7194V21.1308H13.3841L11.2646 18.6312V17.7985H16.2451V17.2349H19.8112V18.3046H20.7545V22Z" fill="url(#paint41_linear_6561_5134)"/>
<path d="M11.2646 3.47803V4.31076H16.2296V4.84348L12.4532 4.84068H9.76327C9.23902 4.98507 8.92082 4.48319 8.92082 4.0458L8.9909 3.87757C8.9909 3.87757 8.86475 3.37289 8.86475 2.86961C8.86475 2.14342 9.01053 1.88407 9.01053 1.88407L8.95726 1.64295C8.95726 1.20555 9.33013 0.904146 9.76327 1.00368H13.3616L11.2646 3.47663V3.47803Z" fill="url(#paint42_linear_6561_5134)"/>
<path opacity="0.25" d="M33.4418 1.62191C33.268 1.17751 32.8082 0.88171 32.2924 0.88171H23.1992C22.8712 0.88171 22.5586 1.00227 22.3287 1.21676L21.8072 1.70322C21.5829 1.91211 21.4568 2.19529 21.4568 2.48829V19.3798C21.4568 19.6742 21.5829 19.9559 21.8072 20.1648L22.3287 20.6513C22.5586 20.8658 22.8726 20.9863 23.1992 20.9863H32.3667C32.8447 20.9863 33.2778 20.7312 33.4769 20.333L33.9927 19.3012C34.0263 19.234 34.053 19.1625 34.0712 19.0896L36.0869 11.1997C36.1318 11.0244 36.1304 10.8422 36.0813 10.6684L33.896 2.7953C33.8862 2.76025 33.875 2.72661 33.8609 2.69156L33.4404 1.62191H33.4418Z" fill="url(#paint43_linear_6561_5134)"/>
<path opacity="0.25" d="M4.52206 4.98509C3.29412 4.98509 2.28906 5.99025 2.28906 7.21832V14.6091C2.28906 15.8372 3.14413 17.054 5.22154 16.6923L21.4567 14.5937V7.51412L4.52346 4.98369L4.52206 4.98509Z" fill="url(#paint44_linear_6561_5134)"/>
<path opacity="0.25" d="M19.999 8.77862L7.68031 7.6571C6.89953 7.6571 6.26733 8.28936 6.26733 9.07021V13.0923C6.26733 13.8731 6.89953 14.5054 7.68031 14.5054L19.999 13.524C20.2765 13.524 20.5008 13.2997 20.5008 13.0222V9.2805C20.5008 9.00292 20.2765 8.77862 19.999 8.77862Z" fill="url(#paint45_radial_6561_5134)"/>
<path opacity="0.25" d="M12.3775 9.72072L7.34804 9.01977C6.87004 9.01977 6.48315 9.4067 6.48315 9.88475V12.3633C6.48315 12.8413 6.87004 13.2283 7.34804 13.2283L12.3775 12.6675C12.6032 12.6675 12.7855 12.4853 12.7855 12.2596V10.1301C12.7855 9.90437 12.6032 9.72212 12.3775 9.72212V9.72072Z" fill="url(#paint46_radial_6561_5134)"/>
<path d="M18.8704 10.0012C19.5052 10.0012 20.0198 10.5159 20.0198 11.1507C20.0198 11.7856 19.5052 12.3003 18.8704 12.3003C18.2356 12.3003 17.7209 11.7856 17.7209 11.1507C17.7209 10.5159 18.2356 10.0012 18.8704 10.0012Z" fill="url(#paint47_radial_6561_5134)"/>
<path opacity="0.2" d="M3.65859 3.59863H0V0.881754H3.65859V3.59863Z" fill="url(#paint48_linear_6561_5134)"/>
<path opacity="0.25" d="M1.31497 13.813H0.290283V8.34278H1.31497V13.813Z" fill="url(#paint49_linear_6561_5134)"/>
<path opacity="0.2" d="M6.77326 18.6677H2.85815V16.8439H6.77326V18.6677Z" fill="url(#paint50_linear_6561_5134)"/>
<path opacity="0.2" d="M8.55623 20.1887H4.3103V18.8121H8.55623V20.1887Z" fill="url(#paint51_linear_6561_5134)"/>
<path opacity="0.2" d="M8.04185 5.06494H2.85815V3.17658H8.04185V5.06494Z" fill="url(#paint52_linear_6561_5134)"/>
<path opacity="0.2" d="M8.04199 3.03223H3.65869V1.80136H8.04199V3.03223Z" fill="url(#paint53_linear_6561_5134)"/>
<path opacity="0.6" d="M16.2449 6.78101L13.1484 6.30857V4.95854H16.2449V6.78101Z" fill="url(#paint54_linear_6561_5134)"/>
<path d="M8.36714 15.6606C9.46724 15.6606 10.359 16.5525 10.359 17.6527C10.359 18.7529 9.46724 19.6448 8.36714 19.6448C7.26705 19.6448 6.37524 18.7529 6.37524 17.6527C6.37524 16.5525 7.26705 15.6606 8.36714 15.6606Z" fill="url(#paint55_radial_6561_5134)"/>
<path d="M8.36707 19.0336C8.50332 19.0336 8.61378 19.1441 8.61378 19.2804C8.61378 19.4166 8.50332 19.5271 8.36707 19.5271C8.23082 19.5271 8.12036 19.4166 8.12036 19.2804C8.12036 19.1441 8.23082 19.0336 8.36707 19.0336Z" fill="url(#paint56_radial_6561_5134)"/>
<path opacity="0.5" d="M8.36713 19.0336C8.24238 19.0336 8.14005 19.1275 8.12463 19.248C8.12463 19.2368 8.12183 19.227 8.12183 19.2158C8.12183 19.0798 8.23257 18.9691 8.36854 18.9691C8.50451 18.9691 8.61524 19.0798 8.61524 19.2158C8.61524 19.227 8.61384 19.2368 8.61244 19.248C8.59702 19.1275 8.49469 19.0336 8.36994 19.0336H8.36713Z" fill="#231F20"/>
<path opacity="0.2" d="M8.36722 19.4135C8.46394 19.4135 8.54244 19.342 8.55365 19.2481C8.55365 19.2565 8.55645 19.2635 8.55645 19.2719C8.55645 19.3771 8.47095 19.4612 8.36722 19.4612C8.26349 19.4612 8.17798 19.3757 8.17798 19.2719C8.17798 19.2635 8.17938 19.2551 8.18078 19.2481C8.1934 19.3406 8.2719 19.4135 8.36722 19.4135Z" fill="url(#paint57_linear_6561_5134)"/>
<path d="M8.36707 15.791C8.50332 15.791 8.61378 15.9014 8.61378 16.0377C8.61378 16.174 8.50332 16.2844 8.36707 16.2844C8.23082 16.2844 8.12036 16.174 8.12036 16.0377C8.12036 15.9014 8.23082 15.791 8.36707 15.791Z" fill="url(#paint58_radial_6561_5134)"/>
<path opacity="0.5" d="M8.36713 15.7923C8.24238 15.7923 8.14005 15.8863 8.12463 16.0068C8.12463 15.9956 8.12183 15.9858 8.12183 15.9746C8.12183 15.8386 8.23257 15.7279 8.36854 15.7279C8.50451 15.7279 8.61524 15.8386 8.61524 15.9746C8.61524 15.9858 8.61384 15.9956 8.61244 16.0068C8.59702 15.8863 8.49469 15.7923 8.36994 15.7923H8.36713Z" fill="#231F20"/>
<path opacity="0.3" d="M18.5705 18.8556V20.1972C18.5705 20.2449 18.5313 20.2827 18.485 20.2827H13.8704C13.8228 20.2827 13.7849 20.2435 13.7849 20.1972V18.8556C13.7849 18.8079 13.8242 18.7701 13.8704 18.7701H18.485C18.5327 18.7701 18.5705 18.8093 18.5705 18.8556Z" fill="white"/>
<path opacity="0.2" d="M8.36722 16.1708C8.46394 16.1708 8.54244 16.0993 8.55365 16.0054C8.55365 16.0138 8.55645 16.0208 8.55645 16.0292C8.55645 16.1344 8.47095 16.2185 8.36722 16.2185C8.26349 16.2185 8.17798 16.133 8.17798 16.0292C8.17798 16.0208 8.17938 16.0124 8.18078 16.0054C8.1934 16.0979 8.2719 16.1708 8.36722 16.1708Z" fill="url(#paint59_linear_6561_5134)"/>
<path d="M9.98475 17.4382C10.121 17.4382 10.2315 17.5486 10.2315 17.6849C10.2315 17.8212 10.121 17.9316 9.98475 17.9316C9.84849 17.9316 9.73804 17.8212 9.73804 17.6849C9.73804 17.5486 9.84849 17.4382 9.98475 17.4382Z" fill="url(#paint60_radial_6561_5134)"/>
<path opacity="0.5" d="M9.98481 17.4381C9.86005 17.4381 9.75772 17.532 9.7423 17.6526C9.7423 17.6414 9.7395 17.6316 9.7395 17.6203C9.7395 17.4844 9.85024 17.3736 9.98621 17.3736C10.1222 17.3736 10.2329 17.4844 10.2329 17.6203C10.2329 17.6316 10.2315 17.6414 10.2301 17.6526C10.2147 17.532 10.1124 17.4381 9.98761 17.4381H9.98481Z" fill="#231F20"/>
<path opacity="0.2" d="M9.98465 17.8181C10.0814 17.8181 10.1599 17.7466 10.1711 17.6526C10.1711 17.661 10.1739 17.6681 10.1739 17.6765C10.1739 17.7816 10.0884 17.8657 9.98465 17.8657C9.88092 17.8657 9.79541 17.7802 9.79541 17.6765C9.79541 17.6681 9.79681 17.6596 9.79821 17.6526C9.81083 17.7452 9.88933 17.8181 9.98465 17.8181Z" fill="url(#paint61_linear_6561_5134)"/>
<path d="M6.73401 17.4382C6.87027 17.4382 6.98072 17.5486 6.98072 17.6849C6.98072 17.8212 6.87027 17.9316 6.73401 17.9316C6.59776 17.9316 6.4873 17.8212 6.4873 17.6849C6.4873 17.5486 6.59776 17.4382 6.73401 17.4382Z" fill="url(#paint62_radial_6561_5134)"/>
<path opacity="0.5" d="M6.73408 17.4381C6.60932 17.4381 6.50699 17.532 6.49157 17.6526C6.49157 17.6414 6.48877 17.6316 6.48877 17.6203C6.48877 17.4844 6.59951 17.3736 6.73548 17.3736C6.87145 17.3736 6.98219 17.4844 6.98219 17.6203C6.98219 17.6316 6.98079 17.6414 6.97938 17.6526C6.96397 17.532 6.86164 17.4381 6.73688 17.4381H6.73408Z" fill="#231F20"/>
<path opacity="0.2" d="M6.73416 17.8181C6.83088 17.8181 6.90938 17.7466 6.92059 17.6526C6.92059 17.661 6.9234 17.6681 6.9234 17.6765C6.9234 17.7816 6.83789 17.8657 6.73416 17.8657C6.63043 17.8657 6.54492 17.7802 6.54492 17.6765C6.54492 17.6681 6.54632 17.6596 6.54773 17.6526C6.56034 17.7452 6.63884 17.8181 6.73416 17.8181Z" fill="url(#paint63_linear_6561_5134)"/>
<path d="M8.36714 17.2603C8.61642 17.2603 8.8185 17.4624 8.8185 17.7117C8.8185 17.961 8.61642 18.1631 8.36714 18.1631C8.11785 18.1631 7.91577 17.961 7.91577 17.7117C7.91577 17.4624 8.11785 17.2603 8.36714 17.2603Z" fill="url(#paint64_radial_6561_5134)"/>
<path opacity="0.2" d="M8.3671 17.9554C8.54373 17.9554 8.68811 17.8237 8.70913 17.6526C8.71053 17.6681 8.71334 17.6821 8.71334 17.6975C8.71334 17.8896 8.55774 18.0452 8.3657 18.0452C8.17366 18.0452 8.01807 17.8896 8.01807 17.6975C8.01807 17.6821 8.02087 17.6681 8.02227 17.6526C8.0447 17.8223 8.18908 17.9554 8.3643 17.9554H8.3671Z" fill="url(#paint65_linear_6561_5134)"/>
<path d="M13.9406 2.03418L18.4136 2.03418V3.36598L13.9406 3.36598V2.03418Z" fill="url(#paint66_linear_6561_5134)"/>
<path opacity="0.3" d="M18.5832 2.02868V3.37029C18.5832 3.41796 18.544 3.45581 18.4977 3.45581H13.8831C13.8355 3.45581 13.7976 3.41656 13.7976 3.37029V2.02868C13.7976 1.98101 13.8369 1.94316 13.8831 1.94316H18.4977C18.5454 1.94316 18.5832 1.98241 18.5832 2.02868Z" fill="white"/>
<path opacity="0.2" d="M20.6184 0.290214H15.8888V1.19864H13.4736L11.4873 3.46551V4.12581H16.4439V4.80713H19.6413V3.63374H20.6156V0.290214H20.6184ZM15.9589 0.360309H20.5483V3.56365H19.574V4.73703H16.5168V4.05571H11.5602V3.49215L13.5072 1.26874H15.9603V0.360309H15.9589Z" fill="url(#paint67_linear_6561_5134)"/>
<path opacity="0.3" d="M16.2297 4.99361H13.1472V6.08569C13.1472 6.08569 13.4584 5.35951 14.6667 5.35951C15.875 5.35951 16.2283 6.08569 16.2283 6.08569V4.99361H16.2297Z" fill="#231F20"/>
<path opacity="0.6" d="M16.2449 15.2764L13.1484 15.6844V17.2727H16.2449V15.2764Z" fill="url(#paint68_linear_6561_5134)"/>
<path opacity="0.3" d="M16.2365 17.2727H13.1541V16.1806C13.1541 16.1806 13.4652 16.9068 14.6736 16.9068C15.8819 16.9068 16.2351 16.1806 16.2351 16.1806V17.2727H16.2365Z" fill="#231F20"/>
<path opacity="0.3" d="M21.4931 7.52819V14.6078L20.4011 14.7354C20.4011 14.7354 21.1272 14.0302 21.1272 11.1661C21.1272 8.30204 20.4011 7.39642 20.4011 7.39642L21.4931 7.531V7.52819Z" fill="#231F20"/>
<path opacity="0.2" d="M20.6185 18.5331H19.6443V17.3597H16.4468V18.0411H11.4902V18.7013L13.4765 20.9682H15.8918V21.8752H20.6213V18.5317L20.6185 18.5331ZM15.959 20.8981H13.506L11.5589 18.6747V18.1111H16.5155V17.4298H19.5728V18.6032H20.547V21.8051H15.9576V20.8967L15.959 20.8981Z" fill="url(#paint69_linear_6561_5134)"/>
<path d="M11.2644 17.79V18.6227L13.3614 21.0957H9.76311C9.32996 21.1952 8.9571 20.8938 8.9571 20.4564L9.01036 20.2153C9.01036 20.2153 8.91224 20.04 8.8772 19.5746C9.72947 19.3489 10.3603 18.5751 10.3603 17.6512C10.3603 17.5166 10.3462 17.3863 10.321 17.2587H12.4545L16.2308 17.2559V17.7886H11.2658L11.2644 17.79Z" fill="url(#paint70_linear_6561_5134)"/>
<path d="M6.73404 18.8123H5.41919V18.6679H6.73404V18.8123Z" fill="#231F20"/>
<path d="M6.73404 16.8438H5.41919V16.698L6.77329 16.5409L6.73404 16.8438Z" fill="#231F20"/>
<path d="M8.0405 3.17676H3.14136V3.03236H8.0405V3.17676Z" fill="#231F20"/>
<path d="M8.04048 5.06508H5.41919V5.12256L8.04048 5.5249V5.06508Z" fill="#231F20"/>
<path d="M2.28916 7.21829V14.6091C2.28916 15.1769 2.50503 15.6956 2.85828 16.0909V20.9863H1.31494V3.59859H2.85828V5.73649C2.50644 6.13182 2.28916 6.65052 2.28916 7.21829Z" fill="#231F20"/>
<path d="M2.2962 14.5684C2.2962 14.5684 2.28639 14.5698 2.28078 14.5698C2.17425 14.5698 2.08594 14.4815 2.08594 14.375V12.4866C2.08594 12.3801 2.17425 12.2917 2.28078 12.2917C2.28639 12.2917 2.29059 12.2917 2.2962 12.2931V14.567V14.5684Z" fill="white"/>
<path d="M2.2962 9.97589C2.2962 9.97589 2.28639 9.97729 2.28078 9.97729C2.17425 9.97729 2.08594 9.88898 2.08594 9.78243V7.89407C2.08594 7.78753 2.17425 7.69921 2.28078 7.69921C2.28639 7.69921 2.29059 7.69921 2.2962 7.70061V9.97449V9.97589Z" fill="white"/>
<path d="M2.99973 11.5798H2.85815V10.6448H2.99973V11.5798Z" fill="#231F20"/>
<path opacity="0.5" d="M5.50749 5.3862L5.49207 5.48854L12.5878 6.56099L12.6032 6.45865L5.50749 5.3862ZM12.5611 6.73763L5.46543 5.66518L5.48085 5.56284L12.5766 6.63529L12.5611 6.73763ZM12.5331 6.91567L5.4374 5.84322L5.45282 5.74088L12.5485 6.81333L12.5331 6.91567ZM12.5037 7.11334L5.40796 6.04089L5.42338 5.93855L12.5191 7.011L12.5037 7.11334ZM12.4672 7.35166L5.37152 6.27921L5.38694 6.17687L12.4826 7.24932L12.4672 7.35166ZM12.4224 7.64746L5.32666 6.57501L5.34208 6.47267L12.4378 7.54512L12.4224 7.64746Z" fill="url(#paint71_linear_6561_5134)"/>
<path opacity="0.7" d="M17.7576 16.2002V15.0843L19.2603 14.8824L21.4933 14.6076V7.52806L19.2603 7.25469L17.7576 7.02337V6.10092H21.4933V16.2002H17.7576Z" fill="#231F20"/>
<path opacity="0.1" d="M31.2031 19.1094H23.7555C23.3832 19.1094 23.0813 18.8075 23.0813 18.4351V12.9761C23.0813 12.6037 23.3832 12.3018 23.7555 12.3018H31.2031C31.5755 12.3018 31.8773 12.6037 31.8773 12.9761V18.4351C31.8773 18.8075 31.5755 19.1094 31.2031 19.1094Z" fill="url(#paint72_linear_6561_5134)"/>
<path opacity="0.1" d="M31.0911 15.1265H23.8678C23.6658 15.1265 23.502 14.9626 23.502 14.7606V13.1484C23.502 12.9463 23.6658 12.7825 23.8678 12.7825H31.0911C31.2931 12.7825 31.4569 12.9463 31.4569 13.1484V14.7606C31.4569 14.9626 31.2931 15.1265 31.0911 15.1265Z" fill="url(#paint73_linear_6561_5134)"/>
<path opacity="0.1" d="M31.2031 9.89038H23.7555C23.3832 9.89038 23.0813 9.58848 23.0813 9.21607V3.75708C23.0813 3.38466 23.3832 3.08276 23.7555 3.08276H31.2031C31.5755 3.08276 31.8773 3.38466 31.8773 3.75708V9.21607C31.8773 9.58848 31.5755 9.89038 31.2031 9.89038Z" fill="url(#paint74_linear_6561_5134)"/>
<path opacity="0.1" d="M31.0911 9.48804H23.8678C23.6658 9.48804 23.502 9.32422 23.502 9.12214V7.50996C23.502 7.30788 23.6658 7.14406 23.8678 7.14406H31.0911C31.2931 7.14406 31.4569 7.30788 31.4569 7.50996V9.12214C31.4569 9.32422 31.2931 9.48804 31.0911 9.48804Z" fill="url(#paint75_linear_6561_5134)"/>
<path opacity="0.3" d="M34.9585 15.5891C34.9585 15.5891 35.3861 15.5807 35.5613 15.5358C35.7365 15.491 36.1781 13.4036 36.1781 13.4036L35.9061 13.1316L36.5117 11.054L35.9103 9.03944L36.2145 8.73523L35.6945 6.7193L34.9431 6.65482L36.1038 10.8395V11.1213L34.9585 15.5877V15.5891Z" fill="#231F20"/>
<path opacity="0.25" d="M32.0624 1.11874H23.4962C23.1542 1.11874 22.8206 1.25052 22.5809 1.47902L22.0889 1.94726C21.8478 2.17717 21.7146 2.48138 21.7146 2.80382V19.0644C21.7146 19.3869 21.8478 19.6911 22.0889 19.921L22.5809 20.3892C22.822 20.6177 23.1556 20.7495 23.4962 20.7495H32.1325C32.6343 20.7495 33.0927 20.4719 33.3029 20.043L33.7893 19.0504C33.8258 18.9761 33.8538 18.899 33.8734 18.8191L35.7714 11.225C35.8191 11.0344 35.8177 10.8325 35.7658 10.6432L33.7066 3.06457C33.6968 3.02672 33.6842 2.98887 33.6702 2.95242L33.2749 1.92203C33.0913 1.44258 32.6034 1.12014 32.0624 1.12014V1.11874ZM23.4976 20.4705C23.2271 20.4705 22.9622 20.3668 22.7729 20.1874L22.2809 19.7191C22.0959 19.5425 21.9935 19.3098 21.9935 19.063V2.80382C21.9935 2.55709 22.0959 2.32437 22.2809 2.14773L22.7729 1.6795C22.9622 1.49865 23.2271 1.39631 23.4976 1.39631H32.0638C32.4899 1.39631 32.874 1.64725 33.017 2.02016L33.4123 3.05055C33.4235 3.07859 33.4319 3.10803 33.4403 3.13607L35.4995 10.7147C35.5387 10.8591 35.5401 11.0119 35.5037 11.1563L33.6057 18.7504C33.5903 18.8107 33.5693 18.8696 33.5412 18.927L33.0548 19.9196C32.8908 20.2546 32.5292 20.4705 32.1339 20.4705H23.4976Z" fill="url(#paint76_linear_6561_5134)"/>
<path opacity="0.5" d="M7.06211 16.1499L5.47392 16.3784L5.4585 16.2747L7.22471 16.0209C7.16724 16.0616 7.11257 16.1036 7.0607 16.1499H7.06211Z" fill="url(#paint77_linear_6561_5134)"/>
<path opacity="0.5" d="M5.34339 15.4665L5.32861 15.3638L12.431 14.3415L12.4458 14.4441L5.34339 15.4665Z" fill="url(#paint78_linear_6561_5134)"/>
<path opacity="0.5" d="M7.38435 15.9212L5.44852 16.2002L5.43311 16.0965L7.73059 15.7656C7.60863 15.8063 7.49369 15.8581 7.38295 15.9212H7.38435Z" fill="url(#paint79_linear_6561_5134)"/>
<path opacity="0.5" d="M6.85316 16.3588L5.49906 16.5537L5.48364 16.45L6.9639 16.2369C6.92465 16.2761 6.8882 16.3168 6.85316 16.3574V16.3588Z" fill="url(#paint80_linear_6561_5134)"/>
<path opacity="0.5" d="M9.45487 15.9844C9.40862 15.9549 9.36236 15.9255 9.3147 15.8989L12.5878 15.4278L12.6032 15.5316L9.45487 15.9844Z" fill="url(#paint81_linear_6561_5134)"/>
<path opacity="0.5" d="M8.43848 15.6649L12.5372 15.0747L12.5526 15.1784L8.82116 15.7153C8.6978 15.6859 8.57024 15.6691 8.43848 15.6649Z" fill="url(#paint82_linear_6561_5134)"/>
<path opacity="0.5" d="M5.38611 15.7619L5.37134 15.6592L12.4738 14.6369L12.4885 14.7396L5.38611 15.7619Z" fill="url(#paint83_linear_6561_5134)"/>
<path opacity="0.5" d="M9.00073 15.7659L12.5626 15.2528L12.578 15.3566L9.19558 15.843C9.1325 15.8136 9.06802 15.7883 9.00073 15.7659Z" fill="url(#paint84_linear_6561_5134)"/>
<path opacity="0.5" d="M5.42005 16.0001L5.40527 15.8975L12.5077 14.8752L12.5225 14.9778L5.42005 16.0001Z" fill="url(#paint85_linear_6561_5134)"/>
<path d="M13.953 18.8611H18.426V20.1929H13.953V18.8611Z" fill="url(#paint86_linear_6561_5134)"/>
</g>
<defs>
<linearGradient id="paint0_linear_6561_5134" x1="57.5771" y1="8.48425" x2="57.5771" y2="13.5437" gradientUnits="userSpaceOnUse">
<stop stop-color="#231F20"/>
<stop offset="0.53" stop-color="white"/>
<stop offset="1"/>
</linearGradient>
<linearGradient id="paint1_linear_6561_5134" x1="73.5628" y1="9.59877" x2="73.5628" y2="12.2554" gradientUnits="userSpaceOnUse">
<stop stop-color="#231F20"/>
<stop offset="0.53" stop-color="white"/>
<stop offset="1"/>
</linearGradient>
<linearGradient id="paint2_linear_6561_5134" x1="98.3937" y1="10.4231" x2="98.3937" y2="11.4409" gradientUnits="userSpaceOnUse">
<stop stop-color="#231F20"/>
<stop offset="0.53" stop-color="white"/>
<stop offset="1"/>
</linearGradient>
<linearGradient id="paint3_linear_6561_5134" x1="96.2698" y1="9.93095" x2="96.2698" y2="11.9329" gradientUnits="userSpaceOnUse">
<stop stop-color="#231F20"/>
<stop offset="0.53" stop-color="white"/>
<stop offset="1"/>
</linearGradient>
<linearGradient id="paint4_linear_6561_5134" x1="93.3305" y1="9.50067" x2="93.3305" y2="12.3647" gradientUnits="userSpaceOnUse">
<stop stop-color="#231F20"/>
<stop offset="0.53" stop-color="white"/>
<stop offset="1"/>
</linearGradient>
<linearGradient id="paint5_linear_6561_5134" x1="92.558" y1="9.72083" x2="92.558" y2="12.1433" gradientUnits="userSpaceOnUse">
<stop stop-color="#231F20"/>
<stop offset="0.53" stop-color="white"/>
<stop offset="1"/>
</linearGradient>
<linearGradient id="paint6_linear_6561_5134" x1="89.3592" y1="9.50067" x2="89.3592" y2="12.3647" gradientUnits="userSpaceOnUse">
<stop stop-color="#231F20"/>
<stop offset="0.53" stop-color="white"/>
<stop offset="1"/>
</linearGradient>
<linearGradient id="paint7_linear_6561_5134" x1="86.7267" y1="9.50067" x2="86.7267" y2="12.3647" gradientUnits="userSpaceOnUse">
<stop stop-color="#231F20"/>
<stop offset="0.53" stop-color="white"/>
<stop offset="1"/>
</linearGradient>
<linearGradient id="paint8_linear_6561_5134" x1="90.1317" y1="9.7207" x2="90.1317" y2="12.1432" gradientUnits="userSpaceOnUse">
<stop stop-color="#231F20"/>
<stop offset="0.53" stop-color="white"/>
<stop offset="1"/>
</linearGradient>
<linearGradient id="paint9_linear_6561_5134" x1="87.8145" y1="8.33441" x2="87.8145" y2="13.5312" gradientUnits="userSpaceOnUse">
<stop stop-color="#231F20"/>
<stop offset="0.53" stop-color="white"/>
<stop offset="1"/>
</linearGradient>
<linearGradient id="paint10_linear_6561_5134" x1="88.5868" y1="8.73535" x2="88.5868" y2="13.1289" gradientUnits="userSpaceOnUse">
<stop stop-color="#231F20"/>
<stop offset="0.53" stop-color="white"/>
<stop offset="1"/>
</linearGradient>
<linearGradient id="paint11_linear_6561_5134" x1="94.7993" y1="10.3251" x2="94.7993" y2="11.5405" gradientUnits="userSpaceOnUse">
<stop stop-color="#231F20"/>
<stop offset="0.53" stop-color="white"/>
<stop offset="1"/>
</linearGradient>
<linearGradient id="paint12_linear_6561_5134" x1="91.3456" y1="10.0629" x2="91.3456" y2="11.8013" gradientUnits="userSpaceOnUse">
<stop stop-color="#231F20"/>
<stop offset="0.53" stop-color="white"/>
<stop offset="1"/>
</linearGradient>
<linearGradient id="paint13_linear_6561_5134" x1="40.8823" y1="10.9558" x2="75.3081" y2="10.9558" gradientUnits="userSpaceOnUse">
<stop stop-color="#4F4F51"/>
<stop offset="0.35" stop-color="white"/>
<stop offset="0.64" stop-color="white"/>
<stop offset="1"/>
</linearGradient>
<linearGradient id="paint14_linear_6561_5134" x1="57.521" y1="9.09973" x2="57.521" y2="12.8162" gradientUnits="userSpaceOnUse">
<stop stop-color="#231F20"/>
<stop offset="0.53" stop-color="white"/>
<stop offset="1"/>
</linearGradient>
<linearGradient id="paint15_linear_6561_5134" x1="78.797" y1="16.8732" x2="78.797" y2="17.9597" gradientUnits="userSpaceOnUse">
<stop stop-color="#4F4F51"/>
<stop offset="0.08" stop-color="white"/>
<stop offset="0.62" stop-color="white"/>
<stop offset="1" stop-color="#4D4D4F"/>
</linearGradient>
<linearGradient id="paint16_linear_6561_5134" x1="80.4651" y1="14.6751" x2="80.4651" y2="16.4807" gradientUnits="userSpaceOnUse">
<stop stop-color="#4F4F51"/>
<stop offset="0.08" stop-color="white"/>
<stop offset="0.62" stop-color="white"/>
<stop offset="1" stop-color="#4D4D4F"/>
</linearGradient>
<linearGradient id="paint17_linear_6561_5134" x1="79.889" y1="13.3925" x2="79.889" y2="14.2827" gradientUnits="userSpaceOnUse">
<stop stop-color="#4F4F51"/>
<stop offset="0.08" stop-color="white"/>
<stop offset="0.62" stop-color="white"/>
<stop offset="1" stop-color="#4D4D4F"/>
</linearGradient>
<linearGradient id="paint18_linear_6561_5134" x1="-34.9236" y1="4.98096" x2="-34.7834" y2="3.89449" gradientUnits="userSpaceOnUse">
<stop stop-color="#4F4F51"/>
<stop offset="0.08" stop-color="white"/>
<stop offset="0.62" stop-color="white"/>
<stop offset="1" stop-color="#4D4D4F"/>
</linearGradient>
<linearGradient id="paint19_linear_6561_5134" x1="80.4651" y1="7.1792" x2="80.4651" y2="5.37356" gradientUnits="userSpaceOnUse">
<stop stop-color="#4F4F51"/>
<stop offset="0.08" stop-color="white"/>
<stop offset="0.62" stop-color="white"/>
<stop offset="1" stop-color="#4D4D4F"/>
</linearGradient>
<linearGradient id="paint20_linear_6561_5134" x1="79.889" y1="8.46191" x2="79.889" y2="7.57171" gradientUnits="userSpaceOnUse">
<stop stop-color="#4F4F51"/>
<stop offset="0.08" stop-color="white"/>
<stop offset="0.62" stop-color="white"/>
<stop offset="1" stop-color="#4D4D4F"/>
</linearGradient>
<linearGradient id="paint21_linear_6561_5134" x1="77.7568" y1="16.4414" x2="78.2545" y2="16.4414" gradientUnits="userSpaceOnUse">
<stop stop-color="#231F20"/>
<stop offset="0.53" stop-color="#58595B"/>
<stop offset="1"/>
</linearGradient>
<linearGradient id="paint22_linear_6561_5134" x1="78.5686" y1="22" x2="79.0662" y2="22" gradientUnits="userSpaceOnUse">
<stop stop-color="#231F20"/>
<stop offset="0.53" stop-color="#58595B"/>
<stop offset="1"/>
</linearGradient>
<linearGradient id="paint23_linear_6561_5134" x1="79.3381" y1="22" x2="79.8358" y2="22" gradientUnits="userSpaceOnUse">
<stop stop-color="#231F20"/>
<stop offset="0.53" stop-color="#58595B"/>
<stop offset="1"/>
</linearGradient>
<linearGradient id="paint24_linear_6561_5134" x1="-34.9231" y1="5.41282" x2="-34.7829" y2="5.41282" gradientUnits="userSpaceOnUse">
<stop stop-color="#231F20"/>
<stop offset="0.53" stop-color="#58595B"/>
<stop offset="1"/>
</linearGradient>
<linearGradient id="paint25_linear_6561_5134" x1="78.5686" y1="5.41282" x2="79.0662" y2="5.41282" gradientUnits="userSpaceOnUse">
<stop stop-color="#231F20"/>
<stop offset="0.53" stop-color="#58595B"/>
<stop offset="1"/>
</linearGradient>
<linearGradient id="paint26_linear_6561_5134" x1="79.3381" y1="5.41282" x2="79.8358" y2="5.41282" gradientUnits="userSpaceOnUse">
<stop stop-color="#231F20"/>
<stop offset="0.53" stop-color="#58595B"/>
<stop offset="1"/>
</linearGradient>
<linearGradient id="paint27_linear_6561_5134" x1="38.5904" y1="7.47502" x2="38.5904" y2="14.5798" gradientUnits="userSpaceOnUse">
<stop stop-color="#231F20"/>
<stop offset="0.53" stop-color="white"/>
<stop offset="1"/>
</linearGradient>
<linearGradient id="paint28_linear_6561_5134" x1="39.5128" y1="6.6337" x2="39.5128" y2="15.4348" gradientUnits="userSpaceOnUse">
<stop stop-color="#231F20"/>
<stop offset="0.53" stop-color="white"/>
<stop offset="1"/>
</linearGradient>
<linearGradient id="paint29_linear_6561_5134" x1="40.1743" y1="7.48903" x2="40.1743" y2="14.5798" gradientUnits="userSpaceOnUse">
<stop stop-color="#231F20"/>
<stop offset="0.53" stop-color="white"/>
<stop offset="1"/>
</linearGradient>
<linearGradient id="paint30_linear_6561_5134" x1="40.742" y1="10.9557" x2="75.4481" y2="10.9557" gradientUnits="userSpaceOnUse">
<stop stop-color="#4F4F51"/>
<stop offset="0.08" stop-color="white"/>
<stop offset="0.62" stop-color="white"/>
<stop offset="1" stop-color="#4D4D4F"/>
</linearGradient>
<linearGradient id="paint31_linear_6561_5134" x1="58.6191" y1="9.23999" x2="58.6191" y2="12.6144" gradientUnits="userSpaceOnUse">
<stop stop-color="#231F20"/>
<stop offset="0.53" stop-color="white"/>
<stop offset="1"/>
</linearGradient>
<radialGradient id="paint32_radial_6561_5134" cx="0" cy="0" r="1" gradientUnits="userSpaceOnUse" gradientTransform="translate(49.1764 16.3461) scale(1.56997 1.57013)">
<stop offset="0.08" stop-color="white"/>
<stop offset="0.69" stop-color="white"/>
<stop offset="1" stop-color="#4D4D4F"/>
</radialGradient>
<radialGradient id="paint33_radial_6561_5134" cx="0" cy="0" r="1" gradientUnits="userSpaceOnUse" gradientTransform="translate(71.2851 21.9299) scale(0.0700879 0.0700949)">
<stop offset="0.08" stop-color="white"/>
<stop offset="0.69" stop-color="white"/>
<stop offset="1" stop-color="#4D4D4F"/>
</radialGradient>
<radialGradient id="paint34_radial_6561_5134" cx="0" cy="0" r="1" gradientUnits="userSpaceOnUse" gradientTransform="translate(-34.8533 5.56562) scale(1.56997 1.57013)">
<stop offset="0.08" stop-color="white"/>
<stop offset="0.69" stop-color="white"/>
<stop offset="1" stop-color="#4D4D4F"/>
</radialGradient>
<radialGradient id="paint35_radial_6561_5134" cx="0" cy="0" r="1" gradientUnits="userSpaceOnUse" gradientTransform="translate(71.2851 5.56562) scale(1.56997 1.57013)">
<stop offset="0.08" stop-color="white"/>
<stop offset="0.69" stop-color="white"/>
<stop offset="1" stop-color="#4D4D4F"/>
</radialGradient>
<radialGradient id="paint36_radial_6561_5134" cx="0" cy="0" r="1" gradientUnits="userSpaceOnUse" gradientTransform="translate(49.1765 16.3462) scale(2.12647 2.12668)">
<stop stop-color="white"/>
<stop offset="0.41" stop-color="white"/>
<stop offset="1" stop-color="#434345"/>
</radialGradient>
<radialGradient id="paint37_radial_6561_5134" cx="0" cy="0" r="1" gradientUnits="userSpaceOnUse" gradientTransform="translate(71.2849 21.93) scale(2.12647 2.12668)">
<stop stop-color="white"/>
<stop offset="0.41" stop-color="white"/>
<stop offset="1" stop-color="#434345"/>
</radialGradient>
<radialGradient id="paint38_radial_6561_5134" cx="0" cy="0" r="1" gradientUnits="userSpaceOnUse" gradientTransform="translate(71.2849 5.56552) scale(2.12647 2.12668)">
<stop stop-color="white"/>
<stop offset="0.41" stop-color="white"/>
<stop offset="1" stop-color="#434345"/>
</radialGradient>
<radialGradient id="paint39_radial_6561_5134" cx="0" cy="0" r="1" gradientUnits="userSpaceOnUse" gradientTransform="translate(49.1765 5.56552) scale(2.12647 2.12668)">
<stop stop-color="white"/>
<stop offset="0.41" stop-color="white"/>
<stop offset="1" stop-color="#434345"/>
</radialGradient>
<linearGradient id="paint40_linear_6561_5134" x1="11.2646" y1="2.5403" x2="20.7545" y2="2.5403" gradientUnits="userSpaceOnUse">
<stop stop-color="#020202"/>
<stop offset="0.08" stop-color="#6D6E71"/>
<stop offset="0.23" stop-color="#4E4D4F"/>
<stop offset="0.24" stop-color="#777678"/>
<stop offset="0.25" stop-color="#9B9A9C"/>
<stop offset="0.26" stop-color="#B8B8B9"/>
<stop offset="0.27" stop-color="#CECECF"/>
<stop offset="0.29" stop-color="#DEDEDF"/>
<stop offset="0.3" stop-color="#E8E8E9"/>
<stop offset="0.32" stop-color="#EBEBEC"/>
<stop offset="0.51" stop-color="#EBEBEB"/>
<stop offset="0.59" stop-color="#E7E7E7"/>
<stop offset="0.66" stop-color="#DDDDDD"/>
<stop offset="0.72" stop-color="#CBCBCB"/>
<stop offset="0.78" stop-color="#B3B3B3"/>
<stop offset="0.83" stop-color="#939393"/>
<stop offset="0.89" stop-color="#6C6C6C"/>
<stop offset="0.94" stop-color="#3E3E3E"/>
<stop offset="0.99" stop-color="#0B0B0B"/>
<stop offset="1"/>
</linearGradient>
<linearGradient id="paint41_linear_6561_5134" x1="61.7391" y1="19.6168" x2="61.8793" y2="19.6168" gradientUnits="userSpaceOnUse">
<stop stop-color="#020202"/>
<stop offset="0.08" stop-color="#6D6E71"/>
<stop offset="0.23" stop-color="#4E4D4F"/>
<stop offset="0.24" stop-color="#777678"/>
<stop offset="0.25" stop-color="#9B9A9C"/>
<stop offset="0.26" stop-color="#B8B8B9"/>
<stop offset="0.27" stop-color="#CECECF"/>
<stop offset="0.29" stop-color="#DEDEDF"/>
<stop offset="0.3" stop-color="#E8E8E9"/>
<stop offset="0.32" stop-color="#EBEBEC"/>
<stop offset="0.51" stop-color="#EBEBEB"/>
<stop offset="0.59" stop-color="#E7E7E7"/>
<stop offset="0.66" stop-color="#DDDDDD"/>
<stop offset="0.72" stop-color="#CBCBCB"/>
<stop offset="0.78" stop-color="#B3B3B3"/>
<stop offset="0.83" stop-color="#939393"/>
<stop offset="0.89" stop-color="#6C6C6C"/>
<stop offset="0.94" stop-color="#3E3E3E"/>
<stop offset="0.99" stop-color="#0B0B0B"/>
<stop offset="1"/>
</linearGradient>
<linearGradient id="paint42_linear_6561_5134" x1="12.5472" y1="0.985456" x2="12.5472" y2="4.86591" gradientUnits="userSpaceOnUse">
<stop stop-color="#020202"/>
<stop offset="0.08" stop-color="#6D6E71"/>
<stop offset="0.25" stop-color="#414042"/>
<stop offset="0.26" stop-color="#525254"/>
<stop offset="0.28" stop-color="#616164"/>
<stop offset="0.3" stop-color="#6A6B6E"/>
<stop offset="0.32" stop-color="#6D6E71"/>
<stop offset="0.51" stop-color="#3B3B3B"/>
<stop offset="0.56" stop-color="#3E3E3E"/>
<stop offset="0.61" stop-color="#474748"/>
<stop offset="0.65" stop-color="#575859"/>
<stop offset="0.68" stop-color="#6D6E71"/>
<stop offset="0.77" stop-color="#414042"/>
<stop offset="0.92" stop-color="#6B6C6F"/>
<stop offset="1"/>
</linearGradient>
<linearGradient id="paint43_linear_6561_5134" x1="21.4568" y1="10.9333" x2="36.1206" y2="10.9333" gradientUnits="userSpaceOnUse">
<stop stop-color="#4F4F51"/>
<stop offset="0.08" stop-color="white"/>
<stop offset="0.69" stop-color="white"/>
<stop offset="1" stop-color="#4D4D4F"/>
</linearGradient>
<linearGradient id="paint44_linear_6561_5134" x1="11.8729" y1="4.98509" x2="11.8729" y2="16.7582" gradientUnits="userSpaceOnUse">
<stop stop-color="#020202"/>
<stop offset="0.19" stop-color="#4F4F51"/>
<stop offset="0.34" stop-color="white"/>
<stop offset="0.69" stop-color="white"/>
<stop offset="0.82" stop-color="#4D4D4F"/>
<stop offset="1"/>
</linearGradient>
<radialGradient id="paint45_radial_6561_5134" cx="0" cy="0" r="1" gradientUnits="userSpaceOnUse" gradientTransform="translate(13.3841 11.0805) scale(5.5846 5.58516)">
<stop stop-color="white"/>
<stop offset="0.21" stop-color="#F9F9F9"/>
<stop offset="0.47" stop-color="#E9EAEB"/>
<stop offset="0.76" stop-color="#D0D1D2"/>
<stop offset="1" stop-color="#B6B8BA"/>
</radialGradient>
<radialGradient id="paint46_radial_6561_5134" cx="0" cy="0" r="1" gradientUnits="userSpaceOnUse" gradientTransform="translate(9.6343 11.1226) scale(2.67876 2.67903)">
<stop stop-color="white"/>
<stop offset="0.21" stop-color="#F9F9F9"/>
<stop offset="0.47" stop-color="#E9EAEB"/>
<stop offset="0.76" stop-color="#D0D1D2"/>
<stop offset="1" stop-color="#B6B8BA"/>
</radialGradient>
<radialGradient id="paint47_radial_6561_5134" cx="0" cy="0" r="1" gradientUnits="userSpaceOnUse" gradientTransform="translate(18.8704 11.1507) scale(1.14944 1.14956)">
<stop stop-color="#4F4F51"/>
<stop offset="0.64" stop-color="#4D4D4F"/>
<stop offset="1"/>
</radialGradient>
<linearGradient id="paint48_linear_6561_5134" x1="0" y1="2.24019" x2="3.65859" y2="2.24019" gradientUnits="userSpaceOnUse">
<stop stop-color="#020202"/>
<stop offset="0.08" stop-color="#6D6E71"/>
<stop offset="0.23" stop-color="#4E4D4F"/>
<stop offset="0.24" stop-color="#777678"/>
<stop offset="0.25" stop-color="#9B9A9C"/>
<stop offset="0.26" stop-color="#B8B8B9"/>
<stop offset="0.27" stop-color="#CECECF"/>
<stop offset="0.29" stop-color="#DEDEDF"/>
<stop offset="0.3" stop-color="#E8E8E9"/>
<stop offset="0.32" stop-color="#EBEBEC"/>
<stop offset="1"/>
</linearGradient>
<linearGradient id="paint49_linear_6561_5134" x1="0.290283" y1="11.0793" x2="1.31497" y2="11.0793" gradientUnits="userSpaceOnUse">
<stop stop-color="#020202"/>
<stop offset="0.19" stop-color="#4F4F51"/>
<stop offset="0.34" stop-color="white"/>
<stop offset="0.69" stop-color="white"/>
<stop offset="0.82" stop-color="#4D4D4F"/>
<stop offset="1"/>
</linearGradient>
<linearGradient id="paint50_linear_6561_5134" x1="2.85815" y1="17.7551" x2="6.77326" y2="17.7551" gradientUnits="userSpaceOnUse">
<stop stop-color="#020202"/>
<stop offset="0.08" stop-color="#6D6E71"/>
<stop offset="0.23" stop-color="#4E4D4F"/>
<stop offset="0.24" stop-color="#777678"/>
<stop offset="0.25" stop-color="#9B9A9C"/>
<stop offset="0.26" stop-color="#B8B8B9"/>
<stop offset="0.27" stop-color="#CECECF"/>
<stop offset="0.29" stop-color="#DEDEDF"/>
<stop offset="0.3" stop-color="#E8E8E9"/>
<stop offset="0.32" stop-color="#EBEBEC"/>
<stop offset="1"/>
</linearGradient>
<linearGradient id="paint51_linear_6561_5134" x1="4.3103" y1="19.5004" x2="8.55623" y2="19.5004" gradientUnits="userSpaceOnUse">
<stop stop-color="#020202"/>
<stop offset="0.08" stop-color="#6D6E71"/>
<stop offset="0.23" stop-color="#4E4D4F"/>
<stop offset="0.24" stop-color="#777678"/>
<stop offset="0.25" stop-color="#9B9A9C"/>
<stop offset="0.26" stop-color="#B8B8B9"/>
<stop offset="0.27" stop-color="#CECECF"/>
<stop offset="0.29" stop-color="#DEDEDF"/>
<stop offset="0.3" stop-color="#E8E8E9"/>
<stop offset="0.32" stop-color="#EBEBEC"/>
<stop offset="1"/>
</linearGradient>
<linearGradient id="paint52_linear_6561_5134" x1="2.85815" y1="4.12146" x2="8.04045" y2="4.12146" gradientUnits="userSpaceOnUse">
<stop stop-color="#020202"/>
<stop offset="0.08" stop-color="#6D6E71"/>
<stop offset="0.23" stop-color="#4E4D4F"/>
<stop offset="0.24" stop-color="#777678"/>
<stop offset="0.25" stop-color="#9B9A9C"/>
<stop offset="0.26" stop-color="#B8B8B9"/>
<stop offset="0.27" stop-color="#CECECF"/>
<stop offset="0.29" stop-color="#DEDEDF"/>
<stop offset="0.3" stop-color="#E8E8E9"/>
<stop offset="0.32" stop-color="#EBEBEC"/>
<stop offset="1"/>
</linearGradient>
<linearGradient id="paint53_linear_6561_5134" x1="3.65869" y1="2.41679" x2="8.04058" y2="2.41679" gradientUnits="userSpaceOnUse">
<stop stop-color="#020202"/>
<stop offset="0.08" stop-color="#6D6E71"/>
<stop offset="0.23" stop-color="#4E4D4F"/>
<stop offset="0.24" stop-color="#777678"/>
<stop offset="0.25" stop-color="#9B9A9C"/>
<stop offset="0.26" stop-color="#B8B8B9"/>
<stop offset="0.27" stop-color="#CECECF"/>
<stop offset="0.29" stop-color="#DEDEDF"/>
<stop offset="0.3" stop-color="#E8E8E9"/>
<stop offset="0.32" stop-color="#EBEBEC"/>
<stop offset="1"/>
</linearGradient>
<linearGradient id="paint54_linear_6561_5134" x1="13.1484" y1="5.86977" x2="16.2449" y2="5.86977" gradientUnits="userSpaceOnUse">
<stop stop-color="#020202"/>
<stop offset="0.53" stop-color="#6D6E71"/>
<stop offset="1"/>
</linearGradient>
<radialGradient id="paint55_radial_6561_5134" cx="0" cy="0" r="1" gradientUnits="userSpaceOnUse" gradientTransform="translate(8.36714 17.6527) scale(1.9919 1.9921)">
<stop stop-color="#4F4F51"/>
<stop offset="0.64" stop-color="#4D4D4F"/>
<stop offset="1"/>
</radialGradient>
<radialGradient id="paint56_radial_6561_5134" cx="0" cy="0" r="1" gradientUnits="userSpaceOnUse" gradientTransform="translate(8.36707 19.2804) scale(0.246709 0.246734)">
<stop stop-color="#616264"/>
<stop offset="0.51" stop-color="#5F6062"/>
<stop offset="0.69" stop-color="#58595B"/>
<stop offset="0.82" stop-color="#4D4D4F"/>
<stop offset="0.91" stop-color="#414042"/>
</radialGradient>
<linearGradient id="paint57_linear_6561_5134" x1="8.36722" y1="19.4626" x2="8.36722" y2="19.2481" gradientUnits="userSpaceOnUse">
<stop stop-color="white"/>
<stop offset="1" stop-color="#231F20"/>
</linearGradient>
<radialGradient id="paint58_radial_6561_5134" cx="0" cy="0" r="1" gradientUnits="userSpaceOnUse" gradientTransform="translate(61.8091 16.0377) scale(0.0700879 0.0700949)">
<stop stop-color="#616264"/>
<stop offset="0.51" stop-color="#5F6062"/>
<stop offset="0.69" stop-color="#58595B"/>
<stop offset="0.82" stop-color="#4D4D4F"/>
<stop offset="0.91" stop-color="#414042"/>
</radialGradient>
<linearGradient id="paint59_linear_6561_5134" x1="61.7391" y1="16.2199" x2="61.8793" y2="16.0054" gradientUnits="userSpaceOnUse">
<stop stop-color="white"/>
<stop offset="1" stop-color="#231F20"/>
</linearGradient>
<radialGradient id="paint60_radial_6561_5134" cx="0" cy="0" r="1" gradientUnits="userSpaceOnUse" gradientTransform="translate(9.98475 17.6849) scale(0.246709 0.246734)">
<stop stop-color="#616264"/>
<stop offset="0.51" stop-color="#5F6062"/>
<stop offset="0.69" stop-color="#58595B"/>
<stop offset="0.82" stop-color="#4D4D4F"/>
<stop offset="0.91" stop-color="#414042"/>
</radialGradient>
<linearGradient id="paint61_linear_6561_5134" x1="9.98465" y1="17.8671" x2="9.98465" y2="17.6526" gradientUnits="userSpaceOnUse">
<stop stop-color="white"/>
<stop offset="1" stop-color="#231F20"/>
</linearGradient>
<radialGradient id="paint62_radial_6561_5134" cx="0" cy="0" r="1" gradientUnits="userSpaceOnUse" gradientTransform="translate(6.73401 17.6849) scale(0.246709 0.246734)">
<stop stop-color="#616264"/>
<stop offset="0.51" stop-color="#5F6062"/>
<stop offset="0.69" stop-color="#58595B"/>
<stop offset="0.82" stop-color="#4D4D4F"/>
<stop offset="0.91" stop-color="#414042"/>
</radialGradient>
<linearGradient id="paint63_linear_6561_5134" x1="6.73416" y1="17.8671" x2="6.73416" y2="17.6526" gradientUnits="userSpaceOnUse">
<stop stop-color="white"/>
<stop offset="1" stop-color="#231F20"/>
</linearGradient>
<radialGradient id="paint64_radial_6561_5134" cx="0" cy="0" r="1" gradientUnits="userSpaceOnUse" gradientTransform="translate(8.36714 17.7117) scale(0.451366 0.451411)">
<stop stop-color="#616264"/>
<stop offset="0.51" stop-color="#5F6062"/>
<stop offset="0.69" stop-color="#58595B"/>
<stop offset="0.82" stop-color="#4D4D4F"/>
<stop offset="0.91" stop-color="#414042"/>
</radialGradient>
<linearGradient id="paint65_linear_6561_5134" x1="8.3671" y1="18.0452" x2="8.3671" y2="17.6526" gradientUnits="userSpaceOnUse">
<stop stop-color="white"/>
<stop offset="1" stop-color="#231F20"/>
</linearGradient>
<linearGradient id="paint66_linear_6561_5134" x1="13.9406" y1="2.70008" x2="18.4136" y2="2.70008" gradientUnits="userSpaceOnUse">
<stop stop-color="#231F20"/>
<stop offset="1" stop-color="#7B7C7F"/>
</linearGradient>
<linearGradient id="paint67_linear_6561_5134" x1="11.4887" y1="2.54867" x2="20.6184" y2="2.54867" gradientUnits="userSpaceOnUse">
<stop stop-color="#020202"/>
<stop offset="0.08" stop-color="#6D6E71"/>
<stop offset="0.23" stop-color="#4E4D4F"/>
<stop offset="0.24" stop-color="#777678"/>
<stop offset="0.25" stop-color="#9B9A9C"/>
<stop offset="0.26" stop-color="#B8B8B9"/>
<stop offset="0.27" stop-color="#CECECF"/>
<stop offset="0.29" stop-color="#DEDEDF"/>
<stop offset="0.3" stop-color="#E8E8E9"/>
<stop offset="0.32" stop-color="#EBEBEC"/>
<stop offset="0.51" stop-color="#EBEBEB"/>
<stop offset="0.59" stop-color="#E7E7E7"/>
<stop offset="0.66" stop-color="#DDDDDD"/>
<stop offset="0.72" stop-color="#CBCBCB"/>
<stop offset="0.78" stop-color="#B3B3B3"/>
<stop offset="0.83" stop-color="#939393"/>
<stop offset="0.89" stop-color="#6C6C6C"/>
<stop offset="0.94" stop-color="#3E3E3E"/>
<stop offset="0.99" stop-color="#0B0B0B"/>
<stop offset="1"/>
</linearGradient>
<linearGradient id="paint68_linear_6561_5134" x1="13.1484" y1="16.2746" x2="61.8791" y2="16.2746" gradientUnits="userSpaceOnUse">
<stop stop-color="#020202"/>
<stop offset="0.53" stop-color="#6D6E71"/>
<stop offset="1"/>
</linearGradient>
<linearGradient id="paint69_linear_6561_5134" x1="11.4888" y1="19.6168" x2="20.6185" y2="19.6168" gradientUnits="userSpaceOnUse">
<stop stop-color="#020202"/>
<stop offset="0.08" stop-color="#6D6E71"/>
<stop offset="0.23" stop-color="#4E4D4F"/>
<stop offset="0.24" stop-color="#777678"/>
<stop offset="0.25" stop-color="#9B9A9C"/>
<stop offset="0.26" stop-color="#B8B8B9"/>
<stop offset="0.27" stop-color="#CECECF"/>
<stop offset="0.29" stop-color="#DEDEDF"/>
<stop offset="0.3" stop-color="#E8E8E9"/>
<stop offset="0.32" stop-color="#EBEBEC"/>
<stop offset="0.51" stop-color="#EBEBEB"/>
<stop offset="0.59" stop-color="#E7E7E7"/>
<stop offset="0.66" stop-color="#DDDDDD"/>
<stop offset="0.72" stop-color="#CBCBCB"/>
<stop offset="0.78" stop-color="#B3B3B3"/>
<stop offset="0.83" stop-color="#939393"/>
<stop offset="0.89" stop-color="#6C6C6C"/>
<stop offset="0.94" stop-color="#3E3E3E"/>
<stop offset="0.99" stop-color="#0B0B0B"/>
<stop offset="1"/>
</linearGradient>
<linearGradient id="paint70_linear_6561_5134" x1="12.5526" y1="17.2587" x2="12.5526" y2="21.1167" gradientUnits="userSpaceOnUse">
<stop stop-color="#020202"/>
<stop offset="0.08" stop-color="#6D6E71"/>
<stop offset="0.25" stop-color="#414042"/>
<stop offset="0.26" stop-color="#525254"/>
<stop offset="0.28" stop-color="#616164"/>
<stop offset="0.3" stop-color="#6A6B6E"/>
<stop offset="0.32" stop-color="#6D6E71"/>
<stop offset="0.51" stop-color="#3B3B3B"/>
<stop offset="0.56" stop-color="#3E3E3E"/>
<stop offset="0.61" stop-color="#474748"/>
<stop offset="0.65" stop-color="#575859"/>
<stop offset="0.68" stop-color="#6D6E71"/>
<stop offset="0.77" stop-color="#414042"/>
<stop offset="0.92" stop-color="#6B6C6F"/>
<stop offset="1"/>
</linearGradient>
<linearGradient id="paint71_linear_6561_5134" x1="8.96562" y1="2.91465" x2="8.96562" y2="4.73432" gradientUnits="userSpaceOnUse">
<stop stop-color="white"/>
<stop offset="0.18" stop-color="#D3D3D3"/>
<stop offset="0.58" stop-color="#757373"/>
<stop offset="0.87" stop-color="#3A3637"/>
<stop offset="1" stop-color="#231F20"/>
</linearGradient>
<linearGradient id="paint72_linear_6561_5134" x1="23.0813" y1="15.7056" x2="31.8773" y2="15.7056" gradientUnits="userSpaceOnUse">
<stop stop-color="#4F4F51"/>
<stop offset="0.08" stop-color="white"/>
<stop offset="0.9" stop-color="white"/>
<stop offset="1"/>
</linearGradient>
<linearGradient id="paint73_linear_6561_5134" x1="23.502" y1="13.9545" x2="31.4569" y2="13.9545" gradientUnits="userSpaceOnUse">
<stop stop-color="#4F4F51"/>
<stop offset="0.08" stop-color="white"/>
<stop offset="0.9" stop-color="white"/>
<stop offset="1"/>
</linearGradient>
<linearGradient id="paint74_linear_6561_5134" x1="61.739" y1="6.48657" x2="61.8791" y2="6.48657" gradientUnits="userSpaceOnUse">
<stop stop-color="#4F4F51"/>
<stop offset="0.08" stop-color="white"/>
<stop offset="0.9" stop-color="white"/>
<stop offset="1"/>
</linearGradient>
<linearGradient id="paint75_linear_6561_5134" x1="23.502" y1="8.31605" x2="31.4569" y2="8.31605" gradientUnits="userSpaceOnUse">
<stop stop-color="#4F4F51"/>
<stop offset="0.08" stop-color="white"/>
<stop offset="0.9" stop-color="white"/>
<stop offset="1"/>
</linearGradient>
<linearGradient id="paint76_linear_6561_5134" x1="21.7174" y1="10.9334" x2="35.8079" y2="10.9334" gradientUnits="userSpaceOnUse">
<stop stop-color="#4F4F51"/>
<stop offset="0.08" stop-color="white"/>
<stop offset="0.69" stop-color="white"/>
<stop offset="1" stop-color="#4D4D4F"/>
</linearGradient>
<linearGradient id="paint77_linear_6561_5134" x1="6.34301" y1="15.6312" x2="6.34301" y2="15.9186" gradientUnits="userSpaceOnUse">
<stop stop-color="white"/>
<stop offset="0.18" stop-color="#D3D3D3"/>
<stop offset="0.58" stop-color="#757373"/>
<stop offset="0.87" stop-color="#3A3637"/>
<stop offset="1" stop-color="#231F20"/>
</linearGradient>
<linearGradient id="paint78_linear_6561_5134" x1="8.8883" y1="13.1086" x2="8.8883" y2="14.0142" gradientUnits="userSpaceOnUse">
<stop stop-color="white"/>
<stop offset="0.18" stop-color="#D3D3D3"/>
<stop offset="0.58" stop-color="#757373"/>
<stop offset="0.87" stop-color="#3A3637"/>
<stop offset="1" stop-color="#231F20"/>
</linearGradient>
<linearGradient id="paint79_linear_6561_5134" x1="6.58255" y1="15.2918" x2="6.58255" y2="15.6408" gradientUnits="userSpaceOnUse">
<stop stop-color="white"/>
<stop offset="0.18" stop-color="#D3D3D3"/>
<stop offset="0.58" stop-color="#757373"/>
<stop offset="0.87" stop-color="#3A3637"/>
<stop offset="1" stop-color="#231F20"/>
</linearGradient>
<linearGradient id="paint80_linear_6561_5134" x1="6.22517" y1="15.892" x2="6.22517" y2="16.1472" gradientUnits="userSpaceOnUse">
<stop stop-color="white"/>
<stop offset="0.18" stop-color="#D3D3D3"/>
<stop offset="0.58" stop-color="#757373"/>
<stop offset="0.87" stop-color="#3A3637"/>
<stop offset="1" stop-color="#231F20"/>
</linearGradient>
<linearGradient id="paint81_linear_6561_5134" x1="10.959" y1="14.8208" x2="10.959" y2="15.2694" gradientUnits="userSpaceOnUse">
<stop stop-color="white"/>
<stop offset="0.18" stop-color="#D3D3D3"/>
<stop offset="0.58" stop-color="#757373"/>
<stop offset="0.87" stop-color="#3A3637"/>
<stop offset="1" stop-color="#231F20"/>
</linearGradient>
<linearGradient id="paint82_linear_6561_5134" x1="10.4949" y1="14.3751" x2="10.4949" y2="14.891" gradientUnits="userSpaceOnUse">
<stop stop-color="white"/>
<stop offset="0.18" stop-color="#D3D3D3"/>
<stop offset="0.58" stop-color="#757373"/>
<stop offset="0.87" stop-color="#3A3637"/>
<stop offset="1" stop-color="#231F20"/>
</linearGradient>
<linearGradient id="paint83_linear_6561_5134" x1="8.92936" y1="13.4058" x2="8.92936" y2="14.3114" gradientUnits="userSpaceOnUse">
<stop stop-color="white"/>
<stop offset="0.18" stop-color="#D3D3D3"/>
<stop offset="0.58" stop-color="#757373"/>
<stop offset="0.87" stop-color="#3A3637"/>
<stop offset="1" stop-color="#231F20"/>
</linearGradient>
<linearGradient id="paint84_linear_6561_5134" x1="10.7894" y1="14.6093" x2="10.7894" y2="15.0832" gradientUnits="userSpaceOnUse">
<stop stop-color="white"/>
<stop offset="0.18" stop-color="#D3D3D3"/>
<stop offset="0.58" stop-color="#757373"/>
<stop offset="0.87" stop-color="#3A3637"/>
<stop offset="1" stop-color="#231F20"/>
</linearGradient>
<linearGradient id="paint85_linear_6561_5134" x1="8.96379" y1="13.6424" x2="8.96379" y2="14.548" gradientUnits="userSpaceOnUse">
<stop stop-color="white"/>
<stop offset="0.18" stop-color="#D3D3D3"/>
<stop offset="0.58" stop-color="#757373"/>
<stop offset="0.87" stop-color="#3A3637"/>
<stop offset="1" stop-color="#231F20"/>
</linearGradient>
<linearGradient id="paint86_linear_6561_5134" x1="13.953" y1="19.527" x2="18.426" y2="19.527" gradientUnits="userSpaceOnUse">
<stop stop-color="#231F20"/>
<stop offset="1" stop-color="#7B7C7F"/>
</linearGradient>
<clipPath id="clip0_6561_5134">
<rect width="100" height="22" fill="white" transform="matrix(1 0 0 -1 0 22)"/>
</clipPath>
</defs>
</svg>
