<svg width="100" height="48" viewBox="0 0 100 48" fill="none" xmlns="http://www.w3.org/2000/svg">
<g clip-path="url(#clip0_6560_2501)">
<path d="M99.1607 24.2845H97.9114L97.8938 24.635H99.1021L99.108 24.6739H99.1411L99.3754 26.0369L99.1411 26.7768H97.8138L97.7962 27.1273H98.9459L99.7658 27.4972L99.8048 27.5167V28.8407L98.985 29.2106H97.7162L97.6967 29.5806H98.7488L98.7527 29.6H98.7683L99.0025 30.963L98.7683 31.7029H97.5971L97.5796 32.0534H98.5341L99.3344 32.4233V33.7473L98.5341 34.1173H97.4995L97.48 34.5067H98.3389L98.5536 35.8502V35.858V35.8697L98.5028 36.0332L98.3389 36.6096H97.4019V36.999H98.1046L98.905 37.3494V38.6735L98.1046 39.0434H82.9963V38.7319H74.4466V37.33H73.9001V36.9795H74.4466V32.6959L73.2559 32.0728V31.9171H64.5306L64.1206 32.2286H62.6567L62.4029 31.9171L61.5635 31.8003V31.3719H60.002V32.6375H64.3744L65.8774 34.8572V35.7723H70.2342V35.9183L70.8355 37.9141V44.4368L70.2342 46.4326V46.5864H57.8157V47.2582C57.8157 47.667 57.4839 47.998 57.074 47.998H28.009V46.5864H25.8813V47.4548H27.9699V47.7663H9.75991V47.4548H10.8921V44.7094H9.75991V44.3979H12.2975V43.7164V43.6969H4.93851L2.65665 37.7622L1.56159 38.2256L1.44447 37.9336L1.75678 37.7973L0.546555 34.5067H0.156159V31.9366H0.292797V25.9395H0V25.628H0.975991V20.9745H1.24927H0.0195198V20.6629H0.312317V14.6659H0.175678V12.0958H0.566075L1.7763 8.80519L1.46399 8.66889L1.58111 8.37683L2.04958 8.57154L2.18622 8.62995L2.60199 8.80908L4.91899 2.76923H12.278V2.16563L12.9221 0.023838H70.1933L70.8374 2.16563V8.68836L70.1933 10.8302H65.8989V11.7453L64.3764 13.965H59.9844V15.0359H61.4093V14.6075L62.2487 14.4907L62.5024 14.1791H63.986L64.3959 14.4907H73.1212V14.3349L74.3119 13.7313V9.50614H73.7654V9.15566H74.3119V7.77323H74.4681V7.73429H82.8616V7.4617H83.0373V7.42276H98.1261L98.9264 7.79271V7.82191L98.9459 7.83165V9.15566L98.1261 9.50614H97.4039L97.4214 9.85661H98.3408L98.4755 10.3239L98.5751 10.6354L98.3408 11.9984H97.5015L97.519 12.3489H98.536L99.3363 12.7188V12.748L99.3559 12.7578V14.0818L98.536 14.4323H97.5991L97.6166 14.7827H98.7507L98.7625 14.8217H98.7703L99.0045 15.5616L98.7703 16.9245H97.6967L97.7142 17.275H98.9459L99.7658 17.645V17.6664L99.8048 17.6839V19.0079L98.985 19.3584H97.7943L97.8118 19.7089H99.1021L99.1138 19.7478H99.1411L99.3754 20.4877L99.1411 21.8507H97.8919L97.9094 22.2011H99.1216L99.9415 22.5711L99.9805 22.5905V23.9146L99.1607 24.2845ZM74.3119 18.0149C74.1558 17.9565 74.0387 17.8007 74.0387 17.6255C74.0387 17.5865 74.0387 17.5476 74.0582 17.5087L73.1212 17.0219V16.8661H64.3959L63.986 17.1776H62.5024L62.2487 16.8661L61.4093 16.7493V16.2625H59.9844V16.944C59.9336 16.9206 59.8809 16.9031 59.8282 16.8836V16.8914C59.8731 16.909 59.92 16.9245 59.9649 16.944C60.0234 16.9635 60.082 17.0024 60.1601 17.0414L61.7217 17.8981C62.1706 18.1512 62.6781 18.268 63.1856 18.268H74.3119V18.0149ZM74.4681 28.463C74.4681 28.463 74.4544 28.4668 74.4486 28.4707V28.1981H63.2247C62.7172 28.1981 62.2096 28.3344 61.7607 28.5681L60.1991 29.4248C60.1405 29.4638 60.082 29.4832 60.0039 29.5222V30.1452H61.5655V29.6585L62.4049 29.5416L62.6586 29.269H64.1421L64.552 29.5806H73.2774V29.4248L74.2143 28.938V28.8602C74.2143 28.6927 74.3217 28.5447 74.4681 28.4824V28.4649V28.463Z" fill="black"/>
<path d="M99.18 22.2402L99.9999 22.5907V23.9147L99.18 24.2846H97.9308L97.9113 24.674H99.1605L99.3948 26.037L99.1605 26.7769H97.8332L97.8137 27.1663H99.0044L99.8242 27.5168V28.8408L99.0044 29.2108H97.7356L97.7161 29.6002H98.7896L99.0239 30.9631L98.7896 31.703H97.6185L97.5989 32.0924H98.5359L99.3557 32.4429V33.7475L98.5359 34.1174H97.5209L97.5013 34.5068H98.3407L98.5749 35.8698L98.3407 36.6097H97.4233L97.4037 36.9991H98.1065L98.9263 37.3496V38.6736L98.1065 39.0435H83.0176V38.732H74.468V37.3301H73.9214V36.9796H74.468V32.696L73.2773 32.073V31.9172H64.5519L64.142 32.2287H62.678L62.4242 31.9172L61.5849 31.8004V29.6586L62.4242 29.5418L62.678 29.2692H64.1615L64.5714 29.5807H73.2968V29.4249L74.2337 28.9382V28.8603C74.2337 28.685 74.3508 28.5293 74.507 28.4709V28.1983H63.2441C62.7366 28.1983 62.229 28.3346 61.7801 28.5682L60.2185 29.4249C60.1599 29.4639 60.1014 29.4833 60.0233 29.5223V30.1454H55.6509V31.3915H60.0038V32.6376H55.6509V34.3316H56.5878V34.9546H56.3926C56.1584 34.9546 55.9437 35.0909 55.8461 35.3051L55.3971 36.2981H53.5818V36.6876H55.3971L55.8656 37.6806C55.9632 37.8947 56.1779 38.031 56.4121 38.031H56.6073V38.3426H56.0608V39.0435H56.6073V39.6861H56.0608V40.387H56.6073V41.0296H56.0608V41.7305H56.6073V42.0031H56.4121C56.1779 42.0031 55.9632 42.1394 55.8656 42.3536L55.4166 43.3466H53.6013V43.736H55.4166L55.8851 44.729C55.9827 44.9432 56.1974 45.0795 56.4317 45.0795H56.6269V46.384H32.3442V43.6971H31.4268V43.4245H31.9538V42.8014H32.3442V37.1354H31.9538V36.5123H31.4268V3.82077H31.3097V36.5123H30.9193V43.4245H31.3097V43.6971H10.2868V35.3051H10.1697V43.6971H4.95791L2.67409 37.7585L2.73265 37.739L2.59601 37.4469L2.55697 37.4664L1.4053 34.5068H3.25969V33.8643H0.663551L0.624512 33.7475V33.5527H3.24017V32.9102H0.995388V32.5792H3.24017V31.9367H0.995388V25.9396H1.26867V25.6281H0.995388V20.9746H1.26867V20.6631H0.624512V14.666H3.24017V14.0235H0.995388V13.712H3.24017V13.0694H0.624512V12.8552L0.663551 12.7579L1.4053 12.7384H3.25969V12.0959H1.36626L2.51793 9.11684L2.59601 9.15578L2.71313 8.86372L2.61553 8.82478L4.93839 2.76935H51.9811L54.0698 3.25612L54.9482 3.4703L55.4947 3.60659V13.9651H59.8476V15.036H55.4947V16.2821H59.8476V16.9636C59.9062 16.9831 59.9647 17.022 60.0428 17.0609L61.6044 17.9177C62.0534 18.1708 62.5609 18.2876 63.0684 18.2876H74.3313V18.015C74.1752 17.9566 74.058 17.8008 74.058 17.6256C74.058 17.5867 74.058 17.5477 74.0776 17.5088L73.1406 17.022V16.8662H64.4153L64.0053 17.1778H62.5218L62.2681 16.8662L61.4287 16.7494V14.6076L62.2681 14.4908L62.5218 14.1793H64.0053L64.4153 14.4908H73.1406V14.335L74.3313 13.7314V9.50626H73.7848V9.15578H74.3313V7.77335H82.881V7.46182H98.1455L98.9653 7.83176V9.15578L98.1455 9.50626H97.4233L97.4428 9.89568H98.3602L98.5945 10.6356L98.3602 11.9985H97.5209L97.5404 12.3879H98.5554L99.3752 12.7579V14.0819L98.5554 14.4324H97.6185L97.638 14.8218H98.7896L99.0239 15.5617L98.7896 16.9246H97.7161L97.7356 17.3141H99.0044L99.8242 17.684V19.008L99.0044 19.3585H97.8137L97.8332 19.7479H99.1605L99.3948 20.4878L99.1605 21.8508H97.9113L97.9308 22.2402H99.18Z" fill="#FED100"/>
<path d="M12.9417 46.5786H13.3126V47.4548H12.6685V45.6635L12.9417 46.5786Z" fill="black"/>
<path d="M12.1217 47.4548H11.4775V44.7094H12.1217V47.4548Z" fill="black"/>
<path opacity="0.1" d="M5.48491 42.6261H10.1697V35.3051H3.25966V34.5068H2.08847L3.78669 38.5762L4.35277 38.3425C4.56748 38.2646 4.82124 38.3036 4.99692 38.4593L5.81675 39.1992L7.51498 38.4593L7.67113 38.8293L5.99243 39.5302L5.95339 40.6401C5.95339 40.8737 5.79723 41.0879 5.58251 41.1853L4.99692 41.4384L5.48491 42.6261ZM31.2901 36.5123V3.80125H10.2868V11.2586H17.1968V13.2641H20.4176C20.6713 13.2641 20.7104 13.2057 20.7104 13.0888V12.5242H20.0662V11.8038H20.32V11.3559H19.5001L19.1488 11.1807H17.4115C17.2163 11.1807 17.0797 11.0444 17.0797 10.8692V9.79827H14.6397V8.14325H18.3094V8.92208H19.3245C19.344 8.92208 19.3635 8.92208 19.383 8.94155L19.8905 9.25308H20.4566C20.4566 9.07784 20.4566 8.92208 20.4371 8.92208H20.1053V8.1043H23.0332V12.5047H20.9251V13.0694C20.9251 13.4393 20.5542 13.4393 20.4371 13.4393H17.1968V13.7508H21.0812C21.3545 13.7508 21.9596 14.0234 21.9596 14.8023V15.1527C22.1353 15.1527 22.2915 15.1333 22.2915 15.1333V14.8023H23.1113V17.7229H18.6998V14.8023H19.4221V15.0554H19.7734V14.8607C19.7734 14.5297 19.6173 14.4713 19.4416 14.4713H17.1968V15.3864H10.2868V31.1383H17.1968V32.0534H19.4611C19.6368 32.0534 19.7929 32.0145 19.7929 31.664V31.4693H19.4416V31.7224H18.7193V28.8018H23.1113V31.7224H22.2915V31.3914C22.2915 31.372 22.1353 31.372 21.9596 31.372V31.7224C21.9596 32.5013 21.3545 32.7739 21.0812 32.7739H17.1968V33.0854H20.4176C20.5347 33.0854 20.9056 33.0854 20.9056 33.4553V34.02H23.0137V38.4204H20.0857V37.6221H20.4176C20.4371 37.6221 20.4371 37.4663 20.4371 37.2911H19.871L19.3635 37.6221C19.344 37.6416 19.3245 37.6416 19.3049 37.6416H18.2899V38.4204H14.6397V36.8043H17.0992V35.7334C17.0992 35.5387 17.2554 35.4024 17.431 35.4024H19.1683L19.5197 35.2272C19.5197 35.2077 19.5392 35.2077 19.5587 35.2077H20.3395V34.7599H20.0857V34.0395H20.7299V33.4748C20.7299 33.358 20.6908 33.2996 20.4371 33.2996H17.1968V35.3051H10.2868V42.6261H30.8997V36.5123H31.2901ZM18.407 24.1677H16.8845V22.4154H18.407V24.1677ZM21.2569 24.1677H19.7344V22.4154H21.2569V24.1677ZM28.0108 21.7144H22.6623V18.7159H28.0108V21.7144ZM28.2645 30.4958H24.1654V23.9146H28.2645V30.4958ZM3.25966 11.6869V12.0764H2.04943L3.74765 7.98748L4.35277 8.2406C4.56748 8.33795 4.82124 8.29901 4.99692 8.12377L5.81675 7.38388L7.49546 8.08483L7.65161 7.71489L5.97291 7.01394L5.93387 5.92356C5.93387 5.68992 5.77771 5.47574 5.56299 5.37839L4.93836 5.10579L5.46539 3.82072H10.1501V11.278H3.25966V11.6869ZM21.7449 31.3914V31.7419C21.7449 32.3844 21.2764 32.5986 21.0617 32.5986H17.1968V32.2676H19.4416C19.6758 32.2676 19.9686 32.1508 19.9686 31.664V31.4693H20.4761V31.7224H21.3545V31.3914H21.7449ZM3.25966 31.1578H10.1697V15.4253H3.24014V14.6465H1.40527V31.9366H3.25966V31.1578ZM3.35725 24.1872C3.35725 24.0314 3.49389 23.8952 3.65005 23.8952H7.18314C7.3393 23.8952 7.47593 24.0314 7.47593 24.1872V28.8602C7.47593 29.016 7.3393 29.1523 7.18314 29.1523H4.7822V30.6515C4.7822 30.8073 4.66508 30.9241 4.50892 30.9241C4.35277 30.9241 4.23565 30.8073 4.23565 30.6515V29.1523H3.65005C3.49389 29.1523 3.35725 29.016 3.35725 28.8602V24.1872ZM3.35725 20.293C3.35725 20.1373 3.49389 20.001 3.65005 20.001H5.13356V19.5532H4.74316V16.7104H5.71915V19.5532H5.32876V20.001H6.51946V19.5532H6.12907V16.7104H7.10506V19.5532H6.71466V20.001H7.20266C7.35882 20.001 7.49546 20.1373 7.49546 20.293V23.5641C7.49546 23.7199 7.35882 23.8562 7.20266 23.8562H3.65005C3.49389 23.8562 3.35725 23.7199 3.35725 23.5641V20.293ZM19.9881 15.1333V14.9386C19.9881 14.4518 19.6953 14.3544 19.4611 14.3544H17.1968V14.0429L21.0812 14.004C21.296 14.004 21.7644 14.2181 21.7644 14.8607V15.2112H21.374V14.8802H20.4957V15.1333H19.9881ZM20.4176 36.6875V37.0769H19.7929L19.2854 37.4079H18.2899V36.7654H17.2944V35.6945C17.2944 35.6361 17.353 35.5777 17.4115 35.5777H19.2269L19.5782 35.4024H20.3395V35.8113H20.0857V36.6875H20.4176ZM19.2854 9.1752L19.7929 9.48673C19.8125 9.48673 19.832 9.5062 19.8515 9.5062H20.4371V9.89562H20.1053V10.7718H20.359V11.1807H19.5977L19.2269 11.0055H17.4115C17.353 11.0055 17.2944 10.947 17.2944 10.8886V9.81773H18.2899V9.1752H19.2854Z" fill="black"/>
<path d="M56.061 41.0489H56.6076H57.0175V41.7499H56.6076H56.061V41.0489Z" fill="#111111"/>
<path d="M56.061 39.7054H56.6076H57.0175V40.4064H56.6076H56.061V39.7054Z" fill="#111111"/>
<path d="M56.061 38.3619H56.6076H57.0175V39.0629H56.6076H56.061V38.3619Z" fill="#111111"/>
<path d="M68.1827 46.5786V35.7723H67.3043V46.5786H68.1827ZM64.0445 35.7723H64.9229V46.5786H64.0445V35.7723ZM60.7652 35.7723H61.6435V46.5786H60.7652V35.7723ZM57.8372 44.1448V35.7723H58.3837V46.5786H57.8372V44.1448ZM25.3562 46.5786H24.7706V44.7094H25.3562V46.5786ZM24.7706 43.7164H25.649V44.3979H24.7706V43.7164ZM21.5108 43.7164H22.3892V44.3979H21.5108V43.7164ZM21.7646 46.5786H21.5108V44.7094H21.7646V46.5786ZM22.3306 44.7094H22.4087V46.5786H22.3306V44.7094ZM18.2315 43.7164H19.1099V44.3979H18.2315V43.7164ZM18.7 44.7094H19.1099V46.5786H18.7V44.7094ZM15.733 46.5786H15.0888V44.7094H15.733V46.5786ZM14.9717 43.7164H15.8501V44.3979H14.9717V43.7164Z" fill="#222222"/>
<path d="M68.1827 10.8302V0.0238829H67.3043V10.8302H68.1827ZM64.0445 0.0238829H64.9229V10.8302H64.0445V0.0238829ZM60.7652 0.0238829H61.6435V10.8302H60.7652V0.0238829ZM57.5054 0.0238829H58.3837V10.8302H57.5054V0.0238829ZM54.226 0.0238829H55.1044V3.47022L54.226 3.25604V0.0238829ZM50.9467 0.0238829H51.8251V2.7498H50.9467V0.0238829ZM47.6869 0.0238829H48.5653V2.7498H47.6869V0.0238829ZM44.4076 0.0238829H45.2859V2.7498H44.4076V0.0238829ZM41.1282 0.0238829H42.0066V2.7498H41.1282V0.0238829ZM37.8684 0.0238829H38.7468V2.7498H37.8684V0.0238829ZM34.5891 0.0238829H35.4675V2.7498H34.5891V0.0238829ZM31.3488 2.76927H31.3293V0.0238829H32.2077V2.7498H31.3488V2.76927ZM28.05 0.0238829H28.9283V2.76927H28.05V0.0238829ZM24.7706 0.0238829H25.649V2.76927H24.7706V0.0238829ZM21.5108 0.0238829H22.3892V2.76927H21.5108V0.0238829ZM18.2315 0.0238829H19.1099V2.76927H18.2315V0.0238829ZM14.9717 0.0238829H15.8501V2.76927H14.9717V0.0238829Z" fill="#222222"/>
<path d="M60.0037 16.2625H61.5848V15.0358H55.6507V16.2625H60.0037ZM43.7437 14.3154H49.9314L50.0485 15.0553H43.7437V14.3154ZM60.0037 31.3719H55.6507V30.1452H61.5848V31.3719H60.0037ZM49.9314 32.0923H43.7437V31.3524H50.0485L49.951 31.917L49.9314 32.0923Z" fill="#222222"/>
<path d="M0.64386 33.7474L0.66338 33.8447H0.331543V33.5332H0.64386V33.7474Z" fill="black"/>
<path d="M70.8571 44.4368V37.9141L70.213 35.7723H68.2024V46.5786H70.213L70.8571 44.4368ZM24.7513 43.7164V44.3979H25.6297V43.7164H27.9916V46.5786H25.903V47.4548H27.9916V47.7664H9.77961V47.4548H10.9118V44.7094H9.77961V44.3979H12.3172V43.7164H14.9719V44.3979H15.8503V43.7164H18.2317V44.3979H19.1101V43.7164H21.4915V44.3979H22.3699V43.7164H24.7513ZM58.3839 35.7723H60.7654V46.5786H58.3839V35.7723ZM61.6438 35.7723H64.0252V46.5786H61.6438V35.7723ZM64.9231 35.7723H67.3045V46.5786H64.9231V35.7723ZM15.8503 0.0238609H18.2317V2.76925H15.8503V0.0238609ZM12.2977 2.16565L12.9418 0.0238609H14.9719V2.76925H12.2977V2.16565ZM19.1296 0.0238609H21.511V2.76925H19.1296V0.0238609ZM45.2862 0.0238609H47.6676V2.74978H45.2862V0.0238609ZM42.0263 0.0238609H44.4078V2.74978H42.0263V0.0238609ZM48.5655 0.0238609H50.9469V2.74978H48.5655V0.0238609ZM52.0986 2.76925L52.079 2.74978H51.8448V0.0238609H54.2262V3.25602L52.1376 2.76925H52.0986ZM38.747 0.0238609H41.1284V2.74978H38.747V0.0238609ZM25.6687 0.0238609H28.0502V2.76925H25.6687V0.0238609ZM22.3894 0.0238609H24.7708V2.76925H22.3894V0.0238609ZM68.2024 10.8302V0.0238609H70.213L70.8571 2.16565V8.68839L70.213 10.8302H68.2024ZM35.4677 0.0238609H37.8491V2.74978H35.4677V0.0238609ZM32.2079 0.0238609H34.5893V2.74978H32.2079V0.0238609ZM28.9286 0.0238609H31.31V2.76925H28.9286V0.0238609ZM58.3839 0.0238609H60.7654V10.8302H58.3839V0.0238609ZM64.9231 10.8302V0.0238609H67.3045V10.8302H64.9231ZM55.6512 3.58702L55.1046 3.4702V0.0238609H57.5056V10.8302H55.6512V3.58702ZM61.6438 0.0238609H64.0252V10.8302H61.6438V0.0238609ZM31.4076 43.697H31.2904V43.4244H31.4076V43.697ZM31.2904 3.84014V3.82067H31.4271V36.5122H31.2904V3.84014ZM10.17 3.84014V3.82067H10.2871V11.278H10.17V3.84014ZM10.17 15.4058H10.2871V31.1577H10.17V15.4058ZM10.17 42.6261V35.305H10.2871V43.697H10.17V42.6261ZM32.3445 42.8013H31.9541V37.1353H32.3445V42.8013ZM55.8464 35.344C55.944 35.1298 56.1587 34.9935 56.3929 34.9935H57.1542V38.0893H56.3929C56.1782 38.0699 55.9635 37.9336 55.8659 37.7194L55.3974 36.7264H53.5821V36.337H55.3974L55.8464 35.344ZM55.8464 42.4119C55.944 42.1977 56.1587 42.0614 56.3929 42.0614H57.1542V45.1573H56.3929C56.1782 45.1378 55.9635 45.0015 55.8659 44.7873L55.3974 43.7943H53.5821V43.4049H55.3974L55.8464 42.4119ZM6.715 18.9495V20.0009H6.5198V18.9495C6.5198 18.8911 6.55884 18.8522 6.6174 18.8522C6.67596 18.8522 6.715 18.8911 6.715 18.9495ZM5.30957 18.9495V20.0009H5.11438V18.9495C5.11438 18.8911 5.15342 18.8522 5.21198 18.8522C5.27054 18.8522 5.30957 18.8911 5.30957 18.9495ZM4.82158 30.6515H4.80206C4.80206 30.8073 4.68494 30.9241 4.52878 30.9241C4.37262 30.9241 4.2555 30.8073 4.2555 30.6515V29.1522H4.82158V30.6515ZM14.3082 12.4463H12.0049V12.2515H14.3082C14.3668 12.2515 14.4058 12.2905 14.4058 12.3489C14.4058 12.4073 14.3668 12.4463 14.3082 12.4463ZM10.209 12.4463H7.80811C7.74955 12.4463 7.71051 12.4073 7.71051 12.3489C7.71051 12.2905 7.74955 12.2515 7.80811 12.2515H10.209V12.4463ZM7.80811 12.7578H10.209V12.9525H7.80811C7.74955 12.9525 7.71051 12.9136 7.71051 12.8551C7.71051 12.7967 7.74955 12.7578 7.80811 12.7578ZM14.3082 12.9525H12.0049V12.7578H14.3082C14.3668 12.7578 14.4058 12.7967 14.4058 12.8551C14.4058 12.9136 14.3668 12.9525 14.3082 12.9525ZM20.9254 12.5436V13.1083C20.9254 13.4977 20.5546 13.4977 20.4374 13.4977H12.0049V13.303H20.4374V13.2835C20.6912 13.2835 20.7302 13.2251 20.7302 13.1083V12.5436H20.9254ZM7.80811 13.2835H10.209V13.4782H7.80811C7.74955 13.4782 7.71051 13.4393 7.71051 13.3809C7.71051 13.3224 7.74955 13.2835 7.80811 13.2835ZM21.7648 14.8606C21.7648 14.2181 21.2963 14.0039 21.0816 14.0039H12.0049V13.8092H21.0816C21.3549 13.8092 21.96 14.0818 21.96 14.8606V15.2111H21.7648V14.8606ZM7.80811 13.8092H10.209V14.0039H7.80811C7.74955 14.0039 7.71051 13.965 7.71051 13.9066C7.71051 13.8482 7.74955 13.8092 7.80811 13.8092ZM19.7738 14.9191C19.7738 14.5686 19.6176 14.5296 19.4419 14.5296H12.0049V14.3349H19.4419C19.6762 14.3155 19.969 14.4323 19.969 14.9191V15.1138H19.7738V14.9191ZM7.80811 14.3349H10.209V14.5296H7.80811C7.74955 14.5296 7.71051 14.4907 7.71051 14.4323C7.71051 14.3739 7.74955 14.3349 7.80811 14.3349ZM19.2272 11.0249L19.5786 11.2001H20.3398V11.3948H19.52L19.1686 11.2196H17.4314C17.2557 11.2196 17.0995 11.0833 17.0995 10.9081V9.83716H17.2947V10.8886C17.2947 10.9665 17.3533 11.0054 17.4119 11.0054H19.1882C19.2077 11.0054 19.2272 11.0054 19.2272 11.0249ZM19.3443 9.01939L19.8518 9.33092H20.4179V9.52563H19.8323C19.8128 9.52563 19.7933 9.52563 19.7738 9.50616L19.2662 9.19462H18.2707V8.99992H19.2858C19.3053 8.99992 19.3248 8.99992 19.3443 9.01939ZM5.81709 7.38383L4.99726 8.12373C4.82158 8.2795 4.56782 8.31844 4.3531 8.24055L3.74799 7.98743L3.65039 7.94849L4.86062 5.08628L4.9387 5.12522L5.56333 5.39781C5.77805 5.47569 5.93421 5.68987 5.93421 5.92352L5.97325 7.01389L7.65195 7.71484L7.49579 8.08479L5.81709 7.38383ZM14.3082 34.3315H12.0049V34.1368H14.3082C14.3668 34.1368 14.4058 34.1757 14.4058 34.2341C14.4058 34.2925 14.3668 34.3315 14.3082 34.3315ZM7.80811 34.1368H10.209V34.3315H7.80811C7.74955 34.3315 7.71051 34.2925 7.71051 34.2341C7.71051 34.1757 7.74955 34.1368 7.80811 34.1368ZM14.4058 33.7279C14.4058 33.7863 14.3668 33.8252 14.3082 33.8252H12.0049V33.6305H14.3082C14.3668 33.6305 14.4058 33.6695 14.4058 33.7279ZM7.80811 33.6305H10.209V33.8252H7.80811C7.74955 33.8252 7.71051 33.7863 7.71051 33.7279C7.71051 33.6695 7.74955 33.6305 7.80811 33.6305ZM12.0049 33.1048H20.4374C20.5546 33.1048 20.9254 33.1048 20.9254 33.4748V34.0394H20.7302V33.4748C20.7302 33.3579 20.6912 33.2995 20.4374 33.2995H12.0049V33.1048ZM7.80811 33.1048H10.209V33.2995H7.80811C7.74955 33.2995 7.71051 33.2606 7.71051 33.2022C7.71051 33.1438 7.74955 33.1048 7.80811 33.1048ZM21.0816 32.7738H12.0049V32.5791H21.0816C21.2963 32.5791 21.7648 32.3649 21.7648 31.7224V31.3719H21.96V31.7224C21.96 32.5207 21.3549 32.7738 21.0816 32.7738ZM7.80811 32.5791H10.209V32.7738H7.80811C7.74955 32.7738 7.71051 32.7349 7.71051 32.6765C7.71051 32.618 7.74955 32.5791 7.80811 32.5791ZM19.969 31.664C19.969 32.1507 19.6762 32.2481 19.4419 32.2481H12.0049V32.0534H19.4419C19.6176 32.0534 19.7738 32.0144 19.7738 31.664V31.4693H19.969V31.664ZM7.80811 32.0729H10.209V32.2676H7.80811C7.74955 32.2676 7.71051 32.2286 7.71051 32.1702C7.71051 32.1118 7.74955 32.0729 7.80811 32.0729ZM17.2947 35.6944V36.7653H17.0995V35.6944C17.0995 35.5192 17.2362 35.3829 17.4314 35.3829H19.1686L19.52 35.2077C19.5395 35.2077 19.559 35.1882 19.559 35.1882H20.3398V35.3829C20.3398 35.4024 19.5786 35.4024 19.5786 35.4024L19.2272 35.5776H17.4119C17.3533 35.5776 17.2947 35.636 17.2947 35.6944ZM19.7933 37.0769C19.8128 37.0769 19.8323 37.0574 19.8518 37.0574H20.4374V37.2521H19.8714L19.3638 37.5831C19.3443 37.5831 19.3248 37.6026 19.3053 37.6026H18.2903V37.4079H19.2858L19.7933 37.0769ZM5.93421 40.679C5.93421 40.9126 5.77805 41.1268 5.56333 41.2242L4.97774 41.4773L4.86062 41.5357L3.65039 38.6735L3.78703 38.6151L4.3531 38.3814C4.56782 38.2451 4.82158 38.2841 4.99726 38.4593L5.81709 39.1992L7.49579 38.4982L7.65195 38.8682L5.97325 39.5691L5.93421 40.679ZM14.9524 42.7429H17.529V43.2297H14.9524V42.7429ZM27.5036 42.996H24.0291V42.7624H27.5036V42.996ZM11.3802 42.7429H13.9569V43.2297H11.3802V42.7429ZM14.9524 3.3339H17.529V3.82067H14.9524V3.3339ZM24.0291 3.58702H27.5036V3.82067H24.0291V3.58702ZM11.3802 3.3339H13.9569V3.82067H11.3802V3.3339ZM43.9783 13.7313H49.034V14.3155H43.9783V13.7313ZM50.088 18.1512H43.627V16.4183H50.088V18.1512ZM53.8749 15.0553H51.6496V14.6854H53.8749V15.0553ZM53.8749 14.0429H51.6496V13.7313H53.8749V14.0429ZM53.8749 16.613H51.6496V16.4378H53.8749V16.613ZM49.034 32.0923V32.6765H43.9783V32.0923H49.034ZM50.088 29.9895H43.627V28.315H50.088V29.9895ZM53.8749 32.6765H51.6496V32.3649H53.8749V32.6765ZM53.8749 31.7224H51.6496V31.3524H53.8749V31.7224ZM53.8749 29.9895H51.6496V29.8142H53.8749V29.9895Z" fill="black"/>
<path d="M30.9194 36.5122H31.2903H31.4269H31.954V37.1353V42.8013V43.4438H31.4269H31.2903H30.9194V42.6261V36.5122Z" fill="#333333"/>
<path d="M64.0443 35.7723H57.837V35.0129C57.837 34.7598 57.6418 34.5651 57.3881 34.5651H56.6073V34.3315H55.6508V32.6375H64.3957L65.8987 34.8572V35.7918H64.9032C64.9227 35.7723 64.0443 35.7723 64.0443 35.7723ZM55.6508 12.5436V10.8302H65.9182V11.7453L64.3957 13.965H55.6508V12.5436ZM28.0303 46.5786V43.6969H32.3442V46.3839H56.6073V45.1378H57.1734V42.0419H56.6073V41.7693H57.0367V41.0684H56.6073V40.4064H57.0367V39.7054H56.6073V39.0629H57.0367V38.3619H56.6073V38.0504H57.1734V34.9545H56.6073V34.5651H57.3881C57.6418 34.5651 57.837 34.7598 57.837 35.0129V47.2601C57.837 47.669 57.5052 48 57.0953 48H28.0303V46.5786Z" fill="#444444"/>
<path opacity="0.17" d="M57.0171 28.315V18.1512H52.9375V17.2556H54.8895L55.6312 16.9246V16.6715H58.7154C59.1643 16.6715 59.5938 16.7688 59.9841 16.944C60.0427 16.9635 60.1013 17.0025 60.1793 17.0414L61.7409 17.8981C62.1899 18.1512 62.6974 18.2681 63.2049 18.2681H74.4679V28.1982H63.2049C62.6974 28.1982 62.1899 28.3345 61.7409 28.5681L60.1793 29.4249C60.1208 29.4638 60.0622 29.4833 59.9841 29.5222C59.5938 29.6974 59.1448 29.7948 58.7154 29.7948H55.6508V29.5027L54.909 29.1717H52.957V28.3345L57.0171 28.315ZM61.2529 27.4388H63.3416V27.1468H61.2529V27.4388ZM61.2529 19.2805H63.3416V18.9885H61.2529V19.2805Z" fill="url(#paint0_linear_6560_2501)"/>
<path d="M63.3416 19.2805H61.2529V18.9885H63.3416V19.2805Z" fill="black"/>
<path d="M63.3416 27.4387H61.2529V27.1467H63.3416V27.4387Z" fill="black"/>
<path opacity="0.25" d="M85.7114 33.8641H77.3765V29.8726H85.7114V33.8641Z" fill="url(#paint1_linear_6560_2501)"/>
<path opacity="0.25" d="M95.9005 24.265H97.8915L97.872 24.635H95.4515L95.1978 26.7573H97.7939V27.1272H95.7248V29.1911H97.7158L97.6963 29.5806H95.1002L94.8464 31.6834H97.6182L97.5987 32.0534H95.2954V34.1173H97.5206L97.5011 34.5067H94.6902L94.417 36.6095H97.423V36.999H94.8659V37.33H86.8823V23.2331V9.13618H94.8854V9.48665H97.423V9.8566H94.417L94.6902 11.9594H97.5011L97.5206 12.3489H95.2954V14.3933H97.5987L97.6182 14.7827H94.8464L95.1002 16.905H97.6963L97.7158 17.275H95.7248V19.3389H97.7939V19.7088H95.1978L95.4515 21.8117H97.872L97.8915 22.2011H95.9005V24.265Z" fill="url(#paint2_linear_6560_2501)"/>
<path opacity="0.25" d="M85.7114 16.5935H77.3765V12.6215H85.7114V16.5935Z" fill="url(#paint3_linear_6560_2501)"/>
<path opacity="0.25" d="M85.7114 20.916H77.3765V16.944H85.7114V20.916Z" fill="url(#paint4_linear_6560_2501)"/>
<path opacity="0.25" d="M77.3765 10.7327H83.5447V10.0902H83.7985L84.8526 9.13613H85.7114V12.2515H77.3765V10.7327Z" fill="url(#paint5_linear_6560_2501)"/>
<path opacity="0.25" d="M85.7114 29.5222H77.3765V25.5307H85.7114V29.5222Z" fill="url(#paint6_linear_6560_2501)"/>
<path opacity="0.25" d="M77.3765 23.233V21.2665H85.7114V23.233V25.1996H77.3765V23.233Z" fill="url(#paint7_linear_6560_2501)"/>
<path opacity="0.25" d="M83.7985 36.3759H83.5447V35.7333H77.3765V34.2146H85.7114V37.33H84.8526L83.7985 36.3759Z" fill="url(#paint8_linear_6560_2501)"/>
<path d="M23.1311 5.651H15.2256V5.51471H23.1311V5.651Z" fill="black"/>
<path d="M17.197 8.57151C17.4342 8.57151 17.6265 8.76329 17.6265 8.99986C17.6265 9.23644 17.4342 9.42822 17.197 9.42822C16.9598 9.42822 16.7676 9.23644 16.7676 8.99986C16.7676 8.76329 16.9598 8.57151 17.197 8.57151Z" fill="black"/>
<path d="M23.1311 41.0684H15.2256V40.9321H23.1311V41.0684Z" fill="black"/>
<path d="M17.197 37.1548C17.4342 37.1548 17.6265 37.3465 17.6265 37.5831C17.6265 37.8197 17.4342 38.0115 17.197 38.0115C16.9598 38.0115 16.7676 37.8197 16.7676 37.5831C16.7676 37.3465 16.9598 37.1548 17.197 37.1548Z" fill="black"/>
<path opacity="0.35" d="M75.6001 23.2331V18.0149V17.1777V10.7328H77.3764V12.2516V12.602V16.5936V16.944V20.9161V21.2666V23.2331V25.1997V25.5501V29.5222V29.8727V33.8642V34.2147V35.7334H75.6001V29.2886V28.4318V23.2331Z" fill="black"/>
<path opacity="0.17" d="M35.7212 18.1512H43.6267H50.0878H52.9572H57.0173V28.3149H52.9572H50.0878H43.6267H35.7212H32.3442V28.2565V18.1512H35.7212Z" fill="url(#paint9_linear_6560_2501)"/>
<path opacity="0.35" d="M94.8856 9.13614H86.8825V9.11667H85.7113V9.13614H84.8525L83.7984 10.0902H83.5446H83.0566V8.0263V7.73424V7.42271H94.8856V9.13614Z" fill="black"/>
<path opacity="0.35" d="M83.0566 36.376H83.5446H83.7984L84.8525 37.33H85.7113V37.3495H86.8825V37.33H94.8661V39.0435H83.0566V38.7319V38.4399V36.376Z" fill="black"/>
<path opacity="0.35" d="M35.7213 18.1512H32.3444H31.7588V12.5436H32.3444H35.7213V14.8217V16.9441V18.1512Z" fill="black"/>
<path opacity="0.35" d="M35.7213 28.3149V29.4637V31.586V31.9171V33.8641H31.7588V28.2565H32.3444V28.3149H35.7213Z" fill="black"/>
<path opacity="0.35" d="M39.4884 15.0554V16.4184H41.7136V17.4503V17.7229H37.9658V16.9441V14.8217V14.0429H41.7136V14.3155V15.0554H39.4884Z" fill="black"/>
<path opacity="0.35" d="M37.9658 29.4638V28.685H41.7136V28.9576V29.9895H39.4884V31.3525H41.7136V32.0924V32.365H37.9658V31.9172V31.5862V29.4638Z" fill="black"/>
<path opacity="0.25" d="M58.735 29.7948C59.184 29.7948 59.6134 29.6974 60.0038 29.5222V30.1453H55.6509V29.7948H58.735Z" fill="black"/>
<path opacity="0.25" d="M55.6509 14.3154L54.9482 14.0428H53.8746V13.7313H51.6494V14.0428H51.3566V14.6854H51.6494V15.0553H50.0487L49.9316 14.3154H49.0337V13.7313H43.9781V14.3154H43.7438H41.7138V14.0428H37.966V14.8216H35.7212V12.5436H55.6509V13.9649H60.0038V15.0358H55.6509V14.3154Z" fill="black"/>
<path opacity="0.25" d="M58.735 16.6714H55.6509V16.2625H60.0038V16.944C59.6134 16.7687 59.184 16.6714 58.735 16.6714Z" fill="black"/>
<path opacity="0.25" d="M55.6509 32.0923V31.9171V31.3719H60.0038V32.618H55.6509V32.0923Z" fill="black"/>
<path opacity="0.25" d="M54.1283 16.4182V15.0552H53.8745V14.6853H54.4015V16.6129H53.8745V16.4182H54.1283Z" fill="black"/>
<path opacity="0.25" d="M50.0874 18.1512V16.4183H51.649V16.613H51.3562V17.2556H52.9568V18.1512H50.0874Z" fill="black"/>
<path opacity="0.25" d="M50.0874 29.9895V28.315H52.9568V29.1523H51.3562V29.8143H51.649V29.9895H50.0874Z" fill="black"/>
<path opacity="0.25" d="M54.1283 31.3523V29.9894H53.8745V29.8141H54.4015V31.7223H53.8745V31.3523H54.1283Z" fill="black"/>
<path opacity="0.25" d="M37.966 31.917H35.7212V31.586H37.966V31.917Z" fill="black"/>
<path opacity="0.25" d="M51.6494 31.3523V31.7223H51.3566V31.917H49.9512L50.0488 31.3523H51.6494Z" fill="black"/>
<path opacity="0.25" d="M43.6267 28.9575H41.7138V28.6849H37.966V29.4637H35.7212V28.315H43.6267V28.9575Z" fill="black"/>
<path opacity="0.25" d="M43.6267 17.4503V18.1512H35.7212V16.9441H37.966V17.7229H41.7138V17.4503H43.6267Z" fill="black"/>
<path opacity="0.3" d="M94.4175 9.85662H97.4235H98.3605L98.5752 10.5965L98.3605 11.9595H97.5016H94.6908L94.4175 9.85662Z" fill="black"/>
<path opacity="0.3" d="M94.8467 14.7827H97.6185H98.7702L99.0044 15.5421L98.7702 16.905H97.6966H95.1004L94.8467 14.7827Z" fill="black"/>
<path opacity="0.3" d="M95.1982 19.7089H97.7944H99.1217L99.356 20.4683L99.1217 21.8118H97.8725H95.452L95.1982 19.7089Z" fill="black"/>
<path opacity="0.3" d="M94.6908 34.5066H97.5016H98.3605L98.5752 35.8501L98.3605 36.6095H97.4235H94.4175L94.6908 34.5066Z" fill="black"/>
<path opacity="0.3" d="M95.1004 29.5806H97.6966H98.7702L99.0044 30.9241L98.7702 31.6835H97.6185H94.8467L95.1004 29.5806Z" fill="black"/>
<path opacity="0.3" d="M95.452 24.635H97.8725H99.1217L99.356 25.998L99.1217 26.7573H97.7944H95.1982L95.452 24.635Z" fill="black"/>
<path d="M43.6463 28.977H41.7139V29.9894H43.6463V28.977ZM43.6463 17.4502H41.7139V16.4377H43.6463V17.4502ZM41.7139 32.0923V31.3524H43.7439V32.0923H41.7139ZM41.7139 14.3154H43.7439V15.0553H41.7139V14.3154Z" fill="black"/>
<path opacity="0.1" d="M32.3442 37.1353H31.9538V36.5122H31.4268V3.82065H55.6118V3.58699L52.1178 2.74975H52.1568L54.2454 3.23652L55.1238 3.4507L55.6704 3.58699V12.5241H31.7586V18.1317H32.3442V28.2371H31.7586V33.8642H35.7211V31.9171H37.9659V32.3649H41.6942V32.0923H43.978V32.6959H49.0336V32.0923H49.9315L49.9511 31.9171H51.337V32.3649H51.6298V32.6764H53.855V32.3649H54.9286L55.6508 32.0923V34.3315H32.3442V37.1353ZM41.2452 5.24202V9.11671H51.5322V5.24202H41.2452Z" fill="black"/>
<path opacity="0.2" d="M75.5628 18.1084V28.3365H75.5824V38.4107H83.0565V38.7319H74.4873V37.1879H75.3676V36.8024H74.4873V28.463C74.4873 28.463 74.4736 28.4669 74.4678 28.4708V17.9955C74.4678 17.9955 74.4814 17.9994 74.4873 18.0013V9.64055H75.3676V9.25502H74.4873V7.73241H83.0565V8.05367H75.5824V11.0113" fill="black"/>
<path d="M98.5555 34.1173L99.3558 33.7474V32.4234L98.5555 32.0534H95.2956V34.1173H98.5555ZM98.126 36.999L98.9263 37.3495V38.6735L98.126 39.0435H94.8662V36.999H98.126ZM97.7161 29.1912H95.7251V27.1273H98.9654L99.7852 27.4972V28.8213L98.9654 29.1912H97.7161ZM97.599 14.3934H95.2956V12.3489H98.5555L99.3558 12.7189V14.0429L98.5555 14.3934H97.599ZM97.4233 9.48672H94.8857V7.42281H98.1455L98.9459 7.79276V9.11678L98.1455 9.48672H97.4233ZM97.7942 19.339H95.7251V17.2751H98.9654L99.7852 17.645V18.969L98.9654 19.339H97.7942ZM99.141 24.2651H95.9008V22.2012H99.141L99.9609 22.5711V23.8951L99.141 24.2651Z" fill="black"/>
<path d="M3.25933 33.8446V34.5067H1.40495L2.55662 37.4662L2.59566 37.4468L2.7323 37.7388L1.58063 38.2256L1.46351 37.9335L1.77583 37.7972L0.565598 34.5067H0.175201V31.9365H0.31184V25.9395H0.019043V25.628H1.26831V25.9395H0.995034V31.9365H3.25933V32.579H1.40495L1.42447 32.8906H3.25933V33.5526H1.67823L1.81487 33.8446H3.25933Z" fill="black"/>
<path d="M3.27935 14.0234V14.6659H1.01505V20.663H1.26881V20.9745H0.0390625V20.663H0.33186V14.6659H0.195221V12.0958H0.585617L1.79585 8.80521L1.48353 8.66892L1.60065 8.37685L2.06912 8.57156L2.20576 8.62997L2.65472 8.82468L2.7328 8.86362L2.60592 9.1771L2.52784 9.14011L1.38593 12.0958H2.0496H3.27935V12.7578H1.79585L1.65921 13.0499H3.27935V13.7119H1.42497V14.0234H3.27935Z" fill="black"/>
</g>
<defs>
<linearGradient id="paint0_linear_6560_2501" x1="74.4913" y1="23.2331" x2="52.9609" y2="23.2331" gradientUnits="userSpaceOnUse">
<stop/>
<stop offset="0.14" stop-opacity="0.88"/>
<stop offset="1" stop-opacity="0.2"/>
</linearGradient>
<linearGradient id="paint1_linear_6560_2501" x1="63.3788" y1="32.2266" x2="87.2417" y2="31.7531" gradientUnits="userSpaceOnUse">
<stop stop-opacity="0"/>
<stop offset="0.03" stop-color="#030303" stop-opacity="0.07"/>
<stop offset="0.24" stop-color="#1B1718" stop-opacity="0.64"/>
<stop offset="0.37" stop-color="#231F20"/>
<stop offset="0.62" stop-color="#231F20"/>
<stop offset="0.74" stop-color="#1E1A1B" stop-opacity="0.67"/>
<stop offset="0.89" stop-color="#0F0D0E" stop-opacity="0.28"/>
<stop offset="1" stop-opacity="0"/>
</linearGradient>
<linearGradient id="paint2_linear_6560_2501" x1="67.8407" y1="23.6867" x2="99.9156" y2="23.0508" gradientUnits="userSpaceOnUse">
<stop stop-opacity="0"/>
<stop offset="0.03" stop-color="#030303" stop-opacity="0.07"/>
<stop offset="0.24" stop-color="#1B1718" stop-opacity="0.64"/>
<stop offset="0.37" stop-color="#231F20"/>
<stop offset="0.62" stop-color="#231F20"/>
<stop offset="0.74" stop-color="#1E1A1B" stop-opacity="0.67"/>
<stop offset="0.89" stop-color="#0F0D0E" stop-opacity="0.28"/>
<stop offset="1" stop-opacity="0"/>
</linearGradient>
<linearGradient id="paint3_linear_6560_2501" x1="63.3788" y1="14.9657" x2="87.2417" y2="14.4922" gradientUnits="userSpaceOnUse">
<stop stop-opacity="0"/>
<stop offset="0.03" stop-color="#030303" stop-opacity="0.07"/>
<stop offset="0.24" stop-color="#1B1718" stop-opacity="0.64"/>
<stop offset="0.37" stop-color="#231F20"/>
<stop offset="0.62" stop-color="#231F20"/>
<stop offset="0.74" stop-color="#1E1A1B" stop-opacity="0.67"/>
<stop offset="0.89" stop-color="#0F0D0E" stop-opacity="0.28"/>
<stop offset="1" stop-opacity="0"/>
</linearGradient>
<linearGradient id="paint4_linear_6560_2501" x1="63.3788" y1="19.2883" x2="87.2417" y2="18.8147" gradientUnits="userSpaceOnUse">
<stop stop-opacity="0"/>
<stop offset="0.03" stop-color="#030303" stop-opacity="0.07"/>
<stop offset="0.24" stop-color="#1B1718" stop-opacity="0.64"/>
<stop offset="0.37" stop-color="#231F20"/>
<stop offset="0.62" stop-color="#231F20"/>
<stop offset="0.74" stop-color="#1E1A1B" stop-opacity="0.67"/>
<stop offset="0.89" stop-color="#0F0D0E" stop-opacity="0.28"/>
<stop offset="1" stop-opacity="0"/>
</linearGradient>
<linearGradient id="paint5_linear_6560_2501" x1="63.4178" y1="11.1241" x2="87.232" y2="10.6525" gradientUnits="userSpaceOnUse">
<stop stop-opacity="0"/>
<stop offset="0.03" stop-color="#030303" stop-opacity="0.07"/>
<stop offset="0.24" stop-color="#1B1718" stop-opacity="0.64"/>
<stop offset="0.37" stop-color="#231F20"/>
<stop offset="0.62" stop-color="#231F20"/>
<stop offset="0.74" stop-color="#1E1A1B" stop-opacity="0.67"/>
<stop offset="0.89" stop-color="#0F0D0E" stop-opacity="0.28"/>
<stop offset="1" stop-opacity="0"/>
</linearGradient>
<linearGradient id="paint6_linear_6560_2501" x1="63.3788" y1="27.8847" x2="87.2417" y2="27.4112" gradientUnits="userSpaceOnUse">
<stop stop-opacity="0"/>
<stop offset="0.03" stop-color="#030303" stop-opacity="0.07"/>
<stop offset="0.24" stop-color="#1B1718" stop-opacity="0.64"/>
<stop offset="0.37" stop-color="#231F20"/>
<stop offset="0.62" stop-color="#231F20"/>
<stop offset="0.74" stop-color="#1E1A1B" stop-opacity="0.67"/>
<stop offset="0.89" stop-color="#0F0D0E" stop-opacity="0.28"/>
<stop offset="1" stop-opacity="0"/>
</linearGradient>
<linearGradient id="paint7_linear_6560_2501" x1="63.3808" y1="23.5913" x2="87.2417" y2="23.1177" gradientUnits="userSpaceOnUse">
<stop stop-opacity="0"/>
<stop offset="0.03" stop-color="#030303" stop-opacity="0.07"/>
<stop offset="0.24" stop-color="#1B1718" stop-opacity="0.64"/>
<stop offset="0.37" stop-color="#231F20"/>
<stop offset="0.62" stop-color="#231F20"/>
<stop offset="0.74" stop-color="#1E1A1B" stop-opacity="0.67"/>
<stop offset="0.89" stop-color="#0F0D0E" stop-opacity="0.28"/>
<stop offset="1" stop-opacity="0"/>
</linearGradient>
<linearGradient id="paint8_linear_6560_2501" x1="63.4998" y1="36.1286" x2="87.2242" y2="35.657" gradientUnits="userSpaceOnUse">
<stop stop-opacity="0"/>
<stop offset="0.03" stop-color="#030303" stop-opacity="0.07"/>
<stop offset="0.24" stop-color="#1B1718" stop-opacity="0.64"/>
<stop offset="0.37" stop-color="#231F20"/>
<stop offset="0.62" stop-color="#231F20"/>
<stop offset="0.74" stop-color="#1E1A1B" stop-opacity="0.67"/>
<stop offset="0.89" stop-color="#0F0D0E" stop-opacity="0.28"/>
<stop offset="1" stop-opacity="0"/>
</linearGradient>
<linearGradient id="paint9_linear_6560_2501" x1="57.0173" y1="23.2331" x2="32.3442" y2="23.2331" gradientUnits="userSpaceOnUse">
<stop/>
<stop offset="0.07" stop-opacity="0.2"/>
<stop offset="0.59" stop-opacity="0.2"/>
<stop offset="0.93" stop-color="#231F20" stop-opacity="0.97"/>
</linearGradient>
<clipPath id="clip0_6560_2501">
<rect width="100" height="48" fill="white" transform="matrix(1 0 0 -1 0 48)"/>
</clipPath>
</defs>
</svg>
