<svg width="100" height="36" viewBox="0 0 100 36" fill="none" xmlns="http://www.w3.org/2000/svg">
<g clip-path="url(#clip0_6566_5340)">
<path d="M99.7731 30.2384V32.3681H97.582V32.2393H95.4067V31.98H95.1743V25.3596H94.0092C93.9547 25.3596 93.9096 25.315 93.9096 25.2594V24.8617C93.9096 24.8069 93.9539 24.7615 94.0092 24.7615H95.1743V20.3741H94.3333C94.2843 20.3741 94.2448 20.3344 94.2448 20.2851V20.099C94.2448 20.0497 94.2843 20.0099 94.3333 20.0099H94.4574V19.8652H94.2456V19.9169C94.2456 19.9678 94.2045 20.0099 94.1531 20.0099H92.9002V24.9691C92.9002 25.3588 93.1105 25.4033 93.2409 25.4033H94.9119C94.9562 25.4033 94.9925 25.4399 94.9925 25.4844V25.6713C94.9925 25.7158 94.9562 25.7524 94.9119 25.7524H92.1453C91.6995 25.7524 91.4893 25.1902 91.4893 24.7615V20.0107H87.9489V20.9928C87.9489 21.1916 87.8121 21.3579 87.6287 21.404V21.7109V22.5324H87.4343V21.8684H83.2971V25.0621H83.5888V26.0904H88.7061C88.9725 26.0904 89.2088 26.2598 89.2958 26.5135C89.4452 26.9501 89.6365 27.7167 89.6365 28.7696C89.6365 29.8821 89.423 30.6734 89.2713 31.0957C89.1954 31.308 88.9954 31.4488 88.7717 31.4488H76.4858C76.2558 31.4488 76.0527 31.3009 75.9807 31.0806C75.8408 30.6504 75.6456 29.8551 75.6456 28.7688C75.6456 27.7405 75.8203 26.9731 75.9578 26.5294C76.0392 26.2677 76.2803 26.0896 76.553 26.0896H79.5915V21.8684H77.7047V22.5324H77.5103V21.7117V21.4119C77.3071 21.3809 77.1514 21.206 77.1514 20.9936V19.8676H65.931L65.9239 19.8906L65.7168 19.8676H65.2607L65.7879 20.2485L65.633 20.5992L64.8995 20.4385L65.4599 20.9411L65.2694 21.2736L64.5564 21.0366L65.0615 21.5956L64.837 21.9058L64.1525 21.5948L64.5967 22.204L64.3414 22.4895L63.7865 22.1634L64.0276 22.6859L64.0711 22.7607L64.0648 22.7662L69.537 34.6091L66.5618 36L65.9168 34.6035L65.6662 34.7212L64.9153 33.0965L64.4497 33.3144L60.4406 24.6383L60.3829 24.651L60.0809 23.9591L60.0058 24.7106L59.6264 24.7504L59.398 24.0307L59.2454 24.7703H58.8637L58.7111 24.0307L58.4827 24.7504L58.1032 24.7106L58.0282 23.9591L57.7262 24.651L57.3531 24.5715L57.3571 23.816L56.9848 24.4721L56.622 24.3536L56.7042 23.6028L56.2655 24.216L55.9169 24.0601L56.0765 23.3221L55.577 23.886L55.2466 23.6943L55.4821 22.977L54.9264 23.4852L54.6182 23.2593L54.9272 22.5706L54.3218 23.0175L54.038 22.7607L54.4166 22.1086L53.7684 22.4895L53.5131 22.204L53.9574 21.5948L53.2728 21.9058L53.0483 21.5956L53.5534 21.0366L52.8405 21.2736L52.65 20.9411L53.2104 20.4385L52.4769 20.5992L52.3219 20.2485L52.8492 19.8676H52.3931L52.186 19.8906L52.1789 19.8676H41.8944V19.3936H41.7363V21.1185H42.5773V21.3579H42.3291V25.7301H42.5773V25.9695H41.7363V26.2844H40.8044L38.9824 26.9238H38.7318V31.3772H4.42649V25.6514H2.05516C0.920078 25.6514 0 24.7257 0 23.5838V12.2761C0 11.1341 0.920078 10.2085 2.05516 10.2085H4.42649V4.48265H38.7318V8.93605H39.0029L40.8146 9.47921H41.7355V9.89035H42.5765V10.1297H42.3283V14.502H42.5765V14.7414H41.7355V15.9931H51.9141L51.9694 15.7315L52.7203 15.7354L52.0682 15.3609L52.186 14.9959L52.9322 15.0786L52.3227 14.6372L52.4776 14.2865L53.2112 14.4471L52.6508 13.9445L52.8413 13.6121L53.5542 13.8491L53.0491 13.29L53.2736 12.9799L53.9582 13.2908L53.5139 12.6817L53.7692 12.3962L54.4174 12.7771L54.0388 12.125L54.3225 11.8681L54.6514 12.1115L51.239 4.70055L51.7046 4.48265L50.9718 2.86432L51.2224 2.74662L50.5774 1.40026L53.5519 0.00857544L58.2384 10.1599L58.4819 10.1345L58.7103 10.8542L58.8629 10.1146H59.2446L59.3972 10.8542L59.6256 10.1345L60.0051 10.1743L60.0802 10.9258L60.3821 10.2339L60.7552 10.3134L60.7512 11.0689L61.1235 10.4128L61.4864 10.5313L61.4041 11.282L61.8428 10.6689L62.1914 10.8248L62.0318 11.5628L62.5313 10.9989L62.8617 11.1906L62.6262 11.9079L63.1819 11.3997L63.4901 11.6256L63.1811 12.3143L63.7865 11.8673L64.0703 12.1242L63.6917 12.7763L64.3399 12.3954L64.5952 12.6809L64.1509 13.29L64.8355 12.9791L65.06 13.2893L64.5549 13.8483L65.2678 13.6113L65.4583 13.9437L64.8979 14.4463L65.6314 14.2857L65.7864 14.6364L65.1769 15.0778L65.9231 14.9951L66.0409 15.3601L65.3888 15.7346L66.1397 15.7307L66.195 15.9923H77.1514V14.8662C77.1514 14.6531 77.3071 14.4789 77.5103 14.4479V14.1489V13.3274H77.7047V13.9915H79.5915V9.77027H76.553C76.2803 9.77027 76.0392 9.59293 75.9578 9.3305C75.8203 8.88675 75.6456 8.11933 75.6456 7.09107C75.6456 6.00476 75.8408 5.21031 75.9807 4.77928C76.0519 4.55979 76.2558 4.41108 76.4858 4.41108H88.7717C88.9962 4.41108 89.1954 4.55184 89.2713 4.76417C89.423 5.18645 89.6365 5.97852 89.6365 7.09028C89.6365 8.14398 89.4452 8.90981 89.2958 9.3464C89.2088 9.60008 88.9725 9.76947 88.7061 9.76947H83.5888V10.7977H83.2971V13.9915H87.4343V13.3274H87.6287V14.1481V14.4551C87.8121 14.5012 87.9489 14.6666 87.9489 14.8662V15.8484H91.4893V11.0975C91.4893 10.6689 91.6995 10.1067 92.1453 10.1067H94.9119C94.9562 10.1067 94.9925 10.1432 94.9925 10.1878V10.3747C94.9925 10.4192 94.9562 10.4558 94.9119 10.4558H93.2409C93.1113 10.4558 92.9002 10.5011 92.9002 10.89V15.8492H94.1531C94.2037 15.8492 94.2456 15.8905 94.2456 15.9422V15.9939H94.4574V15.8492H94.3333C94.2843 15.8492 94.2448 15.8094 94.2448 15.7601V15.574C94.2448 15.5247 94.2843 15.4849 94.3333 15.4849H95.1743V11.0975H94.0092C93.9547 11.0975 93.9096 11.053 93.9096 10.9973V10.5997C93.9096 10.5448 93.9539 10.4995 94.0092 10.4995H95.1743V3.87906H95.4067V3.6198H97.582V3.49097H99.7731V5.62065H100V30.2384H99.7731ZM16.2832 10.645H8.3392V11.3608H16.2832V10.645ZM16.2832 24.4983H8.3392V25.214H16.2832V24.4983ZM19.1288 10.645H17.8641V11.3608H19.1288V10.645ZM19.1288 24.4983H17.8641V25.214H19.1288V24.4983ZM26.8751 10.645H21.3815V11.3608H22.1325V11.5596H22.6858V10.9234H26.5985V11.5596H26.8751V10.645ZM26.8751 24.2995H26.5985V24.9357H22.6858V24.2995H22.1325V24.4983H21.3815V25.214H26.8751V24.2995ZM81.8988 10.7985H81.6656V9.77027H80.2895V13.9915H81.8988V10.7977V10.7985ZM81.8988 21.8668H80.2895V26.088H81.6656V25.0597H81.8988V21.866V21.8668ZM91.4893 16.3931H91.1209V16.7502C91.1209 16.8559 91.0356 16.941 90.9312 16.941H87.9489V17.1772H91.4893V16.3923V16.3931ZM91.4893 18.681H87.9489V18.9172H90.9107C91.0269 18.9172 91.1209 19.0119 91.1209 19.1288V19.4652H91.4893V18.6803V18.681ZM94.8052 19.6099H94.84C94.9238 19.6099 94.9925 19.6393 94.9925 19.6751V19.8016C94.9925 19.8373 94.9245 19.8668 94.84 19.8668H94.8052V20.0115H95.1743V19.466H94.8052V19.6107V19.6099ZM95.1743 15.8476H94.8052V15.9923H94.84C94.9238 15.9923 94.9925 16.0217 94.9925 16.0575V16.184C94.9925 16.2197 94.9245 16.2492 94.84 16.2492H94.8052V16.3939H95.1743V15.8484V15.8476ZM95.2518 17.8993H95.1743V16.7573H94.342C94.2882 16.7573 94.2448 16.7136 94.2448 16.6595V16.4909C94.2448 16.4368 94.2882 16.3931 94.342 16.3931H94.4566V16.2484H94.2448V16.3001C94.2448 16.351 94.2037 16.3931 94.1523 16.3931H92.8994V17.178H93.648C93.8733 17.178 94.0558 17.3403 94.0558 17.5407V17.6178H94.9332C95.017 17.6178 95.0858 17.6798 95.0858 17.757V18.1021C95.0858 18.1792 95.0178 18.2413 94.9332 18.2413H94.0558V18.3184C94.0558 18.5188 93.8733 18.681 93.648 18.681H92.8994V19.466H94.1523C94.2029 19.466 94.2448 19.5073 94.2448 19.559V19.6107H94.4566V19.466H94.342C94.2882 19.466 94.2448 19.4222 94.2448 19.3681V19.1995C94.2448 19.1455 94.2882 19.1017 94.342 19.1017H95.1743V17.9598H95.2518V17.8985V17.8993ZM42.7457 24.6136C42.7457 23.8319 42.4611 23.6856 42.4611 23.6856H42.3781V25.5425H42.4611C42.4611 25.5425 42.7457 25.3961 42.7457 24.6144V24.6136ZM42.7457 22.4633C42.7457 21.6815 42.4611 21.5352 42.4611 21.5352H42.3781V23.3921H42.4611C42.4611 23.3921 42.7457 23.2458 42.7457 22.464V22.4633ZM42.7457 11.2455C42.7457 10.4637 42.4611 10.3174 42.4611 10.3174H42.3781V12.1743H42.4611C42.4611 12.1743 42.7457 12.028 42.7457 11.2463V11.2455ZM42.7457 13.3958C42.7457 12.6141 42.4611 12.4678 42.4611 12.4678H42.3781V14.3247H42.4611C42.4611 14.3247 42.7457 14.1783 42.7457 13.3966V13.3958Z" fill="#231F20"/>
<path d="M65.6654 34.7214L67.9229 33.6653L53.2294 1.86648L50.9718 2.92257L51.7046 4.5083L51.239 4.7262L64.4489 33.3146L64.9145 33.0967L65.6654 34.7214ZM99.7731 30.2386V32.3683H97.582V32.2395H95.4067V31.9802H95.1743V25.3598H93.976C93.9215 25.3598 93.8661 25.3152 93.8661 25.2596V24.8619C93.8661 24.8071 93.9215 24.7617 93.976 24.7617H95.1743V20.3743H94.3333C94.2843 20.3743 94.2448 20.3346 94.2448 20.2853V20.0992C94.2448 20.0499 94.2843 20.0101 94.3333 20.0101H95.1743V19.4646H94.342C94.2882 19.4646 94.2448 19.4208 94.2448 19.3668V19.1982C94.2448 19.1441 94.2882 19.1003 94.342 19.1003H95.1743V16.7544H94.342C94.2882 16.7544 94.2448 16.7106 94.2448 16.6565V16.4879C94.2448 16.4339 94.2882 16.3901 94.342 16.3901H95.1743V15.8446H94.3333C94.2843 15.8446 94.2448 15.8048 94.2448 15.7555V15.5694C94.2448 15.5201 94.2843 15.4804 94.3333 15.4804H95.1743V11.2178H93.965C93.9104 11.2178 93.8653 11.1733 93.8653 11.1176V10.5498C93.8653 10.4949 93.9096 10.4496 93.965 10.4496H95.1743V3.87449H95.4067V3.61523H97.582V3.4864H99.7731V5.62404H100V30.2386H99.7731ZM94.9917 10.3741V10.1872C94.9917 10.1426 94.9554 10.1061 94.9111 10.1061H92.1446C91.6987 10.1061 91.4885 10.6683 91.4885 11.0969V15.8478H87.9481V14.8656C87.9481 14.631 87.7592 14.441 87.526 14.441H77.5727C77.3395 14.441 77.1506 14.631 77.1506 14.8656V20.9922C77.1506 21.2268 77.3395 21.4169 77.5727 21.4169H87.526C87.7592 21.4169 87.9481 21.2268 87.9481 20.9922V20.0101H91.4885V24.7609C91.4885 25.1896 91.6987 25.7518 92.1446 25.7518H94.9111C94.9554 25.7518 94.9917 25.7152 94.9917 25.6707V25.4838C94.9917 25.4393 94.9554 25.4027 94.9111 25.4027H93.2401C93.1105 25.4027 92.8994 25.3574 92.8994 24.9685V20.0093H94.1523C94.2029 20.0093 94.2448 19.968 94.2448 19.9163V19.8646H94.8392C94.923 19.8646 94.9917 19.8352 94.9917 19.7994V19.6729C94.9917 19.6371 94.9238 19.6077 94.8392 19.6077H94.2448V19.556C94.2448 19.5051 94.2037 19.463 94.1523 19.463H92.8994V18.6781H93.648C93.8733 18.6781 94.0558 18.5158 94.0558 18.3154V18.2383H95.251C95.3348 18.2383 95.4036 18.1763 95.4036 18.0991V17.6991C95.4036 17.622 95.3356 17.5599 95.251 17.5599H94.0558V17.6124V17.5369C94.0558 17.3365 93.8733 17.1742 93.648 17.1742H92.8994V16.3893H94.1523C94.2029 16.3893 94.2448 16.348 94.2448 16.2963V16.2446H94.8392C94.923 16.2446 94.9917 16.2152 94.9917 16.1794V16.0529C94.9917 16.0172 94.9238 15.9877 94.8392 15.9877H94.2448V15.936C94.2448 15.8851 94.2037 15.843 94.1523 15.843H92.8994V10.8838C92.8994 10.4941 93.1097 10.4496 93.2401 10.4496H94.9111C94.9554 10.4496 94.9917 10.413 94.9917 10.3685V10.3741ZM91.4893 17.1782H87.9489V16.942H90.9344C91.0371 16.942 91.1209 16.8577 91.1209 16.7544V16.3941H91.4893V17.179V17.1782ZM91.4893 19.4662H91.1209V19.1202C91.1209 19.0089 91.0308 18.9182 90.9202 18.9182H87.9489V18.682H91.4893V19.467V19.4662ZM41.7355 19.393H42.9891V15.9925H41.7355V14.7408H42.5765V14.5014H42.3283V10.1291H42.5765V9.88976H41.7355V9.48816H40.8202L38.9365 8.93546H38.7318V4.48206H4.42649V10.2079H2.05516C0.920078 10.2079 0 11.1335 0 12.2755V23.5832C0 24.7251 0.920078 25.6508 2.05516 25.6508H4.42649V31.3774H38.7318V26.924H38.9784L40.8091 26.2878H41.7355V25.9697H42.5765V25.7303H42.3283V21.3581H42.5765V21.1187H41.7355V19.3938V19.393ZM16.2832 11.361H8.3392V10.6452H16.2832V11.361ZM16.2832 25.2142H8.3392V24.4985H16.2832V25.2142ZM19.1288 11.361H17.8641V10.6452H19.1288V11.361ZM19.1288 25.2142H17.8641V24.4985H19.1288V25.2142ZM26.8751 11.5598H26.5985V10.9236H22.6858V11.5598H22.1325V11.361H21.3815V10.6452H26.8751V11.5598ZM26.8751 25.2142H21.3815V24.4985H22.1325V24.2997H22.6858V24.9359H26.5985V24.2997H26.8751V25.2142ZM79.5907 28.2489V21.7111H80.2902V28.2489H80.7242V29.6032H80.1875V30.948C80.1875 31.0156 80.1329 31.0696 80.0666 31.0696H79.6919C79.4461 31.0696 79.2461 30.8692 79.2461 30.6211V29.7654C79.2461 29.7082 79.2571 29.6533 79.2769 29.6024H79.2461V28.2481H79.5907V28.2489ZM80.2902 14.1483H79.5907V7.61057H79.2461V6.25626H79.2769C79.2737 6.24751 79.2698 6.23877 79.2674 6.23002C79.2674 6.22922 79.2674 6.22843 79.2666 6.22684C79.2627 6.21491 79.2603 6.20378 79.2579 6.19185C79.2579 6.18946 79.2563 6.18707 79.2563 6.18389C79.254 6.17356 79.2532 6.16401 79.2516 6.15367C79.2516 6.1489 79.25 6.14413 79.2492 6.13936C79.2477 6.12425 79.2469 6.10914 79.2469 6.09323V5.23755C79.2469 4.99022 79.4461 4.78902 79.6927 4.78902H80.0673C80.1345 4.78902 80.1883 4.8439 80.1883 4.9107V6.25547H80.725V7.60978H80.291V14.1475L80.2902 14.1483Z" fill="#FFCE18"/>
<path opacity="0.3" d="M38.7318 31.366V26.9126H38.0038V25.6402H26.8752V25.2028H4.42651V31.366H38.7318ZM38.0038 10.2187H26.8752V10.6561H4.42651V4.49288H38.7318V8.94628H38.0038V10.2187Z" fill="url(#paint0_linear_6566_5340)"/>
<path opacity="0.4" d="M96.4209 24.6986V25.4143H95.723V31.9409H95.1744V25.3594H93.9903C93.9215 25.3594 93.8662 25.3038 93.8662 25.2346V24.8886C93.8662 24.8195 93.9215 24.7638 93.9903 24.7638H95.2534V11.2223H93.9903C93.9215 11.2223 93.8662 11.2032 93.8662 11.1348V10.5805C93.8662 10.5113 93.9215 10.4557 93.9903 10.4557H95.1744V4.04991H95.723V10.4056H96.4209V11.2604H96.1972V24.7002H96.4209V24.6986Z" fill="url(#paint1_linear_6566_5340)"/>
<path d="M59.2447 25.2483L59.3973 24.5087L59.6257 25.2276L60.0051 25.1879L60.0802 24.4363L60.3822 25.1282L60.7553 25.0479L60.7513 24.2924L61.1236 24.9485L61.4864 24.83L61.4042 24.0793L61.8429 24.6924L62.1915 24.5365L62.0318 23.7986L62.5314 24.3624L62.8618 24.1699L62.6262 23.4534L63.1811 23.9616L63.4902 23.7357L63.1811 23.047L63.7866 23.494L64.0704 23.2371L63.6918 22.585L64.3399 22.9659L64.5952 22.6804L64.151 22.0721L64.8355 22.3822L65.0592 22.0721L64.5541 21.513L65.2671 21.75L65.4576 21.4176L64.8972 20.915L65.6307 21.0756L65.7864 20.7249L65.177 20.2843L65.9232 20.367L66.041 20.002L65.3888 19.6275L66.1398 19.6306L66.2188 19.2553L65.5311 18.9515L66.2789 18.8767L66.3184 18.495L65.6031 18.2652L66.3382 18.1117V17.7276L65.6031 17.5741L66.3184 17.3443L66.2789 16.9626L65.5311 16.8878L66.2188 16.584L66.1398 16.2079L65.3888 16.2119L66.041 15.8373L65.9232 15.4723L65.177 15.555L65.7864 15.1144L65.6307 14.7637L64.8972 14.9244L65.4576 14.4218L65.2671 14.0893L64.5541 14.3263L65.0592 13.7673L64.8355 13.4571L64.151 13.7673L64.5952 13.1589L64.3399 12.8734L63.6918 13.2543L64.0704 12.6022L63.7866 12.3454L63.1811 12.7923L63.4902 12.1036L63.1811 11.8778L62.6262 12.3859L62.8618 11.6686L62.5314 11.4769L62.0318 12.0408L62.1915 11.3028L61.8429 11.1469L61.4042 11.7601L61.4864 11.0093L61.1236 10.8908L60.7513 11.5469L60.7553 10.7914L60.3822 10.7111L60.0802 11.403L60.0051 10.6515L59.6257 10.6109L59.3973 11.3306L59.2447 10.591H58.8637L58.7112 11.3306L58.4827 10.6109L58.1033 10.6515L58.0282 11.403L57.7263 10.7111L57.3532 10.7914L57.3571 11.5469L56.9848 10.8908L56.622 11.0093L56.7042 11.7601L56.2655 11.1469L55.9169 11.3028L56.0766 12.0408L55.577 11.4769L55.2466 11.6686L55.4822 12.3859L54.9273 11.8778L54.6182 12.1036L54.9273 12.7923L54.3218 12.3454L54.0388 12.6022L54.4175 13.2543L53.7685 12.8734L53.5132 13.1589L53.9574 13.7673L53.2737 13.4571L53.0492 13.7673L53.5543 14.3263L52.8413 14.0893L52.6508 14.4218L53.2112 14.9244L52.4777 14.7637L52.322 15.1144L52.9322 15.555L52.1852 15.4723L52.0675 15.8373L52.7196 16.2119L51.9687 16.2079L51.8896 16.584L52.5773 16.8878L51.8303 16.9626L51.79 17.3443L52.5054 17.5741L51.7703 17.7276V18.1117L52.5054 18.2652L51.79 18.495L51.8303 18.8767L52.5773 18.9515L51.8896 19.2553L51.9687 19.6306L52.7196 19.6275L52.0675 20.002L52.1852 20.367L52.9322 20.2843L52.322 20.7249L52.4777 21.0756L53.2112 20.915L52.6508 21.4176L52.8413 21.75L53.5543 21.513L53.0492 22.0721L53.2737 22.3822L53.9574 22.0721L53.5132 22.6804L53.7685 22.9659L54.4175 22.585L54.0388 23.2371L54.3218 23.494L54.9273 23.047L54.6182 23.7357L54.9273 23.9616L55.4822 23.4534L55.2466 24.1699L55.577 24.3624L56.0766 23.7986L55.9169 24.5365L56.2655 24.6924L56.7042 24.0793L56.622 24.83L56.9848 24.9485L57.3571 24.2924L57.3532 25.0479L57.7263 25.1282L58.0282 24.4363L58.1033 25.1879L58.4827 25.2276L58.7112 24.5087L58.8637 25.2483H59.2447Z" fill="url(#paint2_radial_6566_5340)"/>
<path opacity="0.15" d="M98.4514 29.0599H97.7779V32.1152H95.4619V31.9411H95.7228V25.4145H96.4207V24.6987H96.197V11.259H96.4207V10.4041H95.7228V4.04927H95.4619V3.77093H97.7779V6.91217H98.4514V29.0599Z" fill="url(#paint3_linear_6566_5340)"/>
<path d="M41.7354 19.8667V15.9922H77.4239C77.4239 15.9922 78.1101 16.9139 78.1101 17.9931C78.1101 19.0722 77.4239 19.8659 77.4239 19.8659H41.7354V19.8667Z" fill="#231F20"/>
<path opacity="0.3" d="M77.0366 16.3374H41.7354V19.6099H77.0366C77.0366 19.6099 78.1101 19.2417 78.1101 17.9931C78.1101 16.7446 77.0366 16.3366 77.0366 16.3366V16.3374Z" fill="url(#paint4_linear_6566_5340)"/>
<path d="M87.5719 16.2961C87.477 16.2961 87.4011 16.3733 87.4011 16.4679V16.7685C87.4011 16.864 87.4778 16.9403 87.5719 16.9403H87.9489V17.217H87.824C87.4312 17.217 87.1126 17.5375 87.1126 17.9328C87.1126 18.328 87.4312 18.6485 87.824 18.6485H87.9489V18.9133H87.5719C87.477 18.9133 87.4011 19.0151 87.4011 19.1105V19.4732C87.4011 19.5686 87.4778 19.6449 87.5719 19.6449H87.9489V20.9921C87.9489 21.1909 87.8122 21.3571 87.6288 21.4032V21.7102H77.5095V21.4112C77.3064 21.3802 77.1506 21.2052 77.1506 20.9929V19.6457C77.1506 19.6457 77.9608 19.2425 77.9608 17.994C77.9608 16.7455 77.1506 16.1291 77.1506 16.1291V15.0428C77.1506 14.8297 77.3064 14.6555 77.5095 14.6245V13.9923H87.6288V14.4456C87.8122 14.4917 87.9489 14.6571 87.9489 14.8567V16.2977H87.5719V16.2961Z" fill="url(#paint5_linear_6566_5340)"/>
<path opacity="0.3" d="M92.9003 19.4659V18.681H91.4893V19.4659H92.9003ZM94.9111 25.7532H92.1446C91.6988 25.7532 91.4885 25.1909 91.4885 24.7623V20.0107H92.8995V24.9699C92.8995 25.3595 93.1097 25.4041 93.2401 25.4041H94.9111C94.9554 25.4041 94.9918 25.4406 94.9918 25.4852V25.6721C94.9918 25.7166 94.9554 25.7532 94.9111 25.7532Z" fill="url(#paint6_linear_6566_5340)"/>
<path opacity="0.3" d="M91.4893 16.4026V17.178H92.9003V16.4026H91.4893ZM94.9111 10.4549H93.2401C93.1105 10.4549 92.8995 10.5003 92.8995 10.8891V15.8483H91.4885V11.0975C91.4885 10.6689 91.6988 10.1066 92.1446 10.1066H94.9111C94.9554 10.1066 94.9918 10.1432 94.9918 10.1877V10.3746C94.9918 10.4191 94.9554 10.4557 94.9111 10.4557V10.4549Z" fill="url(#paint7_linear_6566_5340)"/>
<path opacity="0.2" d="M80.2904 14.0137H79.5908V7.60952H80.2904V14.0137Z" fill="url(#paint8_linear_6566_5340)"/>
<path opacity="0.4" d="M80.2902 6.25531V6.42867C80.2902 6.49627 80.3448 6.55035 80.4112 6.55035C80.5329 6.55035 80.6435 6.50104 80.7242 6.42152V7.60962H79.2468V6.25531H79.2777C79.3425 6.42231 79.5037 6.5408 79.6926 6.5408H80.0673C80.1345 6.5408 80.1882 6.48593 80.1882 6.41913V6.2561H80.291L80.2902 6.25531Z" fill="url(#paint9_radial_6566_5340)"/>
<path d="M55.3937 23.7905H58.6764C58.9009 23.7905 59.0835 23.6068 59.0835 23.381V19.2807H54.9858V23.381C54.9858 23.6068 55.1684 23.7905 55.3929 23.7905H55.3937Z" fill="url(#paint10_linear_6566_5340)"/>
<path d="M99.7731 32.3682H97.582V28.9669H99.7731V32.3682Z" fill="#231F20"/>
<path opacity="0.2" d="M93.9538 25.3596H96.3639V24.7599H93.9538C93.8993 24.7599 93.8542 24.8045 93.8542 24.8601V25.2601C93.8542 25.315 93.8985 25.3604 93.9538 25.3604V25.3596Z" fill="#231F20"/>
<path d="M83.5897 26.3418H81.6665V25.0606H83.5897V26.3418Z" fill="url(#paint11_linear_6566_5340)"/>
<path d="M83.2972 25.0605H81.8989V21.711H83.2972V25.0605Z" fill="url(#paint12_linear_6566_5340)"/>
<path d="M87.6288 22.5317H87.4343V21.711H87.6288V22.5317Z" fill="#231F20"/>
<path opacity="0.2" d="M93.6489 17.1758H87.6383C87.4131 17.1758 87.2305 17.338 87.2305 17.5384V18.3026C87.2305 18.5031 87.4131 18.6653 87.6383 18.6653H93.6489C93.8742 18.6653 94.0568 18.5031 94.0568 18.3026V17.5384C94.0568 17.338 93.8742 17.1758 93.6489 17.1758Z" fill="#231F20"/>
<path d="M92.6906 17.633H94.9339C95.0177 17.633 95.0865 17.695 95.0865 17.7721V18.0417C95.0865 18.1189 95.0185 18.1809 94.9339 18.1809H92.6906C92.6069 18.1809 92.5381 18.1189 92.5381 18.0417V17.7721C92.5381 17.695 92.6061 17.633 92.6906 17.633Z" fill="#231F20"/>
<path d="M92.5959 19.6098H94.8392C94.923 19.6098 94.9918 19.6393 94.9918 19.675V19.8015C94.9918 19.8373 94.9238 19.8667 94.8392 19.8667H92.5959C92.5121 19.8667 92.4434 19.8373 92.4434 19.8015V19.675C92.4434 19.6393 92.5113 19.6098 92.5959 19.6098Z" fill="#231F20"/>
<path d="M77.704 22.5317H77.5095V21.711H77.704V22.5317Z" fill="#231F20"/>
<path d="M87.6288 14.2507H87.4343V13.43H87.6288V14.2507Z" fill="#231F20"/>
<path d="M77.704 14.2507H77.5095V13.43H77.704V14.2507Z" fill="#231F20"/>
<path d="M99.7731 7.0625H97.582V3.49103H99.7731V7.0625Z" fill="#231F20"/>
<path d="M99.9998 30.2383H98.3557V5.62052H99.9998V30.2383Z" fill="#231F20"/>
<path opacity="0.2" d="M93.9648 11.2223H96.3789V10.4549H93.9648C93.9103 10.4549 93.8652 10.4995 93.8652 10.5551V11.1229C93.8652 11.1778 93.9095 11.2231 93.9648 11.2231V11.2223Z" fill="#231F20"/>
<path d="M83.5897 10.7986H81.6665V9.51744H83.5897V10.7986Z" fill="url(#paint13_linear_6566_5340)"/>
<path d="M83.2972 14.1482H81.8989V10.7827H83.2972V14.1482Z" fill="url(#paint14_linear_6566_5340)"/>
<path d="M87.6288 14.1482H87.4343V13.3275H87.6288V14.1482Z" fill="#231F20"/>
<path d="M92.5959 16.2493H94.8392C94.923 16.2493 94.9918 16.2198 94.9918 16.1841V16.0576C94.9918 16.0218 94.9238 15.9924 94.8392 15.9924H92.5959C92.5121 15.9924 92.4434 16.0218 92.4434 16.0576V16.1841C92.4434 16.2198 92.5113 16.2493 92.5959 16.2493Z" fill="#231F20"/>
<path d="M77.704 14.1482H77.5095V13.3275H77.704V14.1482Z" fill="#231F20"/>
<path d="M87.6288 22.4282H87.4343V21.6075H87.6288V22.4282Z" fill="#231F20"/>
<path d="M77.704 22.4282H77.5095V21.6075H77.704V22.4282Z" fill="#231F20"/>
<path d="M21.3791 25.2139V23.9677H19.1263V25.2139H21.3791ZM19.0852 10.6449H21.338V12.0668H19.0852V10.6449Z" fill="#231F20"/>
<path d="M17.8641 25.2139V23.9677H16.2832V25.2139H17.8641ZM16.2832 10.6449H17.8641V12.0668H16.2832V10.6449Z" fill="url(#paint15_linear_6566_5340)"/>
<path opacity="0.35" d="M22.6833 24.9358V17.6927V15.9924V10.9243H26.5961V15.9924V17.6927V24.9358H22.6833Z" fill="url(#paint16_linear_6566_5340)"/>
<path opacity="0.2" d="M26.875 25.6514V19.0977V18.176V10.2076H38.0037V18.176V19.0977V25.6514H26.875Z" fill="url(#paint17_radial_6566_5340)"/>
<path opacity="0.2" d="M38.0039 26.9238V8.93607H38.9366L40.8021 9.49274H41.7348V9.89037C41.7348 9.89037 41.4186 10.4486 41.4186 12.3867C41.4186 14.3247 41.7348 14.805 41.7348 14.805V21.2378C41.7348 21.2378 41.4368 21.7197 41.4368 23.544C41.4368 25.3683 41.7348 25.9695 41.7348 25.9695V26.2876H40.8021L38.9738 26.9111L38.9366 26.9238H38.0039Z" fill="url(#paint18_linear_6566_5340)"/>
<path d="M42.4619 23.6848H42.3789V25.5417H42.4619C42.4619 25.5417 42.7465 25.3954 42.7465 24.6137C42.7465 23.832 42.4619 23.6856 42.4619 23.6856V23.6848ZM42.4619 23.3922H42.3789V21.5353H42.4619C42.4619 21.5353 42.7465 21.6816 42.7465 22.4633C42.7465 23.2451 42.4619 23.3914 42.4619 23.3914V23.3922ZM42.4619 12.1744H42.3789V10.3175H42.4619C42.4619 10.3175 42.7465 10.4638 42.7465 11.2455C42.7465 12.0273 42.4619 12.1736 42.4619 12.1736V12.1744ZM42.4619 14.324H42.3789V12.467H42.4619C42.4619 12.467 42.7465 12.6134 42.7465 13.3951C42.7465 14.1768 42.4619 14.3232 42.4619 14.3232V14.324Z" fill="url(#paint19_linear_6566_5340)"/>
<path d="M81.4736 29.1553V28.6972C81.4736 28.4499 81.2744 28.2487 81.0278 28.2487H80.9266C80.8594 28.2487 80.8057 28.3036 80.8057 28.3704V29.4814C80.8057 29.549 80.8602 29.603 80.9266 29.603H81.0278C81.2736 29.603 81.4736 29.4026 81.4736 29.1545V29.1553ZM81.4736 6.7038V7.16187C81.4736 7.40919 81.2744 7.61039 81.0278 7.61039H80.9266C80.8594 7.61039 80.8057 7.55552 80.8057 7.48872V6.37775C80.8057 6.31016 80.8602 6.25608 80.9266 6.25608H81.0278C81.2736 6.25608 81.4736 6.45648 81.4736 6.7046V6.7038Z" fill="url(#paint20_linear_6566_5340)"/>
<path opacity="0.35" d="M6.41527 23.9678H22.1325V12.0669H6.41527C5.31814 12.0669 4.42651 12.9631 4.42651 14.0677V21.9669C4.42651 23.0707 5.31735 23.9678 6.41527 23.9678Z" fill="url(#paint21_linear_6566_5340)"/>
<path opacity="0.2" d="M37.6119 25.9355H11.1833V30.6553H37.6119L37.0625 30.0485V26.4874L37.6119 25.9355Z" fill="url(#paint22_linear_6566_5340)"/>
<path opacity="0.1" d="M36.2419 18.2142H29.5792C29.1674 18.2142 28.8323 18.5514 28.8323 18.9657V22.7209C28.8323 23.1352 29.1674 23.4724 29.5792 23.4724H36.2419C36.6537 23.4724 36.9889 23.1352 36.9889 22.7209V18.9657C36.9889 18.5514 36.6537 18.2142 36.2419 18.2142ZM29.58 23.3126C29.2552 23.3126 28.9912 23.047 28.9912 22.7201V18.9649C28.9912 18.6381 29.2552 18.3725 29.58 18.3725H36.2427C36.5676 18.3725 36.8316 18.6381 36.8316 18.9649V22.7201C36.8316 23.047 36.5676 23.3126 36.2427 23.3126H29.58Z" fill="url(#paint23_linear_6566_5340)"/>
<path opacity="0.1" d="M29.5801 23.3125C29.2552 23.3125 28.9912 23.0469 28.9912 22.72V18.9649C28.9912 18.638 29.2552 18.3724 29.5801 18.3724H36.2428C36.5676 18.3724 36.8316 18.638 36.8316 18.9649V22.72C36.8316 23.0469 36.5676 23.3125 36.2428 23.3125H29.5801Z" fill="url(#paint24_radial_6566_5340)"/>
<path opacity="0.1" d="M36.2419 12.3627H29.5792C29.1674 12.3627 28.8323 12.6998 28.8323 13.1142V16.8693C28.8323 17.2837 29.1674 17.6208 29.5792 17.6208H36.2419C36.6537 17.6208 36.9889 17.2837 36.9889 16.8693V13.1142C36.9889 12.6998 36.6537 12.3627 36.2419 12.3627ZM29.58 17.4602C29.2552 17.4602 28.9912 17.1946 28.9912 16.8677V13.1126C28.9912 12.7857 29.2552 12.5201 29.58 12.5201H36.2427C36.5676 12.5201 36.8316 12.7857 36.8316 13.1126V16.8677C36.8316 17.1946 36.5676 17.4602 36.2427 17.4602H29.58Z" fill="url(#paint25_linear_6566_5340)"/>
<path opacity="0.1" d="M29.5801 17.4602C29.2552 17.4602 28.9912 17.1946 28.9912 16.8677V13.1126C28.9912 12.7857 29.2552 12.5201 29.5801 12.5201H36.2428C36.5676 12.5201 36.8316 12.7857 36.8316 13.1126V16.8677C36.8316 17.1946 36.5676 17.4602 36.2428 17.4602H29.5801Z" fill="url(#paint26_radial_6566_5340)"/>
<path opacity="0.35" d="M11.1831 30.6687V25.9346H8.33911V30.6687H11.1831ZM8.33911 8.22277V5.20162H11.1831V9.93574H8.33911V8.22357V8.22277Z" fill="url(#paint27_linear_6566_5340)"/>
<path opacity="0.35" d="M8.33919 30.6687V25.9346H6.38916V30.6687H8.33919ZM6.38916 8.22277V5.20162H8.33919V9.93574H6.38916V8.22357V8.22277Z" fill="url(#paint28_linear_6566_5340)"/>
<path opacity="0.2" d="M37.6119 9.93481H11.1833V5.21421H37.6119L37.0625 5.82178V9.38291L37.6119 9.93481Z" fill="url(#paint29_linear_6566_5340)"/>
<path d="M22.1324 24.2995H22.6833V11.5604H22.1324V24.2995ZM26.596 24.3433L26.5984 11.5596H26.875V24.3433H26.596ZM18.4568 12.067H18.5359V23.9679H18.4568V12.067ZM8.33911 12.067H8.4972V23.9679H8.33911V12.067ZM8.89163 12.067H8.97068V23.9679H8.89163V12.067ZM8.62762 12.067H8.70667V23.9679H8.62762V12.067ZM17.9043 12.067H18.0624V23.9679H17.9043V12.067ZM18.1928 12.067H18.2718V23.9679H18.1928V12.067Z" fill="#231F20"/>
<path d="M6.41525 12.067C5.31732 12.067 4.42649 12.9624 4.42649 14.0678V21.967C4.42649 23.0716 5.31653 23.9679 6.41525 23.9679H8.3392V25.2482C8.3392 25.4709 8.15976 25.6506 7.93923 25.6506H2.05516C0.920078 25.6506 0 24.725 0 23.583V12.2753C0 11.1333 0.920078 10.2077 2.05516 10.2077H7.8839C8.13526 10.2077 8.3392 10.4128 8.3392 10.6657V12.067H6.41525Z" fill="url(#paint30_linear_6566_5340)"/>
<path opacity="0.3" d="M3.85408 19.6369V19.4016C3.85408 19.2481 3.72998 19.1232 3.57742 19.1232H1.36259C1.21004 19.1232 1.08594 19.2481 1.08594 19.4016V19.6369C1.08594 19.7904 1.21004 19.9153 1.36259 19.9153H3.57742C3.72998 19.9153 3.85408 19.7904 3.85408 19.6369ZM3.57742 18.8552H1.36259C1.21004 18.8552 1.08594 18.7304 1.08594 18.5769V18.3415C1.08594 18.188 1.21004 18.0631 1.36259 18.0631H3.57742C3.72998 18.0631 3.85408 18.188 3.85408 18.3415V18.5769C3.85408 18.7304 3.72998 18.8552 3.57742 18.8552ZM3.57742 17.7959H1.36259C1.21004 17.7959 1.08594 17.6711 1.08594 17.5176V17.2822C1.08594 17.1287 1.21004 17.0039 1.36259 17.0039H3.57742C3.72998 17.0039 3.85408 17.1287 3.85408 17.2822V17.5176C3.85408 17.6711 3.72998 17.7959 3.57742 17.7959ZM3.57742 16.7359H1.36259C1.21004 16.7359 1.08594 16.611 1.08594 16.4575V16.2221C1.08594 16.0687 1.21004 15.9438 1.36259 15.9438H3.57742C3.72998 15.9438 3.85408 16.0687 3.85408 16.2221V16.4575C3.85408 16.611 3.72998 16.7359 3.57742 16.7359Z" fill="#231F20"/>
<path d="M19.1271 24.4983V23.9679H17.864V24.4983H19.1271ZM17.864 11.3608H19.1271V12.0669H17.864V11.3608Z" fill="url(#paint31_linear_6566_5340)"/>
<path d="M8.33911 24.4983H16.2831V23.9679H8.33911V24.4983ZM8.33911 11.3608H16.2831V12.0669H8.33911V11.3608ZM21.338 24.4983V23.9679H22.1261V24.4983H21.338ZM21.338 11.3608H22.1261V12.0669H21.338V11.3608Z" fill="url(#paint32_linear_6566_5340)"/>
<path d="M57.9001 16.5522V10.4288C57.9001 10.3191 57.9887 10.23 58.0978 10.23H58.1729V12.7183H58.5436V10.23H58.6677C58.7768 10.23 58.8653 10.3191 58.8653 10.4288V16.5522H57.9001Z" fill="url(#paint33_linear_6566_5340)"/>
<path d="M59.7158 12.21H59.3032V11.4696H59.7158V12.21Z" fill="url(#paint34_linear_6566_5340)"/>
<path d="M58.5372 10.9155H58.1729V10.23H58.5372V10.9155Z" fill="url(#paint35_linear_6566_5340)"/>
<path d="M60.3356 11.0108C60.104 11.0108 59.9159 11.2001 59.9159 11.4331V12.1329C59.9159 12.3659 60.104 12.5552 60.3356 12.5552H61.575V12.7158H60.2312C59.9467 12.7158 59.7151 12.4836 59.7151 12.1965V11.3639C59.7151 11.0776 59.9459 10.8446 60.2312 10.8446H61.575V11.0092H60.3356V11.0108Z" fill="#787878"/>
<path d="M60.7393 11.0108C61.1623 11.0108 61.5053 11.3558 61.5053 11.7814C61.5053 12.207 61.1623 12.552 60.7393 12.552C60.3163 12.552 59.9734 12.207 59.9734 11.7814C59.9734 11.3558 60.3163 11.0108 60.7393 11.0108Z" fill="url(#paint36_radial_6566_5340)"/>
<path d="M57.9001 11.582H57.6756C57.5705 11.582 57.4851 11.6678 57.4851 11.7736V11.9072C57.4851 12.013 57.5705 12.0989 57.6756 12.0989H57.9001V11.582ZM58.5435 11.582V12.0989H58.1728V11.582H58.5435ZM58.8652 12.0989V11.582H59.3031V12.0989H58.8652Z" fill="black"/>
<path d="M57.0495 10.2378H57.4622V10.9782H57.0495V10.2378Z" fill="#787878"/>
<path d="M56.1019 23.1003H57.8661C58.0353 23.1003 58.1728 22.962 58.1728 22.7918V19.28H55.7952V22.7918C55.7952 22.962 55.9327 23.1003 56.1019 23.1003Z" fill="url(#paint37_linear_6566_5340)"/>
<path d="M56.4299 11.4371C56.6615 11.4371 56.8496 11.2478 56.8496 11.0148V10.315C56.8496 10.082 56.6615 9.89269 56.4299 9.89269H55.1904V9.73205H56.5342C56.8187 9.73205 57.0503 9.96426 57.0503 10.2513V11.084C57.0503 11.3703 56.8195 11.6033 56.5342 11.6033H55.1904V11.4387H56.4299V11.4371Z" fill="#787878"/>
<path d="M56.026 9.89582C56.449 9.89582 56.7919 10.2408 56.7919 10.6664C56.7919 11.092 56.449 11.437 56.026 11.437C55.6029 11.437 55.26 11.092 55.26 10.6664C55.26 10.2408 55.6029 9.89582 56.026 9.89582Z" fill="#787878"/>
<path d="M57.9001 10.35V10.8669H57.4622V10.35H57.9001Z" fill="black"/>
<path d="M59.7996 23.1392H59.387V22.3988H59.7996V23.1392Z" fill="url(#paint38_linear_6566_5340)"/>
<path d="M60.4183 21.9407C60.1867 21.9407 59.9986 22.13 59.9986 22.363V23.0628C59.9986 23.2958 60.1867 23.4851 60.4183 23.4851H61.6578V23.6458H60.314C60.0294 23.6458 59.7979 23.4135 59.7979 23.1265V22.2938C59.7979 22.0075 60.0287 21.7745 60.314 21.7745H61.6578V21.9391H60.4183V21.9407Z" fill="#787878"/>
<path d="M60.8223 21.94C61.2454 21.94 61.5883 22.285 61.5883 22.7106C61.5883 23.1362 61.2454 23.4812 60.8223 23.4812C60.3993 23.4812 60.0564 23.1362 60.0564 22.7106C60.0564 22.285 60.3993 21.94 60.8223 21.94Z" fill="url(#paint39_radial_6566_5340)"/>
<path d="M58.9482 23.0278V22.5109H59.3861V23.0278H58.9482Z" fill="black"/>
<path d="M62.8436 11.259C62.7179 11.259 62.5575 11.2789 62.3622 11.3036C62.1156 11.3346 61.8081 11.3728 61.4351 11.391L61.443 11.5501C61.8216 11.5318 62.1322 11.4928 62.3812 11.4618C62.7875 11.4109 63.0001 11.3895 63.0175 11.4849C63.0294 11.5485 63.0563 11.5978 63.0815 11.6455C63.1756 11.8197 63.3187 12.0837 62.7756 13.5843C62.2294 15.0953 62.7851 15.6289 63.1179 15.947C63.2009 16.0266 63.2728 16.0957 63.2894 16.149C63.3329 16.2922 63.2973 16.5021 63.1985 16.6842C63.061 16.9363 62.8168 17.1224 62.5108 17.2075C61.9512 17.3626 60.7893 17.6234 59.3032 17.6234V17.7825C60.8082 17.7825 61.9852 17.5184 62.5527 17.3602C62.8997 17.264 63.1788 17.0508 63.3369 16.7606C63.457 16.5395 63.4973 16.2874 63.4404 16.1021C63.412 16.0091 63.3305 15.9303 63.227 15.8317C62.9227 15.5399 62.4136 15.0524 62.9243 13.6384C63.491 12.0702 63.3345 11.7807 63.2207 11.5692C63.1977 11.527 63.1804 11.4944 63.1732 11.4555C63.1456 11.306 63.0357 11.259 62.8436 11.259Z" fill="#919191"/>
<path d="M62.3069 11.5826C61.9125 11.5826 61.5102 11.6971 61.4825 11.705L61.526 11.8577C61.8066 11.7766 62.5907 11.6239 62.8405 11.8943C62.8705 11.9261 62.8974 11.9548 62.9219 11.981C63.0821 12.148 63.1622 12.618 63.1622 13.391C63.1622 14.8359 63.2088 15.8873 63.812 16.2666C63.9693 16.3652 64.0357 16.4956 64.0088 16.6539C63.959 16.9521 63.5551 17.3505 62.9053 17.5016C61.9465 17.7243 60.3443 17.7943 59.7174 17.7704L59.7119 17.9295C60.3466 17.9533 61.9694 17.8818 62.9409 17.6567C63.5811 17.508 64.0957 17.0976 64.1653 16.6801C64.2024 16.4591 64.1068 16.2642 63.8957 16.1314C63.3203 15.7696 63.3203 14.5059 63.3203 13.391C63.3203 12.2132 63.3203 12.1671 63.0357 11.8705C63.0112 11.845 62.9852 11.8172 62.9559 11.7862C62.8113 11.6303 62.5607 11.5826 62.3054 11.5826H62.3069Z" fill="#919191"/>
<path d="M62.8807 23.3198C62.7551 23.3198 62.5946 23.3039 62.3994 23.2848C62.1527 23.2602 61.8453 23.23 61.4722 23.2156L61.4801 23.0892C61.8587 23.1035 62.1693 23.1345 62.4183 23.1592C62.8246 23.1989 63.0372 23.2164 63.0546 23.1409C63.0665 23.09 63.0934 23.051 63.1187 23.0129C63.2127 22.8745 63.3558 22.6653 62.8128 21.4733C62.2666 20.2732 62.8222 19.8494 63.155 19.5965C63.238 19.5328 63.31 19.4788 63.3266 19.4358C63.37 19.3221 63.3345 19.1551 63.2356 19.0104C63.0981 18.81 62.8539 18.662 62.548 18.5952C61.9883 18.472 60.8264 18.2644 59.3403 18.2644V18.138C60.8453 18.138 62.0223 18.3479 62.5899 18.4728C62.9369 18.5491 63.2159 18.7185 63.374 18.9491C63.4941 19.1249 63.5344 19.3253 63.4775 19.4724C63.4491 19.5464 63.3677 19.6084 63.2641 19.6871C62.9598 19.9185 62.4507 20.3058 62.9614 21.4287C63.5281 22.6741 63.3716 22.9039 63.2578 23.0725C63.2349 23.1059 63.2175 23.1321 63.2104 23.1632C63.1827 23.2824 63.0728 23.319 62.8807 23.319V23.3198Z" fill="#919191"/>
<path d="M62.3448 23.063C61.9504 23.063 61.548 22.9715 61.5203 22.9652L61.5638 22.8435C61.8444 22.9079 62.6286 23.0296 62.8783 22.8149C62.9084 22.7894 62.9352 22.7672 62.9598 22.7465C63.1199 22.6139 63.2 22.2407 63.2 21.6268C63.2 20.4792 63.2467 19.6442 63.8498 19.3428C64.0071 19.2641 64.0735 19.1607 64.0466 19.035C63.9968 18.7981 63.5929 18.4816 62.9432 18.3615C61.9843 18.1849 60.3821 18.1293 59.7553 18.1475L59.7498 18.0211C60.3845 18.002 62.0073 18.0585 62.9787 18.2382C63.619 18.3559 64.1336 18.6828 64.2031 19.0144C64.2403 19.1901 64.1446 19.3452 63.9336 19.4502C63.3581 19.7373 63.3581 20.7417 63.3581 21.6268C63.3581 22.562 63.3581 22.5986 63.0736 22.8348C63.0491 22.8546 63.023 22.8769 62.9937 22.9016C62.8491 23.0256 62.5985 23.063 62.3432 23.063H62.3448Z" fill="#919191"/>
<path d="M54.0463 22.7064L54.5384 22.7882C54.7123 22.8172 54.8768 22.6986 54.9056 22.5237L55.1409 21.0918L54.0179 20.9049L53.7826 22.3368C53.7538 22.5118 53.8716 22.6773 54.0455 22.7062L54.0463 22.7064Z" fill="url(#paint40_linear_6566_5340)"/>
<path d="M57.4621 10.35H57.9166C57.9166 10.35 57.9372 10.2299 58.1206 10.2299C58.1458 10.2299 58.2391 10.1599 58.2391 10.1599L53.5597 0.00062561L50.5781 1.40901L51.2231 2.80547L53.2301 1.86708L57.0993 10.2403H57.4629V10.3508L57.4621 10.35ZM63.3739 23.82L63.4893 23.7357L63.2292 23.1559L63.2671 23.1114L63.7857 23.4947L64.0694 23.2378L63.8868 22.9229L64.0908 22.8871L69.5156 34.6258L66.5617 36L65.9167 34.6035L67.9237 33.6651L63.3746 23.8207L63.3739 23.82Z" fill="url(#paint41_linear_6566_5340)"/>
<path d="M54.3289 19.8667L54.155 20.9291L55.0174 21.0723L55.2142 19.8667H54.3281H54.3289ZM54.9621 15.9922L55.679 11.6024H56.5651L55.8482 15.9922H54.9621Z" fill="url(#paint42_linear_6566_5340)"/>
<path d="M60.0573 19.3865V19.5361H59.2716V20.4116H58.9736V19.5361H57.818V20.4116H57.52V19.5361H56.7714V19.3865H55.6284V16.631H56.7714V16.4576H57.52V15.5121H57.818V16.4576H58.9736V15.5121H59.2716V16.4576H60.0573V16.631H61.1686V19.3865H60.0573Z" fill="#444345"/>
<path opacity="0.2" d="M60.6406 25.0725L64.449 33.3145L66.4915 32.3594L62.74 24.2414L62.5306 24.3631L62.031 23.7993L62.1907 24.5373L61.8421 24.6931L61.4034 24.08L61.4856 24.8307L61.1228 24.9492L60.7505 24.2931L60.7544 25.0486L60.6398 25.0733L60.6406 25.0725ZM56.622 11.0093L56.7042 11.76L56.2655 11.1469L55.9169 11.3027L56.0766 12.0407L55.577 11.4769L55.2466 11.6685L55.4822 12.3859L54.9265 11.8777L54.6396 12.0876L51.2383 4.72601L53.2808 3.77092L56.6252 11.0077L56.6212 11.0093H56.622Z" fill="url(#paint43_linear_6566_5340)"/>
<path opacity="0.5" d="M61.1466 24.9412L65.6656 34.7212L65.9161 34.6035L61.4114 24.8545L61.1466 24.9412ZM55.2467 11.6685L55.4823 12.3858L55.2435 12.1679L50.9712 2.92232L51.2218 2.80462L55.3028 11.6359L55.2467 11.6685Z" fill="url(#paint44_linear_6566_5340)"/>
<path d="M58.8653 19.3498V23.5106C58.8653 23.5853 58.7768 23.6458 58.6677 23.6458H58.5926V21.9543H58.2219V23.6458H58.0978C57.9887 23.6458 57.9001 23.5853 57.9001 23.5106V19.3498H58.8653Z" fill="url(#paint45_linear_6566_5340)"/>
<path d="M79.9115 14.5695H78.1101C78.1101 14.5695 79.0239 15.7544 79.0239 17.9939C79.0239 20.2333 78.1101 21.4182 78.1101 21.4182H79.9115C79.9115 21.4182 82.6267 20.9808 82.6267 17.9939C82.6267 15.0069 79.9115 14.5695 79.9115 14.5695Z" fill="url(#paint46_linear_6566_5340)"/>
<path d="M86.1125 20.6621H81.0616C80.5155 20.6621 80.0728 20.2167 80.0728 19.6673V16.1228C80.0728 15.5734 80.5155 15.128 81.0616 15.128H86.1125C86.6587 15.128 87.1014 15.5734 87.1014 16.1228V19.6673C87.1014 20.2167 86.6587 20.6621 86.1125 20.6621Z" fill="url(#paint47_linear_6566_5340)"/>
<path d="M77.7458 14.758L78.1102 14.5695C78.1102 14.5695 79.024 15.7544 79.024 17.9939C79.024 20.2333 78.1102 21.4182 78.1102 21.4182L77.7838 21.0731C77.7838 21.0731 78.5924 20.223 78.5924 17.9939C78.5924 15.7648 77.7458 14.7588 77.7458 14.7588V14.758Z" fill="url(#paint48_linear_6566_5340)"/>
<path opacity="0.4" d="M80.0666 29.3184H79.6919C79.4461 29.3184 79.2461 29.5196 79.2461 29.7669V30.6226C79.2461 30.8699 79.4461 31.0711 79.6919 31.0711H80.0666C80.1337 31.0711 80.1875 31.0162 80.1875 30.9494V29.4416C80.1875 29.374 80.133 29.3199 80.0666 29.3199V29.3184Z" fill="url(#paint49_linear_6566_5340)"/>
<path opacity="0.2" d="M80.2904 28.2488H79.5908V21.711H80.2904V28.2488Z" fill="url(#paint50_linear_6566_5340)"/>
<path opacity="0.4" d="M80.0666 4.78882H79.6919C79.4461 4.78882 79.2461 4.99002 79.2461 5.23734V6.09303C79.2461 6.34035 79.4461 6.54155 79.6919 6.54155H80.0666C80.1337 6.54155 80.1875 6.48668 80.1875 6.41988V4.91208C80.1875 4.84448 80.133 4.79041 80.0666 4.79041V4.78882Z" fill="url(#paint51_linear_6566_5340)"/>
<path opacity="0.4" d="M80.7242 29.4375C80.6436 29.358 80.5337 29.3087 80.4112 29.3087C80.344 29.3087 80.2903 29.3635 80.2903 29.4303V29.6037H80.1875V29.4407C80.1875 29.3731 80.133 29.319 80.0666 29.319H79.6919C79.503 29.319 79.3425 29.4375 79.2769 29.6045H79.2461V28.2502H80.7234V29.4383L80.7242 29.4375Z" fill="url(#paint52_radial_6566_5340)"/>
<path d="M75.2772 15.71H77.1505V15.127H75.2772C75.1554 15.127 75.0566 15.2264 75.0566 15.3489V15.4873C75.0566 15.6098 75.1554 15.7092 75.2772 15.7092V15.71Z" fill="url(#paint53_linear_6566_5340)"/>
<path opacity="0.6" d="M87.5719 19.6455H90.9392C91.0333 19.6455 91.11 19.5684 91.11 19.4737V19.1111C91.11 19.0022 91.0222 18.9139 90.9139 18.9139H87.5711C87.4771 18.9139 87.4004 18.991 87.4004 19.0857V19.4729C87.4004 19.5676 87.4771 19.6447 87.5711 19.6447L87.5719 19.6455Z" fill="url(#paint54_linear_6566_5340)"/>
<path opacity="0.25" d="M87.8643 19.998V19.6537H90.9716C91.1194 19.6537 91.1115 19.5416 91.1391 19.4787H94.1365C94.1926 19.4787 94.2385 19.5249 94.2385 19.5813V19.8955C94.2385 19.9519 94.1926 19.998 94.1365 19.998H87.8635H87.8643Z" fill="url(#paint55_linear_6566_5340)"/>
<path opacity="0.5" d="M94.3411 20.3838H95.9275C95.9623 20.3838 95.99 20.356 95.99 20.321V20.0728C95.99 20.0379 95.9623 20.01 95.9275 20.01H94.3411C94.2779 20.01 94.2273 20.0617 94.2273 20.1245V20.2685C94.2273 20.3321 94.2787 20.383 94.3411 20.383V20.3838Z" fill="url(#paint56_linear_6566_5340)"/>
<path opacity="0.5" d="M94.3372 19.4661H95.9275C95.9623 19.4661 95.99 19.4382 95.99 19.4032V19.1551C95.99 19.1201 95.9623 19.0923 95.9275 19.0923H94.3372C94.2763 19.0923 94.2273 19.1416 94.2273 19.2028V19.3547C94.2273 19.416 94.2763 19.4653 94.3372 19.4653V19.4661Z" fill="url(#paint57_linear_6566_5340)"/>
<path opacity="0.6" d="M90.9392 16.9412H87.5711C87.4768 16.9412 87.4004 16.8643 87.4004 16.7694V16.468C87.4004 16.3731 87.4768 16.2962 87.5711 16.2962H90.9392C91.0335 16.2962 91.11 16.3731 91.11 16.468V16.7694C91.11 16.8643 91.0335 16.9412 90.9392 16.9412Z" fill="url(#paint58_linear_6566_5340)"/>
<path opacity="0.3" d="M87.8548 15.8547V16.2968H90.962C91.0379 16.2968 91.1019 16.3406 91.1296 16.4026H94.0977C94.1618 16.409 94.2669 16.3724 94.2448 16.3048V15.9525C94.2448 15.8984 94.1515 15.8547 94.0977 15.8547H87.854H87.8548Z" fill="url(#paint59_linear_6566_5340)"/>
<path opacity="0.5" d="M94.3579 15.853H95.9277C95.9625 15.853 95.9902 15.8252 95.9902 15.7902V15.5421C95.9902 15.5071 95.9625 15.4793 95.9277 15.4793H94.3579C94.2955 15.4793 94.2449 15.5302 94.2449 15.593V15.7393C94.2449 15.8021 94.2955 15.853 94.3579 15.853Z" fill="url(#paint60_linear_6566_5340)"/>
<path opacity="0.5" d="M94.3516 16.7668H95.9277C95.9625 16.7668 95.9902 16.739 95.9902 16.704V16.4559C95.9902 16.4209 95.9625 16.3931 95.9277 16.3931H94.3516C94.2931 16.3931 94.2449 16.4408 94.2449 16.5004V16.6595C94.2449 16.7183 94.2923 16.7668 94.3516 16.7668Z" fill="url(#paint61_linear_6566_5340)"/>
<path d="M98.2523 5.87272V6.91211H97.582V3.49094H99.7731V5.87272H98.2523Z" fill="url(#paint62_linear_6566_5340)"/>
<path d="M99.9999 17.9065H98.4514V5.95707H99.9999V17.9065Z" fill="url(#paint63_linear_6566_5340)"/>
<path d="M98.2523 30.1089V29.1235H97.582V32.3682H99.7731V30.1089H98.2523Z" fill="url(#paint64_linear_6566_5340)"/>
<path d="M99.9999 30.0779H98.4514V18.1285H99.9999V30.0779Z" fill="url(#paint65_linear_6566_5340)"/>
<path opacity="0.4" d="M91.7761 16.4027V17.1781H92.882V16.4027H91.7761ZM92.882 10.8893V15.8484H91.7761V11.1262C91.7761 10.7557 92.0749 10.455 92.4433 10.455H93.1815C93.1815 10.455 92.882 10.5521 92.882 10.8893ZM91.7761 19.466V18.6811H92.882V19.466H91.7761ZM92.4441 25.4121C92.0757 25.4121 91.7769 25.1115 91.7769 24.7409V20.01H92.8827V24.9771C92.8827 25.3151 93.1823 25.4113 93.1823 25.4113H92.4441V25.4121Z" fill="url(#paint66_linear_6566_5340)"/>
<path opacity="0.7" d="M94.0196 18.25H95.2463C95.3657 18.25 95.4621 18.1522 95.4621 18.0329V17.7808C95.4621 17.6607 95.3649 17.5637 95.2463 17.5637H94.0196C93.935 17.5637 93.8662 17.6329 93.8662 17.718V18.0957C93.8662 18.1808 93.935 18.25 94.0196 18.25Z" fill="url(#paint67_linear_6566_5340)"/>
<path d="M58.6438 18.2524C55.2575 18.2524 51.7226 18.2572 50.6452 18.2675C49.4928 18.2779 48.4399 18.4385 47.5111 18.5809C46.6907 18.7057 45.916 18.8242 45.192 18.8242C44.3019 18.8242 43.6482 18.689 43.072 18.5705C42.6475 18.4831 42.2808 18.4067 41.9116 18.4067V18.5658C42.2642 18.5658 42.6238 18.6397 43.0404 18.7264C43.6245 18.8473 44.2861 18.9833 45.192 18.9833C45.9279 18.9833 46.708 18.864 47.5348 18.7383C48.4589 18.5976 49.5054 18.4377 50.6468 18.4266C52.8016 18.4067 64.7926 18.4067 65.742 18.4266C66.0668 18.4337 66.7316 18.495 67.5023 18.5666C69.0152 18.7073 70.8972 18.8823 71.7976 18.8035C73.0133 18.697 73.9594 18.8648 74.7752 19.33C75.1427 19.5399 75.6312 20.1642 76.0628 20.7153C76.496 21.268 76.8698 21.746 77.1346 21.8589C77.6998 22.0991 78.3875 21.9448 79.0459 21.7428C79.4554 21.6171 79.6309 21.781 79.8332 21.971C79.9557 22.0855 80.0822 22.204 80.2648 22.2597C80.6268 22.371 80.6656 22.371 80.9146 22.375C80.9857 22.3758 81.0742 22.3774 81.1944 22.3822C81.4283 22.3909 81.8686 22.3241 82.3785 22.247C83.0748 22.1412 83.8645 22.0219 84.4154 22.0442C84.7063 22.0561 84.9537 22.1619 85.2399 22.2843C85.8833 22.5595 86.6832 22.9015 88.5076 22.4601C91.3113 21.7817 91.7294 19.7284 91.7294 18.5658H91.5713C91.5713 19.9296 91.033 21.6847 88.4704 22.3058C86.6974 22.7353 85.9236 22.4044 85.3015 22.1388C85.0138 22.0156 84.7419 21.8994 84.4218 21.8867C83.8558 21.8637 83.0582 21.9845 82.3547 22.0911C81.8528 22.1674 81.4181 22.2334 81.2007 22.2247C81.0798 22.2199 80.9896 22.2183 80.9177 22.2175C80.6774 22.2136 80.6529 22.2136 80.3114 22.1086C80.1644 22.0633 80.0561 21.9623 79.9423 21.8549C79.7344 21.6601 79.4981 21.439 79.0009 21.5917C78.3701 21.7857 77.7156 21.9344 77.1971 21.7142C76.9694 21.6171 76.5718 21.1098 76.1877 20.6183C75.7261 20.0282 75.2479 19.4183 74.8534 19.1932C74.0084 18.7113 73.0338 18.5371 71.7841 18.6461C70.8988 18.7232 69.0239 18.5491 67.5173 18.4091C66.7442 18.3375 66.0763 18.2747 65.7459 18.2683C65.2709 18.2588 62.0324 18.2532 58.6453 18.2532L58.6438 18.2524Z" fill="#919191"/>
<path d="M60.7471 18.4552C59.3599 18.4552 57.9806 18.4663 56.8748 18.4759C55.848 18.4846 55.037 18.491 54.6188 18.4862C52.683 18.4631 50.5109 18.5761 48.5031 18.8051C47.0535 18.9697 45.716 18.9005 44.3003 18.8266C43.5281 18.786 42.7297 18.7446 41.9116 18.7446V18.9037C42.7258 18.9037 43.5218 18.945 44.2917 18.9856C45.7145 19.0596 47.0574 19.1295 48.5205 18.9633C50.5219 18.7359 52.6878 18.623 54.6164 18.646C55.0362 18.6508 55.848 18.6444 56.8748 18.6357C59.8824 18.611 64.9159 18.5697 66.602 18.7844C67.9607 18.9578 69.6689 18.9944 71.1755 19.027C72.1469 19.0476 73.0639 19.0675 73.6994 19.1232C74.719 19.2123 75.6352 20.0862 76.3711 20.7892C76.7616 21.1622 77.0991 21.4843 77.3702 21.602C77.846 21.8087 78.5274 21.7706 79.0752 21.7388C79.419 21.7197 79.7162 21.7022 79.8925 21.7451C80.0893 21.7928 80.2174 21.8612 80.3525 21.9344C80.5454 22.0378 80.7446 22.1443 81.1446 22.2032C81.5232 22.2589 82.4788 22.2286 83.4037 22.2C84.1475 22.1769 84.8494 22.1547 85.1996 22.1785C85.2509 22.1817 85.2984 22.1857 85.3426 22.1889C85.9995 22.2374 86.0177 22.2199 86.9559 21.2926L87.0413 21.2083C88.0807 20.1817 88.0784 19.7419 88.0736 18.778C88.0736 18.7104 88.0736 18.6405 88.0736 18.5673H87.9155C87.9155 18.6405 87.9155 18.7112 87.9155 18.7788C87.9203 19.7244 87.9218 20.1157 86.9306 21.0946L86.8453 21.1789C86.2419 21.7753 85.745 22.059 85.3545 22.0298C85.3102 22.0266 85.262 22.0227 85.2106 22.0195C84.8533 21.9956 84.1475 22.0179 83.3997 22.041C82.482 22.0696 81.5335 22.099 81.1683 22.0457C80.7952 21.9909 80.6087 21.8907 80.4276 21.7936C80.2893 21.7197 80.1462 21.6425 79.9305 21.5901C79.7313 21.5423 79.4238 21.559 79.0673 21.5797C78.5361 21.6099 77.8753 21.6473 77.4342 21.4557C77.1892 21.3491 76.8612 21.0358 76.4817 20.6739C75.7277 19.9542 74.7894 19.058 73.7144 18.9649C73.0741 18.9093 72.1541 18.8894 71.1802 18.8687C69.6776 18.8361 67.9742 18.7995 66.6233 18.6277C65.5499 18.491 63.1374 18.4576 60.7479 18.4576L60.7471 18.4552Z" fill="#919191"/>
<path d="M77.0454 15.2885C77.0114 15.2742 76.9703 15.2845 76.9505 15.3163C76.8999 15.3959 76.6707 15.4555 76.4431 15.5716C76.281 15.6543 76.0581 15.7673 75.7419 15.9525C74.8859 16.4528 74.5594 16.5983 72.7572 16.6174C71.1455 16.6349 69.1654 16.9259 67.4612 17.3959C65.7934 17.8556 63.4339 18.0623 60.4492 18.0091C57.0764 17.9494 49.232 17.9446 47.3831 18.017C45.588 18.0878 41.9504 18.017 41.9141 18.017L41.9109 18.1761C41.9472 18.1761 45.5896 18.2468 47.3895 18.1761C49.2367 18.1037 57.0764 18.1085 60.4468 18.1681C63.4474 18.2206 65.8211 18.013 67.5039 17.5486C69.1963 17.0818 71.1613 16.7931 72.7604 16.7764C74.5966 16.7565 74.9578 16.5959 75.8226 16.0901C76.1348 15.9072 76.3545 15.7959 76.515 15.714C76.7442 15.5971 77.0059 15.5231 77.0817 15.4062C77.1086 15.3649 77.0912 15.3084 77.0462 15.2893L77.0454 15.2885Z" fill="#919191"/>
<path d="M76.6273 15.2893C76.5965 15.2758 76.5601 15.2821 76.5372 15.3068C76.4407 15.4118 76.0866 15.6305 74.984 16.0448C74.0544 16.3939 73.494 16.3692 72.7177 16.3358C72.2814 16.3168 71.7866 16.2953 71.1329 16.3382C70.1939 16.4003 68.745 16.7398 67.3443 17.0683C66.082 17.3641 64.89 17.6432 64.2987 17.6583C63.0411 17.691 57.9823 17.7045 53.5716 17.6583C51.0098 17.6313 49.2637 17.5176 47.8606 17.4269C46.807 17.3585 45.9746 17.3045 45.1715 17.3132C44.0989 17.3243 43.5282 17.1041 43.0255 16.9092C42.6603 16.7677 42.3449 16.646 41.9133 16.6372L41.9102 16.7963C42.3141 16.8043 42.6176 16.9219 42.9686 17.0579C43.4847 17.2575 44.0696 17.485 45.1731 17.4723C45.9699 17.4635 46.7998 17.5176 47.8503 17.586C49.255 17.6774 51.0034 17.7912 53.5692 17.8182C58.1419 17.8667 63.0569 17.85 64.3019 17.8182C64.9089 17.8023 66.1088 17.5216 67.3791 17.2241C68.7734 16.8973 70.216 16.5593 71.1424 16.4981C71.7874 16.4551 72.2775 16.4766 72.7098 16.4957C73.4742 16.5291 74.0789 16.5553 75.0385 16.1951C76.1396 15.7816 76.5277 15.5541 76.6542 15.4142C76.6897 15.3744 76.6755 15.3116 76.6265 15.2901L76.6273 15.2893Z" fill="#919191"/>
<path d="M76.2699 15.3298C76.2517 15.2893 76.2035 15.271 76.164 15.2901C75.862 15.4348 75.4391 15.5088 75.2399 15.6471C74.8708 15.9032 74.4993 16.0686 73.8171 16.1402C73.512 16.172 73.1374 16.1728 72.7034 16.1728C71.5446 16.1728 69.9582 16.1736 67.8185 16.739C64.7286 17.5549 62.2063 17.5168 60.3543 17.3927C59.7535 17.3521 58.511 17.3696 56.938 17.3919C53.1936 17.4444 47.5341 17.5231 45.8757 16.8225C44.9683 16.4384 44.5509 16.1625 44.2474 15.9613C43.7597 15.6376 43.0649 15.5199 41.7369 15.508L41.7354 15.667C43.0159 15.6789 43.6878 15.7815 44.1604 16.0941C44.4695 16.2992 44.8932 16.58 45.8148 16.9696C47.504 17.6838 53.1826 17.6042 56.9404 17.5518C58.5102 17.5295 59.7496 17.512 60.344 17.5518C62.2079 17.6766 64.746 17.7148 67.8588 16.8933C69.9795 16.3334 71.5541 16.3326 72.7042 16.3326C73.1429 16.3326 73.5215 16.3326 73.8345 16.2992C74.5562 16.2229 74.9427 16.0471 75.3301 15.7791C75.534 15.6384 75.9419 15.5732 76.2312 15.4348C76.2699 15.4165 76.2881 15.3696 76.2707 15.3298H76.2699Z" fill="#919191"/>
<path d="M89.5021 9.115L89.4982 9.12773C89.4089 9.37505 89.1654 9.54046 88.8903 9.54046H80.2895V7.61039H80.7235V6.25608H80.1867V4.91131C80.1867 4.84372 80.1322 4.78964 80.0658 4.78964H79.6911C79.4453 4.78964 79.2453 4.99004 79.2453 5.23816V6.09385C79.2453 6.15111 79.2564 6.20598 79.2761 6.25688H79.2453V7.61119H79.59V9.54126H76.3665C76.0851 9.54126 75.8701 9.40527 75.7871 9.1492C75.2117 7.72411 75.2046 6.13123 75.7674 4.70137L75.7934 4.63536C75.867 4.42144 76.0606 4.31726 76.2978 4.31726H88.9575C89.1883 4.31726 89.4484 4.68626 89.4729 4.76022C89.9377 6.17258 89.948 7.69707 89.5021 9.1158V9.115Z" fill="url(#paint68_linear_6566_5340)"/>
<path d="M89.525 30.8578L89.4032 31.2976C89.325 31.5044 89.189 31.5417 88.9582 31.5417H76.2985C76.0613 31.5417 75.8677 31.4384 75.7942 31.2236L75.761 31.1004C75.3784 29.6793 75.3823 28.181 75.7736 26.7623L75.7878 26.7098C75.8716 26.4545 76.0866 26.3178 76.3672 26.3178H79.5907V28.2478H79.246V29.6021H79.2769C79.2571 29.653 79.246 29.7079 79.246 29.7652V30.6208C79.246 30.8682 79.4452 31.0694 79.6918 31.0694H80.0665C80.1337 31.0694 80.1874 31.0145 80.1874 30.9477V29.6029H80.7242V28.2486H80.2902V26.3185H88.891C89.1653 26.3185 89.4096 26.484 89.4989 26.7313L89.5653 26.9921C89.8878 28.2621 89.8743 29.595 89.525 30.8578Z" fill="url(#paint69_linear_6566_5340)"/>
</g>
<defs>
<linearGradient id="paint0_linear_6566_5340" x1="4.42651" y1="17.9294" x2="38.7318" y2="17.9294" gradientUnits="userSpaceOnUse">
<stop stop-color="#231F20"/>
<stop offset="0.05" stop-color="#333032"/>
<stop offset="0.15" stop-color="#555355"/>
<stop offset="0.26" stop-color="#6F6F71"/>
<stop offset="0.37" stop-color="#828386"/>
<stop offset="0.47" stop-color="#8D8F92"/>
<stop offset="0.58" stop-color="#919396"/>
<stop offset="0.72" stop-color="#929497"/>
<stop offset="0.77" stop-color="#999B9E"/>
<stop offset="0.8" stop-color="#A5A7A9"/>
<stop offset="0.83" stop-color="#B6B7B9"/>
<stop offset="0.85" stop-color="#CCCDCE"/>
<stop offset="0.87" stop-color="#DEDFE0"/>
<stop offset="0.91" stop-color="#9E9D9E"/>
<stop offset="1" stop-color="#231F20"/>
</linearGradient>
<linearGradient id="paint1_linear_6566_5340" x1="93.8654" y1="17.9946" x2="96.4209" y2="17.9946" gradientUnits="userSpaceOnUse">
<stop stop-color="#231F20"/>
<stop offset="0.02" stop-color="#2D292B"/>
<stop offset="0.1" stop-color="#4A484A"/>
<stop offset="0.19" stop-color="#616163"/>
<stop offset="0.28" stop-color="#717275"/>
<stop offset="0.37" stop-color="#7A7C7F"/>
<stop offset="0.48" stop-color="#7E8083"/>
<stop offset="0.6" stop-color="#7A7C7F"/>
<stop offset="0.7" stop-color="#717275"/>
<stop offset="0.79" stop-color="#616163"/>
<stop offset="0.89" stop-color="#4A494B"/>
<stop offset="0.97" stop-color="#2D2A2B"/>
<stop offset="1" stop-color="#231F20"/>
</linearGradient>
<radialGradient id="paint2_radial_6566_5340" cx="0" cy="0" r="1" gradientUnits="userSpaceOnUse" gradientTransform="translate(59.0542 17.9193) scale(7.28395 7.32823)">
<stop stop-color="#231F20"/>
<stop offset="0.03" stop-color="#2A2829"/>
<stop offset="0.1" stop-color="#353435"/>
<stop offset="0.16" stop-color="#393839"/>
<stop offset="0.62" stop-color="#3A393A"/>
<stop offset="0.78" stop-color="#414041"/>
<stop offset="0.9" stop-color="#4C4B4D"/>
<stop offset="0.95" stop-color="#545456"/>
<stop offset="1" stop-color="#231F20"/>
</radialGradient>
<linearGradient id="paint3_linear_6566_5340" x1="95.4619" y1="17.9431" x2="98.4514" y2="17.9431" gradientUnits="userSpaceOnUse">
<stop stop-color="#231F20"/>
<stop offset="0.02" stop-color="#2D292B"/>
<stop offset="0.1" stop-color="#4A484A"/>
<stop offset="0.19" stop-color="#616163"/>
<stop offset="0.28" stop-color="#717275"/>
<stop offset="0.37" stop-color="#7A7C7F"/>
<stop offset="0.48" stop-color="#7E8083"/>
<stop offset="0.6" stop-color="#7A7C7F"/>
<stop offset="0.7" stop-color="#717275"/>
<stop offset="0.79" stop-color="#616163"/>
<stop offset="0.89" stop-color="#4A494B"/>
<stop offset="0.97" stop-color="#2D2A2B"/>
<stop offset="1" stop-color="#231F20"/>
</linearGradient>
<linearGradient id="paint4_linear_6566_5340" x1="41.7354" y1="17.974" x2="78.1101" y2="17.974" gradientUnits="userSpaceOnUse">
<stop stop-color="#231F20"/>
<stop offset="0.25" stop-color="#9D9FA2"/>
<stop offset="0.36" stop-color="#8E9093"/>
<stop offset="0.61" stop-color="#727477"/>
<stop offset="0.84" stop-color="#616366"/>
<stop offset="1" stop-color="#5C5D60"/>
</linearGradient>
<linearGradient id="paint5_linear_6566_5340" x1="77.1506" y1="17.8509" x2="87.9489" y2="17.8509" gradientUnits="userSpaceOnUse">
<stop stop-color="#231F20"/>
<stop offset="0.05" stop-color="#272324"/>
<stop offset="0.32" stop-color="#3B3A3C"/>
<stop offset="0.49" stop-color="#434345"/>
<stop offset="1" stop-color="#231F20"/>
</linearGradient>
<linearGradient id="paint6_linear_6566_5340" x1="91.4893" y1="22.2167" x2="94.9918" y2="22.2167" gradientUnits="userSpaceOnUse">
<stop offset="0.28" stop-color="#7E8083"/>
<stop offset="0.35" stop-color="#717275"/>
<stop offset="0.78" stop-color="#231F20"/>
<stop offset="1" stop-color="#4D4D4F"/>
</linearGradient>
<linearGradient id="paint7_linear_6566_5340" x1="0.000156228" y1="13.6415" x2="0.0792006" y2="13.6415" gradientUnits="userSpaceOnUse">
<stop offset="0.28" stop-color="#7E8083"/>
<stop offset="0.35" stop-color="#717275"/>
<stop offset="0.78" stop-color="#231F20"/>
<stop offset="1" stop-color="#4D4D4F"/>
</linearGradient>
<linearGradient id="paint8_linear_6566_5340" x1="79.5908" y1="10.812" x2="80.2904" y2="10.812" gradientUnits="userSpaceOnUse">
<stop stop-color="#231F20"/>
<stop offset="0.02" stop-color="#282526"/>
<stop offset="0.18" stop-color="#5A595B"/>
<stop offset="0.32" stop-color="#7E7F81"/>
<stop offset="0.43" stop-color="#949699"/>
<stop offset="0.49" stop-color="#9D9FA2"/>
<stop offset="1" stop-color="#231F20"/>
</linearGradient>
<radialGradient id="paint9_radial_6566_5340" cx="0" cy="0" r="1" gradientUnits="userSpaceOnUse" gradientTransform="translate(79.9851 6.93286) scale(0.706658 0.710954)">
<stop stop-color="#9D9FA2"/>
<stop offset="0.44" stop-color="#757679"/>
<stop offset="0.79" stop-color="#5D5D5F"/>
<stop offset="1" stop-color="#545456"/>
</radialGradient>
<linearGradient id="paint10_linear_6566_5340" x1="57.0355" y1="23.7905" x2="57.0355" y2="19.2799" gradientUnits="userSpaceOnUse">
<stop stop-color="#9D9FA2"/>
<stop offset="0.19" stop-color="#797A7D"/>
<stop offset="0.38" stop-color="#5E5E61"/>
<stop offset="0.54" stop-color="#4D4D50"/>
<stop offset="0.66" stop-color="#48484A"/>
<stop offset="0.77" stop-color="#3E3D3F"/>
<stop offset="0.98" stop-color="#262223"/>
<stop offset="1" stop-color="#231F20"/>
</linearGradient>
<linearGradient id="paint11_linear_6566_5340" x1="81.6665" y1="25.7016" x2="83.5889" y2="25.7016" gradientUnits="userSpaceOnUse">
<stop stop-color="#231F20"/>
<stop offset="0.2" stop-color="#373536"/>
<stop offset="0.39" stop-color="#4F4F51"/>
<stop offset="0.58" stop-color="#393738"/>
<stop offset="0.78" stop-color="#282526"/>
<stop offset="0.92" stop-color="#231F20"/>
<stop offset="1" stop-color="#4D4D4F"/>
</linearGradient>
<linearGradient id="paint12_linear_6566_5340" x1="81.8989" y1="23.3858" x2="83.2972" y2="23.3858" gradientUnits="userSpaceOnUse">
<stop stop-color="#231F20"/>
<stop offset="0.12" stop-color="#383536"/>
<stop offset="0.36" stop-color="#6D6E71"/>
<stop offset="0.39" stop-color="#757679"/>
<stop offset="0.54" stop-color="#555457"/>
<stop offset="0.69" stop-color="#3A3738"/>
<stop offset="0.83" stop-color="#292526"/>
<stop offset="0.92" stop-color="#231F20"/>
<stop offset="1" stop-color="#4D4D4F"/>
</linearGradient>
<linearGradient id="paint13_linear_6566_5340" x1="0.000240908" y1="10.1576" x2="0.0792853" y2="10.1576" gradientUnits="userSpaceOnUse">
<stop stop-color="#231F20"/>
<stop offset="0.2" stop-color="#373536"/>
<stop offset="0.39" stop-color="#4F4F51"/>
<stop offset="0.58" stop-color="#393738"/>
<stop offset="0.78" stop-color="#282526"/>
<stop offset="0.92" stop-color="#231F20"/>
<stop offset="1" stop-color="#4D4D4F"/>
</linearGradient>
<linearGradient id="paint14_linear_6566_5340" x1="-0.000159893" y1="12.4654" x2="0.0788849" y2="12.4654" gradientUnits="userSpaceOnUse">
<stop stop-color="#231F20"/>
<stop offset="0.12" stop-color="#383536"/>
<stop offset="0.36" stop-color="#6D6E71"/>
<stop offset="0.39" stop-color="#757679"/>
<stop offset="0.54" stop-color="#555457"/>
<stop offset="0.69" stop-color="#3A3738"/>
<stop offset="0.83" stop-color="#292526"/>
<stop offset="0.92" stop-color="#231F20"/>
<stop offset="1" stop-color="#4D4D4F"/>
</linearGradient>
<linearGradient id="paint15_linear_6566_5340" x1="16.2832" y1="17.9294" x2="17.8641" y2="17.9294" gradientUnits="userSpaceOnUse">
<stop stop-color="#231F20"/>
<stop offset="0.2" stop-color="#373536"/>
<stop offset="0.39" stop-color="#4F4F51"/>
<stop offset="0.58" stop-color="#393738"/>
<stop offset="0.78" stop-color="#282526"/>
<stop offset="0.92" stop-color="#231F20"/>
<stop offset="1" stop-color="#4D4D4F"/>
</linearGradient>
<linearGradient id="paint16_linear_6566_5340" x1="22.6833" y1="17.9296" x2="26.5961" y2="17.9296" gradientUnits="userSpaceOnUse">
<stop stop-color="#3E3A3B"/>
<stop offset="0.03" stop-color="#706E6E"/>
<stop offset="0.05" stop-color="#9C9A9A"/>
<stop offset="0.07" stop-color="#BFBEBF"/>
<stop offset="0.09" stop-color="#DBDADB"/>
<stop offset="0.1" stop-color="#EFEEEF"/>
<stop offset="0.12" stop-color="#FBFBFB"/>
<stop offset="0.14" stop-color="white"/>
<stop offset="0.22" stop-color="#D4D4D5"/>
<stop offset="0.33" stop-color="#A2A2A3"/>
<stop offset="0.43" stop-color="#7B7B7C"/>
<stop offset="0.52" stop-color="#5F5F60"/>
<stop offset="0.6" stop-color="#4E4E50"/>
<stop offset="0.66" stop-color="#48484A"/>
<stop offset="0.77" stop-color="#3E3D3F"/>
<stop offset="0.98" stop-color="#262223"/>
<stop offset="1" stop-color="#231F20"/>
</linearGradient>
<radialGradient id="paint17_radial_6566_5340" cx="0" cy="0" r="1" gradientUnits="userSpaceOnUse" gradientTransform="translate(32.4397 17.9295) scale(6.70297 6.74372)">
<stop stop-color="white"/>
<stop offset="0.18" stop-color="#F9FAFA"/>
<stop offset="0.4" stop-color="#EBEBEC"/>
<stop offset="0.64" stop-color="#D3D3D5"/>
<stop offset="0.88" stop-color="#B1B3B5"/>
<stop offset="1" stop-color="#9FA1A4"/>
</radialGradient>
<linearGradient id="paint18_linear_6566_5340" x1="38.0039" y1="17.9295" x2="41.7356" y2="17.9295" gradientUnits="userSpaceOnUse">
<stop stop-color="#231F20"/>
<stop offset="0.02" stop-color="#434041"/>
<stop offset="0.04" stop-color="#6E6C6D"/>
<stop offset="0.07" stop-color="#919091"/>
<stop offset="0.09" stop-color="#ACACAD"/>
<stop offset="0.12" stop-color="#BFC1C2"/>
<stop offset="0.14" stop-color="#CBCDCE"/>
<stop offset="0.16" stop-color="#CFD1D2"/>
<stop offset="0.53" stop-color="#D0D2D3"/>
<stop offset="0.66" stop-color="#D7D9DA"/>
<stop offset="0.76" stop-color="#E3E4E5"/>
<stop offset="0.83" stop-color="#F4F4F4"/>
<stop offset="0.87" stop-color="white"/>
<stop offset="0.91" stop-color="#BEBDBD"/>
<stop offset="1" stop-color="#231F20"/>
</linearGradient>
<linearGradient id="paint19_linear_6566_5340" x1="42.3781" y1="17.9296" x2="42.7457" y2="17.9296" gradientUnits="userSpaceOnUse">
<stop stop-color="#FEDA00"/>
<stop offset="0.2" stop-color="#FCCD04"/>
<stop offset="0.58" stop-color="#F9AC10"/>
<stop offset="1" stop-color="#F57F20"/>
</linearGradient>
<linearGradient id="paint20_linear_6566_5340" x1="80.8057" y1="17.9296" x2="81.4736" y2="17.9296" gradientUnits="userSpaceOnUse">
<stop stop-color="#FEE7D9"/>
<stop offset="0.11" stop-color="#FEE6D3"/>
<stop offset="0.25" stop-color="#FEE5C4"/>
<stop offset="0.4" stop-color="#FEE4AB"/>
<stop offset="0.56" stop-color="#FEE288"/>
<stop offset="0.72" stop-color="#FEDF5A"/>
<stop offset="0.9" stop-color="#FEDC24"/>
<stop offset="1" stop-color="#FEDA00"/>
</linearGradient>
<linearGradient id="paint21_linear_6566_5340" x1="4.42651" y1="18.0177" x2="22.1325" y2="18.0177" gradientUnits="userSpaceOnUse">
<stop stop-color="#2A2728"/>
<stop offset="0.04" stop-color="#4C4A4B"/>
<stop offset="0.07" stop-color="#666667"/>
<stop offset="0.1" stop-color="#797A7C"/>
<stop offset="0.13" stop-color="#848688"/>
<stop offset="0.16" stop-color="#888A8C"/>
<stop offset="0.53" stop-color="#898B8D"/>
<stop offset="0.67" stop-color="#909294"/>
<stop offset="0.76" stop-color="#9C9EA0"/>
<stop offset="0.84" stop-color="#ADAFB1"/>
<stop offset="0.87" stop-color="#B6B8BA"/>
<stop offset="0.93" stop-color="#777678"/>
<stop offset="1" stop-color="#231F20"/>
</linearGradient>
<linearGradient id="paint22_linear_6566_5340" x1="24.3972" y1="25.9355" x2="24.3972" y2="30.6553" gradientUnits="userSpaceOnUse">
<stop stop-color="#242122"/>
<stop offset="0.04" stop-color="#3E3C3E"/>
<stop offset="0.08" stop-color="#505052"/>
<stop offset="0.12" stop-color="#5B5C5E"/>
<stop offset="0.16" stop-color="#5F6062"/>
<stop offset="0.86" stop-color="#606163"/>
<stop offset="0.87" stop-color="#616264"/>
<stop offset="0.99" stop-color="#252122"/>
<stop offset="1" stop-color="#231F20"/>
</linearGradient>
<linearGradient id="paint23_linear_6566_5340" x1="28.8331" y1="20.8425" x2="36.9889" y2="20.8425" gradientUnits="userSpaceOnUse">
<stop stop-color="#231F20"/>
<stop offset="0.02" stop-color="#413E40"/>
<stop offset="0.04" stop-color="#626163"/>
<stop offset="0.07" stop-color="#7D7D7F"/>
<stop offset="0.09" stop-color="#8F9194"/>
<stop offset="0.12" stop-color="#9B9DA0"/>
<stop offset="0.14" stop-color="#9FA1A4"/>
<stop offset="0.3" stop-color="#797A7D"/>
<stop offset="0.44" stop-color="#5E5E61"/>
<stop offset="0.56" stop-color="#4D4D50"/>
<stop offset="0.66" stop-color="#48484A"/>
<stop offset="0.77" stop-color="#3E3D3F"/>
<stop offset="0.98" stop-color="#262223"/>
<stop offset="1" stop-color="#231F20"/>
</linearGradient>
<radialGradient id="paint24_radial_6566_5340" cx="0" cy="0" r="1" gradientUnits="userSpaceOnUse" gradientTransform="translate(32.911 20.8425) scale(3.27007 3.28995)">
<stop stop-color="white"/>
<stop offset="0.18" stop-color="#F9FAFA"/>
<stop offset="0.4" stop-color="#EBEBEC"/>
<stop offset="0.64" stop-color="#D3D3D5"/>
<stop offset="0.88" stop-color="#B1B3B5"/>
<stop offset="1" stop-color="#9FA1A4"/>
</radialGradient>
<linearGradient id="paint25_linear_6566_5340" x1="2.83607e-07" y1="14.991" x2="0.0790448" y2="14.991" gradientUnits="userSpaceOnUse">
<stop stop-color="#231F20"/>
<stop offset="0.02" stop-color="#413E40"/>
<stop offset="0.04" stop-color="#626163"/>
<stop offset="0.07" stop-color="#7D7D7F"/>
<stop offset="0.09" stop-color="#8F9194"/>
<stop offset="0.12" stop-color="#9B9DA0"/>
<stop offset="0.14" stop-color="#9FA1A4"/>
<stop offset="0.3" stop-color="#797A7D"/>
<stop offset="0.44" stop-color="#5E5E61"/>
<stop offset="0.56" stop-color="#4D4D50"/>
<stop offset="0.66" stop-color="#48484A"/>
<stop offset="0.77" stop-color="#3E3D3F"/>
<stop offset="0.98" stop-color="#262223"/>
<stop offset="1" stop-color="#231F20"/>
</linearGradient>
<radialGradient id="paint26_radial_6566_5340" cx="0" cy="0" r="1" gradientUnits="userSpaceOnUse" gradientTransform="translate(32.911 14.991) scale(3.27007 3.28995)">
<stop stop-color="white"/>
<stop offset="0.18" stop-color="#F9FAFA"/>
<stop offset="0.4" stop-color="#EBEBEC"/>
<stop offset="0.64" stop-color="#D3D3D5"/>
<stop offset="0.88" stop-color="#B1B3B5"/>
<stop offset="1" stop-color="#9FA1A4"/>
</radialGradient>
<linearGradient id="paint27_linear_6566_5340" x1="8.33911" y1="17.9352" x2="11.1831" y2="17.9352" gradientUnits="userSpaceOnUse">
<stop stop-color="#3E3A3B"/>
<stop offset="0.03" stop-color="#706E6E"/>
<stop offset="0.05" stop-color="#9C9A9A"/>
<stop offset="0.07" stop-color="#BFBEBF"/>
<stop offset="0.09" stop-color="#DBDADB"/>
<stop offset="0.1" stop-color="#EFEEEF"/>
<stop offset="0.12" stop-color="#FBFBFB"/>
<stop offset="0.14" stop-color="white"/>
<stop offset="0.2" stop-color="#E9E9E9"/>
<stop offset="0.36" stop-color="#ADACAC"/>
<stop offset="0.52" stop-color="#7C797A"/>
<stop offset="0.66" stop-color="#555253"/>
<stop offset="0.8" stop-color="#393637"/>
<stop offset="0.91" stop-color="#282526"/>
<stop offset="1" stop-color="#231F20"/>
</linearGradient>
<linearGradient id="paint28_linear_6566_5340" x1="6.38916" y1="36.0001" x2="8.33919" y2="36.0001" gradientUnits="userSpaceOnUse">
<stop stop-color="#3E3A3B"/>
<stop offset="0.03" stop-color="#706E6E"/>
<stop offset="0.05" stop-color="#9C9A9A"/>
<stop offset="0.07" stop-color="#BFBEBF"/>
<stop offset="0.09" stop-color="#DBDADB"/>
<stop offset="0.1" stop-color="#EFEEEF"/>
<stop offset="0.12" stop-color="#FBFBFB"/>
<stop offset="0.14" stop-color="white"/>
<stop offset="0.2" stop-color="#E9E9E9"/>
<stop offset="0.36" stop-color="#ADACAC"/>
<stop offset="0.52" stop-color="#7C797A"/>
<stop offset="0.66" stop-color="#555253"/>
<stop offset="0.8" stop-color="#393637"/>
<stop offset="0.91" stop-color="#282526"/>
<stop offset="1" stop-color="#231F20"/>
</linearGradient>
<linearGradient id="paint29_linear_6566_5340" x1="24.3972" y1="9.93481" x2="24.3972" y2="5.21421" gradientUnits="userSpaceOnUse">
<stop stop-color="#242122"/>
<stop offset="0.04" stop-color="#3E3C3E"/>
<stop offset="0.08" stop-color="#505052"/>
<stop offset="0.12" stop-color="#5B5C5E"/>
<stop offset="0.16" stop-color="#5F6062"/>
<stop offset="0.86" stop-color="#606163"/>
<stop offset="0.87" stop-color="#616264"/>
<stop offset="0.99" stop-color="#252122"/>
<stop offset="1" stop-color="#231F20"/>
</linearGradient>
<linearGradient id="paint30_linear_6566_5340" x1="0" y1="17.9296" x2="8.3392" y2="17.9296" gradientUnits="userSpaceOnUse">
<stop stop-color="#242021"/>
<stop offset="0.02" stop-color="#333132"/>
<stop offset="0.04" stop-color="#3E3C3E"/>
<stop offset="0.08" stop-color="#444345"/>
<stop offset="0.16" stop-color="#464547"/>
<stop offset="0.54" stop-color="#3E3D3E"/>
<stop offset="0.72" stop-color="#393839"/>
<stop offset="1" stop-color="#231F20"/>
</linearGradient>
<linearGradient id="paint31_linear_6566_5340" x1="19.1271" y1="17.9295" x2="17.864" y2="17.9295" gradientUnits="userSpaceOnUse">
<stop stop-color="#242021"/>
<stop offset="0.02" stop-color="#333132"/>
<stop offset="0.04" stop-color="#3E3C3E"/>
<stop offset="0.08" stop-color="#444345"/>
<stop offset="0.16" stop-color="#464547"/>
<stop offset="0.54" stop-color="#3E3D3E"/>
<stop offset="0.72" stop-color="#393839"/>
<stop offset="1" stop-color="#231F20"/>
</linearGradient>
<linearGradient id="paint32_linear_6566_5340" x1="22.1261" y1="17.9295" x2="0.0789588" y2="17.9295" gradientUnits="userSpaceOnUse">
<stop stop-color="#242021"/>
<stop offset="0.02" stop-color="#333132"/>
<stop offset="0.04" stop-color="#3E3C3E"/>
<stop offset="0.08" stop-color="#444345"/>
<stop offset="0.16" stop-color="#464547"/>
<stop offset="0.54" stop-color="#3E3D3E"/>
<stop offset="0.72" stop-color="#393839"/>
<stop offset="1" stop-color="#231F20"/>
</linearGradient>
<linearGradient id="paint33_linear_6566_5340" x1="57.9001" y1="13.3911" x2="58.8653" y2="13.3911" gradientUnits="userSpaceOnUse">
<stop stop-color="#3E3A3B"/>
<stop offset="0.03" stop-color="#706E6E"/>
<stop offset="0.05" stop-color="#9C9A9A"/>
<stop offset="0.07" stop-color="#BFBEBF"/>
<stop offset="0.09" stop-color="#DBDADB"/>
<stop offset="0.1" stop-color="#EFEEEF"/>
<stop offset="0.12" stop-color="#FBFBFB"/>
<stop offset="0.14" stop-color="white"/>
<stop offset="0.22" stop-color="#D4D4D5"/>
<stop offset="0.33" stop-color="#A2A2A3"/>
<stop offset="0.43" stop-color="#7B7B7C"/>
<stop offset="0.52" stop-color="#5F5F60"/>
<stop offset="0.6" stop-color="#4E4E50"/>
<stop offset="0.66" stop-color="#48484A"/>
<stop offset="0.77" stop-color="#3E3D3F"/>
<stop offset="0.98" stop-color="#262223"/>
<stop offset="1" stop-color="#231F20"/>
</linearGradient>
<linearGradient id="paint34_linear_6566_5340" x1="59.3032" y1="11.8394" x2="59.7158" y2="11.8394" gradientUnits="userSpaceOnUse">
<stop stop-color="#3E3A3B"/>
<stop offset="0.03" stop-color="#706E6E"/>
<stop offset="0.05" stop-color="#9C9A9A"/>
<stop offset="0.07" stop-color="#BFBEBF"/>
<stop offset="0.09" stop-color="#DBDADB"/>
<stop offset="0.1" stop-color="#EFEEEF"/>
<stop offset="0.12" stop-color="#FBFBFB"/>
<stop offset="0.14" stop-color="white"/>
<stop offset="0.22" stop-color="#D4D4D5"/>
<stop offset="0.33" stop-color="#A2A2A3"/>
<stop offset="0.43" stop-color="#7B7B7C"/>
<stop offset="0.52" stop-color="#5F5F60"/>
<stop offset="0.6" stop-color="#4E4E50"/>
<stop offset="0.66" stop-color="#48484A"/>
<stop offset="0.77" stop-color="#3E3D3F"/>
<stop offset="0.98" stop-color="#262223"/>
<stop offset="1" stop-color="#231F20"/>
</linearGradient>
<linearGradient id="paint35_linear_6566_5340" x1="58.3554" y1="10.23" x2="58.3554" y2="10.9155" gradientUnits="userSpaceOnUse">
<stop stop-color="#231F20"/>
<stop offset="0.02" stop-color="#3A3739"/>
<stop offset="0.05" stop-color="#535255"/>
<stop offset="0.08" stop-color="#666669"/>
<stop offset="0.11" stop-color="#717275"/>
<stop offset="0.14" stop-color="#757679"/>
<stop offset="0.33" stop-color="#5E5E61"/>
<stop offset="0.52" stop-color="#4D4D50"/>
<stop offset="0.66" stop-color="#48484A"/>
<stop offset="0.77" stop-color="#3E3D3F"/>
<stop offset="0.98" stop-color="#262223"/>
<stop offset="1" stop-color="#231F20"/>
</linearGradient>
<radialGradient id="paint36_radial_6566_5340" cx="0" cy="0" r="1" gradientUnits="userSpaceOnUse" gradientTransform="translate(60.7393 11.7814) scale(0.765941 0.770597)">
<stop stop-color="#9D9FA2"/>
<stop offset="0.19" stop-color="#797A7D"/>
<stop offset="0.38" stop-color="#5E5E61"/>
<stop offset="0.54" stop-color="#4D4D50"/>
<stop offset="0.66" stop-color="#48484A"/>
<stop offset="0.77" stop-color="#3E3D3F"/>
<stop offset="0.98" stop-color="#262223"/>
<stop offset="1" stop-color="#231F20"/>
</radialGradient>
<linearGradient id="paint37_linear_6566_5340" x1="56.984" y1="23.1003" x2="56.984" y2="36.0001" gradientUnits="userSpaceOnUse">
<stop stop-color="#9D9FA2"/>
<stop offset="0.19" stop-color="#797A7D"/>
<stop offset="0.38" stop-color="#5E5E61"/>
<stop offset="0.54" stop-color="#4D4D50"/>
<stop offset="0.66" stop-color="#48484A"/>
<stop offset="0.77" stop-color="#3E3D3F"/>
<stop offset="0.98" stop-color="#262223"/>
<stop offset="1" stop-color="#231F20"/>
</linearGradient>
<linearGradient id="paint38_linear_6566_5340" x1="59.387" y1="22.7694" x2="59.7988" y2="22.7694" gradientUnits="userSpaceOnUse">
<stop stop-color="#3E3A3B"/>
<stop offset="0.03" stop-color="#706E6E"/>
<stop offset="0.05" stop-color="#9C9A9A"/>
<stop offset="0.07" stop-color="#BFBEBF"/>
<stop offset="0.09" stop-color="#DBDADB"/>
<stop offset="0.1" stop-color="#EFEEEF"/>
<stop offset="0.12" stop-color="#FBFBFB"/>
<stop offset="0.14" stop-color="white"/>
<stop offset="0.22" stop-color="#D4D4D5"/>
<stop offset="0.33" stop-color="#A2A2A3"/>
<stop offset="0.43" stop-color="#7B7B7C"/>
<stop offset="0.52" stop-color="#5F5F60"/>
<stop offset="0.6" stop-color="#4E4E50"/>
<stop offset="0.66" stop-color="#48484A"/>
<stop offset="0.77" stop-color="#3E3D3F"/>
<stop offset="0.98" stop-color="#262223"/>
<stop offset="1" stop-color="#231F20"/>
</linearGradient>
<radialGradient id="paint39_radial_6566_5340" cx="0" cy="0" r="1" gradientUnits="userSpaceOnUse" gradientTransform="translate(60.8231 22.7114) scale(0.0395221 0.0397625)">
<stop stop-color="#9D9FA2"/>
<stop offset="0.19" stop-color="#797A7D"/>
<stop offset="0.38" stop-color="#5E5E61"/>
<stop offset="0.54" stop-color="#4D4D50"/>
<stop offset="0.66" stop-color="#48484A"/>
<stop offset="0.77" stop-color="#3E3D3F"/>
<stop offset="0.98" stop-color="#262223"/>
<stop offset="1" stop-color="#231F20"/>
</radialGradient>
<linearGradient id="paint40_linear_6566_5340" x1="53.8743" y1="21.779" x2="54.9976" y2="21.9636" gradientUnits="userSpaceOnUse">
<stop stop-color="#3E3A3B"/>
<stop offset="0.03" stop-color="#706E6E"/>
<stop offset="0.05" stop-color="#9C9A9A"/>
<stop offset="0.07" stop-color="#BFBEBF"/>
<stop offset="0.09" stop-color="#DBDADB"/>
<stop offset="0.1" stop-color="#EFEEEF"/>
<stop offset="0.12" stop-color="#FBFBFB"/>
<stop offset="0.14" stop-color="white"/>
<stop offset="0.22" stop-color="#D4D4D5"/>
<stop offset="0.33" stop-color="#A2A2A3"/>
<stop offset="0.43" stop-color="#7B7B7C"/>
<stop offset="0.52" stop-color="#5F5F60"/>
<stop offset="0.6" stop-color="#4E4E50"/>
<stop offset="0.66" stop-color="#48484A"/>
<stop offset="0.77" stop-color="#3E3D3F"/>
<stop offset="0.98" stop-color="#262223"/>
<stop offset="1" stop-color="#231F20"/>
</linearGradient>
<linearGradient id="paint41_linear_6566_5340" x1="61.5748" y1="17.2949" x2="58.5432" y2="18.7004" gradientUnits="userSpaceOnUse">
<stop stop-color="#231F20"/>
<stop offset="0.08" stop-color="#3B383A"/>
<stop offset="0.2" stop-color="#5C5B5D"/>
<stop offset="0.32" stop-color="#777779"/>
<stop offset="0.44" stop-color="#8A8B8E"/>
<stop offset="0.57" stop-color="#95979A"/>
<stop offset="0.69" stop-color="#999B9E"/>
<stop offset="0.74" stop-color="#797A7D"/>
<stop offset="0.79" stop-color="#5E5E61"/>
<stop offset="0.84" stop-color="#4D4D50"/>
<stop offset="0.88" stop-color="#48484A"/>
<stop offset="0.92" stop-color="#3E3D3F"/>
<stop offset="0.99" stop-color="#262223"/>
<stop offset="1" stop-color="#231F20"/>
</linearGradient>
<linearGradient id="paint42_linear_6566_5340" x1="54.9004" y1="16.195" x2="55.8192" y2="16.3396" gradientUnits="userSpaceOnUse">
<stop stop-color="#231F20"/>
<stop offset="0.12" stop-color="#383536"/>
<stop offset="0.36" stop-color="#6D6E71"/>
<stop offset="0.39" stop-color="#757679"/>
<stop offset="0.56" stop-color="#555457"/>
<stop offset="0.74" stop-color="#3A3738"/>
<stop offset="0.89" stop-color="#292526"/>
<stop offset="1" stop-color="#231F20"/>
</linearGradient>
<linearGradient id="paint43_linear_6566_5340" x1="59.9024" y1="18.056" x2="57.8237" y2="19.0197" gradientUnits="userSpaceOnUse">
<stop stop-color="#3E3A3B"/>
<stop offset="0.03" stop-color="#706E6E"/>
<stop offset="0.05" stop-color="#9C9A9A"/>
<stop offset="0.07" stop-color="#BFBEBF"/>
<stop offset="0.09" stop-color="#DBDADB"/>
<stop offset="0.1" stop-color="#EFEEEF"/>
<stop offset="0.12" stop-color="#FBFBFB"/>
<stop offset="0.14" stop-color="white"/>
<stop offset="0.22" stop-color="#D4D4D5"/>
<stop offset="0.33" stop-color="#A2A2A3"/>
<stop offset="0.43" stop-color="#7B7B7C"/>
<stop offset="0.52" stop-color="#5F5F60"/>
<stop offset="0.6" stop-color="#4E4E50"/>
<stop offset="0.66" stop-color="#48484A"/>
<stop offset="0.77" stop-color="#3E3D3F"/>
<stop offset="0.98" stop-color="#262223"/>
<stop offset="1" stop-color="#231F20"/>
</linearGradient>
<linearGradient id="paint44_linear_6566_5340" x1="58.5879" y1="18.6953" x2="58.2996" y2="18.8292" gradientUnits="userSpaceOnUse">
<stop stop-color="#3E3A3B"/>
<stop offset="0.03" stop-color="#706E6E"/>
<stop offset="0.05" stop-color="#9C9A9A"/>
<stop offset="0.07" stop-color="#BFBEBF"/>
<stop offset="0.09" stop-color="#DBDADB"/>
<stop offset="0.1" stop-color="#EFEEEF"/>
<stop offset="0.12" stop-color="#FBFBFB"/>
<stop offset="0.14" stop-color="white"/>
<stop offset="0.22" stop-color="#D4D4D5"/>
<stop offset="0.33" stop-color="#A2A2A3"/>
<stop offset="0.43" stop-color="#7B7B7C"/>
<stop offset="0.52" stop-color="#5F5F60"/>
<stop offset="0.6" stop-color="#4E4E50"/>
<stop offset="0.66" stop-color="#48484A"/>
<stop offset="0.77" stop-color="#3E3D3F"/>
<stop offset="0.98" stop-color="#262223"/>
<stop offset="1" stop-color="#231F20"/>
</linearGradient>
<linearGradient id="paint45_linear_6566_5340" x1="58.8653" y1="21.4978" x2="57.9001" y2="21.4978" gradientUnits="userSpaceOnUse">
<stop stop-color="#3E3A3B"/>
<stop offset="0.03" stop-color="#706E6E"/>
<stop offset="0.05" stop-color="#9C9A9A"/>
<stop offset="0.07" stop-color="#BFBEBF"/>
<stop offset="0.09" stop-color="#DBDADB"/>
<stop offset="0.1" stop-color="#EFEEEF"/>
<stop offset="0.12" stop-color="#FBFBFB"/>
<stop offset="0.14" stop-color="white"/>
<stop offset="0.22" stop-color="#D4D4D5"/>
<stop offset="0.33" stop-color="#A2A2A3"/>
<stop offset="0.43" stop-color="#7B7B7C"/>
<stop offset="0.52" stop-color="#5F5F60"/>
<stop offset="0.6" stop-color="#4E4E50"/>
<stop offset="0.66" stop-color="#48484A"/>
<stop offset="0.77" stop-color="#3E3D3F"/>
<stop offset="0.98" stop-color="#262223"/>
<stop offset="1" stop-color="#231F20"/>
</linearGradient>
<linearGradient id="paint46_linear_6566_5340" x1="80.3684" y1="21.4174" x2="80.3684" y2="14.5695" gradientUnits="userSpaceOnUse">
<stop stop-color="#231F20"/>
<stop offset="0.02" stop-color="#282526"/>
<stop offset="0.18" stop-color="#5A595B"/>
<stop offset="0.32" stop-color="#7E7F81"/>
<stop offset="0.43" stop-color="#949699"/>
<stop offset="0.49" stop-color="#9D9FA2"/>
<stop offset="1" stop-color="#231F20"/>
</linearGradient>
<linearGradient id="paint47_linear_6566_5340" x1="83.5871" y1="20.6621" x2="83.5871" y2="15.1272" gradientUnits="userSpaceOnUse">
<stop stop-color="#231F20"/>
<stop offset="0.02" stop-color="#282526"/>
<stop offset="0.18" stop-color="#5A595B"/>
<stop offset="0.32" stop-color="#7E7F81"/>
<stop offset="0.43" stop-color="#949699"/>
<stop offset="0.49" stop-color="#9D9FA2"/>
<stop offset="1" stop-color="#231F20"/>
</linearGradient>
<linearGradient id="paint48_linear_6566_5340" x1="78.3845" y1="21.4174" x2="78.3845" y2="14.5695" gradientUnits="userSpaceOnUse">
<stop stop-color="#231F20"/>
<stop offset="0.19" stop-color="#3F3D3F"/>
<stop offset="0.38" stop-color="#545457"/>
<stop offset="0.49" stop-color="#5C5D60"/>
<stop offset="1" stop-color="#231F20"/>
</linearGradient>
<linearGradient id="paint49_linear_6566_5340" x1="79.7172" y1="29.3184" x2="79.7172" y2="31.0703" gradientUnits="userSpaceOnUse">
<stop stop-color="#252122"/>
<stop offset="0.03" stop-color="#535050"/>
<stop offset="0.07" stop-color="#7B7879"/>
<stop offset="0.1" stop-color="#9E9D9D"/>
<stop offset="0.14" stop-color="#BCBBBB"/>
<stop offset="0.18" stop-color="#D5D4D4"/>
<stop offset="0.23" stop-color="#E7E7E7"/>
<stop offset="0.29" stop-color="#F5F4F4"/>
<stop offset="0.36" stop-color="#FCFCFC"/>
<stop offset="0.49" stop-color="white"/>
<stop offset="0.56" stop-color="#FAFAFA"/>
<stop offset="0.62" stop-color="#EDEDED"/>
<stop offset="0.69" stop-color="#D8D7D8"/>
<stop offset="0.76" stop-color="#BAB9B9"/>
<stop offset="0.84" stop-color="#949292"/>
<stop offset="0.91" stop-color="#656263"/>
<stop offset="0.99" stop-color="#2F2B2C"/>
<stop offset="1" stop-color="#231F20"/>
</linearGradient>
<linearGradient id="paint50_linear_6566_5340" x1="-0.000211699" y1="24.9795" x2="0.0788331" y2="24.9795" gradientUnits="userSpaceOnUse">
<stop stop-color="#231F20"/>
<stop offset="0.02" stop-color="#282526"/>
<stop offset="0.18" stop-color="#5A595B"/>
<stop offset="0.32" stop-color="#7E7F81"/>
<stop offset="0.43" stop-color="#949699"/>
<stop offset="0.49" stop-color="#9D9FA2"/>
<stop offset="1" stop-color="#231F20"/>
</linearGradient>
<linearGradient id="paint51_linear_6566_5340" x1="0.000193372" y1="4.78882" x2="0.0802" y2="6.54071" gradientUnits="userSpaceOnUse">
<stop stop-color="#252122"/>
<stop offset="0.03" stop-color="#535050"/>
<stop offset="0.07" stop-color="#7B7879"/>
<stop offset="0.1" stop-color="#9E9D9D"/>
<stop offset="0.14" stop-color="#BCBBBB"/>
<stop offset="0.18" stop-color="#D5D4D4"/>
<stop offset="0.23" stop-color="#E7E7E7"/>
<stop offset="0.29" stop-color="#F5F4F4"/>
<stop offset="0.36" stop-color="#FCFCFC"/>
<stop offset="0.49" stop-color="white"/>
<stop offset="0.56" stop-color="#FAFAFA"/>
<stop offset="0.62" stop-color="#EDEDED"/>
<stop offset="0.69" stop-color="#D8D7D8"/>
<stop offset="0.76" stop-color="#BAB9B9"/>
<stop offset="0.84" stop-color="#949292"/>
<stop offset="0.91" stop-color="#656263"/>
<stop offset="0.99" stop-color="#2F2B2C"/>
<stop offset="1" stop-color="#231F20"/>
</linearGradient>
<radialGradient id="paint52_radial_6566_5340" cx="0" cy="0" r="1" gradientUnits="userSpaceOnUse" gradientTransform="translate(0.0394868 28.9261) scale(0.706658 0.710954)">
<stop stop-color="#9D9FA2"/>
<stop offset="0.44" stop-color="#757679"/>
<stop offset="0.79" stop-color="#5D5D5F"/>
<stop offset="1" stop-color="#545456"/>
</radialGradient>
<linearGradient id="paint53_linear_6566_5340" x1="75.0559" y1="15.4189" x2="77.1505" y2="15.4189" gradientUnits="userSpaceOnUse">
<stop stop-color="#231F20"/>
<stop offset="0.17" stop-color="#393738"/>
<stop offset="0.37" stop-color="#4E4E50"/>
<stop offset="0.49" stop-color="#565759"/>
</linearGradient>
<linearGradient id="paint54_linear_6566_5340" x1="87.4004" y1="19.2797" x2="91.11" y2="19.2797" gradientUnits="userSpaceOnUse">
<stop stop-color="#231F20"/>
<stop offset="0.02" stop-color="#2D292B"/>
<stop offset="0.1" stop-color="#4A484A"/>
<stop offset="0.19" stop-color="#616163"/>
<stop offset="0.28" stop-color="#717275"/>
<stop offset="0.37" stop-color="#7A7C7F"/>
<stop offset="0.48" stop-color="#7E8083"/>
<stop offset="0.6" stop-color="#7A7C7F"/>
<stop offset="0.7" stop-color="#717275"/>
<stop offset="0.79" stop-color="#616163"/>
<stop offset="0.89" stop-color="#4A494B"/>
<stop offset="0.97" stop-color="#2D2A2B"/>
<stop offset="1" stop-color="#231F20"/>
</linearGradient>
<linearGradient id="paint55_linear_6566_5340" x1="87.8643" y1="19.7388" x2="94.2385" y2="19.7388" gradientUnits="userSpaceOnUse">
<stop stop-color="#231F20"/>
<stop offset="0.02" stop-color="#272324"/>
<stop offset="0.12" stop-color="#3D3C3D"/>
<stop offset="0.23" stop-color="#4D4D4F"/>
<stop offset="0.34" stop-color="#565759"/>
<stop offset="0.48" stop-color="#5A5B5D"/>
<stop offset="0.63" stop-color="#565759"/>
<stop offset="0.75" stop-color="#4D4D4F"/>
<stop offset="0.87" stop-color="#3D3C3D"/>
<stop offset="0.98" stop-color="#272425"/>
<stop offset="1" stop-color="#231F20"/>
</linearGradient>
<linearGradient id="paint56_linear_6566_5340" x1="94.2273" y1="20.1969" x2="95.99" y2="20.1969" gradientUnits="userSpaceOnUse">
<stop stop-color="#231F20"/>
<stop offset="0.03" stop-color="#282526"/>
<stop offset="0.27" stop-color="#4D4C4E"/>
<stop offset="0.48" stop-color="#68686B"/>
<stop offset="0.66" stop-color="#78797C"/>
<stop offset="0.8" stop-color="#7E8083"/>
<stop offset="0.85" stop-color="#7A7C7F"/>
<stop offset="0.9" stop-color="#717275"/>
<stop offset="0.95" stop-color="#606163"/>
<stop offset="0.99" stop-color="#49494B"/>
<stop offset="1" stop-color="#414042"/>
</linearGradient>
<linearGradient id="paint57_linear_6566_5340" x1="-0.000300851" y1="19.28" x2="0.0787438" y2="19.28" gradientUnits="userSpaceOnUse">
<stop stop-color="#231F20"/>
<stop offset="0.03" stop-color="#282526"/>
<stop offset="0.27" stop-color="#4D4C4E"/>
<stop offset="0.48" stop-color="#68686B"/>
<stop offset="0.66" stop-color="#78797C"/>
<stop offset="0.8" stop-color="#7E8083"/>
<stop offset="0.85" stop-color="#7A7C7F"/>
<stop offset="0.9" stop-color="#717275"/>
<stop offset="0.95" stop-color="#606163"/>
<stop offset="0.99" stop-color="#49494B"/>
<stop offset="1" stop-color="#414042"/>
</linearGradient>
<linearGradient id="paint58_linear_6566_5340" x1="87.4004" y1="16.6191" x2="91.11" y2="16.6191" gradientUnits="userSpaceOnUse">
<stop stop-color="#231F20"/>
<stop offset="0.02" stop-color="#2D292B"/>
<stop offset="0.1" stop-color="#4A484A"/>
<stop offset="0.19" stop-color="#616163"/>
<stop offset="0.28" stop-color="#717275"/>
<stop offset="0.37" stop-color="#7A7C7F"/>
<stop offset="0.48" stop-color="#7E8083"/>
<stop offset="0.6" stop-color="#7A7C7F"/>
<stop offset="0.7" stop-color="#717275"/>
<stop offset="0.79" stop-color="#616163"/>
<stop offset="0.89" stop-color="#4A494B"/>
<stop offset="0.97" stop-color="#2D2A2B"/>
<stop offset="1" stop-color="#231F20"/>
</linearGradient>
<linearGradient id="paint59_linear_6566_5340" x1="87.8548" y1="16.1282" x2="94.2479" y2="16.1282" gradientUnits="userSpaceOnUse">
<stop stop-color="#231F20"/>
<stop offset="0.02" stop-color="#272324"/>
<stop offset="0.12" stop-color="#3D3C3D"/>
<stop offset="0.23" stop-color="#4D4D4F"/>
<stop offset="0.34" stop-color="#565759"/>
<stop offset="0.48" stop-color="#5A5B5D"/>
<stop offset="0.63" stop-color="#565759"/>
<stop offset="0.75" stop-color="#4D4D4F"/>
<stop offset="0.87" stop-color="#3D3C3D"/>
<stop offset="0.98" stop-color="#272425"/>
<stop offset="1" stop-color="#231F20"/>
</linearGradient>
<linearGradient id="paint60_linear_6566_5340" x1="94.2457" y1="15.6661" x2="0.0793417" y2="15.6661" gradientUnits="userSpaceOnUse">
<stop stop-color="#231F20"/>
<stop offset="0.03" stop-color="#282526"/>
<stop offset="0.27" stop-color="#4D4C4E"/>
<stop offset="0.48" stop-color="#68686B"/>
<stop offset="0.66" stop-color="#78797C"/>
<stop offset="0.8" stop-color="#7E8083"/>
<stop offset="0.85" stop-color="#7A7C7F"/>
<stop offset="0.9" stop-color="#717275"/>
<stop offset="0.95" stop-color="#606163"/>
<stop offset="0.99" stop-color="#49494B"/>
<stop offset="1" stop-color="#414042"/>
</linearGradient>
<linearGradient id="paint61_linear_6566_5340" x1="94.2457" y1="16.58" x2="0.0793417" y2="16.58" gradientUnits="userSpaceOnUse">
<stop stop-color="#231F20"/>
<stop offset="0.03" stop-color="#282526"/>
<stop offset="0.27" stop-color="#4D4C4E"/>
<stop offset="0.48" stop-color="#68686B"/>
<stop offset="0.66" stop-color="#78797C"/>
<stop offset="0.8" stop-color="#7E8083"/>
<stop offset="0.85" stop-color="#7A7C7F"/>
<stop offset="0.9" stop-color="#717275"/>
<stop offset="0.95" stop-color="#606163"/>
<stop offset="0.99" stop-color="#49494B"/>
<stop offset="1" stop-color="#414042"/>
</linearGradient>
<linearGradient id="paint62_linear_6566_5340" x1="97.582" y1="5.20153" x2="99.7731" y2="5.20153" gradientUnits="userSpaceOnUse">
<stop stop-color="#231F20"/>
<stop offset="1" stop-color="#7E8083"/>
</linearGradient>
<linearGradient id="paint63_linear_6566_5340" x1="98.4514" y1="11.9318" x2="99.9999" y2="11.9318" gradientUnits="userSpaceOnUse">
<stop stop-color="#5A5B5D"/>
<stop offset="0.17" stop-color="#231F20"/>
<stop offset="0.19" stop-color="#262223"/>
<stop offset="0.21" stop-color="#302D2E"/>
<stop offset="0.23" stop-color="#423F3F"/>
<stop offset="0.25" stop-color="#5B5859"/>
<stop offset="0.26" stop-color="#7B7979"/>
<stop offset="0.28" stop-color="#A2A1A1"/>
<stop offset="0.29" stop-color="#D0CFCF"/>
<stop offset="0.31" stop-color="white"/>
<stop offset="0.39" stop-color="#DEDDDD"/>
<stop offset="0.61" stop-color="#8E8C8D"/>
<stop offset="0.8" stop-color="#545152"/>
<stop offset="0.93" stop-color="#302C2D"/>
<stop offset="1" stop-color="#231F20"/>
</linearGradient>
<linearGradient id="paint64_linear_6566_5340" x1="0.000109741" y1="30.7459" x2="0.0791542" y2="30.7459" gradientUnits="userSpaceOnUse">
<stop stop-color="#231F20"/>
<stop offset="1" stop-color="#7E8083"/>
</linearGradient>
<linearGradient id="paint65_linear_6566_5340" x1="7.96607e-05" y1="24.1032" x2="0.079124" y2="24.1032" gradientUnits="userSpaceOnUse">
<stop stop-color="#5A5B5D"/>
<stop offset="0.17" stop-color="#231F20"/>
<stop offset="0.19" stop-color="#262223"/>
<stop offset="0.21" stop-color="#302D2E"/>
<stop offset="0.23" stop-color="#423F3F"/>
<stop offset="0.25" stop-color="#5B5859"/>
<stop offset="0.26" stop-color="#7B7979"/>
<stop offset="0.28" stop-color="#A2A1A1"/>
<stop offset="0.29" stop-color="#D0CFCF"/>
<stop offset="0.31" stop-color="white"/>
<stop offset="0.39" stop-color="#DEDDDD"/>
<stop offset="0.61" stop-color="#8E8C8D"/>
<stop offset="0.8" stop-color="#545152"/>
<stop offset="0.93" stop-color="#302C2D"/>
<stop offset="1" stop-color="#231F20"/>
</linearGradient>
<linearGradient id="paint66_linear_6566_5340" x1="91.7761" y1="17.9336" x2="93.1823" y2="17.9336" gradientUnits="userSpaceOnUse">
<stop/>
<stop offset="0.62" stop-color="#1A1A1A"/>
<stop offset="1" stop-color="#262626"/>
</linearGradient>
<linearGradient id="paint67_linear_6566_5340" x1="93.8654" y1="17.9065" x2="95.4621" y2="17.9065" gradientUnits="userSpaceOnUse">
<stop stop-color="#231F20"/>
<stop offset="0.02" stop-color="#2D292B"/>
<stop offset="0.1" stop-color="#4A484A"/>
<stop offset="0.19" stop-color="#616163"/>
<stop offset="0.28" stop-color="#717275"/>
<stop offset="0.37" stop-color="#7A7C7F"/>
<stop offset="0.48" stop-color="#7E8083"/>
<stop offset="0.6" stop-color="#7A7C7F"/>
<stop offset="0.7" stop-color="#717275"/>
<stop offset="0.79" stop-color="#616163"/>
<stop offset="0.89" stop-color="#4A494B"/>
<stop offset="0.97" stop-color="#2D2A2B"/>
<stop offset="1" stop-color="#231F20"/>
</linearGradient>
<linearGradient id="paint68_linear_6566_5340" x1="75.3508" y1="6.92886" x2="89.8294" y2="6.92886" gradientUnits="userSpaceOnUse">
<stop offset="0.12"/>
<stop offset="0.32" stop-color="#0E0E0E"/>
<stop offset="0.49" stop-color="#141414"/>
<stop offset="0.7" stop-color="#1B191A"/>
<stop offset="0.89" stop-color="#272324"/>
<stop offset="1"/>
</linearGradient>
<linearGradient id="paint69_linear_6566_5340" x1="75.4764" y1="28.9301" x2="89.7969" y2="28.9301" gradientUnits="userSpaceOnUse">
<stop offset="0.12"/>
<stop offset="0.32" stop-color="#0E0E0E"/>
<stop offset="0.49" stop-color="#141414"/>
<stop offset="0.7" stop-color="#1B191A"/>
<stop offset="0.89" stop-color="#272324"/>
<stop offset="1"/>
</linearGradient>
<clipPath id="clip0_6566_5340">
<rect width="100" height="36" fill="white" transform="matrix(1 0 0 -1 0 36)"/>
</clipPath>
</defs>
</svg>
