<svg width="100" height="56" viewBox="0 0 100 56" fill="none" xmlns="http://www.w3.org/2000/svg">
<path d="M99.705 37.3101C99.4839 40.8304 97.5684 43.8375 93.5901 46.4049C89.6118 48.9717 85.192 48.3849 82.687 48.3849C80.182 48.3849 76.2777 48.2383 73.3311 48.0918C70.3857 47.9446 70.2367 47.2854 65.3826 47.2848C65.1808 48.2433 64.8143 49.3773 64.4062 50.0223C63.9031 50.8181 63.0472 50.8898 62.5814 50.862C62.4019 50.8515 62.2708 50.6913 62.2994 50.5145C62.3659 50.1039 62.5255 49.2568 62.8882 47.8401C62.9398 47.6385 62.9889 47.453 63.0348 47.2823C59.9969 47.2768 55.2131 47.2638 50.3317 47.2508C50.1528 47.4153 49.9292 47.5878 49.7746 47.5878H44.7156C44.51 47.5878 44.4081 47.4042 44.3578 47.2347C39.4056 47.2217 35.1038 47.2112 33.4013 47.2112C28.9075 47.2112 29.4969 48.0182 26.2553 48.0182C23.0137 48.0182 14.9839 48.1647 10.1957 47.5049C5.40625 46.8445 3.58823 45.6109 2.08761 42.5253C0.58699 39.4397 0.839786 28.1633 0.839786 28.1633V27.8208C0.839786 27.8208 0.58699 16.5438 2.08761 13.4582C3.58823 10.3726 5.40625 9.13895 10.1957 8.47855C14.9839 7.81876 23.0137 7.96531 26.2553 7.96531C29.4969 7.96531 28.9075 8.77227 33.4013 8.77227C35.1031 8.77227 39.4038 8.76176 44.3547 8.74877C44.4038 8.57687 44.5056 8.38518 44.7156 8.38518H49.7746C49.9323 8.38518 50.1621 8.56512 50.3423 8.73269C55.2224 8.71971 60.0025 8.70672 63.0379 8.70177C62.9907 8.5274 62.941 8.3388 62.8882 8.1335C62.5255 6.71623 62.3659 5.8697 62.2994 5.45849C62.2708 5.28226 62.4019 5.1221 62.5814 5.11159C63.0472 5.08377 63.9031 5.15549 64.4062 5.9507C64.8156 6.59812 65.1839 7.73837 65.3845 8.69868C70.2367 8.69807 70.3864 8.03889 73.3311 7.89235C76.2777 7.74518 80.182 7.59863 82.687 7.59863C85.192 7.59863 89.6118 7.01181 93.5901 9.57923C97.5684 12.146 99.4839 15.1531 99.705 18.6734C99.9261 22.1937 100 27.9921 100 27.9921C100 27.9921 99.9261 33.7898 99.705 37.3101Z" fill="#1A1818"/>
<mask id="mask0_2587_198" style="mask-type:alpha" maskUnits="userSpaceOnUse" x="0" y="5" width="100" height="46">
<rect width="99.8826" height="45.7603" transform="matrix(1 0 0 -1 0.117432 50.8667)" fill="#D9D9D9"/>
</mask>
<g mask="url(#mask0_2587_198)">
<path d="M99.7051 37.31C99.484 40.8303 97.5684 43.8374 93.5902 46.4048C89.6119 48.9716 85.192 48.3848 82.6871 48.3848C80.1821 48.3848 76.2778 48.2383 73.3312 48.0917C70.3858 47.9445 70.2368 47.2854 65.3827 47.2848C65.1809 48.2432 64.8144 49.3773 64.4063 50.0222C63.9032 50.818 63.0473 50.8898 62.5815 50.8619C62.402 50.8514 62.2709 50.6913 62.2995 50.5144C62.366 50.1038 62.5256 49.2567 62.8883 47.84C62.9399 47.6385 62.9889 47.4529 63.0349 47.2823C55.5318 47.2687 37.3765 47.2112 33.4014 47.2112C28.9076 47.2112 29.497 48.0181 26.2554 48.0181C23.0138 48.0181 14.984 48.1647 10.1958 47.5049C5.40632 46.8445 3.58831 45.6109 2.08769 42.5253C1.33117 42.1215 0.711913 41.568 0.711913 41.0591C0.711913 40.1143 0.000732422 34.7587 0.000732422 29.0104L0.000732422 27.1591C0.000732422 21.4102 0.711913 16.0552 0.711913 15.1104C0.711913 14.6262 1.27278 14.1012 1.98024 13.7036C2.0144 13.617 2.05042 13.5348 2.08769 13.4581C3.58831 10.3725 5.40632 9.13889 10.1958 8.47849C14.984 7.8187 23.0138 7.96525 26.2554 7.96525C29.497 7.96525 28.9076 8.77221 33.4014 8.77221C37.3771 8.77221 55.5361 8.7147 63.038 8.70171C62.9908 8.52734 62.9411 8.33874 62.8883 8.13344C62.5256 6.71617 62.366 5.86964 62.2995 5.45843C62.2709 5.2822 62.402 5.12204 62.5815 5.11153C63.0473 5.08371 63.9032 5.15543 64.4063 5.95064C64.8156 6.59806 65.184 7.73831 65.3846 8.69862C70.2368 8.69801 70.3865 8.03883 73.3312 7.89228C76.2778 7.74512 80.1821 7.59856 82.6871 7.59856C85.192 7.59856 89.6119 7.01175 93.5902 9.57917C97.5684 12.146 99.484 15.153 99.7051 18.6733C99.9262 22.1937 100 27.992 100 27.992C100 27.992 99.9262 33.7897 99.7051 37.31Z" fill="#780B14"/>
</g>
<mask id="mask1_2587_198" style="mask-type:alpha" maskUnits="userSpaceOnUse" x="21" y="10" width="47" height="5">
<path d="M33.2885 14.2258C28.9034 14.2258 24.0121 13.2549 22.2407 12.6254C20.4699 11.996 20.8916 10.6529 22.2407 10.6529C23.5904 10.6529 25.8674 10.7364 29.5357 10.6529C33.204 10.5688 42.7338 10.2744 42.7338 10.2744L67.3394 10.2744C67.5873 10.2744 67.6357 10.6269 67.396 10.6912C67.1649 10.7524 66.8879 10.8235 66.5574 10.9046C64.3227 11.4499 51.7997 13.6327 46.9084 13.9741C43.691 14.1979 40.7115 14.2363 37.8015 14.2363C36.286 14.2363 34.7897 14.2258 33.2885 14.2258Z" fill="black"/>
</mask>
<g mask="url(#mask1_2587_198)">
<rect width="47.1658" height="3.96182" transform="matrix(1 0 0 -1 20.4697 14.2363)" fill="url(#paint0_linear_2587_198)"/>
</g>
<mask id="mask2_2587_198" style="mask-type:alpha" maskUnits="userSpaceOnUse" x="21" y="41" width="47" height="5">
<path d="M43.1556 45.6988H42.7338C42.7338 45.6988 33.204 45.4051 29.5357 45.321C25.8674 45.2375 23.5904 45.321 22.2407 45.321C20.8916 45.321 20.4699 43.9779 22.2407 43.3484C24.0121 42.7189 28.9034 41.7481 33.2885 41.7481C37.6742 41.7481 42.0171 41.6597 46.9084 42.0004C51.7997 42.3411 64.3227 44.5233 66.5574 45.0693C66.8879 45.1503 67.1649 45.2208 67.396 45.2826C67.6357 45.3463 67.5873 45.6988 67.3394 45.6988H43.1556Z" fill="black"/>
</mask>
<g mask="url(#mask2_2587_198)">
<rect width="47.1658" height="4.03911" transform="matrix(1 0 0 -1 20.4697 45.6988)" fill="url(#paint1_linear_2587_198)"/>
</g>
<mask id="mask3_2587_198" style="mask-type:alpha" maskUnits="userSpaceOnUse" x="0" y="5" width="100" height="46">
<rect width="99.8826" height="45.7603" transform="matrix(1 0 0 -1 0.117432 50.8667)" fill="#D9D9D9"/>
</mask>
<g mask="url(#mask3_2587_198)">
<path d="M13.6665 13.6464C12.6547 13.6464 12.3106 13.8479 11.7268 14.091C8.9808 15.2349 9.17708 26.5391 9.18888 27.8241L9.18888 28.3336C9.17708 29.6154 8.9808 40.919 11.7268 42.063C12.7584 42.4934 13.7702 42.7926 16.6696 42.0797C17.3516 41.9121 17.9404 41.7569 18.5094 41.6066C22.2411 40.6216 24.2963 40.0793 38.6007 40.0793C52.1249 40.0793 54.392 40.9388 54.4821 40.9753L54.7566 40.3489C54.6696 40.3099 52.4572 39.396 38.6007 39.396C24.2069 39.396 22.1206 39.9463 18.3336 40.9456C17.7671 41.0952 17.182 41.2498 16.505 41.4162C13.7994 42.0815 12.5721 41.8175 11.6485 41.4323C9.90068 40.7044 9.31807 33.0133 9.36093 28.3367L9.36093 27.821C9.31807 23.1412 9.90068 15.4495 11.6485 14.7217C12.5721 14.3371 13.7994 14.073 16.505 14.7384C17.1814 14.9047 17.7671 15.0593 18.3336 15.2083C22.1206 16.2076 24.2069 16.7585 38.6007 16.7585C52.4572 16.7585 54.6696 15.844 54.7566 15.805L54.4821 15.1786C54.392 15.2157 52.1249 16.0746 38.6007 16.0746C24.2963 16.0746 22.2411 15.5323 18.5094 14.5479C17.9404 14.3977 17.3516 14.2425 16.6696 14.0749C15.4112 13.7651 14.4429 13.6464 13.6665 13.6464Z" fill="#1A1818"/>
</g>
<mask id="mask4_2587_198" style="mask-type:alpha" maskUnits="userSpaceOnUse" x="54" y="12" width="24" height="32">
<path d="M70.6571 43.9585C69.3086 43.8837 63.6863 42.7644 60.1633 42.0929C56.6409 41.4214 54.6167 40.8988 54.6167 40.8988C54.6167 40.8988 55.8906 35.4251 55.8906 28.1625C55.8906 20.8993 54.6167 15.4262 54.6167 15.4262C54.6167 15.4262 56.6409 14.9031 60.1633 14.2316C63.6863 13.56 69.3086 12.4408 70.6571 12.366C72.0068 12.2918 73.3558 12.2918 74.4055 13.7097C75.4546 15.1269 77.3291 19.8283 77.3291 28.1625C77.3291 36.4961 75.4546 41.1975 74.4055 42.6154C73.5515 43.7686 72.4999 43.9838 71.4105 43.9838C71.1608 43.9838 70.9092 43.9727 70.6571 43.9585Z" fill="black"/>
</mask>
<g mask="url(#mask4_2587_198)">
<rect width="22.7124" height="31.6921" transform="matrix(1 0 0 -1 54.6167 43.985)" fill="url(#paint2_linear_2587_198)"/>
</g>
<mask id="mask5_2587_198" style="mask-type:alpha" maskUnits="userSpaceOnUse" x="0" y="5" width="100" height="46">
<rect width="100" height="45.7602" transform="matrix(1 0 0 -1 0 50.8667)" fill="#D9D9D9"/>
</mask>
<g mask="url(#mask5_2587_198)">
<mask id="mask6_2587_198" style="mask-type:alpha" maskUnits="userSpaceOnUse" x="9" y="13" width="15" height="30">
<path d="M11.0829 41.3737C9.06302 38.5935 9.23072 31.4911 9.23072 28.1662C9.23072 24.8419 8.74687 17.8829 11.0829 14.6087C12.7984 12.8915 16.7084 14.7039 23.0748 15.8466C23.4419 15.9128 23.7313 16.1972 23.7233 16.5707C23.6568 19.5852 23.1667 22.1329 23.1667 28.1662C23.1667 34.2001 23.6568 36.3971 23.7233 39.4122C23.7313 39.7851 23.4419 40.0696 23.0748 40.1357C18.5966 40.939 15.3245 42.0786 13.1823 42.0792C12.2866 42.0792 11.5891 41.8801 11.0829 41.3737Z" fill="black"/>
</mask>
<g mask="url(#mask6_2587_198)">
<rect width="14.9845" height="29.1877" transform="matrix(1 0 0 -1 8.74683 42.0804)" fill="url(#paint3_linear_2587_198)"/>
</g>
<path d="M42.733 45.6979L42.3107 45.6849L43.0659 47.2308L43.4492 47.2314L42.733 45.6979ZM43.0752 8.722L43.4976 8.73621L42.6448 10.2302L42.2622 10.2067L43.0752 8.722Z" fill="#1A1818"/>
<mask id="mask7_2587_198" style="mask-type:alpha" maskUnits="userSpaceOnUse" x="3" y="9" width="9" height="38">
<path d="M11.3235 13.6658C11.3235 13.6658 10.9974 13.1841 9.51111 13.0048C8.02415 12.8261 7.04527 12.8718 3.6167 13.0431C4.13657 11.188 5.66577 10.1449 6.31918 9.70954C6.40676 9.65141 6.17943 9.5568 6.24465 9.52651C6.35583 9.47332 6.45459 9.44735 6.45459 9.44735L6.54217 9.59391C6.58005 9.65512 6.55459 9.73428 6.48875 9.76581C4.97695 10.4813 4.22415 12.1558 4.00925 12.6492C3.97198 12.7333 4.02415 12.8285 4.11484 12.8428C4.27322 12.8669 4.91421 12.8378 5.60925 12.8081C6.13906 12.7859 6.70055 12.763 7.10241 12.7648C10.6707 12.7277 11.4763 13.4036 11.4763 13.4036L11.7266 14.0479L11.4651 14.2248L11.3235 13.6658ZM6.24465 46.5847C6.17943 46.5538 6.40676 46.4591 6.31918 46.4016C5.66577 45.9663 4.13657 44.9225 3.6167 43.0687C7.04527 43.2394 8.02415 43.2851 9.51111 43.1064C10.9974 42.9271 11.3235 42.4448 11.3235 42.4448L11.4651 41.8864L11.7266 42.0626L11.4763 42.7076C11.4763 42.7076 10.6707 43.3834 7.10241 43.3463C6.70055 43.3476 6.13968 43.3247 5.60925 43.3024C4.91421 43.2734 4.27322 43.2437 4.11484 43.2678C4.02415 43.2814 3.97198 43.3772 4.00925 43.4613C4.22415 43.9548 4.97695 45.6293 6.48875 46.3454C6.55459 46.3763 6.58005 46.4561 6.54217 46.5173L6.45459 46.6638C6.45459 46.6638 6.35583 46.6372 6.24465 46.5847Z" fill="black"/>
</mask>
<g mask="url(#mask7_2587_198)">
<rect width="8.10994" height="37.2165" transform="matrix(1 0 0 -1 3.6167 46.665)" fill="url(#paint4_linear_2587_198)"/>
</g>
<mask id="mask8_2587_198" style="mask-type:alpha" maskUnits="userSpaceOnUse" x="73" y="10" width="26" height="36">
<path d="M73.3713 43.5323L73.5347 43.4809C73.5403 43.4983 74.0949 45.2117 75.3887 45.2117C76.608 45.2117 88.7558 44.8011 91.1782 44.7195C91.544 44.7065 91.8887 44.5594 92.1502 44.3034L96.8682 39.678C97.131 39.4202 97.285 39.0764 97.3018 38.7097L97.4775 34.8382L97.6583 27.9874L97.4844 21.494L97.303 17.615C97.2856 17.2484 97.1316 16.9058 96.8689 16.6479L92.1502 12.0226C91.8887 11.7666 91.544 11.6188 91.1782 11.6065C88.7571 11.5242 76.6204 11.1143 75.3887 11.1143C74.0949 11.1143 73.5403 12.8277 73.5347 12.845L73.3713 12.7937C73.3943 12.7177 73.9689 10.943 75.3887 10.943C76.6229 10.943 88.7626 11.3536 91.1838 11.4358C91.5925 11.4494 91.9788 11.6145 92.2707 11.9008L96.99 16.5261C97.2831 16.8137 97.4546 17.1977 97.4738 17.607L97.4987 18.1246H97.5701C97.7676 18.1246 97.6726 18.4319 97.6831 18.8233L98.0136 27.9874L97.6831 37.3091C97.6726 37.7011 97.767 38.0091 97.5695 38.0091H97.5055L97.4732 38.7171C97.4546 39.1271 97.2825 39.5117 96.9887 39.7999L92.2707 44.4252C91.9782 44.7115 91.5925 44.876 91.1838 44.8902C88.7608 44.9724 76.6105 45.3824 75.3887 45.3824C73.9689 45.3824 73.3943 43.6071 73.3713 43.5323Z" fill="black"/>
</mask>
<g mask="url(#mask8_2587_198)">
<rect width="24.6422" height="34.4394" transform="matrix(1 0 0 -1 73.3713 45.3824)" fill="url(#paint5_linear_2587_198)"/>
</g>
<mask id="mask9_2587_198" style="mask-type:alpha" maskUnits="userSpaceOnUse" x="0" y="5" width="100" height="46">
<rect width="99.8826" height="45.7603" transform="matrix(1 0 0 -1 0.117432 50.8667)" fill="#D9D9D9"/>
</mask>
<g mask="url(#mask9_2587_198)">
<g opacity="0.149994">
<mask id="mask10_2587_198" style="mask-type:alpha" maskUnits="userSpaceOnUse" x="55" y="14" width="7" height="28">
<rect width="6.23603" height="26.6965" transform="matrix(1 0 0 -1 55.1082 41.4151)" fill="#D9D9D9"/>
</mask>
<g mask="url(#mask10_2587_198)">
<mask id="mask11_2587_198" style="mask-type:alpha" maskUnits="userSpaceOnUse" x="55" y="14" width="7" height="28">
<path d="M61.3445 14.7181C61.3433 14.7188 61.3352 14.7206 61.3203 14.7225C61.3365 14.72 61.3445 14.7181 61.3445 14.7181ZM56.3321 40.678C55.8017 40.5228 55.4178 40.367 55.2557 40.0553C55.1228 39.7863 55.1526 39.4463 55.3737 38.8372C55.816 37.6481 56.3905 35.3249 56.6712 33.0308C56.7743 31.5436 57.0837 31.3167 57.3787 31.1046C57.7035 30.8777 58.042 30.6371 58.042 28.1588V28.0883C58.042 25.6093 57.7035 25.3681 57.3787 25.1418C57.0837 24.9297 56.7743 24.7034 56.6712 23.2162C56.3905 20.9215 55.8017 18.5989 55.3737 17.4092C55.1526 16.8144 55.1085 16.46 55.2557 16.1911C55.4178 15.8794 55.8017 15.7236 56.3321 15.5678C57.3905 15.2697 60.988 14.7769 61.3203 14.7225C60.9911 14.7849 57.4458 15.4546 56.3905 15.7384C55.816 15.8943 55.5507 16.0495 55.4327 16.2622C55.3147 16.4885 55.3445 16.8001 55.5507 17.353C55.9781 18.5427 56.5681 20.8788 56.8483 23.202C56.9514 24.618 57.2166 24.8165 57.4818 25.0002C57.8656 25.2692 58.2191 25.5103 58.2191 28.0883V28.1445C58.2191 30.7082 57.8656 30.963 57.4818 31.232C57.2166 31.4163 56.9365 31.6141 56.8483 33.0308C56.5824 35.3391 55.993 37.6901 55.5507 38.8798C55.3594 39.432 55.3147 39.7579 55.4327 39.9706C55.5507 40.1827 55.816 40.3243 56.3905 40.4944C57.4973 40.8202 61.3445 41.4151 61.3445 41.4151C61.3153 41.4151 57.4377 40.9897 56.3321 40.678Z" fill="black"/>
</mask>
<g mask="url(#mask11_2587_198)">
<rect width="6.23603" height="26.697" transform="matrix(1 0 0 -1 55.1082 41.4151)" fill="url(#paint6_radial_2587_198)"/>
</g>
</g>
</g>
</g>
<mask id="mask12_2587_198" style="mask-type:alpha" maskUnits="userSpaceOnUse" x="70" y="13" width="7" height="18">
<path d="M75.6183 30.2597C75.4773 29.7749 75.2506 29.0328 75.2506 29.0328L75.7165 28.6989L75.214 28.8548L75.0916 28.451L73.4072 22.6217L73.0593 21.5891L72.1817 20.1452L72.5053 20.8044L72.9165 23.3625L72.9593 25.489L72.814 25.541C72.814 25.541 72.2109 21.5414 71.8823 19.8428C71.5171 17.9172 70.3755 13.8961 70.3755 13.8961L70.5699 13.8435L71.3662 16.1011L72.1258 18.9771L72.3121 19.298C72.3121 19.298 72.627 20.3474 72.6618 20.4766C72.6972 20.6059 73.3183 21.4543 73.3183 21.4543C73.3183 21.4543 76.3246 29.7254 76.3947 29.9356C76.4637 30.1453 76.5196 30.4693 76.0978 30.5911C76.0978 30.5911 76.0606 30.6022 76.0053 30.6022C75.891 30.6022 75.701 30.554 75.6183 30.2597Z" fill="black"/>
</mask>
<g mask="url(#mask12_2587_198)">
<rect width="8.63134" height="17.4957" transform="matrix(0.988474 0.151392 0.152715 -0.98827 67.9463 14.0273)" fill="url(#paint7_linear_2587_198)"/>
</g>
<mask id="mask13_2587_198" style="mask-type:alpha" maskUnits="userSpaceOnUse" x="88" y="9" width="9" height="7">
<path d="M95.9782 15.5193C95.949 15.4921 95.9199 15.4655 95.8913 15.4377C95.8323 15.3938 94.9907 14.5417 94.9584 14.5145C94.3124 13.9784 93.2062 12.7194 91.8416 11.5C90.3199 10.1402 88.1478 9.73336 89.1925 9.73336C90.6658 9.73336 91.823 10.2095 92.6975 10.7586C93.0335 10.8909 93.477 11.1809 93.9137 11.5761C94.1963 11.8321 94.4354 12.0949 94.6143 12.3354C94.6888 12.4195 94.741 12.5005 94.7776 12.5784C94.9534 12.8703 95.0118 13.1053 94.9118 13.2147C94.9 13.2277 94.8863 13.2376 94.8714 13.2463C95.1459 13.3378 95.531 13.5826 95.9099 13.9246C96.513 14.47 96.8702 15.0568 96.7081 15.2349C96.5919 15.3623 96.577 15.7327 96.3571 15.7327C96.2696 15.7327 96.1503 15.6739 95.9782 15.5193Z" fill="black"/>
</mask>
<g mask="url(#mask13_2587_198)">
<rect width="8.72236" height="5.9993" transform="matrix(1 0 0 -1 88.1479 15.7327)" fill="url(#paint8_linear_2587_198)"/>
</g>
<mask id="mask14_2587_198" style="mask-type:alpha" maskUnits="userSpaceOnUse" x="88" y="40" width="9" height="7">
<path d="M91.8416 44.7594C93.2062 43.54 94.3124 42.281 94.9584 41.7443C94.9907 41.7171 95.8323 40.865 95.8913 40.8211L95.9782 40.7401C96.582 40.1947 96.5453 40.8464 96.7081 41.0245C96.8702 41.202 96.513 41.7894 95.9099 42.3348C95.531 42.6774 95.1459 42.9217 94.8714 43.0132C94.8863 43.0218 94.9 43.0317 94.9118 43.0447C95.0118 43.1542 94.9534 43.3891 94.7776 43.681C94.741 43.7589 94.6888 43.8399 94.6143 43.9234C94.4354 44.1646 94.1963 44.4274 93.9137 44.6827C93.477 45.0785 93.0335 45.3679 92.6975 45.5008C91.823 46.0499 90.6658 46.5261 89.1925 46.5261C88.1478 46.5261 90.3199 46.1192 91.8416 44.7594Z" fill="black"/>
</mask>
<g mask="url(#mask14_2587_198)">
<rect width="8.72236" height="6.33137" transform="matrix(1 0 0 -1 88.1479 46.5261)" fill="url(#paint9_linear_2587_198)"/>
</g>
<mask id="mask15_2587_198" style="mask-type:alpha" maskUnits="userSpaceOnUse" x="0" y="5" width="100" height="46">
<rect width="99.8826" height="45.7603" transform="matrix(1 0 0 -1 0.117432 50.8667)" fill="#D9D9D9"/>
</mask>
<g mask="url(#mask15_2587_198)">
<path d="M88.1484 9.08825V9.25891C89.5478 9.25891 90.9428 9.35414 92.6199 10.5037C94.2503 11.6204 96.6441 14.1489 97.7708 15.4808C98.736 16.6217 99.2199 24.102 99.2199 27.9692V27.9914C99.2199 31.811 98.7223 39.5257 97.7708 40.6505C96.6441 41.9824 94.2503 44.5109 92.6199 45.6276C90.9428 46.7771 89.5478 46.8724 88.1484 46.8724V47.043C89.5758 47.043 90.9994 46.9459 92.7174 45.7686C94.3609 44.6426 96.7702 42.0993 97.9018 40.7605C98.9633 39.5065 99.3919 31.231 99.3919 27.9914V27.9692C99.3919 24.3085 98.9422 16.6001 97.9018 15.3708C96.7702 14.032 94.3615 11.4893 92.7174 10.3627C90.9994 9.18595 89.5758 9.08825 88.1484 9.08825Z" fill="#1A1818"/>
</g>
<mask id="mask16_2587_198" style="mask-type:alpha" maskUnits="userSpaceOnUse" x="0" y="5" width="100" height="46">
<rect width="99.8826" height="45.7603" transform="matrix(1 0 0 -1 0.117432 50.8667)" fill="#D9D9D9"/>
</mask>
<g mask="url(#mask16_2587_198)">
<g opacity="0.75">
<mask id="mask17_2587_198" style="mask-type:alpha" maskUnits="userSpaceOnUse" x="70" y="11" width="25" height="35">
<rect width="24.3553" height="34.1021" transform="matrix(1 0 0 -1 70.4739 45.2254)" fill="#D9D9D9"/>
</mask>
<g mask="url(#mask17_2587_198)">
<mask id="mask18_2587_198" style="mask-type:alpha" maskUnits="userSpaceOnUse" x="70" y="11" width="25" height="35">
<rect width="24.3553" height="34.1018" transform="matrix(1 0 0 -1 70.4736 45.2241)" fill="#D9D9D9"/>
</mask>
<g mask="url(#mask18_2587_198)">
<path d="M70.4736 11.1995C73.4531 11.0289 83.2003 12.7999 94.8289 18.0769C94.8289 18.0769 81.9115 10.2751 70.4736 11.1995ZM70.4736 45.1492C73.4531 45.3199 83.2003 43.5489 94.8289 38.2719C94.8289 38.2719 81.9115 46.0737 70.4736 45.1492ZM83.173 25.355C84.9885 25.4113 91.3513 26.4841 91.4227 26.4952L92.083 26.6641C92.0121 26.6535 84.9724 25.5819 83.1674 25.5257C82.1146 25.4923 82.068 25.9727 82.0687 25.9746L82.0767 30.3167C82.0767 30.3167 82.1115 30.8349 83.1674 30.8015C84.9724 30.7452 92.0121 29.6736 92.083 29.6631L91.4227 29.8319C91.3513 29.843 84.9885 30.9159 83.173 30.9721C82.3003 30.9994 81.7668 30.8769 81.5867 30.6079C81.5072 30.4886 81.5072 25.8385 81.5867 25.7192C81.75 25.4749 82.2066 25.3513 82.9438 25.3513C83.0177 25.3513 83.0941 25.3525 83.173 25.355Z" fill="#1A1818"/>
</g>
</g>
</g>
</g>
<mask id="mask19_2587_198" style="mask-type:alpha" maskUnits="userSpaceOnUse" x="92" y="10" width="3" height="4">
<path d="M93.2231 12.3657C92.5622 11.7671 92.1697 11.124 92.3479 10.9286C92.5262 10.7338 93.2069 11.0603 93.8684 11.6595C94.5305 12.2581 94.9218 12.9012 94.7436 13.0959C94.7094 13.1343 94.6547 13.1528 94.5852 13.1528C94.3001 13.1528 93.7554 12.8467 93.2231 12.3657Z" fill="black"/>
</mask>
<g mask="url(#mask19_2587_198)">
<rect width="2.75217" height="2.41901" transform="matrix(1 0 0 -1 92.1697 13.1529)" fill="url(#paint10_linear_2587_198)"/>
</g>
<mask id="mask20_2587_198" style="mask-type:alpha" maskUnits="userSpaceOnUse" x="94" y="13" width="3" height="3">
<path d="M95.3756 14.542C94.883 14.0968 94.5917 13.6182 94.724 13.4728C94.8563 13.3275 95.3632 13.5712 95.8551 14.0164C96.3483 14.4622 96.6396 14.9408 96.5073 15.0861C96.4812 15.1146 96.4408 15.1276 96.3892 15.1276C96.1768 15.1276 95.7712 14.9 95.3756 14.542Z" fill="black"/>
</mask>
<g mask="url(#mask20_2587_198)">
<rect width="2.04782" height="1.80004" transform="matrix(1 0 0 -1 94.5918 15.1287)" fill="url(#paint11_linear_2587_198)"/>
</g>
<mask id="mask21_2587_198" style="mask-type:alpha" maskUnits="userSpaceOnUse" x="92" y="43" width="3" height="3">
<path d="M92.5069 45.3174C92.4367 45.3174 92.3827 45.2995 92.3479 45.2611C92.1697 45.0657 92.5622 44.4226 93.2231 43.8234C93.8852 43.2255 94.5659 42.8984 94.7436 43.0938C94.9218 43.2886 94.5305 43.9316 93.8684 44.5302C93.3367 45.0113 92.7933 45.3174 92.5069 45.3174Z" fill="black"/>
</mask>
<g mask="url(#mask21_2587_198)">
<rect width="2.75217" height="2.41901" transform="matrix(1 0 0 -1 92.1697 45.3174)" fill="url(#paint12_linear_2587_198)"/>
</g>
<mask id="mask22_2587_198" style="mask-type:alpha" maskUnits="userSpaceOnUse" x="94" y="41" width="3" height="2">
<path d="M94.724 42.8198C94.5917 42.6751 94.883 42.1958 95.3756 41.7506C95.8675 41.3048 96.375 41.0612 96.5073 41.2065C96.6396 41.3518 96.3483 41.8304 95.8551 42.2762C95.4594 42.6343 95.0551 42.8618 94.8427 42.8618C94.7905 42.8618 94.7501 42.8482 94.724 42.8198Z" fill="black"/>
</mask>
<g mask="url(#mask22_2587_198)">
<rect width="2.04782" height="1.80065" transform="matrix(1 0 0 -1 94.5918 42.8618)" fill="url(#paint13_linear_2587_198)"/>
</g>
</g>
<mask id="mask23_2587_198" style="mask-type:alpha" maskUnits="userSpaceOnUse" x="39" y="41" width="6" height="5">
<path d="M42.7338 45.6988L41.0468 42.0047H40.6257L42.3108 45.6858L41.0046 45.6988L39.1499 41.7481L42.3543 41.7883L44.3089 45.6976V45.6988H42.7338Z" fill="black"/>
</mask>
<g mask="url(#mask23_2587_198)">
<rect width="5.15901" height="3.95069" transform="matrix(1 0 0 -1 39.1499 45.6988)" fill="url(#paint14_linear_2587_198)"/>
</g>
<mask id="mask24_2587_198" style="mask-type:alpha" maskUnits="userSpaceOnUse" x="39" y="10" width="6" height="5">
<path d="M39.1499 14.2255L41.0046 10.2742L42.3108 10.2871L40.6257 13.9688H41.0468L42.7338 10.2742H44.3089V10.2754L42.3543 14.1859L39.1499 14.2255Z" fill="black"/>
</mask>
<g mask="url(#mask24_2587_198)">
<rect width="5.159" height="3.9513" transform="matrix(1 0 0 -1 39.1499 14.2255)" fill="url(#paint15_linear_2587_198)"/>
</g>
<mask id="mask25_2587_198" style="mask-type:alpha" maskUnits="userSpaceOnUse" x="72" y="13" width="5" height="30">
<path d="M72.4367 13.9993C72.3547 13.9993 72.2876 13.9202 72.2876 13.8237C72.2876 13.726 72.3547 13.6469 72.4367 13.6469H74.2044C74.287 13.6469 74.3541 13.726 74.3541 13.8237C74.3541 13.9202 74.287 13.9993 74.2044 13.9993H72.4367ZM72.6913 14.6047C72.6093 14.6047 72.5416 14.5256 72.5416 14.4285C72.5416 14.3308 72.6093 14.2522 72.6913 14.2522H74.459C74.541 14.2522 74.6087 14.3308 74.6087 14.4285C74.6087 14.5256 74.541 14.6047 74.459 14.6047H72.6913ZM72.8565 15.2101C72.7746 15.2101 72.7068 15.1303 72.7068 15.0332C72.7068 14.9368 72.7746 14.857 72.8565 14.857H74.6242C74.7062 14.857 74.7739 14.9368 74.7739 15.0332C74.7739 15.1303 74.7062 15.2101 74.6242 15.2101H72.8565ZM73.0292 15.8148C72.9472 15.8148 72.8795 15.7357 72.8795 15.6386C72.8795 15.5415 72.9472 15.4617 73.0292 15.4617H74.7969C74.8789 15.4617 74.9466 15.5415 74.9466 15.6386C74.9466 15.7357 74.8789 15.8148 74.7969 15.8148H73.0292ZM73.2162 16.4196C73.1336 16.4196 73.0659 16.3404 73.0659 16.244C73.0659 16.1463 73.1336 16.0671 73.2162 16.0671H74.9826C75.0659 16.0671 75.1336 16.1463 75.1336 16.244C75.1336 16.3404 75.0659 16.4196 74.9826 16.4196H73.2162ZM73.3808 17.025C73.2982 17.025 73.2311 16.9458 73.2311 16.8487C73.2311 16.7523 73.2982 16.6725 73.3808 16.6725H75.1485C75.2305 16.6725 75.2982 16.7523 75.2982 16.8487C75.2982 16.9458 75.2305 17.025 75.1485 17.025H73.3808ZM73.5298 17.6303C73.4478 17.6303 73.3808 17.5506 73.3808 17.4535C73.3808 17.357 73.4478 17.2772 73.5298 17.2772H75.2982C75.3801 17.2772 75.4472 17.357 75.4472 17.4535C75.4472 17.5506 75.3801 17.6303 75.2982 17.6303H73.5298ZM73.6503 18.2351C73.5683 18.2351 73.5006 18.1559 73.5006 18.0588C73.5006 17.9618 73.5683 17.882 73.6503 17.882H75.418C75.5 17.882 75.5677 17.9618 75.5677 18.0588C75.5677 18.1559 75.5 18.2351 75.418 18.2351H73.6503ZM73.8149 18.8405C73.7323 18.8405 73.6652 18.7607 73.6652 18.6642C73.6652 18.5665 73.7323 18.488 73.8149 18.488H75.5826C75.6646 18.488 75.7323 18.5665 75.7323 18.6642C75.7323 18.7607 75.6646 18.8405 75.5826 18.8405H73.8149ZM73.9497 19.4458C73.8677 19.4458 73.8 19.3661 73.8 19.269C73.8 19.1725 73.8677 19.0927 73.9497 19.0927H75.7174C75.7994 19.0927 75.8671 19.1725 75.8671 19.269C75.8671 19.3661 75.7994 19.4458 75.7174 19.4458H73.9497ZM74.0627 20.0506C73.9808 20.0506 73.9131 19.9708 73.9131 19.8743C73.9131 19.7773 73.9808 19.6975 74.0627 19.6975H75.8305C75.9124 19.6975 75.9801 19.7773 75.9801 19.8743C75.9801 19.9708 75.9124 20.0506 75.8305 20.0506H74.0627ZM74.1224 20.6553C74.0404 20.6553 73.9727 20.5762 73.9727 20.4791C73.9727 20.382 74.0404 20.3022 74.1224 20.3022H75.8901C75.9721 20.3022 76.0398 20.382 76.0398 20.4791C76.0398 20.5762 75.9721 20.6553 75.8901 20.6553H74.1224ZM74.1975 21.2601C74.1155 21.2601 74.0478 21.1816 74.0478 21.0845C74.0478 20.9874 74.1155 20.9082 74.1975 20.9082H75.9652C76.0472 20.9082 76.1149 20.9874 76.1149 21.0845C76.1149 21.1816 76.0472 21.2601 75.9652 21.2601H74.1975ZM74.1975 35.4471C74.1155 35.4471 74.0478 35.3679 74.0478 35.2708C74.0478 35.1737 74.1155 35.0946 74.1975 35.0946H75.9652C76.0472 35.0946 76.1149 35.1737 76.1149 35.2708C76.1149 35.3679 76.0472 35.4471 75.9652 35.4471H74.1975ZM74.1224 36.0518C74.0404 36.0518 73.9727 35.9727 73.9727 35.8756C73.9727 35.7785 74.0404 35.6994 74.1224 35.6994H75.8901C75.9721 35.6994 76.0398 35.7785 76.0398 35.8756C76.0398 35.9727 75.9721 36.0518 75.8901 36.0518H74.1224ZM74.0627 36.6572C73.9808 36.6572 73.9131 36.578 73.9131 36.481C73.9131 36.3839 73.9808 36.3047 74.0627 36.3047H75.8305C75.9124 36.3047 75.9801 36.3839 75.9801 36.481C75.9801 36.578 75.9124 36.6572 75.8305 36.6572H74.0627ZM73.9497 37.2626C73.8677 37.2626 73.8 37.1828 73.8 37.0857C73.8 36.9886 73.8677 36.9095 73.9497 36.9095H75.7174C75.7994 36.9095 75.8671 36.9886 75.8671 37.0857C75.8671 37.1828 75.7994 37.2626 75.7174 37.2626H73.9497ZM73.8149 37.8673C73.7323 37.8673 73.6652 37.7882 73.6652 37.6911C73.6652 37.594 73.7323 37.5149 73.8149 37.5149H75.5826C75.6646 37.5149 75.7323 37.594 75.7323 37.6911C75.7323 37.7882 75.6646 37.8673 75.5826 37.8673H73.8149ZM73.6503 38.4727C73.5683 38.4727 73.5006 38.3935 73.5006 38.2958C73.5006 38.1994 73.5683 38.1196 73.6503 38.1196H75.418C75.5 38.1196 75.5677 38.1994 75.5677 38.2958C75.5677 38.3935 75.5 38.4727 75.418 38.4727H73.6503ZM73.5298 39.0774C73.4478 39.0774 73.3808 38.9983 73.3808 38.9012C73.3808 38.8041 73.4478 38.7244 73.5298 38.7244H75.2982C75.3801 38.7244 75.4472 38.8041 75.4472 38.9012C75.4472 38.9983 75.3801 39.0774 75.2982 39.0774H73.5298ZM73.3808 39.6828C73.2982 39.6828 73.2311 39.603 73.2311 39.5066C73.2311 39.4089 73.2982 39.3303 73.3808 39.3303H75.1485C75.2305 39.3303 75.2982 39.4089 75.2982 39.5066C75.2982 39.603 75.2305 39.6828 75.1485 39.6828H73.3808ZM73.2162 40.2876C73.1336 40.2876 73.0659 40.2084 73.0659 40.1113C73.0659 40.0143 73.1336 39.9351 73.2162 39.9351H74.9826C75.0659 39.9351 75.1336 40.0143 75.1336 40.1113C75.1336 40.2084 75.0659 40.2876 74.9826 40.2876H73.2162ZM73.0292 40.8929C72.9472 40.8929 72.8795 40.8138 72.8795 40.7161C72.8795 40.6196 72.9472 40.5399 73.0292 40.5399H74.7969C74.8789 40.5399 74.9466 40.6196 74.9466 40.7161C74.9466 40.8138 74.8789 40.8929 74.7969 40.8929H73.0292ZM72.8565 41.4977C72.7746 41.4977 72.7068 41.4185 72.7068 41.3215C72.7068 41.2244 72.7746 41.1446 72.8565 41.1446H74.6242C74.7062 41.1446 74.7739 41.2244 74.7739 41.3215C74.7739 41.4185 74.7062 41.4977 74.6242 41.4977H72.8565ZM72.6913 42.1031C72.6093 42.1031 72.5416 42.0239 72.5416 41.9262C72.5416 41.8291 72.6093 41.7506 72.6913 41.7506H74.459C74.541 41.7506 74.6087 41.8291 74.6087 41.9262C74.6087 42.0239 74.541 42.1031 74.459 42.1031H72.6913ZM72.4367 42.7084C72.3547 42.7084 72.2876 42.6287 72.2876 42.5316C72.2876 42.4351 72.3547 42.3554 72.4367 42.3554H74.2044C74.287 42.3554 74.3541 42.4351 74.3541 42.5316C74.3541 42.6287 74.287 42.7084 74.2044 42.7084H72.4367Z" fill="black"/>
</mask>
<g mask="url(#mask25_2587_198)">
<rect width="3.82733" height="29.0616" transform="matrix(1 0 0 -1 72.2876 42.7084)" fill="url(#paint16_linear_2587_198)"/>
</g>
<mask id="mask26_2587_198" style="mask-type:alpha" maskUnits="userSpaceOnUse" x="0" y="5" width="100" height="46">
<rect width="99.8826" height="45.7603" transform="matrix(1 0 0 -1 0.117432 50.8667)" fill="#D9D9D9"/>
</mask>
<g mask="url(#mask26_2587_198)">
<g opacity="0.5">
<mask id="mask27_2587_198" style="mask-type:alpha" maskUnits="userSpaceOnUse" x="55" y="13" width="14" height="30">
<rect width="13.7852" height="28.6914" transform="matrix(1 0 0 -1 55.1697 42.508)" fill="#D9D9D9"/>
</mask>
<g mask="url(#mask27_2587_198)">
<mask id="mask28_2587_198" style="mask-type:alpha" maskUnits="userSpaceOnUse" x="55" y="13" width="14" height="30">
<path d="M55.1697 39.8398C55.8262 36.6671 56.1417 31.8105 56.1417 28.1572C56.1417 24.5151 55.8262 19.7129 55.1697 16.5401L64.2051 13.8169C67.4479 15.7894 66.7535 21.8537 66.7535 28.1572C66.7535 29.0378 68.9548 29.9134 68.8945 30.7735C68.8753 30.7704 66.625 30.7636 66.6057 30.7654C63.9206 30.9757 62.7672 33.2865 62.7672 35.8756C62.7672 38.6489 64.2945 39.6042 66.5206 39.8534C66.5461 39.8565 66.5703 39.8578 66.5958 39.8596C65.9386 41.0234 65.1436 41.9373 64.2051 42.5081L55.1697 39.8398Z" fill="black"/>
</mask>
<g mask="url(#mask28_2587_198)">
<rect width="13.7851" height="28.6912" transform="matrix(1 0 0 -1 55.1697 42.5081)" fill="url(#paint17_linear_2587_198)"/>
</g>
</g>
</g>
</g>
<mask id="mask29_2587_198" style="mask-type:alpha" maskUnits="userSpaceOnUse" x="0" y="5" width="100" height="46">
<rect width="99.8826" height="45.7603" transform="matrix(1 0 0 -1 0.117432 50.8667)" fill="#D9D9D9"/>
</mask>
<g mask="url(#mask29_2587_198)">
<g opacity="0.300003">
<mask id="mask30_2587_198" style="mask-type:alpha" maskUnits="userSpaceOnUse" x="65" y="8" width="33" height="40">
<rect width="32.1913" height="39.3185" transform="matrix(1 0 0 -1 65.5022 47.6519)" fill="#D9D9D9"/>
</mask>
<g mask="url(#mask30_2587_198)">
<mask id="mask31_2587_198" style="mask-type:alpha" maskUnits="userSpaceOnUse" x="65" y="8" width="33" height="40">
<path d="M89.1398 18.4734C88.8628 18.6008 88.6914 18.868 88.6914 19.1716V24.8759C88.6914 25.2426 88.9541 25.5598 89.3156 25.6303L91.2597 25.9426C91.4877 25.9871 91.7206 25.9284 91.8995 25.7812C92.079 25.6346 92.1815 25.4176 92.1815 25.1876V20.5227C92.1815 20.2964 92.0821 20.0824 91.9082 19.9352L89.9641 18.5841C89.8206 18.4629 89.6448 18.4005 89.4666 18.4005C89.356 18.4005 89.2448 18.4246 89.1398 18.4734ZM81.4436 25.6235C81.3318 25.7899 81.3318 30.5364 81.4436 30.7021C81.6616 31.028 82.2299 31.172 83.1777 31.1424C84.7734 31.0929 89.8548 30.2643 91.3746 30.0126L91.4485 30.0003L91.9535 29.8277L92.915 29.4932C92.6249 29.5377 86.1989 30.2328 84.4256 30.2878C83.7454 30.3088 83.5287 30.0806 83.5107 29.9576L83.5038 26.3315C83.5175 26.2895 83.638 26.0156 84.4256 26.0378C86.1989 26.0929 92.6249 26.7885 92.915 26.8324L91.9535 26.4979L91.374 26.3136C89.8548 26.0613 84.7734 25.2333 83.1777 25.1832C83.097 25.1814 83.0187 25.1795 82.9429 25.1795C82.1336 25.1795 81.6436 25.3249 81.4436 25.6235ZM91.2597 30.2637L89.3156 30.5759C88.9541 30.6464 88.6914 30.9637 88.6914 31.331V37.0347C88.6914 37.3377 88.8628 37.6054 89.1392 37.7328C89.4162 37.8602 89.7324 37.8175 89.9641 37.6215L91.9082 36.2704C92.0821 36.1238 92.1815 35.9099 92.1815 35.6836V31.0193C92.1815 30.788 92.079 30.5716 91.9001 30.4251C91.7597 30.3101 91.587 30.2495 91.41 30.2495C91.3603 30.2495 91.31 30.2538 91.2597 30.2637ZM79.0367 47.5975C75.0945 47.595 72.8653 47.3532 72.7448 47.0434C72.6094 46.6984 78.251 46.1845 78.251 46.1845L65.5448 46.5265L65.502 45.6985C65.502 45.6985 74.128 46.2389 82.6622 43.7179C91.1976 41.1975 95.0665 37.867 95.0665 37.867C95.0665 37.867 95.3461 37.6258 95.72 37.0205C95.4616 37.3834 95.1665 37.6753 94.828 37.867C88.92 40.8444 80.4852 43.4706 75.0057 44.2806C69.5262 45.09 69.7212 44.3505 71.5622 44.2806C73.4044 44.2101 74.2634 43.7179 74.2634 43.7179C74.2634 43.7179 76.2777 42.266 76.9405 38.7247C77.6038 35.1833 78.0454 33.17 78.1193 28.1625V28.1211C78.0454 23.113 77.6038 21.1002 76.9405 17.5589C76.2777 14.0176 74.2634 12.565 74.2634 12.565C74.2634 12.565 73.4044 12.0728 71.5622 12.003C69.7212 11.9325 69.5262 11.1929 75.0057 12.003C80.4852 12.8124 88.92 15.4386 94.828 18.4159C95.4051 18.7208 95.8603 19.2495 96.2181 19.9074C95.6249 18.5996 95.0665 18.1173 95.0665 18.1173C95.0665 18.1173 91.1976 14.7868 82.6622 12.2664C74.128 9.74472 65.502 10.2852 65.502 10.2852L65.5448 9.45718L78.251 9.79975C78.251 9.79975 72.6094 9.28651 72.7448 8.94023C72.8796 8.59457 75.6467 8.33239 80.4933 8.3967C85.3392 8.45977 85.7765 9.11523 85.7765 9.63156C85.7765 10.0953 80.2759 9.87271 80.2759 9.87271C80.2759 9.87271 84.1094 10.1664 86.0622 10.2363C86.4579 10.2505 86.8417 10.2456 87.2162 10.2406C88.6908 10.2208 90.0193 10.2017 91.3305 11.358C92.9746 12.8068 94.7138 14.4863 96.492 16.6549C96.8746 17.2435 96.7336 19.4962 96.9082 21.6926C97.6933 24.5624 97.5144 28.1211 97.5144 28.1211V28.1625C97.5144 28.1625 97.5448 31.8553 96.7237 34.7443C96.7945 34.5198 96.8641 34.2818 96.9305 34.027C96.7218 36.3038 96.8895 38.7166 96.492 39.33C94.7138 41.4974 92.9746 43.1768 91.3305 44.6269C90.0193 45.782 88.6908 45.7628 87.2169 45.743C86.8423 45.7381 86.4579 45.7331 86.0622 45.7473C84.1094 45.8178 80.2759 46.1109 80.2759 46.1109C80.2759 46.1109 85.7765 45.8883 85.7765 46.3527C85.7765 46.869 85.3392 47.5239 80.4933 47.5882C80.0355 47.5938 79.5964 47.5969 79.1765 47.5975H79.0367Z" fill="black"/>
</mask>
<g mask="url(#mask31_2587_198)">
<rect width="32.1913" height="39.2651" transform="matrix(1 0 0 -1 65.502 47.5975)" fill="url(#paint18_linear_2587_198)"/>
</g>
</g>
</g>
</g>
<mask id="mask32_2587_198" style="mask-type:alpha" maskUnits="userSpaceOnUse" x="0" y="5" width="100" height="46">
<rect width="99.8826" height="45.7603" transform="matrix(1 0 0 -1 0.117432 50.8667)" fill="#D9D9D9"/>
</mask>
<g mask="url(#mask32_2587_198)">
<g opacity="0.300003">
<mask id="mask33_2587_198" style="mask-type:alpha" maskUnits="userSpaceOnUse" x="23" y="16" width="33" height="24">
<rect width="31.8074" height="22.6266" transform="matrix(1 0 0 -1 23.449 39.4875)" fill="#D9D9D9"/>
</mask>
<g mask="url(#mask33_2587_198)">
<mask id="mask34_2587_198" style="mask-type:alpha" maskUnits="userSpaceOnUse" x="23" y="16" width="33" height="24">
<path d="M53.0113 39.4634H52.9895L40.2044 39.0268C39.5436 39.0046 38.8821 39.0046 38.2212 39.0268L25.4746 39.4621C24.7535 39.4863 24.1411 38.9396 24.0864 38.2236L23.6945 33.0485C23.4485 29.8053 23.4485 26.5484 23.6945 23.3057L24.0876 18.1152C24.1417 17.4047 24.7448 16.8612 25.4597 16.8773L39.2125 17.1901L53.0032 16.8766C53.7032 16.8606 54.2988 17.3812 54.3715 18.0744L54.8858 22.9167C55.256 26.4136 55.256 29.9401 54.8858 33.4375L54.3734 38.2656C54.3013 38.9402 53.7342 39.4522 53.0591 39.4634H53.0113Z" fill="black"/>
</mask>
<g mask="url(#mask34_2587_198)">
<rect width="31.8075" height="22.6257" transform="matrix(1 0 0 -1 23.4485 39.4863)" fill="url(#paint19_radial_2587_198)"/>
</g>
</g>
</g>
<g opacity="0.149994">
<mask id="mask35_2587_198" style="mask-type:alpha" maskUnits="userSpaceOnUse" x="35" y="17" width="19" height="22">
<rect width="18.1941" height="21.2709" transform="matrix(1 0 0 -1 35.2866 38.7242)" fill="#D9D9D9"/>
</mask>
<g mask="url(#mask35_2587_198)">
<mask id="mask36_2587_198" style="mask-type:alpha" maskUnits="userSpaceOnUse" x="35" y="17" width="19" height="22">
<rect width="18.1938" height="21.2709" transform="matrix(1 0 0 -1 35.2864 38.7241)" fill="#D9D9D9"/>
</mask>
<g mask="url(#mask36_2587_198)">
<path d="M51.8094 17.4533H44.3082H36.8069C36.5604 17.4533 36.3368 17.5529 36.1746 17.7136C36.0132 17.875 35.9132 18.0976 35.9132 18.3431L35.6877 20.4765C35.1523 25.5377 35.1523 30.6398 35.6877 35.701L35.9132 37.8344C35.9132 38.0799 36.0132 38.3025 36.1746 38.4632C36.3368 38.6246 36.5604 38.7242 36.8069 38.7242H44.3082H51.8094C52.056 38.7242 52.2796 38.6246 52.4417 38.4632C52.6032 38.3025 52.7032 38.0799 52.7032 37.8344L53.0591 34.9516C53.6206 30.3937 53.6206 25.7838 53.0591 21.2259L52.7032 18.3431C52.7032 18.0976 52.6032 17.875 52.4417 17.7136C52.2796 17.5529 52.056 17.4533 51.8094 17.4533Z" fill="white"/>
</g>
</g>
</g>
<g opacity="0.149994">
<mask id="mask37_2587_198" style="mask-type:alpha" maskUnits="userSpaceOnUse" x="0" y="16" width="6" height="25">
<rect width="5.00371" height="24.0442" transform="matrix(1 0 0 -1 0.117432 40.1106)" fill="#D9D9D9"/>
</mask>
<g mask="url(#mask37_2587_198)">
<mask id="mask38_2587_198" style="mask-type:alpha" maskUnits="userSpaceOnUse" x="0" y="16" width="6" height="25">
<rect width="5.00373" height="24.0442" transform="matrix(1 0 0 -1 0.117188 40.1107)" fill="#D9D9D9"/>
</mask>
<g mask="url(#mask38_2587_198)">
<path d="M4.90414 16.0664H2.28241H0.951971C0.892344 16.0664 0.837686 16.179 0.798555 16.3614C0.759425 16.5432 0.735201 16.7949 0.735201 17.0725L0.407251 19.4841C0.343276 22.3057 0.118431 25.139 0.117189 27.9729C0.116568 30.8835 0.340791 33.7941 0.407251 36.693L0.735201 39.1046C0.735201 39.3822 0.759425 39.6339 0.798555 39.8163C0.837686 39.9981 0.892344 40.1107 0.951971 40.1107H2.77309H4.90414C4.96377 40.1107 5.01843 39.9981 5.05756 39.8163C5.09669 39.6339 5.12091 39.3822 5.12091 39.1046C5.12091 39.1046 4.70166 31.2638 4.70166 27.9729C4.70166 24.6814 5.12091 17.0725 5.12091 17.0725C5.12091 16.7949 5.09669 16.5432 5.05756 16.3614C5.01843 16.179 4.96377 16.0664 4.90414 16.0664Z" fill="white"/>
</g>
</g>
</g>
<g opacity="0.300003">
<mask id="mask39_2587_198" style="mask-type:alpha" maskUnits="userSpaceOnUse" x="5" y="8" width="65" height="40">
<rect width="64.3747" height="39.7459" transform="matrix(1 0 0 -1 5.14453 47.933)" fill="#D9D9D9"/>
</mask>
<g mask="url(#mask39_2587_198)">
<mask id="mask40_2587_198" style="mask-type:alpha" maskUnits="userSpaceOnUse" x="5" y="8" width="65" height="40">
<path d="M33.9286 15.5803C28.9063 15.519 25.4584 15.7243 18.5622 14.017C11.6659 12.3104 10.792 12.5571 9.01807 12.3963C8.4485 12.3444 7.84602 12.3586 7.2895 12.3722C6.11248 12.4019 5.14478 12.4316 5.14478 11.8392C5.14478 10.9667 6.64415 9.52097 10.2417 9.1617C13.0578 8.88097 18.4473 8.44255 22.4174 8.43081H22.7373C23.7106 8.43328 24.5889 8.46481 25.3088 8.53222C28.9814 8.87726 28.9584 9.33979 28.9814 9.59332C29.056 10.4213 26.1224 10.4213 24.0342 10.4213C21.9454 10.4213 18.187 10.2846 17.5125 10.7379C16.8379 11.1905 18.0373 12.2986 20.4355 13.0128C22.8342 13.7277 25.7578 15.1029 36.5516 14.9755C47.3454 14.8475 48.9013 15.0528 55.1696 14.017C61.4379 12.9819 65.2609 11.8621 67.2094 11.4892C69.1578 11.1157 69.5193 11.4892 69.5193 11.4892C69.5193 11.4892 59.564 14.0789 53.9417 14.7986C49.1268 15.4158 41.5615 15.5939 36.3342 15.5939C35.4584 15.5939 34.6491 15.5889 33.9286 15.5803ZM22.3988 47.6891C18.4305 47.6767 13.0535 47.2389 10.2417 46.9582C6.64415 46.5989 5.14478 45.1532 5.14478 44.2807C5.14478 43.6877 6.11248 43.7174 7.2895 43.7471C7.84602 43.7607 8.4485 43.7749 9.01807 43.7236C10.792 43.5622 11.6659 43.8095 18.5622 42.1028C25.4584 40.3956 28.9063 40.6009 33.9286 40.5396C38.9504 40.4784 48.3199 40.6009 53.9417 41.3212C59.564 42.041 69.5193 44.6307 69.5193 44.6307C69.5193 44.6307 69.1578 45.0042 67.2094 44.6307C65.2609 44.2578 61.4379 43.1386 55.1696 42.1028C48.9013 41.0671 47.3454 41.2724 36.5516 41.1444C25.7578 41.017 22.8342 42.3922 20.4355 43.1071C18.0373 43.8213 16.8379 44.9294 17.5125 45.382C18.187 45.8353 21.9454 45.6986 24.0342 45.6986C26.1224 45.6986 29.056 45.6986 28.9814 46.5266C28.9584 46.7801 28.9814 47.2426 25.3088 47.5883C24.5926 47.6557 23.7193 47.686 22.751 47.6891H22.3988Z" fill="black"/>
</mask>
<g mask="url(#mask40_2587_198)">
<rect width="64.3745" height="39.2583" transform="matrix(1 0 0 -1 5.14478 47.6891)" fill="url(#paint20_linear_2587_198)"/>
</g>
</g>
</g>
<g opacity="0.199997">
<mask id="mask41_2587_198" style="mask-type:alpha" maskUnits="userSpaceOnUse" x="13" y="8" width="71" height="40">
<rect width="70.0176" height="38.8834" transform="matrix(1 0 0 -1 13.1648 47.4417)" fill="#D9D9D9"/>
</mask>
<g mask="url(#mask41_2587_198)">
<mask id="mask42_2587_198" style="mask-type:alpha" maskUnits="userSpaceOnUse" x="13" y="8" width="71" height="40">
<rect width="70.0174" height="38.8836" transform="matrix(1 0 0 -1 13.1646 47.4417)" fill="#D9D9D9"/>
</mask>
<g mask="url(#mask42_2587_198)">
<path d="M47.4633 40.8426C47.4633 40.675 44.2987 40.5396 40.3956 40.5396C36.4925 40.5396 33.3279 40.675 33.3279 40.8426C33.3279 41.0096 36.4925 41.145 40.3956 41.145C44.2987 41.145 47.4633 41.0096 47.4633 40.8426ZM20.2323 47.2729C16.3291 47.2729 13.1646 46.9928 13.1646 46.6477C13.1646 46.3021 16.3291 46.022 20.2323 46.022C24.1354 46.022 27.2993 46.3021 27.2993 46.6477C27.2993 46.9928 24.1354 47.2729 20.2323 47.2729ZM47.4633 15.2772C47.4633 15.4448 44.2987 15.5802 40.3956 15.5802C36.4925 15.5802 33.3279 15.4448 33.3279 15.2772C33.3279 15.1103 36.4925 14.9749 40.3956 14.9749C44.2987 14.9749 47.4633 15.1103 47.4633 15.2772ZM27.2993 9.47271C27.2993 9.81775 24.1354 10.0979 20.2323 10.0979C16.3291 10.0979 13.1646 9.81775 13.1646 9.47271C13.1646 9.12704 16.3291 8.84693 20.2323 8.84693C24.1354 8.84693 27.2993 9.12704 27.2993 9.47271ZM79.6484 47.4417C77.6969 47.4417 76.1142 47.302 76.1142 47.1288C76.1142 46.9563 77.6969 46.8166 79.6484 46.8166C81.6 46.8166 83.1819 46.9563 83.1819 47.1288C83.1819 47.302 81.6 47.4417 79.6484 47.4417ZM83.1819 8.87104C83.1819 8.69852 81.6 8.55816 79.6484 8.55816C77.6969 8.55816 76.1142 8.69852 76.1142 8.87104C76.1142 9.04357 77.6969 9.18394 79.6484 9.18394C81.6 9.18394 83.1819 9.04357 83.1819 8.87104Z" fill="white"/>
</g>
</g>
</g>
</g>
<mask id="mask43_2587_198" style="mask-type:alpha" maskUnits="userSpaceOnUse" x="60" y="43" width="8" height="3">
<path d="M62.0757 45.6988L60.531 43.9278C63.3708 44.4176 65.708 44.8622 66.5577 45.0693C66.8881 45.1503 67.1652 45.2208 67.3962 45.2826C67.636 45.3463 67.5875 45.6988 67.3397 45.6988H62.0757Z" fill="black"/>
</mask>
<g mask="url(#mask43_2587_198)">
<rect width="7.10497" height="1.77097" transform="matrix(1 0 0 -1 60.531 45.6988)" fill="url(#paint21_linear_2587_198)"/>
</g>
<mask id="mask44_2587_198" style="mask-type:alpha" maskUnits="userSpaceOnUse" x="0" y="5" width="100" height="46">
<rect width="99.8826" height="45.7603" transform="matrix(1 0 0 -1 0.117432 50.8667)" fill="#D9D9D9"/>
</mask>
<g mask="url(#mask44_2587_198)">
<g opacity="0.300003">
<mask id="mask45_2587_198" style="mask-type:alpha" maskUnits="userSpaceOnUse" x="4" y="13" width="8" height="31">
<rect width="6.4588" height="30.0439" transform="matrix(1 0 0 -1 4.90454 43.1071)" fill="#D9D9D9"/>
</mask>
<g mask="url(#mask45_2587_198)">
<mask id="mask46_2587_198" style="mask-type:alpha" maskUnits="userSpaceOnUse" x="4" y="13" width="8" height="31">
<path d="M9.01845 42.3188C9.01845 42.3188 5.85385 42.3188 5.45882 40.5082C5.06379 38.7001 4.90541 29.0482 4.90479 29.0105V27.1591C4.90541 27.1214 5.06379 17.4695 5.45882 15.6614C5.85385 13.8502 9.01845 13.8502 9.01845 13.8502V13.0624C9.89733 13.0624 10.457 13.3277 10.7582 13.418C10.9942 13.4879 11.1886 13.6542 11.2955 13.8749L11.283 14.2256C11.283 14.2256 9.23149 14.9589 9.23149 28.167C9.23149 41.3758 11.3365 41.8872 11.3365 41.8872C11.3365 41.8872 11.3632 41.991 11.283 42.2743C11.1253 42.8283 9.01845 43.1072 9.01845 43.1072V42.3188Z" fill="black"/>
</mask>
<g mask="url(#mask46_2587_198)">
<rect width="6.45839" height="30.0448" transform="matrix(1 0 0 -1 4.90479 43.1072)" fill="url(#paint22_linear_2587_198)"/>
</g>
</g>
</g>
<g opacity="0.300003">
<mask id="mask47_2587_198" style="mask-type:alpha" maskUnits="userSpaceOnUse" x="4" y="13" width="8" height="31">
<rect width="6.4588" height="30.0439" transform="matrix(1 0 0 -1 4.90454 43.1071)" fill="#D9D9D9"/>
</mask>
<g mask="url(#mask47_2587_198)">
<mask id="mask48_2587_198" style="mask-type:alpha" maskUnits="userSpaceOnUse" x="4" y="13" width="8" height="31">
<path d="M9.01845 42.3188C9.01845 42.3188 5.85385 42.3188 5.45882 40.5082C5.06379 38.7001 4.90541 29.0482 4.90479 29.0105V27.1591C4.90541 27.1214 5.06379 17.4695 5.45882 15.6614C5.85385 13.8502 9.01845 13.8502 9.01845 13.8502V13.0624C9.89733 13.0624 10.457 13.3277 10.7582 13.418C10.9942 13.4879 11.1886 13.6542 11.2955 13.8749L11.283 14.2256C11.283 14.2256 9.23149 14.9589 9.23149 28.167C9.23149 41.3758 11.3365 41.8872 11.3365 41.8872C11.3365 41.8872 11.3632 41.991 11.283 42.2743C11.1253 42.8283 9.01845 43.1072 9.01845 43.1072V42.3188Z" fill="black"/>
</mask>
<g mask="url(#mask48_2587_198)">
<rect width="6.45839" height="30.0448" transform="matrix(1 0 0 -1 4.90479 43.1072)" fill="url(#paint23_linear_2587_198)"/>
</g>
</g>
</g>
<g opacity="0.149994">
<mask id="mask49_2587_198" style="mask-type:alpha" maskUnits="userSpaceOnUse" x="83" y="39" width="12" height="6">
<rect width="11.2255" height="5.0027" transform="matrix(1 0 0 -1 83.3367 44.8558)" fill="#D9D9D9"/>
</mask>
<g mask="url(#mask49_2587_198)">
<mask id="mask50_2587_198" style="mask-type:alpha" maskUnits="userSpaceOnUse" x="83" y="39" width="12" height="6">
<rect width="11.2248" height="5.00251" transform="matrix(1 0 0 -1 83.3364 44.8558)" fill="#D9D9D9"/>
</mask>
<g mask="url(#mask50_2587_198)">
<path d="M84.0041 44.8541L90.7308 44.4058C90.8843 44.3959 91.029 44.3298 91.1364 44.2197L94.3793 40.9133C94.847 40.4366 94.3371 39.6612 93.711 39.8968L83.7414 43.6514C83.0694 43.9043 83.2867 44.9017 84.0041 44.8541Z" fill="white"/>
</g>
</g>
</g>
<g opacity="0.149994">
<mask id="mask51_2587_198" style="mask-type:alpha" maskUnits="userSpaceOnUse" x="85" y="41" width="8" height="4">
<rect width="6.93602" height="3.09129" transform="matrix(1 0 0 -1 85.9795 44.2531)" fill="#D9D9D9"/>
</mask>
<g mask="url(#mask51_2587_198)">
<mask id="mask52_2587_198" style="mask-type:alpha" maskUnits="userSpaceOnUse" x="85" y="41" width="8" height="4">
<rect width="6.93602" height="3.09117" transform="matrix(1 0 0 -1 85.9792 44.2531)" fill="#D9D9D9"/>
</mask>
<g mask="url(#mask52_2587_198)">
<path d="M86.3917 44.252L90.5482 43.975C90.6432 43.9688 90.732 43.928 90.7985 43.86L92.8028 41.8169C93.0917 41.5226 92.7761 41.0434 92.3898 41.1887L86.2296 43.5087C85.814 43.6652 85.9488 44.2817 86.3917 44.252Z" fill="white"/>
</g>
</g>
</g>
<g opacity="0.149994">
<mask id="mask53_2587_198" style="mask-type:alpha" maskUnits="userSpaceOnUse" x="83" y="11" width="12" height="6">
<rect width="11.2255" height="5.00278" transform="matrix(1 0 0 -1 83.3367 16.148)" fill="#D9D9D9"/>
</mask>
<g mask="url(#mask53_2587_198)">
<mask id="mask54_2587_198" style="mask-type:alpha" maskUnits="userSpaceOnUse" x="83" y="11" width="12" height="6">
<rect width="11.2248" height="5.00251" transform="matrix(1 0 0 -1 83.3364 16.1479)" fill="#D9D9D9"/>
</mask>
<g mask="url(#mask54_2587_198)">
<path d="M84.0041 11.1471L90.7308 11.5954C90.8843 11.6053 91.029 11.6714 91.1364 11.7815L94.3793 15.0878C94.847 15.5646 94.3371 16.34 93.711 16.1044L83.7414 12.3498C83.0694 12.0968 83.2867 11.0994 84.0041 11.1471Z" fill="white"/>
</g>
</g>
</g>
<g opacity="0.149994">
<mask id="mask55_2587_198" style="mask-type:alpha" maskUnits="userSpaceOnUse" x="85" y="11" width="8" height="4">
<rect width="6.93602" height="3.09123" transform="matrix(1 0 0 -1 85.9795 14.8389)" fill="#D9D9D9"/>
</mask>
<g mask="url(#mask55_2587_198)">
<mask id="mask56_2587_198" style="mask-type:alpha" maskUnits="userSpaceOnUse" x="85" y="11" width="8" height="4">
<rect width="6.93602" height="3.09117" transform="matrix(1 0 0 -1 85.9795 14.8389)" fill="#D9D9D9"/>
</mask>
<g mask="url(#mask56_2587_198)">
<path d="M86.3919 11.7499L90.5484 12.027C90.6435 12.0332 90.7323 12.074 90.7988 12.142L92.8031 14.185C93.0919 14.4794 92.7764 14.9586 92.3901 14.8133L86.2298 12.4932C85.8143 12.3368 85.9491 11.7203 86.3919 11.7499Z" fill="white"/>
</g>
</g>
</g>
<g opacity="0.149994">
<mask id="mask57_2587_198" style="mask-type:alpha" maskUnits="userSpaceOnUse" x="76" y="13" width="13" height="30">
<rect width="11.2404" height="28.7286" transform="matrix(1 0 0 -1 76.9082 42.2979)" fill="#D9D9D9"/>
</mask>
<g mask="url(#mask57_2587_198)">
<mask id="mask58_2587_198" style="mask-type:alpha" maskUnits="userSpaceOnUse" x="77" y="13" width="12" height="30">
<path d="M77.2958 40.2847C78.0567 37.7754 79.0511 33.4796 79.0511 28.1704C79.0511 22.667 77.9821 18.1135 77.2132 15.5491C77.1741 15.4199 77.1554 15.2919 77.1536 15.1664V15.1323C77.1647 14.2889 77.9672 13.6044 78.861 13.814C80.6846 14.2432 83.5014 14.971 87.1741 16.1131C87.7529 16.2936 88.148 16.8273 88.148 17.4314V23.4493C88.148 24.336 87.3213 24.9921 86.4529 24.7948L82.3635 24.0596C81.4958 23.8629 80.6685 24.519 80.6685 25.4057V31.3482C80.6685 32.2813 81.579 32.9454 82.4728 32.6634L86.3436 31.7148C87.2374 31.4335 88.148 32.0976 88.148 33.0307V38.4543C88.148 39.0758 87.7312 39.6205 87.13 39.7856L78.9902 42.0111C78.8635 42.0457 78.738 42.0624 78.6157 42.0624C77.7269 42.0624 77.0188 41.198 77.2958 40.2847Z" fill="black"/>
</mask>
<g mask="url(#mask58_2587_198)">
<rect width="11.1292" height="28.458" transform="matrix(1 0 0 -1 77.0186 42.0624)" fill="url(#paint24_radial_2587_198)"/>
</g>
</g>
</g>
<g opacity="0.300003">
<mask id="mask59_2587_198" style="mask-type:alpha" maskUnits="userSpaceOnUse" x="37" y="45" width="27" height="2">
<rect width="26.459" height="0.827795" transform="matrix(1 0 0 -1 37.0649 46.5261)" fill="#D9D9D9"/>
</mask>
<g mask="url(#mask59_2587_198)">
<mask id="mask60_2587_198" style="mask-type:alpha" maskUnits="userSpaceOnUse" x="37" y="45" width="27" height="2">
<path d="M43.4488 46.4587H37.3115C37.0767 46.4587 37.0649 46.1124 37.2997 46.0963L43.1543 45.6981H63.5233L63.2494 46.5261L43.4488 46.4587Z" fill="black"/>
</mask>
<g mask="url(#mask60_2587_198)">
<rect width="26.4584" height="0.827988" transform="matrix(1 0 0 -1 37.0652 46.5261)" fill="url(#paint25_linear_2587_198)"/>
</g>
</g>
</g>
<g opacity="0.300003">
<mask id="mask61_2587_198" style="mask-type:alpha" maskUnits="userSpaceOnUse" x="37" y="9" width="27" height="2">
<rect width="26.459" height="0.827968" transform="matrix(1 0 0 -1 37.0652 10.147)" fill="#D9D9D9"/>
</mask>
<g mask="url(#mask61_2587_198)">
<mask id="mask62_2587_198" style="mask-type:alpha" maskUnits="userSpaceOnUse" x="37" y="9" width="27" height="2">
<path d="M43.1543 10.1469L37.2997 9.7493C37.0649 9.73323 37.0767 9.38695 37.3115 9.38695H43.4488L63.2494 9.31893L63.5233 10.1469L43.1543 10.1469Z" fill="black"/>
</mask>
<g mask="url(#mask62_2587_198)">
<rect width="26.4584" height="0.827981" transform="matrix(1 0 0 -1 37.0652 10.1469)" fill="url(#paint26_linear_2587_198)"/>
</g>
</g>
</g>
</g>
<mask id="mask63_2587_198" style="mask-type:alpha" maskUnits="userSpaceOnUse" x="60" y="10" width="8" height="3">
<path d="M60.531 12.0081L62.0757 10.2365H67.3397C67.5875 10.2365 67.636 10.5889 67.3962 10.6532C67.1652 10.7151 66.8881 10.7856 66.5577 10.8666C65.708 11.0743 63.3708 11.5183 60.531 12.0081Z" fill="black"/>
</mask>
<g mask="url(#mask63_2587_198)">
<rect width="7.10497" height="1.77159" transform="matrix(1 0 0 -1 60.531 12.0093)" fill="url(#paint27_linear_2587_198)"/>
</g>
<mask id="mask64_2587_198" style="mask-type:alpha" maskUnits="userSpaceOnUse" x="72" y="24" width="3" height="19">
<path d="M74.159 42.0224C74.1168 42.0224 73.7907 42.0088 73.7782 41.5846C73.7596 41.0813 73.7199 40.3058 73.7199 40.3058L74.254 40.0937L73.7279 40.1247L73.7081 39.7036L73.4907 33.6418L73.405 32.556L72.9043 30.9433L73.0578 31.6606L72.8348 34.2422L72.359 36.3156L72.205 36.3304C72.205 36.3304 72.5925 32.3049 72.6876 30.5772C72.8012 28.6214 72.0149 24.4444 72.0149 24.4444L72.2168 24.4406L72.7087 27.3395L73.1341 29.7956L73.2366 30.1524C73.2366 30.1524 73.5571 31.2988 73.5596 31.433C73.5627 31.5672 73.6882 32.4873 73.6882 32.4873C73.6882 32.4873 74.5944 41.2377 74.6105 41.4572C74.6267 41.678 74.6025 42.0057 74.1633 42.0224H74.159Z" fill="black"/>
</mask>
<g mask="url(#mask64_2587_198)">
<rect width="9.2338" height="17.2304" transform="matrix(0.922765 0.385363 0.388293 -0.921536 66.4343 25.7314)" fill="url(#paint28_linear_2587_198)"/>
</g>
<mask id="mask65_2587_198" style="mask-type:alpha" maskUnits="userSpaceOnUse" x="88" y="18" width="4" height="20">
<path d="M90.9672 25.6914L89.366 25.3792C89.1238 25.3328 88.9492 25.1213 88.9492 24.8758V19.1721C88.9492 18.7349 89.4635 18.4981 89.7983 18.7807L91.3995 20.1318C91.5151 20.2295 91.5815 20.3723 91.5815 20.5232V25.1881C91.5815 25.4769 91.3443 25.7013 91.0672 25.7013C91.0343 25.7013 91.0008 25.6976 90.9672 25.6914ZM88.9492 37.0352V31.3315C88.9492 31.086 89.1238 30.8751 89.366 30.8275L90.9672 30.5159C91.2852 30.4534 91.5815 30.6964 91.5815 31.0198V35.6841C91.5815 35.835 91.5151 35.9778 91.3995 36.0749L89.7983 37.4266C89.6983 37.5114 89.5815 37.5491 89.4679 37.5491C89.202 37.5491 88.9492 37.3413 88.9492 37.0352Z" fill="black"/>
</mask>
<g mask="url(#mask65_2587_198)">
<rect width="2.6323" height="19.051" transform="matrix(1 0 0 -1 88.9492 37.5491)" fill="url(#paint29_linear_2587_198)"/>
</g>
<mask id="mask66_2587_198" style="mask-type:alpha" maskUnits="userSpaceOnUse" x="44" y="8" width="7" height="40">
<path d="M49.1429 9.01456C49.1429 9.01456 49.1845 8.72456 48.5944 8.72641C48.0044 8.72765 45.4323 8.73507 45.4323 8.73507L45.305 9.01456H44.3093C44.3093 9.01456 44.336 8.38446 44.7149 8.38446H49.7752C50.0702 8.38446 50.6186 9.01456 50.6186 9.01456H49.1429ZM44.7149 47.5877C44.336 47.5877 44.3093 46.9576 44.3093 46.9576H45.305L45.4323 47.2377C45.4323 47.2377 48.0044 47.2439 48.5944 47.2458C49.1845 47.2476 49.1429 46.9576 49.1429 46.9576H50.6186C50.6186 46.9576 50.0702 47.5877 49.7752 47.5877H44.7149Z" fill="black"/>
</mask>
<g mask="url(#mask66_2587_198)">
<rect width="6.30931" height="39.2032" transform="matrix(1 0 0 -1 44.3093 47.5877)" fill="url(#paint30_linear_2587_198)"/>
</g>
<g opacity="0.300003">
<mask id="mask67_2587_198" style="mask-type:alpha" maskUnits="userSpaceOnUse" x="0" y="13" width="10" height="31">
<rect width="9.0177" height="30.0439" transform="matrix(1 0 0 -1 0 43.1071)" fill="#D9D9D9"/>
</mask>
<g mask="url(#mask67_2587_198)">
<mask id="mask68_2587_198" style="mask-type:alpha" maskUnits="userSpaceOnUse" x="0" y="13" width="10" height="31">
<path d="M4.03416 43.1071C2.84783 43.1071 0.712422 42.0045 0.712422 41.0591C0.712422 40.1142 0 34.7592 0 29.0104L0 27.159C0 21.4101 0.712422 16.0558 0.712422 15.1103C0.712422 14.1654 2.84783 13.0623 4.03416 13.0623H9.01801V13.8501C9.01801 13.8501 5.85342 13.8501 5.45839 15.6613C5.06211 17.473 4.90435 27.159 4.90435 27.159V29.0104C4.90435 29.0104 5.06211 38.6963 5.45839 40.5081C5.85342 42.3186 9.01801 42.3186 9.01801 42.3186V43.1071H4.03416Z" fill="black"/>
</mask>
<g mask="url(#mask68_2587_198)">
<rect width="9.01801" height="30.0447" transform="matrix(1 0 0 -1 0 43.1071)" fill="url(#paint31_linear_2587_198)"/>
</g>
</g>
</g>
<mask id="mask69_2587_198" style="mask-type:alpha" maskUnits="userSpaceOnUse" x="69" y="12" width="9" height="32">
<path d="M70.9277 43.9585C70.6358 43.9424 70.1445 43.8775 69.519 43.7791C70.0731 43.5899 70.5942 43.2412 71.0576 42.6154C72.1072 41.1975 73.9812 36.4961 73.9812 28.1625C73.9812 19.8283 72.1072 15.1269 71.0576 13.7097C70.5942 13.0839 70.0731 12.7345 69.519 12.5459C70.1445 12.4476 70.6358 12.3827 70.9277 12.366C72.2768 12.2918 73.6259 12.2918 74.6749 13.7097C75.7246 15.1269 77.5985 19.8283 77.5985 28.1625C77.5985 36.4961 75.7246 41.1975 74.6749 42.6154C73.8215 43.7686 72.7693 43.9838 71.6805 43.9838C71.4308 43.9838 71.1793 43.9727 70.9277 43.9585Z" fill="black"/>
</mask>
<g mask="url(#mask69_2587_198)">
<rect width="8.0795" height="31.6921" transform="matrix(1 0 0 -1 69.519 43.985)" fill="url(#paint32_linear_2587_198)"/>
</g>
<mask id="mask70_2587_198" style="mask-type:alpha" maskUnits="userSpaceOnUse" x="62" y="5" width="4" height="6">
<path d="M63.69 10.653C63.69 10.653 63.4366 10.2746 62.8888 8.13382C62.5254 6.71655 62.3658 5.87002 62.2993 5.45943C62.2707 5.28196 62.4024 5.12242 62.5813 5.11191C62.6279 5.10943 62.6776 5.10696 62.7304 5.10696H62.7509C63.2341 5.10882 63.9596 5.24424 64.4061 5.95102C65.1235 7.08447 65.7136 9.72918 65.5024 10.2746C65.3726 10.6128 64.708 10.6771 64.2211 10.6771C63.9217 10.6771 63.69 10.653 63.69 10.653Z" fill="black"/>
</mask>
<g mask="url(#mask70_2587_198)">
<rect width="3.44286" height="5.57016" transform="matrix(1 0 0 -1 62.2708 10.6771)" fill="url(#paint33_linear_2587_198)"/>
</g>
<mask id="mask71_2587_198" style="mask-type:alpha" maskUnits="userSpaceOnUse" x="62" y="45" width="4" height="6">
<path d="M62.7142 50.8668C62.6676 50.8661 62.6229 50.8643 62.5813 50.8618C62.4024 50.8507 62.2707 50.6911 62.2993 50.5143C62.3658 50.1043 62.5254 49.2572 62.8888 47.8393C63.4366 45.6985 63.69 45.3207 63.69 45.3207C63.69 45.3207 65.2919 45.1531 65.5024 45.6985C65.7136 46.2445 65.1235 48.8893 64.4061 50.0221C63.9645 50.7214 63.2496 50.8612 62.767 50.8668H62.7142Z" fill="black"/>
</mask>
<g mask="url(#mask71_2587_198)">
<rect width="3.44287" height="5.71362" transform="matrix(1 0 0 -1 62.2708 50.8668)" fill="url(#paint34_linear_2587_198)"/>
</g>
<defs>
<linearGradient id="paint0_linear_2587_198" x1="11.7915" y1="0.990454" x2="11.7915" y2="0.990454" gradientUnits="userSpaceOnUse">
<stop offset="1" stop-color="#252425"/>
<stop offset="0.747027" stop-color="#282729"/>
<stop offset="0.488048" stop-color="#343335"/>
<stop offset="0.227231" stop-color="#464749"/>
<stop stop-color="#5D5F62"/>
</linearGradient>
<linearGradient id="paint1_linear_2587_198" x1="11.7915" y1="1.00978" x2="11.7915" y2="1.00978" gradientUnits="userSpaceOnUse">
<stop offset="1" stop-color="#252425"/>
<stop offset="0.747027" stop-color="#282729"/>
<stop offset="0.488048" stop-color="#343335"/>
<stop offset="0.227231" stop-color="#464749"/>
<stop stop-color="#5D5F62"/>
</linearGradient>
<linearGradient id="paint2_linear_2587_198" x1="5.67811" y1="7.92301" x2="5.67811" y2="7.92301" gradientUnits="userSpaceOnUse">
<stop offset="1" stop-color="#424244"/>
<stop offset="0.993163" stop-color="#414143"/>
<stop offset="0.701648" stop-color="#313032"/>
<stop offset="0.385385" stop-color="#282728"/>
<stop stop-color="#252425"/>
</linearGradient>
<linearGradient id="paint3_linear_2587_198" x1="3.74612" y1="7.29693" x2="3.74612" y2="7.29693" gradientUnits="userSpaceOnUse">
<stop offset="1" stop-color="#252425"/>
<stop offset="0.747027" stop-color="#282729"/>
<stop offset="0.488048" stop-color="#343335"/>
<stop offset="0.227231" stop-color="#464749"/>
<stop stop-color="#5D5F62"/>
</linearGradient>
<linearGradient id="paint4_linear_2587_198" x1="2.02748" y1="9.30411" x2="2.02748" y2="9.30411" gradientUnits="userSpaceOnUse">
<stop offset="1" stop-color="#252425"/>
<stop offset="0.868727" stop-color="#282729"/>
<stop offset="0.734338" stop-color="#343335"/>
<stop offset="0.598995" stop-color="#464749"/>
<stop offset="0.481081" stop-color="#5D5F62"/>
<stop stop-color="#1A1818"/>
</linearGradient>
<linearGradient id="paint5_linear_2587_198" x1="6.16056" y1="8.60986" x2="6.16056" y2="8.60986" gradientUnits="userSpaceOnUse">
<stop offset="1" stop-color="#1A1818"/>
<stop offset="0.555926" stop-color="#212020"/>
<stop stop-color="#252425"/>
</linearGradient>
<radialGradient id="paint6_radial_2587_198" cx="0" cy="0" r="1" gradientUnits="userSpaceOnUse" gradientTransform="translate(22.9495 0.82235) scale(3.11801 13.3485)">
<stop offset="1" stop-color="#737679"/>
<stop offset="0.9362" stop-color="#696A6B"/>
<stop offset="0.7533" stop-color="#48494B"/>
<stop offset="0.5679" stop-color="#313132"/>
<stop offset="0.3814" stop-color="#212021"/>
<stop offset="0.1931" stop-color="#181818"/>
<stop stop-color="#151515"/>
</radialGradient>
<linearGradient id="paint7_linear_2587_198" x1="2.15783" y1="4.37393" x2="2.15783" y2="4.37393" gradientUnits="userSpaceOnUse">
<stop offset="1" stop-color="#121212"/>
<stop offset="0.6373" stop-color="#121212"/>
<stop offset="0.472" stop-color="#151415"/>
<stop offset="0.3467" stop-color="#1E1F1E"/>
<stop offset="0.2416" stop-color="#2D2C2D"/>
<stop offset="0.1492" stop-color="#404042"/>
<stop offset="0.067" stop-color="#5A5A5C"/>
<stop stop-color="#737679"/>
</linearGradient>
<linearGradient id="paint8_linear_2587_198" x1="2.18059" y1="1.49983" x2="2.18059" y2="1.49983" gradientUnits="userSpaceOnUse">
<stop offset="1" stop-color="#424244"/>
<stop offset="0.993163" stop-color="#414143"/>
<stop offset="0.701648" stop-color="#313032"/>
<stop offset="0.385385" stop-color="#282728"/>
<stop stop-color="#252425"/>
</linearGradient>
<linearGradient id="paint9_linear_2587_198" x1="2.18059" y1="1.58284" x2="2.18059" y2="1.58284" gradientUnits="userSpaceOnUse">
<stop offset="1" stop-color="#424244"/>
<stop offset="0.993163" stop-color="#414143"/>
<stop offset="0.701648" stop-color="#313032"/>
<stop offset="0.385385" stop-color="#282728"/>
<stop stop-color="#252425"/>
</linearGradient>
<linearGradient id="paint10_linear_2587_198" x1="0.688043" y1="0.604754" x2="0.688043" y2="0.604754" gradientUnits="userSpaceOnUse">
<stop offset="1" stop-color="#818386"/>
<stop offset="0.952903" stop-color="#97999B"/>
<stop offset="0.863348" stop-color="#BCBDBF"/>
<stop offset="0.773696" stop-color="#D9DADB"/>
<stop offset="0.685018" stop-color="#EEEEEF"/>
<stop offset="0.597731" stop-color="#FAFAFA"/>
<stop offset="0.513514" stop-color="white"/>
<stop offset="0.382076" stop-color="#FCFCFC"/>
<stop offset="0.28576" stop-color="#F2F3F3"/>
<stop offset="0.200649" stop-color="#E2E3E4"/>
<stop offset="0.122017" stop-color="#CCCDCF"/>
<stop offset="0.0485327" stop-color="#AFB1B4"/>
<stop stop-color="#989B9E"/>
</linearGradient>
<linearGradient id="paint11_linear_2587_198" x1="0.511956" y1="0.45001" x2="0.511956" y2="0.45001" gradientUnits="userSpaceOnUse">
<stop offset="1" stop-color="#818386"/>
<stop offset="0.952903" stop-color="#97999B"/>
<stop offset="0.863348" stop-color="#BCBDBF"/>
<stop offset="0.773696" stop-color="#D9DADB"/>
<stop offset="0.685018" stop-color="#EEEEEF"/>
<stop offset="0.597731" stop-color="#FAFAFA"/>
<stop offset="0.513514" stop-color="white"/>
<stop offset="0.382076" stop-color="#FCFCFC"/>
<stop offset="0.28576" stop-color="#F2F3F3"/>
<stop offset="0.200649" stop-color="#E2E3E4"/>
<stop offset="0.122017" stop-color="#CCCDCF"/>
<stop offset="0.0485327" stop-color="#AFB1B4"/>
<stop stop-color="#989B9E"/>
</linearGradient>
<linearGradient id="paint12_linear_2587_198" x1="0.688043" y1="0.604753" x2="0.688043" y2="0.604753" gradientUnits="userSpaceOnUse">
<stop offset="1" stop-color="#818386"/>
<stop offset="0.952903" stop-color="#97999B"/>
<stop offset="0.863348" stop-color="#BCBDBF"/>
<stop offset="0.773696" stop-color="#D9DADB"/>
<stop offset="0.685018" stop-color="#EEEEEF"/>
<stop offset="0.597731" stop-color="#FAFAFA"/>
<stop offset="0.513514" stop-color="white"/>
<stop offset="0.382076" stop-color="#FCFCFC"/>
<stop offset="0.28576" stop-color="#F2F3F3"/>
<stop offset="0.200649" stop-color="#E2E3E4"/>
<stop offset="0.122017" stop-color="#CCCDCF"/>
<stop offset="0.0485327" stop-color="#AFB1B4"/>
<stop stop-color="#989B9E"/>
</linearGradient>
<linearGradient id="paint13_linear_2587_198" x1="0.511956" y1="0.450163" x2="0.511956" y2="0.450163" gradientUnits="userSpaceOnUse">
<stop offset="1" stop-color="#818386"/>
<stop offset="0.952903" stop-color="#97999B"/>
<stop offset="0.863348" stop-color="#BCBDBF"/>
<stop offset="0.773696" stop-color="#D9DADB"/>
<stop offset="0.685018" stop-color="#EEEEEF"/>
<stop offset="0.597731" stop-color="#FAFAFA"/>
<stop offset="0.513514" stop-color="white"/>
<stop offset="0.382076" stop-color="#FCFCFC"/>
<stop offset="0.28576" stop-color="#F2F3F3"/>
<stop offset="0.200649" stop-color="#E2E3E4"/>
<stop offset="0.122017" stop-color="#CCCDCF"/>
<stop offset="0.0485327" stop-color="#AFB1B4"/>
<stop stop-color="#989B9E"/>
</linearGradient>
<linearGradient id="paint14_linear_2587_198" x1="1.28975" y1="0.987671" x2="1.28975" y2="0.987671" gradientUnits="userSpaceOnUse">
<stop offset="1" stop-color="#252425"/>
<stop offset="0.812365" stop-color="#2A2A2B"/>
<stop offset="0.551909" stop-color="#3B3B3D"/>
<stop offset="0.475676" stop-color="#424244"/>
<stop offset="0.381648" stop-color="#606264"/>
<stop offset="0.27128" stop-color="#7E8183"/>
<stop offset="0.177939" stop-color="#919497"/>
<stop offset="0.113514" stop-color="#989B9E"/>
<stop stop-color="#1A1818"/>
</linearGradient>
<linearGradient id="paint15_linear_2587_198" x1="1.28975" y1="0.987826" x2="1.28975" y2="0.987826" gradientUnits="userSpaceOnUse">
<stop offset="1" stop-color="#252425"/>
<stop offset="0.812365" stop-color="#2A2A2B"/>
<stop offset="0.551909" stop-color="#3B3B3D"/>
<stop offset="0.475676" stop-color="#424244"/>
<stop offset="0.381648" stop-color="#606264"/>
<stop offset="0.27128" stop-color="#7E8183"/>
<stop offset="0.177939" stop-color="#919497"/>
<stop offset="0.113514" stop-color="#989B9E"/>
<stop stop-color="#1A1818"/>
</linearGradient>
<linearGradient id="paint16_linear_2587_198" x1="0.956831" y1="7.26539" x2="0.956831" y2="7.26539" gradientUnits="userSpaceOnUse">
<stop offset="1" stop-color="#1A1818"/>
<stop offset="0.514761" stop-color="#262626"/>
<stop stop-color="#393A3B"/>
</linearGradient>
<linearGradient id="paint17_linear_2587_198" x1="3.44627" y1="7.17279" x2="3.44627" y2="7.17279" gradientUnits="userSpaceOnUse">
<stop offset="1" stop-color="#252425"/>
<stop stop-color="#252425"/>
</linearGradient>
<linearGradient id="paint18_linear_2587_198" x1="8.04783" y1="9.81627" x2="8.04783" y2="9.81627" gradientUnits="userSpaceOnUse">
<stop offset="1" stop-color="#5D5F62"/>
<stop offset="0.969459" stop-color="#6B6D70"/>
<stop offset="0.865569" stop-color="#98999B"/>
<stop offset="0.760811" stop-color="#BDBEBF"/>
<stop offset="0.656638" stop-color="#DADADB"/>
<stop offset="0.553317" stop-color="#EEEEEF"/>
<stop offset="0.451136" stop-color="#FAFAFB"/>
<stop offset="0.351351" stop-color="white"/>
<stop stop-color="#C9CBCD"/>
</linearGradient>
<radialGradient id="paint19_radial_2587_198" cx="0" cy="0" r="1" gradientUnits="userSpaceOnUse" gradientTransform="scale(15.9037 11.3128)">
<stop offset="1" stop-color="#5D5F62"/>
<stop offset="0.952916" stop-color="#6B6D70"/>
<stop offset="0.792752" stop-color="#98999B"/>
<stop offset="0.631251" stop-color="#BDBEBF"/>
<stop offset="0.470651" stop-color="#DADADB"/>
<stop offset="0.311364" stop-color="#EEEEEF"/>
<stop offset="0.153834" stop-color="#FAFAFB"/>
<stop stop-color="white"/>
</radialGradient>
<linearGradient id="paint20_linear_2587_198" x1="16.0936" y1="9.81457" x2="16.0936" y2="9.81457" gradientUnits="userSpaceOnUse">
<stop offset="1" stop-color="#C9CBCD"/>
<stop offset="0.432432" stop-color="white"/>
<stop offset="0.365909" stop-color="#FAFAFB"/>
<stop offset="0.297788" stop-color="#EEEEEF"/>
<stop offset="0.228908" stop-color="#DADADB"/>
<stop offset="0.159459" stop-color="#BDBEBF"/>
<stop offset="0.0896205" stop-color="#98999B"/>
<stop offset="0.0203605" stop-color="#6B6D70"/>
<stop stop-color="#5D5F62"/>
</linearGradient>
<linearGradient id="paint21_linear_2587_198" x1="1.77624" y1="0.442743" x2="1.77624" y2="0.442743" gradientUnits="userSpaceOnUse">
<stop offset="1" stop-color="#252425"/>
<stop offset="0.812365" stop-color="#2A2A2B"/>
<stop offset="0.551909" stop-color="#3B3B3D"/>
<stop offset="0.475676" stop-color="#424244"/>
<stop offset="0.368376" stop-color="#313032"/>
<stop offset="0.217755" stop-color="#201E1E"/>
<stop offset="0.113514" stop-color="#1A1818"/>
<stop stop-color="#1A1818"/>
</linearGradient>
<linearGradient id="paint22_linear_2587_198" x1="1.6146" y1="7.51119" x2="1.6146" y2="7.51119" gradientUnits="userSpaceOnUse">
<stop offset="1" stop-color="white"/>
<stop offset="0.996412" stop-color="#FDFDFD"/>
<stop offset="0.891967" stop-color="#D1D3D4"/>
<stop offset="0.798208" stop-color="#B2B4B6"/>
<stop offset="0.719317" stop-color="#9EA1A4"/>
<stop offset="0.664865" stop-color="#989B9E"/>
<stop offset="0.391323" stop-color="#4A4A4B"/>
<stop offset="0.205405" stop-color="#1A1818"/>
<stop stop-color="#1A1818"/>
</linearGradient>
<linearGradient id="paint23_linear_2587_198" x1="1.6146" y1="7.51119" x2="1.6146" y2="7.51119" gradientUnits="userSpaceOnUse">
<stop offset="1" stop-color="white"/>
<stop offset="0.996412" stop-color="#FDFDFD"/>
<stop offset="0.891967" stop-color="#D1D3D4"/>
<stop offset="0.798208" stop-color="#B2B4B6"/>
<stop offset="0.719317" stop-color="#9EA1A4"/>
<stop offset="0.664865" stop-color="#989B9E"/>
<stop offset="0.391323" stop-color="#4A4A4B"/>
<stop offset="0.205405" stop-color="#1A1818"/>
<stop stop-color="#1A1818"/>
</linearGradient>
<radialGradient id="paint24_radial_2587_198" cx="0" cy="0" r="1" gradientUnits="userSpaceOnUse" gradientTransform="translate(-0.0676128 0.101138) scale(5.5646 14.229)">
<stop offset="1" stop-color="#989B9E"/>
<stop offset="0.837521" stop-color="#9EA1A4"/>
<stop offset="0.602121" stop-color="#B2B4B6"/>
<stop offset="0.322357" stop-color="#D1D3D4"/>
<stop offset="0.0107062" stop-color="#FDFDFD"/>
<stop stop-color="white"/>
</radialGradient>
<linearGradient id="paint25_linear_2587_198" x1="6.6146" y1="0.206997" x2="6.6146" y2="0.206997" gradientUnits="userSpaceOnUse">
<stop offset="1" stop-color="#5D5F62"/>
<stop offset="0.969459" stop-color="#6B6D70"/>
<stop offset="0.865569" stop-color="#98999B"/>
<stop offset="0.760811" stop-color="#BDBEBF"/>
<stop offset="0.656638" stop-color="#DADADB"/>
<stop offset="0.553317" stop-color="#EEEEEF"/>
<stop offset="0.451136" stop-color="#FAFAFB"/>
<stop offset="0.351351" stop-color="white"/>
<stop stop-color="#C9CBCD"/>
</linearGradient>
<linearGradient id="paint26_linear_2587_198" x1="6.6146" y1="0.206995" x2="6.6146" y2="0.206995" gradientUnits="userSpaceOnUse">
<stop offset="1" stop-color="#5D5F62"/>
<stop offset="0.969459" stop-color="#6B6D70"/>
<stop offset="0.865569" stop-color="#98999B"/>
<stop offset="0.760811" stop-color="#BDBEBF"/>
<stop offset="0.656638" stop-color="#DADADB"/>
<stop offset="0.553317" stop-color="#EEEEEF"/>
<stop offset="0.451136" stop-color="#FAFAFB"/>
<stop offset="0.351351" stop-color="white"/>
<stop stop-color="#C9CBCD"/>
</linearGradient>
<linearGradient id="paint27_linear_2587_198" x1="1.77624" y1="0.442898" x2="1.77624" y2="0.442898" gradientUnits="userSpaceOnUse">
<stop offset="1" stop-color="#252425"/>
<stop offset="0.812365" stop-color="#2A2A2B"/>
<stop offset="0.551909" stop-color="#3B3B3D"/>
<stop offset="0.475676" stop-color="#424244"/>
<stop offset="0.368376" stop-color="#313032"/>
<stop offset="0.217755" stop-color="#201E1E"/>
<stop offset="0.113514" stop-color="#1A1818"/>
<stop stop-color="#1A1818"/>
</linearGradient>
<linearGradient id="paint28_linear_2587_198" x1="2.30845" y1="4.3076" x2="2.30845" y2="4.3076" gradientUnits="userSpaceOnUse">
<stop offset="1" stop-color="#121212"/>
<stop offset="0.6373" stop-color="#121212"/>
<stop offset="0.472" stop-color="#151415"/>
<stop offset="0.3467" stop-color="#1E1F1E"/>
<stop offset="0.2416" stop-color="#2D2C2D"/>
<stop offset="0.1492" stop-color="#404042"/>
<stop offset="0.067" stop-color="#5A5A5C"/>
<stop stop-color="#737679"/>
</linearGradient>
<linearGradient id="paint29_linear_2587_198" x1="0.658076" y1="4.76274" x2="0.658076" y2="4.76274" gradientUnits="userSpaceOnUse">
<stop offset="1" stop-color="#5D5F62"/>
<stop offset="0.772769" stop-color="#464749"/>
<stop offset="0.511952" stop-color="#343335"/>
<stop offset="0.252973" stop-color="#282729"/>
<stop stop-color="#252425"/>
</linearGradient>
<linearGradient id="paint30_linear_2587_198" x1="1.57733" y1="9.80081" x2="1.57733" y2="9.80081" gradientUnits="userSpaceOnUse">
<stop offset="1" stop-color="#252425"/>
<stop offset="0.812365" stop-color="#2A2A2B"/>
<stop offset="0.551909" stop-color="#3B3B3D"/>
<stop offset="0.475676" stop-color="#424244"/>
<stop offset="0.381648" stop-color="#606264"/>
<stop offset="0.27128" stop-color="#7E8183"/>
<stop offset="0.177939" stop-color="#919497"/>
<stop offset="0.113514" stop-color="#989B9E"/>
<stop stop-color="#1A1818"/>
</linearGradient>
<linearGradient id="paint31_linear_2587_198" x1="2.2545" y1="7.51119" x2="2.2545" y2="7.51119" gradientUnits="userSpaceOnUse">
<stop offset="1" stop-color="#1A1818"/>
<stop offset="0.979649" stop-color="#383738"/>
<stop offset="0.948617" stop-color="#616264"/>
<stop offset="0.920726" stop-color="#7F8183"/>
<stop offset="0.897266" stop-color="#919497"/>
<stop offset="0.881081" stop-color="#989B9E"/>
<stop offset="0.812523" stop-color="#919497"/>
<stop offset="0.717146" stop-color="#808285"/>
<stop offset="0.606582" stop-color="#646568"/>
<stop offset="0.497297" stop-color="#424244"/>
<stop offset="0.397656" stop-color="#606264"/>
<stop offset="0.280699" stop-color="#7E8183"/>
<stop offset="0.181785" stop-color="#919497"/>
<stop offset="0.113514" stop-color="#989B9E"/>
<stop stop-color="#1A1818"/>
</linearGradient>
<linearGradient id="paint32_linear_2587_198" x1="2.01988" y1="7.92301" x2="2.01988" y2="7.92301" gradientUnits="userSpaceOnUse">
<stop offset="1" stop-color="#313133"/>
<stop offset="0.535304" stop-color="#282729"/>
<stop stop-color="#252425"/>
</linearGradient>
<linearGradient id="paint33_linear_2587_198" x1="0.860715" y1="1.39254" x2="0.860715" y2="1.39254" gradientUnits="userSpaceOnUse">
<stop offset="1" stop-color="#252425"/>
<stop offset="0.812365" stop-color="#2A2A2B"/>
<stop offset="0.551909" stop-color="#3B3B3D"/>
<stop offset="0.475676" stop-color="#424244"/>
<stop offset="0.381648" stop-color="#606264"/>
<stop offset="0.27128" stop-color="#7E8183"/>
<stop offset="0.177939" stop-color="#919497"/>
<stop offset="0.113514" stop-color="#989B9E"/>
<stop stop-color="#1A1818"/>
</linearGradient>
<linearGradient id="paint34_linear_2587_198" x1="0.860717" y1="1.42841" x2="0.860717" y2="1.42841" gradientUnits="userSpaceOnUse">
<stop offset="1" stop-color="#252425"/>
<stop offset="0.812365" stop-color="#2A2A2B"/>
<stop offset="0.551909" stop-color="#3B3B3D"/>
<stop offset="0.475676" stop-color="#424244"/>
<stop offset="0.381648" stop-color="#606264"/>
<stop offset="0.27128" stop-color="#7E8183"/>
<stop offset="0.177939" stop-color="#919497"/>
<stop offset="0.113514" stop-color="#989B9E"/>
<stop stop-color="#1A1818"/>
</linearGradient>
</defs>
</svg>
