<svg width="100" height="44" viewBox="0 0 100 44" fill="none" xmlns="http://www.w3.org/2000/svg">
<g clip-path="url(#clip0_6561_4963)">
<path d="M97.0105 35.7154C95.8253 37.5933 93.6504 38.6796 92.8602 38.8779C92.0701 39.0762 89.105 39.8664 88.019 39.8664H69.23C69.2199 39.9512 69.207 40.0432 69.1941 40.1409C69.1812 40.2371 69.1496 40.355 69.1007 40.4872C69.0806 40.5461 69.0591 40.605 69.0332 40.6596C68.6353 41.6108 67.5981 43.1396 66.7117 43.6827C66.1299 44.039 65.7161 44.0347 65.459 43.9557H65.4561C65.4159 43.9428 65.3785 43.9298 65.3455 43.914C65.2033 43.8479 65.1329 43.7689 65.1329 43.7689L66.7404 39.865H66.0839C62.435 39.865 53.6432 40.286 51.3518 40.2874H51.2297C48.697 40.2759 34.8283 39.8909 30.2974 39.8722V39.944C30.1753 39.944 30.0445 39.9167 29.9124 39.8708C25.7305 39.8708 21.632 39.9081 19.6725 39.9081C17.713 39.9081 11.7282 39.8708 9.26878 39.3779C6.80937 38.8851 5.52363 37.9023 3.85864 36.5401C2.19365 35.178 1.21103 33.6262 0.680937 31.4321C0.15084 29.2381 0 22.1271 0 22.1271V21.9217C0 21.9217 0.15084 14.8078 0.680937 12.6138C1.21103 10.4197 2.19365 8.8679 3.85864 7.50578C5.52363 6.14365 6.80937 5.15941 9.26878 4.66801C11.7282 4.17661 17.7058 4.13781 19.6725 4.13781C21.6391 4.13781 25.7319 4.17516 29.9138 4.17516C30.0445 4.13062 30.1753 4.10332 30.2959 4.10332V4.17516C34.87 4.15505 48.9599 3.76423 51.2972 3.75992H51.4581C53.9017 3.77428 62.4882 4.18235 66.0839 4.18235H66.7533L65.1329 0.248264C65.1329 0.248264 65.2033 0.169235 65.3455 0.103142C65.3785 0.0887718 65.4159 0.0744057 65.4561 0.0614738H65.459C65.7176 -0.0175514 66.1299 -0.021862 66.7117 0.334476C67.5966 0.877602 68.6353 2.40641 69.0332 3.3576C69.0591 3.4122 69.0806 3.47111 69.1007 3.53002C69.1496 3.66365 69.1812 3.78147 69.1941 3.8763C69.2085 3.98694 69.2228 4.08895 69.2343 4.18235H88.0204C89.1079 4.18235 92.0715 4.97262 92.8617 5.1709C93.2179 5.25999 93.8558 5.53155 94.5554 5.97266C94.6042 6.0014 94.6545 6.03301 94.7077 6.0718C95.5208 6.60631 96.3971 7.36353 97.0105 8.33484C98.1957 10.2128 100 15.3567 100 21.9777C100 28.5987 98.1957 33.8417 97.0105 35.7197V35.7154Z" fill="#231F20"/>
<path d="M0 22.1271C0 22.1271 0.15084 29.2409 0.680937 31.435C1.21103 33.6291 2.19365 35.1809 3.85864 36.543C5.52363 37.9051 6.80937 38.8894 9.26878 39.3808C11.7282 39.8722 17.7058 39.911 19.6725 39.911C21.6391 39.911 25.7635 39.8736 29.9627 39.8736C34.1618 39.8736 49.0677 40.2903 51.3375 40.2903C53.6072 40.2903 62.4264 39.8679 66.0825 39.8679H88.0175C89.105 39.8679 92.0687 39.0776 92.8588 38.8793C93.6489 38.681 95.8225 37.5948 97.0091 35.7168C98.1957 33.8388 99.9986 28.5972 99.9986 21.9748C99.9986 15.3524 98.1942 10.2099 97.0091 8.33193C95.8239 6.45397 93.6489 5.36772 92.8588 5.16943C92.0687 4.97115 89.1036 4.18088 88.0175 4.18088H66.0825C62.4264 4.18088 53.6072 3.75845 51.3375 3.75845C49.0677 3.75845 34.1618 4.17513 29.9627 4.17513C25.7635 4.17513 21.6391 4.13778 19.6725 4.13778C17.7058 4.13778 11.7282 4.17514 9.26878 4.66798C6.80937 5.15938 5.52363 6.14361 3.85864 7.50574C2.19365 8.86787 1.21103 10.4197 0.680937 12.6137C0.15084 14.8078 0 21.9216 0 21.9216V22.1271Z" fill="#FDD108"/>
<path d="M98.8393 21.9357C98.7129 19.4816 98.4227 18.3421 98.1325 17.309C97.8409 16.3593 97.216 15.5705 96.6126 14.8075C96.196 14.2802 95.7636 13.7356 95.449 13.1436C94.9447 12.1967 94.0555 10.9596 93.228 9.99549C94.7968 12.0372 97.1556 16.0935 97.1556 22.0233C97.1556 27.1787 95.4676 30.8183 94.0497 32.9692C94.6 32.2422 95.1114 31.4764 95.449 30.8413C95.7636 30.2507 96.196 29.7047 96.6126 29.1774C97.216 28.4144 97.8394 27.6256 98.1325 26.6773C98.1325 26.6773 98.1325 26.6773 98.1325 26.6758C98.4227 25.6428 98.7114 24.5033 98.8393 22.0492V21.9357Z" fill="#2D2D2D"/>
<path d="M97.6024 15.0374C97.2217 12.6551 94.7852 8.35891 93.84 7.41921C92.9249 6.50969 90.2342 6.18927 89.6294 6.18927C89.4627 6.18927 89.3564 6.241 89.3306 6.33296C89.2961 6.45509 89.401 6.66199 89.6667 6.82149C90.1121 7.08874 91.0616 7.80141 92.1463 8.6822C93.1389 9.48827 94.8097 11.6234 95.584 13.0761C95.8928 13.6551 96.3209 14.1954 96.7332 14.7184C97.1384 15.2299 97.5521 15.7529 97.8724 16.3291C97.7762 15.9498 97.6843 15.5331 97.6052 15.0374H97.6024Z" fill="url(#paint0_linear_6561_4963)"/>
<path d="M14.6387 32.4951L34.9289 33.215L54.4419 33.6589C54.4419 33.6589 54.4577 32.5339 54.4117 32.3255C54.3657 32.1172 54.212 31.9893 53.7897 31.9793C53.5842 31.975 48.855 31.8787 44.0224 31.7278C38.8924 31.5669 33.7207 31.406 33.7207 31.406C33.7207 31.406 15.8253 30.8571 15.4072 30.8916C14.9892 30.9261 14.7177 31.0899 14.6775 31.6603C14.6372 32.2307 14.6387 32.4937 14.6387 32.4937V32.4951Z" fill="url(#paint1_linear_6561_4963)"/>
<path d="M14.6387 11.5055L34.9274 10.8403L54.4447 10.1965C54.4447 10.1965 54.4576 11.4667 54.4117 11.6751C54.3657 11.8834 54.1962 11.9351 53.7738 11.9452C53.5684 11.9495 48.855 12.1205 44.0209 12.2728C38.8909 12.4337 33.7192 12.5946 33.7192 12.5946C33.7192 12.5946 15.8238 13.1435 15.4058 13.109C14.9877 13.0746 14.7162 12.9108 14.676 12.3403C14.6358 11.7713 14.6372 11.507 14.6372 11.507L14.6387 11.5055Z" fill="url(#paint2_linear_6561_4963)"/>
<path d="M50.4583 34.8975C43.1318 34.6102 31.5918 34.3975 26.5149 34.3128C21.4395 34.228 14.7824 34.3027 13.0111 34.3128C11.2398 34.3228 10.9037 34.8171 11.7182 35.4795C12.5327 36.1419 14.5439 37.2439 15.5007 37.5313C16.4575 37.8187 17.4157 37.8187 18.7574 37.8661C20.0992 37.9135 27.6642 37.8661 32.5959 37.8661C37.5277 37.8661 45.9087 38.3445 51.4151 38.3445C56.9215 38.3445 65.5898 38.5356 69.1324 38.5356C72.675 38.5356 73.5829 38.1319 73.5829 37.7497C73.5829 37.0729 68.9413 36.3804 64.248 35.8545C59.5547 35.3286 50.4569 34.8961 50.4569 34.8961L50.4583 34.8975Z" fill="url(#paint3_linear_6561_4963)"/>
<path d="M18.8521 13.7815H23.4851C24.5808 13.7815 25.469 14.6699 25.469 15.7658V27.9617C25.469 29.0576 24.5808 29.946 23.4851 29.946H18.8521C17.7564 29.946 16.8682 29.0576 16.8682 27.9617V15.7658C16.8682 14.6699 17.7564 13.7815 18.8521 13.7815Z" fill="black"/>
<path d="M69.1337 38.6089C67.5563 38.6089 65.0208 38.5715 62.0858 38.5284C58.5159 38.4767 54.4706 38.4164 51.4164 38.4164C51.3948 38.4164 51.3733 38.4164 51.3517 38.4164V40.2886H51.2296V38.4164C48.4283 38.4106 44.913 38.287 41.5083 38.1678C38.1582 38.05 34.9949 37.9379 32.5973 37.9379C31.4667 37.9379 30.1967 37.9408 28.8966 37.9436C28.8636 38.106 28.7875 38.5644 28.9081 38.8833C29.0504 39.2641 29.7787 39.7986 30.2987 39.8015V39.9452C29.7169 39.9409 28.934 39.3632 28.7731 38.9336C28.6467 38.5945 28.7128 38.1405 28.7501 37.9451C28.164 37.9465 27.575 37.948 26.9874 37.9494C23.2092 37.9594 19.6408 37.9695 18.7559 37.9379L18.3292 37.9235C17.2202 37.8876 16.3438 37.8589 15.4819 37.6002C14.5409 37.3172 12.5125 36.218 11.6735 35.5355C11.3115 35.2409 11.1679 34.9766 11.2469 34.7524C11.3647 34.4191 11.958 34.2466 13.011 34.2409C13.2667 34.2394 13.6244 34.2366 14.0654 34.2323C15.604 34.2193 18.1166 34.1992 20.8059 34.1992C22.7151 34.1992 24.7133 34.2093 26.5162 34.2394C31.2555 34.3185 43.0742 34.5354 50.4611 34.8242C50.5516 34.8286 59.6149 35.261 64.2565 35.7826C73.6546 36.8373 73.6546 37.5241 73.6546 37.7497C73.6546 38.3187 72.1333 38.6075 69.1322 38.6075L69.1337 38.6089ZM26.5148 34.3846C22.1735 34.3113 16.6987 34.3558 14.0669 34.3759C13.6258 34.3788 13.2681 34.3817 13.0124 34.3846C11.6707 34.3932 11.4265 34.6777 11.3834 34.8013C11.3288 34.9579 11.4638 35.1791 11.7655 35.4248C12.593 36.0987 14.5955 37.185 15.5236 37.4637C16.3668 37.7166 17.236 37.7454 18.3349 37.7813L18.763 37.7956C19.2098 37.8115 20.3418 37.8172 21.8416 37.8172C23.3414 37.8172 25.1228 37.8115 26.9889 37.8071C27.5865 37.8057 28.187 37.8043 28.7817 37.8028L29.2457 34.4334C28.1898 34.4147 27.2647 34.3989 26.5162 34.386L26.5148 34.3846ZM48.661 34.9033C43.702 34.7308 37.3854 34.5886 32.4464 34.4923V37.7956C32.4967 37.7956 32.5484 37.7956 32.5973 37.7956C34.9963 37.7956 38.1626 37.9077 41.5126 38.0255C44.2192 38.1204 46.9961 38.2181 49.4296 38.2569L48.661 34.9033ZM64.2421 35.9263C60.8231 35.5427 55.0007 35.2064 52.1419 35.0541L53.521 38.2813C56.1988 38.2985 59.2903 38.3445 62.0901 38.3848C65.0251 38.4279 67.5592 38.4652 69.1351 38.4652C73.0871 38.4652 73.5138 37.9652 73.5138 37.7511C73.5138 37.5155 72.6102 36.866 64.2436 35.9277L64.2421 35.9263Z" fill="#231F20"/>
<path d="M35.5351 13.4009L53.3041 13.4009C54.426 13.4009 55.3354 14.3105 55.3354 15.4326V28.3843C55.3354 29.5064 54.426 30.416 53.3041 30.416L35.5351 30.416C34.4133 30.416 33.5038 29.5064 33.5038 28.3843V15.4326C33.5038 14.3105 34.4133 13.4009 35.5351 13.4009Z" fill="black"/>
<path d="M78.7157 8.54997C78.7157 8.54997 77.7058 7.36601 75.3125 7.3775C72.9177 7.389 63.9635 8.51549 63.3415 8.65917C62.7195 8.80286 62.0486 8.70659 62.1922 10.096C62.3359 11.4855 62.6706 21.7718 62.6706 21.7718V22.0233C62.6706 22.0233 62.3359 32.3111 62.1922 33.6991C62.0486 35.0871 62.7195 34.9923 63.3415 35.136C63.9635 35.2796 72.9192 36.4047 75.3125 36.4176C77.7058 36.4306 78.7157 35.2452 78.7157 35.2452C78.7157 35.2452 81.359 30.8484 81.359 22.0233V21.7718C81.359 12.9467 78.7157 8.54997 78.7157 8.54997Z" fill="url(#paint4_linear_6561_4963)"/>
<path opacity="0.3" d="M80.9798 7.30564C80.7083 7.30564 80.4684 7.32719 80.2184 7.38897C79.5447 7.55709 78.6985 8.4623 78.6626 8.50109L78.6252 8.54132L78.6525 8.5873C78.6784 8.63041 81.2858 13.0717 81.2858 21.7718V22.0233C81.2858 30.7234 78.6784 35.1647 78.6525 35.2078L78.6252 35.2538L78.6626 35.294C78.6985 35.3328 79.5447 36.2366 80.2184 36.4061C80.6767 36.521 81.1033 36.4952 81.7484 36.4578C82.0601 36.4391 82.4121 36.419 82.8488 36.4075C84.192 36.3745 92.0314 35.327 92.1104 35.3155L92.1319 35.3127L92.1477 35.2983C92.198 35.2552 97.1628 30.8613 97.1628 22.0218C97.1628 13.1823 91.9222 8.50397 91.869 8.45655L91.8532 8.44218L91.8317 8.43931C91.7555 8.42925 84.1934 7.41771 82.8502 7.38466C82.4135 7.37461 82.0615 7.35305 81.7498 7.33438C81.4567 7.31713 81.2082 7.30276 80.9827 7.30276L80.9798 7.30564ZM78.8048 8.56144C78.9729 8.38758 79.6955 7.66916 80.2529 7.52978C80.6896 7.42058 81.1076 7.44501 81.7397 7.48237C82.0515 7.50105 82.4063 7.52116 82.8459 7.53266C84.146 7.56427 91.3346 8.52265 91.79 8.58299C92.1075 8.87324 97.0192 13.4956 97.0192 22.0261C97.0192 30.5567 92.3776 34.9017 92.0702 35.1805C91.6076 35.2423 84.146 36.2366 82.8459 36.2682C82.4063 36.2782 82.0529 36.2998 81.7397 36.3185C81.1076 36.3558 80.691 36.3802 80.2529 36.271C79.6955 36.1317 78.9729 35.4132 78.8048 35.2394C79.0864 34.735 81.4323 30.2894 81.4323 22.0276V21.7761C81.4323 13.5157 79.0878 9.06865 78.8048 8.56432V8.56144Z" fill="#231F20"/>
<path opacity="0.3" d="M60.8506 4.89619V5.03988C63.8745 5.03988 67.9846 5.11172 71.6119 5.1735C74.7437 5.2281 77.7001 5.27839 79.5734 5.27839C82.5888 5.27839 85.8685 5.38185 88.2619 5.458C89.0793 5.48386 89.7774 5.50541 90.2975 5.51834C92.1736 5.56289 93.3674 5.70801 94.2897 6.00256C95.11 6.26551 99.2789 10.0933 99.2789 21.9602V22.0234C99.2789 33.8903 95.1114 37.7195 94.2897 37.981C93.3674 38.2756 92.1736 38.4207 90.2975 38.4652C89.7774 38.4782 89.0821 38.4997 88.2647 38.5256C85.8699 38.6017 82.5888 38.7052 79.572 38.7052C77.6987 38.7052 74.7408 38.7569 71.6105 38.8101C67.9832 38.8733 63.8731 38.9437 60.8491 38.9437V39.0874C63.8745 39.0874 67.986 39.0156 71.6134 38.9538C74.7437 38.8992 77.7001 38.8489 79.5734 38.8489C82.5931 38.8489 85.8743 38.7454 88.2705 38.6693C89.0864 38.6434 89.7817 38.6219 90.3018 38.6089C92.1923 38.5644 93.3976 38.4164 94.3342 38.1175C94.8715 37.9465 96.13 36.7956 97.2246 34.4378C98.2274 32.2753 99.424 28.3671 99.424 22.0234V21.9602C99.424 15.6165 98.2288 11.7068 97.2246 9.54583C96.13 7.18796 94.8715 6.03705 94.3342 5.86606C93.399 5.5672 92.1923 5.42064 90.3018 5.37466C89.7817 5.36173 89.085 5.34018 88.2676 5.31432C85.8728 5.23816 82.5917 5.13471 79.5734 5.13471C77.7016 5.13471 74.7437 5.08298 71.6134 5.02982C67.986 4.9666 63.8745 4.89619 60.8491 4.89619H60.8506Z" fill="#231F20"/>
<path d="M53.3414 38.2798L51.9982 35.0541L50.4007 34.975L51.2842 38.2482L53.3414 38.2798ZM49.5503 38.2568L48.7659 34.9176L50.3634 34.9808L51.2311 38.2582H49.5517L49.5503 38.2568ZM29.4454 34.4606L32.241 34.4879L32.2826 37.7769L28.9526 37.7625L29.4454 34.4592V34.4606Z" fill="black"/>
<path d="M50.4583 8.95649C43.1318 9.24386 31.5918 9.45651 26.5149 9.54129C21.4381 9.62606 14.7824 9.55134 13.0111 9.54129C11.2398 9.53123 10.9037 9.03695 11.7182 8.37457C12.5327 7.71218 14.5439 6.61012 15.5007 6.32275C16.4575 6.03538 17.4157 6.03538 18.7574 5.98796C20.0992 5.94055 27.6642 5.98796 32.5959 5.98796C37.5277 5.98796 45.9087 5.50949 51.4151 5.50949C56.9215 5.50949 65.5898 5.31839 69.1324 5.31839C72.675 5.31839 73.5829 5.72215 73.5829 6.10435C73.5829 6.7811 68.9413 7.47366 64.248 7.99955C59.5547 8.52543 50.4569 8.95793 50.4569 8.95793L50.4583 8.95649Z" fill="url(#paint5_linear_6561_4963)"/>
<path d="M64.258 8.07016C59.6164 8.59173 50.553 9.02422 50.4625 9.02854C43.0771 9.31878 31.257 9.5343 26.5177 9.61333C24.7148 9.6435 22.7165 9.65356 20.8073 9.65356C18.118 9.65356 15.6055 9.63345 14.0669 9.62052C13.6259 9.61764 13.2682 9.61477 13.0125 9.61189C11.9595 9.60615 11.3661 9.43373 11.2483 9.10038C11.1693 8.87623 11.313 8.61185 11.675 8.3173C12.5125 7.63479 14.541 6.53417 15.4834 6.25255C16.3453 5.99392 17.2216 5.96518 18.3307 5.92926L18.7573 5.91489C19.6423 5.88328 23.2107 5.89333 26.9889 5.90339C27.565 5.90483 28.1453 5.90627 28.7214 5.90771C28.6927 5.68068 28.6798 5.36458 28.7746 5.11169C28.9355 4.68207 29.7184 4.10446 30.2988 4.10015V4.24383C29.7787 4.24671 29.0518 4.78122 28.9082 5.16198C28.822 5.39188 28.8378 5.69505 28.8651 5.90771C30.1767 5.91058 31.4581 5.91345 32.5987 5.91345C34.9949 5.91345 38.1597 5.80137 41.5098 5.68355C44.9892 5.56142 48.5878 5.43354 51.4179 5.43354C54.4735 5.43354 58.5189 5.37463 62.0873 5.32147C65.0222 5.27836 67.5578 5.24101 69.1351 5.24101C72.1362 5.24101 73.6575 5.52981 73.6575 6.0988C73.6575 6.32439 73.6575 7.0112 64.2594 8.06585L64.258 8.07016ZM28.799 6.19076L28.7703 6.19795C28.7688 6.19076 28.7545 6.13616 28.7401 6.05282C28.1568 6.05139 27.5707 6.04995 26.986 6.04851C25.1199 6.04277 23.3041 6.03845 21.8388 6.03845C20.3735 6.03845 19.2055 6.04421 18.7602 6.06001L18.3321 6.07438C17.2331 6.1103 16.3654 6.13904 15.5207 6.39192C14.5913 6.67067 12.5901 7.75692 11.7626 8.43081C11.461 8.67651 11.3259 8.89778 11.3805 9.0544C11.4236 9.17653 11.6693 9.46246 13.0096 9.47108C13.2653 9.47252 13.623 9.47539 14.064 9.47971C16.6958 9.50126 22.1706 9.54436 26.512 9.47108C27.2604 9.45815 28.1856 9.44235 29.2415 9.42367L28.7961 6.1922L28.799 6.19076ZM41.5127 5.83011C38.1611 5.94794 34.9964 6.06001 32.5973 6.06001C32.5485 6.06001 32.4953 6.06001 32.4465 6.06001V9.36332C37.3854 9.26705 43.702 9.1248 48.6611 8.95238L49.4296 5.59878C46.9975 5.63757 44.2206 5.73528 41.5127 5.83011ZM69.1337 5.389C67.5564 5.389 65.0222 5.42636 62.0887 5.46946C59.2889 5.51113 56.1988 5.55568 53.5196 5.57292L52.1405 8.80008C54.9992 8.64777 60.8217 8.31298 64.2407 7.92791C72.6073 6.98821 73.511 6.33876 73.511 6.10455C73.511 5.88903 73.0843 5.39044 69.1323 5.39044L69.1337 5.389Z" fill="#231F20"/>
<path d="M53.3414 5.5742L51.2842 5.60581L50.4007 8.87895L51.9982 8.79992L53.3414 5.5742ZM48.7645 8.93786L49.5488 5.59862H51.2282L50.3605 8.87607L48.763 8.9393L48.7645 8.93786ZM29.4454 9.39478L28.9526 6.09147L32.2826 6.0771L32.241 9.36604L29.4454 9.39334V9.39478Z" fill="black"/>
<path d="M6.28359 11.75C5.41446 12.6193 5.63713 21.8797 5.63713 21.8797V22.0234C5.63713 22.0234 5.41446 31.429 6.28359 32.2969" stroke="#231F20" stroke-width="0.255208" stroke-miterlimit="10"/>
<path d="M2.69197 11.75C1.01262 12.6193 1.15484 21.8797 1.15484 21.8797V22.0234C1.15484 22.0234 1.01262 31.429 2.69197 32.2969" stroke="#231F20" stroke-width="0.255208" stroke-miterlimit="10"/>
<path d="M80.2141 22.0277C80.6465 21.9213 80.6365 21.667 80.5948 21.5032C80.5532 21.3394 78.7014 14.8894 78.7014 14.8894C78.7014 14.8894 78.2029 14.2356 78.1857 14.1351C78.1684 14.0345 77.9989 13.214 77.9989 13.214L77.7834 12.9468L77.1571 10.928L76.1587 9.32019L75.959 9.36617C75.959 9.36617 77.2462 11.214 77.713 14.4785C78.2862 17.7042 78.2862 20.5362 78.2862 20.5362L78.5032 20.3739L78.5621 19.0979L78.2862 15.4756L78.2044 14.9483L78.4285 15.0015L78.6324 15.8076L79.5102 20.3638L79.5763 20.6785L80.0935 20.5434L79.5878 20.8193C79.5878 20.8193 79.7113 21.3998 79.7846 21.7777C79.8478 22.1182 80.2141 22.0277 80.2141 22.0277Z" fill="black"/>
<path d="M77.9011 34.8141C78.266 34.9003 78.355 34.7064 78.3881 34.5684C78.4211 34.4305 79.5086 28.8929 79.5086 28.8929C79.5086 28.8929 79.3865 28.2118 79.4123 28.1299C79.4382 28.048 78.6208 26.035 78.6208 26.035L78.5044 24.6456L78.1094 21.4888L77.835 20.0678L77.6683 20.0261C77.6683 20.0261 77.9815 24.6456 77.947 26.525C77.97 30.5869 77.0046 33.3471 77.0046 33.3471L77.1339 33.3715L77.8192 31.7292L78.5964 27.2908L79.0474 27.89L79.2601 28.8728L79.1035 29.5538L78.0117 33.2997L77.9398 33.5612L78.3794 33.6575L77.8953 33.669C77.8953 33.669 77.766 34.1503 77.6755 34.4621C77.5922 34.7408 77.9011 34.8141 77.9011 34.8141Z" fill="black"/>
<path d="M1.15508 21.8797C1.15508 21.8797 1.03154 13.0703 2.61464 11.7959C2.28854 13.1724 2.02852 14.7371 2.05725 15.4569C2.10035 16.5317 2.35893 16.2745 2.46524 15.8866C2.57155 15.4986 3.04849 14.6207 3.12176 13.6307C3.58864 11.4898 5.27518 11.4424 6.51926 11.5617L6.28222 11.7499C5.41309 12.6192 5.63576 21.736 5.63576 21.736V22.0248C5.63576 22.0248 5.41309 31.4304 6.28222 32.2982L6.51926 32.4865C5.27518 32.6057 3.58864 32.5583 3.12176 30.4174C3.04705 29.4274 2.57298 28.5481 2.46524 28.1616C2.3575 27.775 2.10035 27.5164 2.05725 28.5912C2.02852 29.3096 2.28854 30.8758 2.61464 32.2523C1.03154 30.9778 1.15508 22.0248 1.15508 22.0248V21.8797Z" fill="url(#paint6_linear_6561_4963)"/>
<path d="M52.3961 4.59589C52.8889 4.6663 53.5943 4.63756 53.5943 4.63756V3.97517C52.8616 3.98954 52.3961 4.27116 52.3961 4.59589ZM55.4977 3.97517H53.6934V4.65193C53.6934 4.65193 55.0179 4.66629 57.246 4.63756C57.246 4.14472 56.5407 3.97517 55.4977 3.97517ZM53.9318 4.51112L54.0022 4.24386H55.3268C55.3268 4.24386 56.2433 4.24386 56.2433 4.51112H53.9318ZM49.342 3.96942V4.63181C49.342 4.63181 50.0473 4.66055 50.5401 4.59014C50.5401 4.26542 50.0746 3.98379 49.342 3.96942ZM45.6917 4.63181C47.9198 4.66055 49.2443 4.64618 49.2443 4.64618V3.96942C49.2443 3.96942 48.4829 3.96942 47.44 3.96942C46.397 3.96942 45.6917 4.13897 45.6917 4.63181ZM46.6915 4.50537C46.6915 4.23812 47.608 4.23811 47.608 4.23811H48.9326L49.003 4.50537H46.6915Z" fill="#4C4C4D"/>
<path d="M50.5415 39.4294C50.0488 39.359 49.3434 39.3878 49.3434 39.3878V40.0502C50.0761 40.0358 50.5415 39.7542 50.5415 39.4294ZM47.44 40.0502H49.2443V39.3734C49.2443 39.3734 47.9198 39.359 45.6917 39.3878C45.6917 39.8806 46.397 40.0502 47.44 40.0502ZM49.0044 39.5142L48.934 39.7815H47.6095C47.6095 39.7815 46.6929 39.7815 46.6929 39.5142H49.0044ZM53.5943 40.0559V39.3935C53.5943 39.3935 52.8889 39.3648 52.3961 39.4352C52.3961 39.7599 52.8616 40.0415 53.5943 40.0559ZM57.246 39.3935C55.0179 39.3648 53.6934 39.3792 53.6934 39.3792V40.0559C53.6934 40.0559 54.4548 40.0559 55.4977 40.0559C56.5407 40.0559 57.246 39.8864 57.246 39.3935ZM56.2447 39.52C56.2447 39.7872 55.3282 39.7872 55.3282 39.7872H54.0037L53.9333 39.52H56.2447Z" fill="#4C4C4D"/>
<path opacity="0.85" d="M78.7703 35.2926C78.7287 35.3415 77.7159 36.5082 75.3111 36.4895C72.8689 36.4766 63.8572 35.33 63.3243 35.2064C63.2438 35.1877 63.1619 35.1734 63.08 35.159C62.662 35.0843 62.2353 35.0053 62.1276 34.3788C61.6952 34.3213 56.8855 33.702 52.4997 33.702C47.8107 33.702 17.1815 32.656 14.9763 32.5669L14.2078 32.5368C12.4049 32.4663 11.3748 32.4247 9.97129 32.2882C9.98278 32.3485 10.1006 33.0526 9.61215 33.646C9.21134 34.1345 8.52035 34.3946 7.56503 34.4276C7.64691 34.5613 7.72592 34.6877 7.79775 34.8027C7.996 35.1188 8.15402 35.3688 8.22442 35.5714C8.2632 35.6806 8.31348 35.8041 8.3652 35.9335C8.57494 36.4507 8.69418 36.774 8.56776 36.9119C8.5419 36.9392 8.51029 36.9565 8.47151 36.9622C8.50455 37.0341 8.52753 37.1203 8.49449 37.185C8.47582 37.2209 8.43416 37.264 8.34221 37.264C8.31923 37.264 8.28044 37.264 8.22872 37.2669C7.76471 37.2798 6.35543 37.3157 5.5136 36.9608C4.60281 36.5757 3.72794 35.6073 3.21077 34.4348C3.21077 34.4348 3.08579 34.1345 3.05705 34.0555C2.89472 33.6086 2.71802 32.9779 2.55425 32.2925C0.979766 30.9634 1.07889 22.3883 1.08464 22.0248V21.8811C1.07889 21.5147 0.979766 13.0287 2.57006 11.7427C2.72951 11.0817 2.90047 10.4754 3.05705 10.0429C3.09297 9.9452 3.17342 9.74979 3.23663 9.60754C3.7581 8.46094 4.61861 7.51693 5.51503 7.13904C6.15287 6.86891 7.11825 6.82581 7.75035 6.82581C7.95147 6.82581 8.11811 6.83011 8.23016 6.83299C8.28188 6.83299 8.32067 6.83587 8.34365 6.83587C8.43559 6.83587 8.47725 6.87897 8.49593 6.91489C8.53041 6.98099 8.50598 7.0672 8.47294 7.14048C8.51173 7.14766 8.54621 7.16059 8.57063 7.18789C8.69705 7.32583 8.57925 7.64912 8.36807 8.16639C8.31636 8.29426 8.26464 8.41927 8.22729 8.52847C8.1569 8.73107 7.99887 8.98108 7.80063 9.29718C7.73598 9.3992 7.66559 9.51271 7.59376 9.63053C8.50742 9.69806 9.17543 9.96388 9.57911 10.4251C9.94112 10.8389 9.97704 11.2829 9.97704 11.4539C10.069 11.4481 10.1609 11.4424 10.2572 11.4424H15.8311C16.1471 11.4309 47.4487 10.3073 51.8417 10.2139C55.9949 10.1248 61.4826 9.67076 62.1104 9.61904C62.1578 8.80865 62.6275 8.72244 63.0858 8.64054C63.1662 8.62618 63.2481 8.61181 63.33 8.59313C63.8644 8.46956 72.8761 7.32295 75.3168 7.31002C75.3297 7.31002 75.3412 7.31002 75.3541 7.31002C77.7274 7.31002 78.733 8.45807 78.7746 8.50692L78.7818 8.51698C78.8077 8.56152 81.4366 13.0316 81.4366 21.7762V22.0277C81.4366 30.7723 78.8091 35.2423 78.7761 35.2969L78.7703 35.2926ZM54.5094 33.5971C58.1454 33.7293 61.576 34.1618 62.1089 34.2308C62.0974 34.0972 62.0989 33.9434 62.1147 33.7653C61.5803 33.7164 58.0664 33.4046 54.5094 33.2149V33.5971ZM54.3457 32.2307C54.3054 32.1747 54.1761 32.0798 53.7667 32.0798C53.3573 32.0798 43.8558 31.7968 34.6502 31.5223C25.4461 31.2493 15.9273 30.9663 15.538 30.9663C15.051 30.9663 14.8442 31.0784 14.7637 31.5841C24.1058 31.9462 47.6929 32.8543 51.3691 32.9434C52.3215 32.9664 53.3429 33.0095 54.3643 33.0626V32.3456L54.3687 32.3227C54.3687 32.3227 54.3801 32.2781 54.3457 32.2307ZM14.9821 32.4247C17.1872 32.5123 47.8121 33.5583 52.4997 33.5583C53.1174 33.5583 53.7437 33.5713 54.3643 33.5928V33.2078C53.3415 33.1546 52.3187 33.1115 51.3648 33.0885C47.6857 32.9994 24.0785 32.0899 14.745 31.7278C14.7264 31.9103 14.7192 32.1373 14.7177 32.4146L14.9806 32.4247H14.9821ZM11.0315 32.2364C11.9782 32.3069 12.8847 32.3428 14.2121 32.3945L14.5741 32.4089C14.5741 32.1445 14.5813 31.9146 14.5999 31.7221C12.5916 31.6445 11.2757 31.5927 11.0071 31.5827C11.0142 31.8011 11.0229 32.018 11.03 32.2364H11.0315ZM8.38531 36.8142C8.40399 36.8186 8.42123 36.8214 8.43272 36.8214C8.44852 36.8214 8.45858 36.8186 8.46289 36.8142C8.53759 36.7338 8.34652 36.2668 8.23304 35.9866C8.17845 35.8544 8.12817 35.7294 8.08938 35.6188C8.0233 35.432 7.87102 35.1877 7.67708 34.8788C7.59232 34.7437 7.49895 34.5958 7.40126 34.432C7.38833 34.432 7.3754 34.432 7.36247 34.432H4.76514C4.77951 34.4506 4.79244 34.4679 4.8068 34.4866C4.83266 34.5196 4.85852 34.5541 4.88581 34.5871C4.91742 34.6259 4.94902 34.6647 4.98063 34.7035C5.00792 34.7366 5.03522 34.7682 5.06395 34.8012C5.09699 34.84 5.13147 34.8788 5.16595 34.9162C5.19468 34.9478 5.22485 34.9794 5.25358 35.0096C5.28949 35.0469 5.32397 35.0857 5.36132 35.1231C5.39436 35.1561 5.43028 35.1892 5.46475 35.2222C5.53084 35.2854 5.59692 35.3472 5.66731 35.4076C5.70179 35.4377 5.73627 35.4679 5.77074 35.4981C5.81097 35.5326 5.85263 35.5656 5.89429 35.5987C5.9302 35.6274 5.96756 35.6576 6.00491 35.6863C6.04657 35.7179 6.08966 35.751 6.1342 35.7812C6.17442 35.8099 6.21465 35.8386 6.25487 35.8659C6.29797 35.8961 6.3425 35.9263 6.38704 35.955C6.43301 35.9852 6.48041 36.0139 6.52782 36.0427C6.57379 36.0714 6.61976 36.1001 6.66717 36.1274C6.74905 36.1748 6.83237 36.2194 6.91713 36.2639C6.95879 36.2855 7.00189 36.3056 7.04499 36.3257C7.10245 36.353 7.15848 36.3818 7.21738 36.4076C7.26191 36.4277 7.30932 36.4478 7.35529 36.4665C7.41562 36.4924 7.47596 36.5168 7.53917 36.5412C7.58514 36.5585 7.62967 36.5757 7.67564 36.593C7.74604 36.6188 7.81786 36.6433 7.88969 36.6662C7.92992 36.6792 7.97014 36.6935 8.01037 36.705C8.12529 36.7395 8.24022 36.774 8.36089 36.8042L8.38675 36.8114L8.38531 36.8142ZM7.3165 34.2911C7.04786 33.8357 6.75049 33.2739 6.47323 32.5626C6.46605 32.5626 6.45743 32.5626 6.45025 32.5641C6.38847 32.5698 6.32526 32.5741 6.26205 32.5784C6.25487 32.5784 6.24912 32.5784 6.24194 32.5784C6.18161 32.5827 6.12127 32.5856 6.06093 32.587C6.04944 32.587 6.03651 32.587 6.02502 32.587C5.96181 32.5885 5.8986 32.5899 5.83395 32.5899C5.82102 32.5899 5.8081 32.5899 5.79517 32.5899C5.72908 32.5899 5.66444 32.5885 5.59836 32.5856C5.59405 32.5856 5.58974 32.5856 5.58543 32.5856C5.52365 32.5827 5.46044 32.5784 5.39867 32.5727C5.38574 32.5727 5.37425 32.5712 5.36132 32.5698C5.29955 32.5641 5.23778 32.5554 5.176 32.5468C5.16164 32.5439 5.14727 32.5425 5.13291 32.5396C5.07113 32.5296 5.00936 32.5181 4.94902 32.5051C4.9404 32.5037 4.93322 32.5008 4.9246 32.4994C4.87001 32.4865 4.81686 32.4721 4.76371 32.4563C4.74647 32.452 4.72923 32.4462 4.71343 32.4419C4.65884 32.4247 4.60425 32.406 4.55109 32.3844C4.53242 32.3773 4.51374 32.3686 4.49507 32.3615C4.45053 32.3428 4.406 32.3227 4.3629 32.3011C4.33992 32.2896 4.31837 32.2781 4.29682 32.2666C4.25659 32.2451 4.21781 32.2235 4.17902 32.1991C4.15747 32.1862 4.13736 32.1732 4.11581 32.1589C4.07128 32.1301 4.02818 32.0985 3.98508 32.0655C3.96353 32.0482 3.94198 32.031 3.92187 32.0137C3.8917 31.9893 3.86297 31.962 3.83424 31.9347C3.80551 31.9074 3.77678 31.8787 3.74805 31.8499C3.72075 31.8212 3.69346 31.791 3.6676 31.7609C3.64749 31.7364 3.62737 31.7134 3.60726 31.6876C3.57278 31.643 3.53974 31.5971 3.5067 31.5496C3.48946 31.5238 3.47222 31.495 3.45499 31.4677C3.432 31.4304 3.40902 31.3901 3.38747 31.3514C3.37741 31.3312 3.36448 31.314 3.35443 31.2939C3.3573 31.3068 3.36017 31.3197 3.36304 31.3327C3.36879 31.3571 3.37454 31.3815 3.38028 31.406C3.3889 31.4433 3.39896 31.4821 3.40902 31.5209C3.41476 31.5453 3.42194 31.5712 3.42769 31.5956C3.43918 31.6387 3.45211 31.6833 3.46361 31.7278C3.46935 31.7494 3.4751 31.7709 3.48084 31.7925C3.49952 31.8571 3.51819 31.9218 3.53974 31.9879C3.54693 32.0123 3.55555 32.0367 3.56273 32.0597C3.57709 32.1043 3.59146 32.1488 3.60726 32.1948C3.61732 32.225 3.62737 32.2551 3.63887 32.2853C3.65323 32.3255 3.6676 32.3658 3.68196 32.4074C3.69346 32.4405 3.70639 32.4721 3.71788 32.5051C3.73368 32.5454 3.74948 32.587 3.76529 32.6273C3.77821 32.6603 3.79114 32.6919 3.80407 32.725C3.82275 32.771 3.84286 32.8169 3.86297 32.8644C3.88021 32.9031 3.89601 32.9419 3.91325 32.9807C3.93911 33.0396 3.96641 33.0986 3.99514 33.1575C4.01238 33.192 4.02962 33.2279 4.04685 33.2624C4.06697 33.3026 4.08564 33.3414 4.10719 33.3816C4.12587 33.419 4.14598 33.4563 4.16609 33.4937C4.1862 33.531 4.20631 33.5684 4.22786 33.6058C4.24941 33.6446 4.27096 33.6819 4.29251 33.7207C4.31406 33.7581 4.33561 33.794 4.35859 33.8314C4.38158 33.8701 4.40456 33.9075 4.42898 33.9463C4.45341 33.9865 4.4807 34.0253 4.50656 34.0641C4.54966 34.1302 4.59419 34.1963 4.64016 34.261C4.64591 34.2696 4.65309 34.2782 4.65884 34.2883H7.31506L7.3165 34.2911ZM5.56819 36.8286C6.18304 37.0887 7.12544 37.1304 7.74604 37.1304C7.94572 37.1304 8.11236 37.126 8.22298 37.1232C8.27757 37.1232 8.31636 37.1203 8.34078 37.1203C8.35802 37.1203 8.3652 37.1174 8.36664 37.1189C8.37382 37.0944 8.34078 37.0125 8.29624 36.9421C8.23591 36.9263 8.17845 36.9091 8.11955 36.8918C8.05203 36.8732 7.98451 36.8545 7.91843 36.8344C7.85522 36.8142 7.79488 36.7927 7.73311 36.7711C7.67133 36.7496 7.60812 36.7295 7.54779 36.7065C7.48602 36.6835 7.42712 36.6576 7.36678 36.6332C7.31075 36.6102 7.25185 36.5872 7.19726 36.5628C7.13693 36.5355 7.07946 36.5068 7.02057 36.4795C6.96885 36.455 6.9157 36.4306 6.86542 36.4047C6.80652 36.3746 6.75049 36.343 6.69446 36.3113C6.64706 36.2855 6.59821 36.2596 6.55081 36.2323C6.49334 36.1993 6.43875 36.1634 6.38273 36.1289C6.33963 36.1016 6.29509 36.0757 6.25343 36.0484C6.19741 36.011 6.14425 35.9723 6.0911 35.9349C6.05231 35.9076 6.01209 35.8803 5.9733 35.8516C5.91871 35.8113 5.86843 35.7697 5.81672 35.7294C5.7808 35.7021 5.74489 35.6748 5.71041 35.6461C5.65726 35.603 5.60841 35.557 5.5567 35.5125C5.52509 35.4852 5.49349 35.4579 5.46332 35.4306C5.41304 35.3831 5.36419 35.3357 5.31535 35.2883C5.28806 35.261 5.25932 35.2351 5.23203 35.2078C5.18319 35.1576 5.13578 35.1058 5.08837 35.0555C5.06395 35.0297 5.03953 35.0038 5.01511 34.978C4.9677 34.9248 4.92173 34.8702 4.87576 34.8156C4.85565 34.7912 4.83266 34.7667 4.81255 34.7423C4.76658 34.6848 4.72205 34.6274 4.67895 34.5699C4.66171 34.5469 4.6416 34.5239 4.62436 34.4995C4.60999 34.4794 4.59563 34.4593 4.58126 34.4391H3.36304C3.86872 35.5527 4.70193 36.468 5.56532 36.8329L5.56819 36.8286ZM2.54851 31.6301C2.55282 31.6502 2.55713 31.6703 2.56144 31.6919C2.60022 31.8715 2.64188 32.0525 2.68498 32.235L2.71371 32.3571C2.86455 32.9807 3.02976 33.5627 3.19066 34.0066C3.22513 34.1029 3.26392 34.1977 3.30271 34.2911H4.48214C4.47208 34.2768 4.46202 34.2638 4.45197 34.2495C4.40887 34.1863 4.37008 34.1245 4.32986 34.0612C4.31693 34.0411 4.304 34.021 4.29107 34.0009C4.25085 33.9362 4.21206 33.8701 4.17471 33.8055C4.16465 33.7868 4.15316 33.7696 4.14311 33.7509C4.10432 33.6834 4.0684 33.6158 4.03249 33.5483C4.02387 33.5325 4.01525 33.5167 4.00663 33.4994C3.97072 33.4305 3.93767 33.3629 3.9032 33.294C3.89601 33.2796 3.88739 33.2638 3.88021 33.248C3.84717 33.1776 3.81557 33.1086 3.78396 33.0396C3.77822 33.0267 3.77103 33.0123 3.76529 32.9994C3.73224 32.9247 3.70064 32.85 3.67047 32.7753C3.6676 32.7681 3.66473 32.7609 3.66185 32.7537C3.63168 32.6804 3.60439 32.6086 3.57709 32.5368C3.57422 32.5281 3.56991 32.5195 3.56704 32.5123C3.53831 32.4333 3.50958 32.3557 3.48372 32.2781C3.48372 32.2781 3.48372 32.2767 3.48372 32.2752C3.4593 32.2034 3.43631 32.1316 3.41333 32.0612C3.41189 32.0554 3.40902 32.0497 3.40758 32.0439C3.29122 31.6718 3.20933 31.3298 3.15187 31.0381C3.15187 31.0324 3.149 31.0266 3.14756 31.0209C3.10159 30.7852 3.07142 30.5826 3.05131 30.426C3.05131 30.4246 3.05131 30.4231 3.05131 30.4203C2.99815 29.7148 2.74388 29.0783 2.55713 28.6127C2.48817 28.4389 2.42783 28.2894 2.39623 28.1788C2.34451 27.992 2.27699 27.9029 2.25688 27.8957C2.25257 27.8986 2.15488 27.9647 2.13046 28.5926C2.10748 29.1602 2.27412 30.3168 2.51834 31.4821C2.52839 31.531 2.53845 31.5812 2.54994 31.6301H2.54851ZM2.48673 12.0301C1.13061 13.7572 1.22542 21.7934 1.22686 21.8782V22.0248C1.22686 22.111 1.12917 30.2766 2.48673 32.0152C2.20804 30.791 1.95664 29.3182 1.98537 28.5883C2.0141 27.8727 2.13477 27.7664 2.23677 27.7549C2.24252 27.7549 2.24826 27.7549 2.25257 27.7549C2.26119 27.7549 2.26837 27.7578 2.27699 27.7607C2.28561 27.7621 2.2928 27.7621 2.30142 27.7664C2.31434 27.7707 2.32584 27.7779 2.33733 27.7865C2.34164 27.7894 2.34739 27.7923 2.3517 27.7952C2.36606 27.8067 2.38043 27.821 2.39336 27.8368C2.39336 27.8368 2.39336 27.8368 2.39479 27.8397C2.46662 27.9288 2.51403 28.0682 2.53558 28.1443C2.56431 28.2478 2.62321 28.3943 2.69073 28.5639C2.86886 29.0093 3.13894 29.6832 3.19353 30.4073C3.26248 30.722 3.35874 30.9907 3.47653 31.2192C3.47653 31.2206 3.47797 31.222 3.47941 31.2249C3.50239 31.268 3.52538 31.3097 3.5498 31.3499C3.55267 31.3542 3.55411 31.3571 3.55698 31.3614C3.57997 31.4002 3.60295 31.4361 3.62737 31.472C3.63025 31.4764 3.63312 31.4807 3.63743 31.4864C3.66042 31.5209 3.68484 31.5539 3.7107 31.5856C3.71501 31.5913 3.71932 31.5956 3.72219 31.6014C3.74661 31.6315 3.77103 31.6617 3.79689 31.6904C3.8012 31.6962 3.80695 31.7005 3.81126 31.7063C3.83711 31.735 3.86297 31.7609 3.88883 31.7882C3.89314 31.7925 3.89889 31.7982 3.9032 31.8025C3.92906 31.8284 3.95635 31.8528 3.98365 31.8772C3.98939 31.8815 3.9937 31.8859 3.99945 31.8902C4.02674 31.9132 4.05547 31.9361 4.08421 31.9577C4.08995 31.962 4.09426 31.9663 4.10001 31.9692C4.12874 31.9907 4.15891 32.0123 4.18764 32.031C4.19195 32.0339 4.1977 32.0382 4.202 32.041C4.23217 32.0612 4.26378 32.0798 4.29538 32.0985C4.29969 32.1014 4.304 32.1043 4.30831 32.1057C4.34135 32.1244 4.37439 32.1416 4.40744 32.1589C4.41031 32.1603 4.41318 32.1617 4.41749 32.1632C4.45341 32.1804 4.48788 32.1977 4.5238 32.2135C4.52523 32.2135 4.52667 32.2135 4.52811 32.2149C4.87001 32.3643 5.24783 32.4276 5.62852 32.4448C5.6314 32.4448 5.63427 32.4448 5.63714 32.4448C5.67593 32.4462 5.71472 32.4477 5.75351 32.4477C5.75925 32.4477 5.76644 32.4477 5.77218 32.4477C5.80666 32.4477 5.84257 32.4477 5.87705 32.4477C5.88711 32.4477 5.89573 32.4477 5.90578 32.4477C5.93739 32.4477 5.96899 32.4477 6.0006 32.4462C6.01353 32.4462 6.02646 32.4462 6.03938 32.4462C6.06668 32.4462 6.09397 32.4448 6.12127 32.4434C6.13851 32.4434 6.15431 32.4419 6.17155 32.4405C6.19453 32.4405 6.21752 32.4376 6.2405 32.4362C6.26062 32.4362 6.28217 32.4333 6.30228 32.4319C6.31233 32.4319 6.32239 32.4304 6.33388 32.429L6.23189 32.3485C5.35126 31.4677 5.55526 22.407 5.56388 22.0233V21.7374C5.55526 21.3638 5.35126 12.5789 6.23763 11.6924L6.27498 11.6622C5.01654 11.576 3.6087 11.7915 3.19353 13.6911C3.1375 14.4152 2.86886 15.0891 2.69073 15.5345C2.62321 15.7041 2.56431 15.8506 2.53558 15.9541C2.5011 16.0762 2.40341 16.3607 2.23821 16.3406C2.13621 16.3291 2.01554 16.2228 1.98681 15.5072C1.98537 15.467 1.98537 15.4225 1.98537 15.3765C1.97531 14.6221 2.21809 13.2112 2.48817 12.0286L2.48673 12.0301ZM7.34523 9.75697C7.32512 9.75697 7.30788 9.7541 7.28777 9.7541C6.22758 9.7268 5.37281 9.71962 4.71917 9.72249C4.6732 9.78428 4.62867 9.8475 4.58557 9.91072C4.57982 9.9179 4.57408 9.92652 4.56833 9.93371C4.51805 10.0084 4.46921 10.0831 4.4218 10.1579C4.40744 10.1823 4.39307 10.2067 4.37727 10.2297C4.34566 10.2814 4.31406 10.3332 4.28389 10.3849C4.26809 10.4136 4.25229 10.4409 4.23648 10.4697C4.20919 10.5185 4.18189 10.5674 4.15603 10.6162C4.14167 10.6435 4.12587 10.6722 4.1115 10.6995C4.08421 10.7527 4.05835 10.8059 4.03105 10.859C4.01956 10.882 4.00807 10.905 3.99801 10.9266C3.9621 11.0013 3.92762 11.076 3.89458 11.1507C3.88883 11.1622 3.88452 11.1737 3.88021 11.1852C3.85292 11.2484 3.82562 11.3116 3.8012 11.3734C3.79114 11.3993 3.78109 11.4252 3.77103 11.451C3.75236 11.4999 3.73368 11.5473 3.71501 11.5961C3.70495 11.6234 3.69489 11.6507 3.68484 11.6795C3.6676 11.7255 3.6518 11.7729 3.63599 11.8174C3.62737 11.8433 3.61732 11.8691 3.6087 11.895C3.59146 11.9467 3.57566 11.997 3.55842 12.0473C3.55267 12.066 3.54549 12.0861 3.53974 12.1048C3.51819 12.1723 3.49808 12.2398 3.47941 12.3045C3.47366 12.3232 3.46935 12.3404 3.46504 12.3591C3.45211 12.4065 3.43918 12.4539 3.42625 12.5014C3.42051 12.5258 3.41332 12.5502 3.40758 12.5746C3.39752 12.6134 3.38747 12.6537 3.37885 12.691C3.37741 12.6982 3.37597 12.7068 3.3731 12.714C3.91756 11.6982 4.8815 11.4539 5.83252 11.4539C6.05519 11.4539 6.27642 11.4683 6.49191 11.4884C6.77204 10.7743 7.07516 10.2125 7.34379 9.75841L7.34523 9.75697ZM3.19066 10.0903C2.68354 11.4912 2.13046 14.2658 2.12759 15.3837C2.12759 15.4067 2.12759 15.4325 2.12759 15.4541C2.15345 16.0849 2.25114 16.1495 2.2497 16.1509C2.27556 16.1438 2.34308 16.0547 2.39479 15.8679C2.42496 15.7572 2.4853 15.6064 2.55569 15.434C2.74244 14.9684 2.99672 14.3305 3.05131 13.6163C3.05562 13.5934 3.06136 13.5718 3.06711 13.5503C3.07286 13.5043 3.08004 13.4554 3.08866 13.4037C3.0901 13.3922 3.09297 13.3778 3.09441 13.3663C3.10877 13.2758 3.12601 13.1795 3.14612 13.0761C3.14756 13.0675 3.15043 13.0588 3.15187 13.0502C3.16192 12.9985 3.17198 12.9468 3.18347 12.8936C3.18778 12.8735 3.19353 12.8519 3.19784 12.8304C3.20789 12.7873 3.21651 12.7442 3.22801 12.6982C3.23375 12.6723 3.24094 12.645 3.24812 12.6177C3.25817 12.5761 3.26823 12.5358 3.27972 12.4927C3.28834 12.4611 3.29696 12.4281 3.30702 12.395C3.31707 12.3562 3.32713 12.3174 3.33862 12.2772C3.35155 12.2341 3.36448 12.1881 3.37885 12.1436C3.38747 12.1134 3.39609 12.0847 3.40614 12.0545C3.42338 12.0013 3.44062 11.9467 3.4593 11.8936C3.46648 11.8706 3.47366 11.8476 3.48228 11.8246C3.50527 11.7585 3.52969 11.6895 3.55411 11.622C3.55842 11.6105 3.56129 11.6004 3.5656 11.589C3.5929 11.5142 3.62306 11.4395 3.65323 11.3634C3.65611 11.3576 3.65754 11.3533 3.65898 11.3476C3.87303 10.8174 4.16034 10.2599 4.54104 9.72536C3.95348 9.72968 3.55124 9.73973 3.33 9.74835C3.28116 9.86186 3.23375 9.97681 3.19066 10.0932V10.0903ZM8.22298 6.9738C7.76758 6.96231 6.37985 6.92495 5.56819 7.26836C4.72061 7.62613 3.9032 8.5141 3.39465 9.59892C3.64318 9.5903 4.05978 9.58168 4.64447 9.57881C5.18319 8.85895 5.8986 8.19225 6.84961 7.70228C6.85249 7.70228 6.85392 7.69941 6.8568 7.69797C6.95161 7.64912 7.0493 7.60314 7.14842 7.5586C7.16279 7.55285 7.17572 7.54567 7.19008 7.53848C7.27771 7.49969 7.36822 7.46377 7.46016 7.42785C7.48745 7.41635 7.51475 7.40486 7.54348 7.39336C7.62105 7.36319 7.70294 7.33732 7.78339 7.31002C7.82792 7.29565 7.87102 7.27841 7.91555 7.26405C7.98163 7.24393 8.05059 7.22525 8.11811 7.20657C8.17701 7.18933 8.23447 7.17065 8.29624 7.15628C8.34221 7.08444 8.37526 7.0011 8.36807 6.98098C8.36807 6.98098 8.32354 6.97668 8.22298 6.9738ZM7.67564 9.21672C7.86958 8.9078 8.02329 8.66353 8.08794 8.47674C8.12673 8.36611 8.17844 8.2411 8.2316 8.10891C8.34509 7.83016 8.53615 7.36319 8.46145 7.28129C8.45283 7.27267 8.42123 7.26836 8.35802 7.28703C8.23734 7.31721 8.11955 7.35169 8.00462 7.38618C7.96727 7.39767 7.93135 7.4106 7.89544 7.4221C7.81786 7.44796 7.74029 7.47382 7.66559 7.50112C7.62536 7.51549 7.58514 7.5313 7.54635 7.5471C7.47596 7.5744 7.407 7.60314 7.33805 7.63188C7.3007 7.64768 7.26191 7.66349 7.226 7.68073C7.15273 7.71378 7.0809 7.74826 7.01051 7.78275C6.98178 7.79712 6.95305 7.81005 6.92575 7.82442C6.8295 7.8747 6.73469 7.92643 6.64131 7.9796C6.62407 7.98965 6.60683 8.00115 6.58959 8.01121C6.51489 8.05575 6.44306 8.10029 6.37123 8.14627C6.34106 8.16639 6.3109 8.1865 6.28073 8.20662C6.22327 8.24541 6.16724 8.28421 6.11265 8.32444C6.08105 8.34743 6.05088 8.36898 6.02071 8.39197C5.96756 8.4322 5.9144 8.47387 5.86269 8.51554C5.83539 8.53709 5.8081 8.56008 5.7808 8.58163C5.7219 8.63192 5.66444 8.68221 5.60698 8.7325C5.58974 8.74687 5.5725 8.76268 5.5567 8.77704C5.48487 8.84314 5.41591 8.91067 5.34839 8.97964C5.32972 8.99832 5.31248 9.01843 5.2938 9.03711C5.24496 9.0874 5.19755 9.13769 5.15014 9.18942C5.12716 9.21528 5.10417 9.24115 5.08119 9.26701C5.04096 9.31299 5.00074 9.35897 4.96195 9.40639C4.93897 9.43369 4.91742 9.46098 4.89587 9.48828C4.87289 9.51702 4.8499 9.5472 4.82835 9.57593C4.87576 9.57593 4.92317 9.57593 4.97345 9.57593C5.59117 9.57593 6.36405 9.58455 7.29208 9.60754C7.33948 9.60754 7.38258 9.61329 7.42855 9.61473C7.51618 9.47104 7.5995 9.33598 7.67708 9.21385L7.67564 9.21672ZM9.46562 10.5142C9.07774 10.0716 8.41692 9.82163 7.50613 9.7656C7.23462 10.2168 6.92719 10.7829 6.64275 11.4999L6.6097 11.5803C6.60252 11.599 6.33388 11.7987 6.33388 11.7987C5.66444 12.4683 5.6314 18.5893 5.70897 21.7345V22.0248C5.63283 25.2677 5.66444 31.5755 6.32814 32.2408L6.54219 32.4103L6.58097 32.4419L6.62263 32.5468C6.9042 33.2652 7.20876 33.8313 7.48027 34.2854C8.43272 34.2667 9.11366 34.0224 9.49866 33.5555C9.95549 33.0009 9.82907 32.3169 9.8262 32.2997C9.8262 32.291 9.8262 32.2824 9.8262 32.2738C9.80896 32.2724 9.79172 32.2709 9.77304 32.2681C8.02186 32.0899 7.15704 30.995 6.96741 28.7205C6.78066 26.479 6.86973 17.0576 6.96741 14.7213C7.04642 12.8175 8.10662 11.6263 9.82907 11.4611C9.82907 11.3174 9.80177 10.8964 9.46562 10.5142ZM9.82045 32.1287C9.46418 22.5349 9.78741 12.658 9.82332 11.6048C8.16983 11.7671 7.18721 12.8836 7.11107 14.727C7.01338 17.0605 6.92431 26.4718 7.11107 28.709C7.29639 30.9318 8.09656 31.9534 9.78741 32.1258C9.7989 32.1258 9.80896 32.1272 9.82045 32.1287ZM10.2529 11.5832C10.1552 11.5832 10.0618 11.5875 9.96698 11.5947C9.93538 12.5186 9.60353 22.486 9.96267 32.1445C10.2859 32.1761 10.589 32.2034 10.8864 32.2264C10.5201 22.5104 10.8562 12.4726 10.8864 11.5832H10.2514H10.2529ZM14.5741 11.5832H11.0315C11.0286 11.6824 11.02 11.9051 11.0099 12.2355C11.2829 12.2255 12.593 12.1738 14.5884 12.0962C14.5784 11.9439 14.5741 11.7729 14.5726 11.5818L14.5741 11.5832ZM54.3629 10.2671C53.5024 10.3058 52.6448 10.3375 51.8388 10.3547C47.4487 10.4481 16.1471 11.5717 15.8282 11.5832H14.7163C14.7163 11.7772 14.722 11.9467 14.7321 12.0919C24.0569 11.7298 47.6843 10.8202 51.3648 10.7312C52.3187 10.7082 53.3415 10.6651 54.3629 10.6119V10.2671ZM54.3672 11.6263L54.3643 10.7556C53.3429 10.8087 52.3215 10.8519 51.3691 10.8748C47.69 10.9639 24.0742 11.8734 14.745 12.2355C14.8111 12.8534 15.0094 12.9841 15.5366 12.9841C15.9259 12.9841 25.4446 12.7011 34.6488 12.4281C43.8544 12.1536 53.3731 11.8706 53.7653 11.8706C54.1575 11.8706 54.2997 11.7772 54.3414 11.7226C54.3787 11.6737 54.3658 11.6277 54.3658 11.6277L54.3672 11.6263ZM62.1017 9.75985C61.5443 9.80726 58.0046 10.0975 54.508 10.2599V10.6033C58.0693 10.4136 61.5874 10.1004 62.1161 10.053C62.106 9.94664 62.1017 9.84893 62.1017 9.75985ZM62.1262 33.6216C62.2713 32.0051 62.5945 22.1225 62.5974 22.0233V21.7748C62.5945 21.6742 62.2741 11.8749 62.1276 10.1967C61.5961 10.2441 58.0721 10.5587 54.5066 10.7484V11.5947C54.5137 11.6278 54.5238 11.714 54.4606 11.803C54.36 11.9424 54.1259 12.0143 53.7653 12.0143C53.376 12.0143 43.8572 12.2973 34.6531 12.5703C25.4475 12.8448 15.9288 13.1278 15.5366 13.1278C14.8786 13.1278 14.666 12.8735 14.5999 12.2413C12.5772 12.3203 11.257 12.3706 11.0056 12.3807C10.9266 15.0029 10.7255 23.2447 11.0028 31.4404C11.2455 31.4505 12.5758 31.5022 14.6186 31.5812C14.7005 31.0453 14.9275 30.8255 15.538 30.8255C15.6917 30.8255 17.2519 30.8686 19.6466 30.939V30.0912H18.8536C17.68 30.0912 16.7261 29.1372 16.7261 27.9633V15.7673C16.7261 14.5934 17.68 13.6393 18.8536 13.6393H23.4866C24.6603 13.6393 25.6142 14.5934 25.6142 15.7673V27.9633C25.6142 29.1372 24.6603 30.0912 23.4866 30.0912H19.8492V30.9447C23.5599 31.0525 29.1639 31.2192 34.656 31.383C35.0237 31.3945 35.3901 31.4002 35.7578 31.4103L35.7607 30.5625H35.5366C34.337 30.5625 33.3616 29.5869 33.3616 28.3871V15.4368C33.3616 14.2371 34.337 13.2614 35.5366 13.2614H53.3041C54.5037 13.2614 55.4791 14.2371 55.4791 15.4368V28.3871C55.4791 29.5869 54.5037 30.5625 53.3041 30.5625H35.9316V31.4146H35.9632C44.8097 31.679 53.3932 31.939 53.7682 31.939C54.1431 31.939 54.3629 32.0094 54.4635 32.1502C54.5281 32.2393 54.5181 32.3255 54.5094 32.3586V33.0741M23.4852 29.801C24.4994 29.801 25.3254 28.9748 25.3254 27.9604V15.7644C25.3254 14.75 24.4994 13.9238 23.4852 13.9238H18.8522C17.838 13.9238 17.0119 14.75 17.0119 15.7644V27.9604C17.0119 28.9748 17.838 29.801 18.8522 29.801H23.4852ZM53.3041 30.2737C54.3457 30.2737 55.1918 29.426 55.1918 28.3857V15.4354C55.1918 14.3937 54.3442 13.5474 53.3041 13.5474H35.5366C34.4951 13.5474 33.6489 14.3951 33.6489 15.4354V28.3857C33.6489 29.4274 34.4965 30.2737 35.5366 30.2737H53.3041ZM81.2872 21.7719C81.2872 13.2011 78.7617 8.7713 78.6568 8.59169C78.5879 8.51554 77.5794 7.4494 75.347 7.4494C75.3355 7.4494 75.3225 7.4494 75.3111 7.4494C72.8746 7.46233 63.8874 8.60606 63.3559 8.72819C63.2725 8.74687 63.1878 8.76268 63.1045 8.77704C62.5672 8.87331 62.1434 8.94803 62.2612 10.0874C62.4034 11.4625 62.7367 21.6656 62.741 21.7719V22.0262C62.7381 22.1297 62.4034 32.3327 62.2612 33.7078C62.1434 34.8472 62.5672 34.9219 63.1045 35.0182C63.1878 35.0326 63.2725 35.0484 63.3559 35.067C63.8888 35.1906 72.8761 36.3343 75.3111 36.3458C75.3225 36.3458 75.3355 36.3458 75.347 36.3458C77.6498 36.3458 78.6497 35.2107 78.6525 35.2078C78.6784 35.1647 81.2858 30.7234 81.2858 22.0233V21.7719H81.2872Z" fill="url(#paint7_linear_6561_4963)"/>
<path d="M8.38516 36.8143C8.40384 36.8186 8.42108 36.8214 8.43257 36.8214C8.44837 36.8214 8.45843 36.8186 8.46274 36.8143C8.53744 36.7338 8.34638 36.2668 8.23289 35.9866C8.1783 35.8545 8.12802 35.7294 8.08923 35.6188C8.02315 35.432 7.87087 35.1878 7.67693 34.8788C7.59217 34.7438 7.4988 34.5958 7.40111 34.432C7.38818 34.432 7.37525 34.432 7.36232 34.432H4.76499C4.77936 34.4507 4.79229 34.4679 4.80665 34.4866C4.83251 34.5196 4.85837 34.5541 4.88567 34.5872C4.91727 34.6259 4.94887 34.6647 4.98048 34.7035C5.00777 34.7366 5.03507 34.7682 5.0638 34.8012C5.09684 34.84 5.13132 34.8788 5.1658 34.9162C5.19453 34.9478 5.2247 34.9794 5.25343 35.0096C5.28934 35.0469 5.32382 35.0857 5.36117 35.1231C5.39421 35.1561 5.43013 35.1892 5.46461 35.2222C5.53069 35.2855 5.59677 35.3472 5.66716 35.4076C5.70164 35.4378 5.73612 35.4679 5.7706 35.4981C5.81082 35.5326 5.85248 35.5656 5.89414 35.5987C5.93006 35.6274 5.96741 35.6576 6.00476 35.6863C6.04642 35.718 6.08952 35.751 6.13405 35.7812C6.17427 35.8099 6.2145 35.8386 6.25472 35.8659C6.29782 35.8961 6.34235 35.9263 6.38689 35.955C6.43286 35.9852 6.48026 36.0139 6.52767 36.0427C6.57364 36.0714 6.61961 36.1002 6.66702 36.1275C6.7489 36.1749 6.83223 36.2194 6.91698 36.264C6.95864 36.2855 7.00174 36.3056 7.04484 36.3257C7.1023 36.353 7.15833 36.3818 7.21723 36.4076C7.26176 36.4278 7.30917 36.4479 7.35514 36.4665C7.41548 36.4924 7.47581 36.5168 7.53902 36.5413C7.58499 36.5585 7.62952 36.5757 7.6755 36.593C7.74589 36.6189 7.81772 36.6433 7.88954 36.6663C7.92977 36.6792 7.96999 36.6936 8.01022 36.7051C8.12514 36.7395 8.24007 36.774 8.36074 36.8042L8.3866 36.8114L8.38516 36.8143ZM5.56804 36.8286C6.18289 37.0887 7.12529 37.1304 7.74589 37.1304C7.94557 37.1304 8.11221 37.1261 8.22283 37.1232C8.27742 37.1232 8.31621 37.1203 8.34063 37.1203C8.35787 37.1203 8.36505 37.1174 8.36649 37.1189C8.37367 37.0945 8.34063 37.0125 8.2961 36.9421C8.23576 36.9263 8.1783 36.9091 8.1194 36.8919C8.05188 36.8732 7.98436 36.8545 7.91828 36.8344C7.85507 36.8143 7.79473 36.7927 7.73296 36.7712C7.67119 36.7496 7.60798 36.7295 7.54764 36.7065C7.48587 36.6835 7.42697 36.6576 7.36663 36.6332C7.31061 36.6102 7.25171 36.5872 7.19712 36.5628C7.13678 36.5355 7.07932 36.5068 7.02042 36.4795C6.9687 36.4551 6.91555 36.4306 6.86527 36.4048C6.80637 36.3746 6.75034 36.343 6.69431 36.3114C6.64691 36.2855 6.59806 36.2596 6.55066 36.2323C6.49319 36.1993 6.4386 36.1634 6.38258 36.1289C6.33948 36.1016 6.29495 36.0757 6.25329 36.0484C6.19726 36.0111 6.14411 35.9723 6.09095 35.9349C6.05217 35.9076 6.01194 35.8803 5.97315 35.8516C5.91856 35.8113 5.86828 35.7697 5.81657 35.7294C5.78065 35.7021 5.74474 35.6748 5.71026 35.6461C5.65711 35.603 5.60826 35.557 5.55655 35.5125C5.52494 35.4852 5.49334 35.4579 5.46317 35.4306C5.41289 35.3832 5.36405 35.3357 5.3152 35.2883C5.28791 35.261 5.25918 35.2352 5.23188 35.2079C5.18304 35.1576 5.13563 35.1059 5.08822 35.0556C5.0638 35.0297 5.03938 35.0038 5.01496 34.978C4.96755 34.9248 4.92158 34.8702 4.87561 34.8156C4.8555 34.7912 4.83251 34.7668 4.8124 34.7423C4.76643 34.6849 4.7219 34.6274 4.6788 34.5699C4.66156 34.5469 4.64145 34.5239 4.62421 34.4995C4.60984 34.4794 4.59548 34.4593 4.58111 34.4392H3.3629C3.86857 35.5527 4.70178 36.468 5.56517 36.8329L5.56804 36.8286ZM2.54836 31.6301C2.55267 31.6502 2.55698 31.6704 2.56129 31.6919C2.60007 31.8715 2.64174 32.0526 2.68483 32.235L2.71356 32.3572C2.8644 32.9808 3.02961 33.5627 3.19051 34.0067C3.22498 34.1029 3.26377 34.1978 3.30256 34.2912H4.48199C4.47193 34.2768 4.46188 34.2639 4.45182 34.2495C4.40872 34.1863 4.36994 34.1245 4.32971 34.0613C4.31678 34.0412 4.30385 34.021 4.29092 34.0009C4.2507 33.9363 4.21191 33.8702 4.17456 33.8055C4.16451 33.7868 4.15301 33.7696 4.14296 33.7509C4.10417 33.6834 4.06825 33.6158 4.03234 33.5483C4.02372 33.5325 4.0151 33.5167 4.00648 33.4995C3.97057 33.4305 3.93753 33.363 3.90305 33.294C3.89587 33.2796 3.88725 33.2638 3.88006 33.248C3.84702 33.1776 3.81542 33.1086 3.78381 33.0397C3.77807 33.0267 3.77088 33.0124 3.76514 32.9994C3.7321 32.9247 3.70049 32.85 3.67032 32.7753C3.66745 32.7681 3.66458 32.7609 3.6617 32.7537C3.63154 32.6805 3.60424 32.6086 3.57695 32.5368C3.57407 32.5282 3.56976 32.5195 3.56689 32.5123C3.53816 32.4333 3.50943 32.3557 3.48357 32.2781C3.48357 32.2781 3.48357 32.2767 3.48357 32.2753C3.45915 32.2034 3.43616 32.1316 3.41318 32.0612C3.41174 32.0554 3.40887 32.0497 3.40743 32.0439C3.29107 31.6718 3.20918 31.3298 3.15172 31.0381C3.15172 31.0324 3.14885 31.0266 3.14741 31.0209C3.10144 30.7853 3.07127 30.5827 3.05116 30.426C3.05116 30.4246 3.05116 30.4232 3.05116 30.4203C2.99801 29.7148 2.74373 29.0783 2.55698 28.6127C2.48802 28.4389 2.42769 28.2895 2.39608 28.1788C2.34436 27.992 2.27685 27.9029 2.25673 27.8958C2.25242 27.8986 2.15474 27.9647 2.13031 28.5926C2.10733 29.1602 2.27397 30.3168 2.51819 31.4821C2.52825 31.531 2.5383 31.5813 2.54979 31.6301H2.54836ZM3.19051 10.0903C2.6834 11.4913 2.13031 14.2658 2.12744 15.3837C2.12744 15.4067 2.12744 15.4325 2.12744 15.4541C2.1533 16.0849 2.25099 16.1495 2.24955 16.151C2.27541 16.1438 2.34293 16.0547 2.39464 15.8679C2.42481 15.7573 2.48515 15.6064 2.55554 15.434C2.7423 14.9684 2.99657 14.3305 3.05116 13.6164C3.05547 13.5934 3.06122 13.5718 3.06696 13.5503C3.07271 13.5043 3.07989 13.4554 3.08851 13.4037C3.08995 13.3922 3.09282 13.3779 3.09426 13.3664C3.10862 13.2758 3.12586 13.1796 3.14597 13.0761C3.14741 13.0675 3.15028 13.0589 3.15172 13.0503C3.16178 12.9985 3.17183 12.9468 3.18332 12.8936C3.18763 12.8735 3.19338 12.852 3.19769 12.8304C3.20775 12.7873 3.21637 12.7442 3.22786 12.6982C3.2336 12.6724 3.24079 12.6451 3.24797 12.6178C3.25803 12.5761 3.26808 12.5359 3.27957 12.4928C3.28819 12.4611 3.29681 12.4281 3.30687 12.395C3.31693 12.3563 3.32698 12.3175 3.33847 12.2772C3.3514 12.2341 3.36433 12.1881 3.3787 12.1436C3.38732 12.1134 3.39594 12.0847 3.40599 12.0545C3.42323 12.0014 3.44047 11.9468 3.45915 11.8936C3.46633 11.8706 3.47351 11.8476 3.48213 11.8246C3.50512 11.7585 3.52954 11.6896 3.55396 11.622C3.55827 11.6105 3.56114 11.6005 3.56545 11.589C3.59275 11.5143 3.62292 11.4395 3.65308 11.3634C3.65596 11.3576 3.65739 11.3533 3.65883 11.3476C3.87288 10.8174 4.1602 10.2599 4.54089 9.72539C3.95333 9.7297 3.55109 9.73976 3.32985 9.74838C3.28101 9.86189 3.2336 9.97684 3.19051 10.0932V10.0903ZM8.22283 6.97383C7.76744 6.96233 6.3797 6.92497 5.56804 7.26838C4.72046 7.62615 3.90305 8.51413 3.3945 9.59895C3.64303 9.59032 4.05964 9.5817 4.64432 9.57883C5.18304 8.85897 5.89845 8.19227 6.84946 7.70231C6.85234 7.70231 6.85377 7.69943 6.85665 7.698C6.95146 7.64915 7.04915 7.60316 7.14827 7.55862C7.16264 7.55288 7.17557 7.54569 7.18993 7.53851C7.27756 7.49971 7.36807 7.46379 7.46001 7.42787C7.4873 7.41637 7.5146 7.40488 7.54333 7.39338C7.6209 7.36321 7.70279 7.33735 7.78324 7.31005C7.82777 7.29568 7.87087 7.27844 7.9154 7.26407C7.98149 7.24395 8.05044 7.22527 8.11796 7.20659C8.17686 7.18935 8.23432 7.17067 8.2961 7.1563C8.34207 7.08446 8.37511 7.00112 8.36792 6.98101C8.36792 6.98101 8.32339 6.9767 8.22283 6.97383ZM7.6755 9.21674C7.86943 8.90782 8.02315 8.66356 8.08779 8.47677C8.12658 8.36613 8.1783 8.24113 8.23145 8.10894C8.34494 7.83019 8.536 7.36321 8.4613 7.28131C8.45268 7.27269 8.42108 7.26838 8.35787 7.28706C8.2372 7.31723 8.1194 7.35172 8.00447 7.3862C7.96712 7.3977 7.93121 7.41063 7.89529 7.42212C7.81772 7.44798 7.74014 7.47385 7.66544 7.50115C7.62522 7.51552 7.58499 7.53132 7.5462 7.54713C7.47581 7.57443 7.40686 7.60316 7.3379 7.6319C7.30055 7.64771 7.26176 7.66351 7.22585 7.68075C7.15258 7.7138 7.08075 7.74829 7.01036 7.78277C6.98163 7.79714 6.9529 7.81007 6.9256 7.82444C6.82935 7.87473 6.73454 7.92645 6.64116 7.97962C6.62392 7.98968 6.60668 8.00117 6.58944 8.01123C6.51474 8.05577 6.44291 8.10031 6.37108 8.14629C6.34092 8.16641 6.31075 8.18653 6.28058 8.20664C6.22312 8.24544 6.16709 8.28423 6.1125 8.32446C6.0809 8.34745 6.05073 8.369 6.02056 8.39199C5.96741 8.43222 5.91425 8.47389 5.86254 8.51556C5.83524 8.53712 5.80795 8.5601 5.78065 8.58166C5.72175 8.63195 5.66429 8.68224 5.60683 8.73253C5.58959 8.74689 5.57235 8.7627 5.55655 8.77707C5.48472 8.84316 5.41576 8.9107 5.34824 8.97967C5.32957 8.99834 5.31233 9.01846 5.29365 9.03714C5.24481 9.08743 5.1974 9.13772 5.15 9.18944C5.12701 9.21531 5.10403 9.24117 5.08104 9.26703C5.04082 9.31301 5.00059 9.35899 4.9618 9.40641C4.93882 9.43371 4.91727 9.46101 4.89572 9.48831C4.87274 9.51704 4.84975 9.54722 4.8282 9.57596C4.87561 9.57596 4.92302 9.57596 4.9733 9.57596C5.59102 9.57596 6.3639 9.58458 7.29193 9.60757C7.33934 9.60757 7.38243 9.61331 7.4284 9.61475C7.51604 9.47107 7.59936 9.336 7.67693 9.21387L7.6755 9.21674Z" fill="url(#paint8_linear_6561_4963)"/>
<path d="M69.194 40.1421C69.1811 40.2384 69.1495 40.3562 69.1006 40.4884C69.0805 40.5473 69.059 40.6062 69.0331 40.6608C68.6352 41.612 67.598 43.1408 66.7116 43.6839C66.1298 44.0403 65.7161 44.036 65.4589 43.9569H65.456C65.4158 43.944 65.3785 43.9311 65.3454 43.9153C65.2032 43.8492 65.1328 43.7701 65.1328 43.7701L66.9199 39.4309L67.3882 39.4481L67.4227 39.0329L69.3147 39.0027C69.3147 39.0027 69.2974 39.3791 69.1926 40.1421H69.194Z" fill="#282828"/>
<path d="M69.3147 5.01392L67.4227 4.98374L67.3882 4.56849L66.9199 4.58573L65.1328 0.246454C65.1328 0.246454 65.2032 0.16743 65.3454 0.101335C65.3785 0.086967 65.4158 0.072597 65.456 0.0596657H65.4589C65.7175 -0.019361 66.1298 -0.0236726 66.7116 0.332665C67.5965 0.875794 68.6352 2.4046 69.0331 3.35579C69.059 3.41039 69.0805 3.4693 69.1006 3.52821C69.1495 3.66184 69.1811 3.77966 69.194 3.87449C69.2974 4.6389 69.3161 5.01392 69.3161 5.01392H69.3147Z" fill="#282828"/>
<path opacity="0.2" d="M98.9916 22.052C98.993 22.325 98.9829 24.4228 98.2776 26.716C98.2603 26.7778 98.2431 26.8395 98.2244 26.9013C98.0477 27.5264 97.8811 28.1169 97.7446 28.9689C97.3596 31.3742 94.8973 35.7164 93.942 36.6661C92.9163 37.6863 90.0072 37.9377 89.6294 37.9377C89.2961 37.9377 89.2128 37.7639 89.1912 37.6877C89.1323 37.478 89.2932 37.2164 89.5921 37.0368C90.0316 36.7725 90.9755 36.0641 92.0543 35.1876C93.0355 34.3902 94.689 32.2766 95.4547 30.8383C95.7693 30.2477 96.2017 29.7017 96.6183 29.1744C97.2217 28.4114 97.8452 27.6226 98.1382 26.6743C98.1382 26.6743 98.1382 26.6743 98.1382 26.6729C98.4284 25.6398 98.7172 24.5004 98.845 22.0462V21.9327C98.7186 19.4786 98.4284 18.3392 98.1382 17.3061C97.8466 16.3563 97.2217 15.5675 96.6183 14.8045C96.2017 14.2772 95.7693 13.7326 95.4547 13.1406C94.6876 11.7024 93.0355 9.58875 92.0543 8.7913C90.9755 7.91483 90.0316 7.20646 89.5921 6.94208C89.2947 6.76391 89.1338 6.50241 89.1912 6.29263C89.2114 6.21791 89.2961 6.04261 89.6294 6.04261C90.0072 6.04261 92.9163 6.2955 93.942 7.31422C94.8973 8.26398 97.3611 12.6061 97.7446 15.0114C97.8811 15.8635 98.0477 16.454 98.2244 17.079C98.2417 17.1408 98.2589 17.2026 98.2776 17.2644C98.9829 19.5576 98.993 21.6554 98.9916 21.9284V22.0477V22.052ZM96.7318 29.2664C96.3181 29.7879 95.8914 30.3282 95.5826 30.9087C94.8082 32.3599 93.1375 34.4951 92.1448 35.3026C91.0602 36.1834 90.1106 36.896 89.6653 37.1633C89.3995 37.3228 89.2947 37.5297 89.3292 37.6518C89.355 37.7452 89.4613 37.7955 89.628 37.7955C90.2328 37.7955 92.9249 37.4751 93.8386 36.5656C94.7838 35.6259 97.2203 31.3297 97.601 28.9474C97.68 28.4517 97.7719 28.035 97.8682 27.6557C97.5478 28.2333 97.1341 28.7563 96.729 29.2664H96.7318ZM97.6024 15.0373C97.2217 12.655 94.7853 8.35881 93.84 7.41912C92.9249 6.50959 90.2342 6.18917 89.6294 6.18917C89.4628 6.18917 89.3565 6.2409 89.3306 6.33286C89.2961 6.45499 89.401 6.6619 89.6667 6.82139C90.1121 7.08864 91.0617 7.80132 92.1463 8.6821C93.139 9.48817 94.8097 11.6233 95.584 13.076C95.8929 13.655 96.321 14.1953 96.7333 14.7183C97.1384 15.2298 97.5521 15.7528 97.8725 16.329C97.7762 15.9497 97.6843 15.533 97.6053 15.0373H97.6024Z" fill="#231F20"/>
<path d="M97.8724 27.657C97.5521 28.2347 97.1384 28.7577 96.7332 29.2678C96.3195 29.7893 95.8928 30.3296 95.584 30.9101C94.8097 32.3613 93.1389 34.4964 92.1463 35.3039C91.0616 36.1847 90.1121 36.8974 89.6667 37.1647C89.401 37.3242 89.2961 37.5311 89.3306 37.6532C89.3564 37.7466 89.4627 37.7969 89.6294 37.7969C90.2342 37.7969 92.9263 37.4765 93.84 36.5669C94.7852 35.6272 97.2217 31.3311 97.6024 28.9488C97.6814 28.4531 97.7733 28.0364 97.8696 27.657H97.8724Z" fill="url(#paint9_linear_6561_4963)"/>
<path d="M97.6654 22.0232C97.7056 20.4355 97.4169 18.8176 96.7402 18.0431C96.9141 18.9311 97.1439 20.4254 97.0893 22.0232V22.0534C97.1439 23.6512 96.9141 25.1455 96.7402 26.0334C97.4169 25.259 97.7056 23.6411 97.6654 22.0534V22.0232Z" fill="white"/>
<path d="M95.5337 10.3503C95.6852 10.3503 95.8081 10.8212 95.8081 11.4021C95.8081 11.983 95.6852 12.4539 95.5337 12.4539C95.3821 12.4539 95.2593 11.983 95.2593 11.4021C95.2593 10.8212 95.3821 10.3503 95.5337 10.3503Z" fill="white"/>
<path d="M93.3959 8.85889C93.304 8.85889 93.2307 8.57439 93.2307 8.2238C93.2307 7.87321 93.3054 7.58871 93.3959 7.58871C93.4864 7.58871 93.5611 7.87321 93.5611 8.2238C93.5611 8.57439 93.4864 8.85889 93.3959 8.85889Z" fill="white"/>
<path d="M94.4104 11.1665C94.1906 11.1665 94.0125 10.507 94.0125 9.69517C94.0125 8.88335 94.1906 8.22384 94.4104 8.22384C94.6302 8.22384 94.8083 8.88335 94.8083 9.69517C94.8083 10.507 94.6302 11.1665 94.4104 11.1665Z" fill="white"/>
<path d="M94.4119 35.7625C94.1921 35.7625 94.0139 35.1029 94.0139 34.2911C94.0139 33.4793 94.1921 32.8198 94.4119 32.8198C94.6316 32.8198 94.8098 33.4793 94.8098 34.2911C94.8098 35.1029 94.6316 35.7625 94.4119 35.7625Z" fill="white"/>
<path d="M93.2322 35.7624C93.2322 35.4118 93.3069 35.1273 93.3974 35.1273C93.4879 35.1273 93.5626 35.4118 93.5626 35.7624C93.5626 36.113 93.4879 36.3975 93.3974 36.3975C93.3069 36.3975 93.2322 36.113 93.2322 35.7624Z" fill="white"/>
<path d="M95.5366 31.5324C95.6881 31.5324 95.811 32.0033 95.811 32.5842C95.811 33.1651 95.6881 33.636 95.5366 33.636C95.3851 33.636 95.2622 33.1651 95.2622 32.5842C95.2622 32.0033 95.3851 31.5324 95.5366 31.5324Z" fill="white"/>
<path d="M51.458 5.50659H51.2971V3.75795H51.458V5.50659Z" fill="#231F20"/>
<path d="M8.38531 36.8141C8.40398 36.8184 8.42122 36.8213 8.43271 36.8213C8.44852 36.8213 8.45857 36.8184 8.46288 36.8141C8.53758 36.7336 8.34652 36.2667 8.23303 35.9865C8.17844 35.8543 8.12816 35.7293 8.08937 35.6186C8.02329 35.4319 7.87101 35.1876 7.67707 34.8787C7.59232 34.7436 7.49894 34.5956 7.40125 34.4318C7.38832 34.4318 7.37539 34.4318 7.36247 34.4318H4.76514C4.7795 34.4505 4.79243 34.4677 4.8068 34.4864C4.83266 34.5195 4.85851 34.5539 4.88581 34.587C4.91741 34.6258 4.94902 34.6646 4.98062 34.7034C5.00792 34.7364 5.03521 34.768 5.06394 34.8011C5.09699 34.8399 5.13146 34.8787 5.16594 34.916C5.19467 34.9476 5.22484 34.9793 5.25357 35.0094C5.28949 35.0468 5.32396 35.0856 5.36132 35.1229C5.39436 35.156 5.43027 35.189 5.46475 35.2221C5.53083 35.2853 5.59691 35.3471 5.66731 35.4074C5.70178 35.4376 5.73626 35.4678 5.77074 35.498C5.81096 35.5324 5.85262 35.5655 5.89429 35.5985C5.9302 35.6273 5.96755 35.6574 6.0049 35.6862C6.04656 35.7178 6.08966 35.7508 6.13419 35.781C6.17442 35.8097 6.21464 35.8385 6.25487 35.8658C6.29796 35.896 6.3425 35.9261 6.38703 35.9549C6.433 35.985 6.48041 36.0138 6.52781 36.0425C6.57379 36.0713 6.61976 36.1 6.66716 36.1273C6.74905 36.1747 6.83237 36.2193 6.91713 36.2638C6.95879 36.2853 7.00188 36.3055 7.04498 36.3256C7.10245 36.3529 7.15847 36.3816 7.21737 36.4075C7.26191 36.4276 7.30931 36.4477 7.35528 36.4664C7.41562 36.4923 7.47595 36.5167 7.53916 36.5411C7.58513 36.5583 7.62967 36.5756 7.67564 36.5928C7.74603 36.6187 7.81786 36.6431 7.88969 36.6661C7.92991 36.679 7.97014 36.6934 8.01036 36.7049C8.12529 36.7394 8.24021 36.7739 8.36089 36.804L8.38674 36.8112L8.38531 36.8141ZM7.67564 9.21659C7.86958 8.90766 8.02329 8.6634 8.08794 8.47661C8.12672 8.36597 8.17844 8.24097 8.23159 8.10878C8.34508 7.83003 8.53615 7.36305 8.46145 7.28115C8.45283 7.27253 8.42122 7.26822 8.35801 7.2869C8.23734 7.31707 8.11954 7.35155 8.00461 7.38604C7.96726 7.39753 7.93135 7.41047 7.89543 7.42196C7.81786 7.44782 7.74028 7.47369 7.66558 7.50099C7.62536 7.51536 7.58513 7.53116 7.54635 7.54697C7.47595 7.57427 7.407 7.60301 7.33804 7.63174C7.30069 7.64755 7.2619 7.66335 7.22599 7.6806C7.15273 7.71364 7.0809 7.74813 7.0105 7.78261C6.98177 7.79698 6.95304 7.80991 6.92575 7.82428C6.8295 7.87457 6.73468 7.92629 6.6413 7.97946C6.62407 7.98952 6.60683 8.00101 6.58959 8.01107C6.51489 8.05561 6.44306 8.10015 6.37123 8.14613C6.34106 8.16625 6.31089 8.18637 6.28072 8.20648C6.22326 8.24528 6.16723 8.28407 6.11264 8.3243C6.08104 8.34729 6.05087 8.36884 6.0207 8.39183C5.96755 8.43206 5.9144 8.47373 5.86268 8.5154C5.83539 8.53696 5.80809 8.55994 5.7808 8.5815C5.7219 8.63179 5.66443 8.68208 5.60697 8.73237C5.58973 8.74674 5.57249 8.76254 5.55669 8.77691C5.48486 8.84301 5.41591 8.91054 5.34839 8.97951C5.32971 8.99819 5.31247 9.0183 5.2938 9.03698C5.24495 9.08727 5.19755 9.13756 5.15014 9.18929C5.12715 9.21515 5.10417 9.24101 5.08118 9.26688C5.04096 9.31285 5.00074 9.35883 4.96195 9.40625C4.93896 9.43355 4.91741 9.46085 4.89587 9.48815C4.87288 9.51688 4.8499 9.54706 4.82835 9.5758C4.87575 9.5758 4.92316 9.5758 4.97344 9.5758C5.59117 9.5758 6.36405 9.58442 7.29207 9.60741C7.33948 9.60741 7.38258 9.61315 7.42855 9.61459C7.51618 9.47091 7.5995 9.33584 7.67707 9.21371L7.67564 9.21659Z" fill="#231F20"/>
<path d="M7.31657 34.291C7.04793 33.8355 6.75056 33.2737 6.4733 32.5625C6.46611 32.5625 6.4575 32.5625 6.45031 32.5639C6.38854 32.5697 6.32533 32.574 6.26212 32.5783C6.25494 32.5783 6.24919 32.5783 6.24201 32.5783C6.18167 32.5826 6.12134 32.5855 6.061 32.5869C6.04951 32.5869 6.03658 32.5869 6.02509 32.5869C5.96188 32.5884 5.89867 32.5898 5.83402 32.5898C5.82109 32.5898 5.80816 32.5898 5.79523 32.5898C5.72915 32.5898 5.66451 32.5884 5.59842 32.5855C5.59411 32.5855 5.5898 32.5855 5.58549 32.5855C5.52372 32.5826 5.46051 32.5783 5.39874 32.5725C5.38581 32.5725 5.37432 32.5711 5.36139 32.5697C5.29962 32.5639 5.23784 32.5553 5.17607 32.5467C5.1617 32.5438 5.14734 32.5424 5.13297 32.5395C5.0712 32.5294 5.00943 32.5179 4.94909 32.505C4.94047 32.5036 4.93329 32.5007 4.92467 32.4993C4.87008 32.4863 4.81693 32.472 4.76377 32.4562C4.74653 32.4519 4.72929 32.4461 4.71349 32.4418C4.6589 32.4246 4.60431 32.4059 4.55116 32.3843C4.53248 32.3771 4.51381 32.3685 4.49513 32.3613C4.4506 32.3427 4.40607 32.3225 4.36297 32.301C4.33998 32.2895 4.31843 32.278 4.29689 32.2665C4.25666 32.2449 4.21787 32.2234 4.17909 32.199C4.15754 32.186 4.13743 32.1731 4.11588 32.1587C4.07134 32.13 4.02825 32.0984 3.98515 32.0653C3.9636 32.0481 3.94205 32.0309 3.92194 32.0136C3.89177 31.9892 3.86304 31.9619 3.83431 31.9346C3.80558 31.9073 3.77685 31.8785 3.74811 31.8498C3.72082 31.8211 3.69352 31.7909 3.66767 31.7607C3.64755 31.7363 3.62744 31.7133 3.60733 31.6874C3.57285 31.6429 3.53981 31.5969 3.50677 31.5495C3.48953 31.5236 3.47229 31.4949 3.45505 31.4676C3.43207 31.4303 3.40908 31.39 3.38753 31.3512C3.37748 31.3311 3.36455 31.3139 3.35449 31.2938C3.35737 31.3067 3.36024 31.3196 3.36311 31.3325C3.36886 31.357 3.3746 31.3814 3.38035 31.4058C3.38897 31.4432 3.39903 31.482 3.40908 31.5208C3.41483 31.5452 3.42201 31.5711 3.42776 31.5955C3.43925 31.6386 3.45218 31.6831 3.46367 31.7277C3.46942 31.7492 3.47516 31.7708 3.48091 31.7923C3.49959 31.857 3.51826 31.9217 3.53981 31.9878C3.54699 32.0122 3.55561 32.0366 3.5628 32.0596C3.57716 32.1041 3.59153 32.1487 3.60733 32.1947C3.61739 32.2248 3.62744 32.255 3.63893 32.2852C3.6533 32.3254 3.66767 32.3656 3.68203 32.4073C3.69352 32.4404 3.70645 32.472 3.71795 32.505C3.73375 32.5452 3.74955 32.5869 3.76535 32.6271C3.77828 32.6602 3.79121 32.6918 3.80414 32.7249C3.82282 32.7708 3.84293 32.8168 3.86304 32.8642C3.88028 32.903 3.89608 32.9418 3.91332 32.9806C3.93918 33.0395 3.96647 33.0984 3.9952 33.1573C4.01244 33.1918 4.02968 33.2277 4.04692 33.2622C4.06703 33.3025 4.08571 33.3413 4.10726 33.3815C4.12593 33.4188 4.14605 33.4562 4.16616 33.4936C4.18627 33.5309 4.20638 33.5683 4.22793 33.6056C4.24948 33.6444 4.27103 33.6818 4.29258 33.7206C4.31412 33.7579 4.33567 33.7939 4.35866 33.8312C4.38164 33.87 4.40463 33.9074 4.42905 33.9462C4.45347 33.9864 4.48077 34.0252 4.50663 34.064C4.54972 34.1301 4.59426 34.1962 4.64023 34.2608C4.64597 34.2695 4.65316 34.2781 4.6589 34.2881H7.31513L7.31657 34.291ZM7.3453 9.75685C7.32519 9.75685 7.30795 9.75398 7.28784 9.75398C6.22764 9.72668 5.37288 9.7195 4.71924 9.72237C4.67327 9.78415 4.62873 9.84738 4.58564 9.9106C4.57989 9.91778 4.57414 9.9264 4.5684 9.93359C4.51812 10.0083 4.46927 10.083 4.42187 10.1577C4.4075 10.1822 4.39314 10.2066 4.37733 10.2296C4.34573 10.2813 4.31412 10.333 4.28396 10.3848C4.26815 10.4135 4.25235 10.4408 4.23655 10.4695C4.20925 10.5184 4.18196 10.5672 4.1561 10.6161C4.14174 10.6434 4.12593 10.6721 4.11157 10.6994C4.08427 10.7526 4.05841 10.8058 4.03112 10.8589C4.01963 10.8819 4.00813 10.9049 3.99808 10.9264C3.96216 11.0012 3.92769 11.0759 3.89464 11.1506C3.8889 11.1621 3.88459 11.1736 3.88028 11.1851C3.85298 11.2483 3.82569 11.3115 3.80127 11.3733C3.79121 11.3992 3.78116 11.425 3.7711 11.4509C3.75242 11.4998 3.73375 11.5472 3.71507 11.596C3.70502 11.6233 3.69496 11.6506 3.6849 11.6794C3.66767 11.7253 3.65186 11.7727 3.63606 11.8173C3.62744 11.8432 3.61739 11.869 3.60877 11.8949C3.59153 11.9466 3.57572 11.9969 3.55849 12.0472C3.55274 12.0659 3.54556 12.086 3.53981 12.1047C3.51826 12.1722 3.49815 12.2397 3.47947 12.3044C3.47373 12.3231 3.46942 12.3403 3.46511 12.359C3.45218 12.4064 3.43925 12.4538 3.42632 12.5012C3.42057 12.5257 3.41339 12.5501 3.40765 12.5745C3.39759 12.6133 3.38753 12.6535 3.37891 12.6909C3.37748 12.6981 3.37604 12.7067 3.37317 12.7139C3.91763 11.698 4.88157 11.4538 5.83258 11.4538C6.05525 11.4538 6.27649 11.4681 6.49197 11.4883C6.7721 10.7741 7.07522 10.2123 7.34386 9.75829L7.3453 9.75685Z" fill="url(#paint10_linear_6561_4963)"/>
</g>
<defs>
<linearGradient id="paint0_linear_6561_4963" x1="92.7008" y1="11.8691" x2="95.6303" y2="10.0391" gradientUnits="userSpaceOnUse">
<stop stop-color="#383838"/>
<stop offset="0.38" stop-color="#D1D1D1"/>
<stop offset="0.42" stop-color="#C9C9CA"/>
<stop offset="0.48" stop-color="#B6B6B6"/>
<stop offset="0.56" stop-color="#969697"/>
<stop offset="0.64" stop-color="#69696B"/>
<stop offset="0.68" stop-color="#4F4F51"/>
<stop offset="0.75" stop-color="#535355"/>
<stop offset="0.81" stop-color="#5F5F61"/>
<stop offset="0.87" stop-color="#747475"/>
<stop offset="0.94" stop-color="#919192"/>
<stop offset="1" stop-color="#B5B5B5"/>
</linearGradient>
<linearGradient id="paint1_linear_6561_4963" x1="34.541" y1="30.8916" x2="34.541" y2="33.6589" gradientUnits="userSpaceOnUse">
<stop/>
<stop offset="0.74" stop-color="#191919"/>
<stop offset="1" stop-color="#242424"/>
</linearGradient>
<linearGradient id="paint2_linear_6561_4963" x1="34.5424" y1="13.109" x2="34.5424" y2="10.1965" gradientUnits="userSpaceOnUse">
<stop/>
<stop offset="0.74" stop-color="#191919"/>
<stop offset="1" stop-color="#242424"/>
</linearGradient>
<linearGradient id="paint3_linear_6561_4963" x1="42.4408" y1="34.2725" x2="42.4408" y2="38.5371" gradientUnits="userSpaceOnUse">
<stop stop-color="#0F0F0F"/>
<stop offset="1" stop-color="#242424"/>
</linearGradient>
<linearGradient id="paint4_linear_6561_4963" x1="62.1707" y1="21.8983" x2="81.359" y2="21.8983" gradientUnits="userSpaceOnUse">
<stop/>
<stop offset="0.14" stop-color="#040404"/>
<stop offset="0.29" stop-color="#101010"/>
<stop offset="0.43" stop-color="#242424"/>
<stop offset="0.58" stop-color="#414141"/>
<stop offset="0.65" stop-color="#525252"/>
<stop offset="1"/>
</linearGradient>
<linearGradient id="paint5_linear_6561_4963" x1="4.93571e-05" y1="9.58295" x2="0.143761" y2="5.31696" gradientUnits="userSpaceOnUse">
<stop stop-color="#0F0F0F"/>
<stop offset="1" stop-color="#242424"/>
</linearGradient>
<linearGradient id="paint6_linear_6561_4963" x1="1.15365" y1="22.0233" x2="6.52069" y2="22.0233" gradientUnits="userSpaceOnUse">
<stop stop-color="#525252"/>
<stop offset="0.11" stop-color="#3F3F3F"/>
<stop offset="0.29" stop-color="#292929"/>
<stop offset="0.48" stop-color="#191919"/>
<stop offset="0.7" stop-color="#0F0F0F"/>
<stop offset="1" stop-color="#0D0D0D"/>
</linearGradient>
<linearGradient id="paint7_linear_6561_4963" x1="1.08033" y1="22.0478" x2="81.4309" y2="22.0478" gradientUnits="userSpaceOnUse">
<stop stop-color="#231F20"/>
<stop offset="0.24" stop-color="#6B6C6F"/>
<stop offset="0.5" stop-color="#292728"/>
<stop offset="0.67" stop-color="#363537"/>
<stop offset="0.99" stop-color="#5B5C5F"/>
<stop offset="1" stop-color="#5C5D60"/>
</linearGradient>
<linearGradient id="paint8_linear_6561_4963" x1="2.12744" y1="22.0478" x2="8.47854" y2="22.0478" gradientUnits="userSpaceOnUse">
<stop stop-color="#861215"/>
<stop offset="1" stop-color="#EE2525"/>
</linearGradient>
<linearGradient id="paint9_linear_6561_4963" x1="92.7022" y1="32.1156" x2="95.6317" y2="33.9456" gradientUnits="userSpaceOnUse">
<stop stop-color="#383838"/>
<stop offset="0.38" stop-color="#D1D1D1"/>
<stop offset="0.42" stop-color="#C9C9CA"/>
<stop offset="0.48" stop-color="#B6B6B6"/>
<stop offset="0.56" stop-color="#969697"/>
<stop offset="0.64" stop-color="#69696B"/>
<stop offset="0.68" stop-color="#4F4F51"/>
<stop offset="0.75" stop-color="#535355"/>
<stop offset="0.81" stop-color="#5F5F61"/>
<stop offset="0.87" stop-color="#747475"/>
<stop offset="0.94" stop-color="#919192"/>
<stop offset="1" stop-color="#B5B5B5"/>
</linearGradient>
<linearGradient id="paint10_linear_6561_4963" x1="3.35306" y1="22.006" x2="7.3453" y2="22.006" gradientUnits="userSpaceOnUse">
<stop stop-color="#242424"/>
<stop offset="0.21" stop-color="#191919"/>
<stop offset="0.54" stop-color="#0F0F0F"/>
<stop offset="1" stop-color="#0D0D0D"/>
</linearGradient>
<clipPath id="clip0_6561_4963">
<rect width="100" height="44" fill="white" transform="matrix(1 0 0 -1 0 44)"/>
</clipPath>
</defs>
</svg>
