<svg width="100" height="48" viewBox="0 0 100 48" fill="none" xmlns="http://www.w3.org/2000/svg">
<g clip-path="url(#clip0_6561_2652)">
<path d="M96.4676 40.5316C93.1382 42.9502 85.1657 44.6634 82.0379 44.6849C78.9101 44.7063 72.2499 44.1595 70.7361 44.1595C70.2014 44.1595 67.521 44.2094 64.0887 44.2794C64.0644 44.415 64.0344 44.5521 63.9972 44.6849C63.7842 45.4387 63.3597 47.8544 60.9409 47.9872C60.2519 47.9872 61.1839 46.3938 61.9016 44.3236C55.9218 44.4464 48.707 44.6006 46.2153 44.652C41.8767 44.742 31.7856 44.652 24.2177 44.2594C18.9699 44.9647 13.3189 44.5621 9.28338 44.2594C5.24638 43.9567 2.92625 41.8408 1.71544 38.717C0.504624 35.5931 0 32.8719 0 24.2042V23.8016C0 15.1339 0.504624 12.4141 1.71544 9.28877C2.92625 6.16492 5.24781 4.04761 9.28338 3.74636C13.3204 3.44368 18.9699 3.04106 24.2177 3.74636C31.7856 3.35373 41.8767 3.26522 46.2153 3.35373C48.707 3.40513 55.9218 3.56075 61.9016 3.68211C61.1839 1.61191 60.2504 0.0185738 60.9409 0.0185738C63.3597 0.151352 63.7842 2.56706 63.9972 3.3209C64.0344 3.4551 64.0644 3.59073 64.0887 3.72637C67.521 3.7949 70.2014 3.84629 70.7361 3.84629C72.2499 3.84629 78.9101 3.30091 82.0379 3.3209C85.1657 3.34231 93.1382 5.05558 96.4676 7.47414C99.797 9.8927 100 16.8471 100 23.8001V24.2028C100 31.1572 99.7984 38.1102 96.4676 40.5288V40.5316Z" fill="#231F20"/>
<path d="M96.4676 40.5316C93.1382 42.9502 85.1657 44.6634 82.0379 44.6849C78.9101 44.7063 72.2499 44.1595 70.7361 44.1595C70.2014 44.1595 67.521 44.2094 64.0887 44.2794C64.0644 44.415 64.0344 44.5521 63.9972 44.6849C63.7842 45.4387 63.3597 47.8544 60.9409 47.9872C60.2519 47.9872 61.1839 46.3938 61.9016 44.3236C55.9218 44.4464 48.707 44.6006 46.2153 44.652C41.8767 44.742 31.7856 44.652 24.2177 44.2594C18.9699 44.9647 13.3189 44.5621 9.28338 44.2594C5.24638 43.9567 2.92625 41.8408 1.71544 38.717C0.504624 35.5931 0 32.8719 0 24.2042V23.8016C0 15.1339 0.504624 12.4141 1.71544 9.28877C2.92625 6.16492 5.24781 4.04761 9.28338 3.74636C13.3204 3.44368 18.9699 3.04106 24.2177 3.74636C31.7856 3.35373 41.8767 3.26522 46.2153 3.35373C48.707 3.40513 55.9218 3.56075 61.9016 3.68211C61.1839 1.61191 60.2504 0.0185738 60.9409 0.0185738C63.3597 0.151352 63.7842 2.56706 63.9972 3.3209C64.0344 3.4551 64.0644 3.59073 64.0887 3.72637C67.521 3.7949 70.2014 3.84629 70.7361 3.84629C72.2499 3.84629 78.9101 3.30091 82.0379 3.3209C85.1657 3.34231 93.1382 5.05558 96.4676 7.47414C99.797 9.8927 100 16.8471 100 23.8001V24.2028C100 31.1572 99.7984 38.1102 96.4676 40.5288V40.5316Z" fill="#FFF200"/>
<path d="M24.8552 5.82793V8.118C24.8552 8.33501 24.9339 8.54346 25.0754 8.70765L25.4742 9.1688C25.6243 9.34155 25.8359 9.44578 26.0646 9.45863C27.8329 9.55571 35.8083 9.86268 37.3679 9.94834C39.1148 10.044 39.6752 9.9255 39.8124 8.97606C39.9697 7.88814 40.2599 6.11348 40.3485 5.57808C40.3656 5.47814 29.3482 5.5381 26.4291 5.61234C25.6615 5.63233 25.2255 5.6509 25.0153 5.66089C24.9267 5.66517 24.8567 5.73941 24.8567 5.82793H24.8552Z" fill="url(#paint0_linear_6561_2652)"/>
<path d="M44.9588 5.62231C44.6186 6.3019 43.2691 8.99744 43.0475 9.34866C42.793 9.75128 42.6015 10.0211 44.3126 9.97544C46.0238 9.93118 51.2258 9.61707 53.5574 9.08025C55.889 8.54343 66.2745 6.30333 66.7863 5.90072C67.2981 5.4981 66.7863 5.34819 66.7863 5.34819C66.7863 5.34819 45.0088 5.5238 44.9588 5.62231Z" fill="url(#paint1_linear_6561_2652)"/>
<path d="M0 24.2042C0 32.8719 0.504624 35.5917 1.71544 38.717C2.92625 41.8423 5.24781 43.9582 9.28338 44.2594C2.07425 42.7189 1.30373 34.2068 1.30373 24.0029C1.30373 13.7989 1.68256 5.72375 9.28338 3.74636C5.24638 4.04903 2.92625 6.16491 1.71544 9.28877C0.504624 12.4126 0 15.1339 0 23.8016V24.2042Z" fill="#231F20"/>
<path d="M4.21152 7.19148L4.07715 7.27C4.12146 7.32997 5.16788 8.72771 6.19571 9.00183L6.24146 8.86477C5.26938 8.60635 4.22153 7.20576 4.21152 7.19148Z" fill="url(#paint2_linear_6561_2652)"/>
<path d="M88.1963 6.5075C88.1506 7.09572 88.4808 7.53974 89.2656 7.9495C89.9975 8.3307 96.103 13.2392 97.4525 14.6941L97.7313 15.0952L98.2959 15.228L98.3288 15.0895L97.817 14.9696L97.564 14.6055C96.2031 13.1378 90.0676 8.20792 89.3313 7.82386C88.6037 7.44551 88.2978 7.0429 88.3378 6.52035L88.1949 6.50893L88.1963 6.5075Z" fill="#231F20"/>
<path d="M73.0034 3.81348C74.9533 4.19325 80.2397 5.0713 87.1915 5.01704C89.972 5.0199 90.3751 5.0199 90.3751 5.0199V4.87713C90.3751 4.87713 89.9705 4.87713 87.1915 4.87427C80.2569 4.9271 73.0048 3.81348 73.0048 3.81348H73.0034Z" fill="url(#paint3_linear_6561_2652)"/>
<path d="M6.19571 39.0111C5.16788 39.2838 4.12146 40.6829 4.07715 40.7429L4.21152 40.8214C4.22153 40.8071 5.26938 39.4065 6.24146 39.1481L6.19571 39.0111Z" fill="url(#paint4_linear_6561_2652)"/>
<path d="M24.8552 42.1463V39.8563C24.8552 39.6393 24.9339 39.4308 25.0754 39.2666L25.4742 38.8055C25.6243 38.6327 25.8359 38.5285 26.0646 38.5156C27.8329 38.4186 35.8083 38.1116 37.3679 38.0259C39.1148 37.9303 39.6752 38.0488 39.8124 38.9982C39.9697 40.0861 40.2599 41.8608 40.3485 42.3962C40.3656 42.4961 29.3482 42.4362 26.4291 42.3619C25.6615 42.3419 25.2255 42.3234 25.0153 42.3134C24.9267 42.3091 24.8567 42.2349 24.8567 42.1463H24.8552Z" fill="url(#paint5_linear_6561_2652)"/>
<path d="M44.9588 42.352C44.6186 41.6724 43.2691 38.9768 43.0475 38.6256C42.793 38.223 42.6015 37.9532 44.3126 37.9989C46.0238 38.0431 51.2258 38.3572 53.5574 38.894C55.889 39.4309 66.2745 41.671 66.7863 42.0736C67.2981 42.4762 66.7863 42.6261 66.7863 42.6261C66.7863 42.6261 45.0088 42.4505 44.9588 42.352Z" fill="url(#paint6_linear_6561_2652)"/>
<path opacity="0.3" d="M12.5082 15.0925C12.2838 16.2318 12.1051 17.5867 11.975 19.1201C11.8592 20.4836 11.8049 21.7371 11.7806 22.5495C11.7534 23.4304 11.7534 23.9972 11.7534 24.0029V24.0657C11.7534 24.0657 11.7534 24.634 11.7806 25.5092C11.8063 26.3173 11.8606 27.5637 11.975 28.9171C12.1051 30.4419 12.2852 31.7897 12.5082 32.9233L13.4274 35.3876C12.5354 32.5764 12.3881 30.4063 12.2595 28.8929C12.1451 27.5451 12.0908 26.3044 12.0651 25.5006C12.0379 24.6311 12.0379 24.0729 12.0379 24.0672V24.0043C12.0379 24.0043 12.0379 23.4361 12.0651 22.5609C12.0908 21.7514 12.1437 20.5036 12.2595 19.1458C12.3881 17.6224 12.4896 15.6051 13.4274 12.524L12.5082 15.0939V15.0925Z" fill="#231F20"/>
<path d="M68.7848 44.2008L68.6447 44.1765C68.6447 44.1765 68.7276 43.6754 68.466 42.7374C68.2301 41.8879 67.7941 41.7965 66.7434 41.5781C66.6519 41.5595 66.5561 41.5395 66.4575 41.5181C66.123 41.4467 64.9765 41.1869 63.3897 40.8285C59.0411 39.8463 51.7633 38.2015 50.8113 38.0702C49.6276 37.9074 41.7581 37.579 41.7881 37.5419C41.5279 37.5376 41.2835 37.5348 41.0562 37.5334C41.2506 38.0916 42.2512 40.977 42.7716 42.499L42.7773 42.5161L42.7745 42.5332C42.6015 43.6511 43.4506 44.682 43.4177 44.682L43.302 44.6848C43.2676 44.6434 42.4585 43.704 42.6301 42.529C42.0897 40.9513 41.0476 37.946 40.9032 37.5334C40.7031 37.5334 39.9426 37.5419 39.924 37.5419C36.2486 37.5933 28.1775 37.8546 27.5042 37.8917C26.7709 37.9331 25.9403 37.926 25.7859 37.9445C25.5415 37.9574 25.1598 38.3572 24.7009 38.7455C23.1613 40.0476 20.5981 42.3433 20.1507 42.7702C19.5832 43.3099 20.5052 44.5349 20.5152 44.5463L20.4023 44.6334C20.3608 44.5792 19.393 43.2942 20.0535 42.6674C20.5038 42.2391 23.0698 39.9405 24.6094 38.637C25.0082 38.2986 25.2999 38.0445 25.4171 37.9417L22.3865 38.0944C22.3679 38.0959 20.5524 38.2729 17.4961 39.0653L17.4775 39.071L17.4589 39.0653C15.5733 38.5056 14.6642 37.3235 14.0009 36.4611C13.9022 36.3326 13.8093 36.2113 13.7192 36.1028L13.8293 36.0128C13.9194 36.1228 14.0137 36.2455 14.1138 36.3755C14.7628 37.2193 15.6505 38.3743 17.4789 38.924C20.5352 38.1316 22.3536 37.956 22.375 37.9531L25.6558 37.7875V37.8118H25.6601H25.8445C25.856 37.8118 26.698 37.7961 27.4971 37.7518C28.1718 37.7147 36.2444 37.4534 39.9225 37.402C39.9225 37.402 39.924 37.402 39.9254 37.402C40.3257 37.3963 40.6745 37.3934 40.9547 37.3934C41.3049 37.3934 41.7023 37.3991 42.1283 37.4091C42.134 37.4091 42.1383 37.4091 42.144 37.4091C45.136 37.4791 49.6434 37.7689 50.8299 37.9317C51.7876 38.063 59.0697 39.7092 63.4197 40.6929C65.0065 41.0513 66.153 41.3111 66.4861 41.3825C66.5862 41.4039 66.6805 41.4239 66.772 41.4425C67.8184 41.6609 68.343 41.7708 68.6032 42.7031C68.8734 43.6768 68.7876 44.1837 68.7848 44.2051V44.2008Z" fill="url(#paint7_linear_6561_2652)"/>
<path d="M55.3228 37.0964C55.8788 35.6573 56.382 32.3107 56.6951 29.5338C57.0082 26.7569 58.3991 28.2346 58.3991 26.2643V21.7427C58.3991 19.7725 57.0096 21.2502 56.6951 18.4732C56.3806 15.6963 55.8788 12.3497 55.3228 10.9106" stroke="#231F20" stroke-width="0.255208" stroke-miterlimit="10"/>
<path d="M68.729 40.1062C68.729 40.1062 69.824 40.3675 71.4508 38.6257C73.7681 36.1443 74.4557 28.6587 74.4557 24.0243V24.0029C74.4557 19.3685 73.7681 11.8601 71.4508 9.3802C69.8255 7.6398 68.729 7.89965 68.729 7.89965" stroke="#231F20" stroke-width="0.255208" stroke-miterlimit="10"/>
<path d="M98.2959 32.7791L97.7313 32.9119L97.4468 33.3216C96.103 34.7679 89.9975 39.6764 89.2656 40.0576C88.4808 40.4674 88.1506 40.9114 88.1963 41.4996L88.3392 41.4882C88.2992 40.9657 88.6051 40.563 89.3328 40.1847C90.069 39.8006 96.2031 34.8707 97.5583 33.4116L97.8185 33.039L98.3302 32.919L98.2974 32.7805L98.2959 32.7791Z" fill="#231F20"/>
<path d="M97.5955 33.0631C97.9543 30.3676 97.9986 24.0271 97.9986 24.0271V24.0014C97.9986 24.0014 97.9543 17.6366 97.5955 14.941" stroke="#231F20" stroke-width="0.255208" stroke-miterlimit="10"/>
<path d="M90.3749 42.9858C90.3749 42.9858 89.9717 42.9858 87.1913 42.9887C80.2381 42.9359 74.9545 43.8125 73.0046 44.1923C73.0046 44.1923 80.2552 43.0786 87.1913 43.1315C89.9717 43.1286 90.3763 43.1286 90.3763 43.1286V42.9858H90.3749Z" fill="url(#paint8_linear_6561_2652)"/>
<path d="M3.19507 25.4578C3.19507 29.1299 4.7261 34.3239 5.07919 35.4904C5.37653 36.4755 6.34433 36.1828 6.64882 36.0729C7.02192 35.9387 10.0039 35.2591 10.6844 35.132C11.0175 35.0706 12.2068 34.8807 11.9853 34.1012C11.6422 32.8948 10.6844 27.5922 10.6844 24.0772V24.0015C10.6844 20.4864 11.6379 15.161 11.9853 13.9018C12.2354 12.9952 11.2619 12.9623 10.6844 12.871C10.1069 12.7796 7.01906 12.0614 6.64882 11.9301C6.34433 11.823 5.41227 11.5275 5.07919 12.5126C4.68893 13.6676 3.19507 18.8731 3.19507 22.5452C3.86838 22.6794 3.81834 24.0001 3.81834 24.0001C3.81834 24.0001 3.86838 25.3207 3.19507 25.4549V25.4578Z" fill="url(#paint9_radial_6561_2652)"/>
<path d="M71.5023 9.33161C73.7338 11.7216 74.5257 18.7289 74.5257 24.0029V24.0243C74.5257 29.2897 73.7338 36.2856 71.5023 38.6742C70.5231 39.7235 69.7311 40.0576 69.2451 40.1547C70.7232 40.5059 71.7024 40.8885 71.7024 40.8885C71.5652 40.8557 57.9432 37.5691 54.5766 37.038C51.1472 36.4969 55.0198 36.968 55.2771 37.0151C55.9247 35.2805 56.435 31.2086 56.6252 29.5253C56.7967 28.0048 57.3042 27.7192 57.7102 27.4894C58.0561 27.2938 58.3292 27.1396 58.3292 26.2644V21.7428C58.3292 20.8676 58.0561 20.7134 57.7102 20.5178C57.3028 20.2879 56.7967 20.0024 56.6252 18.4819C56.435 16.7986 55.9247 12.7267 55.2771 10.9921C55.0212 11.0392 51.1472 11.5103 54.5766 10.9692C57.9432 10.4381 71.5652 7.15148 71.7024 7.11864C71.7024 7.11864 70.7232 7.50127 69.2436 7.85392C69.7297 7.951 70.5202 8.28366 71.5023 9.33447V9.33161Z" fill="url(#paint10_radial_6561_2652)"/>
<path d="M67.0079 5.6552C66.9565 5.9793 66.3189 6.11493 65.4412 6.36478C64.562 6.61463 61.4113 7.34277 61.4113 7.34277L62.2133 5.66234V5.28685H62.3862L62.3834 4.94706C62.3534 4.85996 61.8445 3.50934 61.813 3.42367C61.1111 1.48054 60.282 0.0185561 60.9424 0.0185561C63.3612 0.151334 63.7858 2.70981 63.9988 3.46365C64.0231 3.55217 64.0445 3.77918 64.0631 3.96335C64.0774 4.10613 64.0245 4.24604 63.9201 4.34313L63.6299 4.61297L63.5799 5.28685H66.4747C66.4747 5.28685 67.0622 5.32968 67.0108 5.6552H67.0079Z" fill="#3D3D3D"/>
<path d="M66.4718 42.7317H63.577L63.627 43.4056L63.9172 43.6754C64.0216 43.7725 64.0745 43.9139 64.0602 44.0552C64.0416 44.238 64.0201 44.4664 63.9958 44.5549C63.7828 45.3087 63.3583 47.8672 60.9395 48C60.279 48 61.1082 46.538 61.8101 44.5949C61.8401 44.5106 62.3504 43.1586 62.3805 43.0715L62.3833 42.7317H62.2103V42.3562L61.4084 40.6758C61.4084 40.6758 64.5591 41.4039 65.4382 41.6538C66.3174 41.9036 66.9535 42.0378 67.005 42.3634C67.0565 42.6874 66.4689 42.7317 66.4689 42.7317H66.4718Z" fill="#3D3D3D"/>
<path d="M88.2751 7.05432V6.91155C88.1493 6.91155 75.5695 6.7802 74.2743 6.76878C74.26 6.76878 74.2471 6.76878 74.2328 6.76878C73.1993 6.76878 72.8848 7.09858 72.7947 7.25135L72.1986 7.00721L71.704 7.11714C71.5653 7.14998 57.9433 10.438 54.5768 10.9677C51.1473 11.5088 45.5908 12.087 40.2815 12.087C39.2822 12.087 38.0428 12.0913 36.639 12.097C30.472 12.1199 21.1544 12.1541 14.9473 11.8629L14.9402 12.0057C21.1501 12.2969 30.4706 12.2627 36.639 12.2398C38.0428 12.2341 39.2822 12.2298 40.2815 12.2298C45.5979 12.2298 51.1631 11.6516 54.5982 11.1091C57.9705 10.5779 71.5982 7.28847 71.7355 7.25563L72.1857 7.15569L72.8791 7.43981L72.8991 7.35986C72.8991 7.35986 73.0449 6.91013 74.2314 6.91013C74.2443 6.91013 74.2586 6.91013 74.2714 6.91013C75.5666 6.92155 88.1465 7.05147 88.2737 7.0529L88.2751 7.05432ZM36.6405 35.9086C38.0443 35.9143 39.2837 35.9186 40.2829 35.9186C45.5993 35.9186 51.1645 36.4968 54.5997 37.0393C57.9719 37.5705 71.5996 40.8585 71.7355 40.8913L72.1857 40.9913L72.8033 40.7371L72.8776 40.7086L72.9005 40.7843C72.9005 40.7843 73.0478 41.234 74.2328 41.234C74.2457 41.234 74.26 41.234 74.2729 41.234C75.568 41.2226 88.1479 41.0926 88.2751 41.0912V41.234C88.1493 41.234 75.5695 41.3653 74.2743 41.3768C73.2064 41.391 72.8862 41.0484 72.7962 40.8942L72.2 41.1383L71.704 41.0284C71.5668 40.9956 57.9448 37.7089 54.5782 37.1778C51.1473 36.6367 45.5908 36.0585 40.2829 36.0585C39.2837 36.0585 38.0443 36.0542 36.6405 36.0485C30.4735 36.0257 21.1558 35.99 14.9488 36.2827L14.9416 36.1399C19.3003 35.9357 25.1914 35.8915 30.4492 35.8915C32.6821 35.8915 34.8021 35.9 36.6405 35.9057V35.9086Z" fill="url(#paint11_linear_6561_2652)"/>
<path d="M5.48367 10.1168C6.34282 10.5208 9.20903 11.7087 13.5391 11.8715C13.6306 11.8743 13.7178 11.8301 13.7692 11.7544C14.9943 9.95975 16.0107 9.33583 17.2301 8.97319C17.3802 8.92893 17.3659 8.71334 17.213 8.6905C13.5748 8.13512 11.1475 8.11656 10.4613 8.14939C9.78942 8.1808 7.45786 8.39068 7.08761 8.42494C7.0533 8.4278 7.02185 8.43779 6.9904 8.4535C6.77597 8.56343 5.88823 9.04315 5.38504 9.71989C5.28497 9.85409 5.33214 10.0468 5.4851 10.1196L5.48367 10.1168ZM5.48367 37.8117C6.34282 37.4077 9.20903 36.2198 13.5391 36.0571C13.6306 36.0542 13.7178 36.0985 13.7692 36.1741C14.9943 37.9688 16.0107 38.5927 17.2301 38.9554C17.3802 38.9996 17.3659 39.2152 17.213 39.238C13.5748 39.7934 11.1475 39.812 10.4613 39.7791C9.78942 39.7477 7.45786 39.5379 7.08761 39.5036C7.0533 39.5007 7.02185 39.4907 6.9904 39.475C6.77597 39.3651 5.88823 38.8854 5.38504 38.2087C5.28497 38.0744 5.33214 37.8817 5.4851 37.8089L5.48367 37.8117Z" fill="#BE1E2D"/>
<path d="M10.903 11.5303C11.4162 11.5874 11.858 11.6645 12.7471 11.7173C12.8329 11.7231 12.9115 11.6688 12.9501 11.5917C13.7221 10.0669 14.6627 9.49581 15.1173 9.2174C15.2116 9.16029 15.1687 9.0161 15.0587 9.0161L13.9265 8.93186C13.8579 8.93186 13.7892 8.939 13.7235 8.95756C12.3812 9.32877 11.2075 10.7294 10.7958 11.2805C10.7229 11.3775 10.7829 11.516 10.9045 11.5303H10.903ZM10.903 36.3984C11.4162 36.3413 11.858 36.2642 12.7471 36.2113C12.8329 36.2056 12.9115 36.2599 12.9501 36.337C13.7221 37.8618 14.6627 38.4329 15.1173 38.7113C15.2116 38.7684 15.1687 38.9126 15.0587 38.9126L13.9265 38.9968C13.8579 38.9968 13.7892 38.9897 13.7235 38.9711C12.3812 38.5999 11.2075 37.1993 10.7958 36.6482C10.7229 36.5511 10.7829 36.4126 10.9045 36.3984H10.903Z" fill="#FBB040"/>
<path d="M5.83237 10.1654C6.55429 10.5023 7.3391 10.7293 7.54781 10.785C7.75652 10.8407 7.59642 9.84554 9.12601 8.92324C9.23466 8.85756 9.1932 8.68909 9.06597 8.68624C6.89309 8.64055 6.02822 9.47719 5.75232 9.8741C5.68227 9.97547 5.7223 10.114 5.8338 10.1654H5.83237ZM5.83237 37.7632C6.55429 37.4263 7.3391 37.1993 7.54781 37.1436C7.75652 37.0879 7.59642 38.083 9.12601 39.0053C9.23466 39.071 9.1932 39.2395 9.06597 39.2423C6.89309 39.288 6.02822 38.4514 5.75232 38.0545C5.68227 37.9531 5.7223 37.8146 5.8338 37.7632H5.83237Z" fill="white"/>
<path d="M88.2678 41.4925C88.2678 41.4925 93.6171 42.0479 95.4341 40.119C97.3182 38.1188 97.7985 37.0594 98.256 32.8476C97.9415 32.8476 97.7985 33.0632 97.7985 33.0632C97.7985 33.0632 96.9322 34.0255 94.7679 35.8244C93.4513 36.9181 90.4164 39.4109 89.6345 39.902C88.8525 40.3931 88.3307 40.5773 88.2678 41.4925Z" fill="url(#paint12_linear_6561_2652)"/>
<path d="M93.7472 37.1707C94.0006 37.1707 94.2061 37.7562 94.2061 38.4785C94.2061 39.2007 94.0006 39.7863 93.7472 39.7863C93.4938 39.7863 93.2883 39.2007 93.2883 38.4785C93.2883 37.7562 93.4938 37.1707 93.7472 37.1707Z" fill="white"/>
<path opacity="0.5" d="M93.6671 39.7863H89.8059L93.0667 37.2221L93.7471 37.1692C93.7471 37.1692 93.2883 37.4548 93.2883 38.477C93.2883 39.4993 93.6671 39.7848 93.6671 39.7848V39.7863Z" fill="url(#paint13_linear_6561_2652)"/>
<path d="M95.0354 35.8615C95.1617 35.8615 95.2641 36.1543 95.2641 36.5154C95.2641 36.8766 95.1617 37.1693 95.0354 37.1693C94.909 37.1693 94.8066 36.8766 94.8066 36.5154C94.8066 36.1543 94.909 35.8615 95.0354 35.8615Z" fill="white"/>
<path opacity="0.5" d="M95.0351 37.1708H93.0652L94.6948 35.8887L95.0351 35.8616C95.0351 35.8616 94.8064 36.0243 94.8064 36.5155" fill="url(#paint14_linear_6561_2652)"/>
<path opacity="0.5" d="M89.6616 39.8335L94.695 35.8873C94.695 35.8873 94.9452 35.8601 95.0352 35.8601C94.3433 36.0743 94.0631 36.4484 94.0503 36.7539C94.0374 37.0594 94.2862 37.1679 94.2862 37.1679C94.2862 37.1679 94.0217 37.1679 93.7358 37.1679C93.0668 37.1679 91.8888 38.1488 91.9088 39.0497C91.9088 39.6322 92.3091 39.785 92.3091 39.785L89.6616 39.8321V39.8335Z" fill="#231F20"/>
<path d="M88.2678 6.51323C88.2678 6.51323 93.6171 5.95784 95.4341 7.88669C97.251 9.81555 97.7985 10.9463 98.256 15.1581C97.9415 15.1581 97.7985 14.9425 97.7985 14.9425C97.7985 14.9425 96.9322 13.9802 94.7679 12.1813C93.4513 11.0876 90.4164 8.59484 89.6345 8.10371C88.8525 7.61257 88.3307 7.4284 88.2678 6.51323Z" fill="url(#paint15_linear_6561_2652)"/>
<path d="M93.7472 8.21937C94.0006 8.21937 94.2061 8.80489 94.2061 9.52717C94.2061 10.2494 94.0006 10.835 93.7472 10.835C93.4938 10.835 93.2883 10.2494 93.2883 9.52717C93.2883 8.80489 93.4938 8.21937 93.7472 8.21937Z" fill="white"/>
<path opacity="0.5" d="M93.6671 8.21929H89.8059L93.0667 10.7835L93.7471 10.8363C93.7471 10.8363 93.2883 10.5508 93.2883 9.52851C93.2883 8.50626 93.6671 8.22072 93.6671 8.22072V8.21929Z" fill="url(#paint16_linear_6561_2652)"/>
<path d="M95.0354 10.8364C95.1617 10.8364 95.2641 11.1291 95.2641 11.4903C95.2641 11.8514 95.1617 12.1442 95.0354 12.1442C94.909 12.1442 94.8066 11.8514 94.8066 11.4903C94.8066 11.1291 94.909 10.8364 95.0354 10.8364Z" fill="white"/>
<path opacity="0.5" d="M95.0351 10.8349H93.0652L94.6948 12.117L95.0351 12.1442C95.0351 12.1442 94.8064 12.0014 94.8064 11.4903C94.8064 10.9791 95.0351 10.8364 95.0351 10.8364V10.8349Z" fill="url(#paint17_linear_6561_2652)"/>
<path opacity="0.5" d="M89.6616 8.17228L94.695 12.1185C94.695 12.1185 94.9452 12.1456 95.0352 12.1456C94.3433 11.9315 94.0631 11.5574 94.0503 11.2519C94.0374 10.9463 94.2862 10.8378 94.2862 10.8378C94.2862 10.8378 94.0217 10.8378 93.7358 10.8378C93.0668 10.8378 91.8888 9.85699 91.9088 8.9561C91.9088 8.37359 92.3091 8.22082 92.3091 8.22082L89.6616 8.17371V8.17228Z" fill="#231F20"/>
<path d="M96.4677 40.5316C95.041 41.5682 92.7609 42.4748 90.375 43.1758C90.2035 43.0511 89.5216 42.993 88.3293 43.0016C96.1846 41.6124 97.7714 38.2416 98.2846 33.0647H97.6313C97.6313 33.0647 97.9172 27.1624 97.9172 24.0671C97.9172 20.9718 97.6313 14.944 97.6313 14.944H98.3232C98.3232 14.944 98.4004 15.5779 98.4976 16.5973C98.0888 10.5381 96.8336 6.80884 88.5495 4.94995C90.3621 4.96137 90.1792 4.94995 90.5122 4.87428C92.8481 5.56815 95.0682 6.46048 96.4677 7.47702C99.797 9.89558 100 16.85 100 23.803V24.2056C100 31.1601 99.7985 38.1131 96.4677 40.5316ZM98.895 24C98.895 24 98.895 24.0043 98.895 24.0058C98.895 24.0058 98.895 24.0043 98.895 24.0029C98.895 24.0029 98.895 24 98.895 23.9986V24Z" fill="#231F20"/>
<path d="M68.6046 5.30687C68.3458 6.2406 67.8198 6.35053 66.7734 6.56897C66.6819 6.58753 66.5875 6.60752 66.4874 6.62894C66.1529 6.70033 65.005 6.96017 63.414 7.31996C59.0653 8.30223 51.789 9.94696 50.8312 10.0797C49.6447 10.2425 45.1374 10.5323 42.1454 10.6023C42.1454 10.6023 42.144 10.6023 42.1425 10.6023C41.7108 10.6123 41.3091 10.618 40.9546 10.618C40.6744 10.618 40.3256 10.6151 39.9239 10.6094H39.921C36.2429 10.558 28.1703 10.2968 27.4956 10.2596C26.695 10.2154 25.6186 10.0812 25.6071 10.0797L25.5857 10.0769L25.57 10.0626L22.3707 9.90128C22.3521 9.89985 20.5337 9.72281 17.4774 8.93043C15.649 9.4801 14.7613 10.6351 14.1109 11.4789C14.0108 11.6088 13.9164 11.7316 13.8264 11.8416L13.7163 11.7516C13.8049 11.6431 13.8979 11.5217 13.9979 11.3932C14.6612 10.5309 15.569 9.35017 17.456 8.78908L17.4745 8.78337L17.4931 8.78766C20.548 9.58147 22.365 9.75708 22.3793 9.7585L25.3884 9.91127C25.2355 9.78135 24.9924 9.57719 24.6922 9.32305C23.1526 8.02097 20.5009 5.77088 20.0491 5.34113C19.3887 4.71293 20.3565 3.42941 20.3979 3.37516L20.5109 3.46225C20.5009 3.4751 19.5788 4.69866 20.1463 5.23834C20.6124 5.68093 23.5443 8.16659 24.7823 9.21454C25.2126 9.57861 25.5228 9.83989 25.6214 9.92412H25.6572V9.94268C25.8444 9.96553 26.7837 10.0769 27.5013 10.1169C28.1746 10.154 36.2457 10.4153 39.921 10.4667C39.9296 10.4638 40.7001 10.4752 40.9003 10.4752C41.0432 10.0612 42.0868 7.05583 42.6271 5.4782C42.4556 4.30461 43.2704 3.36374 43.3033 3.32234L43.3962 3.32519C43.3891 3.33518 42.5986 4.35315 42.7715 5.47391L42.7744 5.49105L42.7687 5.50818C42.2469 7.03156 41.2462 9.91556 41.0532 10.4738C41.282 10.4738 41.9953 10.4595 42.1382 10.4581C45.1245 10.3881 49.6261 10.0997 50.8098 9.93697C51.7604 9.80562 59.0353 8.16231 63.3811 7.18004C64.9721 6.82025 66.1215 6.56041 66.456 6.48902C66.5561 6.46761 66.6518 6.44762 66.7419 6.42906C67.7926 6.20919 68.2286 6.11924 68.4645 5.26975C68.7247 4.33173 68.6432 3.83632 68.6432 3.8306L68.7833 3.80633C68.7876 3.82775 68.8719 4.33602 68.6017 5.3083L68.6046 5.30687Z" fill="url(#paint18_linear_6561_2652)"/>
<path d="M49.4718 43.891H45.6064C45.4692 43.891 45.3934 43.7311 45.4806 43.6254L45.6021 43.477C45.7007 43.357 45.848 43.2885 46.0024 43.2885H49.0015C49.2074 43.2885 49.4032 43.3813 49.5319 43.5412L49.5991 43.624C49.6863 43.7311 49.6091 43.891 49.4718 43.891Z" fill="#7D7D7D"/>
<path d="M28.712 43.6797L24.8509 43.4984C24.7136 43.4912 24.645 43.3285 24.7379 43.2271L24.8666 43.0843C24.971 42.9687 25.1211 42.9073 25.2754 42.9144L28.2703 43.0543C28.4762 43.0643 28.6663 43.1657 28.7892 43.3313L28.8521 43.417C28.9336 43.5283 28.8507 43.6854 28.712 43.6783V43.6797Z" fill="#7D7D7D"/>
<path d="M49.4718 3.8676H45.6064C45.4692 3.8676 45.3934 4.0275 45.4806 4.13315L45.6021 4.28164C45.7007 4.40157 45.848 4.47009 46.0024 4.47009H49.0015C49.2074 4.47009 49.4032 4.37729 49.5319 4.21739L49.5991 4.13458C49.6863 4.0275 49.6091 3.8676 49.4718 3.8676Z" fill="#7D7D7D"/>
<path d="M28.712 4.07903L24.8509 4.26035C24.7136 4.26749 24.645 4.43025 24.7379 4.53162L24.8666 4.67439C24.971 4.79004 25.1211 4.85143 25.2754 4.84429L28.2703 4.70437C28.4762 4.69438 28.6663 4.59301 28.7892 4.42739L28.8521 4.34173C28.9336 4.23037 28.8507 4.07332 28.712 4.08046V4.07903Z" fill="#7D7D7D"/>
</g>
<defs>
<linearGradient id="paint0_linear_6561_2652" x1="32.6004" y1="9.97404" x2="32.6004" y2="5.52383" gradientUnits="userSpaceOnUse">
<stop offset="0.04" stop-color="#080808"/>
<stop offset="0.2" stop-color="#0C0C0C"/>
<stop offset="0.37" stop-color="#191919"/>
<stop offset="0.56" stop-color="#303030"/>
<stop offset="0.75" stop-color="#4F4F4F"/>
<stop offset="0.94" stop-color="#767676"/>
<stop offset="1" stop-color="#858585"/>
</linearGradient>
<linearGradient id="paint1_linear_6561_2652" x1="54.9483" y1="9.98115" x2="54.9483" y2="5.34819" gradientUnits="userSpaceOnUse">
<stop offset="0.04" stop-color="#080808"/>
<stop offset="0.2" stop-color="#0C0C0C"/>
<stop offset="0.37" stop-color="#191919"/>
<stop offset="0.56" stop-color="#303030"/>
<stop offset="0.75" stop-color="#4F4F4F"/>
<stop offset="0.94" stop-color="#767676"/>
<stop offset="1" stop-color="#858585"/>
</linearGradient>
<linearGradient id="paint2_linear_6561_2652" x1="4.07715" y1="8.09666" x2="6.24289" y2="8.09666" gradientUnits="userSpaceOnUse">
<stop/>
<stop offset="0.45" stop-color="#383838"/>
<stop offset="1" stop-color="#C5C5C5"/>
</linearGradient>
<linearGradient id="paint3_linear_6561_2652" x1="73.0034" y1="4.4174" x2="90.3751" y2="4.4174" gradientUnits="userSpaceOnUse">
<stop stop-color="#C5C5C5"/>
<stop offset="0.55" stop-color="#383838"/>
<stop offset="1"/>
</linearGradient>
<linearGradient id="paint4_linear_6561_2652" x1="0.00012552" y1="39.9162" x2="0.143079" y2="39.9162" gradientUnits="userSpaceOnUse">
<stop/>
<stop offset="0.45" stop-color="#383838"/>
<stop offset="1" stop-color="#C5C5C5"/>
</linearGradient>
<linearGradient id="paint5_linear_6561_2652" x1="32.6004" y1="38.0002" x2="32.6004" y2="42.4505" gradientUnits="userSpaceOnUse">
<stop offset="0.04" stop-color="#080808"/>
<stop offset="0.2" stop-color="#0C0C0C"/>
<stop offset="0.37" stop-color="#191919"/>
<stop offset="0.56" stop-color="#303030"/>
<stop offset="0.75" stop-color="#4F4F4F"/>
<stop offset="0.94" stop-color="#767676"/>
<stop offset="1" stop-color="#858585"/>
</linearGradient>
<linearGradient id="paint6_linear_6561_2652" x1="54.9483" y1="37.9946" x2="54.9483" y2="42.6275" gradientUnits="userSpaceOnUse">
<stop offset="0.04" stop-color="#080808"/>
<stop offset="0.2" stop-color="#0C0C0C"/>
<stop offset="0.37" stop-color="#191919"/>
<stop offset="0.56" stop-color="#303030"/>
<stop offset="0.75" stop-color="#4F4F4F"/>
<stop offset="0.94" stop-color="#767676"/>
<stop offset="1" stop-color="#858585"/>
</linearGradient>
<linearGradient id="paint7_linear_6561_2652" x1="13.7192" y1="40.3488" x2="68.8005" y2="40.3488" gradientUnits="userSpaceOnUse">
<stop/>
<stop offset="0.55" stop-color="#A8A8A8"/>
<stop offset="0.65" stop-color="#868686"/>
<stop offset="0.88" stop-color="#323232"/>
<stop offset="1"/>
</linearGradient>
<linearGradient id="paint8_linear_6561_2652" x1="-0.000104365" y1="43.5898" x2="0.142849" y2="43.5898" gradientUnits="userSpaceOnUse">
<stop stop-color="#C5C5C5"/>
<stop offset="0.55" stop-color="#383838"/>
<stop offset="1"/>
</linearGradient>
<radialGradient id="paint9_radial_6561_2652" cx="0" cy="0" r="1" gradientUnits="userSpaceOnUse" gradientTransform="translate(7.60946 23.9761) scale(9.18188 14.6724)">
<stop stop-color="#858585"/>
<stop offset="0.39" stop-color="#505050"/>
<stop offset="0.91" stop-color="#030303"/>
</radialGradient>
<radialGradient id="paint10_radial_6561_2652" cx="0" cy="0" r="1" gradientUnits="userSpaceOnUse" gradientTransform="translate(63.8472 24.0885) scale(30.3647 45.4894)">
<stop offset="0.27" stop-color="#0D0D0D"/>
<stop offset="0.4" stop-color="#1A1A1A"/>
<stop offset="0.63" stop-color="#3E3E3E"/>
<stop offset="0.94" stop-color="#787878"/>
<stop offset="1" stop-color="#858585"/>
</radialGradient>
<linearGradient id="paint11_linear_6561_2652" x1="14.9416" y1="24.0742" x2="88.2766" y2="24.0742" gradientUnits="userSpaceOnUse">
<stop/>
<stop offset="0.49" stop-color="#5E5E5E"/>
<stop offset="1"/>
</linearGradient>
<linearGradient id="paint12_linear_6561_2652" x1="93.2612" y1="32.8476" x2="93.2612" y2="41.5667" gradientUnits="userSpaceOnUse">
<stop stop-color="#858585"/>
<stop offset="0.02" stop-color="#6F6F6F"/>
<stop offset="0.04" stop-color="#555555"/>
<stop offset="0.07" stop-color="#3F3F3F"/>
<stop offset="0.11" stop-color="#2E2E2E"/>
<stop offset="0.15" stop-color="#222222"/>
<stop offset="0.21" stop-color="#1B1B1B"/>
<stop offset="0.38" stop-color="#1A1A1A"/>
<stop offset="0.43" stop-color="#1C1C1C"/>
<stop offset="0.47" stop-color="#252626"/>
<stop offset="0.51" stop-color="#353535"/>
<stop offset="0.54" stop-color="#4B4B4B"/>
<stop offset="0.57" stop-color="#676868"/>
<stop offset="0.59" stop-color="#8A8B8B"/>
<stop offset="0.62" stop-color="#B2B3B4"/>
<stop offset="0.65" stop-color="#E1E2E3"/>
<stop offset="0.77" stop-color="#1C1C1C"/>
<stop offset="0.83" stop-color="#1E1E1E"/>
<stop offset="0.87" stop-color="#262626"/>
<stop offset="0.89" stop-color="#353535"/>
<stop offset="0.92" stop-color="#494949"/>
<stop offset="0.94" stop-color="#636363"/>
<stop offset="0.97" stop-color="#838383"/>
<stop offset="0.99" stop-color="#A9A9A9"/>
<stop offset="1" stop-color="#C8C8C8"/>
</linearGradient>
<linearGradient id="paint13_linear_6561_2652" x1="91.7758" y1="37.1707" x2="91.7758" y2="39.7863" gradientUnits="userSpaceOnUse">
<stop stop-color="#858585"/>
<stop offset="0.29" stop-color="white"/>
<stop offset="0.7" stop-color="#BFC1C3"/>
<stop offset="1"/>
</linearGradient>
<linearGradient id="paint14_linear_6561_2652" x1="94.0501" y1="35.8616" x2="94.0501" y2="37.1708" gradientUnits="userSpaceOnUse">
<stop stop-color="#858585"/>
<stop offset="0.29" stop-color="white"/>
<stop offset="0.7" stop-color="#BFC1C3"/>
<stop offset="1"/>
</linearGradient>
<linearGradient id="paint15_linear_6561_2652" x1="5.68281e-06" y1="15.1567" x2="0.142597" y2="6.43898" gradientUnits="userSpaceOnUse">
<stop stop-color="#858585"/>
<stop offset="0.02" stop-color="#6F6F6F"/>
<stop offset="0.04" stop-color="#555555"/>
<stop offset="0.07" stop-color="#3F3F3F"/>
<stop offset="0.11" stop-color="#2E2E2E"/>
<stop offset="0.15" stop-color="#222222"/>
<stop offset="0.21" stop-color="#1B1B1B"/>
<stop offset="0.38" stop-color="#1A1A1A"/>
<stop offset="0.43" stop-color="#1C1C1C"/>
<stop offset="0.47" stop-color="#252626"/>
<stop offset="0.51" stop-color="#353535"/>
<stop offset="0.54" stop-color="#4B4B4B"/>
<stop offset="0.57" stop-color="#676868"/>
<stop offset="0.59" stop-color="#8A8B8B"/>
<stop offset="0.62" stop-color="#B2B3B4"/>
<stop offset="0.65" stop-color="#E1E2E3"/>
<stop offset="0.77" stop-color="#1C1C1C"/>
<stop offset="0.83" stop-color="#1E1E1E"/>
<stop offset="0.87" stop-color="#262626"/>
<stop offset="0.89" stop-color="#353535"/>
<stop offset="0.92" stop-color="#494949"/>
<stop offset="0.94" stop-color="#636363"/>
<stop offset="0.97" stop-color="#838383"/>
<stop offset="0.99" stop-color="#A9A9A9"/>
<stop offset="1" stop-color="#C8C8C8"/>
</linearGradient>
<linearGradient id="paint16_linear_6561_2652" x1="-0.000123905" y1="10.8349" x2="0.142469" y2="8.21784" gradientUnits="userSpaceOnUse">
<stop stop-color="#858585"/>
<stop offset="0.29" stop-color="white"/>
<stop offset="0.7" stop-color="#BFC1C3"/>
<stop offset="1"/>
</linearGradient>
<linearGradient id="paint17_linear_6561_2652" x1="94.0501" y1="12.1442" x2="94.0501" y2="10.8349" gradientUnits="userSpaceOnUse">
<stop stop-color="#858585"/>
<stop offset="0.29" stop-color="white"/>
<stop offset="0.7" stop-color="#BFC1C3"/>
<stop offset="1"/>
</linearGradient>
<linearGradient id="paint18_linear_6561_2652" x1="-4.27561e-05" y1="7.5798" x2="68.8004" y2="7.5798" gradientUnits="userSpaceOnUse">
<stop/>
<stop offset="0.55" stop-color="#A8A8A8"/>
<stop offset="0.65" stop-color="#868686"/>
<stop offset="0.88" stop-color="#323232"/>
<stop offset="1"/>
</linearGradient>
<clipPath id="clip0_6561_2652">
<rect width="100" height="48" fill="white" transform="matrix(1 0 0 -1 0 48)"/>
</clipPath>
</defs>
</svg>
